<?xml version='1.0' encoding='utf-8'?>
<svg xmlns="http://www.w3.org/2000/svg" width="411.6797878407607mm" height="290.90572188127135mm" viewBox="0 0 411.6797878407607 290.90572188127135"><g id="BODY_OUTLINE" inkscape:label="BODY_OUTLINE" inkscape:groupmode="layer"><path d="M 366.141,272.290 L 361.007,276.064 L 353.785,280.745 L 177.086,280.906 L 171.949,280.891 L 143.486,274.816 L 141.064,273.488 L 132.784,271.720 L 130.176,268.729 L 125.222,266.589 L 123.483,264.595 L 120.378,263.932 L 119.971,263.304 L 117.494,262.234 L 116.069,260.036 L 115.293,259.870 L 112.482,256.565 L 109.691,255.699 L 104.195,247.221 L 101.146,246.300 L 98.334,242.994 L 97.354,242.514 L 86.771,226.187 L 84.442,225.690 L 77.476,226.638 L 68.865,226.423 L 59.753,224.749 L 51.639,222.205 L 43.135,217.685 L 34.962,211.612 L 27.490,203.524 L 22.346,195.933 L 18.404,187.787 L 17.331,186.475 L 13.478,175.373 L 10.620,159.612 L 10.000,147.305 L 10.308,139.525 L 12.276,127.771 L 14.064,121.930 L 17.808,113.260 L 18.971,111.614 L 19.799,107.733 L 21.866,104.387 L 23.323,100.098 L 26.238,95.310 L 31.038,89.300 L 38.443,82.494 L 47.179,77.054 L 48.546,75.722 L 51.889,74.001 L 60.794,71.573 L 72.435,70.270 L 82.285,71.020 L 91.342,72.953 L 93.022,71.418 L 93.999,68.109 L 102.790,62.411 L 104.822,61.762 L 152.544,71.407 L 160.393,66.319 L 161.132,65.394 L 165.108,46.764 L 166.123,44.546 L 184.648,32.538 L 185.166,32.648 L 196.469,25.321 L 198.501,24.673 L 206.037,19.788 L 206.554,19.899 L 211.578,16.642 L 212.668,16.605 L 213.924,15.790 L 216.364,15.770 L 217.620,14.956 L 218.396,15.122 L 226.245,10.033 L 267.916,10.000 L 351.494,27.839 L 352.363,28.836 L 355.727,29.554 L 356.393,30.238 L 367.205,32.816 L 369.406,35.180 L 386.206,60.409 L 386.982,60.575 L 401.432,82.867 L 401.680,91.848 L 395.604,120.311 L 383.932,128.100 L 382.955,131.409 L 384.231,133.034 L 385.142,138.910 L 386.770,141.422 L 387.715,144.599 L 385.244,151.106 L 383.453,153.159 L 382.845,156.005 L 383.753,158.092 L 385.564,158.479 L 389.172,164.390 Z" fill="none" stroke="#000000" stroke-width="0.5" /></g><g id="BRIDGE_ROUTE" inkscape:label="BRIDGE_ROUTE" inkscape:groupmode="layer"><path d="M 158.547,137.078 L 158.989,135.008 L 157.895,131.257 L 155.398,127.748 L 151.848,125.367 L 145.120,123.931 L 136.602,124.548 L 131.520,124.275 L 123.350,121.990 L 109.688,115.016 L 103.220,113.635 L 99.431,113.638 L 97.972,114.138 L 97.530,116.208 L 99.158,118.720 L 100.658,123.098 L 101.144,129.695 L 100.926,134.518 L 101.799,139.304 L 102.502,141.077 L 104.796,144.272 L 108.605,146.709 L 113.004,147.647 L 118.714,147.514 L 121.685,142.466 L 125.156,138.879 L 127.723,136.992 L 132.267,134.715 L 137.219,133.066 L 142.725,132.618 L 145.109,132.857 L 151.781,134.551 L 155.645,136.729 Z" fill="none" stroke="#FF8800" stroke-width="0.5" /><path d="M 195.358,183.893 L 197.605,174.633 L 198.338,166.132 L 198.041,164.987 L 195.195,164.379 L 180.708,165.075 L 179.155,164.743 L 176.347,165.226 L 174.535,164.839 L 173.335,165.395 L 170.433,165.046 L 170.064,165.508 L 167.107,165.418 L 166.479,165.825 L 163.877,170.410 L 160.037,174.460 L 154.126,178.068 L 149.175,179.717 L 145.904,179.830 L 145.277,180.238 L 138.531,180.151 L 134.650,179.322 L 128.920,177.017 L 122.800,172.735 L 120.192,169.743 L 118.619,166.972 L 116.290,166.475 L 117.121,166.382 L 117.618,164.053 L 116.656,162.225 L 116.580,160.044 L 116.118,159.675 L 116.284,158.899 L 115.728,157.698 L 116.516,148.938 L 112.783,148.683 L 108.643,147.799 L 106.425,146.784 L 103.189,144.200 L 101.764,142.002 L 100.357,138.455 L 99.717,123.709 L 97.457,117.816 L 94.960,114.307 L 95.698,113.382 L 97.416,112.937 L 103.699,112.655 L 109.909,113.981 L 115.585,116.545 L 122.333,120.420 L 127.342,122.301 L 133.866,123.423 L 145.341,122.896 L 152.069,124.332 L 156.340,127.138 L 158.634,130.333 L 159.689,132.993 L 160.489,139.386 L 163.411,142.174 L 164.781,144.631 L 168.662,145.459 L 175.980,145.398 L 176.735,143.124 L 174.221,140.964 L 172.130,138.083 L 170.723,134.536 L 170.444,132.042 L 171.880,125.314 L 173.688,121.912 L 176.752,117.697 L 178.319,112.891 L 177.726,110.600 L 176.708,109.030 L 173.620,107.018 L 167.873,106.062 L 161.221,106.806 L 151.632,109.900 L 142.710,113.677 L 136.724,115.105 L 133.194,115.163 L 127.502,113.948 L 124.766,112.823 L 118.128,108.430 L 103.225,97.133 L 98.178,94.162 L 89.822,90.214 L 83.981,88.426 L 71.968,86.403 L 63.560,86.502 L 58.515,87.319 L 57.480,87.098 L 49.148,89.378 L 44.142,91.286 L 37.714,94.783 L 30.326,100.241 L 25.120,105.622 L 21.686,110.300 L 17.756,117.307 L 15.340,123.555 L 12.541,135.403 L 11.680,145.770 L 11.669,154.696 L 12.786,164.674 L 14.344,172.581 L 14.955,173.523 L 15.383,176.591 L 17.976,184.719 L 22.881,194.694 L 27.562,201.916 L 34.369,209.321 L 38.474,212.902 L 44.594,217.185 L 51.656,220.856 L 57.442,222.903 L 67.016,224.946 L 74.482,225.458 L 83.832,224.748 L 93.254,222.431 L 99.775,219.764 L 107.570,214.935 L 116.379,207.887 L 123.783,201.081 L 128.179,198.232 L 132.927,196.269 L 137.398,195.600 L 140.355,195.690 L 148.118,197.347 L 158.450,200.905 L 165.751,202.193 L 172.755,202.335 L 178.168,201.056 L 182.916,199.093 L 188.733,194.653 L 193.274,188.589 Z" fill="none" stroke="#FF8800" stroke-width="0.5" /><path d="M 88.383,185.679 L 87.293,185.717 L 86.627,185.034 L 86.234,179.269 L 85.345,175.832 L 80.126,166.061 L 78.180,159.964 L 78.401,158.929 L 77.956,157.211 L 78.398,155.141 L 77.953,153.423 L 80.256,143.904 L 81.363,142.517 L 81.695,140.965 L 82.323,140.558 L 83.593,134.606 L 83.683,131.649 L 82.941,128.786 L 84.253,127.713 L 92.681,130.053 L 94.641,131.012 L 96.369,166.011 L 96.979,166.953 L 98.014,167.174 L 97.183,167.267 L 96.575,170.113 L 97.454,182.475 Z" fill="none" stroke="#FF8800" stroke-width="0.5" /><path d="M 90.063,184.144 L 95.901,182.144 L 96.454,179.556 L 95.633,170.724 L 93.563,170.282 L 92.456,171.669 L 91.421,171.448 L 90.662,169.933 L 90.938,168.639 L 90.531,168.011 L 87.740,167.145 L 88.661,164.095 L 87.996,163.412 L 90.694,163.447 L 91.191,161.118 L 87.309,160.290 L 88.103,159.106 L 90.746,159.400 L 91.499,153.338 L 90.778,152.913 L 91.589,150.381 L 91.641,146.334 L 92.120,145.354 L 93.839,144.909 L 94.336,142.581 L 93.995,132.768 L 93.236,131.254 L 85.270,129.283 L 84.459,131.815 L 84.811,132.702 L 83.727,140.316 L 82.453,142.479 L 82.122,144.032 L 81.087,143.811 L 80.459,144.218 L 80.110,147.120 L 79.538,147.268 L 79.041,149.597 L 80.020,150.076 L 78.971,154.993 L 79.715,161.645 L 80.864,165.136 L 86.435,175.794 L 87.418,180.062 L 87.272,183.278 Z" fill="none" stroke="#FF8800" stroke-width="0.5" /></g><g id="JACK_ROUTE" inkscape:label="JACK_ROUTE" inkscape:groupmode="layer"><path d="M 159.111,149.643 L 157.390,146.300 L 153.137,142.145 L 148.496,139.802 L 143.839,138.808 L 143.211,139.215 L 142.879,140.768 L 141.530,140.750 L 140.996,141.989 L 139.757,141.454 L 139.830,139.846 L 137.242,139.294 L 134.009,140.498 L 130.611,142.478 L 126.660,147.045 L 125.756,148.746 L 125.093,151.851 L 126.849,152.496 L 126.611,154.880 L 133.966,155.909 L 140.766,155.738 L 141.191,155.017 L 143.834,155.310 L 144.203,154.848 L 145.755,155.179 L 154.477,154.877 L 155.623,154.580 L 156.065,152.510 L 154.567,151.920 L 158.356,151.917 Z" fill="none" stroke="#888800" stroke-width="0.5" /></g><g id="NECK_POCKET" inkscape:label="NECK_POCKET" inkscape:groupmode="layer"><path d="M 378.824,141.890 L 376.551,141.134 L 374.870,142.669 L 371.248,141.896 L 369.678,142.914 L 366.610,143.341 L 365.872,144.266 L 364.578,143.990 L 358.482,145.935 L 353.437,146.752 L 351.664,147.456 L 351.129,148.694 L 347.193,148.125 L 346.251,148.735 L 341.410,149.866 L 338.398,150.035 L 337.642,152.309 L 339.916,153.064 L 351.336,152.796 L 352.888,153.128 L 353.775,152.776 L 370.167,153.299 L 372.364,151.874 L 374.545,151.798 L 375.301,149.525 L 376.908,149.598 L 378.254,145.827 Z" fill="none" stroke="#0000FF" stroke-width="0.5" /><path d="M 401.063,83.330 L 386.613,61.037 L 385.430,60.243 L 368.630,35.014 L 367.095,33.334 L 357.059,30.921 L 351.791,28.985 L 351.384,28.357 L 267.288,10.407 L 226.966,10.458 L 219.172,15.287 L 212.040,17.012 L 207.331,20.064 L 206.499,20.158 L 199.278,24.839 L 196.931,25.691 L 185.942,32.814 L 185.110,32.907 L 166.271,45.118 L 161.760,64.987 L 160.228,67.095 L 153.320,71.573 L 150.826,71.852 L 104.712,62.280 L 103.253,62.780 L 94.147,68.682 L 92.949,73.026 L 93.356,73.654 L 98.625,75.590 L 103.154,78.450 L 96.296,75.093 L 91.028,73.157 L 82.230,71.279 L 72.953,70.381 L 65.524,70.960 L 63.178,71.811 L 60.166,71.980 L 55.584,73.167 L 53.756,74.129 L 52.407,74.112 L 49.063,75.833 L 47.069,77.572 L 38.333,83.011 L 31.242,89.614 L 26.442,95.624 L 25.427,97.842 L 24.375,98.970 L 23.878,101.299 L 26.152,102.055 L 30.251,98.060 L 36.013,93.879 L 36.437,93.158 L 36.955,93.269 L 41.351,90.419 L 48.334,88.122 L 49.700,86.791 L 50.791,86.753 L 50.901,86.235 L 52.509,86.308 L 53.451,85.697 L 55.521,86.139 L 58.385,85.398 L 62.228,85.136 L 62.708,84.156 L 64.981,84.912 L 69.860,84.871 L 70.598,83.946 L 70.746,84.519 L 73.334,85.071 L 74.072,84.147 L 74.590,84.257 L 74.683,85.089 L 84.830,86.984 L 85.254,86.263 L 85.144,86.781 L 85.809,87.464 L 90.467,88.458 L 90.836,87.996 L 92.592,88.641 L 92.630,89.731 L 95.939,90.708 L 96.308,90.246 L 98.989,91.629 L 98.823,92.406 L 100.210,93.513 L 102.594,93.752 L 104.757,95.025 L 104.998,96.429 L 106.644,97.592 L 109.952,98.569 L 111.950,100.619 L 116.683,103.793 L 117.701,105.363 L 120.178,106.433 L 123.358,109.276 L 128.313,111.416 L 134.005,112.631 L 139.253,112.128 L 139.936,111.462 L 140.712,111.628 L 143.687,110.369 L 144.463,110.534 L 146.033,109.517 L 148.527,109.237 L 149.007,108.258 L 149.783,108.423 L 151.667,107.202 L 153.644,106.813 L 154.013,106.350 L 154.790,106.516 L 155.473,105.850 L 156.508,106.071 L 156.932,105.350 L 158.743,105.737 L 159.223,104.757 L 161.293,105.199 L 169.035,104.416 L 173.231,105.041 L 175.708,106.111 L 178.019,107.957 L 178.833,109.213 L 179.982,112.705 L 178.784,117.048 L 174.816,122.965 L 173.580,126.218 L 172.952,126.625 L 172.069,130.765 L 172.144,132.946 L 173.089,136.124 L 175.125,139.263 L 178.730,141.386 L 178.823,142.217 L 180.117,142.493 L 180.265,143.066 L 183.001,144.191 L 185.071,144.633 L 185.754,143.967 L 189.063,144.944 L 189.487,144.223 L 189.784,145.368 L 192.371,145.921 L 194.089,145.476 L 194.624,144.237 L 197.785,144.641 L 198.154,144.179 L 198.820,144.862 L 204.309,145.763 L 204.937,145.356 L 207.007,145.798 L 207.376,145.336 L 209.187,145.722 L 209.815,145.315 L 210.257,143.245 L 207.483,141.030 L 206.021,137.742 L 202.785,135.157 L 205.724,136.596 L 207.908,140.309 L 210.219,142.155 L 212.641,143.483 L 218.389,144.440 L 227.777,144.820 L 328.507,144.407 L 333.551,143.590 L 335.953,142.479 L 337.764,142.866 L 342.953,138.833 L 347.628,138.478 L 348.253,134.283 L 347.125,133.230 L 348.250,130.494 L 349.820,129.477 L 350.282,129.846 L 349.599,130.512 L 349.157,132.582 L 351.172,133.282 L 349.861,134.355 L 349.309,136.943 L 349.661,137.830 L 352.821,138.234 L 360.359,137.137 L 361.133,133.515 L 360.412,133.090 L 360.319,132.259 L 358.359,131.299 L 358.321,130.209 L 358.911,128.712 L 360.167,127.898 L 364.252,129.040 L 364.863,129.982 L 364.735,131.849 L 362.592,133.015 L 362.150,135.085 L 362.447,136.230 L 364.776,136.727 L 372.370,135.372 L 373.806,128.644 L 373.195,127.703 L 371.125,127.261 L 370.590,128.499 L 370.017,128.648 L 369.517,127.188 L 370.532,124.970 L 372.674,123.804 L 374.541,123.932 L 375.873,125.298 L 374.413,125.798 L 373.916,128.127 L 374.213,129.272 L 376.283,129.714 L 377.169,129.362 L 376.431,130.287 L 374.713,130.732 L 374.254,134.151 L 376.324,134.593 L 381.792,133.055 L 382.621,129.173 L 383.784,127.528 L 395.087,120.201 L 401.218,91.479 Z" fill="none" stroke="#0000FF" stroke-width="0.5" /><path d="M 388.655,164.279 L 385.195,158.941 L 382.348,158.334 L 380.575,159.037 L 376.010,158.875 L 375.382,159.282 L 374.571,161.814 L 372.743,162.777 L 370.728,162.076 L 370.763,159.378 L 368.434,158.881 L 367.806,159.288 L 363.186,159.384 L 362.375,161.916 L 360.122,163.600 L 358.625,163.010 L 358.918,160.367 L 356.276,160.073 L 355.741,161.312 L 353.208,160.501 L 349.310,161.021 L 347.536,161.725 L 346.873,164.830 L 345.987,165.182 L 344.489,164.592 L 343.786,162.818 L 340.422,162.100 L 337.907,159.940 L 332.270,158.466 L 330.348,158.597 L 328.833,159.356 L 323.437,159.287 L 295.239,160.843 L 292.855,160.605 L 280.234,161.428 L 200.646,164.190 L 199.835,166.722 L 199.158,174.965 L 197.667,181.951 L 195.731,187.219 L 193.498,191.342 L 190.858,194.837 L 187.128,198.369 L 183.988,200.404 L 176.636,203.164 L 168.062,204.039 L 157.860,202.403 L 146.751,198.679 L 140.800,197.408 L 136.494,197.301 L 132.799,198.136 L 128.938,199.746 L 125.798,201.782 L 110.212,215.229 L 101.162,220.872 L 94.900,223.594 L 88.803,225.539 L 88.361,227.609 L 97.927,242.366 L 101.718,246.151 L 104.972,247.387 L 110.060,255.236 L 112.592,256.047 L 116.846,260.202 L 118.067,262.086 L 120.489,263.414 L 124.056,264.446 L 125.332,266.071 L 130.749,268.580 L 133.153,271.258 L 140.657,272.860 L 143.079,274.188 L 172.577,280.484 L 353.323,280.376 L 365.624,272.180 Z" fill="none" stroke="#0000FF" stroke-width="0.5" /></g></svg>