  0
SECTION
  2
HEADER
  9
$ACADVER
  1
AC1009
  9
$DWGCODEPAGE
  3
ANSI_1252
  9
$INSBASE
 10
0.0
 20
0.0
 30
0.0
  9
$EXTMIN
 10
1e+20
 20
1e+20
 30
1e+20
  9
$EXTMAX
 10
-1e+20
 20
-1e+20
 30
-1e+20
  9
$LIMMIN
 10
0.0
 20
0.0
  9
$LIMMAX
 10
420.0
 20
297.0
  9
$ORTHOMODE
 70
0
  9
$REGENMODE
 70
1
  9
$FILLMODE
 70
1
  9
$DRAGMODE
 70
2
  9
$QTEXTMODE
 70
0
  9
$MIRRTEXT
 70
1
  9
$OSMODE
 70
20583
  9
$LTSCALE
 40
1.0
  9
$ATTMODE
 70
1
  9
$TEXTSIZE
 40
2.5
  9
$TRACEWID
 40
1.0
  9
$TEXTSTYLE
  7
Standard
  9
$CLAYER
  8
0
  9
$CELTYPE
  6
ByLayer
  9
$CECOLOR
 62
256
  9
$DIMSCALE
 40
1.0
  9
$DIMASZ
 40
2.5
  9
$DIMEXO
 40
0.625
  9
$DIMDLI
 40
3.75
  9
$DIMRND
 40
0.0
  9
$DIMDLE
 40
0.0
  9
$DIMEXE
 40
1.25
  9
$DIMTP
 40
0.0
  9
$DIMTM
 40
0.0
  9
$DIMTXT
 40
2.5
  9
$DIMCEN
 40
2.5
  9
$DIMTSZ
 40
0.0
  9
$DIMTOL
 70
0
  9
$DIMLIM
 70
0
  9
$DIMTIH
 70
0
  9
$DIMTOH
 70
0
  9
$DIMSE1
 70
0
  9
$DIMSE2
 70
0
  9
$DIMTAD
 70
1
  9
$DIMZIN
 70
8
  9
$DIMBLK
  1

  9
$DIMASO
 70
1
  9
$DIMSHO
 70
1
  9
$DIMPOST
  1

  9
$DIMAPOST
  1

  9
$DIMALT
 70
0
  9
$DIMALTD
 70
3
  9
$DIMALTF
 40
0.03937007874
  9
$DIMLFAC
 40
1.0
  9
$DIMTOFL
 70
1
  9
$DIMTVP
 40
0.0
  9
$DIMTIX
 70
0
  9
$DIMSOXD
 70
0
  9
$DIMSAH
 70
0
  9
$DIMBLK1
  1

  9
$DIMBLK2
  1

  9
$DIMSTYLE
  2
ISO-25
  9
$DIMCLRD
 70
0
  9
$DIMCLRE
 70
0
  9
$DIMCLRT
 70
0
  9
$DIMTFAC
 40
1.0
  9
$DIMGAP
 40
0.625
  9
$COORDS
 70
1
  9
$ATTDIA
 70
0
  9
$ATTREQ
 70
1
  9
$HANDLING
 70
1
  9
$LUNITS
 70
2
  9
$LUPREC
 70
4
  9
$SKETCHINC
 40
1.0
  9
$FILLETRAD
 40
10.0
  9
$AUNITS
 70
0
  9
$AUPREC
 70
2
  9
$MENU
  1
.
  9
$ELEVATION
 40
0.0
  9
$PELEVATION
 40
0.0
  9
$THICKNESS
 40
0.0
  9
$LIMCHECK
 70
0
  9
$CHAMFERA
 40
0.0
  9
$CHAMFERB
 40
0.0
  9
$SKPOLY
 70
0
  9
$TDCREATE
 40
2461114.499224537
  9
$TDUPDATE
 40
2461114.499236111
  9
$TDINDWG
 40
0.0
  9
$TDUSRTIMER
 40
0.0
  9
$USRTIMER
 70
1
  9
$ANGBASE
 50
0.0
  9
$ANGDIR
 70
0
  9
$PDMODE
 70
0
  9
$PDSIZE
 40
0.0
  9
$PLINEWID
 40
0.0
  9
$SPLFRAME
 70
0
  9
$SPLINETYPE
 70
6
  9
$SPLINESEGS
 70
8
  9
$HANDSEED
  5
2F9
  9
$SURFTAB1
 70
6
  9
$SURFTAB2
 70
6
  9
$SURFTYPE
 70
6
  9
$SURFU
 70
6
  9
$SURFV
 70
6
  9
$UCSNAME
  2

  9
$UCSORG
 10
0.0
 20
0.0
 30
0.0
  9
$UCSXDIR
 10
1.0
 20
0.0
 30
0.0
  9
$UCSYDIR
 10
0.0
 20
1.0
 30
0.0
  9
$PUCSNAME
  2

  9
$PUCSORG
 10
0.0
 20
0.0
 30
0.0
  9
$PUCSXDIR
 10
1.0
 20
0.0
 30
0.0
  9
$PUCSYDIR
 10
0.0
 20
1.0
 30
0.0
  9
$USERI1
 70
0
  9
$USERI2
 70
0
  9
$USERI3
 70
0
  9
$USERI4
 70
0
  9
$USERI5
 70
0
  9
$USERR1
 40
0.0
  9
$USERR2
 40
0.0
  9
$USERR3
 40
0.0
  9
$USERR4
 40
0.0
  9
$USERR5
 40
0.0
  9
$WORLDVIEW
 70
1
  9
$SHADEDGE
 70
3
  9
$SHADEDIF
 70
70
  9
$TILEMODE
 70
1
  9
$MAXACTVP
 70
64
  9
$PLIMCHECK
 70
0
  9
$PEXTMIN
 10
1e+20
 20
1e+20
 30
1e+20
  9
$PEXTMAX
 10
-1e+20
 20
-1e+20
 30
-1e+20
  9
$PLIMMIN
 10
0.0
 20
0.0
  9
$PLIMMAX
 10
420.0
 20
297.0
  9
$UNITMODE
 70
0
  9
$VISRETAIN
 70
1
  9
$PLINEGEN
 70
0
  9
$PSLTSCALE
 70
1
  0
ENDSEC
  0
SECTION
  2
TABLES
  0
TABLE
  2
VPORT
 70
1
  0
VPORT
  5
23
  2
*Active
 70
0
 10
0.0
 20
0.0
 11
1.0
 21
1.0
 12
0.0
 22
0.0
 13
0.0
 23
0.0
 14
0.5
 24
0.5
 15
0.5
 25
0.5
 16
0.0
 26
0.0
 36
1.0
 17
0.0
 27
0.0
 37
0.0
 40
1000.0
 41
1.34
 42
50.0
 43
0.0
 44
0.0
 50
0.0
 51
0.0
 71
0
 72
1000
 73
1
 74
3
 75
0
 76
0
 77
0
 78
0
  0
ENDTAB
  0
TABLE
  2
LTYPE
 70
3
  0
LTYPE
  5
24
  2
ByBlock
 70
0
  3

 72
65
 73
0
 40
0.0
  0
LTYPE
  5
25
  2
ByLayer
 70
0
  3

 72
65
 73
0
 40
0.0
  0
LTYPE
  5
26
  2
Continuous
 70
0
  3

 72
65
 73
0
 40
0.0
  0
ENDTAB
  0
TABLE
  2
LAYER
 70
6
  0
LAYER
  5
27
  2
0
 70
0
 62
7
  6
Continuous
  0
LAYER
  5
28
  2
Defpoints
 70
0
 62
7
  6
Continuous
  0
LAYER
  5
2D
  2
BODY_OUTLINE
 70
0
 62
7
  6
Continuous
  0
LAYER
  5
95
  2
BRIDGE_ROUTE
 70
0
 62
7
  6
Continuous
  0
LAYER
  5
18D
  2
JACK_ROUTE
 70
0
 62
7
  6
Continuous
  0
LAYER
  5
1AE
  2
NECK_POCKET
 70
0
 62
7
  6
Continuous
  0
ENDTAB
  0
TABLE
  2
STYLE
 70
1
  0
STYLE
  5
29
  2
Standard
 70
0
 40
0.0
 41
1.0
 50
0.0
 71
0
 42
2.5
  3
txt
  4

  0
ENDTAB
  0
TABLE
  2
VIEW
 70
0
  0
ENDTAB
  0
TABLE
  2
UCS
 70
0
  0
ENDTAB
  0
TABLE
  2
APPID
 70
3
  0
APPID
  5
2A
  2
ACAD
 70
0
  0
APPID
  5
2F7
  2
HATCHBACKGROUNDCOLOR
 70
0
  0
APPID
  5
2F8
  2
EZDXF
 70
0
  0
ENDTAB
  0
TABLE
  2
DIMSTYLE
 70
1
  0
DIMSTYLE
105
2B
  2
Standard
 70
0
  3

  4

  5

  6

  7

 40
1.0
 41
2.5
 42
0.625
 43
3.75
 44
1.25
 45
0.0
 46
0.0
 47
0.0
 48
0.0
140
2.5
141
2.5
142
0.0
143
0.03937007874
144
1.0
145
0.0
146
1.0
147
0.625
 71
0
 72
0
 73
0
 74
0
 75
0
 76
0
 77
1
 78
8
170
0
171
3
172
1
173
0
174
0
175
0
176
0
177
0
178
0
  0
ENDTAB
  0
ENDSEC
  0
SECTION
  2
BLOCKS
  0
BLOCK
  5
18
  8
0
  2
$Model_Space
 70
0
 10
0.0
 20
0.0
 30
0.0
  3
$Model_Space
  1

1001
EZDXF
1000
CREATED_BY_EZDXF
1000
1.4.3 @ 2026-03-14T16:58:53.962115+00:00
1000
WRITTEN_BY_EZDXF
1000
1.4.3 @ 2026-03-14T16:58:54.007971+00:00
  0
ENDBLK
  5
19
  8
0
  0
BLOCK
  5
1C
  8
0
  2
$Paper_Space
 70
0
 10
0.0
 20
0.0
 30
0.0
  3
$Paper_Space
  1

  0
ENDBLK
  5
1D
  8
0
  0
ENDSEC
  0
SECTION
  2
ENTITIES
  0
POLYLINE
  5
2E
  8
BODY_OUTLINE
 66
1
 10
0.0
 20
0.0
 30
0.0
 70
1
  0
VERTEX
  5
30
  8
BODY_OUTLINE
 10
366.1412433478612
 20
272.29027525462635
 30
0.0
 70
0
  0
VERTEX
  5
31
  8
BODY_OUTLINE
 10
361.00703845681153
 20
276.0641865360217
 30
0.0
 70
0
  0
VERTEX
  5
32
  8
BODY_OUTLINE
 10
353.78538997852996
 20
280.7452485882932
 30
0.0
 70
0
  0
VERTEX
  5
33
  8
BODY_OUTLINE
 10
177.08636969997448
 20
280.90572188127135
 30
0.0
 70
0
  0
VERTEX
  5
34
  8
BODY_OUTLINE
 10
171.94911132924236
 20
280.891371930837
 30
0.0
 70
0
  0
VERTEX
  5
35
  8
BODY_OUTLINE
 10
143.48609637363384
 20
274.81607276206717
 30
0.0
 70
0
  0
VERTEX
  5
36
  8
BODY_OUTLINE
 10
141.0642382251012
 20
273.48751161618077
 30
0.0
 70
0
  0
VERTEX
  5
37
  8
BODY_OUTLINE
 10
132.78408960686187
 20
271.72015211135897
 30
0.0
 70
0
  0
VERTEX
  5
38
  8
BODY_OUTLINE
 10
130.17610159444382
 20
268.7285933978643
 30
0.0
 70
0
  0
VERTEX
  5
39
  8
BODY_OUTLINE
 10
125.22192734198293
 20
266.58898923526215
 30
0.0
 70
0
  0
VERTEX
  5
3A
  8
BODY_OUTLINE
 10
123.48326972876083
 20
264.594611785384
 30
0.0
 70
0
  0
VERTEX
  5
3B
  8
BODY_OUTLINE
 10
120.37821423008741
 20
263.9318520208441
 30
0.0
 70
0
  0
VERTEX
  5
3C
  8
BODY_OUTLINE
 10
119.97116285941881
 20
263.3038895171388
 30
0.0
 70
0
  0
VERTEX
  5
3D
  8
BODY_OUTLINE
 10
117.4940789183581
 20
262.23407251319264
 30
0.0
 70
0
  0
VERTEX
  5
3E
  8
BODY_OUTLINE
 10
116.0694038987726
 20
260.03618136625647
 30
0.0
 70
0
  0
VERTEX
  5
3F
  8
BODY_OUTLINE
 10
115.29314282210022
 20
259.87049202234084
 30
0.0
 70
0
  0
VERTEX
  5
40
  8
BODY_OUTLINE
 10
112.48162753176304
 20
256.5649595183161
 30
0.0
 70
0
  0
VERTEX
  5
41
  8
BODY_OUTLINE
 10
109.69055940448084
 20
255.69866367275048
 30
0.0
 70
0
  0
VERTEX
  5
42
  8
BODY_OUTLINE
 10
104.19539033471933
 20
247.22107367182838
 30
0.0
 70
0
  0
VERTEX
  5
43
  8
BODY_OUTLINE
 10
101.14556781715079
 20
246.2995634984643
 30
0.0
 70
0
  0
VERTEX
  5
44
  8
BODY_OUTLINE
 10
98.33405785005976
 20
242.99402432940943
 30
0.0
 70
0
  0
VERTEX
  5
45
  8
BODY_OUTLINE
 10
97.35426735739179
 20
242.5143529373487
 30
0.0
 70
0
  0
VERTEX
  5
46
  8
BODY_OUTLINE
 10
86.77098113402896
 20
226.1871511581473
 30
0.0
 70
0
  0
VERTEX
  5
47
  8
BODY_OUTLINE
 10
84.44218298136666
 20
225.6900799412306
 30
0.0
 70
0
  0
VERTEX
  5
48
  8
BODY_OUTLINE
 10
77.47625115457137
 20
226.63812185304695
 30
0.0
 70
0
  0
VERTEX
  5
49
  8
BODY_OUTLINE
 10
68.86472785190779
 20
226.42329315733113
 30
0.0
 70
0
  0
VERTEX
  5
4A
  8
BODY_OUTLINE
 10
59.753079579899236
 20
224.74899352297922
 30
0.0
 70
0
  0
VERTEX
  5
4B
  8
BODY_OUTLINE
 10
51.63862590156748
 20
222.20537413592365
 30
0.0
 70
0
  0
VERTEX
  5
4C
  8
BODY_OUTLINE
 10
43.13450734736281
 20
217.6847739386762
 30
0.0
 70
0
  0
VERTEX
  5
4D
  8
BODY_OUTLINE
 10
34.96176907357432
 20
211.61164412676138
 30
0.0
 70
0
  0
VERTEX
  5
4E
  8
BODY_OUTLINE
 10
27.48964317017348
 20
203.52371631814418
 30
0.0
 70
0
  0
VERTEX
  5
4F
  8
BODY_OUTLINE
 10
22.346285574144673
 20
195.9328533561042
 30
0.0
 70
0
  0
VERTEX
  5
50
  8
BODY_OUTLINE
 10
18.403653580373117
 20
187.7866452281831
 30
0.0
 70
0
  0
VERTEX
  5
51
  8
BODY_OUTLINE
 10
17.330793765181625
 20
186.47548191642153
 30
0.0
 70
0
  0
VERTEX
  5
52
  8
BODY_OUTLINE
 10
13.47817415633557
 20
175.372511539548
 30
0.0
 70
0
  0
VERTEX
  5
53
  8
BODY_OUTLINE
 10
10.619694592445626
 20
159.61195604933366
 30
0.0
 70
0
  0
VERTEX
  5
54
  8
BODY_OUTLINE
 10
10.0
 20
147.30523775564973
 30
0.0
 70
0
  0
VERTEX
  5
55
  8
BODY_OUTLINE
 10
10.307891353209186
 20
139.52520104944085
 30
0.0
 70
0
  0
VERTEX
  5
56
  8
BODY_OUTLINE
 10
12.275723336428598
 20
127.77078031069328
 30
0.0
 70
0
  0
VERTEX
  5
57
  8
BODY_OUTLINE
 10
14.063530549796923
 20
121.9298840698506
 30
0.0
 70
0
  0
VERTEX
  5
58
  8
BODY_OUTLINE
 10
17.80786111414733
 20
113.26007970880468
 30
0.0
 70
0
  0
VERTEX
  5
59
  8
BODY_OUTLINE
 10
18.970732119825726
 20
111.61448636760574
 30
0.0
 70
0
  0
VERTEX
  5
5A
  8
BODY_OUTLINE
 10
19.799182024573696
 20
107.73316606159864
 30
0.0
 70
0
  0
VERTEX
  5
5B
  8
BODY_OUTLINE
 10
21.866180366788825
 20
104.3867513715925
 30
0.0
 70
0
  0
VERTEX
  5
5C
  8
BODY_OUTLINE
 10
23.322592601053117
 20
100.09838051099896
 30
0.0
 70
0
  0
VERTEX
  5
5D
  8
BODY_OUTLINE
 10
26.23848808376411
 20
95.30990010746252
 30
0.0
 70
0
  0
VERTEX
  5
5E
  8
BODY_OUTLINE
 10
31.038271077590935
 20
89.30026559192032
 30
0.0
 70
0
  0
VERTEX
  5
5F
  8
BODY_OUTLINE
 10
38.443002059614
 20
82.49392947973598
 30
0.0
 70
0
  0
VERTEX
  5
60
  8
BODY_OUTLINE
 10
47.17934993068286
 20
77.05399498366424
 30
0.0
 70
0
  0
VERTEX
  5
61
  8
BODY_OUTLINE
 10
48.545749954210606
 20
75.72238555594099
 30
0.0
 70
0
  0
VERTEX
  5
62
  8
BODY_OUTLINE
 10
51.88912014143794
 20
74.00112458240511
 30
0.0
 70
0
  0
VERTEX
  5
63
  8
BODY_OUTLINE
 10
60.794184448730206
 20
71.57317680797485
 30
0.0
 70
0
  0
VERTEX
  5
64
  8
BODY_OUTLINE
 10
72.43510414809109
 20
70.27027180807394
 30
0.0
 70
0
  0
VERTEX
  5
65
  8
BODY_OUTLINE
 10
82.28517581356938
 20
71.0200064695402
 30
0.0
 70
0
  0
VERTEX
  5
66
  8
BODY_OUTLINE
 10
91.34159483513432
 20
72.95305730900876
 30
0.0
 70
0
  0
VERTEX
  5
67
  8
BODY_OUTLINE
 10
93.0219678528997
 20
71.41792433402762
 30
0.0
 70
0
  0
VERTEX
  5
68
  8
BODY_OUTLINE
 10
93.99871712690724
 20
68.10934101194349
 30
0.0
 70
0
  0
VERTEX
  5
69
  8
BODY_OUTLINE
 10
102.79029504471214
 20
62.410651580093855
 30
0.0
 70
0
  0
VERTEX
  5
6A
  8
BODY_OUTLINE
 10
104.82249525514779
 20
61.76224509850333
 30
0.0
 70
0
  0
VERTEX
  5
6B
  8
BODY_OUTLINE
 10
152.54381503315534
 20
71.40705347457505
 30
0.0
 70
0
  0
VERTEX
  5
6C
  8
BODY_OUTLINE
 10
160.3934342727572
 20
66.31893791355859
 30
0.0
 70
0
  0
VERTEX
  5
6D
  8
BODY_OUTLINE
 10
161.13186060059581
 20
65.39437746762664
 30
0.0
 70
0
  0
VERTEX
  5
6E
  8
BODY_OUTLINE
 10
165.1084207804201
 20
46.764037014263536
 30
0.0
 70
0
  0
VERTEX
  5
6F
  8
BODY_OUTLINE
 10
166.1230002763077
 20
44.54570641639583
 30
0.0
 70
0
  0
VERTEX
  5
70
  8
BODY_OUTLINE
 10
184.64809693310653
 20
32.53774596973997
 30
0.0
 70
0
  0
VERTEX
  5
71
  8
BODY_OUTLINE
 10
185.16560680466233
 20
32.648206063212
 30
0.0
 70
0
  0
VERTEX
  5
72
  8
BODY_OUTLINE
 10
196.46905552867116
 20
25.321323387765176
 30
0.0
 70
0
  0
VERTEX
  5
73
  8
BODY_OUTLINE
 10
198.50125840072985
 20
24.6729135736596
 30
0.0
 70
0
  0
VERTEX
  5
74
  8
BODY_OUTLINE
 10
206.03689079248716
 20
19.78832250353875
 30
0.0
 70
0
  0
VERTEX
  5
75
  8
BODY_OUTLINE
 10
206.5543987987123
 20
19.89878219886458
 30
0.0
 70
0
  0
VERTEX
  5
76
  8
BODY_OUTLINE
 10
211.57815478827374
 20
16.64238317790236
 30
0.0
 70
0
  0
VERTEX
  5
77
  8
BODY_OUTLINE
 10
212.66840284916358
 20
16.60455196065672
 30
0.0
 70
0
  0
VERTEX
  5
78
  8
BODY_OUTLINE
 10
213.92434184655394
 20
15.790452205416159
 30
0.0
 70
0
  0
VERTEX
  5
79
  8
BODY_OUTLINE
 10
216.36359290411153
 20
15.770019817660966
 30
0.0
 70
0
  0
VERTEX
  5
7A
  8
BODY_OUTLINE
 10
217.61953096883656
 20
14.955919863347276
 30
0.0
 70
0
  0
VERTEX
  5
7B
  8
BODY_OUTLINE
 10
218.39579577617025
 20
15.121610003555361
 30
0.0
 70
0
  0
VERTEX
  5
7C
  8
BODY_OUTLINE
 10
226.24541235414904
 20
10.033497775053974
 30
0.0
 70
0
  0
VERTEX
  5
7D
  8
BODY_OUTLINE
 10
267.9162256305823
 20
10.0
 30
0.0
 70
0
  0
VERTEX
  5
7E
  8
BODY_OUTLINE
 10
351.4939915429545
 20
27.839288373595934
 30
0.0
 70
0
  0
VERTEX
  5
7F
  8
BODY_OUTLINE
 10
352.36331875698073
 20
28.836484559857553
 30
0.0
 70
0
  0
VERTEX
  5
80
  8
BODY_OUTLINE
 10
355.7271217301095
 20
29.554472778548615
 30
0.0
 70
0
  0
VERTEX
  5
81
  8
BODY_OUTLINE
 10
356.39293922853983
 20
30.237667717867225
 30
0.0
 70
0
  0
VERTEX
  5
82
  8
BODY_OUTLINE
 10
367.2054082268603
 20
32.81608675463471
 30
0.0
 70
0
  0
VERTEX
  5
83
  8
BODY_OUTLINE
 10
369.4063405924569
 20
35.17966644919409
 30
0.0
 70
0
  0
VERTEX
  5
84
  8
BODY_OUTLINE
 10
386.2058255737336
 20
60.408890520734886
 30
0.0
 70
0
  0
VERTEX
  5
85
  8
BODY_OUTLINE
 10
386.98208665040596
 20
60.574579864650545
 30
0.0
 70
0
  0
VERTEX
  5
86
  8
BODY_OUTLINE
 10
401.4323391005341
 20
82.86749098837029
 30
0.0
 70
0
  0
VERTEX
  5
87
  8
BODY_OUTLINE
 10
401.6797878407607
 20
91.8482405122677
 30
0.0
 70
0
  0
VERTEX
  5
88
  8
BODY_OUTLINE
 10
395.6044890701371
 20
120.31125360254558
 30
0.0
 70
0
  0
VERTEX
  5
89
  8
BODY_OUTLINE
 10
383.93182745495477
 20
128.10042436042716
 30
0.0
 70
0
  0
VERTEX
  5
8A
  8
BODY_OUTLINE
 10
382.9550789772396
 20
131.40900395185002
 30
0.0
 70
0
  0
VERTEX
  5
8B
  8
BODY_OUTLINE
 10
384.2314658195494
 20
133.0341605037405
 30
0.0
 70
0
  0
VERTEX
  5
8C
  8
BODY_OUTLINE
 10
385.14167591690085
 20
138.90984706764192
 30
0.0
 70
0
  0
VERTEX
  5
8D
  8
BODY_OUTLINE
 10
386.7698601065906
 20
141.42172374258354
 30
0.0
 70
0
  0
VERTEX
  5
8E
  8
BODY_OUTLINE
 10
387.7148674647767
 20
144.5994061784801
 30
0.0
 70
0
  0
VERTEX
  5
8F
  8
BODY_OUTLINE
 10
385.24386730282083
 20
151.1061105910999
 30
0.0
 70
0
  0
VERTEX
  5
90
  8
BODY_OUTLINE
 10
383.4530196670845
 20
153.15874838713646
 30
0.0
 70
0
  0
VERTEX
  5
91
  8
BODY_OUTLINE
 10
382.8454895511344
 20
156.0050508153626
 30
0.0
 70
0
  0
VERTEX
  5
92
  8
BODY_OUTLINE
 10
383.7526580316792
 20
158.09248453044978
 30
0.0
 70
0
  0
VERTEX
  5
93
  8
BODY_OUTLINE
 10
385.56393885146315
 20
158.47909406130955
 30
0.0
 70
0
  0
VERTEX
  5
94
  8
BODY_OUTLINE
 10
389.1721505405967
 20
164.38957149376122
 30
0.0
 70
0
  0
SEQEND
  5
2F
  8
BODY_OUTLINE
  0
POLYLINE
  5
96
  8
BRIDGE_ROUTE
 66
1
 10
0.0
 20
0.0
 30
0.0
 70
1
  0
VERTEX
  5
98
  8
BRIDGE_ROUTE
 10
158.54692334445377
 20
137.07768750980412
 30
0.0
 70
0
  0
VERTEX
  5
99
  8
BRIDGE_ROUTE
 10
158.9887632704275
 20
135.00765012207796
 30
0.0
 70
0
  0
VERTEX
  5
9A
  8
BRIDGE_ROUTE
 10
157.89547236145603
 20
131.2572296904342
 30
0.0
 70
0
  0
VERTEX
  5
9B
  8
BRIDGE_ROUTE
 10
155.39794682942787
 20
127.74816819716713
 30
0.0
 70
0
  0
VERTEX
  5
9C
  8
BRIDGE_ROUTE
 10
151.8480064056907
 20
125.36719054308243
 30
0.0
 70
0
  0
VERTEX
  5
9D
  8
BRIDGE_ROUTE
 10
145.1203818061268
 20
123.93121012423813
 30
0.0
 70
0
  0
VERTEX
  5
9E
  8
BRIDGE_ROUTE
 10
136.60191633539324
 20
124.54787235834387
 30
0.0
 70
0
  0
VERTEX
  5
9F
  8
BRIDGE_ROUTE
 10
131.51988624560303
 20
124.2747666076528
 30
0.0
 70
0
  0
VERTEX
  5
A0
  8
BRIDGE_ROUTE
 10
123.35019585550509
 20
121.98989683312898
 30
0.0
 70
0
  0
VERTEX
  5
A1
  8
BRIDGE_ROUTE
 10
109.68838800999752
 20
115.01569789136647
 30
0.0
 70
0
  0
VERTEX
  5
A2
  8
BRIDGE_ROUTE
 10
103.21952580753407
 20
113.63494911184307
 30
0.0
 70
0
  0
VERTEX
  5
A3
  8
BRIDGE_ROUTE
 10
99.43125930418604
 20
113.63799073962218
 30
0.0
 70
0
  0
VERTEX
  5
A4
  8
BRIDGE_ROUTE
 10
97.97180567707234
 20
114.13810770215301
 30
0.0
 70
0
  0
VERTEX
  5
A5
  8
BRIDGE_ROUTE
 10
97.52996580086688
 20
116.20814485671283
 30
0.0
 70
0
  0
VERTEX
  5
A6
  8
BRIDGE_ROUTE
 10
99.15815043847117
 20
118.7200194331575
 30
0.0
 70
0
  0
VERTEX
  5
A7
  8
BRIDGE_ROUTE
 10
100.6584986863855
 20
123.0984109560813
 30
0.0
 70
0
  0
VERTEX
  5
A8
  8
BRIDGE_ROUTE
 10
101.14425972824827
 20
129.69513265011955
 30
0.0
 70
0
  0
VERTEX
  5
A9
  8
BRIDGE_ROUTE
 10
100.92638085950115
 20
134.51840664104333
 30
0.0
 70
0
  0
VERTEX
  5
AA
  8
BRIDGE_ROUTE
 10
101.79876660371019
 20
139.3038495346357
 30
0.0
 70
0
  0
VERTEX
  5
AB
  8
BRIDGE_ROUTE
 10
102.50239154190669
 20
141.0772942857468
 30
0.0
 70
0
  0
VERTEX
  5
AC
  8
BRIDGE_ROUTE
 10
104.7964073563795
 20
144.27237281583803
 30
0.0
 70
0
  0
VERTEX
  5
AD
  8
BRIDGE_ROUTE
 10
108.60509485642577
 20
146.70858078940455
 30
0.0
 70
0
  0
VERTEX
  5
AE
  8
BRIDGE_ROUTE
 10
113.00392503398865
 20
147.64749078762458
 30
0.0
 70
0
  0
VERTEX
  5
AF
  8
BRIDGE_ROUTE
 10
118.71392518834324
 20
147.51354629389925
 30
0.0
 70
0
  0
VERTEX
  5
B0
  8
BRIDGE_ROUTE
 10
121.68503579514514
 20
142.4663077694152
 30
0.0
 70
0
  0
VERTEX
  5
B1
  8
BRIDGE_ROUTE
 10
125.15626510440808
 20
138.8785329949905
 30
0.0
 70
0
  0
VERTEX
  5
B2
  8
BRIDGE_ROUTE
 10
127.72336685317703
 20
136.99158061862147
 30
0.0
 70
0
  0
VERTEX
  5
B3
  8
BRIDGE_ROUTE
 10
132.26744712279714
 20
134.7149740920307
 30
0.0
 70
0
  0
VERTEX
  5
B4
  8
BRIDGE_ROUTE
 10
137.21857727003754
 20
133.06633706413513
 30
0.0
 70
0
  0
VERTEX
  5
B5
  8
BRIDGE_ROUTE
 10
142.72505218697233
 20
132.6184092200602
 30
0.0
 70
0
  0
VERTEX
  5
B6
  8
BRIDGE_ROUTE
 10
145.10907660594108
 20
132.8567249380729
 30
0.0
 70
0
  0
VERTEX
  5
B7
  8
BRIDGE_ROUTE
 10
151.781467477876
 20
134.55145926323632
 30
0.0
 70
0
  0
VERTEX
  5
B8
  8
BRIDGE_ROUTE
 10
155.64539273482222
 20
136.72891272777815
 30
0.0
 70
0
  0
SEQEND
  5
97
  8
BRIDGE_ROUTE
  0
POLYLINE
  5
B9
  8
BRIDGE_ROUTE
 66
1
 10
0.0
 20
0.0
 30
0.0
 70
1
  0
VERTEX
  5
BB
  8
BRIDGE_ROUTE
 10
195.35836733015478
 20
183.8931507476565
 30
0.0
 70
0
  0
VERTEX
  5
BC
  8
BRIDGE_ROUTE
 10
197.60540155955238
 20
174.63321429837225
 30
0.0
 70
0
  0
VERTEX
  5
BD
  8
BRIDGE_ROUTE
 10
198.33774211755505
 20
166.1321417625275
 30
0.0
 70
0
  0
VERTEX
  5
BE
  8
BRIDGE_ROUTE
 10
198.04115203479716
 20
164.98666379127454
 30
0.0
 70
0
  0
VERTEX
  5
BF
  8
BRIDGE_ROUTE
 10
195.19485147190161
 20
164.37913407347065
 30
0.0
 70
0
  0
VERTEX
  5
C0
  8
BRIDGE_ROUTE
 10
180.70763307497586
 20
165.0745097537139
 30
0.0
 70
0
  0
VERTEX
  5
C1
  8
BRIDGE_ROUTE
 10
179.15510532563917
 20
164.74312987144395
 30
0.0
 70
0
  0
VERTEX
  5
C2
  8
BRIDGE_ROUTE
 10
176.34663764624676
 20
165.22584954534145
 30
0.0
 70
0
  0
VERTEX
  5
C3
  8
BRIDGE_ROUTE
 10
174.53535496113216
 20
164.83923961633548
 30
0.0
 70
0
  0
VERTEX
  5
C4
  8
BRIDGE_ROUTE
 10
173.33464547595872
 20
165.3945823713944
 30
0.0
 70
0
  0
VERTEX
  5
C5
  8
BRIDGE_ROUTE
 10
170.43311486632717
 20
165.04580758936842
 30
0.0
 70
0
  0
VERTEX
  5
C6
  8
BRIDGE_ROUTE
 10
170.06389983707723
 20
165.50808741418817
 30
0.0
 70
0
  0
VERTEX
  5
C7
  8
BRIDGE_ROUTE
 10
167.107137315379
 20
165.4180671697939
 30
0.0
 70
0
  0
VERTEX
  5
C8
  8
BRIDGE_ROUTE
 10
166.479169613828
 20
165.82511548069317
 30
0.0
 70
0
  0
VERTEX
  5
C9
  8
BRIDGE_ROUTE
 10
163.8772717727992
 20
170.4100756475419
 30
0.0
 70
0
  0
VERTEX
  5
CA
  8
BRIDGE_ROUTE
 10
160.03682929961695
 20
174.46013064493258
 30
0.0
 70
0
  0
VERTEX
  5
CB
  8
BRIDGE_ROUTE
 10
154.12635000183465
 20
178.06834193592
 30
0.0
 70
0
  0
VERTEX
  5
CC
  8
BRIDGE_ROUTE
 10
149.1752193569115
 20
179.71698129547886
 30
0.0
 70
0
  0
VERTEX
  5
CD
  8
BRIDGE_ROUTE
 10
145.90447371802998
 20
179.83048633827264
 30
0.0
 70
0
  0
VERTEX
  5
CE
  8
BRIDGE_ROUTE
 10
145.27650454929457
 20
180.2375323856951
 30
0.0
 70
0
  0
VERTEX
  5
CF
  8
BRIDGE_ROUTE
 10
138.5314883824897
 20
180.1505574887687
 30
0.0
 70
0
  0
VERTEX
  5
D0
  8
BRIDGE_ROUTE
 10
134.6501680764826
 20
179.32210758402073
 30
0.0
 70
0
  0
VERTEX
  5
D1
  8
BRIDGE_ROUTE
 10
128.91973220185776
 20
177.01679835856538
 30
0.0
 70
0
  0
VERTEX
  5
D2
  8
BRIDGE_ROUTE
 10
122.7996373200977
 20
172.73451737682555
 30
0.0
 70
0
  0
VERTEX
  5
D3
  8
BRIDGE_ROUTE
 10
120.19165517641738
 20
169.74296771723834
 30
0.0
 70
0
  0
VERTEX
  5
D4
  8
BRIDGE_ROUTE
 10
118.61868611081849
 20
166.97233292134908
 30
0.0
 70
0
  0
VERTEX
  5
D5
  8
BRIDGE_ROUTE
 10
116.28989541947874
 20
166.47526329701725
 30
0.0
 70
0
  0
VERTEX
  5
D6
  8
BRIDGE_ROUTE
 10
117.12138654288717
 20
166.38219770515502
 30
0.0
 70
0
  0
VERTEX
  5
D7
  8
BRIDGE_ROUTE
 10
117.618456167219
 20
164.05340701381527
 30
0.0
 70
0
  0
VERTEX
  5
D8
  8
BRIDGE_ROUTE
 10
116.65606549940698
 20
162.2247279617602
 30
0.0
 70
0
  0
VERTEX
  5
D9
  8
BRIDGE_ROUTE
 10
116.58039520544698
 20
160.0442321127263
 30
0.0
 70
0
  0
VERTEX
  5
DA
  8
BRIDGE_ROUTE
 10
116.11811538062723
 20
159.67501708347635
 30
0.0
 70
0
  0
VERTEX
  5
DB
  8
BRIDGE_ROUTE
 10
116.2838055208353
 20
158.8987522761427
 30
0.0
 70
0
  0
VERTEX
  5
DC
  8
BRIDGE_ROUTE
 10
115.72845716978446
 20
157.6980415965306
 30
0.0
 70
0
  0
VERTEX
  5
DD
  8
BRIDGE_ROUTE
 10
116.5160344395533
 20
148.93821944815411
 30
0.0
 70
0
  0
VERTEX
  5
DE
  8
BRIDGE_ROUTE
 10
112.78300524519075
 20
148.68250866540552
 30
0.0
 70
0
  0
VERTEX
  5
DF
  8
BRIDGE_ROUTE
 10
108.64293373406704
 20
147.79882951021392
 30
0.0
 70
0
  0
VERTEX
  5
E0
  8
BRIDGE_ROUTE
 10
106.4245919442155
 20
146.78424762544904
 30
0.0
 70
0
  0
VERTEX
  5
E1
  8
BRIDGE_ROUTE
 10
103.18864023365356
 20
144.1997458786149
 30
0.0
 70
0
  0
VERTEX
  5
E2
  8
BRIDGE_ROUTE
 10
101.76396934287558
 20
142.00185366264054
 30
0.0
 70
0
  0
VERTEX
  5
E3
  8
BRIDGE_ROUTE
 10
100.35668962119234
 20
138.45495779007888
 30
0.0
 70
0
  0
VERTEX
  5
E4
  8
BRIDGE_ROUTE
 10
99.71654761880984
 20
123.70898572000033
 30
0.0
 70
0
  0
VERTEX
  5
E5
  8
BRIDGE_ROUTE
 10
97.45732956285444
 20
117.81590073024094
 30
0.0
 70
0
  0
VERTEX
  5
E6
  8
BRIDGE_ROUTE
 10
94.95981517304183
 20
114.30684185901748
 30
0.0
 70
0
  0
VERTEX
  5
E7
  8
BRIDGE_ROUTE
 10
95.69823757114607
 20
113.38228154945844
 30
0.0
 70
0
  0
VERTEX
  5
E8
  8
BRIDGE_ROUTE
 10
97.41644986469895
 20
112.93739542995607
 30
0.0
 70
0
  0
VERTEX
  5
E9
  8
BRIDGE_ROUTE
 10
103.69918953919912
 20
112.65515795925556
 30
0.0
 70
0
  0
VERTEX
  5
EA
  8
BRIDGE_ROUTE
 10
109.90930799786852
 20
113.98067908092023
 30
0.0
 70
0
  0
VERTEX
  5
EB
  8
BRIDGE_ROUTE
 10
115.58451402483047
 20
116.54474230948814
 30
0.0
 70
0
  0
VERTEX
  5
EC
  8
BRIDGE_ROUTE
 10
122.3325748423474
 20
120.41997411584978
 30
0.0
 70
0
  0
VERTEX
  5
ED
  8
BRIDGE_ROUTE
 10
127.34197605591115
 20
122.30083779898649
 30
0.0
 70
0
  0
VERTEX
  5
EE
  8
BRIDGE_ROUTE
 10
133.8660757664332
 20
123.42283323531687
 30
0.0
 70
0
  0
VERTEX
  5
EF
  8
BRIDGE_ROUTE
 10
145.3413017939978
 20
122.89619131379189
 30
0.0
 70
0
  0
VERTEX
  5
F0
  8
BRIDGE_ROUTE
 10
152.06892639356172
 20
124.33217173263618
 30
0.0
 70
0
  0
VERTEX
  5
F1
  8
BRIDGE_ROUTE
 10
156.33989784723525
 20
127.13759366641443
 30
0.0
 70
0
  0
VERTEX
  5
F2
  8
BRIDGE_ROUTE
 10
158.63390217111453
 20
130.33267120662634
 30
0.0
 70
0
  0
VERTEX
  5
F3
  8
BRIDGE_ROUTE
 10
159.68935813217914
 20
132.9928427810878
 30
0.0
 70
0
  0
VERTEX
  5
F4
  8
BRIDGE_ROUTE
 10
160.48910773791226
 20
139.38604108187565
 30
0.0
 70
0
  0
VERTEX
  5
F5
  8
BRIDGE_ROUTE
 10
163.41107829615814
 20
142.17406804771142
 30
0.0
 70
0
  0
VERTEX
  5
F6
  8
BRIDGE_ROUTE
 10
164.78051914020008
 20
144.63071519946365
 30
0.0
 70
0
  0
VERTEX
  5
F7
  8
BRIDGE_ROUTE
 10
168.66184131153784
 20
145.45916550235785
 30
0.0
 70
0
  0
VERTEX
  5
F8
  8
BRIDGE_ROUTE
 10
175.97959699848832
 20
145.39784742230904
 30
0.0
 70
0
  0
VERTEX
  5
F9
  8
BRIDGE_ROUTE
 10
176.73542195674423
 20
143.1242849123747
 30
0.0
 70
0
  0
VERTEX
  5
FA
  8
BRIDGE_ROUTE
 10
174.2205013756552
 20
140.96422697890142
 30
0.0
 70
0
  0
VERTEX
  5
FB
  8
BRIDGE_ROUTE
 10
172.13002380614842
 20
138.08313481934965
 30
0.0
 70
0
  0
VERTEX
  5
FC
  8
BRIDGE_ROUTE
 10
170.72274609910065
 20
134.53623864543522
 30
0.0
 70
0
  0
VERTEX
  5
FD
  8
BRIDGE_ROUTE
 10
170.44355312980736
 20
132.0417565798693
 30
0.0
 70
0
  0
VERTEX
  5
FE
  8
BRIDGE_ROUTE
 10
171.87953295143234
 20
125.31413477830134
 30
0.0
 70
0
  0
VERTEX
  5
FF
  8
BRIDGE_ROUTE
 10
173.68777068722522
 20
121.91248919687004
 30
0.0
 70
0
  0
VERTEX
  5
100
  8
BRIDGE_ROUTE
 10
176.7519483530738
 20
117.69674405927125
 30
0.0
 70
0
  0
VERTEX
  5
101
  8
BRIDGE_ROUTE
 10
178.31882605284483
 20
112.89086557080907
 30
0.0
 70
0
  0
VERTEX
  5
102
  8
BRIDGE_ROUTE
 10
177.72564815080588
 20
110.59990816111868
 30
0.0
 70
0
  0
VERTEX
  5
103
  8
BRIDGE_ROUTE
 10
176.70802557092722
 20
109.02998364669529
 30
0.0
 70
0
  0
VERTEX
  5
104
  8
BRIDGE_ROUTE
 10
173.62036310667918
 20
107.01822062371433
 30
0.0
 70
0
  0
VERTEX
  5
105
  8
BRIDGE_ROUTE
 10
167.87253193415208
 20
106.06191612388447
 30
0.0
 70
0
  0
VERTEX
  5
106
  8
BRIDGE_ROUTE
 10
161.22057723040194
 20
106.80643341940473
 30
0.0
 70
0
  0
VERTEX
  5
107
  8
BRIDGE_ROUTE
 10
151.63230211750817
 20
109.90018165348872
 30
0.0
 70
0
  0
VERTEX
  5
108
  8
BRIDGE_ROUTE
 10
142.70983132032984
 20
113.67713176466718
 30
0.0
 70
0
  0
VERTEX
  5
109
  8
BRIDGE_ROUTE
 10
136.72368545924883
 20
115.1048480029131
 30
0.0
 70
0
  0
VERTEX
  5
10A
  8
BRIDGE_ROUTE
 10
133.19418488458942
 20
115.16312299897085
 30
0.0
 70
0
  0
VERTEX
  5
10B
  8
BRIDGE_ROUTE
 10
127.50158375879835
 20
113.94806356336309
 30
0.0
 70
0
  0
VERTEX
  5
10C
  8
BRIDGE_ROUTE
 10
124.76573582805233
 20
112.82302238141858
 30
0.0
 70
0
  0
VERTEX
  5
10D
  8
BRIDGE_ROUTE
 10
118.12813480539776
 20
108.43028210249912
 30
0.0
 70
0
  0
VERTEX
  5
10E
  8
BRIDGE_ROUTE
 10
103.22473777656127
 20
97.13292061551067
 30
0.0
 70
0
  0
VERTEX
  5
10F
  8
BRIDGE_ROUTE
 10
98.17750524621536
 20
94.16180933781678
 30
0.0
 70
0
  0
VERTEX
  5
110
  8
BRIDGE_ROUTE
 10
89.82168486683159
 20
90.21395172048419
 30
0.0
 70
0
  0
VERTEX
  5
111
  8
BRIDGE_ROUTE
 10
83.9807847699272
 20
88.42615343562284
 30
0.0
 70
0
  0
VERTEX
  5
112
  8
BRIDGE_ROUTE
 10
71.96760549014088
 20
86.40308088457557
 30
0.0
 70
0
  0
VERTEX
  5
113
  8
BRIDGE_ROUTE
 10
63.559610807180434
 20
86.5022379676661
 30
0.0
 70
0
  0
VERTEX
  5
114
  8
BRIDGE_ROUTE
 10
58.515404572849846
 20
87.31937821894734
 30
0.0
 70
0
  0
VERTEX
  5
115
  8
BRIDGE_ROUTE
 10
57.48038482973827
 20
87.09845803200324
 30
0.0
 70
0
  0
VERTEX
  5
116
  8
BRIDGE_ROUTE
 10
49.14805297941524
 20
89.37810937154282
 30
0.0
 70
0
  0
VERTEX
  5
117
  8
BRIDGE_ROUTE
 10
44.141700545371066
 20
91.28550152880317
 30
0.0
 70
0
  0
VERTEX
  5
118
  8
BRIDGE_ROUTE
 10
37.71370311841798
 20
94.78325486439493
 30
0.0
 70
0
  0
VERTEX
  5
119
  8
BRIDGE_ROUTE
 10
30.326363504562778
 20
100.24058638732669
 30
0.0
 70
0
  0
VERTEX
  5
11A
  8
BRIDGE_ROUTE
 10
25.11952334598206
 20
105.62224899550668
 30
0.0
 70
0
  0
VERTEX
  5
11B
  8
BRIDGE_ROUTE
 10
21.686140201494
 20
110.30027489940781
 30
0.0
 70
0
  0
VERTEX
  5
11C
  8
BRIDGE_ROUTE
 10
17.755672186535207
 20
117.3070898250601
 30
0.0
 70
0
  0
VERTEX
  5
11D
  8
BRIDGE_ROUTE
 10
15.339902867607776
 20
123.55503557124072
 30
0.0
 70
0
  0
VERTEX
  5
11E
  8
BRIDGE_ROUTE
 10
12.54057896468754
 20
135.4025256325118
 30
0.0
 70
0
  0
VERTEX
  5
11F
  8
BRIDGE_ROUTE
 10
11.680373017765362
 20
145.77010478066862
 30
0.0
 70
0
  0
VERTEX
  5
120
  8
BRIDGE_ROUTE
 10
11.669063887845283
 20
154.69561973087627
 30
0.0
 70
0
  0
VERTEX
  5
121
  8
BRIDGE_ROUTE
 10
12.78584382356027
 20
164.67354678772887
 30
0.0
 70
0
  0
VERTEX
  5
122
  8
BRIDGE_ROUTE
 10
14.344462540578633
 20
172.5814418196809
 30
0.0
 70
0
  0
VERTEX
  5
123
  8
BRIDGE_ROUTE
 10
14.955034273335372
 20
173.52339224026895
 30
0.0
 70
0
  0
VERTEX
  5
124
  8
BRIDGE_ROUTE
 10
15.38252429864309
 20
176.59061299010858
 30
0.0
 70
0
  0
VERTEX
  5
125
  8
BRIDGE_ROUTE
 10
17.976163555065426
 20
184.71942447834346
 30
0.0
 70
0
  0
VERTEX
  5
126
  8
BRIDGE_ROUTE
 10
22.881193677971567
 20
194.69431325090446
 30
0.0
 70
0
  0
VERTEX
  5
127
  8
BRIDGE_ROUTE
 10
27.562264784150443
 20
201.91595586044838
 30
0.0
 70
0
  0
VERTEX
  5
128
  8
BRIDGE_ROUTE
 10
34.36860303441122
 20
209.32069510008643
 30
0.0
 70
0
  0
VERTEX
  5
129
  8
BRIDGE_ROUTE
 10
38.473885542315315
 20
212.90237624520643
 30
0.0
 70
0
  0
VERTEX
  5
12A
  8
BRIDGE_ROUTE
 10
44.5939751008292
 20
217.18466389197636
 30
0.0
 70
0
  0
VERTEX
  5
12B
  8
BRIDGE_ROUTE
 10
51.65601826510087
 20
220.85636488334444
 30
0.0
 70
0
  0
VERTEX
  5
12C
  8
BRIDGE_ROUTE
 10
57.44168712083058
 20
222.90292369997562
 30
0.0
 70
0
  0
VERTEX
  5
12D
  8
BRIDGE_ROUTE
 10
67.01560855262875
 20
224.94643304033136
 30
0.0
 70
0
  0
VERTEX
  5
12E
  8
BRIDGE_ROUTE
 10
74.48165201870873
 20
225.4578514206588
 30
0.0
 70
0
  0
VERTEX
  5
12F
  8
BRIDGE_ROUTE
 10
83.83161284119477
 20
224.74812205932
 30
0.0
 70
0
  0
VERTEX
  5
130
  8
BRIDGE_ROUTE
 10
93.25419741573424
 20
222.43064049790033
 30
0.0
 70
0
  0
VERTEX
  5
131
  8
BRIDGE_ROUTE
 10
99.77525590759583
 20
219.76438122008585
 30
0.0
 70
0
  0
VERTEX
  5
132
  8
BRIDGE_ROUTE
 10
107.56963923172397
 20
214.93501154093985
 30
0.0
 70
0
  0
VERTEX
  5
133
  8
BRIDGE_ROUTE
 10
116.3786079204774
 20
207.88732031783357
 30
0.0
 70
0
  0
VERTEX
  5
134
  8
BRIDGE_ROUTE
 10
123.78334183686931
 20
201.08098873260295
 30
0.0
 70
0
  0
VERTEX
  5
135
  8
BRIDGE_ROUTE
 10
128.17912786140292
 20
198.23163948972442
 30
0.0
 70
0
  0
VERTEX
  5
136
  8
BRIDGE_ROUTE
 10
132.9267328209918
 20
196.2690188783129
 30
0.0
 70
0
  0
VERTEX
  5
137
  8
BRIDGE_ROUTE
 10
137.39818461253165
 20
195.60016841883711
 30
0.0
 70
0
  0
VERTEX
  5
138
  8
BRIDGE_ROUTE
 10
140.35494899956052
 20
195.69018906137765
 30
0.0
 70
0
  0
VERTEX
  5
139
  8
BRIDGE_ROUTE
 10
148.11758961157472
 20
197.34708887087362
 30
0.0
 70
0
  0
VERTEX
  5
13A
  8
BRIDGE_ROUTE
 10
158.4503797565119
 20
200.9052968077242
 30
0.0
 70
0
  0
VERTEX
  5
13B
  8
BRIDGE_ROUTE
 10
165.75074133999877
 20
202.19297785730896
 30
0.0
 70
0
  0
VERTEX
  5
13C
  8
BRIDGE_ROUTE
 10
172.75451351161973
 20
202.33518692977884
 30
0.0
 70
0
  0
VERTEX
  5
13D
  8
BRIDGE_ROUTE
 10
178.16792211603203
 20
201.0557622013237
 30
0.0
 70
0
  0
VERTEX
  5
13E
  8
BRIDGE_ROUTE
 10
182.9155270756209
 20
199.09314158991216
 30
0.0
 70
0
  0
VERTEX
  5
13F
  8
BRIDGE_ROUTE
 10
188.73294237412583
 20
194.6534317141938
 30
0.0
 70
0
  0
VERTEX
  5
140
  8
BRIDGE_ROUTE
 10
193.27397749535112
 20
188.58857060983107
 30
0.0
 70
0
  0
SEQEND
  5
BA
  8
BRIDGE_ROUTE
  0
POLYLINE
  5
141
  8
BRIDGE_ROUTE
 66
1
 10
0.0
 20
0.0
 30
0.0
 70
1
  0
VERTEX
  5
143
  8
BRIDGE_ROUTE
 10
88.38309015563465
 20
185.67920980908525
 30
0.0
 70
0
  0
VERTEX
  5
144
  8
BRIDGE_ROUTE
 10
87.29283956949462
 20
185.71704828858032
 30
0.0
 70
0
  0
VERTEX
  5
145
  8
BRIDGE_ROUTE
 10
86.62703858629428
 20
185.03384907310888
 30
0.0
 70
0
  0
VERTEX
  5
146
  8
BRIDGE_ROUTE
 10
86.23433169546851
 20
179.26861727943339
 30
0.0
 70
0
  0
VERTEX
  5
147
  8
BRIDGE_ROUTE
 10
85.34457010295607
 20
175.8321793622674
 30
0.0
 70
0
  0
VERTEX
  5
148
  8
BRIDGE_ROUTE
 10
80.12554967428986
 20
166.06082214377835
 30
0.0
 70
0
  0
VERTEX
  5
149
  8
BRIDGE_ROUTE
 10
78.1803206301193
 20
159.96421166227157
 30
0.0
 70
0
  0
VERTEX
  5
14A
  8
BRIDGE_ROUTE
 10
78.40124081706341
 20
158.92919191916
 30
0.0
 70
0
  0
VERTEX
  5
14B
  8
BRIDGE_ROUTE
 10
77.95635922451476
 20
157.21097669123827
 30
0.0
 70
0
  0
VERTEX
  5
14C
  8
BRIDGE_ROUTE
 10
78.39819959840298
 20
155.14093720501515
 30
0.0
 70
0
  0
VERTEX
  5
14D
  8
BRIDGE_ROUTE
 10
77.95331800585431
 20
153.42272197709343
 30
0.0
 70
0
  0
VERTEX
  5
14E
  8
BRIDGE_ROUTE
 10
80.25558680894166
 20
143.90402765766243
 30
0.0
 70
0
  0
VERTEX
  5
14F
  8
BRIDGE_ROUTE
 10
81.363227767884
 20
142.51718925224137
 30
0.0
 70
0
  0
VERTEX
  5
150
  8
BRIDGE_ROUTE
 10
81.69460765015394
 20
140.96466150290468
 30
0.0
 70
0
  0
VERTEX
  5
151
  8
BRIDGE_ROUTE
 10
82.32257015385923
 20
140.55761013223608
 30
0.0
 70
0
  0
VERTEX
  5
152
  8
BRIDGE_ROUTE
 10
83.59286003434923
 20
134.6062522053365
 30
0.0
 70
0
  0
VERTEX
  5
153
  8
BRIDGE_ROUTE
 10
83.68288734191987
 20
131.64949314155376
 30
0.0
 70
0
  0
VERTEX
  5
154
  8
BRIDGE_ROUTE
 10
82.9414090015832
 20
128.7857946191329
 30
0.0
 70
0
  0
VERTEX
  5
155
  8
BRIDGE_ROUTE
 10
84.25257867976524
 20
127.71294152618553
 30
0.0
 70
0
  0
VERTEX
  5
156
  8
BRIDGE_ROUTE
 10
92.68102057358945
 20
130.05303915215495
 30
0.0
 70
0
  0
VERTEX
  5
157
  8
BRIDGE_ROUTE
 10
94.64059996634053
 20
131.01238939759895
 30
0.0
 70
0
  0
VERTEX
  5
158
  8
BRIDGE_ROUTE
 10
96.36882150588661
 20
166.0108075976577
 30
0.0
 70
0
  0
VERTEX
  5
159
  8
BRIDGE_ROUTE
 10
96.97939244235093
 20
166.95276174890705
 30
0.0
 70
0
  0
VERTEX
  5
15A
  8
BRIDGE_ROUTE
 10
98.01441218546249
 20
167.17368193585114
 30
0.0
 70
0
  0
VERTEX
  5
15B
  8
BRIDGE_ROUTE
 10
97.18292106205406
 20
167.2667475277134
 30
0.0
 70
0
  0
VERTEX
  5
15C
  8
BRIDGE_ROUTE
 10
96.57539134425019
 20
170.1130480906089
 30
0.0
 70
0
  0
VERTEX
  5
15D
  8
BRIDGE_ROUTE
 10
97.45385952578012
 20
182.475000412491
 30
0.0
 70
0
  0
SEQEND
  5
142
  8
BRIDGE_ROUTE
  0
POLYLINE
  5
15E
  8
BRIDGE_ROUTE
 66
1
 10
0.0
 20
0.0
 30
0.0
 70
1
  0
VERTEX
  5
160
  8
BRIDGE_ROUTE
 10
90.06347809604515
 20
184.14408001927387
 30
0.0
 70
0
  0
VERTEX
  5
161
  8
BRIDGE_ROUTE
 10
95.90132244979021
 20
182.14361853948998
 30
0.0
 70
0
  0
VERTEX
  5
162
  8
BRIDGE_ROUTE
 10
96.45362212085806
 20
179.55607291237234
 30
0.0
 70
0
  0
VERTEX
  5
163
  8
BRIDGE_ROUTE
 10
95.63344012736972
 20
170.72362355402694
 30
0.0
 70
0
  0
VERTEX
  5
164
  8
BRIDGE_ROUTE
 10
93.56340064114659
 20
170.28178318013872
 30
0.0
 70
0
  0
VERTEX
  5
165
  8
BRIDGE_ROUTE
 10
92.45575928405802
 20
171.66862345089044
 30
0.0
 70
0
  0
VERTEX
  5
166
  8
BRIDGE_ROUTE
 10
91.42073954094644
 20
171.44770326394632
 30
0.0
 70
0
  0
VERTEX
  5
167
  8
BRIDGE_ROUTE
 10
90.66187003151502
 20
169.93300839811275
 30
0.0
 70
0
  0
VERTEX
  5
168
  8
BRIDGE_ROUTE
 10
90.93802026519516
 20
168.63923371922328
 30
0.0
 70
0
  0
VERTEX
  5
169
  8
BRIDGE_ROUTE
 10
90.53097715214156
 20
168.01126907744157
 30
0.0
 70
0
  0
VERTEX
  5
16A
  8
BRIDGE_ROUTE
 10
87.73990663598207
 20
167.14498442385982
 30
0.0
 70
0
  0
VERTEX
  5
16B
  8
BRIDGE_ROUTE
 10
88.66141094060843
 20
164.09515285238385
 30
0.0
 70
0
  0
VERTEX
  5
16C
  8
BRIDGE_ROUTE
 10
87.99560916111568
 20
163.41195736757368
 30
0.0
 70
0
  0
VERTEX
  5
16D
  8
BRIDGE_ROUTE
 10
90.6936111510441
 20
163.4467463707933
 30
0.0
 70
0
  0
VERTEX
  5
16E
  8
BRIDGE_ROUTE
 10
91.19068157166834
 20
161.1179519487923
 30
0.0
 70
0
  0
VERTEX
  5
16F
  8
BRIDGE_ROUTE
 10
87.30936126566124
 20
160.2895020440443
 30
0.0
 70
0
  0
VERTEX
  5
170
  8
BRIDGE_ROUTE
 10
88.1030280359273
 20
159.10619278187303
 30
0.0
 70
0
  0
VERTEX
  5
171
  8
BRIDGE_ROUTE
 10
90.74579997911968
 20
159.39973672087058
 30
0.0
 70
0
  0
VERTEX
  5
172
  8
BRIDGE_ROUTE
 10
91.49858784752266
 20
153.33791842775315
 30
0.0
 70
0
  0
VERTEX
  5
173
  8
BRIDGE_ROUTE
 10
90.77755681758629
 20
152.9134741480596
 30
0.0
 70
0
  0
VERTEX
  5
174
  8
BRIDGE_ROUTE
 10
91.58860023244819
 20
150.3811561788007
 30
0.0
 70
0
  0
VERTEX
  5
175
  8
BRIDGE_ROUTE
 10
91.64078906052379
 20
146.33414652887794
 30
0.0
 70
0
  0
VERTEX
  5
176
  8
BRIDGE_ROUTE
 10
92.12046751576085
 20
145.35435949412548
 30
0.0
 70
0
  0
VERTEX
  5
177
  8
BRIDGE_ROUTE
 10
93.83867980931373
 20
144.90947337462308
 30
0.0
 70
0
  0
VERTEX
  5
178
  8
BRIDGE_ROUTE
 10
94.33574983179176
 20
142.5806808179527
 30
0.0
 70
0
  0
VERTEX
  5
179
  8
BRIDGE_ROUTE
 10
93.99524629354049
 20
132.76844442485483
 30
0.0
 70
0
  0
VERTEX
  5
17A
  8
BRIDGE_ROUTE
 10
93.23637638596286
 20
131.2537514243519
 30
0.0
 70
0
  0
VERTEX
  5
17B
  8
BRIDGE_ROUTE
 10
85.27020715424551
 20
129.28286583604958
 30
0.0
 70
0
  0
VERTEX
  5
17C
  8
BRIDGE_ROUTE
 10
84.45914841859226
 20
131.8151824854694
 30
0.0
 70
0
  0
VERTEX
  5
17D
  8
BRIDGE_ROUTE
 10
84.81097600940875
 20
132.70190711352936
 30
0.0
 70
0
  0
VERTEX
  5
17E
  8
BRIDGE_ROUTE
 10
83.72680865688203
 20
140.31625129065287
 30
0.0
 70
0
  0
VERTEX
  5
17F
  8
BRIDGE_ROUTE
 10
82.4534775577316
 20
142.4793545034076
 30
0.0
 70
0
  0
VERTEX
  5
180
  8
BRIDGE_ROUTE
 10
82.12209767546165
 20
144.0318822527443
 30
0.0
 70
0
  0
VERTEX
  5
181
  8
BRIDGE_ROUTE
 10
81.08707793235007
 20
143.8109620658002
 30
0.0
 70
0
  0
VERTEX
  5
182
  8
BRIDGE_ROUTE
 10
80.4591154286448
 20
144.2180134364688
 30
0.0
 70
0
  0
VERTEX
  5
183
  8
BRIDGE_ROUTE
 10
80.11032945463498
 20
147.11954165722304
 30
0.0
 70
0
  0
VERTEX
  5
184
  8
BRIDGE_ROUTE
 10
79.53759699766573
 20
147.26783809211375
 30
0.0
 70
0
  0
VERTEX
  5
185
  8
BRIDGE_ROUTE
 10
79.04052657704148
 20
149.5966325141148
 30
0.0
 70
0
  0
VERTEX
  5
186
  8
BRIDGE_ROUTE
 10
80.02031706970945
 20
150.0763039061755
 30
0.0
 70
0
  0
VERTEX
  5
187
  8
BRIDGE_ROUTE
 10
78.97094697801734
 20
154.99264395529417
 30
0.0
 70
0
  0
VERTEX
  5
188
  8
BRIDGE_ROUTE
 10
79.71546613886825
 20
161.64459905719053
 30
0.0
 70
0
  0
VERTEX
  5
189
  8
BRIDGE_ROUTE
 10
80.8639871941123
 20
165.1362640867237
 30
0.0
 70
0
  0
VERTEX
  5
18A
  8
BRIDGE_ROUTE
 10
86.43481989280366
 20
175.7943446134336
 30
0.0
 70
0
  0
VERTEX
  5
18B
  8
BRIDGE_ROUTE
 10
87.41765080783964
 20
180.06227445030046
 30
0.0
 70
0
  0
VERTEX
  5
18C
  8
BRIDGE_ROUTE
 10
87.27240837617808
 20
183.2777916350308
 30
0.0
 70
0
  0
SEQEND
  5
15F
  8
BRIDGE_ROUTE
  0
POLYLINE
  5
18E
  8
JACK_ROUTE
 66
1
 10
0.0
 20
0.0
 30
0.0
 70
1
  0
VERTEX
  5
190
  8
JACK_ROUTE
 10
159.11140311141816
 20
149.64316252543767
 30
0.0
 70
0
  0
VERTEX
  5
191
  8
JACK_ROUTE
 10
157.390138407221
 20
146.2997915419179
 30
0.0
 70
0
  0
VERTEX
  5
192
  8
JACK_ROUTE
 10
153.1365582221788
 20
142.1453654852197
 30
0.0
 70
0
  0
VERTEX
  5
193
  8
JACK_ROUTE
 10
148.49637193832842
 20
139.8022224435959
 30
0.0
 70
0
  0
VERTEX
  5
194
  8
JACK_ROUTE
 10
143.83878682498766
 20
138.80808239863984
 30
0.0
 70
0
  0
VERTEX
  5
195
  8
JACK_ROUTE
 10
143.21081685995983
 20
139.21513217672356
 30
0.0
 70
0
  0
VERTEX
  5
196
  8
JACK_ROUTE
 10
142.8794370772264
 20
140.7676594597276
 30
0.0
 70
0
  0
VERTEX
  5
197
  8
JACK_ROUTE
 10
141.53043235160092
 20
140.75026416182536
 30
0.0
 70
0
  0
VERTEX
  5
198
  8
JACK_ROUTE
 10
140.9955271821429
 20
141.9888087939788
 30
0.0
 70
0
  0
VERTEX
  5
199
  8
JACK_ROUTE
 10
139.75698628065075
 20
141.4539044208132
 30
0.0
 70
0
  0
VERTEX
  5
19A
  8
JACK_ROUTE
 10
139.8296112271428
 20
139.84614662474047
 30
0.0
 70
0
  0
VERTEX
  5
19B
  8
JACK_ROUTE
 10
137.24206186936388
 20
139.2938461573802
 30
0.0
 70
0
  0
VERTEX
  5
19C
  8
JACK_ROUTE
 10
134.00915510812365
 20
140.49759992098333
 30
0.0
 70
0
  0
VERTEX
  5
19D
  8
JACK_ROUTE
 10
130.61054741283772
 20
142.47761423771223
 30
0.0
 70
0
  0
VERTEX
  5
19E
  8
JACK_ROUTE
 10
126.65964710966027
 20
147.04517763947428
 30
0.0
 70
0
  0
VERTEX
  5
19F
  8
JACK_ROUTE
 10
125.75552730909851
 20
148.74600023111685
 30
0.0
 70
0
  0
VERTEX
  5
1A0
  8
JACK_ROUTE
 10
125.0927671464124
 20
151.8510575951209
 30
0.0
 70
0
  0
VERTEX
  5
1A1
  8
JACK_ROUTE
 10
126.8488253807829
 20
152.49642365434343
 30
0.0
 70
0
  0
VERTEX
  5
1A2
  8
JACK_ROUTE
 10
126.61050696156768
 20
154.88044359612675
 30
0.0
 70
0
  0
VERTEX
  5
1A3
  8
JACK_ROUTE
 10
133.96609739735194
 20
155.90937530592555
 30
0.0
 70
0
  0
VERTEX
  5
1A4
  8
JACK_ROUTE
 10
140.7663469434079
 20
155.73759792869708
 30
0.0
 70
0
  0
VERTEX
  5
1A5
  8
JACK_ROUTE
 10
141.19079201939388
 20
155.01656316809942
 30
0.0
 70
0
  0
VERTEX
  5
1A6
  8
JACK_ROUTE
 10
143.83356769324757
 20
155.3101079033894
 30
0.0
 70
0
  0
VERTEX
  5
1A7
  8
JACK_ROUTE
 10
144.2027827224975
 20
154.84782807856965
 30
0.0
 70
0
  0
VERTEX
  5
1A8
  8
JACK_ROUTE
 10
145.75531233716487
 20
155.17920835898582
 30
0.0
 70
0
  0
VERTEX
  5
1A9
  8
JACK_ROUTE
 10
154.47729906581557
 20
154.8765298447689
 30
0.0
 70
0
  0
VERTEX
  5
1AA
  8
JACK_ROUTE
 10
155.62277850425298
 20
154.57994202548787
 30
0.0
 70
0
  0
VERTEX
  5
1AB
  8
JACK_ROUTE
 10
156.06461847999498
 20
152.50990440459537
 30
0.0
 70
0
  0
VERTEX
  5
1AC
  8
JACK_ROUTE
 10
154.56732264272495
 20
151.91976998469374
 30
0.0
 70
0
  0
VERTEX
  5
1AD
  8
JACK_ROUTE
 10
158.35557815316224
 20
151.91672503537202
 30
0.0
 70
0
  0
SEQEND
  5
18F
  8
JACK_ROUTE
  0
POLYLINE
  5
1AF
  8
NECK_POCKET
 66
1
 10
0.0
 20
0.0
 30
0.0
 70
1
  0
VERTEX
  5
1B1
  8
NECK_POCKET
 10
378.8241385834198
 20
141.8900905316779
 30
0.0
 70
0
  0
VERTEX
  5
1B2
  8
NECK_POCKET
 10
376.55058540013863
 20
141.13426756415305
 30
0.0
 70
0
  0
VERTEX
  5
1B3
  8
NECK_POCKET
 10
374.87019666343576
 20
142.66940108462572
 30
0.0
 70
0
  0
VERTEX
  5
1B4
  8
NECK_POCKET
 10
371.2476350238678
 20
141.8961820229062
 30
0.0
 70
0
  0
VERTEX
  5
1B5
  8
NECK_POCKET
 10
369.67770717692935
 20
142.9138019411618
 30
0.0
 70
0
  0
VERTEX
  5
1B6
  8
NECK_POCKET
 10
366.6104864270897
 20
143.3412919664695
 30
0.0
 70
0
  0
VERTEX
  5
1B7
  8
NECK_POCKET
 10
365.87204890726724
 20
144.26585002352414
 30
0.0
 70
0
  0
VERTEX
  5
1B8
  8
NECK_POCKET
 10
364.5782854203616
 20
143.9897021787213
 30
0.0
 70
0
  0
VERTEX
  5
1B9
  8
NECK_POCKET
 10
358.48166827382465
 20
145.9349258996457
 30
0.0
 70
0
  0
VERTEX
  5
1BA
  8
NECK_POCKET
 10
353.4374769621392
 20
146.75206933609667
 30
0.0
 70
0
  0
VERTEX
  5
1BB
  8
NECK_POCKET
 10
351.6640346218503
 20
147.45571039137695
 30
0.0
 70
0
  0
VERTEX
  5
1BC
  8
NECK_POCKET
 10
351.12912611987724
 20
148.6942523619073
 30
0.0
 70
0
  0
VERTEX
  5
1BD
  8
NECK_POCKET
 10
347.19257576713414
 20
148.1245573929372
 30
0.0
 70
0
  0
VERTEX
  5
1BE
  8
NECK_POCKET
 10
346.25062455025363
 20
148.73513285635522
 30
0.0
 70
0
  0
VERTEX
  5
1BF
  8
NECK_POCKET
 10
341.4099469356262
 20
149.86625888644284
 30
0.0
 70
0
  0
VERTEX
  5
1C0
  8
NECK_POCKET
 10
338.3979566306688
 20
150.03499211064198
 30
0.0
 70
0
  0
VERTEX
  5
1C1
  8
NECK_POCKET
 10
337.64214286439665
 20
152.30855700945364
 30
0.0
 70
0
  0
VERTEX
  5
1C2
  8
NECK_POCKET
 10
339.91569604767784
 20
153.06437997697847
 30
0.0
 70
0
  0
VERTEX
  5
1C3
  8
NECK_POCKET
 10
351.3356959582408
 20
152.7964928548585
 30
0.0
 70
0
  0
VERTEX
  5
1C4
  8
NECK_POCKET
 10
352.8882181115856
 20
153.1278715426898
 30
0.0
 70
0
  0
VERTEX
  5
1C5
  8
NECK_POCKET
 10
353.77495420437515
 20
152.7760542002194
 30
0.0
 70
0
  0
VERTEX
  5
1C6
  8
NECK_POCKET
 10
370.1665088900015
 20
153.29878091417456
 30
0.0
 70
0
  0
VERTEX
  5
1C7
  8
NECK_POCKET
 10
372.36439963879144
 20
151.87410775991972
 30
0.0
 70
0
  0
VERTEX
  5
1C8
  8
NECK_POCKET
 10
374.54489921848665
 20
151.79843826225215
 30
0.0
 70
0
  0
VERTEX
  5
1C9
  8
NECK_POCKET
 10
375.3007279074038
 20
149.52487654861022
 30
0.0
 70
0
  0
VERTEX
  5
1CA
  8
NECK_POCKET
 10
376.90848010748465
 20
149.59750030066363
 30
0.0
 70
0
  0
VERTEX
  5
1CB
  8
NECK_POCKET
 10
378.254447345111
 20
145.82664168071344
 30
0.0
 70
0
  0
SEQEND
  5
1B0
  8
NECK_POCKET
  0
POLYLINE
  5
1CC
  8
NECK_POCKET
 66
1
 10
0.0
 20
0.0
 30
0.0
 70
1
  0
VERTEX
  5
1CE
  8
NECK_POCKET
 10
401.063135263268
 20
83.32977320206734
 30
0.0
 70
0
  0
VERTEX
  5
1CF
  8
NECK_POCKET
 10
386.6128828131399
 20
61.03686207834761
 30
0.0
 70
0
  0
VERTEX
  5
1D0
  8
NECK_POCKET
 10
385.42956449706116
 20
60.24320117681924
 30
0.0
 70
0
  0
VERTEX
  5
1D1
  8
NECK_POCKET
 10
368.6300795157845
 20
35.01397710527843
 30
0.0
 70
0
  0
VERTEX
  5
1D2
  8
NECK_POCKET
 10
367.09494972597304
 20
33.33358916486793
 30
0.0
 70
0
  0
VERTEX
  5
1D3
  8
NECK_POCKET
 10
357.0587386191553
 20
30.92087439466124
 30
0.0
 70
0
  0
VERTEX
  5
1D4
  8
NECK_POCKET
 10
351.7905737662437
 20
28.984766617594715
 30
0.0
 70
0
  0
VERTEX
  5
1D5
  8
NECK_POCKET
 10
351.38352985689767
 20
28.35680570647429
 30
0.0
 70
0
  0
VERTEX
  5
1D6
  8
NECK_POCKET
 10
267.2882540729696
 20
10.4070572394063
 30
0.0
 70
0
  0
VERTEX
  5
1D7
  8
NECK_POCKET
 10
226.96644763829335
 20
10.457931260909902
 30
0.0
 70
0
  0
VERTEX
  5
1D8
  8
NECK_POCKET
 10
219.17206058350394
 20
15.287300143763446
 30
0.0
 70
0
  0
VERTEX
  5
1D9
  8
NECK_POCKET
 10
212.04043381680106
 20
17.011601937813566
 30
0.0
 70
0
  0
VERTEX
  5
1DA
  8
NECK_POCKET
 10
207.330663606046
 20
20.064472339072665
 30
0.0
 70
0
  0
VERTEX
  5
1DB
  8
NECK_POCKET
 10
206.4991695482687
 20
20.157533403981205
 30
0.0
 70
0
  0
VERTEX
  5
1DC
  8
NECK_POCKET
 10
199.2775213427329
 20
24.838603315721457
 30
0.0
 70
0
  0
VERTEX
  5
1DD
  8
NECK_POCKET
 10
196.9313342844527
 20
25.6905342882076
 30
0.0
 70
0
  0
VERTEX
  5
1DE
  8
NECK_POCKET
 10
185.941871611996
 20
32.813896203420086
 30
0.0
 70
0
  0
VERTEX
  5
1DF
  8
NECK_POCKET
 10
185.11037596163385
 20
32.90696472965118
 30
0.0
 70
0
  0
VERTEX
  5
1E0
  8
NECK_POCKET
 10
166.27129511861352
 20
45.11844633468765
 30
0.0
 70
0
  0
VERTEX
  5
1E1
  8
NECK_POCKET
 10
161.75983056562364
 20
64.9873276895429
 30
0.0
 70
0
  0
VERTEX
  5
1E2
  8
NECK_POCKET
 10
160.22774492884153
 20
67.09519899023097
 30
0.0
 70
0
  0
VERTEX
  5
1E3
  8
NECK_POCKET
 10
153.320079840489
 20
71.57274361478314
 30
0.0
 70
0
  0
VERTEX
  5
1E4
  8
NECK_POCKET
 10
150.82559607457233
 20
71.85193427083128
 30
0.0
 70
0
  0
VERTEX
  5
1E5
  8
NECK_POCKET
 10
104.71203595796817
 20
62.27975123939784
 30
0.0
 70
0
  0
VERTEX
  5
1E6
  8
NECK_POCKET
 10
103.25256740820933
 20
62.77986501675893
 30
0.0
 70
0
  0
VERTEX
  5
1E7
  8
NECK_POCKET
 10
94.14701569987436
 20
68.68208172652773
 30
0.0
 70
0
  0
VERTEX
  5
1E8
  8
NECK_POCKET
 10
92.94934703521514
 20
73.02568106106216
 30
0.0
 70
0
  0
VERTEX
  5
1E9
  8
NECK_POCKET
 10
93.35640427462143
 20
73.65365261867485
 30
0.0
 70
0
  0
VERTEX
  5
1EA
  8
NECK_POCKET
 10
98.62455659376525
 20
75.58974601858785
 30
0.0
 70
0
  0
VERTEX
  5
1EB
  8
NECK_POCKET
 10
103.15428711202415
 20
78.45039693006387
 30
0.0
 70
0
  0
VERTEX
  5
1EC
  8
NECK_POCKET
 10
96.29575844110295
 20
75.09267480167115
 30
0.0
 70
0
  0
VERTEX
  5
1ED
  8
NECK_POCKET
 10
91.02760612195912
 20
73.15658140175817
 30
0.0
 70
0
  0
VERTEX
  5
1EE
  8
NECK_POCKET
 10
82.22994576683335
 20
71.2787614053181
 30
0.0
 70
0
  0
VERTEX
  5
1EF
  8
NECK_POCKET
 10
72.95262148096944
 20
70.38073349413085
 30
0.0
 70
0
  0
VERTEX
  5
1F0
  8
NECK_POCKET
 10
65.52440236803183
 20
70.95955878411239
 30
0.0
 70
0
  0
VERTEX
  5
1F1
  8
NECK_POCKET
 10
63.17821264812855
 20
71.81149308911361
 30
0.0
 70
0
  0
VERTEX
  5
1F2
  8
NECK_POCKET
 10
60.16622194502493
 20
71.98022817864342
 30
0.0
 70
0
  0
VERTEX
  5
1F3
  8
NECK_POCKET
 10
55.58430339498287
 20
73.16658318642884
 30
0.0
 70
0
  0
VERTEX
  5
1F4
  8
NECK_POCKET
 10
53.755631007957945
 20
74.128979177487
 30
0.0
 70
0
  0
VERTEX
  5
1F5
  8
NECK_POCKET
 10
52.40662255167116
 20
74.11158308329232
 30
0.0
 70
0
  0
VERTEX
  5
1F6
  8
NECK_POCKET
 10
49.06325236444383
 20
75.83284405682818
 30
0.0
 70
0
  0
VERTEX
  5
1F7
  8
NECK_POCKET
 10
47.068889837210804
 20
77.57150485522001
 30
0.0
 70
0
  0
VERTEX
  5
1F8
  8
NECK_POCKET
 10
38.332541966141946
 20
83.01143935129176
 30
0.0
 70
0
  0
VERTEX
  5
1F9
  8
NECK_POCKET
 10
31.241799697294084
 20
89.61425137072668
 30
0.0
 70
0
  0
VERTEX
  5
1FA
  8
NECK_POCKET
 10
26.44200217896835
 20
95.62388083576852
 30
0.0
 70
0
  0
VERTEX
  5
1FB
  8
NECK_POCKET
 10
25.427429746257076
 20
97.84221489155172
 30
0.0
 70
0
  0
VERTEX
  5
1FC
  8
NECK_POCKET
 10
24.375018634977664
 20
98.9702992938602
 30
0.0
 70
0
  0
VERTEX
  5
1FD
  8
NECK_POCKET
 10
23.87794861249961
 20
101.29909185053059
 30
0.0
 70
0
  0
VERTEX
  5
1FE
  8
NECK_POCKET
 10
26.151501895317352
 20
102.05491435172277
 30
0.0
 70
0
  0
VERTEX
  5
1FF
  8
NECK_POCKET
 10
30.250701070071557
 20
98.06009026554699
 30
0.0
 70
0
  0
VERTEX
  5
200
  8
NECK_POCKET
 10
36.012882392106064
 20
93.87913546197939
 30
0.0
 70
0
  0
VERTEX
  5
201
  8
NECK_POCKET
 10
36.43733080060713
 20
93.15810336300481
 30
0.0
 70
0
  0
VERTEX
  5
202
  8
NECK_POCKET
 10
36.95483321084035
 20
93.268561863892
 30
0.0
 70
0
  0
VERTEX
  5
203
  8
NECK_POCKET
 10
41.35063002921157
 20
90.41921687522141
 30
0.0
 70
0
  0
VERTEX
  5
204
  8
NECK_POCKET
 10
48.333953423247806
 20
88.12216944148715
 30
0.0
 70
0
  0
VERTEX
  5
205
  8
NECK_POCKET
 10
49.70035304862931
 20
86.79056187909454
 30
0.0
 70
0
  0
VERTEX
  5
206
  8
NECK_POCKET
 10
50.790602838476914
 20
86.75272713026075
 30
0.0
 70
0
  0
VERTEX
  5
207
  8
NECK_POCKET
 10
50.90106293194897
 20
86.23521725870498
 30
0.0
 70
0
  0
VERTEX
  5
208
  8
NECK_POCKET
 10
52.50883005467492
 20
86.30784419592811
 30
0.0
 70
0
  0
VERTEX
  5
209
  8
NECK_POCKET
 10
53.45078087340919
 20
85.69727059784073
 30
0.0
 70
0
  0
VERTEX
  5
20A
  8
NECK_POCKET
 10
55.520820359632324
 20
86.13911097172895
 30
0.0
 70
0
  0
VERTEX
  5
20B
  8
NECK_POCKET
 10
58.3845120916226
 20
85.39763703294555
 30
0.0
 70
0
  0
VERTEX
  5
20C
  8
NECK_POCKET
 10
62.22799391813463
 20
85.13583635155351
 30
0.0
 70
0
  0
VERTEX
  5
20D
  8
NECK_POCKET
 10
62.70767237337171
 20
84.15604931680103
 30
0.0
 70
0
  0
VERTEX
  5
20E
  8
NECK_POCKET
 10
64.98124087744421
 20
84.91187360416498
 30
0.0
 70
0
  0
VERTEX
  5
20F
  8
NECK_POCKET
 10
69.8597420489216
 20
84.87099497504768
 30
0.0
 70
0
  0
VERTEX
  5
210
  8
NECK_POCKET
 10
70.5981638498065
 20
83.94643746348459
 30
0.0
 70
0
  0
VERTEX
  5
211
  8
NECK_POCKET
 10
70.74646321906604
 20
84.51917444740755
 30
0.0
 70
0
  0
VERTEX
  5
212
  8
NECK_POCKET
 10
73.3340051155224
 20
85.07147332218295
 30
0.0
 70
0
  0
VERTEX
  5
213
  8
NECK_POCKET
 10
74.07244183905243
 20
84.14691899578959
 30
0.0
 70
0
  0
VERTEX
  5
214
  8
NECK_POCKET
 10
74.58994424928565
 20
84.25737749667678
 30
0.0
 70
0
  0
VERTEX
  5
215
  8
NECK_POCKET
 10
74.68301357180918
 20
85.08886941637765
 30
0.0
 70
0
  0
VERTEX
  5
216
  8
NECK_POCKET
 10
84.82966666428415
 20
86.98408605250395
 30
0.0
 70
0
  0
VERTEX
  5
217
  8
NECK_POCKET
 10
85.25411547093141
 20
86.26305208819875
 30
0.0
 70
0
  0
VERTEX
  5
218
  8
NECK_POCKET
 10
85.14365537745935
 20
86.78056195975452
 30
0.0
 70
0
  0
VERTEX
  5
219
  8
NECK_POCKET
 10
85.80945715695213
 20
87.46375744456469
 30
0.0
 70
0
  0
VERTEX
  5
21A
  8
NECK_POCKET
 10
90.46703853963163
 20
88.45789669322832
 30
0.0
 70
0
  0
VERTEX
  5
21B
  8
NECK_POCKET
 10
90.83625650325042
 20
87.99562139536228
 30
0.0
 70
0
  0
VERTEX
  5
21C
  8
NECK_POCKET
 10
92.59230727629836
 20
88.64098586199994
 30
0.0
 70
0
  0
VERTEX
  5
21D
  8
NECK_POCKET
 10
92.63014655208585
 20
89.73123271747868
 30
0.0
 70
0
  0
VERTEX
  5
21E
  8
NECK_POCKET
 10
95.93873440112371
 20
90.70797905711737
 30
0.0
 70
0
  0
VERTEX
  5
21F
  8
NECK_POCKET
 10
96.30793823838981
 20
90.24569684342032
 30
0.0
 70
0
  0
VERTEX
  5
220
  8
NECK_POCKET
 10
98.98854866107726
 20
91.62949136855786
 30
0.0
 70
0
  0
VERTEX
  5
221
  8
NECK_POCKET
 10
98.82285891901539
 20
92.4057543105609
 30
0.0
 70
0
  0
VERTEX
  5
222
  8
NECK_POCKET
 10
100.20970585479722
 20
93.5134009908956
 30
0.0
 70
0
  0
VERTEX
  5
223
  8
NECK_POCKET
 10
102.59371913155043
 20
93.75171408686467
 30
0.0
 70
0
  0
VERTEX
  5
224
  8
NECK_POCKET
 10
104.75682714400466
 20
95.02505011111504
 30
0.0
 70
0
  0
VERTEX
  5
225
  8
NECK_POCKET
 10
104.99817971870397
 20
96.42928142556104
 30
0.0
 70
0
  0
VERTEX
  5
226
  8
NECK_POCKET
 10
106.64378532092496
 20
97.59215894892421
 30
0.0
 70
0
  0
VERTEX
  5
227
  8
NECK_POCKET
 10
109.9523586454639
 20
98.56890023806253
 30
0.0
 70
0
  0
VERTEX
  5
228
  8
NECK_POCKET
 10
111.94977651771005
 20
100.61850106964656
 30
0.0
 70
0
  0
VERTEX
  5
229
  8
NECK_POCKET
 10
116.68302406554204
 20
103.79313723638232
 30
0.0
 70
0
  0
VERTEX
  5
22A
  8
NECK_POCKET
 10
117.70065263955885
 20
105.3630610799137
 30
0.0
 70
0
  0
VERTEX
  5
22B
  8
NECK_POCKET
 10
120.17773444254317
 20
106.43286982624491
 30
0.0
 70
0
  0
VERTEX
  5
22C
  8
NECK_POCKET
 10
123.35846356769164
 20
109.2761281014418
 30
0.0
 70
0
  0
VERTEX
  5
22D
  8
NECK_POCKET
 10
128.31263503312903
 20
111.41574532135841
 30
0.0
 70
0
  0
VERTEX
  5
22E
  8
NECK_POCKET
 10
134.0052361589201
 20
112.63080475696617
 30
0.0
 70
0
  0
VERTEX
  5
22F
  8
NECK_POCKET
 10
139.25295609030871
 20
112.12764709932155
 30
0.0
 70
0
  0
VERTEX
  5
230
  8
NECK_POCKET
 10
139.93615610207257
 20
111.46184238545993
 30
0.0
 70
0
  0
VERTEX
  5
231
  8
NECK_POCKET
 10
140.71242464006752
 20
111.62753332196044
 30
0.0
 70
0
  0
VERTEX
  5
232
  8
NECK_POCKET
 10
143.68657646552987
 20
110.36854951162125
 30
0.0
 70
0
  0
VERTEX
  5
233
  8
NECK_POCKET
 10
144.46284127286356
 20
110.53423965182934
 30
0.0
 70
0
  0
VERTEX
  5
234
  8
NECK_POCKET
 10
146.03276578728693
 20
109.51661707195066
 30
0.0
 70
0
  0
VERTEX
  5
235
  8
NECK_POCKET
 10
148.52724661883477
 20
109.2374218889488
 30
0.0
 70
0
  0
VERTEX
  5
236
  8
NECK_POCKET
 10
149.00692134341057
 20
108.2576340579039
 30
0.0
 70
0
  0
VERTEX
  5
237
  8
NECK_POCKET
 10
149.78318615074423
 20
108.42332419811198
 30
0.0
 70
0
  0
VERTEX
  5
238
  8
NECK_POCKET
 10
151.66709564768155
 20
107.20217672919144
 30
0.0
 70
0
  0
VERTEX
  5
239
  8
NECK_POCKET
 10
153.64406660767358
 20
106.81252145271753
 30
0.0
 70
0
  0
VERTEX
  5
23A
  8
NECK_POCKET
 10
154.01328163692352
 20
106.35024162789777
 30
0.0
 70
0
  0
VERTEX
  5
23B
  8
NECK_POCKET
 10
154.7895464442572
 20
106.51593176810586
 30
0.0
 70
0
  0
VERTEX
  5
23C
  8
NECK_POCKET
 10
155.47274605787487
 20
105.85012891957487
 30
0.0
 70
0
  0
VERTEX
  5
23D
  8
NECK_POCKET
 10
156.50776207032516
 20
106.07104831022656
 30
0.0
 70
0
  0
VERTEX
  5
23E
  8
NECK_POCKET
 10
156.93220714631113
 20
105.3500135496289
 30
0.0
 70
0
  0
VERTEX
  5
23F
  8
NECK_POCKET
 10
158.74349169675637
 20
105.7366238767811
 30
0.0
 70
0
  0
VERTEX
  5
240
  8
NECK_POCKET
 10
159.22316642133217
 20
104.75683604573621
 30
0.0
 70
0
  0
VERTEX
  5
241
  8
NECK_POCKET
 10
161.293202176894
 20
105.198675623332
 30
0.0
 70
0
  0
VERTEX
  5
242
  8
NECK_POCKET
 10
169.03540254168425
 20
104.41632464801616
 30
0.0
 70
0
  0
VERTEX
  5
243
  8
NECK_POCKET
 10
173.23070783020526
 20
105.04124966372228
 30
0.0
 70
0
  0
VERTEX
  5
244
  8
NECK_POCKET
 10
175.70779709451213
 20
106.11106000263834
 30
0.0
 70
0
  0
VERTEX
  5
245
  8
NECK_POCKET
 10
178.01919328424205
 20
107.95713062193437
 30
0.0
 70
0
  0
VERTEX
  5
246
  8
NECK_POCKET
 10
178.83329323855574
 20
109.21306868665941
 30
0.0
 70
0
  0
VERTEX
  5
247
  8
NECK_POCKET
 10
179.98181576098423
 20
112.70473597966945
 30
0.0
 70
0
  0
VERTEX
  5
248
  8
NECK_POCKET
 10
178.7841508269863
 20
117.04833611049631
 30
0.0
 70
0
  0
VERTEX
  5
249
  8
NECK_POCKET
 10
174.81585336057597
 20
122.96490383973763
 30
0.0
 70
0
  0
VERTEX
  5
24A
  8
NECK_POCKET
 10
173.58035367774426
 20
126.21825418071688
 30
0.0
 70
0
  0
VERTEX
  5
24B
  8
NECK_POCKET
 10
172.95238557804706
 20
126.62530435694683
 30
0.0
 70
0
  0
VERTEX
  5
24C
  8
NECK_POCKET
 10
172.06870582563613
 20
130.7653786660665
 30
0.0
 70
0
  0
VERTEX
  5
24D
  8
NECK_POCKET
 10
172.14437385611927
 20
132.94587598228483
 30
0.0
 70
0
  0
VERTEX
  5
24E
  8
NECK_POCKET
 10
173.08937360367793
 20
136.12355752509552
 30
0.0
 70
0
  0
VERTEX
  5
24F
  8
NECK_POCKET
 10
175.12461931088632
 20
139.26340398911267
 30
0.0
 70
0
  0
VERTEX
  5
250
  8
NECK_POCKET
 10
178.72978968182295
 20
141.38562717375214
 30
0.0
 70
0
  0
VERTEX
  5
251
  8
NECK_POCKET
 10
178.82285457692933
 20
142.2171215614892
 30
0.0
 70
0
  0
VERTEX
  5
252
  8
NECK_POCKET
 10
180.11662739048813
 20
142.4932713970231
 30
0.0
 70
0
  0
VERTEX
  5
253
  8
NECK_POCKET
 10
180.2649223323305
 20
143.06601084898224
 30
0.0
 70
0
  0
VERTEX
  5
254
  8
NECK_POCKET
 10
183.0007647666212
 20
144.19105037015547
 30
0.0
 70
0
  0
VERTEX
  5
255
  8
NECK_POCKET
 10
185.07080238751368
 20
144.63289034589747
 30
0.0
 70
0
  0
VERTEX
  5
256
  8
NECK_POCKET
 10
185.7540013670757
 20
143.9670858992954
 30
0.0
 70
0
  0
VERTEX
  5
257
  8
NECK_POCKET
 10
189.06258268745628
 20
144.94383084542233
 30
0.0
 70
0
  0
VERTEX
  5
258
  8
NECK_POCKET
 10
189.4870267312404
 20
144.22279635208423
 30
0.0
 70
0
  0
VERTEX
  5
259
  8
NECK_POCKET
 10
189.78361568225986
 20
145.36827505692943
 30
0.0
 70
0
  0
VERTEX
  5
25A
  8
NECK_POCKET
 10
192.37116317470813
 20
145.9205751261435
 30
0.0
 70
0
  0
VERTEX
  5
25B
  8
NECK_POCKET
 10
194.08938086517983
 20
145.4756911337451
 30
0.0
 70
0
  0
VERTEX
  5
25C
  8
NECK_POCKET
 10
194.62428583556476
 20
144.237147434257
 30
0.0
 70
0
  0
VERTEX
  5
25D
  8
NECK_POCKET
 10
197.78457128143765
 20
144.64115272935166
 30
0.0
 70
0
  0
VERTEX
  5
25E
  8
NECK_POCKET
 10
198.15378621115104
 20
144.17887337086455
 30
0.0
 70
0
  0
VERTEX
  5
25F
  8
NECK_POCKET
 10
198.81959102454923
 20
144.86207291629577
 30
0.0
 70
0
  0
VERTEX
  5
260
  8
NECK_POCKET
 10
204.30866907686078
 20
145.76314800070213
 30
0.0
 70
0
  0
VERTEX
  5
261
  8
NECK_POCKET
 10
204.93663894235206
 20
145.35609868895108
 30
0.0
 70
0
  0
VERTEX
  5
262
  8
NECK_POCKET
 10
207.00667656324455
 20
145.79793866469308
 30
0.0
 70
0
  0
VERTEX
  5
263
  8
NECK_POCKET
 10
207.37589149295795
 20
145.33565930620597
 30
0.0
 70
0
  0
VERTEX
  5
264
  8
NECK_POCKET
 10
209.1871760434032
 20
145.72226963335817
 30
0.0
 70
0
  0
VERTEX
  5
265
  8
NECK_POCKET
 10
209.8151421782332
 20
145.31521952531466
 30
0.0
 70
0
  0
VERTEX
  5
266
  8
NECK_POCKET
 10
210.25698210420694
 20
143.24518213758853
 30
0.0
 70
0
  0
VERTEX
  5
267
  8
NECK_POCKET
 10
207.48330658734002
 20
141.02989415737923
 30
0.0
 70
0
  0
VERTEX
  5
268
  8
NECK_POCKET
 10
206.02079888332452
 20
137.74175268607638
 30
0.0
 70
0
  0
VERTEX
  5
269
  8
NECK_POCKET
 10
202.78484344210128
 20
135.1572501429498
 30
0.0
 70
0
  0
VERTEX
  5
26A
  8
NECK_POCKET
 10
205.72421086497036
 20
136.5962741803043
 30
0.0
 70
0
  0
VERTEX
  5
26B
  8
NECK_POCKET
 10
207.9077514642529
 20
140.3088603294469
 30
0.0
 70
0
  0
VERTEX
  5
26C
  8
NECK_POCKET
 10
210.21914715630004
 20
142.15493328040623
 30
0.0
 70
0
  0
VERTEX
  5
26D
  8
NECK_POCKET
 10
212.64100652317572
 20
143.4834978556012
 30
0.0
 70
0
  0
VERTEX
  5
26E
  8
NECK_POCKET
 10
218.38883764593453
 20
144.4398025885974
 30
0.0
 70
0
  0
VERTEX
  5
26F
  8
NECK_POCKET
 10
227.77663281910816
 20
144.82032488243678
 30
0.0
 70
0
  0
VERTEX
  5
270
  8
NECK_POCKET
 10
328.50700526703497
 20
144.4067521488908
 30
0.0
 70
0
  0
VERTEX
  5
271
  8
NECK_POCKET
 10
333.55119657872046
 20
143.58960871243985
 30
0.0
 70
0
  0
VERTEX
  5
272
  8
NECK_POCKET
 10
335.95261594721353
 20
142.47892133699136
 30
0.0
 70
0
  0
VERTEX
  5
273
  8
NECK_POCKET
 10
337.7638967669975
 20
142.86553086785113
 30
0.0
 70
0
  0
VERTEX
  5
274
  8
NECK_POCKET
 10
342.95334583113583
 20
138.8328715665089
 30
0.0
 70
0
  0
VERTEX
  5
275
  8
NECK_POCKET
 10
347.62833370370146
 20
138.47800847842433
 30
0.0
 70
0
  0
VERTEX
  5
276
  8
NECK_POCKET
 10
348.2532549887463
 20
134.2827023936109
 30
0.0
 70
0
  0
VERTEX
  5
277
  8
NECK_POCKET
 10
347.1251659231112
 20
133.23029028696592
 30
0.0
 70
0
  0
VERTEX
  5
278
  8
NECK_POCKET
 10
348.25021377008585
 20
130.49444767946602
 30
0.0
 70
0
  0
VERTEX
  5
279
  8
NECK_POCKET
 10
349.82012669437916
 20
129.4768245760407
 30
0.0
 70
0
  0
VERTEX
  5
27A
  8
NECK_POCKET
 10
350.2824139805215
 20
129.8460411978755
 30
0.0
 70
0
  0
VERTEX
  5
27B
  8
NECK_POCKET
 10
349.5992073037275
 20
130.511840588491
 30
0.0
 70
0
  0
VERTEX
  5
27C
  8
NECK_POCKET
 10
349.15736692983927
 20
132.58188007471412
 30
0.0
 70
0
  0
VERTEX
  5
27D
  8
NECK_POCKET
 10
351.1721763693264
 20
133.28247538438023
 30
0.0
 70
0
  0
VERTEX
  5
27E
  8
NECK_POCKET
 10
349.8610063925347
 20
134.35532987632558
 30
0.0
 70
0
  0
VERTEX
  5
27F
  8
NECK_POCKET
 10
349.3087067214668
 20
136.94287550344325
 30
0.0
 70
0
  0
VERTEX
  5
280
  8
NECK_POCKET
 10
349.6605339141371
 20
137.82960199683382
 30
0.0
 70
0
  0
VERTEX
  5
281
  8
NECK_POCKET
 10
352.8208231902079
 20
138.23360762188827
 30
0.0
 70
0
  0
VERTEX
  5
282
  8
NECK_POCKET
 10
360.35948827026476
 20
137.13726554451992
 30
0.0
 70
0
  0
VERTEX
  5
283
  8
NECK_POCKET
 10
361.1327081282767
 20
133.5147001742907
 30
0.0
 70
0
  0
VERTEX
  5
284
  8
NECK_POCKET
 10
360.4116770983404
 20
133.0902558945972
 30
0.0
 70
0
  0
VERTEX
  5
285
  8
NECK_POCKET
 10
360.3186077758169
 20
132.25876397489634
 30
0.0
 70
0
  0
VERTEX
  5
286
  8
NECK_POCKET
 10
358.3590433057109
 20
131.29941691462204
 30
0.0
 70
0
  0
VERTEX
  5
287
  8
NECK_POCKET
 10
358.3212048262159
 20
130.209166328482
 30
0.0
 70
0
  0
VERTEX
  5
288
  8
NECK_POCKET
 10
358.91134377307117
 20
128.71186755684312
 30
0.0
 70
0
  0
VERTEX
  5
289
  8
NECK_POCKET
 10
360.16728290683443
 20
127.89777173133695
 30
0.0
 70
0
  0
VERTEX
  5
28A
  8
NECK_POCKET
 10
364.25211690989954
 20
129.04020422972155
 30
0.0
 70
0
  0
VERTEX
  5
28B
  8
NECK_POCKET
 10
364.8626886426563
 20
129.9821546503096
 30
0.0
 70
0
  0
VERTEX
  5
28C
  8
NECK_POCKET
 10
364.7348369819433
 20
131.8486700437833
 30
0.0
 70
0
  0
VERTEX
  5
28D
  8
NECK_POCKET
 10
362.5921758817432
 20
133.0145901275909
 30
0.0
 70
0
  0
VERTEX
  5
28E
  8
NECK_POCKET
 10
362.15033630414734
 20
135.08462588315274
 30
0.0
 70
0
  0
VERTEX
  5
28F
  8
NECK_POCKET
 10
362.4469334500816
 20
136.23010731232125
 30
0.0
 70
0
  0
VERTEX
  5
290
  8
NECK_POCKET
 10
364.77571668009875
 20
136.7271753440682
 30
0.0
 70
0
  0
VERTEX
  5
291
  8
NECK_POCKET
 10
372.3696267295369
 20
135.37208151609173
 30
0.0
 70
0
  0
VERTEX
  5
292
  8
NECK_POCKET
 10
373.8056063520887
 20
128.64446064718908
 30
0.0
 70
0
  0
VERTEX
  5
293
  8
NECK_POCKET
 10
373.19503541562443
 20
127.70250649593976
 30
0.0
 70
0
  0
VERTEX
  5
294
  8
NECK_POCKET
 10
371.1249959294013
 20
127.26066612205153
 30
0.0
 70
0
  0
VERTEX
  5
295
  8
NECK_POCKET
 10
370.59008702928196
 20
128.49920995791254
 30
0.0
 70
0
  0
VERTEX
  5
296
  8
NECK_POCKET
 10
370.0173545723127
 20
128.64750639280322
 30
0.0
 70
0
  0
VERTEX
  5
297
  8
NECK_POCKET
 10
369.51722880667535
 20
127.18803918482838
 30
0.0
 70
0
  0
VERTEX
  5
298
  8
NECK_POCKET
 10
370.53181576388556
 20
124.96971017954556
 30
0.0
 70
0
  0
VERTEX
  5
299
  8
NECK_POCKET
 10
372.67447686408565
 20
123.80379009573797
 30
0.0
 70
0
  0
VERTEX
  5
29A
  8
NECK_POCKET
 10
374.54098773060565
 20
123.93164469081984
 30
0.0
 70
0
  0
VERTEX
  5
29B
  8
NECK_POCKET
 10
375.87260461965144
 20
125.29804630693243
 30
0.0
 70
0
  0
VERTEX
  5
29C
  8
NECK_POCKET
 10
374.41313606989263
 20
125.79816008429354
 30
0.0
 70
0
  0
VERTEX
  5
29D
  8
NECK_POCKET
 10
373.9160664455608
 20
128.1269507756333
 30
0.0
 70
0
  0
VERTEX
  5
29E
  8
NECK_POCKET
 10
374.2126486688499
 20
129.27242901963206
 30
0.0
 70
0
  0
VERTEX
  5
29F
  8
NECK_POCKET
 10
376.28268815507306
 20
129.71426939352028
 30
0.0
 70
0
  0
VERTEX
  5
2A0
  8
NECK_POCKET
 10
377.1694093252175
 20
129.36244886588014
 30
0.0
 70
0
  0
VERTEX
  5
2A1
  8
NECK_POCKET
 10
376.4309867280401
 20
130.2870101081045
 30
0.0
 70
0
  0
VERTEX
  5
2A2
  8
NECK_POCKET
 10
374.7127744344873
 20
130.7318962276069
 30
0.0
 70
0
  0
VERTEX
  5
2A3
  8
NECK_POCKET
 10
374.2535283670054
 20
134.15093431991693
 30
0.0
 70
0
  0
VERTEX
  5
2A4
  8
NECK_POCKET
 10
376.32356785322855
 20
134.59277469380515
 30
0.0
 70
0
  0
VERTEX
  5
2A5
  8
NECK_POCKET
 10
381.79220757341506
 20
133.05459915837963
 30
0.0
 70
0
  0
VERTEX
  5
2A6
  8
NECK_POCKET
 10
382.620657478163
 20
129.1732788523725
 30
0.0
 70
0
  0
VERTEX
  5
2A7
  8
NECK_POCKET
 10
383.78352888198765
 20
127.52768364584293
 30
0.0
 70
0
  0
VERTEX
  5
2A8
  8
NECK_POCKET
 10
395.0869866599039
 20
120.20079510165837
 30
0.0
 70
0
  0
VERTEX
  5
2A9
  8
NECK_POCKET
 10
401.21751627355593
 20
91.47902334494133
 30
0.0
 70
0
  0
SEQEND
  5
1CD
  8
NECK_POCKET
  0
POLYLINE
  5
2AA
  8
NECK_POCKET
 66
1
 10
0.0
 20
0.0
 30
0.0
 70
1
  0
VERTEX
  5
2AC
  8
NECK_POCKET
 10
388.6546481303635
 20
164.27911299287405
 30
0.0
 70
0
  0
VERTEX
  5
2AD
  8
NECK_POCKET
 10
385.19472009155186
 20
158.94137308983687
 30
0.0
 70
0
  0
VERTEX
  5
2AE
  8
NECK_POCKET
 10
382.34841952865634
 20
158.33384337203302
 30
0.0
 70
0
  0
VERTEX
  5
2AF
  8
NECK_POCKET
 10
380.5749775865137
 20
159.03748256198264
 30
0.0
 70
0
  0
VERTEX
  5
2B0
  8
NECK_POCKET
 10
376.0104498074201
 20
158.8748357785114
 30
0.0
 70
0
  0
VERTEX
  5
2B1
  8
NECK_POCKET
 10
375.38248770186107
 20
159.28188528384936
 30
0.0
 70
0
  0
VERTEX
  5
2B2
  8
NECK_POCKET
 10
374.5714289662078
 20
161.81420193326917
 30
0.0
 70
0
  0
VERTEX
  5
2B3
  8
NECK_POCKET
 10
372.7427565791829
 20
162.77659792432735
 30
0.0
 70
0
  0
VERTEX
  5
2B4
  8
NECK_POCKET
 10
370.7279471396958
 20
162.0760026146612
 30
0.0
 70
0
  0
VERTEX
  5
2B5
  8
NECK_POCKET
 10
370.76272987603147
 20
159.37799343615603
 30
0.0
 70
0
  0
VERTEX
  5
2B6
  8
NECK_POCKET
 10
368.4339466460143
 20
158.88092540440908
 30
0.0
 70
0
  0
VERTEX
  5
2B7
  8
NECK_POCKET
 10
367.8059692196639
 20
159.28797358990792
 30
0.0
 70
0
  0
VERTEX
  5
2B8
  8
NECK_POCKET
 10
363.1862267146257
 20
159.38408306205366
 30
0.0
 70
0
  0
VERTEX
  5
2B9
  8
NECK_POCKET
 10
362.37516797897246
 20
161.9163997114735
 30
0.0
 70
0
  0
VERTEX
  5
2BA
  8
NECK_POCKET
 10
360.1220471834465
 20
163.59982780150622
 30
0.0
 70
0
  0
VERTEX
  5
2BB
  8
NECK_POCKET
 10
358.6247550768377
 20
163.00969417789702
 30
0.0
 70
0
  0
VERTEX
  5
2BC
  8
NECK_POCKET
 10
358.9182964796126
 20
160.3669158424203
 30
0.0
 70
0
  0
VERTEX
  5
2BD
  8
NECK_POCKET
 10
356.2755245364202
 20
160.07337190342278
 30
0.0
 70
0
  0
VERTEX
  5
2BE
  8
NECK_POCKET
 10
355.74061563630096
 20
161.3119157392838
 30
0.0
 70
0
  0
VERTEX
  5
2BF
  8
NECK_POCKET
 10
353.2083037865806
 20
160.50086192873047
 30
0.0
 70
0
  0
VERTEX
  5
2C0
  8
NECK_POCKET
 10
349.30957738883365
 20
161.02141249540003
 30
0.0
 70
0
  0
VERTEX
  5
2C1
  8
NECK_POCKET
 10
347.5361350485447
 20
161.7250535506803
 30
0.0
 70
0
  0
VERTEX
  5
2C2
  8
NECK_POCKET
 10
346.87337528400485
 20
164.83010904935372
 30
0.0
 70
0
  0
VERTEX
  5
2C3
  8
NECK_POCKET
 10
345.98665411386037
 20
165.18192957699387
 30
0.0
 70
0
  0
VERTEX
  5
2C4
  8
NECK_POCKET
 10
344.4893470846065
 20
164.59179276821493
 30
0.0
 70
0
  0
VERTEX
  5
2C5
  8
NECK_POCKET
 10
343.78570722376486
 20
162.8183448319341
 30
0.0
 70
0
  0
VERTEX
  5
2C6
  8
NECK_POCKET
 10
340.4219042506361
 20
162.10035661324304
 30
0.0
 70
0
  0
VERTEX
  5
2C7
  8
NECK_POCKET
 10
337.90698396815674
 20
159.9402972807718
 30
0.0
 70
0
  0
VERTEX
  5
2C8
  8
NECK_POCKET
 10
332.26961249095547
 20
158.46648477471683
 30
0.0
 70
0
  0
VERTEX
  5
2C9
  8
NECK_POCKET
 10
330.3478570532005
 20
158.59738006491247
 30
0.0
 70
0
  0
VERTEX
  5
2CA
  8
NECK_POCKET
 10
328.8331733793508
 20
159.35625196322118
 30
0.0
 70
0
  0
VERTEX
  5
2CB
  8
NECK_POCKET
 10
323.4371548749951
 20
159.28666890628156
 30
0.0
 70
0
  0
VERTEX
  5
2CC
  8
NECK_POCKET
 10
295.2389752280816
 20
160.8431097470566
 30
0.0
 70
0
  0
VERTEX
  5
2CD
  8
NECK_POCKET
 10
292.8549620010966
 20
160.6047964179212
 30
0.0
 70
0
  0
VERTEX
  5
2CE
  8
NECK_POCKET
 10
280.2342525058237
 20
161.42802676143276
 30
0.0
 70
0
  0
VERTEX
  5
2CF
  8
NECK_POCKET
 10
200.64609442700146
 20
164.18996100019376
 30
0.0
 70
0
  0
VERTEX
  5
2D0
  8
NECK_POCKET
 10
199.8350398201557
 20
166.72227658057537
 30
0.0
 70
0
  0
VERTEX
  5
2D1
  8
NECK_POCKET
 10
199.1579293088891
 20
174.96459418064222
 30
0.0
 70
0
  0
VERTEX
  5
2D2
  8
NECK_POCKET
 10
197.66671963960118
 20
181.95096998532273
 30
0.0
 70
0
  0
VERTEX
  5
2D3
  8
NECK_POCKET
 10
195.7306254433958
 20
187.21912603512783
 30
0.0
 70
0
  0
VERTEX
  5
2D4
  8
NECK_POCKET
 10
193.49794263161692
 20
191.3418063771568
 30
0.0
 70
0
  0
VERTEX
  5
2D5
  8
NECK_POCKET
 10
190.85821004175435
 20
194.8365167541579
 30
0.0
 70
0
  0
VERTEX
  5
2D6
  8
NECK_POCKET
 10
187.12822766204417
 20
198.3690618799928
 30
0.0
 70
0
  0
VERTEX
  5
2D7
  8
NECK_POCKET
 10
183.98838156756625
 20
200.40431156670388
 30
0.0
 70
0
  0
VERTEX
  5
2D8
  8
NECK_POCKET
 10
176.63583381762683
 20
203.1636368345268
 30
0.0
 70
0
  0
VERTEX
  5
2D9
  8
NECK_POCKET
 10
168.06213939505935
 20
204.0390488747512
 30
0.0
 70
0
  0
VERTEX
  5
2DA
  8
NECK_POCKET
 10
157.8602461329027
 20
202.40258891433297
 30
0.0
 70
0
  0
VERTEX
  5
2DB
  8
NECK_POCKET
 10
146.751189588047
 20
198.67869829859686
 30
0.0
 70
0
  0
VERTEX
  5
2DC
  8
NECK_POCKET
 10
140.79983352647804
 20
197.4084088162531
 30
0.0
 70
0
  0
VERTEX
  5
2DD
  8
NECK_POCKET
 10
136.49406894077737
 20
197.30098994144146
 30
0.0
 70
0
  0
VERTEX
  5
2DE
  8
NECK_POCKET
 10
132.79887449524864
 20
198.13552894854044
 30
0.0
 70
0
  0
VERTEX
  5
2DF
  8
NECK_POCKET
 10
128.9379944364655
 20
199.74632982860427
 30
0.0
 70
0
  0
VERTEX
  5
2E0
  8
NECK_POCKET
 10
125.79814834198757
 20
201.78157951531534
 30
0.0
 70
0
  0
VERTEX
  5
2E1
  8
NECK_POCKET
 10
110.21241783994648
 20
215.2285608031835
 30
0.0
 70
0
  0
VERTEX
  5
2E2
  8
NECK_POCKET
 10
101.16209617834754
 20
220.87202257717442
 30
0.0
 70
0
  0
VERTEX
  5
2E3
  8
NECK_POCKET
 10
94.8997963529251
 20
223.59351269801738
 30
0.0
 70
0
  0
VERTEX
  5
2E4
  8
NECK_POCKET
 10
88.80318214075704
 20
225.53874094589548
 30
0.0
 70
0
  0
VERTEX
  5
2E5
  8
NECK_POCKET
 10
88.36134335945368
 20
227.60877297079605
 30
0.0
 70
0
  0
VERTEX
  5
2E6
  8
NECK_POCKET
 10
97.92700807197602
 20
242.36605436438157
 30
0.0
 70
0
  0
VERTEX
  5
2E7
  8
NECK_POCKET
 10
101.71830853173503
 20
246.15126492549717
 30
0.0
 70
0
  0
VERTEX
  5
2E8
  8
NECK_POCKET
 10
104.9716588727143
 20
247.3867646083289
 30
0.0
 70
0
  0
VERTEX
  5
2E9
  8
NECK_POCKET
 10
110.05977657180719
 20
255.23639210554572
 30
0.0
 70
0
  0
VERTEX
  5
2EA
  8
NECK_POCKET
 10
112.59209081040481
 20
256.0474347241152
 30
0.0
 70
0
  0
VERTEX
  5
2EB
  8
NECK_POCKET
 10
116.8456687061063
 20
260.20187150646456
 30
0.0
 70
0
  0
VERTEX
  5
2EC
  8
NECK_POCKET
 10
118.06681963294234
 20
262.0857739402255
 30
0.0
 70
0
  0
VERTEX
  5
2ED
  8
NECK_POCKET
 10
120.4886727309746
 20
263.4143496106109
 30
0.0
 70
0
  0
VERTEX
  5
2EE
  8
NECK_POCKET
 10
124.05601044334507
 20
264.4463132124169
 30
0.0
 70
0
  0
VERTEX
  5
2EF
  8
NECK_POCKET
 10
125.33238902803986
 20
266.0714719023838
 30
0.0
 70
0
  0
VERTEX
  5
2F0
  8
NECK_POCKET
 10
130.74883912385835
 20
268.5803097475423
 30
0.0
 70
0
  0
VERTEX
  5
2F1
  8
NECK_POCKET
 10
133.15330304352693
 20
271.2578797478617
 30
0.0
 70
0
  0
VERTEX
  5
2F2
  8
NECK_POCKET
 10
140.65718871976324
 20
272.85954951062166
 30
0.0
 70
0
  0
VERTEX
  5
2F3
  8
NECK_POCKET
 10
143.07904500296524
 20
274.1881102583619
 30
0.0
 70
0
  0
VERTEX
  5
2F4
  8
NECK_POCKET
 10
172.57707970168534
 20
280.4843296140758
 30
0.0
 70
0
  0
VERTEX
  5
2F5
  8
NECK_POCKET
 10
353.3231018960952
 20
280.3760356971196
 30
0.0
 70
0
  0
VERTEX
  5
2F6
  8
NECK_POCKET
 10
365.623740937628
 20
272.17981675373915
 30
0.0
 70
0
  0
SEQEND
  5
2AB
  8
NECK_POCKET
  0
ENDSEC
  0
EOF
