0
SECTION
2
HEADER
9
$ACADVER
1
AC1009
9
$INSUNITS
70
4
0
ENDSEC
0
SECTION
2
ENTITIES
0
POLYLINE
8
GEOMETRY
66
1
70
1
0
VERTEX
8
GEOMETRY
10
-200.000000
20
-6.666667
30
0.0
0
VERTEX
8
GEOMETRY
10
-196.000000
20
-33.333333
30
0.0
0
VERTEX
8
GEOMETRY
10
-186.666667
20
-60.000000
30
0.0
0
VERTEX
8
GEOMETRY
10
-173.333333
20
-86.666667
30
0.0
0
VERTEX
8
GEOMETRY
10
-153.333333
20
-113.333333
30
0.0
0
VERTEX
8
GEOMETRY
10
-126.666667
20
-140.000000
30
0.0
0
VERTEX
8
GEOMETRY
10
-93.333333
20
-153.333333
30
0.0
0
VERTEX
8
GEOMETRY
10
-60.000000
20
-166.666667
30
0.0
0
VERTEX
8
GEOMETRY
10
-26.666667
20
-173.333333
30
0.0
0
VERTEX
8
GEOMETRY
10
6.666667
20
-180.000000
30
0.0
0
VERTEX
8
GEOMETRY
10
40.000000
20
-173.333333
30
0.0
0
VERTEX
8
GEOMETRY
10
66.666667
20
-166.666667
30
0.0
0
VERTEX
8
GEOMETRY
10
93.333333
20
-153.333333
30
0.0
0
VERTEX
8
GEOMETRY
10
126.666667
20
-140.000000
30
0.0
0
VERTEX
8
GEOMETRY
10
153.333333
20
-113.333333
30
0.0
0
VERTEX
8
GEOMETRY
10
173.333333
20
-86.666667
30
0.0
0
VERTEX
8
GEOMETRY
10
186.666667
20
-60.000000
30
0.0
0
VERTEX
8
GEOMETRY
10
196.000000
20
-33.333333
30
0.0
0
VERTEX
8
GEOMETRY
10
200.000000
20
-6.666667
30
0.0
0
VERTEX
8
GEOMETRY
10
196.000000
20
20.000000
30
0.0
0
VERTEX
8
GEOMETRY
10
186.666667
20
46.666667
30
0.0
0
VERTEX
8
GEOMETRY
10
173.333333
20
73.333333
30
0.0
0
VERTEX
8
GEOMETRY
10
153.333333
20
100.000000
30
0.0
0
VERTEX
8
GEOMETRY
10
126.666667
20
126.666667
30
0.0
0
VERTEX
8
GEOMETRY
10
93.333333
20
140.000000
30
0.0
0
VERTEX
8
GEOMETRY
10
66.666667
20
153.333333
30
0.0
0
VERTEX
8
GEOMETRY
10
40.000000
20
166.666667
30
0.0
0
VERTEX
8
GEOMETRY
10
6.666667
20
173.333333
30
0.0
0
VERTEX
8
GEOMETRY
10
-26.666667
20
180.000000
30
0.0
0
VERTEX
8
GEOMETRY
10
-60.000000
20
173.333333
30
0.0
0
VERTEX
8
GEOMETRY
10
-93.333333
20
166.666667
30
0.0
0
VERTEX
8
GEOMETRY
10
-126.666667
20
153.333333
30
0.0
0
VERTEX
8
GEOMETRY
10
-153.333333
20
140.000000
30
0.0
0
VERTEX
8
GEOMETRY
10
-173.333333
20
113.333333
30
0.0
0
VERTEX
8
GEOMETRY
10
-186.666667
20
86.666667
30
0.0
0
VERTEX
8
GEOMETRY
10
-196.000000
20
60.000000
30
0.0
0
VERTEX
8
GEOMETRY
10
-200.000000
20
33.333333
30
0.0
0
VERTEX
8
GEOMETRY
10
-200.000000
20
6.666667
30
0.0
0
VERTEX
8
GEOMETRY
10
-200.000000
20
-6.666667
30
0.0
0
SEQEND
8
GEOMETRY
0
ENDSEC
0
EOF