  0
SECTION
  2
HEADER
  9
$ACADVER
  1
AC1015
  9
$ACADMAINTVER
 70
6
  9
$DWGCODEPAGE
  3
ANSI_1252
  9
$INSBASE
 10
0.0
 20
0.0
 30
0.0
  9
$EXTMIN
 10
1e+20
 20
1e+20
 30
1e+20
  9
$EXTMAX
 10
-1e+20
 20
-1e+20
 30
-1e+20
  9
$LIMMIN
 10
0.0
 20
0.0
  9
$LIMMAX
 10
420.0
 20
297.0
  9
$ORTHOMODE
 70
0
  9
$REGENMODE
 70
1
  9
$FILLMODE
 70
1
  9
$QTEXTMODE
 70
0
  9
$MIRRTEXT
 70
1
  9
$LTSCALE
 40
1.0
  9
$ATTMODE
 70
1
  9
$TEXTSIZE
 40
2.5
  9
$TRACEWID
 40
1.0
  9
$TEXTSTYLE
  7
Standard
  9
$CLAYER
  8
0
  9
$CELTYPE
  6
ByLayer
  9
$CECOLOR
 62
256
  9
$CELTSCALE
 40
1.0
  9
$DISPSILH
 70
0
  9
$DIMSCALE
 40
1.0
  9
$DIMASZ
 40
2.5
  9
$DIMEXO
 40
0.625
  9
$DIMDLI
 40
3.75
  9
$DIMRND
 40
0.0
  9
$DIMDLE
 40
0.0
  9
$DIMEXE
 40
1.25
  9
$DIMTP
 40
0.0
  9
$DIMTM
 40
0.0
  9
$DIMTXT
 40
2.5
  9
$DIMCEN
 40
2.5
  9
$DIMTSZ
 40
0.0
  9
$DIMTOL
 70
0
  9
$DIMLIM
 70
0
  9
$DIMTIH
 70
0
  9
$DIMTOH
 70
0
  9
$DIMSE1
 70
0
  9
$DIMSE2
 70
0
  9
$DIMTAD
 70
1
  9
$DIMZIN
 70
8
  9
$DIMBLK
  1

  9
$DIMASO
 70
1
  9
$DIMSHO
 70
1
  9
$DIMPOST
  1

  9
$DIMAPOST
  1

  9
$DIMALT
 70
0
  9
$DIMALTD
 70
3
  9
$DIMALTF
 40
0.03937007874
  9
$DIMLFAC
 40
1.0
  9
$DIMTOFL
 70
1
  9
$DIMTVP
 40
0.0
  9
$DIMTIX
 70
0
  9
$DIMSOXD
 70
0
  9
$DIMSAH
 70
0
  9
$DIMBLK1
  1

  9
$DIMBLK2
  1

  9
$DIMSTYLE
  2
ISO-25
  9
$DIMCLRD
 70
0
  9
$DIMCLRE
 70
0
  9
$DIMCLRT
 70
0
  9
$DIMTFAC
 40
1.0
  9
$DIMGAP
 40
0.625
  9
$DIMJUST
 70
0
  9
$DIMSD1
 70
0
  9
$DIMSD2
 70
0
  9
$DIMTOLJ
 70
0
  9
$DIMTZIN
 70
8
  9
$DIMALTZ
 70
0
  9
$DIMALTTZ
 70
0
  9
$DIMUPT
 70
0
  9
$DIMDEC
 70
2
  9
$DIMTDEC
 70
2
  9
$DIMALTU
 70
2
  9
$DIMALTTD
 70
3
  9
$DIMTXSTY
  7
Standard
  9
$DIMAUNIT
 70
0
  9
$DIMADEC
 70
0
  9
$DIMALTRND
 40
0.0
  9
$DIMAZIN
 70
0
  9
$DIMDSEP
 70
44
  9
$DIMATFIT
 70
3
  9
$DIMFRAC
 70
0
  9
$DIMLDRBLK
  1

  9
$DIMLUNIT
 70
2
  9
$DIMLWD
 70
-2
  9
$DIMLWE
 70
-2
  9
$DIMTMOVE
 70
0
  9
$LUNITS
 70
2
  9
$LUPREC
 70
4
  9
$SKETCHINC
 40
1.0
  9
$FILLETRAD
 40
10.0
  9
$AUNITS
 70
0
  9
$AUPREC
 70
2
  9
$MENU
  1
.
  9
$ELEVATION
 40
0.0
  9
$PELEVATION
 40
0.0
  9
$THICKNESS
 40
0.0
  9
$LIMCHECK
 70
0
  9
$CHAMFERA
 40
0.0
  9
$CHAMFERB
 40
0.0
  9
$CHAMFERC
 40
0.0
  9
$CHAMFERD
 40
0.0
  9
$SKPOLY
 70
0
  9
$TDCREATE
 40
2461021.673622685
  9
$TDUCREATE
 40
2458532.153996898
  9
$TDUPDATE
 40
2461021.673622685
  9
$TDUUPDATE
 40
2458532.1544311
  9
$TDINDWG
 40
0.0
  9
$TDUSRTIMER
 40
0.0
  9
$USRTIMER
 70
1
  9
$ANGBASE
 50
0.0
  9
$ANGDIR
 70
0
  9
$PDMODE
 70
0
  9
$PDSIZE
 40
0.0
  9
$PLINEWID
 40
0.0
  9
$SPLFRAME
 70
0
  9
$SPLINETYPE
 70
6
  9
$SPLINESEGS
 70
8
  9
$HANDSEED
  5
34
  9
$SURFTAB1
 70
6
  9
$SURFTAB2
 70
6
  9
$SURFTYPE
 70
6
  9
$SURFU
 70
6
  9
$SURFV
 70
6
  9
$UCSBASE
  2

  9
$UCSNAME
  2

  9
$UCSORG
 10
0.0
 20
0.0
 30
0.0
  9
$UCSXDIR
 10
1.0
 20
0.0
 30
0.0
  9
$UCSYDIR
 10
0.0
 20
1.0
 30
0.0
  9
$UCSORTHOREF
  2

  9
$UCSORTHOVIEW
 70
0
  9
$UCSORGTOP
 10
0.0
 20
0.0
 30
0.0
  9
$UCSORGBOTTOM
 10
0.0
 20
0.0
 30
0.0
  9
$UCSORGLEFT
 10
0.0
 20
0.0
 30
0.0
  9
$UCSORGRIGHT
 10
0.0
 20
0.0
 30
0.0
  9
$UCSORGFRONT
 10
0.0
 20
0.0
 30
0.0
  9
$UCSORGBACK
 10
0.0
 20
0.0
 30
0.0
  9
$PUCSBASE
  2

  9
$PUCSNAME
  2

  9
$PUCSORG
 10
0.0
 20
0.0
 30
0.0
  9
$PUCSXDIR
 10
1.0
 20
0.0
 30
0.0
  9
$PUCSYDIR
 10
0.0
 20
1.0
 30
0.0
  9
$PUCSORTHOREF
  2

  9
$PUCSORTHOVIEW
 70
0
  9
$PUCSORGTOP
 10
0.0
 20
0.0
 30
0.0
  9
$PUCSORGBOTTOM
 10
0.0
 20
0.0
 30
0.0
  9
$PUCSORGLEFT
 10
0.0
 20
0.0
 30
0.0
  9
$PUCSORGRIGHT
 10
0.0
 20
0.0
 30
0.0
  9
$PUCSORGFRONT
 10
0.0
 20
0.0
 30
0.0
  9
$PUCSORGBACK
 10
0.0
 20
0.0
 30
0.0
  9
$USERI1
 70
0
  9
$USERI2
 70
0
  9
$USERI3
 70
0
  9
$USERI4
 70
0
  9
$USERI5
 70
0
  9
$USERR1
 40
0.0
  9
$USERR2
 40
0.0
  9
$USERR3
 40
0.0
  9
$USERR4
 40
0.0
  9
$USERR5
 40
0.0
  9
$WORLDVIEW
 70
1
  9
$SHADEDGE
 70
3
  9
$SHADEDIF
 70
70
  9
$TILEMODE
 70
1
  9
$MAXACTVP
 70
64
  9
$PINSBASE
 10
0.0
 20
0.0
 30
0.0
  9
$PLIMCHECK
 70
0
  9
$PEXTMIN
 10
1e+20
 20
1e+20
 30
1e+20
  9
$PEXTMAX
 10
-1e+20
 20
-1e+20
 30
-1e+20
  9
$PLIMMIN
 10
0.0
 20
0.0
  9
$PLIMMAX
 10
420.0
 20
297.0
  9
$UNITMODE
 70
0
  9
$VISRETAIN
 70
1
  9
$PLINEGEN
 70
0
  9
$PSLTSCALE
 70
1
  9
$TREEDEPTH
 70
3020
  9
$CMLSTYLE
  2
Standard
  9
$CMLJUST
 70
0
  9
$CMLSCALE
 40
20.0
  9
$PROXYGRAPHICS
 70
1
  9
$MEASUREMENT
 70
1
  9
$CELWEIGHT
370
-1
  9
$ENDCAPS
280
0
  9
$JOINSTYLE
280
0
  9
$LWDISPLAY
290
0
  9
$INSUNITS
 70
6
  9
$HYPERLINKBASE
  1

  9
$STYLESHEET
  1

  9
$XEDIT
290
1
  9
$CEPSNTYPE
380
0
  9
$PSTYLEMODE
290
1
  9
$FINGERPRINTGUID
  2
{8EC4BEDE-D384-49EB-A111-99DE8B4BA836}
  9
$VERSIONGUID
  2
{A86545C9-3EF8-4AE3-8F95-4E39862C1B75}
  9
$EXTNAMES
290
1
  9
$PSVPSCALE
 40
0.0
  9
$OLESTARTUP
290
0
  0
ENDSEC
  0
SECTION
  2
CLASSES
  0
CLASS
  1
ACDBDICTIONARYWDFLT
  2
AcDbDictionaryWithDefault
  3
ObjectDBX Classes
 90
0
280
0
281
0
  0
CLASS
  1
SUN
  2
AcDbSun
  3
SCENEOE
 90
1153
280
0
281
0
  0
CLASS
  1
VISUALSTYLE
  2
AcDbVisualStyle
  3
ObjectDBX Classes
 90
4095
280
0
281
0
  0
CLASS
  1
MATERIAL
  2
AcDbMaterial
  3
ObjectDBX Classes
 90
1153
280
0
281
0
  0
CLASS
  1
SCALE
  2
AcDbScale
  3
ObjectDBX Classes
 90
1153
280
0
281
0
  0
CLASS
  1
TABLESTYLE
  2
AcDbTableStyle
  3
ObjectDBX Classes
 90
4095
280
0
281
0
  0
CLASS
  1
MLEADERSTYLE
  2
AcDbMLeaderStyle
  3
ACDB_MLEADERSTYLE_CLASS
 90
4095
280
0
281
0
  0
CLASS
  1
DICTIONARYVAR
  2
AcDbDictionaryVar
  3
ObjectDBX Classes
 90
0
280
0
281
0
  0
CLASS
  1
CELLSTYLEMAP
  2
AcDbCellStyleMap
  3
ObjectDBX Classes
 90
1152
280
0
281
0
  0
CLASS
  1
MENTALRAYRENDERSETTINGS
  2
AcDbMentalRayRenderSettings
  3
SCENEOE
 90
1024
280
0
281
0
  0
CLASS
  1
ACDBDETAILVIEWSTYLE
  2
AcDbDetailViewStyle
  3
ObjectDBX Classes
 90
1025
280
0
281
0
  0
CLASS
  1
ACDBSECTIONVIEWSTYLE
  2
AcDbSectionViewStyle
  3
ObjectDBX Classes
 90
1025
280
0
281
0
  0
CLASS
  1
RASTERVARIABLES
  2
AcDbRasterVariables
  3
ISM
 90
0
280
0
281
0
  0
CLASS
  1
ACDBPLACEHOLDER
  2
AcDbPlaceHolder
  3
ObjectDBX Classes
 90
0
280
0
281
0
  0
CLASS
  1
LAYOUT
  2
AcDbLayout
  3
ObjectDBX Classes
 90
0
280
0
281
0
  0
ENDSEC
  0
SECTION
  2
TABLES
  0
TABLE
  2
VPORT
  5
8
330
0
100
AcDbSymbolTable
 70
1
  0
VPORT
  5
23
330
8
100
AcDbSymbolTableRecord
100
AcDbViewportTableRecord
  2
*Active
 70
0
 10
0.0
 20
0.0
 11
1.0
 21
1.0
 12
0.0
 22
0.0
 13
0.0
 23
0.0
 14
0.5
 24
0.5
 15
0.5
 25
0.5
 16
0.0
 26
0.0
 36
1.0
 17
0.0
 27
0.0
 37
0.0
 40
1000.0
 41
1.34
 42
50.0
 43
0.0
 44
0.0
 50
0.0
 51
0.0
 71
0
 72
1000
 73
1
 74
3
 75
0
 76
0
 77
0
 78
0
281
0
 65
0
146
0.0
  0
ENDTAB
  0
TABLE
  2
LTYPE
  5
2
330
0
100
AcDbSymbolTable
 70
3
  0
LTYPE
  5
24
330
2
100
AcDbSymbolTableRecord
100
AcDbLinetypeTableRecord
  2
ByBlock
 70
0
  3

 72
65
 73
0
 40
0.0
  0
LTYPE
  5
25
330
2
100
AcDbSymbolTableRecord
100
AcDbLinetypeTableRecord
  2
ByLayer
 70
0
  3

 72
65
 73
0
 40
0.0
  0
LTYPE
  5
26
330
2
100
AcDbSymbolTableRecord
100
AcDbLinetypeTableRecord
  2
Continuous
 70
0
  3

 72
65
 73
0
 40
0.0
  0
ENDTAB
  0
TABLE
  2
LAYER
  5
1
330
0
100
AcDbSymbolTable
 70
2
  0
LAYER
  5
27
330
1
100
AcDbSymbolTableRecord
100
AcDbLayerTableRecord
  2
0
 70
0
 62
7
  6
Continuous
370
-3
390
13
  0
LAYER
  5
28
330
1
100
AcDbSymbolTableRecord
100
AcDbLayerTableRecord
  2
Defpoints
 70
0
 62
7
  6
Continuous
290
0
370
-3
390
13
  0
ENDTAB
  0
TABLE
  2
STYLE
  5
5
330
0
100
AcDbSymbolTable
 70
1
  0
STYLE
  5
29
330
5
100
AcDbSymbolTableRecord
100
AcDbTextStyleTableRecord
  2
Standard
 70
0
 40
0.0
 41
1.0
 50
0.0
 71
0
 42
2.5
  3
txt
  4

  0
ENDTAB
  0
TABLE
  2
VIEW
  5
7
330
0
100
AcDbSymbolTable
 70
0
  0
ENDTAB
  0
TABLE
  2
UCS
  5
6
330
0
100
AcDbSymbolTable
 70
0
  0
ENDTAB
  0
TABLE
  2
APPID
  5
3
330
0
100
AcDbSymbolTable
 70
3
  0
APPID
  5
2A
330
3
100
AcDbSymbolTableRecord
100
AcDbRegAppTableRecord
  2
ACAD
 70
0
  0
APPID
  5
31
330
3
100
AcDbSymbolTableRecord
100
AcDbRegAppTableRecord
  2
HATCHBACKGROUNDCOLOR
 70
0
  0
APPID
  5
32
330
3
100
AcDbSymbolTableRecord
100
AcDbRegAppTableRecord
  2
EZDXF
 70
0
  0
ENDTAB
  0
TABLE
  2
DIMSTYLE
  5
4
330
0
100
AcDbSymbolTable
 70
1
100
AcDbDimStyleTable
  0
DIMSTYLE
105
2B
330
4
100
AcDbSymbolTableRecord
100
AcDbDimStyleTableRecord
  2
Standard
 70
0
  3

  4

 40
1.0
 41
2.5
 42
0.625
 43
3.75
 44
1.25
 45
0.0
 46
0.0
 47
0.0
 48
0.0
140
2.5
141
2.5
142
0.0
143
0.03937007874
144
1.0
145
0.0
146
1.0
147
0.625
148
0.0
 71
0
 72
0
 73
0
 74
0
 75
0
 76
0
 77
1
 78
8
 79
3
170
0
171
3
172
1
173
0
174
0
175
0
176
0
177
0
178
0
179
2
271
2
272
2
273
2
274
3
275
0
276
0
277
2
278
44
279
0
280
0
281
0
282
0
283
0
284
8
285
0
286
0
288
0
289
3
371
-2
372
-2
  0
ENDTAB
  0
TABLE
  2
BLOCK_RECORD
  5
9
330
0
100
AcDbSymbolTable
 70
2
  0
BLOCK_RECORD
  5
17
330
9
100
AcDbSymbolTableRecord
100
AcDbBlockTableRecord
  2
*Model_Space
340
1A
  0
BLOCK_RECORD
  5
1B
330
9
100
AcDbSymbolTableRecord
100
AcDbBlockTableRecord
  2
*Paper_Space
340
1E
  0
ENDTAB
  0
ENDSEC
  0
SECTION
  2
BLOCKS
  0
BLOCK
  5
18
330
17
100
AcDbEntity
  8
0
100
AcDbBlockBegin
  2
*Model_Space
 70
0
 10
0.0
 20
0.0
 30
0.0
  3
*Model_Space
  1

  0
ENDBLK
  5
19
330
17
100
AcDbEntity
  8
0
100
AcDbBlockEnd
  0
BLOCK
  5
1C
330
1B
100
AcDbEntity
  8
0
100
AcDbBlockBegin
  2
*Paper_Space
 70
0
 10
0.0
 20
0.0
 30
0.0
  3
*Paper_Space
  1

  0
ENDBLK
  5
1D
330
1B
100
AcDbEntity
  8
0
100
AcDbBlockEnd
  0
ENDSEC
  0
SECTION
  2
ENTITIES
  0
LWPOLYLINE
  5
2F
330
17
100
AcDbEntity
  8
BODY_POINTS
 62
7
100
AcDbPolyline
 90
1156
 70
0
 10
40.00000000000091
 20
1.1368683772161603e-13
 10
30.00000000000091
 20
1.1368683772161603e-13
 10
20.00000000000091
 20
0.0
 10
10.00000000000091
 20
0.0
 10
9.094947017729282e-13
 20
0.0
 10
9.094947017729282e-13
 20
10.000000000000114
 10
47.50000000000034
 20
10.000000000000227
 10
9.094947017729282e-13
 20
1.1368683772161603e-13
 10
47.50000000000068
 20
2.2737367544323206e-13
 10
9.094947017729282e-13
 20
60.000000000000114
 10
47.50000000000034
 20
60.00000000000023
 10
9.094947017729282e-13
 20
50.000000000000114
 10
47.50000000000034
 20
50.00000000000023
 10
9.094947017729282e-13
 20
40.000000000000114
 10
47.50000000000068
 20
40.00000000000023
 10
9.094947017729282e-13
 20
30.000000000000114
 10
47.50000000000068
 20
30.000000000000227
 10
9.094947017729282e-13
 20
20.000000000000114
 10
47.50000000000034
 20
20.000000000000227
 10
28.570838772494426
 20
67.77007183321314
 10
30.253637494000827
 20
65.18461005261236
 10
31.999207568695624
 20
62.64110670675632
 10
33.80650332398966
 20
60.14108546505702
 10
35.674442110919244
 20
57.686043949250234
 10
37.60190495270081
 20
55.2774528362545
 10
39.58773721504622
 20
52.916754977171536
 10
41.63074929783943
 20
50.60536453295583
 10
43.72971734775854
 20
48.3446661272701
 10
45.88338399141742
 20
46.136014017035905
 10
48.09045908858718
 20
43.98073128117403
 10
0.0
 20
110.00000000000011
 10
47.49999999999966
 20
110.00000000000023
 10
0.0
 20
100.00000000000011
 10
47.49999999999966
 20
100.00000000000023
 10
0.0
 20
90.00000000000011
 10
47.49999999999966
 20
90.00000000000023
 10
9.094947017729282e-13
 20
80.00000000000011
 10
47.50000000000034
 20
80.00000000000023
 10
9.094947017729282e-13
 20
70.00000000000011
 10
47.50000000000034
 20
70.00000000000023
 10
9.970368545646693
 20
119.61546001207506
 10
10.389898617091376
 20
116.55925015749955
 10
10.884099287457843
 20
113.51422308808617
 10
11.452674508995301
 20
110.48220290782604
 10
12.095283680353646
 20
107.46500592901657
 10
12.81154185061871
 20
104.46443958421105
 10
13.601019949914303
 20
101.48230134348785
 10
14.463245046434395
 20
98.5203776376876
 10
15.397700629749465
 20
95.58044278826276
 10
16.40382692021842
 20
92.66425794438237
 10
17.481021204322133
 20
89.77357002792621
 10
18.628638195713847
 20
86.91011068700311
 10
19.845990421774445
 20
84.07559525861745
 10
21.132348635438916
 20
81.27172174110831
 10
22.486942252046106
 20
78.50016977697385
 10
23.90895981095366
 20
75.76259964669237
 10
25.397549461637595
 20
73.06065127414195
 10
26.95181947398794
 20
70.39594324421455
 10
40.00000000000068
 20
122.50000000000011
 10
30.000000000000682
 20
122.50000000000011
 10
20.000000000000682
 20
122.5
 10
10.000000000000682
 20
122.5
 10
6.821210263296962e-13
 20
122.5
 10
9.094947017729282e-13
 20
160.0000000000001
 10
47.50000000000034
 20
160.00000000000023
 10
9.094947017729282e-13
 20
150.0000000000001
 10
47.50000000000034
 20
150.00000000000023
 10
9.094947017729282e-13
 20
140.0000000000001
 10
47.50000000000034
 20
140.00000000000023
 10
9.094947017729282e-13
 20
130.0000000000001
 10
47.50000000000034
 20
130.00000000000023
 10
9.094947017729282e-13
 20
120.00000000000011
 10
47.50000000000034
 20
120.00000000000023
 10
13.234164869340361
 20
166.86233004628383
 10
12.433470971306292
 20
163.73983636153758
 10
11.715552805303673
 20
160.59727832125373
 10
11.080911576876929
 20
157.43684986283074
 10
10.52999035282312
 20
154.2607573996748
 10
10.063173751870636
 20
151.07121828082012
 10
9.680787676162026
 20
147.8704592429147
 10
9.383099083730144
 20
144.66071485565186
 10
9.170315802124264
 20
141.44422596173382
 10
9.042586383318167
 20
138.2232381124552
 10
9.0
 20
134.99999999999983
 10
8.999999999999432
 20
134.9999999999999
 10
9.043306647769782
 20
131.91543379219854
 10
9.162090561768991
 20
128.83285134596525
 10
9.356280585252875
 20
125.75409926259925
 10
9.625760389929951
 20
122.68102184884572
 10
0.0
 20
210.0
 10
47.49999999999966
 20
210.0000000000001
 10
0.0
 20
200.0
 10
47.49999999999966
 20
200.0000000000001
 10
0.0
 20
190.0
 10
47.49999999999966
 20
190.0000000000001
 10
0.0
 20
180.0
 10
47.49999999999966
 20
180.0000000000001
 10
0.0
 20
170.0000000000001
 10
47.49999999999966
 20
170.00000000000023
 10
17.252659537167347
 20
179.10830463339585
 10
16.127024449234682
 20
176.08770482897887
 10
15.081586485395519
 20
173.03842015984856
 10
14.117075505024559
 20
169.96257944577167
 10
34.76808537622594
 20
218.79991660383598
 10
33.42642824396023
 20
216.0058350540753
 10
32.0985770477879
 20
213.20516606826237
 10
30.78456413046456
 20
210.3979778628904
 10
29.484421497683797
 20
207.58433881324333
 10
28.198180817298294
 20
204.7643174517296
 10
26.925873418547212
 20
201.93798246621293
 10
25.66753029129427
 20
199.10540269833916
 10
24.423182085272288
 20
196.26664714186012
 10
23.192859109336496
 20
193.4217849409518
 10
21.976591330727047
 20
190.57088538853174
 10
20.774408374338577
 20
187.71401792457033
 10
19.58633952199841
 20
184.85125213439994
 10
18.412413711753743
 20
181.98265774701895
 10
17.252659537166892
 20
179.10830463339477
 10
40.000000000000455
 20
245.0000000000001
 10
30.000000000000455
 20
245.0000000000001
 10
20.000000000000455
 20
245.00000000000006
 10
10.000000000000455
 20
245.0
 10
4.547473508864641e-13
 20
245.0
 10
0.0
 20
260.0
 10
47.49999999999966
 20
260.0000000000001
 10
0.0
 20
250.0
 10
47.49999999999966
 20
250.0000000000001
 10
0.0
 20
240.0
 10
47.49999999999966
 20
240.0000000000001
 10
0.0
 20
230.0000000000001
 10
47.49999999999966
 20
230.00000000000023
 10
0.0
 20
220.0
 10
47.49999999999966
 20
220.0000000000001
 10
47.45876431836916
 20
243.6390409405716
 10
45.99436440406714
 20
240.9072890378058
 10
44.54346430594819
 20
238.16834316894506
 10
43.10609936389653
 20
235.4222700470794
 10
41.68230458811763
 20
232.66913655889965
 10
40.27211465828532
 20
229.90900976306716
 10
38.875563922697665
 20
227.1419568885811
 10
37.492686397439684
 20
224.3680453331404
 10
36.12351576555511
 20
221.58734266150196
 10
0.0
 20
310.0000000000001
 10
47.49999999999966
 20
310.0000000000002
 10
0.0
 20
300.0
 10
47.49999999999966
 20
300.00000000000017
 10
0.0
 20
290.0000000000001
 10
47.49999999999966
 20
290.0000000000002
 10
0.0
 20
280.0000000000001
 10
47.49999999999966
 20
280.0000000000002
 10
0.0
 20
270.0
 10
47.49999999999966
 20
270.0000000000001
 10
40.00000000000023
 20
367.5000000000001
 10
30.000000000000227
 20
367.5000000000001
 10
20.000000000000227
 20
367.5000000000001
 10
10.000000000000227
 20
367.5
 10
2.2737367544323206e-13
 20
367.5
 10
0.0
 20
360.0000000000001
 10
47.49999999999966
 20
360.0000000000002
 10
0.0
 20
350.0000000000001
 10
47.49999999999966
 20
350.0000000000002
 10
0.0
 20
340.0000000000002
 10
47.49999999999966
 20
340.00000000000034
 10
0.0
 20
330.0000000000002
 10
47.49999999999966
 20
330.00000000000034
 10
0.0
 20
320.0000000000002
 10
47.49999999999966
 20
320.00000000000034
 10
0.0
 20
410.0000000000001
 10
47.49999999999966
 20
410.0000000000002
 10
0.0
 20
400.0000000000001
 10
47.49999999999966
 20
400.0000000000002
 10
0.0
 20
390.0000000000001
 10
47.49999999999966
 20
390.0000000000002
 10
0.0
 20
380.0000000000001
 10
47.49999999999966
 20
380.0000000000002
 10
0.0
 20
370.0000000000001
 10
47.49999999999966
 20
370.0000000000002
 10
0.0
 20
460.0000000000002
 10
47.49999999999966
 20
460.0000000000003
 10
0.0
 20
450.0000000000002
 10
47.49999999999966
 20
450.0000000000003
 10
0.0
 20
440.0000000000002
 10
47.49999999999966
 20
440.0000000000003
 10
0.0
 20
430.0000000000002
 10
47.49999999999966
 20
430.0000000000003
 10
0.0
 20
420.0000000000002
 10
47.49999999999966
 20
420.0000000000003
 10
40.0
 20
490.0000000000001
 10
30.0
 20
490.0000000000001
 10
20.0
 20
490.0000000000001
 10
10.0
 20
490.0
 10
0.0
 20
490.0
 10
0.0
 20
490.0000000000002
 10
47.49999999999966
 20
490.0000000000003
 10
0.0
 20
480.0000000000002
 10
47.49999999999966
 20
480.0000000000003
 10
0.0
 20
470.0000000000002
 10
47.49999999999966
 20
470.0000000000003
 10
90.00000000000091
 20
2.2737367544323206e-13
 10
80.00000000000091
 20
2.2737367544323206e-13
 10
70.00000000000091
 20
2.2737367544323206e-13
 10
60.00000000000091
 20
1.1368683772161603e-13
 10
50.00000000000091
 20
1.1368683772161603e-13
 10
94.99999999999989
 20
10.000000000000341
 10
95.00000000000045
 20
3.410605131648481e-13
 10
86.63752005661559
 20
18.851430068960553
 10
89.50013860816216
 20
17.701717415993585
 10
92.39003727532236
 20
16.62240752092316
 10
95.30548488278214
 20
15.614146937438932
 10
94.99999999999989
 20
60.00000000000023
 10
94.99999999999989
 20
50.00000000000023
 10
95.00000000000045
 20
40.00000000000023
 10
95.00000000000045
 20
30.000000000000227
 10
94.99999999999989
 20
20.000000000000227
 10
50.34962050504646
 20
41.880109028023185
 10
52.65951490459747
 20
39.83540562190922
 10
55.01875855977323
 20
37.84784592933056
 10
57.42593818075113
 20
35.91862058520928
 10
59.8796117619745
 20
34.0488852796492
 10
62.37830944597715
 20
32.23976006562725
 10
64.92053440389236
 20
30.492328688032103
 10
67.50476373211814
 20
28.807637934454647
 10
70.12944936460292
 20
27.186697008116425
 10
72.79301900020528
 20
25.630476923312244
 10
75.49387704457024
 20
24.13990992373101
 10
78.2304055659597
 20
22.71588892400075
 10
81.00096526446487
 20
21.359266974793854
 10
83.8038964540176
 20
20.07085675181247
 10
94.99999999999943
 20
110.00000000000034
 10
94.99999999999943
 20
100.00000000000023
 10
94.99999999999943
 20
90.00000000000023
 10
94.99999999999989
 20
80.00000000000023
 10
94.99999999999989
 20
70.00000000000023
 10
90.00000000000068
 20
122.50000000000023
 10
80.00000000000068
 20
122.50000000000023
 10
70.00000000000068
 20
122.50000000000023
 10
60.00000000000068
 20
122.50000000000011
 10
50.00000000000068
 20
122.50000000000011
 10
94.99999999999989
 20
160.00000000000034
 10
94.99999999999989
 20
150.00000000000034
 10
94.99999999999989
 20
140.00000000000034
 10
94.99999999999989
 20
130.00000000000034
 10
94.99999999999989
 20
120.00000000000034
 10
94.99999999999943
 20
210.00000000000023
 10
94.99999999999943
 20
200.00000000000023
 10
94.99999999999943
 20
190.00000000000023
 10
94.99999999999943
 20
180.00000000000023
 10
94.99999999999943
 20
170.00000000000034
 10
90.00000000000045
 20
245.00000000000023
 10
80.00000000000045
 20
245.00000000000023
 10
70.00000000000045
 20
245.00000000000023
 10
60.000000000000455
 20
245.0000000000001
 10
50.000000000000455
 20
245.0000000000001
 10
94.99999999999943
 20
260.0000000000002
 10
94.99999999999943
 20
250.00000000000023
 10
94.99999999999943
 20
240.00000000000023
 10
94.99999999999943
 20
230.00000000000034
 10
94.99999999999943
 20
220.00000000000023
 10
61.239862125027685
 20
267.8901599471594
 10
59.65560812443732
 20
265.2261263833911
 10
58.084521190193755
 20
262.5543065144026
 10
56.52663958959761
 20
259.8747654182826
 10
54.982001268304316
 20
257.18756836118666
 10
53.45064384940008
 20
254.49278079574867
 10
51.93260463248521
 20
251.7904683594861
 10
50.427920592765645
 20
249.08069687320068
 10
48.936628380152456
 20
246.36353233937655
 10
94.99999999999943
 20
310.00000000000034
 10
94.99999999999943
 20
300.00000000000034
 10
94.99999999999943
 20
290.00000000000034
 10
94.99999999999943
 20
280.00000000000034
 10
94.99999999999943
 20
270.0000000000002
 10
65.24809327954699
 20
274.67417226558973
 10
66.74938986466555
 20
277.6965432617519
 10
68.00152347232984
 20
280.57052028208847
 10
69.0044941025402
 20
283.296103326599
 10
69.75830175529643
 20
285.8732923952836
 10
70.33559813566808
 20
288.33300957019986
 10
70.8090349487245
 20
290.7061769334053
 10
71.17861219446547
 20
292.9927944848999
 10
71.44432987289133
 20
295.1928622246836
 10
71.53805333150115
 20
297.6529248904016
 10
71.3916479177941
 20
300.71952721969905
 10
71.00511363177031
 20
304.3926692125759
 10
70.37845047342955
 20
308.672350869032
 10
69.3350694395433
 20
313.9370327162074
 10
64.44771665342125
 20
273.19460879652814
 10
62.837244603951376
 20
270.5463423172726
 10
64.44771665342091
 20
273.19460879652803
 10
64.64781080995238
 20
273.56449966379347
 10
64.84790496648395
 20
273.93439053105885
 10
65.04799912301553
 20
274.3042813983243
 10
65.24809327954699
 20
274.67417226558973
 10
90.00000000000023
 20
367.5000000000002
 10
80.00000000000023
 20
367.5000000000002
 10
70.00000000000023
 20
367.5000000000002
 10
60.00000000000023
 20
367.5000000000001
 10
50.00000000000023
 20
367.5000000000001
 10
94.99999999999943
 20
360.00000000000034
 10
94.99999999999943
 20
350.00000000000034
 10
94.99999999999943
 20
340.00000000000045
 10
94.99999999999943
 20
330.00000000000045
 10
94.99999999999943
 20
320.00000000000045
 10
67.69838152688305
 20
320.5651752812416
 10
65.46838673544937
 20
328.55677856413456
 10
62.64508506524146
 20
337.91184256488634
 10
59.61823482069997
 20
347.7908057944606
 10
56.77759430626486
 20
357.3541067638208
 10
54.123163521936135
 20
366.60174547296697
 10
94.99999999999943
 20
410.00000000000034
 10
94.99999999999943
 20
400.00000000000034
 10
94.99999999999943
 20
390.00000000000034
 10
94.99999999999943
 20
380.00000000000034
 10
94.99999999999943
 20
370.00000000000034
 10
53.04353281949591
 20
419.8634715401455
 10
52.1748873229061
 20
416.65582880628773
 10
51.42659693821281
 20
413.41799335540514
 10
50.79970493741632
 20
410.1544794016807
 10
50.295085337990486
 20
406.8698369604564
 10
49.913441684320674
 20
403.5686455045681
 10
49.655306066817616
 20
400.25550757961037
 10
49.52103838007224
 20
396.93504238703383
 10
49.51082582108859
 20
393.6118793440196
 10
49.62468262829202
 20
390.29065162911206
 10
49.86245006167826
 20
386.97598972260676
 10
50.22379662412925
 20
383.6725149507005
 10
50.22379662412925
 20
383.6725149507008
 10
50.36105266541654
 20
382.7645353085669
 10
50.50376145516202
 20
381.8573967013359
 10
50.65191784193496
 20
380.951131874446
 10
50.805516477659694
 20
380.04577354179366
 10
50.96455181780914
 20
379.1413543845535
 10
51.12901812160487
 20
378.2379070499981
 10
51.29890945222394
 20
377.3354641503197
 10
51.47421967701382
 20
376.43405826145295
 10
51.65494246771311
 20
375.53372192189903
 10
51.65494246771391
 20
375.5337219218991
 10
94.99999999999943
 20
460.00000000000034
 10
94.99999999999943
 20
450.00000000000034
 10
94.99999999999943
 20
440.00000000000034
 10
94.99999999999943
 20
430.00000000000034
 10
94.99999999999943
 20
420.00000000000034
 10
55.13687874890422
 20
426.170338709666
 10
54.03132235599287
 20
423.0364494377054
 10
70.28586731778319
 20
452.1649551947091
 10
68.17033627159356
 20
449.5411624358104
 10
66.15566725094175
 20
446.83915044726064
 10
64.24474955726089
 20
444.0627942710796
 10
62.44032369887998
 20
441.21607556867025
 10
60.74497746077293
 20
438.3030769105901
 10
59.16114219333281
 20
435.327975921606
 10
57.69108932549477
 20
432.2950392894288
 10
56.336927107206975
 20
429.2086166457193
 10
55.10059758592138
 20
426.07313432814226
 10
89.14126158993054
 20
469.6885069609217
 10
86.51705766128043
 20
467.8074378179381
 10
83.96275542713806
 20
465.8324928879506
 10
81.48171139611509
 20
463.7662673688086
 10
79.0771858110852
 20
461.611476406612
 10
76.75233836502628
 20
459.3709515278433
 10
74.51022404899186
 20
457.0476369185702
 10
72.35378913766692
 20
454.64458555560543
 10
70.28586731778341
 20
452.16495519470936
 10
90.0
 20
490.0000000000002
 10
80.0
 20
490.0000000000002
 10
70.0
 20
490.0000000000002
 10
60.0
 20
490.0000000000001
 10
50.0
 20
490.0000000000001
 10
94.99999999999943
 20
490.00000000000034
 10
94.99999999999943
 20
480.00000000000034
 10
94.99999999999943
 20
470.00000000000034
 10
97.39836793349843
 20
474.7443773893426
 10
94.58549375226073
 20
473.1592571351177
 10
91.83191884939549
 20
471.47322847755015
 10
140.0
 20
3.410605131648481e-13
 10
130.0
 20
3.410605131648481e-13
 10
120.0
 20
3.410605131648481e-13
 10
110.0
 20
3.410605131648481e-13
 10
100.00000000000091
 20
2.2737367544323206e-13
 10
142.49999999999943
 20
10.000000000000455
 10
142.50000000000023
 20
4.547473508864641e-13
 10
98.24473495029838
 20
14.677539657595162
 10
101.20602673891653
 20
13.813146749992711
 10
104.18758630572995
 20
13.021486023674356
 10
107.18762756654883
 20
12.303031717935141
 10
146.79386103423633
 20
6.49609687345685
 10
140.94488084945544
 20
6.870941778613769
 10
134.34443526561768
 20
7.511928265470601
 10
126.51807785718745
 20
8.630938750976497
 10
117.46580862416477
 20
10.227973235131344
 10
107.18762756654996
 20
12.303031717935141
 10
142.49999999999943
 20
60.00000000000034
 10
142.49999999999943
 20
50.00000000000034
 10
142.50000000000023
 20
40.00000000000034
 10
142.50000000000023
 20
30.00000000000034
 10
142.49999999999943
 20
20.00000000000034
 10
142.4999999999992
 20
110.0000000000004
 10
142.4999999999992
 20
100.00000000000034
 10
142.4999999999992
 20
90.00000000000034
 10
142.49999999999943
 20
80.00000000000034
 10
142.49999999999943
 20
70.00000000000034
 10
139.99999999999966
 20
122.50000000000034
 10
129.99999999999966
 20
122.50000000000034
 10
119.99999999999966
 20
122.50000000000034
 10
109.99999999999966
 20
122.50000000000034
 10
100.00000000000068
 20
122.50000000000023
 10
142.49999999999943
 20
160.0000000000004
 10
142.49999999999943
 20
150.0000000000004
 10
142.49999999999943
 20
140.0000000000004
 10
142.49999999999943
 20
130.0000000000004
 10
142.49999999999943
 20
120.0000000000004
 10
142.4999999999992
 20
210.0000000000004
 10
142.4999999999992
 20
200.0000000000004
 10
142.4999999999992
 20
190.0000000000004
 10
142.4999999999992
 20
180.0000000000004
 10
142.4999999999992
 20
170.0000000000004
 10
139.99999999999943
 20
245.00000000000034
 10
129.99999999999943
 20
245.00000000000034
 10
119.99999999999943
 20
245.00000000000034
 10
109.99999999999943
 20
245.00000000000028
 10
100.00000000000045
 20
245.00000000000023
 10
142.4999999999992
 20
260.0000000000004
 10
142.4999999999992
 20
250.0000000000004
 10
142.4999999999992
 20
240.0000000000004
 10
142.4999999999992
 20
230.0000000000004
 10
142.4999999999992
 20
220.0000000000004
 10
142.4999999999992
 20
310.0000000000005
 10
142.4999999999992
 20
300.00000000000045
 10
142.4999999999992
 20
290.0000000000004
 10
142.4999999999992
 20
280.0000000000004
 10
142.4999999999992
 20
270.0000000000004
 10
139.9999999999992
 20
367.5000000000004
 10
129.9999999999992
 20
367.5000000000004
 10
119.9999999999992
 20
367.5000000000004
 10
109.9999999999992
 20
367.5000000000002
 10
100.00000000000023
 20
367.5000000000002
 10
142.4999999999992
 20
360.0000000000004
 10
142.4999999999992
 20
350.0000000000004
 10
142.4999999999992
 20
340.0000000000005
 10
142.4999999999992
 20
330.0000000000005
 10
142.4999999999992
 20
320.0000000000005
 10
142.4999999999992
 20
410.0000000000004
 10
142.4999999999992
 20
400.0000000000004
 10
142.4999999999992
 20
390.0000000000004
 10
142.4999999999992
 20
380.0000000000004
 10
142.4999999999992
 20
370.0000000000004
 10
142.4999999999992
 20
460.00000000000045
 10
142.4999999999992
 20
450.00000000000045
 10
142.4999999999992
 20
440.00000000000045
 10
142.4999999999992
 20
430.00000000000045
 10
142.4999999999992
 20
420.00000000000045
 10
139.99999999999886
 20
490.0000000000004
 10
129.99999999999886
 20
490.0000000000004
 10
119.99999999999886
 20
490.0000000000004
 10
109.99999999999886
 20
490.0000000000002
 10
100.0
 20
490.0000000000002
 10
142.4999999999992
 20
490.00000000000045
 10
142.4999999999992
 20
480.00000000000045
 10
142.4999999999992
 20
470.00000000000045
 10
115.30907097495003
 20
482.02898935655895
 10
112.22040527543857
 20
481.0882388176328
 10
109.16786550715187
 20
480.0361607108099
 10
106.15546289314818
 20
478.8741375307608
 10
103.18715591382193
 20
477.60369624667425
 10
100.26684510521977
 20
476.2265062957273
 10
146.25234331409013
 20
488.06344188626696
 10
141.45897472912554
 20
487.59904682025956
 10
136.20477610077432
 20
486.87033717611837
 10
130.05797491609405
 20
485.68847432733224
 10
123.01857117508496
 20
484.0534582739012
 10
115.08656487774692
 20
481.9652890158252
 10
180.0
 20
4.547473508864641e-13
 10
170.0
 20
4.547473508864641e-13
 10
160.0
 20
4.547473508864641e-13
 10
150.0
 20
4.547473508864641e-13
 10
189.99999999999886
 20
10.000000000000568
 10
190.0
 20
5.684341886080801e-13
 10
186.0
 20
4.840254777700011
 10
179.45646626414123
 20
5.076430000478922
 10
173.38839938426906
 20
5.297965710721428
 10
167.79579936038363
 20
5.50486190842787
 10
162.67866619248446
 20
5.697118593598134
 10
157.66075370575095
 20
5.909185280948918
 10
152.36581865300138
 20
6.1755113742352705
 10
190.0
 20
4.840254777700011
 10
189.0
 20
4.840254777700011
 10
188.0
 20
4.840254777700011
 10
187.0
 20
4.840254777700011
 10
186.0
 20
4.840254777700011
 10
193.99999999999886
 20
4.840254777700011
 10
189.99999999999886
 20
4.840254777700011
 10
190.99999999999886
 20
4.840254777700011
 10
191.99999999999886
 20
4.840254777700011
 10
192.99999999999886
 20
4.840254777700011
 10
193.99999999999886
 20
4.840254777700011
 10
190.0
 20
8.84025477770092
 10
189.99999999999886
 20
4.840254777700011
 10
189.99999999999886
 20
60.000000000000455
 10
189.99999999999886
 20
50.000000000000455
 10
190.0
 20
40.000000000000455
 10
190.0
 20
30.000000000000455
 10
189.99999999999886
 20
20.000000000000455
 10
189.99999999999784
 20
28.21516961665509
 10
192.6885183007755
 20
26.773307225814733
 10
195.41224867276208
 20
25.399119950202476
 10
198.16948794308894
 20
24.09346708136536
 10
189.99999999999886
 20
110.00000000000051
 10
189.99999999999886
 20
100.00000000000045
 10
189.99999999999886
 20
90.00000000000045
 10
189.99999999999886
 20
80.00000000000045
 10
189.99999999999886
 20
70.00000000000045
 10
179.99999999999966
 20
122.50000000000045
 10
169.99999999999966
 20
122.50000000000045
 10
159.99999999999966
 20
122.50000000000045
 10
149.99999999999966
 20
122.50000000000045
 10
189.99999999999886
 20
160.0000000000005
 10
189.99999999999886
 20
150.0000000000005
 10
189.99999999999886
 20
140.0000000000005
 10
189.99999999999886
 20
130.0000000000005
 10
189.99999999999886
 20
120.00000000000051
 10
189.99999999999966
 20
129.1301910832758
 10
189.99999999999886
 20
135.00000000000063
 10
189.99999999999886
 20
126.13019108327512
 10
189.99999999999886
 20
210.0000000000005
 10
189.99999999999886
 20
200.0000000000005
 10
189.99999999999886
 20
190.0000000000005
 10
189.99999999999886
 20
180.0000000000005
 10
189.99999999999886
 20
170.0000000000005
 10
179.99999999999943
 20
245.00000000000045
 10
169.99999999999943
 20
245.00000000000045
 10
159.99999999999943
 20
245.00000000000045
 10
149.99999999999943
 20
245.00000000000045
 10
189.99999999999886
 20
260.0000000000005
 10
189.99999999999886
 20
250.0000000000005
 10
189.99999999999886
 20
240.0000000000005
 10
189.99999999999886
 20
230.0000000000005
 10
189.99999999999886
 20
220.0000000000005
 10
189.99999999999943
 20
249.4201273888507
 10
195.42433426542095
 20
244.60678829843027
 10
192.69448525664052
 20
243.22979723479847
 10
189.99999999999773
 20
241.78483038334616
 10
189.99999999999886
 20
247.42012738885023
 10
189.99999999999886
 20
310.0000000000006
 10
189.99999999999886
 20
300.0000000000006
 10
189.99999999999886
 20
290.0000000000005
 10
189.99999999999886
 20
280.0000000000005
 10
189.99999999999886
 20
270.0000000000005
 10
195.07924359863773
 20
319.065071441889
 10
197.70173224144253
 20
317.522830838048
 10
189.99999999999886
 20
299.0000000000006
 10
189.99999999999886
 20
295.0000000000006
 10
193.06928484474042
 20
295.10718178856837
 10
196.12361644224177
 20
295.4282049753715
 10
179.9999999999992
 20
367.5000000000005
 10
169.9999999999992
 20
367.5000000000005
 10
159.9999999999992
 20
367.5000000000004
 10
149.9999999999992
 20
367.5000000000004
 10
189.99999999999886
 20
360.0000000000005
 10
189.99999999999886
 20
350.0000000000005
 10
189.99999999999886
 20
340.0000000000006
 10
189.99999999999886
 20
330.0000000000006
 10
189.99999999999886
 20
320.0000000000006
 10
189.9999999999992
 20
369.7100636944256
 10
189.9999999999958
 20
322.41384429521275
 10
192.5109991583853
 20
320.6960445431045
 10
189.99999999999886
 20
368.7100636944254
 10
169.99999999999886
 20
339.0000000000006
 10
179.99999999999886
 20
339.0000000000006
 10
189.99999999999886
 20
339.0000000000006
 10
189.99999999999886
 20
410.0000000000005
 10
189.99999999999886
 20
400.0000000000005
 10
189.99999999999886
 20
390.0000000000005
 10
189.99999999999886
 20
380.0000000000005
 10
189.99999999999886
 20
370.0000000000005
 10
189.99999999999886
 20
395.0000000000005
 10
196.12361644224177
 20
382.57179502462975
 10
193.06928484474042
 20
382.8928182114329
 10
189.99999999999886
 20
383.0000000000006
 10
189.99999999999886
 20
460.0000000000005
 10
189.99999999999886
 20
450.0000000000005
 10
189.99999999999886
 20
440.0000000000005
 10
189.99999999999886
 20
430.0000000000005
 10
189.99999999999886
 20
420.0000000000005
 10
192.51099915838518
 20
469.3039554568964
 10
189.9999999999958
 20
467.5861557047882
 10
179.99999999999886
 20
490.0000000000005
 10
169.99999999999886
 20
490.0000000000005
 10
159.99999999999886
 20
490.0000000000004
 10
149.99999999999886
 20
490.0000000000004
 10
189.99999999999886
 20
490.0000000000005
 10
189.99999999999886
 20
480.0000000000005
 10
189.99999999999886
 20
470.0000000000005
 10
189.99999999999886
 20
490.0000000000005
 10
188.99999999999886
 20
490.0000000000005
 10
187.99999999999886
 20
490.0000000000005
 10
186.99999999999886
 20
490.0000000000005
 10
185.99999999999886
 20
490.0000000000005
 10
185.99999999999886
 20
490.0000000000005
 10
178.34415467106885
 20
489.71432027609234
 10
171.53522065773984
 20
489.4530552959351
 10
165.57319796001195
 20
489.2162050595288
 10
160.45808657788473
 20
489.0037695668735
 10
155.75189923846972
 20
488.7658032595739
 10
151.01665148387144
 20
488.45236069937175
 10
189.99999999999886
 20
490.0000000000005
 10
190.99999999999886
 20
490.0000000000005
 10
191.99999999999886
 20
490.0000000000005
 10
192.99999999999886
 20
490.0000000000005
 10
193.99999999999886
 20
490.0000000000005
 10
193.99999999999886
 20
490.0000000000005
 10
189.99999999999886
 20
490.0000000000005
 10
197.70173224144253
 20
472.47716916195304
 10
195.07924359863762
 20
470.9349285581119
 10
189.99999999999886
 20
490.0000000000005
 10
189.99999999999886
 20
490.0000000000005
 10
200.54353373585855
 20
5.076430000478922
 10
206.61160061573116
 20
5.297965710721542
 10
212.2042006396174
 20
5.5048619084279835
 10
217.32133380751645
 20
5.697118593598248
 10
222.33924629424996
 20
5.909185280949146
 10
227.6341813469993
 20
6.175511374235384
 10
233.20613896576413
 20
6.496096873457077
 10
239.05511915054456
 20
6.870941778613997
 10
245.6555647343821
 20
7.511928265470829
 10
241.49999999999886
 20
11.04145927937202
 10
209.49875990764622
 20
19.571875042664942
 10
212.3973006973198
 20
18.620266352953422
 10
215.318729480976
 20
17.741430947566755
 10
218.26121946316823
 20
16.935918370113882
 10
221.22293067869464
 20
16.204232314786168
 10
224.2020111431451
 20
15.546830311392682
 10
227.19659801096338
 20
14.964123439263517
 10
230.20481874030088
 20
14.45647607019714
 10
233.2247922639342
 20
14.024205640616401
 10
236.25463016551282
 20
13.667582453072214
 10
239.29243786040263
 20
13.386829507221023
 10
242.33631578038694
 20
13.182122360381186
 10
245.3843605614835
 20
13.053589017755485
 10
200.95851198547518
 20
22.8571650556745
 10
203.7775767983386
 20
21.690986943801363
 10
206.6249195953353
 20
20.595661967309297
 10
241.49999999999886
 20
130.78109445952913
 10
235.24999999999807
 20
135.00000000000063
 10
241.49999999999886
 20
250.52072963968624
 10
245.51210485187414
 20
256.9501315597316
 10
242.45721053549096
 20
256.8244306616012
 10
239.4064255427853
 20
256.6222156069114
 10
236.3616659774425
 20
256.3436134006831
 10
233.32484415876354
 20
255.98879902434413
 10
230.29786742059616
 20
255.55799532582893
 10
227.28263691339725
 20
255.05147287961472
 10
224.2810464101799
 20
254.46954981678186
 10
221.29498111709233
 20
253.81259162520587
 10
218.32631648937843
 20
253.08101092000538
 10
215.37691705346253
 20
252.2752671843918
 10
212.448635235898
 20
251.39586648108167
 10
209.54331019991525
 20
250.44336113445468
 10
206.66276669030026
 20
249.4183493836556
 10
203.80881388732882
 20
248.32147500685898
 10
200.98324427047658
 20
247.15342691693166
 10
198.18783249261776
 20
245.91493872874827
 10
200.3754006213286
 20
316.07112489117947
 10
203.09712446759465
 20
314.7116499681144
 10
205.86372335512362
 20
313.44599466065546
 10
208.6719644208158
 20
312.27563792925446
 10
211.5185661412969
 20
311.20194737479756
 10
214.4002021674877
 20
310.2261776405184
 10
217.313505211554
 20
309.3494689459053
 10
220.25507098169453
 20
308.57284575431675
 10
223.22146216017006
 20
307.897215575862
 10
226.20921241992312
 20
307.32336790694507
 10
229.21483047509741
 20
306.8519733077119
 10
232.23480416072152
 20
306.48358261847835
 10
235.26560453679087
 20
306.21862631605524
 10
238.30369001195197
 20
306.05741401072135
 10
241.34551048197
 20
306.00013408443397
 10
244.3875114781439
 20
306.0468534706979
 10
247.4261383208219
 20
306.19751757635163
 10
244.99999999999886
 20
299.0000000000006
 10
199.14811439598031
 20
295.9615055677132
 10
202.12804365594684
 20
296.7044853787146
 10
205.0488863063283
 20
297.6535246854206
 10
207.89641229533402
 20
298.8039998637262
 10
210.656748762578
 20
300.1503059142078
 10
213.3164476262599
 20
301.6858837691179
 10
215.86255110086768
 20
303.4032522475029
 10
218.28265482620657
 20
305.2940445027656
 10
220.56496830019478
 20
307.34904878509997
 10
222.69837232100417
 20
309.55825332021084
 10
224.67247315869463
 20
311.91089508567165
 10
226.4776531924207
 20
314.39551224728774
 10
228.10511776651413
 20
317.0000000000006
 10
229.54693803716225
 20
319.7116695412812
 10
199.99999999999886
 20
339.0000000000006
 10
209.99999999999886
 20
339.0000000000006
 10
230.79608960093753
 20
322.51730988970047
 10
231.84648671698562
 20
325.4032522475029
 10
232.69301195614275
 20
328.35543659361525
 10
233.33154113253602
 20
331.3594801826557
 10
233.75896339620283
 20
334.4007476162239
 10
233.97319638883903
 20
337.46442214509057
 10
233.97319638883903
 20
340.5355778549106
 10
233.75896339620294
 20
343.59925238377735
 10
233.33154113253602
 20
346.64051981734553
 10
232.69301195614275
 20
349.644563406386
 10
231.84648671698562
 20
352.5967477524983
 10
230.79608960093753
 20
355.4826901103007
 10
229.54693803716225
 20
358.28833045872005
 10
228.10511776651413
 20
361.00000000000057
 10
226.4776531924207
 20
363.6044877527135
 10
224.67247315869463
 20
366.0891049143296
 10
222.69837232100417
 20
368.4417466797904
 10
241.49999999999886
 20
370.2603648198434
 10
244.99999999999886
 20
395.0000000000005
 10
220.56496830019478
 20
370.6509512149013
 10
218.28265482620657
 20
372.70595549723566
 10
215.86255110086768
 20
374.5967477524983
 10
213.3164476262599
 20
376.31411623088337
 10
210.6567487625781
 20
377.84969408579343
 10
207.89641229533413
 20
379.1960001362751
 10
205.0488863063283
 20
380.34647531458063
 10
202.12804365594684
 20
381.29551462128666
 10
199.14811439598031
 20
382.0384944322881
 10
201.65584532892888
 20
489.71432027609234
 10
208.46477934225788
 20
489.4530552959351
 10
214.42680203998623
 20
489.2162050595288
 10
219.5419134221131
 20
489.0037695668735
 10
224.248100761528
 20
488.7658032595739
 10
228.98334851612617
 20
488.45236069937175
 10
233.7476566859076
 20
488.0634418862671
 10
238.5410252708724
 20
487.5990468202598
 10
243.79522389922374
 20
486.8703371761187
 10
241.49999999999886
 20
490.0000000000005
 10
247.4261383208218
 20
483.8024824236494
 10
244.38751147814378
 20
483.9531465293031
 10
241.34551048196977
 20
483.99986591556706
 10
238.30369001195186
 20
483.9425859892796
 10
235.26560453679076
 20
483.7813736839458
 10
232.2348041607214
 20
483.5164173815227
 10
229.2148304750973
 20
483.14802669228914
 10
226.209212419923
 20
482.67663209305596
 10
223.22146216017006
 20
482.10278442413903
 10
220.25507098169442
 20
481.4271542456843
 10
217.31350521155377
 20
480.65053105409567
 10
214.40020216748758
 20
479.77382235948255
 10
211.5185661412969
 20
478.79805262520347
 10
208.6719644208157
 20
477.72436207074657
 10
205.8637233551235
 20
476.5540053393455
 10
203.09712446759443
 20
475.2883500318865
 10
200.37540062132848
 20
473.9288751088215
 10
244.99999999999886
 20
490.0000000000005
 10
272.81237243344947
 20
12.303031717935482
 10
275.81241369426823
 20
13.021486023674697
 10
278.79397326108176
 20
13.813146749993052
 10
281.7552650496999
 20
14.677539657595617
 10
284.69451511721616
 20
15.614146937439386
 10
287.60996272467594
 20
16.622407520923616
 10
290.49986139183613
 20
17.70171741599404
 10
293.3624799433827
 20
18.851430068961008
 10
253.48192214281187
 20
8.630938750976838
 10
262.53419137583467
 20
10.227973235131685
 10
272.8123724334499
 20
12.303031717935482
 10
248.99999999999886
 20
11.866939434981532
 10
248.43466623413417
 20
13.00130985238809
 10
251.4853254150254
 20
13.02531755490702
 10
254.53443049979182
 20
13.125597113081994
 10
257.58007485585813
 20
13.30208582121179
 10
260.6203540146737
 20
13.554673319334825
 10
263.6533668625932
 20
13.883201662238207
 10
266.67721682966067
 20
14.287465418221927
 10
269.69001307555095
 20
14.76721179755782
 10
272.68987167192915
 20
15.322140810560427
 10
275.67491678048793
 20
15.951905455174028
 10
278.643281825926
 20
16.656111933955344
 10
281.59311066313387
 20
17.434319900319224
 10
284.52255873785873
 20
18.286042733890895
 10
287.4297942401196
 20
19.210747844794128
 10
296.19610354598046
 20
20.070856751812926
 10
290.31299924965504
 20
20.207857006684662
 10
293.1703708726851
 20
21.2767467183196
 10
296.000122369276
 20
22.416748593439365
 10
248.99999999999886
 20
130.01427288883696
 10
280.4999999999974
 20
135.00000000000063
 10
248.99999999999886
 20
248.16160634269238
 10
296.2234838337662
 20
247.489744308546
 10
293.3897354402992
 20
248.637807914181
 10
290.5281072270892
 20
249.71449912777126
 10
287.6403964942998
 20
250.71914171287028
 10
284.7284169237181
 20
251.65110468454657
 10
281.7939974396371
 20
252.50980270568556
 10
278.83898106016625
 20
253.29469645462183
 10
275.8652237396867
 20
254.00529296387055
 10
272.874593203186
 20
254.64114592974477
 10
269.86896777319635
 20
255.20185599266506
 10
266.85023519007837
 20
255.6870709879853
 10
263.8202914263908
 20
256.09648616717567
 10
260.7810394960874
 20
256.42984438922645
 10
257.73438825929406
 20
256.68693628215
 10
254.68225122341187
 20
256.86760037448084
 10
251.62654534130274
 20
256.9717231966911
 10
248.56918980731052
 20
256.99923935245675
 10
250.45784027316313
 20
306.4519503453612
 10
253.47907469029224
 20
306.8098544645476
 10
256.48631115899775
 20
307.27081171100707
 10
259.47603562313805
 20
307.8342834408187
 10
262.4447544899332
 20
308.4996112184674
 10
265.38899871234423
 20
309.2660175862484
 10
268.3053278427709
 20
310.1326069727518
 10
271.19033405332937
 20
311.0983667393682
 10
274.04064611801243
 20
312.1621683635905
 10
276.85293335207996
 20
313.3227687577301
 10
279.62390950407473
 20
314.5788117215062
 10
282.35033659591784
 20
315.92882952681146
 10
285.02902870659216
 20
317.3712446328006
 10
287.6568556950002
 20
318.90437152930036
 10
248.99999999999886
 20
366.3089397965478
 10
290.2307468576354
 20
320.52641870638377
 10
292.7476945168038
 20
322.2354907478092
 10
295.204757535195
 20
324.029590545878
 10
297.59906475269884
 20
325.90662163512116
 10
296.03724457285955
 20
465.8324928879508
 10
293.4829423387172
 20
467.8074378179383
 10
290.8587384100671
 20
469.6885069609219
 10
297.5990647526986
 20
464.0933783648799
 10
295.204757535195
 20
465.97040945412306
 10
292.7476945168038
 20
467.7645092521919
 10
290.2307468576354
 20
469.47358129361737
 10
288.16808115060223
 20
471.4732284775504
 10
285.414506247737
 20
473.15925713511785
 10
282.6016320664993
 20
474.74437738934273
 10
279.73315489477784
 20
476.2265062957275
 10
276.8128440861757
 20
477.6036962466744
 10
273.8445371068493
 20
478.8741375307609
 10
270.8321344928456
 20
480.03616071081
 10
267.77959472455893
 20
481.08823881763294
 10
264.6909290250476
 20
482.02898935655907
 10
249.9420250839038
 20
485.68847432733264
 10
256.98142882491277
 20
484.05345827390147
 10
264.9134351222509
 20
481.9652890158254
 10
248.99999999999886
 20
484.4562732504032
 10
287.6568556950002
 20
471.09562847070066
 10
285.02902870659216
 20
472.6287553672005
 10
282.3503365959176
 20
474.0711704731896
 10
279.62390950407473
 20
475.42118827849487
 10
276.85293335207996
 20
476.677231242271
 10
274.0406461180122
 20
477.83783163641056
 10
271.19033405332925
 20
478.9016332606329
 10
268.3053278427708
 20
479.86739302724925
 10
265.3889987123441
 20
480.7339824137527
 10
262.4447544899331
 20
481.5003887815336
 10
259.47603562313793
 20
482.1657165591824
 10
256.48631115899764
 20
482.72918828899395
 10
253.47907469029212
 20
483.1901455354535
 10
250.45784027316313
 20
483.54804965463984
 10
298.9990347355334
 20
21.35926697479431
 10
301.7695944340386
 20
22.715888924001206
 10
304.50612295542794
 20
24.139909923731466
 10
307.2069809997928
 20
25.630476923312813
 10
309.87055063539526
 20
27.18669700811688
 10
312.49523626788016
 20
28.807637934455215
 10
315.07946559610593
 20
30.492328688032558
 10
317.62169055402103
 20
32.239760065627706
 10
320.1203882380238
 20
34.04888527964977
 10
322.57406181924705
 20
35.91862058520985
 10
324.98124144022506
 20
37.84784592933113
 10
327.3404850954008
 20
39.835405621909786
 10
329.6503794949516
 20
41.88010902802364
 10
331.909540911411
 20
43.9807312811746
 10
334.11661600858076
 20
46.13601401703647
 10
336.27028265223964
 20
48.34466612727067
 10
338.36925070215864
 20
50.6053645329564
 10
340.41226278495185
 20
52.916754977172104
 10
342.3980950472975
 20
55.277452836255065
 10
344.32555788907905
 20
57.686043949250916
 10
346.1934966760085
 20
60.1410854650577
 10
348.00079243130233
 20
62.64110670675689
 10
298.80048427060603
 20
23.627149778714625
 10
301.56970548542847
 20
24.907193399500215
 10
304.3060543950454
 20
26.256079033115498
 10
307.0078199361045
 20
27.672963209356226
 10
309.67331267054203
 20
29.15695993792326
 10
312.30086584200274
 20
30.7071412624407
 10
314.88883641807877
 20
32.3225378407152
 10
317.4356061177117
 20
34.00213955087395
 10
319.9395824231177
 20
35.7448961230034
 10
322.3991995756047
 20
37.54971779589209
 10
324.8129195546529
 20
39.41547599846808
 10
327.17923303965483
 20
41.3410040555043
 10
329.4966603537058
 20
43.32509791715165
 10
331.7637523888594
 20
45.36651691184113
 10
333.9790915122677
 20
47.46398452208746
 10
336.1412924526393
 20
49.61618918270699
 10
338.24900316646233
 20
51.821785100950365
 10
340.30090568344906
 20
54.07939309803942
 10
342.2957169306741
 20
56.38760147157939
 10
344.2321895348922
 20
58.74496687830981
 10
346.1091126025309
 20
61.150015236638865
 10
347.92531247687396
 20
63.601242648400785
 10
325.7499999999965
 20
135.00000000000063
 10
347.9014229522105
 20
213.20516606826283
 10
346.5735717560382
 20
216.005835054076
 10
345.23191462377247
 20
218.7999166038366
 10
348.1531194259304
 20
206.08205756804614
 10
346.34071257516337
 20
208.54444693761258
 10
344.4671690338233
 20
210.96064531497404
 10
342.5336655166551
 20
213.329135160669
 10
340.54141639741
 20
215.6484288994887
 10
338.4916729461344
 20
217.91706985477742
 10
343.8764842344432
 20
221.58734266150253
 10
342.5073136025586
 20
224.36804533314086
 10
341.12443607730063
 20
227.14195688858172
 10
339.727885341713
 20
229.90900976306773
 10
338.3176954118809
 20
232.6691365589001
 10
336.89390063610165
 20
235.42227004707985
 10
335.4565356940501
 20
238.16834316894546
 10
334.00563559593104
 20
240.90728903780638
 10
332.54123568162925
 20
243.6390409405721
 10
331.06337161984595
 20
246.36353233937695
 10
329.57207940723276
 20
249.08069687320102
 10
328.0673953675131
 20
251.7904683594864
 10
326.5493561505983
 20
254.49278079574913
 10
325.01799873169387
 20
257.1875683611871
 10
323.4733604104009
 20
259.8747654182829
 10
321.91547880980454
 20
262.55430651440287
 10
320.344391875561
 20
265.22612638339126
 10
318.7601378749706
 20
267.89015994715976
 10
336.38572254328585
 20
220.13363316332607
 10
334.2248878711704
 20
222.2967266702844
 10
332.0105260832055
 20
224.40499180353066
 10
329.7440279515341
 20
226.45710442694872
 10
327.42681699352454
 20
228.4517756720768
 10
325.0603485777018
 20
230.38775274760616
 10
322.6461090096774
 20
232.26381972622028
 10
320.1856145986452
 20
234.07879830828148
 10
317.68041070503557
 20
235.83154856188423
 10
315.1320707699216
 20
237.5209696388112
 10
312.5421953267902
 20
239.14600046594217
 10
309.91241099629553
 20
240.7056204116809
 10
307.2443694646298
 20
242.19884992698246
 10
304.5397464461495
 20
243.62475116057772
 10
301.80024063091207
 20
244.98242854800856
 10
299.0275726177798
 20
246.2710293741044
 10
314.751906720452
 20
274.6741722655902
 10
313.250610135333
 20
277.69654326175237
 10
311.99847652766846
 20
280.57052028208875
 10
310.995505897458
 20
283.2961033265993
 10
310.24169824470175
 20
285.8732923952839
 10
309.66440186433044
 20
288.33300957020015
 10
309.19096505127425
 20
290.7061769334056
 10
308.82138780553316
 20
292.99279448490023
 10
308.5556701271072
 20
295.192862224684
 10
308.4619466684975
 20
297.652924890402
 10
308.60835208220453
 20
300.71952721969944
 10
308.9948863682281
 20
304.3926692125763
 10
309.62154952656886
 20
308.67235086903247
 10
310.664930560455
 20
313.9370327162078
 10
317.16275539604715
 20
270.546342317273
 10
315.55228334657716
 20
273.1946087965284
 10
315.5522833465769
 20
273.1946087965285
 10
315.3521891900456
 20
273.5644996637939
 10
315.15209503351446
 20
273.9343905310593
 10
314.95200087698333
 20
274.30428139832475
 10
314.751906720452
 20
274.6741722655902
 10
299.999999999999
 20
299.0000000000006
 10
312.3016184731147
 20
320.565175281242
 10
314.53161326454904
 20
328.5567785641349
 10
317.35491493475695
 20
337.91184256488674
 10
320.38176517929867
 20
347.790805794461
 10
323.222405693734
 20
357.35410676382116
 10
325.8768364780625
 20
366.6017454729673
 10
299.9278183414523
 20
327.8643906420889
 10
302.188297075195
 20
329.9006098483812
 10
304.37785950911154
 20
332.01289986392277
 10
306.4939470664498
 20
334.19879240736
 10
308.53408702830154
 20
336.45573319032957
 10
310.49589542305796
 20
338.7810849022302
 10
312.3770798121594
 20
341.1721302920079
 10
314.17544196888696
 20
343.626075343354
 10
315.8888804470631
 20
346.1400525396072
 10
317.5153930366622
 20
348.711124214542
 10
319.053079103459
 20
351.3362859851295
 10
320.5001418099845
 20
354.01247026225985
 10
321.8548902151882
 20
356.7365498353218
 10
323.115741250362
 20
359.50534152645304
 10
324.2812215690061
 20
362.3156099101896
 10
325.3499692684853
 20
365.1640710941684
 10
326.3207354814573
 20
368.04739655646506
 10
329.7762033758685
 20
383.67251495070104
 10
330.13754993831947
 20
386.9759897226073
 10
330.3753173717056
 20
390.29065162911274
 10
330.48917417890914
 20
393.61187934402017
 10
330.4789616199256
 20
396.93504238703446
 10
330.3446939331801
 20
400.25550757961105
 10
330.08655831567705
 20
403.56864550456874
 10
329.7049146620071
 20
406.86983696045706
 10
329.2002950625814
 20
410.15447940168133
 10
328.5734030617849
 20
413.41799335540577
 10
327.8251126770916
 20
416.65582880628847
 10
326.9564671805018
 20
419.8634715401462
 10
328.345057532286
 20
375.5337219218994
 10
328.52578032298527
 20
376.43405826145334
 10
328.7010905477749
 20
377.33546415032004
 10
328.870981878394
 20
378.23790704999846
 10
329.0354481821897
 20
379.14135438455384
 10
329.1944835223393
 20
380.0457735417941
 10
329.34808215806413
 20
380.9511318744464
 10
329.49623854483696
 20
381.85739670133637
 10
329.63894733458244
 20
382.76453530856725
 10
329.7762033758696
 20
383.67251495070116
 10
328.34505753228484
 20
375.5337219218994
 10
327.19238583521485
 20
370.9622170350829
 10
327.9639017772398
 20
373.90512646504794
 10
328.63438176541433
 20
376.87268595850946
 10
329.20304232150363
 20
379.86142782319496
 10
329.6692189466761
 20
382.86785961452483
 10
330.0323668979926
 20
385.8884682166496
 10
330.2920618249567
 20
388.9197239476438
 10
330.4480002653821
 20
391.9580846840564
 10
330.49999999999875
 20
395.00000000000057
 10
330.4480002653821
 20
398.0419153159447
 10
330.2920618249567
 20
401.08027605235736
 10
330.0323668979926
 20
404.11153178335155
 10
329.6692189466761
 20
407.1321403854763
 10
329.20304232150363
 20
410.1385721768062
 10
328.63438176541433
 20
413.1273140414917
 10
327.9639017772398
 20
416.0948735349532
 10
327.19238583521485
 20
419.0377829649182
 10
299.999999999999
 20
395.0000000000005
 10
325.96867764400474
 20
423.0364494377061
 10
324.8631212510933
 20
426.1703387096667
 10
324.89940241407623
 20
426.07313432814294
 10
323.66307289279064
 20
429.20861664572
 10
322.3089106745027
 20
432.2950392894295
 10
320.8388578066648
 20
435.32797592160665
 10
319.25502253922457
 20
438.3030769105907
 10
317.5596763011175
 20
441.2160755686709
 10
315.7552504427366
 20
444.06279427108024
 10
313.84433274905575
 20
446.83915044726126
 10
311.82966372840394
 20
449.541162435811
 10
309.7141326822144
 20
452.16495519470965
 10
309.7141326822144
 20
452.1649551947096
 10
307.6462108623308
 20
454.64458555560566
 10
305.48977595100575
 20
457.0476369185705
 10
303.24766163497145
 20
459.37095152784354
 10
300.92281418891264
 20
461.6114764066122
 10
298.5182886038825
 20
463.7662673688088
 10
326.32073548145706
 20
421.9526034435362
 10
325.3499692684853
 20
424.83592890583276
 10
324.2812215690061
 20
427.68439008981153
 10
323.115741250362
 20
430.49465847354804
 10
321.8548902151882
 20
433.2634501646793
 10
320.50014180998426
 20
435.9875297377413
 10
319.053079103459
 20
438.66371401487163
 10
317.515393036662
 20
441.28887578545914
 10
315.8888804470631
 20
443.8599474603938
 10
314.17544196888673
 20
446.3739246566471
 10
312.3770798121592
 20
448.8278697079932
 10
310.49589542305773
 20
451.2189150977709
 10
308.53408702830154
 20
453.5442668096715
 10
306.4939470664498
 20
455.80120759264116
 10
304.37785950911154
 20
457.9871001360783
 10
302.1882970751948
 20
460.0993901516199
 10
299.9278183414523
 20
462.13560935791224
 10
299.999999999999
 20
490.0000000000005
 10
349.74636250599735
 20
65.18461005261304
 10
351.42916122750364
 20
67.7700718332137
 10
349.67965347195843
 20
66.09711633925565
 10
351.37103858272997
 20
68.63607561714821
 10
353.04818052601024
 20
70.39594324421512
 10
354.6024505383606
 20
73.06065127414251
 10
356.0910401890443
 20
75.76259964669293
 10
357.51305774795185
 20
78.50016977697442
 10
358.86765136455926
 20
81.27172174110888
 10
360.1540095782235
 20
84.07559525861814
 10
361.3713618042842
 20
86.91011068700368
 10
362.51897879567593
 20
89.7735700279269
 10
363.59617307977953
 20
92.66425794438305
 10
364.6022993702487
 20
95.58044278826344
 10
365.5367549535637
 20
98.52037763768817
 10
366.39898005008365
 20
101.48230134348864
 10
367.18845814937947
 20
104.46443958421173
 10
367.9047163196443
 20
107.46500592901725
 10
368.54732549100265
 20
110.48220290782666
 10
369.1159007125401
 20
113.51422308808685
 10
369.6101013829067
 20
116.55925015750023
 10
370.02963145435126
 20
119.6154600120758
 10
358.999999999999
 20
82.39408344647177
 10
352.9984101710098
 20
71.21653284822094
 10
354.56075062684465
 20
73.83687444957707
 10
356.0570830048281
 20
76.49546189826765
 10
357.4864716349924
 20
79.19063275587439
 10
358.8480227078925
 20
81.92070170804789
 10
360.14088483351145
 20
84.68396161834858
 10
361.36424957364386
 20
87.4786845957359
 10
362.5173519474182
 20
90.30312307503266
 10
363.5994709096466
 20
93.1555109096937
 10
364.6099298017008
 20
96.03406447619273
 10
365.5480967746331
 20
98.93698378933868
 10
366.413385184277
 20
101.86245362782131
 10
367.20525395808056
 20
104.80864466928676
 10
367.92320793344436
 20
107.77371463422787
 10
368.56679816735107
 20
110.75580943797831
 10
369.13562221709356
 20
113.75306435008889
 10
369.6293243919257
 20
116.76360516035908
 10
370.04759597547866
 20
119.78554935079802
 10
370.99999999999875
 20
135.00000000000045
 10
370.9574136166808
 20
138.22323811245582
 10
370.8296841978746
 20
141.4442259617345
 10
370.6169009162687
 20
144.6607148556526
 10
370.3192123238367
 20
147.8704592429154
 10
369.9368262481281
 20
151.07121828082074
 10
369.47000964717574
 20
154.26075739967547
 10
368.9190884231217
 20
157.43684986283148
 10
368.28444719469496
 20
160.59727832125446
 10
367.56652902869234
 20
163.7398363615382
 10
366.7658351306583
 20
166.8623300462845
 10
370.374239610068
 20
122.6810218488464
 10
370.6437194147451
 20
125.75409926259994
 10
370.8379094382291
 20
128.83285134596588
 10
370.95669335222817
 20
131.91543379219928
 10
370.9999999999985
 20
135.00000000000057
 10
370.9999999999958
 20
135.00000000000063
 10
370.3901754188049
 20
122.81700727277985
 10
370.6568485039262
 20
125.8560833286574
 10
370.84744847778677
 20
128.90087715709655
 10
370.9618561565245
 20
131.9494848213888
 10
370.99999999999875
 20
135.00000000000057
 10
365.8829244949742
 20
169.96257944577246
 10
364.91841351460323
 20
173.0384201598493
 10
363.87297555076395
 20
176.0877048289795
 10
362.7473404628314
 20
179.10830463339653
 10
362.7473404628314
 20
179.10830463339562
 10
361.5875862882448
 20
181.98265774701963
 10
360.4136604780002
 20
184.85125213440062
 10
359.22559162565983
 20
187.71401792457118
 10
358.02340866927136
 20
190.57088538853253
 10
356.8071408906618
 20
193.42178494095253
 10
355.57681791472635
 20
196.2666471418608
 10
354.33246970870425
 20
199.10540269834001
 10
353.07412658145097
 20
201.93798246621367
 10
351.8018191827001
 20
204.76431745173034
 10
350.5155785023145
 20
207.58433881324402
 10
349.21543586953396
 20
210.39797786289097
 10
358.999999999999
 20
184.29556258485394
 10
357.6827201625289
 20
190.42622428123053
 10
356.2596455150316
 20
193.13233561443758
 10
354.7692044019997
 20
195.8019358258261
 10
353.21233292339286
 20
198.43334822208072
 10
351.59000890202935
 20
201.02492009447172
 10
349.90325126944424
 20
203.57502375686994
 10
358.999999999999
 20
286.1970417232361
 10
354.999999999999
 20
299.0000000000006
 10
358.999999999999
 20
388.09852086161834
 10
354.999999999999
 20
395.0000000000005
 10
358.999999999999
 20
490.0000000000005
 10
354.999999999999
 20
490.0000000000005
  0
LWPOLYLINE
  5
30
330
17
100
AcDbEntity
  8
BODY_OUTLINE
 62
1
100
AcDbPolyline
 90
65
 70
1
 10
0.0
 20
490.0000000000002
 10
0.0
 20
110.00000000000011
 10
9.094947017729282e-13
 20
0.0
 10
190.0
 20
5.684341886080801e-13
 10
245.6555647343821
 20
7.511928265470829
 10
253.48192214281187
 20
8.630938750976838
 10
262.53419137583467
 20
10.227973235131685
 10
272.8123724334499
 20
12.303031717935482
 10
275.81241369426823
 20
13.021486023674697
 10
278.79397326108176
 20
13.813146749993052
 10
281.7552650496999
 20
14.677539657595617
 10
284.69451511721616
 20
15.614146937439386
 10
287.60996272467594
 20
16.622407520923616
 10
290.49986139183613
 20
17.70171741599404
 10
293.3624799433827
 20
18.851430068961008
 10
296.19610354598046
 20
20.070856751812926
 10
298.9990347355334
 20
21.35926697479431
 10
301.7695944340386
 20
22.715888924001206
 10
304.50612295542794
 20
24.139909923731466
 10
307.2069809997928
 20
25.630476923312813
 10
309.87055063539526
 20
27.18669700811688
 10
312.49523626788016
 20
28.807637934455215
 10
315.07946559610593
 20
30.492328688032558
 10
317.62169055402103
 20
32.239760065627706
 10
320.1203882380238
 20
34.04888527964977
 10
322.57406181924705
 20
35.91862058520985
 10
324.98124144022506
 20
37.84784592933113
 10
327.3404850954008
 20
39.835405621909786
 10
329.6503794949516
 20
41.88010902802364
 10
331.909540911411
 20
43.9807312811746
 10
334.11661600858076
 20
46.13601401703647
 10
336.27028265223964
 20
48.34466612727067
 10
338.36925070215864
 20
50.6053645329564
 10
340.41226278495185
 20
52.916754977172104
 10
342.3980950472975
 20
55.277452836255065
 10
344.32555788907905
 20
57.686043949250916
 10
346.1934966760085
 20
60.1410854650577
 10
348.00079243130233
 20
62.64110670675689
 10
349.74636250599735
 20
65.18461005261304
 10
351.42916122750364
 20
67.7700718332137
 10
353.04818052601024
 20
70.39594324421512
 10
354.6024505383606
 20
73.06065127414251
 10
356.0910401890443
 20
75.76259964669293
 10
357.51305774795185
 20
78.50016977697442
 10
358.86765136455926
 20
81.27172174110888
 10
360.1540095782235
 20
84.07559525861814
 10
361.3713618042842
 20
86.91011068700368
 10
362.51897879567593
 20
89.7735700279269
 10
363.59617307977953
 20
92.66425794438305
 10
364.6022993702487
 20
95.58044278826344
 10
365.5367549535637
 20
98.52037763768817
 10
366.39898005008365
 20
101.48230134348864
 10
367.18845814937947
 20
104.46443958421173
 10
367.9047163196443
 20
107.46500592901725
 10
368.54732549100265
 20
110.48220290782666
 10
369.1159007125401
 20
113.51422308808685
 10
369.6101013829067
 20
116.55925015750023
 10
370.02963145435126
 20
119.6154600120758
 10
370.3901754188049
 20
122.81700727277985
 10
370.6568485039262
 20
125.8560833286574
 10
370.84744847778677
 20
128.90087715709655
 10
370.9618561565245
 20
131.9494848213888
 10
370.99999999999875
 20
135.00000000000045
 10
370.9574136166808
 20
138.22323811245582
 10
358.999999999999
 20
490.0000000000005
  0
ENDSEC
  0
SECTION
  2
OBJECTS
  0
DICTIONARY
  5
A
330
0
100
AcDbDictionary
281
1
  3
ACAD_COLOR
350
B
  3
ACAD_GROUP
350
C
  3
ACAD_LAYOUT
350
D
  3
ACAD_MATERIAL
350
E
  3
ACAD_MLEADERSTYLE
350
F
  3
ACAD_MLINESTYLE
350
10
  3
ACAD_PLOTSETTINGS
350
11
  3
ACAD_PLOTSTYLENAME
350
12
  3
ACAD_SCALELIST
350
14
  3
ACAD_TABLESTYLE
350
15
  3
ACAD_VISUALSTYLE
350
16
  3
EZDXF_META
350
2D
  0
DICTIONARY
  5
B
330
A
100
AcDbDictionary
281
1
  0
DICTIONARY
  5
C
330
A
100
AcDbDictionary
281
1
  0
DICTIONARY
  5
D
330
A
100
AcDbDictionary
281
1
  3
Model
350
1A
  3
Layout1
350
1E
  0
DICTIONARY
  5
E
330
A
100
AcDbDictionary
281
1
  3
ByBlock
350
1F
  3
ByLayer
350
20
  3
Global
350
21
  0
DICTIONARY
  5
F
330
A
100
AcDbDictionary
281
1
  3
Standard
350
2C
  0
DICTIONARY
  5
10
330
A
100
AcDbDictionary
281
1
  3
Standard
350
22
  0
DICTIONARY
  5
11
330
A
100
AcDbDictionary
281
1
  0
ACDBDICTIONARYWDFLT
  5
12
330
A
100
AcDbDictionary
281
1
  3
Normal
350
13
100
AcDbDictionaryWithDefault
340
13
  0
ACDBPLACEHOLDER
  5
13
330
12
  0
DICTIONARY
  5
14
330
A
100
AcDbDictionary
281
1
  0
DICTIONARY
  5
15
330
A
100
AcDbDictionary
281
1
  0
DICTIONARY
  5
16
330
A
100
AcDbDictionary
281
1
  0
LAYOUT
  5
1A
330
D
100
AcDbPlotSettings
  1

  4
A3
  6

 40
7.5
 41
20.0
 42
7.5
 43
20.0
 44
420.0
 45
297.0
 46
0.0
 47
0.0
 48
0.0
 49
0.0
140
0.0
141
0.0
142
1.0
143
1.0
 70
1024
 72
1
 73
0
 74
5
  7

 75
16
 76
0
 77
2
 78
300
147
1.0
148
0.0
149
0.0
100
AcDbLayout
  1
Model
 70
1
 71
0
 10
0.0
 20
0.0
 11
420.0
 21
297.0
 12
0.0
 22
0.0
 32
0.0
 14
1e+20
 24
1e+20
 34
1e+20
 15
-1e+20
 25
-1e+20
 35
-1e+20
146
0.0
 13
0.0
 23
0.0
 33
0.0
 16
1.0
 26
0.0
 36
0.0
 17
0.0
 27
1.0
 37
0.0
 76
1
330
17
  0
LAYOUT
  5
1E
330
D
100
AcDbPlotSettings
  1

  4
A3
  6

 40
7.5
 41
20.0
 42
7.5
 43
20.0
 44
420.0
 45
297.0
 46
0.0
 47
0.0
 48
0.0
 49
0.0
140
0.0
141
0.0
142
1.0
143
1.0
 70
0
 72
1
 73
0
 74
5
  7

 75
16
 76
0
 77
2
 78
300
147
1.0
148
0.0
149
0.0
100
AcDbLayout
  1
Layout1
 70
1
 71
1
 10
0.0
 20
0.0
 11
420.0
 21
297.0
 12
0.0
 22
0.0
 32
0.0
 14
1e+20
 24
1e+20
 34
1e+20
 15
-1e+20
 25
-1e+20
 35
-1e+20
146
0.0
 13
0.0
 23
0.0
 33
0.0
 16
1.0
 26
0.0
 36
0.0
 17
0.0
 27
1.0
 37
0.0
 76
1
330
1B
  0
MATERIAL
  5
1F
102
{ACAD_REACTORS
330
E
102
}
330
E
100
AcDbMaterial
  1
ByBlock
  2

 70
0
 40
1.0
 71
1
 41
1.0
 91
-1023410177
 42
1.0
 72
1
  3

 73
1
 74
1
 75
1
 44
0.5
 73
0
 45
1.0
 46
1.0
 77
1
  4

 78
1
 79
1
170
1
 48
1.0
171
1
  6

172
1
173
1
174
1
140
1.0
141
1.0
175
1
  7

176
1
177
1
178
1
143
1.0
179
1
  8

270
1
271
1
272
1
145
1.0
146
1.0
273
1
  9

274
1
275
1
276
1
 42
1.0
 72
1
  3

 73
1
 74
1
 75
1
 94
63
  0
MATERIAL
  5
20
102
{ACAD_REACTORS
330
E
102
}
330
E
100
AcDbMaterial
  1
ByLayer
  2

 70
0
 40
1.0
 71
1
 41
1.0
 91
-1023410177
 42
1.0
 72
1
  3

 73
1
 74
1
 75
1
 44
0.5
 73
0
 45
1.0
 46
1.0
 77
1
  4

 78
1
 79
1
170
1
 48
1.0
171
1
  6

172
1
173
1
174
1
140
1.0
141
1.0
175
1
  7

176
1
177
1
178
1
143
1.0
179
1
  8

270
1
271
1
272
1
145
1.0
146
1.0
273
1
  9

274
1
275
1
276
1
 42
1.0
 72
1
  3

 73
1
 74
1
 75
1
 94
63
  0
MATERIAL
  5
21
102
{ACAD_REACTORS
330
E
102
}
330
E
100
AcDbMaterial
  1
Global
  2

 70
0
 40
1.0
 71
1
 41
1.0
 91
-1023410177
 42
1.0
 72
1
  3

 73
1
 74
1
 75
1
 44
0.5
 73
0
 45
1.0
 46
1.0
 77
1
  4

 78
1
 79
1
170
1
 48
1.0
171
1
  6

172
1
173
1
174
1
140
1.0
141
1.0
175
1
  7

176
1
177
1
178
1
143
1.0
179
1
  8

270
1
271
1
272
1
145
1.0
146
1.0
273
1
  9

274
1
275
1
276
1
 42
1.0
 72
1
  3

 73
1
 74
1
 75
1
 94
63
  0
MLINESTYLE
  5
22
102
{ACAD_REACTORS
330
10
102
}
330
10
100
AcDbMlineStyle
  2
Standard
 70
0
  3

 62
256
 51
90.0
 52
90.0
 71
2
 49
0.5
 62
256
  6
BYLAYER
 49
-0.5
 62
256
  6
BYLAYER
  0
MLEADERSTYLE
  5
2C
102
{ACAD_REACTORS
330
F
102
}
330
F
100
AcDbMLeaderStyle
179
2
170
2
171
1
172
0
 90
2
 40
0.0
 41
0.0
173
1
 91
-1056964608
 92
-2
290
1
 42
2.0
291
1
 43
8.0
  3
Standard
 44
4.0
300

342
29
174
1
175
1
176
0
178
1
 93
-1056964608
 45
4.0
292
0
297
0
 46
4.0
 94
-1056964608
 47
1.0
 49
1.0
140
1.0
294
1
141
0.0
177
0
142
1.0
295
0
296
0
143
3.75
271
0
272
9
273
9
  0
DICTIONARY
  5
2D
330
A
100
AcDbDictionary
280
1
281
1
  3
CREATED_BY_EZDXF
350
2E
  3
WRITTEN_BY_EZDXF
350
33
  0
DICTIONARYVAR
  5
2E
330
2D
100
DictionaryVariables
280
0
  1
1.4.3 @ 2025-12-11T16:10:01.884339+00:00
  0
DICTIONARYVAR
  5
33
330
2D
100
DictionaryVariables
280
0
  1
1.4.3 @ 2025-12-11T16:10:01.892162+00:00
  0
ENDSEC
  0
EOF
