  0
SECTION
  2
HEADER
  9
$ACADVER
  1
AC1015
  9
$ACADMAINTVER
 70
6
  9
$DWGCODEPAGE
  3
ANSI_1252
  9
$INSBASE
 10
0.0
 20
0.0
 30
0.0
  9
$EXTMIN
 10
1e+20
 20
1e+20
 30
1e+20
  9
$EXTMAX
 10
-1e+20
 20
-1e+20
 30
-1e+20
  9
$LIMMIN
 10
0.0
 20
0.0
  9
$LIMMAX
 10
420.0
 20
297.0
  9
$ORTHOMODE
 70
0
  9
$REGENMODE
 70
1
  9
$FILLMODE
 70
1
  9
$QTEXTMODE
 70
0
  9
$MIRRTEXT
 70
1
  9
$LTSCALE
 40
1.0
  9
$ATTMODE
 70
1
  9
$TEXTSIZE
 40
2.5
  9
$TRACEWID
 40
1.0
  9
$TEXTSTYLE
  7
Standard
  9
$CLAYER
  8
0
  9
$CELTYPE
  6
ByLayer
  9
$CECOLOR
 62
256
  9
$CELTSCALE
 40
1.0
  9
$DISPSILH
 70
0
  9
$DIMSCALE
 40
1.0
  9
$DIMASZ
 40
2.5
  9
$DIMEXO
 40
0.625
  9
$DIMDLI
 40
3.75
  9
$DIMRND
 40
0.0
  9
$DIMDLE
 40
0.0
  9
$DIMEXE
 40
1.25
  9
$DIMTP
 40
0.0
  9
$DIMTM
 40
0.0
  9
$DIMTXT
 40
2.5
  9
$DIMCEN
 40
2.5
  9
$DIMTSZ
 40
0.0
  9
$DIMTOL
 70
0
  9
$DIMLIM
 70
0
  9
$DIMTIH
 70
0
  9
$DIMTOH
 70
0
  9
$DIMSE1
 70
0
  9
$DIMSE2
 70
0
  9
$DIMTAD
 70
1
  9
$DIMZIN
 70
8
  9
$DIMBLK
  1

  9
$DIMASO
 70
1
  9
$DIMSHO
 70
1
  9
$DIMPOST
  1

  9
$DIMAPOST
  1

  9
$DIMALT
 70
0
  9
$DIMALTD
 70
3
  9
$DIMALTF
 40
0.03937007874
  9
$DIMLFAC
 40
1.0
  9
$DIMTOFL
 70
1
  9
$DIMTVP
 40
0.0
  9
$DIMTIX
 70
0
  9
$DIMSOXD
 70
0
  9
$DIMSAH
 70
0
  9
$DIMBLK1
  1

  9
$DIMBLK2
  1

  9
$DIMSTYLE
  2
ISO-25
  9
$DIMCLRD
 70
0
  9
$DIMCLRE
 70
0
  9
$DIMCLRT
 70
0
  9
$DIMTFAC
 40
1.0
  9
$DIMGAP
 40
0.625
  9
$DIMJUST
 70
0
  9
$DIMSD1
 70
0
  9
$DIMSD2
 70
0
  9
$DIMTOLJ
 70
0
  9
$DIMTZIN
 70
8
  9
$DIMALTZ
 70
0
  9
$DIMALTTZ
 70
0
  9
$DIMUPT
 70
0
  9
$DIMDEC
 70
2
  9
$DIMTDEC
 70
2
  9
$DIMALTU
 70
2
  9
$DIMALTTD
 70
3
  9
$DIMTXSTY
  7
Standard
  9
$DIMAUNIT
 70
0
  9
$DIMADEC
 70
0
  9
$DIMALTRND
 40
0.0
  9
$DIMAZIN
 70
0
  9
$DIMDSEP
 70
44
  9
$DIMATFIT
 70
3
  9
$DIMFRAC
 70
0
  9
$DIMLDRBLK
  1

  9
$DIMLUNIT
 70
2
  9
$DIMLWD
 70
-2
  9
$DIMLWE
 70
-2
  9
$DIMTMOVE
 70
0
  9
$LUNITS
 70
2
  9
$LUPREC
 70
4
  9
$SKETCHINC
 40
1.0
  9
$FILLETRAD
 40
10.0
  9
$AUNITS
 70
0
  9
$AUPREC
 70
2
  9
$MENU
  1
.
  9
$ELEVATION
 40
0.0
  9
$PELEVATION
 40
0.0
  9
$THICKNESS
 40
0.0
  9
$LIMCHECK
 70
0
  9
$CHAMFERA
 40
0.0
  9
$CHAMFERB
 40
0.0
  9
$CHAMFERC
 40
0.0
  9
$CHAMFERD
 40
0.0
  9
$SKPOLY
 70
0
  9
$TDCREATE
 40
2461021.673622685
  9
$TDUCREATE
 40
2458532.153996898
  9
$TDUPDATE
 40
2461021.673622685
  9
$TDUUPDATE
 40
2458532.1544311
  9
$TDINDWG
 40
0.0
  9
$TDUSRTIMER
 40
0.0
  9
$USRTIMER
 70
1
  9
$ANGBASE
 50
0.0
  9
$ANGDIR
 70
0
  9
$PDMODE
 70
0
  9
$PDSIZE
 40
0.0
  9
$PLINEWID
 40
0.0
  9
$SPLFRAME
 70
0
  9
$SPLINETYPE
 70
6
  9
$SPLINESEGS
 70
8
  9
$HANDSEED
  5
34
  9
$SURFTAB1
 70
6
  9
$SURFTAB2
 70
6
  9
$SURFTYPE
 70
6
  9
$SURFU
 70
6
  9
$SURFV
 70
6
  9
$UCSBASE
  2

  9
$UCSNAME
  2

  9
$UCSORG
 10
0.0
 20
0.0
 30
0.0
  9
$UCSXDIR
 10
1.0
 20
0.0
 30
0.0
  9
$UCSYDIR
 10
0.0
 20
1.0
 30
0.0
  9
$UCSORTHOREF
  2

  9
$UCSORTHOVIEW
 70
0
  9
$UCSORGTOP
 10
0.0
 20
0.0
 30
0.0
  9
$UCSORGBOTTOM
 10
0.0
 20
0.0
 30
0.0
  9
$UCSORGLEFT
 10
0.0
 20
0.0
 30
0.0
  9
$UCSORGRIGHT
 10
0.0
 20
0.0
 30
0.0
  9
$UCSORGFRONT
 10
0.0
 20
0.0
 30
0.0
  9
$UCSORGBACK
 10
0.0
 20
0.0
 30
0.0
  9
$PUCSBASE
  2

  9
$PUCSNAME
  2

  9
$PUCSORG
 10
0.0
 20
0.0
 30
0.0
  9
$PUCSXDIR
 10
1.0
 20
0.0
 30
0.0
  9
$PUCSYDIR
 10
0.0
 20
1.0
 30
0.0
  9
$PUCSORTHOREF
  2

  9
$PUCSORTHOVIEW
 70
0
  9
$PUCSORGTOP
 10
0.0
 20
0.0
 30
0.0
  9
$PUCSORGBOTTOM
 10
0.0
 20
0.0
 30
0.0
  9
$PUCSORGLEFT
 10
0.0
 20
0.0
 30
0.0
  9
$PUCSORGRIGHT
 10
0.0
 20
0.0
 30
0.0
  9
$PUCSORGFRONT
 10
0.0
 20
0.0
 30
0.0
  9
$PUCSORGBACK
 10
0.0
 20
0.0
 30
0.0
  9
$USERI1
 70
0
  9
$USERI2
 70
0
  9
$USERI3
 70
0
  9
$USERI4
 70
0
  9
$USERI5
 70
0
  9
$USERR1
 40
0.0
  9
$USERR2
 40
0.0
  9
$USERR3
 40
0.0
  9
$USERR4
 40
0.0
  9
$USERR5
 40
0.0
  9
$WORLDVIEW
 70
1
  9
$SHADEDGE
 70
3
  9
$SHADEDIF
 70
70
  9
$TILEMODE
 70
1
  9
$MAXACTVP
 70
64
  9
$PINSBASE
 10
0.0
 20
0.0
 30
0.0
  9
$PLIMCHECK
 70
0
  9
$PEXTMIN
 10
1e+20
 20
1e+20
 30
1e+20
  9
$PEXTMAX
 10
-1e+20
 20
-1e+20
 30
-1e+20
  9
$PLIMMIN
 10
0.0
 20
0.0
  9
$PLIMMAX
 10
420.0
 20
297.0
  9
$UNITMODE
 70
0
  9
$VISRETAIN
 70
1
  9
$PLINEGEN
 70
0
  9
$PSLTSCALE
 70
1
  9
$TREEDEPTH
 70
3020
  9
$CMLSTYLE
  2
Standard
  9
$CMLJUST
 70
0
  9
$CMLSCALE
 40
20.0
  9
$PROXYGRAPHICS
 70
1
  9
$MEASUREMENT
 70
1
  9
$CELWEIGHT
370
-1
  9
$ENDCAPS
280
0
  9
$JOINSTYLE
280
0
  9
$LWDISPLAY
290
0
  9
$INSUNITS
 70
6
  9
$HYPERLINKBASE
  1

  9
$STYLESHEET
  1

  9
$XEDIT
290
1
  9
$CEPSNTYPE
380
0
  9
$PSTYLEMODE
290
1
  9
$FINGERPRINTGUID
  2
{F7550700-3C5F-4FD7-B798-04CBD9CD9C87}
  9
$VERSIONGUID
  2
{980221C8-929D-4D00-942A-5D7435F8DDEA}
  9
$EXTNAMES
290
1
  9
$PSVPSCALE
 40
0.0
  9
$OLESTARTUP
290
0
  0
ENDSEC
  0
SECTION
  2
CLASSES
  0
CLASS
  1
ACDBDICTIONARYWDFLT
  2
AcDbDictionaryWithDefault
  3
ObjectDBX Classes
 90
0
280
0
281
0
  0
CLASS
  1
SUN
  2
AcDbSun
  3
SCENEOE
 90
1153
280
0
281
0
  0
CLASS
  1
VISUALSTYLE
  2
AcDbVisualStyle
  3
ObjectDBX Classes
 90
4095
280
0
281
0
  0
CLASS
  1
MATERIAL
  2
AcDbMaterial
  3
ObjectDBX Classes
 90
1153
280
0
281
0
  0
CLASS
  1
SCALE
  2
AcDbScale
  3
ObjectDBX Classes
 90
1153
280
0
281
0
  0
CLASS
  1
TABLESTYLE
  2
AcDbTableStyle
  3
ObjectDBX Classes
 90
4095
280
0
281
0
  0
CLASS
  1
MLEADERSTYLE
  2
AcDbMLeaderStyle
  3
ACDB_MLEADERSTYLE_CLASS
 90
4095
280
0
281
0
  0
CLASS
  1
DICTIONARYVAR
  2
AcDbDictionaryVar
  3
ObjectDBX Classes
 90
0
280
0
281
0
  0
CLASS
  1
CELLSTYLEMAP
  2
AcDbCellStyleMap
  3
ObjectDBX Classes
 90
1152
280
0
281
0
  0
CLASS
  1
MENTALRAYRENDERSETTINGS
  2
AcDbMentalRayRenderSettings
  3
SCENEOE
 90
1024
280
0
281
0
  0
CLASS
  1
ACDBDETAILVIEWSTYLE
  2
AcDbDetailViewStyle
  3
ObjectDBX Classes
 90
1025
280
0
281
0
  0
CLASS
  1
ACDBSECTIONVIEWSTYLE
  2
AcDbSectionViewStyle
  3
ObjectDBX Classes
 90
1025
280
0
281
0
  0
CLASS
  1
RASTERVARIABLES
  2
AcDbRasterVariables
  3
ISM
 90
0
280
0
281
0
  0
CLASS
  1
ACDBPLACEHOLDER
  2
AcDbPlaceHolder
  3
ObjectDBX Classes
 90
0
280
0
281
0
  0
CLASS
  1
LAYOUT
  2
AcDbLayout
  3
ObjectDBX Classes
 90
0
280
0
281
0
  0
ENDSEC
  0
SECTION
  2
TABLES
  0
TABLE
  2
VPORT
  5
8
330
0
100
AcDbSymbolTable
 70
1
  0
VPORT
  5
23
330
8
100
AcDbSymbolTableRecord
100
AcDbViewportTableRecord
  2
*Active
 70
0
 10
0.0
 20
0.0
 11
1.0
 21
1.0
 12
0.0
 22
0.0
 13
0.0
 23
0.0
 14
0.5
 24
0.5
 15
0.5
 25
0.5
 16
0.0
 26
0.0
 36
1.0
 17
0.0
 27
0.0
 37
0.0
 40
1000.0
 41
1.34
 42
50.0
 43
0.0
 44
0.0
 50
0.0
 51
0.0
 71
0
 72
1000
 73
1
 74
3
 75
0
 76
0
 77
0
 78
0
281
0
 65
0
146
0.0
  0
ENDTAB
  0
TABLE
  2
LTYPE
  5
2
330
0
100
AcDbSymbolTable
 70
3
  0
LTYPE
  5
24
330
2
100
AcDbSymbolTableRecord
100
AcDbLinetypeTableRecord
  2
ByBlock
 70
0
  3

 72
65
 73
0
 40
0.0
  0
LTYPE
  5
25
330
2
100
AcDbSymbolTableRecord
100
AcDbLinetypeTableRecord
  2
ByLayer
 70
0
  3

 72
65
 73
0
 40
0.0
  0
LTYPE
  5
26
330
2
100
AcDbSymbolTableRecord
100
AcDbLinetypeTableRecord
  2
Continuous
 70
0
  3

 72
65
 73
0
 40
0.0
  0
ENDTAB
  0
TABLE
  2
LAYER
  5
1
330
0
100
AcDbSymbolTable
 70
2
  0
LAYER
  5
27
330
1
100
AcDbSymbolTableRecord
100
AcDbLayerTableRecord
  2
0
 70
0
 62
7
  6
Continuous
370
-3
390
13
  0
LAYER
  5
28
330
1
100
AcDbSymbolTableRecord
100
AcDbLayerTableRecord
  2
Defpoints
 70
0
 62
7
  6
Continuous
290
0
370
-3
390
13
  0
ENDTAB
  0
TABLE
  2
STYLE
  5
5
330
0
100
AcDbSymbolTable
 70
1
  0
STYLE
  5
29
330
5
100
AcDbSymbolTableRecord
100
AcDbTextStyleTableRecord
  2
Standard
 70
0
 40
0.0
 41
1.0
 50
0.0
 71
0
 42
2.5
  3
txt
  4

  0
ENDTAB
  0
TABLE
  2
VIEW
  5
7
330
0
100
AcDbSymbolTable
 70
0
  0
ENDTAB
  0
TABLE
  2
UCS
  5
6
330
0
100
AcDbSymbolTable
 70
0
  0
ENDTAB
  0
TABLE
  2
APPID
  5
3
330
0
100
AcDbSymbolTable
 70
3
  0
APPID
  5
2A
330
3
100
AcDbSymbolTableRecord
100
AcDbRegAppTableRecord
  2
ACAD
 70
0
  0
APPID
  5
31
330
3
100
AcDbSymbolTableRecord
100
AcDbRegAppTableRecord
  2
HATCHBACKGROUNDCOLOR
 70
0
  0
APPID
  5
32
330
3
100
AcDbSymbolTableRecord
100
AcDbRegAppTableRecord
  2
EZDXF
 70
0
  0
ENDTAB
  0
TABLE
  2
DIMSTYLE
  5
4
330
0
100
AcDbSymbolTable
 70
1
100
AcDbDimStyleTable
  0
DIMSTYLE
105
2B
330
4
100
AcDbSymbolTableRecord
100
AcDbDimStyleTableRecord
  2
Standard
 70
0
  3

  4

 40
1.0
 41
2.5
 42
0.625
 43
3.75
 44
1.25
 45
0.0
 46
0.0
 47
0.0
 48
0.0
140
2.5
141
2.5
142
0.0
143
0.03937007874
144
1.0
145
0.0
146
1.0
147
0.625
148
0.0
 71
0
 72
0
 73
0
 74
0
 75
0
 76
0
 77
1
 78
8
 79
3
170
0
171
3
172
1
173
0
174
0
175
0
176
0
177
0
178
0
179
2
271
2
272
2
273
2
274
3
275
0
276
0
277
2
278
44
279
0
280
0
281
0
282
0
283
0
284
8
285
0
286
0
288
0
289
3
371
-2
372
-2
  0
ENDTAB
  0
TABLE
  2
BLOCK_RECORD
  5
9
330
0
100
AcDbSymbolTable
 70
2
  0
BLOCK_RECORD
  5
17
330
9
100
AcDbSymbolTableRecord
100
AcDbBlockTableRecord
  2
*Model_Space
340
1A
  0
BLOCK_RECORD
  5
1B
330
9
100
AcDbSymbolTableRecord
100
AcDbBlockTableRecord
  2
*Paper_Space
340
1E
  0
ENDTAB
  0
ENDSEC
  0
SECTION
  2
BLOCKS
  0
BLOCK
  5
18
330
17
100
AcDbEntity
  8
0
100
AcDbBlockBegin
  2
*Model_Space
 70
0
 10
0.0
 20
0.0
 30
0.0
  3
*Model_Space
  1

  0
ENDBLK
  5
19
330
17
100
AcDbEntity
  8
0
100
AcDbBlockEnd
  0
BLOCK
  5
1C
330
1B
100
AcDbEntity
  8
0
100
AcDbBlockBegin
  2
*Paper_Space
 70
0
 10
0.0
 20
0.0
 30
0.0
  3
*Paper_Space
  1

  0
ENDBLK
  5
1D
330
1B
100
AcDbEntity
  8
0
100
AcDbBlockEnd
  0
ENDSEC
  0
SECTION
  2
ENTITIES
  0
LWPOLYLINE
  5
2F
330
17
100
AcDbEntity
  8
BODY_POINTS
 62
7
100
AcDbPolyline
 90
2990
 70
0
 10
35.44744382098543
 20
53.73691435286304
 10
41.53031391767695
 20
60.030480091396385
 10
43.870085665346096
 20
148.40105001004258
 10
3.7273921867188164
 20
105.21715267542601
 10
2.0589176448870603
 20
115.69945946667417
 10
40.997508545929804
 20
135.71764558172788
 10
38.35811146348897
 20
100.9825432678739
 10
10.911689009153633
 20
111.0957520854891
 10
28.17881535412039
 20
161.25203485682664
 10
12.487545042894453
 20
174.10301970361058
 10
47.67175762218244
 20
153.04295590445759
 10
31.980487310956732
 20
165.89394075124164
 10
16.289216999730797
 20
178.7449255980256
 10
0.5979466885050897
 20
191.59591044480953
 10
35.69381701488555
 20
245.2776367461811
 10
34.88039375568064
 20
245.94322582328618
 10
37.595500959093215
 20
233.38470380869944
 10
36.973071796257045
 20
244.23087787903512
 10
41.98917457671632
 20
288.8208284835804
 10
34.774379499776614
 20
270.37717800040605
 10
27.559584422837133
 20
251.9335275172316
 10
43.55948450643268
 20
265.3851547676768
 10
42.93278054571442
 20
288.48803394502784
 10
35.65289411387812
 20
269.8779861925773
 10
28.373007682042044
 20
251.2679384401266
 10
42.681011026690385
 20
265.88445172994693
 10
10.062005361958654
 20
255.9141725896726
 10
5.9700913843823855
 20
269.59927604854124
 10
32.22030448125224
 20
334.4467268439132
 10
32.22030448125224
 20
334.4467268439132
 10
32.48172638299911
 20
325.70789166200166
 10
4.881882672109668
 20
396.77831948273297
 10
3.2545884480730365
 20
395.9221854636862
 10
1.627294224036632
 20
395.06605144463947
 10
0.0
 20
394.20991742559283
 10
11.454048421929656
 20
399.56419267387776
 10
9.77010498852178
 20
398.84831113287123
 10
8.086161555113904
 20
398.1324295918646
 10
6.402218121706028
 20
397.41654805085807
 10
4.718274688298152
 20
396.70066650985154
 10
11.301368071759043
 20
399.50588148922316
 10
5.541499357980001
 20
399.44118708282656
 10
3.857555924572125
 20
398.72530554182003
 10
3.857555924572125
 20
398.72530554182003
 10
2.230261700535493
 20
397.8691715227733
 10
0.6029674764990887
 20
397.01303750372654
 10
18.23632773511531
 20
401.863219556609
 10
16.502587819276187
 20
401.2738850397625
 10
14.76884790343729
 20
400.6845505229161
 10
13.035107987598167
 20
400.0952160060697
 10
32.324622147225
 20
405.2039359742132
 10
30.513217992731825
 20
404.8274928409717
 10
28.701813838238422
 20
404.45104970773025
 10
26.89040968374502
 20
404.0746065744888
 10
25.079005529251845
 20
403.6981634412473
 10
25.201526690334504
 20
403.7273073405331
 10
23.425756715929765
 20
403.2508143939665
 10
21.6499867415248
 20
402.7743214474
 10
19.874216767119833
 20
402.2978285008335
 10
18.098446792715094
 20
401.82133555426685
 10
39.58328219742816
 20
406.34321122235815
 10
37.742182892861365
 20
406.0535692970243
 10
35.90108358829457
 20
405.76392737169044
 10
34.059984283727545
 20
405.4742854463566
 10
32.21888497916075
 20
405.18464352102274
 10
46.94449583835353
 20
407.1992820746648
 10
45.0823815045037
 20
406.9822790548958
 10
43.22026717065387
 20
406.7652760351267
 10
41.35815283680404
 20
406.5482730153576
 10
39.49603850295421
 20
406.3312699955886
 10
48.75045250006906
 20
407.3488143162108
 10
46.87280531848842
 20
407.19211529351446
 10
48.567487572399614
 20
409.5411928955723
 10
46.68984039081897
 20
409.38449387287585
 10
46.68984039081897
 20
409.38449387287585
 10
44.82772605696914
 20
409.16749085310676
 10
42.96561172311931
 20
408.9504878333378
 10
41.103497389269705
 20
408.7334848135688
 10
39.241383055419874
 20
408.5164817937997
 10
39.241383055419874
 20
408.5164817937997
 10
37.40028375085285
 20
408.22683986846585
 10
35.559184446286054
 20
407.9371979431319
 10
33.71808514171926
 20
407.647556017798
 10
31.876985837152233
 20
407.35791409246417
 10
31.876985837152233
 20
407.35791409246417
 10
30.06558168265883
 20
406.98147095922275
 10
28.254177528165656
 20
406.6050278259813
 10
26.44277337367248
 20
406.2285846927398
 10
24.631369219179078
 20
405.85214155949836
 10
24.631369219179078
 20
405.85214155949836
 10
22.855599244774112
 20
405.37564861293174
 10
21.079829270369373
 20
404.89915566636523
 10
19.304059295964635
 20
404.4226627197986
 10
17.52828932155967
 20
403.946169773232
 10
17.52828932155967
 20
403.946169773232
 10
15.794549405720545
 20
403.35683525638547
 10
14.060809489881649
 20
402.76750073953906
 10
12.327069574042525
 20
402.17816622269265
 10
10.593329658203402
 20
401.58883170584613
 10
10.593329658203402
 20
401.58883170584613
 10
8.909386224795526
 20
400.8729501648396
 10
7.22544279138765
 20
400.1570686238331
 10
38.25524002684347
 20
463.68782520892
 10
19.284471319104114
 20
464.93731561473214
 10
19.28448001644483
 20
464.74330821306035
 10
19.28448871378555
 20
464.54930081138855
 10
19.284497411126267
 20
464.35529340971686
 10
19.284506108466985
 20
464.16128600804507
 10
17.28447132111387
 20
464.93722595484655
 10
17.284479458028954
 20
464.75571969805105
 10
17.28448759494404
 20
464.57421344125555
 10
17.28449573185935
 20
464.39270718445994
 10
17.284503868774436
 20
464.21120092766444
 10
47.125452245832776
 20
464.15193204179366
 10
47.12546035180344
 20
463.9805607020086
 10
47.12546845777433
 20
463.8091893622235
 10
47.125476563744996
 20
463.6378180224384
 10
47.12548466971566
 20
463.4664466826533
 10
19.284471319104114
 20
464.93731561473226
 10
26.244889590551566
 20
464.75414671285205
 10
33.20530786199902
 20
464.57097781097195
 10
40.16572613344647
 20
464.38780890909175
 10
47.12614440489392
 20
464.20464000721154
 10
4.202812167612137
 20
465.3342013818768
 10
10.743987824011583
 20
465.1620651803926
 10
17.28516348041103
 20
464.98992897890844
 10
18.421603086161895
 20
458.95794547073115
 10
66.5146687504141
 20
82.08186646337174
 10
72.59438450086918
 20
88.36747188871794
 10
84.48354316225982
 20
135.71764558172788
 10
69.98819829014974
 20
135.71764558172788
 10
55.492853418039886
 20
135.71764558172788
 10
83.82369389164978
 20
100.9825432678739
 10
68.66849974892943
 20
100.9825432678739
 10
53.51330560620909
 20
100.9825432678739
 10
69.47496376850859
 20
159.01554729448367
 10
72.45313377329057
 20
171.78932222346998
 10
92.66249215336234
 20
188.32576624675312
 10
90.73134871242178
 20
220.48861892123603
 10
82.48380939047343
 20
220.48861892123603
 10
74.23627006852507
 20
220.48861892123603
 10
65.98873074657672
 20
220.48861892123603
 10
93.73231444804378
 20
210.66637697379474
 10
88.48574086171766
 20
210.66637697379474
 10
83.23916727539131
 20
210.66637697379474
 10
77.99259368906496
 20
210.66637697379474
 10
91.03687628460739
 20
219.48861892123603
 10
83.09486453484487
 20
219.48861892123603
 10
75.15285278508213
 20
219.48861892123603
 10
67.21084103531939
 20
219.48861892123603
 10
93.42678687585817
 20
211.66637697379474
 10
87.87468571734621
 20
211.66637697379474
 10
82.32258455883425
 20
211.66637697379474
 10
76.77048340032229
 20
211.66637697379474
 10
65.12899655622778
 20
210.85523502772628
 10
67.97605220813193
 20
218.862479709529
 10
51.42515199797981
 20
285.4926727891726
 10
50.4816282976999
 20
285.8256776366077
 10
90.26998579045971
 20
334.4467268439132
 10
81.56108354654907
 20
334.4467268439132
 10
72.85218130263866
 20
334.4467268439132
 10
64.14327905872824
 20
334.4467268439132
 10
56.418764730595285
 20
325.7081294499292
 10
49.203969653655804
 20
307.2644789667547
 10
63.97903262000659
 20
344.1524724333733
 10
63.97903262000659
 20
334.4467268439132
 10
65.5995962578113
 20
334.4467268439132
 10
65.5995962578113
 20
334.4467268439132
 10
96.47903262000659
 20
334.4467268439132
 10
96.47903262000659
 20
332.2620774954172
 10
96.47903262000659
 20
330.0774281469212
 10
96.47903262000659
 20
327.89277879842507
 10
96.47903262000659
 20
325.70812944992906
 10
98.97881595652461
 20
325.70754104236164
 10
67.15648698107384
 20
325.70770883216414
 10
59.29081948952671
 20
305.60019081066844
 10
73.97903262000659
 20
344.1524724333733
 10
73.97903262000659
 20
334.4467268439132
 10
57.4925534093868
 20
325.7081294499292
 10
50.212666977550725
 20
307.0980816974785
 10
66.08286283971938
 20
325.70812944992906
 10
58.28224556870964
 20
305.7669035432683
 10
93.97903262000659
 20
344.1524724333733
 10
93.97903262000659
 20
334.4467268439132
 10
63.97903262000659
 20
373.26970920175336
 10
63.97903262000659
 20
363.56396361229326
 10
63.97903262000659
 20
353.8582180228333
 10
79.97903262000659
 20
373.26970920175336
 10
75.97903262000659
 20
377.26970920175336
 10
71.97903262000659
 20
381.26970920175336
 10
67.97903262000659
 20
385.26970920175336
 10
63.97903262000659
 20
389.26970920175336
 10
63.97903262000659
 20
398.80551067499437
 10
63.97903262000659
 20
394.03760993837386
 10
63.97903262000659
 20
389.26970920175336
 10
63.97903262000659
 20
373.26970920175336
 10
81.47903262000659
 20
373.26970920175336
 10
73.97903262000659
 20
373.26970920175336
 10
73.97903262000659
 20
363.56396361229326
 10
73.97903262000659
 20
353.8582180228333
 10
93.97903262000659
 20
373.26970920175336
 10
93.97903262000659
 20
363.56396361229326
 10
93.97903262000659
 20
353.8582180228333
 10
95.97903262000659
 20
380.4561606242539
 10
96.72903262000659
 20
380.4561606242539
 10
97.47903262000659
 20
380.4561606242539
 10
98.22903262000659
 20
380.4561606242539
 10
95.97903262000659
 20
392.22793491300365
 10
95.97903262000659
 20
382.74882205737845
 10
95.97903262000659
 20
373.26970920175336
 10
59.40088601839534
 20
442.4769112643319
 10
84.29029626254987
 20
411.1881316035036
 10
84.27197511452505
 20
411.18763885869123
 10
84.25365396650022
 20
411.1871461138787
 10
84.23533281847517
 20
411.18665336906633
 10
84.21701167045035
 20
411.18616062425394
 10
69.38099647299327
 20
408.5623610322923
 10
67.49421232215923
 20
408.48515364210084
 10
65.60742817132495
 20
408.40794625190927
 10
63.72064402049091
 20
408.3307388617177
 10
61.83385986965686
 20
408.25353147152623
 10
76.88247115101353
 20
408.78811498841833
 10
75.00116918173148
 20
408.7314657790471
 10
73.11986721244966
 20
408.6748165696757
 10
71.23856524316761
 20
408.61816736030437
 10
69.35726327388556
 20
408.5615181509331
 10
84.27615898684735
 20
408.9869558600351
 10
82.42596992254494
 20
408.93719527395365
 10
80.57578085824275
 20
408.8874346878722
 10
78.72559179394057
 20
408.83767410179075
 10
76.87540272963815
 20
408.7879135157093
 10
84.21701167045035
 20
408.986160624254
 10
91.59794985241115
 20
408.986160624254
 10
54.383394044810984
 20
407.8189113843
 10
52.50574686323034
 20
407.6622123616037
 10
50.6280996816497
 20
407.50551333890724
 10
61.872132523816845
 20
408.25543160029156
 10
59.98626206990821
 20
408.14533112078766
 10
58.10039161599934
 20
408.03523064128376
 10
56.21452116209048
 20
407.92513016177986
 10
54.32865070818184
 20
407.81502968227596
 10
63.97903262000659
 20
408.3413121482354
 10
63.97903262000659
 20
403.57341141161487
 10
84.21701167045035
 20
411.18616062425394
 10
87.90751690783941
 20
411.18616062425394
 10
91.59802214522847
 20
411.18616062425394
 10
95.28852738261753
 20
411.18616062425394
 10
84.21701167045035
 20
411.18616062425394
 10
82.36682260614793
 20
411.1364000381725
 10
80.51663354184575
 20
411.08663945209105
 10
78.66644447754334
 20
411.0368788660096
 10
76.81625541324092
 20
410.98711827992815
 10
76.81625541324115
 20
410.98711827992815
 10
74.9349534439591
 20
410.9304690705569
 10
73.05365147467705
 20
410.87381986118555
 10
71.172349505395
 20
410.8171706518142
 10
69.29104753611296
 20
410.76052144244295
 10
69.29104753611296
 20
410.76052144244295
 10
67.40426338527891
 20
410.6833140522515
 10
65.51747923444464
 20
410.6061066620599
 10
63.63069508361059
 20
410.52889927186834
 10
61.743910932776544
 20
410.4516918816769
 10
61.743910932776544
 20
410.4516918816769
 10
59.858040478867906
 20
410.341591402173
 10
57.97217002495927
 20
410.2314909226692
 10
56.086299571050404
 20
410.1213904431654
 10
54.200429117141766
 20
410.0112899636615
 10
54.200429117141766
 20
410.0112899636615
 10
52.322781935561125
 20
409.85459094096507
 10
50.445134753980255
 20
409.6978919182686
 10
95.97903262000659
 20
411.18616062425394
 10
95.97903262000659
 20
401.70704776862885
 10
49.12545224359542
 20
464.15202664303513
 10
49.12546094093659
 20
463.9681529222639
 10
49.125469638277536
 20
463.78427920149284
 10
49.12547833561871
 20
463.60040548072163
 10
49.12548703295988
 20
463.41653175995043
 10
80.73939162026613
 20
463.32008086996484
 10
80.73940031760708
 20
463.14694290799684
 10
80.73940901494802
 20
462.97380494602885
 10
80.73941771228897
 20
462.80066698406074
 10
80.73942640962991
 20
462.62752902209274
 10
78.73939162278953
 20
463.31998040279007
 10
78.73939969201729
 20
463.1593462892067
 10
78.73940776124505
 20
462.99871217562327
 10
78.73941583047281
 20
462.8380780620399
 10
78.73942389970057
 20
462.6774439484566
 10
80.73939162026613
 20
463.32008086996484
 10
88.61352621332935
 20
463.11286680172634
 10
96.4876608063928
 20
462.90565273348784
 10
49.125452243599966
 20
464.152026643035
 10
56.529110128091816
 20
463.95719354081155
 10
63.932768012583665
 20
463.7623604385881
 10
71.33642589707551
 20
463.5675273363646
 10
78.74008378156736
 20
463.37269423414114
 10
100.84978830741284
 20
29.817439704757817
 10
105.82097509962614
 20
36.51757925692107
 10
129.30194531410916
 20
58.94658025131747
 10
134.27707999258473
 20
65.63919169194673
 10
98.97903262000659
 20
52.15005140241192
 10
98.9788880343699
 20
135.71764558172788
 10
98.9788880343699
 20
135.71764558172788
 10
113.47423290647998
 20
135.71764558172788
 10
127.96957777859006
 20
135.71764558172788
 10
142.46492265070015
 20
135.71764558172788
 10
98.9788880343699
 20
100.9825432678739
 10
98.9788880343699
 20
100.9825432678739
 10
113.84062537354271
 20
100.9825432678739
 10
128.7023627127155
 20
100.9825432678739
 10
143.56410005188832
 20
100.9825432678739
 10
142.84355317391464
 20
147.26477405743196
 10
98.97903262000659
 20
183.15721433713543
 10
98.97903262000659
 20
193.49408154002276
 10
105.29528391537792
 20
188.325766246753
 10
147.98200634113118
 20
153.3970672422879
 10
98.97903262000659
 20
172.00666666784502
 10
142.45211503621226
 20
218.72959433256472
 10
98.9788880343699
 20
220.48861892123603
 10
107.22642735631825
 20
220.48861892123603
 10
115.4739666782666
 20
220.48861892123603
 10
123.72150600021496
 20
220.48861892123603
 10
131.9690453221633
 20
220.48861892123603
 10
98.9788880343699
 20
210.66637697379474
 10
104.22546162069625
 20
210.66637697379474
 10
109.4720352070226
 20
210.66637697379474
 10
114.71860879334895
 20
210.66637697379474
 10
119.9651823796753
 20
210.66637697379474
 10
98.97888803437013
 20
220.48861892123603
 10
98.97888803437013
 20
210.66637697379474
 10
147.72189943476155
 20
233.37849822075873
 10
98.97888803437013
 20
219.48861892123603
 10
98.97888803437013
 20
211.66637697379474
 10
98.9788880343699
 20
211.66637697379474
 10
104.53098919288186
 20
211.66637697379474
 10
110.08309035139382
 20
211.66637697379474
 10
115.63519150990601
 20
211.66637697379474
 10
121.18729266841797
 20
211.66637697379474
 10
98.9788880343699
 20
219.48861892123603
 10
106.92089978413264
 20
219.48861892123603
 10
114.86291153389539
 20
219.48861892123603
 10
122.8049232836579
 20
219.48861892123603
 10
130.74693503342064
 20
219.48861892123603
 10
146.53268970713134
 20
285.4925049986439
 10
147.47614777104013
 20
285.8256776366077
 10
98.97903262000659
 20
291.86328193327813
 10
98.9788880343699
 20
334.4467268439132
 10
107.68779027828032
 20
334.4467268439132
 10
116.39669252219073
 20
334.4467268439132
 10
125.10559476610138
 20
334.4467268439132
 10
133.8144970100118
 20
334.4467268439132
 10
98.97888803437013
 20
334.4467268439132
 10
141.53901133814475
 20
325.70812944992906
 10
148.75380641508445
 20
307.2644789667547
 10
133.9790326200066
 20
344.1524724333733
 10
133.9790326200066
 20
334.4467268439132
 10
98.97917720564328
 20
334.4467268439132
 10
132.35839668938388
 20
334.4467268439132
 10
98.97888803437013
 20
334.4467268439132
 10
98.97888803437013
 20
334.4467268439132
 10
101.47903262000659
 20
334.4467268439132
 10
101.47903262000659
 20
332.2620774954172
 10
101.47903262000659
 20
330.0774281469212
 10
101.47903262000659
 20
327.89277879842507
 10
101.47903262000659
 20
325.70812944992906
 10
130.80142036040775
 20
325.7073732511067
 10
138.66705503376943
 20
305.5999391248753
 10
123.97903262000659
 20
344.1524724333733
 10
123.97903262000659
 20
334.4467268439132
 10
131.87491322902088
 20
325.70812944992906
 10
139.67553050003062
 20
305.7669035432683
 10
140.46522265935323
 20
325.70812944992895
 10
147.74510909118953
 20
307.0980816974784
 10
103.97903262000659
 20
344.1524724333733
 10
103.97903262000659
 20
334.4467268439132
 10
133.9790326200066
 20
373.26970920175336
 10
133.9790326200066
 20
363.56396361229326
 10
133.9790326200066
 20
353.8582180228333
 10
133.9790326200066
 20
389.26970920175336
 10
129.9790326200066
 20
385.26970920175336
 10
125.97903262000659
 20
381.26970920175336
 10
121.97903262000659
 20
377.26970920175336
 10
117.97903262000659
 20
373.26970920175336
 10
133.9790326200066
 20
398.80550475853613
 10
133.9790326200066
 20
394.0376069801448
 10
133.9790326200066
 20
389.26970920175336
 10
98.97903262000659
 20
373.26970920175336
 10
116.47903262000659
 20
373.26970920175336
 10
133.9790326200066
 20
373.26970920175336
 10
123.97903262000659
 20
373.26970920175336
 10
123.97903262000659
 20
363.56396361229326
 10
123.97903262000659
 20
353.8582180228333
 10
103.97903262000659
 20
373.26970920175336
 10
103.97903262000659
 20
363.56396361229326
 10
103.97903262000659
 20
353.8582180228333
 10
98.97903262000659
 20
380.4561606242539
 10
101.97903262000659
 20
380.4561606242539
 10
101.22903262000659
 20
380.4561606242539
 10
100.47903262000659
 20
380.4561606242539
 10
99.72903262000659
 20
380.4561606242539
 10
98.97903262000659
 20
380.4561606242539
 10
101.97903262000659
 20
392.22793491300365
 10
101.97903262000659
 20
382.74882205737845
 10
101.97903262000659
 20
373.26970920175336
 10
126.09480388095017
 20
441.82439951257675
 10
148.95167529779133
 20
440.2887253088935
 10
145.69937338978093
 20
440.6683596567533
 10
142.44129222012475
 20
440.994698485052
 10
139.1783050840802
 20
441.26765432201216
 10
135.91128659189826
 20
441.4871540046197
 10
132.64111243439402
 20
441.6531386982351
 10
129.36865914822624
 20
441.76556391236295
 10
126.09480388095017
 20
441.82439951257686
 10
98.97888803437218
 20
408.986160624254
 10
106.3598262163332
 20
408.986160624254
 10
113.740764398294
 20
408.986160624254
 10
113.60833248979316
 20
408.9889268392849
 10
115.4768427021204
 20
408.93867350839105
 10
117.34535291444763
 20
408.8884201774971
 10
119.21386312677464
 20
408.83816684660314
 10
121.08237333910188
 20
408.7879135157093
 10
121.0753049177265
 20
408.78811498841833
 10
122.95660688700855
 20
408.7314657790471
 10
124.8379088562906
 20
408.6748165696757
 10
126.71921082557265
 20
408.61816736030437
 10
128.6005127948547
 20
408.5615181509331
 10
128.57677959574676
 20
408.5623610322923
 10
130.4635637465808
 20
408.48515364210084
 10
132.35034789741485
 20
408.40794625190927
 10
134.23713204824912
 20
408.3307388617177
 10
136.12391619908317
 20
408.25353147152623
 10
136.0856435449232
 20
408.25543160029156
 10
137.97151399883205
 20
408.14533112078766
 10
139.8573844527407
 20
408.03523064128376
 10
141.74325490664933
 20
407.92513016177986
 10
143.6291253605582
 20
407.81502968227596
 10
143.57438202392905
 20
407.8189113843
 10
145.4520292055097
 20
407.6622123616037
 10
147.32967638709033
 20
407.50551333890724
 10
133.9790326200066
 20
408.3413003153189
 10
133.9790326200066
 20
403.57340253692746
 10
98.97903262000659
 20
411.18616062425394
 10
113.74105356956306
 20
411.18616062425394
 10
110.050548332174
 20
411.18616062425394
 10
106.36004309478494
 20
411.18616062425394
 10
102.66953785739565
 20
411.18616062425394
 10
98.97903262000659
 20
411.18616062425394
 10
113.74105356956306
 20
411.18616062425394
 10
115.59124263386548
 20
411.1364000381725
 10
117.44143169816766
 20
411.08663945209105
 10
119.29162076246985
 20
411.0368788660096
 10
121.14180982677226
 20
410.98711827992815
 10
121.14180982677203
 20
410.98711827992815
 10
123.02311179605408
 20
410.9304690705569
 10
124.90441376533613
 20
410.87381986118555
 10
126.78571573461818
 20
410.8171706518142
 10
128.66701770390023
 20
410.76052144244295
 10
128.66701770390023
 20
410.76052144244295
 10
130.55380185473427
 20
410.6833140522515
 10
132.44058600556855
 20
410.6061066620599
 10
134.3273701564026
 20
410.52889927186834
 10
136.21415430723664
 20
410.4516918816769
 10
136.21415430723664
 20
410.4516918816769
 10
138.1000247611455
 20
410.341591402173
 10
139.98589521505414
 20
410.2314909226692
 10
141.87176566896278
 20
410.1213904431654
 10
143.75763612287165
 20
410.0112899636615
 10
143.75763612287165
 20
410.0112899636615
 10
145.6352833044523
 20
409.85459094096507
 10
147.51293048603293
 20
409.6978919182686
 10
101.97903262000659
 20
411.18616062425394
 10
101.97903262000659
 20
401.70704776862885
 10
98.97903262000659
 20
411.71989719871124
 10
148.5788880343698
 20
455.5327537615681
 10
148.63150139854633
 20
457.5320616002738
 10
148.68411476272286
 20
459.5313694389795
 10
148.73672812689915
 20
461.5306772776852
 10
148.78934149107567
 20
463.5299851163909
 10
148.78934149107567
 20
463.5299851163909
 10
148.91429823099475
 20
463.5266967811299
 10
148.72094411764624
 20
460.9308849260734
 10
114.23523783125074
 20
462.43861123283375
 10
114.2352465285876
 20
462.2768481052876
 10
114.23525522592445
 20
462.1150849777414
 10
114.23526392326153
 20
461.95332185019515
 10
114.23527262059838
 20
461.79155872264903
 10
112.23523783414134
 20
462.4385037010736
 10
112.23524585910286
 20
462.28924618916085
 10
112.23525388406438
 20
462.13998867724797
 10
112.2352619090259
 20
461.9907311653351
 10
112.23526993398741
 20
461.8414736534223
 10
114.23523783125074
 20
462.43861123283375
 10
122.86061040516279
 20
462.2116277440466
 10
131.48598297907506
 20
461.98464425525947
 10
140.11135555298733
 20
461.7576607664723
 10
148.73672812689938
 20
461.5306772776852
 10
104.36179539945624
 20
462.69843866524934
 10
112.23592999251946
 20
462.49122459701084
 10
117.03364993913192
 20
510.2197963680833
 10
166.25213279384025
 20
5.897965056652538
 10
192.08922187780445
 20
35.8112940392632
 10
170.11163628157556
 20
13.004678422445807
 10
195.95977548430005
 20
42.91091149517558
 10
154.08769040339394
 20
148.40105001004258
 10
195.89885842385297
 20
115.69945946667417
 10
156.96026752281023
 20
135.71764558172788
 10
158.42583739106112
 20
100.9825432678739
 10
158.42583739106112
 20
100.9825432678739
 10
165.53394262176994
 20
103.52627550802987
 10
172.64204785247875
 20
106.07000774818584
 10
179.75015308318757
 20
108.61373998834182
 10
186.85825831389639
 20
111.1574722284978
 10
186.70807372782292
 20
111.3723337777285
 10
190.66872876688467
 20
118.46836823782292
 10
169.77896071461964
 20
161.25203485682664
 10
185.47023102584535
 20
174.10301970361058
 10
150.28601844655782
 20
153.04295590445759
 10
165.97728875778353
 20
165.89394075124164
 10
181.66855906900923
 20
178.7449255980256
 10
197.35982938023494
 20
191.59591044480953
 10
162.2639590538547
 20
245.2776367461811
 10
163.0773823130594
 20
245.94322582328618
 10
155.96860149202394
 20
288.8208284835804
 10
163.18339656896342
 20
270.37717800040605
 10
170.39819164590313
 20
251.9335275172317
 10
154.39832438049302
 20
265.3850708724125
 10
155.27676504204965
 20
265.88445172994693
 10
155.0249955230256
 20
288.48803394502784
 10
162.3048819548619
 20
269.8779861925773
 10
169.58476838669822
 20
251.26793844012673
 10
165.73761617312448
 20
334.4467268439132
 10
165.47590553004989
 20
325.7071904227216
 10
186.656407996981
 20
399.50588148922316
 10
186.5037276468106
 20
399.56419267387776
 10
188.18767108021848
 20
398.84831113287123
 10
189.87161451362635
 20
398.1324295918646
 10
191.555557947034
 20
397.41654805085807
 10
193.23950138044188
 20
396.70066650985154
 10
193.07589339663036
 20
396.77831948273297
 10
194.703187620667
 20
395.9221854636862
 10
196.33048184470363
 20
395.06605144463947
 10
197.95777606874003
 20
394.20991742559283
 10
192.41656588203318
 20
399.44118708282656
 10
194.10050931544106
 20
398.72530554182003
 10
194.10050931544106
 20
398.72530554182003
 10
195.7278035394777
 20
397.8691715227733
 10
197.3550977635141
 20
397.01303750372654
 10
193.27338015265786
 20
443.50208687598297
 10
193.54776301805373
 20
446.549739282329
 10
182.44554871308674
 20
433.1521080338367
 10
182.55448743849297
 20
437.29177959927506
 10
182.6634261638992
 20
441.4314511647134
 10
182.77236488930566
 20
445.5711227301517
 10
182.8813036147119
 20
449.71079429559006
 10
180.9661174139237
 20
433.5905444022843
 10
180.9661174139237
 20
433.5905444022842
 10
177.8191833387939
 20
434.4951967475031
 10
174.65786061623862
 20
435.3482082261943
 10
171.48299660640532
 20
436.1493501973756
 10
168.29544229904468
 20
436.89840792315454
 10
165.09605208541143
 20
437.59518062628695
 10
161.88568352925358
 20
438.2394815439925
 10
158.66519713695152
 20
438.83113797801525
 10
155.43545612686785
 20
439.36999134091366
 10
152.1973261979706
 20
439.8558971985676
 10
149.20732356867097
 20
407.3488143162108
 10
151.0849707502516
 20
407.19211529351446
 10
151.01328023038673
 20
407.1992820746648
 10
152.87539456423656
 20
406.9822790548958
 10
154.73750889808616
 20
406.7652760351267
 10
156.599623231936
 20
406.5482730153576
 10
158.46173756578582
 20
406.3312699955886
 10
158.37449387131187
 20
406.34321122235815
 10
160.2155931758789
 20
406.0535692970243
 10
162.0566924804457
 20
405.76392737169044
 10
163.8977917850125
 20
405.4742854463566
 10
165.7388910895795
 20
405.18464352102274
 10
165.63315392151503
 20
405.2039359742132
 10
167.44455807600843
 20
404.8274928409717
 10
169.2559622305016
 20
404.45104970773025
 10
171.06736638499478
 20
404.0746065744888
 10
172.8787705394882
 20
403.6981634412473
 10
172.75624937840553
 20
403.7273073405331
 10
174.5320193528105
 20
403.2508143939665
 10
176.30778932721523
 20
402.7743214474
 10
178.0835593016202
 20
402.2978285008335
 10
179.85932927602516
 20
401.82133555426685
 10
179.72144833362472
 20
401.863219556609
 10
181.45518824946384
 20
401.2738850397625
 10
183.18892816530297
 20
400.6845505229161
 10
184.92266808114186
 20
400.0952160060697
 10
149.39057766761357
 20
409.5411928955723
 10
151.2682248491942
 20
409.38449387287585
 10
151.2682248491942
 20
409.38449387287585
 10
153.13033918304404
 20
409.16749085310687
 10
154.99245351689387
 20
408.9504878333378
 10
156.85456785074348
 20
408.7334848135688
 10
158.7166821845933
 20
408.5164817937998
 10
158.7166821845933
 20
408.5164817937998
 10
160.55778148916033
 20
408.22683986846596
 10
162.39888079372713
 20
407.937197943132
 10
164.23998009829393
 20
407.647556017798
 10
166.08107940286095
 20
407.35791409246417
 10
166.08107940286095
 20
407.35791409246417
 10
167.89248355735435
 20
406.98147095922275
 10
169.70388771184753
 20
406.6050278259813
 10
171.5152918663407
 20
406.2285846927398
 10
173.3266960208341
 20
405.85214155949836
 10
173.3266960208341
 20
405.85214155949836
 10
175.10246599523907
 20
405.37564861293174
 10
176.8782359696438
 20
404.89915566636523
 10
178.65400594404855
 20
404.4226627197986
 10
180.42977591845352
 20
403.946169773232
 10
180.42977591845352
 20
403.946169773232
 10
182.16351583429264
 20
403.35683525638547
 10
183.89725575013154
 20
402.76750073953906
 10
185.63099566597066
 20
402.17816622269265
 10
187.36473558180978
 20
401.58883170584613
 10
187.36473558180978
 20
401.58883170584613
 10
189.04867901521766
 20
400.8729501648396
 10
190.73262244862553
 20
400.1570686238331
 10
196.55194167775176
 20
428.97161265914735
 10
197.68850078364335
 20
432.8067441300118
 10
198.8250598895347
 20
436.6418756008761
 10
149.03925497091404
 20
463.5234084458689
 10
149.16421171083311
 20
463.52012011060776
 10
149.2891684507522
 20
463.51683177534676
 10
153.07733067145773
 20
455.414373692171
 10
153.103637353546
 20
456.4140276115238
 10
153.12994403563425
 20
457.4136815308767
 10
153.1562507177223
 20
458.4133354502296
 10
153.18255739981055
 20
459.4129893695824
 10
153.18255739981055
 20
459.4129893695824
 10
153.1400818724503
 20
460.10894032560213
 10
152.97740102853436
 20
460.7869424248852
 10
152.69945784318452
 20
461.42639491673026
 10
152.31469747944175
 20
462.00786836075144
 10
151.83481068625997
 20
462.5136949805917
 10
151.27437858101553
 20
462.9285054903679
 10
150.65042960963433
 20
463.23969608264474
 10
149.98192214587812
 20
463.4378113887459
 10
149.2891684507522
 20
463.51683177534676
 10
153.15903471551246
 20
458.5191273662498
 10
153.15903471551246
 20
458.5191273662498
 10
153.15903471551246
 20
458.5191273662498
 10
153.15903471551246
 20
458.5191273662498
 10
153.15903471551246
 20
458.5191273662498
 10
153.07733067145773
 20
455.414373692171
 10
153.15903471551246
 20
458.5191273662498
 10
153.07733067145773
 20
455.414373692171
 10
230.5725942817312
 20
75.47989349802504
 10
233.35545119263793
 20
83.53966923335781
 10
199.71302320526593
 20
111.06781321288611
 10
211.9605476785532
 20
121.15366043563142
 10
224.20807215184072
 20
131.23950765837662
 10
236.45559662512824
 20
141.32535488112194
 10
208.14638289714048
 20
125.78530668941949
 10
220.39390737042777
 20
135.8711539121647
 10
232.64143184371505
 20
145.9570011349099
 10
231.99540872106286
 20
195.60765102051016
 10
233.32666514128823
 20
193.8295968037919
 10
234.65792156151338
 20
192.05154258707375
 10
235.98917798173852
 20
190.2734883703555
 10
237.3204344019639
 20
188.49543415363723
 10
237.2999889258524
 20
188.5231922589967
 10
238.60017965061616
 20
186.72869149762232
 10
239.90037037537968
 20
184.93419073624796
 10
241.2005611001432
 20
183.13968997487348
 10
242.50075182490696
 20
181.3451892134991
 10
242.44953288160787
 20
181.41900768428548
 10
243.67023197386652
 20
179.58064947049456
 10
244.8909310661254
 20
177.74229125670377
 10
246.1116301583843
 20
175.90393304291285
 10
247.33232925064294
 20
174.06557482912194
 10
247.26920390037822
 20
174.16645960073777
 10
248.6488862576466
 20
171.82282698723202
 10
248.70312109841552
 20
151.41120210386725
 10
201.1615013370713
 20
186.95400455039453
 10
222.75935460024084
 20
198.02252587938574
 10
223.78890457745547
 20
198.73252465733924
 10
224.8184545546701
 20
199.44252343529274
 10
223.71263797927486
 20
196.7298709712436
 10
224.7421879564895
 20
197.43986974919721
 10
225.77173793370412
 20
198.14986852715072
 10
226.80128791091897
 20
198.85986730510422
 10
227.8308378881336
 20
199.56986608305783
 10
227.73052451197645
 20
191.29293567023035
 10
228.73657303492496
 20
192.03485784094107
 10
229.74262155787346
 20
192.77678001165168
 10
230.74867008082197
 20
193.5187021823624
 10
231.75471860377047
 20
194.26062435307313
 10
228.6034352757108
 20
190.12705760144047
 10
229.6094837986593
 20
190.8689797721512
 10
230.6155323216076
 20
191.6109019428618
 10
231.6215808445561
 20
192.35282411357252
 10
232.6276293675046
 20
193.09474628428325
 10
232.34724743814536
 20
185.13261252254733
 10
233.34716011809087
 20
185.88126245814897
 10
234.3470727980366
 20
186.6299123937505
 10
235.34698547798212
 20
187.378562329352
 10
236.34689815792763
 20
188.12721226495364
 10
233.12890650867962
 20
184.05378018626539
 10
234.129646072897
 20
184.80304922278367
 10
235.13038563711416
 20
185.55231825930196
 10
236.13112520133154
 20
186.30158729582035
 10
237.13186476554893
 20
187.05085633233864
 10
236.98114249067612
 20
178.7369906791389
 10
237.99337592986376
 20
179.47039606812268
 10
239.0056093690514
 20
180.20380145710635
 10
240.01784280823904
 20
180.93720684609002
 10
241.03007624742668
 20
181.6706122350738
 10
237.75602560698962
 20
177.64080727226315
 10
238.769103893477
 20
178.37482478838922
 10
239.78218217996437
 20
179.1088423045153
 10
240.79526046645174
 20
179.84285982064125
 10
241.8083387529391
 20
180.57687733676732
 10
241.63111408688178
 20
171.80497042979084
 10
242.67244919839845
 20
172.49643350582778
 10
243.71378430991535
 20
173.18789658186472
 10
244.75511942143203
 20
173.87935965790166
 10
245.7964545329487
 20
174.5708227339386
 10
246.17379347226438
 20
164.20020582177085
 10
247.25099526006784
 20
164.83434800484417
 10
248.3281970478713
 20
165.4684901879175
 10
246.9039046500145
 20
162.9599838542681
 10
247.98110643781797
 20
163.59412603734154
 10
221.84337089361065
 20
199.32851987074753
 10
222.75935460024084
 20
198.02252587938574
 10
223.71263797927486
 20
196.7298709712436
 10
224.71710961245026
 20
195.37063714599026
 10
225.72158124562566
 20
194.01140332073692
 10
226.72605287880106
 20
192.6521694954837
 10
227.73052451197645
 20
191.29293567023035
 10
233.12890650867962
 20
184.05378018626539
 10
234.0919655041787
 20
182.72458280948376
 10
235.05502449967798
 20
181.39538543270214
 10
236.01808349517705
 20
180.06618805592052
 10
236.98114249067612
 20
178.7369906791389
 10
246.9039046500145
 20
162.9599838542681
 10
247.77670168681038
 20
161.31739309171508
 10
248.64949872360648
 20
159.67480232916216
 10
246.4074424701355
 20
173.65914585427913
 10
246.45330626381292
 20
173.58123815177396
 10
246.49917005749057
 20
173.5033304492688
 10
246.545033851168
 20
173.42542274676373
 10
246.59089764484543
 20
173.34751504425856
 10
245.7964545329487
 20
174.5708227339386
 10
245.97215619006874
 20
174.3062181425271
 10
246.14785784718902
 20
174.04161355111546
 10
246.3235595043093
 20
173.77700895970383
 10
246.49926116142933
 20
173.51240436829232
 10
241.61646479239448
 20
180.86583722345586
 10
241.66443328253058
 20
180.7935972517837
 10
241.7124017726669
 20
180.72135728011153
 10
241.760370262803
 20
180.6491173084395
 10
241.8083387529391
 20
180.57687733676732
 10
241.03007624742668
 20
181.6706122350738
 10
241.19529845395937
 20
181.44257540188346
 10
241.36052066049183
 20
181.214538568693
 10
241.5257428670243
 20
180.98650173550254
 10
241.69096507355698
 20
180.7584649023122
 10
236.49020217450243
 20
187.93646794780966
 10
236.65061782226394
 20
187.71506504394188
 10
236.81103347002568
 20
187.4936621400741
 10
236.97144911778742
 20
187.27225923620642
 10
237.13186476554893
 20
187.05085633233864
 10
236.34689815792763
 20
188.12721226495364
 10
236.39015888065728
 20
188.0694323291733
 10
236.43341960338694
 20
188.01165239339298
 10
236.47668032611682
 20
187.95387245761276
 10
236.51994104884648
 20
187.89609252183243
 10
231.75471860377047
 20
194.26062435307313
 10
231.9729462947039
 20
193.96915483587566
 10
232.19117398563753
 20
193.6776853186782
 10
232.40940167657118
 20
193.38621580148072
 10
232.6276293675046
 20
193.09474628428325
 10
227.8308378881336
 20
199.56986608305783
 10
242.41945407216554
 20
170.57761016697214
 10
243.46541241104728
 20
171.27214313950992
 10
244.51137074992903
 20
171.9666761120477
 10
245.557329088811
 20
172.6612090845856
 10
246.60328742769275
 20
173.3557420571234
 10
242.41945407216554
 20
170.57761016697214
 10
243.3580389221902
 20
168.98325908067181
 10
244.29662377221484
 20
167.3889079943715
 10
245.23520862223972
 20
165.79455690807117
 10
246.17379347226438
 20
164.20020582177085
 10
237.75602560698962
 20
177.64080727226315
 10
238.7247977269626
 20
176.18184806164504
 10
239.6935698469356
 20
174.72288885102694
 10
240.6623419669088
 20
173.26392964040895
 10
241.63111408688178
 20
171.80497042979084
 10
232.34724743814536
 20
185.13261252254733
 10
231.41129439753672
 20
186.3812237922706
 10
230.47534135692808
 20
187.62983506199384
 10
229.53938831631945
 20
188.8784463317172
 10
228.6034352757108
 20
190.12705760144047
 10
229.34227102388604
 20
199.2052156794125
 10
230.66408312973226
 20
197.4128347947327
 10
231.98589523557848
 20
195.6204539100529
 10
244.88895631700257
 20
156.0428483576552
 10
232.4401459997748
 20
198.71156640260187
 10
233.75678326919456
 20
196.9262026104809
 10
233.75678326919456
 20
196.9262026104809
 10
235.08803968941993
 20
195.14814839376277
 10
236.41929610964507
 20
193.3700941770445
 10
237.75055252987045
 20
191.59203996032625
 10
239.08180895009582
 20
189.8139857436081
 10
239.08180895009582
 20
189.8139857436081
 10
240.38199967485934
 20
188.01948498223373
 10
241.6821903996231
 20
186.22498422085926
 10
242.98238112438685
 20
184.43048345948478
 10
244.28257184915037
 20
182.6359826981104
 10
244.28257184915037
 20
182.6359826981104
 10
245.50327094140903
 20
180.7976244843196
 10
246.72397003366768
 20
178.9592662705287
 10
247.94466912592657
 20
177.1209080567378
 10
245.87046848047476
 20
156.85112449130486
 10
246.57855183494098
 20
155.4912971451147
 10
247.2866351894072
 20
154.13146979892463
 10
247.99471854387343
 20
152.77164245273457
 10
248.70280189833966
 20
151.4118151065444
 10
207.754949111222
 20
248.73451885803092
 10
207.70926426495475
 20
247.6865084846621
 10
207.7096843574236
 20
247.48569095853406
 10
207.75993768831745
 20
246.43402579746385
 10
207.8101910192113
 20
245.38236063639363
 10
207.86044435010535
 20
244.3306954753234
 10
207.9106976809992
 20
243.2790303142532
 10
207.93168009612305
 20
243.0634067272614
 10
208.08700857343138
 20
242.00900047541518
 10
208.24233705073993
 20
240.95459422356885
 10
208.39766552804826
 20
239.90018797172263
 10
208.5529940053566
 20
238.8457817198764
 10
208.59814852200566
 20
238.62113811009954
 10
208.8686028119073
 20
237.5639907674772
 10
209.13905710180893
 20
236.50684342485488
 10
209.40951139171057
 20
235.44969608223255
 10
209.6799656816122
 20
234.39254873961022
 10
216.852771648297
 20
199.8049893971786
 10
205.92288495558887
 20
227.3401104604435
 10
207.09165254996333
 20
227.78337371218004
 10
208.260420144338
 20
228.22663696391646
 10
209.4291877387127
 20
228.6699002156529
 10
210.59795533308716
 20
229.11316346738943
 10
206.3712346041059
 20
226.15793138721097
 10
207.54000219848035
 20
226.6011946389474
 10
208.70876979285504
 20
227.04445789068393
 10
209.8775373872295
 20
227.48772114242047
 10
211.04630498160395
 20
227.9309843941569
 10
208.35650152547737
 20
221.52917933987123
 10
209.4725495151422
 20
222.09215081762568
 10
210.58859750480724
 20
222.65512229538
 10
211.70464549447206
 20
223.21809377313434
 10
212.82069348413688
 20
223.7810652508888
 10
208.9186602932475
 20
220.4147424857257
 10
210.03470828291233
 20
220.97771396348014
 10
211.15075627257738
 20
221.54068544123447
 10
212.2668042622422
 20
222.10365691898892
 10
213.38285225190702
 20
222.66662839674336
 10
210.91281025273997
 20
216.46149238101498
 10
212.0288582424048
 20
217.02446385876942
 10
213.14490623206984
 20
217.58743533652387
 10
214.26095422173466
 20
218.1504068142783
 10
215.37700221139949
 20
218.71337829203276
 10
211.5135114441291
 20
215.27064811353375
 10
212.62476058589937
 20
215.8311988938667
 10
213.73600972766963
 20
216.39174967419967
 10
214.84725886943966
 20
216.95230045453263
 10
215.95850801120991
 20
217.5128512348656
 10
214.24035122843566
 20
210.73037045191563
 10
215.3073259059379
 20
211.381573214171
 10
216.37430058344012
 20
212.03277597642636
 10
217.44127526094235
 20
212.68397873868184
 10
218.50824993844458
 20
213.3351815009372
 10
214.9736457587885
 20
209.52889106579073
 10
216.04062043629074
 20
210.1800938280461
 10
217.10759511379297
 20
210.83129659030146
 10
218.1745697912952
 20
211.48249935255683
 10
219.24154446879743
 20
212.1337021148122
 10
218.33707179258
 20
204.34616169066192
 10
219.40570661364472
 20
204.9983776822811
 10
220.4743414347097
 20
205.6505936739004
 10
221.54297625577465
 20
206.3028096655196
 10
222.61161107683938
 20
206.95502565713878
 10
219.09541977371987
 20
203.24650184483278
 10
220.1640545947846
 20
203.89871783645197
 10
221.23268941584956
 20
204.55093382807127
 10
222.3013242369143
 20
205.20314981969045
 10
223.36995905797903
 20
205.85536581130964
 10
225.84800453188495
 20
200.15252221324636
 10
226.87755450909958
 20
200.86252099119986
 10
204.14420592592728
 20
232.03001516722497
 10
204.58887568334285
 20
230.85753899052963
 10
205.0335454407582
 20
229.6850628138343
 10
205.47821519817353
 20
228.51258663713884
 10
205.9228849555891
 20
227.3401104604435
 10
208.9186602932475
 20
220.4147424857257
 10
209.41719778312063
 20
219.42642995954805
 10
209.91573527299352
 20
218.43811743337028
 10
210.41427276286663
 20
217.44980490719263
 10
210.91281025273975
 20
216.46149238101498
 10
206.37123460410612
 20
226.15793138721097
 10
206.867551334449
 20
225.00074337537603
 10
207.36386806479186
 20
223.8435553635411
 10
207.8601847951345
 20
222.68636735170617
 10
208.35650152547737
 20
221.52917933987123
 10
208.9186602932475
 20
220.4147424857257
 10
209.41719778312063
 20
219.42642995954805
 10
209.91573527299352
 20
218.43811743337028
 10
210.41427276286663
 20
217.44980490719263
 10
210.91281025273975
 20
216.46149238101498
 10
211.5135114441291
 20
215.27064811353375
 10
212.1952213902057
 20
214.13557869812917
 10
212.87693133628227
 20
213.0005092827247
 10
213.55864128235908
 20
211.86543986732022
 10
214.24035122843566
 20
210.73037045191563
 10
214.9736457587885
 20
209.52889106579073
 10
215.81450226723632
 20
208.2332087220085
 10
216.65535877568436
 20
206.93752637822627
 10
217.49621528413218
 20
205.64184403444415
 10
218.33707179258
 20
204.34616169066192
 10
219.09541977371987
 20
203.24650184483278
 10
220.01140348035005
 20
201.940507853471
 10
220.92738718698047
 20
200.63451386210932
 10
218.50824993844458
 20
213.3351815009372
 10
218.69157357103268
 20
213.03481165440598
 10
218.874897203621
 20
212.73444180787465
 10
219.05822083620933
 20
212.43407196134342
 10
219.24154446879743
 20
212.1337021148122
 10
212.82069348413688
 20
223.7810652508888
 10
212.96123317607953
 20
223.50245603735243
 10
213.10177286802195
 20
223.22384682381607
 10
213.24231255996438
 20
222.94523761027972
 10
213.38285225190702
 20
222.66662839674336
 10
210.59795533308716
 20
229.11316346738943
 10
210.71004274521647
 20
228.81761869908132
 10
210.82213015734555
 20
228.5220739307731
 10
210.93421756947464
 20
228.226529162465
 10
211.04630498160395
 20
227.9309843941569
 10
222.61161107683938
 20
206.95502565713878
 10
222.8011980721244
 20
206.6801106956815
 10
222.9907850674092
 20
206.4051957342242
 10
223.180372062694
 20
206.13028077276692
 10
223.36995905797903
 20
205.85536581130964
 10
226.87755450909958
 20
200.86252099119986
 10
227.11587535385797
 20
200.53935726416432
 10
227.3541961986166
 20
200.2161935371289
 10
227.5925170433752
 20
199.89302981009337
 10
209.7542903789249
 20
234.15767877556004
 10
210.54800399471128
 20
232.06486654781315
 10
211.34171761049765
 20
229.97205432006626
 10
212.13543122628403
 20
227.87924209231937
 10
212.9291448420704
 20
225.78642986457248
 10
215.37700221139949
 20
218.71337829203276
 10
215.5271775092467
 20
218.41566722516245
 10
215.67735280709394
 20
218.11795615829215
 10
215.8275281049414
 20
217.82024509142173
 10
215.97770340278862
 20
217.52253402455142
 10
212.9291448420704
 20
225.78642986457248
 10
213.93984094065854
 20
223.7828019836527
 10
214.95053703924668
 20
221.7791741027329
 10
215.9612331378346
 20
219.775546221813
 10
216.97192923642274
 20
217.7719183408932
 10
216.97192923642274
 20
217.7719183408933
 10
218.13636092914476
 20
215.86403464962564
 10
219.300792621867
 20
213.95615095835808
 10
220.46522431458902
 20
212.04826726709052
 10
221.62965600731104
 20
210.14038357582285
 10
221.62965600731104
 20
210.14038357582274
 10
222.89690370853168
 20
208.30278204406022
 10
224.1641514097521
 20
206.4651805122976
 10
225.4313991109725
 20
204.62757898053496
 10
226.69864681219315
 20
202.78997744877245
 10
226.69864681219337
 20
202.7899774487721
 10
228.0204589180396
 20
200.9975965640923
 10
213.05109969146065
 20
204.4468952915936
 10
209.99883581641598
 20
249.68671786750917
 10
209.95315097014873
 20
248.63870749414036
 10
209.9074661238817
 20
247.59069712077144
 10
209.9074661238817
 20
247.59069712077144
 10
209.95771945477554
 20
246.53903195970122
 10
210.0079727856696
 20
245.487366798631
 10
210.05822611656345
 20
244.43570163756067
 10
210.10847944745728
 20
243.38403647649045
 10
210.10847944745728
 20
243.38403647649045
 10
210.26380792476562
 20
242.32963022464423
 10
210.41913640207395
 20
241.2752239727979
 10
210.57446487938228
 20
240.2208177209517
 10
210.7297933566906
 20
239.16641146910547
 10
210.7297933566906
 20
239.16641146910547
 10
211.00024764659224
 20
238.10926412648314
 10
211.27070193649388
 20
237.0521167838608
 10
211.54115622639551
 20
235.9949694412386
 10
211.81161051629715
 20
234.93782209861627
 10
211.81161051629715
 20
234.93782209861627
 10
212.59510562977903
 20
232.87195335041486
 10
213.37860074326113
 20
230.80608460221356
 10
214.16209585674324
 20
228.74021585401215
 10
214.9455909702251
 20
226.67434710581074
 10
214.9455909702251
 20
226.67434710581074
 10
215.93329734652116
 20
224.71629459479982
 10
216.92100372281743
 20
222.758242083789
 10
217.9087100991137
 20
220.8001895727782
 10
218.89641647540975
 20
218.8421370617673
 10
218.89641647540975
 20
218.8421370617673
 10
220.04127872286517
 20
216.96631727403735
 10
221.18614097032037
 20
215.0904974863074
 10
222.33100321777556
 20
213.21467769857736
 10
223.47586546523098
 20
211.33885791084742
 10
223.47586546523098
 20
211.33885791084742
 10
224.72945764680208
 20
209.52105787787673
 10
225.98304982837317
 20
207.70325784490615
 10
227.23664200994426
 20
205.88545781193545
 10
228.49023419151536
 20
204.06765777896476
 10
228.49023419151536
 20
204.06765777896476
 10
229.8068714609351
 20
202.2822939868438
 10
231.12350873035484
 20
200.49693019472284
 10
213.4348685808136
 20
204.76119796332887
 10
214.28933683895116
 20
203.5221567100018
 10
215.14380509708872
 20
202.28311545667464
 10
215.9982733552265
 20
201.04407420334746
 10
216.85274161336406
 20
199.8050329500204
 10
224.7603018045079
 20
298.93532040811226
 10
224.34319915808874
 20
297.98461875729254
 10
223.92609651166958
 20
297.0339171064727
 10
223.9412229523689
 20
297.06762269711135
 10
223.4999073374281
 20
296.1059566831875
 10
223.0585917224871
 20
295.14429066926357
 10
222.61727610754633
 20
294.1826246553396
 10
222.17596049260555
 20
293.2209586414158
 10
223.9412229523689
 20
297.06762269711135
 10
223.4999073374281
 20
296.1059566831875
 10
223.0585917224871
 20
295.14429066926357
 10
222.61727610754633
 20
294.1826246553396
 10
222.17596049260555
 20
293.2209586414158
 10
222.18169794713936
 20
293.2333593340263
 10
221.72759057524377
 20
292.25981526007286
 10
221.27348320334795
 20
291.2862711861195
 10
220.81937583145236
 20
290.31272711216616
 10
220.36526845955677
 20
289.3391830382127
 10
220.3644909618497
 20
289.3375143674625
 10
219.9062719537901
 20
288.35300593040506
 10
219.4480529457303
 20
287.3684974933475
 10
218.98983393767048
 20
286.3839890562899
 10
218.5316149296109
 20
285.39948061923246
 10
218.52367164690077
 20
285.3822195866221
 10
218.07139166885577
 20
284.38811733184855
 10
217.61911169081077
 20
283.394015077075
 10
217.16683171276577
 20
282.3999128223014
 10
216.71455173472077
 20
281.40581056752785
 10
216.69874445008872
 20
281.3702347464498
 10
216.26336786516254
 20
280.3665386739601
 10
215.82799128023635
 20
279.36284260147033
 10
215.39261469531039
 20
278.35914652898055
 10
214.9572381103842
 20
277.35545045649087
 10
214.93639824869206
 20
277.3057483989106
 10
214.52660517767572
 20
276.29382905409284
 10
214.11681210665915
 20
275.28190970927506
 10
213.7070190356426
 20
274.26999036445727
 10
213.29722596462625
 20
273.2580710196395
 10
213.27071656450994
 20
273.18932302939254
 10
212.89701452204463
 20
272.16963726070935
 10
212.5233124795791
 20
271.14995149202605
 10
212.14961043711355
 20
270.13026572334286
 10
211.77590839464824
 20
269.11057995465967
 10
211.7459414260311
 20
269.02317275531937
 10
211.4179242298328
 20
267.99663425969607
 10
211.08990703363452
 20
266.97009576407277
 10
210.76188983743623
 20
265.94355726844947
 10
210.43387264123794
 20
264.91701877282617
 10
210.4021548923438
 20
264.8081572235433
 10
210.12987320859156
 20
263.77522284944257
 10
209.8575915248391
 20
262.742288475342
 10
209.58530984108666
 20
261.7093541012414
 10
209.31302815733443
 20
260.6764197271407
 10
209.282718903258
 20
260.54528604371035
 10
209.0757665496676
 20
259.50595579113224
 10
208.86881419607744
 20
258.4666255385541
 10
208.66186184248727
 20
257.427295285976
 10
208.45490948889687
 20
256.3879650333979
 10
208.42958377162722
 20
256.23156271899654
 10
208.2989251113031
 20
255.18766398179173
 10
208.168266450979
 20
254.1437652445868
 10
208.03760779065487
 20
253.099866507382
 10
207.90694913033076
 20
252.05596777017718
 10
207.89200365002353
 20
251.87854997813747
 10
207.84631880375628
 20
250.83053960476866
 10
207.80063395748903
 20
249.78252923139985
 10
215.42926630391617
 20
278.44364137064576
 10
227.192327709065
 20
299.0021388675301
 10
226.77522506264586
 20
298.0514372167104
 10
226.35812241622648
 20
297.10073556589055
 10
225.94101976980733
 20
296.1500339150708
 10
225.94101976980733
 20
296.1500339150708
 10
225.49970415486655
 20
295.1883679011469
 10
225.05838853992555
 20
294.22670188722304
 10
224.61707292498477
 20
293.2650358732991
 10
224.175757310044
 20
292.30336985937515
 10
224.175757310044
 20
292.30336985937515
 10
223.7216499381484
 20
291.3298257854217
 10
223.2675425662526
 20
290.35628171146834
 10
222.81343519435677
 20
289.382737637515
 10
222.35932782246118
 20
288.40919356356153
 10
222.35932782246118
 20
288.40919356356153
 10
221.9011088144016
 20
287.4246851265041
 10
221.44288980634178
 20
286.4401766894465
 10
220.98467079828197
 20
285.45566825238893
 10
220.52645179022238
 20
284.4711598153315
 10
220.52645179022238
 20
284.4711598153315
 10
220.07417181217738
 20
283.4770575605579
 10
219.62189183413238
 20
282.48295530578434
 10
219.1696118560876
 20
281.4888530510108
 10
218.71733187804261
 20
280.4947507962372
 10
218.71733187804261
 20
280.4947507962372
 10
218.28195529311643
 20
279.49105472374754
 10
217.84657870819046
 20
278.48735865125786
 10
217.41120212326427
 20
277.4836625787681
 10
216.97582553833809
 20
276.4799665062784
 10
216.97582553833809
 20
276.4799665062784
 10
216.56603246732152
 20
275.4680471614606
 10
216.15623939630495
 20
274.4561278166427
 10
215.74644632528862
 20
273.44420847182494
 10
215.33665325427205
 20
272.43228912700715
 10
215.33665325427205
 20
272.43228912700715
 10
214.96295121180674
 20
271.41260335832396
 10
214.5892491693412
 20
270.3929175896408
 10
214.21554712687566
 20
269.3732318209576
 10
213.84184508441035
 20
268.3535460522744
 10
213.84184508441035
 20
268.3535460522744
 10
213.51382788821206
 20
267.3270075566511
 10
213.18581069201377
 20
266.3004690610278
 10
212.85779349581549
 20
265.2739305654046
 10
212.5297762996172
 20
264.2473920697813
 10
212.5297762996172
 20
264.2473920697813
 10
212.25749461586474
 20
263.2144576956806
 10
211.98521293211252
 20
262.1815233215799
 10
211.7129312483603
 20
261.1485889474792
 10
211.44064956460784
 20
260.1156545733785
 10
211.44064956460784
 20
260.1156545733785
 10
211.23369721101744
 20
259.0763243208004
 10
211.02674485742727
 20
258.0369940682224
 10
210.8197925038371
 20
256.9976638156443
 10
210.6128401502467
 20
255.95833356306616
 10
210.6128401502467
 20
255.95833356306616
 10
210.4821814899226
 20
254.91443482586135
 10
210.35152282959848
 20
253.87053608865654
 10
210.22086416927436
 20
252.82663735145172
 10
210.09020550895025
 20
251.7827386142469
 10
210.09020550895025
 20
251.7827386142469
 10
210.04452066268323
 20
250.73472824087798
 10
222.9906650962323
 20
294.9676742180475
 10
231.18017930071892
 20
348.737512829749
 10
231.44195346982974
 20
347.30346550542254
 10
231.70372763894056
 20
345.8694181810961
 10
232.2888025556033
 20
340.358010750655
 10
232.34042643188513
 20
338.8855881554641
 10
232.3920503081672
 20
337.4131655602732
 10
232.44367418444904
 20
335.94074296508245
 10
232.49529806073087
 20
334.46832036989156
 10
231.6802834342575
 20
346.0319988347934
 10
231.83515506310323
 20
344.5746522388707
 10
231.99002669194897
 20
343.11730564294794
 10
232.14489832079448
 20
341.65995904702527
 10
232.29976994964022
 20
340.2026124511026
 10
232.29715450450817
 20
328.86055927601296
 10
232.14548081490102
 20
327.38493874158337
 10
231.9938071252941
 20
325.9093182071538
 10
231.84213343568717
 20
324.4336976727243
 10
231.69045974608002
 20
322.9580771382947
 10
231.71034498445852
 20
323.1035931361822
 10
231.4604488753771
 20
321.64076435870743
 10
231.21055276629568
 20
320.17793558123276
 10
230.96065665721426
 20
318.715106803758
 10
230.71076054813284
 20
317.2522780262832
 10
230.73991483680334
 20
317.3944947931129
 10
230.39408055056083
 20
315.95131049953307
 10
230.04824626431855
 20
314.5081262059532
 10
229.70241197807604
 20
313.06494191237334
 10
229.35657769183354
 20
311.6217576187935
 10
229.395597050466
 20
311.7635066294772
 10
228.9551951324504
 20
310.35001748597097
 10
228.51479321443503
 20
308.9365283424647
 10
228.07439129641944
 20
307.5230391989586
 10
227.63398937840384
 20
306.10955005545236
 10
227.6821662332925
 20
306.24779963695835
 10
227.15085147120521
 20
304.87222891585384
 10
226.61953670911817
 20
303.49665819474944
 10
226.0882219470309
 20
302.12108747364505
 10
225.5569071849436
 20
300.74551675254054
 10
225.59450709734642
 20
300.8367237097518
 10
225.17740445092727
 20
299.886022058932
 10
232.49258807424667
 20
334.54561494014627
 10
232.4411885123218
 20
333.08749052554253
 10
232.3897889503969
 20
331.6293661109389
 10
232.33838938847225
 20
330.1712416963352
 10
232.28698982654737
 20
328.71311728173146
 10
199.11683565686485
 20
334.4467268439132
 10
232.49605514060545
 20
334.4467268439132
 10
231.97299510357516
 20
325.7068398030815
 10
233.3447059558648
 20
349.13257752495724
 10
233.60648012497563
 20
347.6985302006309
 10
233.86825429408646
 20
346.26448287630444
 10
233.86825429408646
 20
346.26448287630444
 10
234.0231259229322
 20
344.80713628038177
 10
234.17799755177793
 20
343.349789684459
 10
234.33286918062345
 20
341.8924430885363
 10
234.4877408094692
 20
340.43509649261364
 10
234.4877408094692
 20
340.43509649261364
 10
234.53936468575102
 20
338.96267389742275
 10
234.5909885620331
 20
337.49025130223197
 10
234.64261243831515
 20
336.0178287070412
 10
234.694236314597
 20
334.5454061118503
 10
234.694236314597
 20
334.5454061118503
 10
234.64215558985234
 20
333.06795818357
 10
234.5900748651079
 20
331.5905102552898
 10
234.53799414036325
 20
330.11306232700963
 10
234.4859134156186
 20
328.63561439872933
 10
234.4859134156186
 20
328.63561439872933
 10
234.33423972601167
 20
327.15999386429974
 10
234.18256603640452
 20
325.68437332987014
 10
234.03089234679737
 20
324.20875279544066
 10
233.87921865719045
 20
322.73313226101106
 10
233.87921865719068
 20
322.7331322610112
 10
233.62932254810926
 20
321.2703034835364
 10
233.3794264390276
 20
319.8074747060616
 10
233.1295303299462
 20
318.34464592858683
 10
232.87963422086477
 20
316.88181715111205
 10
232.87963422086477
 20
316.88181715111205
 10
232.5337999346225
 20
315.4386328575322
 10
232.18796564838
 20
313.9954485639523
 10
231.84213136213748
 20
312.55226427037246
 10
231.4962970758952
 20
311.1090799767926
 10
231.4962970758952
 20
311.1090799767926
 10
231.0558951578796
 20
309.69559083328636
 10
230.615493239864
 20
308.28210168978023
 10
230.17509132184864
 20
306.8686125462741
 10
229.73468940383304
 20
305.45512340276787
 10
229.73468940383304
 20
305.45512340276787
 10
229.20337464174577
 20
304.07955268166336
 10
228.67205987965872
 20
302.70398196055885
 10
228.14074511757144
 20
301.32841123945434
 10
227.60943035548416
 20
299.95284051834983
 10
227.60943035548416
 20
299.95284051834983
 10
199.58507029277666
 20
393.3537834065461
 10
199.41735743618028
 20
393.4517044094016
 10
200.98206342083085
 20
392.4429830038225
 10
202.54676940548143
 20
391.43426159824344
 10
204.111475390132
 20
390.42554019266436
 10
205.67618137478257
 20
389.4168187870853
 10
205.50889686239043
 20
389.53607519891943
 10
207.00416188071495
 20
388.3610609529278
 10
208.49942689903946
 20
387.1860467069363
 10
209.99469191736375
 20
386.01103246094476
 10
211.48995693568827
 20
384.8360182149531
 10
211.32593754498544
 20
384.9785573299432
 10
212.39222185686117
 20
383.9552167735586
 10
213.4585061687369
 20
382.931876217174
 10
214.52479048061264
 20
381.90853566078954
 10
215.59107479248837
 20
380.88519510440494
 10
215.4405535594242
 20
381.04481732750537
 10
216.38622987715462
 20
379.9360461086012
 10
217.33190619488505
 20
378.8272748896969
 10
218.27758251261548
 20
377.71850367079264
 10
219.2232588303459
 20
376.6097324518885
 10
219.09249496740563
 20
376.7790810637696
 10
219.91847698791616
 20
375.59447300006195
 10
220.74445900842647
 20
374.4098649363542
 10
221.57044102893678
 20
373.22525687264647
 10
222.39642304944732
 20
372.04064880893884
 10
222.28710272464104
 20
372.21414360363997
 10
222.99658838717028
 20
370.96237881591946
 10
223.7060740496995
 20
369.7106140281991
 10
224.41555971222851
 20
368.4588492404787
 10
225.12504537475775
 20
367.2070844527582
 10
225.0351130587801
 20
367.38389057722236
 10
225.62901606025343
 20
366.0731923378173
 10
226.22291906172654
 20
364.76249409841216
 10
226.81682206319965
 20
363.4517958590071
 10
227.410725064673
 20
362.1410976196021
 10
227.34045224770807
 20
362.315689005939
 10
227.82151367890128
 20
360.95519428410273
 10
228.30257511009472
 20
359.59469956226644
 10
228.78363654128816
 20
358.23420484043015
 10
229.26469797248137
 20
356.87371011859386
 10
229.21190898421014
 20
357.04487699873494
 10
229.58241308743686
 20
355.6432659152582
 10
229.9529171906638
 20
354.2416548317815
 10
230.32342129389053
 20
352.84004374830477
 10
230.69392539711725
 20
351.43843266482804
 10
230.65663096249705
 20
351.6056074784019
 10
230.91840513160787
 20
350.17156015407545
 10
198.98239198755073
 20
396.1569034846798
 10
200.60968621158736
 20
395.30076946563304
 10
200.60968621158736
 20
395.30076946563304
 10
202.17439219623793
 20
394.29204806005396
 10
203.7390981808885
 20
393.2833266544749
 10
205.30380416553908
 20
392.2746052488957
 10
206.86851015018965
 20
391.2658838433166
 10
206.86851015018965
 20
391.2658838433166
 10
208.36377516851417
 20
390.0908695973251
 10
209.85904018683846
 20
388.91585535133345
 10
211.35430520516275
 20
387.7408411053418
 10
212.84957022348726
 20
386.5658268593503
 10
212.84957022348726
 20
386.5658268593503
 10
213.915854535363
 20
385.5424863029657
 10
214.98213884723873
 20
384.5191457465811
 10
216.04842315911446
 20
383.4958051901965
 10
217.1147074709902
 20
382.4724646338119
 10
217.1147074709902
 20
382.4724646338119
 10
218.06038378872063
 20
381.36369341490774
 10
219.00606010645106
 20
380.25492219600346
 10
219.9517364241815
 20
379.1461509770993
 10
220.89741274191192
 20
378.03737975819513
 10
220.89741274191192
 20
378.03737975819513
 10
221.72339476242223
 20
376.8527716944875
 10
222.54937678293254
 20
375.66816363077976
 10
223.37535880344308
 20
374.483555567072
 10
224.2013408239534
 20
373.2989475033644
 10
224.2013408239534
 20
373.2989475033644
 10
224.91082648648262
 20
372.0471827156439
 10
225.62031214901162
 20
370.7954179279235
 10
226.32979781154086
 20
369.5436531402031
 10
227.0392834740701
 20
368.2918883524826
 10
227.0392834740701
 20
368.2918883524826
 10
227.6331864755432
 20
366.98119011307756
 10
228.2270894770163
 20
365.6704918736725
 10
228.82099247848964
 20
364.35979363426736
 10
229.41489547996275
 20
363.0490953948623
 10
229.41489547996275
 20
363.0490953948623
 10
229.8959569111562
 20
361.68860067302603
 10
230.3770183423494
 20
360.32810595118974
 10
230.8580797735426
 20
358.96761122935345
 10
231.33914120473605
 20
357.60711650751716
 10
231.33914120473605
 20
357.60711650751716
 10
231.70964530796277
 20
356.20550542404044
 10
232.0801494111895
 20
354.8038943405636
 10
232.45065351441622
 20
353.4022832570869
 10
232.82115761764294
 20
352.00067217361016
 10
232.82115761764294
 20
352.00067217361016
 10
233.08293178675376
 20
350.5666248492837
 10
233.46942963385823
 20
431.5898000597948
 10
233.936491320595
 20
434.5803511984084
 10
213.26651593597057
 20
424.01817058849053
 10
245.56691445801744
 20
414.44579677469676
 10
199.9616189954263
 20
440.47700707174056
 10
201.0981781013179
 20
444.312138542605
 10
206.1397703549128
 20
426.1302148944184
 10
207.2763294608044
 20
429.9653463652828
 10
208.41288856669598
 20
433.80047783614725
 10
209.54944767258758
 20
437.6356093070117
 10
210.68600677847917
 20
441.47074077787613
 10
230.10934204781574
 20
419.0267204825959
 10
231.24590115370734
 20
422.86185195346036
 10
232.3824602595987
 20
426.6969834243248
 10
233.5190193654903
 20
430.53211489518924
 10
234.6555784713819
 20
434.3672463660537
 10
239.6971707249768
 20
416.18532271786694
 10
240.83372983086838
 20
420.0204541887314
 10
241.97028893675997
 20
423.8555856595958
 10
243.10684804265156
 20
427.69071713046026
 10
244.24340714854316
 20
431.5258486013247
 10
200.49343668691358
 20
424.6745651736345
 10
202.05620545751435
 20
429.9478709460732
 10
203.61897422811535
 20
435.22117671851174
 10
205.18174299871635
 20
440.4944824909503
 10
206.7445117693171
 20
445.767788263389
 10
234.05083705697757
 20
414.72967299708307
 10
235.61360582757834
 20
420.00297876952175
 10
237.17637459817934
 20
425.2762845419604
 10
238.73914336878033
 20
430.549590314399
 10
240.3019121393811
 20
435.82289608683766
 10
275.86641851755576
 20
47.622888571619455
 10
275.39129611637736
 20
44.951786980070665
 10
274.91617371519874
 20
42.28068538852182
 10
274.4410513140201
 20
39.60958379697297
 10
274.4756731385439
 20
39.76948687846641
 10
273.80182165610313
 20
37.135070218470105
 10
273.12797017366256
 20
34.5006535584738
 10
272.45411869122177
 20
31.866236898477496
 10
271.78026720878097
 20
29.23182023848119
 10
271.82878868098487
 20
29.394949490684667
 10
270.9488985418793
 20
26.807542537497284
 10
270.06900840277353
 20
24.2201355843099
 10
269.18911826366775
 20
21.632728631122518
 10
268.3092281245622
 20
19.045321677935135
 10
268.3723527595341
 20
19.209180031705728
 10
267.27957123682336
 20
16.678559342428457
 10
266.1867897141128
 20
14.14793865315113
 10
265.09400819140205
 20
11.617317963873802
 10
264.0012266686913
 20
9.086697274596531
 10
264.07054561867335
 20
9.23231284133135
 10
263.2454772950882
 20
7.651205996870885
 10
262.4204089715033
 20
6.070099152410421
 10
261.5953406479184
 20
4.488992307949957
 10
260.7702723243333
 20
2.9078854634894924
 10
260.8400283873775
 20
3.031646398289354
 10
259.9199355835567
 20
1.515823199144677
 10
258.9998427797359
 20
0.0
 10
258.0527531690402
 20
20.031454237018465
 10
257.25868948715515
 20
18.192592634566097
 10
256.46462580526986
 20
16.35373103211373
 10
255.6705621233848
 20
14.514869429661303
 10
254.87649844149973
 20
12.676007827208934
 10
254.87649844149973
 20
12.676007827208934
 10
278.0327088774841
 20
47.23761094348072
 10
277.55758647630546
 20
44.56650935193187
 10
277.08246407512706
 20
41.89540776038302
 10
276.60734167394844
 20
39.224306168834175
 10
276.60734167394844
 20
39.224306168834175
 10
275.93349019150764
 20
36.58988950883787
 10
275.2596387090671
 20
33.95547284884151
 10
274.5857872266263
 20
31.321056188845205
 10
273.9119357441855
 20
28.6866395288489
 10
273.9119357441855
 20
28.6866395288489
 10
273.03204560507993
 20
26.099232575661517
 10
272.15215546597415
 20
23.511825622474134
 10
271.27226532686836
 20
20.92441866928681
 10
270.3923751877628
 20
18.337011716099425
 10
270.3923751877628
 20
18.337011716099425
 10
269.29959366505204
 20
15.806391026822155
 10
268.2068121423413
 20
13.275770337544827
 10
267.11403061963074
 20
10.745149648267557
 10
266.02124909692
 20
8.214528958990286
 10
266.02124909692
 20
8.214528958990286
 10
265.19618077333485
 20
6.633422114529822
 10
264.37111244974994
 20
5.052315270069357
 10
263.5460441261648
 20
3.4712084256089497
 10
262.7209758025797
 20
1.8901015811484854
 10
262.7209758025797
 20
1.8901015811484854
 10
261.8008829987589
 20
0.3742783820038085
 10
257.6424709760156
 20
20.18263129840443
 10
274.43711483563925
 20
39.58745321832157
 10
276.0421736183912
 20
48.61097022889271
 10
275.684509921462
 20
98.41970776591012
 10
276.10206941634397
 20
95.7115100791923
 10
276.51962891122594
 20
93.00331239247453
 10
276.5033305814443
 20
93.13546202160819
 10
276.7555109328391
 20
90.41538627486096
 10
277.0076912842337
 20
87.69531052811374
 10
277.25987163562854
 20
84.97523478136645
 10
277.51205198702337
 20
82.25515903461923
 10
277.5036378618886
 20
82.39258739671072
 10
277.58495688824405
 20
79.6693137107248
 10
277.66627591459974
 20
76.94604002473886
 10
277.7475949409554
 20
74.22276633875288
 10
277.8289139673109
 20
71.49949265276695
 10
277.8293317445916
 20
71.64357287948349
 10
277.73247987050513
 20
68.92806561736296
 10
277.63562799641886
 20
66.21255835524244
 10
277.53877612233237
 20
63.49705109312191
 10
277.44192424824587
 20
60.781543831001386
 10
277.45254538968834
 20
60.93277896095651
 10
277.1692993428319
 20
58.23417509195485
 10
276.8860532959752
 20
55.535571222953195
 10
276.60280724911877
 20
52.83696735395148
 10
276.3195612022623
 20
50.13836348494982
 10
276.3415409187344
 20
50.2939901631683
 10
269.4084503456925
 20
99.75033475746807
 10
269.63776629799395
 20
98.26304267295762
 10
270.87316821216064
 20
98.45352130817162
 10
272.10857012632755
 20
98.64399994338555
 10
273.34397204049446
 20
98.83447857859954
 10
274.57937395466115
 20
99.02495721381354
 10
269.4084503456925
 20
99.75033475746807
 10
274.5220449665858
 20
99.39678023494116
 10
274.57937395466115
 20
99.02495721381354
 10
269.63776629799395
 20
98.26304267295762
 10
269.87574965430167
 20
96.71953574058011
 10
270.1137330106096
 20
95.17602880820255
 10
270.35171636691757
 20
93.63252187582498
 10
270.5896997232253
 20
92.08901494344747
 10
277.85910646166894
 20
98.75495016388663
 10
278.2766659565507
 20
96.04675247716887
 10
278.69422545143266
 20
93.3385547904511
 10
278.69422545143266
 20
93.3385547904511
 10
278.9464058028275
 20
90.61847904370387
 10
279.1985861542221
 20
87.89840329695664
 10
279.4507665056169
 20
85.17832755020942
 10
279.70294685701174
 20
82.45825180346219
 10
279.70294685701174
 20
82.45825180346219
 10
279.7842658833674
 20
79.73497811747626
 10
279.8655849097229
 20
77.01170443149033
 10
279.94690393607834
 20
74.28843074550434
 10
280.02822296243403
 20
71.56515705951841
 10
280.02822296243403
 20
71.56515705951841
 10
279.93137108834753
 20
68.84964979739789
 10
279.83451921426126
 20
66.1341425352773
 10
279.737667340175
 20
63.418635273156724
 10
279.6408154660885
 20
60.7031280110362
 10
279.6408154660885
 20
60.7031280110362
 10
279.35756941923205
 20
58.00452414203454
 10
279.0743233723756
 20
55.30592027303288
 10
278.79107732551915
 20
52.607316404031224
 10
278.5078312786627
 20
49.908712535029565
 10
278.5078312786627
 20
49.908712535029565
 10
261.15168383424816
 20
147.80022532630153
 10
262.29060705168877
 20
145.30309162933804
 10
262.2454412680245
 20
145.40942975092162
 10
263.25416267360356
 20
142.84970781457218
 10
264.26288407918264
 20
140.28998587822264
 10
265.27160548476195
 20
137.7302639418731
 10
266.28032689034103
 20
135.17054200552366
 10
266.24017377311816
 20
135.28099638567664
 10
267.1113837914331
 20
132.66919372458256
 10
267.98259380974787
 20
130.05739106348847
 10
268.85380382806284
 20
127.44558840239449
 10
269.7250138463778
 20
124.8337857413004
 10
269.6901832071794
 20
124.94853308662425
 10
270.41748595975287
 20
122.29424351850173
 10
271.1447887123261
 20
119.63995395037921
 10
271.8720914648993
 20
116.98566438225669
 10
272.59939421747276
 20
114.33137481413416
 10
272.57004887639914
 20
114.45165264181514
 10
273.14567793936544
 20
111.766297378231
 10
273.72130700233174
 20
109.08094211464675
 10
274.29693606529827
 20
106.39558685106255
 10
274.87256512826457
 20
103.71023158747835
 10
274.8493909316983
 20
103.83610313934571
 10
275.26695042658025
 20
101.12790545262794
 10
253.90676805652652
 20
149.2260723472765
 10
255.04406254016772
 20
149.74478349760898
 10
254.53508956304745
 20
147.84845287088513
 10
255.67238404668865
 20
148.3671640212176
 10
256.80967853032985
 20
148.8858751715502
 10
257.94697301397105
 20
149.40458632188268
 10
257.02640683547224
 20
142.3861423169044
 10
258.181001501981
 20
142.84113875160926
 10
259.33559616848993
 20
143.29613518631413
 10
260.4901908349989
 20
143.7511316210191
 10
261.6447855015076
 20
144.20612805572398
 10
257.6608388887237
 20
140.99512522782618
 10
258.79676569080357
 20
141.44276513126943
 10
259.9326924928837
 20
141.89040503471278
 10
261.0686192949636
 20
142.33804493815603
 10
262.2045460970435
 20
142.78568484159928
 10
263.05241922588107
 20
125.87584660151367
 10
264.2381903577534
 20
126.2713801940414
 10
265.423961489626
 20
126.66691378656901
 10
266.60973262149855
 20
127.06244737909674
 10
267.7955037533709
 20
127.45798097162447
 10
263.6129293886179
 20
124.19549180320905
 10
264.79870052049046
 20
124.59102539573678
 10
265.9844716523628
 20
124.98655898826439
 10
267.17024278423514
 20
125.382092580792
 10
268.3560139161077
 20
125.77762617331973
 10
265.46623922359004
 20
117.65966657806496
 10
266.6718004913705
 20
117.99000281529504
 10
267.877361759151
 20
118.32033905252501
 10
269.08292302693167
 20
118.6506752897551
 10
270.28848429471213
 20
118.98101152698518
 10
265.81243252612785
 20
116.3962349902855
 10
267.0179937939083
 20
116.72657122751559
 10
268.2235550616888
 20
117.05690746474556
 10
269.4291163294695
 20
117.38724370197565
 10
270.63467759724995
 20
117.71757993920573
 10
267.6134065543349
 20
108.9484526663947
 10
268.83564131136177
 20
109.21044922880606
 10
270.05787606838885
 20
109.47244579121741
 10
271.2801108254157
 20
109.73444235362871
 10
272.50234558244256
 20
109.99643891604006
 10
267.9660327553072
 20
107.30342345265205
 10
269.18826751233405
 20
107.56542001506341
 10
270.41050226936113
 20
107.82741657747476
 10
271.632737026388
 20
108.08941313988612
 10
272.85497178341484
 20
108.35140970229747
 10
270.64385225985916
 20
99.94081339268206
 10
271.8792541740261
 20
100.13129202789605
 10
273.114656088193
 20
100.32177066311004
 10
274.3500580023597
 20
100.51224929832404
 10
253.90676805652652
 20
149.2260723472765
 10
254.53508956304745
 20
147.84845287088513
 10
255.1492618963655
 20
146.48032796180905
 10
255.7634342296833
 20
145.1122030527331
 10
256.37760656300134
 20
143.74407814365702
 10
256.9917788963194
 20
142.37595323458095
 10
263.6129293886179
 20
124.19549180320905
 10
264.07625684736104
 20
122.56153549692306
 10
264.53958430610396
 20
120.92757919063706
 10
265.0029117648469
 20
119.29362288435095
 10
265.46623922359004
 20
117.65966657806496
 10
265.81243252612785
 20
116.3962349902855
 10
266.26267603317956
 20
114.5342894093128
 10
266.71291954023127
 20
112.6723438283401
 10
267.1631630472832
 20
110.8103982473674
 10
267.6134065543349
 20
108.9484526663947
 10
267.9660327553072
 20
107.30342345265205
 10
268.32663715290346
 20
105.41515127885606
 10
268.68724155049995
 20
103.52687910506006
 10
269.0478459480962
 20
101.63860693126406
 10
274.3500580023597
 20
100.51224929832404
 10
274.40738699043504
 20
100.14042627719641
 10
274.4647159785104
 20
99.76860325606879
 10
272.50234558244256
 20
109.99643891604006
 10
272.59050213268574
 20
109.5851816126044
 10
272.6786586829287
 20
109.1739243091688
 10
272.76681523317166
 20
108.76266700573314
 10
272.85497178341484
 20
108.35140970229747
 10
270.28848429471213
 20
118.98101152698518
 10
270.3750326203467
 20
118.66515363004032
 10
270.46158094598104
 20
118.34929573309546
 10
270.5481292716154
 20
118.0334378361506
 10
270.63467759724995
 20
117.71757993920573
 10
267.7955037533709
 20
127.45798097162447
 10
267.93563129405516
 20
127.03789227204834
 10
268.0757588347392
 20
126.6178035724721
 10
268.21588637542345
 20
126.19771487289586
 10
268.3560139161077
 20
125.77762617331973
 10
265.2915568676201
 20
134.96456951165453
 10
265.34763603274064
 20
134.7964496443268
 10
265.4037151978612
 20
134.62832977699895
 10
265.4597943629817
 20
134.46020990967122
 10
265.51587352810225
 20
134.2920900423435
 10
261.6447855015076
 20
144.20612805572398
 10
261.78472565039147
 20
143.85101725219283
 10
261.92466579927554
 20
143.49590644866157
 10
262.0646059481596
 20
143.14079564513042
 10
262.2045460970435
 20
142.78568484159928
 10
260.7727890006122
 20
132.7099556722328
 10
261.95856013248476
 20
133.10548926476054
 10
263.14433126435733
 20
133.50102285728815
 10
264.3301023962297
 20
133.89655644981576
 10
265.51587352810225
 20
134.2920900423435
 10
260.7727890006122
 20
132.7099556722328
 10
261.34269655692947
 20
131.00142840455305
 10
261.91260411324674
 20
129.2929011368733
 10
262.4825116695638
 20
127.58437386919343
 10
263.05241922588107
 20
125.87584660151367
 10
260.2319929174737
 20
134.15361665825503
 10
259.58920441028613
 20
135.8639938006478
 10
258.94641590309857
 20
137.57437094304055
 10
258.30362739591123
 20
139.28474808543342
 10
257.6608388887237
 20
140.99512522782618
 10
260.2319929174737
 20
134.15361665825503
 10
261.4194584501611
 20
134.54971544622686
 10
262.60692398284823
 20
134.94581423419856
 10
263.7943895155354
 20
135.34191302217027
 10
264.98185504822277
 20
135.7380118101421
 10
264.98185504822277
 20
135.7380118101421
 10
265.06604446102256
 20
135.52437354930998
 10
265.15023387382234
 20
135.31073528847787
 10
265.23442328662213
 20
135.09709702764576
 10
265.3186126994219
 20
134.88345876681365
 10
263.15361129672965
 20
148.71315695088686
 10
264.29253451417026
 20
146.21602325392337
 10
264.29253451417026
 20
146.21602325392337
 10
265.30125591974934
 20
143.65630131757393
 10
266.3099773253284
 20
141.0965793812244
 10
267.3186987309075
 20
138.53685744487484
 10
268.3274201364866
 20
135.9771355085254
 10
268.3274201364866
 20
135.9771355085254
 10
269.19863015480155
 20
133.36533284743132
 10
270.0698401731165
 20
130.75353018633723
 10
270.9410501914315
 20
128.14172752524325
 10
271.81226020974646
 20
125.52992486414917
 10
271.81226020974646
 20
125.52992486414917
 10
272.5395629623197
 20
122.87563529602664
 10
273.2668657148929
 20
120.22134572790424
 10
273.99416846746635
 20
117.56705615978171
 10
274.7214712200396
 20
114.91276659165919
 10
274.7214712200396
 20
114.91276659165919
 10
275.2971002830059
 20
112.22741132807494
 10
275.8727293459724
 20
109.5420560644908
 10
276.4483584089387
 20
106.85670080090654
 10
277.023987471905
 20
104.17134553732234
 10
277.023987471905
 20
104.17134553732222
 10
277.441546966787
 20
101.46314785060446
 10
250.02856861491523
 20
169.47919437372616
 10
251.40825097218385
 20
167.1355617602204
 10
252.78793332945224
 20
164.79192914671466
 10
252.73250340288337
 20
164.8919443367338
 10
253.99568940217068
 20
162.46607899994706
 10
255.25887540145777
 20
160.04021366316044
 10
256.52206140074486
 20
157.61434832637383
 10
257.7852474000322
 20
155.1884829895871
 10
257.73491418192657
 20
155.29162641719188
 10
258.8738373993672
 20
152.7944927202284
 10
260.01276061680755
 20
150.29735902326502
 10
249.40539883567476
 20
166.10263237099093
 10
250.48260062347822
 20
166.73677455406425
 10
249.05830822562143
 20
164.22826822041486
 10
250.1355100134249
 20
164.86241040348818
 10
251.21271180122835
 20
165.49655258656162
 10
250.39509279719823
 20
156.38962080405622
 10
251.5037888614611
 20
156.9669361746187
 10
252.61248492572417
 20
157.54425154518128
 10
253.72118098998726
 20
158.12156691574387
 10
254.82987705425012
 20
158.69888228630634
 10
251.09304250683863
 20
155.049254453897
 10
252.2017385711015
 20
155.62656982445947
 10
253.31043463536457
 20
156.20388519502205
 10
254.41913069962766
 20
156.78120056558464
 10
255.52782676389052
 20
157.3585159361471
 10
256.1813570238089
 20
150.26349464794157
 10
257.3186515074501
 20
150.78220579827405
 10
258.4559459910913
 20
151.30091694860653
 10
259.08426749761225
 20
149.92329747221515
 10
249.52229576040236
 20
158.03221156660925
 10
250.39509279719823
 20
156.38962080405622
 10
251.09304250683863
 20
155.049254453897
 10
251.79647389426054
 20
153.59345892724184
 10
252.49990528168246
 20
152.1376634005867
 10
253.2033366691046
 20
150.68186787393165
 10
258.4559459910913
 20
151.30091694860653
 10
258.61302636772143
 20
150.95651207950868
 10
258.7701067443518
 20
150.61210721041084
 10
258.9271871209821
 20
150.267702341313
 10
259.08426749761225
 20
149.92329747221515
 10
250.48260062347822
 20
166.73677455406425
 10
250.66512841791564
 20
166.42671906218857
 10
250.8476562123533
 20
166.116663570313
 10
251.03018400679093
 20
165.8066080784373
 10
251.21271180122835
 20
165.49655258656162
 10
254.82987705425012
 20
158.69888228630634
 10
255.0043644816601
 20
158.36379069876648
 10
255.17885190907032
 20
158.02869911122673
 10
255.35333933648053
 20
157.69360752368698
 10
255.52782676389052
 20
157.3585159361471
 10
249.16536821818522
 20
175.282549842947
 10
249.16536821818522
 20
175.282549842947
 10
250.54505057545384
 20
172.93891722944113
 10
251.92473293272224
 20
170.59528461593538
 10
253.30441528999086
 20
168.25165200242964
 10
254.68409764725948
 20
165.90801938892378
 10
254.68409764725948
 20
165.90801938892378
 10
255.94728364654657
 20
163.48215405213716
 10
257.21046964583365
 20
161.05628871535055
 10
258.47365564512097
 20
158.63042337856382
 10
259.73684164440806
 20
156.2045580417772
 10
259.73684164440806
 20
156.2045580417772
 10
260.87576486184867
 20
153.70742434481372
 10
262.01468807928904
 20
151.21029064785034
 10
273.6654791150586
 20
419.67751324360665
 10
274.32521962313626
 20
422.61096311448773
 10
277.8673129800643
 20
404.873422960903
 10
263.6667424178795
 20
409.0818283060446
 10
264.8033015237711
 20
412.91695977690904
 10
265.9398606296627
 20
416.7520912477735
 10
267.0764197355543
 20
420.5872227186379
 10
268.2129788414459
 20
424.42235418950236
 10
273.2545710950408
 20
406.2404305413156
 10
274.39113020093237
 20
410.07556201218006
 10
275.52768930682396
 20
413.9106934830445
 10
276.66424841271555
 20
417.74582495390894
 10
277.80080751860714
 20
421.5809564247734
 10
267.60823742704133
 20
404.78478082053175
 10
269.1710061976423
 20
410.0580865929704
 10
270.7337749682433
 20
415.3313923654091
 10
272.2965437388443
 20
420.60469813784766
 10
273.8593125094453
 20
425.87800391028634
 10
299.9788880343699
 20
47.38457649719112
 10
299.9788880343699
 20
44.6600889577021
 10
299.9788880343699
 20
41.93560141821308
 10
299.9788880343699
 20
39.21111387872406
 10
299.9788880343699
 20
39.21111387872406
 10
299.9788880343699
 20
36.493879995499526
 10
299.9788880343699
 20
33.77664611227499
 10
299.9788880343699
 20
31.05941222905045
 10
299.9788880343699
 20
28.342178345825914
 10
299.9788880343699
 20
28.342178345825914
 10
299.9788880343699
 20
25.62875040964434
 10
299.9788880343699
 20
22.915322473462766
 10
299.9788880343699
 20
20.20189453728119
 10
299.9788880343699
 20
17.488466601099617
 10
299.9788880343699
 20
17.48846660109973
 10
299.9788880343699
 20
14.77543784922915
 10
299.9788880343699
 20
12.062409097358568
 10
299.9788880343699
 20
9.349380345487987
 10
299.9788880343699
 20
6.636351593617405
 10
299.9788880343699
 20
6.6363515936173485
 10
299.9788880343699
 20
3.917118804970187
 10
299.9788880343699
 20
1.197886016323082
 10
326.89092647958205
 20
29.049147637205635
 10
326.8800220963535
 20
28.416397346907274
 10
326.8691177131252
 20
27.78364705660897
 10
326.8582133298969
 20
27.150896766310666
 10
326.84730894666836
 20
26.518146476012305
 10
330.57435817147007
 20
7.789388345725172
 10
329.64259586526964
 20
12.471577878296955
 10
328.7108335590692
 20
17.15376741086874
 10
327.7790712528688
 20
21.83595694344052
 10
326.84730894666836
 20
26.518146476012305
 10
331.7117792168917
 20
1.3416236055218178
 10
331.178252532447
 20
4.571712597563817
 10
330.5743581714696
 20
7.789388345725115
 10
326.89092647958205
 20
29.04914763720558
 10
327.39559003864815
 20
32.11202153222297
 10
327.87359204776
 20
35.17916937409689
 10
328.32489633860405
 20
38.25035908521767
 10
328.7494687629662
 20
41.32535828214401
 10
329.1472771953154
 20
44.4039342931888
 10
329.51829153523386
 20
47.4858541760218
 10
337.3835629043583
 20
2.11263703469524
 10
337.4460612103253
 20
5.1758439923357855
 10
337.50732785907667
 20
8.239075831641571
 10
337.5673628407071
 20
11.302332057393642
 10
337.62616614551143
 20
14.365612174348371
 10
337.68373776398175
 20
17.42891568728578
 10
337.7400776868112
 20
20.49224210095474
 10
337.79518590489124
 20
23.555590920127543
 10
337.8490624093124
 20
26.61896164954601
 10
337.9017071913663
 20
29.682353793975153
 10
337.95312024253917
 20
32.74576685814975
 10
338.00330155452184
 20
35.80920034682123
 10
338.0522511191998
 20
38.87265376473795
 10
338.09996892865956
 20
41.93612661662462
 10
338.1464549751886
 20
44.99961840722983
 10
338.1917092512699
 20
48.06312864127227
 10
299.9788880343699
 20
99.49732523318517
 10
299.9788880343699
 20
96.74405081233454
 10
299.9788880343699
 20
93.9907763914839
 10
299.9788880343699
 20
93.9907763914839
 10
299.9788880343699
 20
91.23864587035223
 10
299.9788880343699
 20
88.48651534922055
 10
299.9788880343699
 20
85.73438482808888
 10
299.9788880343699
 20
82.9822543069572
 10
299.9788880343699
 20
82.98225430695709
 10
299.9788880343699
 20
80.23589640788589
 10
299.9788880343699
 20
77.48953850881463
 10
299.9788880343699
 20
74.74318060974338
 10
299.9788880343699
 20
71.99682271067218
 10
299.9788880343699
 20
71.99682271067218
 10
299.9788880343699
 20
69.25662369561695
 10
299.9788880343699
 20
66.51642468056173
 10
299.9788880343699
 20
63.7762256655065
 10
299.9788880343699
 20
61.03602665045128
 10
299.9788880343699
 20
61.03602665045139
 10
299.9788880343699
 20
58.304285997008606
 10
299.9788880343699
 20
55.57254534356582
 10
299.9788880343699
 20
52.840804690123036
 10
299.9788880343699
 20
50.10906403668025
 10
299.9788880343699
 20
50.10906403668014
 10
329.8624837096961
 20
50.57088473529791
 10
330.17982767519106
 20
53.65879254029994
 10
330.47029941969436
 20
56.74934394260208
 10
330.7338769644848
 20
59.8423050937501
 10
330.9705403658063
 20
62.93744196295336
 10
331.1802717163787
 20
66.03452035479552
 10
331.36305514675155
 20
69.13330592695274
 10
331.5188768265052
 20
72.23356420792629
 10
331.64772496529736
 20
75.33506061478516
 10
331.74958981375494
 20
78.4375604709133
 10
331.82446366421254
 20
81.5408290237695
 10
331.8723408512942
 20
84.64463146264728
 10
331.8932177523434
 20
87.74873293644464
 10
331.88709278769716
 20
90.85289857143204
 10
331.8539664208042
 20
93.95689348902499
 10
331.7938411581913
 20
97.06048282355755
 10
338.23573174958756
 20
51.1266568234945
 10
338.27852246302564
 20
54.190202458609065
 10
338.3200813846638
 20
57.25376505134625
 10
338.36040850778545
 20
60.31734410643338
 10
338.3995038258704
 20
63.38093912857488
 10
338.43736733259766
 20
66.44454962249966
 10
338.47399902184725
 20
69.50817509290704
 10
338.50939888769653
 20
72.57181504452109
 10
338.54356692442116
 20
75.63546898203634
 10
338.57650312649866
 20
78.69913641016541
 10
338.60820748860306
 20
81.76281683361879
 10
338.63868000561024
 20
84.82650975708441
 10
338.6679206725935
 20
87.89021468527545
 10
338.69592948482523
 20
90.95393112287599
 10
338.7227064377762
 20
94.01765857459532
 10
338.7482515271199
 20
97.08139654511376
 10
299.9788880343699
 20
148.80601013045077
 10
299.9788880343699
 20
148.8060101304509
 10
299.9788880343699
 20
146.0864261118836
 10
299.9788880343699
 20
143.36684209331645
 10
299.9788880343699
 20
140.6472580747493
 10
299.9788880343699
 20
137.927674056182
 10
299.9788880343699
 20
137.927674056182
 10
299.9788880343699
 20
135.19263082050588
 10
299.9788880343699
 20
132.45758758482964
 10
299.9788880343699
 20
129.7225443491534
 10
299.9788880343699
 20
126.98750111347726
 10
299.9788880343699
 20
126.98750111347726
 10
299.9788880343699
 20
124.24290227289316
 10
299.9788880343699
 20
121.49830343230906
 10
299.9788880343699
 20
118.75370459172507
 10
299.9788880343699
 20
116.00910575114096
 10
299.9788880343699
 20
116.00910575114096
 10
299.9788880343699
 20
113.25779783207736
 10
299.9788880343699
 20
110.5064899130137
 10
299.9788880343699
 20
107.75518199395003
 10
299.9788880343699
 20
105.00387407488643
 10
299.9788880343699
 20
105.00387407488643
 10
299.9788880343699
 20
102.2505996540358
 10
331.7067215492734
 20
100.16343174005112
 10
331.5926141860084
 20
103.26550545198597
 10
331.45152770239974
 20
106.36646923906403
 10
331.28347277384205
 20
109.46608846497162
 10
331.08846211631385
 20
112.56412859513114
 10
330.8665104854156
 20
115.66035521444826
 10
330.61763467525225
 20
118.75453404505004
 10
330.34185351716405
 20
121.84643096400941
 10
330.03918787830025
 20
124.93581202106259
 10
329.7096606600405
 20
128.0224434563096
 10
329.35329679626284
 20
131.10609171790168
 10
328.97012325145624
 20
134.1865234797151
 10
328.5601690186802
 20
137.26350565900304
 10
328.12346511737155
 20
140.33680543403477
 10
327.66004459099713
 20
143.40619026170975
 10
327.16994250455355
 20
146.47142789515556
 10
326.6531959419135
 20
149.5322864012985
 10
338.77256474872365
 20
100.14514453913051
 10
338.7956460986593
 20
103.20890206134288
 10
338.81749557319426
 20
106.27266861642647
 10
338.838113168797
 20
109.33644370908246
 10
338.8574988821324
 20
112.40022684398366
 10
338.87565271006724
 20
115.46401752582847
 10
338.8925746496684
 20
118.52781525928708
 10
338.9082646981974
 20
121.59161954904903
 10
338.92272285311947
 20
124.65542989980247
 10
338.9359491120963
 20
127.71924581621454
 10
338.9479434729906
 20
130.7830668029784
 10
338.95870593386235
 20
133.84689236475924
 10
338.96823649297266
 20
136.910722006249
 10
338.976535148779
 20
139.97455523211136
 10
338.9836018999408
 20
143.03839154703678
 10
338.98943674531665
 20
146.10223045568807
 10
338.99403968396064
 20
149.16607146274805
 10
300.05965348532004
 20
199.68052205268395
 10
300.0327316683365
 20
197.48293031587582
 10
300.0058098513532
 20
195.28533857906757
 10
299.9788880343699
 20
193.08774684225932
 10
299.9788880343699
 20
193.08774684225932
 10
299.9788880343699
 20
190.87960501765565
 10
299.9788880343699
 20
188.67146319305186
 10
299.9788880343699
 20
186.46332136844808
 10
299.9788880343699
 20
184.2551795438444
 10
299.9788880343699
 20
184.2551795438443
 10
299.9788880343699
 20
182.03683386080888
 10
299.9788880343699
 20
179.8184881777736
 10
299.9788880343699
 20
177.60014249473818
 10
299.9788880343699
 20
175.38179681170277
 10
299.9788880343699
 20
175.38179681170277
 10
299.9788880343699
 20
173.1605988344886
 10
299.9788880343699
 20
170.93940085727434
 10
299.9788880343699
 20
168.71820288006006
 10
299.9788880343699
 20
166.4970049028459
 10
299.9788880343699
 20
166.4970049028459
 10
299.9788880343699
 20
164.28098845359852
 10
299.9788880343699
 20
162.06497200435115
 10
299.9788880343699
 20
159.84895555510388
 10
299.9788880343699
 20
157.6329391058565
 10
299.9788880343699
 20
157.6329391058565
 10
299.9788880343699
 20
155.42620686200507
 10
299.9788880343699
 20
153.21947461815364
 10
299.9788880343699
 20
151.0127423743022
 10
326.1098440030207
 20
152.58853417841476
 10
325.5399278009306
 20
155.6399399736547
 10
324.9434904586999
 20
158.68627290053894
 10
324.32057710612344
 20
161.7273024564313
 10
323.67123487631943
 20
164.76279853997676
 10
322.9955129021637
 20
167.79253146851534
 10
323.0041776120279
 20
198.74054979257357
 10
322.9955129021637
 20
195.51602242255342
 10
338.99741071513154
 20
152.22991407289896
 10
338.99954983828184
 20
155.29375779080272
 10
339.00045705306775
 20
158.35760212114803
 10
339.00013235934193
 20
161.42144656859648
 10
338.9985757571553
 20
164.48529063783644
 10
338.99578724676167
 20
167.5491338335297
 10
338.99176682861116
 20
170.6129756603583
 10
338.9865145033541
 20
173.67681562300436
 10
338.98003027183813
 20
176.74065322613023
 10
338.9723141351119
 20
179.80448797442557
 10
338.96336609442506
 20
182.8683193725534
 10
338.95318615122187
 20
185.9321469252045
 10
338.94177430714944
 20
188.99597013704317
 10
338.9132645058203
 20
195.54198713688697
 10
338.89789426321886
 20
198.6240050943253
 10
330.9955129021637
 20
195.54198713697883
 10
328.99551304261513
 20
195.54198713697883
 10
326.99551318306635
 20
195.54198713697883
 10
324.99551332351757
 20
195.54198713697883
 10
322.995513463969
 20
195.54198713697883
 10
330.9955129021637
 20
188.9959701369787
 10
328.9955129021637
 20
188.9959701369787
 10
326.9955129021637
 20
188.9959701369787
 10
324.9955129021637
 20
188.9959701369787
 10
322.9955129021637
 20
188.9959701369787
 10
338.9132576114357
 20
195.54342799192227
 10
338.92040216164514
 20
193.90264572624358
 10
338.9275467118546
 20
192.26186346056488
 10
338.934691262064
 20
190.6210811948862
 10
338.94183581227344
 20
188.9802989292075
 10
330.9955129021637
 20
187.38051913697882
 10
330.9955129021637
 20
187.78438188697874
 10
330.9955129021637
 20
188.18824463697877
 10
330.9955129021637
 20
188.5921073869788
 10
330.9955129021637
 20
188.9959701369787
 10
330.9955129021637
 20
187.38051913697882
 10
328.9955129021637
 20
187.38051913697882
 10
326.9955129021637
 20
187.38051913697882
 10
324.9955129021637
 20
187.38051913697882
 10
322.9955129021637
 20
187.38051913697882
 10
330.9955129021637
 20
188.9959701369787
 10
330.9955129021637
 20
190.63247438697874
 10
330.9955129021637
 20
192.26897863697877
 10
330.9955129021637
 20
193.9054828869788
 10
330.9955129021637
 20
195.54198713697883
 10
330.9955129021637
 20
197.1574011369787
 10
328.99607417906464
 20
197.1574011369787
 10
326.9966354559656
 20
197.1574011369787
 10
324.99719673286654
 20
197.1574011369787
 10
322.9977580097675
 20
197.1574011369787
 10
330.9955129021637
 20
195.54198713697883
 10
330.9955129021637
 20
195.9458406369788
 10
330.9955129021637
 20
196.34969413697877
 10
330.9955129021637
 20
196.75354763697874
 10
330.9955129021637
 20
197.1574011369787
 10
322.9955129021637
 20
188.9959701369787
 10
322.9955129021637
 20
183.69511046986293
 10
322.9955129021637
 20
178.39425080274714
 10
322.9955129021637
 20
173.09339113563135
 10
322.9955129021637
 20
167.79253146851556
 10
301.2414679943879
 20
249.24357332137004
 10
301.2414679943879
 20
249.24357332137004
 10
301.21519508038614
 20
248.1753548341186
 10
301.1889221663846
 20
247.10713634686704
 10
301.16264925238283
 20
246.0389178596156
 10
301.13637633838107
 20
244.97069937236415
 10
301.13637633838107
 20
244.97069937236415
 10
301.1099407437973
 20
243.91096513653872
 10
301.0835051492136
 20
242.8512309007133
 10
301.0570695546296
 20
241.79149666488775
 10
301.03063396004586
 20
240.73176242906231
 10
301.03063396004586
 20
240.73176242906231
 10
301.0040821650464
 20
239.67971858061514
 10
300.9775303700467
 20
238.6276747321681
 10
300.9509785750472
 20
237.57563088372092
 10
300.9244267800477
 20
236.52358703527375
 10
300.9244267800477
 20
236.52358703527364
 10
300.897770404674
 20
235.47458138806905
 10
300.8711140293003
 20
234.42557574086436
 10
300.8444576539266
 20
233.37657009365967
 10
300.8178012785529
 20
232.32756444645509
 10
300.8178012785529
 20
232.3275644464552
 10
300.7910519428465
 20
231.2746993039632
 10
300.7643026071403
 20
230.22183416147107
 10
300.7375532714341
 20
229.16896901897894
 10
300.71080393572765
 20
228.11610387648693
 10
300.71080393572765
 20
228.11610387648693
 10
300.68398487977197
 20
227.05031802567294
 10
300.6571658238163
 20
225.98453217485894
 10
300.6303467678604
 20
224.91874632404483
 10
300.6035277119047
 20
223.85296047323084
 10
300.6035277119047
 20
223.85296047323084
 10
300.5766389356995
 20
222.76176570283485
 10
300.5497501594941
 20
221.67057093243875
 10
300.52286138328896
 20
220.57937616204276
 10
300.4959726070838
 20
219.48818139164678
 10
300.4959726070838
 20
219.4881813916469
 10
300.44342677908026
 20
217.27872936056656
 10
300.39088095107695
 20
215.0692773294861
 10
300.33833512307365
 20
212.85982529840567
 10
300.2857892950701
 20
210.65037326732534
 10
300.2857892950701
 20
210.65037326732522
 10
300.23598579687837
 20
208.45730839786688
 10
300.1861822986866
 20
206.26424352840866
 10
300.1363788004951
 20
204.07117865895043
 10
300.08657530230334
 20
201.8781137894921
 10
300.08657530230334
 20
201.8781137894922
 10
325.2123175578445
 20
247.0451536391348
 10
324.9440217644917
 20
243.8317957063058
 10
324.69299911332087
 20
240.6170422996189
 10
324.45925685446036
 20
237.40098626875897
 10
324.24280173893953
 20
234.1837205010346
 10
324.04364001849444
 20
230.96533791869342
 10
323.8617774453869
 20
227.74593147624023
 10
323.69721927223827
 20
224.5255941577508
 10
323.54997025187777
 20
221.30441897418643
 10
323.42003463720584
 20
218.08249896070913
 10
323.3074161810705
 20
214.85992717399188
 10
323.212118136159
 20
211.63679668953398
 10
323.1341432549043
 20
208.41320059896998
 10
323.07349378940603
 20
205.18923200738254
 10
323.0301714913637
 20
201.96498403061355
 10
338.8812774401672
 20
201.7060165828699
 10
338.86341403938195
 20
204.78802109831793
 10
338.84430406378715
 20
207.87001813646748
 10
338.8239475165069
 20
210.95200719311788
 10
338.8023444008745
 20
214.0339877640697
 10
338.77949472042246
 20
217.11595934512502
 10
338.75539847888876
 20
220.19792143208747
 10
338.7300556802152
 20
223.27987352076195
 10
338.703466328549
 20
226.3618151069552
 10
338.6756304282385
 20
229.44374568647572
 10
338.64654798383935
 20
232.52566475513368
 10
338.6162190001073
 20
235.6075718087411
 10
338.5846434820055
 20
238.68946634311226
 10
338.5518214346989
 20
241.77134785406304
 10
338.5177528635563
 20
244.85321583741177
 10
338.4824377741538
 20
247.93506978897892
 10
302.3974529703805
 20
298.37582882223455
 10
302.36150056174665
 20
296.895320325737
 10
302.32554815311255
 20
295.4148118292393
 10
302.2895957444787
 20
293.9343033327417
 10
302.2895957444787
 20
293.9343033327417
 10
302.2546077992954
 20
292.4596880659104
 10
302.21961985411235
 20
290.98507279907926
 10
302.1846319089291
 20
289.510457532248
 10
302.1496439637458
 20
288.0358422654167
 10
302.1496439637458
 20
288.0358422654167
 10
302.1254626572277
 20
286.997666824308
 10
302.10128135070954
 20
285.9594913831993
 10
302.0771000441914
 20
284.9213159420905
 10
302.0529187376733
 20
283.88314050098177
 10
302.0529187376733
 20
283.88314050098177
 10
302.0284585501572
 20
282.8250474075694
 10
302.00399836264114
 20
281.76695431415703
 10
301.9795381751253
 20
280.70886122074467
 10
301.95507798760923
 20
279.6507681273323
 10
301.95507798760923
 20
279.6507681273323
 10
301.93031567901244
 20
278.57652347682676
 10
301.9055533704154
 20
277.5022788263211
 10
301.8807910618184
 20
276.4280341758156
 10
301.8560287532216
 20
275.35378952531005
 10
301.8560287532216
 20
275.35378952531016
 10
301.8309875636269
 20
274.2678698588593
 10
301.8059463740319
 20
273.1819501924085
 10
301.7809051844372
 20
272.09603052595776
 10
301.75586399484246
 20
271.0101108595069
 10
301.75586399484246
 20
271.0101108595069
 10
301.73057878437476
 20
269.91795863958225
 10
301.70529357390683
 20
268.82580641965774
 10
301.6800083634389
 20
267.7336541997331
 10
301.6547231529712
 20
266.6415019798085
 10
301.6547231529712
 20
266.6415019798085
 10
301.6291939216303
 20
265.5474459590156
 10
301.6036646902894
 20
264.4533899382227
 10
301.5781354589485
 20
263.3593339174298
 10
301.5526062276076
 20
262.2652778966369
 10
301.5526062276076
 20
262.2652778966369
 10
301.52686783551826
 20
261.1735310754967
 10
301.50112944342914
 20
260.08178425435653
 10
301.47539105134
 20
258.99003743321646
 10
301.44965265925066
 20
257.89829061207627
 10
301.44965265925066
 20
257.89829061207627
 10
301.4237167264546
 20
256.8122831151418
 10
301.3977807936585
 20
255.7262756182074
 10
301.37184486086267
 20
254.64026812127292
 10
301.3459089280666
 20
253.55426062433844
 10
301.3459089280666
 20
253.55426062433833
 10
301.31979869464703
 20
252.47658879859625
 10
301.29368846122725
 20
251.39891697285418
 10
301.26757822780746
 20
250.3212451471121
 10
326.45806969419345
 20
259.8827751051117
 10
327.6317563723783
 20
270.7602548745924
 10
328.8054430505633
 20
281.63773464407313
 10
329.9791297287484
 20
292.51521441355385
 10
326.45806969419345
 20
259.88277510511216
 10
326.12076380773397
 20
256.675926718274
 10
325.8006970763622
 20
253.46731188868216
 10
325.4978787443624
 20
250.25702328872558
 10
338.4458761722658
 20
251.01690920458725
 10
338.4080680638749
 20
254.0987335800619
 10
338.3690134551666
 20
257.18054241123036
 10
338.32871235253015
 20
260.2623351939229
 10
338.2871647625584
 20
263.3441114239723
 10
338.24437069204714
 20
266.42587059721393
 10
338.20033014799856
 20
269.50761220948607
 10
338.15504313761767
 20
272.5893357566298
 10
338.1085096683132
 20
275.67104073448934
 10
338.06072974769586
 20
278.7527266389118
 10
338.0117033835854
 20
281.83439296574716
 10
337.961430584
 20
284.91603921084925
 10
337.90991135716513
 20
287.9976648700746
 10
337.8571457115081
 20
291.0792694392833
 10
337.8031336556619
 20
294.16085241433893
 10
337.7478751984622
 20
297.24241329110873
 10
303.65069769435786
 20
348.4041831466741
 10
303.61609321054675
 20
346.9611426106093
 10
303.61609321054675
 20
346.9611426106093
 10
303.5804429229938
 20
345.5113885211746
 10
303.5447926354409
 20
344.0616344317398
 10
303.50914234788775
 20
342.6118803423051
 10
303.4734920603348
 20
341.1621262528704
 10
303.4734920603348
 20
341.1621262528704
 10
303.43701674983004
 20
339.7043822959213
 10
303.40054143932525
 20
338.2466383389723
 10
303.36406612882047
 20
336.7888943820233
 10
303.3275908183157
 20
335.33115042507416
 10
303.3275908183157
 20
335.33115042507416
 10
303.2905228856905
 20
333.8655978596338
 10
303.25345495306533
 20
332.40004529419343
 10
303.21638702044015
 20
330.93449272875307
 10
303.179319087815
 20
329.4689401633127
 10
303.179319087815
 20
329.4689401633127
 10
303.14186769381786
 20
327.99561286653477
 10
303.10441629982074
 20
326.52228556975683
 10
303.0669649058236
 20
325.048958272979
 10
303.0295135118265
 20
323.57563097620107
 10
303.0295135118265
 20
323.57563097620107
 10
302.99193429737215
 20
322.0972653980475
 10
302.9543550829176
 20
320.61889981989384
 10
302.916775868463
 20
319.14053424174017
 10
302.87919665400864
 20
317.6621686635866
 10
302.87919665400864
 20
317.6621686635866
 10
302.8416639197203
 20
316.1787736151423
 10
302.8041311854322
 20
314.69537856669785
 10
302.7665984511441
 20
313.21198351825353
 10
302.72906571685576
 20
311.7285884698092
 10
302.72906571685576
 20
311.7285884698092
 10
302.69185834373184
 20
310.2445682214492
 10
302.6546509706077
 20
308.76054797308916
 10
302.61744359748354
 20
307.27652772472925
 10
302.5802362243596
 20
305.7925074763692
 10
302.5802362243596
 20
305.7925074763692
 10
302.5435285130234
 20
304.3084649369599
 10
302.5068208016869
 20
302.8244223975506
 10
302.47011309035065
 20
301.3403798581413
 10
302.4334053790144
 20
299.856337318732
 10
302.4334053790144
 20
299.85633731873213
 10
333.4611876016197
 20
348.67444446374645
 10
333.4611876016197
 20
346.3038626380735
 10
331.1528164069332
 20
303.392694183035
 10
331.49401124376527
 20
306.68226116285973
 10
331.8079963954915
 20
309.9745366914158
 10
332.09475039796007
 20
313.26929570741424
 10
332.35425364855087
 20
316.5663129797938
 10
332.5864884075165
 20
319.86536312311716
 10
332.791438799195
 20
323.1662206129803
 10
332.96909081309445
 20
326.4686598014274
 10
333.1194323048512
 20
329.7724549323776
 10
333.2424529970599
 20
333.07738015705706
 10
333.3381444799761
 20
336.3832095494387
 10
333.4065002120915
 20
339.6897171216848
 10
333.4475155205805
 20
342.99667683959854
 10
333.4611876016197
 20
346.3038626380734
 10
331.1528164069332
 20
303.39269418303456
 10
337.6913703489504
 20
300.3239515654632
 10
337.63361911636866
 20
303.4054667332766
 10
337.5746215101658
 20
306.48695829042754
 10
337.51437753999244
 20
309.5684257327978
 10
337.4528872157066
 20
312.6498685562733
 10
337.39015054736456
 20
315.73128625674406
 10
337.3261675452336
 20
318.8126783301044
 10
337.2609382197775
 20
321.8940442722526
 10
337.1944625816682
 20
324.97538357909093
 10
337.12674064178236
 20
328.05669574652677
 10
337.0577724111986
 20
331.1379802704712
 10
336.9875579011982
 20
334.2192366468403
 10
336.91609712327
 20
337.30046437155454
 10
336.84339008910365
 20
340.38166294053906
 10
336.76943681059356
 20
343.4628318497239
 10
336.69423729983873
 20
346.5439705950439
 10
336.6177915691401
 20
349.6250786724387
 10
306.81197146510476
 20
396.2955383647644
 10
310.16771150211116
 20
395.3010491471092
 10
310.16771150211116
 20
395.3010491471092
 10
311.30427060800275
 20
399.13618061797365
 10
304.4722113936475
 20
389.36871429215194
 10
304.44232464671586
 20
387.46701085751556
 10
304.4124378997842
 20
385.5653074228792
 10
304.38255115285256
 20
383.6636039882428
 10
304.3526644059209
 20
381.76190055360644
 10
304.3526644059209
 20
381.7619005536063
 10
304.32663551279234
 20
380.2840006489803
 10
304.30060661966354
 20
378.8061007443541
 10
304.274577726535
 20
377.32820083972797
 10
304.2485488334064
 20
375.8503009351019
 10
304.2485488334064
 20
375.8503009351019
 10
304.2203469925032
 20
374.3930167096378
 10
304.1921451516
 20
372.93573248417374
 10
304.1639433106968
 20
371.4784482587097
 10
304.13574146979363
 20
370.02116403324555
 10
304.13574146979363
 20
370.02116403324555
 10
304.105610701989
 20
368.5770232635116
 10
304.07547993418416
 20
367.13288249377774
 10
304.0453491663793
 20
365.6887417240439
 10
304.0152183985747
 20
364.24460095430993
 10
304.0152183985747
 20
364.24460095430993
 10
303.98337948465837
 20
362.80575246016224
 10
303.95154057074205
 20
361.36690396601443
 10
303.91970165682596
 20
359.9280554718666
 10
303.88786274290965
 20
358.48920697771894
 10
303.88786274290965
 20
358.4892069777188
 10
303.8545248436301
 20
357.05023142200616
 10
303.82118694435076
 20
355.6112558662936
 10
303.7878490450712
 20
354.1722803105811
 10
303.75451114579164
 20
352.7333047548684
 10
303.75451114579164
 20
352.7333047548684
 10
303.71990666198053
 20
351.2902642188036
 10
303.6853021781692
 20
349.8472236827388
 10
336.4611876016197
 20
355.7861899407653
 10
335.7111876016197
 20
355.7861899407653
 10
334.9611876016197
 20
355.7861899407653
 10
334.2111876016197
 20
355.7861899407653
 10
333.4611876016197
 20
355.7861899407653
 10
333.4611876016197
 20
355.7861899407653
 10
333.4611876016197
 20
353.41560811509237
 10
333.4611876016197
 20
351.0450262894194
 10
336.5400996310059
 20
352.7061555778532
 10
336.4611614981445
 20
355.78720080723724
 10
304.59661555875255
 20
398.6541671291267
 10
304.5748396008405
 20
396.81540342757285
 10
304.5748396008405
 20
396.81540342757285
 10
304.54918254904214
 20
394.9537311437176
 10
304.523525497244
 20
393.0920588598624
 10
304.4978684454459
 20
391.23038657600705
 10
304.4722113936475
 20
389.3687142921518
 10
304.9658557233556
 20
396.8426433787006
 10
313.8615285962587
 20
407.7652264274186
 10
314.71394792567753
 20
410.64157503056697
 10
307.94853057099635
 20
400.13066983562885
 10
309.08508967688795
 20
403.9658013064932
 10
310.22164878277954
 20
407.8009327773576
 10
311.35820788867113
 20
411.63606424822206
 10
312.44082971389435
 20
402.9713120888381
 10
313.57738881978594
 20
406.80644355970253
 10
314.71394792567753
 20
410.64157503056697
 10
304.9330622425234
 20
448.52291916340414
 10
304.9330622425234
 20
448.52291916340414
 10
304.9275427227751
 20
446.6482031574668
 10
304.9220232030268
 20
444.7734871515295
 10
304.9165036832785
 20
442.89877114559215
 10
304.9109841635302
 20
441.0240551396548
 10
304.9109841635302
 20
441.0240551396548
 10
304.90361705717146
 20
439.1603118380739
 10
304.89624995081294
 20
437.29656853649294
 10
304.8888828444542
 20
435.4328252349119
 10
304.88151573809546
 20
433.56908193333095
 10
304.88151573809546
 20
433.56908193333095
 10
304.87194082383735
 20
431.7189753300563
 10
304.86236590957924
 20
429.8688687267818
 10
304.85279099532136
 20
428.01876212350726
 10
304.84321608106325
 20
426.1686555202326
 10
304.84321608106325
 20
426.1686555202326
 10
304.8310963777003
 20
424.3300678747489
 10
304.81897667433714
 20
422.4914802292651
 10
304.80685697097397
 20
420.6528925837813
 10
304.794737267611
 20
418.8143049382976
 10
304.794737267611
 20
418.8143049382976
 10
304.77974741397884
 20
416.98313884301285
 10
304.7647575603469
 20
415.1519727477282
 10
304.7497677067149
 20
413.3208066524435
 10
304.73477785308273
 20
411.48964055715874
 10
304.73477785308273
 20
411.4896405571586
 10
304.71656924793433
 20
409.659844976316
 10
304.6983606427857
 20
407.83004939547345
 10
304.6801520376371
 20
406.0002538146308
 10
304.66194343248867
 20
404.17045823378817
 10
304.66194343248867
 20
404.17045823378817
 10
304.64016747457663
 20
402.33169453223434
 10
304.6183915166646
 20
400.4929308306805
 10
306.1024148292472
 20
400.677774849565
 10
307.2389739351388
 20
404.51290632042947
 10
308.3755330410304
 20
408.3480377912939
 10
309.512092146922
 20
412.18316926215834
 10
304.9788880343699
 20
497.17296317704495
 10
304.9788880343699
 20
493.4824579396559
 10
304.9788880343699
 20
489.7919527022668
 10
304.9788880343699
 20
486.10144746487765
 10
304.9788880343699
 20
486.10144746487765
 10
304.97762236286985
 20
484.25058936940115
 10
304.9763566913698
 20
482.39973127392454
 10
304.9750910198695
 20
480.54887317844805
 10
304.9738253483695
 20
478.69801508297155
 10
304.9738253483695
 20
478.69801508297155
 10
304.9723844632142
 20
476.8158604048043
 10
304.9709435780587
 20
474.9337057266371
 10
304.96950269290346
 20
473.0515510484697
 10
304.9680618077482
 20
471.1693963703025
 10
304.9680618077482
 20
471.1693963703025
 10
304.96609802072203
 20
469.2810332132432
 10
304.96413423369586
 20
467.3926700561839
 10
304.96217044666946
 20
465.5043068991246
 10
304.9602066596433
 20
463.61594374206527
 10
304.9602066596433
 20
463.61594374206527
 10
304.95740622962376
 20
461.72686209096787
 10
304.954605799604
 20
459.83778043987036
 10
304.95180536958424
 20
457.94869878877296
 10
304.9490049395647
 20
456.05961713767556
 10
304.9490049395647
 20
456.0596171376757
 10
304.9450192653044
 20
454.17544264410776
 10
304.94103359104406
 20
452.29126815053996
 10
304.93704791678374
 20
450.40709365697205
 10
304.9788880343699
 20
500.8634684144341
 10
344.9788880343699
 20
500.8634684144341
 10
324.9788880343699
 20
500.8634684144341
 10
304.9788880343699
 20
500.8634684144341
 10
396.7297627444593
 20
47.38457649719112
 10
396.7498094432167
 20
44.6600889577021
 10
396.7698561419743
 20
41.93560141821308
 10
396.7899028407319
 20
39.21111387872406
 10
396.7899028407319
 20
39.21111387872406
 10
396.8101809705511
 20
36.493879995499526
 10
396.83045910037026
 20
33.77664611227499
 10
396.8507372301897
 20
31.05941222905045
 10
396.87101536000887
 20
28.342178345825914
 10
396.87101536000887
 20
28.342178345825914
 10
396.89182171178254
 20
25.62875040964434
 10
396.912628063556
 20
22.915322473462766
 10
396.93343441532966
 20
20.20189453728119
 10
396.95424076710333
 20
17.488466601099617
 10
396.95424076710333
 20
17.48846660109973
 10
396.9757587540669
 20
14.77543784922915
 10
396.9972767410304
 20
12.062409097358568
 10
397.01879472799396
 20
9.349380345487987
 10
397.0403127149575
 20
6.636351593617405
 10
397.0403127149575
 20
6.6363515936173485
 10
397.06276673023467
 20
3.917118804970187
 10
397.08522074551183
 20
1.197886016323082
 10
356.89092647958205
 20
29.049147637205635
 10
356.8800220963535
 20
28.416397346907274
 10
356.8691177131252
 20
27.78364705660897
 10
356.8582133298969
 20
27.150896766310666
 10
356.84730894666836
 20
26.518146476012305
 10
360.57435817147007
 20
7.789388345725172
 10
359.64259586526964
 20
12.471577878296955
 10
358.7108335590692
 20
17.15376741086874
 10
357.7790712528688
 20
21.83595694344052
 10
356.84730894666836
 20
26.518146476012305
 10
361.7117792168917
 20
1.3416236055218178
 10
361.178252532447
 20
4.571712597563817
 10
360.5743581714696
 20
7.789388345725115
 10
356.89092647958205
 20
29.04914763720558
 10
357.39559003864815
 20
32.11202153222297
 10
357.87359204776
 20
35.17916937409689
 10
358.32489633860405
 20
38.25035908521767
 10
358.7494687629662
 20
41.32535828214401
 10
359.1472771953154
 20
44.4039342931888
 10
359.51829153523386
 20
47.4858541760218
 10
367.3835629043583
 20
2.11263703469524
 10
367.4460612103253
 20
5.1758439923357855
 10
367.50732785907667
 20
8.239075831641571
 10
367.5673628407071
 20
11.302332057393642
 10
367.62616614551143
 20
14.365612174348371
 10
367.68373776398175
 20
17.42891568728578
 10
367.7400776868112
 20
20.49224210095474
 10
367.79518590489124
 20
23.555590920127543
 10
367.8490624093124
 20
26.61896164954601
 10
367.9017071913663
 20
29.682353793975153
 10
367.95312024253917
 20
32.74576685814975
 10
368.00330155452184
 20
35.80920034682123
 10
368.0522511191998
 20
38.87265376473795
 10
368.09996892865956
 20
41.93612661662462
 10
368.1464549751886
 20
44.99961840722983
 10
368.1917092512699
 20
48.06312864127227
 10
396.33846626176
 20
99.49732523318517
 10
396.3601734196443
 20
96.74405081233454
 10
396.3818805775286
 20
93.9907763914839
 10
396.3818805775286
 20
93.9907763914839
 10
396.40297473211353
 20
91.23864587035223
 10
396.4240688866985
 20
88.48651534922055
 10
396.4451630412834
 20
85.73438482808888
 10
396.46625719586837
 20
82.9822543069572
 10
396.46625719586837
 20
82.98225430695709
 10
396.4868420343305
 20
80.23589640788589
 10
396.5074268727924
 20
77.48953850881463
 10
396.5280117112543
 20
74.74318060974338
 10
396.5485965497164
 20
71.99682271067218
 10
396.5485965497164
 20
71.99682271067218
 10
396.5688241345215
 20
69.25662369561695
 10
396.58905171932633
 20
66.51642468056173
 10
396.6092793041312
 20
63.7762256655065
 10
396.62950688893625
 20
61.03602665045128
 10
396.62950688893625
 20
61.03602665045139
 10
396.6495591781277
 20
58.304285997008606
 10
396.6696114673191
 20
55.57254534356582
 10
396.6896637565103
 20
52.840804690123036
 10
396.7097160457017
 20
50.10906403668025
 10
396.7097160457017
 20
50.10906403668014
 10
359.8624837096961
 20
50.57088473529791
 10
360.17982767519106
 20
53.65879254029994
 10
360.47029941969436
 20
56.74934394260208
 10
360.7338769644848
 20
59.8423050937501
 10
360.9705403658063
 20
62.93744196295336
 10
361.1802717163787
 20
66.03452035479552
 10
361.36305514675155
 20
69.13330592695274
 10
361.5188768265052
 20
72.23356420792629
 10
361.64772496529736
 20
75.33506061478516
 10
361.74958981375494
 20
78.4375604709133
 10
361.82446366421254
 20
81.5408290237695
 10
361.8723408512942
 20
84.64463146264728
 10
361.8932177523434
 20
87.74873293644464
 10
361.88709278769716
 20
90.85289857143204
 10
361.8539664208042
 20
93.95689348902499
 10
361.7938411581913
 20
97.06048282355755
 10
368.23573174958756
 20
51.1266568234945
 10
368.27852246302564
 20
54.190202458609065
 10
368.3200813846638
 20
57.25376505134625
 10
368.36040850778545
 20
60.31734410643338
 10
368.3995038258704
 20
63.38093912857488
 10
368.43736733259766
 20
66.44454962249966
 10
368.47399902184725
 20
69.50817509290704
 10
368.50939888769653
 20
72.57181504452109
 10
368.54356692442116
 20
75.63546898203634
 10
368.57650312649866
 20
78.69913641016541
 10
368.60820748860306
 20
81.76281683361879
 10
368.63868000561024
 20
84.82650975708441
 10
368.6679206725935
 20
87.89021468527545
 10
368.69592948482523
 20
90.95393112287599
 10
368.7227064377762
 20
94.01765857459532
 10
368.7482515271199
 20
97.08139654511376
 10
395.9236137445123
 20
148.80601013045077
 10
395.9236137445123
 20
148.8060101304509
 10
395.9475917359541
 20
146.0864261118836
 10
395.97156972739594
 20
143.36684209331645
 10
395.99554771883777
 20
140.6472580747493
 10
396.0195257102796
 20
137.927674056182
 10
396.0195257102796
 20
137.927674056182
 10
396.0430711205745
 20
135.19263082050588
 10
396.0666165308694
 20
132.45758758482964
 10
396.0901619411643
 20
129.7225443491534
 10
396.1137073514592
 20
126.98750111347726
 10
396.1137073514592
 20
126.98750111347726
 10
396.13669163346526
 20
124.24290227289316
 10
396.1596759154713
 20
121.49830343230906
 10
396.18266019747716
 20
118.75370459172507
 10
396.2056444794832
 20
116.00910575114096
 10
396.2056444794832
 20
116.00910575114096
 10
396.2279963461101
 20
113.25779783207736
 10
396.2503482127372
 20
110.5064899130137
 10
396.2727000793643
 20
107.75518199395003
 10
396.2950519459912
 20
105.00387407488643
 10
396.2950519459912
 20
105.00387407488643
 10
396.3167591038755
 20
102.2505996540358
 10
361.7067215492734
 20
100.16343174005112
 10
361.5926141860084
 20
103.26550545198597
 10
361.45152770239974
 20
106.36646923906403
 10
361.28347277384205
 20
109.46608846497162
 10
361.08846211631385
 20
112.56412859513114
 10
360.8665104854156
 20
115.66035521444826
 10
360.61763467525225
 20
118.75453404505004
 10
360.34185351716405
 20
121.84643096400941
 10
360.03918787830025
 20
124.93581202106259
 10
359.7096606600405
 20
128.0224434563096
 10
359.35329679626284
 20
131.10609171790168
 10
358.97012325145624
 20
134.1865234797151
 10
358.5601690186802
 20
137.26350565900304
 10
358.12346511737155
 20
140.33680543403477
 10
357.66004459099713
 20
143.40619026170975
 10
357.16994250455355
 20
146.47142789515556
 10
356.6531959419135
 20
149.5322864012985
 10
368.77256474872365
 20
100.14514453913051
 10
368.7956460986593
 20
103.20890206134288
 10
368.81749557319426
 20
106.27266861642647
 10
368.838113168797
 20
109.33644370908246
 10
368.8574988821324
 20
112.40022684398366
 10
368.87565271006724
 20
115.46401752582847
 10
368.8925746496684
 20
118.52781525928708
 10
368.9082646981974
 20
121.59161954904903
 10
368.92272285311947
 20
124.65542989980247
 10
368.9359491120963
 20
127.71924581621454
 10
368.9479434729906
 20
130.7830668029784
 10
368.95870593386235
 20
133.84689236475924
 10
368.96823649297266
 20
136.910722006249
 10
368.976535148779
 20
139.97455523211136
 10
368.9836018999408
 20
143.03839154703678
 10
368.98943674531665
 20
146.10223045568807
 10
368.99403968396064
 20
149.16607146274805
 10
395.29829542924836
 20
199.68052205268395
 10
395.34216221569545
 20
197.48293031587582
 10
395.38602900214255
 20
195.28533857906757
 10
395.4298957885899
 20
193.08774684225932
 10
395.4298957885899
 20
193.08774684225932
 10
395.46453019027103
 20
190.87960501765565
 10
395.4991645919522
 20
188.67146319305186
 10
395.5337989936336
 20
186.46332136844808
 10
395.56843339531474
 20
184.2551795438444
 10
395.56843339531474
 20
184.2551795438443
 10
395.5959176873587
 20
182.03683386080888
 10
395.6234019794026
 20
179.8184881777736
 10
395.65088627144655
 20
177.60014249473818
 10
395.6783705634905
 20
175.38179681170277
 10
395.6783705634905
 20
175.38179681170277
 10
395.7008800490032
 20
173.1605988344886
 10
395.7233895345162
 20
170.93940085727434
 10
395.7458990200289
 20
168.71820288006006
 10
395.76840850554163
 20
166.4970049028459
 10
395.76840850554163
 20
166.4970049028459
 10
395.7880569279919
 20
164.28098845359852
 10
395.8077053504419
 20
162.06497200435115
 10
395.8273537728919
 20
159.84895555510388
 10
395.84700219534216
 20
157.6329391058565
 10
395.84700219534216
 20
157.6329391058565
 10
395.8661550826346
 20
155.42620686200507
 10
395.8853079699272
 20
153.21947461815364
 10
395.9044608572199
 20
151.0127423743022
 10
356.1098440030207
 20
152.58853417841476
 10
355.5399278009306
 20
155.6399399736547
 10
354.9434904586999
 20
158.68627290053894
 10
354.32057710612344
 20
161.7273024564313
 10
353.67123487631943
 20
164.76279853997676
 10
352.9955129021637
 20
167.79253146851534
 10
352.9955129021637
 20
167.79253146851534
 10
352.9955129021637
 20
174.72340420702483
 10
352.9955129021637
 20
181.65427694553432
 10
352.9955129021637
 20
188.5851496840438
 10
352.9955129021637
 20
195.5160224225533
 10
353.0041776120279
 20
198.74054979257357
 10
352.9955129021637
 20
195.51602242255342
 10
368.9053637847164
 20
197.1574011369787
 10
366.92790106407824
 20
197.1574011369787
 10
364.95043834344006
 20
197.1574011369787
 10
362.97297562280187
 20
197.1574011369787
 10
360.9955129021637
 20
197.1574011369787
 10
368.94177430714944
 20
188.9959701369787
 10
366.9552089559029
 20
188.9959701369787
 10
364.96864360465656
 20
188.9959701369787
 10
362.98207825341024
 20
188.9959701369787
 10
360.9955129021637
 20
188.9959701369787
 10
368.99741071513154
 20
152.22991407289896
 10
368.99954983828184
 20
155.29375779080272
 10
369.00045705306775
 20
158.35760212114803
 10
369.00013235934193
 20
161.42144656859648
 10
368.9985757571553
 20
164.48529063783644
 10
368.99578724676167
 20
167.5491338335297
 10
368.99176682861116
 20
170.6129756603583
 10
368.9865145033541
 20
173.67681562300436
 10
368.98003027183813
 20
176.74065322613023
 10
368.9723141351119
 20
179.80448797442557
 10
368.96336609442506
 20
182.8683193725534
 10
368.95318615122187
 20
185.9321469252045
 10
368.94177430714944
 20
188.99597013704317
 10
368.9132645058203
 20
195.54198713688697
 10
368.89789426321886
 20
198.6240050943253
 10
368.9132645058203
 20
195.54198713697883
 10
366.93382660490624
 20
195.54198713697883
 10
364.954388703992
 20
195.54198713697883
 10
362.9749508030777
 20
195.54198713697883
 10
360.9955129021637
 20
195.54198713697883
 10
360.9955129021637
 20
188.9959701369787
 10
360.9955129021637
 20
191.0363278869787
 10
360.9955129021637
 20
193.0766856369787
 10
360.9955129021637
 20
195.1170433869787
 10
360.9955129021637
 20
197.1574011369787
 10
368.94794492065057
 20
187.38051913697882
 10
366.95983691602896
 20
187.38051913697882
 10
364.9717289114071
 20
187.38051913697882
 10
362.9836209067853
 20
187.38051913697882
 10
360.9955129021637
 20
187.38051913697882
 10
360.9955129021637
 20
187.38051913697882
 10
360.9955129021637
 20
187.78438188697874
 10
360.9955129021637
 20
188.18824463697877
 10
360.9955129021637
 20
188.5921073869788
 10
360.9955129021637
 20
188.9959701369787
 10
393.3858549323795
 20
249.24357332137004
 10
393.3858549323795
 20
249.24357332137004
 10
393.4427877818839
 20
248.1753548341186
 10
393.4997206313883
 20
247.10713634686704
 10
393.5566534808929
 20
246.0389178596156
 10
393.6135863303973
 20
244.97069937236415
 10
393.6135863303973
 20
244.97069937236415
 10
393.6683362192109
 20
243.91096513653872
 10
393.7230861080245
 20
242.8512309007133
 10
393.7778359968381
 20
241.79149666488775
 10
393.8325858856517
 20
240.73176242906231
 10
393.8325858856517
 20
240.73176242906231
 10
393.8848367743735
 20
239.67971858061514
 10
393.9370876630951
 20
238.6276747321681
 10
393.9893385518167
 20
237.57563088372092
 10
394.0415894405385
 20
236.52358703527375
 10
394.0415894405385
 20
236.52358703527364
 10
394.0911375605515
 20
235.47458138806905
 10
394.14068568056473
 20
234.42557574086436
 10
394.19023380057797
 20
233.37657009365967
 10
394.239781920591
 20
232.32756444645509
 10
394.239781920591
 20
232.3275644464552
 10
394.286356927096
 20
231.2746993039632
 10
394.33293193360123
 20
230.22183416147107
 10
394.37950694010624
 20
229.16896901897894
 10
394.42608194661125
 20
228.11610387648693
 10
394.42608194661125
 20
228.11610387648693
 10
394.4694124068492
 20
227.05031802567294
 10
394.5127428670871
 20
225.98453217485894
 10
394.5560733273253
 20
224.91874632404483
 10
394.59940378756323
 20
223.85296047323084
 10
394.59940378756323
 20
223.85296047323084
 10
394.639207514354
 20
222.76176570283485
 10
394.67901124114474
 20
221.67057093243875
 10
394.7188149679355
 20
220.57937616204276
 10
394.75861869472624
 20
219.48818139164678
 10
394.75861869472624
 20
219.4881813916469
 10
394.8273651864547
 20
217.27872936056656
 10
394.89611167818293
 20
215.0692773294861
 10
394.96485816991117
 20
212.85982529840567
 10
395.03360466163963
 20
210.65037326732534
 10
395.03360466163963
 20
210.65037326732522
 10
395.08881065693004
 20
208.45730839786688
 10
395.1440166522202
 20
206.26424352840866
 10
395.1992226475106
 20
204.07117865895043
 10
395.25442864280103
 20
201.8781137894921
 10
395.25442864280103
 20
201.8781137894922
 10
355.2123175578445
 20
247.0451536391348
 10
354.9440217644917
 20
243.8317957063058
 10
354.69299911332087
 20
240.6170422996189
 10
354.45925685446036
 20
237.40098626875897
 10
354.24280173893953
 20
234.1837205010346
 10
354.04364001849444
 20
230.96533791869342
 10
353.8617774453869
 20
227.74593147624023
 10
353.69721927223827
 20
224.5255941577508
 10
353.54997025187777
 20
221.30441897418643
 10
353.42003463720584
 20
218.08249896070913
 10
353.3074161810705
 20
214.85992717399188
 10
353.212118136159
 20
211.63679668953398
 10
353.1341432549043
 20
208.41320059896998
 10
353.07349378940603
 20
205.18923200738254
 10
353.0301714913637
 20
201.96498403061355
 10
368.8812774401672
 20
201.7060165828699
 10
368.86341403938195
 20
204.78802109831793
 10
368.84430406378715
 20
207.87001813646748
 10
368.8239475165069
 20
210.95200719311788
 10
368.8023444008745
 20
214.0339877640697
 10
368.77949472042246
 20
217.11595934512502
 10
368.75539847888876
 20
220.19792143208747
 10
368.7300556802152
 20
223.27987352076195
 10
368.703466328549
 20
226.3618151069552
 10
368.6756304282385
 20
229.44374568647572
 10
368.64654798383935
 20
232.52566475513368
 10
368.6162190001073
 20
235.6075718087411
 10
368.5846434820055
 20
238.68946634311226
 10
368.5518214346989
 20
241.77134785406304
 10
368.5177528635563
 20
244.85321583741177
 10
368.4824377741538
 20
247.93506978897892
 10
390.44223666091034
 20
298.37582882223455
 10
390.53778570307577
 20
296.895320325737
 10
390.6333347452414
 20
295.4148118292393
 10
390.7288837874071
 20
293.9343033327417
 10
390.7288837874071
 20
293.9343033327417
 10
390.8227555452188
 20
292.4596880659104
 10
390.9166273030305
 20
290.98507279907926
 10
391.010499060842
 20
289.510457532248
 10
391.1043708186537
 20
288.0358422654167
 10
391.1043708186537
 20
288.0358422654167
 10
391.16944158700926
 20
286.997666824308
 10
391.23451235536504
 20
285.9594913831993
 10
391.2995831237206
 20
284.9213159420905
 10
391.36465389207615
 20
283.88314050098177
 10
391.36465389207615
 20
283.88314050098177
 10
391.43001437461317
 20
282.8250474075694
 10
391.4953748571502
 20
281.76695431415703
 10
391.56073533968697
 20
280.70886122074467
 10
391.626095822224
 20
279.6507681273323
 10
391.626095822224
 20
279.6507681273323
 10
391.69145040188573
 20
278.57652347682676
 10
391.7568049815475
 20
277.5022788263211
 10
391.8221595612092
 20
276.4280341758156
 10
391.88751414087096
 20
275.35378952531005
 10
391.88751414087096
 20
275.35378952531016
 10
391.9525511228826
 20
274.2678698588593
 10
392.01758810489446
 20
273.1819501924085
 10
392.0826250869063
 20
272.09603052595776
 10
392.14766206891795
 20
271.0101108595069
 10
392.14766206891795
 20
271.0101108595069
 10
392.21202843507854
 20
269.91795863958225
 10
392.2763948012391
 20
268.82580641965774
 10
392.3407611673997
 20
267.7336541997331
 10
392.4051275335603
 20
266.6415019798085
 10
392.4051275335603
 20
266.6415019798085
 10
392.4685400117851
 20
265.5474459590156
 10
392.53195249000964
 20
264.4533899382227
 10
392.59536496823443
 20
263.3593339174298
 10
392.6587774464592
 20
262.2652778966369
 10
392.6587774464592
 20
262.2652778966369
 10
392.7209529476854
 20
261.1735310754967
 10
392.7831284489116
 20
260.08178425435653
 10
392.84530395013803
 20
258.99003743321646
 10
392.9074794513642
 20
257.89829061207627
 10
392.9074794513642
 20
257.89829061207627
 10
392.96815367385193
 20
256.8122831151418
 10
393.0288278963394
 20
255.7262756182074
 10
393.0895021188271
 20
254.64026812127292
 10
393.1501763413148
 20
253.55426062433844
 10
393.1501763413148
 20
253.55426062433833
 10
393.2090959890811
 20
252.47658879859625
 10
393.26801563684717
 20
251.39891697285418
 10
393.3269352846132
 20
250.3212451471121
 10
356.45806969419345
 20
259.8827751051117
 10
357.6317563723783
 20
270.7602548745924
 10
358.8054430505633
 20
281.63773464407313
 10
359.9791297287484
 20
292.51521441355385
 10
356.45806969419345
 20
259.88277510511216
 10
356.12076380773397
 20
256.675926718274
 10
355.8006970763622
 20
253.46731188868216
 10
355.4978787443624
 20
250.25702328872558
 10
368.4458761722658
 20
251.01690920458725
 10
368.4080680638749
 20
254.0987335800619
 10
368.3690134551666
 20
257.18054241123036
 10
368.32871235253015
 20
260.2623351939229
 10
368.2871647625584
 20
263.3441114239723
 10
368.24437069204714
 20
266.42587059721393
 10
368.20033014799856
 20
269.50761220948607
 10
368.15504313761767
 20
272.5893357566298
 10
368.1085096683132
 20
275.67104073448934
 10
368.06072974769586
 20
278.7527266389118
 10
368.0117033835854
 20
281.83439296574716
 10
367.961430584
 20
284.91603921084925
 10
367.90991135716513
 20
287.9976648700746
 10
367.8571457115081
 20
291.0792694392833
 10
367.8031336556619
 20
294.16085241433893
 10
367.7478751984622
 20
297.24241329110873
 10
387.253222040604
 20
348.4041831466741
 10
387.33611695186846
 20
346.9611426106093
 10
387.33611695186846
 20
346.9611426106093
 10
387.4230789130984
 20
345.5113885211746
 10
387.5100408743285
 20
344.0616344317398
 10
387.59700283555867
 20
342.6118803423051
 10
387.6839647967886
 20
341.1621262528704
 10
387.6839647967886
 20
341.1621262528704
 10
387.774313211944
 20
339.7043822959213
 10
387.8646616270994
 20
338.2466383389723
 10
387.9550100422548
 20
336.7888943820233
 10
388.0453584574102
 20
335.33115042507416
 10
388.0453584574102
 20
335.33115042507416
 10
388.1383897502999
 20
333.8655978596338
 10
388.2314210431896
 20
332.40004529419343
 10
388.32445233607905
 20
330.93449272875307
 10
388.41748362896874
 20
329.4689401633127
 10
388.41748362896874
 20
329.4689401633127
 10
388.5125156361664
 20
327.99561286653477
 10
388.6075476433641
 20
326.52228556975683
 10
388.7025796505618
 20
325.048958272979
 10
388.7976116577595
 20
323.57563097620107
 10
388.7976116577595
 20
323.57563097620107
 10
388.89397364226625
 20
322.0972653980475
 10
388.9903356267728
 20
320.61889981989384
 10
389.08669761127953
 20
319.14053424174017
 10
389.1830595957863
 20
317.6621686635866
 10
389.1830595957863
 20
317.6621686635866
 10
389.2801760784964
 20
316.1787736151423
 10
389.37729256120656
 20
314.69537856669785
 10
389.47440904391647
 20
313.21198351825353
 10
389.5715255266266
 20
311.7285884698092
 10
389.5715255266266
 20
311.7285884698092
 10
389.6686569720214
 20
310.2445682214492
 10
389.7657884174164
 20
308.76054797308916
 10
389.8629198628114
 20
307.27652772472925
 10
389.9600513082062
 20
305.7925074763692
 10
389.9600513082062
 20
305.7925074763692
 10
390.0567103858407
 20
304.3084649369599
 10
390.1533694634754
 20
302.8244223975506
 10
390.25002854111017
 20
301.3403798581413
 10
390.3466876187447
 20
299.856337318732
 10
390.3466876187447
 20
299.85633731873213
 10
363.4611876016197
 20
348.67444446374645
 10
363.4611876016197
 20
346.3038626380735
 10
361.1528164069332
 20
303.392694183035
 10
361.49401124376527
 20
306.68226116285973
 10
361.8079963954915
 20
309.9745366914158
 10
362.09475039796007
 20
313.26929570741424
 10
362.35425364855087
 20
316.5663129797938
 10
362.5864884075165
 20
319.86536312311716
 10
362.791438799195
 20
323.1662206129803
 10
362.96909081309445
 20
326.4686598014274
 10
363.1194323048512
 20
329.7724549323776
 10
363.2424529970599
 20
333.07738015705706
 10
363.3381444799761
 20
336.3832095494387
 10
363.4065002120915
 20
339.6897171216848
 10
363.4475155205805
 20
342.99667683959854
 10
363.4611876016197
 20
346.3038626380734
 10
361.1528164069332
 20
303.39269418303456
 10
367.6913703489504
 20
300.3239515654632
 10
367.63361911636866
 20
303.4054667332766
 10
367.5746215101658
 20
306.48695829042754
 10
367.51437753999244
 20
309.5684257327978
 10
367.4528872157066
 20
312.6498685562733
 10
367.39015054736456
 20
315.73128625674406
 10
367.3261675452336
 20
318.8126783301044
 10
367.2609382197775
 20
321.8940442722526
 10
367.1944625816682
 20
324.97538357909093
 10
367.12674064178236
 20
328.05669574652677
 10
367.0577724111986
 20
331.1379802704712
 10
366.9875579011982
 20
334.2192366468403
 10
366.91609712327
 20
337.30046437155454
 10
366.84339008910365
 20
340.38166294053906
 10
366.76943681059356
 20
343.4628318497239
 10
366.69423729983873
 20
346.5439705950439
 10
366.6177915691401
 20
349.6250786724387
 10
385.24708174521834
 20
398.6541671291267
 10
385.2819201749803
 20
396.81540342757285
 10
385.2819201749803
 20
396.81540342757285
 10
385.3269836215752
 20
394.9537311437176
 10
385.3720470681701
 20
393.0920588598624
 10
385.4171105147652
 20
391.23038657600705
 10
385.4621739613601
 20
389.3687142921518
 10
385.4621739613601
 20
389.36871429215194
 10
385.5185205125183
 20
387.46701085751556
 10
385.5748670636767
 20
385.5653074228792
 10
385.6312136148349
 20
383.6636039882428
 10
385.6875601659931
 20
381.76190055360644
 10
385.6875601659931
 20
381.7619005536063
 10
385.7398001514771
 20
380.2840006489803
 10
385.7920401369611
 20
378.8061007443541
 10
385.84428012244484
 20
377.32820083972797
 10
385.89652010792884
 20
375.8503009351019
 10
385.89652010792884
 20
375.8503009351019
 10
385.95623868376606
 20
374.3930167096378
 10
386.0159572596035
 20
372.93573248417374
 10
386.07567583544096
 20
371.4784482587097
 10
386.1353944112782
 20
370.02116403324555
 10
386.1353944112782
 20
370.02116403324555
 10
386.20191452112545
 20
368.5770232635116
 10
386.2684346309727
 20
367.13288249377774
 10
386.33495474081997
 20
365.6887417240439
 10
386.4014748506672
 20
364.24460095430993
 10
386.4014748506672
 20
364.24460095430993
 10
386.47410796347936
 20
362.80575246016224
 10
386.54674107629126
 20
361.36690396601443
 10
386.6193741891034
 20
359.9280554718666
 10
386.6920073019155
 20
358.48920697771894
 10
386.6920073019155
 20
358.4892069777188
 10
386.7701398031393
 20
357.05023142200616
 10
386.84827230436304
 20
355.6112558662936
 10
386.92640480558657
 20
354.1722803105811
 10
387.00453730681033
 20
352.7333047548684
 10
387.00453730681033
 20
352.7333047548684
 10
387.0874322180748
 20
351.2902642188036
 10
387.1703271293395
 20
349.8472236827388
 10
366.4611876016197
 20
355.7861899407653
 10
365.7111876016197
 20
355.7861899407653
 10
364.9611876016197
 20
355.7861899407653
 10
364.2111876016197
 20
355.7861899407653
 10
363.4611876016197
 20
355.7861899407653
 10
363.4611876016197
 20
355.7861899407653
 10
363.4611876016197
 20
353.41560811509237
 10
363.4611876016197
 20
351.0450262894194
 10
366.5400996310059
 20
352.7061555778532
 10
366.4611614981445
 20
355.78720080723724
 10
384.910797825185
 20
448.52291916340414
 10
384.910797825185
 20
448.52291916340414
 10
384.90858124123497
 20
446.6482031574668
 10
384.90636465728517
 20
444.7734871515295
 10
384.90414807333536
 20
442.89877114559215
 10
384.90193148938533
 20
441.0240551396548
 10
384.90193148938533
 20
441.0240551396548
 10
384.902785312491
 20
439.1603118380739
 10
384.9036391355967
 20
437.29656853649294
 10
384.9044929587026
 20
435.4328252349119
 10
384.90534678180825
 20
433.56908193333095
 10
384.90534678180825
 20
433.56908193333095
 10
384.91058510990024
 20
431.7189753300563
 10
384.915823437992
 20
429.8688687267818
 10
384.921061766084
 20
428.01876212350726
 10
384.926300094176
 20
426.1686555202326
 10
384.926300094176
 20
426.1686555202326
 10
384.93713604820346
 20
424.3300678747489
 10
384.9479720022309
 20
422.4914802292651
 10
384.9588079562584
 20
420.6528925837813
 10
384.96964391028587
 20
418.8143049382976
 10
384.96964391028587
 20
418.8143049382976
 10
384.98725005254255
 20
416.98313884301285
 10
385.00485619479923
 20
415.1519727477282
 10
385.0224623370557
 20
413.3208066524435
 10
385.04006847931237
 20
411.48964055715874
 10
385.04006847931237
 20
411.4896405571586
 10
385.0656929734673
 20
409.659844976316
 10
385.0913174676225
 20
407.83004939547345
 10
385.11694196177746
 20
406.0002538146308
 10
385.1425664559324
 20
404.17045823378817
 10
385.1425664559324
 20
404.17045823378817
 10
385.1774048856944
 20
402.33169453223434
 10
385.21224331545636
 20
400.4929308306805
 10
384.9788880343699
 20
497.17296317704495
 10
384.9788880343699
 20
493.4824579396559
 10
384.9788880343699
 20
489.7919527022668
 10
384.9788880343699
 20
486.10144746487765
 10
384.9788880343699
 20
486.10144746487765
 10
384.9784607812594
 20
484.25058936940115
 10
384.9780335281489
 20
482.39973127392454
 10
384.9776062750384
 20
480.54887317844805
 10
384.9771790219279
 20
478.69801508297155
 10
384.9771790219279
 20
478.69801508297155
 10
384.97416098433246
 20
476.8158604048043
 10
384.971142946737
 20
474.9337057266371
 10
384.9681249091418
 20
473.0515510484697
 10
384.96510687154637
 20
471.1693963703025
 10
384.96510687154637
 20
471.1693963703025
 10
384.96062542962727
 20
469.2810332132432
 10
384.9561439877084
 20
467.3926700561839
 10
384.9516625457893
 20
465.5043068991246
 10
384.9471811038702
 20
463.61594374206527
 10
384.9471811038702
 20
463.61594374206527
 10
384.94226167132115
 20
461.72686209096787
 10
384.9373422387721
 20
459.83778043987036
 10
384.9324228062228
 20
457.94869878877296
 10
384.92750337367374
 20
456.05961713767556
 10
384.92750337367374
 20
456.0596171376757
 10
384.9233269865515
 20
454.17544264410776
 10
384.9191505994295
 20
452.29126815053996
 10
384.91497421230724
 20
450.40709365697205
 10
384.9788880343699
 20
500.8634684144341
 10
384.9788880343699
 20
500.8634684144341
 10
364.9788880343699
 20
500.8634684144341
 10
403.9788880343699
 20
107.49074874903567
 10
403.9788880343699
 20
308.8552725585595
 10
403.9788880343699
 20
510.2197963680833
 10
403.9788880343699
 20
510.2197963680833
  0
LWPOLYLINE
  5
30
330
17
100
AcDbEntity
  8
BODY_OUTLINE
 62
1
100
AcDbPolyline
 90
12
 70
1
 10
403.9788880343699
 20
107.49074874903567
 10
403.9788880343699
 20
510.2197963680833
 10
117.03364993913192
 20
510.2197963680833
 10
4.202812167612137
 20
465.3342013818768
 10
0.0
 20
394.20991742559283
 10
0.5979466885050897
 20
191.59591044480953
 10
2.0589176448870603
 20
115.69945946667417
 10
3.7273921867188164
 20
105.21715267542601
 10
35.44744382098543
 20
53.73691435286304
 10
166.25213279384025
 20
5.897965056652538
 10
258.9998427797359
 20
0.0
 10
397.08522074551183
 20
1.197886016323082
  0
ENDSEC
  0
SECTION
  2
OBJECTS
  0
DICTIONARY
  5
A
330
0
100
AcDbDictionary
281
1
  3
ACAD_COLOR
350
B
  3
ACAD_GROUP
350
C
  3
ACAD_LAYOUT
350
D
  3
ACAD_MATERIAL
350
E
  3
ACAD_MLEADERSTYLE
350
F
  3
ACAD_MLINESTYLE
350
10
  3
ACAD_PLOTSETTINGS
350
11
  3
ACAD_PLOTSTYLENAME
350
12
  3
ACAD_SCALELIST
350
14
  3
ACAD_TABLESTYLE
350
15
  3
ACAD_VISUALSTYLE
350
16
  3
EZDXF_META
350
2D
  0
DICTIONARY
  5
B
330
A
100
AcDbDictionary
281
1
  0
DICTIONARY
  5
C
330
A
100
AcDbDictionary
281
1
  0
DICTIONARY
  5
D
330
A
100
AcDbDictionary
281
1
  3
Model
350
1A
  3
Layout1
350
1E
  0
DICTIONARY
  5
E
330
A
100
AcDbDictionary
281
1
  3
ByBlock
350
1F
  3
ByLayer
350
20
  3
Global
350
21
  0
DICTIONARY
  5
F
330
A
100
AcDbDictionary
281
1
  3
Standard
350
2C
  0
DICTIONARY
  5
10
330
A
100
AcDbDictionary
281
1
  3
Standard
350
22
  0
DICTIONARY
  5
11
330
A
100
AcDbDictionary
281
1
  0
ACDBDICTIONARYWDFLT
  5
12
330
A
100
AcDbDictionary
281
1
  3
Normal
350
13
100
AcDbDictionaryWithDefault
340
13
  0
ACDBPLACEHOLDER
  5
13
330
12
  0
DICTIONARY
  5
14
330
A
100
AcDbDictionary
281
1
  0
DICTIONARY
  5
15
330
A
100
AcDbDictionary
281
1
  0
DICTIONARY
  5
16
330
A
100
AcDbDictionary
281
1
  0
LAYOUT
  5
1A
330
D
100
AcDbPlotSettings
  1

  4
A3
  6

 40
7.5
 41
20.0
 42
7.5
 43
20.0
 44
420.0
 45
297.0
 46
0.0
 47
0.0
 48
0.0
 49
0.0
140
0.0
141
0.0
142
1.0
143
1.0
 70
1024
 72
1
 73
0
 74
5
  7

 75
16
 76
0
 77
2
 78
300
147
1.0
148
0.0
149
0.0
100
AcDbLayout
  1
Model
 70
1
 71
0
 10
0.0
 20
0.0
 11
420.0
 21
297.0
 12
0.0
 22
0.0
 32
0.0
 14
1e+20
 24
1e+20
 34
1e+20
 15
-1e+20
 25
-1e+20
 35
-1e+20
146
0.0
 13
0.0
 23
0.0
 33
0.0
 16
1.0
 26
0.0
 36
0.0
 17
0.0
 27
1.0
 37
0.0
 76
1
330
17
  0
LAYOUT
  5
1E
330
D
100
AcDbPlotSettings
  1

  4
A3
  6

 40
7.5
 41
20.0
 42
7.5
 43
20.0
 44
420.0
 45
297.0
 46
0.0
 47
0.0
 48
0.0
 49
0.0
140
0.0
141
0.0
142
1.0
143
1.0
 70
0
 72
1
 73
0
 74
5
  7

 75
16
 76
0
 77
2
 78
300
147
1.0
148
0.0
149
0.0
100
AcDbLayout
  1
Layout1
 70
1
 71
1
 10
0.0
 20
0.0
 11
420.0
 21
297.0
 12
0.0
 22
0.0
 32
0.0
 14
1e+20
 24
1e+20
 34
1e+20
 15
-1e+20
 25
-1e+20
 35
-1e+20
146
0.0
 13
0.0
 23
0.0
 33
0.0
 16
1.0
 26
0.0
 36
0.0
 17
0.0
 27
1.0
 37
0.0
 76
1
330
1B
  0
MATERIAL
  5
1F
102
{ACAD_REACTORS
330
E
102
}
330
E
100
AcDbMaterial
  1
ByBlock
  2

 70
0
 40
1.0
 71
1
 41
1.0
 91
-1023410177
 42
1.0
 72
1
  3

 73
1
 74
1
 75
1
 44
0.5
 73
0
 45
1.0
 46
1.0
 77
1
  4

 78
1
 79
1
170
1
 48
1.0
171
1
  6

172
1
173
1
174
1
140
1.0
141
1.0
175
1
  7

176
1
177
1
178
1
143
1.0
179
1
  8

270
1
271
1
272
1
145
1.0
146
1.0
273
1
  9

274
1
275
1
276
1
 42
1.0
 72
1
  3

 73
1
 74
1
 75
1
 94
63
  0
MATERIAL
  5
20
102
{ACAD_REACTORS
330
E
102
}
330
E
100
AcDbMaterial
  1
ByLayer
  2

 70
0
 40
1.0
 71
1
 41
1.0
 91
-1023410177
 42
1.0
 72
1
  3

 73
1
 74
1
 75
1
 44
0.5
 73
0
 45
1.0
 46
1.0
 77
1
  4

 78
1
 79
1
170
1
 48
1.0
171
1
  6

172
1
173
1
174
1
140
1.0
141
1.0
175
1
  7

176
1
177
1
178
1
143
1.0
179
1
  8

270
1
271
1
272
1
145
1.0
146
1.0
273
1
  9

274
1
275
1
276
1
 42
1.0
 72
1
  3

 73
1
 74
1
 75
1
 94
63
  0
MATERIAL
  5
21
102
{ACAD_REACTORS
330
E
102
}
330
E
100
AcDbMaterial
  1
Global
  2

 70
0
 40
1.0
 71
1
 41
1.0
 91
-1023410177
 42
1.0
 72
1
  3

 73
1
 74
1
 75
1
 44
0.5
 73
0
 45
1.0
 46
1.0
 77
1
  4

 78
1
 79
1
170
1
 48
1.0
171
1
  6

172
1
173
1
174
1
140
1.0
141
1.0
175
1
  7

176
1
177
1
178
1
143
1.0
179
1
  8

270
1
271
1
272
1
145
1.0
146
1.0
273
1
  9

274
1
275
1
276
1
 42
1.0
 72
1
  3

 73
1
 74
1
 75
1
 94
63
  0
MLINESTYLE
  5
22
102
{ACAD_REACTORS
330
10
102
}
330
10
100
AcDbMlineStyle
  2
Standard
 70
0
  3

 62
256
 51
90.0
 52
90.0
 71
2
 49
0.5
 62
256
  6
BYLAYER
 49
-0.5
 62
256
  6
BYLAYER
  0
MLEADERSTYLE
  5
2C
102
{ACAD_REACTORS
330
F
102
}
330
F
100
AcDbMLeaderStyle
179
2
170
2
171
1
172
0
 90
2
 40
0.0
 41
0.0
173
1
 91
-1056964608
 92
-2
290
1
 42
2.0
291
1
 43
8.0
  3
Standard
 44
4.0
300

342
29
174
1
175
1
176
0
178
1
 93
-1056964608
 45
4.0
292
0
297
0
 46
4.0
 94
-1056964608
 47
1.0
 49
1.0
140
1.0
294
1
141
0.0
177
0
142
1.0
295
0
296
0
143
3.75
271
0
272
9
273
9
  0
DICTIONARY
  5
2D
330
A
100
AcDbDictionary
280
1
281
1
  3
CREATED_BY_EZDXF
350
2E
  3
WRITTEN_BY_EZDXF
350
33
  0
DICTIONARYVAR
  5
2E
330
2D
100
DictionaryVariables
280
0
  1
1.4.3 @ 2025-12-11T16:10:01.443093+00:00
  0
DICTIONARYVAR
  5
33
330
2D
100
DictionaryVariables
280
0
  1
1.4.3 @ 2025-12-11T16:10:01.463380+00:00
  0
ENDSEC
  0
EOF
