  0
SECTION
  2
HEADER
  9
$ACADVER
  1
AC1015
  9
$ACADMAINTVER
 70
6
  9
$DWGCODEPAGE
  3
ANSI_1252
  9
$INSBASE
 10
0.0
 20
0.0
 30
0.0
  9
$EXTMIN
 10
1e+20
 20
1e+20
 30
1e+20
  9
$EXTMAX
 10
-1e+20
 20
-1e+20
 30
-1e+20
  9
$LIMMIN
 10
0.0
 20
0.0
  9
$LIMMAX
 10
420.0
 20
297.0
  9
$ORTHOMODE
 70
0
  9
$REGENMODE
 70
1
  9
$FILLMODE
 70
1
  9
$QTEXTMODE
 70
0
  9
$MIRRTEXT
 70
1
  9
$LTSCALE
 40
1.0
  9
$ATTMODE
 70
1
  9
$TEXTSIZE
 40
2.5
  9
$TRACEWID
 40
1.0
  9
$TEXTSTYLE
  7
Standard
  9
$CLAYER
  8
0
  9
$CELTYPE
  6
ByLayer
  9
$CECOLOR
 62
256
  9
$CELTSCALE
 40
1.0
  9
$DISPSILH
 70
0
  9
$DIMSCALE
 40
1.0
  9
$DIMASZ
 40
2.5
  9
$DIMEXO
 40
0.625
  9
$DIMDLI
 40
3.75
  9
$DIMRND
 40
0.0
  9
$DIMDLE
 40
0.0
  9
$DIMEXE
 40
1.25
  9
$DIMTP
 40
0.0
  9
$DIMTM
 40
0.0
  9
$DIMTXT
 40
2.5
  9
$DIMCEN
 40
2.5
  9
$DIMTSZ
 40
0.0
  9
$DIMTOL
 70
0
  9
$DIMLIM
 70
0
  9
$DIMTIH
 70
0
  9
$DIMTOH
 70
0
  9
$DIMSE1
 70
0
  9
$DIMSE2
 70
0
  9
$DIMTAD
 70
1
  9
$DIMZIN
 70
8
  9
$DIMBLK
  1

  9
$DIMASO
 70
1
  9
$DIMSHO
 70
1
  9
$DIMPOST
  1

  9
$DIMAPOST
  1

  9
$DIMALT
 70
0
  9
$DIMALTD
 70
3
  9
$DIMALTF
 40
0.03937007874
  9
$DIMLFAC
 40
1.0
  9
$DIMTOFL
 70
1
  9
$DIMTVP
 40
0.0
  9
$DIMTIX
 70
0
  9
$DIMSOXD
 70
0
  9
$DIMSAH
 70
0
  9
$DIMBLK1
  1

  9
$DIMBLK2
  1

  9
$DIMSTYLE
  2
ISO-25
  9
$DIMCLRD
 70
0
  9
$DIMCLRE
 70
0
  9
$DIMCLRT
 70
0
  9
$DIMTFAC
 40
1.0
  9
$DIMGAP
 40
0.625
  9
$DIMJUST
 70
0
  9
$DIMSD1
 70
0
  9
$DIMSD2
 70
0
  9
$DIMTOLJ
 70
0
  9
$DIMTZIN
 70
8
  9
$DIMALTZ
 70
0
  9
$DIMALTTZ
 70
0
  9
$DIMUPT
 70
0
  9
$DIMDEC
 70
2
  9
$DIMTDEC
 70
2
  9
$DIMALTU
 70
2
  9
$DIMALTTD
 70
3
  9
$DIMTXSTY
  7
Standard
  9
$DIMAUNIT
 70
0
  9
$DIMADEC
 70
0
  9
$DIMALTRND
 40
0.0
  9
$DIMAZIN
 70
0
  9
$DIMDSEP
 70
44
  9
$DIMATFIT
 70
3
  9
$DIMFRAC
 70
0
  9
$DIMLDRBLK
  1

  9
$DIMLUNIT
 70
2
  9
$DIMLWD
 70
-2
  9
$DIMLWE
 70
-2
  9
$DIMTMOVE
 70
0
  9
$LUNITS
 70
2
  9
$LUPREC
 70
4
  9
$SKETCHINC
 40
1.0
  9
$FILLETRAD
 40
10.0
  9
$AUNITS
 70
0
  9
$AUPREC
 70
2
  9
$MENU
  1
.
  9
$ELEVATION
 40
0.0
  9
$PELEVATION
 40
0.0
  9
$THICKNESS
 40
0.0
  9
$LIMCHECK
 70
0
  9
$CHAMFERA
 40
0.0
  9
$CHAMFERB
 40
0.0
  9
$CHAMFERC
 40
0.0
  9
$CHAMFERD
 40
0.0
  9
$SKPOLY
 70
0
  9
$TDCREATE
 40
2461021.6736458335
  9
$TDUCREATE
 40
2458532.153996898
  9
$TDUPDATE
 40
2461021.6736458335
  9
$TDUUPDATE
 40
2458532.1544311
  9
$TDINDWG
 40
0.0
  9
$TDUSRTIMER
 40
0.0
  9
$USRTIMER
 70
1
  9
$ANGBASE
 50
0.0
  9
$ANGDIR
 70
0
  9
$PDMODE
 70
0
  9
$PDSIZE
 40
0.0
  9
$PLINEWID
 40
0.0
  9
$SPLFRAME
 70
0
  9
$SPLINETYPE
 70
6
  9
$SPLINESEGS
 70
8
  9
$HANDSEED
  5
34
  9
$SURFTAB1
 70
6
  9
$SURFTAB2
 70
6
  9
$SURFTYPE
 70
6
  9
$SURFU
 70
6
  9
$SURFV
 70
6
  9
$UCSBASE
  2

  9
$UCSNAME
  2

  9
$UCSORG
 10
0.0
 20
0.0
 30
0.0
  9
$UCSXDIR
 10
1.0
 20
0.0
 30
0.0
  9
$UCSYDIR
 10
0.0
 20
1.0
 30
0.0
  9
$UCSORTHOREF
  2

  9
$UCSORTHOVIEW
 70
0
  9
$UCSORGTOP
 10
0.0
 20
0.0
 30
0.0
  9
$UCSORGBOTTOM
 10
0.0
 20
0.0
 30
0.0
  9
$UCSORGLEFT
 10
0.0
 20
0.0
 30
0.0
  9
$UCSORGRIGHT
 10
0.0
 20
0.0
 30
0.0
  9
$UCSORGFRONT
 10
0.0
 20
0.0
 30
0.0
  9
$UCSORGBACK
 10
0.0
 20
0.0
 30
0.0
  9
$PUCSBASE
  2

  9
$PUCSNAME
  2

  9
$PUCSORG
 10
0.0
 20
0.0
 30
0.0
  9
$PUCSXDIR
 10
1.0
 20
0.0
 30
0.0
  9
$PUCSYDIR
 10
0.0
 20
1.0
 30
0.0
  9
$PUCSORTHOREF
  2

  9
$PUCSORTHOVIEW
 70
0
  9
$PUCSORGTOP
 10
0.0
 20
0.0
 30
0.0
  9
$PUCSORGBOTTOM
 10
0.0
 20
0.0
 30
0.0
  9
$PUCSORGLEFT
 10
0.0
 20
0.0
 30
0.0
  9
$PUCSORGRIGHT
 10
0.0
 20
0.0
 30
0.0
  9
$PUCSORGFRONT
 10
0.0
 20
0.0
 30
0.0
  9
$PUCSORGBACK
 10
0.0
 20
0.0
 30
0.0
  9
$USERI1
 70
0
  9
$USERI2
 70
0
  9
$USERI3
 70
0
  9
$USERI4
 70
0
  9
$USERI5
 70
0
  9
$USERR1
 40
0.0
  9
$USERR2
 40
0.0
  9
$USERR3
 40
0.0
  9
$USERR4
 40
0.0
  9
$USERR5
 40
0.0
  9
$WORLDVIEW
 70
1
  9
$SHADEDGE
 70
3
  9
$SHADEDIF
 70
70
  9
$TILEMODE
 70
1
  9
$MAXACTVP
 70
64
  9
$PINSBASE
 10
0.0
 20
0.0
 30
0.0
  9
$PLIMCHECK
 70
0
  9
$PEXTMIN
 10
1e+20
 20
1e+20
 30
1e+20
  9
$PEXTMAX
 10
-1e+20
 20
-1e+20
 30
-1e+20
  9
$PLIMMIN
 10
0.0
 20
0.0
  9
$PLIMMAX
 10
420.0
 20
297.0
  9
$UNITMODE
 70
0
  9
$VISRETAIN
 70
1
  9
$PLINEGEN
 70
0
  9
$PSLTSCALE
 70
1
  9
$TREEDEPTH
 70
3020
  9
$CMLSTYLE
  2
Standard
  9
$CMLJUST
 70
0
  9
$CMLSCALE
 40
20.0
  9
$PROXYGRAPHICS
 70
1
  9
$MEASUREMENT
 70
1
  9
$CELWEIGHT
370
-1
  9
$ENDCAPS
280
0
  9
$JOINSTYLE
280
0
  9
$LWDISPLAY
290
0
  9
$INSUNITS
 70
6
  9
$HYPERLINKBASE
  1

  9
$STYLESHEET
  1

  9
$XEDIT
290
1
  9
$CEPSNTYPE
380
0
  9
$PSTYLEMODE
290
1
  9
$FINGERPRINTGUID
  2
{8C6625B0-0A44-49D7-95B8-2B6C43A70D66}
  9
$VERSIONGUID
  2
{F30285AC-7C9D-4BEE-A84D-E0F2D6026424}
  9
$EXTNAMES
290
1
  9
$PSVPSCALE
 40
0.0
  9
$OLESTARTUP
290
0
  0
ENDSEC
  0
SECTION
  2
CLASSES
  0
CLASS
  1
ACDBDICTIONARYWDFLT
  2
AcDbDictionaryWithDefault
  3
ObjectDBX Classes
 90
0
280
0
281
0
  0
CLASS
  1
SUN
  2
AcDbSun
  3
SCENEOE
 90
1153
280
0
281
0
  0
CLASS
  1
VISUALSTYLE
  2
AcDbVisualStyle
  3
ObjectDBX Classes
 90
4095
280
0
281
0
  0
CLASS
  1
MATERIAL
  2
AcDbMaterial
  3
ObjectDBX Classes
 90
1153
280
0
281
0
  0
CLASS
  1
SCALE
  2
AcDbScale
  3
ObjectDBX Classes
 90
1153
280
0
281
0
  0
CLASS
  1
TABLESTYLE
  2
AcDbTableStyle
  3
ObjectDBX Classes
 90
4095
280
0
281
0
  0
CLASS
  1
MLEADERSTYLE
  2
AcDbMLeaderStyle
  3
ACDB_MLEADERSTYLE_CLASS
 90
4095
280
0
281
0
  0
CLASS
  1
DICTIONARYVAR
  2
AcDbDictionaryVar
  3
ObjectDBX Classes
 90
0
280
0
281
0
  0
CLASS
  1
CELLSTYLEMAP
  2
AcDbCellStyleMap
  3
ObjectDBX Classes
 90
1152
280
0
281
0
  0
CLASS
  1
MENTALRAYRENDERSETTINGS
  2
AcDbMentalRayRenderSettings
  3
SCENEOE
 90
1024
280
0
281
0
  0
CLASS
  1
ACDBDETAILVIEWSTYLE
  2
AcDbDetailViewStyle
  3
ObjectDBX Classes
 90
1025
280
0
281
0
  0
CLASS
  1
ACDBSECTIONVIEWSTYLE
  2
AcDbSectionViewStyle
  3
ObjectDBX Classes
 90
1025
280
0
281
0
  0
CLASS
  1
RASTERVARIABLES
  2
AcDbRasterVariables
  3
ISM
 90
0
280
0
281
0
  0
CLASS
  1
ACDBPLACEHOLDER
  2
AcDbPlaceHolder
  3
ObjectDBX Classes
 90
0
280
0
281
0
  0
CLASS
  1
LAYOUT
  2
AcDbLayout
  3
ObjectDBX Classes
 90
0
280
0
281
0
  0
ENDSEC
  0
SECTION
  2
TABLES
  0
TABLE
  2
VPORT
  5
8
330
0
100
AcDbSymbolTable
 70
1
  0
VPORT
  5
23
330
8
100
AcDbSymbolTableRecord
100
AcDbViewportTableRecord
  2
*Active
 70
0
 10
0.0
 20
0.0
 11
1.0
 21
1.0
 12
0.0
 22
0.0
 13
0.0
 23
0.0
 14
0.5
 24
0.5
 15
0.5
 25
0.5
 16
0.0
 26
0.0
 36
1.0
 17
0.0
 27
0.0
 37
0.0
 40
1000.0
 41
1.34
 42
50.0
 43
0.0
 44
0.0
 50
0.0
 51
0.0
 71
0
 72
1000
 73
1
 74
3
 75
0
 76
0
 77
0
 78
0
281
0
 65
0
146
0.0
  0
ENDTAB
  0
TABLE
  2
LTYPE
  5
2
330
0
100
AcDbSymbolTable
 70
3
  0
LTYPE
  5
24
330
2
100
AcDbSymbolTableRecord
100
AcDbLinetypeTableRecord
  2
ByBlock
 70
0
  3

 72
65
 73
0
 40
0.0
  0
LTYPE
  5
25
330
2
100
AcDbSymbolTableRecord
100
AcDbLinetypeTableRecord
  2
ByLayer
 70
0
  3

 72
65
 73
0
 40
0.0
  0
LTYPE
  5
26
330
2
100
AcDbSymbolTableRecord
100
AcDbLinetypeTableRecord
  2
Continuous
 70
0
  3

 72
65
 73
0
 40
0.0
  0
ENDTAB
  0
TABLE
  2
LAYER
  5
1
330
0
100
AcDbSymbolTable
 70
2
  0
LAYER
  5
27
330
1
100
AcDbSymbolTableRecord
100
AcDbLayerTableRecord
  2
0
 70
0
 62
7
  6
Continuous
370
-3
390
13
  0
LAYER
  5
28
330
1
100
AcDbSymbolTableRecord
100
AcDbLayerTableRecord
  2
Defpoints
 70
0
 62
7
  6
Continuous
290
0
370
-3
390
13
  0
ENDTAB
  0
TABLE
  2
STYLE
  5
5
330
0
100
AcDbSymbolTable
 70
1
  0
STYLE
  5
29
330
5
100
AcDbSymbolTableRecord
100
AcDbTextStyleTableRecord
  2
Standard
 70
0
 40
0.0
 41
1.0
 50
0.0
 71
0
 42
2.5
  3
txt
  4

  0
ENDTAB
  0
TABLE
  2
VIEW
  5
7
330
0
100
AcDbSymbolTable
 70
0
  0
ENDTAB
  0
TABLE
  2
UCS
  5
6
330
0
100
AcDbSymbolTable
 70
0
  0
ENDTAB
  0
TABLE
  2
APPID
  5
3
330
0
100
AcDbSymbolTable
 70
3
  0
APPID
  5
2A
330
3
100
AcDbSymbolTableRecord
100
AcDbRegAppTableRecord
  2
ACAD
 70
0
  0
APPID
  5
31
330
3
100
AcDbSymbolTableRecord
100
AcDbRegAppTableRecord
  2
HATCHBACKGROUNDCOLOR
 70
0
  0
APPID
  5
32
330
3
100
AcDbSymbolTableRecord
100
AcDbRegAppTableRecord
  2
EZDXF
 70
0
  0
ENDTAB
  0
TABLE
  2
DIMSTYLE
  5
4
330
0
100
AcDbSymbolTable
 70
1
100
AcDbDimStyleTable
  0
DIMSTYLE
105
2B
330
4
100
AcDbSymbolTableRecord
100
AcDbDimStyleTableRecord
  2
Standard
 70
0
  3

  4

 40
1.0
 41
2.5
 42
0.625
 43
3.75
 44
1.25
 45
0.0
 46
0.0
 47
0.0
 48
0.0
140
2.5
141
2.5
142
0.0
143
0.03937007874
144
1.0
145
0.0
146
1.0
147
0.625
148
0.0
 71
0
 72
0
 73
0
 74
0
 75
0
 76
0
 77
1
 78
8
 79
3
170
0
171
3
172
1
173
0
174
0
175
0
176
0
177
0
178
0
179
2
271
2
272
2
273
2
274
3
275
0
276
0
277
2
278
44
279
0
280
0
281
0
282
0
283
0
284
8
285
0
286
0
288
0
289
3
371
-2
372
-2
  0
ENDTAB
  0
TABLE
  2
BLOCK_RECORD
  5
9
330
0
100
AcDbSymbolTable
 70
2
  0
BLOCK_RECORD
  5
17
330
9
100
AcDbSymbolTableRecord
100
AcDbBlockTableRecord
  2
*Model_Space
340
1A
  0
BLOCK_RECORD
  5
1B
330
9
100
AcDbSymbolTableRecord
100
AcDbBlockTableRecord
  2
*Paper_Space
340
1E
  0
ENDTAB
  0
ENDSEC
  0
SECTION
  2
BLOCKS
  0
BLOCK
  5
18
330
17
100
AcDbEntity
  8
0
100
AcDbBlockBegin
  2
*Model_Space
 70
0
 10
0.0
 20
0.0
 30
0.0
  3
*Model_Space
  1

  0
ENDBLK
  5
19
330
17
100
AcDbEntity
  8
0
100
AcDbBlockEnd
  0
BLOCK
  5
1C
330
1B
100
AcDbEntity
  8
0
100
AcDbBlockBegin
  2
*Paper_Space
 70
0
 10
0.0
 20
0.0
 30
0.0
  3
*Paper_Space
  1

  0
ENDBLK
  5
1D
330
1B
100
AcDbEntity
  8
0
100
AcDbBlockEnd
  0
ENDSEC
  0
SECTION
  2
ENTITIES
  0
LWPOLYLINE
  5
2F
330
17
100
AcDbEntity
  8
BODY_POINTS
 62
7
100
AcDbPolyline
 90
2510
 70
0
 10
32.83921840034242
 20
6.927586980883973
 10
33.00863671284242
 20
6.267724480883999
 10
33.29949090034239
 20
5.658747980883959
 10
33.65377633784237
 20
5.07819498088395
 10
34.01348840034245
 20
4.503602980883954
 10
34.01348840034245
 20
4.503602980883954
 10
34.05769080659246
 20
3.8812435433839596
 10
34.0470451503424
 20
3.2480979808839265
 10
34.07064711909243
 20
2.616264168383964
 10
34.217592400342426
 20
1.9978399808839526
 10
34.217592400342426
 20
1.9978399808839526
 10
34.43828732221738
 20
1.4477627308839374
 10
34.518038775342404
 20
0.9087959808839514
 10
34.479267540967385
 20
0.3672109808838968
 10
40.12552513471746
 20
0.2460102933839039
 10
39.43026440034242
 20
0.29943198088392364
 10
39.43026440034242
 20
0.29943198088392364
 10
38.792225244092435
 20
0.40796927775897984
 10
38.16196490034247
 20
0.526848605883913
 10
37.548458056592494
 20
0.69858662150898
 10
36.96067940034243
 20
0.965699980883926
 10
36.96067940034243
 20
0.965699980883926
 10
36.304316978467455
 20
1.3408184183838898
 10
35.73612727534248
 20
1.8412104808839445
 10
35.321136884717475
 20
2.4612327933839424
 10
35.12437240034245
 20
3.1952419808839636
 10
35.12437240034245
 20
3.1952419808839636
 10
35.4282243534675
 20
3.3842527465089347
 10
35.89646477534245
 20
3.2110436058839014
 10
36.422665009717434
 20
2.938974152758931
 10
36.90039640034246
 20
2.8314039808839198
 10
36.90039640034246
 20
2.8314039808839198
 10
37.57906254096747
 20
2.719551980883921
 10
38.261385025342406
 20
2.621514980883944
 10
38.932975947217415
 20
2.5296699808839094
 10
39.57944740034242
 20
2.436393980883963
 10
39.57944740034242
 20
2.436393980883963
 10
40.40011172846744
 20
2.2749572465089614
 10
41.18416302534246
 20
1.9858083558839326
 10
41.90814325971746
 20
1.5712120277589747
 10
42.54859440034244
 20
1.0334329808839584
 10
42.54859440034244
 20
1.0334329808839584
 10
42.97876016596746
 20
0.9187268558839605
 10
43.151301025342434
 20
1.273140480883967
 10
43.08231957221744
 20
1.7880863558839337
 10
42.78791840034245
 20
2.15497698088393
 10
42.78791840034245
 20
2.15497698088393
 10
42.45776315034243
 20
2.7166011058839103
 10
42.11441315034244
 20
3.2725679808839345
 10
41.82665202534241
 20
3.8512283558839044
 10
41.66326340034243
 20
4.480932980883949
 10
41.66326340034243
 20
4.480932980883949
 10
41.5701412909674
 20
5.031169215258956
 10
41.50416027534243
 20
5.589865355884001
 10
41.53692182221744
 20
6.141353809008933
 10
41.7400274003424
 20
6.669966980883942
 10
41.7400274003424
 20
6.669966980883942
 10
42.01950935346741
 20
7.265062543383976
 10
42.50354827534238
 20
7.708897730883905
 10
43.11036950971743
 20
7.92326704338393
 10
43.75819840034245
 20
7.829964980883915
 10
43.75819840034245
 20
7.829964980883915
 10
44.56171263471748
 20
7.718097871508974
 10
45.32856077534251
 20
7.450155855883963
 10
46.04023797846742
 20
7.053353152758916
 10
46.67823940034242
 20
6.554903980883921
 10
46.67823940034242
 20
6.554903980883921
 10
46.991801119092486
 20
6.070766199633908
 10
47.10556265034245
 20
5.494645230883918
 10
46.95668280659248
 20
4.9685293871339695
 10
46.48232040034242
 20
4.634406980883966
 10
46.48232040034242
 20
4.634406980883966
 10
45.80918035346741
 20
4.698975090258955
 10
45.16177102534243
 20
4.935819605883978
 10
44.55753638471742
 20
5.287361059008958
 10
44.01392040034244
 20
5.696019980883932
 10
44.01392040034244
 20
5.696019980883932
 10
43.731530212842415
 20
5.957560684008911
 10
43.376567400342424
 20
6.14105685588396
 10
43.16181783784248
 20
6.105886590258933
 10
43.30006740034247
 20
5.7114279808839115
 10
43.30006740034247
 20
5.7114279808839115
 10
43.711085962842446
 20
5.25231093400896
 10
44.11565415034249
 20
4.8250161058840035
 10
44.5252919628424
 20
4.411957215258951
 10
44.95151940034242
 20
3.9955479808839414
 10
44.95151940034242
 20
3.9955479808839414
 10
45.56062183784246
 20
3.5688027621339415
 10
46.25216840034244
 20
3.239665730883928
 10
46.96646921284241
 20
3.158785074633954
 10
47.64383440034243
 20
3.476808980883959
 10
47.64383440034243
 20
3.476808980883959
 10
47.96618319721745
 20
3.830289324633952
 10
48.173375025342466
 20
4.285100480883955
 10
48.286470540967514
 20
4.795481387133918
 10
48.326530400342506
 20
5.315670980883908
 10
48.326530400342506
 20
5.315670980883908
 10
48.148432775342485
 20
6.093250918383944
 10
47.80751615034245
 20
6.811614980883917
 10
47.34060515034247
 20
7.464383293383946
 10
46.78452440034249
 20
8.045175980883926
 10
46.78452440034249
 20
8.045175980883926
 10
45.913533056592485
 20
8.72942674650892
 10
44.897145400342424
 20
9.163753605883926
 10
43.802075994092434
 20
9.382720402758935
 10
42.69503940034241
 20
9.42089098088394
 10
42.69503940034241
 20
9.42089098088394
 10
42.03653222846748
 20
9.366629793383936
 10
41.473624275342445
 20
9.540766480883917
 10
41.04834188471739
 20
9.935737668383922
 10
40.80271140034239
 20
10.543979980883933
 10
40.80271140034239
 20
10.543979980883933
 10
40.58999047846743
 20
11.111624324633908
 10
40.68666527534242
 20
11.659326730883947
 10
41.051357634717476
 20
11.951627512133882
 10
41.642689400342476
 20
11.753066980883943
 10
41.642689400342476
 20
11.753066980883943
 10
42.08157583784248
 20
11.559423527758895
 10
42.52957965034244
 20
11.455954355883932
 10
42.77350508784241
 20
11.575158496508948
 10
42.60015640034243
 20
12.049534980883948
 10
42.60015640034243
 20
12.049534980883948
 10
42.34825446284242
 20
12.874809184008996
 10
41.89244890034246
 20
13.617304855883958
 10
41.245201337842445
 20
14.16931834025894
 10
40.418973400342395
 20
14.42314598088393
 10
40.418973400342395
 20
14.42314598088393
 10
39.800970431592475
 20
14.228253168383958
 10
39.35244890034244
 20
13.766243730883957
 10
39.086712119092454
 20
13.154559418383997
 10
39.017063400342465
 20
12.510641980883975
 10
39.017063400342465
 20
12.510641980883975
 10
39.17451588471744
 20
11.663992402758936
 10
39.54158727534241
 20
10.890878355883956
 10
40.01273522846742
 20
10.16006937150894
 10
40.4824174003424
 20
9.440334980883904
 10
40.4824174003424
 20
9.440334980883904
 10
40.6488936034674
 20
8.991362902758908
 10
40.34064652534238
 20
8.569930355883969
 10
39.932138134717434
 20
8.114416871508979
 10
39.797830400342434
 20
7.563201980883946
 10
39.797830400342434
 20
7.563201980883946
 10
39.77086997846749
 20
6.727494277758922
 10
39.980439025342434
 20
5.9208786058839
 10
40.29090425971742
 20
5.130756371508937
 10
40.56663240034243
 20
4.344528980883922
 10
40.56663240034243
 20
4.344528980883922
 10
40.3984909628424
 20
4.068626090258931
 10
39.94603615034242
 20
4.14659935588395
 10
39.399236212842425
 20
4.350696934008965
 10
38.9480594003424
 20
4.453166980883964
 10
38.9480594003424
 20
4.453166980883964
 10
37.9376822440924
 20
4.723104496508938
 10
36.941505400342464
 20
5.059295605883904
 10
35.99361505659249
 20
5.497232652758953
 10
35.12809740034248
 20
6.072407980883952
 10
35.12809740034248
 20
6.072407980883952
 10
34.64496568159245
 20
6.554516543383954
 10
34.192827150342396
 20
7.07632973088397
 10
33.8656142440924
 20
7.66288404338394
 10
33.757259400342434
 20
8.339215980883921
 10
33.757259400342434
 20
8.339215980883921
 10
33.72859580659241
 20
8.97629324650893
 10
33.912146400342465
 20
9.594897355883973
 10
34.280677744092486
 20
10.115093027758917
 10
34.80695640034247
 20
10.456944980883975
 10
34.80695640034247
 20
10.456944980883975
 10
35.51801072846746
 20
10.485877449633904
 10
36.14489827534243
 20
10.159508480883972
 10
36.62632313471744
 20
9.60441801213392
 10
36.90098940034244
 20
8.947185980883944
 10
36.90098940034244
 20
8.947185980883944
 10
36.8762775097174
 20
8.601084980883911
 10
36.88463077534243
 20
8.243673230883928
 10
36.969327103467435
 20
8.09788185588394
 10
37.173644400342425
 20
8.386641980883951
 10
37.173644400342425
 20
8.386641980883951
 10
37.546835744092334
 20
9.013915777758882
 10
37.82373215034244
 20
9.669626105883935
 10
37.96777093159244
 20
10.365058121508923
 10
37.94238940034245
 20
11.111496980883942
 10
37.94238940034245
 20
11.111496980883942
 10
37.51920333784244
 20
12.015425652758893
 10
36.67648865034238
 20
12.582261105883902
 10
35.664747587842385
 20
12.722763746508917
 10
34.734482400342415
 20
12.347693980883946
 10
34.734482400342415
 20
12.347693980883946
 10
34.122748290967536
 20
11.843520777758954
 10
33.618607025342385
 20
11.231622355883928
 10
33.26850094721749
 20
10.528399246508968
 10
33.11887240034247
 20
9.750251980883945
 10
33.11887240034247
 20
9.750251980883945
 10
32.87524286909252
 20
9.083423215258904
 10
32.761759150342414
 20
8.367516605883964
 10
32.75691855659238
 20
7.63731143400895
 10
32.83921840034242
 20
6.927586980883973
 10
32.83921840034242
 20
6.927586980883973
 10
32.83921840034242
 20
6.927586980883973
 10
32.83921840034242
 20
6.927586980883973
 10
32.83921840034242
 20
6.927586980883973
 10
32.83921840034242
 20
6.927586980883973
 10
47.6179480397405
 20
26.407320756463434
 10
15.528944344435217
 20
25.160619127354494
 10
49.466849813954525
 20
25.692750630940623
 10
49.15408865993095
 20
25.9534737709173
 10
48.80315234681473
 20
26.159967836986596
 10
48.42335029386561
 20
26.306755083575183
 10
48.024757652655126
 20
26.389941630313956
 10
47.6179480397405
 20
26.407320756463434
 10
23.14833571330479
 20
26.731706273272096
 10
22.9803287133048
 20
26.79036977327212
 10
22.812321713304755
 20
26.849033273272084
 10
22.644314713304766
 20
26.90769677327205
 10
22.476307713304777
 20
26.966360273272073
 10
22.476307713304777
 20
26.966360273272073
 10
22.262891463304754
 20
26.973403023272112
 10
22.04947521330473
 20
26.980445773272095
 10
21.836058963304765
 20
26.987488523272077
 10
21.622642713304742
 20
26.994531273272116
 10
21.622642713304742
 20
26.994531273272116
 10
21.415625463304764
 20
26.975686773272116
 10
21.20860821330473
 20
26.956842273272116
 10
21.00159096330475
 20
26.937997773272116
 10
20.79457371330477
 20
26.919153273272116
 10
20.79457371330477
 20
26.919153273272116
 10
20.665167963304782
 20
26.90009827327208
 10
20.535762213304793
 20
26.8810432732721
 10
20.406356463304746
 20
26.861988273272118
 10
20.276950713304757
 20
26.84293327327208
 10
20.276950713304757
 20
26.84293327327208
 10
20.19918421330476
 20
26.78493302327206
 10
20.121417713304766
 20
26.726932773272097
 10
20.04365121330477
 20
26.668932523272133
 10
19.965884713304774
 20
26.610932273272113
 10
24.286170713304784
 20
26.547542273272086
 10
24.53213446330477
 20
26.618024523272084
 10
24.77809821330476
 20
26.68850677327208
 10
25.024061963304746
 20
26.75898902327208
 10
25.270025713304733
 20
26.829471273272077
 10
25.270025713304733
 20
26.829471273272077
 10
25.561420213304757
 20
26.958041023272074
 10
25.852814713304724
 20
27.086610773272128
 10
26.144209213304748
 20
27.215180523272124
 10
26.435603713304772
 20
27.34375027327212
 10
26.435603713304772
 20
27.34375027327212
 10
26.701287713304794
 20
27.53059902327209
 10
26.966971713304815
 20
27.717447773272113
 10
27.23265571330478
 20
27.904296523272137
 10
27.4983397133048
 20
28.091145273272105
 10
27.4983397133048
 20
28.091145273272105
 10
27.705878963304826
 20
28.3040212732721
 10
27.913418213304794
 20
28.516897273272093
 10
28.120957463304762
 20
28.729773273272087
 10
28.328496713304787
 20
28.94264927327208
 10
28.328496713304787
 20
28.94264927327208
 10
28.458445713304798
 20
29.16220352327207
 10
28.58839471330475
 20
29.381757773272057
 10
28.718343713304762
 20
29.6013120232721
 10
28.848292713304772
 20
29.820866273272088
 10
28.848292713304772
 20
29.820866273272088
 10
28.92017471330479
 20
30.09231802327207
 10
28.992056713304805
 20
30.36376977327211
 10
29.063938713304765
 20
30.635221523272094
 10
29.13582071330478
 20
30.906673273272077
 10
29.13582071330478
 20
30.906673273272077
 10
29.169080713304766
 20
31.24937502327208
 10
29.202340713304807
 20
31.592076773272083
 10
29.235600713304848
 20
31.934778523272087
 10
29.268860713304832
 20
32.27748027327209
 10
29.268860713304832
 20
32.27748027327209
 10
29.21821596330483
 20
32.685086023272106
 10
29.167571213304768
 20
33.09269177327212
 10
29.116926463304765
 20
33.50029752327208
 10
29.06628171330476
 20
33.9079032732721
 10
29.06628171330476
 20
33.9079032732721
 10
28.976676213304756
 20
34.2574045232721
 10
28.88707071330475
 20
34.6069057732721
 10
28.797465213304804
 20
34.95640702327211
 10
28.7078597133048
 20
35.30590827327211
 10
28.7078597133048
 20
35.30590827327211
 10
28.566409963304807
 20
35.61674227327211
 10
28.424960213304757
 20
35.92757627327211
 10
28.283510463304765
 20
36.23841027327211
 10
28.142060713304772
 20
36.54924427327211
 10
28.142060713304772
 20
36.54924427327211
 10
27.93577021330475
 20
36.80204327327209
 10
27.729479713304727
 20
37.05484227327213
 10
27.52318921330476
 20
37.30764127327211
 10
27.316898713304738
 20
37.56044027327209
 10
27.316898713304738
 20
37.56044027327209
 10
27.026393213304743
 20
37.76172402327211
 10
26.73588771330475
 20
37.963007773272125
 10
26.445382213304754
 20
38.164291523272084
 10
26.15487671330476
 20
38.3655752732721
 10
26.15487671330476
 20
38.3655752732721
 10
25.81891946330478
 20
38.50230502327213
 10
25.482962213304745
 20
38.6390347732721
 10
25.147004963304767
 20
38.77576452327207
 10
24.811047713304788
 20
38.9124942732721
 10
24.811047713304788
 20
38.9124942732721
 10
24.280991963304814
 20
39.0238752732721
 10
23.750936213304783
 20
39.13525627327209
 10
23.220880463304752
 20
39.246637273272086
 10
22.690824713304778
 20
39.35801827327208
 10
22.690824713304778
 20
39.35801827327208
 10
22.166992213304752
 20
39.37883352327208
 10
21.643159713304783
 20
39.39964877327208
 10
21.119327213304814
 20
39.420464023272075
 10
20.595494713304788
 20
39.44127927327207
 10
20.595494713304788
 20
39.44127927327207
 10
20.18787396330481
 20
39.38416827327205
 10
19.780253213304775
 20
39.32705727327209
 10
19.37263246330474
 20
39.269946273272126
 10
18.96501171330476
 20
39.212835273272105
 10
18.96501171330476
 20
39.212835273272105
 10
18.621928463304755
 20
39.10380852327211
 10
18.27884521330475
 20
38.99478177327211
 10
17.9357619633048
 20
38.88575502327211
 10
17.592678713304792
 20
38.77672827327211
 10
17.592678713304792
 20
38.77672827327211
 10
17.268800463304785
 20
38.5965047732721
 10
16.94492221330478
 20
38.41628127327215
 10
16.62104396330477
 20
38.23605777327214
 10
16.297165713304764
 20
38.055834273272126
 10
16.297165713304764
 20
38.055834273272126
 10
16.037810463304766
 20
37.8172265232721
 10
15.778455213304767
 20
37.578618773272126
 10
15.519099963304768
 20
37.340011023272154
 10
15.25974471330477
 20
37.101403273272126
 10
15.25974471330477
 20
37.101403273272126
 10
15.038905713304757
 20
36.75273902327211
 10
14.818066713304802
 20
36.4040747732721
 10
14.59722771330479
 20
36.05541052327209
 10
14.376388713304777
 20
35.706746273272074
 10
14.376388713304777
 20
35.706746273272074
 10
14.29790271330478
 20
35.383570023272114
 10
14.219416713304781
 20
35.0603937732721
 10
14.140930713304783
 20
34.73721752327208
 10
14.062444713304785
 20
34.41404127327212
 10
14.062444713304785
 20
34.41404127327212
 10
14.048270213304761
 20
33.9548677732721
 10
14.034095713304737
 20
33.49569427327208
 10
14.01992121330477
 20
33.036520773272116
 10
14.005746713304745
 20
32.577347273272096
 10
14.005746713304745
 20
32.577347273272096
 10
14.082158463304722
 20
32.13086527327209
 10
14.158570213304756
 20
31.68438327327209
 10
14.23498196330479
 20
31.237901273272087
 10
14.311393713304767
 20
30.791419273272084
 10
14.311393713304767
 20
30.791419273272084
 10
14.472104963304787
 20
30.428791273272054
 10
14.63281621330475
 20
30.066163273272082
 10
14.793527463304713
 20
29.70353527327211
 10
14.954238713304733
 20
29.34090727327208
 10
14.954238713304733
 20
29.34090727327208
 10
15.225066213304729
 20
29.036192023272065
 10
15.495893713304781
 20
28.731476773272107
 10
15.766721213304777
 20
28.42676152327209
 10
16.037548713304773
 20
28.122046273272076
 10
16.037548713304773
 20
28.122046273272076
 10
16.328054213304767
 20
27.92076252327206
 10
16.618559713304762
 20
27.7194787732721
 10
16.909065213304814
 20
27.518195023272142
 10
17.19957071330481
 20
27.316911273272126
 10
17.19957071330481
 20
27.316911273272126
 10
17.580782463304786
 20
27.173592523272134
 10
17.96199421330482
 20
27.030273773272143
 10
18.343205963304797
 20
26.886955023272094
 10
18.724417713304774
 20
26.743636273272102
 10
26.954835713304817
 20
28.014996273272118
 10
26.70892146330482
 20
27.96391752327213
 10
26.463007213304763
 20
27.912838773272142
 10
26.217092963304765
 20
27.861760023272097
 10
25.971178713304766
 20
27.81068127327211
 10
25.971178713304766
 20
27.81068127327211
 10
25.5959289633048
 20
27.76641827327211
 10
25.220679213304777
 20
27.722155273272108
 10
24.845429463304754
 20
27.677892273272107
 10
24.470179713304788
 20
27.633629273272106
 10
24.470179713304788
 20
27.633629273272106
 10
24.0368627133048
 20
27.641265523272125
 10
23.60354571330481
 20
27.648901773272087
 10
23.170228713304766
 20
27.656538023272105
 10
22.736911713304778
 20
27.664174273272124
 10
22.736911713304778
 20
27.664174273272124
 10
22.16793071330477
 20
27.730386523272102
 10
21.598949713304762
 20
27.79659877327208
 10
21.029968713304754
 20
27.862811023272116
 10
20.460987713304746
 20
27.929023273272094
 10
20.460987713304746
 20
27.929023273272094
 10
20.008613713304726
 20
28.06606602327213
 10
19.556239713304763
 20
28.203108773272106
 10
19.1038657133048
 20
28.340151523272084
 10
18.65149171330478
 20
28.47719427327212
 10
18.65149171330478
 20
28.47719427327212
 10
18.322018463304744
 20
28.62037352327212
 10
17.992545213304766
 20
28.763552773272067
 10
17.663071963304787
 20
28.90673202327207
 10
17.333598713304752
 20
29.049911273272073
 10
17.333598713304752
 20
29.049911273272073
 10
17.049492463304773
 20
29.22530677327211
 10
16.765386213304737
 20
29.40070227327209
 10
16.481279963304758
 20
29.576097773272068
 10
16.197173713304778
 20
29.751493273272104
 10
16.197173713304778
 20
29.751493273272104
 10
16.003682213304785
 20
29.952515773272125
 10
15.810190713304792
 20
30.15353827327209
 10
15.616699213304742
 20
30.354560773272055
 10
15.423207713304748
 20
30.555583273272077
 10
15.423207713304748
 20
30.555583273272077
 10
15.242874713304786
 20
30.840651023272073
 10
15.062541713304768
 20
31.12571877327207
 10
14.882208713304749
 20
31.410786523272066
 10
14.701875713304787
 20
31.69585427327206
 10
14.701875713304787
 20
31.69585427327206
 10
14.657319963304758
 20
31.96115302327206
 10
14.612764213304786
 20
32.22645177327206
 10
14.568208463304813
 20
32.49175052327212
 10
14.523652713304784
 20
32.757049273272116
 10
14.523652713304784
 20
32.757049273272116
 10
14.518071713304778
 20
33.08691977327214
 10
14.512490713304771
 20
33.41679027327211
 10
14.506909713304765
 20
33.74666077327208
 10
14.501328713304758
 20
34.07653127327211
 10
14.501328713304758
 20
34.07653127327211
 10
14.573316713304735
 20
34.386790273272084
 10
14.645304713304768
 20
34.697049273272114
 10
14.7172927133048
 20
35.00730827327209
 10
14.789280713304777
 20
35.31756727327206
 10
14.789280713304777
 20
35.31756727327206
 10
14.96474521330481
 20
35.62754677327206
 10
15.140209713304785
 20
35.937526273272056
 10
15.31567421330476
 20
36.24750577327211
 10
15.491138713304792
 20
36.55748527327211
 10
15.491138713304792
 20
36.55748527327211
 10
15.782899963304772
 20
36.821876523272124
 10
16.074661213304807
 20
37.086267773272084
 10
16.366422463304787
 20
37.3506590232721
 10
16.658183713304766
 20
37.61505027327212
 10
16.658183713304766
 20
37.61505027327212
 10
17.04033396330476
 20
37.82098852327209
 10
17.422484213304756
 20
38.026926773272066
 10
17.804634463304808
 20
38.2328650232721
 10
18.186784713304803
 20
38.43880327327207
 10
18.186784713304803
 20
38.43880327327207
 10
18.54282196330479
 20
38.55426327327211
 10
18.898859213304775
 20
38.6697232732721
 10
19.25489646330476
 20
38.78518327327208
 10
19.610933713304746
 20
38.900643273272124
 10
19.610933713304746
 20
38.900643273272124
 10
19.979791213304736
 20
38.970793773272135
 10
20.348648713304783
 20
39.04094427327209
 10
20.717506213304773
 20
39.1110947732721
 10
21.086363713304763
 20
39.18124527327211
 10
21.086363713304763
 20
39.18124527327211
 10
21.39686446330478
 20
39.199811273272076
 10
21.707365213304797
 20
39.2183772732721
 10
22.017865963304757
 20
39.23694327327212
 10
22.328366713304774
 20
39.25550927327208
 10
23.14833571330479
 20
26.731706273272096
 10
23.214814784978444
 20
26.662040302725813
 10
23.2812938566521
 20
26.592374332179475
 10
23.347772928325753
 20
26.522708361633136
 10
23.414251999999408
 20
26.453042391086854
 10
19.914251999999408
 20
26.517221838004787
 10
19.92716017832572
 20
26.54064944682159
 10
19.94006835665209
 20
26.56407705563845
 10
19.95297653497846
 20
26.58750466445531
 10
19.965884713304774
 20
26.610932273272113
 10
23.414251999999408
 20
26.453042391086854
 10
23.632231678325752
 20
26.47666736163319
 10
23.850211356652096
 20
26.50029233217947
 10
24.06819103497844
 20
26.52391730272575
 10
24.286170713304784
 20
26.547542273272086
 10
18.724417713304774
 20
26.743636273272102
 10
19.02187628497842
 20
26.687032664455273
 10
19.319334856652063
 20
26.630429055638444
 10
19.616793428325764
 20
26.573825446821616
 10
19.914251999999408
 20
26.517221838004787
 10
23.414251999999408
 20
26.453042391086854
 10
23.414251999999408
 20
26.20652531871184
 10
23.414251999999408
 20
25.960008246336827
 10
23.414251999999408
 20
25.713491173961813
 10
23.414251999999408
 20
25.4669741015868
 10
19.914251999999408
 20
26.517221838004787
 10
19.914251999999408
 20
26.22066495859667
 10
19.914251999999408
 20
25.9241080791885
 10
19.914251999999408
 20
25.627551199780328
 10
19.914251999999408
 20
25.330994320372213
 10
22.328366713304774
 20
39.25550927327208
 10
22.602430803353172
 20
39.242588127581314
 10
22.876494893401514
 20
39.229666981890546
 10
23.150558983449855
 20
39.21674583619972
 10
23.424623073498253
 20
39.20382469050895
 10
27.944525840248673
 20
28.5488048145844
 10
27.697103308512737
 20
28.41535267925633
 10
27.449680776776745
 20
28.28190054392826
 10
27.202258245040753
 20
28.14844840860019
 10
26.954835713304817
 20
28.014996273272118
 10
40.046252000000095
 20
63.496748628908364
 10
0.3770615428770725
 20
148.67860602601837
 10
0.3770615428770725
 20
118.2392251583884
 10
7.3770615428770725
 20
148.4576993487283
 10
7.3770615428770725
 20
117.94468292200165
 10
17.377061542877072
 20
148.84678803553066
 10
17.377061542877072
 20
118.46346783773811
 10
32.37706154287707
 20
121.97740793109958
 10
32.37706154287707
 20
121.97740793109958
 10
28.627061542877072
 20
121.0989229077592
 10
24.877061542877072
 20
120.22043788441886
 10
21.127061542877072
 20
119.34195286107848
 10
17.377061542877072
 20
118.46346783773811
 10
7.3770615428770725
 20
117.94468292200165
 10
5.6270615428770725
 20
118.01831848109833
 10
3.8770615428770725
 20
118.09195404019502
 10
2.1270615428770725
 20
118.1655895992917
 10
0.3770615428770725
 20
118.2392251583884
 10
44.360834937500044
 20
118.63111416015829
 10
32.96453343750011
 20
113.79321917187707
 10
20.9331032500001
 20
110.9627873789083
 10
8.265008843750138
 20
110.01882505468959
 10
0.0
 20
112.44224462890836
 10
0.0
 20
112.44224462890836
 10
1.502262500000029
 20
112.36765512890835
 10
3.004525000000058
 20
112.29306562890835
 10
4.506787500000087
 20
112.21847612890835
 10
6.009050000000116
 20
112.14388662890835
 10
6.009050000000116
 20
112.14388662890835
 10
7.504089500000134
 20
112.16227662890836
 10
8.999129000000153
 20
112.18066662890837
 10
10.494168500000171
 20
112.19905662890838
 10
11.98920800000019
 20
112.21744662890839
 10
11.98920800000019
 20
112.21744662890839
 10
13.483179750000147
 20
112.33527737890839
 10
14.977151500000105
 20
112.45310812890838
 10
16.471123250000062
 20
112.57093887890838
 10
17.96509500000002
 20
112.68876962890837
 10
17.96509500000002
 20
112.68876962890837
 10
19.450015500000063
 20
112.91350837890835
 10
20.934936000000107
 20
113.13824712890832
 10
22.41985650000015
 20
113.36298587890829
 10
23.904777000000195
 20
113.58772462890826
 10
23.904777000000195
 20
113.58772462890826
 10
25.388048500000195
 20
113.94330012890825
 10
26.871320000000196
 20
114.29887562890823
 10
28.354591500000197
 20
114.65445112890822
 10
29.837863000000198
 20
115.01002662890821
 10
29.837863000000198
 20
115.01002662890821
 10
31.26231150000018
 20
115.48946212890823
 10
32.68676000000016
 20
115.96889762890828
 10
34.111208500000146
 20
116.4483331289083
 10
35.53565700000013
 20
116.92776862890832
 10
35.53565700000013
 20
116.92776862890832
 10
36.92684800000012
 20
117.53491012890834
 10
38.31803900000011
 20
118.14205162890835
 10
39.709230000000105
 20
118.74919312890833
 10
41.1004210000001
 20
119.35633462890834
 10
41.1004210000001
 20
119.35633462890834
 10
42.434673750000115
 20
120.07529362890833
 10
43.768926500000134
 20
120.79425262890834
 10
45.10317925000015
 20
121.51321162890832
 10
46.43743200000017
 20
122.2321706289083
 10
46.43743200000017
 20
122.2321706289083
 10
47.69552250000015
 20
123.04610637890832
 10
48.95361300000013
 20
123.86004212890833
 10
0.486131000000114
 20
118.2282426289083
 10
0.486131000000114
 20
118.2282426289083
 10
0.37472600000012335
 20
116.90228512890832
 10
0.2633210000001327
 20
115.57632762890833
 10
0.15191600000014205
 20
114.25037012890834
 10
0.0405110000001514
 20
112.92441262890836
 10
0.0405110000001514
 20
112.92441262890836
 10
0.2922600000001694
 20
112.90628787890833
 10
0.5440090000001874
 20
112.8881631289083
 10
0.7957580000002054
 20
112.87003837890828
 10
1.0475070000002233
 20
112.85191362890825
 10
1.0475070000002233
 20
112.85191362890825
 10
1.1359305000001996
 20
114.17960037890825
 10
1.2243540000001758
 20
115.50728712890827
 10
1.312777500000152
 20
116.83497387890827
 10
1.4012010000001283
 20
118.16266062890827
 10
1.4012010000001283
 20
118.16266062890827
 10
2.5693590000001336
 20
118.10946787890828
 10
3.737517000000139
 20
118.05627512890828
 10
4.905675000000144
 20
118.00308237890826
 10
6.07383300000015
 20
117.94988962890827
 10
6.07383300000015
 20
117.94988962890827
 10
6.058987000000172
 20
116.61934762890829
 10
6.044141000000195
 20
115.28880562890834
 10
6.029295000000218
 20
113.95826362890836
 10
6.014449000000241
 20
112.62772162890838
 10
6.014449000000241
 20
112.62772162890838
 10
6.256365750000214
 20
112.62502237890834
 10
6.498282500000187
 20
112.6223231289083
 10
6.74019925000016
 20
112.61962387890824
 10
6.982116000000133
 20
112.61692462890821
 10
6.982116000000133
 20
112.61692462890821
 10
6.996962000000167
 20
113.94746662890824
 10
7.011808000000201
 20
115.27800862890828
 10
7.026654000000235
 20
116.60855062890832
 10
7.041500000000269
 20
117.93909262890836
 10
7.041500000000269
 20
117.93909262890836
 10
8.206990000000246
 20
117.95850912890833
 10
9.372480000000223
 20
117.97792562890834
 10
10.5379700000002
 20
117.99734212890831
 10
11.703460000000177
 20
118.01675862890829
 10
11.703460000000177
 20
118.01675862890829
 10
11.768943750000176
 20
116.68774987890828
 10
11.834427500000174
 20
115.35874112890826
 10
11.899911250000173
 20
114.02973237890822
 10
11.965395000000171
 20
112.70072362890821
 10
11.965395000000171
 20
112.70072362890821
 10
12.207033250000165
 20
112.71262987890825
 10
12.44867150000016
 20
112.72453612890828
 10
12.690309750000154
 20
112.73644237890832
 10
12.931948000000148
 20
112.74834862890836
 10
12.931948000000148
 20
112.74834862890836
 10
12.866464000000121
 20
114.07735737890835
 10
12.800980000000095
 20
115.40636612890833
 10
12.735496000000069
 20
116.73537487890832
 10
12.670012000000042
 20
118.0643836289083
 10
12.670012000000042
 20
118.0643836289083
 10
13.827937750000046
 20
118.1625576289083
 10
14.98586350000005
 20
118.2607316289083
 10
16.143789250000054
 20
118.3589056289083
 10
17.30171500000006
 20
118.4570796289083
 10
17.30171500000006
 20
118.4570796289083
 10
17.453739500000097
 20
117.13517562890834
 10
17.605764000000136
 20
115.81327162890838
 10
17.757788500000174
 20
114.49136762890842
 10
17.909813000000213
 20
113.16946362890846
 10
17.909813000000213
 20
113.16946362890846
 10
18.1501595000002
 20
113.19710437890839
 10
18.390506000000187
 20
113.22474512890832
 10
18.630852500000174
 20
113.25238587890826
 10
18.87119900000016
 20
113.28002662890819
 10
18.87119900000016
 20
113.28002662890819
 10
18.719174500000122
 20
114.60193087890823
 10
18.567150000000083
 20
115.92383512890828
 10
18.415125500000045
 20
117.24573937890833
 10
18.263101000000006
 20
118.56764362890837
 10
18.263101000000006
 20
118.56764362890837
 10
19.407522250000056
 20
118.74966287890837
 10
20.551943500000107
 20
118.93168212890836
 10
21.696364750000157
 20
119.11370137890836
 10
22.840786000000207
 20
119.29572062890836
 10
22.840786000000207
 20
119.29572062890836
 10
23.08461725000018
 20
117.98763862890834
 10
23.32844850000015
 20
116.67955662890833
 10
23.57227975000012
 20
115.37147462890832
 10
23.81611100000009
 20
114.0633926289083
 10
23.81611100000009
 20
114.0633926289083
 10
24.07048300000008
 20
114.11335537890827
 10
24.32485500000007
 20
114.16331812890823
 10
24.57922700000006
 20
114.2132808789082
 10
24.83359900000005
 20
114.26324362890816
 10
24.83359900000005
 20
114.26324362890816
 10
24.552403500000082
 20
115.5638026289082
 10
24.271208000000115
 20
116.86436162890826
 10
23.990012500000148
 20
118.1649206289083
 10
23.70881700000018
 20
119.46547962890835
 10
23.70881700000018
 20
119.46547962890835
 10
24.830551750000154
 20
119.74393362890834
 10
25.952286500000127
 20
120.02238762890835
 10
27.0740212500001
 20
120.30084162890833
 10
28.195756000000074
 20
120.57929562890831
 10
28.195756000000074
 20
120.57929562890831
 10
28.572072000000105
 20
119.30300537890832
 10
28.948388000000136
 20
118.02671512890834
 10
29.324704000000168
 20
116.75042487890832
 10
29.7010200000002
 20
115.47413462890833
 10
29.7010200000002
 20
115.47413462890833
 10
29.933073000000206
 20
115.54255562890833
 10
30.165126000000214
 20
115.61097662890833
 10
30.39717900000022
 20
115.67939762890833
 10
30.62923200000023
 20
115.74781862890833
 10
30.62923200000023
 20
115.74781862890833
 10
30.252916000000198
 20
117.02410887890832
 10
29.876600000000167
 20
118.30039912890831
 10
29.500284000000136
 20
119.5766893789083
 10
29.123968000000104
 20
120.85297962890829
 10
29.123968000000104
 20
120.85297962890829
 10
30.217980500000124
 20
121.23112387890828
 10
31.311993000000143
 20
121.60926812890827
 10
32.40600550000016
 20
121.98741237890826
 10
33.50001800000018
 20
122.36555662890825
 10
33.50001800000018
 20
122.36555662890825
 10
33.96651850000018
 20
121.11939712890828
 10
34.43301900000017
 20
119.87323762890833
 10
34.89951950000017
 20
118.62707812890835
 10
35.36602000000016
 20
117.38091862890838
 10
35.36602000000016
 20
117.38091862890838
 10
35.60387425000016
 20
117.47569562890837
 10
35.84172850000016
 20
117.57047262890836
 10
36.07958275000016
 20
117.66524962890836
 10
36.317437000000155
 20
117.76002662890835
 10
36.317437000000155
 20
117.76002662890835
 10
35.82197975000014
 20
118.99495962890833
 10
35.326522500000124
 20
120.22989262890832
 10
34.83106525000011
 20
121.46482562890827
 10
34.33560800000009
 20
122.69975862890826
 10
34.33560800000009
 20
122.69975862890826
 10
35.395113000000094
 20
123.17082612890826
 10
36.454618000000096
 20
123.64189362890826
 10
37.5141230000001
 20
124.11296112890827
 10
38.5736280000001
 20
124.58402862890827
 10
38.5736280000001
 20
124.58402862890827
 10
39.152684750000105
 20
123.38601562890827
 10
39.73174150000011
 20
122.18800262890827
 10
40.31079825000012
 20
120.98998962890826
 10
40.889855000000125
 20
119.79197662890826
 10
40.889855000000125
 20
119.79197662890826
 10
41.11888450000009
 20
119.90526962890826
 10
41.34791400000006
 20
120.01856262890826
 10
41.57694350000003
 20
120.13185562890826
 10
41.805972999999994
 20
120.24514862890825
 10
41.805972999999994
 20
120.24514862890825
 10
41.200120250000055
 20
121.42983637890828
 10
40.594267500000115
 20
122.6145241289083
 10
39.988414750000175
 20
123.79921187890832
 10
39.382562000000235
 20
124.98389962890835
 10
39.382562000000235
 20
124.98389962890835
 10
40.40103775000023
 20
125.54164462890833
 10
41.41951350000022
 20
126.09938962890831
 10
42.437989250000214
 20
126.6571346289083
 10
43.45646500000021
 20
127.21487962890828
 10
43.45646500000021
 20
127.21487962890828
 10
44.139603250000164
 20
126.0730091289083
 10
44.82274150000012
 20
124.93113862890831
 10
45.50587975000008
 20
123.78926812890833
 10
46.18901800000003
 20
122.64739762890835
 10
46.18901800000003
 20
122.64739762890835
 10
46.39663100000007
 20
122.77160462890834
 10
46.60424400000011
 20
122.89581162890832
 10
46.811857000000145
 20
123.0200186289083
 10
47.01947000000018
 20
123.14422562890829
 10
47.01947000000018
 20
123.14422562890829
 10
46.33633175000017
 20
124.2860961289083
 10
45.65319350000016
 20
125.42796662890834
 10
44.970055250000144
 20
126.56983712890835
 10
44.28691700000013
 20
127.71170762890836
 10
44.28691700000013
 20
127.71170762890836
 10
45.25794825000014
 20
128.35032612890836
 10
46.22897950000015
 20
128.98894462890837
 10
47.20001075000016
 20
129.62756312890835
 10
48.17104200000017
 20
130.26618162890836
 10
48.17104200000017
 20
130.26618162890836
 10
48.92700575000015
 20
129.17116237890835
 10
48.90492200000017
 20
130.79644162890835
 10
48.90492200000017
 20
130.79644162890835
 10
6.1270615428770725
 20
140.9745341156126
 10
6.7520615428770725
 20
129.45960851880713
 10
7.3770615428770725
 20
117.94468292200165
 10
1.6270615428771862
 20
141.12180523380596
 10
1.002061542877243
 20
129.6805151960971
 10
0.37706154287729987
 20
118.23922515838828
 10
32.37706154287707
 20
142.51886844304886
 10
28.627061542877072
 20
141.64038341970848
 10
24.877061542877072
 20
140.7618983963681
 10
21.127061542877072
 20
139.8834133730277
 10
17.377061542877072
 20
139.00492834968733
 10
0.3770615428770725
 20
179.11798689364835
 10
7.3770615428770725
 20
178.97071577545498
 10
17.377061542877072
 20
179.23010823332322
 10
32.37706154287707
 20
180.98707828000394
 10
32.37706154287707
 20
151.48224310555176
 10
4.8770615428770725
 20
164.00438530922358
 10
4.3770615428770725
 20
164.00438530922358
 10
3.8770615428770725
 20
164.0043853092236
 10
3.3770615428770725
 20
164.0043853092236
 10
2.8770615428770725
 20
164.0043853092236
 10
4.8770615428770725
 20
164.00438530922358
 10
5.5020615428770725
 20
152.4894597124181
 10
2.8770615428770725
 20
164.0043853092236
 10
2.2520615428771293
 20
152.56309527151478
 10
4.8770615428770725
 20
183.00247613914476
 10
4.8770615428770725
 20
164.00438530922358
 10
2.8770615428770725
 20
183.00247613914496
 10
2.8770615428770725
 20
164.00438530922384
 10
0.3770615428770725
 20
239.9967486289083
 10
0.3770615428770725
 20
209.55736776127833
 10
7.3770615428770725
 20
239.9967486289083
 10
7.3770615428770725
 20
209.48373220218164
 10
0.3770615428770725
 20
239.9967486289083
 10
7.3770615428770725
 20
239.9967486289083
 10
17.377061542877072
 20
239.9967486289083
 10
32.37706154287707
 20
239.9967486289083
 10
17.377061542877072
 20
239.9967486289083
 10
17.377061542877072
 20
209.61342843111575
 10
32.37706154287707
 20
239.9967486289083
 10
32.37706154287707
 20
210.49191345445612
 10
0.3770615428770725
 20
206.9967486289083
 10
0.3770615428770725
 20
201.47182150541036
 10
0.3770615428770725
 20
201.47182150541036
 10
0.3770615428770725
 20
206.9967486289083
 10
4.8770615428770725
 20
239.9967486289083
 10
2.8770615428770725
 20
239.9967486289083
 10
4.8770615428770725
 20
239.9967486289083
 10
4.8770615428770725
 20
220.99865779898713
 10
4.8770615428770725
 20
202.00056696906594
 10
2.8770615428770725
 20
239.9967486289083
 10
2.8770615428770725
 20
220.99865779898718
 10
2.8770615428770725
 20
202.00056696906609
 10
0.37706154287712934
 20
270.4361294965383
 10
0.3770615428771862
 20
300.8755103641683
 10
0.37706154287724303
 20
331.31489123179824
 10
7.3770615428770725
 20
270.50976505563494
 10
7.3770615428770725
 20
301.0227814823616
 10
7.3770615428770725
 20
331.5357979090883
 10
17.377061542877072
 20
270.38006882670084
 10
17.377061542877072
 20
300.7633890244934
 10
17.377061542877072
 20
331.14670922228595
 10
32.37706154287707
 20
269.5015838033605
 10
32.37706154287707
 20
299.0064189778127
 10
32.37706154287707
 20
328.5112541522649
 10
0.3770615428770725
 20
272.99674862890834
 10
0.3770615428770725
 20
278.5216757524063
 10
48.17104200000017
 20
349.7273156289083
 10
48.17104200000017
 20
349.7273156289083
 10
48.90492200000017
 20
349.19705562890823
 10
48.90492200000017
 20
349.19705562890823
 10
0.3770615428770725
 20
278.5216757524063
 10
0.3770615428770725
 20
272.99674862890834
 10
4.8770615428770725
 20
315.98911194859306
 10
4.3770615428770725
 20
315.98911194859306
 10
3.8770615428770725
 20
315.98911194859306
 10
3.3770615428770725
 20
315.98911194859306
 10
2.8770615428770725
 20
315.98911194859306
 10
4.8770615428770725
 20
315.98911194859306
 10
5.5020615428770725
 20
327.5040375453985
 10
6.1270615428770725
 20
339.018963142204
 10
2.8770615428770725
 20
315.98911194859306
 10
2.2520615428771293
 20
327.4304019863019
 10
1.6270615428771862
 20
338.8716920240107
 10
4.8770615428770725
 20
258.99483945882946
 10
4.8770615428770725
 20
277.9929302887507
 10
4.8770615428770725
 20
296.9910211186718
 10
4.8770615428770725
 20
315.98911194859306
 10
2.8770615428770725
 20
258.99483945882946
 10
2.8770615428770725
 20
277.9929302887506
 10
2.8770615428770725
 20
296.9910211186717
 10
2.8770615428770725
 20
315.98911194859284
 10
32.37706154287707
 20
337.4746288147678
 10
28.627061542877072
 20
338.3531138381082
 10
24.877061542877072
 20
339.23159886144856
 10
21.127061542877072
 20
340.1100838847889
 10
17.377061542877072
 20
340.9885689081293
 10
0.37706154287729987
 20
361.75427209942825
 10
7.3770615428770725
 20
362.04881433581494
 10
17.377061542877072
 20
361.5300294200785
 10
32.37706154287707
 20
358.01608932671706
 10
32.37706154287707
 20
358.01608932671706
 10
28.627061542877072
 20
358.8945743500574
 10
24.877061542877072
 20
359.77305937339776
 10
21.127061542877072
 20
360.65154439673813
 10
17.377061542877072
 20
361.5300294200785
 10
7.3770615428770725
 20
362.04881433581494
 10
5.627061542877129
 20
361.9751787767183
 10
3.877061542877186
 20
361.90154321762157
 10
2.127061542877243
 20
361.8279076585249
 10
0.37706154287729987
 20
361.75427209942825
 10
44.360834937500044
 20
361.3623830976584
 10
32.96453343750011
 20
366.2002780859396
 10
20.93310325000016
 20
369.0307098789084
 10
8.265008843750138
 20
369.9746722031271
 10
2.2737367544323206e-13
 20
367.55125262890823
 10
2.2737367544323206e-13
 20
367.55125262890823
 10
1.5022625000001995
 20
367.62584212890823
 10
3.0045250000001715
 20
367.70043162890823
 10
4.506787500000144
 20
367.77502112890824
 10
6.009050000000116
 20
367.84961062890824
 10
6.009050000000116
 20
367.84961062890824
 10
7.504089500000134
 20
367.8312206289083
 10
8.999129000000153
 20
367.8128306289083
 10
10.494168500000171
 20
367.7944406289083
 10
11.98920800000019
 20
367.77605062890837
 10
11.98920800000019
 20
367.77605062890837
 10
13.483179750000147
 20
367.6582198789083
 10
14.977151500000105
 20
367.54038912890826
 10
16.471123250000062
 20
367.42255837890826
 10
17.96509500000002
 20
367.3047276289082
 10
17.96509500000002
 20
367.3047276289082
 10
19.450015500000063
 20
367.07998887890824
 10
20.934936000000107
 20
366.85525012890827
 10
22.41985650000015
 20
366.6305113789083
 10
23.904777000000195
 20
366.4057726289083
 10
23.904777000000195
 20
366.4057726289083
 10
25.388048500000195
 20
366.05019712890834
 10
26.871320000000196
 20
365.6946216289083
 10
28.354591500000197
 20
365.3390461289083
 10
29.837863000000198
 20
364.9834706289083
 10
29.837863000000198
 20
364.9834706289083
 10
31.26231150000018
 20
364.5040351289083
 10
32.68676000000016
 20
364.0245996289083
 10
34.111208500000146
 20
363.5451641289083
 10
35.53565700000013
 20
363.06572862890835
 10
35.53565700000013
 20
363.06572862890835
 10
36.92684800000012
 20
362.45858712890833
 10
38.31803900000011
 20
361.8514456289083
 10
39.709230000000105
 20
361.2443041289083
 10
41.1004210000001
 20
360.6371626289083
 10
41.1004210000001
 20
360.6371626289083
 10
42.434673750000115
 20
359.9182036289083
 10
43.768926500000134
 20
359.19924462890833
 10
45.10317925000015
 20
358.48028562890835
 10
46.43743200000017
 20
357.76132662890836
 10
46.43743200000017
 20
357.76132662890836
 10
47.69552250000015
 20
356.9473908789083
 10
48.95361300000013
 20
356.13345512890834
 10
0.486131000000114
 20
361.76525462890834
 10
0.486131000000114
 20
361.76525462890834
 10
0.37472600000012335
 20
363.0912121289083
 10
0.2633210000001327
 20
364.41716962890825
 10
0.15191600000014205
 20
365.74312712890827
 10
0.0405110000001514
 20
367.06908462890823
 10
0.0405110000001514
 20
367.06908462890823
 10
0.2922600000001694
 20
367.08720937890826
 10
0.5440090000001874
 20
367.10533412890834
 10
0.7957580000002054
 20
367.1234588789083
 10
1.0475070000002233
 20
367.1415836289084
 10
1.0475070000002233
 20
367.1415836289084
 10
1.1359305000002564
 20
365.8138968789084
 10
1.2243540000002895
 20
364.4862101289084
 10
1.3127775000003226
 20
363.15852337890834
 10
1.4012010000003556
 20
361.83083662890834
 10
1.4012010000003556
 20
361.83083662890834
 10
2.569359000000304
 20
361.88402937890834
 10
3.7375170000002527
 20
361.9372221289084
 10
4.905675000000201
 20
361.9904148789084
 10
6.07383300000015
 20
362.0436076289084
 10
6.07383300000015
 20
362.0436076289084
 10
6.058987000000172
 20
363.37414962890836
 10
6.044141000000195
 20
364.70469162890834
 10
6.029295000000218
 20
366.03523362890826
 10
6.014449000000241
 20
367.36577562890824
 10
6.014449000000241
 20
367.36577562890824
 10
6.256365750000214
 20
367.3684748789083
 10
6.498282500000187
 20
367.37117412890836
 10
6.74019925000016
 20
367.3738733789084
 10
6.982116000000133
 20
367.37657262890843
 10
6.982116000000133
 20
367.37657262890843
 10
6.996962000000167
 20
366.0460306289084
 10
7.011808000000201
 20
364.71548862890836
 10
7.026654000000235
 20
363.3849466289083
 10
7.041500000000269
 20
362.0544046289083
 10
7.041500000000269
 20
362.0544046289083
 10
8.206990000000246
 20
362.03498812890825
 10
9.372480000000223
 20
362.0155716289083
 10
10.5379700000002
 20
361.9961551289083
 10
11.703460000000177
 20
361.9767386289083
 10
11.703460000000177
 20
361.9767386289083
 10
11.768943750000176
 20
363.30574737890834
 10
11.834427500000174
 20
364.6347561289084
 10
11.899911250000173
 20
365.9637648789084
 10
11.965395000000171
 20
367.29277362890844
 10
11.965395000000171
 20
367.29277362890844
 10
12.207033250000165
 20
367.2808673789084
 10
12.44867150000016
 20
367.2689611289084
 10
12.690309750000154
 20
367.2570548789084
 10
12.931948000000148
 20
367.2451486289084
 10
12.931948000000148
 20
367.2451486289084
 10
12.866464000000121
 20
365.9161398789083
 10
12.800980000000095
 20
364.58713112890837
 10
12.735496000000069
 20
363.2581223789083
 10
12.670012000000042
 20
361.92911362890834
 10
12.670012000000042
 20
361.92911362890834
 10
13.827937750000046
 20
361.8309396289083
 10
14.98586350000005
 20
361.7327656289083
 10
16.143789250000054
 20
361.6345916289083
 10
17.30171500000006
 20
361.5364176289083
 10
17.30171500000006
 20
361.5364176289083
 10
17.453739500000097
 20
362.8583216289083
 10
17.605764000000136
 20
364.18022562890826
 10
17.757788500000174
 20
365.5021296289083
 10
17.909813000000213
 20
366.82403362890824
 10
17.909813000000213
 20
366.82403362890824
 10
18.1501595000002
 20
366.79639287890825
 10
18.390506000000187
 20
366.76875212890826
 10
18.630852500000174
 20
366.7411113789083
 10
18.87119900000016
 20
366.7134706289083
 10
18.87119900000016
 20
366.7134706289083
 10
18.719174500000122
 20
365.3915663789083
 10
18.567150000000083
 20
364.06966212890825
 10
18.415125500000045
 20
362.74775787890826
 10
18.263101000000006
 20
361.42585362890827
 10
18.263101000000006
 20
361.42585362890827
 10
19.407522250000056
 20
361.2438343789083
 10
20.551943500000107
 20
361.0618151289083
 10
21.696364750000157
 20
360.8797958789083
 10
22.840786000000207
 20
360.6977766289083
 10
22.840786000000207
 20
360.6977766289083
 10
23.08461725000018
 20
362.0058586289083
 10
23.32844850000015
 20
363.3139406289083
 10
23.57227975000012
 20
364.6220226289083
 10
23.81611100000009
 20
365.9301046289083
 10
23.81611100000009
 20
365.9301046289083
 10
24.07048300000008
 20
365.8801418789083
 10
24.32485500000007
 20
365.8301791289083
 10
24.57922700000006
 20
365.78021637890834
 10
24.83359900000005
 20
365.7302536289083
 10
24.83359900000005
 20
365.7302536289083
 10
24.552403500000082
 20
364.4296946289083
 10
24.271208000000115
 20
363.1291356289083
 10
23.990012500000148
 20
361.82857662890825
 10
23.70881700000018
 20
360.5280176289083
 10
23.70881700000018
 20
360.5280176289083
 10
24.830551750000154
 20
360.2495636289083
 10
25.952286500000127
 20
359.9711096289083
 10
27.0740212500001
 20
359.69265562890837
 10
28.195756000000074
 20
359.41420162890836
 10
28.195756000000074
 20
359.41420162890836
 10
28.572072000000105
 20
360.6904918789084
 10
28.948388000000136
 20
361.9667821289084
 10
29.324704000000168
 20
363.24307237890844
 10
29.7010200000002
 20
364.5193626289084
 10
29.7010200000002
 20
364.5193626289084
 10
29.933073000000206
 20
364.4509416289084
 10
30.165126000000214
 20
364.38252062890837
 10
30.39717900000022
 20
364.31409962890837
 10
30.62923200000023
 20
364.2456786289083
 10
30.62923200000023
 20
364.2456786289083
 10
30.252916000000198
 20
362.9693883789083
 10
29.876600000000167
 20
361.69309812890833
 10
29.500284000000136
 20
360.4168078789083
 10
29.123968000000104
 20
359.1405176289083
 10
29.123968000000104
 20
359.1405176289083
 10
30.217980500000124
 20
358.7623733789083
 10
31.311993000000143
 20
358.3842291289083
 10
32.40600550000016
 20
358.0060848789083
 10
33.50001800000018
 20
357.62794062890833
 10
33.50001800000018
 20
357.62794062890833
 10
33.96651850000018
 20
358.8741001289083
 10
34.43301900000017
 20
360.12025962890834
 10
34.89951950000017
 20
361.3664191289083
 10
35.36602000000016
 20
362.6125786289083
 10
35.36602000000016
 20
362.6125786289083
 10
35.60387425000016
 20
362.5178016289083
 10
35.84172850000016
 20
362.4230246289083
 10
36.07958275000016
 20
362.3282476289083
 10
36.317437000000155
 20
362.2334706289083
 10
36.317437000000155
 20
362.2334706289083
 10
35.82197975000014
 20
360.9985376289083
 10
35.326522500000124
 20
359.76360462890835
 10
34.83106525000011
 20
358.52867162890834
 10
34.33560800000009
 20
357.2937386289084
 10
34.33560800000009
 20
357.2937386289084
 10
35.395113000000094
 20
356.8226711289084
 10
36.454618000000096
 20
356.3516036289084
 10
37.5141230000001
 20
355.8805361289084
 10
38.5736280000001
 20
355.40946862890837
 10
38.5736280000001
 20
355.40946862890837
 10
39.152684750000105
 20
356.6074816289083
 10
39.73174150000011
 20
357.8054946289083
 10
40.31079825000012
 20
359.0035076289083
 10
40.889855000000125
 20
360.2015206289083
 10
40.889855000000125
 20
360.2015206289083
 10
41.11888450000009
 20
360.0882276289083
 10
41.34791400000006
 20
359.97493462890833
 10
41.57694350000003
 20
359.86164162890833
 10
41.805972999999994
 20
359.7483486289084
 10
41.805972999999994
 20
359.7483486289084
 10
41.200120250000055
 20
358.5636608789083
 10
40.594267500000115
 20
357.37897312890834
 10
39.988414750000175
 20
356.19428537890826
 10
39.382562000000235
 20
355.0095976289083
 10
39.382562000000235
 20
355.0095976289083
 10
40.40103775000023
 20
354.4518526289083
 10
41.41951350000022
 20
353.89410762890833
 10
42.437989250000214
 20
353.3363626289084
 10
43.45646500000021
 20
352.77861762890836
 10
43.45646500000021
 20
352.77861762890836
 10
44.139603250000164
 20
353.92048812890835
 10
44.82274150000012
 20
355.0623586289083
 10
45.50587975000008
 20
356.2042291289083
 10
46.18901800000003
 20
357.34609962890823
 10
46.18901800000003
 20
357.34609962890823
 10
46.39663100000007
 20
357.2218926289083
 10
46.60424400000011
 20
357.0976856289083
 10
46.811857000000145
 20
356.9734786289083
 10
47.01947000000018
 20
356.84927162890835
 10
47.01947000000018
 20
356.84927162890835
 10
46.33633175000017
 20
355.7074011289084
 10
45.65319350000016
 20
354.56553062890833
 10
44.970055250000144
 20
353.4236601289083
 10
44.28691700000013
 20
352.2817896289083
 10
44.28691700000013
 20
352.2817896289083
 10
45.25794825000014
 20
351.6431711289083
 10
46.22897950000015
 20
351.0045526289083
 10
47.20001075000016
 20
350.3659341289083
 10
48.92700575000015
 20
350.8223348789083
 10
6.7520615428770725
 20
350.53388873900946
 10
7.3770615428770725
 20
362.04881433581494
 10
1.002061542877243
 20
350.31298206171954
 10
0.37706154287729987
 20
361.75427209942836
 10
34.514592134569966
 20
412.4680999436111
 10
31.030918266839763
 20
400.98489410276295
 10
23.754601468379747
 20
415.7323711602333
 10
22.85432804446316
 20
412.7648071940303
 10
21.95405462054663
 20
409.7972432278274
 10
21.053781196630098
 20
406.8296792616244
 10
20.15350777271351
 20
403.8621152954214
 10
34.514592134569966
 20
412.4680999436111
 10
33.643673667637415
 20
409.5972984833991
 10
32.772755200704864
 20
406.726497023187
 10
31.901836733772313
 20
403.855695562975
 10
31.030918266839763
 20
400.98489410276295
 10
31.81303686057703
 20
413.287673992938
 10
30.93474812341674
 20
410.3925779709095
 10
30.056459386256392
 20
407.49748194888093
 10
29.178170649096103
 20
404.60238592685243
 10
28.299881911935813
 20
401.7072899048239
 10
50.18978650478181
 20
24.263391462521383
 10
50.09946627128693
 20
24.660428426300427
 10
49.94589249206922
 20
25.03753741521774
 10
49.733139076395446
 20
25.38471471762182
 10
57.57755473060212
 20
4.130894889932847
 10
58.01106473015227
 20
3.4201605402320183
 10
58.444574729702424
 20
2.7094261905311896
 10
58.87808472925258
 20
1.998691840830304
 10
59.31159472880273
 20
1.2879574911294753
 10
59.31159472880273
 20
1.2879574911294753
 10
59.51832582824676
 20
0.8586383274196123
 10
59.72505692769079
 20
0.42931916370980616
 10
59.931788027134814
 20
0.0
 10
50.18978650478175
 20
24.26339146252144
 10
50.58504216291044
 20
21.89604992285132
 10
51.090067852212314
 20
19.549673556222274
 10
51.70376866273091
 20
17.229349372859247
 10
52.42481407377801
 20
14.940107901118324
 10
53.251640838539856
 20
12.686912281159039
 10
54.18245637324077
 20
10.474647504716131
 10
55.21524264351501
 20
8.30810982429989
 10
56.34776053956256
 20
6.191996354784976
 10
57.57755473060212
 20
4.130894889932847
 10
50.296252000000095
 20
59.996748628908364
 10
97.2862520000001
 20
61.746748628908364
 10
92.15625200000011
 20
62.621748628908364
 10
87.02625200000011
 20
63.496748628908364
 10
90.5462520000001
 20
63.496748628908364
 10
95.6712520000001
 20
62.621748628908364
 10
90.5462520000001
 20
63.496748628908364
 10
73.26780647851581
 20
145.1763168066427
 10
65.2541940000001
 20
134.8132686289083
 10
65.2541940000001
 20
134.8132686289083
 10
55.12354328125008
 20
125.59746607031454
 10
50.21170350000011
 20
124.67397787890832
 10
51.46979400000009
 20
125.48791362890833
 10
51.46979400000009
 20
125.48791362890833
 10
52.67066125000008
 20
126.40852162890832
 10
53.87152850000007
 20
127.32912962890833
 10
55.072395750000055
 20
128.24973762890832
 10
56.27326300000004
 20
129.1703456289083
 10
56.27326300000004
 20
129.1703456289083
 10
57.398733500000105
 20
130.18085112890833
 10
58.52420400000017
 20
131.19135662890835
 10
59.64967450000023
 20
132.20186212890835
 10
60.77514500000029
 20
133.21236762890837
 10
60.77514500000029
 20
133.21236762890837
 10
61.819187250000255
 20
134.30703262890836
 10
62.863229500000216
 20
135.40169762890838
 10
63.90727175000018
 20
136.49636262890837
 10
64.95131400000014
 20
137.59102762890836
 10
64.95131400000014
 20
137.59102762890836
 10
65.89851725000017
 20
138.76267462890834
 10
66.8457205000002
 20
139.93432162890832
 10
67.79292375000023
 20
141.1059686289083
 10
68.74012700000026
 20
142.27761562890828
 10
68.74012700000026
 20
142.27761562890828
 10
69.58523800000023
 20
143.54219287890828
 10
70.4303490000002
 20
144.80677012890828
 10
71.27546000000018
 20
146.07134737890829
 10
72.12057100000015
 20
147.3359246289083
 10
72.12057100000015
 20
147.3359246289083
 10
72.84894750000018
 20
148.6464936289083
 10
73.5773240000002
 20
149.95706262890832
 10
49.68296950000013
 20
128.07614312890834
 10
50.438933250000105
 20
126.98112387890833
 10
51.19489700000008
 20
125.88610462890833
 10
51.19489700000008
 20
125.88610462890833
 10
51.40169650000013
 20
126.03514762890833
 10
51.60849600000017
 20
126.18419062890837
 10
51.81529550000022
 20
126.33323362890837
 10
52.02209500000026
 20
126.48227662890838
 10
52.02209500000026
 20
126.48227662890838
 10
51.24280175000024
 20
127.56081787890838
 10
50.463508500000216
 20
128.63935912890838
 10
49.68421525000019
 20
129.71790037890835
 10
49.82346950000016
 20
131.50981962890833
 10
50.742017000000146
 20
132.2231976289083
 10
51.660564500000135
 20
132.9365756289083
 10
52.57911200000012
 20
133.64995362890826
 10
52.57911200000012
 20
133.64995362890826
 10
53.42568800000015
 20
132.62337712890826
 10
54.27226400000018
 20
131.59680062890828
 10
55.118840000000205
 20
130.57022412890828
 10
55.96541600000023
 20
129.54364762890827
 10
55.96541600000023
 20
129.54364762890827
 10
56.16044675000023
 20
129.7075086289083
 10
56.355477500000234
 20
129.87136962890833
 10
56.550508250000235
 20
130.03523062890832
 10
56.745539000000235
 20
130.19909162890835
 10
56.745539000000235
 20
130.19909162890835
 10
55.8774077500002
 20
131.20750587890834
 10
55.00927650000017
 20
132.21592012890835
 10
54.141145250000136
 20
133.22433437890834
 10
53.2730140000001
 20
134.23274862890833
 10
53.2730140000001
 20
134.23274862890833
 10
54.133690750000085
 20
135.01552137890832
 10
54.99436750000007
 20
135.7982941289083
 10
55.85504425000005
 20
136.58106687890827
 10
56.71572100000003
 20
137.36383962890827
 10
56.71572100000003
 20
137.36383962890827
 10
57.64600550000006
 20
136.41246087890826
 10
58.576290000000085
 20
135.46108212890826
 10
59.50657450000011
 20
134.50970337890826
 10
60.43685900000014
 20
133.55832462890825
 10
60.43685900000014
 20
133.55832462890825
 10
60.60983700000014
 20
133.72746737890827
 10
60.78281500000014
 20
133.89661012890832
 10
60.95579300000014
 20
134.06575287890834
 10
61.12877100000014
 20
134.23489562890836
 10
61.12877100000014
 20
134.23489562890836
 10
60.198486500000115
 20
135.18627437890837
 10
59.26820200000009
 20
136.13765312890834
 10
58.33791750000006
 20
137.08903187890832
 10
57.40763300000003
 20
138.04041062890832
 10
57.40763300000003
 20
138.04041062890832
 10
58.19446700000009
 20
138.87627987890835
 10
58.981301000000144
 20
139.71214912890835
 10
59.7681350000002
 20
140.54801837890835
 10
60.554969000000256
 20
141.38388762890838
 10
60.554969000000256
 20
141.38388762890838
 10
61.56246450000026
 20
140.51469062890837
 10
62.569960000000265
 20
139.64549362890835
 10
63.57745550000027
 20
138.77629662890834
 10
64.58495100000027
 20
137.90709962890833
 10
64.58495100000027
 20
137.90709962890833
 10
64.74298675000023
 20
138.09028087890832
 10
64.90102250000018
 20
138.2734621289083
 10
65.05905825000013
 20
138.4566433789083
 10
65.21709400000009
 20
138.6398246289083
 10
65.21709400000009
 20
138.6398246289083
 10
64.20959875000011
 20
139.5090213789083
 10
63.202103500000135
 20
140.37821812890832
 10
62.19460825000016
 20
141.24741487890833
 10
61.18711300000018
 20
142.11661162890834
 10
61.18711300000018
 20
142.11661162890834
 10
61.90696425000016
 20
143.01820312890834
 10
62.626815500000134
 20
143.9197946289083
 10
63.34666675000011
 20
144.82138612890827
 10
64.06651800000009
 20
145.72297762890827
 10
64.06651800000009
 20
145.72297762890827
 10
65.13755300000008
 20
144.93341562890828
 10
66.20858800000008
 20
144.1438536289083
 10
67.27962300000007
 20
143.3542916289083
 10
68.35065800000007
 20
142.5647296289083
 10
68.35065800000007
 20
142.5647296289083
 10
68.50103350000012
 20
142.7730691289083
 10
68.65140900000017
 20
142.9814086289083
 10
68.80178450000022
 20
143.18974812890832
 10
68.95216000000028
 20
143.3980876289083
 10
68.95216000000028
 20
143.3980876289083
 10
67.86183725000024
 20
144.16079587890832
 10
66.7715145000002
 20
144.92350412890835
 10
65.68119175000015
 20
145.68621237890835
 10
64.59086900000011
 20
146.44892062890835
 10
64.59086900000011
 20
146.44892062890835
 10
65.22747375000012
 20
147.41566812890835
 10
65.86407850000012
 20
148.38241562890835
 10
66.50068325000012
 20
149.34916312890834
 10
68.27929000000012
 20
149.63299737890833
 10
69.42129200000011
 20
148.95008412890832
 10
70.5632940000001
 20
148.2671708789083
 10
71.70529600000009
 20
147.5842576289083
 10
71.70529600000009
 20
147.5842576289083
 10
71.82946200000009
 20
147.7918946289083
 10
71.9536280000001
 20
147.9995316289083
 10
72.0777940000001
 20
148.2071686289083
 10
72.2019600000001
 20
148.4148056289083
 10
72.2019600000001
 20
148.4148056289083
 10
71.05995825000014
 20
149.09771862890832
 10
69.91795650000017
 20
149.78063162890834
 10
63.37705155754702
 20
197.99674862890834
 10
86.73434775866554
 20
197.99674862890834
 10
80.8950237083859
 20
197.99674862890834
 10
75.05569965810628
 20
197.99674862890834
 10
69.21637560782665
 20
197.99674862890834
 10
63.37705155754702
 20
197.99674862890834
 10
86.87288462500015
 20
183.3845432539083
 10
83.8169504824221
 20
169.75507789648645
 10
79.36865820312516
 20
156.9212944882833
 10
74.30570050000023
 20
151.26763162890833
 10
75.03407700000025
 20
152.57820062890835
 10
75.03407700000025
 20
152.57820062890835
 10
75.66810225000023
 20
153.94793662890834
 10
76.30212750000021
 20
155.31767262890833
 10
76.93615275000019
 20
156.6874086289083
 10
77.57017800000017
 20
158.05714462890828
 10
77.57017800000017
 20
158.05714462890828
 10
78.10398500000014
 20
159.4484736289083
 10
78.6377920000001
 20
160.83980262890833
 10
79.17159900000007
 20
162.23113162890834
 10
79.70540600000004
 20
163.62246062890836
 10
79.70540600000004
 20
163.62246062890836
 10
80.15951150000006
 20
165.05435737890835
 10
80.61361700000009
 20
166.48625412890834
 10
81.06772250000012
 20
167.9181508789083
 10
81.52182800000014
 20
169.3500476289083
 10
81.52182800000014
 20
169.3500476289083
 10
81.89384325000015
 20
170.7734996289083
 10
82.26585850000015
 20
172.19695162890832
 10
82.63787375000015
 20
173.62040362890832
 10
83.00988900000016
 20
175.04385562890832
 10
83.00988900000016
 20
175.04385562890832
 10
83.32121225000014
 20
176.49707512890834
 10
83.63253550000013
 20
177.95029462890835
 10
83.94385875000012
 20
179.40351412890837
 10
84.2551820000001
 20
180.8567336289084
 10
84.2551820000001
 20
180.8567336289084
 10
84.51139350000011
 20
182.3143948789084
 10
84.76760500000012
 20
183.7720561289084
 10
85.02381650000012
 20
185.2297173789084
 10
85.28002800000013
 20
186.6873786289084
 10
85.28002800000013
 20
186.6873786289084
 10
85.48992800000013
 20
188.14685037890837
 10
85.69982800000014
 20
189.60632212890835
 10
85.90972800000014
 20
191.06579387890832
 10
86.11962800000015
 20
192.5252656289083
 10
86.11962800000015
 20
192.5252656289083
 10
86.28424325000015
 20
193.9904691289083
 10
86.44885850000014
 20
195.4556726289083
 10
86.61347375000014
 20
196.9208761289083
 10
86.77808900000014
 20
198.3860796289083
 10
86.77808900000014
 20
198.3860796289083
 10
86.90417300000013
 20
199.8479673789083
 10
67.13728800000013
 20
150.31591062890834
 10
67.13728800000013
 20
150.31591062890834
 10
68.77595475000021
 20
150.46354462890835
 10
67.63395300000025
 20
151.14645762890837
 10
67.63395300000025
 20
151.14645762890837
 10
68.19147275000023
 20
152.16508762890837
 10
68.74899250000021
 20
153.18371762890837
 10
69.3065122500002
 20
154.20234762890837
 10
69.86403200000018
 20
155.22097762890837
 10
69.86403200000018
 20
155.22097762890837
 10
71.04883375000014
 20
154.61534137890837
 10
72.2336355000001
 20
154.00970512890837
 10
73.41843725000007
 20
153.40406887890833
 10
74.60323900000003
 20
152.79843262890833
 10
74.60323900000003
 20
152.79843262890833
 10
74.71712225000005
 20
153.02612412890832
 10
74.83100550000006
 20
153.25381562890834
 10
74.94488875000008
 20
153.48150712890833
 10
75.05877200000009
 20
153.70919862890833
 10
75.05877200000009
 20
153.70919862890833
 10
73.86154725000011
 20
154.28989387890832
 10
72.66432250000014
 20
154.8705891289083
 10
71.46709775000016
 20
155.4512843789083
 10
70.26987300000019
 20
156.0319796289083
 10
70.26987300000019
 20
156.0319796289083
 10
70.75372225000018
 20
157.0934556289083
 10
71.23757150000017
 20
158.1549316289083
 10
71.72142075000016
 20
159.21640762890829
 10
72.20527000000016
 20
160.27788362890828
 10
72.20527000000016
 20
160.27788362890828
 10
73.43472775000015
 20
159.7689646289083
 10
74.66418550000014
 20
159.2600456289083
 10
75.89364325000014
 20
158.7511266289083
 10
77.12310100000013
 20
158.24220762890832
 10
77.12310100000013
 20
158.24220762890832
 10
77.21563175000011
 20
158.4657453789083
 10
77.3081625000001
 20
158.6892831289083
 10
77.40069325000007
 20
158.91282087890826
 10
77.49322400000005
 20
159.13635862890825
 10
77.49322400000005
 20
159.13635862890825
 10
76.26376625000006
 20
159.64527787890827
 10
75.03430850000007
 20
160.1541971289083
 10
73.80485075000007
 20
160.6631163789083
 10
72.57539300000008
 20
161.17203562890833
 10
72.57539300000008
 20
161.17203562890833
 10
72.98886025000007
 20
162.26720962890832
 10
73.40232750000007
 20
163.3623836289083
 10
73.81579475000007
 20
164.4575576289083
 10
74.22926200000006
 20
165.55273162890828
 10
74.22926200000006
 20
165.55273162890828
 10
75.4842112500001
 20
165.11037787890828
 10
76.73916050000014
 20
164.6680241289083
 10
77.99410975000018
 20
164.22567037890832
 10
79.24905900000022
 20
163.78331662890832
 10
79.24905900000022
 20
163.78331662890832
 10
79.33097525000017
 20
164.02161237890832
 10
79.41289150000011
 20
164.2599081289083
 10
79.49480775000006
 20
164.4982038789083
 10
79.57672400000001
 20
164.7364996289083
 10
79.57672400000001
 20
164.7364996289083
 10
78.31459150000006
 20
165.1579246289083
 10
77.05245900000011
 20
165.5793496289083
 10
75.79032650000016
 20
166.0007746289083
 10
74.52819400000021
 20
166.4221996289083
 10
74.52819400000021
 20
166.4221996289083
 10
74.87719000000021
 20
167.5397576289083
 10
75.22618600000021
 20
168.6573156289083
 10
75.57518200000021
 20
169.77487362890827
 10
75.92417800000021
 20
170.89243162890827
 10
75.92417800000021
 20
170.89243162890827
 10
77.2069722500002
 20
170.5389686289083
 10
78.4897665000002
 20
170.1855056289083
 10
79.7725607500002
 20
169.8320426289083
 10
81.05535500000019
 20
169.47857962890834
 10
81.05535500000019
 20
169.47857962890834
 10
81.1196212500002
 20
169.7118151289083
 10
81.1838875000002
 20
169.94505062890832
 10
81.2481537500002
 20
170.17828612890833
 10
81.3124200000002
 20
170.4115216289083
 10
81.3124200000002
 20
170.4115216289083
 10
80.02962575000015
 20
170.7649846289083
 10
78.7468315000001
 20
171.1184476289083
 10
77.46403725000005
 20
171.4719106289083
 10
76.181243
 20
171.8253736289083
 10
76.181243
 20
171.8253736289083
 10
76.47897325000002
 20
172.9772188789083
 10
76.77670350000005
 20
174.12906412890834
 10
77.07443375000008
 20
175.28090937890835
 10
77.37216400000011
 20
176.43275462890836
 10
77.37216400000011
 20
176.43275462890836
 10
78.66414225000011
 20
176.11446537890836
 10
79.95612050000011
 20
175.79617612890837
 10
81.24809875000011
 20
175.47788687890835
 10
82.54007700000011
 20
175.15959762890836
 10
82.54007700000011
 20
175.15959762890836
 10
82.59857075000014
 20
175.40991537890832
 10
82.65706450000016
 20
175.66023312890832
 10
82.71555825000019
 20
175.91055087890828
 10
82.77405200000021
 20
176.16086862890825
 10
82.77405200000021
 20
176.16086862890825
 10
81.4745005000002
 20
176.44669737890825
 10
80.1749490000002
 20
176.73252612890826
 10
78.87539750000019
 20
177.01835487890824
 10
77.57584600000018
 20
177.30418362890825
 10
77.57584600000018
 20
177.30418362890825
 10
77.82122825000016
 20
178.47166912890825
 10
78.06661050000014
 20
179.63915462890824
 10
78.31199275000012
 20
180.80664012890824
 10
78.55737500000009
 20
181.97412562890824
 10
78.55737500000009
 20
181.97412562890824
 10
79.86312225000012
 20
181.71805662890827
 10
81.16886950000014
 20
181.4619876289083
 10
82.47461675000017
 20
181.2059186289083
 10
83.78036400000019
 20
180.94984962890834
 10
83.78036400000019
 20
180.94984962890834
 10
83.8269220000002
 20
181.18725862890835
 10
83.8734800000002
 20
181.42466762890834
 10
83.9200380000002
 20
181.66207662890832
 10
83.96659600000021
 20
181.89948562890834
 10
83.96659600000021
 20
181.89948562890834
 10
82.66084875000018
 20
182.15555437890833
 10
81.35510150000016
 20
182.41162312890833
 10
80.04935425000014
 20
182.66769187890833
 10
78.74360700000011
 20
182.92376062890833
 10
78.74360700000011
 20
182.92376062890833
 10
78.94337000000013
 20
184.08780037890833
 10
79.14313300000015
 20
185.25184012890833
 10
79.34289600000017
 20
186.41587987890833
 10
79.54265900000019
 20
187.57991962890833
 10
79.54265900000019
 20
187.57991962890833
 10
80.85747250000014
 20
187.37537887890832
 10
82.1722860000001
 20
187.17083812890831
 10
83.48709950000006
 20
186.96629737890828
 10
84.80191300000001
 20
186.7617566289083
 10
84.80191300000001
 20
186.7617566289083
 10
84.83910225000005
 20
187.00081387890828
 10
84.8762915000001
 20
187.2398711289083
 10
84.91348075000013
 20
187.4789283789083
 10
84.95067000000017
 20
187.7179856289083
 10
84.95067000000017
 20
187.7179856289083
 10
83.63585650000016
 20
187.92252637890832
 10
82.32104300000015
 20
188.12706712890832
 10
81.00622950000013
 20
188.3316078789083
 10
79.69141600000012
 20
188.53614862890834
 10
79.69141600000012
 20
188.53614862890834
 10
79.8577800000001
 20
189.71109212890832
 10
80.02414400000009
 20
190.88603562890836
 10
80.19050800000008
 20
192.06097912890837
 10
80.35687200000007
 20
193.23592262890838
 10
80.35687200000007
 20
193.23592262890838
 10
81.67750325000009
 20
193.07306362890836
 10
82.9981345000001
 20
192.91020462890833
 10
84.31876575000013
 20
192.7473456289083
 10
85.63939700000014
 20
192.58448662890828
 10
85.63939700000014
 20
192.58448662890828
 10
85.66900775000016
 20
192.82460162890828
 10
85.69861850000018
 20
193.0647166289083
 10
85.7282292500002
 20
193.3048316289083
 10
85.75784000000021
 20
193.5449466289083
 10
85.75784000000021
 20
193.5449466289083
 10
84.4372087500002
 20
193.70780562890832
 10
83.11657750000018
 20
193.87066462890834
 10
81.79594625000016
 20
194.03352362890837
 10
80.47531500000014
 20
194.1963826289084
 10
80.47531500000014
 20
194.1963826289084
 10
80.58013791615014
 20
195.14647412890838
 10
80.68496083230013
 20
196.09656562890837
 10
80.78978374845013
 20
197.04665712890835
 10
80.89460666460013
 20
197.99674862890834
 10
63.37705155754702
 20
239.9967486289083
 10
63.37705155754702
 20
229.4967486289083
 10
63.37705155754702
 20
218.99674862890834
 10
63.37705155754702
 20
208.49674862890834
 10
63.37705155754702
 20
239.9967486289083
 10
90.37706600000001
 20
239.9967486289083
 10
89.84848373437507
 20
211.8580247070333
 10
90.37706600000001
 20
239.9967486289083
 10
87.03025700000012
 20
201.30985512890828
 10
87.15634100000011
 20
202.77174287890824
 10
87.2824250000001
 20
204.23363062890823
 10
87.2824250000001
 20
204.23363062890823
 10
87.37536225000014
 20
205.69569987890824
 10
87.46829950000017
 20
207.15776912890828
 10
87.5612367500002
 20
208.6198383789083
 10
87.65417400000024
 20
210.0819076289083
 10
87.65417400000024
 20
210.0819076289083
 10
87.7194452500002
 20
211.54318062890832
 10
87.78471650000017
 20
213.00445362890832
 10
87.84998775000014
 20
214.46572662890833
 10
87.9152590000001
 20
215.92699962890833
 10
87.9152590000001
 20
215.92699962890833
 10
87.9583417500001
 20
217.38680937890834
 10
88.0014245000001
 20
218.84661912890834
 10
88.0445072500001
 20
220.30642887890835
 10
88.08759000000009
 20
221.76623862890835
 10
88.08759000000009
 20
221.76623862890835
 10
88.1115332500001
 20
223.22633112890836
 10
88.1354765000001
 20
224.68642362890836
 10
88.1594197500001
 20
226.14651612890836
 10
88.1833630000001
 20
227.60660862890836
 10
88.1833630000001
 20
227.60660862890836
 10
88.1996062500001
 20
229.05812212890834
 10
88.2158495000001
 20
230.5096356289083
 10
88.2320927500001
 20
231.9611491289083
 10
88.24833600000011
 20
233.41266262890827
 10
88.24833600000011
 20
233.41266262890827
 10
88.24833600000011
 20
235.05868412890828
 10
88.24833600000011
 20
236.7047056289083
 10
88.24833600000011
 20
238.3507271289083
 10
88.24833600000011
 20
239.9967486289083
 10
88.2158495000001
 20
249.48386162890836
 10
88.2320927500001
 20
248.03234812890838
 10
88.24833600000011
 20
246.5808346289084
 10
88.24833600000011
 20
246.5808346289084
 10
88.24833600000011
 20
244.9348131289084
 10
88.24833600000011
 20
243.28879162890837
 10
88.24833600000011
 20
241.64277012890832
 10
88.24833600000011
 20
239.9967486289083
 10
90.37706600000001
 20
239.9967486289083
 10
63.37705155754702
 20
250.4967486289083
 10
63.37705155754702
 20
260.99674862890834
 10
63.37705155754702
 20
271.49674862890834
 10
63.37705155754702
 20
281.99674862890834
 10
86.73434775866554
 20
281.9967486289083
 10
80.8950237083859
 20
281.99674862890834
 10
75.05569965810628
 20
281.99674862890834
 10
69.21637560782665
 20
281.99674862890834
 10
63.37705155754702
 20
281.99674862890834
 10
89.84848373439257
 20
268.13547255078333
 10
86.87288462501556
 20
296.6089540039083
 10
83.81695048243284
 20
310.2384193613302
 10
79.36865820313085
 20
323.0722027695333
 10
73.26780647851734
 20
334.81718045117395
 10
65.2541940000001
 20
345.18022862890837
 10
65.2541940000001
 20
345.18022862890837
 10
57.398733500000105
 20
349.81264612890834
 10
58.52420400000017
 20
348.8021406289083
 10
59.64967450000023
 20
347.7916351289083
 10
60.77514500000029
 20
346.7811296289083
 10
60.77514500000029
 20
346.7811296289083
 10
61.819187250000255
 20
345.68646462890825
 10
62.863229500000216
 20
344.5917996289083
 10
63.90727175000018
 20
343.4971346289083
 10
64.95131400000014
 20
342.4024696289083
 10
64.95131400000014
 20
342.4024696289083
 10
65.89851725000011
 20
341.23082262890836
 10
66.84572050000008
 20
340.05917562890835
 10
67.79292375000006
 20
338.8875286289084
 10
68.74012700000003
 20
337.7158816289084
 10
68.74012700000003
 20
337.7158816289084
 10
69.58523800000006
 20
336.4513043789084
 10
70.43034900000009
 20
335.1867271289084
 10
71.27546000000012
 20
333.9221498789084
 10
72.12057100000015
 20
332.6575726289084
 10
72.12057100000015
 20
332.6575726289084
 10
72.84894750000018
 20
331.34700362890834
 10
73.5773240000002
 20
330.03643462890835
 10
74.30570050000023
 20
328.7258656289083
 10
75.03407700000025
 20
327.4152966289083
 10
75.03407700000025
 20
327.4152966289083
 10
75.66810225000023
 20
326.04556062890833
 10
76.30212750000021
 20
324.67582462890834
 10
76.93615275000019
 20
323.30608862890836
 10
77.57017800000017
 20
321.93635262890837
 10
77.57017800000017
 20
321.93635262890837
 10
78.10398500000014
 20
320.5450236289083
 10
78.6377920000001
 20
319.1536946289083
 10
79.17159900000007
 20
317.7623656289083
 10
79.70540600000004
 20
316.3710366289083
 10
79.70540600000004
 20
316.3710366289083
 10
80.15951150000012
 20
314.9391398789083
 10
80.6136170000002
 20
313.5072431289083
 10
81.06772250000029
 20
312.0753463789083
 10
81.52182800000037
 20
310.64344962890834
 10
81.52182800000037
 20
310.64344962890834
 10
81.89384325000032
 20
309.21999762890835
 10
82.26585850000026
 20
307.79654562890835
 10
82.63787375000021
 20
306.3730936289083
 10
83.00988900000016
 20
304.9496416289083
 10
83.00988900000016
 20
304.9496416289083
 10
83.32121225000014
 20
303.4964221289083
 10
83.63253550000013
 20
302.0432026289083
 10
83.94385875000012
 20
300.5899831289083
 10
84.2551820000001
 20
299.1367636289083
 10
84.2551820000001
 20
299.1367636289083
 10
84.51139350000011
 20
297.6791023789083
 10
84.76760500000012
 20
296.2214411289083
 10
85.02381650000012
 20
294.7637798789083
 10
85.28002800000013
 20
293.3061186289083
 10
85.28002800000013
 20
293.3061186289083
 10
85.48992800000013
 20
291.8466468789083
 10
85.69982800000014
 20
290.3871751289083
 10
85.90972800000014
 20
288.92770337890835
 10
86.11962800000015
 20
287.46823162890837
 10
86.11962800000015
 20
287.46823162890837
 10
86.28424325000015
 20
286.00302812890834
 10
86.44885850000014
 20
284.53782462890837
 10
86.61347375000014
 20
283.07262112890834
 10
86.77808900000014
 20
281.60741762890837
 10
86.77808900000014
 20
281.60741762890837
 10
86.90417300000013
 20
280.14552987890835
 10
87.03025700000012
 20
278.6836421289084
 10
87.15634100000011
 20
277.2217543789084
 10
87.2824250000001
 20
275.7598666289084
 10
87.2824250000001
 20
275.7598666289084
 10
87.37536225000014
 20
274.2977973789084
 10
87.46829950000017
 20
272.8357281289084
 10
87.5612367500002
 20
271.3736588789084
 10
87.65417400000024
 20
269.91158962890836
 10
87.65417400000024
 20
269.91158962890836
 10
87.7194452500002
 20
268.45031662890835
 10
87.78471650000017
 20
266.98904362890835
 10
87.84998775000014
 20
265.52777062890834
 10
87.9152590000001
 20
264.06649762890834
 10
87.9152590000001
 20
264.06649762890834
 10
87.9583417500001
 20
262.6066878789083
 10
88.0014245000001
 20
261.1468781289083
 10
88.0445072500001
 20
259.6870683789083
 10
88.08759000000009
 20
258.2272586289083
 10
88.08759000000009
 20
258.2272586289083
 10
88.1115332500001
 20
256.7671661289083
 10
88.1354765000001
 20
255.3070736289083
 10
88.1594197500001
 20
253.84698112890828
 10
88.1833630000001
 20
252.3868886289083
 10
88.1833630000001
 20
252.3868886289083
 10
88.1996062500001
 20
250.93537512890833
 10
49.82346950000016
 20
348.48367762890825
 10
50.742017000000146
 20
347.7702996289083
 10
51.660564500000135
 20
347.0569216289083
 10
52.57911200000012
 20
346.3435436289084
 10
52.57911200000012
 20
346.3435436289084
 10
53.42568800000015
 20
347.37012012890835
 10
54.27226400000018
 20
348.39669662890833
 10
55.118840000000205
 20
349.42327312890836
 10
56.550508250000235
 20
349.95826662890835
 10
56.745539000000235
 20
349.7944056289083
 10
56.745539000000235
 20
349.7944056289083
 10
55.8774077500002
 20
348.7859913789083
 10
55.00927650000017
 20
347.7775771289083
 10
54.141145250000136
 20
346.76916287890833
 10
53.2730140000001
 20
345.7607486289083
 10
53.2730140000001
 20
345.7607486289083
 10
54.133690750000085
 20
344.9779758789083
 10
54.99436750000007
 20
344.19520312890836
 10
55.85504425000005
 20
343.41243037890837
 10
56.71572100000003
 20
342.6296576289084
 10
56.71572100000003
 20
342.6296576289084
 10
57.64600550000006
 20
343.5810363789084
 10
58.576290000000085
 20
344.5324151289084
 10
59.50657450000011
 20
345.4837938789084
 10
60.43685900000014
 20
346.4351726289084
 10
60.43685900000014
 20
346.4351726289084
 10
60.60983700000014
 20
346.26602987890834
 10
60.78281500000014
 20
346.09688712890835
 10
60.95579300000014
 20
345.9277443789083
 10
61.12877100000014
 20
345.7586016289083
 10
61.12877100000014
 20
345.7586016289083
 10
60.198486500000115
 20
344.8072228789083
 10
59.26820200000009
 20
343.8558441289083
 10
58.33791750000006
 20
342.9044653789083
 10
57.40763300000003
 20
341.9530866289083
 10
57.40763300000003
 20
341.9530866289083
 10
58.19446700000009
 20
341.11721737890826
 10
58.981301000000144
 20
340.2813481289083
 10
59.7681350000002
 20
339.4454788789083
 10
60.554969000000256
 20
338.6096096289083
 10
60.554969000000256
 20
338.6096096289083
 10
61.5624645000002
 20
339.4788066289083
 10
62.56996000000015
 20
340.3480036289083
 10
63.5774555000001
 20
341.2172006289083
 10
64.58495100000005
 20
342.08639762890834
 10
64.58495100000005
 20
342.08639762890834
 10
64.74298675000006
 20
341.9032163789083
 10
64.90102250000007
 20
341.7200351289083
 10
65.05905825000008
 20
341.53685387890835
 10
65.21709400000009
 20
341.3536726289083
 10
65.21709400000009
 20
341.3536726289083
 10
64.20959875000011
 20
340.48447587890837
 10
63.202103500000135
 20
339.61527912890836
 10
62.19460825000016
 20
338.74608237890834
 10
61.18711300000018
 20
337.8768856289083
 10
61.18711300000018
 20
337.8768856289083
 10
61.90696425000016
 20
336.97529412890833
 10
62.626815500000134
 20
336.07370262890834
 10
63.34666675000011
 20
335.17211112890834
 10
64.06651800000009
 20
334.27051962890835
 10
64.06651800000009
 20
334.27051962890835
 10
65.13755300000008
 20
335.06008162890834
 10
66.20858800000008
 20
335.8496436289083
 10
67.27962300000007
 20
336.6392056289083
 10
68.35065800000007
 20
337.4287676289083
 10
68.35065800000007
 20
337.4287676289083
 10
68.50103350000012
 20
337.2204281289083
 10
68.65140900000017
 20
337.0120886289083
 10
68.80178450000022
 20
336.80374912890835
 10
68.95216000000028
 20
336.5954096289083
 10
68.95216000000028
 20
336.5954096289083
 10
67.86183725000024
 20
335.8327013789083
 10
66.7715145000002
 20
335.0699931289083
 10
65.68119175000015
 20
334.30728487890826
 10
64.59086900000011
 20
333.54457662890826
 10
64.59086900000011
 20
333.54457662890826
 10
65.22747375000012
 20
332.57782912890826
 10
65.86407850000012
 20
331.61108162890827
 10
66.50068325000012
 20
330.6443341289083
 10
67.13728800000013
 20
329.67758662890833
 10
67.13728800000013
 20
329.67758662890833
 10
68.27929000000012
 20
330.36049987890834
 10
69.42129200000011
 20
331.04341312890836
 10
70.5632940000001
 20
331.72632637890837
 10
71.70529600000009
 20
332.4092396289084
 10
71.70529600000009
 20
332.4092396289084
 10
71.82946200000009
 20
332.20160262890835
 10
71.9536280000001
 20
331.99396562890837
 10
72.0777940000001
 20
331.78632862890834
 10
72.2019600000001
 20
331.57869162890836
 10
72.2019600000001
 20
331.57869162890836
 10
71.05995825000014
 20
330.8957786289083
 10
69.91795650000017
 20
330.21286562890833
 10
68.77595475000021
 20
329.5299526289083
 10
67.63395300000025
 20
328.8470396289083
 10
67.63395300000025
 20
328.8470396289083
 10
68.19147275000023
 20
327.8284096289083
 10
68.74899250000021
 20
326.8097796289083
 10
69.3065122500002
 20
325.79114962890833
 10
69.86403200000018
 20
324.7725196289083
 10
69.86403200000018
 20
324.7725196289083
 10
71.04883375000014
 20
325.3781558789083
 10
72.2336355000001
 20
325.9837921289083
 10
73.41843725000007
 20
326.5894283789083
 10
74.60323900000003
 20
327.1950646289083
 10
74.60323900000003
 20
327.1950646289083
 10
74.7171222500001
 20
326.9673731289083
 10
74.83100550000017
 20
326.73968162890833
 10
74.94488875000025
 20
326.51199012890834
 10
75.05877200000032
 20
326.28429862890835
 10
75.05877200000032
 20
326.28429862890835
 10
73.86154725000029
 20
325.7036033789084
 10
72.66432250000025
 20
325.12290812890836
 10
71.46709775000022
 20
324.54221287890834
 10
70.26987300000019
 20
323.9615176289084
 10
70.26987300000019
 20
323.9615176289084
 10
70.75372225000018
 20
322.9000416289084
 10
71.23757150000017
 20
321.8385656289084
 10
71.72142075000016
 20
320.77708962890836
 10
72.20527000000016
 20
319.7156136289084
 10
72.20527000000016
 20
319.7156136289084
 10
73.43472775000015
 20
320.2245326289084
 10
74.66418550000014
 20
320.73345162890837
 10
75.89364325000014
 20
321.24237062890836
 10
77.12310100000013
 20
321.75128962890835
 10
77.12310100000013
 20
321.75128962890835
 10
77.21563175000011
 20
321.52775187890836
 10
77.3081625000001
 20
321.30421412890837
 10
77.40069325000007
 20
321.0806763789084
 10
77.49322400000005
 20
320.8571386289084
 10
77.49322400000005
 20
320.8571386289084
 10
76.26376625000006
 20
320.3482193789083
 10
75.03430850000007
 20
319.83930012890835
 10
73.80485075000007
 20
319.3303808789083
 10
72.57539300000008
 20
318.8214616289083
 10
72.57539300000008
 20
318.8214616289083
 10
72.98886025000013
 20
317.72628762890827
 10
73.40232750000018
 20
316.6311136289083
 10
73.81579475000024
 20
315.5359396289083
 10
74.22926200000029
 20
314.4407656289083
 10
74.22926200000029
 20
314.4407656289083
 10
75.48421125000027
 20
314.8831193789083
 10
76.73916050000025
 20
315.32547312890836
 10
77.99410975000023
 20
315.76782687890835
 10
79.24905900000022
 20
316.21018062890835
 10
79.24905900000022
 20
316.21018062890835
 10
79.33097525000017
 20
315.9718848789083
 10
79.41289150000011
 20
315.73358912890836
 10
79.49480775000006
 20
315.49529337890834
 10
79.57672400000001
 20
315.2569976289084
 10
79.57672400000001
 20
315.2569976289084
 10
78.3145915
 20
314.8355726289084
 10
77.052459
 20
314.4141476289084
 10
75.79032649999999
 20
313.9927226289084
 10
74.52819399999998
 20
313.5712976289084
 10
74.52819399999998
 20
313.5712976289084
 10
74.87719000000004
 20
312.45373962890835
 10
75.2261860000001
 20
311.3361816289084
 10
75.57518200000015
 20
310.21862362890835
 10
75.92417800000021
 20
309.1010656289084
 10
75.92417800000021
 20
309.1010656289084
 10
77.2069722500002
 20
309.45452862890835
 10
78.4897665000002
 20
309.8079916289083
 10
79.7725607500002
 20
310.1614546289083
 10
81.05535500000019
 20
310.5149176289083
 10
81.05535500000019
 20
310.5149176289083
 10
81.1196212500002
 20
310.2816821289083
 10
81.1838875000002
 20
310.0484466289083
 10
81.2481537500002
 20
309.81521112890835
 10
81.3124200000002
 20
309.58197562890837
 10
81.3124200000002
 20
309.58197562890837
 10
80.0296257500002
 20
309.22851262890833
 10
78.74683150000021
 20
308.87504962890836
 10
77.46403725000022
 20
308.5215866289083
 10
76.18124300000022
 20
308.16812362890835
 10
76.18124300000022
 20
308.16812362890835
 10
76.47897325000025
 20
307.01627837890834
 10
76.77670350000028
 20
305.86443312890833
 10
77.07443375000031
 20
304.7125878789083
 10
77.37216400000034
 20
303.5607426289083
 10
77.37216400000034
 20
303.5607426289083
 10
78.66414225000028
 20
303.8790318789083
 10
79.95612050000022
 20
304.1973211289083
 10
81.24809875000017
 20
304.51561037890826
 10
82.54007700000011
 20
304.8338996289083
 10
82.54007700000011
 20
304.8338996289083
 10
82.59857075000014
 20
304.5835818789083
 10
82.65706450000016
 20
304.33326412890835
 10
82.71555825000019
 20
304.0829463789084
 10
82.77405200000021
 20
303.8326286289084
 10
82.77405200000021
 20
303.8326286289084
 10
81.4745005000002
 20
303.5467998789084
 10
80.1749490000002
 20
303.2609711289084
 10
78.87539750000019
 20
302.9751423789084
 10
77.57584600000018
 20
302.6893136289084
 10
77.57584600000018
 20
302.6893136289084
 10
77.82122825000016
 20
301.5218281289084
 10
78.06661050000014
 20
300.3543426289084
 10
78.31199275000012
 20
299.1868571289084
 10
78.55737500000009
 20
298.0193716289084
 10
78.55737500000009
 20
298.0193716289084
 10
79.86312225000012
 20
298.27544062890837
 10
81.16886950000014
 20
298.53150962890834
 10
82.47461675000017
 20
298.7875786289083
 10
83.78036400000019
 20
299.0436476289083
 10
83.78036400000019
 20
299.0436476289083
 10
83.8269220000002
 20
298.80623862890826
 10
83.8734800000002
 20
298.5688296289083
 10
83.9200380000002
 20
298.3314206289083
 10
83.96659600000021
 20
298.09401162890833
 10
83.96659600000021
 20
298.09401162890833
 10
82.66084875000018
 20
297.83794287890834
 10
81.35510150000016
 20
297.58187412890834
 10
80.04935425000014
 20
297.32580537890834
 10
78.74360700000011
 20
297.06973662890834
 10
78.74360700000011
 20
297.06973662890834
 10
78.94337000000007
 20
295.9056968789084
 10
79.14313300000003
 20
294.74165712890834
 10
79.342896
 20
293.57761737890837
 10
79.54265899999996
 20
292.41357762890834
 10
79.54265899999996
 20
292.41357762890834
 10
80.85747249999997
 20
292.6181183789083
 10
82.17228599999999
 20
292.82265912890836
 10
83.4870995
 20
293.02719987890833
 10
84.80191300000001
 20
293.2317406289083
 10
84.80191300000001
 20
293.2317406289083
 10
84.83910225000005
 20
292.99268337890834
 10
84.8762915000001
 20
292.75362612890837
 10
84.91348075000013
 20
292.51456887890834
 10
84.95067000000017
 20
292.27551162890836
 10
84.95067000000017
 20
292.27551162890836
 10
83.63585650000016
 20
292.0709708789084
 10
82.32104300000015
 20
291.86643012890835
 10
81.00622950000013
 20
291.6618893789083
 10
79.69141600000012
 20
291.45734862890833
 10
79.69141600000012
 20
291.45734862890833
 10
79.8577800000001
 20
290.2824051289083
 10
80.02414400000009
 20
289.1074616289083
 10
80.19050800000008
 20
287.93251812890827
 10
80.35687200000007
 20
286.7575746289083
 10
80.35687200000007
 20
286.7575746289083
 10
81.67750325000009
 20
286.9204336289083
 10
82.9981345000001
 20
287.08329262890834
 10
84.31876575000013
 20
287.24615162890836
 10
85.63939700000014
 20
287.4090106289084
 10
85.63939700000014
 20
287.4090106289084
 10
85.66900775000016
 20
287.1688956289084
 10
85.69861850000018
 20
286.9287806289084
 10
85.7282292500002
 20
286.6886656289084
 10
85.75784000000021
 20
286.4485506289084
 10
85.75784000000021
 20
286.4485506289084
 10
84.4372087500002
 20
286.28569162890835
 10
83.11657750000018
 20
286.1228326289083
 10
81.79594625000016
 20
285.9599736289083
 10
80.47531500000014
 20
285.7971146289083
 10
80.47531500000014
 20
285.7971146289083
 10
80.58013791615014
 20
284.8470231289083
 10
80.68496083230013
 20
283.8969316289083
 10
80.78978374845013
 20
282.9468401289083
 10
80.89460666460013
 20
281.99674862890834
 10
55.12354328125008
 20
354.3960311875021
 10
50.21170350000011
 20
355.3195193789083
 10
51.46979400000009
 20
354.50558362890825
 10
51.46979400000009
 20
354.50558362890825
 10
52.67066125000008
 20
353.5849756289083
 10
53.87152850000007
 20
352.66436762890834
 10
55.072395750000055
 20
351.7437596289083
 10
56.27326300000004
 20
350.82315162890836
 10
56.27326300000004
 20
350.82315162890836
 10
49.68296950000013
 20
351.9173541289083
 10
50.438933250000105
 20
353.0123733789083
 10
51.19489700000008
 20
354.1073926289083
 10
51.19489700000008
 20
354.1073926289083
 10
51.40169650000013
 20
353.9583496289083
 10
51.60849600000017
 20
353.8093066289083
 10
51.81529550000022
 20
353.66026362890824
 10
52.02209500000026
 20
353.51122062890823
 10
52.02209500000026
 20
353.51122062890823
 10
51.24280175000024
 20
352.43267937890823
 10
50.463508500000216
 20
351.35413812890823
 10
49.68421525000019
 20
350.27559687890823
 10
55.96541600000023
 20
350.44984962890834
 10
55.96541600000023
 20
350.44984962890834
 10
56.16044675000023
 20
350.28598862890834
 10
56.355477500000234
 20
350.12212762890834
 10
111.0462520000001
 20
59.996748628908364
 10
107.5462520000001
 20
59.996748628908364
 10
102.4162520000001
 20
60.871748628908364
 10
100.7962520000001
 20
61.746748628908364
 10
105.9212520000001
 20
60.871748628908364
 10
111.0462520000001
 20
59.996748628908364
 10
147.5462520000001
 20
97.49674862890834
 10
147.5462520000001
 20
298.74674862890834
 10
147.5462520000001
 20
499.99674862890834
 10
147.5462520000001
 20
499.99674862890834
 10
199.2114336206236
 20
426.12831562650626
 10
196.7223043591449
 20
423.63918636502757
 10
196.7223043591449
 20
423.63918636502757
 10
204.81197445895066
 20
398.7478937502406
 10
204.81197445895066
 20
398.7478937502406
 10
205.51204206374155
 20
396.18097919934075
 10
206.21210966853243
 20
393.61406464844083
 10
206.91217727332327
 20
391.0471500975409
 10
207.61224487811415
 20
388.48023554664104
 10
207.61224487811415
 20
388.48023554664104
 10
205.97875380026875
 20
387.08010033705926
 10
204.3452627224234
 20
385.6799651274775
 10
202.711771644578
 20
384.2798299178957
 10
201.0782805667326
 20
382.87969470831393
 10
204.33456040473231
 20
372.25393944747384
 10
207.53458390888608
 20
372.5417386289223
 10
210.7344043741391
 20
372.8317865320828
 10
213.93402022026487
 20
373.1240830137135
 10
217.1334298671502
 20
373.41862792946586
 10
220.33263173477167
 20
373.7154211338807
 10
223.53162424321238
 20
374.01446248038565
 10
226.73040581265877
 20
374.31575182130155
 10
229.92897486340144
 20
374.61928900783687
 10
233.12732981583235
 20
374.9250738900896
 10
236.3254690904605
 20
375.2331063170509
 10
239.52339110789023
 20
375.54338613659775
 10
242.7210942888363
 20
375.8559131955003
 10
245.91857705412212
 20
376.17068733941824
 10
249.11583782467574
 20
376.4877084129007
 10
228.50967306585608
 20
376.9955678459326
 10
228.50967306585608
 20
398.5122039789776
 10
248.50968706585616
 20
391.2753141711448
 10
245.00968706585616
 20
391.3594028722115
 10
241.50968706585616
 20
391.4434915732781
 10
241.50968706585616
 20
391.4434915732781
 10
204.33456040473186
 20
372.25393944747424
 10
204.99841094423505
 20
370.08769031856923
 10
205.66226148373818
 20
367.92144118966416
 10
206.3261120232413
 20
365.7551920607591
 10
206.9899625627445
 20
363.5889429318541
 10
201.0782805667326
 20
382.87969470831393
 10
201.70518707233538
 20
380.8339997952943
 10
202.33209357793817
 20
378.78830488227464
 10
202.95900008354096
 20
376.742609969255
 10
203.58590658914375
 20
374.69691505623535
 10
203.58590658914375
 20
374.69691505623535
 10
203.77307004304078
 20
374.0861711540451
 10
203.9602334969378
 20
373.4754272518548
 10
204.14739695083483
 20
372.8646833496645
 10
204.33456040473186
 20
372.25393944747424
 10
203.58590658914125
 20
374.69691505623496
 10
206.35583096338138
 20
374.9455787168822
 10
209.1256034843376
 20
375.1959281473096
 10
211.89522312604606
 20
375.4479632547841
 10
214.6646888626119
 20
375.70168394594793
 10
217.43399966819698
 20
375.9570901268212
 10
220.2031545170089
 20
376.2141817027982
 10
222.97215238332478
 20
376.47295857864947
 10
225.74099224147983
 20
376.7334206585215
 10
228.50967306585596
 20
376.99556784593415
 10
228.50967306585596
 20
376.99556784593415
 10
231.3436935110525
 20
377.26566256754586
 10
234.1775451334911
 20
377.5375228707512
 10
237.01122683321478
 20
377.81114865002974
 10
239.84473751034443
 20
378.08653979917426
 10
242.67807606506722
 20
378.3636962112919
 10
245.51124139762555
 20
378.64261777880665
 10
248.34423240834042
 20
378.92330439345506
 10
207.61224487811415
 20
448.2193378221296
 10
205.27868619547792
 20
445.7302085606509
 10
202.94512751284162
 20
443.2410792991722
 10
202.94512751284162
 20
443.2410792991722
 10
203.87855098589614
 20
440.82973532711475
 10
204.81197445895066
 20
438.4183913550573
 10
205.74539793200512
 20
436.0070473829998
 10
206.67882140505964
 20
433.59570341094235
 10
206.67882140505964
 20
433.59570341094235
 10
204.18969214358094
 20
431.10657414946365
 10
201.7005628821023
 20
428.61744488798496
 10
200.53378354078416
 20
419.36099544686107
 10
204.3452627224234
 20
415.08280452869457
 10
208.15674190406264
 20
410.80461361052807
 10
211.96822108570188
 20
406.52642269236156
 10
211.96822108570188
 20
406.52642269236156
 10
210.17915942901408
 20
404.5817904568313
 10
208.39009777232627
 20
402.6371582213011
 10
206.60103611563846
 20
400.6925259857709
 10
228.50967306585608
 20
420.0288401120226
 10
228.50967306585608
 20
441.54547624506756
 10
241.50968706585616
 20
409.2624344606615
 10
241.50968706585616
 20
427.0813773480449
 10
241.50968706585616
 20
444.9003202354283
 10
212.2793622433867
 20
453.197596345087
 10
209.9458035607504
 20
450.7084670836083
 10
228.50967306585608
 20
463.06211237811254
 10
200.14485709367807
 20
474.35519506765587
 10
201.2797981024409
 20
472.3763235651976
 10
202.41473911120374
 20
470.3974520627393
 10
203.54968011996664
 20
468.41858056028104
 10
204.68462112872948
 20
466.43970905782277
 10
204.68462112872948
 20
466.43970905782277
 10
205.09154307686208
 20
465.73020412261724
 10
205.49846502499463
 20
465.02069918741165
 10
205.90538697312724
 20
464.31119425220606
 10
206.31230892125984
 20
463.60168931700053
 10
206.31230892125984
 20
463.60168931700053
 10
207.80407225179158
 20
461.00066607402215
 10
209.29583558232326
 20
458.39964283104376
 10
210.78759891285495
 20
455.7986195880654
 10
212.2793622433867
 20
453.197596345087
 10
241.50968706585616
 20
462.7192631228117
 10
241.50968706585616
 20
462.7192631228117
 10
241.50968706585616
 20
463.41952071219725
 10
241.50968706585616
 20
464.11977830158287
 10
241.50968706585616
 20
464.8200358909685
 10
241.50968706585616
 20
465.52029348035404
 10
248.45419461186543
 20
462.5279893218071
 10
247.06530560017745
 20
462.56669648605794
 10
245.67641030289087
 20
462.6051774493012
 10
244.28750875684943
 20
462.6434322105183
 10
242.89860099888983
 20
462.6814607686888
 10
241.50968706585627
 20
462.7192631228104
 10
249.2957777538569
 20
465.30552586535714
 10
247.7385753497599
 20
465.34904790128394
 10
246.1813650270226
 20
465.3922856821814
 10
244.62414683753343
 20
465.43523920661255
 10
243.06692083318137
 20
465.4779084731422
 10
241.50968706585525
 20
465.5202934803533
 10
241.50968706585525
 20
465.5202934803533
 10
238.16212165717047
 20
465.6104449452455
 10
234.8145211303845
 20
465.69928280384784
 10
231.46688600096888
 20
465.78680704248154
 10
228.11921678439262
 20
465.87301764766426
 10
224.77151399613774
 20
465.95791460612645
 10
221.4237781516838
 20
466.04149790479323
 10
218.0760097665227
 20
466.12376753079525
 10
214.72820935614448
 20
466.20472347146324
 10
211.38037743605105
 20
466.2843657143335
 10
208.03251452174186
 20
466.36269424713873
 10
204.68462112872874
 20
466.4397090578227
 10
241.50968706585627
 20
462.7192631228104
 10
240.0652670677356
 20
462.75833607560025
 10
238.62084047246162
 20
462.797164383192
 10
237.17640732146674
 20
462.83574804447244
 10
235.73196765619116
 20
462.8740870583356
 10
234.2875215180677
 20
462.91218142367734
 10
232.84306894853682
 20
462.95003113940993
 10
231.3986099890318
 20
462.9876362044438
 10
229.9541446809934
 20
463.0249966177039
 10
228.50967306585528
 20
463.0621123781134
 10
228.50967306585528
 20
463.0621123781134
 10
226.04336958480758
 20
463.12491831053967
 10
223.57704804429454
 20
463.18701102006935
 10
221.1107086505707
 20
463.2483905015092
 10
218.6443516098925
 20
463.3090567497279
 10
216.17797712851961
 20
463.36900975964863
 10
213.71158541270734
 20
463.4282495262619
 10
211.24517666871833
 20
463.4867760446109
 10
208.77875110281457
 20
463.54458930980263
 10
206.3123089212596
 20
463.60168931700036
 10
291.35123920964236
 20
392.0799042909461
 10
297.85123920964236
 20
391.9237395603938
 10
294.60123920964236
 20
392.00182192566996
 10
291.35123920964236
 20
392.0799042909461
 10
252.31287502154714
 20
376.8069762593873
 10
255.50968706588412
 20
377.1284907212098
 10
253.38095706585614
 20
379.4267339982833
 10
254.00968706585616
 20
376.97734794187846
 10
254.00968706585616
 20
378.23366361635277
 10
254.00968706585616
 20
379.4899792908271
 10
254.00968706585616
 20
380.7462949653014
 10
254.00968706585616
 20
382.0026106397757
 10
254.00968706585695
 20
382.0026106397768
 10
254.17635619809084
 20
382.0193984020666
 10
254.3430247144562
 20
382.03619227758236
 10
254.50969261472892
 20
382.05299226630405
 10
254.6763598986845
 20
382.0697983682062
 10
254.84302656609475
 20
382.086610583267
 10
255.0096926167439
 20
382.10342891146456
 10
255.17635805040322
 20
382.1202533527762
 10
255.34302286684851
 20
382.1370839071783
 10
255.50968706585593
 20
382.1539205746499
 10
255.50968706585616
 20
391.10713676901156
 10
252.00968706585616
 20
391.19122547007817
 10
255.50968706585616
 20
377.1284907212093
 10
255.50968706585616
 20
380.6231522331599
 10
255.50968706585616
 20
384.1178137451104
 10
255.50968706585616
 20
387.61247525706096
 10
255.50968706585616
 20
391.10713676901156
 10
255.50968706585616
 20
391.10713676901156
 10
251.1770479976011
 20
379.20575594629054
 10
254.00968706585252
 20
379.4899723276799
 10
291.35123920964236
 20
410.3351706372651
 10
291.35123920964236
 20
428.5904369835841
 10
291.35123920964236
 20
446.8457033299031
 10
253.38095706585614
 20
400.16726520129635
 10
253.38095706585614
 20
420.90779640430935
 10
253.38095706585614
 20
441.64832760732236
 10
255.50968706585616
 20
409.61247525706096
 10
255.50968706585616
 20
428.11781374511037
 10
255.50968706585616
 20
446.6231522331598
 10
288.6381990274534
 20
469.3304356072858
 10
288.646226684074
 20
469.66456846717927
 10
288.6542543406947
 20
469.99870132707275
 10
288.6622819973153
 20
470.33283418696624
 10
288.6703096539359
 20
470.6669670468597
 10
286.63870291723026
 20
469.37543074482477
 10
286.64674884324404
 20
469.7103240264548
 10
286.65479476925793
 20
470.0452173080849
 10
286.6628406952717
 20
470.38011058971495
 10
286.6708866212855
 20
470.715003871345
 10
288.6703096539377
 20
470.66696704685955
 10
288.61823445321556
 20
471.01033701045264
 10
288.45186032720926
 20
471.31518846382596
 10
288.19125445093573
 20
471.54475182257437
 10
287.86784973920646
 20
471.67133835763843
 10
287.52065357320146
 20
471.67967986467124
 10
287.1915429346104
 20
471.56877023481695
 10
286.9202134236033
 20
471.351986806288
 10
286.73939138360447
 20
471.05547685994736
 10
286.6708866212871
 20
470.7150038713447
 10
288.6381990274534
 20
469.3304356072857
 10
288.58560146407024
 20
469.67372634979574
 10
288.4187635729322
 20
469.97832470114963
 10
288.15780846597545
 20
470.20749160478124
 10
287.8342111803862
 20
470.3335861499693
 10
287.48700232459385
 20
470.34139947360677
 10
287.15806041086387
 20
470.22998917355073
 10
286.8870606886577
 20
470.01279297622875
 10
286.70668972400347
 20
469.71600794851247
 10
286.63870291723026
 20
469.3754307448248
 10
287.9384009660307
 20
469.3472484958557
 10
287.9293940614398
 20
468.9723566772336
 10
287.92038715684873
 20
468.5974648586116
 10
287.9113802522577
 20
468.2225730399896
 10
287.90237334766675
 20
467.8476812213675
 10
287.33857405623553
 20
469.36165954320103
 10
287.3295671516446
 20
468.98676772457907
 10
287.32056024705355
 20
468.61187590595716
 10
287.3115533424625
 20
468.23698408733526
 10
287.30254643787157
 20
467.8620922687133
 10
287.90237334766675
 20
467.8476812213675
 10
287.7524166202179
 20
467.851283983204
 10
287.60245989276916
 20
467.8548867450404
 10
287.4525031653204
 20
467.8584895068768
 10
287.30254643787157
 20
467.8620922687133
 10
298.9550918060115
 20
470.4198716263106
 10
295.52683108865347
 20
470.50223676649364
 10
292.0985703712954
 20
470.58460190667665
 10
288.67030965393747
 20
470.6669670468596
 10
291.35123920964236
 20
465.10096967622206
 10
277.23042655385825
 20
476.76032252705687
 10
277.72313484069673
 20
475.8196976158199
 10
278.2158431275352
 20
474.8790727045829
 10
278.7085514143736
 20
473.93844779334586
 10
279.20125970121205
 20
472.9978228821089
 10
279.20125970121205
 20
472.9978228821089
 10
278.7085514143736
 20
471.7884479962327
 10
278.2158431275352
 20
470.57907311035655
 10
277.72313484069673
 20
469.3696982244804
 10
277.23042655385825
 20
468.1603233386042
 10
277.23042655385825
 20
468.1603233386042
 10
278.0366764777757
 20
467.7124067142056
 10
278.84292640169315
 20
467.26449008980705
 10
279.6491763256106
 20
466.8165734654085
 10
280.45542624952805
 20
466.3686568410099
 10
280.45542624952805
 20
466.3686568410099
 10
279.8731346378099
 20
465.24886528001343
 10
279.2908430260918
 20
464.129073719017
 10
278.7085514143736
 20
463.0092821580206
 10
278.12625980265545
 20
461.8894905970241
 10
286.6708866212855
 20
470.715003871345
 10
284.5913255054953
 20
470.76496604077795
 10
282.51176438970515
 20
470.8149282102109
 10
280.4322032739151
 20
470.86489037964384
 10
278.3526421581249
 20
470.9148525490768
 10
277.80644433491375
 20
469.57418516483136
 10
279.93880648238223
 20
465.3751572888065
 10
253.38095706585614
 20
462.3888588103354
 10
254.00968706585616
 20
460.1699987056416
 10
254.00968706585616
 20
461.4205098841908
 10
254.00968706585616
 20
462.6710210627399
 10
254.00968706585616
 20
463.921532241289
 10
254.00968706585616
 20
465.1720434198382
 10
255.5096870658556
 20
460.12695161970487
 10
255.34302077350344
 20
460.1317476620575
 10
255.1763543874224
 20
460.1365404462126
 10
255.0096879076799
 20
460.1413299721703
 10
254.84302133433584
 20
460.14611623992687
 10
254.67635466745787
 20
460.15089924948234
 10
254.50968790710567
 20
460.15567900083306
 10
254.34302105334677
 20
460.1604554939772
 10
254.1763541062411
 20
460.165228728913
 10
254.00968706585627
 20
460.1699987056404
 10
254.00968706585525
 20
462.3708986753486
 10
252.62082356495296
 20
462.41051063330315
 10
251.2319536310929
 20
462.4498963943938
 10
249.84307730111846
 20
462.4890559575747
 10
255.52450714608108
 20
465.128595200526
 10
253.967336935425
 20
465.1732542419654
 10
252.41015859857725
 20
465.2176290342345
 10
250.8529721874254
 20
465.2617195758544
 10
255.50968706585616
 20
465.1284907212092
 10
304.35123920964236
 20
376.7886402151175
 10
304.35123920964236
 20
398.7886402151175
 10
326.3512392096425
 20
378.92274588655795
 10
320.8512392096425
 20
378.38921946869783
 10
315.3512392096425
 20
377.8556930508377
 10
309.85123920964236
 20
377.3221666329776
 10
304.35123920964236
 20
376.7886402151175
 10
326.3512392096425
 20
378.92274588655795
 10
326.3512392096425
 20
381.4076859673508
 10
326.3512392096425
 20
383.89262604814365
 10
326.35123920964236
 20
386.3775661289365
 10
326.35123920964236
 20
388.86250620972936
 10
304.35123920964236
 20
391.7675748298415
 10
301.10123920964236
 20
391.84565719511767
 10
304.35123920964236
 20
420.7886402151175
 10
304.35123920964236
 20
442.7886402151175
 10
304.35123920964236
 20
468.9768413189344
 10
304.3591232962367
 20
469.30499840461147
 10
304.36700738283116
 20
469.6331554902885
 10
304.3748914694255
 20
469.96131257596556
 10
304.38277555601985
 20
470.2894696616426
 10
302.3517430994191
 20
469.02183645647364
 10
302.35964545540673
 20
469.35075396388714
 10
302.3675478113943
 20
469.67967147130065
 10
302.3754501673818
 20
470.00858897871416
 10
302.38335252336947
 20
470.33750648612767
 10
320.9980440753054
 20
468.60223430135255
 10
321.005776060067
 20
468.92406049586214
 10
321.01350804482854
 20
469.2458866903717
 10
321.0212400295901
 20
469.5677128848813
 10
321.02897201435167
 20
469.8895390793909
 10
318.99854796508225
 20
468.64722943889154
 10
319.006298219237
 20
468.9698160551377
 10
319.01404847339177
 20
469.2924026713838
 10
319.0217987275465
 20
469.6149892876299
 10
319.0295489817013
 20
469.93757590387605
 10
338.63559926358425
 20
468.2053321931198
 10
338.6431700940286
 20
468.52045070749153
 10
338.6507409244731
 20
468.8355692218633
 10
338.6583117549176
 20
469.15068773623506
 10
338.66588258536194
 20
469.4658062506068
 10
336.636103153361
 20
468.25032733065876
 10
336.64369225319865
 20
468.56620626676704
 10
336.6512813530362
 20
468.8820852028753
 10
336.65887045287377
 20
469.1979641389836
 10
336.66645955271144
 20
469.51384307509187
 10
304.38277555602167
 20
470.28946966164256
 10
304.33070035529954
 20
470.63283962523565
 10
304.16432622929324
 20
470.93769107860896
 10
303.9037203530197
 20
471.16725443735737
 10
303.58031564129044
 20
471.29384097242144
 10
303.23311947528543
 20
471.30218247945425
 10
302.9040088366944
 20
471.19127284959995
 10
302.63267932568726
 20
470.974489421071
 10
302.45185728568845
 20
470.67797947473036
 10
302.38335252337106
 20
470.3375064861277
 10
321.0289720143535
 20
469.8895390793907
 10
320.97689681363136
 20
470.2329090429838
 10
320.81052268762505
 20
470.5377604963571
 10
320.5499168113515
 20
470.76732385510553
 10
320.22651209962225
 20
470.8939103901696
 10
319.87931593361725
 20
470.9022518972024
 10
319.5502052950262
 20
470.7913422673481
 10
319.2788757840191
 20
470.57455883881914
 10
319.09805374402026
 20
470.2780488924785
 10
319.0295489817029
 20
469.9375759038759
 10
338.66588258536376
 20
469.46580625060676
 10
338.61380738464163
 20
469.80917621419985
 10
338.44743325863533
 20
470.11402766757317
 10
338.1868273823618
 20
470.3435910263216
 10
337.86342267063253
 20
470.47017756138564
 10
337.5162265046275
 20
470.47851906841845
 10
337.1871158660365
 20
470.36760943856416
 10
336.91578635502935
 20
470.1508260100352
 10
336.73496431503054
 20
469.85431606369457
 10
336.66645955271315
 20
469.5138430750919
 10
304.35123920964224
 20
468.9768413189346
 10
304.29864164625906
 20
469.3201320614446
 10
304.13180375512104
 20
469.6247304127985
 10
303.87084864816427
 20
469.8538973164301
 10
303.547251362575
 20
469.97999186161815
 10
303.20004250678267
 20
469.98780518525564
 10
302.8711005930527
 20
469.8763948851996
 10
302.6001008708465
 20
469.6591986878776
 10
302.4197299061923
 20
469.36241366016134
 10
302.3517430994191
 20
469.0218364564737
 10
303.65144114821965
 20
468.99365420750445
 10
303.6424342436287
 20
468.61876238888243
 10
303.63342733903767
 20
468.2438705702604
 10
303.6244204344466
 20
467.8689787516384
 10
303.6154135298557
 20
467.4940869330164
 10
303.05161423842446
 20
469.0080652548499
 10
303.04260733383353
 20
468.63317343622793
 10
303.0336004292425
 20
468.258281617606
 10
303.02459352465144
 20
467.883389798984
 10
303.0155866200605
 20
467.50849798036205
 10
303.6154135298557
 20
467.4940869330164
 10
303.46545680240683
 20
467.4976896948528
 10
303.3155000749581
 20
467.5012924566892
 10
303.16554334750936
 20
467.50489521852563
 10
303.0155866200605
 20
467.50849798036205
 10
320.9980440753053
 20
468.6022343013525
 10
320.9454465119221
 20
468.9455250438625
 10
320.7786086207841
 20
469.2501233952164
 10
320.5176535138273
 20
469.479290298848
 10
320.1940562282381
 20
469.60538484403605
 10
319.8468473724457
 20
469.61319816767354
 10
319.51790545871575
 20
469.5017878676175
 10
319.2469057365096
 20
469.2845916702955
 10
319.06653477185534
 20
468.98780664257924
 10
318.99854796508214
 20
468.6472294388916
 10
320.2982460138827
 20
468.6190471899221
 10
320.28923910929166
 20
468.24415537130017
 10
320.2802322047007
 20
467.8692635526782
 10
320.2712253001098
 20
467.49437173405624
 10
320.26221839551874
 20
467.1194799154343
 10
319.6984191040875
 20
468.6334582372678
 10
319.6894121994965
 20
468.25856641864584
 10
319.68040529490554
 20
467.8836746000239
 10
319.6713983903145
 20
467.5087827814019
 10
319.66239148572345
 20
467.13389096277996
 10
320.26221839551874
 20
467.1194799154343
 10
320.1122616680699
 20
467.1230826772707
 10
319.96230494062115
 20
467.1266854391071
 10
319.8123482131723
 20
467.13028820094354
 10
319.66239148572345
 20
467.13389096277996
 10
338.63559926358414
 20
468.20533219311983
 10
338.58300170020095
 20
468.54862293562985
 10
338.41616380906294
 20
468.85322128698374
 10
338.15520870210617
 20
469.08238819061535
 10
337.8316114165169
 20
469.2084827358034
 10
337.48440256072456
 20
469.2162960594409
 10
337.1554606469946
 20
469.10488575938484
 10
336.8844609247884
 20
468.88768956206286
 10
336.7040899601342
 20
468.5909045343466
 10
336.636103153361
 20
468.25032733065893
 10
337.9358012021613
 20
468.2221450816896
 10
337.9267942975704
 20
467.8472532630676
 10
337.91778739297933
 20
467.4723614444457
 10
337.9087804883884
 20
467.0974696258238
 10
337.89977358379747
 20
466.72257780720184
 10
337.33597429236636
 20
468.236556129035
 10
337.3269673877753
 20
467.86166431041306
 10
337.3179604831844
 20
467.4867724917911
 10
337.30895357859333
 20
467.11188067316914
 10
337.2999466740023
 20
466.7369888545472
 10
337.89977358379747
 20
466.72257780720184
 10
337.7498168563486
 20
466.7261805690382
 10
337.5998601288999
 20
466.7297833308745
 10
337.44990340145114
 20
466.7333860927108
 10
337.2999466740023
 20
466.7369888545472
 10
347.0089750448552
 20
469.26536059123595
 10
342.83742881510943
 20
469.36558342092127
 10
338.66588258536365
 20
469.4658062506066
 10
336.66645955271144
 20
469.51384307509187
 10
332.7570876681219
 20
469.60776707616657
 10
328.8477157835325
 20
469.70169107724126
 10
324.938343898943
 20
469.79561507831596
 10
321.0289720143535
 20
469.88953907939066
 10
319.0295489817013
 20
469.93757590387605
 10
315.36785562528144
 20
470.0255493433176
 10
311.7061622688615
 20
470.1135227827592
 10
308.0444689124415
 20
470.20149622220083
 10
304.38277555602167
 20
470.2894696616424
 10
302.38335252336947
 20
470.33750648612767
 10
304.35123920964236
 20
464.7886402151175
 10
348.36226587399153
 20
467.98645069607926
 10
324.84365869429894
 20
468.5156955189966
 10
301.32505151460634
 20
469.04494034191396
 10
326.7116015249652
 20
464.2514248372676
 10
303.32520400367366
 20
464.81329106303707
 10
372.9222826682087
 20
448.2614487033256
 10
372.9222826682087
 20
448.2614487033256
 10
371.9369935060581
 20
447.4169151357679
 10
370.9517043439074
 20
446.5723815682102
 10
369.9664151817567
 20
445.72784800065244
 10
368.9811260196061
 20
444.88331443309477
 10
368.9811260196061
 20
444.88331443309477
 10
370.81094874931455
 20
441.92744694664276
 10
372.6407714790229
 20
438.97157946019075
 10
374.4705942087312
 20
436.01571197373875
 10
376.30041693843964
 20
433.05984448728674
 10
357.321890161675
 20
467.7848301352478
 10
357.3292902555056
 20
468.09284212828084
 10
357.3366903493361
 20
468.40085412131396
 10
357.3440904431667
 20
468.7088661143471
 10
357.3514905369973
 20
469.01687810738014
 10
355.32239405145174
 20
467.829825272787
 10
355.32981241467553
 20
468.13859768755657
 10
355.3372307778993
 20
468.44737010232615
 10
355.344649141123
 20
468.7561425170957
 10
355.3520675043468
 20
469.0649149318653
 10
357.3514905369991
 20
469.0168781073801
 10
357.299415336277
 20
469.36024807097317
 10
357.1330412102707
 20
469.6650995243465
 10
356.87243533399715
 20
469.8946628830949
 10
356.5490306222679
 20
470.02124941815896
 10
356.2018344562629
 20
470.02959092519177
 10
355.87272381767184
 20
469.9186812953375
 10
355.6013943066647
 20
469.7018978668085
 10
355.4205722666659
 20
469.4053879204679
 10
355.3520675043485
 20
469.06491493186525
 10
357.3218901616749
 20
467.78483013524794
 10
357.2692925982917
 20
468.12812087775796
 10
357.1024547071537
 20
468.43271922911185
 10
356.8414996001969
 20
468.66188613274346
 10
356.5179023146077
 20
468.7879806779315
 10
356.1706934588153
 20
468.795794001569
 10
355.84175154508534
 20
468.68438370151296
 10
355.5707518228792
 20
468.467187504191
 10
355.39038085822494
 20
468.1704024764747
 10
355.32239405145174
 20
467.82982527278705
 10
356.6220921002522
 20
467.8016430238179
 10
356.61308519566114
 20
467.42675120519596
 10
356.6040782910702
 20
467.051859386574
 10
356.5950713864793
 20
466.67696756795203
 10
356.58606448188823
 20
466.3020757493301
 10
356.0222651904569
 20
467.81605407116325
 10
356.01325828586596
 20
467.4411622525413
 10
356.004251381275
 20
467.0662704339194
 10
355.9952444766841
 20
466.6913786152975
 10
355.98623757209316
 20
466.3164867966755
 10
356.58606448188823
 20
466.3020757493301
 10
356.4361077544395
 20
466.30567851116643
 10
356.28615102699064
 20
466.3092812730028
 10
356.1361942995419
 20
466.31288403483916
 10
355.98623757209316
 20
466.3164867966755
 10
355.3520675043468
 20
469.0649149318653
 10
351.180521274601
 20
469.1651377615506
 10
371.4284775759352
 20
468.678673663084
 10
367.9092308162012
 20
468.76322477415806
 10
364.38998405646714
 20
468.84777588523207
 10
360.87073729673307
 20
468.9323269963061
 10
357.3514905369991
 20
469.01687810738014
 10
368.9811260196061
 20
475.28652286517257
 10
370.3886819655356
 20
471.48612181116283
 10
371.79623791146514
 20
467.6857207571531
 10
373.20379385739466
 20
463.88531970314335
 10
374.6113498033242
 20
460.0849186491336
 10
374.6113498033242
 20
460.0849186491336
 10
373.62606064117347
 20
459.24038508157594
 10
372.64077147902276
 20
458.3958515140182
 10
371.65548231687217
 20
457.5513179464605
 10
370.67019315472146
 20
456.7067843789028
 10
370.67019315472146
 20
456.7067843789028
 10
371.23321553309324
 20
454.59545046000846
 10
371.79623791146514
 20
452.4841165411142
 10
372.3592602898369
 20
450.3727826222199
 10
371.8808730536841
 20
467.45720587316185
 10
373.4843965675482
 20
463.1276923857287
 10
350.09799904625675
 20
463.68955861149817
  0
LWPOLYLINE
  5
30
330
17
100
AcDbEntity
  8
BODY_OUTLINE
 62
1
100
AcDbPolyline
 90
13
 70
1
 10
2.2737367544323206e-13
 20
367.55125262890823
 10
0.0
 20
112.44224462890836
 10
14.311393713304767
 20
30.791419273272084
 10
15.528944344435217
 20
25.160619127354494
 10
34.479267540967385
 20
0.3672109808838968
 10
40.12552513471746
 20
0.2460102933839039
 10
59.931788027134814
 20
0.0
 10
147.5462520000001
 20
97.49674862890834
 10
376.30041693843964
 20
433.05984448728674
 10
374.6113498033242
 20
460.0849186491336
 10
368.9811260196061
 20
475.28652286517257
 10
147.5462520000001
 20
499.99674862890834
 10
23.754601468379747
 20
415.7323711602333
  0
ENDSEC
  0
SECTION
  2
OBJECTS
  0
DICTIONARY
  5
A
330
0
100
AcDbDictionary
281
1
  3
ACAD_COLOR
350
B
  3
ACAD_GROUP
350
C
  3
ACAD_LAYOUT
350
D
  3
ACAD_MATERIAL
350
E
  3
ACAD_MLEADERSTYLE
350
F
  3
ACAD_MLINESTYLE
350
10
  3
ACAD_PLOTSETTINGS
350
11
  3
ACAD_PLOTSTYLENAME
350
12
  3
ACAD_SCALELIST
350
14
  3
ACAD_TABLESTYLE
350
15
  3
ACAD_VISUALSTYLE
350
16
  3
EZDXF_META
350
2D
  0
DICTIONARY
  5
B
330
A
100
AcDbDictionary
281
1
  0
DICTIONARY
  5
C
330
A
100
AcDbDictionary
281
1
  0
DICTIONARY
  5
D
330
A
100
AcDbDictionary
281
1
  3
Model
350
1A
  3
Layout1
350
1E
  0
DICTIONARY
  5
E
330
A
100
AcDbDictionary
281
1
  3
ByBlock
350
1F
  3
ByLayer
350
20
  3
Global
350
21
  0
DICTIONARY
  5
F
330
A
100
AcDbDictionary
281
1
  3
Standard
350
2C
  0
DICTIONARY
  5
10
330
A
100
AcDbDictionary
281
1
  3
Standard
350
22
  0
DICTIONARY
  5
11
330
A
100
AcDbDictionary
281
1
  0
ACDBDICTIONARYWDFLT
  5
12
330
A
100
AcDbDictionary
281
1
  3
Normal
350
13
100
AcDbDictionaryWithDefault
340
13
  0
ACDBPLACEHOLDER
  5
13
330
12
  0
DICTIONARY
  5
14
330
A
100
AcDbDictionary
281
1
  0
DICTIONARY
  5
15
330
A
100
AcDbDictionary
281
1
  0
DICTIONARY
  5
16
330
A
100
AcDbDictionary
281
1
  0
LAYOUT
  5
1A
330
D
100
AcDbPlotSettings
  1

  4
A3
  6

 40
7.5
 41
20.0
 42
7.5
 43
20.0
 44
420.0
 45
297.0
 46
0.0
 47
0.0
 48
0.0
 49
0.0
140
0.0
141
0.0
142
1.0
143
1.0
 70
1024
 72
1
 73
0
 74
5
  7

 75
16
 76
0
 77
2
 78
300
147
1.0
148
0.0
149
0.0
100
AcDbLayout
  1
Model
 70
1
 71
0
 10
0.0
 20
0.0
 11
420.0
 21
297.0
 12
0.0
 22
0.0
 32
0.0
 14
1e+20
 24
1e+20
 34
1e+20
 15
-1e+20
 25
-1e+20
 35
-1e+20
146
0.0
 13
0.0
 23
0.0
 33
0.0
 16
1.0
 26
0.0
 36
0.0
 17
0.0
 27
1.0
 37
0.0
 76
1
330
17
  0
LAYOUT
  5
1E
330
D
100
AcDbPlotSettings
  1

  4
A3
  6

 40
7.5
 41
20.0
 42
7.5
 43
20.0
 44
420.0
 45
297.0
 46
0.0
 47
0.0
 48
0.0
 49
0.0
140
0.0
141
0.0
142
1.0
143
1.0
 70
0
 72
1
 73
0
 74
5
  7

 75
16
 76
0
 77
2
 78
300
147
1.0
148
0.0
149
0.0
100
AcDbLayout
  1
Layout1
 70
1
 71
1
 10
0.0
 20
0.0
 11
420.0
 21
297.0
 12
0.0
 22
0.0
 32
0.0
 14
1e+20
 24
1e+20
 34
1e+20
 15
-1e+20
 25
-1e+20
 35
-1e+20
146
0.0
 13
0.0
 23
0.0
 33
0.0
 16
1.0
 26
0.0
 36
0.0
 17
0.0
 27
1.0
 37
0.0
 76
1
330
1B
  0
MATERIAL
  5
1F
102
{ACAD_REACTORS
330
E
102
}
330
E
100
AcDbMaterial
  1
ByBlock
  2

 70
0
 40
1.0
 71
1
 41
1.0
 91
-1023410177
 42
1.0
 72
1
  3

 73
1
 74
1
 75
1
 44
0.5
 73
0
 45
1.0
 46
1.0
 77
1
  4

 78
1
 79
1
170
1
 48
1.0
171
1
  6

172
1
173
1
174
1
140
1.0
141
1.0
175
1
  7

176
1
177
1
178
1
143
1.0
179
1
  8

270
1
271
1
272
1
145
1.0
146
1.0
273
1
  9

274
1
275
1
276
1
 42
1.0
 72
1
  3

 73
1
 74
1
 75
1
 94
63
  0
MATERIAL
  5
20
102
{ACAD_REACTORS
330
E
102
}
330
E
100
AcDbMaterial
  1
ByLayer
  2

 70
0
 40
1.0
 71
1
 41
1.0
 91
-1023410177
 42
1.0
 72
1
  3

 73
1
 74
1
 75
1
 44
0.5
 73
0
 45
1.0
 46
1.0
 77
1
  4

 78
1
 79
1
170
1
 48
1.0
171
1
  6

172
1
173
1
174
1
140
1.0
141
1.0
175
1
  7

176
1
177
1
178
1
143
1.0
179
1
  8

270
1
271
1
272
1
145
1.0
146
1.0
273
1
  9

274
1
275
1
276
1
 42
1.0
 72
1
  3

 73
1
 74
1
 75
1
 94
63
  0
MATERIAL
  5
21
102
{ACAD_REACTORS
330
E
102
}
330
E
100
AcDbMaterial
  1
Global
  2

 70
0
 40
1.0
 71
1
 41
1.0
 91
-1023410177
 42
1.0
 72
1
  3

 73
1
 74
1
 75
1
 44
0.5
 73
0
 45
1.0
 46
1.0
 77
1
  4

 78
1
 79
1
170
1
 48
1.0
171
1
  6

172
1
173
1
174
1
140
1.0
141
1.0
175
1
  7

176
1
177
1
178
1
143
1.0
179
1
  8

270
1
271
1
272
1
145
1.0
146
1.0
273
1
  9

274
1
275
1
276
1
 42
1.0
 72
1
  3

 73
1
 74
1
 75
1
 94
63
  0
MLINESTYLE
  5
22
102
{ACAD_REACTORS
330
10
102
}
330
10
100
AcDbMlineStyle
  2
Standard
 70
0
  3

 62
256
 51
90.0
 52
90.0
 71
2
 49
0.5
 62
256
  6
BYLAYER
 49
-0.5
 62
256
  6
BYLAYER
  0
MLEADERSTYLE
  5
2C
102
{ACAD_REACTORS
330
F
102
}
330
F
100
AcDbMLeaderStyle
179
2
170
2
171
1
172
0
 90
2
 40
0.0
 41
0.0
173
1
 91
-1056964608
 92
-2
290
1
 42
2.0
291
1
 43
8.0
  3
Standard
 44
4.0
300

342
29
174
1
175
1
176
0
178
1
 93
-1056964608
 45
4.0
292
0
297
0
 46
4.0
 94
-1056964608
 47
1.0
 49
1.0
140
1.0
294
1
141
0.0
177
0
142
1.0
295
0
296
0
143
3.75
271
0
272
9
273
9
  0
DICTIONARY
  5
2D
330
A
100
AcDbDictionary
280
1
281
1
  3
CREATED_BY_EZDXF
350
2E
  3
WRITTEN_BY_EZDXF
350
33
  0
DICTIONARYVAR
  5
2E
330
2D
100
DictionaryVariables
280
0
  1
1.4.3 @ 2025-12-11T16:10:03.641555+00:00
  0
DICTIONARYVAR
  5
33
330
2D
100
DictionaryVariables
280
0
  1
1.4.3 @ 2025-12-11T16:10:03.656707+00:00
  0
ENDSEC
  0
EOF
