  0
SECTION
  2
HEADER
  9
$ACADVER
  1
AC1015
  9
$ACADMAINTVER
 70
6
  9
$DWGCODEPAGE
  3
ANSI_1252
  9
$INSBASE
 10
0.0
 20
0.0
 30
0.0
  9
$EXTMIN
 10
1e+20
 20
1e+20
 30
1e+20
  9
$EXTMAX
 10
-1e+20
 20
-1e+20
 30
-1e+20
  9
$LIMMIN
 10
0.0
 20
0.0
  9
$LIMMAX
 10
420.0
 20
297.0
  9
$ORTHOMODE
 70
0
  9
$REGENMODE
 70
1
  9
$FILLMODE
 70
1
  9
$QTEXTMODE
 70
0
  9
$MIRRTEXT
 70
1
  9
$LTSCALE
 40
1.0
  9
$ATTMODE
 70
1
  9
$TEXTSIZE
 40
2.5
  9
$TRACEWID
 40
1.0
  9
$TEXTSTYLE
  7
Standard
  9
$CLAYER
  8
0
  9
$CELTYPE
  6
ByLayer
  9
$CECOLOR
 62
256
  9
$CELTSCALE
 40
1.0
  9
$DISPSILH
 70
0
  9
$DIMSCALE
 40
1.0
  9
$DIMASZ
 40
2.5
  9
$DIMEXO
 40
0.625
  9
$DIMDLI
 40
3.75
  9
$DIMRND
 40
0.0
  9
$DIMDLE
 40
0.0
  9
$DIMEXE
 40
1.25
  9
$DIMTP
 40
0.0
  9
$DIMTM
 40
0.0
  9
$DIMTXT
 40
2.5
  9
$DIMCEN
 40
2.5
  9
$DIMTSZ
 40
0.0
  9
$DIMTOL
 70
0
  9
$DIMLIM
 70
0
  9
$DIMTIH
 70
0
  9
$DIMTOH
 70
0
  9
$DIMSE1
 70
0
  9
$DIMSE2
 70
0
  9
$DIMTAD
 70
1
  9
$DIMZIN
 70
8
  9
$DIMBLK
  1

  9
$DIMASO
 70
1
  9
$DIMSHO
 70
1
  9
$DIMPOST
  1

  9
$DIMAPOST
  1

  9
$DIMALT
 70
0
  9
$DIMALTD
 70
3
  9
$DIMALTF
 40
0.03937007874
  9
$DIMLFAC
 40
1.0
  9
$DIMTOFL
 70
1
  9
$DIMTVP
 40
0.0
  9
$DIMTIX
 70
0
  9
$DIMSOXD
 70
0
  9
$DIMSAH
 70
0
  9
$DIMBLK1
  1

  9
$DIMBLK2
  1

  9
$DIMSTYLE
  2
ISO-25
  9
$DIMCLRD
 70
0
  9
$DIMCLRE
 70
0
  9
$DIMCLRT
 70
0
  9
$DIMTFAC
 40
1.0
  9
$DIMGAP
 40
0.625
  9
$DIMJUST
 70
0
  9
$DIMSD1
 70
0
  9
$DIMSD2
 70
0
  9
$DIMTOLJ
 70
0
  9
$DIMTZIN
 70
8
  9
$DIMALTZ
 70
0
  9
$DIMALTTZ
 70
0
  9
$DIMUPT
 70
0
  9
$DIMDEC
 70
2
  9
$DIMTDEC
 70
2
  9
$DIMALTU
 70
2
  9
$DIMALTTD
 70
3
  9
$DIMTXSTY
  7
Standard
  9
$DIMAUNIT
 70
0
  9
$DIMADEC
 70
0
  9
$DIMALTRND
 40
0.0
  9
$DIMAZIN
 70
0
  9
$DIMDSEP
 70
44
  9
$DIMATFIT
 70
3
  9
$DIMFRAC
 70
0
  9
$DIMLDRBLK
  1

  9
$DIMLUNIT
 70
2
  9
$DIMLWD
 70
-2
  9
$DIMLWE
 70
-2
  9
$DIMTMOVE
 70
0
  9
$LUNITS
 70
2
  9
$LUPREC
 70
4
  9
$SKETCHINC
 40
1.0
  9
$FILLETRAD
 40
10.0
  9
$AUNITS
 70
0
  9
$AUPREC
 70
2
  9
$MENU
  1
.
  9
$ELEVATION
 40
0.0
  9
$PELEVATION
 40
0.0
  9
$THICKNESS
 40
0.0
  9
$LIMCHECK
 70
0
  9
$CHAMFERA
 40
0.0
  9
$CHAMFERB
 40
0.0
  9
$CHAMFERC
 40
0.0
  9
$CHAMFERD
 40
0.0
  9
$SKPOLY
 70
0
  9
$TDCREATE
 40
2461021.4165972224
  9
$TDUCREATE
 40
2458532.153996898
  9
$TDUPDATE
 40
2461021.4165972224
  9
$TDUUPDATE
 40
2458532.1544311
  9
$TDINDWG
 40
0.0
  9
$TDUSRTIMER
 40
0.0
  9
$USRTIMER
 70
1
  9
$ANGBASE
 50
0.0
  9
$ANGDIR
 70
0
  9
$PDMODE
 70
0
  9
$PDSIZE
 40
0.0
  9
$PLINEWID
 40
0.0
  9
$SPLFRAME
 70
0
  9
$SPLINETYPE
 70
6
  9
$SPLINESEGS
 70
8
  9
$HANDSEED
  5
33
  9
$SURFTAB1
 70
6
  9
$SURFTAB2
 70
6
  9
$SURFTYPE
 70
6
  9
$SURFU
 70
6
  9
$SURFV
 70
6
  9
$UCSBASE
  2

  9
$UCSNAME
  2

  9
$UCSORG
 10
0.0
 20
0.0
 30
0.0
  9
$UCSXDIR
 10
1.0
 20
0.0
 30
0.0
  9
$UCSYDIR
 10
0.0
 20
1.0
 30
0.0
  9
$UCSORTHOREF
  2

  9
$UCSORTHOVIEW
 70
0
  9
$UCSORGTOP
 10
0.0
 20
0.0
 30
0.0
  9
$UCSORGBOTTOM
 10
0.0
 20
0.0
 30
0.0
  9
$UCSORGLEFT
 10
0.0
 20
0.0
 30
0.0
  9
$UCSORGRIGHT
 10
0.0
 20
0.0
 30
0.0
  9
$UCSORGFRONT
 10
0.0
 20
0.0
 30
0.0
  9
$UCSORGBACK
 10
0.0
 20
0.0
 30
0.0
  9
$PUCSBASE
  2

  9
$PUCSNAME
  2

  9
$PUCSORG
 10
0.0
 20
0.0
 30
0.0
  9
$PUCSXDIR
 10
1.0
 20
0.0
 30
0.0
  9
$PUCSYDIR
 10
0.0
 20
1.0
 30
0.0
  9
$PUCSORTHOREF
  2

  9
$PUCSORTHOVIEW
 70
0
  9
$PUCSORGTOP
 10
0.0
 20
0.0
 30
0.0
  9
$PUCSORGBOTTOM
 10
0.0
 20
0.0
 30
0.0
  9
$PUCSORGLEFT
 10
0.0
 20
0.0
 30
0.0
  9
$PUCSORGRIGHT
 10
0.0
 20
0.0
 30
0.0
  9
$PUCSORGFRONT
 10
0.0
 20
0.0
 30
0.0
  9
$PUCSORGBACK
 10
0.0
 20
0.0
 30
0.0
  9
$USERI1
 70
0
  9
$USERI2
 70
0
  9
$USERI3
 70
0
  9
$USERI4
 70
0
  9
$USERI5
 70
0
  9
$USERR1
 40
0.0
  9
$USERR2
 40
0.0
  9
$USERR3
 40
0.0
  9
$USERR4
 40
0.0
  9
$USERR5
 40
0.0
  9
$WORLDVIEW
 70
1
  9
$SHADEDGE
 70
3
  9
$SHADEDIF
 70
70
  9
$TILEMODE
 70
1
  9
$MAXACTVP
 70
64
  9
$PINSBASE
 10
0.0
 20
0.0
 30
0.0
  9
$PLIMCHECK
 70
0
  9
$PEXTMIN
 10
1e+20
 20
1e+20
 30
1e+20
  9
$PEXTMAX
 10
-1e+20
 20
-1e+20
 30
-1e+20
  9
$PLIMMIN
 10
0.0
 20
0.0
  9
$PLIMMAX
 10
420.0
 20
297.0
  9
$UNITMODE
 70
0
  9
$VISRETAIN
 70
1
  9
$PLINEGEN
 70
0
  9
$PSLTSCALE
 70
1
  9
$TREEDEPTH
 70
3020
  9
$CMLSTYLE
  2
Standard
  9
$CMLJUST
 70
0
  9
$CMLSCALE
 40
20.0
  9
$PROXYGRAPHICS
 70
1
  9
$MEASUREMENT
 70
1
  9
$CELWEIGHT
370
-1
  9
$ENDCAPS
280
0
  9
$JOINSTYLE
280
0
  9
$LWDISPLAY
290
0
  9
$INSUNITS
 70
6
  9
$HYPERLINKBASE
  1

  9
$STYLESHEET
  1

  9
$XEDIT
290
1
  9
$CEPSNTYPE
380
0
  9
$PSTYLEMODE
290
1
  9
$FINGERPRINTGUID
  2
{571EDB34-8471-4D07-A8E7-F46607D3201F}
  9
$VERSIONGUID
  2
{EA5023D9-AFF3-41B9-907D-3DF0A177D6D2}
  9
$EXTNAMES
290
1
  9
$PSVPSCALE
 40
0.0
  9
$OLESTARTUP
290
0
  0
ENDSEC
  0
SECTION
  2
CLASSES
  0
CLASS
  1
ACDBDICTIONARYWDFLT
  2
AcDbDictionaryWithDefault
  3
ObjectDBX Classes
 90
0
280
0
281
0
  0
CLASS
  1
SUN
  2
AcDbSun
  3
SCENEOE
 90
1153
280
0
281
0
  0
CLASS
  1
VISUALSTYLE
  2
AcDbVisualStyle
  3
ObjectDBX Classes
 90
4095
280
0
281
0
  0
CLASS
  1
MATERIAL
  2
AcDbMaterial
  3
ObjectDBX Classes
 90
1153
280
0
281
0
  0
CLASS
  1
SCALE
  2
AcDbScale
  3
ObjectDBX Classes
 90
1153
280
0
281
0
  0
CLASS
  1
TABLESTYLE
  2
AcDbTableStyle
  3
ObjectDBX Classes
 90
4095
280
0
281
0
  0
CLASS
  1
MLEADERSTYLE
  2
AcDbMLeaderStyle
  3
ACDB_MLEADERSTYLE_CLASS
 90
4095
280
0
281
0
  0
CLASS
  1
DICTIONARYVAR
  2
AcDbDictionaryVar
  3
ObjectDBX Classes
 90
0
280
0
281
0
  0
CLASS
  1
CELLSTYLEMAP
  2
AcDbCellStyleMap
  3
ObjectDBX Classes
 90
1152
280
0
281
0
  0
CLASS
  1
MENTALRAYRENDERSETTINGS
  2
AcDbMentalRayRenderSettings
  3
SCENEOE
 90
1024
280
0
281
0
  0
CLASS
  1
ACDBDETAILVIEWSTYLE
  2
AcDbDetailViewStyle
  3
ObjectDBX Classes
 90
1025
280
0
281
0
  0
CLASS
  1
ACDBSECTIONVIEWSTYLE
  2
AcDbSectionViewStyle
  3
ObjectDBX Classes
 90
1025
280
0
281
0
  0
CLASS
  1
RASTERVARIABLES
  2
AcDbRasterVariables
  3
ISM
 90
0
280
0
281
0
  0
CLASS
  1
ACDBPLACEHOLDER
  2
AcDbPlaceHolder
  3
ObjectDBX Classes
 90
0
280
0
281
0
  0
CLASS
  1
LAYOUT
  2
AcDbLayout
  3
ObjectDBX Classes
 90
0
280
0
281
0
  0
ENDSEC
  0
SECTION
  2
TABLES
  0
TABLE
  2
VPORT
  5
8
330
0
100
AcDbSymbolTable
 70
1
  0
VPORT
  5
23
330
8
100
AcDbSymbolTableRecord
100
AcDbViewportTableRecord
  2
*Active
 70
0
 10
0.0
 20
0.0
 11
1.0
 21
1.0
 12
0.0
 22
0.0
 13
0.0
 23
0.0
 14
0.5
 24
0.5
 15
0.5
 25
0.5
 16
0.0
 26
0.0
 36
1.0
 17
0.0
 27
0.0
 37
0.0
 40
1000.0
 41
1.34
 42
50.0
 43
0.0
 44
0.0
 50
0.0
 51
0.0
 71
0
 72
1000
 73
1
 74
3
 75
0
 76
0
 77
0
 78
0
281
0
 65
0
146
0.0
  0
ENDTAB
  0
TABLE
  2
LTYPE
  5
2
330
0
100
AcDbSymbolTable
 70
3
  0
LTYPE
  5
24
330
2
100
AcDbSymbolTableRecord
100
AcDbLinetypeTableRecord
  2
ByBlock
 70
0
  3

 72
65
 73
0
 40
0.0
  0
LTYPE
  5
25
330
2
100
AcDbSymbolTableRecord
100
AcDbLinetypeTableRecord
  2
ByLayer
 70
0
  3

 72
65
 73
0
 40
0.0
  0
LTYPE
  5
26
330
2
100
AcDbSymbolTableRecord
100
AcDbLinetypeTableRecord
  2
Continuous
 70
0
  3

 72
65
 73
0
 40
0.0
  0
ENDTAB
  0
TABLE
  2
LAYER
  5
1
330
0
100
AcDbSymbolTable
 70
2
  0
LAYER
  5
27
330
1
100
AcDbSymbolTableRecord
100
AcDbLayerTableRecord
  2
0
 70
0
 62
7
  6
Continuous
370
-3
390
13
  0
LAYER
  5
28
330
1
100
AcDbSymbolTableRecord
100
AcDbLayerTableRecord
  2
Defpoints
 70
0
 62
7
  6
Continuous
290
0
370
-3
390
13
  0
ENDTAB
  0
TABLE
  2
STYLE
  5
5
330
0
100
AcDbSymbolTable
 70
1
  0
STYLE
  5
29
330
5
100
AcDbSymbolTableRecord
100
AcDbTextStyleTableRecord
  2
Standard
 70
0
 40
0.0
 41
1.0
 50
0.0
 71
0
 42
2.5
  3
txt
  4

  0
ENDTAB
  0
TABLE
  2
VIEW
  5
7
330
0
100
AcDbSymbolTable
 70
0
  0
ENDTAB
  0
TABLE
  2
UCS
  5
6
330
0
100
AcDbSymbolTable
 70
0
  0
ENDTAB
  0
TABLE
  2
APPID
  5
3
330
0
100
AcDbSymbolTable
 70
3
  0
APPID
  5
2A
330
3
100
AcDbSymbolTableRecord
100
AcDbRegAppTableRecord
  2
ACAD
 70
0
  0
APPID
  5
30
330
3
100
AcDbSymbolTableRecord
100
AcDbRegAppTableRecord
  2
HATCHBACKGROUNDCOLOR
 70
0
  0
APPID
  5
31
330
3
100
AcDbSymbolTableRecord
100
AcDbRegAppTableRecord
  2
EZDXF
 70
0
  0
ENDTAB
  0
TABLE
  2
DIMSTYLE
  5
4
330
0
100
AcDbSymbolTable
 70
1
100
AcDbDimStyleTable
  0
DIMSTYLE
105
2B
330
4
100
AcDbSymbolTableRecord
100
AcDbDimStyleTableRecord
  2
Standard
 70
0
  3

  4

 40
1.0
 41
2.5
 42
0.625
 43
3.75
 44
1.25
 45
0.0
 46
0.0
 47
0.0
 48
0.0
140
2.5
141
2.5
142
0.0
143
0.03937007874
144
1.0
145
0.0
146
1.0
147
0.625
148
0.0
 71
0
 72
0
 73
0
 74
0
 75
0
 76
0
 77
1
 78
8
 79
3
170
0
171
3
172
1
173
0
174
0
175
0
176
0
177
0
178
0
179
2
271
2
272
2
273
2
274
3
275
0
276
0
277
2
278
44
279
0
280
0
281
0
282
0
283
0
284
8
285
0
286
0
288
0
289
3
371
-2
372
-2
  0
ENDTAB
  0
TABLE
  2
BLOCK_RECORD
  5
9
330
0
100
AcDbSymbolTable
 70
2
  0
BLOCK_RECORD
  5
17
330
9
100
AcDbSymbolTableRecord
100
AcDbBlockTableRecord
  2
*Model_Space
340
1A
  0
BLOCK_RECORD
  5
1B
330
9
100
AcDbSymbolTableRecord
100
AcDbBlockTableRecord
  2
*Paper_Space
340
1E
  0
ENDTAB
  0
ENDSEC
  0
SECTION
  2
BLOCKS
  0
BLOCK
  5
18
330
17
100
AcDbEntity
  8
0
100
AcDbBlockBegin
  2
*Model_Space
 70
0
 10
0.0
 20
0.0
 30
0.0
  3
*Model_Space
  1

  0
ENDBLK
  5
19
330
17
100
AcDbEntity
  8
0
100
AcDbBlockEnd
  0
BLOCK
  5
1C
330
1B
100
AcDbEntity
  8
0
100
AcDbBlockBegin
  2
*Paper_Space
 70
0
 10
0.0
 20
0.0
 30
0.0
  3
*Paper_Space
  1

  0
ENDBLK
  5
1D
330
1B
100
AcDbEntity
  8
0
100
AcDbBlockEnd
  0
ENDSEC
  0
SECTION
  2
ENTITIES
  0
LWPOLYLINE
  5
2F
330
17
100
AcDbEntity
  8
BODY
100
AcDbPolyline
 90
226
 70
1
 10
199.2347392248451
 20
504.825
 10
202.40208277712583
 20
504.8188059933317
 10
205.56937787798822
 20
504.8002240680778
 10
208.73657607675526
 20
504.7692545084893
 10
211.9036289242317
 20
504.7258977883132
 10
215.07048797344632
 20
504.6701545707848
 10
218.2371047803925
 20
504.60202570861793
 10
221.40343090476867
 20
504.5215122439922
 10
224.56941791072035
 20
504.4286154085363
 10
230.89490761937748
 20
504.2580742653912
 10
237.2108154320432
 20
503.8705012558298
 10
243.50969703585164
 20
503.26635319696027
 10
249.78412818606168
 20
502.4463421744083
 10
256.026713456723
 20
501.4114347030102
 10
262.23009495737455
 20
500.16285058761946
 10
268.3869610055019
 20
498.7020614853709
 10
274.4900547445305
 20
497.03078917109553
 10
278.8981718948471
 20
495.47697196736084
 10
283.2435998067414
 20
493.75560594699573
 10
287.5199727497537
 20
491.8692127838907
 10
291.72102615384586
 20
489.8205559044932
 10
295.8406057865328
 20
487.6126364395922
 10
299.8726767683779
 20
485.2486888278843
 10
303.8113324136451
 20
482.73217607775916
 10
307.6508028831564
 20
480.06678469424935
 10
313.26380031836624
 20
475.23852200129375
 10
318.4566565857718
 20
469.96101268098687
 10
323.19353170376894
 20
464.2706809721707
 10
327.4417327749717
 20
458.20680032538263
 10
331.17193962558696
 20
451.8112223459126
 10
334.35840716697345
 20
445.1280879429884
 10
336.9791430827286
 20
438.20352267867537
 10
339.0160596149456
 20
431.0853184191279
 10
340.1641534590327
 20
424.9811432107453
 10
340.9316810668389
 20
418.8175423297084
 10
341.3156907868048
 20
412.6182189001368
 10
341.3147058474405
 20
406.4070134229885
 10
340.92873003648964
 20
400.20781209355704
 10
340.15924768636296
 20
394.04445494324466
 10
339.00921796589773
 20
387.9406441588649
 10
337.4830635003956
 20
381.91985293205005
 10
335.6348047534208
 20
375.6153562614652
 10
334.07808283156453
 20
369.2326173882857
 10
332.81618393950737
 20
362.7851101295531
 10
331.8517719171986
 20
356.2864450269024
 10
331.18688261655063
 20
349.75034061501697
 10
330.8229196038016
 20
343.19059446211327
 10
330.76065119661916
 20
336.6210540435869
 10
331.0002088421991
 20
330.05558751030617
 10
331.43788248919736
 20
323.190899878223
 10
332.3147019474069
 20
316.3683869874285
 10
333.6270605040137
 20
309.6161125908823
 10
335.36955989786156
 20
302.9618515222292
 10
337.53503252468136
 20
296.4329754466825
 10
340.11457092034476
 20
290.05634027030226
 10
343.09756440086414
 20
283.85817567079937
 10
346.47174270842424
 20
277.86397720427
 10
371.79652768691375
 20
227.21440724729672
 10
374.6504019885566
 20
221.03659605718474
 10
377.42129448100724
 20
214.82112307232418
 10
380.10870828236267
 20
208.5691028635809
 10
382.71216148028344
 20
202.28165655554085
 10
385.23118721841087
 20
195.95991162546804
 10
387.6653337800849
 20
189.60500170112283
 10
390.0141646693465
 20
183.21806635747788
 10
392.2772586892113
 20
176.80025091236712
 10
394.04652989244164
 20
170.7653876461601
 10
395.5362502614463
 20
164.65550806841324
 10
396.74326421299105
 20
158.4835543620759
 10
397.66501500349625
 20
152.2626001979144
 10
398.29955014482977
 20
146.00582304135781
 10
398.6455255401428
 20
139.7264762394816
 10
398.70220833098773
 20
133.43786094725573
 10
398.4694784496873
 20
127.1532979525245
 10
398.0926293156092
 20
120.76432130424374
 10
397.4307605983223
 20
114.39855601771225
 10
396.48519365760933
 20
108.06871075556224
 10
395.25781623056156
 20
101.78742246941378
 10
393.75107866288613
 20
95.56723117136774
 10
391.9679890170171
 20
89.42055489902941
 10
389.9121070667967
 20
83.35966492404306
 10
387.58753719071524
 20
77.39666125363105
 10
384.3226820842426
 20
70.02060745159534
 10
380.5084231461983
 20
62.91308486560696
 10
376.1666822388356
 20
56.11494288046726
 10
371.3224128452967
 20
49.66525276391066
 10
366.00345665333487
 20
43.601083110546995
 10
360.24038353952784
 20
37.957286795857726
 10
354.0663158736487
 20
32.766300664694214
 10
347.516738152978
 20
28.05795910553779
 10
339.2249358021419
 20
23.050183722697795
 10
330.6577135266577
 20
18.529729874602623
 10
321.84368038889073
 20
14.511692996143665
 10
312.81226964218945
 20
11.00949076973248
 10
303.5936404425779
 20
8.034818318792816
 10
294.2185771363952
 20
5.597609153502049
 10
284.7183864601985
 20
3.706001999197838
 10
275.1247929962148
 20
2.3663136182225117
 10
268.82198944981525
 20
1.86154727755968
 10
262.5137097986181
 20
1.4305838853039177
 10
256.200818211653
 20
1.0734824789801678
 10
249.8841794897372
 20
0.7902919777856141
 10
243.56465894700645
 20
0.5810511758880921
 10
237.24312229237654
 20
0.4457887371122524
 10
230.92043551094935
 20
0.384523191012363
 10
224.5974647453823
 20
0.3972629303342273
 10
221.42797470475392
 20
0.30416025995361906
 10
218.25814441791337
 20
0.22346839230874593
 10
215.08802248177446
 20
0.15518856449284613
 10
211.9176574977223
 20
0.09932182330931028
 10
208.74709807086782
 20
0.055869025255447013
 10
205.57639280930297
 20
0.02483083650952267
 10
202.40559032335585
 20
0.006207732920188391
 10
199.2347392248451
 20
0.0
 10
196.0638881263337
 20
0.006207732920188391
 10
192.89308564038586
 20
0.024830836509408982
 10
189.7223803788203
 20
0.055869025255447013
 10
186.55182095196508
 20
0.09932182330931028
 10
183.38145596791222
 20
0.15518856449284613
 10
180.2113340317726
 20
0.22346839230874593
 10
177.0415037449313
 20
0.30416025995361906
 10
173.87201370430213
 20
0.3972629303342273
 10
167.5490429387355
 20
0.3845231910124767
 10
161.2263561573087
 20
0.4457887371123661
 10
154.90481950267915
 20
0.5810511758882058
 10
148.58529895994874
 20
0.7902919777857278
 10
142.2686602380333
 20
1.0734824789802815
 10
135.95576865106858
 20
1.4305838853040314
 10
129.64748899987177
 20
1.86154727755968
 10
123.3446854534725
 20
2.3663136182225117
 10
113.75109198948894
 20
3.7060019991975537
 10
104.25090131329226
 20
5.597609153501395
 10
94.87583800710962
 20
8.034818318791821
 10
85.65720880749804
 20
11.009490769731116
 10
76.62579806079678
 20
14.51169299614196
 10
67.81176492302978
 20
18.52972987460052
 10
59.24454264754557
 20
23.050183722695294
 10
50.952740296709315
 20
28.057959105534906
 10
44.403162576037914
 20
32.766300664692196
 10
38.22909491015817
 20
37.95728679585669
 10
32.4660217963506
 20
43.60108311054701
 10
27.14706560438836
 20
49.66525276391174
 10
22.302796210849166
 20
56.11494288046947
 10
17.96105530348622
 20
62.91308486561032
 10
14.146796365441801
 20
70.02060745159991
 10
10.881941258969208
 20
77.39666125363682
 10
8.55737138288842
 20
83.35966492404748
 10
6.501489432668535
 20
89.42055489903241
 10
4.718399786799978
 20
95.56723117136934
 10
3.2116622191248894
 20
101.78742246941395
 10
1.9842847920774318
 20
108.06871075556091
 10
1.0387178513647086
 20
114.39855601770948
 10
0.3768491340780429
 20
120.76432130423944
 10
0.0
 20
127.15329795251873
 10
-0.2327298813010259
 20
133.4378609472513
 10
-0.1760470904566489
 20
139.72647623947861
 10
0.16992830485585841
 20
146.0058230413563
 10
0.8044634461889473
 20
152.26260019791428
 10
1.726214236693835
 20
158.4835543620772
 10
2.933228188238388
 20
164.65550806841605
 10
4.422948557242904
 20
170.7653876461644
 10
6.19221976047313
 20
176.8002509123729
 10
8.455313780337633
 20
183.21806635748146
 10
10.804144669598998
 20
189.60500170112437
 10
13.238291231272683
 20
195.95991162546727
 10
15.75731696939971
 20
202.28165655553786
 10
18.360770167320197
 20
208.5691028635759
 10
21.048183968675175
 20
214.82112307231696
 10
23.81907646112535
 20
221.0365960571755
 10
26.672950762767776
 20
227.21440724728518
 10
51.99773574126018
 20
277.8639772042671
 10
55.371914048820486
 20
283.85817567079675
 10
58.35490752934
 20
290.0563402703
 10
60.9344459250035
 20
296.43297544668064
 10
63.09991855182335
 20
302.96185152222773
 10
64.84241794567114
 20
309.6161125908812
 10
66.1547765022779
 20
316.36838698742775
 10
67.03159596048725
 20
323.19089987822264
 10
67.46926960748537
 20
330.05558751030617
 10
67.70882725306558
 20
336.6210540435868
 10
67.6465588458835
 20
343.1905944621131
 10
67.28259583313485
 20
349.7503406150168
 10
66.6177065324872
 20
356.28644502690224
 10
65.6532945101788
 20
362.785110129553
 10
64.391395618122
 20
369.2326173882856
 10
62.83467369626612
 20
375.61535626146514
 10
60.98641494929172
 20
381.91985293205005
 10
59.460260483789554
 20
387.9406441588649
 10
58.31023076332434
 20
394.04445494324466
 10
57.54074841319766
 20
400.20781209355704
 10
57.15477260224684
 20
406.4070134229884
 10
57.15378766288252
 20
412.6182189001368
 10
57.53779738284838
 20
418.8175423297084
 10
58.30532499065461
 20
424.98114321074524
 10
59.45341883474168
 20
431.0853184191279
 10
61.49033536695835
 20
438.20352267867526
 10
64.1110712827132
 20
445.12808794298815
 10
67.29753882409933
 20
451.8112223459123
 10
71.02774567471425
 20
458.20680032538235
 10
75.27594674591663
 20
464.27068097217045
 10
80.01282186391339
 20
469.96101268098664
 10
85.20567813131856
 20
475.2385220012936
 10
90.818675566528
 20
480.06678469424935
 10
94.6581460360393
 20
482.73217607775916
 10
98.59680168130646
 20
485.2486888278842
 10
102.62887266315158
 20
487.6126364395923
 10
106.74845229583855
 20
489.8205559044932
 10
110.94950569993074
 20
491.86921278389076
 10
115.22587864294306
 20
493.7556059469958
 10
119.57130655483735
 20
495.47697196736084
 10
123.97942370515398
 20
497.03078917109553
 10
130.08251744418288
 20
498.7020614853709
 10
136.23938349231065
 20
500.1628505876195
 10
142.44276499296262
 20
501.4114347030102
 10
148.68535026362423
 20
502.4463421744083
 10
154.9597814138346
 20
503.26635319696027
 10
161.25866301764339
 20
503.8705012558298
 10
167.5745708303095
 20
504.2580742653912
 10
173.90006053896695
 20
504.4286154085363
 10
177.066047544919
 20
504.5215122439922
 10
180.23237366929555
 20
504.60202570861804
 10
183.39899047624195
 20
504.6701545707848
 10
186.56584952545697
 20
504.7258977883132
 10
189.73290237293398
 20
504.76925450848944
 10
192.90010057170122
 20
504.8002240680779
 10
196.06739567256398
 20
504.8188059933317
  0
ENDSEC
  0
SECTION
  2
OBJECTS
  0
DICTIONARY
  5
A
330
0
100
AcDbDictionary
281
1
  3
ACAD_COLOR
350
B
  3
ACAD_GROUP
350
C
  3
ACAD_LAYOUT
350
D
  3
ACAD_MATERIAL
350
E
  3
ACAD_MLEADERSTYLE
350
F
  3
ACAD_MLINESTYLE
350
10
  3
ACAD_PLOTSETTINGS
350
11
  3
ACAD_PLOTSTYLENAME
350
12
  3
ACAD_SCALELIST
350
14
  3
ACAD_TABLESTYLE
350
15
  3
ACAD_VISUALSTYLE
350
16
  3
EZDXF_META
350
2D
  0
DICTIONARY
  5
B
330
A
100
AcDbDictionary
281
1
  0
DICTIONARY
  5
C
330
A
100
AcDbDictionary
281
1
  0
DICTIONARY
  5
D
330
A
100
AcDbDictionary
281
1
  3
Model
350
1A
  3
Layout1
350
1E
  0
DICTIONARY
  5
E
330
A
100
AcDbDictionary
281
1
  3
ByBlock
350
1F
  3
ByLayer
350
20
  3
Global
350
21
  0
DICTIONARY
  5
F
330
A
100
AcDbDictionary
281
1
  3
Standard
350
2C
  0
DICTIONARY
  5
10
330
A
100
AcDbDictionary
281
1
  3
Standard
350
22
  0
DICTIONARY
  5
11
330
A
100
AcDbDictionary
281
1
  0
ACDBDICTIONARYWDFLT
  5
12
330
A
100
AcDbDictionary
281
1
  3
Normal
350
13
100
AcDbDictionaryWithDefault
340
13
  0
ACDBPLACEHOLDER
  5
13
330
12
  0
DICTIONARY
  5
14
330
A
100
AcDbDictionary
281
1
  0
DICTIONARY
  5
15
330
A
100
AcDbDictionary
281
1
  0
DICTIONARY
  5
16
330
A
100
AcDbDictionary
281
1
  0
LAYOUT
  5
1A
330
D
100
AcDbPlotSettings
  1

  4
A3
  6

 40
7.5
 41
20.0
 42
7.5
 43
20.0
 44
420.0
 45
297.0
 46
0.0
 47
0.0
 48
0.0
 49
0.0
140
0.0
141
0.0
142
1.0
143
1.0
 70
1024
 72
1
 73
0
 74
5
  7

 75
16
 76
0
 77
2
 78
300
147
1.0
148
0.0
149
0.0
100
AcDbLayout
  1
Model
 70
1
 71
0
 10
0.0
 20
0.0
 11
420.0
 21
297.0
 12
0.0
 22
0.0
 32
0.0
 14
1e+20
 24
1e+20
 34
1e+20
 15
-1e+20
 25
-1e+20
 35
-1e+20
146
0.0
 13
0.0
 23
0.0
 33
0.0
 16
1.0
 26
0.0
 36
0.0
 17
0.0
 27
1.0
 37
0.0
 76
1
330
17
  0
LAYOUT
  5
1E
330
D
100
AcDbPlotSettings
  1

  4
A3
  6

 40
7.5
 41
20.0
 42
7.5
 43
20.0
 44
420.0
 45
297.0
 46
0.0
 47
0.0
 48
0.0
 49
0.0
140
0.0
141
0.0
142
1.0
143
1.0
 70
0
 72
1
 73
0
 74
5
  7

 75
16
 76
0
 77
2
 78
300
147
1.0
148
0.0
149
0.0
100
AcDbLayout
  1
Layout1
 70
1
 71
1
 10
0.0
 20
0.0
 11
420.0
 21
297.0
 12
0.0
 22
0.0
 32
0.0
 14
1e+20
 24
1e+20
 34
1e+20
 15
-1e+20
 25
-1e+20
 35
-1e+20
146
0.0
 13
0.0
 23
0.0
 33
0.0
 16
1.0
 26
0.0
 36
0.0
 17
0.0
 27
1.0
 37
0.0
 76
1
330
1B
  0
MATERIAL
  5
1F
102
{ACAD_REACTORS
330
E
102
}
330
E
100
AcDbMaterial
  1
ByBlock
  2

 70
0
 40
1.0
 71
1
 41
1.0
 91
-1023410177
 42
1.0
 72
1
  3

 73
1
 74
1
 75
1
 44
0.5
 73
0
 45
1.0
 46
1.0
 77
1
  4

 78
1
 79
1
170
1
 48
1.0
171
1
  6

172
1
173
1
174
1
140
1.0
141
1.0
175
1
  7

176
1
177
1
178
1
143
1.0
179
1
  8

270
1
271
1
272
1
145
1.0
146
1.0
273
1
  9

274
1
275
1
276
1
 42
1.0
 72
1
  3

 73
1
 74
1
 75
1
 94
63
  0
MATERIAL
  5
20
102
{ACAD_REACTORS
330
E
102
}
330
E
100
AcDbMaterial
  1
ByLayer
  2

 70
0
 40
1.0
 71
1
 41
1.0
 91
-1023410177
 42
1.0
 72
1
  3

 73
1
 74
1
 75
1
 44
0.5
 73
0
 45
1.0
 46
1.0
 77
1
  4

 78
1
 79
1
170
1
 48
1.0
171
1
  6

172
1
173
1
174
1
140
1.0
141
1.0
175
1
  7

176
1
177
1
178
1
143
1.0
179
1
  8

270
1
271
1
272
1
145
1.0
146
1.0
273
1
  9

274
1
275
1
276
1
 42
1.0
 72
1
  3

 73
1
 74
1
 75
1
 94
63
  0
MATERIAL
  5
21
102
{ACAD_REACTORS
330
E
102
}
330
E
100
AcDbMaterial
  1
Global
  2

 70
0
 40
1.0
 71
1
 41
1.0
 91
-1023410177
 42
1.0
 72
1
  3

 73
1
 74
1
 75
1
 44
0.5
 73
0
 45
1.0
 46
1.0
 77
1
  4

 78
1
 79
1
170
1
 48
1.0
171
1
  6

172
1
173
1
174
1
140
1.0
141
1.0
175
1
  7

176
1
177
1
178
1
143
1.0
179
1
  8

270
1
271
1
272
1
145
1.0
146
1.0
273
1
  9

274
1
275
1
276
1
 42
1.0
 72
1
  3

 73
1
 74
1
 75
1
 94
63
  0
MLINESTYLE
  5
22
102
{ACAD_REACTORS
330
10
102
}
330
10
100
AcDbMlineStyle
  2
Standard
 70
0
  3

 62
256
 51
90.0
 52
90.0
 71
2
 49
0.5
 62
256
  6
BYLAYER
 49
-0.5
 62
256
  6
BYLAYER
  0
MLEADERSTYLE
  5
2C
102
{ACAD_REACTORS
330
F
102
}
330
F
100
AcDbMLeaderStyle
179
2
170
2
171
1
172
0
 90
2
 40
0.0
 41
0.0
173
1
 91
-1056964608
 92
-2
290
1
 42
2.0
291
1
 43
8.0
  3
Standard
 44
4.0
300

342
29
174
1
175
1
176
0
178
1
 93
-1056964608
 45
4.0
292
0
297
0
 46
4.0
 94
-1056964608
 47
1.0
 49
1.0
140
1.0
294
1
141
0.0
177
0
142
1.0
295
0
296
0
143
3.75
271
0
272
9
273
9
  0
DICTIONARY
  5
2D
330
A
100
AcDbDictionary
280
1
281
1
  3
CREATED_BY_EZDXF
350
2E
  3
WRITTEN_BY_EZDXF
350
32
  0
DICTIONARYVAR
  5
2E
330
2D
100
DictionaryVariables
280
0
  1
1.4.3 @ 2025-12-11T09:59:54.707745+00:00
  0
DICTIONARYVAR
  5
32
330
2D
100
DictionaryVariables
280
0
  1
1.4.3 @ 2025-12-11T09:59:54.710146+00:00
  0
ENDSEC
  0
EOF
