0
SECTION
2
HEADER
9
$ACADVER
1
AC1009
9
$INSUNITS
70
4
0
ENDSEC
0
SECTION
2
ENTITIES
0
POLYLINE
8
GEOMETRY
66
1
70
1
0
VERTEX
8
GEOMETRY
10
-100.000000
20
5.000000
30
0.0
0
VERTEX
8
GEOMETRY
10
-93.333333
20
11.666667
30
0.0
0
VERTEX
8
GEOMETRY
10
-86.666667
20
18.333333
30
0.0
0
VERTEX
8
GEOMETRY
10
-80.000000
20
25.000000
30
0.0
0
VERTEX
8
GEOMETRY
10
-73.333333
20
28.333333
30
0.0
0
VERTEX
8
GEOMETRY
10
-66.666667
20
31.666667
30
0.0
0
VERTEX
8
GEOMETRY
10
-60.000000
20
35.000000
30
0.0
0
VERTEX
8
GEOMETRY
10
-53.333333
20
37.000000
30
0.0
0
VERTEX
8
GEOMETRY
10
-46.666667
20
38.333333
30
0.0
0
VERTEX
8
GEOMETRY
10
-40.000000
20
39.666667
30
0.0
0
VERTEX
8
GEOMETRY
10
-33.333333
20
41.666667
30
0.0
0
VERTEX
8
GEOMETRY
10
-26.666667
20
42.333333
30
0.0
0
VERTEX
8
GEOMETRY
10
-20.000000
20
43.000000
30
0.0
0
VERTEX
8
GEOMETRY
10
-13.333333
20
43.666667
30
0.0
0
VERTEX
8
GEOMETRY
10
-6.666667
20
44.333333
30
0.0
0
VERTEX
8
GEOMETRY
10
0.000000
20
45.000000
30
0.0
0
VERTEX
8
GEOMETRY
10
6.666667
20
44.333333
30
0.0
0
VERTEX
8
GEOMETRY
10
13.333333
20
43.666667
30
0.0
0
VERTEX
8
GEOMETRY
10
20.000000
20
43.000000
30
0.0
0
VERTEX
8
GEOMETRY
10
26.666667
20
42.333333
30
0.0
0
VERTEX
8
GEOMETRY
10
33.333333
20
41.666667
30
0.0
0
VERTEX
8
GEOMETRY
10
40.000000
20
39.666667
30
0.0
0
VERTEX
8
GEOMETRY
10
46.666667
20
38.333333
30
0.0
0
VERTEX
8
GEOMETRY
10
53.333333
20
37.000000
30
0.0
0
VERTEX
8
GEOMETRY
10
60.000000
20
35.000000
30
0.0
0
VERTEX
8
GEOMETRY
10
66.666667
20
31.666667
30
0.0
0
VERTEX
8
GEOMETRY
10
73.333333
20
28.333333
30
0.0
0
VERTEX
8
GEOMETRY
10
80.000000
20
25.000000
30
0.0
0
VERTEX
8
GEOMETRY
10
86.666667
20
18.333333
30
0.0
0
VERTEX
8
GEOMETRY
10
93.333333
20
11.666667
30
0.0
0
VERTEX
8
GEOMETRY
10
100.000000
20
5.000000
30
0.0
0
VERTEX
8
GEOMETRY
10
93.333333
20
-8.333333
30
0.0
0
VERTEX
8
GEOMETRY
10
86.666667
20
-15.000000
30
0.0
0
VERTEX
8
GEOMETRY
10
80.000000
20
-21.666667
30
0.0
0
VERTEX
8
GEOMETRY
10
73.333333
20
-28.333333
30
0.0
0
VERTEX
8
GEOMETRY
10
66.666667
20
-31.666667
30
0.0
0
VERTEX
8
GEOMETRY
10
60.000000
20
-35.000000
30
0.0
0
VERTEX
8
GEOMETRY
10
53.333333
20
-38.333333
30
0.0
0
VERTEX
8
GEOMETRY
10
46.666667
20
-40.333333
30
0.0
0
VERTEX
8
GEOMETRY
10
40.000000
20
-41.666667
30
0.0
0
VERTEX
8
GEOMETRY
10
33.333333
20
-43.000000
30
0.0
0
VERTEX
8
GEOMETRY
10
26.666667
20
-43.666667
30
0.0
0
VERTEX
8
GEOMETRY
10
20.000000
20
-44.333333
30
0.0
0
VERTEX
8
GEOMETRY
10
13.333333
20
-45.000000
30
0.0
0
VERTEX
8
GEOMETRY
10
6.666667
20
-44.333333
30
0.0
0
VERTEX
8
GEOMETRY
10
0.000000
20
-43.666667
30
0.0
0
VERTEX
8
GEOMETRY
10
-6.666667
20
-43.000000
30
0.0
0
VERTEX
8
GEOMETRY
10
-13.333333
20
-41.666667
30
0.0
0
VERTEX
8
GEOMETRY
10
-20.000000
20
-40.333333
30
0.0
0
VERTEX
8
GEOMETRY
10
-26.666667
20
-38.333333
30
0.0
0
VERTEX
8
GEOMETRY
10
-33.333333
20
-35.000000
30
0.0
0
VERTEX
8
GEOMETRY
10
-40.000000
20
-31.666667
30
0.0
0
VERTEX
8
GEOMETRY
10
-46.666667
20
-28.333333
30
0.0
0
VERTEX
8
GEOMETRY
10
-53.333333
20
-21.666667
30
0.0
0
VERTEX
8
GEOMETRY
10
-60.000000
20
-15.000000
30
0.0
0
VERTEX
8
GEOMETRY
10
-66.666667
20
-8.333333
30
0.0
0
SEQEND
8
GEOMETRY
0
ENDSEC
0
EOF