  0
SECTION
  2
HEADER
  9
$ACADVER
  1
AC1009
  9
$DWGCODEPAGE
  3
ANSI_1252
  9
$INSBASE
 10
0.0
 20
0.0
 30
0.0
  9
$EXTMIN
 10
1e+20
 20
1e+20
 30
1e+20
  9
$EXTMAX
 10
-1e+20
 20
-1e+20
 30
-1e+20
  9
$LIMMIN
 10
0.0
 20
0.0
  9
$LIMMAX
 10
420.0
 20
297.0
  9
$ORTHOMODE
 70
0
  9
$REGENMODE
 70
1
  9
$FILLMODE
 70
1
  9
$DRAGMODE
 70
2
  9
$QTEXTMODE
 70
0
  9
$MIRRTEXT
 70
1
  9
$OSMODE
 70
20583
  9
$LTSCALE
 40
1.0
  9
$ATTMODE
 70
1
  9
$TEXTSIZE
 40
2.5
  9
$TRACEWID
 40
1.0
  9
$TEXTSTYLE
  7
Standard
  9
$CLAYER
  8
0
  9
$CELTYPE
  6
ByLayer
  9
$CECOLOR
 62
256
  9
$DIMSCALE
 40
1.0
  9
$DIMASZ
 40
2.5
  9
$DIMEXO
 40
0.625
  9
$DIMDLI
 40
3.75
  9
$DIMRND
 40
0.0
  9
$DIMDLE
 40
0.0
  9
$DIMEXE
 40
1.25
  9
$DIMTP
 40
0.0
  9
$DIMTM
 40
0.0
  9
$DIMTXT
 40
2.5
  9
$DIMCEN
 40
2.5
  9
$DIMTSZ
 40
0.0
  9
$DIMTOL
 70
0
  9
$DIMLIM
 70
0
  9
$DIMTIH
 70
0
  9
$DIMTOH
 70
0
  9
$DIMSE1
 70
0
  9
$DIMSE2
 70
0
  9
$DIMTAD
 70
1
  9
$DIMZIN
 70
8
  9
$DIMBLK
  1

  9
$DIMASO
 70
1
  9
$DIMSHO
 70
1
  9
$DIMPOST
  1

  9
$DIMAPOST
  1

  9
$DIMALT
 70
0
  9
$DIMALTD
 70
3
  9
$DIMALTF
 40
0.03937007874
  9
$DIMLFAC
 40
1.0
  9
$DIMTOFL
 70
1
  9
$DIMTVP
 40
0.0
  9
$DIMTIX
 70
0
  9
$DIMSOXD
 70
0
  9
$DIMSAH
 70
0
  9
$DIMBLK1
  1

  9
$DIMBLK2
  1

  9
$DIMSTYLE
  2
ISO-25
  9
$DIMCLRD
 70
0
  9
$DIMCLRE
 70
0
  9
$DIMCLRT
 70
0
  9
$DIMTFAC
 40
1.0
  9
$DIMGAP
 40
0.625
  9
$COORDS
 70
1
  9
$ATTDIA
 70
0
  9
$ATTREQ
 70
1
  9
$HANDLING
 70
1
  9
$LUNITS
 70
2
  9
$LUPREC
 70
4
  9
$SKETCHINC
 40
1.0
  9
$FILLETRAD
 40
10.0
  9
$AUNITS
 70
0
  9
$AUPREC
 70
2
  9
$MENU
  1
.
  9
$ELEVATION
 40
0.0
  9
$PELEVATION
 40
0.0
  9
$THICKNESS
 40
0.0
  9
$LIMCHECK
 70
0
  9
$CHAMFERA
 40
0.0
  9
$CHAMFERB
 40
0.0
  9
$SKPOLY
 70
0
  9
$TDCREATE
 40
2461104.9008101854
  9
$TDUPDATE
 40
2461104.9008101854
  9
$TDINDWG
 40
0.0
  9
$TDUSRTIMER
 40
0.0
  9
$USRTIMER
 70
1
  9
$ANGBASE
 50
0.0
  9
$ANGDIR
 70
0
  9
$PDMODE
 70
0
  9
$PDSIZE
 40
0.0
  9
$PLINEWID
 40
0.0
  9
$SPLFRAME
 70
0
  9
$SPLINETYPE
 70
6
  9
$SPLINESEGS
 70
8
  9
$HANDSEED
  5
28C
  9
$SURFTAB1
 70
6
  9
$SURFTAB2
 70
6
  9
$SURFTYPE
 70
6
  9
$SURFU
 70
6
  9
$SURFV
 70
6
  9
$UCSNAME
  2

  9
$UCSORG
 10
0.0
 20
0.0
 30
0.0
  9
$UCSXDIR
 10
1.0
 20
0.0
 30
0.0
  9
$UCSYDIR
 10
0.0
 20
1.0
 30
0.0
  9
$PUCSNAME
  2

  9
$PUCSORG
 10
0.0
 20
0.0
 30
0.0
  9
$PUCSXDIR
 10
1.0
 20
0.0
 30
0.0
  9
$PUCSYDIR
 10
0.0
 20
1.0
 30
0.0
  9
$USERI1
 70
0
  9
$USERI2
 70
0
  9
$USERI3
 70
0
  9
$USERI4
 70
0
  9
$USERI5
 70
0
  9
$USERR1
 40
0.0
  9
$USERR2
 40
0.0
  9
$USERR3
 40
0.0
  9
$USERR4
 40
0.0
  9
$USERR5
 40
0.0
  9
$WORLDVIEW
 70
1
  9
$SHADEDGE
 70
3
  9
$SHADEDIF
 70
70
  9
$TILEMODE
 70
1
  9
$MAXACTVP
 70
64
  9
$PLIMCHECK
 70
0
  9
$PEXTMIN
 10
1e+20
 20
1e+20
 30
1e+20
  9
$PEXTMAX
 10
-1e+20
 20
-1e+20
 30
-1e+20
  9
$PLIMMIN
 10
0.0
 20
0.0
  9
$PLIMMAX
 10
420.0
 20
297.0
  9
$UNITMODE
 70
0
  9
$VISRETAIN
 70
1
  9
$PLINEGEN
 70
0
  9
$PSLTSCALE
 70
1
  0
ENDSEC
  0
SECTION
  2
TABLES
  0
TABLE
  2
VPORT
 70
1
  0
VPORT
  5
23
  2
*Active
 70
0
 10
0.0
 20
0.0
 11
1.0
 21
1.0
 12
0.0
 22
0.0
 13
0.0
 23
0.0
 14
0.5
 24
0.5
 15
0.5
 25
0.5
 16
0.0
 26
0.0
 36
1.0
 17
0.0
 27
0.0
 37
0.0
 40
1000.0
 41
1.34
 42
50.0
 43
0.0
 44
0.0
 50
0.0
 51
0.0
 71
0
 72
1000
 73
1
 74
3
 75
0
 76
0
 77
0
 78
0
  0
ENDTAB
  0
TABLE
  2
LTYPE
 70
3
  0
LTYPE
  5
24
  2
ByBlock
 70
0
  3

 72
65
 73
0
 40
0.0
  0
LTYPE
  5
25
  2
ByLayer
 70
0
  3

 72
65
 73
0
 40
0.0
  0
LTYPE
  5
26
  2
Continuous
 70
0
  3

 72
65
 73
0
 40
0.0
  0
ENDTAB
  0
TABLE
  2
LAYER
 70
2
  0
LAYER
  5
27
  2
0
 70
0
 62
7
  6
Continuous
  0
LAYER
  5
28
  2
Defpoints
 70
0
 62
7
  6
Continuous
  0
ENDTAB
  0
TABLE
  2
STYLE
 70
1
  0
STYLE
  5
29
  2
Standard
 70
0
 40
0.0
 41
1.0
 50
0.0
 71
0
 42
2.5
  3
txt
  4

  0
ENDTAB
  0
TABLE
  2
VIEW
 70
0
  0
ENDTAB
  0
TABLE
  2
UCS
 70
0
  0
ENDTAB
  0
TABLE
  2
APPID
 70
3
  0
APPID
  5
2A
  2
ACAD
 70
0
  0
APPID
  5
28A
  2
HATCHBACKGROUNDCOLOR
 70
0
  0
APPID
  5
28B
  2
EZDXF
 70
0
  0
ENDTAB
  0
TABLE
  2
DIMSTYLE
 70
1
  0
DIMSTYLE
105
2B
  2
Standard
 70
0
  3

  4

  5

  6

  7

 40
1.0
 41
2.5
 42
0.625
 43
3.75
 44
1.25
 45
0.0
 46
0.0
 47
0.0
 48
0.0
140
2.5
141
2.5
142
0.0
143
0.03937007874
144
1.0
145
0.0
146
1.0
147
0.625
 71
0
 72
0
 73
0
 74
0
 75
0
 76
0
 77
1
 78
8
170
0
171
3
172
1
173
0
174
0
175
0
176
0
177
0
178
0
  0
ENDTAB
  0
ENDSEC
  0
SECTION
  2
BLOCKS
  0
BLOCK
  5
18
  8
0
  2
$Model_Space
 70
0
 10
0.0
 20
0.0
 30
0.0
  3
$Model_Space
  1

1001
EZDXF
1000
CREATED_BY_EZDXF
1000
1.4.3 @ 2026-03-05T03:37:10.091028+00:00
1000
WRITTEN_BY_EZDXF
1000
1.4.3 @ 2026-03-05T03:37:10.562547+00:00
  0
ENDBLK
  5
19
  8
0
  0
BLOCK
  5
1C
  8
0
  2
$Paper_Space
 70
0
 10
0.0
 20
0.0
 30
0.0
  3
$Paper_Space
  1

  0
ENDBLK
  5
1D
  8
0
  0
ENDSEC
  0
SECTION
  2
ENTITIES
  0
LINE
  5
2D
  8
PICKGUARD
 10
13.779500007629395
 20
273.36749267578125
 30
0.0
 11
13.715999603271484
 21
6.2230000495910645
 31
0.0
  0
LINE
  5
2E
  8
PICKGUARD
 10
13.715999603271484
 20
6.2230000495910645
 30
0.0
 11
202.0570068359375
 21
6.1595001220703125
 31
0.0
  0
LINE
  5
2F
  8
PICKGUARD
 10
202.0570068359375
 20
6.1595001220703125
 30
0.0
 11
202.0570068359375
 21
273.3039855957031
 31
0.0
  0
LINE
  5
30
  8
PICKGUARD
 10
202.0570068359375
 20
273.3039855957031
 30
0.0
 11
13.779500007629395
 21
273.36749267578125
 31
0.0
  0
LINE
  5
31
  8
PICKGUARD
 10
13.970000267028809
 20
273.177001953125
 30
0.0
 11
201.8665008544922
 21
273.1134948730469
 31
0.0
  0
LINE
  5
32
  8
PICKGUARD
 10
201.8665008544922
 20
273.1134948730469
 30
0.0
 11
201.80299377441406
 21
6.349999904632568
 31
0.0
  0
LINE
  5
33
  8
PICKGUARD
 10
201.80299377441406
 20
6.349999904632568
 30
0.0
 11
13.906499862670898
 21
6.41349983215332
 31
0.0
  0
LINE
  5
34
  8
PICKGUARD
 10
13.906499862670898
 20
6.41349983215332
 30
0.0
 11
13.970000267028809
 21
273.177001953125
 31
0.0
  0
LINE
  5
35
  8
SMALL_FEATURE
 10
181.54649353027344
 20
39.43349838256836
 30
0.0
 11
188.34100341796875
 21
39.49700164794922
 31
0.0
  0
LINE
  5
36
  8
SMALL_FEATURE
 10
188.34100341796875
 20
39.49700164794922
 30
0.0
 11
188.531494140625
 21
38.98899841308594
 31
0.0
  0
LINE
  5
37
  8
SMALL_FEATURE
 10
188.531494140625
 20
38.98899841308594
 30
0.0
 11
188.59500122070312
 21
39.49700164794922
 31
0.0
  0
LINE
  5
38
  8
SMALL_FEATURE
 10
188.59500122070312
 20
39.49700164794922
 30
0.0
 11
198.7550048828125
 21
39.49700164794922
 31
0.0
  0
LINE
  5
39
  8
SMALL_FEATURE
 10
198.7550048828125
 20
39.49700164794922
 30
0.0
 11
198.81849670410156
 21
32.3849983215332
 31
0.0
  0
LINE
  5
3A
  8
SMALL_FEATURE
 10
198.81849670410156
 20
32.3849983215332
 30
0.0
 11
198.05650329589844
 21
32.32149887084961
 31
0.0
  0
LINE
  5
3B
  8
SMALL_FEATURE
 10
198.05650329589844
 20
32.32149887084961
 30
0.0
 11
197.35800170898438
 21
31.62299919128418
 31
0.0
  0
LINE
  5
3C
  8
SMALL_FEATURE
 10
197.35800170898438
 20
31.62299919128418
 30
0.0
 11
196.3419952392578
 21
29.273500442504883
 31
0.0
  0
LINE
  5
3D
  8
SMALL_FEATURE
 10
196.3419952392578
 20
29.273500442504883
 30
0.0
 11
195.83399963378906
 21
26.60650062561035
 31
0.0
  0
LINE
  5
3E
  8
SMALL_FEATURE
 10
195.83399963378906
 20
26.60650062561035
 30
0.0
 11
196.15150451660156
 21
26.60650062561035
 31
0.0
  0
LINE
  5
3F
  8
SMALL_FEATURE
 10
196.15150451660156
 20
26.60650062561035
 30
0.0
 11
196.27850341796875
 21
28.575000762939453
 31
0.0
  0
LINE
  5
40
  8
SMALL_FEATURE
 10
196.27850341796875
 20
28.575000762939453
 30
0.0
 11
197.29449462890625
 21
31.114999771118164
 31
0.0
  0
LINE
  5
41
  8
SMALL_FEATURE
 10
197.29449462890625
 20
31.114999771118164
 30
0.0
 11
197.86599731445312
 21
32.00400161743164
 31
0.0
  0
LINE
  5
42
  8
SMALL_FEATURE
 10
197.86599731445312
 20
32.00400161743164
 30
0.0
 11
198.7550048828125
 21
32.00400161743164
 31
0.0
  0
LINE
  5
43
  8
SMALL_FEATURE
 10
198.7550048828125
 20
32.00400161743164
 30
0.0
 11
198.81849670410156
 21
24.574499130249023
 31
0.0
  0
LINE
  5
44
  8
SMALL_FEATURE
 10
198.81849670410156
 20
24.574499130249023
 30
0.0
 11
194.50050354003906
 21
24.51099967956543
 31
0.0
  0
LINE
  5
45
  8
SMALL_FEATURE
 10
194.50050354003906
 20
24.51099967956543
 30
0.0
 11
194.43699645996094
 21
24.828500747680664
 31
0.0
  0
LINE
  5
46
  8
SMALL_FEATURE
 10
194.43699645996094
 20
24.828500747680664
 30
0.0
 11
194.2465057373047
 21
24.574499130249023
 31
0.0
  0
LINE
  5
47
  8
SMALL_FEATURE
 10
194.2465057373047
 20
24.574499130249023
 30
0.0
 11
193.29400634765625
 21
24.828500747680664
 31
0.0
  0
LINE
  5
48
  8
SMALL_FEATURE
 10
193.29400634765625
 20
24.828500747680664
 30
0.0
 11
193.10350036621094
 21
24.51099967956543
 31
0.0
  0
LINE
  5
49
  8
SMALL_FEATURE
 10
193.10350036621094
 20
24.51099967956543
 30
0.0
 11
190.3094940185547
 21
24.51099967956543
 31
0.0
  0
LINE
  5
4A
  8
SMALL_FEATURE
 10
190.3094940185547
 20
24.51099967956543
 30
0.0
 11
190.24600219726562
 21
24.828500747680664
 31
0.0
  0
LINE
  5
4B
  8
SMALL_FEATURE
 10
190.24600219726562
 20
24.828500747680664
 30
0.0
 11
189.61099243164062
 21
25.018999099731445
 31
0.0
  0
LINE
  5
4C
  8
SMALL_FEATURE
 10
189.61099243164062
 20
25.018999099731445
 30
0.0
 11
189.54750061035156
 21
24.574499130249023
 31
0.0
  0
LINE
  5
4D
  8
SMALL_FEATURE
 10
189.54750061035156
 20
24.574499130249023
 30
0.0
 11
181.67349243164062
 21
24.51099967956543
 31
0.0
  0
LINE
  5
4E
  8
SMALL_FEATURE
 10
181.67349243164062
 20
24.51099967956543
 30
0.0
 11
181.54649353027344
 21
25.844499588012695
 31
0.0
  0
LINE
  5
4F
  8
SMALL_FEATURE
 10
181.54649353027344
 20
25.844499588012695
 30
0.0
 11
182.1179962158203
 21
25.908000946044922
 31
0.0
  0
LINE
  5
50
  8
SMALL_FEATURE
 10
182.1179962158203
 20
25.908000946044922
 30
0.0
 11
182.6894989013672
 21
26.60650062561035
 31
0.0
  0
LINE
  5
51
  8
SMALL_FEATURE
 10
182.6894989013672
 20
26.60650062561035
 30
0.0
 11
183.51499938964844
 21
26.542999267578125
 31
0.0
  0
LINE
  5
52
  8
SMALL_FEATURE
 10
183.51499938964844
 20
26.542999267578125
 30
0.0
 11
183.51499938964844
 21
25.717500686645508
 31
0.0
  0
LINE
  5
53
  8
SMALL_FEATURE
 10
183.51499938964844
 20
25.717500686645508
 30
0.0
 11
183.70550537109375
 21
26.225500106811523
 31
0.0
  0
LINE
  5
54
  8
SMALL_FEATURE
 10
183.70550537109375
 20
26.225500106811523
 30
0.0
 11
184.46749877929688
 21
26.225500106811523
 31
0.0
  0
LINE
  5
55
  8
SMALL_FEATURE
 10
184.46749877929688
 20
26.225500106811523
 30
0.0
 11
186.1820068359375
 21
29.972000122070312
 31
0.0
  0
LINE
  5
56
  8
SMALL_FEATURE
 10
186.1820068359375
 20
29.972000122070312
 30
0.0
 11
186.7534942626953
 21
31.686500549316406
 31
0.0
  0
LINE
  5
57
  8
SMALL_FEATURE
 10
186.7534942626953
 20
31.686500549316406
 30
0.0
 11
187.3249969482422
 21
31.686500549316406
 31
0.0
  0
LINE
  5
58
  8
SMALL_FEATURE
 10
187.3249969482422
 20
31.686500549316406
 30
0.0
 11
187.5155029296875
 21
32.638999938964844
 31
0.0
  0
LINE
  5
59
  8
SMALL_FEATURE
 10
187.5155029296875
 20
32.638999938964844
 30
0.0
 11
189.86500549316406
 21
32.57550048828125
 31
0.0
  0
LINE
  5
5A
  8
SMALL_FEATURE
 10
189.86500549316406
 20
32.57550048828125
 30
0.0
 11
189.86500549316406
 21
32.829498291015625
 31
0.0
  0
LINE
  5
5B
  8
SMALL_FEATURE
 10
189.86500549316406
 20
32.829498291015625
 30
0.0
 11
188.59500122070312
 21
32.829498291015625
 31
0.0
  0
LINE
  5
5C
  8
SMALL_FEATURE
 10
188.59500122070312
 20
32.829498291015625
 30
0.0
 11
188.02349853515625
 21
33.21049880981445
 31
0.0
  0
LINE
  5
5D
  8
SMALL_FEATURE
 10
188.02349853515625
 20
33.21049880981445
 30
0.0
 11
188.02349853515625
 21
33.654998779296875
 31
0.0
  0
LINE
  5
5E
  8
SMALL_FEATURE
 10
188.02349853515625
 20
33.654998779296875
 30
0.0
 11
187.3885040283203
 21
33.654998779296875
 31
0.0
  0
LINE
  5
5F
  8
SMALL_FEATURE
 10
187.3885040283203
 20
33.654998779296875
 30
0.0
 11
187.3885040283203
 21
34.67100143432617
 31
0.0
  0
LINE
  5
60
  8
SMALL_FEATURE
 10
187.3885040283203
 20
34.67100143432617
 30
0.0
 11
186.3090057373047
 21
33.337501525878906
 31
0.0
  0
LINE
  5
61
  8
SMALL_FEATURE
 10
186.3090057373047
 20
33.337501525878906
 30
0.0
 11
183.83250427246094
 21
31.813499450683594
 31
0.0
  0
LINE
  5
62
  8
SMALL_FEATURE
 10
183.83250427246094
 20
31.813499450683594
 30
0.0
 11
183.0070037841797
 21
30.60700035095215
 31
0.0
  0
LINE
  5
63
  8
SMALL_FEATURE
 10
183.0070037841797
 20
30.60700035095215
 30
0.0
 11
183.13400268554688
 21
29.844999313354492
 31
0.0
  0
LINE
  5
64
  8
SMALL_FEATURE
 10
183.13400268554688
 20
29.844999313354492
 30
0.0
 11
183.26100158691406
 21
30.797500610351562
 31
0.0
  0
LINE
  5
65
  8
SMALL_FEATURE
 10
183.26100158691406
 20
30.797500610351562
 30
0.0
 11
183.83250427246094
 21
31.496000289916992
 31
0.0
  0
LINE
  5
66
  8
SMALL_FEATURE
 10
183.83250427246094
 20
31.496000289916992
 30
0.0
 11
185.03900146484375
 21
32.19449996948242
 31
0.0
  0
LINE
  5
67
  8
SMALL_FEATURE
 10
185.03900146484375
 20
32.19449996948242
 30
0.0
 11
185.9915008544922
 21
32.19449996948242
 31
0.0
  0
LINE
  5
68
  8
SMALL_FEATURE
 10
185.9915008544922
 20
32.19449996948242
 30
0.0
 11
186.05499267578125
 21
31.178499221801758
 31
0.0
  0
LINE
  5
69
  8
SMALL_FEATURE
 10
186.05499267578125
 20
31.178499221801758
 30
0.0
 11
185.22950744628906
 21
28.95599937438965
 31
0.0
  0
LINE
  5
6A
  8
SMALL_FEATURE
 10
185.22950744628906
 20
28.95599937438965
 30
0.0
 11
183.32449340820312
 21
28.38450050354004
 31
0.0
  0
LINE
  5
6B
  8
SMALL_FEATURE
 10
183.32449340820312
 20
28.38450050354004
 30
0.0
 11
183.32449340820312
 21
27.622499465942383
 31
0.0
  0
LINE
  5
6C
  8
SMALL_FEATURE
 10
183.32449340820312
 20
27.622499465942383
 30
0.0
 11
182.6894989013672
 21
26.73349952697754
 31
0.0
  0
LINE
  5
6D
  8
SMALL_FEATURE
 10
182.6894989013672
 20
26.73349952697754
 30
0.0
 11
181.61000061035156
 21
26.542999267578125
 31
0.0
  0
LINE
  5
6E
  8
SMALL_FEATURE
 10
181.61000061035156
 20
26.542999267578125
 30
0.0
 11
181.54649353027344
 21
39.43349838256836
 31
0.0
  0
LINE
  5
6F
  8
SMALL_FEATURE
 10
152.14599609375
 20
256.2860107421875
 30
0.0
 11
152.9080047607422
 21
256.2860107421875
 31
0.0
  0
LINE
  5
70
  8
SMALL_FEATURE
 10
152.9080047607422
 20
256.2860107421875
 30
0.0
 11
157.67050170898438
 21
252.41250610351562
 31
0.0
  0
LINE
  5
71
  8
SMALL_FEATURE
 10
157.67050170898438
 20
252.41250610351562
 30
0.0
 11
160.08349609375
 21
255.58749389648438
 31
0.0
  0
LINE
  5
72
  8
SMALL_FEATURE
 10
160.08349609375
 20
255.58749389648438
 30
0.0
 11
161.16299438476562
 21
255.33349609375
 31
0.0
  0
LINE
  5
73
  8
SMALL_FEATURE
 10
161.16299438476562
 20
255.33349609375
 30
0.0
 11
165.60800170898438
 21
249.8090057373047
 31
0.0
  0
LINE
  5
74
  8
SMALL_FEATURE
 10
165.60800170898438
 20
249.8090057373047
 30
0.0
 11
165.60800170898438
 21
241.5540008544922
 31
0.0
  0
LINE
  5
75
  8
SMALL_FEATURE
 10
165.60800170898438
 20
241.5540008544922
 30
0.0
 11
161.8614959716797
 21
242.18899536132812
 31
0.0
  0
LINE
  5
76
  8
SMALL_FEATURE
 10
161.8614959716797
 20
242.18899536132812
 30
0.0
 11
161.79800415039062
 21
242.57000732421875
 31
0.0
  0
LINE
  5
77
  8
SMALL_FEATURE
 10
161.79800415039062
 20
242.57000732421875
 30
0.0
 11
155.7655029296875
 21
242.57000732421875
 31
0.0
  0
LINE
  5
78
  8
SMALL_FEATURE
 10
155.7655029296875
 20
242.57000732421875
 30
0.0
 11
155.51150512695312
 21
242.12550354003906
 31
0.0
  0
LINE
  5
79
  8
SMALL_FEATURE
 10
155.51150512695312
 20
242.12550354003906
 30
0.0
 11
151.95550537109375
 21
241.61749267578125
 31
0.0
  0
LINE
  5
7A
  8
SMALL_FEATURE
 10
151.95550537109375
 20
241.61749267578125
 30
0.0
 11
152.14599609375
 21
256.2860107421875
 31
0.0
  0
LINE
  5
7B
  8
SMALL_FEATURE
 10
93.6624984741211
 20
258.1910095214844
 30
0.0
 11
96.58350372314453
 21
257.93701171875
 31
0.0
  0
LINE
  5
7C
  8
SMALL_FEATURE
 10
96.58350372314453
 20
257.93701171875
 30
0.0
 11
96.64700317382812
 21
258.2544860839844
 31
0.0
  0
LINE
  5
7D
  8
SMALL_FEATURE
 10
96.64700317382812
 20
258.2544860839844
 30
0.0
 11
108.71199798583984
 21
258.2544860839844
 31
0.0
  0
LINE
  5
7E
  8
SMALL_FEATURE
 10
108.71199798583984
 20
258.2544860839844
 30
0.0
 11
108.77549743652344
 21
257.8735046386719
 31
0.0
  0
LINE
  5
7F
  8
SMALL_FEATURE
 10
108.77549743652344
 20
257.8735046386719
 30
0.0
 11
111.63300323486328
 21
258.2544860839844
 31
0.0
  0
LINE
  5
80
  8
SMALL_FEATURE
 10
111.63300323486328
 20
258.2544860839844
 30
0.0
 11
111.69650268554688
 21
249.30099487304688
 31
0.0
  0
LINE
  5
81
  8
SMALL_FEATURE
 10
111.69650268554688
 20
249.30099487304688
 30
0.0
 11
108.77549743652344
 21
249.2375030517578
 31
0.0
  0
LINE
  5
82
  8
SMALL_FEATURE
 10
108.77549743652344
 20
249.2375030517578
 30
0.0
 11
108.64849853515625
 21
249.61849975585938
 31
0.0
  0
LINE
  5
83
  8
SMALL_FEATURE
 10
108.64849853515625
 20
249.61849975585938
 30
0.0
 11
105.91799926757812
 21
249.2375030517578
 31
0.0
  0
LINE
  5
84
  8
SMALL_FEATURE
 10
105.91799926757812
 20
249.2375030517578
 30
0.0
 11
105.72750091552734
 21
253.04750061035156
 31
0.0
  0
LINE
  5
85
  8
SMALL_FEATURE
 10
105.72750091552734
 20
253.04750061035156
 30
0.0
 11
105.60050201416016
 21
249.2375030517578
 31
0.0
  0
LINE
  5
86
  8
SMALL_FEATURE
 10
105.60050201416016
 20
249.2375030517578
 30
0.0
 11
102.87000274658203
 21
249.61849975585938
 31
0.0
  0
LINE
  5
87
  8
SMALL_FEATURE
 10
102.87000274658203
 20
249.61849975585938
 30
0.0
 11
99.8219985961914
 21
249.2375030517578
 31
0.0
  0
LINE
  5
88
  8
SMALL_FEATURE
 10
99.8219985961914
 20
249.2375030517578
 30
0.0
 11
99.63150024414062
 21
253.04750061035156
 31
0.0
  0
LINE
  5
89
  8
SMALL_FEATURE
 10
99.63150024414062
 20
253.04750061035156
 30
0.0
 11
99.50450134277344
 21
249.2375030517578
 31
0.0
  0
LINE
  5
8A
  8
SMALL_FEATURE
 10
99.50450134277344
 20
249.2375030517578
 30
0.0
 11
96.77400207519531
 21
249.61849975585938
 31
0.0
  0
LINE
  5
8B
  8
SMALL_FEATURE
 10
96.77400207519531
 20
249.61849975585938
 30
0.0
 11
96.58350372314453
 21
249.2375030517578
 31
0.0
  0
LINE
  5
8C
  8
SMALL_FEATURE
 10
96.58350372314453
 20
249.2375030517578
 30
0.0
 11
93.72599792480469
 21
249.2375030517578
 31
0.0
  0
LINE
  5
8D
  8
SMALL_FEATURE
 10
93.72599792480469
 20
249.2375030517578
 30
0.0
 11
93.6624984741211
 21
258.1910095214844
 31
0.0
  0
LINE
  5
8E
  8
SMALL_FEATURE
 10
136.5885009765625
 20
157.0989990234375
 30
0.0
 11
136.65199279785156
 21
141.79550170898438
 31
0.0
  0
LINE
  5
8F
  8
SMALL_FEATURE
 10
136.65199279785156
 20
141.79550170898438
 30
0.0
 11
136.7790069580078
 21
145.47850036621094
 31
0.0
  0
LINE
  5
90
  8
SMALL_FEATURE
 10
136.7790069580078
 20
145.47850036621094
 30
0.0
 11
139.6999969482422
 21
145.22450256347656
 31
0.0
  0
LINE
  5
91
  8
SMALL_FEATURE
 10
139.6999969482422
 20
145.22450256347656
 30
0.0
 11
139.7635040283203
 21
145.60549926757812
 31
0.0
  0
LINE
  5
92
  8
SMALL_FEATURE
 10
139.7635040283203
 20
145.60549926757812
 30
0.0
 11
151.82850646972656
 21
145.60549926757812
 31
0.0
  0
LINE
  5
93
  8
SMALL_FEATURE
 10
151.82850646972656
 20
145.60549926757812
 30
0.0
 11
151.89199829101562
 21
145.22450256347656
 31
0.0
  0
LINE
  5
94
  8
SMALL_FEATURE
 10
151.89199829101562
 20
145.22450256347656
 30
0.0
 11
154.74949645996094
 21
145.54200744628906
 31
0.0
  0
LINE
  5
95
  8
SMALL_FEATURE
 10
154.74949645996094
 20
145.54200744628906
 30
0.0
 11
154.94000244140625
 21
141.79550170898438
 31
0.0
  0
LINE
  5
96
  8
SMALL_FEATURE
 10
154.94000244140625
 20
141.79550170898438
 30
0.0
 11
154.94000244140625
 21
157.16250610351562
 31
0.0
  0
LINE
  5
97
  8
SMALL_FEATURE
 10
154.94000244140625
 20
157.16250610351562
 30
0.0
 11
154.74949645996094
 21
153.54299926757812
 31
0.0
  0
LINE
  5
98
  8
SMALL_FEATURE
 10
154.74949645996094
 20
153.54299926757812
 30
0.0
 11
151.89199829101562
 21
153.54299926757812
 31
0.0
  0
LINE
  5
99
  8
SMALL_FEATURE
 10
151.89199829101562
 20
153.54299926757812
 30
0.0
 11
151.82850646972656
 21
153.9239959716797
 31
0.0
  0
LINE
  5
9A
  8
SMALL_FEATURE
 10
151.82850646972656
 20
153.9239959716797
 30
0.0
 11
148.9709930419922
 21
153.60650634765625
 31
0.0
  0
LINE
  5
9B
  8
SMALL_FEATURE
 10
148.9709930419922
 20
153.60650634765625
 30
0.0
 11
148.843994140625
 21
159.38499450683594
 31
0.0
  0
LINE
  5
9C
  8
SMALL_FEATURE
 10
148.843994140625
 20
159.38499450683594
 30
0.0
 11
148.65350341796875
 21
153.54299926757812
 31
0.0
  0
LINE
  5
9D
  8
SMALL_FEATURE
 10
148.65350341796875
 20
153.54299926757812
 30
0.0
 11
142.93850708007812
 21
153.54299926757812
 31
0.0
  0
LINE
  5
9E
  8
SMALL_FEATURE
 10
142.93850708007812
 20
153.54299926757812
 30
0.0
 11
142.81149291992188
 21
159.38499450683594
 31
0.0
  0
LINE
  5
9F
  8
SMALL_FEATURE
 10
142.81149291992188
 20
159.38499450683594
 30
0.0
 11
142.62100219726562
 21
153.60650634765625
 31
0.0
  0
LINE
  5
A0
  8
SMALL_FEATURE
 10
142.62100219726562
 20
153.60650634765625
 30
0.0
 11
139.7635040283203
 21
153.9239959716797
 31
0.0
  0
LINE
  5
A1
  8
SMALL_FEATURE
 10
139.7635040283203
 20
153.9239959716797
 30
0.0
 11
139.6999969482422
 21
153.54299926757812
 31
0.0
  0
LINE
  5
A2
  8
SMALL_FEATURE
 10
139.6999969482422
 20
153.54299926757812
 30
0.0
 11
136.84249877929688
 21
153.54299926757812
 31
0.0
  0
LINE
  5
A3
  8
SMALL_FEATURE
 10
136.84249877929688
 20
153.54299926757812
 30
0.0
 11
136.5885009765625
 21
157.0989990234375
 31
0.0
  0
LINE
  5
A4
  8
SMALL_FEATURE
 10
149.79649353027344
 20
205.29550170898438
 30
0.0
 11
152.71749877929688
 21
205.35899353027344
 31
0.0
  0
LINE
  5
A5
  8
SMALL_FEATURE
 10
152.71749877929688
 20
205.35899353027344
 30
0.0
 11
152.9080047607422
 21
204.97799682617188
 31
0.0
  0
LINE
  5
A6
  8
SMALL_FEATURE
 10
152.9080047607422
 20
204.97799682617188
 30
0.0
 11
155.5749969482422
 21
205.35899353027344
 31
0.0
  0
LINE
  5
A7
  8
SMALL_FEATURE
 10
155.5749969482422
 20
205.35899353027344
 30
0.0
 11
155.7655029296875
 21
201.67599487304688
 31
0.0
  0
LINE
  5
A8
  8
SMALL_FEATURE
 10
155.7655029296875
 20
201.67599487304688
 30
0.0
 11
155.8925018310547
 21
205.35899353027344
 31
0.0
  0
LINE
  5
A9
  8
SMALL_FEATURE
 10
155.8925018310547
 20
205.35899353027344
 30
0.0
 11
161.67100524902344
 21
205.35899353027344
 31
0.0
  0
LINE
  5
AA
  8
SMALL_FEATURE
 10
161.67100524902344
 20
205.35899353027344
 30
0.0
 11
161.8614959716797
 21
201.67599487304688
 31
0.0
  0
LINE
  5
AB
  8
SMALL_FEATURE
 10
161.8614959716797
 20
201.67599487304688
 30
0.0
 11
161.98849487304688
 21
205.35899353027344
 31
0.0
  0
LINE
  5
AC
  8
SMALL_FEATURE
 10
161.98849487304688
 20
205.35899353027344
 30
0.0
 11
164.718994140625
 21
204.97799682617188
 31
0.0
  0
LINE
  5
AD
  8
SMALL_FEATURE
 10
164.718994140625
 20
204.97799682617188
 30
0.0
 11
164.9095001220703
 21
205.35899353027344
 31
0.0
  0
LINE
  5
AE
  8
SMALL_FEATURE
 10
164.9095001220703
 20
205.35899353027344
 30
0.0
 11
167.76699829101562
 21
205.35899353027344
 31
0.0
  0
LINE
  5
AF
  8
SMALL_FEATURE
 10
167.76699829101562
 20
205.35899353027344
 30
0.0
 11
167.83050537109375
 21
197.35800170898438
 31
0.0
  0
LINE
  5
B0
  8
SMALL_FEATURE
 10
167.83050537109375
 20
197.35800170898438
 30
0.0
 11
164.9095001220703
 21
197.61199951171875
 31
0.0
  0
LINE
  5
B1
  8
SMALL_FEATURE
 10
164.9095001220703
 20
197.61199951171875
 30
0.0
 11
164.8459930419922
 21
197.2310028076172
 31
0.0
  0
LINE
  5
B2
  8
SMALL_FEATURE
 10
164.8459930419922
 20
197.2310028076172
 30
0.0
 11
152.781005859375
 21
197.2310028076172
 31
0.0
  0
LINE
  5
B3
  8
SMALL_FEATURE
 10
152.781005859375
 20
197.2310028076172
 30
0.0
 11
152.52699279785156
 21
197.61199951171875
 31
0.0
  0
LINE
  5
B4
  8
SMALL_FEATURE
 10
152.52699279785156
 20
197.61199951171875
 30
0.0
 11
149.86000061035156
 21
197.29449462890625
 31
0.0
  0
LINE
  5
B5
  8
SMALL_FEATURE
 10
149.86000061035156
 20
197.29449462890625
 30
0.0
 11
149.79649353027344
 21
205.29550170898438
 31
0.0
  0
LINE
  5
B6
  8
SMALL_FEATURE
 10
136.7790069580078
 20
153.28900146484375
 30
0.0
 11
139.6999969482422
 21
153.3524932861328
 31
0.0
  0
LINE
  5
B7
  8
SMALL_FEATURE
 10
139.6999969482422
 20
153.3524932861328
 30
0.0
 11
140.0175018310547
 21
153.09849548339844
 31
0.0
  0
LINE
  5
B8
  8
SMALL_FEATURE
 10
140.0175018310547
 20
153.09849548339844
 30
0.0
 11
142.62100219726562
 21
153.3524932861328
 31
0.0
  0
LINE
  5
B9
  8
SMALL_FEATURE
 10
142.62100219726562
 20
153.3524932861328
 30
0.0
 11
142.81149291992188
 21
149.66949462890625
 31
0.0
  0
LINE
  5
BA
  8
SMALL_FEATURE
 10
142.81149291992188
 20
149.66949462890625
 30
0.0
 11
142.93850708007812
 21
153.3524932861328
 31
0.0
  0
LINE
  5
BB
  8
SMALL_FEATURE
 10
142.93850708007812
 20
153.3524932861328
 30
0.0
 11
148.65350341796875
 21
153.3524932861328
 31
0.0
  0
LINE
  5
BC
  8
SMALL_FEATURE
 10
148.65350341796875
 20
153.3524932861328
 30
0.0
 11
148.843994140625
 21
149.66949462890625
 31
0.0
  0
LINE
  5
BD
  8
SMALL_FEATURE
 10
148.843994140625
 20
149.66949462890625
 30
0.0
 11
148.9709930419922
 21
153.3524932861328
 31
0.0
  0
LINE
  5
BE
  8
SMALL_FEATURE
 10
148.9709930419922
 20
153.3524932861328
 30
0.0
 11
151.57449340820312
 21
153.09849548339844
 31
0.0
  0
LINE
  5
BF
  8
SMALL_FEATURE
 10
151.57449340820312
 20
153.09849548339844
 30
0.0
 11
151.89199829101562
 21
153.3524932861328
 31
0.0
  0
LINE
  5
C0
  8
SMALL_FEATURE
 10
151.89199829101562
 20
153.3524932861328
 30
0.0
 11
154.74949645996094
 21
153.3524932861328
 31
0.0
  0
LINE
  5
C1
  8
SMALL_FEATURE
 10
154.74949645996094
 20
153.3524932861328
 30
0.0
 11
154.81300354003906
 21
145.8594970703125
 31
0.0
  0
LINE
  5
C2
  8
SMALL_FEATURE
 10
154.81300354003906
 20
145.8594970703125
 30
0.0
 11
151.89199829101562
 21
146.11349487304688
 31
0.0
  0
LINE
  5
C3
  8
SMALL_FEATURE
 10
151.89199829101562
 20
146.11349487304688
 30
0.0
 11
151.82850646972656
 21
145.79600524902344
 31
0.0
  0
LINE
  5
C4
  8
SMALL_FEATURE
 10
151.82850646972656
 20
145.79600524902344
 30
0.0
 11
139.7635040283203
 21
145.79600524902344
 31
0.0
  0
LINE
  5
C5
  8
SMALL_FEATURE
 10
139.7635040283203
 20
145.79600524902344
 30
0.0
 11
139.6999969482422
 21
146.177001953125
 31
0.0
  0
LINE
  5
C6
  8
SMALL_FEATURE
 10
139.6999969482422
 20
146.177001953125
 30
0.0
 11
136.84249877929688
 21
145.79600524902344
 31
0.0
  0
LINE
  5
C7
  8
SMALL_FEATURE
 10
136.84249877929688
 20
145.79600524902344
 30
0.0
 11
136.7790069580078
 21
153.28900146484375
 31
0.0
  0
LINE
  5
C8
  8
SMALL_FEATURE
 10
151.82850646972656
 20
233.8070068359375
 30
0.0
 11
154.68600463867188
 21
233.489501953125
 31
0.0
  0
LINE
  5
C9
  8
SMALL_FEATURE
 10
154.68600463867188
 20
233.489501953125
 30
0.0
 11
154.74949645996094
 21
233.87049865722656
 31
0.0
  0
LINE
  5
CA
  8
SMALL_FEATURE
 10
154.74949645996094
 20
233.87049865722656
 30
0.0
 11
163.00450134277344
 21
233.87049865722656
 31
0.0
  0
LINE
  5
CB
  8
SMALL_FEATURE
 10
163.00450134277344
 20
233.87049865722656
 30
0.0
 11
163.0679931640625
 21
233.55299377441406
 31
0.0
  0
LINE
  5
CC
  8
SMALL_FEATURE
 10
163.0679931640625
 20
233.55299377441406
 30
0.0
 11
165.67149353027344
 21
233.8070068359375
 31
0.0
  0
LINE
  5
CD
  8
SMALL_FEATURE
 10
165.67149353027344
 20
233.8070068359375
 30
0.0
 11
165.79849243164062
 21
226.12350463867188
 31
0.0
  0
LINE
  5
CE
  8
SMALL_FEATURE
 10
165.79849243164062
 20
226.12350463867188
 30
0.0
 11
164.9095001220703
 21
226.05999755859375
 31
0.0
  0
LINE
  5
CF
  8
SMALL_FEATURE
 10
164.9095001220703
 20
226.05999755859375
 30
0.0
 11
164.8459930419922
 21
226.37750244140625
 31
0.0
  0
LINE
  5
D0
  8
SMALL_FEATURE
 10
164.8459930419922
 20
226.37750244140625
 30
0.0
 11
161.98849487304688
 21
226.05999755859375
 31
0.0
  0
LINE
  5
D1
  8
SMALL_FEATURE
 10
161.98849487304688
 20
226.05999755859375
 30
0.0
 11
161.79800415039062
 21
229.80650329589844
 31
0.0
  0
LINE
  5
D2
  8
SMALL_FEATURE
 10
161.79800415039062
 20
229.80650329589844
 30
0.0
 11
161.67100524902344
 21
226.05999755859375
 31
0.0
  0
LINE
  5
D3
  8
SMALL_FEATURE
 10
161.67100524902344
 20
226.05999755859375
 30
0.0
 11
155.8925018310547
 21
226.05999755859375
 31
0.0
  0
LINE
  5
D4
  8
SMALL_FEATURE
 10
155.8925018310547
 20
226.05999755859375
 30
0.0
 11
155.70199584960938
 21
229.80650329589844
 31
0.0
  0
LINE
  5
D5
  8
SMALL_FEATURE
 10
155.70199584960938
 20
229.80650329589844
 30
0.0
 11
155.5749969482422
 21
226.05999755859375
 31
0.0
  0
LINE
  5
D6
  8
SMALL_FEATURE
 10
155.5749969482422
 20
226.05999755859375
 30
0.0
 11
152.781005859375
 21
226.37750244140625
 31
0.0
  0
LINE
  5
D7
  8
SMALL_FEATURE
 10
152.781005859375
 20
226.37750244140625
 30
0.0
 11
152.71749877929688
 21
226.05999755859375
 31
0.0
  0
LINE
  5
D8
  8
SMALL_FEATURE
 10
152.71749877929688
 20
226.05999755859375
 30
0.0
 11
151.82850646972656
 21
226.05999755859375
 31
0.0
  0
LINE
  5
D9
  8
SMALL_FEATURE
 10
151.82850646972656
 20
226.05999755859375
 30
0.0
 11
151.82850646972656
 21
233.8070068359375
 31
0.0
  0
LINE
  5
DA
  8
SMALL_FEATURE
 10
151.89199829101562
 20
241.04600524902344
 30
0.0
 11
154.87649536132812
 21
241.8715057373047
 31
0.0
  0
LINE
  5
DB
  8
SMALL_FEATURE
 10
154.87649536132812
 20
241.8715057373047
 30
0.0
 11
156.08299255371094
 21
241.68099975585938
 31
0.0
  0
LINE
  5
DC
  8
SMALL_FEATURE
 10
156.08299255371094
 20
241.68099975585938
 30
0.0
 11
158.36900329589844
 21
242.3159942626953
 31
0.0
  0
LINE
  5
DD
  8
SMALL_FEATURE
 10
158.36900329589844
 20
242.3159942626953
 30
0.0
 11
161.6074981689453
 21
241.68099975585938
 31
0.0
  0
LINE
  5
DE
  8
SMALL_FEATURE
 10
161.6074981689453
 20
241.68099975585938
 30
0.0
 11
162.68699645996094
 21
241.8715057373047
 31
0.0
  0
LINE
  5
DF
  8
SMALL_FEATURE
 10
162.68699645996094
 20
241.8715057373047
 30
0.0
 11
165.60800170898438
 21
241.17300415039062
 31
0.0
  0
LINE
  5
E0
  8
SMALL_FEATURE
 10
165.60800170898438
 20
241.17300415039062
 30
0.0
 11
165.73500061035156
 21
234.18800354003906
 31
0.0
  0
LINE
  5
E1
  8
SMALL_FEATURE
 10
165.73500061035156
 20
234.18800354003906
 30
0.0
 11
163.0679931640625
 21
234.44200134277344
 31
0.0
  0
LINE
  5
E2
  8
SMALL_FEATURE
 10
163.0679931640625
 20
234.44200134277344
 30
0.0
 11
163.00450134277344
 21
234.06100463867188
 31
0.0
  0
LINE
  5
E3
  8
SMALL_FEATURE
 10
163.00450134277344
 20
234.06100463867188
 30
0.0
 11
154.74949645996094
 21
234.06100463867188
 31
0.0
  0
LINE
  5
E4
  8
SMALL_FEATURE
 10
154.74949645996094
 20
234.06100463867188
 30
0.0
 11
154.49549865722656
 21
234.44200134277344
 31
0.0
  0
LINE
  5
E5
  8
SMALL_FEATURE
 10
154.49549865722656
 20
234.44200134277344
 30
0.0
 11
151.89199829101562
 21
234.12449645996094
 31
0.0
  0
LINE
  5
E6
  8
SMALL_FEATURE
 10
151.89199829101562
 20
234.12449645996094
 30
0.0
 11
151.89199829101562
 21
241.04600524902344
 31
0.0
  0
LINE
  5
E7
  8
SMALL_FEATURE
 10
185.29299926757812
 20
24.256999969482422
 30
0.0
 11
198.7550048828125
 21
24.320499420166016
 31
0.0
  0
LINE
  5
E8
  8
SMALL_FEATURE
 10
198.7550048828125
 20
24.320499420166016
 30
0.0
 11
198.81849670410156
 21
17.8435001373291
 31
0.0
  0
LINE
  5
E9
  8
SMALL_FEATURE
 10
198.81849670410156
 20
17.8435001373291
 30
0.0
 11
185.35650634765625
 21
17.780000686645508
 31
0.0
  0
LINE
  5
EA
  8
SMALL_FEATURE
 10
185.35650634765625
 20
17.780000686645508
 30
0.0
 11
185.29299926757812
 21
24.256999969482422
 31
0.0
  0
LINE
  5
EB
  8
SMALL_FEATURE
 10
185.29299926757812
 20
17.525999069213867
 30
0.0
 11
198.7550048828125
 21
17.589500427246094
 31
0.0
  0
LINE
  5
EC
  8
SMALL_FEATURE
 10
198.7550048828125
 20
17.589500427246094
 30
0.0
 11
198.81849670410156
 21
13.58899974822998
 31
0.0
  0
LINE
  5
ED
  8
SMALL_FEATURE
 10
198.81849670410156
 20
13.58899974822998
 30
0.0
 11
185.35650634765625
 21
13.525500297546387
 31
0.0
  0
LINE
  5
EE
  8
SMALL_FEATURE
 10
185.35650634765625
 20
13.525500297546387
 30
0.0
 11
185.29299926757812
 21
17.525999069213867
 31
0.0
  0
LINE
  5
EF
  8
SMALL_FEATURE
 10
185.29299926757812
 20
13.271499633789062
 30
0.0
 11
198.7550048828125
 21
13.335000038146973
 31
0.0
  0
LINE
  5
F0
  8
SMALL_FEATURE
 10
198.7550048828125
 20
13.335000038146973
 30
0.0
 11
198.81849670410156
 21
9.46150016784668
 31
0.0
  0
LINE
  5
F1
  8
SMALL_FEATURE
 10
198.81849670410156
 20
9.46150016784668
 30
0.0
 11
185.35650634765625
 21
9.39799976348877
 31
0.0
  0
LINE
  5
F2
  8
SMALL_FEATURE
 10
185.35650634765625
 20
9.39799976348877
 30
0.0
 11
185.29299926757812
 21
13.271499633789062
 31
0.0
  0
LINE
  5
F3
  8
SMALL_FEATURE
 10
98.93299865722656
 20
41.46549987792969
 30
0.0
 11
98.99649810791016
 21
40.06850051879883
 31
0.0
  0
LINE
  5
F4
  8
SMALL_FEATURE
 10
98.99649810791016
 20
40.06850051879883
 30
0.0
 11
114.3635025024414
 21
40.195499420166016
 31
0.0
  0
LINE
  5
F5
  8
SMALL_FEATURE
 10
114.3635025024414
 20
40.195499420166016
 30
0.0
 11
114.1729965209961
 21
42.0369987487793
 31
0.0
  0
LINE
  5
F6
  8
SMALL_FEATURE
 10
114.1729965209961
 20
42.0369987487793
 30
0.0
 11
113.72850036621094
 21
42.73550033569336
 31
0.0
  0
LINE
  5
F7
  8
SMALL_FEATURE
 10
113.72850036621094
 20
42.73550033569336
 30
0.0
 11
112.52200317382812
 21
43.30699920654297
 31
0.0
  0
LINE
  5
F8
  8
SMALL_FEATURE
 10
112.52200317382812
 20
43.30699920654297
 30
0.0
 11
100.77449798583984
 21
43.30699920654297
 31
0.0
  0
LINE
  5
F9
  8
SMALL_FEATURE
 10
100.77449798583984
 20
43.30699920654297
 30
0.0
 11
99.63150024414062
 21
42.79899978637695
 31
0.0
  0
LINE
  5
FA
  8
SMALL_FEATURE
 10
99.63150024414062
 20
42.79899978637695
 30
0.0
 11
98.93299865722656
 21
41.46549987792969
 31
0.0
  0
LINE
  5
FB
  8
SMALL_FEATURE
 10
138.87449645996094
 20
70.73899841308594
 30
0.0
 11
138.93800354003906
 21
69.46900177001953
 31
0.0
  0
LINE
  5
FC
  8
SMALL_FEATURE
 10
138.93800354003906
 20
69.46900177001953
 30
0.0
 11
154.2415008544922
 21
69.59600067138672
 31
0.0
  0
LINE
  5
FD
  8
SMALL_FEATURE
 10
154.2415008544922
 20
69.59600067138672
 30
0.0
 11
154.2415008544922
 21
70.67549896240234
 31
0.0
  0
LINE
  5
FE
  8
SMALL_FEATURE
 10
154.2415008544922
 20
70.67549896240234
 30
0.0
 11
153.7969970703125
 21
71.81849670410156
 31
0.0
  0
LINE
  5
FF
  8
SMALL_FEATURE
 10
153.7969970703125
 20
71.81849670410156
 30
0.0
 11
153.03500366210938
 21
72.51699829101562
 31
0.0
  0
LINE
  5
100
  8
SMALL_FEATURE
 10
153.03500366210938
 20
72.51699829101562
 30
0.0
 11
152.2729949951172
 21
72.7074966430664
 31
0.0
  0
LINE
  5
101
  8
SMALL_FEATURE
 10
152.2729949951172
 20
72.7074966430664
 30
0.0
 11
140.7794952392578
 21
72.7074966430664
 31
0.0
  0
LINE
  5
102
  8
SMALL_FEATURE
 10
140.7794952392578
 20
72.7074966430664
 30
0.0
 11
139.50950622558594
 21
72.13600158691406
 31
0.0
  0
LINE
  5
103
  8
SMALL_FEATURE
 10
139.50950622558594
 20
72.13600158691406
 30
0.0
 11
138.87449645996094
 21
70.73899841308594
 31
0.0
  0
LINE
  5
104
  8
SMALL_FEATURE
 10
155.8925018310547
 20
219.0749969482422
 30
0.0
 11
161.67100524902344
 21
219.1385040283203
 31
0.0
  0
LINE
  5
105
  8
SMALL_FEATURE
 10
161.67100524902344
 20
219.1385040283203
 30
0.0
 11
161.7344970703125
 21
216.02699279785156
 31
0.0
  0
LINE
  5
106
  8
SMALL_FEATURE
 10
161.7344970703125
 20
216.02699279785156
 30
0.0
 11
155.8925018310547
 21
215.9635009765625
 31
0.0
  0
LINE
  5
107
  8
SMALL_FEATURE
 10
155.8925018310547
 20
215.9635009765625
 30
0.0
 11
155.8925018310547
 21
219.0749969482422
 31
0.0
  0
LINE
  5
108
  8
SMALL_FEATURE
 10
168.02099609375
 20
218.88450622558594
 30
0.0
 11
171.38650512695312
 21
218.5034942626953
 31
0.0
  0
LINE
  5
109
  8
SMALL_FEATURE
 10
171.38650512695312
 20
218.5034942626953
 30
0.0
 11
173.99000549316406
 21
217.614501953125
 31
0.0
  0
LINE
  5
10A
  8
SMALL_FEATURE
 10
173.99000549316406
 20
217.614501953125
 30
0.0
 11
175.51400756835938
 21
216.78900146484375
 31
0.0
  0
LINE
  5
10B
  8
SMALL_FEATURE
 10
175.51400756835938
 20
216.78900146484375
 30
0.0
 11
175.51400756835938
 21
216.02699279785156
 31
0.0
  0
LINE
  5
10C
  8
SMALL_FEATURE
 10
175.51400756835938
 20
216.02699279785156
 30
0.0
 11
168.08450317382812
 21
215.9635009765625
 31
0.0
  0
LINE
  5
10D
  8
SMALL_FEATURE
 10
168.08450317382812
 20
215.9635009765625
 30
0.0
 11
168.02099609375
 21
218.88450622558594
 31
0.0
  0
LINE
  5
10E
  8
SMALL_FEATURE
 10
158.75
 20
193.29400634765625
 30
0.0
 11
158.6230010986328
 21
192.40499877929688
 31
0.0
  0
LINE
  5
10F
  8
SMALL_FEATURE
 10
158.6230010986328
 20
192.40499877929688
 30
0.0
 11
153.60650634765625
 21
189.22999572753906
 31
0.0
  0
LINE
  5
110
  8
SMALL_FEATURE
 10
153.60650634765625
 20
189.22999572753906
 30
0.0
 11
152.71749877929688
 21
189.16650390625
 31
0.0
  0
LINE
  5
111
  8
SMALL_FEATURE
 10
152.71749877929688
 20
189.16650390625
 30
0.0
 11
152.08250427246094
 21
189.80149841308594
 31
0.0
  0
LINE
  5
112
  8
SMALL_FEATURE
 10
152.08250427246094
 20
189.80149841308594
 30
0.0
 11
152.08250427246094
 21
190.56350708007812
 31
0.0
  0
LINE
  5
113
  8
SMALL_FEATURE
 10
152.08250427246094
 20
190.56350708007812
 30
0.0
 11
154.114501953125
 21
192.1510009765625
 31
0.0
  0
LINE
  5
114
  8
SMALL_FEATURE
 10
154.114501953125
 20
192.1510009765625
 30
0.0
 11
157.0989990234375
 21
193.29400634765625
 31
0.0
  0
LINE
  5
115
  8
SMALL_FEATURE
 10
157.0989990234375
 20
193.29400634765625
 30
0.0
 11
158.75
 21
193.29400634765625
 31
0.0
  0
LINE
  5
116
  8
SMALL_FEATURE
 10
145.7324981689453
 20
126.74600219726562
 30
0.0
 11
145.09750366210938
 21
127.12699890136719
 31
0.0
  0
LINE
  5
117
  8
SMALL_FEATURE
 10
145.09750366210938
 20
127.12699890136719
 30
0.0
 11
140.58900451660156
 21
127.0634994506836
 31
0.0
  0
LINE
  5
118
  8
SMALL_FEATURE
 10
140.58900451660156
 20
127.0634994506836
 30
0.0
 11
140.52549743652344
 21
126.61900329589844
 31
0.0
  0
LINE
  5
119
  8
SMALL_FEATURE
 10
140.52549743652344
 20
126.61900329589844
 30
0.0
 11
139.7635040283203
 21
126.61900329589844
 31
0.0
  0
LINE
  5
11A
  8
SMALL_FEATURE
 10
139.7635040283203
 20
126.61900329589844
 30
0.0
 11
139.31900024414062
 21
127.0634994506836
 31
0.0
  0
LINE
  5
11B
  8
SMALL_FEATURE
 10
139.31900024414062
 20
127.0634994506836
 30
0.0
 11
138.62049865722656
 21
125.22200012207031
 31
0.0
  0
LINE
  5
11C
  8
SMALL_FEATURE
 10
138.62049865722656
 20
125.22200012207031
 30
0.0
 11
139.06500244140625
 21
125.7300033569336
 31
0.0
  0
LINE
  5
11D
  8
SMALL_FEATURE
 10
139.06500244140625
 20
125.7300033569336
 30
0.0
 11
139.82699584960938
 21
125.7300033569336
 31
0.0
  0
LINE
  5
11E
  8
SMALL_FEATURE
 10
139.82699584960938
 20
125.7300033569336
 30
0.0
 11
140.0175018310547
 21
125.22200012207031
 31
0.0
  0
LINE
  5
11F
  8
SMALL_FEATURE
 10
140.0175018310547
 20
125.22200012207031
 30
0.0
 11
140.7794952392578
 21
125.22200012207031
 31
0.0
  0
LINE
  5
120
  8
SMALL_FEATURE
 10
140.7794952392578
 20
125.22200012207031
 30
0.0
 11
140.7794952392578
 21
125.98400115966797
 31
0.0
  0
LINE
  5
121
  8
SMALL_FEATURE
 10
140.7794952392578
 20
125.98400115966797
 30
0.0
 11
141.60499572753906
 21
126.04750061035156
 31
0.0
  0
LINE
  5
122
  8
SMALL_FEATURE
 10
141.60499572753906
 20
126.04750061035156
 30
0.0
 11
141.85899353027344
 21
125.22200012207031
 31
0.0
  0
LINE
  5
123
  8
SMALL_FEATURE
 10
141.85899353027344
 20
125.22200012207031
 30
0.0
 11
145.28799438476562
 21
125.15850067138672
 31
0.0
  0
LINE
  5
124
  8
SMALL_FEATURE
 10
145.28799438476562
 20
125.15850067138672
 30
0.0
 11
145.79600524902344
 21
125.53949737548828
 31
0.0
  0
LINE
  5
125
  8
SMALL_FEATURE
 10
145.79600524902344
 20
125.53949737548828
 30
0.0
 11
145.7324981689453
 21
126.74600219726562
 31
0.0
  0
LINE
  5
126
  8
SMALL_FEATURE
 10
166.3699951171875
 20
27.30500030517578
 30
0.0
 11
166.11599731445312
 21
28.765499114990234
 31
0.0
  0
LINE
  5
127
  8
SMALL_FEATURE
 10
166.11599731445312
 20
28.765499114990234
 30
0.0
 11
161.16299438476562
 21
28.765499114990234
 31
0.0
  0
LINE
  5
128
  8
SMALL_FEATURE
 10
161.16299438476562
 20
28.765499114990234
 30
0.0
 11
161.09950256347656
 21
27.622499465942383
 31
0.0
  0
LINE
  5
129
  8
SMALL_FEATURE
 10
161.09950256347656
 20
27.622499465942383
 30
0.0
 11
160.2740020751953
 21
27.68600082397461
 31
0.0
  0
LINE
  5
12A
  8
SMALL_FEATURE
 10
160.2740020751953
 20
27.68600082397461
 30
0.0
 11
160.2740020751953
 21
28.765499114990234
 31
0.0
  0
LINE
  5
12B
  8
SMALL_FEATURE
 10
160.2740020751953
 20
28.765499114990234
 30
0.0
 11
158.9405059814453
 21
28.765499114990234
 31
0.0
  0
LINE
  5
12C
  8
SMALL_FEATURE
 10
158.9405059814453
 20
28.765499114990234
 30
0.0
 11
158.49600219726562
 21
28.25749969482422
 31
0.0
  0
LINE
  5
12D
  8
SMALL_FEATURE
 10
158.49600219726562
 20
28.25749969482422
 30
0.0
 11
158.5594940185547
 21
27.55900001525879
 31
0.0
  0
LINE
  5
12E
  8
SMALL_FEATURE
 10
158.5594940185547
 20
27.55900001525879
 30
0.0
 11
158.9405059814453
 21
27.241500854492188
 31
0.0
  0
LINE
  5
12F
  8
SMALL_FEATURE
 10
158.9405059814453
 20
27.241500854492188
 30
0.0
 11
166.3699951171875
 21
27.30500030517578
 31
0.0
  0
LINE
  5
130
  8
SMALL_FEATURE
 10
149.3520050048828
 20
18.605499267578125
 30
0.0
 11
149.3520050048828
 21
16.954500198364258
 31
0.0
  0
LINE
  5
131
  8
SMALL_FEATURE
 10
149.3520050048828
 20
16.954500198364258
 30
0.0
 11
149.6060028076172
 21
17.71649932861328
 31
0.0
  0
LINE
  5
132
  8
SMALL_FEATURE
 10
149.6060028076172
 20
17.71649932861328
 30
0.0
 11
150.9394989013672
 21
17.71649932861328
 31
0.0
  0
LINE
  5
133
  8
SMALL_FEATURE
 10
150.9394989013672
 20
17.71649932861328
 30
0.0
 11
151.0030059814453
 21
16.954500198364258
 31
0.0
  0
LINE
  5
134
  8
SMALL_FEATURE
 10
151.0030059814453
 20
16.954500198364258
 30
0.0
 11
154.74949645996094
 21
16.954500198364258
 31
0.0
  0
LINE
  5
135
  8
SMALL_FEATURE
 10
154.74949645996094
 20
16.954500198364258
 30
0.0
 11
154.94000244140625
 21
17.335500717163086
 31
0.0
  0
LINE
  5
136
  8
SMALL_FEATURE
 10
154.94000244140625
 20
17.335500717163086
 30
0.0
 11
155.70199584960938
 21
17.335500717163086
 31
0.0
  0
LINE
  5
137
  8
SMALL_FEATURE
 10
155.70199584960938
 20
17.335500717163086
 30
0.0
 11
156.01950073242188
 21
16.954500198364258
 31
0.0
  0
LINE
  5
138
  8
SMALL_FEATURE
 10
156.01950073242188
 20
16.954500198364258
 30
0.0
 11
155.447998046875
 21
18.605499267578125
 31
0.0
  0
LINE
  5
139
  8
SMALL_FEATURE
 10
155.447998046875
 20
18.605499267578125
 30
0.0
 11
149.3520050048828
 21
18.605499267578125
 31
0.0
  0
LINE
  5
13A
  8
SMALL_FEATURE
 10
147.32000732421875
 20
21.526500701904297
 30
0.0
 11
146.74850463867188
 21
21.97100067138672
 31
0.0
  0
LINE
  5
13B
  8
SMALL_FEATURE
 10
146.74850463867188
 20
21.97100067138672
 30
0.0
 11
142.6844940185547
 21
21.907499313354492
 31
0.0
  0
LINE
  5
13C
  8
SMALL_FEATURE
 10
142.6844940185547
 20
21.907499313354492
 30
0.0
 11
142.62100219726562
 21
21.59000015258789
 31
0.0
  0
LINE
  5
13D
  8
SMALL_FEATURE
 10
142.62100219726562
 20
21.59000015258789
 30
0.0
 11
141.85899353027344
 21
21.59000015258789
 31
0.0
  0
LINE
  5
13E
  8
SMALL_FEATURE
 10
141.85899353027344
 20
21.59000015258789
 30
0.0
 11
141.47799682617188
 21
21.907499313354492
 31
0.0
  0
LINE
  5
13F
  8
SMALL_FEATURE
 10
141.47799682617188
 20
21.907499313354492
 30
0.0
 11
140.906494140625
 21
20.256500244140625
 31
0.0
  0
LINE
  5
140
  8
SMALL_FEATURE
 10
140.906494140625
 20
20.256500244140625
 30
0.0
 11
141.2239990234375
 21
20.637500762939453
 31
0.0
  0
LINE
  5
141
  8
SMALL_FEATURE
 10
141.2239990234375
 20
20.637500762939453
 30
0.0
 11
142.81149291992188
 21
20.256500244140625
 31
0.0
  0
LINE
  5
142
  8
SMALL_FEATURE
 10
142.81149291992188
 20
20.256500244140625
 30
0.0
 11
142.875
 21
20.954999923706055
 31
0.0
  0
LINE
  5
143
  8
SMALL_FEATURE
 10
142.875
 20
20.954999923706055
 30
0.0
 11
143.63699340820312
 21
20.954999923706055
 31
0.0
  0
LINE
  5
144
  8
SMALL_FEATURE
 10
143.63699340820312
 20
20.954999923706055
 30
0.0
 11
143.82749938964844
 21
20.256500244140625
 31
0.0
  0
LINE
  5
145
  8
SMALL_FEATURE
 10
143.82749938964844
 20
20.256500244140625
 30
0.0
 11
146.87550354003906
 21
20.19300079345703
 31
0.0
  0
LINE
  5
146
  8
SMALL_FEATURE
 10
146.87550354003906
 20
20.19300079345703
 30
0.0
 11
147.3834991455078
 21
20.637500762939453
 31
0.0
  0
LINE
  5
147
  8
SMALL_FEATURE
 10
147.3834991455078
 20
20.637500762939453
 30
0.0
 11
147.32000732421875
 21
21.526500701904297
 31
0.0
  0
LINE
  5
148
  8
SMALL_FEATURE
 10
98.93299865722656
 20
35.6870002746582
 30
0.0
 11
98.93299865722656
 21
26.987499237060547
 31
0.0
  0
LINE
  5
149
  8
SMALL_FEATURE
 10
98.93299865722656
 20
26.987499237060547
 30
0.0
 11
99.12349700927734
 21
30.670499801635742
 31
0.0
  0
LINE
  5
14A
  8
SMALL_FEATURE
 10
99.12349700927734
 20
30.670499801635742
 30
0.0
 11
102.04450225830078
 21
30.416500091552734
 31
0.0
  0
LINE
  5
14B
  8
SMALL_FEATURE
 10
102.04450225830078
 20
30.416500091552734
 30
0.0
 11
102.10800170898438
 21
30.797500610351562
 31
0.0
  0
LINE
  5
14C
  8
SMALL_FEATURE
 10
102.10800170898438
 20
30.797500610351562
 30
0.0
 11
111.1884994506836
 21
30.797500610351562
 31
0.0
  0
LINE
  5
14D
  8
SMALL_FEATURE
 10
111.1884994506836
 20
30.797500610351562
 30
0.0
 11
111.25199890136719
 21
30.416500091552734
 31
0.0
  0
LINE
  5
14E
  8
SMALL_FEATURE
 10
111.25199890136719
 20
30.416500091552734
 30
0.0
 11
114.1094970703125
 21
30.733999252319336
 31
0.0
  0
LINE
  5
14F
  8
SMALL_FEATURE
 10
114.1094970703125
 20
30.733999252319336
 30
0.0
 11
114.30000305175781
 21
26.987499237060547
 31
0.0
  0
LINE
  5
150
  8
SMALL_FEATURE
 10
114.30000305175781
 20
26.987499237060547
 30
0.0
 11
114.30000305175781
 21
35.6870002746582
 31
0.0
  0
LINE
  5
151
  8
SMALL_FEATURE
 10
114.30000305175781
 20
35.6870002746582
 30
0.0
 11
114.1094970703125
 21
30.988000869750977
 31
0.0
  0
LINE
  5
152
  8
SMALL_FEATURE
 10
114.1094970703125
 20
30.988000869750977
 30
0.0
 11
111.50599670410156
 21
31.242000579833984
 31
0.0
  0
LINE
  5
153
  8
SMALL_FEATURE
 10
111.50599670410156
 20
31.242000579833984
 30
0.0
 11
111.1884994506836
 21
30.988000869750977
 31
0.0
  0
LINE
  5
154
  8
SMALL_FEATURE
 10
111.1884994506836
 20
30.988000869750977
 30
0.0
 11
102.10800170898438
 21
30.988000869750977
 31
0.0
  0
LINE
  5
155
  8
SMALL_FEATURE
 10
102.10800170898438
 20
30.988000869750977
 30
0.0
 11
102.04450225830078
 21
31.242000579833984
 31
0.0
  0
LINE
  5
156
  8
SMALL_FEATURE
 10
102.04450225830078
 20
31.242000579833984
 30
0.0
 11
99.18699645996094
 21
30.988000869750977
 31
0.0
  0
LINE
  5
157
  8
SMALL_FEATURE
 10
99.18699645996094
 20
30.988000869750977
 30
0.0
 11
98.93299865722656
 21
35.6870002746582
 31
0.0
  0
LINE
  5
158
  8
SMALL_FEATURE
 10
64.45249938964844
 20
24.447500228881836
 30
0.0
 11
64.51599884033203
 21
16.382999420166016
 31
0.0
  0
LINE
  5
159
  8
SMALL_FEATURE
 10
64.51599884033203
 20
16.382999420166016
 30
0.0
 11
64.70649719238281
 21
20.19300079345703
 31
0.0
  0
LINE
  5
15A
  8
SMALL_FEATURE
 10
64.70649719238281
 20
20.19300079345703
 30
0.0
 11
67.43699645996094
 21
19.812000274658203
 31
0.0
  0
LINE
  5
15B
  8
SMALL_FEATURE
 10
67.43699645996094
 20
19.812000274658203
 30
0.0
 11
67.62750244140625
 21
20.19300079345703
 31
0.0
  0
LINE
  5
15C
  8
SMALL_FEATURE
 10
67.62750244140625
 20
20.19300079345703
 30
0.0
 11
76.70800018310547
 21
20.19300079345703
 31
0.0
  0
LINE
  5
15D
  8
SMALL_FEATURE
 10
76.70800018310547
 20
20.19300079345703
 30
0.0
 11
76.77149963378906
 21
19.812000274658203
 31
0.0
  0
LINE
  5
15E
  8
SMALL_FEATURE
 10
76.77149963378906
 20
19.812000274658203
 30
0.0
 11
79.56549835205078
 21
20.19300079345703
 31
0.0
  0
LINE
  5
15F
  8
SMALL_FEATURE
 10
79.56549835205078
 20
20.19300079345703
 30
0.0
 11
79.75599670410156
 21
16.382999420166016
 31
0.0
  0
LINE
  5
160
  8
SMALL_FEATURE
 10
79.75599670410156
 20
16.382999420166016
 30
0.0
 11
79.75599670410156
 21
24.51099967956543
 31
0.0
  0
LINE
  5
161
  8
SMALL_FEATURE
 10
79.75599670410156
 20
24.51099967956543
 30
0.0
 11
79.56549835205078
 21
20.383499145507812
 31
0.0
  0
LINE
  5
162
  8
SMALL_FEATURE
 10
79.56549835205078
 20
20.383499145507812
 30
0.0
 11
76.83499908447266
 21
20.76449966430664
 31
0.0
  0
LINE
  5
163
  8
SMALL_FEATURE
 10
76.83499908447266
 20
20.76449966430664
 30
0.0
 11
76.70800018310547
 21
20.383499145507812
 31
0.0
  0
LINE
  5
164
  8
SMALL_FEATURE
 10
76.70800018310547
 20
20.383499145507812
 30
0.0
 11
67.62750244140625
 21
20.383499145507812
 31
0.0
  0
LINE
  5
165
  8
SMALL_FEATURE
 10
67.62750244140625
 20
20.383499145507812
 30
0.0
 11
67.56400299072266
 21
20.76449966430664
 31
0.0
  0
LINE
  5
166
  8
SMALL_FEATURE
 10
67.56400299072266
 20
20.76449966430664
 30
0.0
 11
64.70649719238281
 21
20.383499145507812
 31
0.0
  0
LINE
  5
167
  8
SMALL_FEATURE
 10
64.70649719238281
 20
20.383499145507812
 30
0.0
 11
64.45249938964844
 21
24.447500228881836
 31
0.0
  0
LINE
  5
168
  8
SMALL_FEATURE
 10
30.035499572753906
 20
20.383499145507812
 30
0.0
 11
33.083499908447266
 21
20.383499145507812
 31
0.0
  0
LINE
  5
169
  8
SMALL_FEATURE
 10
33.083499908447266
 20
20.383499145507812
 30
0.0
 11
33.14699935913086
 21
20.002500534057617
 31
0.0
  0
LINE
  5
16A
  8
SMALL_FEATURE
 10
33.14699935913086
 20
20.002500534057617
 30
0.0
 11
36.00450134277344
 21
20.31999969482422
 31
0.0
  0
LINE
  5
16B
  8
SMALL_FEATURE
 10
36.00450134277344
 20
20.31999969482422
 30
0.0
 11
36.131500244140625
 21
16.57349967956543
 31
0.0
  0
LINE
  5
16C
  8
SMALL_FEATURE
 10
36.131500244140625
 20
16.57349967956543
 30
0.0
 11
36.25849914550781
 21
20.31999969482422
 31
0.0
  0
LINE
  5
16D
  8
SMALL_FEATURE
 10
36.25849914550781
 20
20.31999969482422
 30
0.0
 11
39.0525016784668
 21
20.383499145507812
 31
0.0
  0
LINE
  5
16E
  8
SMALL_FEATURE
 10
39.0525016784668
 20
20.383499145507812
 30
0.0
 11
39.30649948120117
 21
16.57349967956543
 31
0.0
  0
LINE
  5
16F
  8
SMALL_FEATURE
 10
39.30649948120117
 20
16.57349967956543
 30
0.0
 11
39.369998931884766
 21
20.31999969482422
 31
0.0
  0
LINE
  5
170
  8
SMALL_FEATURE
 10
39.369998931884766
 20
20.31999969482422
 30
0.0
 11
42.16400146484375
 21
20.002500534057617
 31
0.0
  0
LINE
  5
171
  8
SMALL_FEATURE
 10
42.16400146484375
 20
20.002500534057617
 30
0.0
 11
42.227500915527344
 21
20.383499145507812
 31
0.0
  0
LINE
  5
172
  8
SMALL_FEATURE
 10
42.227500915527344
 20
20.383499145507812
 30
0.0
 11
45.3390007019043
 21
20.510499954223633
 31
0.0
  0
LINE
  5
173
  8
SMALL_FEATURE
 10
45.3390007019043
 20
20.510499954223633
 30
0.0
 11
42.227500915527344
 21
20.573999404907227
 31
0.0
  0
LINE
  5
174
  8
SMALL_FEATURE
 10
42.227500915527344
 20
20.573999404907227
 30
0.0
 11
42.16400146484375
 21
20.827999114990234
 31
0.0
  0
LINE
  5
175
  8
SMALL_FEATURE
 10
42.16400146484375
 20
20.827999114990234
 30
0.0
 11
39.369998931884766
 21
20.573999404907227
 31
0.0
  0
LINE
  5
176
  8
SMALL_FEATURE
 10
39.369998931884766
 20
20.573999404907227
 30
0.0
 11
39.30649948120117
 21
24.51099967956543
 31
0.0
  0
LINE
  5
177
  8
SMALL_FEATURE
 10
39.30649948120117
 20
24.51099967956543
 30
0.0
 11
39.11600112915039
 21
20.637500762939453
 31
0.0
  0
LINE
  5
178
  8
SMALL_FEATURE
 10
39.11600112915039
 20
20.637500762939453
 30
0.0
 11
36.321998596191406
 21
20.573999404907227
 31
0.0
  0
LINE
  5
179
  8
SMALL_FEATURE
 10
36.321998596191406
 20
20.573999404907227
 30
0.0
 11
36.131500244140625
 21
24.701499938964844
 31
0.0
  0
LINE
  5
17A
  8
SMALL_FEATURE
 10
36.131500244140625
 20
24.701499938964844
 30
0.0
 11
36.00450134277344
 21
20.573999404907227
 31
0.0
  0
LINE
  5
17B
  8
SMALL_FEATURE
 10
36.00450134277344
 20
20.573999404907227
 30
0.0
 11
33.14699935913086
 21
20.827999114990234
 31
0.0
  0
LINE
  5
17C
  8
SMALL_FEATURE
 10
33.14699935913086
 20
20.827999114990234
 30
0.0
 11
33.083499908447266
 21
20.573999404907227
 31
0.0
  0
LINE
  5
17D
  8
SMALL_FEATURE
 10
33.083499908447266
 20
20.573999404907227
 30
0.0
 11
30.035499572753906
 21
20.383499145507812
 31
0.0
  0
LINE
  5
17E
  8
SMALL_FEATURE
 10
121.15799713134766
 20
49.339500427246094
 30
0.0
 11
121.03099822998047
 21
46.291500091552734
 31
0.0
  0
LINE
  5
17F
  8
SMALL_FEATURE
 10
121.03099822998047
 20
46.291500091552734
 30
0.0
 11
120.6500015258789
 21
46.22800064086914
 31
0.0
  0
LINE
  5
180
  8
SMALL_FEATURE
 10
120.6500015258789
 20
46.22800064086914
 30
0.0
 11
120.96749877929688
 21
43.37049865722656
 31
0.0
  0
LINE
  5
181
  8
SMALL_FEATURE
 10
120.96749877929688
 20
43.37049865722656
 30
0.0
 11
116.71299743652344
 21
43.30699920654297
 31
0.0
  0
LINE
  5
182
  8
SMALL_FEATURE
 10
116.71299743652344
 20
43.30699920654297
 30
0.0
 11
121.03099822998047
 21
43.053001403808594
 31
0.0
  0
LINE
  5
183
  8
SMALL_FEATURE
 10
121.03099822998047
 20
43.053001403808594
 30
0.0
 11
121.03099822998047
 21
40.3224983215332
 31
0.0
  0
LINE
  5
184
  8
SMALL_FEATURE
 10
121.03099822998047
 20
40.3224983215332
 30
0.0
 11
118.68150329589844
 21
40.25899887084961
 31
0.0
  0
LINE
  5
185
  8
SMALL_FEATURE
 10
118.68150329589844
 20
40.25899887084961
 30
0.0
 11
120.96749877929688
 21
40.005001068115234
 31
0.0
  0
LINE
  5
186
  8
SMALL_FEATURE
 10
120.96749877929688
 20
40.005001068115234
 30
0.0
 11
120.6500015258789
 21
37.147499084472656
 31
0.0
  0
LINE
  5
187
  8
SMALL_FEATURE
 10
120.6500015258789
 20
37.147499084472656
 30
0.0
 11
121.03099822998047
 21
37.08399963378906
 31
0.0
  0
LINE
  5
188
  8
SMALL_FEATURE
 10
121.03099822998047
 20
37.08399963378906
 30
0.0
 11
121.03099822998047
 21
34.0359992980957
 31
0.0
  0
LINE
  5
189
  8
SMALL_FEATURE
 10
121.03099822998047
 20
34.0359992980957
 30
0.0
 11
121.22149658203125
 21
37.08399963378906
 31
0.0
  0
LINE
  5
18A
  8
SMALL_FEATURE
 10
121.22149658203125
 20
37.08399963378906
 30
0.0
 11
121.53900146484375
 21
37.147499084472656
 31
0.0
  0
LINE
  5
18B
  8
SMALL_FEATURE
 10
121.53900146484375
 20
37.147499084472656
 30
0.0
 11
121.22149658203125
 21
40.005001068115234
 31
0.0
  0
LINE
  5
18C
  8
SMALL_FEATURE
 10
121.22149658203125
 20
40.005001068115234
 30
0.0
 11
124.96800231933594
 21
40.13199996948242
 31
0.0
  0
LINE
  5
18D
  8
SMALL_FEATURE
 10
124.96800231933594
 20
40.13199996948242
 30
0.0
 11
121.22149658203125
 21
40.3224983215332
 31
0.0
  0
LINE
  5
18E
  8
SMALL_FEATURE
 10
121.22149658203125
 20
40.3224983215332
 30
0.0
 11
121.28500366210938
 21
43.11650085449219
 31
0.0
  0
LINE
  5
18F
  8
SMALL_FEATURE
 10
121.28500366210938
 20
43.11650085449219
 30
0.0
 11
124.96800231933594
 21
43.30699920654297
 31
0.0
  0
LINE
  5
190
  8
SMALL_FEATURE
 10
124.96800231933594
 20
43.30699920654297
 30
0.0
 11
121.22149658203125
 21
43.37049865722656
 31
0.0
  0
LINE
  5
191
  8
SMALL_FEATURE
 10
121.22149658203125
 20
43.37049865722656
 30
0.0
 11
121.53900146484375
 21
46.22800064086914
 31
0.0
  0
LINE
  5
192
  8
SMALL_FEATURE
 10
121.53900146484375
 20
46.22800064086914
 30
0.0
 11
121.22149658203125
 21
46.291500091552734
 31
0.0
  0
LINE
  5
193
  8
SMALL_FEATURE
 10
121.22149658203125
 20
46.291500091552734
 30
0.0
 11
121.15799713134766
 21
49.339500427246094
 31
0.0
  0
LINE
  5
194
  8
SMALL_FEATURE
 10
190.88099670410156
 20
32.32149887084961
 30
0.0
 11
190.43649291992188
 21
32.13100051879883
 31
0.0
  0
LINE
  5
195
  8
SMALL_FEATURE
 10
190.43649291992188
 20
32.13100051879883
 30
0.0
 11
189.2935028076172
 21
28.95599937438965
 31
0.0
  0
LINE
  5
196
  8
SMALL_FEATURE
 10
189.2935028076172
 20
28.95599937438965
 30
0.0
 11
188.4044952392578
 21
28.892499923706055
 31
0.0
  0
LINE
  5
197
  8
SMALL_FEATURE
 10
188.4044952392578
 20
28.892499923706055
 30
0.0
 11
188.08700561523438
 21
29.273500442504883
 31
0.0
  0
LINE
  5
198
  8
SMALL_FEATURE
 10
188.08700561523438
 20
29.273500442504883
 30
0.0
 11
186.8804931640625
 21
27.749500274658203
 31
0.0
  0
LINE
  5
199
  8
SMALL_FEATURE
 10
186.8804931640625
 20
27.749500274658203
 30
0.0
 11
186.7534942626953
 21
26.60650062561035
 31
0.0
  0
LINE
  5
19A
  8
SMALL_FEATURE
 10
186.7534942626953
 20
26.60650062561035
 30
0.0
 11
187.00750732421875
 21
26.60650062561035
 31
0.0
  0
LINE
  5
19B
  8
SMALL_FEATURE
 10
187.00750732421875
 20
26.60650062561035
 30
0.0
 11
187.00750732421875
 21
27.749500274658203
 31
0.0
  0
LINE
  5
19C
  8
SMALL_FEATURE
 10
187.00750732421875
 20
27.749500274658203
 30
0.0
 11
187.89649963378906
 21
28.82900047302246
 31
0.0
  0
LINE
  5
19D
  8
SMALL_FEATURE
 10
187.89649963378906
 20
28.82900047302246
 30
0.0
 11
188.78550720214844
 21
28.765499114990234
 31
0.0
  0
LINE
  5
19E
  8
SMALL_FEATURE
 10
188.78550720214844
 20
28.765499114990234
 30
0.0
 11
188.78550720214844
 21
26.60650062561035
 31
0.0
  0
LINE
  5
19F
  8
SMALL_FEATURE
 10
188.78550720214844
 20
26.60650062561035
 30
0.0
 11
189.0395050048828
 21
26.60650062561035
 31
0.0
  0
LINE
  5
1A0
  8
SMALL_FEATURE
 10
189.0395050048828
 20
26.60650062561035
 30
0.0
 11
189.0395050048828
 21
28.38450050354004
 31
0.0
  0
LINE
  5
1A1
  8
SMALL_FEATURE
 10
189.0395050048828
 20
28.38450050354004
 30
0.0
 11
190.88099670410156
 21
32.32149887084961
 31
0.0
  0
LINE
  5
1A2
  8
BRIDGE_ROUTE
 10
131.12750244140625
 20
9.46150016784668
 30
0.0
 11
131.1909942626953
 21
41.020999908447266
 31
0.0
  0
LINE
  5
1A3
  8
BRIDGE_ROUTE
 10
131.1909942626953
 20
41.020999908447266
 30
0.0
 11
198.81849670410156
 21
40.95750045776367
 31
0.0
  0
LINE
  5
1A4
  8
BRIDGE_ROUTE
 10
198.81849670410156
 20
40.95750045776367
 30
0.0
 11
198.7550048828125
 21
39.6875
 31
0.0
  0
LINE
  5
1A5
  8
BRIDGE_ROUTE
 10
198.7550048828125
 20
39.6875
 30
0.0
 11
132.52450561523438
 21
39.6875
 31
0.0
  0
LINE
  5
1A6
  8
BRIDGE_ROUTE
 10
132.52450561523438
 20
39.6875
 30
0.0
 11
132.46099853515625
 21
9.46150016784668
 31
0.0
  0
LINE
  5
1A7
  8
BRIDGE_ROUTE
 10
132.46099853515625
 20
9.46150016784668
 30
0.0
 11
131.12750244140625
 21
9.46150016784668
 31
0.0
  0
LINE
  5
1A8
  8
JACK_ROUTE
 10
105.34649658203125
 20
209.5500030517578
 30
0.0
 11
99.56800079345703
 21
206.1844940185547
 31
0.0
  0
LINE
  5
1A9
  8
JACK_ROUTE
 10
99.56800079345703
 20
206.1844940185547
 30
0.0
 11
99.56800079345703
 21
178.49850463867188
 31
0.0
  0
LINE
  5
1AA
  8
JACK_ROUTE
 10
99.56800079345703
 20
178.49850463867188
 30
0.0
 11
104.58450317382812
 21
178.43499755859375
 31
0.0
  0
LINE
  5
1AB
  8
JACK_ROUTE
 10
104.58450317382812
 20
178.43499755859375
 30
0.0
 11
108.39450073242188
 21
180.7209930419922
 31
0.0
  0
LINE
  5
1AC
  8
JACK_ROUTE
 10
108.39450073242188
 20
180.7209930419922
 30
0.0
 11
112.7760009765625
 21
180.7209930419922
 31
0.0
  0
LINE
  5
1AD
  8
JACK_ROUTE
 10
112.7760009765625
 20
180.7209930419922
 30
0.0
 11
112.90299987792969
 21
178.43499755859375
 31
0.0
  0
LINE
  5
1AE
  8
JACK_ROUTE
 10
112.90299987792969
 20
178.43499755859375
 30
0.0
 11
117.98300170898438
 21
178.43499755859375
 31
0.0
  0
LINE
  5
1AF
  8
JACK_ROUTE
 10
117.98300170898438
 20
178.43499755859375
 30
0.0
 11
123.6344985961914
 21
181.80050659179688
 31
0.0
  0
LINE
  5
1B0
  8
JACK_ROUTE
 10
123.6344985961914
 20
181.80050659179688
 30
0.0
 11
123.57099914550781
 21
209.8040008544922
 31
0.0
  0
LINE
  5
1B1
  8
JACK_ROUTE
 10
123.57099914550781
 20
209.8040008544922
 30
0.0
 11
123.06300354003906
 21
210.1215057373047
 31
0.0
  0
LINE
  5
1B2
  8
JACK_ROUTE
 10
123.06300354003906
 20
210.1215057373047
 30
0.0
 11
107.37850189208984
 21
210.1215057373047
 31
0.0
  0
LINE
  5
1B3
  8
JACK_ROUTE
 10
107.37850189208984
 20
210.1215057373047
 30
0.0
 11
105.34649658203125
 21
209.5500030517578
 31
0.0
  0
LINE
  5
1B4
  8
JACK_ROUTE
 10
136.7154998779297
 20
220.91650390625
 30
0.0
 11
137.22349548339844
 21
222.94850158691406
 31
0.0
  0
LINE
  5
1B5
  8
JACK_ROUTE
 10
137.22349548339844
 20
222.94850158691406
 30
0.0
 11
137.0330047607422
 21
224.15499877929688
 31
0.0
  0
LINE
  5
1B6
  8
JACK_ROUTE
 10
137.0330047607422
 20
224.15499877929688
 30
0.0
 11
138.17599487304688
 21
228.15550231933594
 31
0.0
  0
LINE
  5
1B7
  8
JACK_ROUTE
 10
138.17599487304688
 20
228.15550231933594
 30
0.0
 11
140.71600341796875
 21
232.85450744628906
 31
0.0
  0
LINE
  5
1B8
  8
JACK_ROUTE
 10
140.71600341796875
 20
232.85450744628906
 30
0.0
 11
142.11300659179688
 21
234.6959991455078
 31
0.0
  0
LINE
  5
1B9
  8
JACK_ROUTE
 10
142.11300659179688
 20
234.6959991455078
 30
0.0
 11
146.11349487304688
 21
238.3155059814453
 31
0.0
  0
LINE
  5
1BA
  8
JACK_ROUTE
 10
146.11349487304688
 20
238.3155059814453
 30
0.0
 11
151.0030059814453
 21
240.85549926757812
 31
0.0
  0
LINE
  5
1BB
  8
JACK_ROUTE
 10
151.0030059814453
 20
240.85549926757812
 30
0.0
 11
151.89199829101562
 21
240.79200744628906
 31
0.0
  0
LINE
  5
1BC
  8
JACK_ROUTE
 10
151.89199829101562
 20
240.79200744628906
 30
0.0
 11
151.89199829101562
 21
237.87100219726562
 31
0.0
  0
LINE
  5
1BD
  8
JACK_ROUTE
 10
151.89199829101562
 20
237.87100219726562
 30
0.0
 11
151.57449340820312
 21
237.74400329589844
 31
0.0
  0
LINE
  5
1BE
  8
JACK_ROUTE
 10
151.57449340820312
 20
237.74400329589844
 30
0.0
 11
151.57449340820312
 21
226.12350463867188
 31
0.0
  0
LINE
  5
1BF
  8
JACK_ROUTE
 10
151.57449340820312
 20
226.12350463867188
 30
0.0
 11
149.66949462890625
 21
225.8695068359375
 31
0.0
  0
LINE
  5
1C0
  8
JACK_ROUTE
 10
149.66949462890625
 20
225.8695068359375
 30
0.0
 11
151.57449340820312
 21
225.80599975585938
 31
0.0
  0
LINE
  5
1C1
  8
JACK_ROUTE
 10
151.57449340820312
 20
225.80599975585938
 30
0.0
 11
151.70150756835938
 21
220.21800231933594
 31
0.0
  0
LINE
  5
1C2
  8
JACK_ROUTE
 10
151.70150756835938
 20
220.21800231933594
 30
0.0
 11
151.82850646972656
 21
225.8695068359375
 31
0.0
  0
LINE
  5
1C3
  8
JACK_ROUTE
 10
151.82850646972656
 20
225.8695068359375
 30
0.0
 11
152.71749877929688
 21
225.8695068359375
 31
0.0
  0
LINE
  5
1C4
  8
JACK_ROUTE
 10
152.71749877929688
 20
225.8695068359375
 30
0.0
 11
152.781005859375
 21
225.48849487304688
 31
0.0
  0
LINE
  5
1C5
  8
JACK_ROUTE
 10
152.781005859375
 20
225.48849487304688
 30
0.0
 11
155.5749969482422
 21
225.80599975585938
 31
0.0
  0
LINE
  5
1C6
  8
JACK_ROUTE
 10
155.5749969482422
 20
225.80599975585938
 30
0.0
 11
155.70199584960938
 21
224.59950256347656
 31
0.0
  0
LINE
  5
1C7
  8
JACK_ROUTE
 10
155.70199584960938
 20
224.59950256347656
 30
0.0
 11
155.8925018310547
 21
225.8695068359375
 31
0.0
  0
LINE
  5
1C8
  8
JACK_ROUTE
 10
155.8925018310547
 20
225.8695068359375
 30
0.0
 11
161.67100524902344
 21
225.8695068359375
 31
0.0
  0
LINE
  5
1C9
  8
JACK_ROUTE
 10
161.67100524902344
 20
225.8695068359375
 30
0.0
 11
161.79800415039062
 21
224.59950256347656
 31
0.0
  0
LINE
  5
1CA
  8
JACK_ROUTE
 10
161.79800415039062
 20
224.59950256347656
 30
0.0
 11
161.98849487304688
 21
225.80599975585938
 31
0.0
  0
LINE
  5
1CB
  8
JACK_ROUTE
 10
161.98849487304688
 20
225.80599975585938
 30
0.0
 11
164.8459930419922
 21
225.48849487304688
 31
0.0
  0
LINE
  5
1CC
  8
JACK_ROUTE
 10
164.8459930419922
 20
225.48849487304688
 30
0.0
 11
164.9095001220703
 21
225.8695068359375
 31
0.0
  0
LINE
  5
1CD
  8
JACK_ROUTE
 10
164.9095001220703
 20
225.8695068359375
 30
0.0
 11
165.73500061035156
 21
225.8695068359375
 31
0.0
  0
LINE
  5
1CE
  8
JACK_ROUTE
 10
165.73500061035156
 20
225.8695068359375
 30
0.0
 11
165.92550659179688
 21
220.281494140625
 31
0.0
  0
LINE
  5
1CF
  8
JACK_ROUTE
 10
165.92550659179688
 20
220.281494140625
 30
0.0
 11
165.86199951171875
 21
224.53599548339844
 31
0.0
  0
LINE
  5
1D0
  8
JACK_ROUTE
 10
165.86199951171875
 20
224.53599548339844
 30
0.0
 11
166.17950439453125
 21
224.72650146484375
 31
0.0
  0
LINE
  5
1D1
  8
JACK_ROUTE
 10
166.17950439453125
 20
224.72650146484375
 30
0.0
 11
166.17950439453125
 21
225.80599975585938
 31
0.0
  0
LINE
  5
1D2
  8
JACK_ROUTE
 10
166.17950439453125
 20
225.80599975585938
 30
0.0
 11
168.02099609375
 21
225.9965057373047
 31
0.0
  0
LINE
  5
1D3
  8
JACK_ROUTE
 10
168.02099609375
 20
225.9965057373047
 30
0.0
 11
166.17950439453125
 21
226.12350463867188
 31
0.0
  0
LINE
  5
1D4
  8
JACK_ROUTE
 10
166.17950439453125
 20
226.12350463867188
 30
0.0
 11
166.17950439453125
 21
237.6804962158203
 31
0.0
  0
LINE
  5
1D5
  8
JACK_ROUTE
 10
166.17950439453125
 20
237.6804962158203
 30
0.0
 11
165.73500061035156
 21
237.87100219726562
 31
0.0
  0
LINE
  5
1D6
  8
JACK_ROUTE
 10
165.73500061035156
 20
237.87100219726562
 30
0.0
 11
165.79849243164062
 21
240.85549926757812
 31
0.0
  0
LINE
  5
1D7
  8
JACK_ROUTE
 10
165.79849243164062
 20
240.85549926757812
 30
0.0
 11
167.1320037841797
 21
240.6649932861328
 31
0.0
  0
LINE
  5
1D8
  8
JACK_ROUTE
 10
167.1320037841797
 20
240.6649932861328
 30
0.0
 11
171.25950622558594
 21
238.4425048828125
 31
0.0
  0
LINE
  5
1D9
  8
JACK_ROUTE
 10
171.25950622558594
 20
238.4425048828125
 30
0.0
 11
175.45050048828125
 21
234.6959991455078
 31
0.0
  0
LINE
  5
1DA
  8
JACK_ROUTE
 10
175.45050048828125
 20
234.6959991455078
 30
0.0
 11
178.2445068359375
 21
230.75900268554688
 31
0.0
  0
LINE
  5
1DB
  8
JACK_ROUTE
 10
178.2445068359375
 20
230.75900268554688
 30
0.0
 11
180.0225067138672
 21
226.31399536132812
 31
0.0
  0
LINE
  5
1DC
  8
JACK_ROUTE
 10
180.0225067138672
 20
226.31399536132812
 30
0.0
 11
179.76849365234375
 21
222.25
 31
0.0
  0
LINE
  5
1DD
  8
JACK_ROUTE
 10
179.76849365234375
 20
222.25
 30
0.0
 11
179.3874969482422
 21
222.18649291992188
 31
0.0
  0
LINE
  5
1DE
  8
JACK_ROUTE
 10
179.3874969482422
 20
222.18649291992188
 30
0.0
 11
179.64149475097656
 21
219.32899475097656
 31
0.0
  0
LINE
  5
1DF
  8
JACK_ROUTE
 10
179.64149475097656
 20
219.32899475097656
 30
0.0
 11
171.70399475097656
 21
219.32899475097656
 31
0.0
  0
LINE
  5
1E0
  8
JACK_ROUTE
 10
171.70399475097656
 20
219.32899475097656
 30
0.0
 11
168.84649658203125
 21
219.96400451660156
 31
0.0
  0
LINE
  5
1E1
  8
JACK_ROUTE
 10
168.84649658203125
 20
219.96400451660156
 30
0.0
 11
167.70350646972656
 21
219.96400451660156
 31
0.0
  0
LINE
  5
1E2
  8
JACK_ROUTE
 10
167.70350646972656
 20
219.96400451660156
 30
0.0
 11
167.63999938964844
 21
219.32899475097656
 31
0.0
  0
LINE
  5
1E3
  8
JACK_ROUTE
 10
167.63999938964844
 20
219.32899475097656
 30
0.0
 11
161.98849487304688
 21
219.32899475097656
 31
0.0
  0
LINE
  5
1E4
  8
JACK_ROUTE
 10
161.98849487304688
 20
219.32899475097656
 30
0.0
 11
161.8614959716797
 21
220.21800231933594
 31
0.0
  0
LINE
  5
1E5
  8
JACK_ROUTE
 10
161.8614959716797
 20
220.21800231933594
 30
0.0
 11
161.67100524902344
 21
219.32899475097656
 31
0.0
  0
LINE
  5
1E6
  8
JACK_ROUTE
 10
161.67100524902344
 20
219.32899475097656
 30
0.0
 11
155.8925018310547
 21
219.32899475097656
 31
0.0
  0
LINE
  5
1E7
  8
JACK_ROUTE
 10
155.8925018310547
 20
219.32899475097656
 30
0.0
 11
155.70199584960938
 21
220.21800231933594
 31
0.0
  0
LINE
  5
1E8
  8
JACK_ROUTE
 10
155.70199584960938
 20
220.21800231933594
 30
0.0
 11
155.5749969482422
 21
219.32899475097656
 31
0.0
  0
LINE
  5
1E9
  8
JACK_ROUTE
 10
155.5749969482422
 20
219.32899475097656
 30
0.0
 11
149.98699951171875
 21
219.20199584960938
 31
0.0
  0
LINE
  5
1EA
  8
JACK_ROUTE
 10
149.98699951171875
 20
219.20199584960938
 30
0.0
 11
149.92349243164062
 21
219.96400451660156
 31
0.0
  0
LINE
  5
1EB
  8
JACK_ROUTE
 10
149.92349243164062
 20
219.96400451660156
 30
0.0
 11
147.8280029296875
 21
219.7100067138672
 31
0.0
  0
LINE
  5
1EC
  8
JACK_ROUTE
 10
147.8280029296875
 20
219.7100067138672
 30
0.0
 11
146.87550354003906
 21
219.96400451660156
 31
0.0
  0
LINE
  5
1ED
  8
JACK_ROUTE
 10
146.87550354003906
 20
219.96400451660156
 30
0.0
 11
136.7790069580078
 21
219.96400451660156
 31
0.0
  0
LINE
  5
1EE
  8
JACK_ROUTE
 10
136.7790069580078
 20
219.96400451660156
 30
0.0
 11
136.7154998779297
 21
220.91650390625
 31
0.0
  0
LINE
  5
1EF
  8
PICKUP_ROUTE
 10
132.33399963378906
 20
173.60899353027344
 30
0.0
 11
129.79400634765625
 21
172.8470001220703
 31
0.0
  0
LINE
  5
1F0
  8
PICKUP_ROUTE
 10
129.79400634765625
 20
172.8470001220703
 30
0.0
 11
125.60299682617188
 21
170.94200134277344
 31
0.0
  0
LINE
  5
1F1
  8
PICKUP_ROUTE
 10
125.60299682617188
 20
170.94200134277344
 30
0.0
 11
124.0155029296875
 21
169.73550415039062
 31
0.0
  0
LINE
  5
1F2
  8
PICKUP_ROUTE
 10
124.0155029296875
 20
169.73550415039062
 30
0.0
 11
120.7770004272461
 21
166.2429962158203
 31
0.0
  0
LINE
  5
1F3
  8
PICKUP_ROUTE
 10
120.7770004272461
 20
166.2429962158203
 30
0.0
 11
117.53849792480469
 21
160.4010009765625
 31
0.0
  0
LINE
  5
1F4
  8
PICKUP_ROUTE
 10
117.53849792480469
 20
160.4010009765625
 30
0.0
 11
116.26850128173828
 21
155.6385040283203
 31
0.0
  0
LINE
  5
1F5
  8
PICKUP_ROUTE
 10
116.26850128173828
 20
155.6385040283203
 30
0.0
 11
116.0780029296875
 21
151.44749450683594
 31
0.0
  0
LINE
  5
1F6
  8
PICKUP_ROUTE
 10
116.0780029296875
 20
151.44749450683594
 30
0.0
 11
116.39550018310547
 21
148.90750122070312
 31
0.0
  0
LINE
  5
1F7
  8
PICKUP_ROUTE
 10
116.39550018310547
 20
148.90750122070312
 30
0.0
 11
119.37999725341797
 21
136.4615020751953
 31
0.0
  0
LINE
  5
1F8
  8
PICKUP_ROUTE
 10
119.37999725341797
 20
136.4615020751953
 30
0.0
 11
119.18949890136719
 21
130.80999755859375
 31
0.0
  0
LINE
  5
1F9
  8
PICKUP_ROUTE
 10
119.18949890136719
 20
130.80999755859375
 30
0.0
 11
118.17350006103516
 21
126.80950164794922
 31
0.0
  0
LINE
  5
1FA
  8
PICKUP_ROUTE
 10
118.17350006103516
 20
126.80950164794922
 30
0.0
 11
115.6969985961914
 21
120.96749877929688
 31
0.0
  0
LINE
  5
1FB
  8
PICKUP_ROUTE
 10
115.6969985961914
 20
120.96749877929688
 30
0.0
 11
109.5374984741211
 21
109.72799682617188
 31
0.0
  0
LINE
  5
1FC
  8
PICKUP_ROUTE
 10
109.5374984741211
 20
109.72799682617188
 30
0.0
 11
107.31500244140625
 21
104.96549987792969
 31
0.0
  0
LINE
  5
1FD
  8
PICKUP_ROUTE
 10
107.31500244140625
 20
104.96549987792969
 30
0.0
 11
105.60050201416016
 21
99.12349700927734
 31
0.0
  0
LINE
  5
1FE
  8
PICKUP_ROUTE
 10
105.60050201416016
 20
99.12349700927734
 30
0.0
 11
105.41000366210938
 21
93.91649627685547
 31
0.0
  0
LINE
  5
1FF
  8
PICKUP_ROUTE
 10
105.41000366210938
 20
93.91649627685547
 30
0.0
 11
105.66400146484375
 21
91.24949645996094
 31
0.0
  0
LINE
  5
200
  8
PICKUP_ROUTE
 10
105.66400146484375
 20
91.24949645996094
 30
0.0
 11
106.489501953125
 21
87.69349670410156
 31
0.0
  0
LINE
  5
201
  8
PICKUP_ROUTE
 10
106.489501953125
 20
87.69349670410156
 30
0.0
 11
108.45800018310547
 21
83.24849700927734
 31
0.0
  0
LINE
  5
202
  8
PICKUP_ROUTE
 10
108.45800018310547
 20
83.24849700927734
 30
0.0
 11
112.20449829101562
 21
77.7239990234375
 31
0.0
  0
LINE
  5
203
  8
PICKUP_ROUTE
 10
112.20449829101562
 20
77.7239990234375
 30
0.0
 11
117.03050231933594
 21
73.0885009765625
 31
0.0
  0
LINE
  5
204
  8
PICKUP_ROUTE
 10
117.03050231933594
 20
73.0885009765625
 30
0.0
 11
121.09449768066406
 21
70.86599731445312
 31
0.0
  0
LINE
  5
205
  8
PICKUP_ROUTE
 10
121.09449768066406
 20
70.86599731445312
 30
0.0
 11
125.09500122070312
 21
69.46900177001953
 31
0.0
  0
LINE
  5
206
  8
PICKUP_ROUTE
 10
125.09500122070312
 20
69.46900177001953
 30
0.0
 11
134.36599731445312
 21
67.50050354003906
 31
0.0
  0
LINE
  5
207
  8
PICKUP_ROUTE
 10
134.36599731445312
 20
67.50050354003906
 30
0.0
 11
138.87449645996094
 21
67.43699645996094
 31
0.0
  0
LINE
  5
208
  8
PICKUP_ROUTE
 10
138.87449645996094
 20
67.43699645996094
 30
0.0
 11
134.36599731445312
 21
67.69100189208984
 31
0.0
  0
LINE
  5
209
  8
PICKUP_ROUTE
 10
134.36599731445312
 20
67.69100189208984
 30
0.0
 11
123.7614974975586
 21
70.04049682617188
 31
0.0
  0
LINE
  5
20A
  8
PICKUP_ROUTE
 10
123.7614974975586
 20
70.04049682617188
 30
0.0
 11
119.1259994506836
 21
72.00900268554688
 31
0.0
  0
LINE
  5
20B
  8
PICKUP_ROUTE
 10
119.1259994506836
 20
72.00900268554688
 30
0.0
 11
115.63349914550781
 21
74.4854965209961
 31
0.0
  0
LINE
  5
20C
  8
PICKUP_ROUTE
 10
115.63349914550781
 20
74.4854965209961
 30
0.0
 11
111.0615005493164
 21
79.56549835205078
 31
0.0
  0
LINE
  5
20D
  8
PICKUP_ROUTE
 10
111.0615005493164
 20
79.56549835205078
 30
0.0
 11
107.56900024414062
 21
85.47100067138672
 31
0.0
  0
LINE
  5
20E
  8
PICKUP_ROUTE
 10
107.56900024414062
 20
85.47100067138672
 30
0.0
 11
106.1719970703125
 21
89.66200256347656
 31
0.0
  0
LINE
  5
20F
  8
PICKUP_ROUTE
 10
106.1719970703125
 20
89.66200256347656
 30
0.0
 11
105.53700256347656
 21
95.37699890136719
 31
0.0
  0
LINE
  5
210
  8
PICKUP_ROUTE
 10
105.53700256347656
 20
95.37699890136719
 30
0.0
 11
106.1084976196289
 21
100.71099853515625
 31
0.0
  0
LINE
  5
211
  8
PICKUP_ROUTE
 10
106.1084976196289
 20
100.71099853515625
 30
0.0
 11
107.50550079345703
 21
104.9020004272461
 31
0.0
  0
LINE
  5
212
  8
PICKUP_ROUTE
 10
107.50550079345703
 20
104.9020004272461
 30
0.0
 11
109.72799682617188
 21
109.66449737548828
 31
0.0
  0
LINE
  5
213
  8
PICKUP_ROUTE
 10
109.72799682617188
 20
109.66449737548828
 30
0.0
 11
116.1415023803711
 21
121.47550201416016
 31
0.0
  0
LINE
  5
214
  8
PICKUP_ROUTE
 10
116.1415023803711
 20
121.47550201416016
 30
0.0
 11
117.91950225830078
 21
125.53949737548828
 31
0.0
  0
LINE
  5
215
  8
PICKUP_ROUTE
 10
117.91950225830078
 20
125.53949737548828
 30
0.0
 11
119.1259994506836
 21
129.47650146484375
 31
0.0
  0
LINE
  5
216
  8
PICKUP_ROUTE
 10
119.1259994506836
 20
129.47650146484375
 30
0.0
 11
119.69750213623047
 21
133.7310028076172
 31
0.0
  0
LINE
  5
217
  8
PICKUP_ROUTE
 10
119.69750213623047
 20
133.7310028076172
 30
0.0
 11
119.57050323486328
 21
136.3979949951172
 31
0.0
  0
LINE
  5
218
  8
PICKUP_ROUTE
 10
119.57050323486328
 20
136.3979949951172
 30
0.0
 11
116.52249908447266
 21
149.22500610351562
 31
0.0
  0
LINE
  5
219
  8
PICKUP_ROUTE
 10
116.52249908447266
 20
149.22500610351562
 30
0.0
 11
116.20500183105469
 21
153.9239959716797
 31
0.0
  0
LINE
  5
21A
  8
PICKUP_ROUTE
 10
116.20500183105469
 20
153.9239959716797
 30
0.0
 11
117.72899627685547
 21
160.33749389648438
 31
0.0
  0
LINE
  5
21B
  8
PICKUP_ROUTE
 10
117.72899627685547
 20
160.33749389648438
 30
0.0
 11
119.44349670410156
 21
163.8300018310547
 31
0.0
  0
LINE
  5
21C
  8
PICKUP_ROUTE
 10
119.44349670410156
 20
163.8300018310547
 30
0.0
 11
121.03099822998047
 21
166.2429962158203
 31
0.0
  0
LINE
  5
21D
  8
PICKUP_ROUTE
 10
121.03099822998047
 20
166.2429962158203
 30
0.0
 11
124.26950073242188
 21
169.6719970703125
 31
0.0
  0
LINE
  5
21E
  8
PICKUP_ROUTE
 10
124.26950073242188
 20
169.6719970703125
 30
0.0
 11
125.85700225830078
 21
170.8784942626953
 31
0.0
  0
LINE
  5
21F
  8
PICKUP_ROUTE
 10
125.85700225830078
 20
170.8784942626953
 30
0.0
 11
129.9844970703125
 21
172.72000122070312
 31
0.0
  0
LINE
  5
220
  8
PICKUP_ROUTE
 10
129.9844970703125
 20
172.72000122070312
 30
0.0
 11
132.20700073242188
 21
173.03750610351562
 31
0.0
  0
LINE
  5
221
  8
PICKUP_ROUTE
 10
132.20700073242188
 20
173.03750610351562
 30
0.0
 11
132.27049255371094
 21
170.49749755859375
 31
0.0
  0
LINE
  5
222
  8
PICKUP_ROUTE
 10
132.27049255371094
 20
170.49749755859375
 30
0.0
 11
131.88949584960938
 21
170.37049865722656
 31
0.0
  0
LINE
  5
223
  8
PICKUP_ROUTE
 10
131.88949584960938
 20
170.37049865722656
 30
0.0
 11
132.27049255371094
 21
167.57650756835938
 31
0.0
  0
LINE
  5
224
  8
PICKUP_ROUTE
 10
132.27049255371094
 20
167.57650756835938
 30
0.0
 11
128.4604949951172
 21
167.44949340820312
 31
0.0
  0
LINE
  5
225
  8
PICKUP_ROUTE
 10
128.4604949951172
 20
167.44949340820312
 30
0.0
 11
129.03199768066406
 21
167.25900268554688
 31
0.0
  0
LINE
  5
226
  8
PICKUP_ROUTE
 10
129.03199768066406
 20
167.25900268554688
 30
0.0
 11
129.22250366210938
 21
166.11599731445312
 31
0.0
  0
LINE
  5
227
  8
PICKUP_ROUTE
 10
129.22250366210938
 20
166.11599731445312
 30
0.0
 11
130.36549377441406
 21
165.98899841308594
 31
0.0
  0
LINE
  5
228
  8
PICKUP_ROUTE
 10
130.36549377441406
 20
165.98899841308594
 30
0.0
 11
130.36549377441406
 21
164.9095001220703
 31
0.0
  0
LINE
  5
229
  8
PICKUP_ROUTE
 10
130.36549377441406
 20
164.9095001220703
 30
0.0
 11
129.03199768066406
 21
164.8459930419922
 31
0.0
  0
LINE
  5
22A
  8
PICKUP_ROUTE
 10
129.03199768066406
 20
164.8459930419922
 30
0.0
 11
129.15899658203125
 21
163.95700073242188
 31
0.0
  0
LINE
  5
22B
  8
PICKUP_ROUTE
 10
129.15899658203125
 20
163.95700073242188
 30
0.0
 11
128.4604949951172
 21
163.76649475097656
 31
0.0
  0
LINE
  5
22C
  8
PICKUP_ROUTE
 10
128.4604949951172
 20
163.76649475097656
 30
0.0
 11
132.27049255371094
 21
163.63949584960938
 31
0.0
  0
LINE
  5
22D
  8
PICKUP_ROUTE
 10
132.27049255371094
 20
163.63949584960938
 30
0.0
 11
131.88949584960938
 21
160.8455047607422
 31
0.0
  0
LINE
  5
22E
  8
PICKUP_ROUTE
 10
131.88949584960938
 20
160.8455047607422
 30
0.0
 11
132.27049255371094
 21
160.78199768066406
 31
0.0
  0
LINE
  5
22F
  8
PICKUP_ROUTE
 10
132.27049255371094
 20
160.78199768066406
 30
0.0
 11
132.33399963378906
 21
157.73399353027344
 31
0.0
  0
LINE
  5
230
  8
PICKUP_ROUTE
 10
132.33399963378906
 20
157.73399353027344
 30
0.0
 11
132.46099853515625
 21
160.78199768066406
 31
0.0
  0
LINE
  5
231
  8
PICKUP_ROUTE
 10
132.46099853515625
 20
160.78199768066406
 30
0.0
 11
132.8419952392578
 21
160.8455047607422
 31
0.0
  0
LINE
  5
232
  8
PICKUP_ROUTE
 10
132.8419952392578
 20
160.8455047607422
 30
0.0
 11
132.52450561523438
 21
163.7030029296875
 31
0.0
  0
LINE
  5
233
  8
PICKUP_ROUTE
 10
132.52450561523438
 20
163.7030029296875
 30
0.0
 11
136.52499389648438
 21
163.7030029296875
 31
0.0
  0
LINE
  5
234
  8
PICKUP_ROUTE
 10
136.52499389648438
 20
163.7030029296875
 30
0.0
 11
137.16000366210938
 21
161.8614959716797
 31
0.0
  0
LINE
  5
235
  8
PICKUP_ROUTE
 10
137.16000366210938
 20
161.8614959716797
 30
0.0
 11
138.42999267578125
 21
161.35350036621094
 31
0.0
  0
LINE
  5
236
  8
PICKUP_ROUTE
 10
138.42999267578125
 20
161.35350036621094
 30
0.0
 11
153.86050415039062
 21
161.48049926757812
 31
0.0
  0
LINE
  5
237
  8
PICKUP_ROUTE
 10
153.86050415039062
 20
161.48049926757812
 30
0.0
 11
154.74949645996094
 21
162.43299865722656
 31
0.0
  0
LINE
  5
238
  8
PICKUP_ROUTE
 10
154.74949645996094
 20
162.43299865722656
 30
0.0
 11
155.06700134277344
 21
164.02049255371094
 31
0.0
  0
LINE
  5
239
  8
PICKUP_ROUTE
 10
155.06700134277344
 20
164.02049255371094
 30
0.0
 11
154.94000244140625
 21
167.51300048828125
 31
0.0
  0
LINE
  5
23A
  8
PICKUP_ROUTE
 10
154.94000244140625
 20
167.51300048828125
 30
0.0
 11
148.7169952392578
 21
167.51300048828125
 31
0.0
  0
LINE
  5
23B
  8
PICKUP_ROUTE
 10
148.7169952392578
 20
167.51300048828125
 30
0.0
 11
148.65350341796875
 21
163.89349365234375
 31
0.0
  0
LINE
  5
23C
  8
PICKUP_ROUTE
 10
148.65350341796875
 20
163.89349365234375
 30
0.0
 11
143.50999450683594
 21
163.89349365234375
 31
0.0
  0
LINE
  5
23D
  8
PICKUP_ROUTE
 10
143.50999450683594
 20
163.89349365234375
 30
0.0
 11
142.93850708007812
 21
164.1475067138672
 31
0.0
  0
LINE
  5
23E
  8
PICKUP_ROUTE
 10
142.93850708007812
 20
164.1475067138672
 30
0.0
 11
142.875
 21
167.51300048828125
 31
0.0
  0
LINE
  5
23F
  8
PICKUP_ROUTE
 10
142.875
 20
167.51300048828125
 30
0.0
 11
132.52450561523438
 21
167.51300048828125
 31
0.0
  0
LINE
  5
240
  8
PICKUP_ROUTE
 10
132.52450561523438
 20
167.51300048828125
 30
0.0
 11
132.8419952392578
 21
170.37049865722656
 31
0.0
  0
LINE
  5
241
  8
PICKUP_ROUTE
 10
132.8419952392578
 20
170.37049865722656
 30
0.0
 11
132.46099853515625
 21
170.49749755859375
 31
0.0
  0
LINE
  5
242
  8
PICKUP_ROUTE
 10
132.46099853515625
 20
170.49749755859375
 30
0.0
 11
132.52450561523438
 21
173.22799682617188
 31
0.0
  0
LINE
  5
243
  8
PICKUP_ROUTE
 10
132.52450561523438
 20
173.22799682617188
 30
0.0
 11
138.87449645996094
 21
173.67250061035156
 31
0.0
  0
LINE
  5
244
  8
PICKUP_ROUTE
 10
138.87449645996094
 20
173.67250061035156
 30
0.0
 11
132.33399963378906
 21
173.60899353027344
 31
0.0
  0
LINE
  5
245
  8
NECK_POCKET
 10
152.08250427246094
 20
256.9209899902344
 30
0.0
 11
151.89199829101562
 21
241.36349487304688
 31
0.0
  0
LINE
  5
246
  8
NECK_POCKET
 10
151.89199829101562
 20
241.36349487304688
 30
0.0
 11
146.0500030517578
 21
238.50599670410156
 31
0.0
  0
LINE
  5
247
  8
NECK_POCKET
 10
146.0500030517578
 20
238.50599670410156
 30
0.0
 11
142.11300659179688
 21
235.0135040283203
 31
0.0
  0
LINE
  5
248
  8
NECK_POCKET
 10
142.11300659179688
 20
235.0135040283203
 30
0.0
 11
139.572998046875
 21
231.3939971923828
 31
0.0
  0
LINE
  5
249
  8
NECK_POCKET
 10
139.572998046875
 20
231.3939971923828
 30
0.0
 11
138.0489959716797
 21
228.3459930419922
 31
0.0
  0
LINE
  5
24A
  8
NECK_POCKET
 10
138.0489959716797
 20
228.3459930419922
 30
0.0
 11
136.65199279785156
 21
223.13900756835938
 31
0.0
  0
LINE
  5
24B
  8
NECK_POCKET
 10
136.65199279785156
 20
223.13900756835938
 30
0.0
 11
135.76300048828125
 21
223.20249938964844
 31
0.0
  0
LINE
  5
24C
  8
NECK_POCKET
 10
135.76300048828125
 20
223.20249938964844
 30
0.0
 11
135.57249450683594
 21
225.8695068359375
 31
0.0
  0
LINE
  5
24D
  8
NECK_POCKET
 10
135.57249450683594
 20
225.8695068359375
 30
0.0
 11
135.57249450683594
 21
222.94850158691406
 31
0.0
  0
LINE
  5
24E
  8
NECK_POCKET
 10
135.57249450683594
 20
222.94850158691406
 30
0.0
 11
135.19149780273438
 21
222.88499450683594
 31
0.0
  0
LINE
  5
24F
  8
NECK_POCKET
 10
135.19149780273438
 20
222.88499450683594
 30
0.0
 11
135.57249450683594
 21
220.02749633789062
 31
0.0
  0
LINE
  5
250
  8
NECK_POCKET
 10
135.57249450683594
 20
220.02749633789062
 30
0.0
 11
133.92149353027344
 21
219.96400451660156
 31
0.0
  0
LINE
  5
251
  8
NECK_POCKET
 10
133.92149353027344
 20
219.96400451660156
 30
0.0
 11
133.85800170898438
 21
220.85299682617188
 31
0.0
  0
LINE
  5
252
  8
NECK_POCKET
 10
133.85800170898438
 20
220.85299682617188
 30
0.0
 11
132.58799743652344
 21
220.85299682617188
 31
0.0
  0
LINE
  5
253
  8
NECK_POCKET
 10
132.58799743652344
 20
220.85299682617188
 30
0.0
 11
132.3975067138672
 21
220.02749633789062
 31
0.0
  0
LINE
  5
254
  8
NECK_POCKET
 10
132.3975067138672
 20
220.02749633789062
 30
0.0
 11
131.7624969482422
 21
219.90049743652344
 31
0.0
  0
LINE
  5
255
  8
NECK_POCKET
 10
131.7624969482422
 20
219.90049743652344
 30
0.0
 11
131.7624969482422
 21
219.20199584960938
 31
0.0
  0
LINE
  5
256
  8
NECK_POCKET
 10
131.7624969482422
 20
219.20199584960938
 30
0.0
 11
132.33399963378906
 21
219.1385040283203
 31
0.0
  0
LINE
  5
257
  8
NECK_POCKET
 10
132.33399963378906
 20
219.1385040283203
 30
0.0
 11
132.46099853515625
 21
218.37649536132812
 31
0.0
  0
LINE
  5
258
  8
NECK_POCKET
 10
132.46099853515625
 20
218.37649536132812
 30
0.0
 11
132.8419952392578
 21
218.18600463867188
 31
0.0
  0
LINE
  5
259
  8
NECK_POCKET
 10
132.8419952392578
 20
218.18600463867188
 30
0.0
 11
133.66749572753906
 21
218.24949645996094
 31
0.0
  0
LINE
  5
25A
  8
NECK_POCKET
 10
133.66749572753906
 20
218.24949645996094
 30
0.0
 11
133.98500061035156
 21
219.1385040283203
 31
0.0
  0
LINE
  5
25B
  8
NECK_POCKET
 10
133.98500061035156
 20
219.1385040283203
 30
0.0
 11
135.57249450683594
 21
219.0749969482422
 31
0.0
  0
LINE
  5
25C
  8
NECK_POCKET
 10
135.57249450683594
 20
219.0749969482422
 30
0.0
 11
135.19149780273438
 21
216.21749877929688
 31
0.0
  0
LINE
  5
25D
  8
NECK_POCKET
 10
135.19149780273438
 20
216.21749877929688
 30
0.0
 11
135.57249450683594
 21
216.1540069580078
 31
0.0
  0
LINE
  5
25E
  8
NECK_POCKET
 10
135.57249450683594
 20
216.1540069580078
 30
0.0
 11
135.63600158691406
 21
213.1060028076172
 31
0.0
  0
LINE
  5
25F
  8
NECK_POCKET
 10
135.63600158691406
 20
213.1060028076172
 30
0.0
 11
135.76300048828125
 21
216.1540069580078
 31
0.0
  0
LINE
  5
260
  8
NECK_POCKET
 10
135.76300048828125
 20
216.1540069580078
 30
0.0
 11
136.1439971923828
 21
216.21749877929688
 31
0.0
  0
LINE
  5
261
  8
NECK_POCKET
 10
136.1439971923828
 20
216.21749877929688
 30
0.0
 11
135.82650756835938
 21
219.1385040283203
 31
0.0
  0
LINE
  5
262
  8
NECK_POCKET
 10
135.82650756835938
 20
219.1385040283203
 30
0.0
 11
143.0019989013672
 21
219.0749969482422
 31
0.0
  0
LINE
  5
263
  8
NECK_POCKET
 10
143.0019989013672
 20
219.0749969482422
 30
0.0
 11
142.93850708007812
 21
218.24949645996094
 31
0.0
  0
LINE
  5
264
  8
NECK_POCKET
 10
142.93850708007812
 20
218.24949645996094
 30
0.0
 11
140.46200561523438
 21
216.78900146484375
 31
0.0
  0
LINE
  5
265
  8
NECK_POCKET
 10
140.46200561523438
 20
216.78900146484375
 30
0.0
 11
136.5885009765625
 21
213.04249572753906
 31
0.0
  0
LINE
  5
266
  8
NECK_POCKET
 10
136.5885009765625
 20
213.04249572753906
 30
0.0
 11
136.08050537109375
 21
213.04249572753906
 31
0.0
  0
LINE
  5
267
  8
NECK_POCKET
 10
136.08050537109375
 20
213.04249572753906
 30
0.0
 11
136.08050537109375
 21
212.28050231933594
 31
0.0
  0
LINE
  5
268
  8
NECK_POCKET
 10
136.08050537109375
 20
212.28050231933594
 30
0.0
 11
134.87399291992188
 21
210.62950134277344
 31
0.0
  0
LINE
  5
269
  8
NECK_POCKET
 10
134.87399291992188
 20
210.62950134277344
 30
0.0
 11
133.66749572753906
 21
207.96249389648438
 31
0.0
  0
LINE
  5
26A
  8
NECK_POCKET
 10
133.66749572753906
 20
207.96249389648438
 30
0.0
 11
153.03500366210938
 21
188.8489990234375
 31
0.0
  0
LINE
  5
26B
  8
NECK_POCKET
 10
153.03500366210938
 20
188.8489990234375
 30
0.0
 11
165.2270050048828
 21
196.5959930419922
 31
0.0
  0
LINE
  5
26C
  8
NECK_POCKET
 10
165.2270050048828
 20
196.5959930419922
 30
0.0
 11
166.17950439453125
 21
196.5959930419922
 31
0.0
  0
LINE
  5
26D
  8
NECK_POCKET
 10
166.17950439453125
 20
196.5959930419922
 30
0.0
 11
167.83050537109375
 21
195.38949584960938
 31
0.0
  0
LINE
  5
26E
  8
NECK_POCKET
 10
167.83050537109375
 20
195.38949584960938
 30
0.0
 11
167.8939971923828
 21
193.29400634765625
 31
0.0
  0
LINE
  5
26F
  8
NECK_POCKET
 10
167.8939971923828
 20
193.29400634765625
 30
0.0
 11
168.02099609375
 21
194.62750244140625
 31
0.0
  0
LINE
  5
270
  8
NECK_POCKET
 10
168.02099609375
 20
194.62750244140625
 30
0.0
 11
168.91000366210938
 21
194.6909942626953
 31
0.0
  0
LINE
  5
271
  8
NECK_POCKET
 10
168.91000366210938
 20
194.6909942626953
 30
0.0
 11
183.0070037841797
 21
184.91200256347656
 31
0.0
  0
LINE
  5
272
  8
NECK_POCKET
 10
183.0070037841797
 20
184.91200256347656
 30
0.0
 11
185.80099487304688
 21
196.21499633789062
 31
0.0
  0
LINE
  5
273
  8
NECK_POCKET
 10
185.80099487304688
 20
196.21499633789062
 30
0.0
 11
185.92799377441406
 21
201.92999267578125
 31
0.0
  0
LINE
  5
274
  8
NECK_POCKET
 10
185.92799377441406
 20
201.92999267578125
 30
0.0
 11
185.29299926757812
 21
204.7239990234375
 31
0.0
  0
LINE
  5
275
  8
NECK_POCKET
 10
185.29299926757812
 20
204.7239990234375
 30
0.0
 11
182.81649780273438
 21
210.43899536132812
 31
0.0
  0
LINE
  5
276
  8
NECK_POCKET
 10
182.81649780273438
 20
210.43899536132812
 30
0.0
 11
180.14950561523438
 21
214.05850219726562
 31
0.0
  0
LINE
  5
277
  8
NECK_POCKET
 10
180.14950561523438
 20
214.05850219726562
 30
0.0
 11
180.0225067138672
 21
215.7729949951172
 31
0.0
  0
LINE
  5
278
  8
NECK_POCKET
 10
180.0225067138672
 20
215.7729949951172
 30
0.0
 11
183.7689971923828
 21
215.89999389648438
 31
0.0
  0
LINE
  5
279
  8
NECK_POCKET
 10
183.7689971923828
 20
215.89999389648438
 30
0.0
 11
180.0225067138672
 21
215.9635009765625
 31
0.0
  0
LINE
  5
27A
  8
NECK_POCKET
 10
180.0225067138672
 20
215.9635009765625
 30
0.0
 11
179.95899963378906
 21
219.0749969482422
 31
0.0
  0
LINE
  5
27B
  8
NECK_POCKET
 10
179.95899963378906
 20
219.0749969482422
 30
0.0
 11
183.7689971923828
 21
219.2655029296875
 31
0.0
  0
LINE
  5
27C
  8
NECK_POCKET
 10
183.7689971923828
 20
219.2655029296875
 30
0.0
 11
181.0384979248047
 21
219.3925018310547
 31
0.0
  0
LINE
  5
27D
  8
NECK_POCKET
 10
181.0384979248047
 20
219.3925018310547
 30
0.0
 11
181.22900390625
 21
223.13900756835938
 31
0.0
  0
LINE
  5
27E
  8
NECK_POCKET
 10
181.22900390625
 20
223.13900756835938
 30
0.0
 11
180.84800720214844
 21
223.20249938964844
 31
0.0
  0
LINE
  5
27F
  8
NECK_POCKET
 10
180.84800720214844
 20
223.20249938964844
 30
0.0
 11
179.64149475097656
 21
228.218994140625
 31
0.0
  0
LINE
  5
280
  8
NECK_POCKET
 10
179.64149475097656
 20
228.218994140625
 30
0.0
 11
177.29200744628906
 21
232.66400146484375
 31
0.0
  0
LINE
  5
281
  8
NECK_POCKET
 10
177.29200744628906
 20
232.66400146484375
 30
0.0
 11
175.45050048828125
 21
235.0135040283203
 31
0.0
  0
LINE
  5
282
  8
NECK_POCKET
 10
175.45050048828125
 20
235.0135040283203
 30
0.0
 11
171.5135040283203
 21
238.50599670410156
 31
0.0
  0
LINE
  5
283
  8
NECK_POCKET
 10
171.5135040283203
 20
238.50599670410156
 30
0.0
 11
169.2274932861328
 21
239.9029998779297
 31
0.0
  0
LINE
  5
284
  8
NECK_POCKET
 10
169.2274932861328
 20
239.9029998779297
 30
0.0
 11
165.73500061035156
 21
241.36349487304688
 31
0.0
  0
LINE
  5
285
  8
NECK_POCKET
 10
165.73500061035156
 20
241.36349487304688
 30
0.0
 11
165.67149353027344
 21
249.74549865722656
 31
0.0
  0
LINE
  5
286
  8
NECK_POCKET
 10
165.67149353027344
 20
249.74549865722656
 30
0.0
 11
160.5279998779297
 21
256.15899658203125
 31
0.0
  0
LINE
  5
287
  8
NECK_POCKET
 10
160.5279998779297
 20
256.15899658203125
 30
0.0
 11
157.98800659179688
 21
252.85699462890625
 31
0.0
  0
LINE
  5
288
  8
NECK_POCKET
 10
157.98800659179688
 20
252.85699462890625
 30
0.0
 11
157.16250610351562
 21
252.85699462890625
 31
0.0
  0
LINE
  5
289
  8
NECK_POCKET
 10
157.16250610351562
 20
252.85699462890625
 30
0.0
 11
152.08250427246094
 21
256.9209899902344
 31
0.0
  0
ENDSEC
  0
EOF
