  0
SECTION
  2
HEADER
  9
$ACADVER
  1
AC1009
  9
$DWGCODEPAGE
  3
ANSI_1252
  9
$INSBASE
 10
0.0
 20
0.0
 30
0.0
  9
$EXTMIN
 10
1e+20
 20
1e+20
 30
1e+20
  9
$EXTMAX
 10
-1e+20
 20
-1e+20
 30
-1e+20
  9
$LIMMIN
 10
0.0
 20
0.0
  9
$LIMMAX
 10
420.0
 20
297.0
  9
$ORTHOMODE
 70
0
  9
$REGENMODE
 70
1
  9
$FILLMODE
 70
1
  9
$DRAGMODE
 70
2
  9
$QTEXTMODE
 70
0
  9
$MIRRTEXT
 70
1
  9
$OSMODE
 70
20583
  9
$LTSCALE
 40
1.0
  9
$ATTMODE
 70
1
  9
$TEXTSIZE
 40
2.5
  9
$TRACEWID
 40
1.0
  9
$TEXTSTYLE
  7
Standard
  9
$CLAYER
  8
0
  9
$CELTYPE
  6
ByLayer
  9
$CECOLOR
 62
256
  9
$DIMSCALE
 40
1.0
  9
$DIMASZ
 40
2.5
  9
$DIMEXO
 40
0.625
  9
$DIMDLI
 40
3.75
  9
$DIMRND
 40
0.0
  9
$DIMDLE
 40
0.0
  9
$DIMEXE
 40
1.25
  9
$DIMTP
 40
0.0
  9
$DIMTM
 40
0.0
  9
$DIMTXT
 40
2.5
  9
$DIMCEN
 40
2.5
  9
$DIMTSZ
 40
0.0
  9
$DIMTOL
 70
0
  9
$DIMLIM
 70
0
  9
$DIMTIH
 70
0
  9
$DIMTOH
 70
0
  9
$DIMSE1
 70
0
  9
$DIMSE2
 70
0
  9
$DIMTAD
 70
1
  9
$DIMZIN
 70
8
  9
$DIMBLK
  1

  9
$DIMASO
 70
1
  9
$DIMSHO
 70
1
  9
$DIMPOST
  1

  9
$DIMAPOST
  1

  9
$DIMALT
 70
0
  9
$DIMALTD
 70
3
  9
$DIMALTF
 40
0.03937007874
  9
$DIMLFAC
 40
1.0
  9
$DIMTOFL
 70
1
  9
$DIMTVP
 40
0.0
  9
$DIMTIX
 70
0
  9
$DIMSOXD
 70
0
  9
$DIMSAH
 70
0
  9
$DIMBLK1
  1

  9
$DIMBLK2
  1

  9
$DIMSTYLE
  2
ISO-25
  9
$DIMCLRD
 70
0
  9
$DIMCLRE
 70
0
  9
$DIMCLRT
 70
0
  9
$DIMTFAC
 40
1.0
  9
$DIMGAP
 40
0.625
  9
$COORDS
 70
1
  9
$ATTDIA
 70
0
  9
$ATTREQ
 70
1
  9
$HANDLING
 70
1
  9
$LUNITS
 70
2
  9
$LUPREC
 70
4
  9
$SKETCHINC
 40
1.0
  9
$FILLETRAD
 40
10.0
  9
$AUNITS
 70
0
  9
$AUPREC
 70
2
  9
$MENU
  1
.
  9
$ELEVATION
 40
0.0
  9
$PELEVATION
 40
0.0
  9
$THICKNESS
 40
0.0
  9
$LIMCHECK
 70
0
  9
$CHAMFERA
 40
0.0
  9
$CHAMFERB
 40
0.0
  9
$SKPOLY
 70
0
  9
$TDCREATE
 40
2461104.9007060183
  9
$TDUPDATE
 40
2461104.9007060183
  9
$TDINDWG
 40
0.0
  9
$TDUSRTIMER
 40
0.0
  9
$USRTIMER
 70
1
  9
$ANGBASE
 50
0.0
  9
$ANGDIR
 70
0
  9
$PDMODE
 70
0
  9
$PDSIZE
 40
0.0
  9
$PLINEWID
 40
0.0
  9
$SPLFRAME
 70
0
  9
$SPLINETYPE
 70
6
  9
$SPLINESEGS
 70
8
  9
$HANDSEED
  5
34D
  9
$SURFTAB1
 70
6
  9
$SURFTAB2
 70
6
  9
$SURFTYPE
 70
6
  9
$SURFU
 70
6
  9
$SURFV
 70
6
  9
$UCSNAME
  2

  9
$UCSORG
 10
0.0
 20
0.0
 30
0.0
  9
$UCSXDIR
 10
1.0
 20
0.0
 30
0.0
  9
$UCSYDIR
 10
0.0
 20
1.0
 30
0.0
  9
$PUCSNAME
  2

  9
$PUCSORG
 10
0.0
 20
0.0
 30
0.0
  9
$PUCSXDIR
 10
1.0
 20
0.0
 30
0.0
  9
$PUCSYDIR
 10
0.0
 20
1.0
 30
0.0
  9
$USERI1
 70
0
  9
$USERI2
 70
0
  9
$USERI3
 70
0
  9
$USERI4
 70
0
  9
$USERI5
 70
0
  9
$USERR1
 40
0.0
  9
$USERR2
 40
0.0
  9
$USERR3
 40
0.0
  9
$USERR4
 40
0.0
  9
$USERR5
 40
0.0
  9
$WORLDVIEW
 70
1
  9
$SHADEDGE
 70
3
  9
$SHADEDIF
 70
70
  9
$TILEMODE
 70
1
  9
$MAXACTVP
 70
64
  9
$PLIMCHECK
 70
0
  9
$PEXTMIN
 10
1e+20
 20
1e+20
 30
1e+20
  9
$PEXTMAX
 10
-1e+20
 20
-1e+20
 30
-1e+20
  9
$PLIMMIN
 10
0.0
 20
0.0
  9
$PLIMMAX
 10
420.0
 20
297.0
  9
$UNITMODE
 70
0
  9
$VISRETAIN
 70
1
  9
$PLINEGEN
 70
0
  9
$PSLTSCALE
 70
1
  0
ENDSEC
  0
SECTION
  2
TABLES
  0
TABLE
  2
VPORT
 70
1
  0
VPORT
  5
23
  2
*Active
 70
0
 10
0.0
 20
0.0
 11
1.0
 21
1.0
 12
0.0
 22
0.0
 13
0.0
 23
0.0
 14
0.5
 24
0.5
 15
0.5
 25
0.5
 16
0.0
 26
0.0
 36
1.0
 17
0.0
 27
0.0
 37
0.0
 40
1000.0
 41
1.34
 42
50.0
 43
0.0
 44
0.0
 50
0.0
 51
0.0
 71
0
 72
1000
 73
1
 74
3
 75
0
 76
0
 77
0
 78
0
  0
ENDTAB
  0
TABLE
  2
LTYPE
 70
3
  0
LTYPE
  5
24
  2
ByBlock
 70
0
  3

 72
65
 73
0
 40
0.0
  0
LTYPE
  5
25
  2
ByLayer
 70
0
  3

 72
65
 73
0
 40
0.0
  0
LTYPE
  5
26
  2
Continuous
 70
0
  3

 72
65
 73
0
 40
0.0
  0
ENDTAB
  0
TABLE
  2
LAYER
 70
2
  0
LAYER
  5
27
  2
0
 70
0
 62
7
  6
Continuous
  0
LAYER
  5
28
  2
Defpoints
 70
0
 62
7
  6
Continuous
  0
ENDTAB
  0
TABLE
  2
STYLE
 70
1
  0
STYLE
  5
29
  2
Standard
 70
0
 40
0.0
 41
1.0
 50
0.0
 71
0
 42
2.5
  3
txt
  4

  0
ENDTAB
  0
TABLE
  2
VIEW
 70
0
  0
ENDTAB
  0
TABLE
  2
UCS
 70
0
  0
ENDTAB
  0
TABLE
  2
APPID
 70
3
  0
APPID
  5
2A
  2
ACAD
 70
0
  0
APPID
  5
34B
  2
HATCHBACKGROUNDCOLOR
 70
0
  0
APPID
  5
34C
  2
EZDXF
 70
0
  0
ENDTAB
  0
TABLE
  2
DIMSTYLE
 70
1
  0
DIMSTYLE
105
2B
  2
Standard
 70
0
  3

  4

  5

  6

  7

 40
1.0
 41
2.5
 42
0.625
 43
3.75
 44
1.25
 45
0.0
 46
0.0
 47
0.0
 48
0.0
140
2.5
141
2.5
142
0.0
143
0.03937007874
144
1.0
145
0.0
146
1.0
147
0.625
 71
0
 72
0
 73
0
 74
0
 75
0
 76
0
 77
1
 78
8
170
0
171
3
172
1
173
0
174
0
175
0
176
0
177
0
178
0
  0
ENDTAB
  0
ENDSEC
  0
SECTION
  2
BLOCKS
  0
BLOCK
  5
18
  8
0
  2
$Model_Space
 70
0
 10
0.0
 20
0.0
 30
0.0
  3
$Model_Space
  1

1001
EZDXF
1000
CREATED_BY_EZDXF
1000
1.4.3 @ 2026-03-05T03:37:01.304929+00:00
1000
WRITTEN_BY_EZDXF
1000
1.4.3 @ 2026-03-05T03:37:01.865672+00:00
  0
ENDBLK
  5
19
  8
0
  0
BLOCK
  5
1C
  8
0
  2
$Paper_Space
 70
0
 10
0.0
 20
0.0
 30
0.0
  3
$Paper_Space
  1

  0
ENDBLK
  5
1D
  8
0
  0
ENDSEC
  0
SECTION
  2
ENTITIES
  0
LINE
  5
2D
  8
PICKGUARD
 10
13.779500007629395
 20
273.36749267578125
 30
0.0
 11
13.715999603271484
 21
6.2230000495910645
 31
0.0
  0
LINE
  5
2E
  8
PICKGUARD
 10
13.715999603271484
 20
6.2230000495910645
 30
0.0
 11
202.0570068359375
 21
6.1595001220703125
 31
0.0
  0
LINE
  5
2F
  8
PICKGUARD
 10
202.0570068359375
 20
6.1595001220703125
 30
0.0
 11
202.0570068359375
 21
273.3039855957031
 31
0.0
  0
LINE
  5
30
  8
PICKGUARD
 10
202.0570068359375
 20
273.3039855957031
 30
0.0
 11
13.779500007629395
 21
273.36749267578125
 31
0.0
  0
LINE
  5
31
  8
PICKGUARD
 10
13.970000267028809
 20
273.177001953125
 30
0.0
 11
201.8665008544922
 21
273.1134948730469
 31
0.0
  0
LINE
  5
32
  8
PICKGUARD
 10
201.8665008544922
 20
273.1134948730469
 30
0.0
 11
201.80299377441406
 21
6.349999904632568
 31
0.0
  0
LINE
  5
33
  8
PICKGUARD
 10
201.80299377441406
 20
6.349999904632568
 30
0.0
 11
13.906499862670898
 21
6.41349983215332
 31
0.0
  0
LINE
  5
34
  8
PICKGUARD
 10
13.906499862670898
 20
6.41349983215332
 30
0.0
 11
13.970000267028809
 21
273.177001953125
 31
0.0
  0
LINE
  5
35
  8
SMALL_FEATURE
 10
181.54649353027344
 20
39.43349838256836
 30
0.0
 11
188.34100341796875
 21
39.49700164794922
 31
0.0
  0
LINE
  5
36
  8
SMALL_FEATURE
 10
188.34100341796875
 20
39.49700164794922
 30
0.0
 11
188.531494140625
 21
38.98899841308594
 31
0.0
  0
LINE
  5
37
  8
SMALL_FEATURE
 10
188.531494140625
 20
38.98899841308594
 30
0.0
 11
188.59500122070312
 21
39.49700164794922
 31
0.0
  0
LINE
  5
38
  8
SMALL_FEATURE
 10
188.59500122070312
 20
39.49700164794922
 30
0.0
 11
198.7550048828125
 21
39.49700164794922
 31
0.0
  0
LINE
  5
39
  8
SMALL_FEATURE
 10
198.7550048828125
 20
39.49700164794922
 30
0.0
 11
198.81849670410156
 21
32.3849983215332
 31
0.0
  0
LINE
  5
3A
  8
SMALL_FEATURE
 10
198.81849670410156
 20
32.3849983215332
 30
0.0
 11
198.05650329589844
 21
32.32149887084961
 31
0.0
  0
LINE
  5
3B
  8
SMALL_FEATURE
 10
198.05650329589844
 20
32.32149887084961
 30
0.0
 11
197.35800170898438
 21
31.62299919128418
 31
0.0
  0
LINE
  5
3C
  8
SMALL_FEATURE
 10
197.35800170898438
 20
31.62299919128418
 30
0.0
 11
196.3419952392578
 21
29.273500442504883
 31
0.0
  0
LINE
  5
3D
  8
SMALL_FEATURE
 10
196.3419952392578
 20
29.273500442504883
 30
0.0
 11
195.83399963378906
 21
26.60650062561035
 31
0.0
  0
LINE
  5
3E
  8
SMALL_FEATURE
 10
195.83399963378906
 20
26.60650062561035
 30
0.0
 11
196.15150451660156
 21
26.60650062561035
 31
0.0
  0
LINE
  5
3F
  8
SMALL_FEATURE
 10
196.15150451660156
 20
26.60650062561035
 30
0.0
 11
196.27850341796875
 21
28.575000762939453
 31
0.0
  0
LINE
  5
40
  8
SMALL_FEATURE
 10
196.27850341796875
 20
28.575000762939453
 30
0.0
 11
197.29449462890625
 21
31.114999771118164
 31
0.0
  0
LINE
  5
41
  8
SMALL_FEATURE
 10
197.29449462890625
 20
31.114999771118164
 30
0.0
 11
197.86599731445312
 21
32.00400161743164
 31
0.0
  0
LINE
  5
42
  8
SMALL_FEATURE
 10
197.86599731445312
 20
32.00400161743164
 30
0.0
 11
198.7550048828125
 21
32.00400161743164
 31
0.0
  0
LINE
  5
43
  8
SMALL_FEATURE
 10
198.7550048828125
 20
32.00400161743164
 30
0.0
 11
198.81849670410156
 21
24.574499130249023
 31
0.0
  0
LINE
  5
44
  8
SMALL_FEATURE
 10
198.81849670410156
 20
24.574499130249023
 30
0.0
 11
194.50050354003906
 21
24.51099967956543
 31
0.0
  0
LINE
  5
45
  8
SMALL_FEATURE
 10
194.50050354003906
 20
24.51099967956543
 30
0.0
 11
194.43699645996094
 21
24.828500747680664
 31
0.0
  0
LINE
  5
46
  8
SMALL_FEATURE
 10
194.43699645996094
 20
24.828500747680664
 30
0.0
 11
194.2465057373047
 21
24.574499130249023
 31
0.0
  0
LINE
  5
47
  8
SMALL_FEATURE
 10
194.2465057373047
 20
24.574499130249023
 30
0.0
 11
193.29400634765625
 21
24.828500747680664
 31
0.0
  0
LINE
  5
48
  8
SMALL_FEATURE
 10
193.29400634765625
 20
24.828500747680664
 30
0.0
 11
193.10350036621094
 21
24.51099967956543
 31
0.0
  0
LINE
  5
49
  8
SMALL_FEATURE
 10
193.10350036621094
 20
24.51099967956543
 30
0.0
 11
190.3094940185547
 21
24.51099967956543
 31
0.0
  0
LINE
  5
4A
  8
SMALL_FEATURE
 10
190.3094940185547
 20
24.51099967956543
 30
0.0
 11
190.24600219726562
 21
24.828500747680664
 31
0.0
  0
LINE
  5
4B
  8
SMALL_FEATURE
 10
190.24600219726562
 20
24.828500747680664
 30
0.0
 11
189.61099243164062
 21
25.018999099731445
 31
0.0
  0
LINE
  5
4C
  8
SMALL_FEATURE
 10
189.61099243164062
 20
25.018999099731445
 30
0.0
 11
189.54750061035156
 21
24.574499130249023
 31
0.0
  0
LINE
  5
4D
  8
SMALL_FEATURE
 10
189.54750061035156
 20
24.574499130249023
 30
0.0
 11
181.67349243164062
 21
24.51099967956543
 31
0.0
  0
LINE
  5
4E
  8
SMALL_FEATURE
 10
181.67349243164062
 20
24.51099967956543
 30
0.0
 11
181.54649353027344
 21
25.844499588012695
 31
0.0
  0
LINE
  5
4F
  8
SMALL_FEATURE
 10
181.54649353027344
 20
25.844499588012695
 30
0.0
 11
182.1179962158203
 21
25.908000946044922
 31
0.0
  0
LINE
  5
50
  8
SMALL_FEATURE
 10
182.1179962158203
 20
25.908000946044922
 30
0.0
 11
182.6894989013672
 21
26.60650062561035
 31
0.0
  0
LINE
  5
51
  8
SMALL_FEATURE
 10
182.6894989013672
 20
26.60650062561035
 30
0.0
 11
183.51499938964844
 21
26.542999267578125
 31
0.0
  0
LINE
  5
52
  8
SMALL_FEATURE
 10
183.51499938964844
 20
26.542999267578125
 30
0.0
 11
183.51499938964844
 21
25.717500686645508
 31
0.0
  0
LINE
  5
53
  8
SMALL_FEATURE
 10
183.51499938964844
 20
25.717500686645508
 30
0.0
 11
183.70550537109375
 21
26.225500106811523
 31
0.0
  0
LINE
  5
54
  8
SMALL_FEATURE
 10
183.70550537109375
 20
26.225500106811523
 30
0.0
 11
184.46749877929688
 21
26.225500106811523
 31
0.0
  0
LINE
  5
55
  8
SMALL_FEATURE
 10
184.46749877929688
 20
26.225500106811523
 30
0.0
 11
186.1820068359375
 21
29.972000122070312
 31
0.0
  0
LINE
  5
56
  8
SMALL_FEATURE
 10
186.1820068359375
 20
29.972000122070312
 30
0.0
 11
186.7534942626953
 21
31.686500549316406
 31
0.0
  0
LINE
  5
57
  8
SMALL_FEATURE
 10
186.7534942626953
 20
31.686500549316406
 30
0.0
 11
187.3249969482422
 21
31.686500549316406
 31
0.0
  0
LINE
  5
58
  8
SMALL_FEATURE
 10
187.3249969482422
 20
31.686500549316406
 30
0.0
 11
187.5155029296875
 21
32.638999938964844
 31
0.0
  0
LINE
  5
59
  8
SMALL_FEATURE
 10
187.5155029296875
 20
32.638999938964844
 30
0.0
 11
189.86500549316406
 21
32.57550048828125
 31
0.0
  0
LINE
  5
5A
  8
SMALL_FEATURE
 10
189.86500549316406
 20
32.57550048828125
 30
0.0
 11
189.86500549316406
 21
32.829498291015625
 31
0.0
  0
LINE
  5
5B
  8
SMALL_FEATURE
 10
189.86500549316406
 20
32.829498291015625
 30
0.0
 11
188.59500122070312
 21
32.829498291015625
 31
0.0
  0
LINE
  5
5C
  8
SMALL_FEATURE
 10
188.59500122070312
 20
32.829498291015625
 30
0.0
 11
188.02349853515625
 21
33.21049880981445
 31
0.0
  0
LINE
  5
5D
  8
SMALL_FEATURE
 10
188.02349853515625
 20
33.21049880981445
 30
0.0
 11
188.02349853515625
 21
33.654998779296875
 31
0.0
  0
LINE
  5
5E
  8
SMALL_FEATURE
 10
188.02349853515625
 20
33.654998779296875
 30
0.0
 11
187.3885040283203
 21
33.654998779296875
 31
0.0
  0
LINE
  5
5F
  8
SMALL_FEATURE
 10
187.3885040283203
 20
33.654998779296875
 30
0.0
 11
187.3885040283203
 21
34.67100143432617
 31
0.0
  0
LINE
  5
60
  8
SMALL_FEATURE
 10
187.3885040283203
 20
34.67100143432617
 30
0.0
 11
186.3090057373047
 21
33.337501525878906
 31
0.0
  0
LINE
  5
61
  8
SMALL_FEATURE
 10
186.3090057373047
 20
33.337501525878906
 30
0.0
 11
183.83250427246094
 21
31.813499450683594
 31
0.0
  0
LINE
  5
62
  8
SMALL_FEATURE
 10
183.83250427246094
 20
31.813499450683594
 30
0.0
 11
183.0070037841797
 21
30.60700035095215
 31
0.0
  0
LINE
  5
63
  8
SMALL_FEATURE
 10
183.0070037841797
 20
30.60700035095215
 30
0.0
 11
183.13400268554688
 21
29.844999313354492
 31
0.0
  0
LINE
  5
64
  8
SMALL_FEATURE
 10
183.13400268554688
 20
29.844999313354492
 30
0.0
 11
183.26100158691406
 21
30.797500610351562
 31
0.0
  0
LINE
  5
65
  8
SMALL_FEATURE
 10
183.26100158691406
 20
30.797500610351562
 30
0.0
 11
183.83250427246094
 21
31.496000289916992
 31
0.0
  0
LINE
  5
66
  8
SMALL_FEATURE
 10
183.83250427246094
 20
31.496000289916992
 30
0.0
 11
185.03900146484375
 21
32.19449996948242
 31
0.0
  0
LINE
  5
67
  8
SMALL_FEATURE
 10
185.03900146484375
 20
32.19449996948242
 30
0.0
 11
185.9915008544922
 21
32.19449996948242
 31
0.0
  0
LINE
  5
68
  8
SMALL_FEATURE
 10
185.9915008544922
 20
32.19449996948242
 30
0.0
 11
186.05499267578125
 21
31.178499221801758
 31
0.0
  0
LINE
  5
69
  8
SMALL_FEATURE
 10
186.05499267578125
 20
31.178499221801758
 30
0.0
 11
185.22950744628906
 21
28.95599937438965
 31
0.0
  0
LINE
  5
6A
  8
SMALL_FEATURE
 10
185.22950744628906
 20
28.95599937438965
 30
0.0
 11
183.32449340820312
 21
28.38450050354004
 31
0.0
  0
LINE
  5
6B
  8
SMALL_FEATURE
 10
183.32449340820312
 20
28.38450050354004
 30
0.0
 11
183.32449340820312
 21
27.622499465942383
 31
0.0
  0
LINE
  5
6C
  8
SMALL_FEATURE
 10
183.32449340820312
 20
27.622499465942383
 30
0.0
 11
182.6894989013672
 21
26.73349952697754
 31
0.0
  0
LINE
  5
6D
  8
SMALL_FEATURE
 10
182.6894989013672
 20
26.73349952697754
 30
0.0
 11
181.61000061035156
 21
26.542999267578125
 31
0.0
  0
LINE
  5
6E
  8
SMALL_FEATURE
 10
181.61000061035156
 20
26.542999267578125
 30
0.0
 11
181.54649353027344
 21
39.43349838256836
 31
0.0
  0
LINE
  5
6F
  8
SMALL_FEATURE
 10
178.43499755859375
 20
85.40750122070312
 30
0.0
 11
178.49850463867188
 21
67.18299865722656
 31
0.0
  0
LINE
  5
70
  8
SMALL_FEATURE
 10
178.49850463867188
 20
67.18299865722656
 30
0.0
 11
177.03799438476562
 21
67.11949920654297
 31
0.0
  0
LINE
  5
71
  8
SMALL_FEATURE
 10
177.03799438476562
 20
67.11949920654297
 30
0.0
 11
176.97450256347656
 21
66.61150360107422
 31
0.0
  0
LINE
  5
72
  8
SMALL_FEATURE
 10
176.97450256347656
 20
66.61150360107422
 30
0.0
 11
176.02200317382812
 21
66.61150360107422
 31
0.0
  0
LINE
  5
73
  8
SMALL_FEATURE
 10
176.02200317382812
 20
66.61150360107422
 30
0.0
 11
175.76800537109375
 21
67.11949920654297
 31
0.0
  0
LINE
  5
74
  8
SMALL_FEATURE
 10
175.76800537109375
 20
67.11949920654297
 30
0.0
 11
175.38699340820312
 21
66.61150360107422
 31
0.0
  0
LINE
  5
75
  8
SMALL_FEATURE
 10
175.38699340820312
 20
66.61150360107422
 30
0.0
 11
174.11700439453125
 21
66.67500305175781
 31
0.0
  0
LINE
  5
76
  8
SMALL_FEATURE
 10
174.11700439453125
 20
66.67500305175781
 30
0.0
 11
174.05349731445312
 21
66.04000091552734
 31
0.0
  0
LINE
  5
77
  8
SMALL_FEATURE
 10
174.05349731445312
 20
66.04000091552734
 30
0.0
 11
173.1645050048828
 21
66.04000091552734
 31
0.0
  0
LINE
  5
78
  8
SMALL_FEATURE
 10
173.1645050048828
 20
66.04000091552734
 30
0.0
 11
173.1009979248047
 21
66.802001953125
 31
0.0
  0
LINE
  5
79
  8
SMALL_FEATURE
 10
173.1009979248047
 20
66.802001953125
 30
0.0
 11
172.27549743652344
 21
66.802001953125
 31
0.0
  0
LINE
  5
7A
  8
SMALL_FEATURE
 10
172.27549743652344
 20
66.802001953125
 30
0.0
 11
172.21200561523438
 21
66.23049926757812
 31
0.0
  0
LINE
  5
7B
  8
SMALL_FEATURE
 10
172.21200561523438
 20
66.23049926757812
 30
0.0
 11
171.322998046875
 21
66.23049926757812
 31
0.0
  0
LINE
  5
7C
  8
SMALL_FEATURE
 10
171.322998046875
 20
66.23049926757812
 30
0.0
 11
171.25950622558594
 21
66.67500305175781
 31
0.0
  0
LINE
  5
7D
  8
SMALL_FEATURE
 10
171.25950622558594
 20
66.67500305175781
 30
0.0
 11
169.5449981689453
 21
66.802001953125
 31
0.0
  0
LINE
  5
7E
  8
SMALL_FEATURE
 10
169.5449981689453
 20
66.802001953125
 30
0.0
 11
169.48150634765625
 21
67.11949920654297
 31
0.0
  0
LINE
  5
7F
  8
SMALL_FEATURE
 10
169.48150634765625
 20
67.11949920654297
 30
0.0
 11
169.2274932861328
 21
66.802001953125
 31
0.0
  0
LINE
  5
80
  8
SMALL_FEATURE
 10
169.2274932861328
 20
66.802001953125
 30
0.0
 11
168.1479949951172
 21
66.802001953125
 31
0.0
  0
LINE
  5
81
  8
SMALL_FEATURE
 10
168.1479949951172
 20
66.802001953125
 30
0.0
 11
168.08450317382812
 21
67.11949920654297
 31
0.0
  0
LINE
  5
82
  8
SMALL_FEATURE
 10
168.08450317382812
 20
67.11949920654297
 30
0.0
 11
161.54400634765625
 21
67.11949920654297
 31
0.0
  0
LINE
  5
83
  8
SMALL_FEATURE
 10
161.54400634765625
 20
67.11949920654297
 30
0.0
 11
162.11549377441406
 21
72.13600158691406
 31
0.0
  0
LINE
  5
84
  8
SMALL_FEATURE
 10
162.11549377441406
 20
72.13600158691406
 30
0.0
 11
164.5919952392578
 21
72.26300048828125
 31
0.0
  0
LINE
  5
85
  8
SMALL_FEATURE
 10
164.5919952392578
 20
72.26300048828125
 30
0.0
 11
168.91000366210938
 21
73.21549987792969
 31
0.0
  0
LINE
  5
86
  8
SMALL_FEATURE
 10
168.91000366210938
 20
73.21549987792969
 30
0.0
 11
170.56100463867188
 21
74.23149871826172
 31
0.0
  0
LINE
  5
87
  8
SMALL_FEATURE
 10
170.56100463867188
 20
74.23149871826172
 30
0.0
 11
172.0850067138672
 21
75.88249969482422
 31
0.0
  0
LINE
  5
88
  8
SMALL_FEATURE
 10
172.0850067138672
 20
75.88249969482422
 30
0.0
 11
173.22799682617188
 21
78.48600006103516
 31
0.0
  0
LINE
  5
89
  8
SMALL_FEATURE
 10
173.22799682617188
 20
78.48600006103516
 30
0.0
 11
173.35499572753906
 21
84.64550018310547
 31
0.0
  0
LINE
  5
8A
  8
SMALL_FEATURE
 10
173.35499572753906
 20
84.64550018310547
 30
0.0
 11
176.0854949951172
 21
85.47100067138672
 31
0.0
  0
LINE
  5
8B
  8
SMALL_FEATURE
 10
176.0854949951172
 20
85.47100067138672
 30
0.0
 11
178.43499755859375
 21
85.40750122070312
 31
0.0
  0
LINE
  5
8C
  8
SMALL_FEATURE
 10
162.052001953125
 20
174.87899780273438
 30
0.0
 11
162.9409942626953
 21
174.8155059814453
 31
0.0
  0
LINE
  5
8D
  8
SMALL_FEATURE
 10
162.9409942626953
 20
174.8155059814453
 30
0.0
 11
167.57650756835938
 21
171.06900024414062
 31
0.0
  0
LINE
  5
8E
  8
SMALL_FEATURE
 10
167.57650756835938
 20
171.06900024414062
 30
0.0
 11
169.989501953125
 21
174.1804962158203
 31
0.0
  0
LINE
  5
8F
  8
SMALL_FEATURE
 10
169.989501953125
 20
174.1804962158203
 30
0.0
 11
170.8784942626953
 21
174.11700439453125
 31
0.0
  0
LINE
  5
90
  8
SMALL_FEATURE
 10
170.8784942626953
 20
174.11700439453125
 30
0.0
 11
175.45050048828125
 21
168.4654998779297
 31
0.0
  0
LINE
  5
91
  8
SMALL_FEATURE
 10
175.45050048828125
 20
168.4654998779297
 30
0.0
 11
175.45050048828125
 21
160.2104949951172
 31
0.0
  0
LINE
  5
92
  8
SMALL_FEATURE
 10
175.45050048828125
 20
160.2104949951172
 30
0.0
 11
171.89450073242188
 21
160.78199768066406
 31
0.0
  0
LINE
  5
93
  8
SMALL_FEATURE
 10
171.89450073242188
 20
160.78199768066406
 30
0.0
 11
171.70399475097656
 21
161.22650146484375
 31
0.0
  0
LINE
  5
94
  8
SMALL_FEATURE
 10
171.70399475097656
 20
161.22650146484375
 30
0.0
 11
169.2274932861328
 21
160.90899658203125
 31
0.0
  0
LINE
  5
95
  8
SMALL_FEATURE
 10
169.2274932861328
 20
160.90899658203125
 30
0.0
 11
165.67149353027344
 21
161.22650146484375
 31
0.0
  0
LINE
  5
96
  8
SMALL_FEATURE
 10
165.67149353027344
 20
161.22650146484375
 30
0.0
 11
165.4810028076172
 21
160.78199768066406
 31
0.0
  0
LINE
  5
97
  8
SMALL_FEATURE
 10
165.4810028076172
 20
160.78199768066406
 30
0.0
 11
161.8614959716797
 21
160.2740020751953
 31
0.0
  0
LINE
  5
98
  8
SMALL_FEATURE
 10
161.8614959716797
 20
160.2740020751953
 30
0.0
 11
162.052001953125
 21
174.87899780273438
 31
0.0
  0
LINE
  5
99
  8
SMALL_FEATURE
 10
159.70249938964844
 20
123.9520034790039
 30
0.0
 11
162.55999755859375
 21
124.0155029296875
 31
0.0
  0
LINE
  5
9A
  8
SMALL_FEATURE
 10
162.55999755859375
 20
124.0155029296875
 30
0.0
 11
162.62350463867188
 21
123.6344985961914
 31
0.0
  0
LINE
  5
9B
  8
SMALL_FEATURE
 10
162.62350463867188
 20
123.6344985961914
 30
0.0
 11
165.4810028076172
 21
123.9520034790039
 31
0.0
  0
LINE
  5
9C
  8
SMALL_FEATURE
 10
165.4810028076172
 20
123.9520034790039
 30
0.0
 11
165.67149353027344
 21
120.20549774169922
 31
0.0
  0
LINE
  5
9D
  8
SMALL_FEATURE
 10
165.67149353027344
 20
120.20549774169922
 30
0.0
 11
165.79849243164062
 21
124.0155029296875
 31
0.0
  0
LINE
  5
9E
  8
SMALL_FEATURE
 10
165.79849243164062
 20
124.0155029296875
 30
0.0
 11
171.57699584960938
 21
124.0155029296875
 31
0.0
  0
LINE
  5
9F
  8
SMALL_FEATURE
 10
171.57699584960938
 20
124.0155029296875
 30
0.0
 11
171.7675018310547
 21
120.20549774169922
 31
0.0
  0
LINE
  5
A0
  8
SMALL_FEATURE
 10
171.7675018310547
 20
120.20549774169922
 30
0.0
 11
171.89450073242188
 21
123.9520034790039
 31
0.0
  0
LINE
  5
A1
  8
SMALL_FEATURE
 10
171.89450073242188
 20
123.9520034790039
 30
0.0
 11
174.7519989013672
 21
123.6344985961914
 31
0.0
  0
LINE
  5
A2
  8
SMALL_FEATURE
 10
174.7519989013672
 20
123.6344985961914
 30
0.0
 11
174.8155059814453
 21
124.0155029296875
 31
0.0
  0
LINE
  5
A3
  8
SMALL_FEATURE
 10
174.8155059814453
 20
124.0155029296875
 30
0.0
 11
177.6094970703125
 21
124.0155029296875
 31
0.0
  0
LINE
  5
A4
  8
SMALL_FEATURE
 10
177.6094970703125
 20
124.0155029296875
 30
0.0
 11
177.67300415039062
 21
115.95099639892578
 31
0.0
  0
LINE
  5
A5
  8
SMALL_FEATURE
 10
177.67300415039062
 20
115.95099639892578
 30
0.0
 11
174.8155059814453
 21
116.26850128173828
 31
0.0
  0
LINE
  5
A6
  8
SMALL_FEATURE
 10
174.8155059814453
 20
116.26850128173828
 30
0.0
 11
174.7519989013672
 21
115.88749694824219
 31
0.0
  0
LINE
  5
A7
  8
SMALL_FEATURE
 10
174.7519989013672
 20
115.88749694824219
 30
0.0
 11
162.62350463867188
 21
115.88749694824219
 31
0.0
  0
LINE
  5
A8
  8
SMALL_FEATURE
 10
162.62350463867188
 20
115.88749694824219
 30
0.0
 11
162.4965057373047
 21
116.26850128173828
 31
0.0
  0
LINE
  5
A9
  8
SMALL_FEATURE
 10
162.4965057373047
 20
116.26850128173828
 30
0.0
 11
159.76600646972656
 21
115.88749694824219
 31
0.0
  0
LINE
  5
AA
  8
SMALL_FEATURE
 10
159.76600646972656
 20
115.88749694824219
 30
0.0
 11
159.70249938964844
 21
123.9520034790039
 31
0.0
  0
LINE
  5
AB
  8
SMALL_FEATURE
 10
161.79800415039062
 20
159.63900756835938
 30
0.0
 11
164.8459930419922
 21
160.5279998779297
 31
0.0
  0
LINE
  5
AC
  8
SMALL_FEATURE
 10
164.8459930419922
 20
160.5279998779297
 30
0.0
 11
165.67149353027344
 21
160.5279998779297
 31
0.0
  0
LINE
  5
AD
  8
SMALL_FEATURE
 10
165.67149353027344
 20
160.5279998779297
 30
0.0
 11
165.79849243164062
 21
160.2740020751953
 31
0.0
  0
LINE
  5
AE
  8
SMALL_FEATURE
 10
165.79849243164062
 20
160.2740020751953
 30
0.0
 11
168.08450317382812
 21
160.8455047607422
 31
0.0
  0
LINE
  5
AF
  8
SMALL_FEATURE
 10
168.08450317382812
 20
160.8455047607422
 30
0.0
 11
171.57699584960938
 21
160.2740020751953
 31
0.0
  0
LINE
  5
B0
  8
SMALL_FEATURE
 10
171.57699584960938
 20
160.2740020751953
 30
0.0
 11
171.70399475097656
 21
160.5279998779297
 31
0.0
  0
LINE
  5
B1
  8
SMALL_FEATURE
 10
171.70399475097656
 20
160.5279998779297
 30
0.0
 11
172.5294952392578
 21
160.5279998779297
 31
0.0
  0
LINE
  5
B2
  8
SMALL_FEATURE
 10
172.5294952392578
 20
160.5279998779297
 30
0.0
 11
175.45050048828125
 21
159.76600646972656
 31
0.0
  0
LINE
  5
B3
  8
SMALL_FEATURE
 10
175.45050048828125
 20
159.76600646972656
 30
0.0
 11
175.64100646972656
 21
152.781005859375
 31
0.0
  0
LINE
  5
B4
  8
SMALL_FEATURE
 10
175.64100646972656
 20
152.781005859375
 30
0.0
 11
172.9739990234375
 21
152.97149658203125
 31
0.0
  0
LINE
  5
B5
  8
SMALL_FEATURE
 10
172.9739990234375
 20
152.97149658203125
 30
0.0
 11
172.91050720214844
 21
152.6540069580078
 31
0.0
  0
LINE
  5
B6
  8
SMALL_FEATURE
 10
172.91050720214844
 20
152.6540069580078
 30
0.0
 11
164.65550231933594
 21
152.6540069580078
 31
0.0
  0
LINE
  5
B7
  8
SMALL_FEATURE
 10
164.65550231933594
 20
152.6540069580078
 30
0.0
 11
164.5919952392578
 21
153.03500366210938
 31
0.0
  0
LINE
  5
B8
  8
SMALL_FEATURE
 10
164.5919952392578
 20
153.03500366210938
 30
0.0
 11
161.79800415039062
 21
152.6540069580078
 31
0.0
  0
LINE
  5
B9
  8
SMALL_FEATURE
 10
161.79800415039062
 20
152.6540069580078
 30
0.0
 11
161.79800415039062
 21
159.63900756835938
 31
0.0
  0
LINE
  5
BA
  8
SMALL_FEATURE
 10
161.7344970703125
 20
152.3365020751953
 30
0.0
 11
164.5919952392578
 21
152.08250427246094
 31
0.0
  0
LINE
  5
BB
  8
SMALL_FEATURE
 10
164.5919952392578
 20
152.08250427246094
 30
0.0
 11
164.65550231933594
 21
152.4635009765625
 31
0.0
  0
LINE
  5
BC
  8
SMALL_FEATURE
 10
164.65550231933594
 20
152.4635009765625
 30
0.0
 11
172.91050720214844
 21
152.4635009765625
 31
0.0
  0
LINE
  5
BD
  8
SMALL_FEATURE
 10
172.91050720214844
 20
152.4635009765625
 30
0.0
 11
173.1645050048828
 21
152.08250427246094
 31
0.0
  0
LINE
  5
BE
  8
SMALL_FEATURE
 10
173.1645050048828
 20
152.08250427246094
 30
0.0
 11
175.57749938964844
 21
152.39999389648438
 31
0.0
  0
LINE
  5
BF
  8
SMALL_FEATURE
 10
175.57749938964844
 20
152.39999389648438
 30
0.0
 11
175.70449829101562
 21
144.7165069580078
 31
0.0
  0
LINE
  5
C0
  8
SMALL_FEATURE
 10
175.70449829101562
 20
144.7165069580078
 30
0.0
 11
174.8155059814453
 21
144.6529998779297
 31
0.0
  0
LINE
  5
C1
  8
SMALL_FEATURE
 10
174.8155059814453
 20
144.6529998779297
 30
0.0
 11
174.7519989013672
 21
145.03399658203125
 31
0.0
  0
LINE
  5
C2
  8
SMALL_FEATURE
 10
174.7519989013672
 20
145.03399658203125
 30
0.0
 11
171.89450073242188
 21
144.7165069580078
 31
0.0
  0
LINE
  5
C3
  8
SMALL_FEATURE
 10
171.89450073242188
 20
144.7165069580078
 30
0.0
 11
171.70399475097656
 21
148.46299743652344
 31
0.0
  0
LINE
  5
C4
  8
SMALL_FEATURE
 10
171.70399475097656
 20
148.46299743652344
 30
0.0
 11
171.57699584960938
 21
144.6529998779297
 31
0.0
  0
LINE
  5
C5
  8
SMALL_FEATURE
 10
171.57699584960938
 20
144.6529998779297
 30
0.0
 11
165.79849243164062
 21
144.6529998779297
 31
0.0
  0
LINE
  5
C6
  8
SMALL_FEATURE
 10
165.79849243164062
 20
144.6529998779297
 30
0.0
 11
165.60800170898438
 21
148.46299743652344
 31
0.0
  0
LINE
  5
C7
  8
SMALL_FEATURE
 10
165.60800170898438
 20
148.46299743652344
 30
0.0
 11
165.4810028076172
 21
144.7165069580078
 31
0.0
  0
LINE
  5
C8
  8
SMALL_FEATURE
 10
165.4810028076172
 20
144.7165069580078
 30
0.0
 11
162.62350463867188
 21
145.03399658203125
 31
0.0
  0
LINE
  5
C9
  8
SMALL_FEATURE
 10
162.62350463867188
 20
145.03399658203125
 30
0.0
 11
162.55999755859375
 21
144.6529998779297
 31
0.0
  0
LINE
  5
CA
  8
SMALL_FEATURE
 10
162.55999755859375
 20
144.6529998779297
 30
0.0
 11
161.7344970703125
 21
144.6529998779297
 31
0.0
  0
LINE
  5
CB
  8
SMALL_FEATURE
 10
161.7344970703125
 20
144.6529998779297
 30
0.0
 11
161.7344970703125
 21
152.3365020751953
 31
0.0
  0
LINE
  5
CC
  8
SMALL_FEATURE
 10
185.29299926757812
 20
24.256999969482422
 30
0.0
 11
198.7550048828125
 21
24.320499420166016
 31
0.0
  0
LINE
  5
CD
  8
SMALL_FEATURE
 10
198.7550048828125
 20
24.320499420166016
 30
0.0
 11
198.81849670410156
 21
17.8435001373291
 31
0.0
  0
LINE
  5
CE
  8
SMALL_FEATURE
 10
198.81849670410156
 20
17.8435001373291
 30
0.0
 11
185.35650634765625
 21
17.780000686645508
 31
0.0
  0
LINE
  5
CF
  8
SMALL_FEATURE
 10
185.35650634765625
 20
17.780000686645508
 30
0.0
 11
185.29299926757812
 21
24.256999969482422
 31
0.0
  0
LINE
  5
D0
  8
SMALL_FEATURE
 10
159.70249938964844
 20
137.54100036621094
 30
0.0
 11
165.4810028076172
 21
137.73150634765625
 31
0.0
  0
LINE
  5
D1
  8
SMALL_FEATURE
 10
165.4810028076172
 20
137.73150634765625
 30
0.0
 11
165.54449462890625
 21
134.11199951171875
 31
0.0
  0
LINE
  5
D2
  8
SMALL_FEATURE
 10
165.54449462890625
 20
134.11199951171875
 30
0.0
 11
171.70399475097656
 21
134.04849243164062
 31
0.0
  0
LINE
  5
D3
  8
SMALL_FEATURE
 10
171.70399475097656
 20
134.04849243164062
 30
0.0
 11
171.89450073242188
 21
137.73150634765625
 31
0.0
  0
LINE
  5
D4
  8
SMALL_FEATURE
 10
171.89450073242188
 20
137.73150634765625
 30
0.0
 11
177.6094970703125
 21
137.66799926757812
 31
0.0
  0
LINE
  5
D5
  8
SMALL_FEATURE
 10
177.6094970703125
 20
137.66799926757812
 30
0.0
 11
177.67300415039062
 21
134.68350219726562
 31
0.0
  0
LINE
  5
D6
  8
SMALL_FEATURE
 10
177.67300415039062
 20
134.68350219726562
 30
0.0
 11
176.21249389648438
 21
134.55650329589844
 31
0.0
  0
LINE
  5
D7
  8
SMALL_FEATURE
 10
176.21249389648438
 20
134.55650329589844
 30
0.0
 11
177.67300415039062
 21
134.36599731445312
 31
0.0
  0
LINE
  5
D8
  8
SMALL_FEATURE
 10
177.67300415039062
 20
134.36599731445312
 30
0.0
 11
177.6094970703125
 21
132.90550231933594
 31
0.0
  0
LINE
  5
D9
  8
SMALL_FEATURE
 10
177.6094970703125
 20
132.90550231933594
 30
0.0
 11
177.03799438476562
 21
132.20700073242188
 31
0.0
  0
LINE
  5
DA
  8
SMALL_FEATURE
 10
177.03799438476562
 20
132.20700073242188
 30
0.0
 11
176.02200317382812
 21
131.8260040283203
 31
0.0
  0
LINE
  5
DB
  8
SMALL_FEATURE
 10
176.02200317382812
 20
131.8260040283203
 30
0.0
 11
160.8455047607422
 21
131.88949584960938
 31
0.0
  0
LINE
  5
DC
  8
SMALL_FEATURE
 10
160.8455047607422
 20
131.88949584960938
 30
0.0
 11
159.70249938964844
 21
133.1595001220703
 31
0.0
  0
LINE
  5
DD
  8
SMALL_FEATURE
 10
159.70249938964844
 20
133.1595001220703
 30
0.0
 11
159.70249938964844
 21
137.54100036621094
 31
0.0
  0
LINE
  5
DE
  8
SMALL_FEATURE
 10
173.29150390625
 20
84.3915023803711
 30
0.0
 11
173.1645050048828
 21
78.29550170898438
 31
0.0
  0
LINE
  5
DF
  8
SMALL_FEATURE
 10
173.1645050048828
 20
78.29550170898438
 30
0.0
 11
172.72000122070312
 21
77.02549743652344
 31
0.0
  0
LINE
  5
E0
  8
SMALL_FEATURE
 10
172.72000122070312
 20
77.02549743652344
 30
0.0
 11
171.25950622558594
 21
74.93000030517578
 31
0.0
  0
LINE
  5
E1
  8
SMALL_FEATURE
 10
171.25950622558594
 20
74.93000030517578
 30
0.0
 11
169.92599487304688
 21
73.78700256347656
 31
0.0
  0
LINE
  5
E2
  8
SMALL_FEATURE
 10
169.92599487304688
 20
73.78700256347656
 30
0.0
 11
167.70350646972656
 21
72.83450317382812
 31
0.0
  0
LINE
  5
E3
  8
SMALL_FEATURE
 10
167.70350646972656
 20
72.83450317382812
 30
0.0
 11
162.3695068359375
 21
72.19950103759766
 31
0.0
  0
LINE
  5
E4
  8
SMALL_FEATURE
 10
162.3695068359375
 20
72.19950103759766
 30
0.0
 11
162.30599975585938
 21
73.0250015258789
 31
0.0
  0
LINE
  5
E5
  8
SMALL_FEATURE
 10
162.30599975585938
 20
73.0250015258789
 30
0.0
 11
162.87750244140625
 21
74.6760025024414
 31
0.0
  0
LINE
  5
E6
  8
SMALL_FEATURE
 10
162.87750244140625
 20
74.6760025024414
 30
0.0
 11
165.2270050048828
 21
78.67649841308594
 31
0.0
  0
LINE
  5
E7
  8
SMALL_FEATURE
 10
165.2270050048828
 20
78.67649841308594
 30
0.0
 11
168.59249877929688
 21
82.04199981689453
 31
0.0
  0
LINE
  5
E8
  8
SMALL_FEATURE
 10
168.59249877929688
 20
82.04199981689453
 30
0.0
 11
172.27549743652344
 21
84.2645034790039
 31
0.0
  0
LINE
  5
E9
  8
SMALL_FEATURE
 10
172.27549743652344
 20
84.2645034790039
 30
0.0
 11
173.29150390625
 21
84.3915023803711
 31
0.0
  0
LINE
  5
EA
  8
SMALL_FEATURE
 10
88.07450103759766
 20
191.19850158691406
 30
0.0
 11
92.83699798583984
 21
191.13499450683594
 31
0.0
  0
LINE
  5
EB
  8
SMALL_FEATURE
 10
92.83699798583984
 20
191.13499450683594
 30
0.0
 11
92.83699798583984
 21
179.260498046875
 31
0.0
  0
LINE
  5
EC
  8
SMALL_FEATURE
 10
92.83699798583984
 20
179.260498046875
 30
0.0
 11
91.947998046875
 21
178.8159942626953
 31
0.0
  0
LINE
  5
ED
  8
SMALL_FEATURE
 10
91.947998046875
 20
178.8159942626953
 30
0.0
 11
92.3290023803711
 21
178.68899536132812
 31
0.0
  0
LINE
  5
EE
  8
SMALL_FEATURE
 10
92.3290023803711
 20
178.68899536132812
 30
0.0
 11
92.2655029296875
 21
177.86349487304688
 31
0.0
  0
LINE
  5
EF
  8
SMALL_FEATURE
 10
92.2655029296875
 20
177.86349487304688
 30
0.0
 11
91.05899810791016
 21
177.86349487304688
 31
0.0
  0
LINE
  5
F0
  8
SMALL_FEATURE
 10
91.05899810791016
 20
177.86349487304688
 30
0.0
 11
90.93199920654297
 21
179.00650024414062
 31
0.0
  0
LINE
  5
F1
  8
SMALL_FEATURE
 10
90.93199920654297
 20
179.00650024414062
 30
0.0
 11
90.2969970703125
 21
179.1334991455078
 31
0.0
  0
LINE
  5
F2
  8
SMALL_FEATURE
 10
90.2969970703125
 20
179.1334991455078
 30
0.0
 11
90.04299926757812
 21
177.8000030517578
 31
0.0
  0
LINE
  5
F3
  8
SMALL_FEATURE
 10
90.04299926757812
 20
177.8000030517578
 30
0.0
 11
91.31300354003906
 21
177.7364959716797
 31
0.0
  0
LINE
  5
F4
  8
SMALL_FEATURE
 10
91.31300354003906
 20
177.7364959716797
 30
0.0
 11
91.37650299072266
 21
177.41900634765625
 31
0.0
  0
LINE
  5
F5
  8
SMALL_FEATURE
 10
91.37650299072266
 20
177.41900634765625
 30
0.0
 11
91.56700134277344
 21
177.7364959716797
 31
0.0
  0
LINE
  5
F6
  8
SMALL_FEATURE
 10
91.56700134277344
 20
177.7364959716797
 30
0.0
 11
92.77349853515625
 21
177.7364959716797
 31
0.0
  0
LINE
  5
F7
  8
SMALL_FEATURE
 10
92.77349853515625
 20
177.7364959716797
 30
0.0
 11
92.77349853515625
 21
176.02200317382812
 31
0.0
  0
LINE
  5
F8
  8
SMALL_FEATURE
 10
92.77349853515625
 20
176.02200317382812
 30
0.0
 11
88.07450103759766
 21
176.0854949951172
 31
0.0
  0
LINE
  5
F9
  8
SMALL_FEATURE
 10
88.07450103759766
 20
176.0854949951172
 30
0.0
 11
88.07450103759766
 21
191.19850158691406
 31
0.0
  0
LINE
  5
FA
  8
SMALL_FEATURE
 10
42.54499816894531
 20
204.7239990234375
 30
0.0
 11
42.79899978637695
 21
202.56500244140625
 31
0.0
  0
LINE
  5
FB
  8
SMALL_FEATURE
 10
42.79899978637695
 20
202.56500244140625
 30
0.0
 11
44.13249969482422
 21
200.5330047607422
 31
0.0
  0
LINE
  5
FC
  8
SMALL_FEATURE
 10
44.13249969482422
 20
200.5330047607422
 30
0.0
 11
45.65650177001953
 21
199.45350646972656
 31
0.0
  0
LINE
  5
FD
  8
SMALL_FEATURE
 10
45.65650177001953
 20
199.45350646972656
 30
0.0
 11
48.32350158691406
 21
198.69149780273438
 31
0.0
  0
LINE
  5
FE
  8
SMALL_FEATURE
 10
48.32350158691406
 20
198.69149780273438
 30
0.0
 11
51.24449920654297
 21
198.94549560546875
 31
0.0
  0
LINE
  5
FF
  8
SMALL_FEATURE
 10
51.24449920654297
 20
198.94549560546875
 30
0.0
 11
52.76850128173828
 21
199.58050537109375
 31
0.0
  0
LINE
  5
100
  8
SMALL_FEATURE
 10
52.76850128173828
 20
199.58050537109375
 30
0.0
 11
54.9275016784668
 21
201.48550415039062
 31
0.0
  0
LINE
  5
101
  8
SMALL_FEATURE
 10
54.9275016784668
 20
201.48550415039062
 30
0.0
 11
55.625999450683594
 21
203.5175018310547
 31
0.0
  0
LINE
  5
102
  8
SMALL_FEATURE
 10
55.625999450683594
 20
203.5175018310547
 30
0.0
 11
55.625999450683594
 21
204.7239990234375
 31
0.0
  0
LINE
  5
103
  8
SMALL_FEATURE
 10
55.625999450683594
 20
204.7239990234375
 30
0.0
 11
55.11800003051758
 21
205.1685028076172
 31
0.0
  0
LINE
  5
104
  8
SMALL_FEATURE
 10
55.11800003051758
 20
205.1685028076172
 30
0.0
 11
43.053001403808594
 21
205.1685028076172
 31
0.0
  0
LINE
  5
105
  8
SMALL_FEATURE
 10
43.053001403808594
 20
205.1685028076172
 30
0.0
 11
42.54499816894531
 21
204.7239990234375
 31
0.0
  0
LINE
  5
106
  8
SMALL_FEATURE
 10
139.19200134277344
 20
200.02499389648438
 30
0.0
 11
145.92300415039062
 21
199.9615020751953
 31
0.0
  0
LINE
  5
107
  8
SMALL_FEATURE
 10
145.92300415039062
 20
199.9615020751953
 30
0.0
 11
145.92300415039062
 21
189.73800659179688
 31
0.0
  0
LINE
  5
108
  8
SMALL_FEATURE
 10
145.92300415039062
 20
189.73800659179688
 30
0.0
 11
145.16099548339844
 21
189.73800659179688
 31
0.0
  0
LINE
  5
109
  8
SMALL_FEATURE
 10
145.16099548339844
 20
189.73800659179688
 30
0.0
 11
143.0019989013672
 21
191.64300537109375
 31
0.0
  0
LINE
  5
10A
  8
SMALL_FEATURE
 10
143.0019989013672
 20
191.64300537109375
 30
0.0
 11
142.17649841308594
 21
190.88099670410156
 31
0.0
  0
LINE
  5
10B
  8
SMALL_FEATURE
 10
142.17649841308594
 20
190.88099670410156
 30
0.0
 11
141.4145050048828
 21
190.88099670410156
 31
0.0
  0
LINE
  5
10C
  8
SMALL_FEATURE
 10
141.4145050048828
 20
190.88099670410156
 30
0.0
 11
139.1284942626953
 21
192.91299438476562
 31
0.0
  0
LINE
  5
10D
  8
SMALL_FEATURE
 10
139.1284942626953
 20
192.91299438476562
 30
0.0
 11
139.19200134277344
 21
200.02499389648438
 31
0.0
  0
LINE
  5
10E
  8
SMALL_FEATURE
 10
151.19349670410156
 20
73.59649658203125
 30
0.0
 11
152.14599609375
 21
73.66000366210938
 31
0.0
  0
LINE
  5
10F
  8
SMALL_FEATURE
 10
152.14599609375
 20
73.66000366210938
 30
0.0
 11
157.67050170898438
 21
72.26300048828125
 31
0.0
  0
LINE
  5
110
  8
SMALL_FEATURE
 10
157.67050170898438
 20
72.26300048828125
 30
0.0
 11
161.6074981689453
 21
72.07250213623047
 31
0.0
  0
LINE
  5
111
  8
SMALL_FEATURE
 10
161.6074981689453
 20
72.07250213623047
 30
0.0
 11
161.54400634765625
 21
70.48500061035156
 31
0.0
  0
LINE
  5
112
  8
SMALL_FEATURE
 10
161.54400634765625
 20
70.48500061035156
 30
0.0
 11
161.09950256347656
 21
70.29450225830078
 31
0.0
  0
LINE
  5
113
  8
SMALL_FEATURE
 10
161.09950256347656
 20
70.29450225830078
 30
0.0
 11
161.2899932861328
 21
67.18299865722656
 31
0.0
  0
LINE
  5
114
  8
SMALL_FEATURE
 10
161.2899932861328
 20
67.18299865722656
 30
0.0
 11
160.65499877929688
 21
67.11949920654297
 31
0.0
  0
LINE
  5
115
  8
SMALL_FEATURE
 10
160.65499877929688
 20
67.11949920654297
 30
0.0
 11
160.5915069580078
 21
66.29399871826172
 31
0.0
  0
LINE
  5
116
  8
SMALL_FEATURE
 10
160.5915069580078
 20
66.29399871826172
 30
0.0
 11
159.82949829101562
 21
66.29399871826172
 31
0.0
  0
LINE
  5
117
  8
SMALL_FEATURE
 10
159.82949829101562
 20
66.29399871826172
 30
0.0
 11
159.76600646972656
 21
67.11949920654297
 31
0.0
  0
LINE
  5
118
  8
SMALL_FEATURE
 10
159.76600646972656
 20
67.11949920654297
 30
0.0
 11
159.51199340820312
 21
66.61150360107422
 31
0.0
  0
LINE
  5
119
  8
SMALL_FEATURE
 10
159.51199340820312
 20
66.61150360107422
 30
0.0
 11
158.75
 21
66.61150360107422
 31
0.0
  0
LINE
  5
11A
  8
SMALL_FEATURE
 10
158.75
 20
66.61150360107422
 30
0.0
 11
158.68649291992188
 21
67.11949920654297
 31
0.0
  0
LINE
  5
11B
  8
SMALL_FEATURE
 10
158.68649291992188
 20
67.11949920654297
 30
0.0
 11
156.33700561523438
 21
67.11949920654297
 31
0.0
  0
LINE
  5
11C
  8
SMALL_FEATURE
 10
156.33700561523438
 20
67.11949920654297
 30
0.0
 11
155.82899475097656
 21
66.67500305175781
 31
0.0
  0
LINE
  5
11D
  8
SMALL_FEATURE
 10
155.82899475097656
 20
66.67500305175781
 30
0.0
 11
154.4320068359375
 21
66.67500305175781
 31
0.0
  0
LINE
  5
11E
  8
SMALL_FEATURE
 10
154.4320068359375
 20
66.67500305175781
 30
0.0
 11
154.36849975585938
 21
67.11949920654297
 31
0.0
  0
LINE
  5
11F
  8
SMALL_FEATURE
 10
154.36849975585938
 20
67.11949920654297
 30
0.0
 11
153.9239959716797
 21
66.8655014038086
 31
0.0
  0
LINE
  5
120
  8
SMALL_FEATURE
 10
153.9239959716797
 20
66.8655014038086
 30
0.0
 11
151.2570037841797
 21
67.11949920654297
 31
0.0
  0
LINE
  5
121
  8
SMALL_FEATURE
 10
151.2570037841797
 20
67.11949920654297
 30
0.0
 11
151.19349670410156
 21
73.59649658203125
 31
0.0
  0
LINE
  5
122
  8
SMALL_FEATURE
 10
185.29299926757812
 20
17.525999069213867
 30
0.0
 11
198.7550048828125
 21
17.589500427246094
 31
0.0
  0
LINE
  5
123
  8
SMALL_FEATURE
 10
198.7550048828125
 20
17.589500427246094
 30
0.0
 11
198.81849670410156
 21
13.58899974822998
 31
0.0
  0
LINE
  5
124
  8
SMALL_FEATURE
 10
198.81849670410156
 20
13.58899974822998
 30
0.0
 11
185.35650634765625
 21
13.525500297546387
 31
0.0
  0
LINE
  5
125
  8
SMALL_FEATURE
 10
185.35650634765625
 20
13.525500297546387
 30
0.0
 11
185.29299926757812
 21
17.525999069213867
 31
0.0
  0
LINE
  5
126
  8
SMALL_FEATURE
 10
185.29299926757812
 20
13.271499633789062
 30
0.0
 11
198.7550048828125
 21
13.335000038146973
 31
0.0
  0
LINE
  5
127
  8
SMALL_FEATURE
 10
198.7550048828125
 20
13.335000038146973
 30
0.0
 11
198.81849670410156
 21
9.46150016784668
 31
0.0
  0
LINE
  5
128
  8
SMALL_FEATURE
 10
198.81849670410156
 20
9.46150016784668
 30
0.0
 11
185.35650634765625
 21
9.39799976348877
 31
0.0
  0
LINE
  5
129
  8
SMALL_FEATURE
 10
185.35650634765625
 20
9.39799976348877
 30
0.0
 11
185.29299926757812
 21
13.271499633789062
 31
0.0
  0
LINE
  5
12A
  8
SMALL_FEATURE
 10
178.43499755859375
 20
95.12300109863281
 30
0.0
 11
178.49850463867188
 21
86.23300170898438
 31
0.0
  0
LINE
  5
12B
  8
SMALL_FEATURE
 10
178.49850463867188
 20
86.23300170898438
 30
0.0
 11
177.03799438476562
 21
86.16950225830078
 31
0.0
  0
LINE
  5
12C
  8
SMALL_FEATURE
 10
177.03799438476562
 20
86.16950225830078
 30
0.0
 11
176.97450256347656
 21
85.78849792480469
 31
0.0
  0
LINE
  5
12D
  8
SMALL_FEATURE
 10
176.97450256347656
 20
85.78849792480469
 30
0.0
 11
173.4185028076172
 21
85.15350341796875
 31
0.0
  0
LINE
  5
12E
  8
SMALL_FEATURE
 10
173.4185028076172
 20
85.15350341796875
 30
0.0
 11
173.4185028076172
 21
92.77349853515625
 31
0.0
  0
LINE
  5
12F
  8
SMALL_FEATURE
 10
173.4185028076172
 20
92.77349853515625
 30
0.0
 11
175.51400756835938
 21
95.50399780273438
 31
0.0
  0
LINE
  5
130
  8
SMALL_FEATURE
 10
175.51400756835938
 20
95.50399780273438
 30
0.0
 11
176.2760009765625
 21
95.50399780273438
 31
0.0
  0
LINE
  5
131
  8
SMALL_FEATURE
 10
176.2760009765625
 20
95.50399780273438
 30
0.0
 11
177.22850036621094
 21
94.74199676513672
 31
0.0
  0
LINE
  5
132
  8
SMALL_FEATURE
 10
177.22850036621094
 20
94.74199676513672
 30
0.0
 11
177.67300415039062
 21
95.12300109863281
 31
0.0
  0
LINE
  5
133
  8
SMALL_FEATURE
 10
177.67300415039062
 20
95.12300109863281
 30
0.0
 11
178.43499755859375
 21
95.12300109863281
 31
0.0
  0
LINE
  5
134
  8
SMALL_FEATURE
 10
42.92599868774414
 20
203.45399475097656
 30
0.0
 11
55.244998931884766
 21
203.5175018310547
 31
0.0
  0
LINE
  5
135
  8
SMALL_FEATURE
 10
55.244998931884766
 20
203.5175018310547
 30
0.0
 11
55.30849838256836
 21
202.6284942626953
 31
0.0
  0
LINE
  5
136
  8
SMALL_FEATURE
 10
55.30849838256836
 20
202.6284942626953
 30
0.0
 11
54.483001708984375
 21
201.16799926757812
 31
0.0
  0
LINE
  5
137
  8
SMALL_FEATURE
 10
54.483001708984375
 20
201.16799926757812
 30
0.0
 11
52.76850128173828
 21
199.70750427246094
 31
0.0
  0
LINE
  5
138
  8
SMALL_FEATURE
 10
52.76850128173828
 20
199.70750427246094
 30
0.0
 11
51.05400085449219
 21
199.00900268554688
 31
0.0
  0
LINE
  5
139
  8
SMALL_FEATURE
 10
51.05400085449219
 20
199.00900268554688
 30
0.0
 11
48.19649887084961
 21
198.81849670410156
 31
0.0
  0
LINE
  5
13A
  8
SMALL_FEATURE
 10
48.19649887084961
 20
198.81849670410156
 30
0.0
 11
46.79949951171875
 21
199.07249450683594
 31
0.0
  0
LINE
  5
13B
  8
SMALL_FEATURE
 10
46.79949951171875
 20
199.07249450683594
 30
0.0
 11
44.45000076293945
 21
200.406005859375
 31
0.0
  0
LINE
  5
13C
  8
SMALL_FEATURE
 10
44.45000076293945
 20
200.406005859375
 30
0.0
 11
43.37049865722656
 21
201.5489959716797
 31
0.0
  0
LINE
  5
13D
  8
SMALL_FEATURE
 10
43.37049865722656
 20
201.5489959716797
 30
0.0
 11
42.92599868774414
 21
202.56500244140625
 31
0.0
  0
LINE
  5
13E
  8
SMALL_FEATURE
 10
42.92599868774414
 20
202.56500244140625
 30
0.0
 11
42.92599868774414
 21
203.45399475097656
 31
0.0
  0
LINE
  5
13F
  8
SMALL_FEATURE
 10
88.13800048828125
 20
175.8314971923828
 30
0.0
 11
92.83699798583984
 21
175.76800537109375
 31
0.0
  0
LINE
  5
140
  8
SMALL_FEATURE
 10
92.83699798583984
 20
175.76800537109375
 30
0.0
 11
92.77349853515625
 21
166.3699951171875
 31
0.0
  0
LINE
  5
141
  8
SMALL_FEATURE
 10
92.77349853515625
 20
166.3699951171875
 30
0.0
 11
88.07450103759766
 21
166.43350219726562
 31
0.0
  0
LINE
  5
142
  8
SMALL_FEATURE
 10
88.07450103759766
 20
166.43350219726562
 30
0.0
 11
88.13800048828125
 21
175.8314971923828
 31
0.0
  0
LINE
  5
143
  8
SMALL_FEATURE
 10
88.13800048828125
 20
166.17950439453125
 30
0.0
 11
92.83699798583984
 21
166.11599731445312
 31
0.0
  0
LINE
  5
144
  8
SMALL_FEATURE
 10
92.83699798583984
 20
166.11599731445312
 30
0.0
 11
92.83699798583984
 21
156.781494140625
 31
0.0
  0
LINE
  5
145
  8
SMALL_FEATURE
 10
92.83699798583984
 20
156.781494140625
 30
0.0
 11
89.97949981689453
 21
157.16250610351562
 31
0.0
  0
LINE
  5
146
  8
SMALL_FEATURE
 10
89.97949981689453
 20
157.16250610351562
 30
0.0
 11
89.85250091552734
 21
156.781494140625
 31
0.0
  0
LINE
  5
147
  8
SMALL_FEATURE
 10
89.85250091552734
 20
156.781494140625
 30
0.0
 11
88.07450103759766
 21
156.84500122070312
 31
0.0
  0
LINE
  5
148
  8
SMALL_FEATURE
 10
88.07450103759766
 20
156.84500122070312
 30
0.0
 11
88.13800048828125
 21
166.17950439453125
 31
0.0
  0
LINE
  5
149
  8
SMALL_FEATURE
 10
30.22599983215332
 20
146.0500030517578
 30
0.0
 11
28.066999435424805
 21
143.38299560546875
 31
0.0
  0
LINE
  5
14A
  8
SMALL_FEATURE
 10
28.066999435424805
 20
143.38299560546875
 30
0.0
 11
26.923999786376953
 21
139.2554931640625
 31
0.0
  0
LINE
  5
14B
  8
SMALL_FEATURE
 10
26.923999786376953
 20
139.2554931640625
 30
0.0
 11
33.4010009765625
 21
139.1284942626953
 31
0.0
  0
LINE
  5
14C
  8
SMALL_FEATURE
 10
33.4010009765625
 20
139.1284942626953
 30
0.0
 11
33.337501525878906
 21
140.7794952392578
 31
0.0
  0
LINE
  5
14D
  8
SMALL_FEATURE
 10
33.337501525878906
 20
140.7794952392578
 30
0.0
 11
32.829498291015625
 21
142.4304962158203
 31
0.0
  0
LINE
  5
14E
  8
SMALL_FEATURE
 10
32.829498291015625
 20
142.4304962158203
 30
0.0
 11
31.368999481201172
 21
144.90699768066406
 31
0.0
  0
LINE
  5
14F
  8
SMALL_FEATURE
 10
31.368999481201172
 20
144.90699768066406
 30
0.0
 11
30.22599983215332
 21
146.0500030517578
 31
0.0
  0
LINE
  5
150
  8
SMALL_FEATURE
 10
29.844999313354492
 20
145.35150146484375
 30
0.0
 11
30.670499801635742
 21
145.35150146484375
 31
0.0
  0
LINE
  5
151
  8
SMALL_FEATURE
 10
30.670499801635742
 20
145.35150146484375
 30
0.0
 11
32.067501068115234
 21
143.57350158691406
 31
0.0
  0
LINE
  5
152
  8
SMALL_FEATURE
 10
32.067501068115234
 20
143.57350158691406
 30
0.0
 11
33.14699935913086
 21
140.7794952392578
 31
0.0
  0
LINE
  5
153
  8
SMALL_FEATURE
 10
33.14699935913086
 20
140.7794952392578
 30
0.0
 11
33.14699935913086
 21
139.31900024414062
 31
0.0
  0
LINE
  5
154
  8
SMALL_FEATURE
 10
33.14699935913086
 20
139.31900024414062
 30
0.0
 11
27.30500030517578
 21
139.38250732421875
 31
0.0
  0
LINE
  5
155
  8
SMALL_FEATURE
 10
27.30500030517578
 20
139.38250732421875
 30
0.0
 11
27.368499755859375
 21
140.7794952392578
 31
0.0
  0
LINE
  5
156
  8
SMALL_FEATURE
 10
27.368499755859375
 20
140.7794952392578
 30
0.0
 11
28.066999435424805
 21
142.875
 31
0.0
  0
LINE
  5
157
  8
SMALL_FEATURE
 10
28.066999435424805
 20
142.875
 30
0.0
 11
29.844999313354492
 21
145.35150146484375
 31
0.0
  0
LINE
  5
158
  8
SMALL_FEATURE
 10
145.66900634765625
 20
131.8260040283203
 30
0.0
 11
145.66900634765625
 21
134.7469940185547
 31
0.0
  0
LINE
  5
159
  8
SMALL_FEATURE
 10
145.66900634765625
 20
134.7469940185547
 30
0.0
 11
146.0500030517578
 21
134.8105010986328
 31
0.0
  0
LINE
  5
15A
  8
SMALL_FEATURE
 10
146.0500030517578
 20
134.8105010986328
 30
0.0
 11
145.7324981689453
 21
137.73150634765625
 31
0.0
  0
LINE
  5
15B
  8
SMALL_FEATURE
 10
145.7324981689453
 20
137.73150634765625
 30
0.0
 11
152.84449768066406
 21
137.66799926757812
 31
0.0
  0
LINE
  5
15C
  8
SMALL_FEATURE
 10
152.84449768066406
 20
137.66799926757812
 30
0.0
 11
152.781005859375
 21
136.84249877929688
 31
0.0
  0
LINE
  5
15D
  8
SMALL_FEATURE
 10
152.781005859375
 20
136.84249877929688
 30
0.0
 11
150.55850219726562
 21
135.63600158691406
 31
0.0
  0
LINE
  5
15E
  8
SMALL_FEATURE
 10
150.55850219726562
 20
135.63600158691406
 30
0.0
 11
146.4945068359375
 21
131.7624969482422
 31
0.0
  0
LINE
  5
15F
  8
SMALL_FEATURE
 10
146.4945068359375
 20
131.7624969482422
 30
0.0
 11
145.66900634765625
 21
131.8260040283203
 31
0.0
  0
LINE
  5
160
  8
SMALL_FEATURE
 10
177.8000030517578
 20
137.54100036621094
 30
0.0
 11
181.22900390625
 21
137.16000366210938
 31
0.0
  0
LINE
  5
161
  8
SMALL_FEATURE
 10
181.22900390625
 20
137.16000366210938
 30
0.0
 11
184.0229949951172
 21
136.20750427246094
 31
0.0
  0
LINE
  5
162
  8
SMALL_FEATURE
 10
184.0229949951172
 20
136.20750427246094
 30
0.0
 11
185.29299926757812
 21
135.44549560546875
 31
0.0
  0
LINE
  5
163
  8
SMALL_FEATURE
 10
185.29299926757812
 20
135.44549560546875
 30
0.0
 11
185.29299926757812
 21
134.68350219726562
 31
0.0
  0
LINE
  5
164
  8
SMALL_FEATURE
 10
185.29299926757812
 20
134.68350219726562
 30
0.0
 11
177.86349487304688
 21
134.6199951171875
 31
0.0
  0
LINE
  5
165
  8
SMALL_FEATURE
 10
177.86349487304688
 20
134.6199951171875
 30
0.0
 11
177.8000030517578
 21
137.54100036621094
 31
0.0
  0
LINE
  5
166
  8
SMALL_FEATURE
 10
93.02749633789062
 20
166.17950439453125
 30
0.0
 11
94.36100006103516
 21
166.05250549316406
 31
0.0
  0
LINE
  5
167
  8
SMALL_FEATURE
 10
94.36100006103516
 20
166.05250549316406
 30
0.0
 11
94.36100006103516
 21
156.781494140625
 31
0.0
  0
LINE
  5
168
  8
SMALL_FEATURE
 10
94.36100006103516
 20
156.781494140625
 30
0.0
 11
92.96399688720703
 21
156.84500122070312
 31
0.0
  0
LINE
  5
169
  8
SMALL_FEATURE
 10
92.96399688720703
 20
156.84500122070312
 30
0.0
 11
93.02749633789062
 21
166.17950439453125
 31
0.0
  0
LINE
  5
16A
  8
SMALL_FEATURE
 10
168.71949768066406
 20
111.95050048828125
 30
0.0
 11
168.656005859375
 21
111.125
 31
0.0
  0
LINE
  5
16B
  8
SMALL_FEATURE
 10
168.656005859375
 20
111.125
 30
0.0
 11
163.44900512695312
 21
107.822998046875
 31
0.0
  0
LINE
  5
16C
  8
SMALL_FEATURE
 10
163.44900512695312
 20
107.822998046875
 30
0.0
 11
162.62350463867188
 21
107.822998046875
 31
0.0
  0
LINE
  5
16D
  8
SMALL_FEATURE
 10
162.62350463867188
 20
107.822998046875
 30
0.0
 11
161.98849487304688
 21
108.45800018310547
 31
0.0
  0
LINE
  5
16E
  8
SMALL_FEATURE
 10
161.98849487304688
 20
108.45800018310547
 30
0.0
 11
161.98849487304688
 21
109.22000122070312
 31
0.0
  0
LINE
  5
16F
  8
SMALL_FEATURE
 10
161.98849487304688
 20
109.22000122070312
 30
0.0
 11
164.1475067138672
 21
110.87100219726562
 31
0.0
  0
LINE
  5
170
  8
SMALL_FEATURE
 10
164.1475067138672
 20
110.87100219726562
 30
0.0
 11
166.8144989013672
 21
111.88700103759766
 31
0.0
  0
LINE
  5
171
  8
SMALL_FEATURE
 10
166.8144989013672
 20
111.88700103759766
 30
0.0
 11
168.71949768066406
 21
111.95050048828125
 31
0.0
  0
LINE
  5
172
  8
SMALL_FEATURE
 10
93.02749633789062
 20
175.8314971923828
 30
0.0
 11
94.36100006103516
 21
175.76800537109375
 31
0.0
  0
LINE
  5
173
  8
SMALL_FEATURE
 10
94.36100006103516
 20
175.76800537109375
 30
0.0
 11
94.36100006103516
 21
166.4969940185547
 31
0.0
  0
LINE
  5
174
  8
SMALL_FEATURE
 10
94.36100006103516
 20
166.4969940185547
 30
0.0
 11
93.02749633789062
 21
166.43350219726562
 31
0.0
  0
LINE
  5
175
  8
SMALL_FEATURE
 10
93.02749633789062
 20
166.43350219726562
 30
0.0
 11
93.02749633789062
 21
175.8314971923828
 31
0.0
  0
LINE
  5
176
  8
SMALL_FEATURE
 10
59.18199920654297
 20
56.00699996948242
 30
0.0
 11
58.16600036621094
 21
55.94350051879883
 31
0.0
  0
LINE
  5
177
  8
SMALL_FEATURE
 10
58.16600036621094
 20
55.94350051879883
 30
0.0
 11
57.9119987487793
 21
55.625999450683594
 31
0.0
  0
LINE
  5
178
  8
SMALL_FEATURE
 10
57.9119987487793
 20
55.625999450683594
 30
0.0
 11
57.97549819946289
 21
47.307498931884766
 31
0.0
  0
LINE
  5
179
  8
SMALL_FEATURE
 10
57.97549819946289
 20
47.307498931884766
 30
0.0
 11
59.43600082397461
 21
47.307498931884766
 31
0.0
  0
LINE
  5
17A
  8
SMALL_FEATURE
 10
59.43600082397461
 20
47.307498931884766
 30
0.0
 11
59.43600082397461
 21
55.68949890136719
 31
0.0
  0
LINE
  5
17B
  8
SMALL_FEATURE
 10
59.43600082397461
 20
55.68949890136719
 30
0.0
 11
59.18199920654297
 21
56.00699996948242
 31
0.0
  0
LINE
  5
17C
  8
SMALL_FEATURE
 10
171.13250732421875
 20
265.4934997558594
 30
0.0
 11
171.1959991455078
 21
264.73150634765625
 31
0.0
  0
LINE
  5
17D
  8
SMALL_FEATURE
 10
171.1959991455078
 20
264.73150634765625
 30
0.0
 11
171.57699584960938
 21
264.41400146484375
 31
0.0
  0
LINE
  5
17E
  8
SMALL_FEATURE
 10
171.57699584960938
 20
264.41400146484375
 30
0.0
 11
172.7834930419922
 21
264.4775085449219
 31
0.0
  0
LINE
  5
17F
  8
SMALL_FEATURE
 10
172.7834930419922
 20
264.4775085449219
 30
0.0
 11
172.91050720214844
 21
264.73150634765625
 31
0.0
  0
LINE
  5
180
  8
SMALL_FEATURE
 10
172.91050720214844
 20
264.73150634765625
 30
0.0
 11
173.67250061035156
 21
264.73150634765625
 31
0.0
  0
LINE
  5
181
  8
SMALL_FEATURE
 10
173.67250061035156
 20
264.73150634765625
 30
0.0
 11
173.79949951171875
 21
264.4775085449219
 31
0.0
  0
LINE
  5
182
  8
SMALL_FEATURE
 10
173.79949951171875
 20
264.4775085449219
 30
0.0
 11
179.64149475097656
 21
264.4775085449219
 31
0.0
  0
LINE
  5
183
  8
SMALL_FEATURE
 10
179.64149475097656
 20
264.4775085449219
 30
0.0
 11
179.07000732421875
 21
266.0014953613281
 31
0.0
  0
LINE
  5
184
  8
SMALL_FEATURE
 10
179.07000732421875
 20
266.0014953613281
 30
0.0
 11
171.57699584960938
 21
266.0014953613281
 31
0.0
  0
LINE
  5
185
  8
SMALL_FEATURE
 10
171.57699584960938
 20
266.0014953613281
 30
0.0
 11
171.13250732421875
 21
265.4934997558594
 31
0.0
  0
LINE
  5
186
  8
SMALL_FEATURE
 10
153.41600036621094
 20
16.00200080871582
 30
0.0
 11
153.86050415039062
 21
15.049500465393066
 31
0.0
  0
LINE
  5
187
  8
SMALL_FEATURE
 10
153.86050415039062
 20
15.049500465393066
 30
0.0
 11
155.19400024414062
 21
15.303500175476074
 31
0.0
  0
LINE
  5
188
  8
SMALL_FEATURE
 10
155.19400024414062
 20
15.303500175476074
 30
0.0
 11
161.67100524902344
 21
15.239999771118164
 31
0.0
  0
LINE
  5
189
  8
SMALL_FEATURE
 10
161.67100524902344
 20
15.239999771118164
 30
0.0
 11
162.3695068359375
 21
14.922499656677246
 31
0.0
  0
LINE
  5
18A
  8
SMALL_FEATURE
 10
162.3695068359375
 20
14.922499656677246
 30
0.0
 11
162.3695068359375
 21
15.239999771118164
 31
0.0
  0
LINE
  5
18B
  8
SMALL_FEATURE
 10
162.3695068359375
 20
15.239999771118164
 30
0.0
 11
161.79800415039062
 21
15.303500175476074
 31
0.0
  0
LINE
  5
18C
  8
SMALL_FEATURE
 10
161.79800415039062
 20
15.303500175476074
 30
0.0
 11
161.35350036621094
 21
16.57349967956543
 31
0.0
  0
LINE
  5
18D
  8
SMALL_FEATURE
 10
161.35350036621094
 20
16.57349967956543
 30
0.0
 11
155.51150512695312
 21
16.57349967956543
 31
0.0
  0
LINE
  5
18E
  8
SMALL_FEATURE
 10
155.51150512695312
 20
16.57349967956543
 30
0.0
 11
155.38450622558594
 21
16.319499969482422
 31
0.0
  0
LINE
  5
18F
  8
SMALL_FEATURE
 10
155.38450622558594
 20
16.319499969482422
 30
0.0
 11
153.86050415039062
 21
16.57349967956543
 31
0.0
  0
LINE
  5
190
  8
SMALL_FEATURE
 10
153.86050415039062
 20
16.57349967956543
 30
0.0
 11
153.41600036621094
 21
16.00200080871582
 31
0.0
  0
LINE
  5
191
  8
SMALL_FEATURE
 10
152.84449768066406
 20
265.4934997558594
 30
0.0
 11
152.84449768066406
 21
264.8584899902344
 31
0.0
  0
LINE
  5
192
  8
SMALL_FEATURE
 10
152.84449768066406
 20
264.8584899902344
 30
0.0
 11
153.3524932861328
 21
264.3504943847656
 31
0.0
  0
LINE
  5
193
  8
SMALL_FEATURE
 10
153.3524932861328
 20
264.3504943847656
 30
0.0
 11
156.33700561523438
 21
264.41400146484375
 31
0.0
  0
LINE
  5
194
  8
SMALL_FEATURE
 10
156.33700561523438
 20
264.41400146484375
 30
0.0
 11
156.40049743652344
 21
264.9855041503906
 31
0.0
  0
LINE
  5
195
  8
SMALL_FEATURE
 10
156.40049743652344
 20
264.9855041503906
 30
0.0
 11
157.16250610351562
 21
264.9855041503906
 31
0.0
  0
LINE
  5
196
  8
SMALL_FEATURE
 10
157.16250610351562
 20
264.9855041503906
 30
0.0
 11
157.2895050048828
 21
264.41400146484375
 31
0.0
  0
LINE
  5
197
  8
SMALL_FEATURE
 10
157.2895050048828
 20
264.41400146484375
 30
0.0
 11
160.2104949951172
 21
264.41400146484375
 31
0.0
  0
LINE
  5
198
  8
SMALL_FEATURE
 10
160.2104949951172
 20
264.41400146484375
 30
0.0
 11
160.14700317382812
 21
265.93798828125
 31
0.0
  0
LINE
  5
199
  8
SMALL_FEATURE
 10
160.14700317382812
 20
265.93798828125
 30
0.0
 11
153.41600036621094
 21
266.0014953613281
 31
0.0
  0
LINE
  5
19A
  8
SMALL_FEATURE
 10
153.41600036621094
 20
266.0014953613281
 30
0.0
 11
152.84449768066406
 21
265.4934997558594
 31
0.0
  0
LINE
  5
19B
  8
SMALL_FEATURE
 10
166.3699951171875
 20
27.30500030517578
 30
0.0
 11
166.11599731445312
 21
28.765499114990234
 31
0.0
  0
LINE
  5
19C
  8
SMALL_FEATURE
 10
166.11599731445312
 20
28.765499114990234
 30
0.0
 11
161.16299438476562
 21
28.765499114990234
 31
0.0
  0
LINE
  5
19D
  8
SMALL_FEATURE
 10
161.16299438476562
 20
28.765499114990234
 30
0.0
 11
161.09950256347656
 21
27.622499465942383
 31
0.0
  0
LINE
  5
19E
  8
SMALL_FEATURE
 10
161.09950256347656
 20
27.622499465942383
 30
0.0
 11
160.2740020751953
 21
27.68600082397461
 31
0.0
  0
LINE
  5
19F
  8
SMALL_FEATURE
 10
160.2740020751953
 20
27.68600082397461
 30
0.0
 11
160.2740020751953
 21
28.765499114990234
 31
0.0
  0
LINE
  5
1A0
  8
SMALL_FEATURE
 10
160.2740020751953
 20
28.765499114990234
 30
0.0
 11
158.9405059814453
 21
28.765499114990234
 31
0.0
  0
LINE
  5
1A1
  8
SMALL_FEATURE
 10
158.9405059814453
 20
28.765499114990234
 30
0.0
 11
158.49600219726562
 21
28.25749969482422
 31
0.0
  0
LINE
  5
1A2
  8
SMALL_FEATURE
 10
158.49600219726562
 20
28.25749969482422
 30
0.0
 11
158.5594940185547
 21
27.55900001525879
 31
0.0
  0
LINE
  5
1A3
  8
SMALL_FEATURE
 10
158.5594940185547
 20
27.55900001525879
 30
0.0
 11
158.9405059814453
 21
27.241500854492188
 31
0.0
  0
LINE
  5
1A4
  8
SMALL_FEATURE
 10
158.9405059814453
 20
27.241500854492188
 30
0.0
 11
166.3699951171875
 21
27.30500030517578
 31
0.0
  0
LINE
  5
1A5
  8
SMALL_FEATURE
 10
31.87700080871582
 20
211.2010040283203
 30
0.0
 11
31.87700080871582
 21
208.08949279785156
 31
0.0
  0
LINE
  5
1A6
  8
SMALL_FEATURE
 10
31.87700080871582
 20
208.08949279785156
 30
0.0
 11
31.496000289916992
 21
208.0260009765625
 31
0.0
  0
LINE
  5
1A7
  8
SMALL_FEATURE
 10
31.496000289916992
 20
208.0260009765625
 30
0.0
 11
31.813499450683594
 21
205.29550170898438
 31
0.0
  0
LINE
  5
1A8
  8
SMALL_FEATURE
 10
31.813499450683594
 20
205.29550170898438
 30
0.0
 11
28.13050079345703
 21
205.1685028076172
 31
0.0
  0
LINE
  5
1A9
  8
SMALL_FEATURE
 10
28.13050079345703
 20
205.1685028076172
 30
0.0
 11
31.87700080871582
 21
204.97799682617188
 31
0.0
  0
LINE
  5
1AA
  8
SMALL_FEATURE
 10
31.87700080871582
 20
204.97799682617188
 30
0.0
 11
31.87700080871582
 21
198.81849670410156
 31
0.0
  0
LINE
  5
1AB
  8
SMALL_FEATURE
 10
31.87700080871582
 20
198.81849670410156
 30
0.0
 11
28.13050079345703
 21
198.6280059814453
 31
0.0
  0
LINE
  5
1AC
  8
SMALL_FEATURE
 10
28.13050079345703
 20
198.6280059814453
 30
0.0
 11
31.813499450683594
 21
198.50100708007812
 31
0.0
  0
LINE
  5
1AD
  8
SMALL_FEATURE
 10
31.813499450683594
 20
198.50100708007812
 30
0.0
 11
31.496000289916992
 21
195.77049255371094
 31
0.0
  0
LINE
  5
1AE
  8
SMALL_FEATURE
 10
31.496000289916992
 20
195.77049255371094
 30
0.0
 11
31.87700080871582
 21
195.70700073242188
 31
0.0
  0
LINE
  5
1AF
  8
SMALL_FEATURE
 10
31.87700080871582
 20
195.70700073242188
 30
0.0
 11
32.00400161743164
 21
192.5955047607422
 31
0.0
  0
LINE
  5
1B0
  8
SMALL_FEATURE
 10
32.00400161743164
 20
192.5955047607422
 30
0.0
 11
32.067501068115234
 21
195.70700073242188
 31
0.0
  0
LINE
  5
1B1
  8
SMALL_FEATURE
 10
32.067501068115234
 20
195.70700073242188
 30
0.0
 11
32.3849983215332
 21
195.77049255371094
 31
0.0
  0
LINE
  5
1B2
  8
SMALL_FEATURE
 10
32.3849983215332
 20
195.77049255371094
 30
0.0
 11
32.067501068115234
 21
198.50100708007812
 31
0.0
  0
LINE
  5
1B3
  8
SMALL_FEATURE
 10
32.067501068115234
 20
198.50100708007812
 30
0.0
 11
37.27450180053711
 21
198.6280059814453
 31
0.0
  0
LINE
  5
1B4
  8
SMALL_FEATURE
 10
37.27450180053711
 20
198.6280059814453
 30
0.0
 11
32.067501068115234
 21
198.81849670410156
 31
0.0
  0
LINE
  5
1B5
  8
SMALL_FEATURE
 10
32.067501068115234
 20
198.81849670410156
 30
0.0
 11
32.067501068115234
 21
204.97799682617188
 31
0.0
  0
LINE
  5
1B6
  8
SMALL_FEATURE
 10
32.067501068115234
 20
204.97799682617188
 30
0.0
 11
38.608001708984375
 21
205.1685028076172
 31
0.0
  0
LINE
  5
1B7
  8
SMALL_FEATURE
 10
38.608001708984375
 20
205.1685028076172
 30
0.0
 11
32.13100051879883
 21
205.23199462890625
 31
0.0
  0
LINE
  5
1B8
  8
SMALL_FEATURE
 10
32.13100051879883
 20
205.23199462890625
 30
0.0
 11
32.3849983215332
 21
208.0260009765625
 31
0.0
  0
LINE
  5
1B9
  8
SMALL_FEATURE
 10
32.3849983215332
 20
208.0260009765625
 30
0.0
 11
32.067501068115234
 21
208.08949279785156
 31
0.0
  0
LINE
  5
1BA
  8
SMALL_FEATURE
 10
32.067501068115234
 20
208.08949279785156
 30
0.0
 11
31.87700080871582
 21
211.2010040283203
 31
0.0
  0
LINE
  5
1BB
  8
SMALL_FEATURE
 10
20.954999923706055
 20
130.302001953125
 30
0.0
 11
23.93950080871582
 21
130.1750030517578
 31
0.0
  0
LINE
  5
1BC
  8
SMALL_FEATURE
 10
23.93950080871582
 20
130.1750030517578
 30
0.0
 11
24.003000259399414
 21
129.79400634765625
 31
0.0
  0
LINE
  5
1BD
  8
SMALL_FEATURE
 10
24.003000259399414
 20
129.79400634765625
 30
0.0
 11
26.86050033569336
 21
130.1750030517578
 31
0.0
  0
LINE
  5
1BE
  8
SMALL_FEATURE
 10
26.86050033569336
 20
130.1750030517578
 30
0.0
 11
26.987499237060547
 21
126.36499786376953
 31
0.0
  0
LINE
  5
1BF
  8
SMALL_FEATURE
 10
26.987499237060547
 20
126.36499786376953
 30
0.0
 11
27.17799949645996
 21
130.1750030517578
 31
0.0
  0
LINE
  5
1C0
  8
SMALL_FEATURE
 10
27.17799949645996
 20
130.1750030517578
 30
0.0
 11
33.21049880981445
 21
130.1750030517578
 31
0.0
  0
LINE
  5
1C1
  8
SMALL_FEATURE
 10
33.21049880981445
 20
130.1750030517578
 30
0.0
 11
33.4010009765625
 21
126.36499786376953
 31
0.0
  0
LINE
  5
1C2
  8
SMALL_FEATURE
 10
33.4010009765625
 20
126.36499786376953
 30
0.0
 11
33.52799987792969
 21
130.1750030517578
 31
0.0
  0
LINE
  5
1C3
  8
SMALL_FEATURE
 10
33.52799987792969
 20
130.1750030517578
 30
0.0
 11
36.385501861572266
 21
129.79400634765625
 31
0.0
  0
LINE
  5
1C4
  8
SMALL_FEATURE
 10
36.385501861572266
 20
129.79400634765625
 30
0.0
 11
36.44900131225586
 21
130.1750030517578
 31
0.0
  0
LINE
  5
1C5
  8
SMALL_FEATURE
 10
36.44900131225586
 20
130.1750030517578
 30
0.0
 11
39.56050109863281
 21
130.23849487304688
 31
0.0
  0
LINE
  5
1C6
  8
SMALL_FEATURE
 10
39.56050109863281
 20
130.23849487304688
 30
0.0
 11
36.44900131225586
 21
130.36549377441406
 31
0.0
  0
LINE
  5
1C7
  8
SMALL_FEATURE
 10
36.44900131225586
 20
130.36549377441406
 30
0.0
 11
36.385501861572266
 21
130.7465057373047
 31
0.0
  0
LINE
  5
1C8
  8
SMALL_FEATURE
 10
36.385501861572266
 20
130.7465057373047
 30
0.0
 11
33.52799987792969
 21
130.36549377441406
 31
0.0
  0
LINE
  5
1C9
  8
SMALL_FEATURE
 10
33.52799987792969
 20
130.36549377441406
 30
0.0
 11
33.464500427246094
 21
134.8105010986328
 31
0.0
  0
LINE
  5
1CA
  8
SMALL_FEATURE
 10
33.464500427246094
 20
134.8105010986328
 30
0.0
 11
33.21049880981445
 21
130.36549377441406
 31
0.0
  0
LINE
  5
1CB
  8
SMALL_FEATURE
 10
33.21049880981445
 20
130.36549377441406
 30
0.0
 11
27.17799949645996
 21
130.36549377441406
 31
0.0
  0
LINE
  5
1CC
  8
SMALL_FEATURE
 10
27.17799949645996
 20
130.36549377441406
 30
0.0
 11
26.987499237060547
 21
134.8105010986328
 31
0.0
  0
LINE
  5
1CD
  8
SMALL_FEATURE
 10
26.987499237060547
 20
134.8105010986328
 30
0.0
 11
26.86050033569336
 21
130.36549377441406
 31
0.0
  0
LINE
  5
1CE
  8
SMALL_FEATURE
 10
26.86050033569336
 20
130.36549377441406
 30
0.0
 11
24.003000259399414
 21
130.7465057373047
 31
0.0
  0
LINE
  5
1CF
  8
SMALL_FEATURE
 10
24.003000259399414
 20
130.7465057373047
 30
0.0
 11
23.93950080871582
 21
130.36549377441406
 31
0.0
  0
LINE
  5
1D0
  8
SMALL_FEATURE
 10
23.93950080871582
 20
130.36549377441406
 30
0.0
 11
20.954999923706055
 21
130.302001953125
 31
0.0
  0
LINE
  5
1D1
  8
SMALL_FEATURE
 10
145.54200744628906
 20
73.46949768066406
 30
0.0
 11
145.47850036621094
 21
70.35800170898438
 31
0.0
  0
LINE
  5
1D2
  8
SMALL_FEATURE
 10
145.47850036621094
 20
70.35800170898438
 30
0.0
 11
145.09750366210938
 21
70.29450225830078
 31
0.0
  0
LINE
  5
1D3
  8
SMALL_FEATURE
 10
145.09750366210938
 20
70.29450225830078
 30
0.0
 11
145.47850036621094
 21
67.43699645996094
 31
0.0
  0
LINE
  5
1D4
  8
SMALL_FEATURE
 10
145.47850036621094
 20
67.43699645996094
 30
0.0
 11
141.6685028076172
 21
67.30999755859375
 31
0.0
  0
LINE
  5
1D5
  8
SMALL_FEATURE
 10
141.6685028076172
 20
67.30999755859375
 30
0.0
 11
143.25599670410156
 21
67.11949920654297
 31
0.0
  0
LINE
  5
1D6
  8
SMALL_FEATURE
 10
143.25599670410156
 20
67.11949920654297
 30
0.0
 11
143.12899780273438
 21
66.23049926757812
 31
0.0
  0
LINE
  5
1D7
  8
SMALL_FEATURE
 10
143.12899780273438
 20
66.23049926757812
 30
0.0
 11
142.24000549316406
 21
66.23049926757812
 31
0.0
  0
LINE
  5
1D8
  8
SMALL_FEATURE
 10
142.24000549316406
 20
66.23049926757812
 30
0.0
 11
143.12899780273438
 21
65.53199768066406
 31
0.0
  0
LINE
  5
1D9
  8
SMALL_FEATURE
 10
143.12899780273438
 20
65.53199768066406
 30
0.0
 11
143.38299560546875
 21
66.10350036621094
 31
0.0
  0
LINE
  5
1DA
  8
SMALL_FEATURE
 10
143.38299560546875
 20
66.10350036621094
 30
0.0
 11
143.70050048828125
 21
66.10350036621094
 31
0.0
  0
LINE
  5
1DB
  8
SMALL_FEATURE
 10
143.70050048828125
 20
66.10350036621094
 30
0.0
 11
143.3195037841797
 21
66.29399871826172
 31
0.0
  0
LINE
  5
1DC
  8
SMALL_FEATURE
 10
143.3195037841797
 20
66.29399871826172
 30
0.0
 11
143.38299560546875
 21
67.18299865722656
 31
0.0
  0
LINE
  5
1DD
  8
SMALL_FEATURE
 10
143.38299560546875
 20
67.18299865722656
 30
0.0
 11
145.47850036621094
 21
67.11949920654297
 31
0.0
  0
LINE
  5
1DE
  8
SMALL_FEATURE
 10
145.47850036621094
 20
67.11949920654297
 30
0.0
 11
145.47850036621094
 21
63.182498931884766
 31
0.0
  0
LINE
  5
1DF
  8
SMALL_FEATURE
 10
145.47850036621094
 20
63.182498931884766
 30
0.0
 11
142.62100219726562
 21
63.182498931884766
 31
0.0
  0
LINE
  5
1E0
  8
SMALL_FEATURE
 10
142.62100219726562
 20
63.182498931884766
 30
0.0
 11
142.6844940185547
 21
64.19850158691406
 31
0.0
  0
LINE
  5
1E1
  8
SMALL_FEATURE
 10
142.6844940185547
 20
64.19850158691406
 30
0.0
 11
143.70050048828125
 21
64.19850158691406
 31
0.0
  0
LINE
  5
1E2
  8
SMALL_FEATURE
 10
143.70050048828125
 20
64.19850158691406
 30
0.0
 11
143.70050048828125
 21
65.02400207519531
 31
0.0
  0
LINE
  5
1E3
  8
SMALL_FEATURE
 10
143.70050048828125
 20
65.02400207519531
 30
0.0
 11
144.01800537109375
 21
65.0875015258789
 31
0.0
  0
LINE
  5
1E4
  8
SMALL_FEATURE
 10
144.01800537109375
 20
65.0875015258789
 30
0.0
 11
143.57350158691406
 21
65.2145004272461
 31
0.0
  0
LINE
  5
1E5
  8
SMALL_FEATURE
 10
143.57350158691406
 20
65.2145004272461
 30
0.0
 11
143.50999450683594
 21
64.32550048828125
 31
0.0
  0
LINE
  5
1E6
  8
SMALL_FEATURE
 10
143.50999450683594
 20
64.32550048828125
 30
0.0
 11
142.24000549316406
 21
64.32550048828125
 31
0.0
  0
LINE
  5
1E7
  8
SMALL_FEATURE
 10
142.24000549316406
 20
64.32550048828125
 30
0.0
 11
142.5574951171875
 21
63.94449996948242
 31
0.0
  0
LINE
  5
1E8
  8
SMALL_FEATURE
 10
142.5574951171875
 20
63.94449996948242
 30
0.0
 11
142.5574951171875
 21
63.182498931884766
 31
0.0
  0
LINE
  5
1E9
  8
SMALL_FEATURE
 10
142.5574951171875
 20
63.182498931884766
 30
0.0
 11
141.6685028076172
 21
62.992000579833984
 31
0.0
  0
LINE
  5
1EA
  8
SMALL_FEATURE
 10
141.6685028076172
 20
62.992000579833984
 30
0.0
 11
145.47850036621094
 21
62.8650016784668
 31
0.0
  0
LINE
  5
1EB
  8
SMALL_FEATURE
 10
145.47850036621094
 20
62.8650016784668
 30
0.0
 11
145.09750366210938
 21
60.00749969482422
 31
0.0
  0
LINE
  5
1EC
  8
SMALL_FEATURE
 10
145.09750366210938
 20
60.00749969482422
 30
0.0
 11
145.47850036621094
 21
59.944000244140625
 31
0.0
  0
LINE
  5
1ED
  8
SMALL_FEATURE
 10
145.47850036621094
 20
59.944000244140625
 30
0.0
 11
145.60549926757812
 21
56.895999908447266
 31
0.0
  0
LINE
  5
1EE
  8
SMALL_FEATURE
 10
145.60549926757812
 20
56.895999908447266
 30
0.0
 11
145.66900634765625
 21
59.944000244140625
 31
0.0
  0
LINE
  5
1EF
  8
SMALL_FEATURE
 10
145.66900634765625
 20
59.944000244140625
 30
0.0
 11
146.0500030517578
 21
60.00749969482422
 31
0.0
  0
LINE
  5
1F0
  8
SMALL_FEATURE
 10
146.0500030517578
 20
60.00749969482422
 30
0.0
 11
145.66900634765625
 21
62.8650016784668
 31
0.0
  0
LINE
  5
1F1
  8
SMALL_FEATURE
 10
145.66900634765625
 20
62.8650016784668
 30
0.0
 11
147.25650024414062
 21
62.992000579833984
 31
0.0
  0
LINE
  5
1F2
  8
SMALL_FEATURE
 10
147.25650024414062
 20
62.992000579833984
 30
0.0
 11
145.66900634765625
 21
63.182498931884766
 31
0.0
  0
LINE
  5
1F3
  8
SMALL_FEATURE
 10
145.66900634765625
 20
63.182498931884766
 30
0.0
 11
145.66900634765625
 21
67.11949920654297
 31
0.0
  0
LINE
  5
1F4
  8
SMALL_FEATURE
 10
145.66900634765625
 20
67.11949920654297
 30
0.0
 11
147.32000732421875
 21
67.30999755859375
 31
0.0
  0
LINE
  5
1F5
  8
SMALL_FEATURE
 10
147.32000732421875
 20
67.30999755859375
 30
0.0
 11
145.66900634765625
 21
67.43699645996094
 31
0.0
  0
LINE
  5
1F6
  8
SMALL_FEATURE
 10
145.66900634765625
 20
67.43699645996094
 30
0.0
 11
146.0500030517578
 21
70.29450225830078
 31
0.0
  0
LINE
  5
1F7
  8
SMALL_FEATURE
 10
146.0500030517578
 20
70.29450225830078
 30
0.0
 11
145.66900634765625
 21
70.35800170898438
 31
0.0
  0
LINE
  5
1F8
  8
SMALL_FEATURE
 10
145.66900634765625
 20
70.35800170898438
 30
0.0
 11
145.54200744628906
 21
73.46949768066406
 31
0.0
  0
LINE
  5
1F9
  8
SMALL_FEATURE
 10
23.875999450683594
 20
152.20950317382812
 30
0.0
 11
24.384000778198242
 21
150.74899291992188
 31
0.0
  0
LINE
  5
1FA
  8
SMALL_FEATURE
 10
24.384000778198242
 20
150.74899291992188
 30
0.0
 11
29.90850067138672
 21
150.74899291992188
 31
0.0
  0
LINE
  5
1FB
  8
SMALL_FEATURE
 10
29.90850067138672
 20
150.74899291992188
 30
0.0
 11
29.40049934387207
 21
152.20950317382812
 31
0.0
  0
LINE
  5
1FC
  8
SMALL_FEATURE
 10
29.40049934387207
 20
152.20950317382812
 30
0.0
 11
23.875999450683594
 21
152.20950317382812
 31
0.0
  0
LINE
  5
1FD
  8
SMALL_FEATURE
 10
29.464000701904297
 20
119.57050323486328
 30
0.0
 11
29.972000122070312
 21
118.11000061035156
 31
0.0
  0
LINE
  5
1FE
  8
SMALL_FEATURE
 10
29.972000122070312
 20
118.11000061035156
 30
0.0
 11
35.496498107910156
 21
118.11000061035156
 31
0.0
  0
LINE
  5
1FF
  8
SMALL_FEATURE
 10
35.496498107910156
 20
118.11000061035156
 30
0.0
 11
34.98849868774414
 21
119.57050323486328
 31
0.0
  0
LINE
  5
200
  8
SMALL_FEATURE
 10
34.98849868774414
 20
119.57050323486328
 30
0.0
 11
29.464000701904297
 21
119.57050323486328
 31
0.0
  0
LINE
  5
201
  8
SMALL_FEATURE
 10
140.84300231933594
 20
86.93150329589844
 30
0.0
 11
141.3509979248047
 21
85.47100067138672
 31
0.0
  0
LINE
  5
202
  8
SMALL_FEATURE
 10
141.3509979248047
 20
85.47100067138672
 30
0.0
 11
146.93899536132812
 21
85.40750122070312
 31
0.0
  0
LINE
  5
203
  8
SMALL_FEATURE
 10
146.93899536132812
 20
85.40750122070312
 30
0.0
 11
146.43099975585938
 21
86.86799621582031
 31
0.0
  0
LINE
  5
204
  8
SMALL_FEATURE
 10
146.43099975585938
 20
86.86799621582031
 30
0.0
 11
140.84300231933594
 21
86.93150329589844
 31
0.0
  0
LINE
  5
205
  8
SMALL_FEATURE
 10
177.54600524902344
 20
173.79949951171875
 30
0.0
 11
178.0540008544922
 21
172.33900451660156
 31
0.0
  0
LINE
  5
206
  8
SMALL_FEATURE
 10
178.0540008544922
 20
172.33900451660156
 30
0.0
 11
183.38800048828125
 21
172.33900451660156
 31
0.0
  0
LINE
  5
207
  8
SMALL_FEATURE
 10
183.38800048828125
 20
172.33900451660156
 30
0.0
 11
182.8800048828125
 21
173.79949951171875
 31
0.0
  0
LINE
  5
208
  8
SMALL_FEATURE
 10
182.8800048828125
 20
173.79949951171875
 30
0.0
 11
177.54600524902344
 21
173.79949951171875
 31
0.0
  0
LINE
  5
209
  8
SMALL_FEATURE
 10
179.95899963378906
 20
85.5979995727539
 30
0.0
 11
180.14950561523438
 21
81.66100311279297
 31
0.0
  0
LINE
  5
20A
  8
SMALL_FEATURE
 10
180.14950561523438
 20
81.66100311279297
 30
0.0
 11
182.7530059814453
 21
80.89900207519531
 31
0.0
  0
LINE
  5
20B
  8
SMALL_FEATURE
 10
182.7530059814453
 20
80.89900207519531
 30
0.0
 11
184.0229949951172
 21
80.9625015258789
 31
0.0
  0
LINE
  5
20C
  8
SMALL_FEATURE
 10
184.0229949951172
 20
80.9625015258789
 30
0.0
 11
187.13450622558594
 21
79.69249725341797
 31
0.0
  0
LINE
  5
20D
  8
SMALL_FEATURE
 10
187.13450622558594
 20
79.69249725341797
 30
0.0
 11
189.16650390625
 21
78.23200225830078
 31
0.0
  0
LINE
  5
20E
  8
SMALL_FEATURE
 10
189.16650390625
 20
78.23200225830078
 30
0.0
 11
191.00799560546875
 21
76.3905029296875
 31
0.0
  0
LINE
  5
20F
  8
SMALL_FEATURE
 10
191.00799560546875
 20
76.3905029296875
 30
0.0
 11
193.3574981689453
 21
72.45349884033203
 31
0.0
  0
LINE
  5
210
  8
SMALL_FEATURE
 10
193.3574981689453
 20
72.45349884033203
 30
0.0
 11
194.30999755859375
 21
67.37349700927734
 31
0.0
  0
LINE
  5
211
  8
SMALL_FEATURE
 10
194.30999755859375
 20
67.37349700927734
 30
0.0
 11
194.56399536132812
 21
70.29450225830078
 31
0.0
  0
LINE
  5
212
  8
SMALL_FEATURE
 10
194.56399536132812
 20
70.29450225830078
 30
0.0
 11
194.18299865722656
 21
70.35800170898438
 31
0.0
  0
LINE
  5
213
  8
SMALL_FEATURE
 10
194.18299865722656
 20
70.35800170898438
 30
0.0
 11
193.4844970703125
 21
72.64399719238281
 31
0.0
  0
LINE
  5
214
  8
SMALL_FEATURE
 10
193.4844970703125
 20
72.64399719238281
 30
0.0
 11
191.00799560546875
 21
76.70800018310547
 31
0.0
  0
LINE
  5
215
  8
SMALL_FEATURE
 10
191.00799560546875
 20
76.70800018310547
 30
0.0
 11
187.70599365234375
 21
79.56549835205078
 31
0.0
  0
LINE
  5
216
  8
SMALL_FEATURE
 10
187.70599365234375
 20
79.56549835205078
 30
0.0
 11
185.29299926757812
 21
80.77200317382812
 31
0.0
  0
LINE
  5
217
  8
SMALL_FEATURE
 10
185.29299926757812
 20
80.77200317382812
 30
0.0
 11
183.19749450683594
 21
81.34349822998047
 31
0.0
  0
LINE
  5
218
  8
SMALL_FEATURE
 10
183.19749450683594
 20
81.34349822998047
 30
0.0
 11
183.07049560546875
 21
81.78800201416016
 31
0.0
  0
LINE
  5
219
  8
SMALL_FEATURE
 10
183.07049560546875
 20
81.78800201416016
 30
0.0
 11
180.21299743652344
 21
81.66100311279297
 31
0.0
  0
LINE
  5
21A
  8
SMALL_FEATURE
 10
180.21299743652344
 20
81.66100311279297
 30
0.0
 11
179.95899963378906
 21
85.5979995727539
 31
0.0
  0
LINE
  5
21B
  8
SMALL_FEATURE
 10
166.8144989013672
 20
84.77249908447266
 30
0.0
 11
166.43350219726562
 21
84.70899963378906
 31
0.0
  0
LINE
  5
21C
  8
SMALL_FEATURE
 10
166.43350219726562
 20
84.70899963378906
 30
0.0
 11
166.30650329589844
 21
84.20099639892578
 31
0.0
  0
LINE
  5
21D
  8
SMALL_FEATURE
 10
166.30650329589844
 20
84.20099639892578
 30
0.0
 11
165.54449462890625
 21
83.9469985961914
 31
0.0
  0
LINE
  5
21E
  8
SMALL_FEATURE
 10
165.54449462890625
 20
83.9469985961914
 30
0.0
 11
165.4810028076172
 21
83.31199645996094
 31
0.0
  0
LINE
  5
21F
  8
SMALL_FEATURE
 10
165.4810028076172
 20
83.31199645996094
 30
0.0
 11
164.78250122070312
 21
83.18499755859375
 31
0.0
  0
LINE
  5
220
  8
SMALL_FEATURE
 10
164.78250122070312
 20
83.18499755859375
 30
0.0
 11
164.65550231933594
 21
82.04199981689453
 31
0.0
  0
LINE
  5
221
  8
SMALL_FEATURE
 10
164.65550231933594
 20
82.04199981689453
 30
0.0
 11
163.63949584960938
 21
82.04199981689453
 31
0.0
  0
LINE
  5
222
  8
SMALL_FEATURE
 10
163.63949584960938
 20
82.04199981689453
 30
0.0
 11
163.44900512695312
 21
81.27999877929688
 31
0.0
  0
LINE
  5
223
  8
SMALL_FEATURE
 10
163.44900512695312
 20
81.27999877929688
 30
0.0
 11
162.62350463867188
 21
81.0260009765625
 31
0.0
  0
LINE
  5
224
  8
SMALL_FEATURE
 10
162.62350463867188
 20
81.0260009765625
 30
0.0
 11
162.62350463867188
 21
80.51799774169922
 31
0.0
  0
LINE
  5
225
  8
SMALL_FEATURE
 10
162.62350463867188
 20
80.51799774169922
 30
0.0
 11
163.2584991455078
 21
79.94650268554688
 31
0.0
  0
LINE
  5
226
  8
SMALL_FEATURE
 10
163.2584991455078
 20
79.94650268554688
 30
0.0
 11
163.7030029296875
 21
79.94650268554688
 31
0.0
  0
LINE
  5
227
  8
SMALL_FEATURE
 10
163.7030029296875
 20
79.94650268554688
 30
0.0
 11
163.89349365234375
 21
80.70850372314453
 31
0.0
  0
LINE
  5
228
  8
SMALL_FEATURE
 10
163.89349365234375
 20
80.70850372314453
 30
0.0
 11
164.5919952392578
 21
80.83550262451172
 31
0.0
  0
LINE
  5
229
  8
SMALL_FEATURE
 10
164.5919952392578
 20
80.83550262451172
 30
0.0
 11
164.78250122070312
 21
81.34349822998047
 31
0.0
  0
LINE
  5
22A
  8
SMALL_FEATURE
 10
164.78250122070312
 20
81.34349822998047
 30
0.0
 11
165.41749572753906
 21
81.34349822998047
 31
0.0
  0
LINE
  5
22B
  8
SMALL_FEATURE
 10
165.41749572753906
 20
81.34349822998047
 30
0.0
 11
165.41749572753906
 21
81.97850036621094
 31
0.0
  0
LINE
  5
22C
  8
SMALL_FEATURE
 10
165.41749572753906
 20
81.97850036621094
 30
0.0
 11
165.98899841308594
 21
82.23249816894531
 31
0.0
  0
LINE
  5
22D
  8
SMALL_FEATURE
 10
165.98899841308594
 20
82.23249816894531
 30
0.0
 11
165.98899841308594
 21
82.86750030517578
 31
0.0
  0
LINE
  5
22E
  8
SMALL_FEATURE
 10
165.98899841308594
 20
82.86750030517578
 30
0.0
 11
166.8144989013672
 21
83.12149810791016
 31
0.0
  0
LINE
  5
22F
  8
SMALL_FEATURE
 10
166.8144989013672
 20
83.12149810791016
 30
0.0
 11
166.8144989013672
 21
84.77249908447266
 31
0.0
  0
LINE
  5
230
  8
SMALL_FEATURE
 10
188.6584930419922
 20
81.66100311279297
 30
0.0
 11
188.78550720214844
 21
81.0895004272461
 31
0.0
  0
LINE
  5
231
  8
SMALL_FEATURE
 10
188.78550720214844
 20
81.0895004272461
 30
0.0
 11
189.54750061035156
 21
80.9625015258789
 31
0.0
  0
LINE
  5
232
  8
SMALL_FEATURE
 10
189.54750061035156
 20
80.9625015258789
 30
0.0
 11
190.0554962158203
 21
79.62899780273438
 31
0.0
  0
LINE
  5
233
  8
SMALL_FEATURE
 10
190.0554962158203
 20
79.62899780273438
 30
0.0
 11
190.75399780273438
 21
79.62899780273438
 31
0.0
  0
LINE
  5
234
  8
SMALL_FEATURE
 10
190.75399780273438
 20
79.62899780273438
 30
0.0
 11
191.00799560546875
 21
79.12100219726562
 31
0.0
  0
LINE
  5
235
  8
SMALL_FEATURE
 10
191.00799560546875
 20
79.12100219726562
 30
0.0
 11
191.7064971923828
 21
79.05750274658203
 31
0.0
  0
LINE
  5
236
  8
SMALL_FEATURE
 10
191.7064971923828
 20
79.05750274658203
 30
0.0
 11
191.9604949951172
 21
78.29550170898438
 31
0.0
  0
LINE
  5
237
  8
SMALL_FEATURE
 10
191.9604949951172
 20
78.29550170898438
 30
0.0
 11
193.6750030517578
 21
78.42250061035156
 31
0.0
  0
LINE
  5
238
  8
SMALL_FEATURE
 10
193.6750030517578
 20
78.42250061035156
 30
0.0
 11
193.54800415039062
 21
78.80349731445312
 31
0.0
  0
LINE
  5
239
  8
SMALL_FEATURE
 10
193.54800415039062
 20
78.80349731445312
 30
0.0
 11
192.97650146484375
 21
78.86699676513672
 31
0.0
  0
LINE
  5
23A
  8
SMALL_FEATURE
 10
192.97650146484375
 20
78.86699676513672
 30
0.0
 11
192.84950256347656
 21
79.56549835205078
 31
0.0
  0
LINE
  5
23B
  8
SMALL_FEATURE
 10
192.84950256347656
 20
79.56549835205078
 30
0.0
 11
192.08749389648438
 21
79.69249725341797
 31
0.0
  0
LINE
  5
23C
  8
SMALL_FEATURE
 10
192.08749389648438
 20
79.69249725341797
 30
0.0
 11
191.9604949951172
 21
80.32749938964844
 31
0.0
  0
LINE
  5
23D
  8
SMALL_FEATURE
 10
191.9604949951172
 20
80.32749938964844
 30
0.0
 11
190.8175048828125
 21
80.39099884033203
 31
0.0
  0
LINE
  5
23E
  8
SMALL_FEATURE
 10
190.8175048828125
 20
80.39099884033203
 30
0.0
 11
190.75399780273438
 21
81.34349822998047
 31
0.0
  0
LINE
  5
23F
  8
SMALL_FEATURE
 10
190.75399780273438
 20
81.34349822998047
 30
0.0
 11
189.99200439453125
 21
81.53399658203125
 31
0.0
  0
LINE
  5
240
  8
SMALL_FEATURE
 10
189.99200439453125
 20
81.53399658203125
 30
0.0
 11
189.73800659179688
 21
82.2959976196289
 31
0.0
  0
LINE
  5
241
  8
SMALL_FEATURE
 10
189.73800659179688
 20
82.2959976196289
 30
0.0
 11
189.16650390625
 21
82.2959976196289
 31
0.0
  0
LINE
  5
242
  8
SMALL_FEATURE
 10
189.16650390625
 20
82.2959976196289
 30
0.0
 11
188.9759979248047
 21
81.72450256347656
 31
0.0
  0
LINE
  5
243
  8
SMALL_FEATURE
 10
188.9759979248047
 20
81.72450256347656
 30
0.0
 11
188.6584930419922
 21
81.66100311279297
 31
0.0
  0
LINE
  5
244
  8
SMALL_FEATURE
 10
153.03500366210938
 20
158.68649291992188
 30
0.0
 11
152.6540069580078
 21
158.68649291992188
 31
0.0
  0
LINE
  5
245
  8
SMALL_FEATURE
 10
152.6540069580078
 20
158.68649291992188
 30
0.0
 11
152.52699279785156
 21
158.11500549316406
 31
0.0
  0
LINE
  5
246
  8
SMALL_FEATURE
 10
152.52699279785156
 20
158.11500549316406
 30
0.0
 11
151.76499938964844
 21
157.86099243164062
 31
0.0
  0
LINE
  5
247
  8
SMALL_FEATURE
 10
151.76499938964844
 20
157.86099243164062
 30
0.0
 11
151.70150756835938
 21
157.2259979248047
 31
0.0
  0
LINE
  5
248
  8
SMALL_FEATURE
 10
151.70150756835938
 20
157.2259979248047
 30
0.0
 11
150.9394989013672
 21
157.03550720214844
 31
0.0
  0
LINE
  5
249
  8
SMALL_FEATURE
 10
150.9394989013672
 20
157.03550720214844
 30
0.0
 11
150.87600708007812
 21
155.95599365234375
 31
0.0
  0
LINE
  5
24A
  8
SMALL_FEATURE
 10
150.87600708007812
 20
155.95599365234375
 30
0.0
 11
149.86000061035156
 21
155.95599365234375
 31
0.0
  0
LINE
  5
24B
  8
SMALL_FEATURE
 10
149.86000061035156
 20
155.95599365234375
 30
0.0
 11
149.6060028076172
 21
155.1304931640625
 31
0.0
  0
LINE
  5
24C
  8
SMALL_FEATURE
 10
149.6060028076172
 20
155.1304931640625
 30
0.0
 11
148.78050231933594
 21
154.87649536132812
 31
0.0
  0
LINE
  5
24D
  8
SMALL_FEATURE
 10
148.78050231933594
 20
154.87649536132812
 30
0.0
 11
148.843994140625
 21
154.36849975585938
 31
0.0
  0
LINE
  5
24E
  8
SMALL_FEATURE
 10
148.843994140625
 20
154.36849975585938
 30
0.0
 11
149.41549682617188
 21
153.86050415039062
 31
0.0
  0
LINE
  5
24F
  8
SMALL_FEATURE
 10
149.41549682617188
 20
153.86050415039062
 30
0.0
 11
149.79649353027344
 21
153.7969970703125
 31
0.0
  0
LINE
  5
250
  8
SMALL_FEATURE
 10
149.79649353027344
 20
153.7969970703125
 30
0.0
 11
150.05050659179688
 21
154.62249755859375
 31
0.0
  0
LINE
  5
251
  8
SMALL_FEATURE
 10
150.05050659179688
 20
154.62249755859375
 30
0.0
 11
150.6855010986328
 21
154.68600463867188
 31
0.0
  0
LINE
  5
252
  8
SMALL_FEATURE
 10
150.6855010986328
 20
154.68600463867188
 30
0.0
 11
151.0030059814453
 21
155.25750732421875
 31
0.0
  0
LINE
  5
253
  8
SMALL_FEATURE
 10
151.0030059814453
 20
155.25750732421875
 30
0.0
 11
151.63800048828125
 21
155.25750732421875
 31
0.0
  0
LINE
  5
254
  8
SMALL_FEATURE
 10
151.63800048828125
 20
155.25750732421875
 30
0.0
 11
151.63800048828125
 21
155.8925018310547
 31
0.0
  0
LINE
  5
255
  8
SMALL_FEATURE
 10
151.63800048828125
 20
155.8925018310547
 30
0.0
 11
152.20950317382812
 21
156.2100067138672
 31
0.0
  0
LINE
  5
256
  8
SMALL_FEATURE
 10
152.20950317382812
 20
156.2100067138672
 30
0.0
 11
152.20950317382812
 21
156.781494140625
 31
0.0
  0
LINE
  5
257
  8
SMALL_FEATURE
 10
152.20950317382812
 20
156.781494140625
 30
0.0
 11
153.03500366210938
 21
157.03550720214844
 31
0.0
  0
LINE
  5
258
  8
SMALL_FEATURE
 10
153.03500366210938
 20
157.03550720214844
 30
0.0
 11
153.03500366210938
 21
158.68649291992188
 31
0.0
  0
LINE
  5
259
  8
SMALL_FEATURE
 10
121.28500366210938
 20
137.28700256347656
 30
0.0
 11
120.90399932861328
 21
136.906005859375
 31
0.0
  0
LINE
  5
25A
  8
SMALL_FEATURE
 10
120.90399932861328
 20
136.906005859375
 30
0.0
 11
120.90399932861328
 21
134.8105010986328
 31
0.0
  0
LINE
  5
25B
  8
SMALL_FEATURE
 10
120.90399932861328
 20
134.8105010986328
 30
0.0
 11
120.6500015258789
 21
134.7469940185547
 31
0.0
  0
LINE
  5
25C
  8
SMALL_FEATURE
 10
120.6500015258789
 20
134.7469940185547
 30
0.0
 11
120.90399932861328
 21
134.55650329589844
 31
0.0
  0
LINE
  5
25D
  8
SMALL_FEATURE
 10
120.90399932861328
 20
134.55650329589844
 30
0.0
 11
120.90399932861328
 21
132.58799743652344
 31
0.0
  0
LINE
  5
25E
  8
SMALL_FEATURE
 10
120.90399932861328
 20
132.58799743652344
 30
0.0
 11
121.22149658203125
 21
132.20700073242188
 31
0.0
  0
LINE
  5
25F
  8
SMALL_FEATURE
 10
121.22149658203125
 20
132.20700073242188
 30
0.0
 11
122.4280014038086
 21
132.27049255371094
 31
0.0
  0
LINE
  5
260
  8
SMALL_FEATURE
 10
122.4280014038086
 20
132.27049255371094
 30
0.0
 11
122.364501953125
 21
134.04849243164062
 31
0.0
  0
LINE
  5
261
  8
SMALL_FEATURE
 10
122.364501953125
 20
134.04849243164062
 30
0.0
 11
121.09449768066406
 21
134.36599731445312
 31
0.0
  0
LINE
  5
262
  8
SMALL_FEATURE
 10
121.09449768066406
 20
134.36599731445312
 30
0.0
 11
121.15799713134766
 21
135.19149780273438
 31
0.0
  0
LINE
  5
263
  8
SMALL_FEATURE
 10
121.15799713134766
 20
135.19149780273438
 30
0.0
 11
122.4280014038086
 21
135.2550048828125
 31
0.0
  0
LINE
  5
264
  8
SMALL_FEATURE
 10
122.4280014038086
 20
135.2550048828125
 30
0.0
 11
122.4280014038086
 21
137.09649658203125
 31
0.0
  0
LINE
  5
265
  8
SMALL_FEATURE
 10
122.4280014038086
 20
137.09649658203125
 30
0.0
 11
121.28500366210938
 21
137.28700256347656
 31
0.0
  0
LINE
  5
266
  8
SMALL_FEATURE
 10
108.45800018310547
 20
172.72000122070312
 30
0.0
 11
108.2040023803711
 21
172.33900451660156
 31
0.0
  0
LINE
  5
267
  8
SMALL_FEATURE
 10
108.2040023803711
 20
172.33900451660156
 30
0.0
 11
108.26750183105469
 21
170.3070068359375
 31
0.0
  0
LINE
  5
268
  8
SMALL_FEATURE
 10
108.26750183105469
 20
170.3070068359375
 30
0.0
 11
107.94999694824219
 21
170.24349975585938
 31
0.0
  0
LINE
  5
269
  8
SMALL_FEATURE
 10
107.94999694824219
 20
170.24349975585938
 30
0.0
 11
108.26750183105469
 21
170.05299377441406
 31
0.0
  0
LINE
  5
26A
  8
SMALL_FEATURE
 10
108.26750183105469
 20
170.05299377441406
 30
0.0
 11
108.2040023803711
 21
168.08450317382812
 31
0.0
  0
LINE
  5
26B
  8
SMALL_FEATURE
 10
108.2040023803711
 20
168.08450317382812
 30
0.0
 11
108.52149963378906
 21
167.70350646972656
 31
0.0
  0
LINE
  5
26C
  8
SMALL_FEATURE
 10
108.52149963378906
 20
167.70350646972656
 30
0.0
 11
109.72799682617188
 21
167.76699829101562
 31
0.0
  0
LINE
  5
26D
  8
SMALL_FEATURE
 10
109.72799682617188
 20
167.76699829101562
 30
0.0
 11
109.66449737548828
 21
169.60850524902344
 31
0.0
  0
LINE
  5
26E
  8
SMALL_FEATURE
 10
109.66449737548828
 20
169.60850524902344
 30
0.0
 11
108.39450073242188
 21
169.7989959716797
 31
0.0
  0
LINE
  5
26F
  8
SMALL_FEATURE
 10
108.39450073242188
 20
169.7989959716797
 30
0.0
 11
108.45800018310547
 21
170.62449645996094
 31
0.0
  0
LINE
  5
270
  8
SMALL_FEATURE
 10
108.45800018310547
 20
170.62449645996094
 30
0.0
 11
109.4104995727539
 21
170.62449645996094
 31
0.0
  0
LINE
  5
271
  8
SMALL_FEATURE
 10
109.4104995727539
 20
170.62449645996094
 30
0.0
 11
109.72799682617188
 21
170.94200134277344
 31
0.0
  0
LINE
  5
272
  8
SMALL_FEATURE
 10
109.72799682617188
 20
170.94200134277344
 30
0.0
 11
109.72799682617188
 21
172.46600341796875
 31
0.0
  0
LINE
  5
273
  8
SMALL_FEATURE
 10
109.72799682617188
 20
172.46600341796875
 30
0.0
 11
108.45800018310547
 21
172.72000122070312
 31
0.0
  0
LINE
  5
274
  8
SMALL_FEATURE
 10
190.88099670410156
 20
32.32149887084961
 30
0.0
 11
190.43649291992188
 21
32.13100051879883
 31
0.0
  0
LINE
  5
275
  8
SMALL_FEATURE
 10
190.43649291992188
 20
32.13100051879883
 30
0.0
 11
189.2935028076172
 21
28.95599937438965
 31
0.0
  0
LINE
  5
276
  8
SMALL_FEATURE
 10
189.2935028076172
 20
28.95599937438965
 30
0.0
 11
188.4044952392578
 21
28.892499923706055
 31
0.0
  0
LINE
  5
277
  8
SMALL_FEATURE
 10
188.4044952392578
 20
28.892499923706055
 30
0.0
 11
188.08700561523438
 21
29.273500442504883
 31
0.0
  0
LINE
  5
278
  8
SMALL_FEATURE
 10
188.08700561523438
 20
29.273500442504883
 30
0.0
 11
186.8804931640625
 21
27.749500274658203
 31
0.0
  0
LINE
  5
279
  8
SMALL_FEATURE
 10
186.8804931640625
 20
27.749500274658203
 30
0.0
 11
186.7534942626953
 21
26.60650062561035
 31
0.0
  0
LINE
  5
27A
  8
SMALL_FEATURE
 10
186.7534942626953
 20
26.60650062561035
 30
0.0
 11
187.00750732421875
 21
26.60650062561035
 31
0.0
  0
LINE
  5
27B
  8
SMALL_FEATURE
 10
187.00750732421875
 20
26.60650062561035
 30
0.0
 11
187.00750732421875
 21
27.749500274658203
 31
0.0
  0
LINE
  5
27C
  8
SMALL_FEATURE
 10
187.00750732421875
 20
27.749500274658203
 30
0.0
 11
187.89649963378906
 21
28.82900047302246
 31
0.0
  0
LINE
  5
27D
  8
SMALL_FEATURE
 10
187.89649963378906
 20
28.82900047302246
 30
0.0
 11
188.78550720214844
 21
28.765499114990234
 31
0.0
  0
LINE
  5
27E
  8
SMALL_FEATURE
 10
188.78550720214844
 20
28.765499114990234
 30
0.0
 11
188.78550720214844
 21
26.60650062561035
 31
0.0
  0
LINE
  5
27F
  8
SMALL_FEATURE
 10
188.78550720214844
 20
26.60650062561035
 30
0.0
 11
189.0395050048828
 21
26.60650062561035
 31
0.0
  0
LINE
  5
280
  8
SMALL_FEATURE
 10
189.0395050048828
 20
26.60650062561035
 30
0.0
 11
189.0395050048828
 21
28.38450050354004
 31
0.0
  0
LINE
  5
281
  8
SMALL_FEATURE
 10
189.0395050048828
 20
28.38450050354004
 30
0.0
 11
190.88099670410156
 21
32.32149887084961
 31
0.0
  0
LINE
  5
282
  8
BRIDGE_ROUTE
 10
131.12750244140625
 20
9.46150016784668
 30
0.0
 11
131.1909942626953
 21
41.020999908447266
 31
0.0
  0
LINE
  5
283
  8
BRIDGE_ROUTE
 10
131.1909942626953
 20
41.020999908447266
 30
0.0
 11
198.81849670410156
 21
40.95750045776367
 31
0.0
  0
LINE
  5
284
  8
BRIDGE_ROUTE
 10
198.81849670410156
 20
40.95750045776367
 30
0.0
 11
198.7550048828125
 21
39.6875
 31
0.0
  0
LINE
  5
285
  8
BRIDGE_ROUTE
 10
198.7550048828125
 20
39.6875
 30
0.0
 11
132.52450561523438
 21
39.6875
 31
0.0
  0
LINE
  5
286
  8
BRIDGE_ROUTE
 10
132.52450561523438
 20
39.6875
 30
0.0
 11
132.46099853515625
 21
9.46150016784668
 31
0.0
  0
LINE
  5
287
  8
BRIDGE_ROUTE
 10
132.46099853515625
 20
9.46150016784668
 30
0.0
 11
131.12750244140625
 21
9.46150016784668
 31
0.0
  0
LINE
  5
288
  8
JACK_ROUTE
 10
146.6215057373047
 20
139.50950622558594
 30
0.0
 11
147.12950134277344
 21
141.54150390625
 31
0.0
  0
LINE
  5
289
  8
JACK_ROUTE
 10
147.12950134277344
 20
141.54150390625
 30
0.0
 11
146.93899536132812
 21
142.7480010986328
 31
0.0
  0
LINE
  5
28A
  8
JACK_ROUTE
 10
146.93899536132812
 20
142.7480010986328
 30
0.0
 11
147.25650024414062
 21
144.3354949951172
 31
0.0
  0
LINE
  5
28B
  8
JACK_ROUTE
 10
147.25650024414062
 20
144.3354949951172
 30
0.0
 11
148.843994140625
 21
148.46299743652344
 31
0.0
  0
LINE
  5
28C
  8
JACK_ROUTE
 10
148.843994140625
 20
148.46299743652344
 30
0.0
 11
150.4949951171875
 21
151.32049560546875
 31
0.0
  0
LINE
  5
28D
  8
JACK_ROUTE
 10
150.4949951171875
 20
151.32049560546875
 30
0.0
 11
151.89199829101562
 21
153.09849548339844
 31
0.0
  0
LINE
  5
28E
  8
JACK_ROUTE
 10
151.89199829101562
 20
153.09849548339844
 30
0.0
 11
155.82899475097656
 21
156.71800231933594
 31
0.0
  0
LINE
  5
28F
  8
JACK_ROUTE
 10
155.82899475097656
 20
156.71800231933594
 30
0.0
 11
158.11500549316406
 21
158.24200439453125
 31
0.0
  0
LINE
  5
290
  8
JACK_ROUTE
 10
158.11500549316406
 20
158.24200439453125
 30
0.0
 11
160.97250366210938
 21
159.44850158691406
 31
0.0
  0
LINE
  5
291
  8
JACK_ROUTE
 10
160.97250366210938
 20
159.44850158691406
 30
0.0
 11
161.79800415039062
 21
159.38499450683594
 31
0.0
  0
LINE
  5
292
  8
JACK_ROUTE
 10
161.79800415039062
 20
159.38499450683594
 30
0.0
 11
161.79800415039062
 21
156.46400451660156
 31
0.0
  0
LINE
  5
293
  8
JACK_ROUTE
 10
161.79800415039062
 20
156.46400451660156
 30
0.0
 11
161.48049926757812
 21
156.33700561523438
 31
0.0
  0
LINE
  5
294
  8
JACK_ROUTE
 10
161.48049926757812
 20
156.33700561523438
 30
0.0
 11
161.48049926757812
 21
144.7165069580078
 31
0.0
  0
LINE
  5
295
  8
JACK_ROUTE
 10
161.48049926757812
 20
144.7165069580078
 30
0.0
 11
159.57550048828125
 21
144.5260009765625
 31
0.0
  0
LINE
  5
296
  8
JACK_ROUTE
 10
159.57550048828125
 20
144.5260009765625
 30
0.0
 11
161.48049926757812
 21
144.3990020751953
 31
0.0
  0
LINE
  5
297
  8
JACK_ROUTE
 10
161.48049926757812
 20
144.3990020751953
 30
0.0
 11
161.54400634765625
 21
138.87449645996094
 31
0.0
  0
LINE
  5
298
  8
JACK_ROUTE
 10
161.54400634765625
 20
138.87449645996094
 30
0.0
 11
161.7344970703125
 21
144.46249389648438
 31
0.0
  0
LINE
  5
299
  8
JACK_ROUTE
 10
161.7344970703125
 20
144.46249389648438
 30
0.0
 11
162.55999755859375
 21
144.46249389648438
 31
0.0
  0
LINE
  5
29A
  8
JACK_ROUTE
 10
162.55999755859375
 20
144.46249389648438
 30
0.0
 11
162.62350463867188
 21
144.0814971923828
 31
0.0
  0
LINE
  5
29B
  8
JACK_ROUTE
 10
162.62350463867188
 20
144.0814971923828
 30
0.0
 11
165.4810028076172
 21
144.46249389648438
 31
0.0
  0
LINE
  5
29C
  8
JACK_ROUTE
 10
165.4810028076172
 20
144.46249389648438
 30
0.0
 11
165.60800170898438
 21
143.25599670410156
 31
0.0
  0
LINE
  5
29D
  8
JACK_ROUTE
 10
165.60800170898438
 20
143.25599670410156
 30
0.0
 11
165.79849243164062
 21
144.46249389648438
 31
0.0
  0
LINE
  5
29E
  8
JACK_ROUTE
 10
165.79849243164062
 20
144.46249389648438
 30
0.0
 11
171.57699584960938
 21
144.46249389648438
 31
0.0
  0
LINE
  5
29F
  8
JACK_ROUTE
 10
171.57699584960938
 20
144.46249389648438
 30
0.0
 11
171.70399475097656
 21
143.25599670410156
 31
0.0
  0
LINE
  5
2A0
  8
JACK_ROUTE
 10
171.70399475097656
 20
143.25599670410156
 30
0.0
 11
171.89450073242188
 21
144.46249389648438
 31
0.0
  0
LINE
  5
2A1
  8
JACK_ROUTE
 10
171.89450073242188
 20
144.46249389648438
 30
0.0
 11
174.7519989013672
 21
144.14500427246094
 31
0.0
  0
LINE
  5
2A2
  8
JACK_ROUTE
 10
174.7519989013672
 20
144.14500427246094
 30
0.0
 11
174.8155059814453
 21
144.46249389648438
 31
0.0
  0
LINE
  5
2A3
  8
JACK_ROUTE
 10
174.8155059814453
 20
144.46249389648438
 30
0.0
 11
175.64100646972656
 21
144.46249389648438
 31
0.0
  0
LINE
  5
2A4
  8
JACK_ROUTE
 10
175.64100646972656
 20
144.46249389648438
 30
0.0
 11
175.8314971923828
 21
138.87449645996094
 31
0.0
  0
LINE
  5
2A5
  8
JACK_ROUTE
 10
175.8314971923828
 20
138.87449645996094
 30
0.0
 11
175.76800537109375
 21
143.1925048828125
 31
0.0
  0
LINE
  5
2A6
  8
JACK_ROUTE
 10
175.76800537109375
 20
143.1925048828125
 30
0.0
 11
176.0854949951172
 21
143.3195037841797
 31
0.0
  0
LINE
  5
2A7
  8
JACK_ROUTE
 10
176.0854949951172
 20
143.3195037841797
 30
0.0
 11
176.0854949951172
 21
144.3990020751953
 31
0.0
  0
LINE
  5
2A8
  8
JACK_ROUTE
 10
176.0854949951172
 20
144.3990020751953
 30
0.0
 11
177.8000030517578
 21
144.6529998779297
 31
0.0
  0
LINE
  5
2A9
  8
JACK_ROUTE
 10
177.8000030517578
 20
144.6529998779297
 30
0.0
 11
176.0854949951172
 21
144.7165069580078
 31
0.0
  0
LINE
  5
2AA
  8
JACK_ROUTE
 10
176.0854949951172
 20
144.7165069580078
 30
0.0
 11
176.0854949951172
 21
156.33700561523438
 31
0.0
  0
LINE
  5
2AB
  8
JACK_ROUTE
 10
176.0854949951172
 20
156.33700561523438
 30
0.0
 11
175.57749938964844
 21
156.46400451660156
 31
0.0
  0
LINE
  5
2AC
  8
JACK_ROUTE
 10
175.57749938964844
 20
156.46400451660156
 30
0.0
 11
175.64100646972656
 21
159.38499450683594
 31
0.0
  0
LINE
  5
2AD
  8
JACK_ROUTE
 10
175.64100646972656
 20
159.38499450683594
 30
0.0
 11
176.52999877929688
 21
159.38499450683594
 31
0.0
  0
LINE
  5
2AE
  8
JACK_ROUTE
 10
176.52999877929688
 20
159.38499450683594
 30
0.0
 11
179.260498046875
 21
158.24200439453125
 31
0.0
  0
LINE
  5
2AF
  8
JACK_ROUTE
 10
179.260498046875
 20
158.24200439453125
 30
0.0
 11
183.07049560546875
 21
155.51150512695312
 31
0.0
  0
LINE
  5
2B0
  8
JACK_ROUTE
 10
183.07049560546875
 20
155.51150512695312
 30
0.0
 11
185.48350524902344
 21
153.09849548339844
 31
0.0
  0
LINE
  5
2B1
  8
JACK_ROUTE
 10
185.48350524902344
 20
153.09849548339844
 30
0.0
 11
188.08700561523438
 21
149.3520050048828
 31
0.0
  0
LINE
  5
2B2
  8
JACK_ROUTE
 10
188.08700561523438
 20
149.3520050048828
 30
0.0
 11
189.92849731445312
 21
144.90699768066406
 31
0.0
  0
LINE
  5
2B3
  8
JACK_ROUTE
 10
189.92849731445312
 20
144.90699768066406
 30
0.0
 11
189.67449951171875
 21
140.906494140625
 31
0.0
  0
LINE
  5
2B4
  8
JACK_ROUTE
 10
189.67449951171875
 20
140.906494140625
 30
0.0
 11
189.2935028076172
 21
140.84300231933594
 31
0.0
  0
LINE
  5
2B5
  8
JACK_ROUTE
 10
189.2935028076172
 20
140.84300231933594
 30
0.0
 11
189.54750061035156
 21
137.9219970703125
 31
0.0
  0
LINE
  5
2B6
  8
JACK_ROUTE
 10
189.54750061035156
 20
137.9219970703125
 30
0.0
 11
181.73699951171875
 21
137.9219970703125
 31
0.0
  0
LINE
  5
2B7
  8
JACK_ROUTE
 10
181.73699951171875
 20
137.9219970703125
 30
0.0
 11
177.35549926757812
 21
138.62049865722656
 31
0.0
  0
LINE
  5
2B8
  8
JACK_ROUTE
 10
177.35549926757812
 20
138.62049865722656
 30
0.0
 11
177.29200744628906
 21
137.85850524902344
 31
0.0
  0
LINE
  5
2B9
  8
JACK_ROUTE
 10
177.29200744628906
 20
137.85850524902344
 30
0.0
 11
171.89450073242188
 21
137.85850524902344
 31
0.0
  0
LINE
  5
2BA
  8
JACK_ROUTE
 10
171.89450073242188
 20
137.85850524902344
 30
0.0
 11
171.83099365234375
 21
138.62049865722656
 31
0.0
  0
LINE
  5
2BB
  8
JACK_ROUTE
 10
171.83099365234375
 20
138.62049865722656
 30
0.0
 11
170.68800354003906
 21
138.62049865722656
 31
0.0
  0
LINE
  5
2BC
  8
JACK_ROUTE
 10
170.68800354003906
 20
138.62049865722656
 30
0.0
 11
170.56100463867188
 21
138.87449645996094
 31
0.0
  0
LINE
  5
2BD
  8
JACK_ROUTE
 10
170.56100463867188
 20
138.87449645996094
 30
0.0
 11
170.4340057373047
 21
137.9219970703125
 31
0.0
  0
LINE
  5
2BE
  8
JACK_ROUTE
 10
170.4340057373047
 20
137.9219970703125
 30
0.0
 11
169.5449981689453
 21
137.9219970703125
 31
0.0
  0
LINE
  5
2BF
  8
JACK_ROUTE
 10
169.5449981689453
 20
137.9219970703125
 30
0.0
 11
169.48150634765625
 21
138.62049865722656
 31
0.0
  0
LINE
  5
2C0
  8
JACK_ROUTE
 10
169.48150634765625
 20
138.62049865722656
 30
0.0
 11
169.16400146484375
 21
138.62049865722656
 31
0.0
  0
LINE
  5
2C1
  8
JACK_ROUTE
 10
169.16400146484375
 20
138.62049865722656
 30
0.0
 11
169.10049438476562
 21
138.239501953125
 31
0.0
  0
LINE
  5
2C2
  8
JACK_ROUTE
 10
169.10049438476562
 20
138.239501953125
 30
0.0
 11
168.08450317382812
 21
138.239501953125
 31
0.0
  0
LINE
  5
2C3
  8
JACK_ROUTE
 10
168.08450317382812
 20
138.239501953125
 30
0.0
 11
168.02099609375
 21
138.62049865722656
 31
0.0
  0
LINE
  5
2C4
  8
JACK_ROUTE
 10
168.02099609375
 20
138.62049865722656
 30
0.0
 11
165.54449462890625
 21
138.62049865722656
 31
0.0
  0
LINE
  5
2C5
  8
JACK_ROUTE
 10
165.54449462890625
 20
138.62049865722656
 30
0.0
 11
165.4810028076172
 21
137.85850524902344
 31
0.0
  0
LINE
  5
2C6
  8
JACK_ROUTE
 10
165.4810028076172
 20
137.85850524902344
 30
0.0
 11
158.5594940185547
 21
137.66799926757812
 31
0.0
  0
LINE
  5
2C7
  8
JACK_ROUTE
 10
158.5594940185547
 20
137.66799926757812
 30
0.0
 11
158.5594940185547
 21
138.5570068359375
 31
0.0
  0
LINE
  5
2C8
  8
JACK_ROUTE
 10
158.5594940185547
 20
138.5570068359375
 30
0.0
 11
160.02000427246094
 21
138.62049865722656
 31
0.0
  0
LINE
  5
2C9
  8
JACK_ROUTE
 10
160.02000427246094
 20
138.62049865722656
 30
0.0
 11
157.79750061035156
 21
138.3665008544922
 31
0.0
  0
LINE
  5
2CA
  8
JACK_ROUTE
 10
157.79750061035156
 20
138.3665008544922
 30
0.0
 11
146.68499755859375
 21
138.49349975585938
 31
0.0
  0
LINE
  5
2CB
  8
JACK_ROUTE
 10
146.68499755859375
 20
138.49349975585938
 30
0.0
 11
146.6215057373047
 21
139.50950622558594
 31
0.0
  0
LINE
  5
2CC
  8
JACK_ROUTE
 10
74.99349975585938
 20
262.76300048828125
 30
0.0
 11
38.67150115966797
 21
256.3494873046875
 31
0.0
  0
LINE
  5
2CD
  8
JACK_ROUTE
 10
38.67150115966797
 20
256.3494873046875
 30
0.0
 11
42.35449981689453
 21
256.8575134277344
 31
0.0
  0
LINE
  5
2CE
  8
JACK_ROUTE
 10
42.35449981689453
 20
256.8575134277344
 30
0.0
 11
42.48149871826172
 21
253.93649291992188
 31
0.0
  0
LINE
  5
2CF
  8
JACK_ROUTE
 10
42.48149871826172
 20
253.93649291992188
 30
0.0
 11
42.989498138427734
 21
253.8730010986328
 31
0.0
  0
LINE
  5
2D0
  8
JACK_ROUTE
 10
42.989498138427734
 20
253.8730010986328
 30
0.0
 11
47.81549835205078
 21
226.7584991455078
 31
0.0
  0
LINE
  5
2D1
  8
JACK_ROUTE
 10
47.81549835205078
 20
226.7584991455078
 30
0.0
 11
47.81549835205078
 21
225.8695068359375
 31
0.0
  0
LINE
  5
2D2
  8
JACK_ROUTE
 10
47.81549835205078
 20
225.8695068359375
 30
0.0
 11
47.49800109863281
 21
225.6790008544922
 31
0.0
  0
LINE
  5
2D3
  8
JACK_ROUTE
 10
47.49800109863281
 20
225.6790008544922
 30
0.0
 11
48.2599983215332
 21
223.64700317382812
 31
0.0
  0
LINE
  5
2D4
  8
JACK_ROUTE
 10
48.2599983215332
 20
223.64700317382812
 30
0.0
 11
48.19649887084961
 21
222.82150268554688
 31
0.0
  0
LINE
  5
2D5
  8
JACK_ROUTE
 10
48.19649887084961
 20
222.82150268554688
 30
0.0
 11
44.76750183105469
 21
222.25
 31
0.0
  0
LINE
  5
2D6
  8
JACK_ROUTE
 10
44.76750183105469
 20
222.25
 30
0.0
 11
73.34249877929688
 21
227.13949584960938
 31
0.0
  0
LINE
  5
2D7
  8
JACK_ROUTE
 10
73.34249877929688
 20
227.13949584960938
 30
0.0
 11
73.66000366210938
 21
224.28199768066406
 31
0.0
  0
LINE
  5
2D8
  8
JACK_ROUTE
 10
73.66000366210938
 20
224.28199768066406
 30
0.0
 11
69.97699737548828
 21
224.0915069580078
 31
0.0
  0
LINE
  5
2D9
  8
JACK_ROUTE
 10
69.97699737548828
 20
224.0915069580078
 30
0.0
 11
73.78700256347656
 21
224.0279998779297
 31
0.0
  0
LINE
  5
2DA
  8
JACK_ROUTE
 10
73.78700256347656
 20
224.0279998779297
 30
0.0
 11
73.78700256347656
 21
219.2655029296875
 31
0.0
  0
LINE
  5
2DB
  8
JACK_ROUTE
 10
73.78700256347656
 20
219.2655029296875
 30
0.0
 11
69.97699737548828
 21
219.01150512695312
 31
0.0
  0
LINE
  5
2DC
  8
JACK_ROUTE
 10
69.97699737548828
 20
219.01150512695312
 30
0.0
 11
73.72350311279297
 21
218.947998046875
 31
0.0
  0
LINE
  5
2DD
  8
JACK_ROUTE
 10
73.72350311279297
 20
218.947998046875
 30
0.0
 11
73.40599822998047
 21
216.0904998779297
 31
0.0
  0
LINE
  5
2DE
  8
JACK_ROUTE
 10
73.40599822998047
 20
216.0904998779297
 30
0.0
 11
73.78700256347656
 21
216.02699279785156
 31
0.0
  0
LINE
  5
2DF
  8
JACK_ROUTE
 10
73.78700256347656
 20
216.02699279785156
 30
0.0
 11
73.78700256347656
 21
212.91549682617188
 31
0.0
  0
LINE
  5
2E0
  8
JACK_ROUTE
 10
73.78700256347656
 20
212.91549682617188
 30
0.0
 11
73.97750091552734
 21
216.02699279785156
 31
0.0
  0
LINE
  5
2E1
  8
JACK_ROUTE
 10
73.97750091552734
 20
216.02699279785156
 30
0.0
 11
74.29499816894531
 21
216.0904998779297
 31
0.0
  0
LINE
  5
2E2
  8
JACK_ROUTE
 10
74.29499816894531
 20
216.0904998779297
 30
0.0
 11
74.04100036621094
 21
219.01150512695312
 31
0.0
  0
LINE
  5
2E3
  8
JACK_ROUTE
 10
74.04100036621094
 20
219.01150512695312
 30
0.0
 11
83.50250244140625
 21
219.01150512695312
 31
0.0
  0
LINE
  5
2E4
  8
JACK_ROUTE
 10
83.50250244140625
 20
219.01150512695312
 30
0.0
 11
77.08899688720703
 21
219.2655029296875
 31
0.0
  0
LINE
  5
2E5
  8
JACK_ROUTE
 10
77.08899688720703
 20
219.2655029296875
 30
0.0
 11
77.08899688720703
 21
221.55149841308594
 31
0.0
  0
LINE
  5
2E6
  8
JACK_ROUTE
 10
77.08899688720703
 20
221.55149841308594
 30
0.0
 11
75.81900024414062
 21
221.86900329589844
 31
0.0
  0
LINE
  5
2E7
  8
JACK_ROUTE
 10
75.81900024414062
 20
221.86900329589844
 30
0.0
 11
75.88249969482422
 21
223.07550048828125
 31
0.0
  0
LINE
  5
2E8
  8
JACK_ROUTE
 10
75.88249969482422
 20
223.07550048828125
 30
0.0
 11
77.15249633789062
 21
223.07550048828125
 31
0.0
  0
LINE
  5
2E9
  8
JACK_ROUTE
 10
77.15249633789062
 20
223.07550048828125
 30
0.0
 11
76.89849853515625
 21
223.26600646972656
 31
0.0
  0
LINE
  5
2EA
  8
JACK_ROUTE
 10
76.89849853515625
 20
223.26600646972656
 30
0.0
 11
76.96199798583984
 21
224.0915069580078
 31
0.0
  0
LINE
  5
2EB
  8
JACK_ROUTE
 10
76.96199798583984
 20
224.0915069580078
 30
0.0
 11
83.43900299072266
 21
224.218505859375
 31
0.0
  0
LINE
  5
2EC
  8
JACK_ROUTE
 10
83.43900299072266
 20
224.218505859375
 30
0.0
 11
74.04100036621094
 21
224.28199768066406
 31
0.0
  0
LINE
  5
2ED
  8
JACK_ROUTE
 10
74.04100036621094
 20
224.28199768066406
 30
0.0
 11
74.3584976196289
 21
227.45700073242188
 31
0.0
  0
LINE
  5
2EE
  8
JACK_ROUTE
 10
74.3584976196289
 20
227.45700073242188
 30
0.0
 11
81.0895004272461
 21
228.6634979248047
 31
0.0
  0
LINE
  5
2EF
  8
JACK_ROUTE
 10
81.0895004272461
 20
228.6634979248047
 30
0.0
 11
74.04100036621094
 21
227.52049255371094
 31
0.0
  0
LINE
  5
2F0
  8
JACK_ROUTE
 10
74.04100036621094
 20
227.52049255371094
 30
0.0
 11
73.91400146484375
 21
230.25100708007812
 31
0.0
  0
LINE
  5
2F1
  8
JACK_ROUTE
 10
73.91400146484375
 20
230.25100708007812
 30
0.0
 11
73.72350311279297
 21
227.3300018310547
 31
0.0
  0
LINE
  5
2F2
  8
JACK_ROUTE
 10
73.72350311279297
 20
227.3300018310547
 30
0.0
 11
50.10150146484375
 21
223.13900756835938
 31
0.0
  0
LINE
  5
2F3
  8
JACK_ROUTE
 10
50.10150146484375
 20
223.13900756835938
 30
0.0
 11
48.45050048828125
 21
223.07550048828125
 31
0.0
  0
LINE
  5
2F4
  8
JACK_ROUTE
 10
48.45050048828125
 20
223.07550048828125
 30
0.0
 11
48.45050048828125
 21
225.8695068359375
 31
0.0
  0
LINE
  5
2F5
  8
JACK_ROUTE
 10
48.45050048828125
 20
225.8695068359375
 30
0.0
 11
47.942501068115234
 21
225.93299865722656
 31
0.0
  0
LINE
  5
2F6
  8
JACK_ROUTE
 10
47.942501068115234
 20
225.93299865722656
 30
0.0
 11
43.11650085449219
 21
252.98399353027344
 31
0.0
  0
LINE
  5
2F7
  8
JACK_ROUTE
 10
43.11650085449219
 20
252.98399353027344
 30
0.0
 11
43.11650085449219
 21
254.0
 31
0.0
  0
LINE
  5
2F8
  8
JACK_ROUTE
 10
43.11650085449219
 20
254.0
 30
0.0
 11
43.433998107910156
 21
254.06350708007812
 31
0.0
  0
LINE
  5
2F9
  8
JACK_ROUTE
 10
43.433998107910156
 20
254.06350708007812
 30
0.0
 11
42.60850143432617
 21
256.15899658203125
 31
0.0
  0
LINE
  5
2FA
  8
JACK_ROUTE
 10
42.60850143432617
 20
256.15899658203125
 30
0.0
 11
42.60850143432617
 21
256.9844970703125
 31
0.0
  0
LINE
  5
2FB
  8
JACK_ROUTE
 10
42.60850143432617
 20
256.9844970703125
 30
0.0
 11
74.99349975585938
 21
262.76300048828125
 31
0.0
  0
LINE
  5
2FC
  8
NECK_POCKET
 10
162.052001953125
 20
175.57749938964844
 30
0.0
 11
161.79800415039062
 21
159.9564971923828
 31
0.0
  0
LINE
  5
2FD
  8
NECK_POCKET
 10
161.79800415039062
 20
159.9564971923828
 30
0.0
 11
158.3054962158203
 21
158.5594940185547
 31
0.0
  0
LINE
  5
2FE
  8
NECK_POCKET
 10
158.3054962158203
 20
158.5594940185547
 30
0.0
 11
153.9875030517578
 21
155.51150512695312
 31
0.0
  0
LINE
  5
2FF
  8
NECK_POCKET
 10
153.9875030517578
 20
155.51150512695312
 30
0.0
 11
151.95550537109375
 21
153.47950744628906
 31
0.0
  0
LINE
  5
300
  8
NECK_POCKET
 10
151.95550537109375
 20
153.47950744628906
 30
0.0
 11
150.11399841308594
 21
151.06649780273438
 31
0.0
  0
LINE
  5
301
  8
NECK_POCKET
 10
150.11399841308594
 20
151.06649780273438
 30
0.0
 11
148.01849365234375
 21
147.12950134277344
 31
0.0
  0
LINE
  5
302
  8
NECK_POCKET
 10
148.01849365234375
 20
147.12950134277344
 30
0.0
 11
146.55799865722656
 21
141.73199462890625
 31
0.0
  0
LINE
  5
303
  8
NECK_POCKET
 10
146.55799865722656
 20
141.73199462890625
 30
0.0
 11
145.66900634765625
 21
141.79550170898438
 31
0.0
  0
LINE
  5
304
  8
NECK_POCKET
 10
145.66900634765625
 20
141.79550170898438
 30
0.0
 11
145.47850036621094
 21
144.5260009765625
 31
0.0
  0
LINE
  5
305
  8
NECK_POCKET
 10
145.47850036621094
 20
144.5260009765625
 30
0.0
 11
145.47850036621094
 21
141.47799682617188
 31
0.0
  0
LINE
  5
306
  8
NECK_POCKET
 10
145.47850036621094
 20
141.47799682617188
 30
0.0
 11
145.09750366210938
 21
141.4145050048828
 31
0.0
  0
LINE
  5
307
  8
NECK_POCKET
 10
145.09750366210938
 20
141.4145050048828
 30
0.0
 11
145.47850036621094
 21
138.5570068359375
 31
0.0
  0
LINE
  5
308
  8
NECK_POCKET
 10
145.47850036621094
 20
138.5570068359375
 30
0.0
 11
143.76400756835938
 21
138.49349975585938
 31
0.0
  0
LINE
  5
309
  8
NECK_POCKET
 10
143.76400756835938
 20
138.49349975585938
 30
0.0
 11
143.70050048828125
 21
139.50950622558594
 31
0.0
  0
LINE
  5
30A
  8
NECK_POCKET
 10
143.70050048828125
 20
139.50950622558594
 30
0.0
 11
142.4304962158203
 21
139.50950622558594
 31
0.0
  0
LINE
  5
30B
  8
NECK_POCKET
 10
142.4304962158203
 20
139.50950622558594
 30
0.0
 11
142.24000549316406
 21
138.5570068359375
 31
0.0
  0
LINE
  5
30C
  8
NECK_POCKET
 10
142.24000549316406
 20
138.5570068359375
 30
0.0
 11
141.6685028076172
 21
138.42999267578125
 31
0.0
  0
LINE
  5
30D
  8
NECK_POCKET
 10
141.6685028076172
 20
138.42999267578125
 30
0.0
 11
141.6685028076172
 21
137.7949981689453
 31
0.0
  0
LINE
  5
30E
  8
NECK_POCKET
 10
141.6685028076172
 20
137.7949981689453
 30
0.0
 11
142.17649841308594
 21
137.73150634765625
 31
0.0
  0
LINE
  5
30F
  8
NECK_POCKET
 10
142.17649841308594
 20
137.73150634765625
 30
0.0
 11
142.30349731445312
 21
137.0330047607422
 31
0.0
  0
LINE
  5
310
  8
NECK_POCKET
 10
142.30349731445312
 20
137.0330047607422
 30
0.0
 11
142.6844940185547
 21
136.84249877929688
 31
0.0
  0
LINE
  5
311
  8
NECK_POCKET
 10
142.6844940185547
 20
136.84249877929688
 30
0.0
 11
143.50999450683594
 21
136.906005859375
 31
0.0
  0
LINE
  5
312
  8
NECK_POCKET
 10
143.50999450683594
 20
136.906005859375
 30
0.0
 11
143.82749938964844
 21
137.73150634765625
 31
0.0
  0
LINE
  5
313
  8
NECK_POCKET
 10
143.82749938964844
 20
137.73150634765625
 30
0.0
 11
145.47850036621094
 21
137.66799926757812
 31
0.0
  0
LINE
  5
314
  8
NECK_POCKET
 10
145.47850036621094
 20
137.66799926757812
 30
0.0
 11
145.09750366210938
 21
134.8105010986328
 31
0.0
  0
LINE
  5
315
  8
NECK_POCKET
 10
145.09750366210938
 20
134.8105010986328
 30
0.0
 11
145.47850036621094
 21
134.7469940185547
 31
0.0
  0
LINE
  5
316
  8
NECK_POCKET
 10
145.47850036621094
 20
134.7469940185547
 30
0.0
 11
145.47850036621094
 21
131.7624969482422
 31
0.0
  0
LINE
  5
317
  8
NECK_POCKET
 10
145.47850036621094
 20
131.7624969482422
 30
0.0
 11
145.92300415039062
 21
131.635498046875
 31
0.0
  0
LINE
  5
318
  8
NECK_POCKET
 10
145.92300415039062
 20
131.635498046875
 30
0.0
 11
145.92300415039062
 21
130.87350463867188
 31
0.0
  0
LINE
  5
319
  8
NECK_POCKET
 10
145.92300415039062
 20
130.87350463867188
 30
0.0
 11
143.44650268554688
 21
126.61900329589844
 31
0.0
  0
LINE
  5
31A
  8
NECK_POCKET
 10
143.44650268554688
 20
126.61900329589844
 30
0.0
 11
162.87750244140625
 21
107.50550079345703
 31
0.0
  0
LINE
  5
31B
  8
NECK_POCKET
 10
162.87750244140625
 20
107.50550079345703
 30
0.0
 11
175.0695037841797
 21
115.18900299072266
 31
0.0
  0
LINE
  5
31C
  8
NECK_POCKET
 10
175.0695037841797
 20
115.18900299072266
 30
0.0
 11
176.02200317382812
 21
115.25250244140625
 31
0.0
  0
LINE
  5
31D
  8
NECK_POCKET
 10
176.02200317382812
 20
115.25250244140625
 30
0.0
 11
177.67300415039062
 21
114.0459976196289
 31
0.0
  0
LINE
  5
31E
  8
NECK_POCKET
 10
177.67300415039062
 20
114.0459976196289
 30
0.0
 11
177.7364959716797
 21
111.88700103759766
 31
0.0
  0
LINE
  5
31F
  8
NECK_POCKET
 10
177.7364959716797
 20
111.88700103759766
 30
0.0
 11
177.86349487304688
 21
113.34750366210938
 31
0.0
  0
LINE
  5
320
  8
NECK_POCKET
 10
177.86349487304688
 20
113.34750366210938
 30
0.0
 11
178.68899536132812
 21
113.41100311279297
 31
0.0
  0
LINE
  5
321
  8
NECK_POCKET
 10
178.68899536132812
 20
113.41100311279297
 30
0.0
 11
192.91299438476562
 21
103.50499725341797
 31
0.0
  0
LINE
  5
322
  8
NECK_POCKET
 10
192.91299438476562
 20
103.50499725341797
 30
0.0
 11
195.70700073242188
 21
114.74449920654297
 31
0.0
  0
LINE
  5
323
  8
NECK_POCKET
 10
195.70700073242188
 20
114.74449920654297
 30
0.0
 11
195.96099853515625
 21
117.53849792480469
 31
0.0
  0
LINE
  5
324
  8
NECK_POCKET
 10
195.96099853515625
 20
117.53849792480469
 30
0.0
 11
195.70700073242188
 21
121.15799713134766
 31
0.0
  0
LINE
  5
325
  8
NECK_POCKET
 10
195.70700073242188
 20
121.15799713134766
 30
0.0
 11
194.05599975585938
 21
126.30149841308594
 31
0.0
  0
LINE
  5
326
  8
NECK_POCKET
 10
194.05599975585938
 20
126.30149841308594
 30
0.0
 11
192.65899658203125
 21
128.968505859375
 31
0.0
  0
LINE
  5
327
  8
NECK_POCKET
 10
192.65899658203125
 20
128.968505859375
 30
0.0
 11
190.0554962158203
 21
132.58799743652344
 31
0.0
  0
LINE
  5
328
  8
NECK_POCKET
 10
190.0554962158203
 20
132.58799743652344
 30
0.0
 11
189.92849731445312
 21
134.42950439453125
 31
0.0
  0
LINE
  5
329
  8
NECK_POCKET
 10
189.92849731445312
 20
134.42950439453125
 30
0.0
 11
193.54800415039062
 21
134.55650329589844
 31
0.0
  0
LINE
  5
32A
  8
NECK_POCKET
 10
193.54800415039062
 20
134.55650329589844
 30
0.0
 11
189.92849731445312
 21
134.6199951171875
 31
0.0
  0
LINE
  5
32B
  8
NECK_POCKET
 10
189.92849731445312
 20
134.6199951171875
 30
0.0
 11
189.86500549316406
 21
137.66799926757812
 31
0.0
  0
LINE
  5
32C
  8
NECK_POCKET
 10
189.86500549316406
 20
137.66799926757812
 30
0.0
 11
193.54800415039062
 21
137.85850524902344
 31
0.0
  0
LINE
  5
32D
  8
NECK_POCKET
 10
193.54800415039062
 20
137.85850524902344
 30
0.0
 11
189.92849731445312
 21
137.98550415039062
 31
0.0
  0
LINE
  5
32E
  8
NECK_POCKET
 10
189.92849731445312
 20
137.98550415039062
 30
0.0
 11
189.99200439453125
 21
139.19200134277344
 31
0.0
  0
LINE
  5
32F
  8
NECK_POCKET
 10
189.99200439453125
 20
139.19200134277344
 30
0.0
 11
190.75399780273438
 21
139.19200134277344
 31
0.0
  0
LINE
  5
330
  8
NECK_POCKET
 10
190.75399780273438
 20
139.19200134277344
 30
0.0
 11
190.88099670410156
 21
138.81100463867188
 31
0.0
  0
LINE
  5
331
  8
NECK_POCKET
 10
190.88099670410156
 20
138.81100463867188
 30
0.0
 11
191.13499450683594
 21
141.73199462890625
 31
0.0
  0
LINE
  5
332
  8
NECK_POCKET
 10
191.13499450683594
 20
141.73199462890625
 30
0.0
 11
190.75399780273438
 21
141.79550170898438
 31
0.0
  0
LINE
  5
333
  8
NECK_POCKET
 10
190.75399780273438
 20
141.79550170898438
 30
0.0
 11
190.3094940185547
 21
144.3354949951172
 31
0.0
  0
LINE
  5
334
  8
NECK_POCKET
 10
190.3094940185547
 20
144.3354949951172
 30
0.0
 11
188.46800231933594
 21
149.0345001220703
 31
0.0
  0
LINE
  5
335
  8
NECK_POCKET
 10
188.46800231933594
 20
149.0345001220703
 30
0.0
 11
185.4199981689453
 21
153.47950744628906
 31
0.0
  0
LINE
  5
336
  8
NECK_POCKET
 10
185.4199981689453
 20
153.47950744628906
 30
0.0
 11
183.38800048828125
 21
155.51150512695312
 31
0.0
  0
LINE
  5
337
  8
NECK_POCKET
 10
183.38800048828125
 20
155.51150512695312
 30
0.0
 11
179.19700622558594
 21
158.49600219726562
 31
0.0
  0
LINE
  5
338
  8
NECK_POCKET
 10
179.19700622558594
 20
158.49600219726562
 30
0.0
 11
175.57749938964844
 21
159.9564971923828
 31
0.0
  0
LINE
  5
339
  8
NECK_POCKET
 10
175.57749938964844
 20
159.9564971923828
 30
0.0
 11
175.45050048828125
 21
168.5290069580078
 31
0.0
  0
LINE
  5
33A
  8
NECK_POCKET
 10
175.45050048828125
 20
168.5290069580078
 30
0.0
 11
170.3070068359375
 21
174.68850708007812
 31
0.0
  0
LINE
  5
33B
  8
NECK_POCKET
 10
170.3070068359375
 20
174.68850708007812
 30
0.0
 11
167.8939971923828
 21
171.5135040283203
 31
0.0
  0
LINE
  5
33C
  8
NECK_POCKET
 10
167.8939971923828
 20
171.5135040283203
 30
0.0
 11
167.06849670410156
 21
171.5135040283203
 31
0.0
  0
LINE
  5
33D
  8
NECK_POCKET
 10
167.06849670410156
 20
171.5135040283203
 30
0.0
 11
162.052001953125
 21
175.57749938964844
 31
0.0
  0
LINE
  5
33E
  8
PICKUP_ROUTE
 10
93.85299682617188
 20
110.48999786376953
 30
0.0
 11
94.10700225830078
 21
23.177499771118164
 31
0.0
  0
LINE
  5
33F
  8
PICKUP_ROUTE
 10
94.10700225830078
 20
23.177499771118164
 30
0.0
 11
91.18599700927734
 21
23.431499481201172
 31
0.0
  0
LINE
  5
340
  8
PICKUP_ROUTE
 10
91.18599700927734
 20
23.431499481201172
 30
0.0
 11
91.12249755859375
 21
23.11400032043457
 31
0.0
  0
LINE
  5
341
  8
PICKUP_ROUTE
 10
91.12249755859375
 20
23.11400032043457
 30
0.0
 11
66.92900085449219
 21
23.11400032043457
 31
0.0
  0
LINE
  5
342
  8
PICKUP_ROUTE
 10
66.92900085449219
 20
23.11400032043457
 30
0.0
 11
66.8655014038086
 21
23.431499481201172
 31
0.0
  0
LINE
  5
343
  8
PICKUP_ROUTE
 10
66.8655014038086
 20
23.431499481201172
 30
0.0
 11
64.07150268554688
 21
23.11400032043457
 31
0.0
  0
LINE
  5
344
  8
PICKUP_ROUTE
 10
64.07150268554688
 20
23.11400032043457
 30
0.0
 11
65.02400207519531
 21
103.88600158691406
 31
0.0
  0
LINE
  5
345
  8
PICKUP_ROUTE
 10
65.02400207519531
 20
103.88600158691406
 30
0.0
 11
65.34149932861328
 21
110.36299896240234
 31
0.0
  0
LINE
  5
346
  8
PICKUP_ROUTE
 10
65.34149932861328
 20
110.36299896240234
 30
0.0
 11
68.26249694824219
 21
110.10900115966797
 31
0.0
  0
LINE
  5
347
  8
PICKUP_ROUTE
 10
68.26249694824219
 20
110.10900115966797
 30
0.0
 11
68.32599639892578
 21
110.42649841308594
 31
0.0
  0
LINE
  5
348
  8
PICKUP_ROUTE
 10
68.32599639892578
 20
110.42649841308594
 30
0.0
 11
90.99549865722656
 21
110.55349731445312
 31
0.0
  0
LINE
  5
349
  8
PICKUP_ROUTE
 10
90.99549865722656
 20
110.55349731445312
 30
0.0
 11
91.31300354003906
 21
110.17250061035156
 31
0.0
  0
LINE
  5
34A
  8
PICKUP_ROUTE
 10
91.31300354003906
 20
110.17250061035156
 30
0.0
 11
93.85299682617188
 21
110.48999786376953
 31
0.0
  0
ENDSEC
  0
EOF
