  0
SECTION
  2
HEADER
  9
$ACADVER
  1
AC1009
  9
$DWGCODEPAGE
  3
ANSI_1252
  9
$INSBASE
 10
0.0
 20
0.0
 30
0.0
  9
$EXTMIN
 10
1e+20
 20
1e+20
 30
1e+20
  9
$EXTMAX
 10
-1e+20
 20
-1e+20
 30
-1e+20
  9
$LIMMIN
 10
0.0
 20
0.0
  9
$LIMMAX
 10
420.0
 20
297.0
  9
$ORTHOMODE
 70
0
  9
$REGENMODE
 70
1
  9
$FILLMODE
 70
1
  9
$DRAGMODE
 70
2
  9
$QTEXTMODE
 70
0
  9
$MIRRTEXT
 70
1
  9
$OSMODE
 70
20583
  9
$LTSCALE
 40
1.0
  9
$ATTMODE
 70
1
  9
$TEXTSIZE
 40
2.5
  9
$TRACEWID
 40
1.0
  9
$TEXTSTYLE
  7
Standard
  9
$CLAYER
  8
0
  9
$CELTYPE
  6
ByLayer
  9
$CECOLOR
 62
256
  9
$DIMSCALE
 40
1.0
  9
$DIMASZ
 40
2.5
  9
$DIMEXO
 40
0.625
  9
$DIMDLI
 40
3.75
  9
$DIMRND
 40
0.0
  9
$DIMDLE
 40
0.0
  9
$DIMEXE
 40
1.25
  9
$DIMTP
 40
0.0
  9
$DIMTM
 40
0.0
  9
$DIMTXT
 40
2.5
  9
$DIMCEN
 40
2.5
  9
$DIMTSZ
 40
0.0
  9
$DIMTOL
 70
0
  9
$DIMLIM
 70
0
  9
$DIMTIH
 70
0
  9
$DIMTOH
 70
0
  9
$DIMSE1
 70
0
  9
$DIMSE2
 70
0
  9
$DIMTAD
 70
1
  9
$DIMZIN
 70
8
  9
$DIMBLK
  1

  9
$DIMASO
 70
1
  9
$DIMSHO
 70
1
  9
$DIMPOST
  1

  9
$DIMAPOST
  1

  9
$DIMALT
 70
0
  9
$DIMALTD
 70
3
  9
$DIMALTF
 40
0.03937007874
  9
$DIMLFAC
 40
1.0
  9
$DIMTOFL
 70
1
  9
$DIMTVP
 40
0.0
  9
$DIMTIX
 70
0
  9
$DIMSOXD
 70
0
  9
$DIMSAH
 70
0
  9
$DIMBLK1
  1

  9
$DIMBLK2
  1

  9
$DIMSTYLE
  2
ISO-25
  9
$DIMCLRD
 70
0
  9
$DIMCLRE
 70
0
  9
$DIMCLRT
 70
0
  9
$DIMTFAC
 40
1.0
  9
$DIMGAP
 40
0.625
  9
$COORDS
 70
1
  9
$ATTDIA
 70
0
  9
$ATTREQ
 70
1
  9
$HANDLING
 70
1
  9
$LUNITS
 70
2
  9
$LUPREC
 70
4
  9
$SKETCHINC
 40
1.0
  9
$FILLETRAD
 40
10.0
  9
$AUNITS
 70
0
  9
$AUPREC
 70
2
  9
$MENU
  1
.
  9
$ELEVATION
 40
0.0
  9
$PELEVATION
 40
0.0
  9
$THICKNESS
 40
0.0
  9
$LIMCHECK
 70
0
  9
$CHAMFERA
 40
0.0
  9
$CHAMFERB
 40
0.0
  9
$SKPOLY
 70
0
  9
$TDCREATE
 40
2461104.900775463
  9
$TDUPDATE
 40
2461104.900775463
  9
$TDINDWG
 40
0.0
  9
$TDUSRTIMER
 40
0.0
  9
$USRTIMER
 70
1
  9
$ANGBASE
 50
0.0
  9
$ANGDIR
 70
0
  9
$PDMODE
 70
0
  9
$PDSIZE
 40
0.0
  9
$PLINEWID
 40
0.0
  9
$SPLFRAME
 70
0
  9
$SPLINETYPE
 70
6
  9
$SPLINESEGS
 70
8
  9
$HANDSEED
  5
293
  9
$SURFTAB1
 70
6
  9
$SURFTAB2
 70
6
  9
$SURFTYPE
 70
6
  9
$SURFU
 70
6
  9
$SURFV
 70
6
  9
$UCSNAME
  2

  9
$UCSORG
 10
0.0
 20
0.0
 30
0.0
  9
$UCSXDIR
 10
1.0
 20
0.0
 30
0.0
  9
$UCSYDIR
 10
0.0
 20
1.0
 30
0.0
  9
$PUCSNAME
  2

  9
$PUCSORG
 10
0.0
 20
0.0
 30
0.0
  9
$PUCSXDIR
 10
1.0
 20
0.0
 30
0.0
  9
$PUCSYDIR
 10
0.0
 20
1.0
 30
0.0
  9
$USERI1
 70
0
  9
$USERI2
 70
0
  9
$USERI3
 70
0
  9
$USERI4
 70
0
  9
$USERI5
 70
0
  9
$USERR1
 40
0.0
  9
$USERR2
 40
0.0
  9
$USERR3
 40
0.0
  9
$USERR4
 40
0.0
  9
$USERR5
 40
0.0
  9
$WORLDVIEW
 70
1
  9
$SHADEDGE
 70
3
  9
$SHADEDIF
 70
70
  9
$TILEMODE
 70
1
  9
$MAXACTVP
 70
64
  9
$PLIMCHECK
 70
0
  9
$PEXTMIN
 10
1e+20
 20
1e+20
 30
1e+20
  9
$PEXTMAX
 10
-1e+20
 20
-1e+20
 30
-1e+20
  9
$PLIMMIN
 10
0.0
 20
0.0
  9
$PLIMMAX
 10
420.0
 20
297.0
  9
$UNITMODE
 70
0
  9
$VISRETAIN
 70
1
  9
$PLINEGEN
 70
0
  9
$PSLTSCALE
 70
1
  0
ENDSEC
  0
SECTION
  2
TABLES
  0
TABLE
  2
VPORT
 70
1
  0
VPORT
  5
23
  2
*Active
 70
0
 10
0.0
 20
0.0
 11
1.0
 21
1.0
 12
0.0
 22
0.0
 13
0.0
 23
0.0
 14
0.5
 24
0.5
 15
0.5
 25
0.5
 16
0.0
 26
0.0
 36
1.0
 17
0.0
 27
0.0
 37
0.0
 40
1000.0
 41
1.34
 42
50.0
 43
0.0
 44
0.0
 50
0.0
 51
0.0
 71
0
 72
1000
 73
1
 74
3
 75
0
 76
0
 77
0
 78
0
  0
ENDTAB
  0
TABLE
  2
LTYPE
 70
3
  0
LTYPE
  5
24
  2
ByBlock
 70
0
  3

 72
65
 73
0
 40
0.0
  0
LTYPE
  5
25
  2
ByLayer
 70
0
  3

 72
65
 73
0
 40
0.0
  0
LTYPE
  5
26
  2
Continuous
 70
0
  3

 72
65
 73
0
 40
0.0
  0
ENDTAB
  0
TABLE
  2
LAYER
 70
2
  0
LAYER
  5
27
  2
0
 70
0
 62
7
  6
Continuous
  0
LAYER
  5
28
  2
Defpoints
 70
0
 62
7
  6
Continuous
  0
ENDTAB
  0
TABLE
  2
STYLE
 70
1
  0
STYLE
  5
29
  2
Standard
 70
0
 40
0.0
 41
1.0
 50
0.0
 71
0
 42
2.5
  3
txt
  4

  0
ENDTAB
  0
TABLE
  2
VIEW
 70
0
  0
ENDTAB
  0
TABLE
  2
UCS
 70
0
  0
ENDTAB
  0
TABLE
  2
APPID
 70
3
  0
APPID
  5
2A
  2
ACAD
 70
0
  0
APPID
  5
291
  2
HATCHBACKGROUNDCOLOR
 70
0
  0
APPID
  5
292
  2
EZDXF
 70
0
  0
ENDTAB
  0
TABLE
  2
DIMSTYLE
 70
1
  0
DIMSTYLE
105
2B
  2
Standard
 70
0
  3

  4

  5

  6

  7

 40
1.0
 41
2.5
 42
0.625
 43
3.75
 44
1.25
 45
0.0
 46
0.0
 47
0.0
 48
0.0
140
2.5
141
2.5
142
0.0
143
0.03937007874
144
1.0
145
0.0
146
1.0
147
0.625
 71
0
 72
0
 73
0
 74
0
 75
0
 76
0
 77
1
 78
8
170
0
171
3
172
1
173
0
174
0
175
0
176
0
177
0
178
0
  0
ENDTAB
  0
ENDSEC
  0
SECTION
  2
BLOCKS
  0
BLOCK
  5
18
  8
0
  2
$Model_Space
 70
0
 10
0.0
 20
0.0
 30
0.0
  3
$Model_Space
  1

1001
EZDXF
1000
CREATED_BY_EZDXF
1000
1.4.3 @ 2026-03-05T03:37:07.157289+00:00
1000
WRITTEN_BY_EZDXF
1000
1.4.3 @ 2026-03-05T03:37:07.618627+00:00
  0
ENDBLK
  5
19
  8
0
  0
BLOCK
  5
1C
  8
0
  2
$Paper_Space
 70
0
 10
0.0
 20
0.0
 30
0.0
  3
$Paper_Space
  1

  0
ENDBLK
  5
1D
  8
0
  0
ENDSEC
  0
SECTION
  2
ENTITIES
  0
LINE
  5
2D
  8
PICKGUARD
 10
13.779500007629395
 20
273.36749267578125
 30
0.0
 11
13.715999603271484
 21
6.2230000495910645
 31
0.0
  0
LINE
  5
2E
  8
PICKGUARD
 10
13.715999603271484
 20
6.2230000495910645
 30
0.0
 11
202.0570068359375
 21
6.1595001220703125
 31
0.0
  0
LINE
  5
2F
  8
PICKGUARD
 10
202.0570068359375
 20
6.1595001220703125
 30
0.0
 11
202.0570068359375
 21
273.3039855957031
 31
0.0
  0
LINE
  5
30
  8
PICKGUARD
 10
202.0570068359375
 20
273.3039855957031
 30
0.0
 11
13.779500007629395
 21
273.36749267578125
 31
0.0
  0
LINE
  5
31
  8
PICKGUARD
 10
13.970000267028809
 20
273.177001953125
 30
0.0
 11
201.8665008544922
 21
273.1134948730469
 31
0.0
  0
LINE
  5
32
  8
PICKGUARD
 10
201.8665008544922
 20
273.1134948730469
 30
0.0
 11
201.80299377441406
 21
6.349999904632568
 31
0.0
  0
LINE
  5
33
  8
PICKGUARD
 10
201.80299377441406
 20
6.349999904632568
 30
0.0
 11
13.906499862670898
 21
6.41349983215332
 31
0.0
  0
LINE
  5
34
  8
PICKGUARD
 10
13.906499862670898
 20
6.41349983215332
 30
0.0
 11
13.970000267028809
 21
273.177001953125
 31
0.0
  0
LINE
  5
35
  8
SMALL_FEATURE
 10
175.00599670410156
 20
256.2860107421875
 30
0.0
 11
177.54600524902344
 21
256.3494873046875
 31
0.0
  0
LINE
  5
36
  8
SMALL_FEATURE
 10
177.54600524902344
 20
256.3494873046875
 30
0.0
 11
180.0225067138672
 21
255.8415069580078
 31
0.0
  0
LINE
  5
37
  8
SMALL_FEATURE
 10
180.0225067138672
 20
255.8415069580078
 30
0.0
 11
182.8800048828125
 21
254.1905059814453
 31
0.0
  0
LINE
  5
38
  8
SMALL_FEATURE
 10
182.8800048828125
 20
254.1905059814453
 30
0.0
 11
185.1024932861328
 21
251.52349853515625
 31
0.0
  0
LINE
  5
39
  8
SMALL_FEATURE
 10
185.1024932861328
 20
251.52349853515625
 30
0.0
 11
186.37249755859375
 21
248.34849548339844
 31
0.0
  0
LINE
  5
3A
  8
SMALL_FEATURE
 10
186.37249755859375
 20
248.34849548339844
 30
0.0
 11
186.3090057373047
 21
244.5384979248047
 31
0.0
  0
LINE
  5
3B
  8
SMALL_FEATURE
 10
186.3090057373047
 20
244.5384979248047
 30
0.0
 11
185.16600036621094
 21
241.61749267578125
 31
0.0
  0
LINE
  5
3C
  8
SMALL_FEATURE
 10
185.16600036621094
 20
241.61749267578125
 30
0.0
 11
184.2135009765625
 21
240.15699768066406
 31
0.0
  0
LINE
  5
3D
  8
SMALL_FEATURE
 10
184.2135009765625
 20
240.15699768066406
 30
0.0
 11
181.48300170898438
 21
237.9344940185547
 31
0.0
  0
LINE
  5
3E
  8
SMALL_FEATURE
 10
181.48300170898438
 20
237.9344940185547
 30
0.0
 11
178.43499755859375
 21
236.79150390625
 31
0.0
  0
LINE
  5
3F
  8
SMALL_FEATURE
 10
178.43499755859375
 20
236.79150390625
 30
0.0
 11
175.8314971923828
 21
236.6645050048828
 31
0.0
  0
LINE
  5
40
  8
SMALL_FEATURE
 10
175.8314971923828
 20
236.6645050048828
 30
0.0
 11
173.29150390625
 21
237.17250061035156
 31
0.0
  0
LINE
  5
41
  8
SMALL_FEATURE
 10
173.29150390625
 20
237.17250061035156
 30
0.0
 11
170.17999267578125
 21
238.88699340820312
 31
0.0
  0
LINE
  5
42
  8
SMALL_FEATURE
 10
170.17999267578125
 20
238.88699340820312
 30
0.0
 11
167.95750427246094
 21
241.61749267578125
 31
0.0
  0
LINE
  5
43
  8
SMALL_FEATURE
 10
167.95750427246094
 20
241.61749267578125
 30
0.0
 11
166.8144989013672
 21
244.8560028076172
 31
0.0
  0
LINE
  5
44
  8
SMALL_FEATURE
 10
166.8144989013672
 20
244.8560028076172
 30
0.0
 11
166.75100708007812
 21
247.7135009765625
 31
0.0
  0
LINE
  5
45
  8
SMALL_FEATURE
 10
166.75100708007812
 20
247.7135009765625
 30
0.0
 11
167.19549560546875
 21
249.74549865722656
 31
0.0
  0
LINE
  5
46
  8
SMALL_FEATURE
 10
167.19549560546875
 20
249.74549865722656
 30
0.0
 11
168.97349548339844
 21
252.85699462890625
 31
0.0
  0
LINE
  5
47
  8
SMALL_FEATURE
 10
168.97349548339844
 20
252.85699462890625
 30
0.0
 11
171.5135040283203
 21
255.01600646972656
 31
0.0
  0
LINE
  5
48
  8
SMALL_FEATURE
 10
171.5135040283203
 20
255.01600646972656
 30
0.0
 11
175.00599670410156
 21
256.2860107421875
 31
0.0
  0
LINE
  5
49
  8
SMALL_FEATURE
 10
61.1505012512207
 20
229.61599731445312
 30
0.0
 11
64.64299774169922
 21
229.48899841308594
 31
0.0
  0
LINE
  5
4A
  8
SMALL_FEATURE
 10
64.64299774169922
 20
229.48899841308594
 30
0.0
 11
68.32599639892578
 21
227.77450561523438
 31
0.0
  0
LINE
  5
4B
  8
SMALL_FEATURE
 10
68.32599639892578
 20
227.77450561523438
 30
0.0
 11
70.73899841308594
 21
225.1074981689453
 31
0.0
  0
LINE
  5
4C
  8
SMALL_FEATURE
 10
70.73899841308594
 20
225.1074981689453
 30
0.0
 11
71.94550323486328
 21
221.74200439453125
 31
0.0
  0
LINE
  5
4D
  8
SMALL_FEATURE
 10
71.94550323486328
 20
221.74200439453125
 30
0.0
 11
71.94550323486328
 21
218.69400024414062
 31
0.0
  0
LINE
  5
4E
  8
SMALL_FEATURE
 10
71.94550323486328
 20
218.69400024414062
 30
0.0
 11
71.5009994506836
 21
216.97950744628906
 31
0.0
  0
LINE
  5
4F
  8
SMALL_FEATURE
 10
71.5009994506836
 20
216.97950744628906
 30
0.0
 11
70.23100280761719
 21
214.69349670410156
 31
0.0
  0
LINE
  5
50
  8
SMALL_FEATURE
 10
70.23100280761719
 20
214.69349670410156
 30
0.0
 11
67.43699645996094
 21
212.15350341796875
 31
0.0
  0
LINE
  5
51
  8
SMALL_FEATURE
 10
67.43699645996094
 20
212.15350341796875
 30
0.0
 11
64.26200103759766
 21
210.94700622558594
 31
0.0
  0
LINE
  5
52
  8
SMALL_FEATURE
 10
64.26200103759766
 20
210.94700622558594
 30
0.0
 11
60.00749969482422
 21
211.2010040283203
 31
0.0
  0
LINE
  5
53
  8
SMALL_FEATURE
 10
60.00749969482422
 20
211.2010040283203
 30
0.0
 11
56.83250045776367
 21
212.91549682617188
 31
0.0
  0
LINE
  5
54
  8
SMALL_FEATURE
 10
56.83250045776367
 20
212.91549682617188
 30
0.0
 11
54.419498443603516
 21
215.64599609375
 31
0.0
  0
LINE
  5
55
  8
SMALL_FEATURE
 10
54.419498443603516
 20
215.64599609375
 30
0.0
 11
53.34000015258789
 21
218.69400024414062
 31
0.0
  0
LINE
  5
56
  8
SMALL_FEATURE
 10
53.34000015258789
 20
218.69400024414062
 30
0.0
 11
53.34000015258789
 21
221.74200439453125
 31
0.0
  0
LINE
  5
57
  8
SMALL_FEATURE
 10
53.34000015258789
 20
221.74200439453125
 30
0.0
 11
54.61000061035156
 21
225.17100524902344
 31
0.0
  0
LINE
  5
58
  8
SMALL_FEATURE
 10
54.61000061035156
 20
225.17100524902344
 30
0.0
 11
56.76900100708008
 21
227.58399963378906
 31
0.0
  0
LINE
  5
59
  8
SMALL_FEATURE
 10
56.76900100708008
 20
227.58399963378906
 30
0.0
 11
57.78499984741211
 21
228.28250122070312
 31
0.0
  0
LINE
  5
5A
  8
SMALL_FEATURE
 10
57.78499984741211
 20
228.28250122070312
 30
0.0
 11
61.1505012512207
 21
229.61599731445312
 31
0.0
  0
LINE
  5
5B
  8
SMALL_FEATURE
 10
181.54649353027344
 20
39.43349838256836
 30
0.0
 11
188.34100341796875
 21
39.49700164794922
 31
0.0
  0
LINE
  5
5C
  8
SMALL_FEATURE
 10
188.34100341796875
 20
39.49700164794922
 30
0.0
 11
188.531494140625
 21
38.98899841308594
 31
0.0
  0
LINE
  5
5D
  8
SMALL_FEATURE
 10
188.531494140625
 20
38.98899841308594
 30
0.0
 11
188.59500122070312
 21
39.49700164794922
 31
0.0
  0
LINE
  5
5E
  8
SMALL_FEATURE
 10
188.59500122070312
 20
39.49700164794922
 30
0.0
 11
198.7550048828125
 21
39.49700164794922
 31
0.0
  0
LINE
  5
5F
  8
SMALL_FEATURE
 10
198.7550048828125
 20
39.49700164794922
 30
0.0
 11
198.81849670410156
 21
32.3849983215332
 31
0.0
  0
LINE
  5
60
  8
SMALL_FEATURE
 10
198.81849670410156
 20
32.3849983215332
 30
0.0
 11
198.05650329589844
 21
32.32149887084961
 31
0.0
  0
LINE
  5
61
  8
SMALL_FEATURE
 10
198.05650329589844
 20
32.32149887084961
 30
0.0
 11
197.35800170898438
 21
31.62299919128418
 31
0.0
  0
LINE
  5
62
  8
SMALL_FEATURE
 10
197.35800170898438
 20
31.62299919128418
 30
0.0
 11
196.3419952392578
 21
29.273500442504883
 31
0.0
  0
LINE
  5
63
  8
SMALL_FEATURE
 10
196.3419952392578
 20
29.273500442504883
 30
0.0
 11
195.83399963378906
 21
26.60650062561035
 31
0.0
  0
LINE
  5
64
  8
SMALL_FEATURE
 10
195.83399963378906
 20
26.60650062561035
 30
0.0
 11
196.15150451660156
 21
26.60650062561035
 31
0.0
  0
LINE
  5
65
  8
SMALL_FEATURE
 10
196.15150451660156
 20
26.60650062561035
 30
0.0
 11
196.27850341796875
 21
28.575000762939453
 31
0.0
  0
LINE
  5
66
  8
SMALL_FEATURE
 10
196.27850341796875
 20
28.575000762939453
 30
0.0
 11
197.29449462890625
 21
31.114999771118164
 31
0.0
  0
LINE
  5
67
  8
SMALL_FEATURE
 10
197.29449462890625
 20
31.114999771118164
 30
0.0
 11
197.86599731445312
 21
32.00400161743164
 31
0.0
  0
LINE
  5
68
  8
SMALL_FEATURE
 10
197.86599731445312
 20
32.00400161743164
 30
0.0
 11
198.7550048828125
 21
32.00400161743164
 31
0.0
  0
LINE
  5
69
  8
SMALL_FEATURE
 10
198.7550048828125
 20
32.00400161743164
 30
0.0
 11
198.81849670410156
 21
24.574499130249023
 31
0.0
  0
LINE
  5
6A
  8
SMALL_FEATURE
 10
198.81849670410156
 20
24.574499130249023
 30
0.0
 11
194.50050354003906
 21
24.51099967956543
 31
0.0
  0
LINE
  5
6B
  8
SMALL_FEATURE
 10
194.50050354003906
 20
24.51099967956543
 30
0.0
 11
194.43699645996094
 21
24.828500747680664
 31
0.0
  0
LINE
  5
6C
  8
SMALL_FEATURE
 10
194.43699645996094
 20
24.828500747680664
 30
0.0
 11
194.2465057373047
 21
24.574499130249023
 31
0.0
  0
LINE
  5
6D
  8
SMALL_FEATURE
 10
194.2465057373047
 20
24.574499130249023
 30
0.0
 11
193.29400634765625
 21
24.828500747680664
 31
0.0
  0
LINE
  5
6E
  8
SMALL_FEATURE
 10
193.29400634765625
 20
24.828500747680664
 30
0.0
 11
193.10350036621094
 21
24.51099967956543
 31
0.0
  0
LINE
  5
6F
  8
SMALL_FEATURE
 10
193.10350036621094
 20
24.51099967956543
 30
0.0
 11
190.3094940185547
 21
24.51099967956543
 31
0.0
  0
LINE
  5
70
  8
SMALL_FEATURE
 10
190.3094940185547
 20
24.51099967956543
 30
0.0
 11
190.24600219726562
 21
24.828500747680664
 31
0.0
  0
LINE
  5
71
  8
SMALL_FEATURE
 10
190.24600219726562
 20
24.828500747680664
 30
0.0
 11
189.61099243164062
 21
25.018999099731445
 31
0.0
  0
LINE
  5
72
  8
SMALL_FEATURE
 10
189.61099243164062
 20
25.018999099731445
 30
0.0
 11
189.54750061035156
 21
24.574499130249023
 31
0.0
  0
LINE
  5
73
  8
SMALL_FEATURE
 10
189.54750061035156
 20
24.574499130249023
 30
0.0
 11
181.67349243164062
 21
24.51099967956543
 31
0.0
  0
LINE
  5
74
  8
SMALL_FEATURE
 10
181.67349243164062
 20
24.51099967956543
 30
0.0
 11
181.54649353027344
 21
25.844499588012695
 31
0.0
  0
LINE
  5
75
  8
SMALL_FEATURE
 10
181.54649353027344
 20
25.844499588012695
 30
0.0
 11
182.1179962158203
 21
25.908000946044922
 31
0.0
  0
LINE
  5
76
  8
SMALL_FEATURE
 10
182.1179962158203
 20
25.908000946044922
 30
0.0
 11
182.6894989013672
 21
26.60650062561035
 31
0.0
  0
LINE
  5
77
  8
SMALL_FEATURE
 10
182.6894989013672
 20
26.60650062561035
 30
0.0
 11
183.51499938964844
 21
26.542999267578125
 31
0.0
  0
LINE
  5
78
  8
SMALL_FEATURE
 10
183.51499938964844
 20
26.542999267578125
 30
0.0
 11
183.51499938964844
 21
25.717500686645508
 31
0.0
  0
LINE
  5
79
  8
SMALL_FEATURE
 10
183.51499938964844
 20
25.717500686645508
 30
0.0
 11
183.70550537109375
 21
26.225500106811523
 31
0.0
  0
LINE
  5
7A
  8
SMALL_FEATURE
 10
183.70550537109375
 20
26.225500106811523
 30
0.0
 11
184.46749877929688
 21
26.225500106811523
 31
0.0
  0
LINE
  5
7B
  8
SMALL_FEATURE
 10
184.46749877929688
 20
26.225500106811523
 30
0.0
 11
186.1820068359375
 21
29.972000122070312
 31
0.0
  0
LINE
  5
7C
  8
SMALL_FEATURE
 10
186.1820068359375
 20
29.972000122070312
 30
0.0
 11
186.7534942626953
 21
31.686500549316406
 31
0.0
  0
LINE
  5
7D
  8
SMALL_FEATURE
 10
186.7534942626953
 20
31.686500549316406
 30
0.0
 11
187.3249969482422
 21
31.686500549316406
 31
0.0
  0
LINE
  5
7E
  8
SMALL_FEATURE
 10
187.3249969482422
 20
31.686500549316406
 30
0.0
 11
187.5155029296875
 21
32.638999938964844
 31
0.0
  0
LINE
  5
7F
  8
SMALL_FEATURE
 10
187.5155029296875
 20
32.638999938964844
 30
0.0
 11
189.86500549316406
 21
32.57550048828125
 31
0.0
  0
LINE
  5
80
  8
SMALL_FEATURE
 10
189.86500549316406
 20
32.57550048828125
 30
0.0
 11
189.86500549316406
 21
32.829498291015625
 31
0.0
  0
LINE
  5
81
  8
SMALL_FEATURE
 10
189.86500549316406
 20
32.829498291015625
 30
0.0
 11
188.59500122070312
 21
32.829498291015625
 31
0.0
  0
LINE
  5
82
  8
SMALL_FEATURE
 10
188.59500122070312
 20
32.829498291015625
 30
0.0
 11
188.02349853515625
 21
33.21049880981445
 31
0.0
  0
LINE
  5
83
  8
SMALL_FEATURE
 10
188.02349853515625
 20
33.21049880981445
 30
0.0
 11
188.02349853515625
 21
33.654998779296875
 31
0.0
  0
LINE
  5
84
  8
SMALL_FEATURE
 10
188.02349853515625
 20
33.654998779296875
 30
0.0
 11
187.3885040283203
 21
33.654998779296875
 31
0.0
  0
LINE
  5
85
  8
SMALL_FEATURE
 10
187.3885040283203
 20
33.654998779296875
 30
0.0
 11
187.3885040283203
 21
34.67100143432617
 31
0.0
  0
LINE
  5
86
  8
SMALL_FEATURE
 10
187.3885040283203
 20
34.67100143432617
 30
0.0
 11
186.3090057373047
 21
33.337501525878906
 31
0.0
  0
LINE
  5
87
  8
SMALL_FEATURE
 10
186.3090057373047
 20
33.337501525878906
 30
0.0
 11
183.83250427246094
 21
31.813499450683594
 31
0.0
  0
LINE
  5
88
  8
SMALL_FEATURE
 10
183.83250427246094
 20
31.813499450683594
 30
0.0
 11
183.0070037841797
 21
30.60700035095215
 31
0.0
  0
LINE
  5
89
  8
SMALL_FEATURE
 10
183.0070037841797
 20
30.60700035095215
 30
0.0
 11
183.13400268554688
 21
29.844999313354492
 31
0.0
  0
LINE
  5
8A
  8
SMALL_FEATURE
 10
183.13400268554688
 20
29.844999313354492
 30
0.0
 11
183.26100158691406
 21
30.797500610351562
 31
0.0
  0
LINE
  5
8B
  8
SMALL_FEATURE
 10
183.26100158691406
 20
30.797500610351562
 30
0.0
 11
183.83250427246094
 21
31.496000289916992
 31
0.0
  0
LINE
  5
8C
  8
SMALL_FEATURE
 10
183.83250427246094
 20
31.496000289916992
 30
0.0
 11
185.03900146484375
 21
32.19449996948242
 31
0.0
  0
LINE
  5
8D
  8
SMALL_FEATURE
 10
185.03900146484375
 20
32.19449996948242
 30
0.0
 11
185.9915008544922
 21
32.19449996948242
 31
0.0
  0
LINE
  5
8E
  8
SMALL_FEATURE
 10
185.9915008544922
 20
32.19449996948242
 30
0.0
 11
186.05499267578125
 21
31.178499221801758
 31
0.0
  0
LINE
  5
8F
  8
SMALL_FEATURE
 10
186.05499267578125
 20
31.178499221801758
 30
0.0
 11
185.22950744628906
 21
28.95599937438965
 31
0.0
  0
LINE
  5
90
  8
SMALL_FEATURE
 10
185.22950744628906
 20
28.95599937438965
 30
0.0
 11
183.32449340820312
 21
28.38450050354004
 31
0.0
  0
LINE
  5
91
  8
SMALL_FEATURE
 10
183.32449340820312
 20
28.38450050354004
 30
0.0
 11
183.32449340820312
 21
27.622499465942383
 31
0.0
  0
LINE
  5
92
  8
SMALL_FEATURE
 10
183.32449340820312
 20
27.622499465942383
 30
0.0
 11
182.6894989013672
 21
26.73349952697754
 31
0.0
  0
LINE
  5
93
  8
SMALL_FEATURE
 10
182.6894989013672
 20
26.73349952697754
 30
0.0
 11
181.61000061035156
 21
26.542999267578125
 31
0.0
  0
LINE
  5
94
  8
SMALL_FEATURE
 10
181.61000061035156
 20
26.542999267578125
 30
0.0
 11
181.54649353027344
 21
39.43349838256836
 31
0.0
  0
LINE
  5
95
  8
SMALL_FEATURE
 10
185.29299926757812
 20
24.256999969482422
 30
0.0
 11
198.7550048828125
 21
24.320499420166016
 31
0.0
  0
LINE
  5
96
  8
SMALL_FEATURE
 10
198.7550048828125
 20
24.320499420166016
 30
0.0
 11
198.81849670410156
 21
17.8435001373291
 31
0.0
  0
LINE
  5
97
  8
SMALL_FEATURE
 10
198.81849670410156
 20
17.8435001373291
 30
0.0
 11
185.35650634765625
 21
17.780000686645508
 31
0.0
  0
LINE
  5
98
  8
SMALL_FEATURE
 10
185.35650634765625
 20
17.780000686645508
 30
0.0
 11
185.29299926757812
 21
24.256999969482422
 31
0.0
  0
LINE
  5
99
  8
SMALL_FEATURE
 10
185.29299926757812
 20
17.525999069213867
 30
0.0
 11
198.7550048828125
 21
17.589500427246094
 31
0.0
  0
LINE
  5
9A
  8
SMALL_FEATURE
 10
198.7550048828125
 20
17.589500427246094
 30
0.0
 11
198.81849670410156
 21
13.58899974822998
 31
0.0
  0
LINE
  5
9B
  8
SMALL_FEATURE
 10
198.81849670410156
 20
13.58899974822998
 30
0.0
 11
185.35650634765625
 21
13.525500297546387
 31
0.0
  0
LINE
  5
9C
  8
SMALL_FEATURE
 10
185.35650634765625
 20
13.525500297546387
 30
0.0
 11
185.29299926757812
 21
17.525999069213867
 31
0.0
  0
LINE
  5
9D
  8
SMALL_FEATURE
 10
185.29299926757812
 20
13.271499633789062
 30
0.0
 11
198.7550048828125
 21
13.335000038146973
 31
0.0
  0
LINE
  5
9E
  8
SMALL_FEATURE
 10
198.7550048828125
 20
13.335000038146973
 30
0.0
 11
198.81849670410156
 21
9.46150016784668
 31
0.0
  0
LINE
  5
9F
  8
SMALL_FEATURE
 10
198.81849670410156
 20
9.46150016784668
 30
0.0
 11
185.35650634765625
 21
9.39799976348877
 31
0.0
  0
LINE
  5
A0
  8
SMALL_FEATURE
 10
185.35650634765625
 20
9.39799976348877
 30
0.0
 11
185.29299926757812
 21
13.271499633789062
 31
0.0
  0
LINE
  5
A1
  8
SMALL_FEATURE
 10
56.26100158691406
 20
205.29550170898438
 30
0.0
 11
56.324501037597656
 21
204.34300231933594
 31
0.0
  0
LINE
  5
A2
  8
SMALL_FEATURE
 10
56.324501037597656
 20
204.34300231933594
 30
0.0
 11
50.10150146484375
 21
189.92849731445312
 31
0.0
  0
LINE
  5
A3
  8
SMALL_FEATURE
 10
50.10150146484375
 20
189.92849731445312
 30
0.0
 11
48.89500045776367
 21
189.10299682617188
 31
0.0
  0
LINE
  5
A4
  8
SMALL_FEATURE
 10
48.89500045776367
 20
189.10299682617188
 30
0.0
 11
48.06949996948242
 21
189.10299682617188
 31
0.0
  0
LINE
  5
A5
  8
SMALL_FEATURE
 10
48.06949996948242
 20
189.10299682617188
 30
0.0
 11
47.75199890136719
 21
191.19850158691406
 31
0.0
  0
LINE
  5
A6
  8
SMALL_FEATURE
 10
47.75199890136719
 20
191.19850158691406
 30
0.0
 11
53.78450012207031
 21
205.1685028076172
 31
0.0
  0
LINE
  5
A7
  8
SMALL_FEATURE
 10
53.78450012207031
 20
205.1685028076172
 30
0.0
 11
56.26100158691406
 21
205.29550170898438
 31
0.0
  0
LINE
  5
A8
  8
SMALL_FEATURE
 10
43.433998107910156
 20
177.29200744628906
 30
0.0
 11
43.75149917602539
 21
175.19650268554688
 31
0.0
  0
LINE
  5
A9
  8
SMALL_FEATURE
 10
43.75149917602539
 20
175.19650268554688
 30
0.0
 11
39.94150161743164
 21
166.3699951171875
 31
0.0
  0
LINE
  5
AA
  8
SMALL_FEATURE
 10
39.94150161743164
 20
166.3699951171875
 30
0.0
 11
39.11600112915039
 21
166.30650329589844
 31
0.0
  0
LINE
  5
AB
  8
SMALL_FEATURE
 10
39.11600112915039
 20
166.30650329589844
 30
0.0
 11
37.71900177001953
 21
166.8780059814453
 31
0.0
  0
LINE
  5
AC
  8
SMALL_FEATURE
 10
37.71900177001953
 20
166.8780059814453
 30
0.0
 11
37.65549850463867
 21
167.8939971923828
 31
0.0
  0
LINE
  5
AD
  8
SMALL_FEATURE
 10
37.65549850463867
 20
167.8939971923828
 30
0.0
 11
41.3385009765625
 21
176.4029998779297
 31
0.0
  0
LINE
  5
AE
  8
SMALL_FEATURE
 10
41.3385009765625
 20
176.4029998779297
 30
0.0
 11
42.60850143432617
 21
177.29200744628906
 31
0.0
  0
LINE
  5
AF
  8
SMALL_FEATURE
 10
42.60850143432617
 20
177.29200744628906
 30
0.0
 11
43.433998107910156
 21
177.29200744628906
 31
0.0
  0
LINE
  5
B0
  8
SMALL_FEATURE
 10
81.34349822998047
 20
123.12650299072266
 30
0.0
 11
81.27999877929688
 21
121.72949981689453
 31
0.0
  0
LINE
  5
B1
  8
SMALL_FEATURE
 10
81.27999877929688
 20
121.72949981689453
 30
0.0
 11
80.9625015258789
 21
121.66600036621094
 31
0.0
  0
LINE
  5
B2
  8
SMALL_FEATURE
 10
80.9625015258789
 20
121.66600036621094
 30
0.0
 11
81.27999877929688
 21
118.80850219726562
 31
0.0
  0
LINE
  5
B3
  8
SMALL_FEATURE
 10
81.27999877929688
 20
118.80850219726562
 30
0.0
 11
77.40650177001953
 21
118.55449676513672
 31
0.0
  0
LINE
  5
B4
  8
SMALL_FEATURE
 10
77.40650177001953
 20
118.55449676513672
 30
0.0
 11
77.34300231933594
 21
117.85600280761719
 31
0.0
  0
LINE
  5
B5
  8
SMALL_FEATURE
 10
77.34300231933594
 20
117.85600280761719
 30
0.0
 11
78.67649841308594
 21
117.66549682617188
 31
0.0
  0
LINE
  5
B6
  8
SMALL_FEATURE
 10
78.67649841308594
 20
117.66549682617188
 30
0.0
 11
78.61299896240234
 21
116.83999633789062
 31
0.0
  0
LINE
  5
B7
  8
SMALL_FEATURE
 10
78.61299896240234
 20
116.83999633789062
 30
0.0
 11
77.34300231933594
 21
116.52249908447266
 31
0.0
  0
LINE
  5
B8
  8
SMALL_FEATURE
 10
77.34300231933594
 20
116.52249908447266
 30
0.0
 11
77.53350067138672
 21
115.760498046875
 31
0.0
  0
LINE
  5
B9
  8
SMALL_FEATURE
 10
77.53350067138672
 20
115.760498046875
 30
0.0
 11
81.27999877929688
 21
115.63349914550781
 31
0.0
  0
LINE
  5
BA
  8
SMALL_FEATURE
 10
81.27999877929688
 20
115.63349914550781
 30
0.0
 11
80.9625015258789
 21
112.7760009765625
 31
0.0
  0
LINE
  5
BB
  8
SMALL_FEATURE
 10
80.9625015258789
 20
112.7760009765625
 30
0.0
 11
81.27999877929688
 21
112.7125015258789
 31
0.0
  0
LINE
  5
BC
  8
SMALL_FEATURE
 10
81.27999877929688
 20
112.7125015258789
 30
0.0
 11
81.27999877929688
 21
110.04550170898438
 31
0.0
  0
LINE
  5
BD
  8
SMALL_FEATURE
 10
81.27999877929688
 20
110.04550170898438
 30
0.0
 11
80.83550262451172
 21
109.79149627685547
 31
0.0
  0
LINE
  5
BE
  8
SMALL_FEATURE
 10
80.83550262451172
 20
109.79149627685547
 30
0.0
 11
83.88349914550781
 21
109.79149627685547
 31
0.0
  0
LINE
  5
BF
  8
SMALL_FEATURE
 10
83.88349914550781
 20
109.79149627685547
 30
0.0
 11
83.9469985961914
 21
109.4104995727539
 31
0.0
  0
LINE
  5
C0
  8
SMALL_FEATURE
 10
83.9469985961914
 20
109.4104995727539
 30
0.0
 11
86.80449676513672
 21
109.72799682617188
 31
0.0
  0
LINE
  5
C1
  8
SMALL_FEATURE
 10
86.80449676513672
 20
109.72799682617188
 30
0.0
 11
86.93150329589844
 21
105.98149871826172
 31
0.0
  0
LINE
  5
C2
  8
SMALL_FEATURE
 10
86.93150329589844
 20
105.98149871826172
 30
0.0
 11
87.05850219726562
 21
109.72799682617188
 31
0.0
  0
LINE
  5
C3
  8
SMALL_FEATURE
 10
87.05850219726562
 20
109.72799682617188
 30
0.0
 11
88.70950317382812
 21
109.79149627685547
 31
0.0
  0
LINE
  5
C4
  8
SMALL_FEATURE
 10
88.70950317382812
 20
109.79149627685547
 30
0.0
 11
88.9000015258789
 21
105.98149871826172
 31
0.0
  0
LINE
  5
C5
  8
SMALL_FEATURE
 10
88.9000015258789
 20
105.98149871826172
 30
0.0
 11
89.0270004272461
 21
109.72799682617188
 31
0.0
  0
LINE
  5
C6
  8
SMALL_FEATURE
 10
89.0270004272461
 20
109.72799682617188
 30
0.0
 11
91.8844985961914
 21
109.4104995727539
 31
0.0
  0
LINE
  5
C7
  8
SMALL_FEATURE
 10
91.8844985961914
 20
109.4104995727539
 30
0.0
 11
91.947998046875
 21
109.79149627685547
 31
0.0
  0
LINE
  5
C8
  8
SMALL_FEATURE
 10
91.947998046875
 20
109.79149627685547
 30
0.0
 11
94.23400115966797
 21
109.91850280761719
 31
0.0
  0
LINE
  5
C9
  8
SMALL_FEATURE
 10
94.23400115966797
 20
109.91850280761719
 30
0.0
 11
91.947998046875
 21
109.98200225830078
 31
0.0
  0
LINE
  5
CA
  8
SMALL_FEATURE
 10
91.947998046875
 20
109.98200225830078
 30
0.0
 11
91.8844985961914
 21
110.29949951171875
 31
0.0
  0
LINE
  5
CB
  8
SMALL_FEATURE
 10
91.8844985961914
 20
110.29949951171875
 30
0.0
 11
89.0270004272461
 21
109.98200225830078
 31
0.0
  0
LINE
  5
CC
  8
SMALL_FEATURE
 10
89.0270004272461
 20
109.98200225830078
 30
0.0
 11
88.9635009765625
 21
111.69650268554688
 31
0.0
  0
LINE
  5
CD
  8
SMALL_FEATURE
 10
88.9635009765625
 20
111.69650268554688
 30
0.0
 11
89.21749877929688
 21
112.20449829101562
 31
0.0
  0
LINE
  5
CE
  8
SMALL_FEATURE
 10
89.21749877929688
 20
112.20449829101562
 30
0.0
 11
88.9000015258789
 21
113.15699768066406
 31
0.0
  0
LINE
  5
CF
  8
SMALL_FEATURE
 10
88.9000015258789
 20
113.15699768066406
 30
0.0
 11
88.39199829101562
 21
113.02999877929688
 31
0.0
  0
LINE
  5
D0
  8
SMALL_FEATURE
 10
88.39199829101562
 20
113.02999877929688
 30
0.0
 11
88.26499938964844
 21
112.07749938964844
 31
0.0
  0
LINE
  5
D1
  8
SMALL_FEATURE
 10
88.26499938964844
 20
112.07749938964844
 30
0.0
 11
87.50299835205078
 21
112.07749938964844
 31
0.0
  0
LINE
  5
D2
  8
SMALL_FEATURE
 10
87.50299835205078
 20
112.07749938964844
 30
0.0
 11
87.12200164794922
 21
113.15699768066406
 31
0.0
  0
LINE
  5
D3
  8
SMALL_FEATURE
 10
87.12200164794922
 20
113.15699768066406
 30
0.0
 11
86.61399841308594
 21
112.96649932861328
 31
0.0
  0
LINE
  5
D4
  8
SMALL_FEATURE
 10
86.61399841308594
 20
112.96649932861328
 30
0.0
 11
86.80449676513672
 21
109.98200225830078
 31
0.0
  0
LINE
  5
D5
  8
SMALL_FEATURE
 10
86.80449676513672
 20
109.98200225830078
 30
0.0
 11
83.9469985961914
 21
110.29949951171875
 31
0.0
  0
LINE
  5
D6
  8
SMALL_FEATURE
 10
83.9469985961914
 20
110.29949951171875
 30
0.0
 11
83.88349914550781
 21
109.98200225830078
 31
0.0
  0
LINE
  5
D7
  8
SMALL_FEATURE
 10
83.88349914550781
 20
109.98200225830078
 30
0.0
 11
81.47049713134766
 21
110.04550170898438
 31
0.0
  0
LINE
  5
D8
  8
SMALL_FEATURE
 10
81.47049713134766
 20
110.04550170898438
 30
0.0
 11
81.47049713134766
 21
112.7125015258789
 31
0.0
  0
LINE
  5
D9
  8
SMALL_FEATURE
 10
81.47049713134766
 20
112.7125015258789
 30
0.0
 11
81.85150146484375
 21
112.7760009765625
 31
0.0
  0
LINE
  5
DA
  8
SMALL_FEATURE
 10
81.85150146484375
 20
112.7760009765625
 30
0.0
 11
81.53399658203125
 21
115.63349914550781
 31
0.0
  0
LINE
  5
DB
  8
SMALL_FEATURE
 10
81.53399658203125
 20
115.63349914550781
 30
0.0
 11
82.99449920654297
 21
115.8239974975586
 31
0.0
  0
LINE
  5
DC
  8
SMALL_FEATURE
 10
82.99449920654297
 20
115.8239974975586
 30
0.0
 11
81.47049713134766
 21
115.95099639892578
 31
0.0
  0
LINE
  5
DD
  8
SMALL_FEATURE
 10
81.47049713134766
 20
115.95099639892578
 30
0.0
 11
81.47049713134766
 21
118.49099731445312
 31
0.0
  0
LINE
  5
DE
  8
SMALL_FEATURE
 10
81.47049713134766
 20
118.49099731445312
 30
0.0
 11
82.7405014038086
 21
118.74500274658203
 31
0.0
  0
LINE
  5
DF
  8
SMALL_FEATURE
 10
82.7405014038086
 20
118.74500274658203
 30
0.0
 11
81.53399658203125
 21
118.80850219726562
 31
0.0
  0
LINE
  5
E0
  8
SMALL_FEATURE
 10
81.53399658203125
 20
118.80850219726562
 30
0.0
 11
81.85150146484375
 21
121.66600036621094
 31
0.0
  0
LINE
  5
E1
  8
SMALL_FEATURE
 10
81.85150146484375
 20
121.66600036621094
 30
0.0
 11
81.47049713134766
 21
121.72949981689453
 31
0.0
  0
LINE
  5
E2
  8
SMALL_FEATURE
 10
81.47049713134766
 20
121.72949981689453
 30
0.0
 11
81.34349822998047
 21
123.12650299072266
 31
0.0
  0
LINE
  5
E3
  8
SMALL_FEATURE
 10
76.64450073242188
 20
232.98150634765625
 30
0.0
 11
77.53350067138672
 21
233.489501953125
 31
0.0
  0
LINE
  5
E4
  8
SMALL_FEATURE
 10
77.53350067138672
 20
233.489501953125
 30
0.0
 11
89.40799713134766
 21
233.489501953125
 31
0.0
  0
LINE
  5
E5
  8
SMALL_FEATURE
 10
89.40799713134766
 20
233.489501953125
 30
0.0
 11
89.28099822998047
 21
231.77499389648438
 31
0.0
  0
LINE
  5
E6
  8
SMALL_FEATURE
 10
89.28099822998047
 20
231.77499389648438
 30
0.0
 11
77.40650177001953
 21
231.77499389648438
 31
0.0
  0
LINE
  5
E7
  8
SMALL_FEATURE
 10
77.40650177001953
 20
231.77499389648438
 30
0.0
 11
76.64450073242188
 21
232.21949768066406
 31
0.0
  0
LINE
  5
E8
  8
SMALL_FEATURE
 10
76.64450073242188
 20
232.21949768066406
 30
0.0
 11
76.64450073242188
 21
232.98150634765625
 31
0.0
  0
LINE
  5
E9
  8
SMALL_FEATURE
 10
36.89350128173828
 20
207.8990020751953
 30
0.0
 11
37.27450180053711
 21
208.66099548339844
 31
0.0
  0
LINE
  5
EA
  8
SMALL_FEATURE
 10
37.27450180053711
 20
208.66099548339844
 30
0.0
 11
48.45050048828125
 21
208.66099548339844
 31
0.0
  0
LINE
  5
EB
  8
SMALL_FEATURE
 10
48.45050048828125
 20
208.66099548339844
 30
0.0
 11
49.14899826049805
 21
208.2165069580078
 31
0.0
  0
LINE
  5
EC
  8
SMALL_FEATURE
 10
49.14899826049805
 20
208.2165069580078
 30
0.0
 11
49.14899826049805
 21
207.45449829101562
 31
0.0
  0
LINE
  5
ED
  8
SMALL_FEATURE
 10
49.14899826049805
 20
207.45449829101562
 30
0.0
 11
48.513999938964844
 21
207.00999450683594
 31
0.0
  0
LINE
  5
EE
  8
SMALL_FEATURE
 10
48.513999938964844
 20
207.00999450683594
 30
0.0
 11
36.957000732421875
 21
207.00999450683594
 31
0.0
  0
LINE
  5
EF
  8
SMALL_FEATURE
 10
36.957000732421875
 20
207.00999450683594
 30
0.0
 11
36.89350128173828
 21
207.8990020751953
 31
0.0
  0
LINE
  5
F0
  8
SMALL_FEATURE
 10
76.1364974975586
 20
208.2165069580078
 30
0.0
 11
76.83499908447266
 21
208.66099548339844
 31
0.0
  0
LINE
  5
F1
  8
SMALL_FEATURE
 10
76.83499908447266
 20
208.66099548339844
 30
0.0
 11
87.94750213623047
 21
208.66099548339844
 31
0.0
  0
LINE
  5
F2
  8
SMALL_FEATURE
 10
87.94750213623047
 20
208.66099548339844
 30
0.0
 11
88.32849884033203
 21
207.07350158691406
 31
0.0
  0
LINE
  5
F3
  8
SMALL_FEATURE
 10
88.32849884033203
 20
207.07350158691406
 30
0.0
 11
76.77149963378906
 21
207.00999450683594
 31
0.0
  0
LINE
  5
F4
  8
SMALL_FEATURE
 10
76.77149963378906
 20
207.00999450683594
 30
0.0
 11
76.1364974975586
 21
207.45449829101562
 31
0.0
  0
LINE
  5
F5
  8
SMALL_FEATURE
 10
76.1364974975586
 20
207.45449829101562
 30
0.0
 11
76.1364974975586
 21
208.2165069580078
 31
0.0
  0
LINE
  5
F6
  8
SMALL_FEATURE
 10
163.385498046875
 20
228.02850341796875
 30
0.0
 11
163.32200622558594
 21
216.34449768066406
 31
0.0
  0
LINE
  5
F7
  8
SMALL_FEATURE
 10
163.32200622558594
 20
216.34449768066406
 30
0.0
 11
163.00450134277344
 21
216.281005859375
 31
0.0
  0
LINE
  5
F8
  8
SMALL_FEATURE
 10
163.00450134277344
 20
216.281005859375
 30
0.0
 11
163.32200622558594
 21
213.42349243164062
 31
0.0
  0
LINE
  5
F9
  8
SMALL_FEATURE
 10
163.32200622558594
 20
213.42349243164062
 30
0.0
 11
159.63900756835938
 21
213.36000061035156
 31
0.0
  0
LINE
  5
FA
  8
SMALL_FEATURE
 10
159.63900756835938
 20
213.36000061035156
 30
0.0
 11
159.57550048828125
 21
212.59800720214844
 31
0.0
  0
LINE
  5
FB
  8
SMALL_FEATURE
 10
159.57550048828125
 20
212.59800720214844
 30
0.0
 11
163.32200622558594
 21
212.4709930419922
 31
0.0
  0
LINE
  5
FC
  8
SMALL_FEATURE
 10
163.32200622558594
 20
212.4709930419922
 30
0.0
 11
163.00450134277344
 21
209.61349487304688
 31
0.0
  0
LINE
  5
FD
  8
SMALL_FEATURE
 10
163.00450134277344
 20
209.61349487304688
 30
0.0
 11
163.32200622558594
 21
209.5500030517578
 31
0.0
  0
LINE
  5
FE
  8
SMALL_FEATURE
 10
163.32200622558594
 20
209.5500030517578
 30
0.0
 11
163.5124969482422
 21
206.5019989013672
 31
0.0
  0
LINE
  5
FF
  8
SMALL_FEATURE
 10
163.5124969482422
 20
206.5019989013672
 30
0.0
 11
163.5124969482422
 21
209.5500030517578
 31
0.0
  0
LINE
  5
100
  8
SMALL_FEATURE
 10
163.5124969482422
 20
209.5500030517578
 30
0.0
 11
163.89349365234375
 21
209.61349487304688
 31
0.0
  0
LINE
  5
101
  8
SMALL_FEATURE
 10
163.89349365234375
 20
209.61349487304688
 30
0.0
 11
163.63949584960938
 21
212.5345001220703
 31
0.0
  0
LINE
  5
102
  8
SMALL_FEATURE
 10
163.63949584960938
 20
212.5345001220703
 30
0.0
 11
170.3070068359375
 21
212.5345001220703
 31
0.0
  0
LINE
  5
103
  8
SMALL_FEATURE
 10
170.3070068359375
 20
212.5345001220703
 30
0.0
 11
170.4340057373047
 21
213.29649353027344
 31
0.0
  0
LINE
  5
104
  8
SMALL_FEATURE
 10
170.4340057373047
 20
213.29649353027344
 30
0.0
 11
163.5760040283203
 21
213.42349243164062
 31
0.0
  0
LINE
  5
105
  8
SMALL_FEATURE
 10
163.5760040283203
 20
213.42349243164062
 30
0.0
 11
163.89349365234375
 21
216.281005859375
 31
0.0
  0
LINE
  5
106
  8
SMALL_FEATURE
 10
163.89349365234375
 20
216.281005859375
 30
0.0
 11
163.5124969482422
 21
216.34449768066406
 31
0.0
  0
LINE
  5
107
  8
SMALL_FEATURE
 10
163.5124969482422
 20
216.34449768066406
 30
0.0
 11
163.385498046875
 21
228.02850341796875
 31
0.0
  0
LINE
  5
108
  8
SMALL_FEATURE
 10
103.82250213623047
 20
261.239013671875
 30
0.0
 11
103.63200378417969
 21
249.4915008544922
 31
0.0
  0
LINE
  5
109
  8
SMALL_FEATURE
 10
103.63200378417969
 20
249.4915008544922
 30
0.0
 11
103.31449890136719
 21
249.42799377441406
 31
0.0
  0
LINE
  5
10A
  8
SMALL_FEATURE
 10
103.31449890136719
 20
249.42799377441406
 30
0.0
 11
103.63200378417969
 21
246.57049560546875
 31
0.0
  0
LINE
  5
10B
  8
SMALL_FEATURE
 10
103.63200378417969
 20
246.57049560546875
 30
0.0
 11
99.885498046875
 21
246.5070037841797
 31
0.0
  0
LINE
  5
10C
  8
SMALL_FEATURE
 10
99.885498046875
 20
246.5070037841797
 30
0.0
 11
99.9489974975586
 21
245.7449951171875
 31
0.0
  0
LINE
  5
10D
  8
SMALL_FEATURE
 10
99.9489974975586
 20
245.7449951171875
 30
0.0
 11
103.63200378417969
 21
245.68150329589844
 31
0.0
  0
LINE
  5
10E
  8
SMALL_FEATURE
 10
103.63200378417969
 20
245.68150329589844
 30
0.0
 11
103.31449890136719
 21
242.82400512695312
 31
0.0
  0
LINE
  5
10F
  8
SMALL_FEATURE
 10
103.31449890136719
 20
242.82400512695312
 30
0.0
 11
103.63200378417969
 21
242.760498046875
 31
0.0
  0
LINE
  5
110
  8
SMALL_FEATURE
 10
103.63200378417969
 20
242.760498046875
 30
0.0
 11
103.69550323486328
 21
239.6490020751953
 31
0.0
  0
LINE
  5
111
  8
SMALL_FEATURE
 10
103.69550323486328
 20
239.6490020751953
 30
0.0
 11
103.82250213623047
 21
242.760498046875
 31
0.0
  0
LINE
  5
112
  8
SMALL_FEATURE
 10
103.82250213623047
 20
242.760498046875
 30
0.0
 11
104.20349884033203
 21
242.82400512695312
 31
0.0
  0
LINE
  5
113
  8
SMALL_FEATURE
 10
104.20349884033203
 20
242.82400512695312
 30
0.0
 11
103.94950103759766
 21
245.7449951171875
 31
0.0
  0
LINE
  5
114
  8
SMALL_FEATURE
 10
103.94950103759766
 20
245.7449951171875
 30
0.0
 11
110.87100219726562
 21
245.80850219726562
 31
0.0
  0
LINE
  5
115
  8
SMALL_FEATURE
 10
110.87100219726562
 20
245.80850219726562
 30
0.0
 11
110.80750274658203
 21
246.5070037841797
 31
0.0
  0
LINE
  5
116
  8
SMALL_FEATURE
 10
110.80750274658203
 20
246.5070037841797
 30
0.0
 11
103.88600158691406
 21
246.57049560546875
 31
0.0
  0
LINE
  5
117
  8
SMALL_FEATURE
 10
103.88600158691406
 20
246.57049560546875
 30
0.0
 11
104.20349884033203
 21
249.42799377441406
 31
0.0
  0
LINE
  5
118
  8
SMALL_FEATURE
 10
104.20349884033203
 20
249.42799377441406
 30
0.0
 11
103.82250213623047
 21
249.4915008544922
 31
0.0
  0
LINE
  5
119
  8
SMALL_FEATURE
 10
103.82250213623047
 20
249.4915008544922
 30
0.0
 11
103.82250213623047
 21
261.239013671875
 31
0.0
  0
LINE
  5
11A
  8
SMALL_FEATURE
 10
70.42150115966797
 20
85.91549682617188
 30
0.0
 11
70.48500061035156
 21
85.02649688720703
 31
0.0
  0
LINE
  5
11B
  8
SMALL_FEATURE
 10
70.48500061035156
 20
85.02649688720703
 30
0.0
 11
71.12000274658203
 21
84.45500183105469
 31
0.0
  0
LINE
  5
11C
  8
SMALL_FEATURE
 10
71.12000274658203
 20
84.45500183105469
 30
0.0
 11
72.07250213623047
 21
84.70899963378906
 31
0.0
  0
LINE
  5
11D
  8
SMALL_FEATURE
 10
72.07250213623047
 20
84.70899963378906
 30
0.0
 11
75.24749755859375
 21
84.51850128173828
 31
0.0
  0
LINE
  5
11E
  8
SMALL_FEATURE
 10
75.24749755859375
 20
84.51850128173828
 30
0.0
 11
75.31099700927734
 21
85.08999633789062
 31
0.0
  0
LINE
  5
11F
  8
SMALL_FEATURE
 10
75.31099700927734
 20
85.08999633789062
 30
0.0
 11
76.072998046875
 21
85.08999633789062
 31
0.0
  0
LINE
  5
120
  8
SMALL_FEATURE
 10
76.072998046875
 20
85.08999633789062
 30
0.0
 11
76.70800018310547
 21
84.51850128173828
 31
0.0
  0
LINE
  5
121
  8
SMALL_FEATURE
 10
76.70800018310547
 20
84.51850128173828
 30
0.0
 11
76.70800018310547
 21
86.67749786376953
 31
0.0
  0
LINE
  5
122
  8
SMALL_FEATURE
 10
76.70800018310547
 20
86.67749786376953
 30
0.0
 11
76.4540023803711
 21
86.10600280761719
 31
0.0
  0
LINE
  5
123
  8
SMALL_FEATURE
 10
76.4540023803711
 20
86.10600280761719
 30
0.0
 11
75.69200134277344
 21
86.10600280761719
 31
0.0
  0
LINE
  5
124
  8
SMALL_FEATURE
 10
75.69200134277344
 20
86.10600280761719
 30
0.0
 11
75.31099700927734
 21
86.67749786376953
 31
0.0
  0
LINE
  5
125
  8
SMALL_FEATURE
 10
75.31099700927734
 20
86.67749786376953
 30
0.0
 11
74.23149871826172
 21
86.42350006103516
 31
0.0
  0
LINE
  5
126
  8
SMALL_FEATURE
 10
74.23149871826172
 20
86.42350006103516
 30
0.0
 11
73.53299713134766
 21
86.74099731445312
 31
0.0
  0
LINE
  5
127
  8
SMALL_FEATURE
 10
73.53299713134766
 20
86.74099731445312
 30
0.0
 11
72.83450317382812
 21
86.48699951171875
 31
0.0
  0
LINE
  5
128
  8
SMALL_FEATURE
 10
72.83450317382812
 20
86.48699951171875
 30
0.0
 11
71.3740005493164
 21
86.74099731445312
 31
0.0
  0
LINE
  5
129
  8
SMALL_FEATURE
 10
71.3740005493164
 20
86.74099731445312
 30
0.0
 11
70.80249786376953
 21
86.55049896240234
 31
0.0
  0
LINE
  5
12A
  8
SMALL_FEATURE
 10
70.80249786376953
 20
86.55049896240234
 30
0.0
 11
70.42150115966797
 21
85.91549682617188
 31
0.0
  0
LINE
  5
12B
  8
SMALL_FEATURE
 10
68.64350128173828
 20
19.93899917602539
 30
0.0
 11
68.70700073242188
 21
19.113500595092773
 31
0.0
  0
LINE
  5
12C
  8
SMALL_FEATURE
 10
68.70700073242188
 20
19.113500595092773
 30
0.0
 11
69.21499633789062
 21
18.54199981689453
 31
0.0
  0
LINE
  5
12D
  8
SMALL_FEATURE
 10
69.21499633789062
 20
18.54199981689453
 30
0.0
 11
71.05650329589844
 21
18.732500076293945
 31
0.0
  0
LINE
  5
12E
  8
SMALL_FEATURE
 10
71.05650329589844
 20
18.732500076293945
 30
0.0
 11
71.75499725341797
 21
18.478500366210938
 31
0.0
  0
LINE
  5
12F
  8
SMALL_FEATURE
 10
71.75499725341797
 20
18.478500366210938
 30
0.0
 11
72.45349884033203
 21
18.79599952697754
 31
0.0
  0
LINE
  5
130
  8
SMALL_FEATURE
 10
72.45349884033203
 20
18.79599952697754
 30
0.0
 11
73.46949768066406
 21
18.605499267578125
 31
0.0
  0
LINE
  5
131
  8
SMALL_FEATURE
 10
73.46949768066406
 20
18.605499267578125
 30
0.0
 11
73.53299713134766
 21
19.177000045776367
 31
0.0
  0
LINE
  5
132
  8
SMALL_FEATURE
 10
73.53299713134766
 20
19.177000045776367
 30
0.0
 11
74.29499816894531
 21
19.177000045776367
 31
0.0
  0
LINE
  5
133
  8
SMALL_FEATURE
 10
74.29499816894531
 20
19.177000045776367
 30
0.0
 11
74.93000030517578
 21
18.605499267578125
 31
0.0
  0
LINE
  5
134
  8
SMALL_FEATURE
 10
74.93000030517578
 20
18.605499267578125
 30
0.0
 11
74.93000030517578
 21
20.76449966430664
 31
0.0
  0
LINE
  5
135
  8
SMALL_FEATURE
 10
74.93000030517578
 20
20.76449966430664
 30
0.0
 11
74.6760025024414
 21
20.19300079345703
 31
0.0
  0
LINE
  5
136
  8
SMALL_FEATURE
 10
74.6760025024414
 20
20.19300079345703
 30
0.0
 11
73.91400146484375
 21
20.19300079345703
 31
0.0
  0
LINE
  5
137
  8
SMALL_FEATURE
 10
73.91400146484375
 20
20.19300079345703
 30
0.0
 11
73.59649658203125
 21
20.701000213623047
 31
0.0
  0
LINE
  5
138
  8
SMALL_FEATURE
 10
73.59649658203125
 20
20.701000213623047
 30
0.0
 11
70.29450225830078
 21
20.510499954223633
 31
0.0
  0
LINE
  5
139
  8
SMALL_FEATURE
 10
70.29450225830078
 20
20.510499954223633
 30
0.0
 11
69.34200286865234
 21
20.76449966430664
 31
0.0
  0
LINE
  5
13A
  8
SMALL_FEATURE
 10
69.34200286865234
 20
20.76449966430664
 30
0.0
 11
68.64350128173828
 21
19.93899917602539
 31
0.0
  0
LINE
  5
13B
  8
SMALL_FEATURE
 10
166.3699951171875
 20
27.30500030517578
 30
0.0
 11
166.11599731445312
 21
28.765499114990234
 31
0.0
  0
LINE
  5
13C
  8
SMALL_FEATURE
 10
166.11599731445312
 20
28.765499114990234
 30
0.0
 11
161.16299438476562
 21
28.765499114990234
 31
0.0
  0
LINE
  5
13D
  8
SMALL_FEATURE
 10
161.16299438476562
 20
28.765499114990234
 30
0.0
 11
161.09950256347656
 21
27.622499465942383
 31
0.0
  0
LINE
  5
13E
  8
SMALL_FEATURE
 10
161.09950256347656
 20
27.622499465942383
 30
0.0
 11
160.2740020751953
 21
27.68600082397461
 31
0.0
  0
LINE
  5
13F
  8
SMALL_FEATURE
 10
160.2740020751953
 20
27.68600082397461
 30
0.0
 11
160.2740020751953
 21
28.765499114990234
 31
0.0
  0
LINE
  5
140
  8
SMALL_FEATURE
 10
160.2740020751953
 20
28.765499114990234
 30
0.0
 11
158.9405059814453
 21
28.765499114990234
 31
0.0
  0
LINE
  5
141
  8
SMALL_FEATURE
 10
158.9405059814453
 20
28.765499114990234
 30
0.0
 11
158.49600219726562
 21
28.25749969482422
 31
0.0
  0
LINE
  5
142
  8
SMALL_FEATURE
 10
158.49600219726562
 20
28.25749969482422
 30
0.0
 11
158.5594940185547
 21
27.55900001525879
 31
0.0
  0
LINE
  5
143
  8
SMALL_FEATURE
 10
158.5594940185547
 20
27.55900001525879
 30
0.0
 11
158.9405059814453
 21
27.241500854492188
 31
0.0
  0
LINE
  5
144
  8
SMALL_FEATURE
 10
158.9405059814453
 20
27.241500854492188
 30
0.0
 11
166.3699951171875
 21
27.30500030517578
 31
0.0
  0
LINE
  5
145
  8
SMALL_FEATURE
 10
166.4969940185547
 20
19.177000045776367
 30
0.0
 11
167.06849670410156
 21
17.71649932861328
 31
0.0
  0
LINE
  5
146
  8
SMALL_FEATURE
 10
167.06849670410156
 20
17.71649932861328
 30
0.0
 11
173.03750610351562
 21
17.652999877929688
 31
0.0
  0
LINE
  5
147
  8
SMALL_FEATURE
 10
173.03750610351562
 20
17.652999877929688
 30
0.0
 11
173.54550170898438
 21
18.034000396728516
 31
0.0
  0
LINE
  5
148
  8
SMALL_FEATURE
 10
173.54550170898438
 20
18.034000396728516
 30
0.0
 11
173.48199462890625
 21
18.92300033569336
 31
0.0
  0
LINE
  5
149
  8
SMALL_FEATURE
 10
173.48199462890625
 20
18.92300033569336
 30
0.0
 11
173.03750610351562
 21
19.24049949645996
 31
0.0
  0
LINE
  5
14A
  8
SMALL_FEATURE
 10
173.03750610351562
 20
19.24049949645996
 30
0.0
 11
166.4969940185547
 21
19.177000045776367
 31
0.0
  0
LINE
  5
14B
  8
SMALL_FEATURE
 10
162.4965057373047
 20
89.28099822998047
 30
0.0
 11
162.30599975585938
 21
80.51799774169922
 31
0.0
  0
LINE
  5
14C
  8
SMALL_FEATURE
 10
162.30599975585938
 20
80.51799774169922
 30
0.0
 11
161.9250030517578
 21
80.45449829101562
 31
0.0
  0
LINE
  5
14D
  8
SMALL_FEATURE
 10
161.9250030517578
 20
80.45449829101562
 30
0.0
 11
162.30599975585938
 21
77.59700012207031
 31
0.0
  0
LINE
  5
14E
  8
SMALL_FEATURE
 10
162.30599975585938
 20
77.59700012207031
 30
0.0
 11
158.5594940185547
 21
77.47000122070312
 31
0.0
  0
LINE
  5
14F
  8
SMALL_FEATURE
 10
158.5594940185547
 20
77.47000122070312
 30
0.0
 11
162.30599975585938
 21
77.27950286865234
 31
0.0
  0
LINE
  5
150
  8
SMALL_FEATURE
 10
162.30599975585938
 20
77.27950286865234
 30
0.0
 11
162.24249267578125
 21
73.91400146484375
 31
0.0
  0
LINE
  5
151
  8
SMALL_FEATURE
 10
162.24249267578125
 20
73.91400146484375
 30
0.0
 11
158.5594940185547
 21
73.72350311279297
 31
0.0
  0
LINE
  5
152
  8
SMALL_FEATURE
 10
158.5594940185547
 20
73.72350311279297
 30
0.0
 11
162.30599975585938
 21
73.66000366210938
 31
0.0
  0
LINE
  5
153
  8
SMALL_FEATURE
 10
162.30599975585938
 20
73.66000366210938
 30
0.0
 11
161.98849487304688
 21
70.80249786376953
 31
0.0
  0
LINE
  5
154
  8
SMALL_FEATURE
 10
161.98849487304688
 20
70.80249786376953
 30
0.0
 11
162.30599975585938
 21
70.73899841308594
 31
0.0
  0
LINE
  5
155
  8
SMALL_FEATURE
 10
162.30599975585938
 20
70.73899841308594
 30
0.0
 11
162.3695068359375
 21
67.69100189208984
 31
0.0
  0
LINE
  5
156
  8
SMALL_FEATURE
 10
162.3695068359375
 20
67.69100189208984
 30
0.0
 11
162.4965057373047
 21
70.73899841308594
 31
0.0
  0
LINE
  5
157
  8
SMALL_FEATURE
 10
162.4965057373047
 20
70.73899841308594
 30
0.0
 11
162.87750244140625
 21
70.80249786376953
 31
0.0
  0
LINE
  5
158
  8
SMALL_FEATURE
 10
162.87750244140625
 20
70.80249786376953
 30
0.0
 11
162.55999755859375
 21
73.66000366210938
 31
0.0
  0
LINE
  5
159
  8
SMALL_FEATURE
 10
162.55999755859375
 20
73.66000366210938
 30
0.0
 11
165.54449462890625
 21
73.72350311279297
 31
0.0
  0
LINE
  5
15A
  8
SMALL_FEATURE
 10
165.54449462890625
 20
73.72350311279297
 30
0.0
 11
162.4965057373047
 21
73.97750091552734
 31
0.0
  0
LINE
  5
15B
  8
SMALL_FEATURE
 10
162.4965057373047
 20
73.97750091552734
 30
0.0
 11
162.4965057373047
 21
77.27950286865234
 31
0.0
  0
LINE
  5
15C
  8
SMALL_FEATURE
 10
162.4965057373047
 20
77.27950286865234
 30
0.0
 11
166.30650329589844
 21
77.40650177001953
 31
0.0
  0
LINE
  5
15D
  8
SMALL_FEATURE
 10
166.30650329589844
 20
77.40650177001953
 30
0.0
 11
162.55999755859375
 21
77.59700012207031
 31
0.0
  0
LINE
  5
15E
  8
SMALL_FEATURE
 10
162.55999755859375
 20
77.59700012207031
 30
0.0
 11
162.87750244140625
 21
80.45449829101562
 31
0.0
  0
LINE
  5
15F
  8
SMALL_FEATURE
 10
162.87750244140625
 20
80.45449829101562
 30
0.0
 11
162.4965057373047
 21
80.51799774169922
 31
0.0
  0
LINE
  5
160
  8
SMALL_FEATURE
 10
162.4965057373047
 20
80.51799774169922
 30
0.0
 11
162.4965057373047
 21
89.28099822998047
 31
0.0
  0
LINE
  5
161
  8
SMALL_FEATURE
 10
130.49249267578125
 20
257.3655090332031
 30
0.0
 11
125.03150177001953
 21
257.3655090332031
 31
0.0
  0
LINE
  5
162
  8
SMALL_FEATURE
 10
125.03150177001953
 20
257.3655090332031
 30
0.0
 11
124.96800231933594
 21
256.2225036621094
 31
0.0
  0
LINE
  5
163
  8
SMALL_FEATURE
 10
124.96800231933594
 20
256.2225036621094
 30
0.0
 11
124.14250183105469
 21
256.2860107421875
 31
0.0
  0
LINE
  5
164
  8
SMALL_FEATURE
 10
124.14250183105469
 20
256.2860107421875
 30
0.0
 11
124.0155029296875
 21
257.3655090332031
 31
0.0
  0
LINE
  5
165
  8
SMALL_FEATURE
 10
124.0155029296875
 20
257.3655090332031
 30
0.0
 11
124.0155029296875
 21
256.2225036621094
 31
0.0
  0
LINE
  5
166
  8
SMALL_FEATURE
 10
124.0155029296875
 20
256.2225036621094
 30
0.0
 11
124.33300018310547
 21
255.8415069580078
 31
0.0
  0
LINE
  5
167
  8
SMALL_FEATURE
 10
124.33300018310547
 20
255.8415069580078
 30
0.0
 11
130.49249267578125
 21
255.90499877929688
 31
0.0
  0
LINE
  5
168
  8
SMALL_FEATURE
 10
130.49249267578125
 20
255.90499877929688
 30
0.0
 11
130.49249267578125
 21
257.3655090332031
 31
0.0
  0
LINE
  5
169
  8
SMALL_FEATURE
 10
165.1634979248047
 20
174.87899780273438
 30
0.0
 11
165.10000610351562
 21
166.17950439453125
 31
0.0
  0
LINE
  5
16A
  8
SMALL_FEATURE
 10
165.10000610351562
 20
166.17950439453125
 30
0.0
 11
164.78250122070312
 21
166.11599731445312
 31
0.0
  0
LINE
  5
16B
  8
SMALL_FEATURE
 10
164.78250122070312
 20
166.11599731445312
 30
0.0
 11
165.10000610351562
 21
163.2584991455078
 31
0.0
  0
LINE
  5
16C
  8
SMALL_FEATURE
 10
165.10000610351562
 20
163.2584991455078
 30
0.0
 11
161.35350036621094
 21
163.19500732421875
 31
0.0
  0
LINE
  5
16D
  8
SMALL_FEATURE
 10
161.35350036621094
 20
163.19500732421875
 30
0.0
 11
165.0364990234375
 21
163.00450134277344
 31
0.0
  0
LINE
  5
16E
  8
SMALL_FEATURE
 10
165.0364990234375
 20
163.00450134277344
 30
0.0
 11
165.10000610351562
 21
159.63900756835938
 31
0.0
  0
LINE
  5
16F
  8
SMALL_FEATURE
 10
165.10000610351562
 20
159.63900756835938
 30
0.0
 11
161.35350036621094
 21
159.44850158691406
 31
0.0
  0
LINE
  5
170
  8
SMALL_FEATURE
 10
161.35350036621094
 20
159.44850158691406
 30
0.0
 11
165.10000610351562
 21
159.32150268554688
 31
0.0
  0
LINE
  5
171
  8
SMALL_FEATURE
 10
165.10000610351562
 20
159.32150268554688
 30
0.0
 11
164.78250122070312
 21
156.46400451660156
 31
0.0
  0
LINE
  5
172
  8
SMALL_FEATURE
 10
164.78250122070312
 20
156.46400451660156
 30
0.0
 11
165.10000610351562
 21
156.40049743652344
 31
0.0
  0
LINE
  5
173
  8
SMALL_FEATURE
 10
165.10000610351562
 20
156.40049743652344
 30
0.0
 11
165.2270050048828
 21
153.28900146484375
 31
0.0
  0
LINE
  5
174
  8
SMALL_FEATURE
 10
165.2270050048828
 20
153.28900146484375
 30
0.0
 11
165.29049682617188
 21
156.40049743652344
 31
0.0
  0
LINE
  5
175
  8
SMALL_FEATURE
 10
165.29049682617188
 20
156.40049743652344
 30
0.0
 11
165.67149353027344
 21
156.46400451660156
 31
0.0
  0
LINE
  5
176
  8
SMALL_FEATURE
 10
165.67149353027344
 20
156.46400451660156
 30
0.0
 11
165.35400390625
 21
159.32150268554688
 31
0.0
  0
LINE
  5
177
  8
SMALL_FEATURE
 10
165.35400390625
 20
159.32150268554688
 30
0.0
 11
168.27499389648438
 21
159.44850158691406
 31
0.0
  0
LINE
  5
178
  8
SMALL_FEATURE
 10
168.27499389648438
 20
159.44850158691406
 30
0.0
 11
165.29049682617188
 21
159.63900756835938
 31
0.0
  0
LINE
  5
179
  8
SMALL_FEATURE
 10
165.29049682617188
 20
159.63900756835938
 30
0.0
 11
165.29049682617188
 21
162.9409942626953
 31
0.0
  0
LINE
  5
17A
  8
SMALL_FEATURE
 10
165.29049682617188
 20
162.9409942626953
 30
0.0
 11
168.27499389648438
 21
163.13150024414062
 31
0.0
  0
LINE
  5
17B
  8
SMALL_FEATURE
 10
168.27499389648438
 20
163.13150024414062
 30
0.0
 11
165.35400390625
 21
163.2584991455078
 31
0.0
  0
LINE
  5
17C
  8
SMALL_FEATURE
 10
165.35400390625
 20
163.2584991455078
 30
0.0
 11
165.67149353027344
 21
166.11599731445312
 31
0.0
  0
LINE
  5
17D
  8
SMALL_FEATURE
 10
165.67149353027344
 20
166.11599731445312
 30
0.0
 11
165.29049682617188
 21
166.17950439453125
 31
0.0
  0
LINE
  5
17E
  8
SMALL_FEATURE
 10
165.29049682617188
 20
166.17950439453125
 30
0.0
 11
165.1634979248047
 21
174.87899780273438
 31
0.0
  0
LINE
  5
17F
  8
SMALL_FEATURE
 10
93.6624984741211
 20
232.91799926757812
 30
0.0
 11
93.02749633789062
 21
232.2830047607422
 31
0.0
  0
LINE
  5
180
  8
SMALL_FEATURE
 10
93.02749633789062
 20
232.2830047607422
 30
0.0
 11
93.09100341796875
 21
231.52099609375
 31
0.0
  0
LINE
  5
181
  8
SMALL_FEATURE
 10
93.09100341796875
 20
231.52099609375
 30
0.0
 11
93.9800033569336
 21
231.01300048828125
 31
0.0
  0
LINE
  5
182
  8
SMALL_FEATURE
 10
93.9800033569336
 20
231.01300048828125
 30
0.0
 11
93.9800033569336
 21
231.3939971923828
 31
0.0
  0
LINE
  5
183
  8
SMALL_FEATURE
 10
93.9800033569336
 20
231.3939971923828
 30
0.0
 11
93.40850067138672
 21
231.58450317382812
 31
0.0
  0
LINE
  5
184
  8
SMALL_FEATURE
 10
93.40850067138672
 20
231.58450317382812
 30
0.0
 11
93.40850067138672
 21
232.34649658203125
 31
0.0
  0
LINE
  5
185
  8
SMALL_FEATURE
 10
93.40850067138672
 20
232.34649658203125
 30
0.0
 11
94.29750061035156
 21
232.47349548339844
 31
0.0
  0
LINE
  5
186
  8
SMALL_FEATURE
 10
94.29750061035156
 20
232.47349548339844
 30
0.0
 11
94.48799896240234
 21
231.7115020751953
 31
0.0
  0
LINE
  5
187
  8
SMALL_FEATURE
 10
94.48799896240234
 20
231.7115020751953
 30
0.0
 11
95.63099670410156
 21
230.94949340820312
 31
0.0
  0
LINE
  5
188
  8
SMALL_FEATURE
 10
95.63099670410156
 20
230.94949340820312
 30
0.0
 11
95.63099670410156
 21
229.42550659179688
 31
0.0
  0
LINE
  5
189
  8
SMALL_FEATURE
 10
95.63099670410156
 20
229.42550659179688
 30
0.0
 11
93.6624984741211
 21
229.23500061035156
 31
0.0
  0
LINE
  5
18A
  8
SMALL_FEATURE
 10
93.6624984741211
 20
229.23500061035156
 30
0.0
 11
93.09100341796875
 21
228.79049682617188
 31
0.0
  0
LINE
  5
18B
  8
SMALL_FEATURE
 10
93.09100341796875
 20
228.79049682617188
 30
0.0
 11
93.02749633789062
 21
228.15550231933594
 31
0.0
  0
LINE
  5
18C
  8
SMALL_FEATURE
 10
93.02749633789062
 20
228.15550231933594
 30
0.0
 11
93.78949737548828
 21
227.52049255371094
 31
0.0
  0
LINE
  5
18D
  8
SMALL_FEATURE
 10
93.78949737548828
 20
227.52049255371094
 30
0.0
 11
95.3134994506836
 21
227.52049255371094
 31
0.0
  0
LINE
  5
18E
  8
SMALL_FEATURE
 10
95.3134994506836
 20
227.52049255371094
 30
0.0
 11
96.07550048828125
 21
228.0919952392578
 31
0.0
  0
LINE
  5
18F
  8
SMALL_FEATURE
 10
96.07550048828125
 20
228.0919952392578
 30
0.0
 11
95.63099670410156
 21
229.93350219726562
 31
0.0
  0
LINE
  5
190
  8
SMALL_FEATURE
 10
95.63099670410156
 20
229.93350219726562
 30
0.0
 11
96.64700317382812
 21
229.9969940185547
 31
0.0
  0
LINE
  5
191
  8
SMALL_FEATURE
 10
96.64700317382812
 20
229.9969940185547
 30
0.0
 11
96.01200103759766
 21
230.44149780273438
 31
0.0
  0
LINE
  5
192
  8
SMALL_FEATURE
 10
96.01200103759766
 20
230.44149780273438
 30
0.0
 11
96.01200103759766
 21
232.91799926757812
 31
0.0
  0
LINE
  5
193
  8
SMALL_FEATURE
 10
96.01200103759766
 20
232.91799926757812
 30
0.0
 11
95.69450378417969
 21
232.85450744628906
 31
0.0
  0
LINE
  5
194
  8
SMALL_FEATURE
 10
95.69450378417969
 20
232.85450744628906
 30
0.0
 11
95.63099670410156
 21
232.156005859375
 31
0.0
  0
LINE
  5
195
  8
SMALL_FEATURE
 10
95.63099670410156
 20
232.156005859375
 30
0.0
 11
94.86900329589844
 21
232.156005859375
 31
0.0
  0
LINE
  5
196
  8
SMALL_FEATURE
 10
94.86900329589844
 20
232.156005859375
 30
0.0
 11
94.36100006103516
 21
232.79100036621094
 31
0.0
  0
LINE
  5
197
  8
SMALL_FEATURE
 10
94.36100006103516
 20
232.79100036621094
 30
0.0
 11
93.6624984741211
 21
232.91799926757812
 31
0.0
  0
LINE
  5
198
  8
SMALL_FEATURE
 10
107.31500244140625
 20
239.6490020751953
 30
0.0
 11
110.42649841308594
 21
239.45849609375
 31
0.0
  0
LINE
  5
199
  8
SMALL_FEATURE
 10
110.42649841308594
 20
239.45849609375
 30
0.0
 11
110.48999786376953
 21
239.14100646972656
 31
0.0
  0
LINE
  5
19A
  8
SMALL_FEATURE
 10
110.48999786376953
 20
239.14100646972656
 30
0.0
 11
113.34750366210938
 21
239.45849609375
 31
0.0
  0
LINE
  5
19B
  8
SMALL_FEATURE
 10
113.34750366210938
 20
239.45849609375
 30
0.0
 11
113.41100311279297
 21
235.71200561523438
 31
0.0
  0
LINE
  5
19C
  8
SMALL_FEATURE
 10
113.41100311279297
 20
235.71200561523438
 30
0.0
 11
113.66500091552734
 21
239.45849609375
 31
0.0
  0
LINE
  5
19D
  8
SMALL_FEATURE
 10
113.66500091552734
 20
239.45849609375
 30
0.0
 11
117.03050231933594
 21
239.39500427246094
 31
0.0
  0
LINE
  5
19E
  8
SMALL_FEATURE
 10
117.03050231933594
 20
239.39500427246094
 30
0.0
 11
117.15750122070312
 21
235.71200561523438
 31
0.0
  0
LINE
  5
19F
  8
SMALL_FEATURE
 10
117.15750122070312
 20
235.71200561523438
 30
0.0
 11
117.28450012207031
 21
239.45849609375
 31
0.0
  0
LINE
  5
1A0
  8
SMALL_FEATURE
 10
117.28450012207031
 20
239.45849609375
 30
0.0
 11
120.14199829101562
 21
239.14100646972656
 31
0.0
  0
LINE
  5
1A1
  8
SMALL_FEATURE
 10
120.14199829101562
 20
239.14100646972656
 30
0.0
 11
120.20549774169922
 21
239.45849609375
 31
0.0
  0
LINE
  5
1A2
  8
SMALL_FEATURE
 10
120.20549774169922
 20
239.45849609375
 30
0.0
 11
128.90499877929688
 21
239.52200317382812
 31
0.0
  0
LINE
  5
1A3
  8
SMALL_FEATURE
 10
128.90499877929688
 20
239.52200317382812
 30
0.0
 11
120.20549774169922
 21
239.6490020751953
 31
0.0
  0
LINE
  5
1A4
  8
SMALL_FEATURE
 10
120.20549774169922
 20
239.6490020751953
 30
0.0
 11
120.14199829101562
 21
240.02999877929688
 31
0.0
  0
LINE
  5
1A5
  8
SMALL_FEATURE
 10
120.14199829101562
 20
240.02999877929688
 30
0.0
 11
117.28450012207031
 21
239.71249389648438
 31
0.0
  0
LINE
  5
1A6
  8
SMALL_FEATURE
 10
117.28450012207031
 20
239.71249389648438
 30
0.0
 11
117.15750122070312
 21
241.36349487304688
 31
0.0
  0
LINE
  5
1A7
  8
SMALL_FEATURE
 10
117.15750122070312
 20
241.36349487304688
 30
0.0
 11
116.96700286865234
 21
239.6490020751953
 31
0.0
  0
LINE
  5
1A8
  8
SMALL_FEATURE
 10
116.96700286865234
 20
239.6490020751953
 30
0.0
 11
113.66500091552734
 21
239.6490020751953
 31
0.0
  0
LINE
  5
1A9
  8
SMALL_FEATURE
 10
113.66500091552734
 20
239.6490020751953
 30
0.0
 11
113.53800201416016
 21
241.36349487304688
 31
0.0
  0
LINE
  5
1AA
  8
SMALL_FEATURE
 10
113.53800201416016
 20
241.36349487304688
 30
0.0
 11
113.34750366210938
 21
239.71249389648438
 31
0.0
  0
LINE
  5
1AB
  8
SMALL_FEATURE
 10
113.34750366210938
 20
239.71249389648438
 30
0.0
 11
110.48999786376953
 21
240.02999877929688
 31
0.0
  0
LINE
  5
1AC
  8
SMALL_FEATURE
 10
110.48999786376953
 20
240.02999877929688
 30
0.0
 11
110.42649841308594
 21
239.6490020751953
 31
0.0
  0
LINE
  5
1AD
  8
SMALL_FEATURE
 10
110.42649841308594
 20
239.6490020751953
 30
0.0
 11
107.31500244140625
 21
239.6490020751953
 31
0.0
  0
LINE
  5
1AE
  8
SMALL_FEATURE
 10
167.0050048828125
 20
206.43850708007812
 30
0.0
 11
170.1165008544922
 21
206.31149291992188
 31
0.0
  0
LINE
  5
1AF
  8
SMALL_FEATURE
 10
170.1165008544922
 20
206.31149291992188
 30
0.0
 11
170.17999267578125
 21
205.9304962158203
 31
0.0
  0
LINE
  5
1B0
  8
SMALL_FEATURE
 10
170.17999267578125
 20
205.9304962158203
 30
0.0
 11
172.91050720214844
 21
206.2480010986328
 31
0.0
  0
LINE
  5
1B1
  8
SMALL_FEATURE
 10
172.91050720214844
 20
206.2480010986328
 30
0.0
 11
173.03750610351562
 21
202.50149536132812
 31
0.0
  0
LINE
  5
1B2
  8
SMALL_FEATURE
 10
173.03750610351562
 20
202.50149536132812
 30
0.0
 11
173.22799682617188
 21
206.31149291992188
 31
0.0
  0
LINE
  5
1B3
  8
SMALL_FEATURE
 10
173.22799682617188
 20
206.31149291992188
 30
0.0
 11
176.65699768066406
 21
206.2480010986328
 31
0.0
  0
LINE
  5
1B4
  8
SMALL_FEATURE
 10
176.65699768066406
 20
206.2480010986328
 30
0.0
 11
176.78399658203125
 21
202.50149536132812
 31
0.0
  0
LINE
  5
1B5
  8
SMALL_FEATURE
 10
176.78399658203125
 20
202.50149536132812
 30
0.0
 11
176.91099548339844
 21
206.2480010986328
 31
0.0
  0
LINE
  5
1B6
  8
SMALL_FEATURE
 10
176.91099548339844
 20
206.2480010986328
 30
0.0
 11
179.76849365234375
 21
205.9304962158203
 31
0.0
  0
LINE
  5
1B7
  8
SMALL_FEATURE
 10
179.76849365234375
 20
205.9304962158203
 30
0.0
 11
179.83200073242188
 21
206.31149291992188
 31
0.0
  0
LINE
  5
1B8
  8
SMALL_FEATURE
 10
179.83200073242188
 20
206.31149291992188
 30
0.0
 11
188.59500122070312
 21
206.375
 31
0.0
  0
LINE
  5
1B9
  8
SMALL_FEATURE
 10
188.59500122070312
 20
206.375
 30
0.0
 11
179.83200073242188
 21
206.5019989013672
 31
0.0
  0
LINE
  5
1BA
  8
SMALL_FEATURE
 10
179.83200073242188
 20
206.5019989013672
 30
0.0
 11
179.76849365234375
 21
206.8195037841797
 31
0.0
  0
LINE
  5
1BB
  8
SMALL_FEATURE
 10
179.76849365234375
 20
206.8195037841797
 30
0.0
 11
176.91099548339844
 21
206.5019989013672
 31
0.0
  0
LINE
  5
1BC
  8
SMALL_FEATURE
 10
176.91099548339844
 20
206.5019989013672
 30
0.0
 11
176.78399658203125
 21
208.1529998779297
 31
0.0
  0
LINE
  5
1BD
  8
SMALL_FEATURE
 10
176.78399658203125
 20
208.1529998779297
 30
0.0
 11
176.593505859375
 21
206.5019989013672
 31
0.0
  0
LINE
  5
1BE
  8
SMALL_FEATURE
 10
176.593505859375
 20
206.5019989013672
 30
0.0
 11
173.22799682617188
 21
206.5019989013672
 31
0.0
  0
LINE
  5
1BF
  8
SMALL_FEATURE
 10
173.22799682617188
 20
206.5019989013672
 30
0.0
 11
173.03750610351562
 21
208.1529998779297
 31
0.0
  0
LINE
  5
1C0
  8
SMALL_FEATURE
 10
173.03750610351562
 20
208.1529998779297
 30
0.0
 11
172.91050720214844
 21
206.5019989013672
 31
0.0
  0
LINE
  5
1C1
  8
SMALL_FEATURE
 10
172.91050720214844
 20
206.5019989013672
 30
0.0
 11
170.17999267578125
 21
206.8195037841797
 31
0.0
  0
LINE
  5
1C2
  8
SMALL_FEATURE
 10
170.17999267578125
 20
206.8195037841797
 30
0.0
 11
170.1165008544922
 21
206.5019989013672
 31
0.0
  0
LINE
  5
1C3
  8
SMALL_FEATURE
 10
170.1165008544922
 20
206.5019989013672
 30
0.0
 11
167.0050048828125
 21
206.43850708007812
 31
0.0
  0
LINE
  5
1C4
  8
SMALL_FEATURE
 10
22.161500930786133
 20
264.3504943847656
 30
0.0
 11
22.542499542236328
 21
264.3504943847656
 31
0.0
  0
LINE
  5
1C5
  8
SMALL_FEATURE
 10
22.542499542236328
 20
264.3504943847656
 30
0.0
 11
22.923500061035156
 21
265.3030090332031
 31
0.0
  0
LINE
  5
1C6
  8
SMALL_FEATURE
 10
22.923500061035156
 20
265.3030090332031
 30
0.0
 11
24.003000259399414
 21
265.3030090332031
 31
0.0
  0
LINE
  5
1C7
  8
SMALL_FEATURE
 10
24.003000259399414
 20
265.3030090332031
 30
0.0
 11
24.384000778198242
 21
264.3504943847656
 31
0.0
  0
LINE
  5
1C8
  8
SMALL_FEATURE
 10
24.384000778198242
 20
264.3504943847656
 30
0.0
 11
25.590499877929688
 21
264.3504943847656
 31
0.0
  0
LINE
  5
1C9
  8
SMALL_FEATURE
 10
25.590499877929688
 20
264.3504943847656
 30
0.0
 11
25.590499877929688
 21
265.5570068359375
 31
0.0
  0
LINE
  5
1CA
  8
SMALL_FEATURE
 10
25.590499877929688
 20
265.5570068359375
 30
0.0
 11
27.43199920654297
 21
265.93798828125
 31
0.0
  0
LINE
  5
1CB
  8
SMALL_FEATURE
 10
27.43199920654297
 20
265.93798828125
 30
0.0
 11
27.368499755859375
 21
266.9540100097656
 31
0.0
  0
LINE
  5
1CC
  8
SMALL_FEATURE
 10
27.368499755859375
 20
266.9540100097656
 30
0.0
 11
26.923999786376953
 21
267.3349914550781
 31
0.0
  0
LINE
  5
1CD
  8
SMALL_FEATURE
 10
26.923999786376953
 20
267.3349914550781
 30
0.0
 11
25.273000717163086
 21
267.39849853515625
 31
0.0
  0
LINE
  5
1CE
  8
SMALL_FEATURE
 10
25.273000717163086
 20
267.39849853515625
 30
0.0
 11
25.273000717163086
 21
265.42999267578125
 31
0.0
  0
LINE
  5
1CF
  8
SMALL_FEATURE
 10
25.273000717163086
 20
265.42999267578125
 30
0.0
 11
24.447500228881836
 21
265.3664855957031
 31
0.0
  0
LINE
  5
1D0
  8
SMALL_FEATURE
 10
24.447500228881836
 20
265.3664855957031
 30
0.0
 11
23.749000549316406
 21
267.3349914550781
 31
0.0
  0
LINE
  5
1D1
  8
SMALL_FEATURE
 10
23.749000549316406
 20
267.3349914550781
 30
0.0
 11
23.304500579833984
 21
267.39849853515625
 31
0.0
  0
LINE
  5
1D2
  8
SMALL_FEATURE
 10
23.304500579833984
 20
267.39849853515625
 30
0.0
 11
22.161500930786133
 21
264.3504943847656
 31
0.0
  0
LINE
  5
1D3
  8
SMALL_FEATURE
 10
79.12100219726562
 20
41.14799880981445
 30
0.0
 11
82.10549926757812
 21
41.020999908447266
 31
0.0
  0
LINE
  5
1D4
  8
SMALL_FEATURE
 10
82.10549926757812
 20
41.020999908447266
 30
0.0
 11
82.16899871826172
 21
40.63999938964844
 31
0.0
  0
LINE
  5
1D5
  8
SMALL_FEATURE
 10
82.16899871826172
 20
40.63999938964844
 30
0.0
 11
85.02649688720703
 21
41.020999908447266
 31
0.0
  0
LINE
  5
1D6
  8
SMALL_FEATURE
 10
85.02649688720703
 20
41.020999908447266
 30
0.0
 11
85.15350341796875
 21
37.21099853515625
 31
0.0
  0
LINE
  5
1D7
  8
SMALL_FEATURE
 10
85.15350341796875
 20
37.21099853515625
 30
0.0
 11
85.34400177001953
 21
41.020999908447266
 31
0.0
  0
LINE
  5
1D8
  8
SMALL_FEATURE
 10
85.34400177001953
 20
41.020999908447266
 30
0.0
 11
88.13800048828125
 21
40.95750045776367
 31
0.0
  0
LINE
  5
1D9
  8
SMALL_FEATURE
 10
88.13800048828125
 20
40.95750045776367
 30
0.0
 11
88.26499938964844
 21
37.21099853515625
 31
0.0
  0
LINE
  5
1DA
  8
SMALL_FEATURE
 10
88.26499938964844
 20
37.21099853515625
 30
0.0
 11
88.39199829101562
 21
41.020999908447266
 31
0.0
  0
LINE
  5
1DB
  8
SMALL_FEATURE
 10
88.39199829101562
 20
41.020999908447266
 30
0.0
 11
91.24949645996094
 21
40.63999938964844
 31
0.0
  0
LINE
  5
1DC
  8
SMALL_FEATURE
 10
91.24949645996094
 20
40.63999938964844
 30
0.0
 11
91.31300354003906
 21
41.020999908447266
 31
0.0
  0
LINE
  5
1DD
  8
SMALL_FEATURE
 10
91.31300354003906
 20
41.020999908447266
 30
0.0
 11
94.42449951171875
 21
41.08449935913086
 31
0.0
  0
LINE
  5
1DE
  8
SMALL_FEATURE
 10
94.42449951171875
 20
41.08449935913086
 30
0.0
 11
91.31300354003906
 21
41.21149826049805
 31
0.0
  0
LINE
  5
1DF
  8
SMALL_FEATURE
 10
91.31300354003906
 20
41.21149826049805
 30
0.0
 11
91.24949645996094
 21
41.592498779296875
 31
0.0
  0
LINE
  5
1E0
  8
SMALL_FEATURE
 10
91.24949645996094
 20
41.592498779296875
 30
0.0
 11
88.39199829101562
 21
41.21149826049805
 31
0.0
  0
LINE
  5
1E1
  8
SMALL_FEATURE
 10
88.39199829101562
 20
41.21149826049805
 30
0.0
 11
88.32849884033203
 21
45.40250015258789
 31
0.0
  0
LINE
  5
1E2
  8
SMALL_FEATURE
 10
88.32849884033203
 20
45.40250015258789
 30
0.0
 11
88.13800048828125
 21
41.275001525878906
 31
0.0
  0
LINE
  5
1E3
  8
SMALL_FEATURE
 10
88.13800048828125
 20
41.275001525878906
 30
0.0
 11
85.34400177001953
 21
41.21149826049805
 31
0.0
  0
LINE
  5
1E4
  8
SMALL_FEATURE
 10
85.34400177001953
 20
41.21149826049805
 30
0.0
 11
85.21700286865234
 21
45.465999603271484
 31
0.0
  0
LINE
  5
1E5
  8
SMALL_FEATURE
 10
85.21700286865234
 20
45.465999603271484
 30
0.0
 11
85.02649688720703
 21
41.21149826049805
 31
0.0
  0
LINE
  5
1E6
  8
SMALL_FEATURE
 10
85.02649688720703
 20
41.21149826049805
 30
0.0
 11
82.16899871826172
 21
41.592498779296875
 31
0.0
  0
LINE
  5
1E7
  8
SMALL_FEATURE
 10
82.16899871826172
 20
41.592498779296875
 30
0.0
 11
82.10549926757812
 21
41.21149826049805
 31
0.0
  0
LINE
  5
1E8
  8
SMALL_FEATURE
 10
82.10549926757812
 20
41.21149826049805
 30
0.0
 11
79.12100219726562
 21
41.14799880981445
 31
0.0
  0
LINE
  5
1E9
  8
SMALL_FEATURE
 10
163.89349365234375
 20
69.21499633789062
 30
0.0
 11
166.94149780273438
 21
69.02449798583984
 31
0.0
  0
LINE
  5
1EA
  8
SMALL_FEATURE
 10
166.94149780273438
 20
69.02449798583984
 30
0.0
 11
167.0050048828125
 21
68.70700073242188
 31
0.0
  0
LINE
  5
1EB
  8
SMALL_FEATURE
 10
167.0050048828125
 20
68.70700073242188
 30
0.0
 11
169.8625030517578
 21
69.02449798583984
 31
0.0
  0
LINE
  5
1EC
  8
SMALL_FEATURE
 10
169.8625030517578
 20
69.02449798583984
 30
0.0
 11
169.989501953125
 21
65.27799987792969
 31
0.0
  0
LINE
  5
1ED
  8
SMALL_FEATURE
 10
169.989501953125
 20
65.27799987792969
 30
0.0
 11
170.17999267578125
 21
69.02449798583984
 31
0.0
  0
LINE
  5
1EE
  8
SMALL_FEATURE
 10
170.17999267578125
 20
69.02449798583984
 30
0.0
 11
171.38650512695312
 21
68.96099853515625
 31
0.0
  0
LINE
  5
1EF
  8
SMALL_FEATURE
 10
171.38650512695312
 20
68.96099853515625
 30
0.0
 11
171.5135040283203
 21
65.27799987792969
 31
0.0
  0
LINE
  5
1F0
  8
SMALL_FEATURE
 10
171.5135040283203
 20
65.27799987792969
 30
0.0
 11
171.6405029296875
 21
69.02449798583984
 31
0.0
  0
LINE
  5
1F1
  8
SMALL_FEATURE
 10
171.6405029296875
 20
69.02449798583984
 30
0.0
 11
174.4980010986328
 21
68.64350128173828
 31
0.0
  0
LINE
  5
1F2
  8
SMALL_FEATURE
 10
174.4980010986328
 20
68.64350128173828
 30
0.0
 11
174.56149291992188
 21
69.02449798583984
 31
0.0
  0
LINE
  5
1F3
  8
SMALL_FEATURE
 10
174.56149291992188
 20
69.02449798583984
 30
0.0
 11
183.51499938964844
 21
69.08799743652344
 31
0.0
  0
LINE
  5
1F4
  8
SMALL_FEATURE
 10
183.51499938964844
 20
69.08799743652344
 30
0.0
 11
174.56149291992188
 21
69.21499633789062
 31
0.0
  0
LINE
  5
1F5
  8
SMALL_FEATURE
 10
174.56149291992188
 20
69.21499633789062
 30
0.0
 11
174.4980010986328
 21
69.59600067138672
 31
0.0
  0
LINE
  5
1F6
  8
SMALL_FEATURE
 10
174.4980010986328
 20
69.59600067138672
 30
0.0
 11
171.6405029296875
 21
69.27850341796875
 31
0.0
  0
LINE
  5
1F7
  8
SMALL_FEATURE
 10
171.6405029296875
 20
69.27850341796875
 30
0.0
 11
171.5135040283203
 21
69.7864990234375
 31
0.0
  0
LINE
  5
1F8
  8
SMALL_FEATURE
 10
171.5135040283203
 20
69.7864990234375
 30
0.0
 11
171.322998046875
 21
69.21499633789062
 31
0.0
  0
LINE
  5
1F9
  8
SMALL_FEATURE
 10
171.322998046875
 20
69.21499633789062
 30
0.0
 11
167.25900268554688
 21
69.59600067138672
 31
0.0
  0
LINE
  5
1FA
  8
SMALL_FEATURE
 10
167.25900268554688
 20
69.59600067138672
 30
0.0
 11
166.94149780273438
 21
69.21499633789062
 31
0.0
  0
LINE
  5
1FB
  8
SMALL_FEATURE
 10
166.94149780273438
 20
69.21499633789062
 30
0.0
 11
163.89349365234375
 21
69.21499633789062
 31
0.0
  0
LINE
  5
1FC
  8
SMALL_FEATURE
 10
166.5605010986328
 20
154.74949645996094
 30
0.0
 11
169.6719970703125
 21
154.62249755859375
 31
0.0
  0
LINE
  5
1FD
  8
SMALL_FEATURE
 10
169.6719970703125
 20
154.62249755859375
 30
0.0
 11
169.73550415039062
 21
154.2415008544922
 31
0.0
  0
LINE
  5
1FE
  8
SMALL_FEATURE
 10
169.73550415039062
 20
154.2415008544922
 30
0.0
 11
172.59300231933594
 21
154.62249755859375
 31
0.0
  0
LINE
  5
1FF
  8
SMALL_FEATURE
 10
172.59300231933594
 20
154.62249755859375
 30
0.0
 11
172.72000122070312
 21
150.87600708007812
 31
0.0
  0
LINE
  5
200
  8
SMALL_FEATURE
 10
172.72000122070312
 20
150.87600708007812
 30
0.0
 11
172.8470001220703
 21
154.5590057373047
 31
0.0
  0
LINE
  5
201
  8
SMALL_FEATURE
 10
172.8470001220703
 20
154.5590057373047
 30
0.0
 11
174.11700439453125
 21
154.62249755859375
 31
0.0
  0
LINE
  5
202
  8
SMALL_FEATURE
 10
174.11700439453125
 20
154.62249755859375
 30
0.0
 11
174.3074951171875
 21
150.87600708007812
 31
0.0
  0
LINE
  5
203
  8
SMALL_FEATURE
 10
174.3074951171875
 20
150.87600708007812
 30
0.0
 11
174.4344940185547
 21
154.62249755859375
 31
0.0
  0
LINE
  5
204
  8
SMALL_FEATURE
 10
174.4344940185547
 20
154.62249755859375
 30
0.0
 11
177.29200744628906
 21
154.2415008544922
 31
0.0
  0
LINE
  5
205
  8
SMALL_FEATURE
 10
177.29200744628906
 20
154.2415008544922
 30
0.0
 11
177.35549926757812
 21
154.62249755859375
 31
0.0
  0
LINE
  5
206
  8
SMALL_FEATURE
 10
177.35549926757812
 20
154.62249755859375
 30
0.0
 11
186.1820068359375
 21
154.81300354003906
 31
0.0
  0
LINE
  5
207
  8
SMALL_FEATURE
 10
186.1820068359375
 20
154.81300354003906
 30
0.0
 11
177.35549926757812
 21
154.81300354003906
 31
0.0
  0
LINE
  5
208
  8
SMALL_FEATURE
 10
177.35549926757812
 20
154.81300354003906
 30
0.0
 11
177.29200744628906
 21
155.19400024414062
 31
0.0
  0
LINE
  5
209
  8
SMALL_FEATURE
 10
177.29200744628906
 20
155.19400024414062
 30
0.0
 11
174.4344940185547
 21
154.87649536132812
 31
0.0
  0
LINE
  5
20A
  8
SMALL_FEATURE
 10
174.4344940185547
 20
154.87649536132812
 30
0.0
 11
174.24400329589844
 21
155.38450622558594
 31
0.0
  0
LINE
  5
20B
  8
SMALL_FEATURE
 10
174.24400329589844
 20
155.38450622558594
 30
0.0
 11
174.11700439453125
 21
154.81300354003906
 31
0.0
  0
LINE
  5
20C
  8
SMALL_FEATURE
 10
174.11700439453125
 20
154.81300354003906
 30
0.0
 11
169.73550415039062
 21
155.19400024414062
 31
0.0
  0
LINE
  5
20D
  8
SMALL_FEATURE
 10
169.73550415039062
 20
155.19400024414062
 30
0.0
 11
169.6719970703125
 21
154.81300354003906
 31
0.0
  0
LINE
  5
20E
  8
SMALL_FEATURE
 10
169.6719970703125
 20
154.81300354003906
 30
0.0
 11
166.5605010986328
 21
154.74949645996094
 31
0.0
  0
LINE
  5
20F
  8
SMALL_FEATURE
 10
190.88099670410156
 20
32.32149887084961
 30
0.0
 11
190.43649291992188
 21
32.13100051879883
 31
0.0
  0
LINE
  5
210
  8
SMALL_FEATURE
 10
190.43649291992188
 20
32.13100051879883
 30
0.0
 11
189.2935028076172
 21
28.95599937438965
 31
0.0
  0
LINE
  5
211
  8
SMALL_FEATURE
 10
189.2935028076172
 20
28.95599937438965
 30
0.0
 11
188.4044952392578
 21
28.892499923706055
 31
0.0
  0
LINE
  5
212
  8
SMALL_FEATURE
 10
188.4044952392578
 20
28.892499923706055
 30
0.0
 11
188.08700561523438
 21
29.273500442504883
 31
0.0
  0
LINE
  5
213
  8
SMALL_FEATURE
 10
188.08700561523438
 20
29.273500442504883
 30
0.0
 11
186.8804931640625
 21
27.749500274658203
 31
0.0
  0
LINE
  5
214
  8
SMALL_FEATURE
 10
186.8804931640625
 20
27.749500274658203
 30
0.0
 11
186.7534942626953
 21
26.60650062561035
 31
0.0
  0
LINE
  5
215
  8
SMALL_FEATURE
 10
186.7534942626953
 20
26.60650062561035
 30
0.0
 11
187.00750732421875
 21
26.60650062561035
 31
0.0
  0
LINE
  5
216
  8
SMALL_FEATURE
 10
187.00750732421875
 20
26.60650062561035
 30
0.0
 11
187.00750732421875
 21
27.749500274658203
 31
0.0
  0
LINE
  5
217
  8
SMALL_FEATURE
 10
187.00750732421875
 20
27.749500274658203
 30
0.0
 11
187.89649963378906
 21
28.82900047302246
 31
0.0
  0
LINE
  5
218
  8
SMALL_FEATURE
 10
187.89649963378906
 20
28.82900047302246
 30
0.0
 11
188.78550720214844
 21
28.765499114990234
 31
0.0
  0
LINE
  5
219
  8
SMALL_FEATURE
 10
188.78550720214844
 20
28.765499114990234
 30
0.0
 11
188.78550720214844
 21
26.60650062561035
 31
0.0
  0
LINE
  5
21A
  8
SMALL_FEATURE
 10
188.78550720214844
 20
26.60650062561035
 30
0.0
 11
189.0395050048828
 21
26.60650062561035
 31
0.0
  0
LINE
  5
21B
  8
SMALL_FEATURE
 10
189.0395050048828
 20
26.60650062561035
 30
0.0
 11
189.0395050048828
 21
28.38450050354004
 31
0.0
  0
LINE
  5
21C
  8
SMALL_FEATURE
 10
189.0395050048828
 20
28.38450050354004
 30
0.0
 11
190.88099670410156
 21
32.32149887084961
 31
0.0
  0
LINE
  5
21D
  8
BRIDGE_ROUTE
 10
131.12750244140625
 20
9.46150016784668
 30
0.0
 11
131.1909942626953
 21
41.020999908447266
 31
0.0
  0
LINE
  5
21E
  8
BRIDGE_ROUTE
 10
131.1909942626953
 20
41.020999908447266
 30
0.0
 11
198.81849670410156
 21
40.95750045776367
 31
0.0
  0
LINE
  5
21F
  8
BRIDGE_ROUTE
 10
198.81849670410156
 20
40.95750045776367
 30
0.0
 11
198.7550048828125
 21
39.6875
 31
0.0
  0
LINE
  5
220
  8
BRIDGE_ROUTE
 10
198.7550048828125
 20
39.6875
 30
0.0
 11
132.52450561523438
 21
39.6875
 31
0.0
  0
LINE
  5
221
  8
BRIDGE_ROUTE
 10
132.52450561523438
 20
39.6875
 30
0.0
 11
132.46099853515625
 21
9.46150016784668
 31
0.0
  0
LINE
  5
222
  8
BRIDGE_ROUTE
 10
132.46099853515625
 20
9.46150016784668
 30
0.0
 11
131.12750244140625
 21
9.46150016784668
 31
0.0
  0
LINE
  5
223
  8
CONTROL_CAVITY
 10
50.41899871826172
 20
255.968505859375
 30
0.0
 11
45.9739990234375
 21
254.3175048828125
 31
0.0
  0
LINE
  5
224
  8
CONTROL_CAVITY
 10
45.9739990234375
 20
254.3175048828125
 30
0.0
 11
43.878501892089844
 21
252.98399353027344
 31
0.0
  0
LINE
  5
225
  8
CONTROL_CAVITY
 10
43.878501892089844
 20
252.98399353027344
 30
0.0
 11
41.71950149536133
 21
251.07899475097656
 31
0.0
  0
LINE
  5
226
  8
CONTROL_CAVITY
 10
41.71950149536133
 20
251.07899475097656
 30
0.0
 11
38.099998474121094
 21
245.99899291992188
 31
0.0
  0
LINE
  5
227
  8
CONTROL_CAVITY
 10
38.099998474121094
 20
245.99899291992188
 30
0.0
 11
36.131500244140625
 21
241.2364959716797
 31
0.0
  0
LINE
  5
228
  8
CONTROL_CAVITY
 10
36.131500244140625
 20
241.2364959716797
 30
0.0
 11
35.24250030517578
 21
236.79150390625
 31
0.0
  0
LINE
  5
229
  8
CONTROL_CAVITY
 10
35.24250030517578
 20
236.79150390625
 30
0.0
 11
35.496498107910156
 21
231.6479949951172
 31
0.0
  0
LINE
  5
22A
  8
CONTROL_CAVITY
 10
35.496498107910156
 20
231.6479949951172
 30
0.0
 11
35.7504997253418
 21
231.52099609375
 31
0.0
  0
LINE
  5
22B
  8
CONTROL_CAVITY
 10
35.7504997253418
 20
231.52099609375
 30
0.0
 11
38.48099899291992
 21
220.21800231933594
 31
0.0
  0
LINE
  5
22C
  8
CONTROL_CAVITY
 10
38.48099899291992
 20
220.21800231933594
 30
0.0
 11
38.67150115966797
 21
215.7729949951172
 31
0.0
  0
LINE
  5
22D
  8
CONTROL_CAVITY
 10
38.67150115966797
 20
215.7729949951172
 30
0.0
 11
38.354000091552734
 21
213.29649353027344
 31
0.0
  0
LINE
  5
22E
  8
CONTROL_CAVITY
 10
38.354000091552734
 20
213.29649353027344
 30
0.0
 11
37.02050018310547
 21
208.59750366210938
 31
0.0
  0
LINE
  5
22F
  8
CONTROL_CAVITY
 10
37.02050018310547
 20
208.59750366210938
 30
0.0
 11
35.17900085449219
 21
204.21600341796875
 31
0.0
  0
LINE
  5
230
  8
CONTROL_CAVITY
 10
35.17900085449219
 20
204.21600341796875
 30
0.0
 11
28.25749969482422
 21
191.38900756835938
 31
0.0
  0
LINE
  5
231
  8
CONTROL_CAVITY
 10
28.25749969482422
 20
191.38900756835938
 30
0.0
 11
25.463499069213867
 21
184.6580047607422
 31
0.0
  0
LINE
  5
232
  8
CONTROL_CAVITY
 10
25.463499069213867
 20
184.6580047607422
 30
0.0
 11
24.828500747680664
 21
181.92750549316406
 31
0.0
  0
LINE
  5
233
  8
CONTROL_CAVITY
 10
24.828500747680664
 20
181.92750549316406
 30
0.0
 11
24.574499130249023
 21
177.29200744628906
 31
0.0
  0
LINE
  5
234
  8
CONTROL_CAVITY
 10
24.574499130249023
 20
177.29200744628906
 30
0.0
 11
25.717500686645508
 21
170.62449645996094
 31
0.0
  0
LINE
  5
235
  8
CONTROL_CAVITY
 10
25.717500686645508
 20
170.62449645996094
 30
0.0
 11
27.68600082397461
 21
165.98899841308594
 31
0.0
  0
LINE
  5
236
  8
CONTROL_CAVITY
 10
27.68600082397461
 20
165.98899841308594
 30
0.0
 11
31.559499740600586
 21
160.33749389648438
 31
0.0
  0
LINE
  5
237
  8
CONTROL_CAVITY
 10
31.559499740600586
 20
160.33749389648438
 30
0.0
 11
35.496498107910156
 21
156.52749633789062
 31
0.0
  0
LINE
  5
238
  8
CONTROL_CAVITY
 10
35.496498107910156
 20
156.52749633789062
 30
0.0
 11
38.98899841308594
 21
154.2415008544922
 31
0.0
  0
LINE
  5
239
  8
CONTROL_CAVITY
 10
38.98899841308594
 20
154.2415008544922
 30
0.0
 11
43.6879997253418
 21
152.39999389648438
 31
0.0
  0
LINE
  5
23A
  8
CONTROL_CAVITY
 10
43.6879997253418
 20
152.39999389648438
 30
0.0
 11
53.2765007019043
 21
150.3679962158203
 31
0.0
  0
LINE
  5
23B
  8
CONTROL_CAVITY
 10
53.2765007019043
 20
150.3679962158203
 30
0.0
 11
70.10399627685547
 21
150.17750549316406
 31
0.0
  0
LINE
  5
23C
  8
CONTROL_CAVITY
 10
70.10399627685547
 20
150.17750549316406
 30
0.0
 11
76.96199798583984
 21
151.32049560546875
 31
0.0
  0
LINE
  5
23D
  8
CONTROL_CAVITY
 10
76.96199798583984
 20
151.32049560546875
 30
0.0
 11
81.72450256347656
 21
152.4635009765625
 31
0.0
  0
LINE
  5
23E
  8
CONTROL_CAVITY
 10
81.72450256347656
 20
152.4635009765625
 30
0.0
 11
85.78849792480469
 21
153.9875030517578
 31
0.0
  0
LINE
  5
23F
  8
CONTROL_CAVITY
 10
85.78849792480469
 20
153.9875030517578
 30
0.0
 11
87.94750213623047
 21
155.19400024414062
 31
0.0
  0
LINE
  5
240
  8
CONTROL_CAVITY
 10
87.94750213623047
 20
155.19400024414062
 30
0.0
 11
90.04299926757812
 21
156.71800231933594
 31
0.0
  0
LINE
  5
241
  8
CONTROL_CAVITY
 10
90.04299926757812
 20
156.71800231933594
 30
0.0
 11
93.5354995727539
 21
160.2104949951172
 31
0.0
  0
LINE
  5
242
  8
CONTROL_CAVITY
 10
93.5354995727539
 20
160.2104949951172
 30
0.0
 11
96.5199966430664
 21
164.40150451660156
 31
0.0
  0
LINE
  5
243
  8
CONTROL_CAVITY
 10
96.5199966430664
 20
164.40150451660156
 30
0.0
 11
98.74250030517578
 21
168.4654998779297
 31
0.0
  0
LINE
  5
244
  8
CONTROL_CAVITY
 10
98.74250030517578
 20
168.4654998779297
 30
0.0
 11
99.56800079345703
 21
170.62449645996094
 31
0.0
  0
LINE
  5
245
  8
CONTROL_CAVITY
 10
99.56800079345703
 20
170.62449645996094
 30
0.0
 11
100.45700073242188
 21
175.0695037841797
 31
0.0
  0
LINE
  5
246
  8
CONTROL_CAVITY
 10
100.45700073242188
 20
175.0695037841797
 30
0.0
 11
100.52050018310547
 21
180.40350341796875
 31
0.0
  0
LINE
  5
247
  8
CONTROL_CAVITY
 10
100.52050018310547
 20
180.40350341796875
 30
0.0
 11
99.18699645996094
 21
186.37249755859375
 31
0.0
  0
LINE
  5
248
  8
CONTROL_CAVITY
 10
99.18699645996094
 20
186.37249755859375
 30
0.0
 11
96.64700317382812
 21
191.9604949951172
 31
0.0
  0
LINE
  5
249
  8
CONTROL_CAVITY
 10
96.64700317382812
 20
191.9604949951172
 30
0.0
 11
90.10649871826172
 21
204.02549743652344
 31
0.0
  0
LINE
  5
24A
  8
CONTROL_CAVITY
 10
90.10649871826172
 20
204.02549743652344
 30
0.0
 11
87.50299835205078
 21
210.62950134277344
 31
0.0
  0
LINE
  5
24B
  8
CONTROL_CAVITY
 10
87.50299835205078
 20
210.62950134277344
 30
0.0
 11
86.55049896240234
 21
215.32850646972656
 31
0.0
  0
LINE
  5
24C
  8
CONTROL_CAVITY
 10
86.55049896240234
 20
215.32850646972656
 30
0.0
 11
86.67749786376953
 21
219.90049743652344
 31
0.0
  0
LINE
  5
24D
  8
CONTROL_CAVITY
 10
86.67749786376953
 20
219.90049743652344
 30
0.0
 11
89.66200256347656
 21
231.6479949951172
 31
0.0
  0
LINE
  5
24E
  8
CONTROL_CAVITY
 10
89.66200256347656
 20
231.6479949951172
 30
0.0
 11
89.97949981689453
 21
236.3470001220703
 31
0.0
  0
LINE
  5
24F
  8
CONTROL_CAVITY
 10
89.97949981689453
 20
236.3470001220703
 30
0.0
 11
89.15399932861328
 21
241.2364959716797
 31
0.0
  0
LINE
  5
250
  8
CONTROL_CAVITY
 10
89.15399932861328
 20
241.2364959716797
 30
0.0
 11
87.12200164794922
 21
245.99899291992188
 31
0.0
  0
LINE
  5
251
  8
CONTROL_CAVITY
 10
87.12200164794922
 20
245.99899291992188
 30
0.0
 11
87.12200164794922
 21
246.76100158691406
 31
0.0
  0
LINE
  5
252
  8
CONTROL_CAVITY
 10
87.12200164794922
 20
246.76100158691406
 30
0.0
 11
92.13849639892578
 21
249.11050415039062
 31
0.0
  0
LINE
  5
253
  8
CONTROL_CAVITY
 10
92.13849639892578
 20
249.11050415039062
 30
0.0
 11
86.42350006103516
 21
249.6820068359375
 31
0.0
  0
LINE
  5
254
  8
CONTROL_CAVITY
 10
86.42350006103516
 20
249.6820068359375
 30
0.0
 11
86.55049896240234
 21
249.42799377441406
 31
0.0
  0
LINE
  5
255
  8
CONTROL_CAVITY
 10
86.55049896240234
 20
249.42799377441406
 30
0.0
 11
87.94750213623047
 21
249.364501953125
 31
0.0
  0
LINE
  5
256
  8
CONTROL_CAVITY
 10
87.94750213623047
 20
249.364501953125
 30
0.0
 11
88.01100158691406
 21
248.53900146484375
 31
0.0
  0
LINE
  5
257
  8
CONTROL_CAVITY
 10
88.01100158691406
 20
248.53900146484375
 30
0.0
 11
85.7249984741211
 21
248.28500366210938
 31
0.0
  0
LINE
  5
258
  8
CONTROL_CAVITY
 10
85.7249984741211
 20
248.28500366210938
 30
0.0
 11
82.86750030517578
 21
251.71400451660156
 31
0.0
  0
LINE
  5
259
  8
CONTROL_CAVITY
 10
82.86750030517578
 20
251.71400451660156
 30
0.0
 11
79.24800109863281
 21
254.3175048828125
 31
0.0
  0
LINE
  5
25A
  8
CONTROL_CAVITY
 10
79.24800109863281
 20
254.3175048828125
 30
0.0
 11
76.70800018310547
 21
255.39700317382812
 31
0.0
  0
LINE
  5
25B
  8
CONTROL_CAVITY
 10
76.70800018310547
 20
255.39700317382812
 30
0.0
 11
72.45349884033203
 21
256.4129943847656
 31
0.0
  0
LINE
  5
25C
  8
CONTROL_CAVITY
 10
72.45349884033203
 20
256.4129943847656
 30
0.0
 11
55.054500579833984
 21
256.6034851074219
 31
0.0
  0
LINE
  5
25D
  8
CONTROL_CAVITY
 10
55.054500579833984
 20
256.6034851074219
 30
0.0
 11
50.41899871826172
 21
255.968505859375
 31
0.0
  0
LINE
  5
25E
  8
NECK_POCKET
 10
36.385501861572266
 20
206.6925048828125
 30
0.0
 11
88.70950317382812
 21
206.8195037841797
 31
0.0
  0
LINE
  5
25F
  8
NECK_POCKET
 10
88.70950317382812
 20
206.8195037841797
 30
0.0
 11
98.80599975585938
 21
186.8804931640625
 31
0.0
  0
LINE
  5
260
  8
NECK_POCKET
 10
98.80599975585938
 20
186.8804931640625
 30
0.0
 11
99.56800079345703
 21
184.59449768066406
 31
0.0
  0
LINE
  5
261
  8
NECK_POCKET
 10
99.56800079345703
 20
184.59449768066406
 30
0.0
 11
100.33000183105469
 21
180.40350341796875
 31
0.0
  0
LINE
  5
262
  8
NECK_POCKET
 10
100.33000183105469
 20
180.40350341796875
 30
0.0
 11
100.2665023803711
 21
175.0695037841797
 31
0.0
  0
LINE
  5
263
  8
NECK_POCKET
 10
100.2665023803711
 20
175.0695037841797
 30
0.0
 11
99.25050354003906
 21
170.3070068359375
 31
0.0
  0
LINE
  5
264
  8
NECK_POCKET
 10
99.25050354003906
 20
170.3070068359375
 30
0.0
 11
97.47250366210938
 21
166.30650329589844
 31
0.0
  0
LINE
  5
265
  8
NECK_POCKET
 10
97.47250366210938
 20
166.30650329589844
 30
0.0
 11
93.21800231933594
 21
160.14700317382812
 31
0.0
  0
LINE
  5
266
  8
NECK_POCKET
 10
93.21800231933594
 20
160.14700317382812
 30
0.0
 11
89.78900146484375
 21
156.781494140625
 31
0.0
  0
LINE
  5
267
  8
NECK_POCKET
 10
89.78900146484375
 20
156.781494140625
 30
0.0
 11
85.15350341796875
 21
153.9239959716797
 31
0.0
  0
LINE
  5
268
  8
NECK_POCKET
 10
85.15350341796875
 20
153.9239959716797
 30
0.0
 11
80.9625015258789
 21
152.4635009765625
 31
0.0
  0
LINE
  5
269
  8
NECK_POCKET
 10
80.9625015258789
 20
152.4635009765625
 30
0.0
 11
70.1675033569336
 21
150.3679962158203
 31
0.0
  0
LINE
  5
26A
  8
NECK_POCKET
 10
70.1675033569336
 20
150.3679962158203
 30
0.0
 11
53.14950180053711
 21
150.55850219726562
 31
0.0
  0
LINE
  5
26B
  8
NECK_POCKET
 10
53.14950180053711
 20
150.55850219726562
 30
0.0
 11
42.0369987487793
 21
153.16200256347656
 31
0.0
  0
LINE
  5
26C
  8
NECK_POCKET
 10
42.0369987487793
 20
153.16200256347656
 30
0.0
 11
39.0525016784668
 21
154.4320068359375
 31
0.0
  0
LINE
  5
26D
  8
NECK_POCKET
 10
39.0525016784668
 20
154.4320068359375
 30
0.0
 11
35.17900085449219
 21
157.03550720214844
 31
0.0
  0
LINE
  5
26E
  8
NECK_POCKET
 10
35.17900085449219
 20
157.03550720214844
 30
0.0
 11
31.813499450683594
 21
160.33749389648438
 31
0.0
  0
LINE
  5
26F
  8
NECK_POCKET
 10
31.813499450683594
 20
160.33749389648438
 30
0.0
 11
27.495500564575195
 21
166.8144989013672
 31
0.0
  0
LINE
  5
270
  8
NECK_POCKET
 10
27.495500564575195
 20
166.8144989013672
 30
0.0
 11
26.03499984741211
 21
170.3070068359375
 31
0.0
  0
LINE
  5
271
  8
NECK_POCKET
 10
26.03499984741211
 20
170.3070068359375
 30
0.0
 11
25.33650016784668
 21
172.91050720214844
 31
0.0
  0
LINE
  5
272
  8
NECK_POCKET
 10
25.33650016784668
 20
172.91050720214844
 30
0.0
 11
24.764999389648438
 21
178.62550354003906
 31
0.0
  0
LINE
  5
273
  8
NECK_POCKET
 10
24.764999389648438
 20
178.62550354003906
 30
0.0
 11
25.082500457763672
 21
182.4355010986328
 31
0.0
  0
LINE
  5
274
  8
NECK_POCKET
 10
25.082500457763672
 20
182.4355010986328
 30
0.0
 11
26.47949981689453
 21
186.8804931640625
 31
0.0
  0
LINE
  5
275
  8
NECK_POCKET
 10
26.47949981689453
 20
186.8804931640625
 30
0.0
 11
28.38450050354004
 21
191.19850158691406
 31
0.0
  0
LINE
  5
276
  8
NECK_POCKET
 10
28.38450050354004
 20
191.19850158691406
 30
0.0
 11
35.17900085449219
 21
203.77149963378906
 31
0.0
  0
LINE
  5
277
  8
NECK_POCKET
 10
35.17900085449219
 20
203.77149963378906
 30
0.0
 11
36.385501861572266
 21
206.6925048828125
 31
0.0
  0
LINE
  5
278
  8
JACK_ROUTE
 10
60.70600128173828
 20
256.3494873046875
 30
0.0
 11
60.64250183105469
 21
233.67999267578125
 31
0.0
  0
LINE
  5
279
  8
JACK_ROUTE
 10
60.64250183105469
 20
233.67999267578125
 30
0.0
 11
35.560001373291016
 21
233.74349975585938
 31
0.0
  0
LINE
  5
27A
  8
JACK_ROUTE
 10
35.560001373291016
 20
233.74349975585938
 30
0.0
 11
35.43299865722656
 21
236.79150390625
 31
0.0
  0
LINE
  5
27B
  8
JACK_ROUTE
 10
35.43299865722656
 20
236.79150390625
 30
0.0
 11
35.6870002746582
 21
238.5695037841797
 31
0.0
  0
LINE
  5
27C
  8
JACK_ROUTE
 10
35.6870002746582
 20
238.5695037841797
 30
0.0
 11
37.08399963378906
 21
243.45899963378906
 31
0.0
  0
LINE
  5
27D
  8
JACK_ROUTE
 10
37.08399963378906
 20
243.45899963378906
 30
0.0
 11
39.24300003051758
 21
247.5229949951172
 31
0.0
  0
LINE
  5
27E
  8
JACK_ROUTE
 10
39.24300003051758
 20
247.5229949951172
 30
0.0
 11
42.417999267578125
 21
251.52349853515625
 31
0.0
  0
LINE
  5
27F
  8
JACK_ROUTE
 10
42.417999267578125
 20
251.52349853515625
 30
0.0
 11
46.037498474121094
 21
254.1269989013672
 31
0.0
  0
LINE
  5
280
  8
JACK_ROUTE
 10
46.037498474121094
 20
254.1269989013672
 30
0.0
 11
50.67300033569336
 21
255.8415069580078
 31
0.0
  0
LINE
  5
281
  8
JACK_ROUTE
 10
50.67300033569336
 20
255.8415069580078
 30
0.0
 11
54.9275016784668
 21
256.4129943847656
 31
0.0
  0
LINE
  5
282
  8
JACK_ROUTE
 10
54.9275016784668
 20
256.4129943847656
 30
0.0
 11
60.70600128173828
 21
256.3494873046875
 31
0.0
  0
LINE
  5
283
  8
JACK_ROUTE
 10
64.57949829101562
 20
256.3494873046875
 30
0.0
 11
71.94550323486328
 21
256.2860107421875
 31
0.0
  0
LINE
  5
284
  8
JACK_ROUTE
 10
71.94550323486328
 20
256.2860107421875
 30
0.0
 11
74.54900360107422
 21
255.8415069580078
 31
0.0
  0
LINE
  5
285
  8
JACK_ROUTE
 10
74.54900360107422
 20
255.8415069580078
 30
0.0
 11
79.05750274658203
 21
254.1905059814453
 31
0.0
  0
LINE
  5
286
  8
JACK_ROUTE
 10
79.05750274658203
 20
254.1905059814453
 30
0.0
 11
82.55000305175781
 21
251.71400451660156
 31
0.0
  0
LINE
  5
287
  8
JACK_ROUTE
 10
82.55000305175781
 20
251.71400451660156
 30
0.0
 11
85.02649688720703
 21
248.9199981689453
 31
0.0
  0
LINE
  5
288
  8
JACK_ROUTE
 10
85.02649688720703
 20
248.9199981689453
 30
0.0
 11
84.96299743652344
 21
248.031005859375
 31
0.0
  0
LINE
  5
289
  8
JACK_ROUTE
 10
84.96299743652344
 20
248.031005859375
 30
0.0
 11
68.00849914550781
 21
245.23699951171875
 31
0.0
  0
LINE
  5
28A
  8
JACK_ROUTE
 10
68.00849914550781
 20
245.23699951171875
 30
0.0
 11
85.78849792480469
 21
247.8404998779297
 31
0.0
  0
LINE
  5
28B
  8
JACK_ROUTE
 10
85.78849792480469
 20
247.8404998779297
 30
0.0
 11
87.3759994506836
 21
245.11000061035156
 31
0.0
  0
LINE
  5
28C
  8
JACK_ROUTE
 10
87.3759994506836
 20
245.11000061035156
 30
0.0
 11
88.9635009765625
 21
241.17300415039062
 31
0.0
  0
LINE
  5
28D
  8
JACK_ROUTE
 10
88.9635009765625
 20
241.17300415039062
 30
0.0
 11
89.72550201416016
 21
237.29949951171875
 31
0.0
  0
LINE
  5
28E
  8
JACK_ROUTE
 10
89.72550201416016
 20
237.29949951171875
 30
0.0
 11
89.66200256347656
 21
233.8070068359375
 31
0.0
  0
LINE
  5
28F
  8
JACK_ROUTE
 10
89.66200256347656
 20
233.8070068359375
 30
0.0
 11
64.70649719238281
 21
233.67999267578125
 31
0.0
  0
LINE
  5
290
  8
JACK_ROUTE
 10
64.70649719238281
 20
233.67999267578125
 30
0.0
 11
64.57949829101562
 21
256.3494873046875
 31
0.0
  0
ENDSEC
  0
EOF
