  0
SECTION
  2
HEADER
  9
$ACADVER
  1
AC1009
  9
$DWGCODEPAGE
  3
ANSI_1252
  9
$INSBASE
 10
0.0
 20
0.0
 30
0.0
  9
$EXTMIN
 10
1e+20
 20
1e+20
 30
1e+20
  9
$EXTMAX
 10
-1e+20
 20
-1e+20
 30
-1e+20
  9
$LIMMIN
 10
0.0
 20
0.0
  9
$LIMMAX
 10
420.0
 20
297.0
  9
$ORTHOMODE
 70
0
  9
$REGENMODE
 70
1
  9
$FILLMODE
 70
1
  9
$DRAGMODE
 70
2
  9
$QTEXTMODE
 70
0
  9
$MIRRTEXT
 70
1
  9
$OSMODE
 70
20583
  9
$LTSCALE
 40
1.0
  9
$ATTMODE
 70
1
  9
$TEXTSIZE
 40
2.5
  9
$TRACEWID
 40
1.0
  9
$TEXTSTYLE
  7
Standard
  9
$CLAYER
  8
0
  9
$CELTYPE
  6
ByLayer
  9
$CECOLOR
 62
256
  9
$DIMSCALE
 40
1.0
  9
$DIMASZ
 40
2.5
  9
$DIMEXO
 40
0.625
  9
$DIMDLI
 40
3.75
  9
$DIMRND
 40
0.0
  9
$DIMDLE
 40
0.0
  9
$DIMEXE
 40
1.25
  9
$DIMTP
 40
0.0
  9
$DIMTM
 40
0.0
  9
$DIMTXT
 40
2.5
  9
$DIMCEN
 40
2.5
  9
$DIMTSZ
 40
0.0
  9
$DIMTOL
 70
0
  9
$DIMLIM
 70
0
  9
$DIMTIH
 70
0
  9
$DIMTOH
 70
0
  9
$DIMSE1
 70
0
  9
$DIMSE2
 70
0
  9
$DIMTAD
 70
1
  9
$DIMZIN
 70
8
  9
$DIMBLK
  1

  9
$DIMASO
 70
1
  9
$DIMSHO
 70
1
  9
$DIMPOST
  1

  9
$DIMAPOST
  1

  9
$DIMALT
 70
0
  9
$DIMALTD
 70
3
  9
$DIMALTF
 40
0.03937007874
  9
$DIMLFAC
 40
1.0
  9
$DIMTOFL
 70
1
  9
$DIMTVP
 40
0.0
  9
$DIMTIX
 70
0
  9
$DIMSOXD
 70
0
  9
$DIMSAH
 70
0
  9
$DIMBLK1
  1

  9
$DIMBLK2
  1

  9
$DIMSTYLE
  2
ISO-25
  9
$DIMCLRD
 70
0
  9
$DIMCLRE
 70
0
  9
$DIMCLRT
 70
0
  9
$DIMTFAC
 40
1.0
  9
$DIMGAP
 40
0.625
  9
$COORDS
 70
1
  9
$ATTDIA
 70
0
  9
$ATTREQ
 70
1
  9
$HANDLING
 70
1
  9
$LUNITS
 70
2
  9
$LUPREC
 70
4
  9
$SKETCHINC
 40
1.0
  9
$FILLETRAD
 40
10.0
  9
$AUNITS
 70
0
  9
$AUPREC
 70
2
  9
$MENU
  1
.
  9
$ELEVATION
 40
0.0
  9
$PELEVATION
 40
0.0
  9
$THICKNESS
 40
0.0
  9
$LIMCHECK
 70
0
  9
$CHAMFERA
 40
0.0
  9
$CHAMFERB
 40
0.0
  9
$SKPOLY
 70
0
  9
$TDCREATE
 40
2461104.9023379628
  9
$TDUPDATE
 40
2461104.9023379628
  9
$TDINDWG
 40
0.0
  9
$TDUSRTIMER
 40
0.0
  9
$USRTIMER
 70
1
  9
$ANGBASE
 50
0.0
  9
$ANGDIR
 70
0
  9
$PDMODE
 70
0
  9
$PDSIZE
 40
0.0
  9
$PLINEWID
 40
0.0
  9
$SPLFRAME
 70
0
  9
$SPLINETYPE
 70
6
  9
$SPLINESEGS
 70
8
  9
$HANDSEED
  5
161
  9
$SURFTAB1
 70
6
  9
$SURFTAB2
 70
6
  9
$SURFTYPE
 70
6
  9
$SURFU
 70
6
  9
$SURFV
 70
6
  9
$UCSNAME
  2

  9
$UCSORG
 10
0.0
 20
0.0
 30
0.0
  9
$UCSXDIR
 10
1.0
 20
0.0
 30
0.0
  9
$UCSYDIR
 10
0.0
 20
1.0
 30
0.0
  9
$PUCSNAME
  2

  9
$PUCSORG
 10
0.0
 20
0.0
 30
0.0
  9
$PUCSXDIR
 10
1.0
 20
0.0
 30
0.0
  9
$PUCSYDIR
 10
0.0
 20
1.0
 30
0.0
  9
$USERI1
 70
0
  9
$USERI2
 70
0
  9
$USERI3
 70
0
  9
$USERI4
 70
0
  9
$USERI5
 70
0
  9
$USERR1
 40
0.0
  9
$USERR2
 40
0.0
  9
$USERR3
 40
0.0
  9
$USERR4
 40
0.0
  9
$USERR5
 40
0.0
  9
$WORLDVIEW
 70
1
  9
$SHADEDGE
 70
3
  9
$SHADEDIF
 70
70
  9
$TILEMODE
 70
1
  9
$MAXACTVP
 70
64
  9
$PLIMCHECK
 70
0
  9
$PEXTMIN
 10
1e+20
 20
1e+20
 30
1e+20
  9
$PEXTMAX
 10
-1e+20
 20
-1e+20
 30
-1e+20
  9
$PLIMMIN
 10
0.0
 20
0.0
  9
$PLIMMAX
 10
420.0
 20
297.0
  9
$UNITMODE
 70
0
  9
$VISRETAIN
 70
1
  9
$PLINEGEN
 70
0
  9
$PSLTSCALE
 70
1
  0
ENDSEC
  0
SECTION
  2
TABLES
  0
TABLE
  2
VPORT
 70
1
  0
VPORT
  5
23
  2
*Active
 70
0
 10
0.0
 20
0.0
 11
1.0
 21
1.0
 12
0.0
 22
0.0
 13
0.0
 23
0.0
 14
0.5
 24
0.5
 15
0.5
 25
0.5
 16
0.0
 26
0.0
 36
1.0
 17
0.0
 27
0.0
 37
0.0
 40
1000.0
 41
1.34
 42
50.0
 43
0.0
 44
0.0
 50
0.0
 51
0.0
 71
0
 72
1000
 73
1
 74
3
 75
0
 76
0
 77
0
 78
0
  0
ENDTAB
  0
TABLE
  2
LTYPE
 70
3
  0
LTYPE
  5
24
  2
ByBlock
 70
0
  3

 72
65
 73
0
 40
0.0
  0
LTYPE
  5
25
  2
ByLayer
 70
0
  3

 72
65
 73
0
 40
0.0
  0
LTYPE
  5
26
  2
Continuous
 70
0
  3

 72
65
 73
0
 40
0.0
  0
ENDTAB
  0
TABLE
  2
LAYER
 70
2
  0
LAYER
  5
27
  2
0
 70
0
 62
7
  6
Continuous
  0
LAYER
  5
28
  2
Defpoints
 70
0
 62
7
  6
Continuous
  0
ENDTAB
  0
TABLE
  2
STYLE
 70
1
  0
STYLE
  5
29
  2
Standard
 70
0
 40
0.0
 41
1.0
 50
0.0
 71
0
 42
2.5
  3
txt
  4

  0
ENDTAB
  0
TABLE
  2
VIEW
 70
0
  0
ENDTAB
  0
TABLE
  2
UCS
 70
0
  0
ENDTAB
  0
TABLE
  2
APPID
 70
3
  0
APPID
  5
2A
  2
ACAD
 70
0
  0
APPID
  5
15F
  2
HATCHBACKGROUNDCOLOR
 70
0
  0
APPID
  5
160
  2
EZDXF
 70
0
  0
ENDTAB
  0
TABLE
  2
DIMSTYLE
 70
1
  0
DIMSTYLE
105
2B
  2
Standard
 70
0
  3

  4

  5

  6

  7

 40
1.0
 41
2.5
 42
0.625
 43
3.75
 44
1.25
 45
0.0
 46
0.0
 47
0.0
 48
0.0
140
2.5
141
2.5
142
0.0
143
0.03937007874
144
1.0
145
0.0
146
1.0
147
0.625
 71
0
 72
0
 73
0
 74
0
 75
0
 76
0
 77
1
 78
8
170
0
171
3
172
1
173
0
174
0
175
0
176
0
177
0
178
0
  0
ENDTAB
  0
ENDSEC
  0
SECTION
  2
BLOCKS
  0
BLOCK
  5
18
  8
0
  2
$Model_Space
 70
0
 10
0.0
 20
0.0
 30
0.0
  3
$Model_Space
  1

1001
EZDXF
1000
CREATED_BY_EZDXF
1000
1.4.3 @ 2026-03-05T03:39:22.151592+00:00
1000
WRITTEN_BY_EZDXF
1000
1.4.3 @ 2026-03-05T03:39:22.161461+00:00
  0
ENDBLK
  5
19
  8
0
  0
BLOCK
  5
1C
  8
0
  2
$Paper_Space
 70
0
 10
0.0
 20
0.0
 30
0.0
  3
$Paper_Space
  1

  0
ENDBLK
  5
1D
  8
0
  0
ENDSEC
  0
SECTION
  2
ENTITIES
  0
LINE
  5
2D
  8
BODY
 10
-188.26054256799495
 20
264.26691777356115
 30
0.0
 11
-182.07987590132828
 21
266.0449177735611
 31
0.0
  0
LINE
  5
2E
  8
BODY
 10
-182.07987590132828
 20
266.0449177735611
 30
0.0
 11
-175.56054256799493
 21
267.6535844402278
 31
0.0
  0
LINE
  5
2F
  8
BODY
 10
-175.56054256799493
 20
267.6535844402278
 30
0.0
 11
-168.5332092346616
 21
269.0082511068945
 31
0.0
  0
LINE
  5
30
  8
BODY
 10
-168.5332092346616
 20
269.0082511068945
 30
0.0
 11
-161.7598759013283
 21
270.0242511068945
 31
0.0
  0
LINE
  5
31
  8
BODY
 10
-161.7598759013283
 20
270.0242511068945
 30
0.0
 11
-155.91787590132827
 21
270.6169177735611
 31
0.0
  0
LINE
  5
32
  8
BODY
 10
-155.91787590132827
 20
270.6169177735611
 30
0.0
 11
-142.8792092346616
 21
271.4635844402278
 31
0.0
  0
LINE
  5
33
  8
BODY
 10
-142.8792092346616
 20
271.4635844402278
 30
0.0
 11
-139.66187590132827
 21
271.4635844402278
 31
0.0
  0
LINE
  5
34
  8
BODY
 10
-139.66187590132827
 20
271.4635844402278
 30
0.0
 11
-139.5772092346616
 21
269.9395844402278
 31
0.0
  0
LINE
  5
35
  8
BODY
 10
-139.5772092346616
 20
269.9395844402278
 30
0.0
 11
-146.09654256799493
 21
269.8549177735611
 31
0.0
  0
LINE
  5
36
  8
BODY
 10
-146.09654256799493
 20
269.8549177735611
 30
0.0
 11
-147.11254256799495
 21
270.87091777356113
 31
0.0
  0
LINE
  5
37
  8
BODY
 10
-147.11254256799495
 20
270.87091777356113
 30
0.0
 11
-147.28187590132828
 21
270.6169177735611
 31
0.0
  0
LINE
  5
38
  8
BODY
 10
-147.28187590132828
 20
270.6169177735611
 30
0.0
 11
-146.51987590132828
 21
269.9395844402278
 31
0.0
  0
LINE
  5
39
  8
BODY
 10
-146.51987590132828
 20
269.9395844402278
 30
0.0
 11
-147.36654256799494
 21
269.7702511068945
 31
0.0
  0
LINE
  5
3A
  8
BODY
 10
-147.36654256799494
 20
269.7702511068945
 30
0.0
 11
-146.35054256799495
 21
269.7702511068945
 31
0.0
  0
LINE
  5
3B
  8
BODY
 10
-146.35054256799495
 20
269.7702511068945
 30
0.0
 11
-146.35054256799495
 21
269.60091777356115
 31
0.0
  0
LINE
  5
3C
  8
BODY
 10
-146.35054256799495
 20
269.60091777356115
 30
0.0
 11
-148.63654256799495
 21
269.51625110689446
 31
0.0
  0
LINE
  5
3D
  8
BODY
 10
-148.63654256799495
 20
269.51625110689446
 30
0.0
 11
-149.90654256799493
 21
269.2622511068945
 31
0.0
  0
LINE
  5
3E
  8
BODY
 10
-149.90654256799493
 20
269.2622511068945
 30
0.0
 11
-149.7372092346616
 21
269.0929177735611
 31
0.0
  0
LINE
  5
3F
  8
BODY
 10
-149.7372092346616
 20
269.0929177735611
 30
0.0
 11
-147.78987590132826
 21
269.34691777356113
 31
0.0
  0
LINE
  5
40
  8
BODY
 10
-147.78987590132826
 20
269.34691777356113
 30
0.0
 11
-146.26587590132826
 21
269.2622511068945
 31
0.0
  0
LINE
  5
41
  8
BODY
 10
-146.26587590132826
 20
269.2622511068945
 30
0.0
 11
-146.26587590132826
 21
262.4889177735611
 31
0.0
  0
LINE
  5
42
  8
BODY
 10
-146.26587590132826
 20
262.4889177735611
 30
0.0
 11
-146.1812092346616
 21
269.34691777356113
 31
0.0
  0
LINE
  5
43
  8
BODY
 10
-146.1812092346616
 20
269.34691777356113
 30
0.0
 11
-146.01187590132827
 21
269.4315844402278
 31
0.0
  0
LINE
  5
44
  8
BODY
 10
-146.01187590132827
 20
269.4315844402278
 30
0.0
 11
-145.33454256799493
 21
268.75425110689446
 31
0.0
  0
LINE
  5
45
  8
BODY
 10
-145.33454256799493
 20
268.75425110689446
 30
0.0
 11
-145.1652092346616
 21
268.83891777356115
 31
0.0
  0
LINE
  5
46
  8
BODY
 10
-145.1652092346616
 20
268.83891777356115
 30
0.0
 11
-145.9272092346616
 21
269.6855844402278
 31
0.0
  0
LINE
  5
47
  8
BODY
 10
-145.9272092346616
 20
269.6855844402278
 30
0.0
 11
-145.84254256799494
 21
269.7702511068945
 31
0.0
  0
LINE
  5
48
  8
BODY
 10
-145.84254256799494
 20
269.7702511068945
 30
0.0
 11
-145.24987590132827
 21
269.7702511068945
 31
0.0
  0
LINE
  5
49
  8
BODY
 10
-145.24987590132827
 20
269.7702511068945
 30
0.0
 11
-145.1652092346616
 21
269.6855844402278
 31
0.0
  0
LINE
  5
4A
  8
BODY
 10
-145.1652092346616
 20
269.6855844402278
 30
0.0
 11
-145.4192092346616
 21
269.51625110689446
 31
0.0
  0
LINE
  5
4B
  8
BODY
 10
-145.4192092346616
 20
269.51625110689446
 30
0.0
 11
-145.33454256799493
 21
269.34691777356113
 31
0.0
  0
LINE
  5
4C
  8
BODY
 10
-145.33454256799493
 20
269.34691777356113
 30
0.0
 11
-141.6092092346616
 21
269.51625110689446
 31
0.0
  0
LINE
  5
4D
  8
BODY
 10
-141.6092092346616
 20
269.51625110689446
 30
0.0
 11
-141.43987590132826
 21
269.7702511068945
 31
0.0
  0
LINE
  5
4E
  8
BODY
 10
-141.43987590132826
 20
269.7702511068945
 30
0.0
 11
-141.01654256799495
 21
269.7702511068945
 31
0.0
  0
LINE
  5
4F
  8
BODY
 10
-141.01654256799495
 20
269.7702511068945
 30
0.0
 11
-140.8472092346616
 21
269.51625110689446
 31
0.0
  0
LINE
  5
50
  8
BODY
 10
-140.8472092346616
 20
269.51625110689446
 30
0.0
 11
-137.12187590132828
 21
269.60091777356115
 31
0.0
  0
LINE
  5
51
  8
BODY
 10
-137.12187590132828
 20
269.60091777356115
 30
0.0
 11
-136.95254256799493
 21
269.7702511068945
 31
0.0
  0
LINE
  5
52
  8
BODY
 10
-136.95254256799493
 20
269.7702511068945
 30
0.0
 11
-136.44454256799494
 21
269.7702511068945
 31
0.0
  0
LINE
  5
53
  8
BODY
 10
-136.44454256799494
 20
269.7702511068945
 30
0.0
 11
-136.27520923466162
 21
269.60091777356115
 31
0.0
  0
LINE
  5
54
  8
BODY
 10
-136.27520923466162
 20
269.60091777356115
 30
0.0
 11
-132.63454256799494
 21
269.60091777356115
 31
0.0
  0
LINE
  5
55
  8
BODY
 10
-132.63454256799494
 20
269.60091777356115
 30
0.0
 11
-132.46520923466161
 21
269.7702511068945
 31
0.0
  0
LINE
  5
56
  8
BODY
 10
-132.46520923466161
 20
269.7702511068945
 30
0.0
 11
-131.9572092346616
 21
269.7702511068945
 31
0.0
  0
LINE
  5
57
  8
BODY
 10
-131.9572092346616
 20
269.7702511068945
 30
0.0
 11
-131.78787590132828
 21
269.60091777356115
 31
0.0
  0
LINE
  5
58
  8
BODY
 10
-131.78787590132828
 20
269.60091777356115
 30
0.0
 11
-128.1472092346616
 21
269.7702511068945
 31
0.0
  0
LINE
  5
59
  8
BODY
 10
-128.1472092346616
 20
269.7702511068945
 30
0.0
 11
-124.67587590132827
 21
269.6855844402278
 31
0.0
  0
LINE
  5
5A
  8
BODY
 10
-124.67587590132827
 20
269.6855844402278
 30
0.0
 11
-124.50654256799494
 21
266.3835844402278
 31
0.0
  0
LINE
  5
5B
  8
BODY
 10
-124.50654256799494
 20
266.3835844402278
 30
0.0
 11
-124.50654256799494
 21
269.60091777356115
 31
0.0
  0
LINE
  5
5C
  8
BODY
 10
-124.50654256799494
 20
269.60091777356115
 30
0.0
 11
-121.62787590132827
 21
269.7702511068945
 31
0.0
  0
LINE
  5
5D
  8
BODY
 10
-121.62787590132827
 20
269.7702511068945
 30
0.0
 11
-121.71254256799494
 21
269.9395844402278
 31
0.0
  0
LINE
  5
5E
  8
BODY
 10
-121.71254256799494
 20
269.9395844402278
 30
0.0
 11
-124.42187590132828
 21
269.9395844402278
 31
0.0
  0
LINE
  5
5F
  8
BODY
 10
-124.42187590132828
 20
269.9395844402278
 30
0.0
 11
-124.42187590132828
 21
271.5482511068945
 31
0.0
  0
LINE
  5
60
  8
BODY
 10
-124.42187590132828
 20
271.5482511068945
 30
0.0
 11
-109.6052092346616
 21
271.4635844402278
 31
0.0
  0
LINE
  5
61
  8
BODY
 10
-109.6052092346616
 20
271.4635844402278
 30
0.0
 11
-109.52054256799494
 21
269.9395844402278
 31
0.0
  0
LINE
  5
62
  8
BODY
 10
-109.52054256799494
 20
269.9395844402278
 30
0.0
 11
-109.35120923466161
 21
271.4635844402278
 31
0.0
  0
LINE
  5
63
  8
BODY
 10
-109.35120923466161
 20
271.4635844402278
 30
0.0
 11
-106.13387590132827
 21
271.4635844402278
 31
0.0
  0
LINE
  5
64
  8
BODY
 10
-106.13387590132827
 20
271.4635844402278
 30
0.0
 11
-100.9692092346616
 21
271.2095844402278
 31
0.0
  0
LINE
  5
65
  8
BODY
 10
-100.9692092346616
 20
271.2095844402278
 30
0.0
 11
-94.02654256799494
 21
270.7015844402278
 31
0.0
  0
LINE
  5
66
  8
BODY
 10
-94.02654256799494
 20
270.7015844402278
 30
0.0
 11
-87.25320923466161
 21
270.0242511068945
 31
0.0
  0
LINE
  5
67
  8
BODY
 10
-87.25320923466161
 20
270.0242511068945
 30
0.0
 11
-79.97187590132827
 21
268.9235844402278
 31
0.0
  0
LINE
  5
68
  8
BODY
 10
-79.97187590132827
 20
268.9235844402278
 30
0.0
 11
-73.45254256799494
 21
267.6535844402278
 31
0.0
  0
LINE
  5
69
  8
BODY
 10
-73.45254256799494
 20
267.6535844402278
 30
0.0
 11
-63.96987590132827
 21
265.1982511068945
 31
0.0
  0
LINE
  5
6A
  8
BODY
 10
-63.96987590132827
 20
265.1982511068945
 30
0.0
 11
-60.75254256799494
 21
264.26691777356115
 31
0.0
  0
LINE
  5
6B
  8
BODY
 10
-60.75254256799494
 20
264.26691777356115
 30
0.0
 11
-52.28587590132827
 21
261.0495844402278
 31
0.0
  0
LINE
  5
6C
  8
BODY
 10
-52.28587590132827
 20
261.0495844402278
 30
0.0
 11
-45.17387590132827
 21
257.66291777356116
 31
0.0
  0
LINE
  5
6D
  8
BODY
 10
-45.17387590132827
 20
257.66291777356116
 30
0.0
 11
-39.670542567994936
 21
254.36091777356114
 31
0.0
  0
LINE
  5
6E
  8
BODY
 10
-39.670542567994936
 20
254.36091777356114
 30
0.0
 11
-37.29987590132827
 21
252.6675844402278
 31
0.0
  0
LINE
  5
6F
  8
BODY
 10
-37.29987590132827
 20
252.6675844402278
 30
0.0
 11
-34.167209234661605
 21
250.1275844402278
 31
0.0
  0
LINE
  5
70
  8
BODY
 10
-34.167209234661605
 20
250.1275844402278
 30
0.0
 11
-31.796542567994937
 21
247.92625110689448
 31
0.0
  0
LINE
  5
71
  8
BODY
 10
-31.796542567994937
 20
247.92625110689448
 30
0.0
 11
-29.256542567994938
 21
245.3015844402278
 31
0.0
  0
LINE
  5
72
  8
BODY
 10
-29.256542567994938
 20
245.3015844402278
 30
0.0
 11
-24.938542567994936
 21
240.05225110689446
 31
0.0
  0
LINE
  5
73
  8
BODY
 10
-24.938542567994936
 20
240.05225110689446
 30
0.0
 11
-21.382542567994935
 21
235.05691777356114
 31
0.0
  0
LINE
  5
74
  8
BODY
 10
-21.382542567994935
 20
235.05691777356114
 30
0.0
 11
-19.77387590132827
 21
232.51691777356115
 31
0.0
  0
LINE
  5
75
  8
BODY
 10
-19.77387590132827
 20
232.51691777356115
 30
0.0
 11
-16.048542567994936
 21
225.57425110689448
 31
0.0
  0
LINE
  5
76
  8
BODY
 10
-16.048542567994936
 20
225.57425110689448
 30
0.0
 11
-13.339209234661602
 21
219.56291777356114
 31
0.0
  0
LINE
  5
77
  8
BODY
 10
-13.339209234661602
 20
219.56291777356114
 30
0.0
 11
-10.968542567994936
 21
213.46691777356114
 31
0.0
  0
LINE
  5
78
  8
BODY
 10
-10.968542567994936
 20
213.46691777356114
 30
0.0
 11
-9.952542567994936
 21
210.2495844402278
 31
0.0
  0
LINE
  5
79
  8
BODY
 10
-9.952542567994936
 20
210.2495844402278
 30
0.0
 11
-9.021209234661603
 21
206.6935844402278
 31
0.0
  0
LINE
  5
7A
  8
BODY
 10
-9.021209234661603
 20
206.6935844402278
 30
0.0
 11
-7.920542567994937
 21
199.8355844402278
 31
0.0
  0
LINE
  5
7B
  8
BODY
 10
-7.920542567994937
 20
199.8355844402278
 30
0.0
 11
-7.497209234661603
 21
194.16291777356113
 31
0.0
  0
LINE
  5
7C
  8
BODY
 10
-7.497209234661603
 20
194.16291777356113
 30
0.0
 11
-7.243209234661603
 21
188.32091777356115
 31
0.0
  0
LINE
  5
7D
  8
BODY
 10
-7.243209234661603
 20
188.32091777356115
 30
0.0
 11
-7.243209234661603
 21
178.83825110689446
 31
0.0
  0
LINE
  5
7E
  8
BODY
 10
-7.243209234661603
 20
178.83825110689446
 30
0.0
 11
-7.666542567994936
 21
172.9115844402278
 31
0.0
  0
LINE
  5
7F
  8
BODY
 10
-7.666542567994936
 20
172.9115844402278
 30
0.0
 11
-8.08987590132827
 21
170.1175844402278
 31
0.0
  0
LINE
  5
80
  8
BODY
 10
-8.08987590132827
 20
170.1175844402278
 30
0.0
 11
-8.767209234661603
 21
166.90025110689447
 31
0.0
  0
LINE
  5
81
  8
BODY
 10
-8.767209234661603
 20
166.90025110689447
 30
0.0
 11
-10.460542567994937
 21
166.90025110689447
 31
0.0
  0
LINE
  5
82
  8
BODY
 10
-10.460542567994937
 20
166.90025110689447
 30
0.0
 11
-9.783209234661603
 21
170.20225110689447
 31
0.0
  0
LINE
  5
83
  8
BODY
 10
-9.783209234661603
 20
170.20225110689447
 30
0.0
 11
-9.783209234661603
 21
170.96425110689447
 31
0.0
  0
LINE
  5
84
  8
BODY
 10
-9.783209234661603
 20
170.96425110689447
 30
0.0
 11
-13.847209234661603
 21
170.96425110689447
 31
0.0
  0
LINE
  5
85
  8
BODY
 10
-13.847209234661603
 20
170.96425110689447
 30
0.0
 11
-13.847209234661603
 21
170.71025110689448
 31
0.0
  0
LINE
  5
86
  8
BODY
 10
-13.847209234661603
 20
170.71025110689448
 30
0.0
 11
-9.952542567994936
 21
170.6255844402278
 31
0.0
  0
LINE
  5
87
  8
BODY
 10
-9.952542567994936
 20
170.6255844402278
 30
0.0
 11
-10.629875901328269
 21
167.15425110689446
 31
0.0
  0
LINE
  5
88
  8
BODY
 10
-10.629875901328269
 20
167.15425110689446
 30
0.0
 11
-10.799209234661603
 21
166.8155844402278
 31
0.0
  0
LINE
  5
89
  8
BODY
 10
-10.799209234661603
 20
166.8155844402278
 30
0.0
 11
-15.032542567994936
 21
166.8155844402278
 31
0.0
  0
LINE
  5
8A
  8
BODY
 10
-15.032542567994936
 20
166.8155844402278
 30
0.0
 11
-8.85187590132827
 21
166.64625110689448
 31
0.0
  0
LINE
  5
8B
  8
BODY
 10
-8.85187590132827
 20
166.64625110689448
 30
0.0
 11
-10.12187590132827
 21
160.88891777356113
 31
0.0
  0
LINE
  5
8C
  8
BODY
 10
-10.12187590132827
 20
160.88891777356113
 30
0.0
 11
-12.91587590132827
 21
150.3055844402278
 31
0.0
  0
LINE
  5
8D
  8
BODY
 10
-12.91587590132827
 20
150.3055844402278
 30
0.0
 11
-14.270542567994937
 21
146.7495844402278
 31
0.0
  0
LINE
  5
8E
  8
BODY
 10
-14.270542567994937
 20
146.7495844402278
 30
0.0
 11
-19.350542567994935
 21
134.89625110689445
 31
0.0
  0
LINE
  5
8F
  8
BODY
 10
-19.350542567994935
 20
134.89625110689445
 30
0.0
 11
-22.483209234661604
 21
128.29225110689447
 31
0.0
  0
LINE
  5
90
  8
BODY
 10
-22.483209234661604
 20
128.29225110689447
 30
0.0
 11
-25.61587590132827
 21
122.53491777356113
 31
0.0
  0
LINE
  5
91
  8
BODY
 10
-25.61587590132827
 20
122.53491777356113
 30
0.0
 11
-29.42587590132827
 21
116.0155844402278
 31
0.0
  0
LINE
  5
92
  8
BODY
 10
-29.42587590132827
 20
116.0155844402278
 30
0.0
 11
-43.48054256799494
 21
93.83291777356114
 31
0.0
  0
LINE
  5
93
  8
BODY
 10
-43.48054256799494
 20
93.83291777356114
 30
0.0
 11
-45.42787590132827
 21
90.44625110689447
 31
0.0
  0
LINE
  5
94
  8
BODY
 10
-45.42787590132827
 20
90.44625110689447
 30
0.0
 11
-47.121209234661606
 21
87.0595844402278
 31
0.0
  0
LINE
  5
95
  8
BODY
 10
-47.121209234661606
 20
87.0595844402278
 30
0.0
 11
-47.29054256799494
 21
86.89025110689447
 31
0.0
  0
LINE
  5
96
  8
BODY
 10
-47.29054256799494
 20
86.89025110689447
 30
0.0
 11
-49.06854256799494
 21
86.97491777356113
 31
0.0
  0
LINE
  5
97
  8
BODY
 10
-49.06854256799494
 20
86.97491777356113
 30
0.0
 11
-47.71387590132827
 21
89.5995844402278
 31
0.0
  0
LINE
  5
98
  8
BODY
 10
-47.71387590132827
 20
89.5995844402278
 30
0.0
 11
-47.88320923466161
 21
89.76891777356113
 31
0.0
  0
LINE
  5
99
  8
BODY
 10
-47.88320923466161
 20
89.76891777356113
 30
0.0
 11
-49.4072092346616
 21
86.89025110689447
 31
0.0
  0
LINE
  5
9A
  8
BODY
 10
-49.4072092346616
 20
86.89025110689447
 30
0.0
 11
-57.2812092346616
 21
86.89025110689447
 31
0.0
  0
LINE
  5
9B
  8
BODY
 10
-57.2812092346616
 20
86.89025110689447
 30
0.0
 11
-49.49187590132827
 21
86.8055844402278
 31
0.0
  0
LINE
  5
9C
  8
BODY
 10
-49.49187590132827
 20
86.8055844402278
 30
0.0
 11
-49.4072092346616
 21
86.72091777356114
 31
0.0
  0
LINE
  5
9D
  8
BODY
 10
-49.4072092346616
 20
86.72091777356114
 30
0.0
 11
-49.576542567994935
 21
86.38225110689447
 31
0.0
  0
LINE
  5
9E
  8
BODY
 10
-49.576542567994935
 20
86.38225110689447
 30
0.0
 11
-49.4072092346616
 21
86.2975844402278
 31
0.0
  0
LINE
  5
9F
  8
BODY
 10
-49.4072092346616
 20
86.2975844402278
 30
0.0
 11
-49.06854256799494
 21
86.8055844402278
 31
0.0
  0
LINE
  5
A0
  8
BODY
 10
-49.06854256799494
 20
86.8055844402278
 30
0.0
 11
-47.29054256799494
 21
86.72091777356114
 31
0.0
  0
LINE
  5
A1
  8
BODY
 10
-47.29054256799494
 20
86.72091777356114
 30
0.0
 11
-49.32254256799494
 21
82.31825110689446
 31
0.0
  0
LINE
  5
A2
  8
BODY
 10
-49.32254256799494
 20
82.31825110689446
 30
0.0
 11
-50.50787590132827
 21
79.1855844402278
 31
0.0
  0
LINE
  5
A3
  8
BODY
 10
-50.50787590132827
 20
79.1855844402278
 30
0.0
 11
-51.52387590132827
 21
75.79891777356113
 31
0.0
  0
LINE
  5
A4
  8
BODY
 10
-51.52387590132827
 20
75.79891777356113
 30
0.0
 11
-52.37054256799494
 21
72.24291777356113
 31
0.0
  0
LINE
  5
A5
  8
BODY
 10
-52.37054256799494
 20
72.24291777356113
 30
0.0
 11
-52.963209234661605
 21
67.5015844402278
 31
0.0
  0
LINE
  5
A6
  8
BODY
 10
-52.963209234661605
 20
67.5015844402278
 30
0.0
 11
-52.963209234661605
 21
61.82891777356113
 31
0.0
  0
LINE
  5
A7
  8
BODY
 10
-52.963209234661605
 20
61.82891777356113
 30
0.0
 11
-52.624542567994936
 21
58.52691777356113
 31
0.0
  0
LINE
  5
A8
  8
BODY
 10
-52.624542567994936
 20
58.52691777356113
 30
0.0
 11
-51.35454256799494
 21
51.92291777356113
 31
0.0
  0
LINE
  5
A9
  8
BODY
 10
-51.35454256799494
 20
51.92291777356113
 30
0.0
 11
-50.423209234661606
 21
48.366917773561134
 31
0.0
  0
LINE
  5
AA
  8
BODY
 10
-50.423209234661606
 20
48.366917773561134
 30
0.0
 11
-48.3912092346616
 21
41.5935844402278
 31
0.0
  0
LINE
  5
AB
  8
BODY
 10
-48.3912092346616
 20
41.5935844402278
 30
0.0
 11
-46.44387590132827
 21
35.66691777356113
 31
0.0
  0
LINE
  5
AC
  8
BODY
 10
-46.44387590132827
 20
35.66691777356113
 30
0.0
 11
-44.496542567994936
 21
28.893584440227798
 31
0.0
  0
LINE
  5
AD
  8
BODY
 10
-44.496542567994936
 20
28.893584440227798
 30
0.0
 11
-43.057209234661606
 21
22.5435844402278
 31
0.0
  0
LINE
  5
AE
  8
BODY
 10
-43.057209234661606
 20
22.5435844402278
 30
0.0
 11
-42.295209234661606
 21
16.9555844402278
 31
0.0
  0
LINE
  5
AF
  8
BODY
 10
-42.295209234661606
 20
16.9555844402278
 30
0.0
 11
-43.988542567994934
 21
16.870917773561132
 31
0.0
  0
LINE
  5
B0
  8
BODY
 10
-43.988542567994934
 20
16.870917773561132
 30
0.0
 11
-44.496542567994936
 21
20.17291777356113
 31
0.0
  0
LINE
  5
B1
  8
BODY
 10
-44.496542567994936
 20
20.17291777356113
 30
0.0
 11
-44.66587590132827
 21
20.2575844402278
 31
0.0
  0
LINE
  5
B2
  8
BODY
 10
-44.66587590132827
 20
20.2575844402278
 30
0.0
 11
-44.750542567994934
 21
20.0035844402278
 31
0.0
  0
LINE
  5
B3
  8
BODY
 10
-44.750542567994934
 20
20.0035844402278
 30
0.0
 11
-44.496542567994936
 21
18.902917773561132
 31
0.0
  0
LINE
  5
B4
  8
BODY
 10
-44.496542567994936
 20
18.902917773561132
 30
0.0
 11
-44.24254256799494
 21
16.9555844402278
 31
0.0
  0
LINE
  5
B5
  8
BODY
 10
-44.24254256799494
 20
16.9555844402278
 30
0.0
 11
-44.3272092346616
 21
16.870917773561132
 31
0.0
  0
LINE
  5
B6
  8
BODY
 10
-44.3272092346616
 20
16.870917773561132
 30
0.0
 11
-50.08454256799494
 21
16.870917773561132
 31
0.0
  0
LINE
  5
B7
  8
BODY
 10
-50.08454256799494
 20
16.870917773561132
 30
0.0
 11
-44.3272092346616
 21
16.786251106894465
 31
0.0
  0
LINE
  5
B8
  8
BODY
 10
-44.3272092346616
 20
16.786251106894465
 30
0.0
 11
-44.15787590132827
 21
16.4475844402278
 31
0.0
  0
LINE
  5
B9
  8
BODY
 10
-44.15787590132827
 20
16.4475844402278
 30
0.0
 11
-43.90387590132827
 21
16.786251106894465
 31
0.0
  0
LINE
  5
BA
  8
BODY
 10
-43.90387590132827
 20
16.786251106894465
 30
0.0
 11
-42.37987590132827
 21
16.786251106894465
 31
0.0
  0
LINE
  5
BB
  8
BODY
 10
-42.37987590132827
 20
16.786251106894465
 30
0.0
 11
-42.210542567994935
 21
16.4475844402278
 31
0.0
  0
LINE
  5
BC
  8
BODY
 10
-42.210542567994935
 20
16.4475844402278
 30
0.0
 11
-41.61787590132827
 21
8.234917773561133
 31
0.0
  0
LINE
  5
BD
  8
BODY
 10
-41.61787590132827
 20
8.234917773561133
 30
0.0
 11
-41.61787590132827
 21
3.578251106894466
 31
0.0
  0
LINE
  5
BE
  8
BODY
 10
-41.61787590132827
 20
3.578251106894466
 30
0.0
 11
-42.210542567994935
 21
-2.263748893105534
 31
0.0
  0
LINE
  5
BF
  8
BODY
 10
-42.210542567994935
 20
-2.263748893105534
 30
0.0
 11
-43.311209234661604
 21
-7.936415559772201
 31
0.0
  0
LINE
  5
C0
  8
BODY
 10
-43.311209234661604
 20
-7.936415559772201
 30
0.0
 11
-45.0892092346616
 21
-14.0324155597722
 31
0.0
  0
LINE
  5
C1
  8
BODY
 10
-45.0892092346616
 20
-14.0324155597722
 30
0.0
 11
-46.18987590132827
 21
-16.995748893105535
 31
0.0
  0
LINE
  5
C2
  8
BODY
 10
-46.18987590132827
 20
-16.995748893105535
 30
0.0
 11
-47.6292092346616
 21
-20.213082226438868
 31
0.0
  0
LINE
  5
C3
  8
BODY
 10
-47.6292092346616
 20
-20.213082226438868
 30
0.0
 11
-49.23787590132827
 21
-23.007082226438868
 31
0.0
  0
LINE
  5
C4
  8
BODY
 10
-49.23787590132827
 20
-23.007082226438868
 30
0.0
 11
-51.100542567994935
 21
-25.80108222643887
 31
0.0
  0
LINE
  5
C5
  8
BODY
 10
-51.100542567994935
 20
-25.80108222643887
 30
0.0
 11
-53.2172092346616
 21
-28.510415559772202
 31
0.0
  0
LINE
  5
C6
  8
BODY
 10
-53.2172092346616
 20
-28.510415559772202
 30
0.0
 11
-58.0432092346616
 21
-33.590415559772204
 31
0.0
  0
LINE
  5
C7
  8
BODY
 10
-58.0432092346616
 20
-33.590415559772204
 30
0.0
 11
-60.329209234661604
 21
-35.70708222643887
 31
0.0
  0
LINE
  5
C8
  8
BODY
 10
-60.329209234661604
 20
-35.70708222643887
 30
0.0
 11
-65.9172092346616
 21
-40.02508222643887
 31
0.0
  0
LINE
  5
C9
  8
BODY
 10
-65.9172092346616
 20
-40.02508222643887
 30
0.0
 11
-72.0132092346616
 21
-43.581082226438866
 31
0.0
  0
LINE
  5
CA
  8
BODY
 10
-72.0132092346616
 20
-43.581082226438866
 30
0.0
 11
-75.5692092346616
 21
-45.18974889310554
 31
0.0
  0
LINE
  5
CB
  8
BODY
 10
-75.5692092346616
 20
-45.18974889310554
 30
0.0
 11
-80.56454256799493
 21
-47.0524155597722
 31
0.0
  0
LINE
  5
CC
  8
BODY
 10
-80.56454256799493
 20
-47.0524155597722
 30
0.0
 11
-86.82987590132826
 21
-48.8304155597722
 31
0.0
  0
LINE
  5
CD
  8
BODY
 10
-86.82987590132826
 20
-48.8304155597722
 30
0.0
 11
-93.09520923466161
 21
-49.5924155597722
 31
0.0
  0
LINE
  5
CE
  8
BODY
 10
-93.09520923466161
 20
-49.5924155597722
 30
0.0
 11
-95.6352092346616
 21
-49.5924155597722
 31
0.0
  0
LINE
  5
CF
  8
BODY
 10
-95.6352092346616
 20
-49.5924155597722
 30
0.0
 11
-95.55054256799494
 21
-47.983748893105535
 31
0.0
  0
LINE
  5
D0
  8
BODY
 10
-95.55054256799494
 20
-47.983748893105535
 30
0.0
 11
-92.75654256799494
 21
-47.8144155597722
 31
0.0
  0
LINE
  5
D1
  8
BODY
 10
-92.75654256799494
 20
-47.8144155597722
 30
0.0
 11
-92.67187590132828
 21
-47.645082226438866
 31
0.0
  0
LINE
  5
D2
  8
BODY
 10
-92.67187590132828
 20
-47.645082226438866
 30
0.0
 11
-93.09520923466161
 21
-47.5604155597722
 31
0.0
  0
LINE
  5
D3
  8
BODY
 10
-93.09520923466161
 20
-47.5604155597722
 30
0.0
 11
-95.29654256799493
 21
-47.8144155597722
 31
0.0
  0
LINE
  5
D4
  8
BODY
 10
-95.29654256799493
 20
-47.8144155597722
 30
0.0
 11
-95.6352092346616
 21
-47.72974889310554
 31
0.0
  0
LINE
  5
D5
  8
BODY
 10
-95.6352092346616
 20
-47.72974889310554
 30
0.0
 11
-95.71987590132827
 21
-22.837748893105534
 31
0.0
  0
LINE
  5
D6
  8
BODY
 10
-95.71987590132827
 20
-22.837748893105534
 30
0.0
 11
-95.71987590132827
 21
-47.72974889310554
 31
0.0
  0
LINE
  5
D7
  8
BODY
 10
-95.71987590132827
 20
-47.72974889310554
 30
0.0
 11
-96.48187590132827
 21
-47.89908222643887
 31
0.0
  0
LINE
  5
D8
  8
BODY
 10
-96.48187590132827
 20
-47.89908222643887
 30
0.0
 11
-96.3972092346616
 21
-48.0684155597722
 31
0.0
  0
LINE
  5
D9
  8
BODY
 10
-96.3972092346616
 20
-48.0684155597722
 30
0.0
 11
-95.71987590132827
 21
-48.15308222643887
 31
0.0
  0
LINE
  5
DA
  8
BODY
 10
-95.71987590132827
 20
-48.15308222643887
 30
0.0
 11
-95.80454256799494
 21
-49.67708222643887
 31
0.0
  0
LINE
  5
DB
  8
BODY
 10
-95.80454256799494
 20
-49.67708222643887
 30
0.0
 11
-95.97387590132827
 21
-49.67708222643887
 31
0.0
  0
LINE
  5
DC
  8
BODY
 10
-95.97387590132827
 20
-49.67708222643887
 30
0.0
 11
-96.65120923466161
 21
-49.084415559772204
 31
0.0
  0
LINE
  5
DD
  8
BODY
 10
-96.65120923466161
 20
-49.084415559772204
 30
0.0
 11
-96.73587590132827
 21
-49.3384155597722
 31
0.0
  0
LINE
  5
DE
  8
BODY
 10
-96.73587590132827
 20
-49.3384155597722
 30
0.0
 11
-96.48187590132827
 21
-49.5924155597722
 31
0.0
  0
LINE
  5
DF
  8
BODY
 10
-96.48187590132827
 20
-49.5924155597722
 30
0.0
 11
-96.65120923466161
 21
-49.76174889310553
 31
0.0
  0
LINE
  5
E0
  8
BODY
 10
-96.65120923466161
 20
-49.76174889310553
 30
0.0
 11
-98.76787590132827
 21
-49.76174889310553
 31
0.0
  0
LINE
  5
E1
  8
BODY
 10
-98.76787590132827
 20
-49.76174889310553
 30
0.0
 11
-100.29187590132827
 21
-49.93108222643887
 31
0.0
  0
LINE
  5
E2
  8
BODY
 10
-100.29187590132827
 20
-49.93108222643887
 30
0.0
 11
-104.2712092346616
 21
-49.93108222643887
 31
0.0
  0
LINE
  5
E3
  8
BODY
 10
-104.2712092346616
 20
-49.93108222643887
 30
0.0
 11
-104.2712092346616
 21
-48.3224155597722
 31
0.0
  0
LINE
  5
E4
  8
BODY
 10
-104.2712092346616
 20
-48.3224155597722
 30
0.0
 11
-101.81587590132827
 21
-48.23774889310553
 31
0.0
  0
LINE
  5
E5
  8
BODY
 10
-101.81587590132827
 20
-48.23774889310553
 30
0.0
 11
-101.64654256799494
 21
-48.0684155597722
 31
0.0
  0
LINE
  5
E6
  8
BODY
 10
-101.64654256799494
 20
-48.0684155597722
 30
0.0
 11
-104.2712092346616
 21
-48.0684155597722
 31
0.0
  0
LINE
  5
E7
  8
BODY
 10
-104.2712092346616
 20
-48.0684155597722
 30
0.0
 11
-104.44054256799494
 21
-46.71374889310553
 31
0.0
  0
LINE
  5
E8
  8
BODY
 10
-104.44054256799494
 20
-46.71374889310553
 30
0.0
 11
-104.60987590132827
 21
-46.7984155597722
 31
0.0
  0
LINE
  5
E9
  8
BODY
 10
-104.60987590132827
 20
-46.7984155597722
 30
0.0
 11
-104.69454256799494
 21
-48.0684155597722
 31
0.0
  0
LINE
  5
EA
  8
BODY
 10
-104.69454256799494
 20
-48.0684155597722
 30
0.0
 11
-106.72654256799494
 21
-48.15308222643887
 31
0.0
  0
LINE
  5
EB
  8
BODY
 10
-106.72654256799494
 20
-48.15308222643887
 30
0.0
 11
-106.64187590132828
 21
-48.3224155597722
 31
0.0
  0
LINE
  5
EC
  8
BODY
 10
-106.64187590132828
 20
-48.3224155597722
 30
0.0
 11
-104.69454256799494
 21
-48.3224155597722
 31
0.0
  0
LINE
  5
ED
  8
BODY
 10
-104.69454256799494
 20
-48.3224155597722
 30
0.0
 11
-104.69454256799494
 21
-49.93108222643887
 31
0.0
  0
LINE
  5
EE
  8
BODY
 10
-104.69454256799494
 20
-49.93108222643887
 30
0.0
 11
-109.35120923466161
 21
-49.846415559772204
 31
0.0
  0
LINE
  5
EF
  8
BODY
 10
-109.35120923466161
 20
-49.846415559772204
 30
0.0
 11
-109.26654256799493
 21
-48.3224155597722
 31
0.0
  0
LINE
  5
F0
  8
BODY
 10
-109.26654256799493
 20
-48.3224155597722
 30
0.0
 11
-107.40387590132828
 21
-48.3224155597722
 31
0.0
  0
LINE
  5
F1
  8
BODY
 10
-107.40387590132828
 20
-48.3224155597722
 30
0.0
 11
-107.40387590132828
 21
-48.0684155597722
 31
0.0
  0
LINE
  5
F2
  8
BODY
 10
-107.40387590132828
 20
-48.0684155597722
 30
0.0
 11
-109.52054256799494
 21
-48.0684155597722
 31
0.0
  0
LINE
  5
F3
  8
BODY
 10
-109.52054256799494
 20
-48.0684155597722
 30
0.0
 11
-109.68987590132826
 21
-49.93108222643887
 31
0.0
  0
LINE
  5
F4
  8
BODY
 10
-109.68987590132826
 20
-49.93108222643887
 30
0.0
 11
-124.42187590132828
 21
-49.93108222643887
 31
0.0
  0
LINE
  5
F5
  8
BODY
 10
-124.42187590132828
 20
-49.93108222643887
 30
0.0
 11
-124.50654256799494
 21
-49.423082226438865
 31
0.0
  0
LINE
  5
F6
  8
BODY
 10
-124.50654256799494
 20
-49.423082226438865
 30
0.0
 11
-124.67587590132827
 21
-49.93108222643887
 31
0.0
  0
LINE
  5
F7
  8
BODY
 10
-124.67587590132827
 20
-49.93108222643887
 30
0.0
 11
-139.32320923466162
 21
-49.93108222643887
 31
0.0
  0
LINE
  5
F8
  8
BODY
 10
-139.32320923466162
 20
-49.93108222643887
 30
0.0
 11
-139.49254256799495
 21
-48.0684155597722
 31
0.0
  0
LINE
  5
F9
  8
BODY
 10
-139.49254256799495
 20
-48.0684155597722
 30
0.0
 11
-141.69387590132828
 21
-48.15308222643887
 31
0.0
  0
LINE
  5
FA
  8
BODY
 10
-141.69387590132828
 20
-48.15308222643887
 30
0.0
 11
-141.6092092346616
 21
-48.3224155597722
 31
0.0
  0
LINE
  5
FB
  8
BODY
 10
-141.6092092346616
 20
-48.3224155597722
 30
0.0
 11
-139.74654256799494
 21
-48.3224155597722
 31
0.0
  0
LINE
  5
FC
  8
BODY
 10
-139.74654256799494
 20
-48.3224155597722
 30
0.0
 11
-139.74654256799494
 21
-49.93108222643887
 31
0.0
  0
LINE
  5
FD
  8
BODY
 10
-139.74654256799494
 20
-49.93108222643887
 30
0.0
 11
-144.31854256799494
 21
-49.93108222643887
 31
0.0
  0
LINE
  5
FE
  8
BODY
 10
-144.31854256799494
 20
-49.93108222643887
 30
0.0
 11
-144.31854256799494
 21
-48.3224155597722
 31
0.0
  0
LINE
  5
FF
  8
BODY
 10
-144.31854256799494
 20
-48.3224155597722
 30
0.0
 11
-142.3712092346616
 21
-48.3224155597722
 31
0.0
  0
LINE
  5
100
  8
BODY
 10
-142.3712092346616
 20
-48.3224155597722
 30
0.0
 11
-142.28654256799493
 21
-48.15308222643887
 31
0.0
  0
LINE
  5
101
  8
BODY
 10
-142.28654256799493
 20
-48.15308222643887
 30
0.0
 11
-144.31854256799494
 21
-48.0684155597722
 31
0.0
  0
LINE
  5
102
  8
BODY
 10
-144.31854256799494
 20
-48.0684155597722
 30
0.0
 11
-144.48787590132827
 21
-46.71374889310553
 31
0.0
  0
LINE
  5
103
  8
BODY
 10
-144.48787590132827
 20
-46.71374889310553
 30
0.0
 11
-144.6572092346616
 21
-46.7984155597722
 31
0.0
  0
LINE
  5
104
  8
BODY
 10
-144.6572092346616
 20
-46.7984155597722
 30
0.0
 11
-144.74187590132829
 21
-48.0684155597722
 31
0.0
  0
LINE
  5
105
  8
BODY
 10
-144.74187590132829
 20
-48.0684155597722
 30
0.0
 11
-147.36654256799494
 21
-48.0684155597722
 31
0.0
  0
LINE
  5
106
  8
BODY
 10
-147.36654256799494
 20
-48.0684155597722
 30
0.0
 11
-147.28187590132828
 21
-48.23774889310553
 31
0.0
  0
LINE
  5
107
  8
BODY
 10
-147.28187590132828
 20
-48.23774889310553
 30
0.0
 11
-144.74187590132829
 21
-48.3224155597722
 31
0.0
  0
LINE
  5
108
  8
BODY
 10
-144.74187590132829
 20
-48.3224155597722
 30
0.0
 11
-144.74187590132829
 21
-49.93108222643887
 31
0.0
  0
LINE
  5
109
  8
BODY
 10
-144.74187590132829
 20
-49.93108222643887
 30
0.0
 11
-148.72120923466161
 21
-49.93108222643887
 31
0.0
  0
LINE
  5
10A
  8
BODY
 10
-148.72120923466161
 20
-49.93108222643887
 30
0.0
 11
-150.24520923466162
 21
-49.76174889310553
 31
0.0
  0
LINE
  5
10B
  8
BODY
 10
-150.24520923466162
 20
-49.76174889310553
 30
0.0
 11
-154.64787590132826
 21
-49.67708222643887
 31
0.0
  0
LINE
  5
10C
  8
BODY
 10
-154.64787590132826
 20
-49.67708222643887
 30
0.0
 11
-159.21987590132827
 21
-49.25374889310554
 31
0.0
  0
LINE
  5
10D
  8
BODY
 10
-159.21987590132827
 20
-49.25374889310554
 30
0.0
 11
-162.1832092346616
 21
-48.8304155597722
 31
0.0
  0
LINE
  5
10E
  8
BODY
 10
-162.1832092346616
 20
-48.8304155597722
 30
0.0
 11
-167.94054256799492
 21
-47.221748893105534
 31
0.0
  0
LINE
  5
10F
  8
BODY
 10
-167.94054256799492
 20
-47.221748893105534
 30
0.0
 11
-174.45987590132827
 21
-44.7664155597722
 31
0.0
  0
LINE
  5
110
  8
BODY
 10
-174.45987590132827
 20
-44.7664155597722
 30
0.0
 11
-177.6772092346616
 21
-43.242415559772205
 31
0.0
  0
LINE
  5
111
  8
BODY
 10
-177.6772092346616
 20
-43.242415559772205
 30
0.0
 11
-183.34987590132826
 21
-39.855748893105535
 31
0.0
  0
LINE
  5
112
  8
BODY
 10
-183.34987590132826
 20
-39.855748893105535
 30
0.0
 11
-188.68387590132826
 21
-35.70708222643887
 31
0.0
  0
LINE
  5
113
  8
BODY
 10
-188.68387590132826
 20
-35.70708222643887
 30
0.0
 11
-190.96987590132827
 21
-33.590415559772204
 31
0.0
  0
LINE
  5
114
  8
BODY
 10
-190.96987590132827
 20
-33.590415559772204
 30
0.0
 11
-193.6792092346616
 21
-30.881082226438867
 31
0.0
  0
LINE
  5
115
  8
BODY
 10
-193.6792092346616
 20
-30.881082226438867
 30
0.0
 11
-195.79587590132826
 21
-28.510415559772202
 31
0.0
  0
LINE
  5
116
  8
BODY
 10
-195.79587590132826
 20
-28.510415559772202
 30
0.0
 11
-197.91254256799493
 21
-25.80108222643887
 31
0.0
  0
LINE
  5
117
  8
BODY
 10
-197.91254256799493
 20
-25.80108222643887
 30
0.0
 11
-199.77520923466162
 21
-23.007082226438868
 31
0.0
  0
LINE
  5
118
  8
BODY
 10
-199.77520923466162
 20
-23.007082226438868
 30
0.0
 11
-201.38387590132828
 21
-20.213082226438868
 31
0.0
  0
LINE
  5
119
  8
BODY
 10
-201.38387590132828
 20
-20.213082226438868
 30
0.0
 11
-202.90787590132828
 21
-16.995748893105535
 31
0.0
  0
LINE
  5
11A
  8
BODY
 10
-202.90787590132828
 20
-16.995748893105535
 30
0.0
 11
-204.6012092346616
 21
-11.915748893105535
 31
0.0
  0
LINE
  5
11B
  8
BODY
 10
-204.6012092346616
 20
-11.915748893105535
 30
0.0
 11
-205.53254256799494
 21
-8.613748893105534
 31
0.0
  0
LINE
  5
11C
  8
BODY
 10
-205.53254256799494
 20
-8.613748893105534
 30
0.0
 11
-207.05654256799494
 21
-1.0784155597722007
 31
0.0
  0
LINE
  5
11D
  8
BODY
 10
-207.05654256799494
 20
-1.0784155597722007
 30
0.0
 11
-207.3952092346616
 21
3.578251106894466
 31
0.0
  0
LINE
  5
11E
  8
BODY
 10
-207.3952092346616
 20
3.578251106894466
 30
0.0
 11
-207.31054256799493
 21
10.012917773561133
 31
0.0
  0
LINE
  5
11F
  8
BODY
 10
-207.31054256799493
 20
10.012917773561133
 30
0.0
 11
-206.80254256799495
 21
16.4475844402278
 31
0.0
  0
LINE
  5
120
  8
BODY
 10
-206.80254256799495
 20
16.4475844402278
 30
0.0
 11
-206.6332092346616
 21
16.786251106894465
 31
0.0
  0
LINE
  5
121
  8
BODY
 10
-206.6332092346616
 20
16.786251106894465
 30
0.0
 11
-206.71787590132828
 21
17.124917773561133
 31
0.0
  0
LINE
  5
122
  8
BODY
 10
-206.71787590132828
 20
17.124917773561133
 30
0.0
 11
-205.95587590132828
 21
22.5435844402278
 31
0.0
  0
LINE
  5
123
  8
BODY
 10
-205.95587590132828
 20
22.5435844402278
 30
0.0
 11
-205.3632092346616
 21
25.50691777356113
 31
0.0
  0
LINE
  5
124
  8
BODY
 10
-205.3632092346616
 20
25.50691777356113
 30
0.0
 11
-202.5692092346616
 21
35.66691777356113
 31
0.0
  0
LINE
  5
125
  8
BODY
 10
-202.5692092346616
 20
35.66691777356113
 30
0.0
 11
-200.62187590132828
 21
41.5935844402278
 31
0.0
  0
LINE
  5
126
  8
BODY
 10
-200.62187590132828
 20
41.5935844402278
 30
0.0
 11
-198.5052092346616
 21
48.9595844402278
 31
0.0
  0
LINE
  5
127
  8
BODY
 10
-198.5052092346616
 20
48.9595844402278
 30
0.0
 11
-196.9812092346616
 21
55.22491777356113
 31
0.0
  0
LINE
  5
128
  8
BODY
 10
-196.9812092346616
 20
55.22491777356113
 30
0.0
 11
-196.38854256799493
 21
58.52691777356113
 31
0.0
  0
LINE
  5
129
  8
BODY
 10
-196.38854256799493
 20
58.52691777356113
 30
0.0
 11
-196.04987590132828
 21
61.82891777356113
 31
0.0
  0
LINE
  5
12A
  8
BODY
 10
-196.04987590132828
 20
61.82891777356113
 30
0.0
 11
-195.96520923466161
 21
65.89291777356114
 31
0.0
  0
LINE
  5
12B
  8
BODY
 10
-195.96520923466161
 20
65.89291777356114
 30
0.0
 11
-196.13454256799494
 21
68.85625110689446
 31
0.0
  0
LINE
  5
12C
  8
BODY
 10
-196.13454256799494
 20
68.85625110689446
 30
0.0
 11
-196.64254256799495
 21
72.24291777356113
 31
0.0
  0
LINE
  5
12D
  8
BODY
 10
-196.64254256799495
 20
72.24291777356113
 30
0.0
 11
-197.48920923466162
 21
75.79891777356113
 31
0.0
  0
LINE
  5
12E
  8
BODY
 10
-197.48920923466162
 20
75.79891777356113
 30
0.0
 11
-198.5052092346616
 21
79.1855844402278
 31
0.0
  0
LINE
  5
12F
  8
BODY
 10
-198.5052092346616
 20
79.1855844402278
 30
0.0
 11
-199.69054256799495
 21
82.31825110689446
 31
0.0
  0
LINE
  5
130
  8
BODY
 10
-199.69054256799495
 20
82.31825110689446
 30
0.0
 11
-201.72254256799494
 21
86.63625110689446
 31
0.0
  0
LINE
  5
131
  8
BODY
 10
-201.72254256799494
 20
86.63625110689446
 30
0.0
 11
-201.63787590132827
 21
86.8055844402278
 31
0.0
  0
LINE
  5
132
  8
BODY
 10
-201.63787590132827
 20
86.8055844402278
 30
0.0
 11
-201.12987590132826
 21
86.89025110689447
 31
0.0
  0
LINE
  5
133
  8
BODY
 10
-201.12987590132826
 20
86.89025110689447
 30
0.0
 11
-201.72254256799494
 21
86.89025110689447
 31
0.0
  0
LINE
  5
134
  8
BODY
 10
-201.72254256799494
 20
86.89025110689447
 30
0.0
 11
-201.89187590132826
 21
87.0595844402278
 31
0.0
  0
LINE
  5
135
  8
BODY
 10
-201.89187590132826
 20
87.0595844402278
 30
0.0
 11
-204.0932092346616
 21
91.3775844402278
 31
0.0
  0
LINE
  5
136
  8
BODY
 10
-204.0932092346616
 20
91.3775844402278
 30
0.0
 11
-206.20987590132827
 21
94.9335844402278
 31
0.0
  0
LINE
  5
137
  8
BODY
 10
-206.20987590132827
 20
94.9335844402278
 30
0.0
 11
-216.70854256799493
 21
111.35891777356113
 31
0.0
  0
LINE
  5
138
  8
BODY
 10
-216.70854256799493
 20
111.35891777356113
 30
0.0
 11
-223.3972092346616
 21
122.53491777356113
 31
0.0
  0
LINE
  5
139
  8
BODY
 10
-223.3972092346616
 20
122.53491777356113
 30
0.0
 11
-226.52987590132827
 21
128.29225110689447
 31
0.0
  0
LINE
  5
13A
  8
BODY
 10
-226.52987590132827
 20
128.29225110689447
 30
0.0
 11
-229.66254256799493
 21
134.89625110689445
 31
0.0
  0
LINE
  5
13B
  8
BODY
 10
-229.66254256799493
 20
134.89625110689445
 30
0.0
 11
-234.74254256799495
 21
146.7495844402278
 31
0.0
  0
LINE
  5
13C
  8
BODY
 10
-234.74254256799495
 20
146.7495844402278
 30
0.0
 11
-236.09720923466162
 21
150.3055844402278
 31
0.0
  0
LINE
  5
13D
  8
BODY
 10
-236.09720923466162
 20
150.3055844402278
 30
0.0
 11
-238.8912092346616
 21
160.88891777356113
 31
0.0
  0
LINE
  5
13E
  8
BODY
 10
-238.8912092346616
 20
160.88891777356113
 30
0.0
 11
-240.1612092346616
 21
166.64625110689448
 31
0.0
  0
LINE
  5
13F
  8
BODY
 10
-240.1612092346616
 20
166.64625110689448
 30
0.0
 11
-233.98054256799495
 21
166.8155844402278
 31
0.0
  0
LINE
  5
140
  8
BODY
 10
-233.98054256799495
 20
166.8155844402278
 30
0.0
 11
-238.21387590132827
 21
166.8155844402278
 31
0.0
  0
LINE
  5
141
  8
BODY
 10
-238.21387590132827
 20
166.8155844402278
 30
0.0
 11
-238.3832092346616
 21
167.15425110689446
 31
0.0
  0
LINE
  5
142
  8
BODY
 10
-238.3832092346616
 20
167.15425110689446
 30
0.0
 11
-239.06054256799493
 21
170.6255844402278
 31
0.0
  0
LINE
  5
143
  8
BODY
 10
-239.06054256799493
 20
170.6255844402278
 30
0.0
 11
-235.16587590132826
 21
170.71025110689448
 31
0.0
  0
LINE
  5
144
  8
BODY
 10
-235.16587590132826
 20
170.71025110689448
 30
0.0
 11
-235.16587590132826
 21
170.96425110689447
 31
0.0
  0
LINE
  5
145
  8
BODY
 10
-235.16587590132826
 20
170.96425110689447
 30
0.0
 11
-239.22987590132828
 21
170.96425110689447
 31
0.0
  0
LINE
  5
146
  8
BODY
 10
-239.22987590132828
 20
170.96425110689447
 30
0.0
 11
-239.22987590132828
 21
170.20225110689447
 31
0.0
  0
LINE
  5
147
  8
BODY
 10
-239.22987590132828
 20
170.20225110689447
 30
0.0
 11
-238.55254256799495
 21
166.90025110689447
 31
0.0
  0
LINE
  5
148
  8
BODY
 10
-238.55254256799495
 20
166.90025110689447
 30
0.0
 11
-240.1612092346616
 21
166.8155844402278
 31
0.0
  0
LINE
  5
149
  8
BODY
 10
-240.1612092346616
 20
166.8155844402278
 30
0.0
 11
-240.33054256799494
 21
167.15425110689446
 31
0.0
  0
LINE
  5
14A
  8
BODY
 10
-240.33054256799494
 20
167.15425110689446
 30
0.0
 11
-241.4312092346616
 21
173.58891777356112
 31
0.0
  0
LINE
  5
14B
  8
BODY
 10
-241.4312092346616
 20
173.58891777356112
 30
0.0
 11
-241.76987590132828
 21
178.83825110689446
 31
0.0
  0
LINE
  5
14C
  8
BODY
 10
-241.76987590132828
 20
178.83825110689446
 30
0.0
 11
-241.76987590132828
 21
188.32091777356115
 31
0.0
  0
LINE
  5
14D
  8
BODY
 10
-241.76987590132828
 20
188.32091777356115
 30
0.0
 11
-241.60054256799495
 21
192.7235844402278
 31
0.0
  0
LINE
  5
14E
  8
BODY
 10
-241.60054256799495
 20
192.7235844402278
 30
0.0
 11
-241.09254256799494
 21
199.8355844402278
 31
0.0
  0
LINE
  5
14F
  8
BODY
 10
-241.09254256799494
 20
199.8355844402278
 30
0.0
 11
-240.4152092346616
 21
204.32291777356113
 31
0.0
  0
LINE
  5
150
  8
BODY
 10
-240.4152092346616
 20
204.32291777356113
 30
0.0
 11
-239.6532092346616
 21
208.04825110689447
 31
0.0
  0
LINE
  5
151
  8
BODY
 10
-239.6532092346616
 20
208.04825110689447
 30
0.0
 11
-238.04454256799494
 21
213.46691777356114
 31
0.0
  0
LINE
  5
152
  8
BODY
 10
-238.04454256799494
 20
213.46691777356114
 30
0.0
 11
-235.67387590132827
 21
219.56291777356114
 31
0.0
  0
LINE
  5
153
  8
BODY
 10
-235.67387590132827
 20
219.56291777356114
 30
0.0
 11
-232.96454256799493
 21
225.57425110689448
 31
0.0
  0
LINE
  5
154
  8
BODY
 10
-232.96454256799493
 20
225.57425110689448
 30
0.0
 11
-231.18654256799493
 21
229.0455844402278
 31
0.0
  0
LINE
  5
155
  8
BODY
 10
-231.18654256799493
 20
229.0455844402278
 30
0.0
 11
-228.13854256799493
 21
234.29491777356114
 31
0.0
  0
LINE
  5
156
  8
BODY
 10
-228.13854256799493
 20
234.29491777356114
 30
0.0
 11
-224.32854256799493
 21
239.7135844402278
 31
0.0
  0
LINE
  5
157
  8
BODY
 10
-224.32854256799493
 20
239.7135844402278
 30
0.0
 11
-220.26454256799494
 21
244.70891777356113
 31
0.0
  0
LINE
  5
158
  8
BODY
 10
-220.26454256799494
 20
244.70891777356113
 30
0.0
 11
-217.3012092346616
 21
247.92625110689448
 31
0.0
  0
LINE
  5
159
  8
BODY
 10
-217.3012092346616
 20
247.92625110689448
 30
0.0
 11
-214.50720923466162
 21
250.46625110689448
 31
0.0
  0
LINE
  5
15A
  8
BODY
 10
-214.50720923466162
 20
250.46625110689448
 30
0.0
 11
-209.85054256799495
 21
254.02225110689446
 31
0.0
  0
LINE
  5
15B
  8
BODY
 10
-209.85054256799495
 20
254.02225110689446
 30
0.0
 11
-204.00854256799494
 21
257.57825110689447
 31
0.0
  0
LINE
  5
15C
  8
BODY
 10
-204.00854256799494
 20
257.57825110689447
 30
0.0
 11
-200.2832092346616
 21
259.4409177735611
 31
0.0
  0
LINE
  5
15D
  8
BODY
 10
-200.2832092346616
 20
259.4409177735611
 30
0.0
 11
-196.72720923466161
 21
261.0495844402278
 31
0.0
  0
LINE
  5
15E
  8
BODY
 10
-196.72720923466161
 20
261.0495844402278
 30
0.0
 11
-188.26054256799495
 21
264.26691777356115
 31
0.0
  0
ENDSEC
  0
EOF
