  0
SECTION
  2
HEADER
  9
$ACADVER
  1
AC1015
  9
$ACADMAINTVER
 70
6
  9
$DWGCODEPAGE
  3
ANSI_1252
  9
$INSBASE
 10
0.0
 20
0.0
 30
0.0
  9
$EXTMIN
 10
1e+20
 20
1e+20
 30
1e+20
  9
$EXTMAX
 10
-1e+20
 20
-1e+20
 30
-1e+20
  9
$LIMMIN
 10
0.0
 20
0.0
  9
$LIMMAX
 10
420.0
 20
297.0
  9
$ORTHOMODE
 70
0
  9
$REGENMODE
 70
1
  9
$FILLMODE
 70
1
  9
$QTEXTMODE
 70
0
  9
$MIRRTEXT
 70
1
  9
$LTSCALE
 40
1.0
  9
$ATTMODE
 70
1
  9
$TEXTSIZE
 40
2.5
  9
$TRACEWID
 40
1.0
  9
$TEXTSTYLE
  7
Standard
  9
$CLAYER
  8
0
  9
$CELTYPE
  6
ByLayer
  9
$CECOLOR
 62
256
  9
$CELTSCALE
 40
1.0
  9
$DISPSILH
 70
0
  9
$DIMSCALE
 40
1.0
  9
$DIMASZ
 40
2.5
  9
$DIMEXO
 40
0.625
  9
$DIMDLI
 40
3.75
  9
$DIMRND
 40
0.0
  9
$DIMDLE
 40
0.0
  9
$DIMEXE
 40
1.25
  9
$DIMTP
 40
0.0
  9
$DIMTM
 40
0.0
  9
$DIMTXT
 40
2.5
  9
$DIMCEN
 40
2.5
  9
$DIMTSZ
 40
0.0
  9
$DIMTOL
 70
0
  9
$DIMLIM
 70
0
  9
$DIMTIH
 70
0
  9
$DIMTOH
 70
0
  9
$DIMSE1
 70
0
  9
$DIMSE2
 70
0
  9
$DIMTAD
 70
1
  9
$DIMZIN
 70
8
  9
$DIMBLK
  1

  9
$DIMASO
 70
1
  9
$DIMSHO
 70
1
  9
$DIMPOST
  1

  9
$DIMAPOST
  1

  9
$DIMALT
 70
0
  9
$DIMALTD
 70
3
  9
$DIMALTF
 40
0.03937007874
  9
$DIMLFAC
 40
1.0
  9
$DIMTOFL
 70
1
  9
$DIMTVP
 40
0.0
  9
$DIMTIX
 70
0
  9
$DIMSOXD
 70
0
  9
$DIMSAH
 70
0
  9
$DIMBLK1
  1

  9
$DIMBLK2
  1

  9
$DIMSTYLE
  2
ISO-25
  9
$DIMCLRD
 70
0
  9
$DIMCLRE
 70
0
  9
$DIMCLRT
 70
0
  9
$DIMTFAC
 40
1.0
  9
$DIMGAP
 40
0.625
  9
$DIMJUST
 70
0
  9
$DIMSD1
 70
0
  9
$DIMSD2
 70
0
  9
$DIMTOLJ
 70
0
  9
$DIMTZIN
 70
8
  9
$DIMALTZ
 70
0
  9
$DIMALTTZ
 70
0
  9
$DIMUPT
 70
0
  9
$DIMDEC
 70
2
  9
$DIMTDEC
 70
2
  9
$DIMALTU
 70
2
  9
$DIMALTTD
 70
3
  9
$DIMTXSTY
  7
Standard
  9
$DIMAUNIT
 70
0
  9
$DIMADEC
 70
0
  9
$DIMALTRND
 40
0.0
  9
$DIMAZIN
 70
0
  9
$DIMDSEP
 70
44
  9
$DIMATFIT
 70
3
  9
$DIMFRAC
 70
0
  9
$DIMLDRBLK
  1

  9
$DIMLUNIT
 70
2
  9
$DIMLWD
 70
-2
  9
$DIMLWE
 70
-2
  9
$DIMTMOVE
 70
0
  9
$LUNITS
 70
2
  9
$LUPREC
 70
4
  9
$SKETCHINC
 40
1.0
  9
$FILLETRAD
 40
10.0
  9
$AUNITS
 70
0
  9
$AUPREC
 70
2
  9
$MENU
  1
.
  9
$ELEVATION
 40
0.0
  9
$PELEVATION
 40
0.0
  9
$THICKNESS
 40
0.0
  9
$LIMCHECK
 70
0
  9
$CHAMFERA
 40
0.0
  9
$CHAMFERB
 40
0.0
  9
$CHAMFERC
 40
0.0
  9
$CHAMFERD
 40
0.0
  9
$SKPOLY
 70
0
  9
$TDCREATE
 40
2461021.6736458335
  9
$TDUCREATE
 40
2458532.153996898
  9
$TDUPDATE
 40
2461021.6736458335
  9
$TDUUPDATE
 40
2458532.1544311
  9
$TDINDWG
 40
0.0
  9
$TDUSRTIMER
 40
0.0
  9
$USRTIMER
 70
1
  9
$ANGBASE
 50
0.0
  9
$ANGDIR
 70
0
  9
$PDMODE
 70
0
  9
$PDSIZE
 40
0.0
  9
$PLINEWID
 40
0.0
  9
$SPLFRAME
 70
0
  9
$SPLINETYPE
 70
6
  9
$SPLINESEGS
 70
8
  9
$HANDSEED
  5
34
  9
$SURFTAB1
 70
6
  9
$SURFTAB2
 70
6
  9
$SURFTYPE
 70
6
  9
$SURFU
 70
6
  9
$SURFV
 70
6
  9
$UCSBASE
  2

  9
$UCSNAME
  2

  9
$UCSORG
 10
0.0
 20
0.0
 30
0.0
  9
$UCSXDIR
 10
1.0
 20
0.0
 30
0.0
  9
$UCSYDIR
 10
0.0
 20
1.0
 30
0.0
  9
$UCSORTHOREF
  2

  9
$UCSORTHOVIEW
 70
0
  9
$UCSORGTOP
 10
0.0
 20
0.0
 30
0.0
  9
$UCSORGBOTTOM
 10
0.0
 20
0.0
 30
0.0
  9
$UCSORGLEFT
 10
0.0
 20
0.0
 30
0.0
  9
$UCSORGRIGHT
 10
0.0
 20
0.0
 30
0.0
  9
$UCSORGFRONT
 10
0.0
 20
0.0
 30
0.0
  9
$UCSORGBACK
 10
0.0
 20
0.0
 30
0.0
  9
$PUCSBASE
  2

  9
$PUCSNAME
  2

  9
$PUCSORG
 10
0.0
 20
0.0
 30
0.0
  9
$PUCSXDIR
 10
1.0
 20
0.0
 30
0.0
  9
$PUCSYDIR
 10
0.0
 20
1.0
 30
0.0
  9
$PUCSORTHOREF
  2

  9
$PUCSORTHOVIEW
 70
0
  9
$PUCSORGTOP
 10
0.0
 20
0.0
 30
0.0
  9
$PUCSORGBOTTOM
 10
0.0
 20
0.0
 30
0.0
  9
$PUCSORGLEFT
 10
0.0
 20
0.0
 30
0.0
  9
$PUCSORGRIGHT
 10
0.0
 20
0.0
 30
0.0
  9
$PUCSORGFRONT
 10
0.0
 20
0.0
 30
0.0
  9
$PUCSORGBACK
 10
0.0
 20
0.0
 30
0.0
  9
$USERI1
 70
0
  9
$USERI2
 70
0
  9
$USERI3
 70
0
  9
$USERI4
 70
0
  9
$USERI5
 70
0
  9
$USERR1
 40
0.0
  9
$USERR2
 40
0.0
  9
$USERR3
 40
0.0
  9
$USERR4
 40
0.0
  9
$USERR5
 40
0.0
  9
$WORLDVIEW
 70
1
  9
$SHADEDGE
 70
3
  9
$SHADEDIF
 70
70
  9
$TILEMODE
 70
1
  9
$MAXACTVP
 70
64
  9
$PINSBASE
 10
0.0
 20
0.0
 30
0.0
  9
$PLIMCHECK
 70
0
  9
$PEXTMIN
 10
1e+20
 20
1e+20
 30
1e+20
  9
$PEXTMAX
 10
-1e+20
 20
-1e+20
 30
-1e+20
  9
$PLIMMIN
 10
0.0
 20
0.0
  9
$PLIMMAX
 10
420.0
 20
297.0
  9
$UNITMODE
 70
0
  9
$VISRETAIN
 70
1
  9
$PLINEGEN
 70
0
  9
$PSLTSCALE
 70
1
  9
$TREEDEPTH
 70
3020
  9
$CMLSTYLE
  2
Standard
  9
$CMLJUST
 70
0
  9
$CMLSCALE
 40
20.0
  9
$PROXYGRAPHICS
 70
1
  9
$MEASUREMENT
 70
1
  9
$CELWEIGHT
370
-1
  9
$ENDCAPS
280
0
  9
$JOINSTYLE
280
0
  9
$LWDISPLAY
290
0
  9
$INSUNITS
 70
6
  9
$HYPERLINKBASE
  1

  9
$STYLESHEET
  1

  9
$XEDIT
290
1
  9
$CEPSNTYPE
380
0
  9
$PSTYLEMODE
290
1
  9
$FINGERPRINTGUID
  2
{3B45FC8D-67ED-4055-ACC3-5ECA191F9910}
  9
$VERSIONGUID
  2
{CFF45BA0-A800-4AE0-B23B-608F3CDB3B32}
  9
$EXTNAMES
290
1
  9
$PSVPSCALE
 40
0.0
  9
$OLESTARTUP
290
0
  0
ENDSEC
  0
SECTION
  2
CLASSES
  0
CLASS
  1
ACDBDICTIONARYWDFLT
  2
AcDbDictionaryWithDefault
  3
ObjectDBX Classes
 90
0
280
0
281
0
  0
CLASS
  1
SUN
  2
AcDbSun
  3
SCENEOE
 90
1153
280
0
281
0
  0
CLASS
  1
VISUALSTYLE
  2
AcDbVisualStyle
  3
ObjectDBX Classes
 90
4095
280
0
281
0
  0
CLASS
  1
MATERIAL
  2
AcDbMaterial
  3
ObjectDBX Classes
 90
1153
280
0
281
0
  0
CLASS
  1
SCALE
  2
AcDbScale
  3
ObjectDBX Classes
 90
1153
280
0
281
0
  0
CLASS
  1
TABLESTYLE
  2
AcDbTableStyle
  3
ObjectDBX Classes
 90
4095
280
0
281
0
  0
CLASS
  1
MLEADERSTYLE
  2
AcDbMLeaderStyle
  3
ACDB_MLEADERSTYLE_CLASS
 90
4095
280
0
281
0
  0
CLASS
  1
DICTIONARYVAR
  2
AcDbDictionaryVar
  3
ObjectDBX Classes
 90
0
280
0
281
0
  0
CLASS
  1
CELLSTYLEMAP
  2
AcDbCellStyleMap
  3
ObjectDBX Classes
 90
1152
280
0
281
0
  0
CLASS
  1
MENTALRAYRENDERSETTINGS
  2
AcDbMentalRayRenderSettings
  3
SCENEOE
 90
1024
280
0
281
0
  0
CLASS
  1
ACDBDETAILVIEWSTYLE
  2
AcDbDetailViewStyle
  3
ObjectDBX Classes
 90
1025
280
0
281
0
  0
CLASS
  1
ACDBSECTIONVIEWSTYLE
  2
AcDbSectionViewStyle
  3
ObjectDBX Classes
 90
1025
280
0
281
0
  0
CLASS
  1
RASTERVARIABLES
  2
AcDbRasterVariables
  3
ISM
 90
0
280
0
281
0
  0
CLASS
  1
ACDBPLACEHOLDER
  2
AcDbPlaceHolder
  3
ObjectDBX Classes
 90
0
280
0
281
0
  0
CLASS
  1
LAYOUT
  2
AcDbLayout
  3
ObjectDBX Classes
 90
0
280
0
281
0
  0
ENDSEC
  0
SECTION
  2
TABLES
  0
TABLE
  2
VPORT
  5
8
330
0
100
AcDbSymbolTable
 70
1
  0
VPORT
  5
23
330
8
100
AcDbSymbolTableRecord
100
AcDbViewportTableRecord
  2
*Active
 70
0
 10
0.0
 20
0.0
 11
1.0
 21
1.0
 12
0.0
 22
0.0
 13
0.0
 23
0.0
 14
0.5
 24
0.5
 15
0.5
 25
0.5
 16
0.0
 26
0.0
 36
1.0
 17
0.0
 27
0.0
 37
0.0
 40
1000.0
 41
1.34
 42
50.0
 43
0.0
 44
0.0
 50
0.0
 51
0.0
 71
0
 72
1000
 73
1
 74
3
 75
0
 76
0
 77
0
 78
0
281
0
 65
0
146
0.0
  0
ENDTAB
  0
TABLE
  2
LTYPE
  5
2
330
0
100
AcDbSymbolTable
 70
3
  0
LTYPE
  5
24
330
2
100
AcDbSymbolTableRecord
100
AcDbLinetypeTableRecord
  2
ByBlock
 70
0
  3

 72
65
 73
0
 40
0.0
  0
LTYPE
  5
25
330
2
100
AcDbSymbolTableRecord
100
AcDbLinetypeTableRecord
  2
ByLayer
 70
0
  3

 72
65
 73
0
 40
0.0
  0
LTYPE
  5
26
330
2
100
AcDbSymbolTableRecord
100
AcDbLinetypeTableRecord
  2
Continuous
 70
0
  3

 72
65
 73
0
 40
0.0
  0
ENDTAB
  0
TABLE
  2
LAYER
  5
1
330
0
100
AcDbSymbolTable
 70
2
  0
LAYER
  5
27
330
1
100
AcDbSymbolTableRecord
100
AcDbLayerTableRecord
  2
0
 70
0
 62
7
  6
Continuous
370
-3
390
13
  0
LAYER
  5
28
330
1
100
AcDbSymbolTableRecord
100
AcDbLayerTableRecord
  2
Defpoints
 70
0
 62
7
  6
Continuous
290
0
370
-3
390
13
  0
ENDTAB
  0
TABLE
  2
STYLE
  5
5
330
0
100
AcDbSymbolTable
 70
1
  0
STYLE
  5
29
330
5
100
AcDbSymbolTableRecord
100
AcDbTextStyleTableRecord
  2
Standard
 70
0
 40
0.0
 41
1.0
 50
0.0
 71
0
 42
2.5
  3
txt
  4

  0
ENDTAB
  0
TABLE
  2
VIEW
  5
7
330
0
100
AcDbSymbolTable
 70
0
  0
ENDTAB
  0
TABLE
  2
UCS
  5
6
330
0
100
AcDbSymbolTable
 70
0
  0
ENDTAB
  0
TABLE
  2
APPID
  5
3
330
0
100
AcDbSymbolTable
 70
3
  0
APPID
  5
2A
330
3
100
AcDbSymbolTableRecord
100
AcDbRegAppTableRecord
  2
ACAD
 70
0
  0
APPID
  5
31
330
3
100
AcDbSymbolTableRecord
100
AcDbRegAppTableRecord
  2
HATCHBACKGROUNDCOLOR
 70
0
  0
APPID
  5
32
330
3
100
AcDbSymbolTableRecord
100
AcDbRegAppTableRecord
  2
EZDXF
 70
0
  0
ENDTAB
  0
TABLE
  2
DIMSTYLE
  5
4
330
0
100
AcDbSymbolTable
 70
1
100
AcDbDimStyleTable
  0
DIMSTYLE
105
2B
330
4
100
AcDbSymbolTableRecord
100
AcDbDimStyleTableRecord
  2
Standard
 70
0
  3

  4

 40
1.0
 41
2.5
 42
0.625
 43
3.75
 44
1.25
 45
0.0
 46
0.0
 47
0.0
 48
0.0
140
2.5
141
2.5
142
0.0
143
0.03937007874
144
1.0
145
0.0
146
1.0
147
0.625
148
0.0
 71
0
 72
0
 73
0
 74
0
 75
0
 76
0
 77
1
 78
8
 79
3
170
0
171
3
172
1
173
0
174
0
175
0
176
0
177
0
178
0
179
2
271
2
272
2
273
2
274
3
275
0
276
0
277
2
278
44
279
0
280
0
281
0
282
0
283
0
284
8
285
0
286
0
288
0
289
3
371
-2
372
-2
  0
ENDTAB
  0
TABLE
  2
BLOCK_RECORD
  5
9
330
0
100
AcDbSymbolTable
 70
2
  0
BLOCK_RECORD
  5
17
330
9
100
AcDbSymbolTableRecord
100
AcDbBlockTableRecord
  2
*Model_Space
340
1A
  0
BLOCK_RECORD
  5
1B
330
9
100
AcDbSymbolTableRecord
100
AcDbBlockTableRecord
  2
*Paper_Space
340
1E
  0
ENDTAB
  0
ENDSEC
  0
SECTION
  2
BLOCKS
  0
BLOCK
  5
18
330
17
100
AcDbEntity
  8
0
100
AcDbBlockBegin
  2
*Model_Space
 70
0
 10
0.0
 20
0.0
 30
0.0
  3
*Model_Space
  1

  0
ENDBLK
  5
19
330
17
100
AcDbEntity
  8
0
100
AcDbBlockEnd
  0
BLOCK
  5
1C
330
1B
100
AcDbEntity
  8
0
100
AcDbBlockBegin
  2
*Paper_Space
 70
0
 10
0.0
 20
0.0
 30
0.0
  3
*Paper_Space
  1

  0
ENDBLK
  5
1D
330
1B
100
AcDbEntity
  8
0
100
AcDbBlockEnd
  0
ENDSEC
  0
SECTION
  2
ENTITIES
  0
LWPOLYLINE
  5
2F
330
17
100
AcDbEntity
  8
BODY_POINTS
 62
7
100
AcDbPolyline
 90
1572
 70
0
 10
26.914057797542398
 20
17.499999999999915
 10
26.914057797542398
 20
8.749999999999943
 10
41.961297132348534
 20
17.0
 10
41.961297132348534
 20
8.5
 10
41.961297132348534
 20
0.0
 10
41.98546794109359
 20
17.035332032892455
 10
44.53444429275828
 20
17.180571387731305
 10
47.07455932227157
 20
17.437846626299574
 10
49.60089108490081
 20
17.806659230029936
 10
26.914057797542398
 20
17.499999999999915
 10
27.664057797542398
 20
17.499999999999943
 10
28.414057797542398
 20
17.499999999999943
 10
29.164057797542398
 20
17.499999999999943
 10
29.914057797542398
 20
17.49999999999997
 10
29.914057797542398
 20
17.49999999999997
 10
29.914057797542398
 20
8.749999999999972
 10
29.914057797542398
 20
0.0
 10
36.138153302580974
 20
0.0
 10
8.175057797542365
 20
18.04158959537574
 10
8.175057797542365
 20
9.02079479768787
 10
8.175057797542365
 20
0.0
 10
6.815057797542238
 20
18.080895953757164
 10
6.815057797542238
 20
9.040447976878568
 10
6.815057797542238
 20
18.080895953757278
 10
6.829900231308784
 20
17.82936912923725
 10
6.934863846760493
 20
17.600308698947458
 10
7.11568605065753
 20
17.424839693504737
 10
7.347796485625736
 20
17.326805070681388
 10
7.599655682426658
 20
17.319525903143784
 10
7.837040684255214
 20
17.403991293689757
 10
8.027695306834971
 20
17.568723974667847
 10
8.145713150891538
 20
17.79133985410479
 10
8.175057797542195
 20
18.04158959537577
 10
26.914057797542398
 20
17.499999999999915
 10
28.41412083930726
 20
49.999999999999886
 10
21.91412083930726
 20
49.999999999999915
 10
24.914057797542398
 20
4.829999999999927
 10
26.664057797542398
 20
4.829999999999927
 10
28.414057797542398
 20
4.829999999999956
 10
30.164057797542398
 20
4.829999999999984
 10
31.914057797542398
 20
4.829999999999984
 10
24.914057797542398
 20
14.499999999999915
 10
26.664057797542398
 20
14.499999999999943
 10
28.414057797542398
 20
14.499999999999943
 10
30.164057797542398
 20
14.499999999999943
 10
31.914057797542398
 20
14.499999999999972
 10
37.52945341967478
 20
97.60612038704033
 10
36.999586524123174
 20
97.46204998678388
 10
36.46971962857157
 20
97.31797958652749
 10
35.93985273301996
 20
97.17390918627109
 10
35.409985837468355
 20
97.02983878601464
 10
35.409985837468355
 20
97.02983878601464
 10
35.18040892799155
 20
97.87418435664028
 10
34.950832018514745
 20
98.71852992726599
 10
34.72125510903794
 20
99.56287549789164
 10
34.238771925823414
 20
99.43168869247614
 10
34.46834883530022
 20
98.5873431218505
 10
34.697925744777024
 20
97.7429975512249
 10
34.92750265425383
 20
96.89865198059925
 10
34.92750265425383
 20
96.89865198059925
 10
34.00441641752269
 20
96.7017563723636
 10
33.081330180791554
 20
96.50486076412801
 10
32.158243944060416
 20
96.30796515589236
 10
31.23515770732928
 20
96.11106954765671
 10
31.23515770732928
 20
96.11106954765671
 10
31.071308904612295
 20
96.97059183930963
 10
30.90746010189531
 20
97.83011413096256
 10
30.743611299178326
 20
98.68963642261542
 10
30.579762496461342
 20
99.54915871426834
 10
30.579762496461342
 20
99.54915871426834
 10
30.456973597653814
 20
99.52575174245163
 10
30.334184698846286
 20
99.50234477063486
 10
30.21139580003876
 20
99.47893779881815
 10
30.08860690123123
 20
99.45553082700144
 10
30.08860690123123
 20
99.45553082700144
 10
30.252455703948158
 20
98.59600853534857
 10
30.416304506665085
 20
97.73648624369565
 10
30.580153309382013
 20
96.87696395204273
 10
30.74400211209894
 20
96.01744166038986
 10
30.74400211209894
 20
96.01744166038986
 10
29.741769077174183
 20
95.90223779808332
 10
28.739536042249426
 20
95.78703393577678
 10
27.73730300732467
 20
95.67183007347018
 10
26.735069972399913
 20
95.55662621116363
 10
26.735069972399913
 20
95.55662621116363
 10
26.70182876539144
 20
96.43099456726799
 10
26.668587558382967
 20
97.30536292337234
 10
26.635346351374494
 20
98.1797312794767
 10
26.60210514436602
 20
99.05409963558105
 10
26.60210514436602
 20
99.05409963558105
 10
26.47719537920824
 20
99.04935089172272
 10
26.35228561405046
 20
99.04460214786434
 10
26.227375848892677
 20
99.03985340400595
 10
26.102466083734896
 20
99.03510466014762
 10
26.102466083734896
 20
99.03510466014762
 10
26.13570729074337
 20
98.16073630404333
 10
26.168948497751785
 20
97.28636794793897
 10
26.2021897047602
 20
96.41199959183461
 10
26.235430911768674
 20
95.53763123573032
 10
26.235430911768674
 20
95.53763123573032
 10
25.24778365452738
 20
95.56903174168076
 10
24.260136397286146
 20
95.60043224763126
 10
23.27248914004491
 20
95.6318327535817
 10
22.28484188280362
 20
95.66323325953215
 10
22.28484188280362
 20
95.66323325953215
 10
22.362529426768447
 20
96.53477766202269
 10
22.440216970733275
 20
97.40632206451323
 10
22.517904514698103
 20
98.27786646700383
 10
22.59559205866293
 20
99.14941086949437
 10
22.59559205866293
 20
99.14941086949437
 10
22.471085715449988
 20
99.16050909006083
 10
22.346579372237045
 20
99.17160731062722
 10
22.222073029024102
 20
99.18270553119362
 10
22.09756668581116
 20
99.19380375176007
 10
22.09756668581116
 20
99.19380375176007
 10
22.01987914184633
 20
98.32225934926947
 10
21.942191597881504
 20
97.45071494677882
 10
21.864504053916676
 20
96.57917054428822
 10
21.786816509951848
 20
95.70762614179762
 10
21.786816509951848
 20
95.70762614179762
 10
20.77281128001613
 20
95.8574953677861
 10
19.75880605008041
 20
96.00736459377458
 10
18.74480082014469
 20
96.15723381976312
 10
17.73079559020897
 20
96.3071030457516
 10
17.73079559020897
 20
96.3071030457516
 10
17.955080312673715
 20
97.15286977675305
 10
18.17936503513846
 20
97.9986365077545
 10
18.403649757603205
 20
98.84440323875594
 10
18.62793448006795
 20
99.69016996975739
 10
18.62793448006795
 20
99.69016996975739
 10
18.507110661353465
 20
99.7222106443952
 10
18.386286842638924
 20
99.75425131903302
 10
18.265463023924383
 20
99.78629199367083
 10
18.1446392052099
 20
99.81833266830864
 10
18.1446392052099
 20
99.81833266830864
 10
17.920354482745154
 20
98.9725659373072
 10
17.696069760280466
 20
98.12679920630575
 10
17.471785037815778
 20
97.2810324753043
 10
17.247500315351033
 20
96.43526574430285
 10
17.247500315351033
 20
96.43526574430285
 10
16.26191882917766
 20
96.77631751413895
 10
15.276337343004286
 20
97.11736928397505
 10
14.290755856830913
 20
97.45842105381115
 10
13.30517437065754
 20
97.79947282364725
 10
13.30517437065754
 20
97.79947282364725
 10
13.684990615701452
 20
98.58773966932876
 10
14.064806860745364
 20
99.37600651501026
 10
13.614368663212986
 20
99.59304436932109
 10
13.234552418169017
 20
98.80477752363959
 10
12.85473617312499
 20
98.01651067795808
 10
12.85473617312499
 20
98.01651067795808
 10
12.066469327443485
 20
98.3963269230021
 10
11.278202481761923
 20
98.77614316804613
 10
10.48993563608036
 20
99.15595941309016
 10
9.701668790398855
 20
99.53577565813418
 10
9.701668790398855
 20
99.53577565813418
 10
9.274366979061767
 20
99.80083053753134
 10
9.274366979061767
 20
99.80083053753134
 10
29.483989145667408
 20
99.84927757206685
 10
29.368532505456585
 20
99.83189429805066
 10
28.791664205221707
 20
99.76788410189715
 10
28.214795904986886
 20
99.70387390574365
 10
27.637927604752065
 20
99.63986370959014
 10
27.061059304517187
 20
99.57585351343664
 10
26.952617209227867
 20
99.56778639125025
 10
26.377219977565176
 20
99.54591128751821
 10
25.80182274590254
 20
99.52403618378617
 10
25.226425514239907
 20
99.50216108005412
 10
24.651028282577215
 20
99.48028597632208
 10
24.46086470948029
 20
99.48512703966003
 10
23.321926669103107
 20
99.58664946219187
 10
22.182988628725923
 20
99.68817188472372
 10
21.04405058834874
 20
99.78969430725562
 10
19.905112547971555
 20
99.89121672978746
 10
19.653803099114327
 20
99.93540702376896
 10
4.017675777387922
 20
50.0
 10
26.50565652552899
 20
95.32893883255105
 10
25.357772603973558
 20
95.36543378117256
 10
24.209888682418125
 20
95.40192872979412
 10
23.062004760862692
 20
95.43842367841563
 10
21.91412083930726
 20
95.47491862703714
 10
28.41412083930726
 20
95.54831142591001
 10
27.937004760862578
 20
95.49346827757029
 10
27.459888682417898
 20
95.43862512923056
 10
26.982772603973217
 20
95.38378198089077
 10
26.505656525528536
 20
95.32893883255105
 10
28.41412083930726
 20
95.54831142591001
 10
28.41412083930726
 20
84.16123356943251
 10
28.41412083930726
 20
72.77415571295495
 10
28.41412083930726
 20
61.38707785647739
 10
21.91412083930726
 20
95.47491862703714
 10
21.91412083930726
 20
84.10618897027786
 10
21.91412083930726
 20
72.73745931351851
 10
21.91412083930726
 20
61.36872965675923
 10
3.965866787465245
 20
50.00000000000003
 10
49.8373202568028
 20
108.4488687690889
 10
49.35588693394129
 20
108.24694711712999
 10
48.87445361107979
 20
108.04502546517114
 10
48.87445361107979
 20
108.04502546517114
 10
48.4012249328178
 20
107.82737950277607
 10
47.927996254555865
 20
107.60973354038094
 10
47.45476757629393
 20
107.39208757798588
 10
46.98153889803194
 20
107.17444161559081
 10
46.98153889803194
 20
107.17444161559081
 10
46.7225081721719
 20
107.0585439891363
 10
46.46347744631191
 20
106.94264636268178
 10
46.20444672045193
 20
106.82674873622722
 10
45.94541599459188
 20
106.7108511097727
 10
45.94541599459188
 20
106.7108511097727
 10
45.68279882672073
 20
106.59546397528493
 10
45.42018165884957
 20
106.48007684079721
 10
45.157564490978416
 20
106.36468970630943
 10
44.89494732310726
 20
106.24930257182166
 10
44.89494732310726
 20
106.24930257182166
 10
44.62897631376353
 20
106.13501553407349
 10
44.3630053044198
 20
106.02072849632532
 10
44.09703429507607
 20
105.9064414585772
 10
43.83106328573234
 20
105.79215442082904
 10
43.83106328573234
 20
105.79215442082904
 10
43.561971035454405
 20
105.67955708459345
 10
43.292878785176526
 20
105.56695974835782
 10
43.02378653489865
 20
105.45436241212224
 10
42.75469428462071
 20
105.34176507588666
 10
42.75469428462071
 20
105.34176507588666
 10
42.48271339394722
 20
105.23144704593636
 10
42.21073250327379
 20
105.12112901598607
 10
41.938751612600356
 20
105.01081098603572
 10
41.666770721926866
 20
104.90049295608543
 10
41.666770721926866
 20
104.90049295608543
 10
41.392133791396304
 20
104.79304383719341
 10
41.11749686086574
 20
104.68559471830133
 10
40.84285993033518
 20
104.57814559940931
 10
40.56822299980462
 20
104.47069648051729
 10
40.56822299980462
 20
104.47069648051729
 10
40.291162629955295
 20
104.3667058774563
 10
40.01410226010597
 20
104.2627152743953
 10
39.73704189025665
 20
104.15872467133426
 10
39.459981520407325
 20
104.05473406827326
 10
39.459981520407325
 20
104.05473406827326
 10
39.18073031177789
 20
103.95479158581622
 10
38.90147910314846
 20
103.85484910335919
 10
38.62222789451903
 20
103.75490662090215
 10
38.342976685889596
 20
103.65496413844511
 10
38.342976685889596
 20
103.65496413844511
 10
38.061767239018366
 20
103.55965938136478
 10
37.780557792147135
 20
103.46435462428451
 10
37.499348345275905
 20
103.36904986720424
 10
37.218138898404675
 20
103.27374511012391
 10
37.218138898404675
 20
103.27374511012391
 10
36.93520381383013
 20
103.18366768319328
 10
36.65226872925558
 20
103.0935902562627
 10
36.369333644681035
 20
103.00351282933207
 10
36.08639856010649
 20
102.91343540240143
 10
36.08639856010649
 20
102.91343540240143
 10
35.80197043836739
 20
102.82917491039336
 10
35.517542316628294
 20
102.74491441838529
 10
35.2331141948892
 20
102.66065392637717
 10
34.9486860731501
 20
102.5763934343691
 10
34.9486860731501
 20
102.5763934343691
 10
34.662997514784536
 20
102.49853948205634
 10
34.37730895641897
 20
102.42068552974354
 10
34.09162039805341
 20
102.34283157743079
 10
33.805931839687844
 20
102.26497762511804
 10
33.805931839687844
 20
102.26497762511804
 10
33.51921544523458
 20
102.19411981727353
 10
33.232499050781314
 20
102.12326200942903
 10
32.94578265632805
 20
102.05240420158458
 10
32.659066261874784
 20
101.98154639374008
 10
32.659066261874784
 20
101.98154639374008
 10
32.371554631872186
 20
101.91827433513663
 10
32.08404300186959
 20
101.85500227653313
 10
31.79653137186699
 20
101.79173021792968
 10
31.509019741864392
 20
101.72845815932624
 10
31.509019741864392
 20
101.72845815932624
 10
31.220945476850886
 20
101.67336145473678
 10
30.93287121183738
 20
101.61826475014732
 10
30.644796946823874
 20
101.5631680455578
 10
30.356722681810368
 20
101.50807134096834
 10
30.356722681810368
 20
101.50807134096834
 10
30.06831838232449
 20
101.46173959516562
 10
29.779914082838616
 20
101.41540784936296
 10
29.49150978335274
 20
101.36907610356025
 10
29.203105483866864
 20
101.32274435775753
 10
29.203105483866864
 20
101.32274435775753
 10
28.914603750447156
 20
101.28576717551448
 10
28.62610201702745
 20
101.24878999327143
 10
28.337600283607742
 20
101.21181281102838
 10
28.049098550188035
 20
101.17483562878533
 10
28.049098550188035
 20
101.17483562878533
 10
27.76073198337292
 20
101.14780261487488
 10
27.472365416557807
 20
101.12076960096442
 10
27.183998849742693
 20
101.09373658705391
 10
26.89563228292758
 20
101.06670357314346
 10
26.89563228292758
 20
101.06670357314346
 10
26.607633483255483
 20
101.05020433233824
 10
26.319634683583388
 20
101.03370509153308
 10
26.031635883911292
 20
101.01720585072792
 10
25.743637084239197
 20
101.0007066099227
 10
25.743637084239197
 20
101.0007066099227
 10
25.4562386522486
 20
100.99533074699588
 10
25.168840220258062
 20
100.989954884069
 10
24.881441788267523
 20
100.98457902114217
 10
24.594043356276927
 20
100.97920315821534
 10
24.594043356276927
 20
100.97920315821534
 10
24.307477892506483
 20
100.98554027793949
 10
24.020912428735983
 20
100.99187739766364
 10
23.734346964965482
 20
100.99821451738785
 10
23.44778150119504
 20
101.004551637112
 10
23.44778150119504
 20
101.004551637112
 10
23.162281606183
 20
101.02319134426011
 10
22.876781711170963
 20
101.04183105140828
 10
22.591281816158926
 20
101.06047075855645
 10
22.305781921146888
 20
101.07911046570456
 10
22.305781921146888
 20
101.07911046570456
 10
22.021580195431795
 20
101.11064236504956
 10
21.737378469716703
 20
101.1421742643945
 10
21.45317674400161
 20
101.17370616373944
 10
21.168975018286517
 20
101.20523806308444
 10
21.168975018286517
 20
101.20523806308444
 10
20.886304062406964
 20
101.25025175939902
 10
20.60363310652741
 20
101.2952654557136
 10
20.32096215064786
 20
101.34027915202819
 10
20.038291194768306
 20
101.38529284834277
 10
20.038291194768306
 20
101.38529284834277
 10
19.75738360926266
 20
101.44437794639998
 10
19.476476023757016
 20
101.50346304445713
 10
19.19556843825137
 20
101.56254814251429
 10
18.914660852745726
 20
101.6216332405715
 10
18.914660852745726
 20
101.6216332405715
 10
18.63574923815247
 20
101.69537934514403
 10
18.356837623559215
 20
101.76912544971651
 10
18.07792600896596
 20
101.84287155428899
 10
17.799014394372705
 20
101.91661765886153
 10
17.799014394372705
 20
101.91661765886153
 10
17.52233135123032
 20
102.00561437472231
 10
17.245648308087937
 20
102.0946110905831
 10
16.968965264945552
 20
102.18360780644389
 10
16.69228222180317
 20
102.27260452230468
 10
16.69228222180317
 20
102.27260452230468
 10
16.41806035065025
 20
102.37744145422658
 10
16.143838479497333
 20
102.4822783861485
 10
15.869616608344415
 20
102.5871153180704
 10
15.595394737191498
 20
102.69195224999231
 10
15.595394737191498
 20
102.69195224999231
 10
15.323866638566358
 20
102.81321900274816
 10
15.052338539941218
 20
102.93448575550406
 10
14.780810441316078
 20
103.0557525082599
 10
14.509282342690938
 20
103.17701926101574
 10
14.509282342690938
 20
103.17701926101574
 10
14.240680617132114
 20
103.31530543937845
 10
13.97207889157329
 20
103.45359161774115
 10
13.703477166014466
 20
103.5918777961038
 10
13.434875440455642
 20
103.7301639744665
 10
13.434875440455642
 20
103.7301639744665
 10
13.169432688501672
 20
103.88605918320883
 10
12.903989936547703
 20
104.04195439195115
 10
12.638547184593733
 20
104.19784960069347
 10
12.373104432639764
 20
104.3537448094358
 10
12.373104432639764
 20
104.3537448094358
 10
12.074175219500319
 20
104.52501645589592
 10
11.775246006360817
 20
104.696288102356
 10
11.476316793221315
 20
104.86755974881612
 10
11.17738758008187
 20
105.03883139527625
 10
11.17738758008187
 20
105.03883139527625
 10
10.881608002022574
 20
105.21550979349905
 10
10.585828423963335
 20
105.39218819172186
 10
10.290048845904096
 20
105.56886658994472
 10
9.9942692678448
 20
105.74554498816752
 10
9.9942692678448
 20
105.74554498816752
 10
9.701345712451712
 20
105.92711978133042
 10
9.408422157058624
 20
106.10869457449337
 10
9.115498601665536
 20
106.29026936765626
 10
8.822575046272448
 20
106.47184416081916
 10
8.822575046272448
 20
106.47184416081916
 10
8.532213901131968
 20
106.65780499209927
 10
8.241852755991488
 20
106.84376582337944
 10
7.951491610851008
 20
107.02972665465961
 10
7.661130465710528
 20
107.21568748593972
 10
7.661130465710528
 20
107.21568748593972
 10
7.373038118408772
 20
107.40552399851424
 10
7.084945771107016
 20
107.59536051108881
 10
6.79685342380526
 20
107.78519702366339
 10
6.508761076503504
 20
107.9750335362379
 10
6.508761076503504
 20
107.9750335362379
 10
6.222643914626815
 20
108.168235373284
 10
5.936526752750126
 20
108.36143721033011
 10
5.650409590873437
 20
108.55463904737627
 10
5.364292428996748
 20
108.74784088442237
 10
5.364292428996748
 20
108.74784088442237
 10
5.079856840131356
 20
108.94389768911742
 10
4.795421251265964
 20
109.13995449381241
 10
4.5109856624005715
 20
109.3360112985074
 10
4.226550073535179
 20
109.53206810320245
 10
4.226550073535179
 20
109.53206810320245
 10
3.94350244526737
 20
109.73046951872345
 10
3.660454816999561
 20
109.92887093424446
 10
3.377407188731752
 20
110.12727234976546
 10
3.0943595604639427
 20
110.32567376528647
 10
3.0943595604639427
 20
110.32567376528647
 10
2.8124062803798893
 20
110.52590943481073
 10
2.5304530002958927
 20
110.72614510433493
 10
2.248499720211896
 20
110.9263807738592
 10
1.9665464401278427
 20
111.12661644338345
 10
1.9665464401278427
 20
111.12661644338345
 10
1.685393895814002
 20
111.3281760100881
 10
1.4042413515001044
 20
111.5297355767928
 10
1.1230888071862069
 20
111.7312951434975
 10
0.8419362628723661
 20
111.93285471020215
 10
0.8419362628723661
 20
111.93285471020215
 10
0.5612908419149107
 20
112.13522781726454
 10
0.28064542095745537
 20
112.33760092432692
 10
0.0
 20
112.53997403138925
 10
34.491678199561136
 20
100.40722106851729
 10
34.491678199561136
 20
100.40722106851729
 10
34.371057403757504
 20
100.37442436716344
 10
34.25043660795387
 20
100.34162766580954
 10
34.12981581215024
 20
100.30883096445564
 10
34.00919501634661
 20
100.27603426310179
 10
34.00919501634661
 20
100.27603426310179
 10
14.444623105789276
 20
100.16427336069177
 10
14.824439350833188
 20
100.95254020637327
 10
14.824439350833188
 20
100.95254020637327
 10
14.711829801450165
 20
101.00679966995096
 10
14.599220252067084
 20
101.06105913352872
 10
14.486610702684004
 20
101.11531859710641
 10
14.37400115330098
 20
101.1695780606841
 10
14.37400115330098
 20
101.1695780606841
 10
13.994184908256955
 20
100.3813112150026
 10
10.08378656371525
 20
100.32881907263067
 10
10.465904337031702
 20
101.12186248712715
 10
10.848022110348154
 20
101.91490590162368
 10
11.230139883664549
 20
102.70794931612016
 10
11.230139883664549
 20
102.70794931612016
 10
11.122799872217854
 20
102.77314512615897
 10
11.01545986077116
 20
102.83834093619771
 10
10.908119849324464
 20
102.90353674623645
 10
10.80077983787777
 20
102.96873255627526
 10
10.80077983787777
 20
102.96873255627526
 10
10.419176623173769
 20
102.17675705158928
 10
10.037573408469768
 20
101.3847815469033
 10
9.655970193765768
 20
100.59280604221732
 10
8.450356533701608
 20
100.30131519131186
 10
7.62634608834145
 20
100.80179984509238
 10
6.802335642981291
 20
101.3022844988729
 10
5.978325197621132
 20
101.80276915265341
 10
5.978325197621132
 20
101.80276915265341
 10
6.432558777558768
 20
102.55063067383031
 10
6.886792357496347
 20
103.29849219500727
 10
7.341025937433926
 20
104.04635371618417
 10
7.795259517371562
 20
104.79421523736107
 10
7.795259517371562
 20
104.79421523736107
 10
7.6884221572034335
 20
104.85910574878073
 10
7.581584797035362
 20
104.9239962602004
 10
7.47474743686729
 20
104.98888677162
 10
7.367910076699161
 20
105.05377728303966
 10
7.367910076699161
 20
105.05377728303966
 10
6.913676496761525
 20
104.30591576186282
 10
6.459442916823889
 20
103.55805424068592
 10
6.005209336886253
 20
102.81019271950908
 10
5.550975756948617
 20
102.06233119833223
 10
5.550975756948617
 20
102.06233119833223
 10
4.778269898203007
 20
102.58033413481877
 10
4.005564039457397
 20
103.09833707130531
 10
3.232858180711787
 20
103.6163400077919
 10
2.460152321966177
 20
104.13434294427844
 10
2.460152321966177
 20
104.13434294427844
 10
2.959952335767184
 20
104.85255248626777
 10
3.459752349568191
 20
105.57076202825704
 10
3.9595523633691982
 20
106.28897157024636
 10
4.459352377170205
 20
107.00718111223568
 10
4.459352377170205
 20
107.00718111223568
 10
4.35675101402893
 20
107.07858111420728
 10
4.254149650887598
 20
107.14998111617888
 10
4.151548287746266
 20
107.22138111815048
 10
4.048946924604991
 20
107.29278112012207
 10
4.048946924604991
 20
107.29278112012207
 10
3.549146910803927
 20
106.57457157813275
 10
3.04934689700292
 20
105.85636203614342
 10
2.549546883201913
 20
105.1381524941541
 10
2.049746869400849
 20
104.41994295216477
 10
2.049746869400849
 20
104.41994295216477
 10
1.3315373274115814
 20
104.91974296596578
 10
0.6133277854223138
 20
105.41954297976679
 10
0.1765087290457359
 20
107.85556209134745
 10
0.6763087428467429
 20
108.57377163333683
 10
1.176108756647693
 20
109.29198117532616
 10
1.176108756647693
 20
109.29198117532616
 10
1.0735073935064179
 20
109.3633811772977
 10
0.9709060303650858
 20
109.43478117926924
 10
0.8683046672237538
 20
109.50618118124078
 10
0.7657033040824786
 20
109.57758118321232
 10
0.7657033040824786
 20
109.57758118321232
 10
0.2659032902814147
 20
108.85937164122299
 10
49.4078448813313
 20
106.64306478354695
 10
49.46736617903247
 20
106.66718124801002
 10
47.39080852621362
 20
105.7735990018466
 10
45.31425087339477
 20
104.88001675568319
 10
43.23769322057592
 20
103.98643450951971
 10
41.16113556775707
 20
103.09285226335629
 10
41.0605429759874
 20
103.05379103517123
 10
39.94008686606293
 20
102.66447576564224
 10
38.819630756138395
 20
102.2751604961133
 10
37.69917464621386
 20
101.88584522658437
 10
36.57871853628939
 20
101.49652995705537
 10
36.479958976352634
 20
101.46598585275751
 10
35.623125901794594
 20
101.23301360059213
 10
34.766292827236555
 20
101.00004134842675
 10
33.909459752678515
 20
100.76706909626142
 10
33.052626678120475
 20
100.53409684409604
 10
32.93994992367499
 20
100.50807960804946
 10
32.07595972917312
 20
100.34337909905378
 10
31.211969534671198
 20
100.17867859005815
 10
30.347979340169275
 20
100.01397808106253
 10
18.817300855873043
 20
100.15723494225944
 10
17.98079861263176
 20
100.37906286074985
 10
17.144296369390474
 20
100.60089077924033
 10
16.30779412614919
 20
100.8227186977308
 10
16.041168658870617
 20
100.92128992970794
 10
14.961374211579766
 20
101.44157500149072
 10
13.881579764288915
 20
101.96186007327344
 10
12.801785316998064
 20
102.48214514505622
 10
11.721990869707213
 20
103.002430216839
 10
11.594418295603816
 20
103.07169648741831
 10
10.416424803871507
 20
103.7871821565443
 10
9.238431312139198
 20
104.5026678256703
 10
8.06043782040689
 20
105.21815349479624
 10
6.8824443286745804
 20
105.93363916392224
 10
6.804330442051366
 20
105.98447112824374
 10
4.818886470384371
 20
107.3661360413717
 10
2.8334424987173747
 20
108.74780095449967
 10
0.8479985270503789
 20
110.12946586762769
 10
29.914057797542398
 20
173.0000000000001
 10
29.914057797542398
 20
173.0000000000001
 10
45.878655384983915
 20
160.0573435030219
 10
45.87865538498403
 20
160.05734350302203
 10
43.265722779123564
 20
160.5528613732214
 10
40.64053708486273
 20
160.97871913480884
 10
38.00495508416742
 20
161.33461558051602
 10
35.36084091226411
 20
161.6202989863969
 10
32.71006473914508
 20
161.83556728987082
 10
30.054501446806228
 20
161.98026823264064
 10
27.396029303151124
 20
162.0542994683841
 10
24.736528633500654
 20
162.05760863514297
 10
22.077880490647544
 20
161.99019339235866
 10
22.077880490647374
 20
161.99019339235883
 10
8.175057797542024
 20
176.0000000000001
 10
8.116602648999162
 20
176.2140939722484
 10
7.992649471341963
 20
176.39818319814964
 10
7.816260377175752
 20
176.53286846387476
 10
7.606023144998062
 20
176.60395671572059
 10
7.384092450085859
 20
176.60395671572059
 10
7.173855217908169
 20
176.53286846387476
 10
6.997466123741958
 20
176.39818319814964
 10
6.873512946084759
 20
176.2140939722484
 10
6.815057797541897
 20
176.00000000000006
 10
7.276969117164924
 20
174.5000000000001
 10
7.401969117164924
 20
174.5000000000001
 10
7.526969117164924
 20
174.5000000000001
 10
7.651969117164924
 20
174.50000000000006
 10
7.776969117164924
 20
174.50000000000006
 10
7.776969117164924
 20
176.0000000000001
 10
7.776969117164924
 20
175.6250000000001
 10
7.776969117164924
 20
175.2500000000001
 10
7.776969117164924
 20
174.87500000000006
 10
7.776969117164924
 20
174.50000000000006
 10
7.276969117164924
 20
176.00000000000006
 10
7.276969117164924
 20
175.62500000000006
 10
7.276969117164924
 20
175.2500000000001
 10
7.276969117164924
 20
174.8750000000001
 10
7.276969117164924
 20
174.5000000000001
 10
8.175057797546458
 20
175.99999999999994
 10
8.075535627451075
 20
176.0
 10
7.976013457355691
 20
176.0
 10
7.876491287260308
 20
176.00000000000006
 10
7.776969117164924
 20
176.0000000000001
 10
7.276969117164924
 20
176.00000000000006
 10
7.1614912872582295
 20
176.00000000000006
 10
7.046013457351478
 20
176.0
 10
6.930535627444726
 20
176.0
 10
6.8150577975380315
 20
176.0
 10
26.914057797542398
 20
176.0
 10
22.229307797543413
 20
176.0
 10
17.544557797544428
 20
176.0
 10
12.859807797545443
 20
175.99999999999994
 10
8.175057797546458
 20
175.99999999999994
 10
6.8150577975380315
 20
176.0
 10
2.572557797540128
 20
176.0
 10
26.914057797542398
 20
173.0
 10
26.914057797542398
 20
174.125
 10
26.914057797542398
 20
175.25
 10
26.914057797542398
 20
176.375
 10
26.914057797542398
 20
177.5
 10
29.914057797542398
 20
173.0000000000001
 10
29.914057797542398
 20
173.5000000000001
 10
29.914057797542398
 20
174.00000000000006
 10
29.914057797542398
 20
174.5
 10
29.914057797542398
 20
175.0
 10
29.914057797542398
 20
174.99999999999994
 10
29.90345142712556
 20
175.20570120703098
 10
29.87174481096838
 20
175.40922067086507
 10
29.81927424118652
 20
175.60839978868177
 10
29.7465962400791
 20
175.8011259929781
 10
29.654481657446922
 20
175.98535515824238
 10
29.54390749467433
 20
176.15913328170615
 10
29.416046542290132
 20
176.32061720822162
 10
29.27225494091715
 20
176.4680941794478
 10
29.114057797542443
 20
176.5999999999999
 10
26.914057797542398
 20
177.5
 10
26.9973911308756
 20
177.5
 10
27.0807244642088
 20
177.50000000000006
 10
27.164057797542
 20
177.5000000000001
 10
27.2473911308752
 20
177.5000000000001
 10
28.4473911308757
 20
177.10000000000014
 10
28.61405779754233
 20
176.97500000000014
 10
28.7807244642089
 20
176.85000000000008
 10
28.947391130875474
 20
176.72500000000002
 10
29.114057797542102
 20
176.60000000000002
 10
28.447391130875417
 20
177.10000000000002
 10
28.33002232888532
 20
177.1816389889318
 10
28.207121183983986
 20
177.25468465120093
 10
28.079315732088958
 20
177.31876371689555
 10
27.94725907056801
 20
177.37354873621967
 10
27.81162602085317
 20
177.41875975279135
 10
27.673109680041932
 20
177.45416573424455
 10
27.53241787910912
 20
177.47958575282593
 10
27.3902695658266
 20
177.49488990995138
 10
27.247391130875428
 20
177.5
 10
30.414057797542398
 20
200.00000000000006
 10
52.10854434355332
 20
18.28629455599045
 10
54.59266005420767
 20
18.87582322163786
 10
57.04842478121412
 20
19.57410290566895
 10
59.471080024220385
 20
20.379780561480487
 10
61.855931438649975
 20
21.29129503894802
 10
64.19835793186684
 20
22.306880109444535
 10
75.15800369655557
 20
25.010352977063548
 10
73.89975387786177
 20
24.91756253806284
 10
72.64651826378241
 20
24.77194946373234
 10
71.40051341409395
 20
24.573771295495106
 10
70.16394309973964
 20
24.323378545059683
 10
68.93899440508642
 20
24.021214074480696
 10
67.72783385969535
 20
23.66781231288215
 10
66.53260360644668
 20
23.26379831122881
 10
65.35541761279643
 20
22.80988663681771
 10
64.19835793186684
 20
22.306880109444478
 10
94.17462925970733
 20
26.011228006703078
 10
75.15800369655557
 20
25.01035297706349
 10
69.01767577738798
 20
50.0
 10
63.99177128242667
 20
50.00000000000003
 10
61.30367244275675
 20
146.7142226208747
 10
99.91305100006667
 20
107.00149232958665
 10
99.45792149719927
 20
107.25859782335465
 10
99.45792149719927
 20
107.25859782335465
 10
98.99319510547144
 20
107.49490828477707
 10
98.52846871374362
 20
107.73121874619949
 10
98.0637423220158
 20
107.96752920762191
 10
97.59901593028798
 20
108.20383966904433
 10
97.59901593028798
 20
108.20383966904433
 10
97.12540471103779
 20
108.41955792699753
 10
96.65179349178754
 20
108.63527618495067
 10
96.1781822725373
 20
108.85099444290381
 10
95.70457105328711
 20
109.06671270085701
 10
95.70457105328711
 20
109.06671270085701
 10
95.22278706785318
 20
109.26204158421729
 10
94.74100308241924
 20
109.45737046757756
 10
94.2592190969853
 20
109.65269935093778
 10
93.77743511155137
 20
109.84802823429806
 10
93.77743511155137
 20
109.84802823429806
 10
93.28819042127208
 20
110.0231705719417
 10
92.79894573099284
 20
110.19831290958535
 10
92.3097010407136
 20
110.373455247229
 10
91.82045635043431
 20
110.54859758487265
 10
91.82045635043431
 20
110.54859758487265
 10
91.32446301664805
 20
110.70375620567626
 10
90.82846968286174
 20
110.85891482647986
 10
90.33247634907542
 20
111.01407344728347
 10
89.83648301528916
 20
111.16923206808707
 10
89.83648301528916
 20
111.16923206808707
 10
89.33445309933433
 20
111.30460980092687
 10
88.83242318337949
 20
111.43998753376661
 10
88.33039326742465
 20
111.57536526660641
 10
87.82836335146982
 20
111.71074299944621
 10
87.82836335146982
 20
111.71074299944621
 10
87.3210089146848
 20
111.82654267319867
 10
86.81365447789983
 20
111.94234234695114
 10
86.30630004111487
 20
112.05814202070354
 10
85.79894560432984
 20
112.173941694456
 10
85.79894560432984
 20
112.173941694456
 10
85.28697870805303
 20
112.27036613799748
 10
84.77501181177615
 20
112.36679058153891
 10
84.26304491549928
 20
112.46321502508033
 10
83.75107801922246
 20
112.55963946862181
 10
83.75107801922246
 20
112.55963946862181
 10
83.23521072479224
 20
112.63689151082866
 10
82.71934343036207
 20
112.71414355303551
 10
82.20347613593191
 20
112.79139559524236
 10
81.68760884150169
 20
112.86864763744921
 10
81.68760884150169
 20
112.86864763744921
 10
81.16855321025656
 20
112.92693010719785
 10
80.64949757901144
 20
112.98521257694642
 10
80.13044194776631
 20
113.04349504669506
 10
79.61138631652119
 20
113.10177751644369
 10
79.61138631652119
 20
113.10177751644369
 10
79.0898544097995
 20
113.14129324261046
 10
78.56832250307781
 20
113.18080896877717
 10
78.04679059635612
 20
113.22032469494388
 10
77.52525868963443
 20
113.25984042111065
 10
77.52525868963443
 20
113.25984042111065
 10
77.0019625687745
 20
113.28079223257191
 10
76.47866644791458
 20
113.30174404403323
 10
75.95537032705465
 20
113.32269585549454
 10
75.43207420619473
 20
113.3436476669558
 10
75.43207420619473
 20
113.3436476669558
 10
74.90772593253513
 20
113.34623839258802
 10
74.38337765887553
 20
113.3488291182203
 10
73.85902938521593
 20
113.35141984385257
 10
73.33468111155634
 20
113.35401056948479
 10
73.33468111155634
 20
113.35401056948479
 10
72.80999274643534
 20
113.33844303816431
 10
72.28530438131435
 20
113.32287550684379
 10
71.76061601619335
 20
113.30730797552326
 10
71.23592765107236
 20
113.29174044420279
 10
71.23592765107236
 20
113.29174044420279
 10
70.71161125582836
 20
113.25821748480604
 10
70.1872948605843
 20
113.22469452540929
 10
69.66297846534025
 20
113.19117156601249
 10
69.13866207009625
 20
113.15764860661574
 10
69.13866207009625
 20
113.15764860661574
 10
68.6154297060678
 20
113.10637304801901
 10
68.0921973420393
 20
113.05509748942222
 10
67.5689649780108
 20
113.0038219308255
 10
67.04573261398235
 20
112.95254637222877
 10
67.04573261398235
 20
112.95254637222877
 10
66.52429634250763
 20
112.88372104330853
 10
66.0028600710329
 20
112.81489571438829
 10
65.48142379955817
 20
112.74607038546799
 10
64.95998752808345
 20
112.67724505654775
 10
64.95998752808345
 20
112.67724505654775
 10
64.44105941050105
 20
112.59107278618029
 10
63.922131292918664
 20
112.50490051581289
 10
63.40320317533627
 20
112.41872824544544
 10
62.88427505775388
 20
112.33255597507798
 10
62.88427505775388
 20
112.33255597507798
 10
62.368567155402104
 20
112.22923959213966
 10
61.852859253050326
 20
112.12592320920135
 10
61.33715135069855
 20
112.02260682626309
 10
60.82144344834677
 20
111.91929044332477
 10
60.82144344834677
 20
111.91929044332477
 10
60.309667822563995
 20
111.79903277669217
 10
59.79789219678122
 20
111.67877511005963
 10
59.286116570998445
 20
111.55851744342704
 10
58.77434094521567
 20
111.43825977679444
 10
58.77434094521567
 20
111.43825977679444
 10
58.2672096573404
 20
111.30126365534375
 10
57.760078369465134
 20
111.16426753389305
 10
57.252947081589866
 20
111.02727141244236
 10
56.7458157937146
 20
110.89027529099167
 10
56.7458157937146
 20
110.89027529099167
 10
56.244040905085114
 20
110.73674354359946
 10
55.742266016455574
 20
110.58321179620725
 10
55.24049112782603
 20
110.42968004881499
 10
54.73871623919655
 20
110.27614830142278
 10
54.73871623919655
 20
110.27614830142278
 10
54.24300981115141
 20
110.10628375696513
 10
53.74730338310627
 20
109.93641921250753
 10
53.25159695506113
 20
109.76655466804993
 10
52.75589052701599
 20
109.59669012359228
 10
52.75589052701599
 20
109.59669012359228
 10
52.266964620893475
 20
109.41069561094588
 10
51.7780387147709
 20
109.22470109829942
 10
51.289112808648326
 20
109.03870658565302
 10
50.80018690252581
 20
108.85271207300661
 10
50.80018690252581
 20
108.85271207300661
 10
50.3187535796643
 20
108.65079042104776
 10
98.66229285201092
 20
105.98699448152377
 10
98.83574562656332
 20
105.89371790702563
 10
97.41562403015138
 20
106.54107550976141
 10
95.99550243373938
 20
107.18843311249725
 10
94.57538083732737
 20
107.83579071523309
 10
93.15525924091543
 20
108.48314831796887
 10
93.32922698149804
 20
108.4165571475645
 10
91.84195904147765
 20
108.88223583885161
 10
90.3546911014572
 20
109.34791453013872
 10
88.86742316143676
 20
109.81359322142583
 10
87.38015522141637
 20
110.27927191271294
 10
87.55042037300365
 20
110.23671867782832
 10
86.01523174551158
 20
110.52619483732906
 10
84.48004311801958
 20
110.81567099682974
 10
82.94485449052758
 20
111.10514715633042
 10
81.40966586303551
 20
111.39462331583115
 10
81.57403664267162
 20
111.37295336532907
 10
80.01015298384488
 20
111.49170337270573
 10
78.44626932501814
 20
111.61045338008245
 10
76.8823856661914
 20
111.72920338745917
 10
75.31850200736466
 20
111.84795339483583
 10
75.47638670559405
 20
111.8443023423568
 10
73.90303367156952
 20
111.79780257727168
 10
72.32968063754493
 20
111.75130281218662
 10
70.75632760352033
 20
111.70480304710156
 10
69.1829745694958
 20
111.65830328201645
 10
69.3099819140296
 20
111.66746421833506
 10
68.26531327852643
 20
111.54736333081809
 10
67.2206446430232
 20
111.42726244330117
 10
66.17597600751998
 20
111.3071615557842
 10
65.1313073720168
 20
111.18706066826724
 10
65.23021081518999
 20
111.2017860177719
 10
64.19557479525577
 20
111.01229736446618
 10
63.16093877532154
 20
110.8228087111604
 10
62.126302755387314
 20
110.63332005785469
 10
61.09166673545309
 20
110.44383140454897
 10
61.21262102250836
 20
110.47119510617574
 10
59.69193922022083
 20
110.06040957070024
 10
58.17125741793336
 20
109.64962403522469
 10
56.65057561564589
 20
109.23883849974914
 10
55.129893813358365
 20
108.82805296427364
 10
55.272107509447835
 20
108.8741876197987
 10
53.80604185241867
 20
108.31640691073574
 10
52.33997619538957
 20
107.75862620167283
 10
50.87391053836046
 20
107.20084549260991
 10
58.83500701686813
 20
167.11596637981222
 10
87.75595623619387
 20
161.23193275962439
 10
70.33495636320839
 20
155.0816528336041
 10
94.79125734143281
 20
150.10596216418628
 10
62.77401095908351
 20
153.94116731745333
 10
64.24434947541027
 20
161.16811201403198
 10
65.71468799173704
 20
168.39505671061056
 10
67.1850265080638
 20
175.6220014071892
 10
67.57533557553887
 20
155.64310402839288
 10
68.04883441977978
 20
157.97042520186739
 10
68.52233326402069
 20
160.2977463753419
 10
68.9958321082616
 20
162.6250675488164
 10
69.4693309525025
 20
164.9523887222909
 10
59.01936799831827
 20
157.38383530577312
 10
59.49286684255918
 20
159.71115647924756
 10
59.96636568680009
 20
162.038477652722
 10
60.439864531040996
 20
164.36579882619645
 10
60.913363375281904
 20
166.6931199996709
 10
132.2078803860108
 20
28.012978065982253
 10
113.1912548228591
 20
27.012103036342666
 10
122.5194520701661
 20
49.927022447848344
 10
123.95768648276425
 20
51.23974125398797
 10
123.93646902907682
 20
51.68080938221652
 10
123.91525157538939
 20
52.121877510445074
 10
123.89403412170196
 20
52.5629456386736
 10
123.87281666801454
 20
53.00401376690215
 10
123.87281666801454
 20
53.00401376690215
 10
123.85079283935914
 20
53.44864456626175
 10
123.82876901070375
 20
53.89327536562135
 10
123.80674518204836
 20
54.33790616498095
 10
123.78472135339297
 20
54.78253696434055
 10
123.78472135339297
 20
54.78253696434055
 10
123.76115907904904
 20
55.23017018211772
 10
123.73759680470522
 20
55.677803399894856
 10
123.7140345303614
 20
56.12543661767205
 10
123.69047225601747
 20
56.57306983544919
 10
123.69047225601747
 20
56.57306983544919
 10
123.66463946526454
 20
57.02314521893055
 10
123.6388066745115
 20
57.47322060241186
 10
123.61297388375846
 20
57.92329598589322
 10
123.58714109300553
 20
58.37337136937458
 10
123.58714109300553
 20
58.37337136937458
 10
123.5583057151228
 20
58.825328665846826
 10
123.52947033724007
 20
59.27728596231907
 10
123.50063495935734
 20
59.729243258791314
 10
123.47179958147461
 20
60.18120055526356
 10
123.47179958147461
 20
60.18120055526356
 10
123.4392295457414
 20
60.63447951201317
 10
123.40665951000818
 20
61.087758468762786
 10
123.37408947427508
 20
61.5410374255124
 10
123.34151943854187
 20
61.994316382262014
 10
123.34151943854187
 20
61.994316382262014
 10
123.30448267423759
 20
62.448356746575826
 10
123.26744590993331
 20
62.90239711088964
 10
123.23040914562904
 20
63.35643747520345
 10
123.19337238132476
 20
63.81047783951726
 10
123.19337238132476
 20
63.81047783951726
 10
123.15113681772874
 20
64.26471935868165
 10
123.10890125413283
 20
64.71896087784603
 10
123.06666569053681
 20
65.17320239701036
 10
123.02443012694079
 20
65.62744391617474
 10
123.02443012694079
 20
65.62744391617474
 10
122.97626369333256
 20
66.08132633747653
 10
122.92809725972421
 20
66.53520875877825
 10
122.87993082611587
 20
66.98909118007998
 10
122.83176439250764
 20
67.44297360138177
 10
122.83176439250764
 20
67.44297360138177
 10
122.77693501816651
 20
67.8959366721075
 10
122.72210564382539
 20
68.34889974283317
 10
122.66727626948415
 20
68.8018628135589
 10
122.61244689514302
 20
69.25482588428463
 10
122.61244689514302
 20
69.25482588428463
 10
122.5502225093482
 20
69.70630935172096
 10
122.4879981235535
 20
70.1577928191573
 10
122.42577373775867
 20
70.60927628659357
 10
122.36354935196385
 20
71.0607597540299
 10
122.36354935196385
 20
71.0607597540299
 10
122.29319788399488
 20
71.51020336546333
 10
122.2228464160259
 20
71.9596469768968
 10
122.15249494805693
 20
72.40909058833029
 10
122.08214348008795
 20
72.85853419976371
 10
122.08214348008795
 20
72.85853419976371
 10
122.00293285922413
 20
73.305377702481
 10
121.92372223836031
 20
73.75222120519828
 10
121.8445116174965
 20
74.19906470791557
 10
121.76530099663267
 20
74.64590821063285
 10
121.76530099663267
 20
74.64590821063285
 10
121.67649915215333
 20
75.08959135192055
 10
121.58769730767398
 20
75.5332744932083
 10
121.49889546319451
 20
75.97695763449599
 10
121.41009361871517
 20
76.42064077578368
 10
121.41009361871517
 20
76.42064077578368
 10
121.3109684798996
 20
76.8606033029285
 10
121.21184334108392
 20
77.30056583007331
 10
121.11271820226824
 20
77.74052835721807
 10
121.01359306345267
 20
78.18049088436288
 10
121.01359306345267
 20
78.18049088436288
 10
120.90341255958043
 20
78.61617254465142
 10
120.7932320557083
 20
79.0518542049399
 10
120.68305155183606
 20
79.48753586522844
 10
120.57287104796382
 20
79.92321752551698
 10
120.57287104796382
 20
79.92321752551698
 10
120.4509031083141
 20
80.35405806623578
 10
120.32893516866449
 20
80.78489860695453
 10
120.20696722901488
 20
81.21573914767328
 10
120.08499928936516
 20
81.64657968839208
 10
120.08499928936516
 20
81.64657968839208
 10
119.9505118432175
 20
82.07201885682775
 10
119.81602439706984
 20
82.49745802526343
 10
119.68153695092207
 20
82.92289719369916
 10
119.5470495047744
 20
83.34833636213483
 10
119.5470495047744
 20
83.34833636213483
 10
119.3993104814079
 20
83.76781390557414
 10
119.25157145804138
 20
84.1872914490134
 10
119.10383243467487
 20
84.60676899245266
 10
118.95609341130836
 20
85.02624653589197
 10
118.95609341130836
 20
85.02624653589197
 10
118.79437074000276
 20
85.43920220162141
 10
118.63264806869705
 20
85.85215786735085
 10
118.47092539739145
 20
86.2651135330803
 10
118.30920272608586
 20
86.67806919880974
 10
118.30920272608586
 20
86.67806919880974
 10
118.13276433612015
 20
87.08394273411602
 10
117.95632594615444
 20
87.48981626942236
 10
117.77988755618884
 20
87.89568980472865
 10
117.60344916622313
 20
88.30156334003493
 10
117.60344916622313
 20
88.30156334003493
 10
117.41156298687696
 20
88.6997944922046
 10
117.21967680753079
 20
89.09802564437427
 10
117.02779062818462
 20
89.49625679654395
 10
116.83590444883845
 20
89.89448794871362
 10
116.83590444883845
 20
89.89448794871362
 10
116.62783840939113
 20
90.28451646503333
 10
116.4197723699437
 20
90.674544981353
 10
116.21170633049627
 20
91.06457349767265
 10
116.00364029104895
 20
91.45460201399237
 10
116.00364029104895
 20
91.45460201399237
 10
115.77866232077957
 20
91.83586764174879
 10
115.55368435051008
 20
92.21713326950521
 10
115.3287063802407
 20
92.59839889726169
 10
115.10372840997132
 20
92.97966452501811
 10
115.10372840997132
 20
92.97966452501811
 10
114.86110643815954
 20
93.35160701149778
 10
114.61848446634775
 20
93.72354949797739
 10
114.37586249453597
 20
94.09549198445706
 10
114.13324052272418
 20
94.46743447093672
 10
114.13324052272418
 20
94.46743447093672
 10
113.8722424786493
 20
94.82949356342635
 10
113.61124443457442
 20
95.19155265591598
 10
113.35024639049954
 20
95.55361174840556
 10
113.08924834642465
 20
95.91567084089519
 10
113.08924834642465
 20
95.91567084089519
 10
112.80914215936599
 20
96.26728628668138
 10
112.52903597230733
 20
96.61890173246752
 10
112.24892978524855
 20
96.97051717825371
 10
111.96882359818989
 20
97.32213262403991
 10
111.96882359818989
 20
97.32213262403991
 10
111.66887719742687
 20
97.66274417040921
 10
111.3689307966639
 20
98.00335571677851
 10
111.06898439590094
 20
98.34396726314776
 10
110.76903799513792
 20
98.68457880951706
 10
110.76903799513792
 20
98.68457880951706
 10
110.44851930994986
 20
99.01362620375619
 10
110.1280006247618
 20
99.34267359799526
 10
109.80748193957373
 20
99.67172099223433
 10
124.01767577738809
 20
50.00000000000003
 10
124.00267845373213
 20
50.30993531349702
 10
123.98768113007617
 20
50.619870626993986
 10
123.9726838064202
 20
50.92980594049098
 10
123.95768648276425
 20
51.23974125398797
 10
122.46121346416732
 20
51.122656688933546
 10
122.40297485816853
 20
52.31829093001872
 10
122.34473625216975
 20
53.51392517110389
 10
122.28649764617097
 20
54.709559412189094
 10
122.28723478836656
 20
54.695738418467215
 10
122.20900434538697
 20
56.04540431619796
 10
122.13077390240727
 20
57.395070213928705
 10
122.05254345942768
 20
58.74473611165945
 10
121.9743130164481
 20
60.094402009390194
 10
121.97683468982467
 20
60.058400014816925
 10
121.86499232619116
 20
61.41996085504468
 10
121.75314996255776
 20
62.78152169527243
 10
121.64130759892436
 20
64.14308253550024
 10
121.52946523529084
 20
65.504643375728
 10
121.53540478294593
 20
65.44632648205777
 10
121.37018458920164
 20
66.8046554415215
 10
121.20496439545735
 20
68.1629844009853
 10
121.03974420171318
 20
69.52131336044908
 10
120.87452400796889
 20
70.87964231991282
 10
120.88673351826543
 20
70.79805270551924
 10
120.64836958495317
 20
72.13802296095776
 10
120.41000565164103
 20
73.47799321639627
 10
120.17164171832877
 20
74.81796347183484
 10
119.93327778501651
 20
76.15793372727336
 10
119.9561063002622
 20
76.05196628822313
 10
119.62483271792468
 20
77.35845101637523
 10
119.29355913558715
 20
78.66493574452727
 10
118.9622855532495
 20
79.97142047267937
 10
118.63101197091197
 20
81.27790520083147
 10
118.67051173641192
 20
81.14735532746761
 10
118.22656259559204
 20
82.4052277050721
 10
117.78261345477216
 20
83.66310008267652
 10
117.33866431395239
 20
84.92097246028095
 10
116.89471517313251
 20
86.17884483788544
 10
116.95833652466553
 20
86.02602586753488
 10
116.38194591590621
 20
87.22015907133056
 10
115.8055553071469
 20
88.41429227512623
 10
115.22916469838748
 20
89.6084254789219
 10
114.65277408962817
 20
90.80255868271757
 10
114.74786869009694
 20
90.63421327306315
 10
114.019270703941
 20
91.74948047978887
 10
113.29067271778507
 20
92.86474768651465
 10
112.56207473162914
 20
93.98001489324042
 10
111.8334767454732
 20
95.09528209996614
 10
111.96418928588417
 20
94.92358107162255
 10
111.06361801287443
 20
95.94485545801712
 10
110.16304673986468
 20
96.96612984441174
 10
109.26247546685494
 20
97.9874042308063
 10
108.36190419384519
 20
99.00867861720087
 10
108.52551823906305
 20
98.84941115150639
 10
107.35200739643318
 20
99.82935561687992
 10
134.01767577738798
 20
50.0
 10
124.01767577738809
 20
50.00000000000003
 10
148.96405779754235
 20
98.75387862714712
 10
147.68905779754238
 20
98.75387862714717
 10
146.4140577975424
 20
98.75387862714723
 10
148.96405779754235
 20
97.25387862714706
 10
147.68905779754238
 20
97.25387862714706
 10
146.4140577975424
 20
97.25387862714712
 10
148.96405779754235
 20
84.75387862714706
 10
147.68905779754238
 20
84.75387862714706
 10
146.4140577975424
 20
84.75387862714706
 10
148.96405779754235
 20
83.25387862714712
 10
147.68905779754238
 20
83.25387862714712
 10
146.4140577975424
 20
83.25387862714712
 10
148.96405779754235
 20
71.25387862714712
 10
147.68905779754238
 20
71.25387862714706
 10
146.4140577975424
 20
71.25387862714706
 10
148.96405779754235
 20
69.75387862714706
 10
147.6890577975425
 20
69.75387862714706
 10
146.4140577975425
 20
69.753878627147
 10
146.4140577975424
 20
91.00387862714706
 10
146.4140577975424
 20
75.75387862714706
 10
146.4140577975424
 20
60.50387862714706
 10
146.4140577975424
 20
60.50387862714712
 10
146.42165392103624
 20
60.417054538313664
 10
146.4442114871494
 20
60.33286855548431
 10
146.48104509565013
 20
60.25387862714712
 10
146.5310355759829
 20
60.18248482230382
 10
146.5926639926991
 20
60.12085640558763
 10
146.6640577975424
 20
60.07086592525491
 10
146.74304772587953
 20
60.03403231675418
 10
146.8272337087089
 20
60.011474750641014
 10
146.9140577975424
 20
60.00387862714712
 10
146.9140577975424
 20
60.003878627147174
 10
148.9140577975424
 20
95.50387862714717
 10
148.2890577975424
 20
95.50387862714717
 10
147.6640577975424
 20
95.50387862714717
 10
147.0390577975424
 20
95.50387862714717
 10
146.4140577975424
 20
95.50387862714717
 10
148.9140577975424
 20
86.50387862714706
 10
148.2890577975424
 20
86.50387862714706
 10
147.6640577975424
 20
86.50387862714712
 10
147.0390577975424
 20
86.50387862714717
 10
146.4140577975424
 20
86.50387862714717
 10
148.9140577975425
 20
81.503878627147
 10
148.2890577975424
 20
81.50387862714706
 10
147.6640577975424
 20
81.50387862714712
 10
147.0390577975424
 20
81.50387862714717
 10
146.41405779754228
 20
81.50387862714723
 10
148.91405779754228
 20
73.00387862714717
 10
148.28905779754228
 20
73.00387862714717
 10
147.6640577975424
 20
73.00387862714712
 10
147.0390577975424
 20
73.00387862714706
 10
146.4140577975424
 20
73.00387862714706
 10
148.9140577975425
 20
68.003878627147
 10
148.2890577975425
 20
68.00387862714706
 10
147.6640577975424
 20
68.00387862714706
 10
147.0390577975424
 20
68.00387862714706
 10
146.4140577975424
 20
68.00387862714712
 10
148.9140577975424
 20
99.25387862714717
 10
148.9140577975424
 20
98.00387862714717
 10
148.9140577975424
 20
96.75387862714717
 10
148.9140577975424
 20
95.50387862714717
 10
148.9140577975424
 20
86.50387862714706
 10
148.9140577975424
 20
85.25387862714706
 10
148.9140577975424
 20
84.00387862714706
 10
148.9140577975425
 20
82.753878627147
 10
148.9140577975425
 20
81.503878627147
 10
148.91405779754228
 20
73.00387862714717
 10
148.9140577975424
 20
71.75387862714712
 10
148.9140577975424
 20
70.50387862714706
 10
148.9140577975424
 20
69.25387862714706
 10
148.9140577975425
 20
68.003878627147
 10
133.9140577975424
 20
91.0
 10
133.9140577975424
 20
75.50000000000006
 10
133.9140577975424
 20
60.000000000000114
 10
133.9140577975424
 20
60.000000000000114
 10
133.9140577975424
 20
60.000000000000114
 10
133.9140577975424
 20
60.000000000000114
 10
133.9140577975424
 20
60.000000000000114
 10
133.9140577975424
 20
60.000000000000114
 10
142.4140577975424
 20
90.99999999999994
 10
142.4140577975424
 20
76.99999999999994
 10
142.4140577975424
 20
62.99999999999994
 10
133.9140577975424
 20
60.000000000000114
 10
135.2890577975424
 20
60.000000000000114
 10
136.6640577975424
 20
60.00000000000006
 10
138.03905779754228
 20
60.0
 10
139.41405779754228
 20
60.0
 10
139.41405779754228
 20
60.000000000000114
 10
139.9350023305431
 20
60.0455767409635
 10
140.44011822751924
 20
60.18092213764237
 10
140.91405779754228
 20
60.4019237886468
 10
141.34242062660195
 20
60.7018666706432
 10
141.7121911268992
 20
61.071637170940505
 10
142.01213400889554
 20
61.500000000000114
 10
142.23313565990003
 20
61.973939570023106
 10
142.3684810565789
 20
62.47905546699934
 10
142.41405779754228
 20
63.000000000000114
 10
140.41405779754228
 20
69.75000000000017
 10
138.78905779754228
 20
69.75000000000011
 10
137.1640577975424
 20
69.75000000000011
 10
135.5390577975424
 20
69.75000000000011
 10
133.9140577975424
 20
69.75000000000006
 10
140.41405779754228
 20
84.75000000000011
 10
138.7890577975424
 20
84.75000000000006
 10
137.1640577975424
 20
84.75
 10
135.5390577975424
 20
84.75
 10
133.9140577975425
 20
84.74999999999994
 10
140.4140577975424
 20
83.25000000000011
 10
138.7890577975424
 20
83.25000000000011
 10
137.1640577975424
 20
83.25000000000011
 10
135.53905779754228
 20
83.25000000000011
 10
133.91405779754228
 20
83.25000000000011
 10
140.4140577975424
 20
98.75000000000006
 10
138.7890577975424
 20
98.75
 10
137.1640577975424
 20
98.75
 10
135.5390577975424
 20
98.75
 10
133.9140577975424
 20
98.74999999999994
 10
140.41405779754228
 20
97.25000000000017
 10
138.78905779754228
 20
97.25000000000017
 10
137.16405779754228
 20
97.25000000000011
 10
135.53905779754228
 20
97.25000000000011
 10
133.91405779754228
 20
97.25000000000011
 10
140.4140577975424
 20
71.25000000000011
 10
138.7890577975424
 20
71.25000000000011
 10
137.1640577975424
 20
71.25000000000011
 10
135.5390577975424
 20
71.25000000000006
 10
133.9140577975424
 20
71.25000000000006
 10
133.9140577975425
 20
95.99999999999994
 10
135.03691560634564
 20
95.52861096392746
 10
136.2492627571266
 20
95.64363995206878
 10
137.26343016563948
 20
96.31779256804651
 10
137.8387733848785
 20
97.39110401501574
 10
137.8387733848785
 20
98.60889598498414
 10
137.26343016563948
 20
99.68220743195337
 10
133.9140577975425
 20
99.99999999999994
 10
133.9140577975424
 20
81.99999999999994
 10
135.03691560634553
 20
81.52861096392752
 10
136.24926275712647
 20
81.64363995206884
 10
137.26343016563948
 20
82.31779256804663
 10
137.83877338487838
 20
83.39110401501586
 10
137.83877338487838
 20
84.6088959849842
 10
137.26343016563936
 20
85.68220743195343
 10
136.24926275712647
 20
86.35636004793116
 10
135.03691560634553
 20
86.47138903607248
 10
133.9140577975424
 20
86.0
 10
133.9140577975424
 20
68.49999999999994
 10
135.03691560634553
 20
68.02861096392752
 10
136.24926275712647
 20
68.14363995206884
 10
137.26343016563936
 20
68.81779256804657
 10
137.83877338487838
 20
69.8911040150158
 10
137.83877338487838
 20
71.1088959849842
 10
137.26343016563936
 20
72.18220743195343
 10
136.24926275712647
 20
72.85636004793116
 10
135.03691560634553
 20
72.97138903607248
 10
133.9140577975424
 20
72.50000000000006
 10
103.49337099448138
 20
70.00000000000011
 10
103.49337099448138
 20
65.00000000000011
 10
103.49337099448138
 20
60.00000000000006
 10
103.49337099448138
 20
55.00000000000006
 10
103.49337099448138
 20
50.00000000000003
 10
103.49337099448138
 20
70.00000000000011
 10
104.74337099448138
 20
71.25000000000011
 10
105.99337099448138
 20
72.50000000000011
 10
107.24337099448138
 20
73.75000000000006
 10
108.49337099448138
 20
75.00000000000006
 10
120.13925969888925
 20
75.00000000000006
 10
117.22778752278731
 20
75.00000000000006
 10
114.31631534668526
 20
75.00000000000006
 10
111.40484317058332
 20
75.00000000000006
 10
108.49337099448138
 20
75.00000000000006
 10
140.4140577975424
 20
91.0
 10
140.4140577975424
 20
75.58578643762701
 10
140.4140577975424
 20
60.17157287525396
 10
145.59785467484534
 20
149.46386551924866
 10
143.7038592978817
 20
140.1545808253507
 10
144.1773581421226
 20
142.4819019988252
 10
144.65085698636352
 20
144.80922317229965
 10
145.12435583060443
 20
147.13654434577415
 10
145.59785467484534
 20
149.46386551924866
 10
119.24755831965723
 20
145.13027149476852
 10
143.7038592978817
 20
140.1545808253507
 10
134.48276782739975
 20
142.03063308821652
 10
134.95626667164066
 20
144.35795426169102
 10
135.42976551588157
 20
146.68527543516552
 10
135.90326436012236
 20
149.01259660864008
 10
102.46051003683175
 20
138.34076937535247
 10
103.93084855315857
 20
145.56771407193105
 10
100.17620559239339
 20
149.01038206025095
 10
108.73217316961399
 20
147.26965078287054
 10
109.20567201385478
 20
149.59697195634504
 10
109.48696325438567
 20
100.00076838647345
 10
109.48696325438567
 20
100.00076838647345
 10
109.14514021405188
 20
100.31769137586895
 10
108.80331717371809
 20
100.63461436526444
 10
108.46149413338429
 20
100.95153735465993
 10
108.1196710930505
 20
101.26846034405543
 10
108.1196710930505
 20
101.26846034405543
 10
107.71004975900956
 20
101.61077425597006
 10
107.30042842496863
 20
101.95308816788474
 10
106.8908070909277
 20
102.29540207979937
 10
106.48118575688676
 20
102.637715991714
 10
106.48118575688676
 20
102.637715991714
 10
106.05911928863162
 20
102.95842355577736
 10
105.63705282037648
 20
103.27913111984071
 10
105.21498635212134
 20
103.59983868390407
 10
104.7929198838662
 20
103.92054624796742
 10
104.7929198838662
 20
103.92054624796742
 10
104.35912034273525
 20
104.21985029305597
 10
103.92532080160436
 20
104.51915433814457
 10
103.49152126047346
 20
104.81845838323318
 10
103.05772171934251
 20
105.11776242832173
 10
103.05772171934251
 20
105.11776242832173
 10
102.61290116667413
 20
105.39586578331193
 10
102.1680806140057
 20
105.67396913830214
 10
101.72326006133727
 20
105.9520724932924
 10
101.2784395086689
 20
106.23017584828261
 10
101.2784395086689
 20
106.23017584828261
 10
100.82331000580149
 20
106.48728134205061
 10
100.36818050293408
 20
106.74438683581866
 10
106.17849655380331
 20
100.80930008225346
 10
105.00498571117345
 20
101.78924454762694
 10
103.83147486854358
 20
102.76918901300047
 10
103.99729123867763
 20
102.64894290613665
 10
102.66354164201096
 20
103.4834557999834
 10
101.32979204534428
 20
104.31796869383021
 10
99.9960424486776
 20
105.15248158767702
 10
148.96405779754235
 20
112.25387862714717
 10
147.68905779754238
 20
112.25387862714712
 10
146.4140577975424
 20
112.25387862714706
 10
148.96405779754235
 20
110.75387862714712
 10
147.68905779754238
 20
110.75387862714712
 10
146.4140577975424
 20
110.75387862714712
 10
146.9140577975424
 20
122.00387862714695
 10
146.9140577975424
 20
122.00387862714712
 10
146.8272337087089
 20
121.99628250365322
 10
146.74304772587953
 20
121.97372493754006
 10
146.6640577975424
 20
121.93689132903933
 10
146.5926639926991
 20
121.8869008487066
 10
146.5310355759829
 20
121.82527243199041
 10
146.48104509565013
 20
121.75387862714712
 10
146.4442114871494
 20
121.67488869880992
 10
146.42165392103624
 20
121.59070271598057
 10
146.4140577975424
 20
121.50387862714712
 10
146.4140577975425
 20
121.503878627147
 10
146.4140577975425
 20
106.253878627147
 10
148.9140577975424
 20
114.00387862714706
 10
148.2890577975424
 20
114.00387862714706
 10
147.6640577975424
 20
114.00387862714712
 10
147.03905779754228
 20
114.00387862714717
 10
146.41405779754228
 20
114.00387862714717
 10
148.9140577975424
 20
109.00387862714712
 10
148.2890577975424
 20
109.00387862714712
 10
147.6640577975424
 20
109.00387862714706
 10
147.0390577975425
 20
109.00387862714706
 10
146.4140577975425
 20
109.00387862714706
 10
148.9140577975424
 20
100.50387862714717
 10
148.2890577975424
 20
100.50387862714717
 10
147.6640577975424
 20
100.50387862714717
 10
147.0390577975424
 20
100.50387862714717
 10
146.4140577975424
 20
100.50387862714717
 10
148.9140577975424
 20
114.00387862714706
 10
148.9140577975424
 20
112.75387862714706
 10
148.9140577975424
 20
111.50387862714706
 10
148.9140577975424
 20
110.25387862714712
 10
148.9140577975424
 20
109.00387862714712
 10
148.9140577975424
 20
100.50387862714717
 10
133.9140577975424
 20
121.99999999999994
 10
133.9140577975424
 20
106.5
 10
133.9140577975424
 20
121.99999999999994
 10
133.9140577975424
 20
121.99999999999994
 10
133.9140577975424
 20
121.99999999999994
 10
133.9140577975424
 20
121.99999999999994
 10
133.9140577975424
 20
121.99999999999994
 10
133.9140577975424
 20
121.99999999999994
 10
135.2890577975424
 20
122.0
 10
136.6640577975424
 20
122.0
 10
138.03905779754228
 20
122.0
 10
139.41405779754228
 20
122.00000000000006
 10
142.4140577975424
 20
118.99999999999989
 10
142.36848105657901
 20
119.52094453300066
 10
142.23313565990014
 20
120.0260604299769
 10
142.01213400889577
 20
120.49999999999989
 10
141.7121911268993
 20
120.9283628290595
 10
141.34242062660206
 20
121.2981333293568
 10
140.9140577975424
 20
121.5980762113532
 10
140.44011822751935
 20
121.81907786235763
 10
139.93500233054323
 20
121.9544232590365
 10
139.4140577975424
 20
121.99999999999989
 10
142.4140577975424
 20
118.99999999999994
 10
142.4140577975424
 20
104.99999999999994
 10
140.4140577975424
 20
112.25
 10
138.7890577975424
 20
112.25
 10
137.1640577975424
 20
112.25
 10
135.5390577975424
 20
112.25000000000006
 10
133.9140577975424
 20
112.25000000000006
 10
140.4140577975424
 20
110.74999999999994
 10
138.7890577975424
 20
110.74999999999994
 10
137.1640577975424
 20
110.74999999999994
 10
135.5390577975425
 20
110.74999999999994
 10
133.9140577975425
 20
110.74999999999994
 10
133.9140577975424
 20
109.50000000000011
 10
135.03691560634553
 20
109.02861096392763
 10
136.24926275712647
 20
109.14363995206895
 10
137.26343016563936
 20
109.81779256804668
 10
137.83877338487838
 20
110.89110401501591
 10
137.83877338487838
 20
112.10889598498431
 10
137.26343016563936
 20
113.18220743195354
 10
136.24926275712647
 20
113.85636004793128
 10
135.03691560634553
 20
113.9713890360726
 10
133.9140577975424
 20
113.50000000000011
 10
136.2492627571266
 20
100.3563600479311
 10
135.03691560634564
 20
100.47138903607242
 10
140.4140577975425
 20
121.82842712474604
 10
140.4140577975425
 20
106.41421356237299
 10
116.6769054555196
 20
155.34789913943655
 10
136.37676320436327
 20
151.33991778211458
 10
105.40118706948545
 20
152.7946587685097
 10
106.87152558581232
 20
160.02160346508833
 10
108.34186410213914
 20
167.24854816166692
 10
100.64970443663418
 20
151.3377032337254
 10
101.12320328087498
 20
153.66502440719984
 10
101.59670212511577
 20
155.99234558067428
 10
102.07020096935656
 20
158.31966675414873
 10
109.67917085809557
 20
151.9242931298196
 10
110.15266970233637
 20
154.2516143032941
 10
110.62616854657716
 20
156.5789354767686
 10
150.96129713234853
 20
29.000000000000057
 10
150.96129713234853
 20
29.000000000000057
 10
150.96129713234853
 20
29.000000000000057
 10
150.96129713234853
 20
29.000000000000057
 10
150.96129713234853
 20
29.000000000000057
 10
150.96129713234853
 20
29.000000000000057
 10
150.96129713234853
 20
29.000000000000057
 10
150.96129713234853
 20
29.000000000000057
 10
150.96129713234853
 20
29.000000000000057
 10
150.96129713234853
 20
29.000000000000057
 10
151.22450594916262
 20
29.01385309562184
 10
151.96129713234853
 20
28.314820615089076
 10
151.94994061238225
 20
28.44039990242186
 10
151.916239539757
 20
28.561904493514817
 10
151.86128741991337
 20
28.67539190461153
 10
151.7868672952688
 20
28.777179786997607
 10
151.69539389048458
 20
28.86396540890553
 10
151.58983526141168
 20
28.93293281991248
 10
151.47361648998907
 20
28.98184422064668
 10
151.3505085499258
 20
29.00911257311094
 10
151.22450594916262
 20
29.01385309562184
 10
151.96129713234853
 20
28.314820615089104
 10
151.96129713234853
 20
26.236115461316842
 10
151.96129713234853
 20
24.157410307544552
 10
151.96129713234842
 20
22.078705153772262
 10
151.96129713234842
 20
20.0
 10
151.96129713234853
 20
20.00000000000003
 10
152.05532335974664
 20
17.790809448403166
 10
152.336721970292
 20
15.597597500896342
 10
152.8034576678503
 20
13.43622719173402
 10
153.452154652665
 20
11.322331251391688
 10
154.27812103779735
 20
9.271199038360322
 10
155.2753827845433
 20
7.29766595447731
 10
156.43672691138164
 20
5.416006143629005
 10
157.75375366393115
 20
3.6398292499124523
 10
159.21693726858206
 20
1.9819819819820452
 10
160.00471479855395
 20
0.24301096067571848
 10
159.92242002466247
 20
0.7220150089093238
 10
159.76020705396837
 20
1.1801681057804103
 10
159.52276040787405
 20
1.6042393242008757
 10
159.21693726858206
 20
1.9819819819820168
 10
176.9140577975424
 20
0.0
 10
173.9140577975424
 20
2.842170943040401e-14
 10
158.9140577975424
 20
91.00387862714706
 10
158.9140577975424
 20
75.50387862714706
 10
158.9140577975424
 20
60.00387862714712
 10
156.9140577975424
 20
91.00387862714712
 10
156.9140577975424
 20
75.50387862714712
 10
156.9140577975424
 20
60.00387862714712
 10
151.5140577975423
 20
98.753878627147
 10
150.23905779754233
 20
98.75387862714706
 10
151.91405779754228
 20
98.35387862714703
 10
151.9079808987472
 20
98.42333789821379
 10
151.88993484585666
 20
98.49068668447728
 10
151.86046795905605
 20
98.55387862714701
 10
151.8204755747899
 20
98.61099367102162
 10
151.7711728414169
 20
98.66029640439461
 10
151.71405779754235
 20
98.70028878866083
 10
151.65086585487262
 20
98.72975567546138
 10
151.58351706860907
 20
98.74780172835193
 10
151.5140577975423
 20
98.753878627147
 10
151.9140577975424
 20
98.35387862714703
 10
151.9140577975424
 20
98.17887862714701
 10
151.9140577975424
 20
98.00387862714706
 10
151.91405779754228
 20
97.82887862714705
 10
151.91405779754228
 20
97.65387862714704
 10
151.5140577975423
 20
97.25387862714695
 10
150.23905779754233
 20
97.253878627147
 10
151.5140577975422
 20
97.25387862714712
 10
151.58351706860896
 20
97.25995552594219
 10
151.6508658548725
 20
97.27800157883274
 10
151.71405779754224
 20
97.30746846563329
 10
151.77117284141679
 20
97.3474608498995
 10
151.82047557478978
 20
97.3967635832725
 10
151.86046795905594
 20
97.4538786271471
 10
151.88993484585654
 20
97.51707056981684
 10
151.9079808987471
 20
97.58441935608033
 10
151.91405779754217
 20
97.6538786271471
 10
151.51405779754242
 20
84.75387862714706
 10
150.23905779754244
 20
84.75387862714706
 10
151.91405779754228
 20
84.35387862714703
 10
151.9079808987472
 20
84.42333789821379
 10
151.88993484585666
 20
84.49068668447728
 10
151.86046795905605
 20
84.55387862714701
 10
151.8204755747899
 20
84.61099367102162
 10
151.7711728414169
 20
84.66029640439461
 10
151.71405779754235
 20
84.70028878866083
 10
151.65086585487262
 20
84.72975567546138
 10
151.58351706860907
 20
84.74780172835193
 10
151.5140577975423
 20
84.753878627147
 10
151.9140577975424
 20
84.35387862714708
 10
151.9140577975424
 20
84.17887862714713
 10
151.9140577975424
 20
84.00387862714712
 10
151.9140577975424
 20
83.8288786271471
 10
151.9140577975424
 20
83.65387862714715
 10
151.5140577975423
 20
83.25387862714712
 10
150.23905779754233
 20
83.25387862714712
 10
151.5140577975423
 20
83.253878627147
 10
151.58351706860907
 20
83.25995552594208
 10
151.65086585487262
 20
83.27800157883263
 10
151.71405779754235
 20
83.30746846563318
 10
151.7711728414169
 20
83.34746084989939
 10
151.8204755747899
 20
83.39676358327239
 10
151.86046795905605
 20
83.45387862714699
 10
151.88993484585666
 20
83.51707056981672
 10
151.9079808987472
 20
83.58441935608022
 10
151.91405779754228
 20
83.65387862714698
 10
151.5140577975423
 20
71.25387862714717
 10
150.23905779754233
 20
71.25387862714717
 10
151.91405779754228
 20
70.8538786271472
 10
151.9079808987472
 20
70.92333789821396
 10
151.88993484585666
 20
70.99068668447745
 10
151.86046795905605
 20
71.05387862714718
 10
151.8204755747899
 20
71.11099367102179
 10
151.7711728414169
 20
71.16029640439478
 10
151.71405779754235
 20
71.200288788661
 10
151.65086585487262
 20
71.22975567546155
 10
151.58351706860907
 20
71.2478017283521
 10
151.5140577975423
 20
71.25387862714717
 10
151.9140577975424
 20
70.85387862714703
 10
151.9140577975424
 20
70.67887862714701
 10
151.9140577975424
 20
70.50387862714706
 10
151.91405779754228
 20
70.3288786271471
 10
151.91405779754228
 20
70.1538786271471
 10
151.5140577975422
 20
69.75387862714712
 10
150.23905779754222
 20
69.75387862714706
 10
151.5140577975423
 20
69.753878627147
 10
151.58351706860907
 20
69.75995552594208
 10
151.65086585487262
 20
69.77800157883263
 10
151.71405779754235
 20
69.80746846563318
 10
151.7711728414169
 20
69.84746084989939
 10
151.8204755747899
 20
69.89676358327239
 10
151.86046795905605
 20
69.95387862714699
 10
151.88993484585666
 20
70.01707056981672
 10
151.9079808987472
 20
70.08441935608022
 10
151.91405779754228
 20
70.15387862714698
 10
161.9140577975424
 20
60.003878627147
 10
158.1640577975424
 20
60.00387862714706
 10
154.4140577975424
 20
60.00387862714706
 10
150.6640577975424
 20
60.00387862714712
 10
162.4140577975424
 20
91.00387862714717
 10
162.4140577975424
 20
75.75387862714712
 10
162.4140577975424
 20
60.50387862714712
 10
161.9140577975424
 20
60.003878627147174
 10
162.0008818863759
 20
60.01147475064107
 10
162.08506786920526
 20
60.034032316754235
 10
162.1640577975424
 20
60.070865925254964
 10
162.2354516023857
 20
60.12085640558769
 10
162.29708001910188
 20
60.18248482230388
 10
162.34707049943466
 20
60.253878627147174
 10
162.3839041079354
 20
60.33286855548437
 10
162.40646167404856
 20
60.41705453831372
 10
162.4140577975424
 20
60.503878627147174
 10
158.9140577975424
 20
122.003878627147
 10
158.9140577975424
 20
106.50387862714706
 10
156.91405779754228
 20
122.00387862714712
 10
156.91405779754228
 20
106.50387862714712
 10
151.5140577975422
 20
112.25387862714723
 10
150.23905779754222
 20
112.25387862714717
 10
151.91405779754217
 20
111.8538786271472
 10
151.9079808987471
 20
111.92333789821396
 10
151.88993484585654
 20
111.99068668447745
 10
151.86046795905594
 20
112.05387862714718
 10
151.82047557478978
 20
112.11099367102179
 10
151.77117284141679
 20
112.16029640439478
 10
151.71405779754224
 20
112.200288788661
 10
151.6508658548725
 20
112.22975567546155
 10
151.58351706860896
 20
112.2478017283521
 10
151.5140577975422
 20
112.25387862714717
 10
151.91405779754228
 20
111.85387862714725
 10
151.91405779754228
 20
111.67887862714718
 10
151.9140577975424
 20
111.50387862714717
 10
151.9140577975424
 20
111.3288786271471
 10
151.9140577975424
 20
111.15387862714704
 10
151.5140577975422
 20
110.75387862714712
 10
150.23905779754222
 20
110.75387862714712
 10
151.5140577975422
 20
110.75387862714706
 10
151.58351706860896
 20
110.75995552594213
 10
151.6508658548725
 20
110.77800157883269
 10
151.71405779754224
 20
110.80746846563324
 10
151.77117284141679
 20
110.84746084989945
 10
151.82047557478978
 20
110.89676358327245
 10
151.86046795905594
 20
110.95387862714705
 10
151.88993484585654
 20
111.01707056981678
 10
151.9079808987471
 20
111.08441935608028
 10
151.91405779754217
 20
111.15387862714704
 10
162.4140577975424
 20
121.50387862714712
 10
162.40646167404856
 20
121.59070271598057
 10
162.3839041079354
 20
121.67488869880992
 10
162.34707049943466
 20
121.75387862714712
 10
162.29708001910188
 20
121.82527243199041
 10
162.2354516023857
 20
121.8869008487066
 10
162.1640577975424
 20
121.93689132903933
 10
162.08506786920526
 20
121.97372493754006
 10
162.0008818863759
 20
121.99628250365322
 10
161.9140577975424
 20
122.00387862714712
 10
161.9140577975424
 20
122.00387862714712
 10
158.1640577975424
 20
122.00387862714706
 10
154.4140577975424
 20
122.00387862714706
 10
150.6640577975424
 20
122.003878627147
 10
162.4140577975424
 20
121.50387862714717
 10
162.4140577975424
 20
106.25387862714717
 10
173.9140577975424
 20
100.00000000000006
 10
173.9140577975424
 20
200.00000000000006
 10
173.9140577975424
 20
200.00000000000006
  0
LWPOLYLINE
  5
30
330
17
100
AcDbEntity
  8
BODY_OUTLINE
 62
1
100
AcDbPolyline
 90
9
 70
1
 10
176.9140577975424
 20
0.0
 10
173.9140577975424
 20
200.00000000000006
 10
30.414057797542398
 20
200.00000000000006
 10
2.572557797540128
 20
176.0
 10
0.0
 20
112.53997403138925
 10
0.1765087290457359
 20
107.85556209134745
 10
3.965866787465245
 20
50.00000000000003
 10
6.815057797542238
 20
9.040447976878568
 10
8.175057797542365
 20
0.0
  0
ENDSEC
  0
SECTION
  2
OBJECTS
  0
DICTIONARY
  5
A
330
0
100
AcDbDictionary
281
1
  3
ACAD_COLOR
350
B
  3
ACAD_GROUP
350
C
  3
ACAD_LAYOUT
350
D
  3
ACAD_MATERIAL
350
E
  3
ACAD_MLEADERSTYLE
350
F
  3
ACAD_MLINESTYLE
350
10
  3
ACAD_PLOTSETTINGS
350
11
  3
ACAD_PLOTSTYLENAME
350
12
  3
ACAD_SCALELIST
350
14
  3
ACAD_TABLESTYLE
350
15
  3
ACAD_VISUALSTYLE
350
16
  3
EZDXF_META
350
2D
  0
DICTIONARY
  5
B
330
A
100
AcDbDictionary
281
1
  0
DICTIONARY
  5
C
330
A
100
AcDbDictionary
281
1
  0
DICTIONARY
  5
D
330
A
100
AcDbDictionary
281
1
  3
Model
350
1A
  3
Layout1
350
1E
  0
DICTIONARY
  5
E
330
A
100
AcDbDictionary
281
1
  3
ByBlock
350
1F
  3
ByLayer
350
20
  3
Global
350
21
  0
DICTIONARY
  5
F
330
A
100
AcDbDictionary
281
1
  3
Standard
350
2C
  0
DICTIONARY
  5
10
330
A
100
AcDbDictionary
281
1
  3
Standard
350
22
  0
DICTIONARY
  5
11
330
A
100
AcDbDictionary
281
1
  0
ACDBDICTIONARYWDFLT
  5
12
330
A
100
AcDbDictionary
281
1
  3
Normal
350
13
100
AcDbDictionaryWithDefault
340
13
  0
ACDBPLACEHOLDER
  5
13
330
12
  0
DICTIONARY
  5
14
330
A
100
AcDbDictionary
281
1
  0
DICTIONARY
  5
15
330
A
100
AcDbDictionary
281
1
  0
DICTIONARY
  5
16
330
A
100
AcDbDictionary
281
1
  0
LAYOUT
  5
1A
330
D
100
AcDbPlotSettings
  1

  4
A3
  6

 40
7.5
 41
20.0
 42
7.5
 43
20.0
 44
420.0
 45
297.0
 46
0.0
 47
0.0
 48
0.0
 49
0.0
140
0.0
141
0.0
142
1.0
143
1.0
 70
1024
 72
1
 73
0
 74
5
  7

 75
16
 76
0
 77
2
 78
300
147
1.0
148
0.0
149
0.0
100
AcDbLayout
  1
Model
 70
1
 71
0
 10
0.0
 20
0.0
 11
420.0
 21
297.0
 12
0.0
 22
0.0
 32
0.0
 14
1e+20
 24
1e+20
 34
1e+20
 15
-1e+20
 25
-1e+20
 35
-1e+20
146
0.0
 13
0.0
 23
0.0
 33
0.0
 16
1.0
 26
0.0
 36
0.0
 17
0.0
 27
1.0
 37
0.0
 76
1
330
17
  0
LAYOUT
  5
1E
330
D
100
AcDbPlotSettings
  1

  4
A3
  6

 40
7.5
 41
20.0
 42
7.5
 43
20.0
 44
420.0
 45
297.0
 46
0.0
 47
0.0
 48
0.0
 49
0.0
140
0.0
141
0.0
142
1.0
143
1.0
 70
0
 72
1
 73
0
 74
5
  7

 75
16
 76
0
 77
2
 78
300
147
1.0
148
0.0
149
0.0
100
AcDbLayout
  1
Layout1
 70
1
 71
1
 10
0.0
 20
0.0
 11
420.0
 21
297.0
 12
0.0
 22
0.0
 32
0.0
 14
1e+20
 24
1e+20
 34
1e+20
 15
-1e+20
 25
-1e+20
 35
-1e+20
146
0.0
 13
0.0
 23
0.0
 33
0.0
 16
1.0
 26
0.0
 36
0.0
 17
0.0
 27
1.0
 37
0.0
 76
1
330
1B
  0
MATERIAL
  5
1F
102
{ACAD_REACTORS
330
E
102
}
330
E
100
AcDbMaterial
  1
ByBlock
  2

 70
0
 40
1.0
 71
1
 41
1.0
 91
-1023410177
 42
1.0
 72
1
  3

 73
1
 74
1
 75
1
 44
0.5
 73
0
 45
1.0
 46
1.0
 77
1
  4

 78
1
 79
1
170
1
 48
1.0
171
1
  6

172
1
173
1
174
1
140
1.0
141
1.0
175
1
  7

176
1
177
1
178
1
143
1.0
179
1
  8

270
1
271
1
272
1
145
1.0
146
1.0
273
1
  9

274
1
275
1
276
1
 42
1.0
 72
1
  3

 73
1
 74
1
 75
1
 94
63
  0
MATERIAL
  5
20
102
{ACAD_REACTORS
330
E
102
}
330
E
100
AcDbMaterial
  1
ByLayer
  2

 70
0
 40
1.0
 71
1
 41
1.0
 91
-1023410177
 42
1.0
 72
1
  3

 73
1
 74
1
 75
1
 44
0.5
 73
0
 45
1.0
 46
1.0
 77
1
  4

 78
1
 79
1
170
1
 48
1.0
171
1
  6

172
1
173
1
174
1
140
1.0
141
1.0
175
1
  7

176
1
177
1
178
1
143
1.0
179
1
  8

270
1
271
1
272
1
145
1.0
146
1.0
273
1
  9

274
1
275
1
276
1
 42
1.0
 72
1
  3

 73
1
 74
1
 75
1
 94
63
  0
MATERIAL
  5
21
102
{ACAD_REACTORS
330
E
102
}
330
E
100
AcDbMaterial
  1
Global
  2

 70
0
 40
1.0
 71
1
 41
1.0
 91
-1023410177
 42
1.0
 72
1
  3

 73
1
 74
1
 75
1
 44
0.5
 73
0
 45
1.0
 46
1.0
 77
1
  4

 78
1
 79
1
170
1
 48
1.0
171
1
  6

172
1
173
1
174
1
140
1.0
141
1.0
175
1
  7

176
1
177
1
178
1
143
1.0
179
1
  8

270
1
271
1
272
1
145
1.0
146
1.0
273
1
  9

274
1
275
1
276
1
 42
1.0
 72
1
  3

 73
1
 74
1
 75
1
 94
63
  0
MLINESTYLE
  5
22
102
{ACAD_REACTORS
330
10
102
}
330
10
100
AcDbMlineStyle
  2
Standard
 70
0
  3

 62
256
 51
90.0
 52
90.0
 71
2
 49
0.5
 62
256
  6
BYLAYER
 49
-0.5
 62
256
  6
BYLAYER
  0
MLEADERSTYLE
  5
2C
102
{ACAD_REACTORS
330
F
102
}
330
F
100
AcDbMLeaderStyle
179
2
170
2
171
1
172
0
 90
2
 40
0.0
 41
0.0
173
1
 91
-1056964608
 92
-2
290
1
 42
2.0
291
1
 43
8.0
  3
Standard
 44
4.0
300

342
29
174
1
175
1
176
0
178
1
 93
-1056964608
 45
4.0
292
0
297
0
 46
4.0
 94
-1056964608
 47
1.0
 49
1.0
140
1.0
294
1
141
0.0
177
0
142
1.0
295
0
296
0
143
3.75
271
0
272
9
273
9
  0
DICTIONARY
  5
2D
330
A
100
AcDbDictionary
280
1
281
1
  3
CREATED_BY_EZDXF
350
2E
  3
WRITTEN_BY_EZDXF
350
33
  0
DICTIONARYVAR
  5
2E
330
2D
100
DictionaryVariables
280
0
  1
1.4.3 @ 2025-12-11T16:10:03.852288+00:00
  0
DICTIONARYVAR
  5
33
330
2D
100
DictionaryVariables
280
0
  1
1.4.3 @ 2025-12-11T16:10:03.861717+00:00
  0
ENDSEC
  0
EOF
