<svg xmlns="http://www.w3.org/2000/svg" viewBox="0 0 800 600">
  <rect width="100%" height="100%" fill="#f8fafc"/>
  <path d="M 20.5 88.5 L 20.0 89.0 L 20.0 89.4 L 20.0 89.9 L 20.0 90.3 L 20.0 90.8 L 20.0 91.2 L 20.0 91.7 L 20.0 92.1 L 20.0 92.6 L 20.0 93.0 L 20.0 93.5 L 20.0 93.9 L 20.0 94.4 L 20.0 94.8 L 20.0 95.3 L 20.0 95.7 L 20.0 96.2 L 20.0 96.7 L 20.0 97.1 L 20.0 97.6 L 20.0 98.0 L 20.0 98.5 L 20.0 98.9 L 20.0 99.4 L 20.0 99.8 L 20.0 100.3 L 20.0 100.7 L 20.0 101.2 L 20.0 101.6 L 20.0 102.1 L 20.0 102.5 L 20.0 103.0 L 20.0 103.4 L 20.0 103.9 L 20.0 104.3 L 20.0 104.8 L 20.0 105.2 L 20.0 105.7 L 20.0 106.1 L 20.0 106.6 L 20.0 107.0 L 20.0 107.5 L 20.0 107.9 L 20.0 108.4 L 20.0 108.8 L 20.0 109.3 L 20.0 109.7 L 20.0 110.2 L 20.0 110.6 L 20.0 111.1 L 20.0 111.5 L 20.0 112.0 L 20.0 112.4 L 20.0 112.9 L 20.0 113.3 L 20.0 113.8 L 20.0 114.3 L 20.0 114.7 L 20.0 115.2 L 20.0 115.6 L 20.0 116.1 L 20.0 116.5 L 20.0 117.0 L 20.0 117.4 L 20.0 117.9 L 20.0 118.3 L 20.0 118.8 L 20.0 119.2 L 20.0 119.7 L 20.0 120.1 L 20.0 120.6 L 20.0 121.0 L 20.0 121.5 L 20.0 121.9 L 20.0 122.4 L 20.0 122.8 L 20.0 123.3 L 20.0 123.7 L 20.0 124.2 L 20.0 124.6 L 20.0 125.1 L 20.0 125.5 L 20.0 126.0 L 20.0 126.4 L 20.0 126.9 L 20.0 127.3 L 20.0 127.8 L 20.0 128.2 L 20.0 128.7 L 20.0 129.1 L 20.0 129.6 L 20.0 130.0 L 20.0 130.5 L 20.0 131.0 L 20.0 131.4 L 20.0 131.9 L 20.0 132.3 L 20.0 132.8 L 20.0 133.2 L 20.0 133.7 L 20.0 134.1 L 20.0 134.6 L 20.0 135.0 L 20.0 135.5 L 20.0 135.9 L 20.0 136.4 L 20.0 136.8 L 20.0 137.3 L 20.0 137.7 L 20.0 138.2 L 20.0 138.6 L 20.0 139.1 L 20.0 139.5 L 20.0 140.0 L 20.0 140.4 L 20.0 140.9 L 20.0 141.3 L 20.0 141.8 L 20.0 142.2 L 20.0 142.7 L 20.0 143.1 L 20.0 143.6 L 20.0 144.0 L 20.0 144.5 L 20.0 144.9 L 20.0 145.4 L 20.0 145.8 L 20.0 146.3 L 20.0 146.7 L 20.0 147.2 L 20.0 147.6 L 20.0 148.1 L 20.0 148.6 L 20.0 149.0 L 20.0 149.5 L 20.0 149.9 L 20.0 150.4 L 20.0 150.8 L 20.0 151.3 L 20.0 151.7 L 20.0 152.2 L 20.0 152.6 L 20.0 153.1 L 20.0 153.5 L 20.0 154.0 L 20.0 154.4 L 20.0 154.9 L 20.0 155.3 L 20.0 155.8 L 20.0 156.2 L 20.0 156.7 L 20.0 157.1 L 20.0 157.6 L 20.0 158.0 L 20.0 158.5 L 20.0 158.9 L 20.0 159.4 L 20.0 159.8 L 20.0 160.3 L 20.0 160.7 L 20.0 161.2 L 20.0 161.6 L 20.0 162.1 L 20.0 162.5 L 20.0 163.0 L 20.0 163.4 L 20.0 163.9 L 20.0 164.3 L 20.0 164.8 L 20.0 165.2 L 20.0 165.7 L 20.0 166.2 L 20.0 166.6 L 20.0 167.1 L 20.0 167.5 L 20.0 168.0 L 20.0 168.4 L 20.0 168.9 L 20.0 169.3 L 20.0 169.8 L 20.0 170.2 L 20.0 170.7 L 20.0 171.1 L 20.0 171.6 L 20.0 172.0 L 20.0 172.5 L 20.0 172.9 L 20.0 173.4 L 20.0 173.8 L 20.0 174.3 L 20.0 174.7 L 20.0 175.2 L 20.0 175.6 L 20.0 176.1 L 20.0 176.5 L 20.0 177.0 L 20.0 177.4 L 20.0 177.9 L 20.0 178.3 L 20.0 178.8 L 20.0 179.2 L 20.0 179.7 L 20.0 180.1 L 20.0 180.6 L 20.0 181.0 L 20.0 181.5 L 20.0 181.9 L 20.0 182.4 L 20.0 182.9 L 20.0 183.3 L 20.0 183.8 L 20.0 184.2 L 20.0 184.7 L 20.0 185.1 L 20.0 185.6 L 20.0 186.0 L 20.0 186.5 L 20.0 186.9 L 20.0 187.4 L 20.0 187.8 L 20.0 188.3 L 20.0 188.7 L 20.0 189.2 L 20.0 189.6 L 20.0 190.1 L 20.0 190.5 L 20.0 191.0 L 20.0 191.4 L 20.0 191.9 L 20.0 192.3 L 20.0 192.8 L 20.0 193.2 L 20.0 193.7 L 20.0 194.1 L 20.0 194.6 L 20.0 195.0 L 20.0 195.5 L 20.0 195.9 L 20.0 196.4 L 20.0 196.8 L 20.0 197.3 L 20.0 197.7 L 20.0 198.2 L 20.0 198.6 L 20.0 199.1 L 20.0 199.5 L 20.0 200.0 L 20.0 200.5 L 20.0 200.9 L 20.0 201.4 L 20.0 201.8 L 20.0 202.3 L 20.0 202.7 L 20.0 203.2 L 20.0 203.6 L 20.0 204.1 L 20.0 204.5 L 20.0 205.0 L 20.0 205.4 L 20.0 205.9 L 20.0 206.3 L 20.0 206.8 L 20.0 207.2 L 20.0 207.7 L 20.0 208.1 L 20.0 208.6 L 20.0 209.0 L 20.0 209.5 L 20.0 209.9 L 20.0 210.4 L 20.0 210.8 L 20.0 211.3 L 20.0 211.7 L 20.0 212.2 L 20.0 212.6 L 20.0 213.1 L 20.0 213.5 L 20.0 214.0 L 20.0 214.4 L 20.0 214.9 L 20.0 215.3 L 20.0 215.8 L 20.0 216.2 L 20.0 216.7 L 20.0 217.1 L 20.0 217.6 L 20.0 218.1 L 20.0 218.5 L 20.0 219.0 L 20.0 219.4 L 20.0 219.9 L 20.0 220.3 L 20.0 220.8 L 20.0 221.2 L 20.0 221.7 L 20.0 222.1 L 20.0 222.6 L 20.0 223.0 L 20.0 223.5 L 20.0 223.9 L 20.0 224.4 L 20.0 224.8 L 20.0 225.3 L 20.0 225.7 L 20.0 226.2 L 20.0 226.6 L 20.0 227.1 L 20.0 227.5 L 20.0 228.0 L 20.0 228.4 L 20.0 228.9 L 20.0 229.3 L 20.0 229.8 L 20.0 230.2 L 20.0 230.7 L 20.0 231.1 L 20.0 231.6 L 20.0 232.0 L 20.0 232.5 L 20.0 232.9 L 20.0 233.4 L 20.0 233.8 L 20.0 234.3 L 20.0 234.8 L 20.0 235.2 L 20.0 235.7 L 20.0 236.1 L 20.0 236.6 L 20.0 237.0 L 20.0 237.5 L 20.0 237.9 L 20.0 238.4 L 20.0 238.8 L 20.0 239.3 L 20.0 239.7 L 20.0 240.2 L 20.0 240.6 L 20.0 241.1 L 20.0 241.5 L 20.0 242.0 L 20.0 242.4 L 20.0 242.9 L 20.0 243.3 L 20.0 243.8 L 20.0 244.2 L 20.0 244.7 L 20.0 245.1 L 20.0 245.6 L 20.0 246.0 L 20.0 246.5 L 20.0 246.9 L 20.0 247.4 L 20.0 247.8 L 20.0 248.3 L 20.0 248.7 L 20.0 249.2 L 20.0 249.6 L 20.0 250.1 L 20.0 250.5 L 20.0 251.0 L 20.0 251.4 L 20.0 251.9 L 20.0 252.4 L 20.0 252.8 L 20.0 253.3 L 20.0 253.7 L 20.0 254.2 L 20.0 254.6 L 20.0 255.1 L 20.0 255.5 L 20.0 256.0 L 20.0 256.4 L 20.0 256.9 L 20.0 257.3 L 20.0 257.8 L 20.0 258.2 L 20.0 258.7 L 20.0 259.1 L 20.0 259.6 L 20.0 260.0 L 20.0 260.5 L 20.0 260.9 L 20.0 261.4 L 20.0 261.8 L 20.0 262.3 L 20.0 262.7 L 20.0 263.2 L 20.0 263.6 L 20.0 264.1 L 20.0 264.5 L 20.0 265.0 L 20.0 265.4 L 20.0 265.9 L 20.0 266.3 L 20.0 266.8 L 20.0 267.2 L 20.0 267.7 L 20.0 268.1 L 20.0 268.6 L 20.0 269.0 L 20.0 269.5 L 20.0 270.0 L 20.0 270.4 L 20.0 270.9 L 20.0 271.3 L 20.0 271.8 L 20.0 272.2 L 20.0 272.7 L 20.0 273.1 L 20.0 273.6 L 20.0 274.0 L 20.0 274.5 L 20.0 274.9 L 20.0 275.4 L 20.0 275.8 L 20.0 276.3 L 20.0 276.7 L 20.0 277.2 L 20.0 277.6 L 20.0 278.1 L 20.0 278.5 L 20.0 279.0 L 20.0 279.4 L 20.0 279.9 L 20.0 280.3 L 20.0 280.8 L 20.0 281.2 L 20.0 281.7 L 20.0 282.1 L 20.0 282.6 L 20.0 283.0 L 20.0 283.5 L 20.0 283.9 L 20.0 284.4 L 20.0 284.8 L 20.0 285.3 L 20.0 285.7 L 20.0 286.2 L 20.0 286.7 L 20.0 287.1 L 20.0 287.6 L 20.0 288.0 L 20.0 288.5 L 20.0 288.9 L 20.0 289.4 L 20.0 289.8 L 20.0 290.3 L 20.0 290.7 L 20.0 291.2 L 20.0 291.6 L 20.0 292.1 L 20.0 292.5 L 20.0 293.0 L 20.0 293.4 L 20.0 293.9 L 20.0 294.3 L 20.0 294.8 L 20.0 295.2 L 20.0 295.7 L 20.0 296.1 L 20.0 296.6 L 20.0 297.0 L 20.0 297.5 L 20.0 297.9 L 20.0 298.4 L 20.0 298.8 L 20.0 299.3 L 20.0 299.7 L 20.0 300.2 L 20.0 300.6 L 20.0 301.1 L 20.0 301.5 L 20.0 302.0 L 20.0 302.4 L 20.0 302.9 L 20.0 303.3 L 20.0 303.8 L 20.0 304.3 L 20.0 304.7 L 20.0 305.2 L 20.0 305.6 L 20.0 306.1 L 20.0 306.5 L 20.0 307.0 L 20.0 307.4 L 20.0 307.9 L 20.0 308.3 L 20.0 308.8 L 20.0 309.2 L 20.0 309.7 L 20.0 310.1 L 20.0 310.6 L 20.0 311.0 L 20.0 311.5 L 20.0 311.9 L 20.0 312.4 L 20.0 312.8 L 20.0 313.3 L 20.0 313.7 L 20.0 314.2 L 20.0 314.6 L 20.0 315.1 L 20.0 315.5 L 20.0 316.0 L 20.0 316.4 L 20.0 316.9 L 20.0 317.3 L 20.0 317.8 L 20.0 318.2 L 20.0 318.7 L 20.0 319.1 L 20.0 319.6 L 20.0 320.0 L 20.0 320.5 L 20.0 321.0 L 20.0 321.4 L 20.0 321.9 L 20.0 322.3 L 20.0 322.8 L 20.0 323.2 L 20.0 323.7 L 20.0 324.1 L 20.0 324.6 L 20.0 325.0 L 20.0 325.5 L 20.0 325.9 L 20.0 326.4 L 20.0 326.8 L 20.0 327.3 L 20.0 327.7 L 20.0 328.2 L 20.0 328.6 L 20.0 329.1 L 20.0 329.5 L 20.0 330.0 L 20.0 330.4 L 20.0 330.9 L 20.0 331.3 L 20.0 331.8 L 20.0 332.2 L 20.0 332.7 L 20.0 333.1 L 20.0 333.6 L 20.0 334.0 L 20.0 334.5 L 20.0 334.9 L 20.0 335.4 L 20.0 335.8 L 20.0 336.3 L 20.0 336.7 L 20.0 337.2 L 20.0 337.6 L 20.0 338.1 L 20.0 338.6 L 20.0 339.0 L 20.0 339.5 L 20.0 339.9 L 20.0 340.4 L 20.0 340.8 L 20.0 341.3 L 20.0 341.7 L 20.0 342.2 L 20.0 342.6 L 20.0 343.1 L 20.0 343.5 L 20.0 344.0 L 20.0 344.4 L 20.0 344.9 L 20.0 345.3 L 20.0 345.8 L 20.0 346.2 L 20.0 346.7 L 20.0 347.1 L 20.0 347.6 L 20.0 348.0 L 20.0 348.5 L 20.0 348.9 L 20.0 349.4 L 20.0 349.8 L 20.0 350.3 L 20.0 350.7 L 20.0 351.2 L 20.0 351.6 L 20.0 352.1 L 20.0 352.5 L 20.0 353.0 L 20.0 353.4 L 20.0 353.9 L 20.0 354.3 L 20.0 354.8 L 20.0 355.2 L 20.0 355.7 L 20.0 356.2 L 20.0 356.6 L 20.0 357.1 L 20.0 357.5 L 20.0 358.0 L 20.0 358.4 L 20.0 358.9 L 20.0 359.3 L 20.0 359.8 L 20.0 360.2 L 20.0 360.7 L 20.0 361.1 L 20.0 361.6 L 20.0 362.0 L 20.0 362.5 L 20.0 362.9 L 20.0 363.4 L 20.0 363.8 L 20.0 364.3 L 20.0 364.7 L 20.0 365.2 L 20.0 365.6 L 20.0 366.1 L 20.0 366.5 L 20.0 367.0 L 20.0 367.4 L 20.0 367.9 L 20.0 368.3 L 20.0 368.8 L 20.0 369.2 L 20.0 369.7 L 20.0 370.1 L 20.0 370.6 L 20.0 371.0 L 20.0 371.5 L 20.0 371.9 L 20.0 372.4 L 20.0 372.9 L 20.0 373.3 L 20.0 373.8 L 20.0 374.2 L 20.0 374.7 L 20.0 375.1 L 20.0 375.6 L 20.0 376.0 L 20.0 376.5 L 20.0 376.9 L 20.0 377.4 L 20.0 377.8 L 20.0 378.3 L 20.0 378.7 L 20.0 379.2 L 20.0 379.6 L 20.0 380.1 L 20.0 380.5 L 20.0 381.0 L 20.0 381.4 L 20.0 381.9 L 20.0 382.3 L 20.0 382.8 L 20.0 383.2 L 20.0 383.7 L 20.0 384.1 L 20.0 384.6 L 20.0 385.0 L 20.0 385.5 L 20.0 385.9 L 20.0 386.4 L 20.0 386.8 L 20.0 387.3 L 20.0 387.7 L 20.0 388.2 L 20.0 388.6 L 20.0 389.1 L 20.0 389.5 L 20.0 390.0 L 20.0 390.5 L 20.0 390.9 L 20.0 391.4 L 20.0 391.8 L 20.0 392.3 L 20.0 392.7 L 20.0 393.2 L 20.0 393.6 L 20.0 394.1 L 20.0 394.5 L 20.0 395.0 L 20.0 395.4 L 20.0 395.9 L 20.0 396.3 L 20.0 396.8 L 20.0 397.2 L 20.0 397.7 L 20.0 398.1 L 20.0 398.6 L 20.0 399.0 L 20.0 399.5 L 20.0 399.9 L 20.0 400.4 L 20.0 400.8 L 20.0 401.3 L 20.0 401.7 L 20.0 402.2 L 20.0 402.6 L 20.0 403.1 L 20.0 403.5 L 20.0 404.0 L 20.0 404.4 L 20.0 404.9 L 20.0 405.3 L 20.0 405.8 L 20.0 406.2 L 20.0 406.7 L 20.0 407.1 L 20.0 407.6 L 20.0 408.1 L 20.0 408.5 L 20.0 409.0 L 20.0 409.4 L 20.0 409.9 L 20.0 410.3 L 20.0 410.8 L 20.0 411.2 L 20.0 411.7 L 20.0 412.1 L 20.0 412.6 L 20.0 413.0 L 20.0 413.5 L 20.0 413.9 L 20.0 414.4 L 20.0 414.8 L 20.0 415.3 L 20.0 415.7 L 20.0 416.2 L 20.0 416.6 L 20.0 417.1 L 20.0 417.5 L 20.0 418.0 L 20.0 418.4 L 20.0 418.9 L 20.0 419.3 L 20.0 419.8 L 20.0 420.2 L 20.0 420.7 L 20.0 421.1 L 20.0 421.6 L 20.0 422.0 L 20.0 422.5 L 20.0 422.9 L 20.0 423.4 L 20.0 423.8 L 20.0 424.3 L 20.0 424.8 L 20.0 425.2 L 20.0 425.7 L 20.0 426.1 L 20.0 426.6 L 20.0 427.0 L 20.0 427.5 L 20.0 427.9 L 20.0 428.4 L 20.0 428.8 L 20.0 429.3 L 20.0 429.7 L 20.0 430.2 L 20.0 430.6 L 20.0 431.1 L 20.0 431.5 L 20.0 432.0 L 20.0 432.4 L 20.0 432.9 L 20.0 433.3 L 20.0 433.8 L 20.0 434.2 L 20.0 434.7 L 20.0 435.1 L 20.0 435.6 L 20.0 436.0 L 20.0 436.5 L 20.0 436.9 L 20.0 437.4 L 20.0 437.8 L 20.0 438.3 L 20.0 438.7 L 20.0 439.2 L 20.0 439.6 L 20.0 440.1 L 20.0 440.5 L 20.0 441.0 L 20.0 441.4 L 20.0 441.9 L 20.0 442.4 L 20.0 442.8 L 20.0 443.3 L 20.0 443.7 L 20.0 444.2 L 20.0 444.6 L 20.0 445.1 L 20.0 445.5 L 20.0 446.0 L 20.0 446.4 L 20.0 446.9 L 20.0 447.3 L 20.0 447.8 L 20.0 448.2 L 20.0 448.7 L 20.0 449.1 L 20.0 449.6 L 20.0 450.0 L 20.0 450.5 L 20.0 450.9 L 20.0 451.4 L 20.0 451.8 L 20.0 452.3 L 20.0 452.7 L 20.0 453.2 L 20.0 453.6 L 20.0 454.1 L 20.0 454.5 L 20.0 455.0 L 20.0 455.4 L 20.0 455.9 L 20.0 456.3 L 20.0 456.8 L 20.0 457.2 L 20.0 457.7 L 20.0 458.1 L 20.0 458.6 L 20.0 459.0 L 20.0 459.5 L 20.0 460.0 L 20.0 460.4 L 20.0 460.9 L 20.0 461.3 L 20.0 461.8 L 20.0 462.2 L 20.0 462.7 L 20.0 463.1 L 20.0 463.6 L 20.0 464.0 L 20.0 464.5 L 20.0 464.9 L 20.0 465.4 L 20.0 465.8 L 20.0 466.3 L 20.0 466.7 L 20.0 467.2 L 20.0 467.6 L 20.0 468.1 L 20.0 468.5 L 20.0 469.0 L 20.0 469.4 L 20.0 469.9 L 20.0 470.3 L 20.0 470.8 L 20.0 471.2 L 20.0 471.7 L 20.0 472.1 L 20.0 472.6 L 20.0 473.0 L 20.0 473.5 L 20.0 473.9 L 20.0 474.4 L 20.0 474.8 L 20.0 475.3 L 20.0 475.7 L 20.0 476.2 L 20.0 476.7 L 20.0 477.1 L 20.0 477.6 L 20.0 478.0 L 20.0 478.5 L 20.0 478.9 L 20.0 479.4 L 20.0 479.8 L 20.0 480.3 L 20.0 480.7 L 20.0 481.2 L 20.0 481.6 L 20.0 482.1 L 20.0 482.5 L 20.0 483.0 L 20.0 483.4 L 20.0 483.9 L 20.0 484.3 L 20.0 484.8 L 20.0 485.2 L 20.0 485.7 L 20.0 486.1 L 20.0 486.6 L 20.0 487.0 L 20.0 487.5 L 20.0 487.9 L 20.0 488.4 L 20.0 488.8 L 20.0 489.3 L 20.0 489.7 L 20.0 490.2 L 20.0 490.6 L 20.0 491.1 L 20.0 491.5 L 20.0 492.0 L 20.0 492.4 L 20.0 492.9 L 20.0 493.3 L 20.0 493.8 L 20.0 494.3 L 20.0 494.7 L 20.0 495.2 L 20.0 495.6 L 20.0 496.1 L 20.0 496.5 L 20.0 497.0 L 20.0 497.4 L 20.0 497.9 L 20.0 498.3 L 20.0 498.8 L 20.0 499.2 L 20.0 499.7 L 20.0 500.1 L 20.0 500.6 L 20.0 501.0 L 20.0 501.5 L 20.0 501.9 L 20.0 502.4 L 20.0 502.8 L 20.0 503.3 L 20.0 503.7 L 20.0 504.2 L 20.0 504.6 L 20.0 505.1 L 20.0 505.5 L 20.0 506.0 L 20.0 506.4 L 20.0 506.9 L 20.0 507.3 L 20.0 507.8 L 20.0 508.2 L 20.0 508.7 L 20.0 509.1 L 20.0 509.6 L 20.0 510.0 L 20.0 510.5 L 20.0 511.0 L 20.0 511.4 L 20.0 511.9 L 20.0 512.3 L 20.0 512.8 L 20.0 513.2 L 20.0 513.7 L 20.0 514.1 L 20.0 514.6 L 20.0 515.0 L 20.0 515.5 L 20.0 515.9 L 20.0 516.4 L 20.0 516.8 L 20.0 517.3 L 20.0 517.7 L 20.0 518.2 L 20.0 518.6 L 20.0 519.1 L 20.0 519.5 L 20.0 520.0 L 20.0 520.4 L 20.0 520.9 L 20.0 521.3 L 20.0 521.8 L 20.0 522.2 L 20.0 522.7 L 20.0 523.1 L 20.0 523.6 L 20.0 524.0 L 20.0 524.5 L 20.0 524.9 L 20.0 525.4 L 20.0 525.8 L 20.0 526.3 L 20.0 526.7 L 20.0 527.2 L 20.0 527.6 L 20.0 528.1 L 20.0 528.6 L 20.0 529.0 L 20.0 529.5 L 20.0 529.9 L 20.0 530.4 L 20.0 530.8 L 20.0 531.3 L 20.0 531.7 L 20.0 532.2 L 20.0 532.6 L 20.0 533.1 L 20.0 533.5 L 20.0 534.0 L 20.0 534.4 L 20.0 534.9 L 20.0 535.3 L 20.0 535.8 L 20.0 536.2 L 20.0 536.7 L 20.0 537.1 L 20.0 537.6 L 20.0 538.0 L 20.0 538.5 L 20.0 538.9 L 20.0 539.4 L 20.0 539.8 L 20.0 540.3 L 20.0 540.7 L 20.0 541.2 L 20.0 541.6 L 20.0 542.1 L 20.0 542.5 L 20.0 543.0 L 20.0 543.4 L 20.0 543.9 L 20.0 544.3 L 20.0 544.8 L 20.0 545.2 L 20.0 545.7 L 20.0 546.2 L 20.0 546.6 L 20.0 547.1 L 20.0 547.5 L 20.0 548.0 L 20.0 548.4 L 20.0 548.9 L 20.0 549.3 L 20.0 549.8 L 20.0 550.2 L 20.0 550.7 L 20.0 551.1 L 20.0 551.6 L 20.0 552.0 L 20.0 552.5 L 20.0 552.9 L 20.0 553.4 L 20.0 553.8 L 20.0 554.3 L 20.0 554.7 L 20.0 555.2 L 20.0 555.6 L 20.0 556.1 L 20.0 556.5 L 20.0 557.0 L 20.0 557.4 L 20.0 557.9 L 20.0 558.3 L 20.0 558.8 L 20.0 559.2 L 20.0 559.7 L 20.0 560.1 L 20.0 560.6 L 20.0 561.0 L 20.0 561.5 L 20.0 561.9 L 20.0 562.4 L 20.0 562.9 L 20.0 563.3 L 20.0 563.8 L 20.0 564.2 L 20.0 564.7 L 20.0 565.1 L 20.0 565.6 L 20.0 566.0 L 20.0 566.5 L 20.0 566.9 L 20.0 567.4 L 20.0 567.8 L 20.0 568.3 L 20.0 568.7 L 20.0 569.2 L 20.0 569.6 L 20.0 570.1 L 20.0 570.5 L 20.0 571.0 L 20.0 571.4 L 20.0 571.9 L 20.0 572.3 L 20.0 572.8 L 20.0 573.2 L 20.0 573.7 L 20.0 574.1 L 20.0 574.6 L 20.0 575.0 L 20.0 575.5 L 20.0 575.9 L 20.0 576.4 L 20.0 576.8 L 20.0 577.3 L 20.0 577.7 L 20.0 578.2 L 20.0 578.6 L 20.0 579.1 L 20.0 579.5 L 20.5 580.0 L 20.9 580.0 L 21.4 580.0 L 21.8 580.0 L 22.3 580.0 L 22.7 580.0 L 23.2 580.0 L 23.6 580.0 L 24.1 580.0 L 24.5 580.0 L 25.0 580.0 L 25.4 580.0 L 25.9 580.0 L 26.3 580.0 L 26.8 580.0 L 27.2 580.0 L 27.7 580.0 L 28.1 580.0 L 28.6 580.0 L 29.0 580.0 L 29.5 580.0 L 29.9 580.0 L 30.4 580.0 L 30.8 580.0 L 31.3 580.0 L 31.7 580.0 L 32.2 580.0 L 32.6 580.0 L 33.1 580.0 L 33.5 580.0 L 34.0 580.0 L 34.4 580.0 L 34.9 580.0 L 35.3 580.0 L 35.8 580.0 L 36.2 580.0 L 36.7 580.0 L 37.1 580.0 L 37.6 580.0 L 38.1 580.0 L 38.5 580.0 L 39.0 580.0 L 39.4 580.0 L 39.9 580.0 L 40.3 580.0 L 40.8 580.0 L 41.2 580.0 L 41.7 580.0 L 42.1 580.0 L 42.6 580.0 L 43.0 580.0 L 43.5 580.0 L 43.9 580.0 L 44.4 580.0 L 44.8 580.0 L 45.3 580.0 L 45.7 580.0 L 46.2 580.0 L 46.6 580.0 L 47.1 580.0 L 47.5 580.0 L 48.0 580.0 L 48.4 580.0 L 48.9 580.0 L 49.3 580.0 L 49.8 580.0 L 50.2 580.0 L 50.7 580.0 L 51.1 580.0 L 51.6 580.0 L 52.0 580.0 L 52.5 580.0 L 52.9 580.0 L 53.4 580.0 L 53.8 580.0 L 54.3 580.0 L 54.8 580.0 L 55.2 580.0 L 55.7 580.0 L 56.1 580.0 L 56.6 580.0 L 57.0 580.0 L 57.5 580.0 L 57.9 580.0 L 58.4 580.0 L 58.8 580.0 L 59.3 580.0 L 59.7 580.0 L 60.2 580.0 L 60.6 580.0 L 61.1 580.0 L 61.5 580.0 L 62.0 580.0 L 62.4 580.0 L 62.9 580.0 L 63.3 580.0 L 63.8 580.0 L 64.2 580.0 L 64.7 580.0 L 65.1 580.0 L 65.6 580.0 L 66.0 580.0 L 66.5 580.0 L 66.9 580.0 L 67.4 580.0 L 67.8 580.0 L 68.3 580.0 L 68.7 580.0 L 69.2 580.0 L 69.6 580.0 L 70.1 580.0 L 70.5 580.0 L 71.0 580.0 L 71.4 580.0 L 71.9 580.0 L 72.4 580.0 L 72.8 580.0 L 73.3 580.0 L 73.7 580.0 L 74.2 580.0 L 74.6 580.0 L 75.1 580.0 L 75.5 580.0 L 76.0 580.0 L 76.4 580.0 L 76.9 580.0 L 77.3 580.0 L 77.8 580.0 L 78.2 580.0 L 78.7 580.0 L 79.1 580.0 L 79.6 580.0 L 80.0 580.0 L 80.5 580.0 L 80.9 580.0 L 81.4 580.0 L 81.8 580.0 L 82.3 580.0 L 82.7 580.0 L 83.2 580.0 L 83.6 580.0 L 84.1 580.0 L 84.5 580.0 L 85.0 580.0 L 85.4 580.0 L 85.9 580.0 L 86.3 580.0 L 86.8 580.0 L 87.2 580.0 L 87.7 580.0 L 88.1 580.0 L 88.6 580.0 L 89.0 580.0 L 89.5 580.0 L 90.0 580.0 L 90.4 580.0 L 90.9 580.0 L 91.3 580.0 L 91.8 580.0 L 92.2 580.0 L 92.7 580.0 L 93.1 580.0 L 93.6 580.0 L 94.0 580.0 L 94.5 580.0 L 94.9 580.0 L 95.4 580.0 L 95.8 580.0 L 96.3 580.0 L 96.7 580.0 L 97.2 580.0 L 97.6 580.0 L 98.1 580.0 L 98.5 580.0 L 99.0 580.0 L 99.4 580.0 L 99.9 580.0 L 100.3 580.0 L 100.8 580.0 L 101.2 580.0 L 101.7 580.0 L 102.1 580.0 L 102.6 580.0 L 103.0 580.0 L 103.5 580.0 L 103.9 580.0 L 104.4 580.0 L 104.8 580.0 L 105.3 580.0 L 105.7 580.0 L 106.2 580.0 L 106.7 580.0 L 107.1 580.0 L 107.6 580.0 L 108.0 580.0 L 108.5 580.0 L 108.9 580.0 L 109.4 580.0 L 109.8 580.0 L 110.3 580.0 L 110.7 580.0 L 111.2 580.0 L 111.6 580.0 L 112.1 580.0 L 112.5 580.0 L 113.0 580.0 L 113.4 580.0 L 113.9 580.0 L 114.3 580.0 L 114.8 580.0 L 115.2 580.0 L 115.7 580.0 L 116.1 580.0 L 116.6 580.0 L 117.0 580.0 L 117.5 580.0 L 117.9 580.0 L 118.4 580.0 L 118.8 580.0 L 119.3 580.0 L 119.7 580.0 L 120.2 580.0 L 120.6 580.0 L 121.1 580.0 L 121.5 580.0 L 122.0 580.0 L 122.4 580.0 L 122.9 580.0 L 123.3 580.0 L 123.8 580.0 L 124.3 580.0 L 124.7 580.0 L 125.2 580.0 L 125.6 580.0 L 126.1 580.0 L 126.5 580.0 L 127.0 580.0 L 127.4 580.0 L 127.9 580.0 L 128.3 580.0 L 128.8 580.0 L 129.2 580.0 L 129.7 580.0 L 130.1 580.0 L 130.6 580.0 L 131.0 580.0 L 131.5 580.0 L 131.9 580.0 L 132.4 580.0 L 132.8 580.0 L 133.3 580.0 L 133.7 580.0 L 134.2 580.0 L 134.6 580.0 L 135.1 580.0 L 135.5 580.0 L 136.0 580.0 L 136.4 580.0 L 136.9 580.0 L 137.3 580.0 L 137.8 580.0 L 138.2 580.0 L 138.7 580.0 L 139.1 580.0 L 139.6 580.0 L 140.0 580.0 L 140.5 580.0 L 141.0 580.0 L 141.4 580.0 L 141.9 580.0 L 142.3 580.0 L 142.8 580.0 L 143.2 580.0 L 143.7 580.0 L 144.1 580.0 L 144.6 580.0 L 145.0 580.0 L 145.5 580.0 L 145.9 580.0 L 146.4 580.0 L 146.8 580.0 L 147.3 580.0 L 147.7 580.0 L 148.2 580.0 L 148.6 580.0 L 149.1 580.0 L 149.5 580.0 L 150.0 580.0 L 150.4 580.0 L 150.9 580.0 L 151.3 580.0 L 151.8 580.0 L 152.2 580.0 L 152.7 580.0 L 153.1 580.0 L 153.6 580.0 L 154.0 580.0 L 154.5 580.0 L 154.9 580.0 L 155.4 580.0 L 155.8 580.0 L 156.3 580.0 L 156.7 580.0 L 157.2 580.0 L 157.6 580.0 L 158.1 580.0 L 158.6 580.0 L 159.0 580.0 L 159.5 580.0 L 159.9 580.0 L 160.4 580.0 L 160.8 580.0 L 161.3 580.0 L 161.7 580.0 L 162.2 580.0 L 162.6 580.0 L 163.1 580.0 L 163.5 580.0 L 164.0 580.0 L 164.4 580.0 L 164.9 580.0 L 165.3 580.0 L 165.8 580.0 L 166.2 580.0 L 166.7 580.0 L 167.1 580.0 L 167.6 580.0 L 168.0 580.0 L 168.5 580.0 L 168.9 580.0 L 169.4 580.0 L 169.8 580.0 L 170.3 580.0 L 170.7 580.0 L 171.2 580.0 L 171.6 580.0 L 172.1 580.0 L 172.5 580.0 L 173.0 580.0 L 173.4 580.0 L 173.9 580.0 L 174.3 580.0 L 174.8 580.0 L 175.2 580.0 L 175.7 580.0 L 176.2 580.0 L 176.6 580.0 L 177.1 580.0 L 177.5 580.0 L 178.0 580.0 L 178.4 580.0 L 178.9 580.0 L 179.3 580.0 L 179.8 580.0 L 180.2 580.0 L 180.7 580.0 L 181.1 580.0 L 181.6 580.0 L 182.0 580.0 L 182.5 580.0 L 182.9 580.0 L 183.4 580.0 L 183.8 580.0 L 184.3 580.0 L 184.7 580.0 L 185.2 580.0 L 185.6 580.0 L 186.1 580.0 L 186.5 580.0 L 187.0 580.0 L 187.4 580.0 L 187.9 580.0 L 188.3 580.0 L 188.8 580.0 L 189.2 580.0 L 189.7 580.0 L 190.1 580.0 L 190.6 580.0 L 191.0 580.0 L 191.5 580.0 L 191.9 580.0 L 192.4 580.0 L 192.9 580.0 L 193.3 580.0 L 193.8 580.0 L 194.2 580.0 L 194.7 580.0 L 195.1 580.0 L 195.6 580.0 L 196.0 580.0 L 196.5 580.0 L 196.9 580.0 L 197.4 580.0 L 197.8 580.0 L 198.3 580.0 L 198.7 580.0 L 199.2 580.0 L 199.6 580.0 L 200.1 580.0 L 200.5 580.0 L 201.0 580.0 L 201.4 580.0 L 201.9 580.0 L 202.3 580.0 L 202.8 580.0 L 203.2 580.0 L 203.7 580.0 L 204.1 580.0 L 204.6 580.0 L 205.0 580.0 L 205.5 580.0 L 205.9 580.0 L 206.4 580.0 L 206.8 580.0 L 207.3 580.0 L 207.7 580.0 L 208.2 580.0 L 208.6 580.0 L 209.1 580.0 L 209.5 580.0 L 210.0 580.0 L 210.5 580.0 L 210.9 580.0 L 211.4 580.0 L 211.8 580.0 L 212.3 580.0 L 212.7 580.0 L 213.2 580.0 L 213.6 580.0 L 214.1 580.0 L 214.5 580.0 L 215.0 580.0 L 215.4 580.0 L 215.9 580.0 L 216.3 580.0 L 216.8 580.0 L 217.2 580.0 L 217.7 580.0 L 218.1 580.0 L 218.6 580.0 L 219.0 580.0 L 219.5 580.0 L 219.9 580.0 L 220.4 580.0 L 220.8 580.0 L 221.3 580.0 L 221.7 580.0 L 222.2 580.0 L 222.6 580.0 L 223.1 580.0 L 223.5 580.0 L 224.0 580.0 L 224.4 580.0 L 224.9 580.0 L 225.3 580.0 L 225.8 580.0 L 226.2 580.0 L 226.7 580.0 L 227.1 580.0 L 227.6 580.0 L 228.1 580.0 L 228.5 580.0 L 229.0 580.0 L 229.4 580.0 L 229.9 580.0 L 230.3 580.0 L 230.8 580.0 L 231.2 580.0 L 231.7 580.0 L 232.1 580.0 L 232.6 580.0 L 233.0 580.0 L 233.5 580.0 L 233.9 580.0 L 234.4 580.0 L 234.8 580.0 L 235.3 580.0 L 235.7 580.0 L 236.2 580.0 L 236.6 580.0 L 237.1 580.0 L 237.5 580.0 L 238.0 580.0 L 238.4 580.0 L 238.9 580.0 L 239.3 580.0 L 239.8 580.0 L 240.2 580.0 L 240.7 580.0 L 241.1 580.0 L 241.6 580.0 L 242.0 580.0 L 242.5 580.0 L 242.9 580.0 L 243.4 580.0 L 243.8 580.0 L 244.3 580.0 L 244.8 580.0 L 245.2 580.0 L 245.7 580.0 L 246.1 580.0 L 246.6 580.0 L 247.0 580.0 L 247.5 580.0 L 247.9 580.0 L 248.4 580.0 L 248.8 580.0 L 249.3 580.0 L 249.7 580.0 L 250.2 580.0 L 250.6 580.0 L 251.1 580.0 L 251.5 580.0 L 252.0 580.0 L 252.4 580.0 L 252.9 580.0 L 253.3 580.0 L 253.8 580.0 L 254.2 580.0 L 254.7 580.0 L 255.1 580.0 L 255.6 580.0 L 256.0 580.0 L 256.5 580.0 L 256.9 580.0 L 257.4 580.0 L 257.8 580.0 L 258.3 580.0 L 258.7 580.0 L 259.2 580.0 L 259.6 580.0 L 260.1 580.0 L 260.5 580.0 L 261.0 580.0 L 261.4 580.0 L 261.9 580.0 L 262.4 580.0 L 262.8 580.0 L 263.3 580.0 L 263.7 580.0 L 264.2 580.0 L 264.6 580.0 L 265.1 580.0 L 265.5 580.0 L 266.0 580.0 L 266.4 580.0 L 266.9 580.0 L 267.3 580.0 L 267.8 580.0 L 268.2 580.0 L 268.7 580.0 L 269.1 580.0 L 269.6 580.0 L 270.0 580.0 L 270.5 580.0 L 270.9 580.0 L 271.4 580.0 L 271.8 580.0 L 272.3 580.0 L 272.7 580.0 L 273.2 580.0 L 273.6 580.0 L 274.1 580.0 L 274.5 580.0 L 275.0 580.0 L 275.4 580.0 L 275.9 580.0 L 276.3 580.0 L 276.8 580.0 L 277.2 580.0 L 277.7 580.0 L 278.1 580.0 L 278.6 580.0 L 279.0 580.0 L 279.5 580.0 L 280.0 580.0 L 280.4 580.0 L 280.9 580.0 L 281.3 580.0 L 281.8 580.0 L 282.2 580.0 L 282.7 580.0 L 283.1 580.0 L 283.6 580.0 L 284.0 580.0 L 284.5 580.0 L 284.9 580.0 L 285.4 580.0 L 285.8 580.0 L 286.3 580.0 L 286.7 580.0 L 287.2 580.0 L 287.6 580.0 L 288.1 580.0 L 288.5 580.0 L 289.0 580.0 L 289.4 580.0 L 289.9 580.0 L 290.3 580.0 L 290.8 580.0 L 291.2 580.0 L 291.7 580.0 L 292.1 580.0 L 292.6 580.0 L 293.0 580.0 L 293.5 580.0 L 293.9 580.0 L 294.4 580.0 L 294.8 580.0 L 295.3 580.0 L 295.7 580.0 L 296.2 580.0 L 296.7 580.0 L 297.1 580.0 L 297.6 580.0 L 298.0 580.0 L 298.5 580.0 L 298.9 580.0 L 299.4 580.0 L 299.8 580.0 L 300.3 580.0 L 300.7 580.0 L 301.2 580.0 L 301.6 580.0 L 302.1 580.0 L 302.5 580.0 L 303.0 580.0 L 303.4 580.0 L 303.9 580.0 L 304.3 580.0 L 304.8 580.0 L 305.2 580.0 L 305.7 580.0 L 306.1 580.0 L 306.6 580.0 L 307.0 580.0 L 307.5 580.0 L 307.9 580.0 L 308.4 580.0 L 308.8 580.0 L 309.3 580.0 L 309.7 580.0 L 310.2 580.0 L 310.6 580.0 L 311.1 580.0 L 311.5 580.0 L 312.0 580.0 L 312.4 580.0 L 312.9 580.0 L 313.3 580.0 L 313.8 580.0 L 314.3 580.0 L 314.7 580.0 L 315.2 580.0 L 315.6 580.0 L 316.1 580.0 L 316.5 580.0 L 317.0 580.0 L 317.4 580.0 L 317.9 580.0 L 318.3 580.0 L 318.8 580.0 L 319.2 580.0 L 319.7 580.0 L 320.1 580.0 L 320.6 580.0 L 321.0 580.0 L 321.5 580.0 L 321.9 580.0 L 322.4 580.0 L 322.8 580.0 L 323.3 580.0 L 323.7 580.0 L 324.2 580.0 L 324.6 580.0 L 325.1 580.0 L 325.5 580.0 L 326.0 580.0 L 326.4 580.0 L 326.9 580.0 L 327.3 580.0 L 327.8 580.0 L 328.2 580.0 L 328.7 580.0 L 329.1 580.0 L 329.6 580.0 L 330.0 580.0 L 330.5 580.0 L 331.0 580.0 L 331.4 580.0 L 331.9 580.0 L 332.3 580.0 L 332.8 580.0 L 333.2 580.0 L 333.7 580.0 L 334.1 580.0 L 334.6 580.0 L 335.0 580.0 L 335.5 580.0 L 335.9 580.0 L 336.4 580.0 L 336.8 580.0 L 337.3 580.0 L 337.7 580.0 L 338.2 580.0 L 338.6 580.0 L 339.1 580.0 L 339.5 580.0 L 340.0 580.0 L 340.4 580.0 L 340.9 580.0 L 341.3 580.0 L 341.8 580.0 L 342.2 580.0 L 342.7 580.0 L 343.1 580.0 L 343.6 580.0 L 344.0 580.0 L 344.5 580.0 L 344.9 580.0 L 345.4 580.0 L 345.8 580.0 L 346.3 580.0 L 346.7 580.0 L 347.2 580.0 L 347.6 580.0 L 348.1 580.0 L 348.6 580.0 L 349.0 580.0 L 349.5 580.0 L 349.9 580.0 L 350.4 580.0 L 350.8 580.0 L 351.3 580.0 L 351.7 580.0 L 352.2 580.0 L 352.6 580.0 L 353.1 580.0 L 353.5 580.0 L 354.0 580.0 L 354.4 580.0 L 354.9 580.0 L 355.3 580.0 L 355.8 580.0 L 356.2 580.0 L 356.7 580.0 L 357.1 580.0 L 357.6 580.0 L 358.0 580.0 L 358.5 580.0 L 358.9 580.0 L 359.4 580.0 L 359.8 580.0 L 360.3 580.0 L 360.7 580.0 L 361.2 580.0 L 361.6 580.0 L 362.1 580.0 L 362.5 580.0 L 363.0 580.0 L 363.4 580.0 L 363.9 580.0 L 364.3 580.0 L 364.8 580.0 L 365.2 580.0 L 365.7 580.0 L 366.2 580.0 L 366.6 580.0 L 367.1 580.0 L 367.5 580.0 L 368.0 580.0 L 368.4 580.0 L 368.9 580.0 L 369.3 580.0 L 369.8 580.0 L 370.2 580.0 L 370.7 580.0 L 371.1 580.0 L 371.6 580.0 L 372.0 580.0 L 372.5 580.0 L 372.9 580.0 L 373.4 580.0 L 373.8 580.0 L 374.3 580.0 L 374.7 580.0 L 375.2 580.0 L 375.6 580.0 L 376.1 580.0 L 376.5 580.0 L 377.0 580.0 L 377.4 580.0 L 377.9 580.0 L 378.3 580.0 L 378.8 580.0 L 379.2 580.0 L 379.7 580.0 L 380.1 580.0 L 380.6 580.0 L 381.0 580.0 L 381.5 580.0 L 381.9 580.0 L 382.4 580.0 L 382.9 580.0 L 383.3 580.0 L 383.8 580.0 L 384.2 580.0 L 384.7 580.0 L 385.1 580.0 L 385.6 580.0 L 386.0 580.0 L 386.5 580.0 L 386.9 580.0 L 387.4 580.0 L 387.8 580.0 L 388.3 580.0 L 388.7 580.0 L 389.2 580.0 L 389.6 580.0 L 390.1 580.0 L 390.5 580.0 L 391.0 580.0 L 391.4 580.0 L 391.9 580.0 L 392.3 580.0 L 392.8 580.0 L 393.2 580.0 L 393.7 580.0 L 394.1 580.0 L 394.6 580.0 L 395.0 580.0 L 395.5 580.0 L 395.9 580.0 L 396.4 580.0 L 396.8 580.0 L 397.3 580.0 L 397.7 580.0 L 398.2 580.0 L 398.6 580.0 L 399.1 580.0 L 399.5 580.0 L 400.0 580.0 L 400.5 580.0 L 400.9 580.0 L 401.4 580.0 L 401.8 580.0 L 402.3 580.0 L 402.7 580.0 L 403.2 580.0 L 403.6 580.0 L 404.1 580.0 L 404.5 580.0 L 405.0 580.0 L 405.4 580.0 L 405.9 580.0 L 406.3 580.0 L 406.8 580.0 L 407.2 580.0 L 407.7 580.0 L 408.1 580.0 L 408.6 580.0 L 409.0 580.0 L 409.5 580.0 L 409.9 580.0 L 410.4 580.0 L 410.8 580.0 L 411.3 580.0 L 411.7 580.0 L 412.2 580.0 L 412.6 580.0 L 413.1 580.0 L 413.5 580.0 L 414.0 580.0 L 414.4 580.0 L 414.9 580.0 L 415.3 580.0 L 415.8 580.0 L 416.2 580.0 L 416.7 580.0 L 417.1 580.0 L 417.6 580.0 L 418.1 580.0 L 418.5 580.0 L 419.0 580.0 L 419.4 580.0 L 419.9 580.0 L 420.3 580.0 L 420.8 580.0 L 421.2 580.0 L 421.7 580.0 L 422.1 580.0 L 422.6 580.0 L 423.0 580.0 L 423.5 580.0 L 423.9 580.0 L 424.4 580.0 L 424.8 580.0 L 425.3 580.0 L 425.7 580.0 L 426.2 580.0 L 426.6 580.0 L 427.1 580.0 L 427.5 580.0 L 428.0 580.0 L 428.4 580.0 L 428.9 580.0 L 429.3 580.0 L 429.8 580.0 L 430.2 580.0 L 430.7 580.0 L 431.1 580.0 L 431.6 580.0 L 432.0 580.0 L 432.5 580.0 L 432.9 580.0 L 433.4 580.0 L 433.8 580.0 L 434.3 580.0 L 434.8 580.0 L 435.2 580.0 L 435.7 580.0 L 436.1 580.0 L 436.6 580.0 L 437.0 580.0 L 437.5 580.0 L 437.9 580.0 L 438.4 580.0 L 438.8 580.0 L 439.3 580.0 L 439.7 580.0 L 440.2 580.0 L 440.6 580.0 L 441.1 580.0 L 441.5 580.0 L 442.0 580.0 L 442.4 580.0 L 442.9 580.0 L 443.3 580.0 L 443.8 580.0 L 444.2 580.0 L 444.7 580.0 L 445.1 580.0 L 445.6 580.0 L 446.0 580.0 L 446.5 580.0 L 446.9 580.0 L 447.4 580.0 L 447.8 580.0 L 448.3 580.0 L 448.7 580.0 L 449.2 580.0 L 449.6 580.0 L 450.1 580.0 L 450.5 580.0 L 451.0 580.0 L 451.4 580.0 L 451.9 580.0 L 452.4 580.0 L 452.8 580.0 L 453.3 580.0 L 453.7 580.0 L 454.2 580.0 L 454.6 580.0 L 455.1 580.0 L 455.5 580.0 L 456.0 580.0 L 456.4 580.0 L 456.9 580.0 L 457.3 580.0 L 457.8 580.0 L 458.2 580.0 L 458.7 580.0 L 459.1 580.0 L 459.6 580.0 L 460.0 580.0 L 460.5 580.0 L 460.9 580.0 L 461.4 580.0 L 461.8 580.0 L 462.3 580.0 L 462.7 580.0 L 463.2 580.0 L 463.6 580.0 L 464.1 580.0 L 464.5 580.0 L 465.0 580.0 L 465.4 580.0 L 465.9 580.0 L 466.3 580.0 L 466.8 580.0 L 467.2 580.0 L 467.7 580.0 L 468.1 580.0 L 468.6 580.0 L 469.0 580.0 L 469.5 580.0 L 470.0 580.0 L 470.4 580.0 L 470.9 580.0 L 471.3 580.0 L 471.8 580.0 L 472.2 580.0 L 472.7 580.0 L 473.1 580.0 L 473.6 580.0 L 474.0 580.0 L 474.5 580.0 L 474.9 580.0 L 475.4 580.0 L 475.8 580.0 L 476.3 580.0 L 476.7 580.0 L 477.2 580.0 L 477.6 580.0 L 478.1 580.0 L 478.5 580.0 L 479.0 580.0 L 479.4 580.0 L 479.9 580.0 L 480.3 580.0 L 480.8 580.0 L 481.2 580.0 L 481.7 580.0 L 482.1 580.0 L 482.6 580.0 L 483.0 580.0 L 483.5 580.0 L 483.9 580.0 L 484.4 580.0 L 484.8 580.0 L 485.3 580.0 L 485.7 580.0 L 486.2 580.0 L 486.7 580.0 L 487.1 580.0 L 487.6 580.0 L 488.0 580.0 L 488.5 580.0 L 488.9 580.0 L 489.4 580.0 L 489.8 580.0 L 490.3 580.0 L 490.7 580.0 L 491.2 580.0 L 491.6 580.0 L 492.1 580.0 L 492.5 580.0 L 493.0 580.0 L 493.4 580.0 L 493.9 580.0 L 494.3 580.0 L 494.8 580.0 L 495.2 580.0 L 495.7 580.0 L 496.1 580.0 L 496.6 580.0 L 497.0 580.0 L 497.5 580.0 L 497.9 580.0 L 498.4 580.0 L 498.8 580.0 L 499.3 580.0 L 499.7 580.0 L 500.2 580.0 L 500.6 580.0 L 501.1 580.0 L 501.5 580.0 L 502.0 580.0 L 502.4 580.0 L 502.9 580.0 L 503.3 580.0 L 503.8 580.0 L 504.3 580.0 L 504.7 580.0 L 505.2 580.0 L 505.6 580.0 L 506.1 580.0 L 506.5 580.0 L 507.0 580.0 L 507.4 580.0 L 507.9 580.0 L 508.3 580.0 L 508.8 580.0 L 509.2 580.0 L 509.7 580.0 L 510.1 580.0 L 510.6 580.0 L 511.0 580.0 L 511.5 580.0 L 511.9 580.0 L 512.4 580.0 L 512.8 580.0 L 513.3 580.0 L 513.7 580.0 L 514.2 580.0 L 514.6 580.0 L 515.1 580.0 L 515.5 580.0 L 516.0 580.0 L 516.4 580.0 L 516.9 580.0 L 517.3 580.0 L 517.8 580.0 L 518.2 580.0 L 518.7 580.0 L 519.1 580.0 L 519.6 580.0 L 520.0 580.0 L 520.5 580.0 L 521.0 580.0 L 521.4 580.0 L 521.9 580.0 L 522.3 580.0 L 522.8 580.0 L 523.2 580.0 L 523.7 580.0 L 524.1 580.0 L 524.6 580.0 L 525.0 580.0 L 525.5 580.0 L 525.9 580.0 L 526.4 580.0 L 526.8 580.0 L 527.3 580.0 L 527.7 580.0 L 528.2 580.0 L 528.6 580.0 L 529.1 580.0 L 529.5 580.0 L 530.0 580.0 L 530.4 580.0 L 530.9 580.0 L 531.3 580.0 L 531.8 580.0 L 532.2 580.0 L 532.7 580.0 L 533.1 580.0 L 533.6 580.0 L 534.0 580.0 L 534.5 580.0 L 534.9 580.0 L 535.4 580.0 L 535.8 580.0 L 536.3 580.0 L 536.7 580.0 L 537.2 580.0 L 537.6 580.0 L 538.1 580.0 L 538.6 580.0 L 539.0 580.0 L 539.5 580.0 L 539.9 580.0 L 540.4 580.0 L 540.8 580.0 L 541.3 580.0 L 541.7 580.0 L 542.2 580.0 L 542.6 580.0 L 543.1 580.0 L 543.5 580.0 L 544.0 580.0 L 544.4 580.0 L 544.9 580.0 L 545.3 580.0 L 545.8 580.0 L 546.2 580.0 L 546.7 580.0 L 547.1 580.0 L 547.6 580.0 L 548.0 580.0 L 548.5 580.0 L 548.9 580.0 L 549.4 580.0 L 549.8 580.0 L 550.3 580.0 L 550.7 580.0 L 551.2 580.0 L 551.6 580.0 L 552.1 580.0 L 552.5 580.0 L 553.0 580.0 L 553.4 580.0 L 553.9 580.0 L 554.3 580.0 L 554.8 580.0 L 555.2 580.0 L 555.7 580.0 L 556.2 580.0 L 556.6 580.0 L 557.1 580.0 L 557.5 580.0 L 558.0 580.0 L 558.4 580.0 L 558.9 580.0 L 559.3 580.0 L 559.8 580.0 L 560.2 580.0 L 560.7 580.0 L 561.1 580.0 L 561.6 580.0 L 562.0 580.0 L 562.5 580.0 L 562.9 580.0 L 563.4 580.0 L 563.8 580.0 L 564.3 580.0 L 564.7 580.0 L 565.2 580.0 L 565.6 580.0 L 566.1 580.0 L 566.5 580.0 L 567.0 580.0 L 567.4 580.0 L 567.9 580.0 L 568.3 580.0 L 568.8 580.0 L 569.2 580.0 L 569.7 580.0 L 570.1 580.0 L 570.6 580.0 L 571.0 580.0 L 571.5 580.0 L 571.9 580.0 L 572.4 580.0 L 572.9 580.0 L 573.3 580.0 L 573.8 580.0 L 574.2 580.0 L 574.7 580.0 L 575.1 580.0 L 575.6 580.0 L 576.0 580.0 L 576.5 580.0 L 576.9 580.0 L 577.4 580.0 L 577.8 580.0 L 578.3 580.0 L 578.7 580.0 L 579.2 580.0 L 579.6 580.0 L 580.1 580.0 L 580.5 580.0 L 581.0 580.0 L 581.4 580.0 L 581.9 580.0 L 582.3 580.0 L 582.8 580.0 L 583.2 580.0 L 583.7 580.0 L 584.1 580.0 L 584.6 580.0 L 585.0 580.0 L 585.5 580.0 L 585.9 580.0 L 586.4 580.0 L 586.8 580.0 L 587.3 580.0 L 587.7 580.0 L 588.2 580.0 L 588.6 580.0 L 589.1 580.0 L 589.5 580.0 L 590.0 580.0 L 590.5 580.0 L 590.9 580.0 L 591.4 580.0 L 591.8 580.0 L 592.3 580.0 L 592.7 580.0 L 593.2 580.0 L 593.6 580.0 L 594.1 580.0 L 594.5 580.0 L 595.0 580.0 L 595.4 580.0 L 595.9 580.0 L 596.3 580.0 L 596.8 580.0 L 597.2 580.0 L 597.7 580.0 L 598.1 580.0 L 598.6 580.0 L 599.0 580.0 L 599.5 580.0 L 599.9 580.0 L 600.4 580.0 L 600.8 580.0 L 601.3 580.0 L 601.7 580.0 L 602.2 580.0 L 602.6 580.0 L 603.1 580.0 L 603.5 580.0 L 604.0 580.0 L 604.4 580.0 L 604.9 580.0 L 605.3 580.0 L 605.8 580.0 L 606.2 580.0 L 606.7 580.0 L 607.1 580.0 L 607.6 580.0 L 608.1 580.0 L 608.5 580.0 L 609.0 580.0 L 609.4 580.0 L 609.9 580.0 L 610.3 580.0 L 610.8 580.0 L 611.2 580.0 L 611.7 580.0 L 612.1 580.0 L 612.6 580.0 L 613.0 580.0 L 613.5 580.0 L 613.9 580.0 L 614.4 580.0 L 614.8 580.0 L 615.3 580.0 L 615.7 580.0 L 616.2 580.0 L 616.6 580.0 L 617.1 580.0 L 617.5 580.0 L 618.0 580.0 L 618.4 580.0 L 618.9 580.0 L 619.3 580.0 L 619.8 580.0 L 620.2 580.0 L 620.7 580.0 L 621.1 580.0 L 621.6 580.0 L 622.0 580.0 L 622.5 580.0 L 622.9 580.0 L 623.4 580.0 L 623.8 580.0 L 624.3 580.0 L 624.8 580.0 L 625.2 580.0 L 625.7 580.0 L 626.1 580.0 L 626.6 580.0 L 627.0 580.0 L 627.5 580.0 L 627.9 580.0 L 628.4 580.0 L 628.8 580.0 L 629.3 580.0 L 629.7 580.0 L 630.2 580.0 L 630.6 580.0 L 631.1 580.0 L 631.5 580.0 L 632.0 580.0 L 632.4 580.0 L 632.9 580.0 L 633.3 580.0 L 633.8 580.0 L 634.2 580.0 L 634.7 580.0 L 635.1 580.0 L 635.6 580.0 L 636.0 580.0 L 636.5 580.0 L 636.9 580.0 L 637.4 580.0 L 637.8 580.0 L 638.3 580.0 L 638.7 580.0 L 639.2 580.0 L 639.6 580.0 L 640.1 580.0 L 640.5 580.0 L 641.0 580.0 L 641.4 580.0 L 641.9 580.0 L 642.4 580.0 L 642.8 580.0 L 643.3 580.0 L 643.7 580.0 L 644.2 580.0 L 644.6 580.0 L 645.1 580.0 L 645.5 580.0 L 646.0 580.0 L 646.4 580.0 L 646.9 580.0 L 647.3 580.0 L 647.8 580.0 L 648.2 580.0 L 648.7 580.0 L 649.1 580.0 L 649.6 580.0 L 650.0 580.0 L 650.5 580.0 L 650.9 580.0 L 651.4 580.0 L 651.8 580.0 L 652.3 580.0 L 652.7 580.0 L 653.2 580.0 L 653.6 580.0 L 654.1 580.0 L 654.5 580.0 L 655.0 580.0 L 655.4 580.0 L 655.9 580.0 L 656.3 580.0 L 656.8 580.0 L 657.2 580.0 L 657.7 580.0 L 658.1 580.0 L 658.6 580.0 L 659.0 580.0 L 659.5 580.0 L 660.0 580.0 L 660.4 580.0 L 660.9 580.0 L 661.3 580.0 L 661.8 580.0 L 662.2 580.0 L 662.7 580.0 L 663.1 580.0 L 663.6 580.0 L 664.0 580.0 L 664.5 580.0 L 664.9 580.0 L 665.4 580.0 L 665.8 580.0 L 666.3 580.0 L 666.7 580.0 L 667.2 580.0 L 667.6 580.0 L 668.1 580.0 L 668.5 580.0 L 669.0 580.0 L 669.4 580.0 L 669.9 580.0 L 670.3 580.0 L 670.8 580.0 L 671.2 580.0 L 671.7 580.0 L 672.1 580.0 L 672.6 580.0 L 673.0 580.0 L 673.5 580.0 L 673.9 580.0 L 674.4 580.0 L 674.8 580.0 L 675.3 580.0 L 675.7 580.0 L 676.2 580.0 L 676.7 580.0 L 677.1 580.0 L 677.6 580.0 L 678.0 580.0 L 678.5 580.0 L 678.9 580.0 L 679.4 580.0 L 679.8 580.0 L 680.3 580.0 L 680.7 580.0 L 681.2 580.0 L 681.6 580.0 L 682.1 580.0 L 682.5 580.0 L 683.0 580.0 L 683.4 580.0 L 683.9 580.0 L 684.3 580.0 L 684.8 580.0 L 685.2 580.0 L 685.7 580.0 L 686.1 580.0 L 686.6 580.0 L 687.0 580.0 L 687.5 580.0 L 687.9 580.0 L 688.4 580.0 L 688.8 580.0 L 689.3 580.0 L 689.7 580.0 L 690.2 580.0 L 690.6 580.0 L 691.1 580.0 L 691.5 580.0 L 692.0 580.0 L 692.4 580.0 L 692.9 580.0 L 693.3 580.0 L 693.8 580.0 L 694.3 580.0 L 694.7 580.0 L 695.2 580.0 L 695.6 580.0 L 696.1 580.0 L 696.5 580.0 L 697.0 580.0 L 697.4 580.0 L 697.9 580.0 L 698.3 580.0 L 698.8 580.0 L 699.2 580.0 L 699.7 580.0 L 700.1 580.0 L 700.6 580.0 L 701.0 580.0 L 701.5 580.0 L 701.9 580.0 L 702.4 580.0 L 702.8 580.0 L 703.3 580.0 L 703.7 580.0 L 704.2 580.0 L 704.6 580.0 L 705.1 580.0 L 705.5 580.0 L 706.0 580.0 L 706.4 580.0 L 706.9 580.0 L 707.3 580.0 L 707.8 580.0 L 708.2 580.0 L 708.7 580.0 L 709.1 580.0 L 709.6 580.0 L 710.0 580.0 L 710.5 580.0 L 711.0 580.0 L 711.4 580.0 L 711.9 580.0 L 712.3 580.0 L 712.8 580.0 L 713.2 580.0 L 713.7 580.0 L 714.1 580.0 L 714.6 580.0 L 715.0 580.0 L 715.5 580.0 L 715.9 580.0 L 716.4 580.0 L 716.8 580.0 L 717.3 580.0 L 717.7 580.0 L 718.2 580.0 L 718.6 580.0 L 719.1 580.0 L 719.5 580.0 L 720.0 580.0 L 720.4 580.0 L 720.9 580.0 L 721.3 580.0 L 721.8 580.0 L 722.2 580.0 L 722.7 580.0 L 723.1 580.0 L 723.6 580.0 L 724.0 580.0 L 724.5 580.0 L 724.9 580.0 L 725.4 580.0 L 725.8 580.0 L 726.3 580.0 L 726.7 580.0 L 727.2 580.0 L 727.6 580.0 L 728.1 580.0 L 728.6 580.0 L 729.0 580.0 L 729.5 580.0 L 729.9 580.0 L 730.4 580.0 L 730.8 580.0 L 731.3 580.0 L 731.7 580.0 L 732.2 580.0 L 732.6 580.0 L 733.1 580.0 L 733.5 580.0 L 734.0 580.0 L 734.4 580.0 L 734.9 580.0 L 735.3 580.0 L 735.8 580.0 L 736.2 580.0 L 736.7 580.0 L 737.1 580.0 L 737.6 580.0 L 738.0 580.0 L 738.5 580.0 L 738.9 580.0 L 739.4 580.0 L 739.8 580.0 L 740.3 580.0 L 740.7 580.0 L 741.2 580.0 L 741.6 580.0 L 742.1 580.0 L 742.5 580.0 L 743.0 580.0 L 743.4 580.0 L 743.9 580.0 L 744.3 580.0 L 744.8 580.0 L 745.2 580.0 L 745.7 580.0 L 746.2 580.0 L 746.6 580.0 L 747.1 580.0 L 747.5 580.0 L 748.0 580.0 L 748.4 580.0 L 748.9 580.0 L 749.3 580.0 L 749.8 580.0 L 750.2 580.0 L 750.7 580.0 L 751.1 580.0 L 751.6 580.0 L 752.0 580.0 L 752.5 580.0 L 752.9 580.0 L 753.4 580.0 L 753.8 580.0 L 754.3 580.0 L 754.7 580.0 L 755.2 580.0 L 755.6 580.0 L 756.1 580.0 L 756.5 580.0 L 757.0 580.0 L 757.4 580.0 L 757.9 580.0 L 758.3 580.0 L 758.8 580.0 L 759.2 580.0 L 759.7 580.0 L 760.1 580.0 L 760.6 580.0 L 761.0 580.0 L 761.5 580.0 L 761.9 580.0 L 762.4 580.0 L 762.9 580.0 L 763.3 580.0 L 763.8 580.0 L 764.2 580.0 L 764.7 580.0 L 765.1 580.0 L 765.6 580.0 L 766.0 580.0 L 766.5 580.0 L 766.9 580.0 L 767.4 580.0 L 767.8 580.0 L 768.3 580.0 L 768.7 580.0 L 769.2 580.0 L 769.6 580.0 L 770.1 580.0 L 770.5 580.0 L 771.0 580.0 L 771.4 580.0 L 771.9 580.0 L 772.3 580.0 L 772.8 580.0 L 773.2 580.0 L 773.7 580.0 L 774.1 580.0 L 774.6 580.0 L 775.0 580.0 L 775.5 580.0 L 775.9 580.0 L 776.4 580.0 L 776.8 580.0 L 777.3 580.0 L 777.7 580.0 L 778.2 580.0 L 778.6 580.0 L 779.1 580.0 L 779.5 580.0 L 779.5 579.5 L 780.0 579.1 L 780.0 578.6 L 780.0 578.2 L 780.0 577.7 L 780.0 577.3 L 780.0 576.8 L 780.0 576.4 L 780.0 575.9 L 780.0 575.5 L 780.0 575.0 L 780.0 574.6 L 780.0 574.1 L 780.0 573.7 L 780.0 573.2 L 780.0 572.8 L 780.0 572.3 L 780.0 571.9 L 780.0 571.4 L 780.0 571.0 L 780.0 570.5 L 780.0 570.1 L 780.0 569.6 L 780.0 569.2 L 780.0 568.7 L 780.0 568.3 L 780.0 567.8 L 780.0 567.4 L 780.0 566.9 L 780.0 566.5 L 780.0 566.0 L 780.0 565.6 L 780.0 565.1 L 780.0 564.7 L 780.0 564.2 L 780.0 563.8 L 780.0 563.3 L 780.0 562.9 L 780.0 562.4 L 780.0 561.9 L 780.0 561.5 L 780.0 561.0 L 780.0 560.6 L 780.0 560.1 L 780.0 559.7 L 780.0 559.2 L 780.0 558.8 L 780.0 558.3 L 780.0 557.9 L 780.0 557.4 L 780.0 557.0 L 780.0 556.5 L 780.0 556.1 L 780.0 555.6 L 780.0 555.2 L 780.0 554.7 L 780.0 554.3 L 780.0 553.8 L 780.0 553.4 L 780.0 552.9 L 780.0 552.5 L 780.0 552.0 L 780.0 551.6 L 780.0 551.1 L 780.0 550.7 L 780.0 550.2 L 780.0 549.8 L 780.0 549.3 L 780.0 548.9 L 780.0 548.4 L 780.0 548.0 L 780.0 547.5 L 780.0 547.1 L 780.0 546.6 L 780.0 546.2 L 780.0 545.7 L 780.0 545.2 L 780.0 544.8 L 780.0 544.3 L 780.0 543.9 L 780.0 543.4 L 780.0 543.0 L 780.0 542.5 L 780.0 542.1 L 780.0 541.6 L 780.0 541.2 L 780.0 540.7 L 780.0 540.3 L 780.0 539.8 L 780.0 539.4 L 780.0 538.9 L 780.0 538.5 L 780.0 538.0 L 780.0 537.6 L 780.0 537.1 L 780.0 536.7 L 780.0 536.2 L 780.0 535.8 L 780.0 535.3 L 780.0 534.9 L 780.0 534.4 L 780.0 534.0 L 780.0 533.5 L 780.0 533.1 L 780.0 532.6 L 780.0 532.2 L 780.0 531.7 L 780.0 531.3 L 780.0 530.8 L 780.0 530.4 L 780.0 529.9 L 780.0 529.5 L 780.0 529.0 L 780.0 528.6 L 780.0 528.1 L 780.0 527.6 L 780.0 527.2 L 780.0 526.7 L 780.0 526.3 L 780.0 525.8 L 780.0 525.4 L 780.0 524.9 L 780.0 524.5 L 780.0 524.0 L 780.0 523.6 L 780.0 523.1 L 780.0 522.7 L 780.0 522.2 L 780.0 521.8 L 780.0 521.3 L 780.0 520.9 L 780.0 520.4 L 780.0 520.0 L 780.0 519.5 L 780.0 519.1 L 780.0 518.6 L 780.0 518.2 L 780.0 517.7 L 780.0 517.3 L 780.0 516.8 L 780.0 516.4 L 780.0 515.9 L 780.0 515.5 L 780.0 515.0 L 780.0 514.6 L 780.0 514.1 L 780.0 513.7 L 780.0 513.2 L 780.0 512.8 L 780.0 512.3 L 780.0 511.9 L 780.0 511.4 L 780.0 511.0 L 780.0 510.5 L 780.0 510.0 L 780.0 509.6 L 780.0 509.1 L 780.0 508.7 L 780.0 508.2 L 780.0 507.8 L 780.0 507.3 L 780.0 506.9 L 780.0 506.4 L 780.0 506.0 L 780.0 505.5 L 780.0 505.1 L 780.0 504.6 L 780.0 504.2 L 780.0 503.7 L 780.0 503.3 L 780.0 502.8 L 780.0 502.4 L 780.0 501.9 L 780.0 501.5 L 780.0 501.0 L 780.0 500.6 L 780.0 500.1 L 780.0 499.7 L 780.0 499.2 L 780.0 498.8 L 780.0 498.3 L 780.0 497.9 L 780.0 497.4 L 780.0 497.0 L 780.0 496.5 L 780.0 496.1 L 780.0 495.6 L 780.0 495.2 L 780.0 494.7 L 780.0 494.3 L 780.0 493.8 L 780.0 493.3 L 780.0 492.9 L 780.0 492.4 L 780.0 492.0 L 780.0 491.5 L 780.0 491.1 L 780.0 490.6 L 780.0 490.2 L 780.0 489.7 L 780.0 489.3 L 780.0 488.8 L 780.0 488.4 L 780.0 487.9 L 780.0 487.5 L 780.0 487.0 L 780.0 486.6 L 780.0 486.1 L 780.0 485.7 L 780.0 485.2 L 780.0 484.8 L 780.0 484.3 L 780.0 483.9 L 780.0 483.4 L 780.0 483.0 L 780.0 482.5 L 780.0 482.1 L 780.0 481.6 L 780.0 481.2 L 780.0 480.7 L 780.0 480.3 L 780.0 479.8 L 780.0 479.4 L 780.0 478.9 L 780.0 478.5 L 780.0 478.0 L 780.0 477.6 L 780.0 477.1 L 780.0 476.7 L 780.0 476.2 L 780.0 475.7 L 780.0 475.3 L 780.0 474.8 L 780.0 474.4 L 780.0 473.9 L 780.0 473.5 L 780.0 473.0 L 780.0 472.6 L 780.0 472.1 L 780.0 471.7 L 780.0 471.2 L 780.0 470.8 L 780.0 470.3 L 780.0 469.9 L 780.0 469.4 L 780.0 469.0 L 780.0 468.5 L 780.0 468.1 L 780.0 467.6 L 780.0 467.2 L 780.0 466.7 L 780.0 466.3 L 780.0 465.8 L 780.0 465.4 L 780.0 464.9 L 780.0 464.5 L 780.0 464.0 L 780.0 463.6 L 780.0 463.1 L 780.0 462.7 L 780.0 462.2 L 780.0 461.8 L 780.0 461.3 L 780.0 460.9 L 780.0 460.4 L 780.0 460.0 L 780.0 459.5 L 780.0 459.0 L 780.0 458.6 L 780.0 458.1 L 780.0 457.7 L 780.0 457.2 L 780.0 456.8 L 780.0 456.3 L 780.0 455.9 L 780.0 455.4 L 780.0 455.0 L 780.0 454.5 L 780.0 454.1 L 780.0 453.6 L 780.0 453.2 L 780.0 452.7 L 780.0 452.3 L 780.0 451.8 L 780.0 451.4 L 780.0 450.9 L 780.0 450.5 L 780.0 450.0 L 780.0 449.6 L 780.0 449.1 L 780.0 448.7 L 780.0 448.2 L 780.0 447.8 L 780.0 447.3 L 780.0 446.9 L 780.0 446.4 L 780.0 446.0 L 780.0 445.5 L 780.0 445.1 L 780.0 444.6 L 780.0 444.2 L 780.0 443.7 L 780.0 443.3 L 780.0 442.8 L 780.0 442.4 L 780.0 441.9 L 780.0 441.4 L 780.0 441.0 L 780.0 440.5 L 780.0 440.1 L 780.0 439.6 L 780.0 439.2 L 780.0 438.7 L 780.0 438.3 L 780.0 437.8 L 780.0 437.4 L 780.0 436.9 L 780.0 436.5 L 780.0 436.0 L 780.0 435.6 L 780.0 435.1 L 780.0 434.7 L 780.0 434.2 L 780.0 433.8 L 780.0 433.3 L 780.0 432.9 L 780.0 432.4 L 780.0 432.0 L 780.0 431.5 L 780.0 431.1 L 780.0 430.6 L 780.0 430.2 L 780.0 429.7 L 780.0 429.3 L 780.0 428.8 L 780.0 428.4 L 780.0 427.9 L 780.0 427.5 L 780.0 427.0 L 780.0 426.6 L 780.0 426.1 L 780.0 425.7 L 780.0 425.2 L 780.0 424.8 L 780.0 424.3 L 780.0 423.8 L 780.0 423.4 L 780.0 422.9 L 780.0 422.5 L 780.0 422.0 L 780.0 421.6 L 780.0 421.1 L 780.0 420.7 L 780.0 420.2 L 780.0 419.8 L 780.0 419.3 L 780.0 418.9 L 780.0 418.4 L 780.0 418.0 L 780.0 417.5 L 780.0 417.1 L 780.0 416.6 L 780.0 416.2 L 780.0 415.7 L 780.0 415.3 L 780.0 414.8 L 780.0 414.4 L 780.0 413.9 L 780.0 413.5 L 780.0 413.0 L 780.0 412.6 L 780.0 412.1 L 780.0 411.7 L 780.0 411.2 L 780.0 410.8 L 780.0 410.3 L 780.0 409.9 L 780.0 409.4 L 780.0 409.0 L 780.0 408.5 L 780.0 408.1 L 780.0 407.6 L 780.0 407.1 L 780.0 406.7 L 780.0 406.2 L 780.0 405.8 L 780.0 405.3 L 780.0 404.9 L 780.0 404.4 L 780.0 404.0 L 780.0 403.5 L 780.0 403.1 L 780.0 402.6 L 780.0 402.2 L 780.0 401.7 L 780.0 401.3 L 780.0 400.8 L 780.0 400.4 L 780.0 399.9 L 780.0 399.5 L 780.0 399.0 L 780.0 398.6 L 780.0 398.1 L 780.0 397.7 L 780.0 397.2 L 780.0 396.8 L 780.0 396.3 L 780.0 395.9 L 780.0 395.4 L 780.0 395.0 L 780.0 394.5 L 780.0 394.1 L 780.0 393.6 L 780.0 393.2 L 780.0 392.7 L 780.0 392.3 L 780.0 391.8 L 780.0 391.4 L 780.0 390.9 L 780.0 390.5 L 780.0 390.0 L 780.0 389.5 L 780.0 389.1 L 780.0 388.6 L 780.0 388.2 L 780.0 387.7 L 780.0 387.3 L 780.0 386.8 L 780.0 386.4 L 780.0 385.9 L 780.0 385.5 L 780.0 385.0 L 780.0 384.6 L 780.0 384.1 L 780.0 383.7 L 780.0 383.2 L 780.0 382.8 L 780.0 382.3 L 780.0 381.9 L 780.0 381.4 L 780.0 381.0 L 780.0 380.5 L 780.0 380.1 L 780.0 379.6 L 780.0 379.2 L 780.0 378.7 L 780.0 378.3 L 780.0 377.8 L 780.0 377.4 L 780.0 376.9 L 780.0 376.5 L 780.0 376.0 L 780.0 375.6 L 780.0 375.1 L 780.0 374.7 L 780.0 374.2 L 780.0 373.8 L 780.0 373.3 L 780.0 372.9 L 780.0 372.4 L 780.0 371.9 L 780.0 371.5 L 780.0 371.0 L 780.0 370.6 L 780.0 370.1 L 780.0 369.7 L 780.0 369.2 L 780.0 368.8 L 780.0 368.3 L 780.0 367.9 L 780.0 367.4 L 780.0 367.0 L 780.0 366.5 L 780.0 366.1 L 780.0 365.6 L 780.0 365.2 L 780.0 364.7 L 780.0 364.3 L 780.0 363.8 L 780.0 363.4 L 780.0 362.9 L 780.0 362.5 L 780.0 362.0 L 780.0 361.6 L 780.0 361.1 L 780.0 360.7 L 780.0 360.2 L 780.0 359.8 L 780.0 359.3 L 780.0 358.9 L 780.0 358.4 L 780.0 358.0 L 780.0 357.5 L 780.0 357.1 L 780.0 356.6 L 780.0 356.2 L 780.0 355.7 L 780.0 355.2 L 780.0 354.8 L 780.0 354.3 L 780.0 353.9 L 780.0 353.4 L 780.0 353.0 L 780.0 352.5 L 780.0 352.1 L 780.0 351.6 L 780.0 351.2 L 780.0 350.7 L 780.0 350.3 L 780.0 349.8 L 780.0 349.4 L 780.0 348.9 L 780.0 348.5 L 780.0 348.0 L 780.0 347.6 L 780.0 347.1 L 780.0 346.7 L 780.0 346.2 L 780.0 345.8 L 780.0 345.3 L 780.0 344.9 L 780.0 344.4 L 780.0 344.0 L 780.0 343.5 L 780.0 343.1 L 780.0 342.6 L 780.0 342.2 L 780.0 341.7 L 780.0 341.3 L 780.0 340.8 L 780.0 340.4 L 780.0 339.9 L 780.0 339.5 L 780.0 339.0 L 780.0 338.6 L 780.0 338.1 L 780.0 337.6 L 780.0 337.2 L 780.0 336.7 L 780.0 336.3 L 780.0 335.8 L 780.0 335.4 L 780.0 334.9 L 780.0 334.5 L 780.0 334.0 L 780.0 333.6 L 780.0 333.1 L 780.0 332.7 L 780.0 332.2 L 780.0 331.8 L 780.0 331.3 L 780.0 330.9 L 780.0 330.4 L 780.0 330.0 L 780.0 329.5 L 780.0 329.1 L 780.0 328.6 L 780.0 328.2 L 780.0 327.7 L 780.0 327.3 L 780.0 326.8 L 780.0 326.4 L 780.0 325.9 L 780.0 325.5 L 780.0 325.0 L 780.0 324.6 L 780.0 324.1 L 780.0 323.7 L 780.0 323.2 L 780.0 322.8 L 780.0 322.3 L 780.0 321.9 L 780.0 321.4 L 780.0 321.0 L 780.0 320.5 L 780.0 320.0 L 780.0 319.6 L 780.0 319.1 L 780.0 318.7 L 780.0 318.2 L 780.0 317.8 L 780.0 317.3 L 780.0 316.9 L 780.0 316.4 L 780.0 316.0 L 780.0 315.5 L 780.0 315.1 L 780.0 314.6 L 780.0 314.2 L 780.0 313.7 L 780.0 313.3 L 780.0 312.8 L 780.0 312.4 L 780.0 311.9 L 780.0 311.5 L 780.0 311.0 L 780.0 310.6 L 780.0 310.1 L 780.0 309.7 L 780.0 309.2 L 780.0 308.8 L 780.0 308.3 L 780.0 307.9 L 780.0 307.4 L 780.0 307.0 L 780.0 306.5 L 780.0 306.1 L 780.0 305.6 L 780.0 305.2 L 780.0 304.7 L 780.0 304.3 L 780.0 303.8 L 780.0 303.3 L 780.0 302.9 L 780.0 302.4 L 780.0 302.0 L 780.0 301.5 L 780.0 301.1 L 780.0 300.6 L 780.0 300.2 L 780.0 299.7 L 780.0 299.3 L 780.0 298.8 L 780.0 298.4 L 780.0 297.9 L 780.0 297.5 L 780.0 297.0 L 780.0 296.6 L 780.0 296.1 L 780.0 295.7 L 780.0 295.2 L 780.0 294.8 L 780.0 294.3 L 780.0 293.9 L 780.0 293.4 L 780.0 293.0 L 780.0 292.5 L 780.0 292.1 L 780.0 291.6 L 780.0 291.2 L 780.0 290.7 L 780.0 290.3 L 780.0 289.8 L 780.0 289.4 L 780.0 288.9 L 780.0 288.5 L 780.0 288.0 L 780.0 287.6 L 780.0 287.1 L 780.0 286.7 L 780.0 286.2 L 780.0 285.7 L 780.0 285.3 L 780.0 284.8 L 780.0 284.4 L 780.0 283.9 L 780.0 283.5 L 780.0 283.0 L 780.0 282.6 L 780.0 282.1 L 780.0 281.7 L 780.0 281.2 L 780.0 280.8 L 780.0 280.3 L 780.0 279.9 L 780.0 279.4 L 780.0 279.0 L 780.0 278.5 L 780.0 278.1 L 780.0 277.6 L 780.0 277.2 L 780.0 276.7 L 780.0 276.3 L 780.0 275.8 L 780.0 275.4 L 780.0 274.9 L 780.0 274.5 L 780.0 274.0 L 780.0 273.6 L 780.0 273.1 L 780.0 272.7 L 780.0 272.2 L 780.0 271.8 L 780.0 271.3 L 780.0 270.9 L 780.0 270.4 L 780.0 270.0 L 780.0 269.5 L 780.0 269.0 L 780.0 268.6 L 780.0 268.1 L 780.0 267.7 L 780.0 267.2 L 780.0 266.8 L 780.0 266.3 L 780.0 265.9 L 780.0 265.4 L 780.0 265.0 L 780.0 264.5 L 780.0 264.1 L 780.0 263.6 L 780.0 263.2 L 780.0 262.7 L 780.0 262.3 L 780.0 261.8 L 780.0 261.4 L 780.0 260.9 L 780.0 260.5 L 780.0 260.0 L 780.0 259.6 L 780.0 259.1 L 780.0 258.7 L 780.0 258.2 L 780.0 257.8 L 780.0 257.3 L 780.0 256.9 L 780.0 256.4 L 780.0 256.0 L 780.0 255.5 L 780.0 255.1 L 780.0 254.6 L 780.0 254.2 L 780.0 253.7 L 780.0 253.3 L 780.0 252.8 L 780.0 252.4 L 780.0 251.9 L 780.0 251.4 L 780.0 251.0 L 780.0 250.5 L 780.0 250.1 L 780.0 249.6 L 780.0 249.2 L 780.0 248.7 L 780.0 248.3 L 780.0 247.8 L 780.0 247.4 L 780.0 246.9 L 780.0 246.5 L 780.0 246.0 L 780.0 245.6 L 780.0 245.1 L 780.0 244.7 L 780.0 244.2 L 780.0 243.8 L 780.0 243.3 L 780.0 242.9 L 780.0 242.4 L 780.0 242.0 L 780.0 241.5 L 780.0 241.1 L 780.0 240.6 L 780.0 240.2 L 780.0 239.7 L 780.0 239.3 L 780.0 238.8 L 780.0 238.4 L 780.0 237.9 L 780.0 237.5 L 780.0 237.0 L 780.0 236.6 L 780.0 236.1 L 780.0 235.7 L 780.0 235.2 L 780.0 234.8 L 780.0 234.3 L 780.0 233.8 L 780.0 233.4 L 780.0 232.9 L 780.0 232.5 L 780.0 232.0 L 780.0 231.6 L 780.0 231.1 L 780.0 230.7 L 780.0 230.2 L 780.0 229.8 L 780.0 229.3 L 780.0 228.9 L 780.0 228.4 L 780.0 228.0 L 780.0 227.5 L 780.0 227.1 L 780.0 226.6 L 780.0 226.2 L 780.0 225.7 L 780.0 225.3 L 780.0 224.8 L 780.0 224.4 L 780.0 223.9 L 780.0 223.5 L 780.0 223.0 L 780.0 222.6 L 780.0 222.1 L 780.0 221.7 L 780.0 221.2 L 780.0 220.8 L 780.0 220.3 L 780.0 219.9 L 780.0 219.4 L 780.0 219.0 L 780.0 218.5 L 780.0 218.1 L 780.0 217.6 L 780.0 217.1 L 780.0 216.7 L 780.0 216.2 L 780.0 215.8 L 780.0 215.3 L 780.0 214.9 L 780.0 214.4 L 780.0 214.0 L 780.0 213.5 L 780.0 213.1 L 780.0 212.6 L 780.0 212.2 L 780.0 211.7 L 780.0 211.3 L 780.0 210.8 L 780.0 210.4 L 780.0 209.9 L 780.0 209.5 L 780.0 209.0 L 780.0 208.6 L 780.0 208.1 L 780.0 207.7 L 780.0 207.2 L 780.0 206.8 L 780.0 206.3 L 780.0 205.9 L 780.0 205.4 L 780.0 205.0 L 780.0 204.5 L 780.0 204.1 L 780.0 203.6 L 780.0 203.2 L 780.0 202.7 L 780.0 202.3 L 780.0 201.8 L 780.0 201.4 L 780.0 200.9 L 780.0 200.5 L 780.0 200.0 L 780.0 199.5 L 780.0 199.1 L 780.0 198.6 L 780.0 198.2 L 780.0 197.7 L 780.0 197.3 L 780.0 196.8 L 780.0 196.4 L 780.0 195.9 L 780.0 195.5 L 780.0 195.0 L 780.0 194.6 L 780.0 194.1 L 780.0 193.7 L 780.0 193.2 L 780.0 192.8 L 780.0 192.3 L 780.0 191.9 L 780.0 191.4 L 780.0 191.0 L 780.0 190.5 L 780.0 190.1 L 780.0 189.6 L 780.0 189.2 L 780.0 188.7 L 780.0 188.3 L 780.0 187.8 L 780.0 187.4 L 780.0 186.9 L 780.0 186.5 L 780.0 186.0 L 780.0 185.6 L 780.0 185.1 L 780.0 184.7 L 780.0 184.2 L 780.0 183.8 L 780.0 183.3 L 780.0 182.9 L 780.0 182.4 L 780.0 181.9 L 780.0 181.5 L 780.0 181.0 L 780.0 180.6 L 780.0 180.1 L 780.0 179.7 L 780.0 179.2 L 780.0 178.8 L 780.0 178.3 L 780.0 177.9 L 780.0 177.4 L 780.0 177.0 L 780.0 176.5 L 780.0 176.1 L 780.0 175.6 L 780.0 175.2 L 780.0 174.7 L 780.0 174.3 L 780.0 173.8 L 780.0 173.4 L 780.0 172.9 L 780.0 172.5 L 780.0 172.0 L 780.0 171.6 L 780.0 171.1 L 780.0 170.7 L 780.0 170.2 L 780.0 169.8 L 780.0 169.3 L 780.0 168.9 L 780.0 168.4 L 780.0 168.0 L 780.0 167.5 L 780.0 167.1 L 780.0 166.6 L 780.0 166.2 L 780.0 165.7 L 780.0 165.2 L 780.0 164.8 L 780.0 164.3 L 780.0 163.9 L 780.0 163.4 L 780.0 163.0 L 780.0 162.5 L 780.0 162.1 L 780.0 161.6 L 780.0 161.2 L 780.0 160.7 L 780.0 160.3 L 780.0 159.8 L 780.0 159.4 L 780.0 158.9 L 780.0 158.5 L 780.0 158.0 L 780.0 157.6 L 780.0 157.1 L 780.0 156.7 L 780.0 156.2 L 780.0 155.8 L 780.0 155.3 L 780.0 154.9 L 780.0 154.4 L 780.0 154.0 L 780.0 153.5 L 780.0 153.1 L 780.0 152.6 L 780.0 152.2 L 780.0 151.7 L 780.0 151.3 L 780.0 150.8 L 780.0 150.4 L 780.0 149.9 L 780.0 149.5 L 780.0 149.0 L 780.0 148.6 L 780.0 148.1 L 780.0 147.6 L 780.0 147.2 L 780.0 146.7 L 780.0 146.3 L 780.0 145.8 L 780.0 145.4 L 780.0 144.9 L 780.0 144.5 L 780.0 144.0 L 780.0 143.6 L 780.0 143.1 L 780.0 142.7 L 780.0 142.2 L 780.0 141.8 L 780.0 141.3 L 780.0 140.9 L 780.0 140.4 L 780.0 140.0 L 780.0 139.5 L 780.0 139.1 L 780.0 138.6 L 780.0 138.2 L 780.0 137.7 L 780.0 137.3 L 780.0 136.8 L 780.0 136.4 L 780.0 135.9 L 780.0 135.5 L 780.0 135.0 L 780.0 134.6 L 780.0 134.1 L 780.0 133.7 L 780.0 133.2 L 780.0 132.8 L 780.0 132.3 L 780.0 131.9 L 780.0 131.4 L 780.0 131.0 L 780.0 130.5 L 780.0 130.0 L 780.0 129.6 L 780.0 129.1 L 780.0 128.7 L 780.0 128.2 L 780.0 127.8 L 780.0 127.3 L 780.0 126.9 L 780.0 126.4 L 780.0 126.0 L 780.0 125.5 L 780.0 125.1 L 780.0 124.6 L 780.0 124.2 L 780.0 123.7 L 780.0 123.3 L 780.0 122.8 L 780.0 122.4 L 780.0 121.9 L 780.0 121.5 L 780.0 121.0 L 780.0 120.6 L 780.0 120.1 L 780.0 119.7 L 780.0 119.2 L 780.0 118.8 L 780.0 118.3 L 780.0 117.9 L 780.0 117.4 L 780.0 117.0 L 780.0 116.5 L 780.0 116.1 L 780.0 115.6 L 780.0 115.2 L 780.0 114.7 L 780.0 114.3 L 780.0 113.8 L 780.0 113.3 L 780.0 112.9 L 780.0 112.4 L 780.0 112.0 L 780.0 111.5 L 780.0 111.1 L 780.0 110.6 L 780.0 110.2 L 780.0 109.7 L 780.0 109.3 L 780.0 108.8 L 780.0 108.4 L 780.0 107.9 L 780.0 107.5 L 780.0 107.0 L 780.0 106.6 L 780.0 106.1 L 780.0 105.7 L 780.0 105.2 L 780.0 104.8 L 780.0 104.3 L 780.0 103.9 L 780.0 103.4 L 780.0 103.0 L 780.0 102.5 L 780.0 102.1 L 780.0 101.6 L 780.0 101.2 L 780.0 100.7 L 780.0 100.3 L 780.0 99.8 L 780.0 99.4 L 780.0 98.9 L 780.0 98.5 L 780.0 98.0 L 780.0 97.6 L 780.0 97.1 L 780.0 96.7 L 780.0 96.2 L 780.0 95.7 L 780.0 95.3 L 780.0 94.8 L 780.0 94.4 L 780.0 93.9 L 780.0 93.5 L 780.0 93.0 L 780.0 92.6 L 780.0 92.1 L 780.0 91.7 L 780.0 91.2 L 780.0 90.8 L 780.0 90.3 L 780.0 89.9 L 780.0 89.4 L 780.0 89.0 L 779.5 88.5 L 779.1 88.5 L 778.6 88.5 L 778.2 88.5 L 777.7 88.5 L 777.3 88.5 L 776.8 88.5 L 776.4 88.5 L 775.9 88.5 L 775.5 88.5 L 775.0 88.5 L 774.6 88.5 L 774.1 88.5 L 773.7 88.5 L 773.2 88.5 L 772.8 88.5 L 772.3 88.5 L 771.9 88.5 L 771.4 88.5 L 771.0 88.5 L 770.5 88.5 L 770.1 88.5 L 769.6 88.5 L 769.2 88.5 L 768.7 88.5 L 768.3 88.5 L 767.8 88.5 L 767.4 88.5 L 766.9 88.5 L 766.5 88.5 L 766.0 88.5 L 765.6 88.5 L 765.1 88.5 L 764.7 88.5 L 764.2 88.5 L 763.8 88.5 L 763.3 88.5 L 762.9 88.5 L 762.4 88.5 L 761.9 88.5 L 761.5 88.5 L 761.0 88.5 L 760.6 88.5 L 760.1 88.5 L 759.7 88.5 L 759.2 88.5 L 758.8 88.5 L 758.3 88.5 L 757.9 88.5 L 757.4 88.5 L 757.0 88.5 L 756.5 88.5 L 756.1 88.5 L 755.6 88.5 L 755.2 88.5 L 754.7 88.5 L 754.3 88.5 L 753.8 88.5 L 753.4 88.5 L 752.9 88.5 L 752.5 88.5 L 752.0 88.5 L 751.6 88.5 L 751.1 88.5 L 750.7 88.5 L 750.2 88.5 L 749.8 88.5 L 749.3 88.5 L 748.9 88.5 L 748.4 88.5 L 748.0 88.5 L 747.5 88.5 L 747.1 88.5 L 746.6 88.5 L 746.2 88.5 L 745.7 88.5 L 745.2 88.5 L 744.8 88.5 L 744.3 88.5 L 743.9 88.5 L 743.4 88.5 L 743.0 88.5 L 742.5 88.5 L 742.1 88.5 L 741.6 88.5 L 741.2 88.5 L 740.7 88.5 L 740.3 88.5 L 739.8 88.5 L 739.4 88.5 L 738.9 88.5 L 738.5 88.5 L 738.0 88.5 L 737.6 88.5 L 737.1 88.5 L 736.7 88.5 L 736.2 88.5 L 735.8 88.5 L 735.3 88.5 L 734.9 88.5 L 734.4 88.5 L 734.0 88.5 L 733.5 88.5 L 733.1 88.5 L 732.6 88.5 L 732.2 88.5 L 731.7 88.5 L 731.3 88.5 L 730.8 88.5 L 730.4 88.5 L 729.9 88.5 L 729.5 88.5 L 729.0 88.5 L 728.6 88.5 L 728.1 88.5 L 727.6 88.5 L 727.2 88.5 L 726.7 88.5 L 726.3 88.5 L 725.8 88.5 L 725.4 88.5 L 724.9 88.5 L 724.5 88.5 L 724.0 88.5 L 723.6 88.5 L 723.1 88.5 L 722.7 88.5 L 722.2 88.5 L 721.8 88.5 L 721.3 88.5 L 720.9 88.5 L 720.4 88.5 L 720.0 88.5 L 719.5 88.5 L 719.1 88.5 L 718.6 88.5 L 718.2 88.5 L 717.7 88.5 L 717.3 88.5 L 716.8 88.5 L 716.4 88.5 L 715.9 88.5 L 715.5 88.5 L 715.0 88.5 L 714.6 88.5 L 714.1 88.5 L 713.7 88.5 L 713.2 88.5 L 712.8 88.5 L 712.3 88.5 L 711.9 88.5 L 711.4 88.5 L 711.0 88.5 L 710.5 88.5 L 710.0 88.5 L 709.6 88.5 L 709.1 88.5 L 708.7 88.5 L 708.2 88.5 L 707.8 88.5 L 707.3 88.5 L 706.9 88.5 L 706.4 88.5 L 706.0 88.5 L 705.5 88.5 L 705.1 88.5 L 704.6 88.5 L 704.2 88.5 L 703.7 88.5 L 703.3 88.5 L 702.8 88.5 L 702.4 88.5 L 701.9 88.5 L 701.5 88.5 L 701.0 88.5 L 700.6 88.5 L 700.1 88.5 L 699.7 88.5 L 699.2 88.5 L 698.8 88.5 L 698.3 88.5 L 697.9 88.5 L 697.4 88.5 L 697.0 88.5 L 696.5 88.5 L 696.1 88.5 L 695.6 88.5 L 695.2 88.5 L 694.7 88.5 L 694.3 88.5 L 693.8 88.5 L 693.3 88.5 L 692.9 88.5 L 692.4 88.5 L 692.0 88.5 L 691.5 88.5 L 691.1 88.5 L 690.6 88.5 L 690.2 88.5 L 689.7 88.5 L 689.3 88.5 L 688.8 88.5 L 688.4 88.5 L 687.9 88.5 L 687.5 88.5 L 687.0 88.5 L 686.6 88.5 L 686.1 88.5 L 685.7 88.5 L 685.2 88.5 L 684.8 88.5 L 684.3 88.5 L 683.9 88.5 L 683.4 88.5 L 683.0 88.5 L 682.5 88.5 L 682.1 88.5 L 681.6 88.5 L 681.2 88.5 L 680.7 88.5 L 680.3 88.5 L 679.8 88.5 L 679.4 88.5 L 678.9 88.5 L 678.5 88.5 L 678.0 88.5 L 677.6 88.5 L 677.1 88.5 L 676.7 88.5 L 676.2 88.5 L 675.7 88.5 L 675.3 88.5 L 674.8 88.5 L 674.4 88.5 L 673.9 88.5 L 673.5 88.5 L 673.0 88.5 L 672.6 88.5 L 672.1 88.5 L 671.7 88.5 L 671.2 88.5 L 670.8 88.5 L 670.3 88.5 L 669.9 88.5 L 669.4 88.5 L 669.0 88.5 L 668.5 88.5 L 668.1 88.5 L 667.6 88.5 L 667.2 88.5 L 666.7 88.5 L 666.3 88.5 L 665.8 88.5 L 665.4 88.5 L 664.9 88.5 L 664.5 88.5 L 664.0 88.5 L 663.6 88.5 L 663.1 88.5 L 662.7 88.5 L 662.2 88.5 L 661.8 88.5 L 661.3 88.5 L 660.9 88.5 L 660.4 88.5 L 660.0 88.5 L 659.5 88.5 L 659.0 88.5 L 658.6 88.5 L 658.1 88.5 L 657.7 88.5 L 657.2 88.5 L 656.8 88.5 L 656.3 88.5 L 655.9 88.5 L 655.4 88.5 L 655.0 88.5 L 654.5 88.5 L 654.1 88.5 L 653.6 88.5 L 653.2 88.5 L 652.7 88.5 L 652.3 88.5 L 651.8 88.5 L 651.4 88.5 L 650.9 88.5 L 650.5 88.5 L 650.0 88.5 L 649.6 88.5 L 649.1 88.5 L 648.7 88.5 L 648.2 88.5 L 647.8 88.5 L 647.3 88.5 L 646.9 88.5 L 646.4 88.5 L 646.0 88.5 L 645.5 88.5 L 645.1 88.5 L 644.6 88.5 L 644.2 88.5 L 643.7 88.5 L 643.3 88.5 L 642.8 88.5 L 642.4 88.5 L 641.9 88.5 L 641.4 88.5 L 641.0 88.5 L 640.5 88.5 L 640.1 88.5 L 639.6 88.5 L 639.2 88.5 L 638.7 88.5 L 638.3 88.5 L 637.8 88.5 L 637.4 88.5 L 636.9 88.5 L 636.5 88.5 L 636.0 88.5 L 635.6 88.5 L 635.1 88.5 L 634.7 88.5 L 634.2 88.5 L 633.8 88.5 L 633.3 88.5 L 632.9 88.5 L 632.4 88.5 L 632.0 88.5 L 631.5 88.5 L 631.1 88.5 L 630.6 88.5 L 630.2 88.5 L 629.7 88.5 L 629.3 88.5 L 628.8 88.5 L 628.4 88.5 L 627.9 88.5 L 627.5 88.5 L 627.0 88.5 L 626.6 88.5 L 626.1 88.5 L 625.7 88.5 L 625.2 88.5 L 624.8 88.5 L 624.3 88.5 L 623.8 88.5 L 623.4 88.5 L 622.9 88.5 L 622.5 88.5 L 622.0 88.5 L 621.6 88.5 L 621.1 88.5 L 620.7 88.5 L 620.2 88.5 L 619.8 88.5 L 619.3 88.5 L 618.9 88.5 L 618.4 88.5 L 618.0 88.5 L 617.5 88.5 L 617.1 88.5 L 616.6 88.5 L 616.2 88.5 L 615.7 88.5 L 615.3 88.5 L 614.8 88.5 L 614.4 88.5 L 613.9 88.5 L 613.5 88.5 L 613.0 88.5 L 612.6 88.5 L 612.1 88.5 L 611.7 88.5 L 611.2 88.5 L 610.8 88.5 L 610.3 88.5 L 609.9 88.5 L 609.4 88.5 L 609.0 88.5 L 608.5 88.5 L 608.1 88.5 L 607.6 88.5 L 607.1 88.5 L 606.7 88.5 L 606.2 88.5 L 605.8 88.5 L 605.3 88.5 L 604.9 88.5 L 604.4 88.5 L 604.0 88.5 L 603.5 88.5 L 603.1 88.5 L 602.6 88.5 L 602.2 88.5 L 601.7 88.5 L 601.3 88.5 L 600.8 88.5 L 600.4 88.5 L 599.9 88.5 L 599.5 88.5 L 599.0 88.5 L 598.6 88.5 L 598.1 88.5 L 597.7 88.5 L 597.2 88.5 L 596.8 88.5 L 596.3 88.5 L 595.9 88.5 L 595.4 88.5 L 595.0 88.5 L 594.5 88.5 L 594.1 88.5 L 593.6 88.5 L 593.2 88.5 L 592.7 88.5 L 592.3 88.5 L 591.8 88.5 L 591.4 88.5 L 590.9 88.5 L 590.5 88.5 L 590.0 88.5 L 589.5 88.5 L 589.1 88.5 L 588.6 88.5 L 588.2 88.5 L 587.7 88.5 L 587.3 88.5 L 586.8 88.5 L 586.4 88.5 L 585.9 88.5 L 585.5 88.5 L 585.0 88.5 L 584.6 88.5 L 584.1 88.5 L 583.7 88.5 L 583.2 88.5 L 582.8 88.5 L 582.3 88.5 L 581.9 88.5 L 581.4 88.5 L 581.0 88.5 L 580.5 88.5 L 580.1 88.5 L 579.6 88.5 L 579.2 88.5 L 578.7 88.5 L 578.3 88.5 L 577.8 88.5 L 577.4 88.5 L 576.9 88.5 L 576.5 88.5 L 576.0 88.5 L 575.6 88.5 L 575.1 88.5 L 574.7 88.5 L 574.2 88.5 L 573.8 88.5 L 573.3 88.5 L 572.9 88.5 L 572.4 88.5 L 571.9 88.5 L 571.5 88.5 L 571.0 88.5 L 570.6 88.5 L 570.1 88.5 L 569.7 88.5 L 569.2 88.5 L 568.8 88.5 L 568.3 88.5 L 567.9 88.5 L 567.4 88.5 L 567.0 88.5 L 566.5 88.5 L 566.1 88.5 L 565.6 88.5 L 565.2 88.5 L 564.7 88.5 L 564.3 88.5 L 563.8 88.5 L 563.4 88.5 L 562.9 88.5 L 562.5 88.5 L 562.0 88.5 L 561.6 88.5 L 561.1 88.5 L 560.7 88.5 L 560.2 88.5 L 559.8 88.5 L 559.3 88.5 L 558.9 88.5 L 558.4 88.5 L 558.0 88.5 L 557.5 88.5 L 557.1 88.5 L 556.6 88.5 L 556.2 88.5 L 555.7 88.5 L 555.2 88.5 L 554.8 88.5 L 554.3 88.5 L 553.9 88.5 L 553.4 88.5 L 553.0 88.5 L 552.5 88.5 L 552.1 88.5 L 551.6 88.5 L 551.2 88.5 L 550.7 88.5 L 550.3 88.5 L 549.8 88.5 L 549.4 88.5 L 548.9 88.5 L 548.5 88.5 L 548.0 88.5 L 547.6 88.5 L 547.1 88.5 L 546.7 88.5 L 546.2 88.5 L 545.8 88.5 L 545.3 88.5 L 544.9 88.5 L 544.4 88.5 L 544.0 88.5 L 543.5 88.5 L 543.1 88.5 L 542.6 88.5 L 542.2 88.5 L 541.7 88.5 L 541.3 88.5 L 540.8 88.5 L 540.4 88.5 L 539.9 88.5 L 539.5 88.5 L 539.0 88.5 L 538.6 88.5 L 538.1 88.5 L 537.6 88.5 L 537.2 88.5 L 536.7 88.5 L 536.3 88.5 L 535.8 88.5 L 535.4 88.5 L 534.9 88.5 L 534.5 88.5 L 534.0 88.5 L 533.6 88.5 L 533.1 88.5 L 532.7 88.5 L 532.2 88.5 L 531.8 88.5 L 531.3 88.5 L 530.9 88.5 L 530.4 88.5 L 530.0 88.5 L 529.5 88.5 L 529.1 88.5 L 528.6 88.5 L 528.2 88.5 L 527.7 88.5 L 527.3 88.5 L 526.8 88.5 L 526.4 88.5 L 525.9 88.5 L 525.5 88.5 L 525.0 88.5 L 524.6 88.5 L 524.1 88.5 L 523.7 88.5 L 523.2 88.5 L 522.8 88.5 L 522.3 88.5 L 521.9 88.5 L 521.4 88.5 L 521.0 88.5 L 520.5 88.5 L 520.0 88.5 L 519.6 88.5 L 519.1 88.5 L 518.7 88.5 L 518.2 88.5 L 517.8 88.5 L 517.3 88.5 L 516.9 88.5 L 516.4 88.5 L 516.0 88.5 L 515.5 88.5 L 515.1 88.5 L 514.6 88.5 L 514.2 88.5 L 513.7 88.5 L 513.3 88.5 L 512.8 88.5 L 512.4 88.5 L 511.9 88.5 L 511.5 88.5 L 511.0 88.5 L 510.6 88.5 L 510.1 88.5 L 509.7 88.5 L 509.2 88.5 L 508.8 88.5 L 508.3 88.5 L 507.9 88.5 L 507.4 88.5 L 507.0 88.5 L 506.5 88.5 L 506.1 88.5 L 505.6 88.5 L 505.2 88.5 L 504.7 88.5 L 504.3 88.5 L 503.8 88.5 L 503.3 88.5 L 502.9 88.5 L 502.4 88.5 L 502.0 88.5 L 501.5 88.5 L 501.1 88.5 L 500.6 88.5 L 500.2 88.5 L 499.7 88.5 L 499.3 88.5 L 498.8 88.5 L 498.4 88.5 L 497.9 88.5 L 497.5 88.5 L 497.0 88.5 L 496.6 88.5 L 496.1 88.5 L 495.7 88.5 L 495.2 88.5 L 494.8 88.5 L 494.3 88.5 L 493.9 88.5 L 493.4 88.5 L 493.0 88.5 L 492.5 88.5 L 492.1 88.5 L 491.6 88.5 L 491.2 88.5 L 490.7 88.5 L 490.3 88.5 L 489.8 88.5 L 489.4 88.5 L 488.9 88.5 L 488.5 88.5 L 488.0 88.5 L 487.6 88.5 L 487.1 88.5 L 486.7 88.5 L 486.2 88.5 L 485.7 88.5 L 485.3 88.5 L 484.8 88.5 L 484.4 88.5 L 483.9 88.5 L 483.5 88.5 L 483.0 88.5 L 482.6 88.5 L 482.1 88.5 L 481.7 88.5 L 481.2 88.5 L 480.8 88.5 L 480.3 88.5 L 479.9 88.5 L 479.4 88.5 L 479.0 88.5 L 478.5 88.5 L 478.1 88.5 L 477.6 88.5 L 477.2 88.5 L 476.7 88.5 L 476.3 88.5 L 475.8 88.5 L 475.4 88.5 L 474.9 88.5 L 474.5 88.5 L 474.0 88.5 L 473.6 88.5 L 473.1 88.5 L 472.7 88.5 L 472.2 88.5 L 471.8 88.5 L 471.3 88.5 L 470.9 88.5 L 470.4 88.5 L 470.0 88.5 L 469.5 88.5 L 469.0 88.5 L 468.6 88.5 L 468.1 88.5 L 467.7 88.5 L 467.2 88.5 L 466.8 88.5 L 466.3 88.5 L 465.9 88.5 L 465.4 88.5 L 465.0 88.5 L 464.5 88.5 L 464.1 88.5 L 463.6 88.5 L 463.2 88.5 L 462.7 88.5 L 462.3 88.5 L 461.8 88.5 L 461.4 88.5 L 460.9 88.5 L 460.5 88.5 L 460.0 88.5 L 459.6 88.5 L 459.1 88.5 L 458.7 88.5 L 458.2 88.5 L 457.8 88.5 L 457.3 88.5 L 456.9 88.5 L 456.4 88.5 L 456.0 88.5 L 455.5 88.5 L 455.1 88.5 L 454.6 88.5 L 454.2 88.5 L 453.7 88.5 L 453.3 88.5 L 452.8 88.5 L 452.4 88.5 L 451.9 88.5 L 451.4 88.5 L 451.0 88.5 L 450.5 88.5 L 450.1 88.5 L 449.6 88.5 L 449.2 88.5 L 448.7 88.5 L 448.3 88.5 L 447.8 88.5 L 447.4 88.5 L 446.9 88.5 L 446.5 88.5 L 446.0 88.5 L 445.6 88.5 L 445.1 88.5 L 444.7 88.5 L 444.2 88.5 L 443.8 88.5 L 443.3 88.5 L 442.9 88.5 L 442.4 88.5 L 442.0 88.5 L 441.5 88.5 L 441.1 88.5 L 440.6 88.5 L 440.2 88.5 L 439.7 88.5 L 439.3 88.5 L 438.8 88.5 L 438.4 88.5 L 437.9 88.5 L 437.5 88.5 L 437.0 88.5 L 436.6 88.5 L 436.1 88.5 L 435.7 88.5 L 435.2 88.5 L 434.8 88.5 L 434.3 88.5 L 433.8 88.5 L 433.4 88.5 L 432.9 88.5 L 432.5 88.5 L 432.0 88.5 L 431.6 88.5 L 431.1 88.5 L 430.7 88.5 L 430.2 88.5 L 429.8 88.5 L 429.3 88.5 L 428.9 88.5 L 428.4 88.5 L 428.0 88.5 L 427.5 88.5 L 427.1 88.5 L 426.6 88.5 L 426.2 88.5 L 425.7 88.5 L 425.3 88.5 L 424.8 88.5 L 424.4 88.5 L 423.9 88.5 L 423.5 88.5 L 423.0 88.5 L 422.6 88.5 L 422.1 88.5 L 421.7 88.5 L 421.2 88.5 L 420.8 88.5 L 420.3 88.5 L 419.9 88.5 L 419.4 88.5 L 419.0 88.5 L 418.5 88.5 L 418.1 88.5 L 417.6 88.5 L 417.1 88.5 L 416.7 88.5 L 416.2 88.5 L 415.8 88.5 L 415.3 88.5 L 414.9 88.5 L 414.4 88.5 L 414.0 88.5 L 413.5 88.5 L 413.1 88.5 L 412.6 88.5 L 412.2 88.5 L 411.7 88.5 L 411.3 88.5 L 410.8 88.5 L 410.4 88.5 L 409.9 88.5 L 409.5 88.5 L 409.0 88.5 L 408.6 88.5 L 408.1 88.5 L 407.7 88.5 L 407.2 88.5 L 406.8 88.5 L 406.3 88.5 L 405.9 88.5 L 405.4 88.5 L 405.0 88.5 L 404.5 88.5 L 404.1 88.5 L 403.6 88.5 L 403.2 88.5 L 402.7 88.5 L 402.3 88.5 L 401.8 88.5 L 401.4 88.5 L 400.9 88.5 L 400.5 88.5 L 400.0 88.5 L 399.5 88.5 L 399.1 88.5 L 398.6 88.5 L 398.2 88.5 L 397.7 88.5 L 397.3 88.5 L 396.8 88.5 L 396.4 88.5 L 395.9 88.5 L 395.5 88.5 L 395.0 88.5 L 394.6 88.5 L 394.1 88.5 L 393.7 88.5 L 393.2 88.5 L 392.8 88.5 L 392.3 88.5 L 391.9 88.5 L 391.4 88.5 L 391.0 88.5 L 390.5 88.5 L 390.1 88.5 L 389.6 88.5 L 389.2 88.5 L 388.7 88.5 L 388.3 88.5 L 387.8 88.5 L 387.4 88.5 L 386.9 88.5 L 386.5 88.5 L 386.0 88.5 L 385.6 88.5 L 385.1 88.5 L 384.7 88.5 L 384.2 88.5 L 383.8 88.5 L 383.3 88.5 L 382.9 88.5 L 382.4 88.5 L 381.9 88.5 L 381.5 88.5 L 381.0 88.5 L 380.6 88.5 L 380.1 88.5 L 379.7 88.5 L 379.2 88.5 L 378.8 88.5 L 378.3 88.5 L 377.9 88.5 L 377.4 88.5 L 377.0 88.5 L 376.5 88.5 L 376.1 88.5 L 375.6 88.5 L 375.2 88.5 L 374.7 88.5 L 374.3 88.5 L 373.8 88.5 L 373.4 88.5 L 372.9 88.5 L 372.5 88.5 L 372.0 88.5 L 371.6 88.5 L 371.1 88.5 L 370.7 88.5 L 370.2 88.5 L 369.8 88.5 L 369.3 88.5 L 368.9 88.5 L 368.4 88.5 L 368.0 88.5 L 367.5 88.5 L 367.1 88.5 L 366.6 88.5 L 366.2 88.5 L 365.7 88.5 L 365.2 88.5 L 364.8 88.5 L 364.3 88.5 L 363.9 88.5 L 363.4 88.5 L 363.0 88.5 L 362.5 88.5 L 362.1 88.5 L 361.6 88.5 L 361.2 88.5 L 360.7 88.5 L 360.3 88.5 L 359.8 88.5 L 359.4 88.5 L 358.9 88.5 L 358.5 88.5 L 358.0 88.5 L 357.6 88.5 L 357.1 88.5 L 356.7 88.5 L 356.2 88.5 L 355.8 88.5 L 355.3 88.5 L 354.9 88.5 L 354.4 88.5 L 354.0 88.5 L 353.5 88.5 L 353.1 88.5 L 352.6 88.5 L 352.2 88.5 L 351.7 88.5 L 351.3 88.5 L 350.8 88.5 L 350.4 88.5 L 349.9 88.5 L 349.5 88.5 L 349.0 88.5 L 348.6 88.5 L 348.1 88.5 L 347.6 88.5 L 347.2 88.5 L 346.7 88.5 L 346.3 88.5 L 345.8 88.5 L 345.4 88.5 L 344.9 88.5 L 344.5 88.5 L 344.0 88.5 L 343.6 88.5 L 343.1 88.5 L 342.7 88.5 L 342.2 88.5 L 341.8 88.5 L 341.3 88.5 L 340.9 88.5 L 340.4 88.5 L 340.0 88.5 L 339.5 88.5 L 339.1 88.5 L 338.6 88.5 L 338.2 88.5 L 337.7 88.5 L 337.3 88.5 L 336.8 88.5 L 336.4 88.5 L 335.9 88.5 L 335.5 88.5 L 335.0 88.5 L 334.6 88.5 L 334.1 88.5 L 333.7 88.5 L 333.2 88.5 L 332.8 88.5 L 332.3 88.5 L 331.9 88.5 L 331.4 88.5 L 331.0 88.5 L 330.5 88.5 L 330.0 88.5 L 329.6 88.5 L 329.1 88.5 L 328.7 88.5 L 328.2 88.5 L 327.8 88.5 L 327.3 88.5 L 326.9 88.5 L 326.4 88.5 L 326.0 88.5 L 325.5 88.5 L 325.1 88.5 L 324.6 88.5 L 324.2 88.5 L 323.7 88.5 L 323.3 88.5 L 322.8 88.5 L 322.4 88.5 L 321.9 88.5 L 321.5 88.5 L 321.0 88.5 L 320.6 88.5 L 320.1 88.5 L 319.7 88.5 L 319.2 88.5 L 318.8 88.5 L 318.3 88.5 L 317.9 88.5 L 317.4 88.5 L 317.0 88.5 L 316.5 88.5 L 316.1 88.5 L 315.6 88.5 L 315.2 88.5 L 314.7 88.5 L 314.3 88.5 L 313.8 88.5 L 313.3 88.5 L 312.9 88.5 L 312.4 88.5 L 312.0 88.5 L 311.5 88.5 L 311.1 88.5 L 310.6 88.5 L 310.2 88.5 L 309.7 88.5 L 309.3 88.5 L 308.8 88.5 L 308.4 88.5 L 307.9 88.5 L 307.5 88.5 L 307.0 88.5 L 306.6 88.5 L 306.1 88.5 L 305.7 88.5 L 305.2 88.5 L 304.8 88.5 L 304.3 88.5 L 303.9 88.5 L 303.4 88.5 L 303.0 88.5 L 302.5 88.5 L 302.1 88.5 L 301.6 88.5 L 301.2 88.5 L 300.7 88.5 L 300.3 88.5 L 299.8 88.5 L 299.4 88.5 L 298.9 88.5 L 298.5 88.5 L 298.0 88.5 L 297.6 88.5 L 297.1 88.5 L 296.7 88.5 L 296.2 88.5 L 295.7 88.5 L 295.3 88.5 L 294.8 88.5 L 294.4 88.5 L 293.9 88.5 L 293.5 88.5 L 293.0 88.5 L 292.6 88.5 L 292.1 88.5 L 291.7 88.5 L 291.2 88.5 L 290.8 88.5 L 290.3 88.5 L 289.9 88.5 L 289.4 88.5 L 289.0 88.5 L 288.5 88.5 L 288.1 88.5 L 287.6 88.5 L 287.2 88.5 L 286.7 88.5 L 286.3 88.5 L 285.8 88.5 L 285.4 88.5 L 284.9 88.5 L 284.5 88.5 L 284.0 88.5 L 283.6 88.5 L 283.1 88.5 L 282.7 88.5 L 282.2 88.5 L 281.8 88.5 L 281.3 88.5 L 280.9 88.5 L 280.4 88.5 L 280.0 88.5 L 279.5 88.5 L 279.0 88.5 L 278.6 88.5 L 278.1 88.5 L 277.7 88.5 L 277.2 88.5 L 276.8 88.5 L 276.3 88.5 L 275.9 88.5 L 275.4 88.5 L 275.0 88.5 L 274.5 88.5 L 274.1 88.5 L 273.6 88.5 L 273.2 88.5 L 272.7 88.5 L 272.3 88.5 L 271.8 88.5 L 271.4 88.5 L 270.9 88.5 L 270.5 88.5 L 270.0 88.5 L 269.6 88.5 L 269.1 88.5 L 268.7 88.5 L 268.2 88.5 L 267.8 88.5 L 267.3 88.5 L 266.9 88.5 L 266.4 88.5 L 266.0 88.5 L 265.5 88.5 L 265.1 88.5 L 264.6 88.5 L 264.2 88.5 L 263.7 88.5 L 263.3 88.5 L 262.8 88.5 L 262.4 88.5 L 261.9 88.5 L 261.4 88.5 L 261.0 88.5 L 260.5 88.5 L 260.1 88.5 L 259.6 88.5 L 259.2 88.5 L 258.7 88.5 L 258.3 88.5 L 257.8 88.5 L 257.4 88.5 L 256.9 88.5 L 256.5 88.5 L 256.0 88.5 L 255.6 88.5 L 255.1 88.5 L 254.7 88.5 L 254.2 88.5 L 253.8 88.5 L 253.3 88.5 L 252.9 88.5 L 252.4 88.5 L 252.0 88.5 L 251.5 88.5 L 251.1 88.5 L 250.6 88.5 L 250.2 88.5 L 249.7 88.5 L 249.3 88.5 L 248.8 88.5 L 248.4 88.5 L 247.9 88.5 L 247.5 88.5 L 247.0 88.5 L 246.6 88.5 L 246.1 88.5 L 245.7 88.5 L 245.2 88.5 L 244.8 88.5 L 244.3 88.5 L 243.8 88.5 L 243.4 88.5 L 242.9 88.5 L 242.5 88.5 L 242.0 88.5 L 241.6 88.5 L 241.1 88.5 L 240.7 88.5 L 240.2 88.5 L 239.8 88.5 L 239.3 88.5 L 238.9 88.5 L 238.4 88.5 L 238.0 88.5 L 237.5 88.5 L 237.1 88.5 L 236.6 88.5 L 236.2 88.5 L 235.7 88.5 L 235.3 88.5 L 234.8 88.5 L 234.4 88.5 L 233.9 88.5 L 233.5 88.5 L 233.0 88.5 L 232.6 88.5 L 232.1 88.5 L 231.7 88.5 L 231.2 88.5 L 230.8 88.5 L 230.3 88.5 L 229.9 88.5 L 229.4 88.5 L 229.0 88.5 L 228.5 88.5 L 228.1 88.5 L 227.6 88.5 L 227.1 88.5 L 226.7 88.5 L 226.2 88.5 L 225.8 88.5 L 225.3 88.5 L 224.9 88.5 L 224.4 88.5 L 224.0 88.5 L 223.5 88.5 L 223.1 88.5 L 222.6 88.5 L 222.2 88.5 L 221.7 88.5 L 221.3 88.5 L 220.8 88.5 L 220.4 88.5 L 219.9 88.5 L 219.5 88.5 L 219.0 88.5 L 218.6 88.5 L 218.1 88.5 L 217.7 88.5 L 217.2 88.5 L 216.8 88.5 L 216.3 88.5 L 215.9 88.5 L 215.4 88.5 L 215.0 88.5 L 214.5 88.5 L 214.1 88.5 L 213.6 88.5 L 213.2 88.5 L 212.7 88.5 L 212.3 88.5 L 211.8 88.5 L 211.4 88.5 L 210.9 88.5 L 210.5 88.5 L 210.0 88.5 L 209.5 88.5 L 209.1 88.5 L 208.6 88.5 L 208.2 88.5 L 207.7 88.5 L 207.3 88.5 L 206.8 88.5 L 206.4 88.5 L 205.9 88.5 L 205.5 88.5 L 205.0 88.5 L 204.6 88.5 L 204.1 88.5 L 203.7 88.5 L 203.2 88.5 L 202.8 88.5 L 202.3 88.5 L 201.9 88.5 L 201.4 88.5 L 201.0 88.5 L 200.5 88.5 L 200.1 88.5 L 199.6 88.5 L 199.2 88.5 L 198.7 88.5 L 198.3 88.5 L 197.8 88.5 L 197.4 88.5 L 196.9 88.5 L 196.5 88.5 L 196.0 88.5 L 195.6 88.5 L 195.1 88.5 L 194.7 88.5 L 194.2 88.5 L 193.8 88.5 L 193.3 88.5 L 192.9 88.5 L 192.4 88.5 L 191.9 88.5 L 191.5 88.5 L 191.0 88.5 L 190.6 88.5 L 190.1 88.5 L 189.7 88.5 L 189.2 88.5 L 188.8 88.5 L 188.3 88.5 L 187.9 88.5 L 187.4 88.5 L 187.0 88.5 L 186.5 88.5 L 186.1 88.5 L 185.6 88.5 L 185.2 88.5 L 184.7 88.5 L 184.3 88.5 L 183.8 88.5 L 183.4 88.5 L 182.9 88.5 L 182.5 88.5 L 182.0 88.5 L 181.6 88.5 L 181.1 88.5 L 180.7 88.5 L 180.2 88.5 L 179.8 88.5 L 179.3 88.5 L 178.9 88.5 L 178.4 88.5 L 178.0 88.5 L 177.5 88.5 L 177.1 88.5 L 176.6 88.5 L 176.2 88.5 L 175.7 88.5 L 175.2 88.5 L 174.8 88.5 L 174.3 88.5 L 173.9 88.5 L 173.4 88.5 L 173.0 88.5 L 172.5 88.5 L 172.1 88.5 L 171.6 88.5 L 171.2 88.5 L 170.7 88.5 L 170.3 88.5 L 169.8 88.5 L 169.4 88.5 L 168.9 88.5 L 168.5 88.5 L 168.0 88.5 L 167.6 88.5 L 167.1 88.5 L 166.7 88.5 L 166.2 88.5 L 165.8 88.5 L 165.3 88.5 L 164.9 88.5 L 164.4 88.5 L 164.0 88.5 L 163.5 88.5 L 163.1 88.5 L 162.6 88.5 L 162.2 88.5 L 161.7 88.5 L 161.3 88.5 L 160.8 88.5 L 160.4 88.5 L 159.9 88.5 L 159.5 88.5 L 159.0 88.5 L 158.6 88.5 L 158.1 88.5 L 157.6 88.5 L 157.2 88.5 L 156.7 88.5 L 156.3 88.5 L 155.8 88.5 L 155.4 88.5 L 154.9 88.5 L 154.5 88.5 L 154.0 88.5 L 153.6 88.5 L 153.1 88.5 L 152.7 88.5 L 152.2 88.5 L 151.8 88.5 L 151.3 88.5 L 150.9 88.5 L 150.4 88.5 L 150.0 88.5 L 149.5 88.5 L 149.1 88.5 L 148.6 88.5 L 148.2 88.5 L 147.7 88.5 L 147.3 88.5 L 146.8 88.5 L 146.4 88.5 L 145.9 88.5 L 145.5 88.5 L 145.0 88.5 L 144.6 88.5 L 144.1 88.5 L 143.7 88.5 L 143.2 88.5 L 142.8 88.5 L 142.3 88.5 L 141.9 88.5 L 141.4 88.5 L 141.0 88.5 L 140.5 88.5 L 140.0 88.5 L 139.6 88.5 L 139.1 88.5 L 138.7 88.5 L 138.2 88.5 L 137.8 88.5 L 137.3 88.5 L 136.9 88.5 L 136.4 88.5 L 136.0 88.5 L 135.5 88.5 L 135.1 88.5 L 134.6 88.5 L 134.2 88.5 L 133.7 88.5 L 133.3 88.5 L 132.8 88.5 L 132.4 88.5 L 131.9 88.5 L 131.5 88.5 L 131.0 88.5 L 130.6 88.5 L 130.1 88.5 L 129.7 88.5 L 129.2 88.5 L 128.8 88.5 L 128.3 88.5 L 127.9 88.5 L 127.4 88.5 L 127.0 88.5 L 126.5 88.5 L 126.1 88.5 L 125.6 88.5 L 125.2 88.5 L 124.7 88.5 L 124.3 88.5 L 123.8 88.5 L 123.3 88.5 L 122.9 88.5 L 122.4 88.5 L 122.0 88.5 L 121.5 88.5 L 121.1 88.5 L 120.6 88.5 L 120.2 88.5 L 119.7 88.5 L 119.3 88.5 L 118.8 88.5 L 118.4 88.5 L 117.9 88.5 L 117.5 88.5 L 117.0 88.5 L 116.6 88.5 L 116.1 88.5 L 115.7 88.5 L 115.2 88.5 L 114.8 88.5 L 114.3 88.5 L 113.9 88.5 L 113.4 88.5 L 113.0 88.5 L 112.5 88.5 L 112.1 88.5 L 111.6 88.5 L 111.2 88.5 L 110.7 88.5 L 110.3 88.5 L 109.8 88.5 L 109.4 88.5 L 108.9 88.5 L 108.5 88.5 L 108.0 88.5 L 107.6 88.5 L 107.1 88.5 L 106.7 88.5 L 106.2 88.5 L 105.7 88.5 L 105.3 88.5 L 104.8 88.5 L 104.4 88.5 L 103.9 88.5 L 103.5 88.5 L 103.0 88.5 L 102.6 88.5 L 102.1 88.5 L 101.7 88.5 L 101.2 88.5 L 100.8 88.5 L 100.3 88.5 L 99.9 88.5 L 99.4 88.5 L 99.0 88.5 L 98.5 88.5 L 98.1 88.5 L 97.6 88.5 L 97.2 88.5 L 96.7 88.5 L 96.3 88.5 L 95.8 88.5 L 95.4 88.5 L 94.9 88.5 L 94.5 88.5 L 94.0 88.5 L 93.6 88.5 L 93.1 88.5 L 92.7 88.5 L 92.2 88.5 L 91.8 88.5 L 91.3 88.5 L 90.9 88.5 L 90.4 88.5 L 90.0 88.5 L 89.5 88.5 L 89.0 88.5 L 88.6 88.5 L 88.1 88.5 L 87.7 88.5 L 87.2 88.5 L 86.8 88.5 L 86.3 88.5 L 85.9 88.5 L 85.4 88.5 L 85.0 88.5 L 84.5 88.5 L 84.1 88.5 L 83.6 88.5 L 83.2 88.5 L 82.7 88.5 L 82.3 88.5 L 81.8 88.5 L 81.4 88.5 L 80.9 88.5 L 80.5 88.5 L 80.0 88.5 L 79.6 88.5 L 79.1 88.5 L 78.7 88.5 L 78.2 88.5 L 77.8 88.5 L 77.3 88.5 L 76.9 88.5 L 76.4 88.5 L 76.0 88.5 L 75.5 88.5 L 75.1 88.5 L 74.6 88.5 L 74.2 88.5 L 73.7 88.5 L 73.3 88.5 L 72.8 88.5 L 72.4 88.5 L 71.9 88.5 L 71.4 88.5 L 71.0 88.5 L 70.5 88.5 L 70.1 88.5 L 69.6 88.5 L 69.2 88.5 L 68.7 88.5 L 68.3 88.5 L 67.8 88.5 L 67.4 88.5 L 66.9 88.5 L 66.5 88.5 L 66.0 88.5 L 65.6 88.5 L 65.1 88.5 L 64.7 88.5 L 64.2 88.5 L 63.8 88.5 L 63.3 88.5 L 62.9 88.5 L 62.4 88.5 L 62.0 88.5 L 61.5 88.5 L 61.1 88.5 L 60.6 88.5 L 60.2 88.5 L 59.7 88.5 L 59.3 88.5 L 58.8 88.5 L 58.4 88.5 L 57.9 88.5 L 57.5 88.5 L 57.0 88.5 L 56.6 88.5 L 56.1 88.5 L 55.7 88.5 L 55.2 88.5 L 54.8 88.5 L 54.3 88.5 L 53.8 88.5 L 53.4 88.5 L 52.9 88.5 L 52.5 88.5 L 52.0 88.5 L 51.6 88.5 L 51.1 88.5 L 50.7 88.5 L 50.2 88.5 L 49.8 88.5 L 49.3 88.5 L 48.9 88.5 L 48.4 88.5 L 48.0 88.5 L 47.5 88.5 L 47.1 88.5 L 46.6 88.5 L 46.2 88.5 L 45.7 88.5 L 45.3 88.5 L 44.8 88.5 L 44.4 88.5 L 43.9 88.5 L 43.5 88.5 L 43.0 88.5 L 42.6 88.5 L 42.1 88.5 L 41.7 88.5 L 41.2 88.5 L 40.8 88.5 L 40.3 88.5 L 39.9 88.5 L 39.4 88.5 L 39.0 88.5 L 38.5 88.5 L 38.1 88.5 L 37.6 88.5 L 37.1 88.5 L 36.7 88.5 L 36.2 88.5 L 35.8 88.5 L 35.3 88.5 L 34.9 88.5 L 34.4 88.5 L 34.0 88.5 L 33.5 88.5 L 33.1 88.5 L 32.6 88.5 L 32.2 88.5 L 31.7 88.5 L 31.3 88.5 L 30.8 88.5 L 30.4 88.5 L 29.9 88.5 L 29.5 88.5 L 29.0 88.5 L 28.6 88.5 L 28.1 88.5 L 27.7 88.5 L 27.2 88.5 L 26.8 88.5 L 26.3 88.5 L 25.9 88.5 L 25.4 88.5 L 25.0 88.5 L 24.5 88.5 L 24.1 88.5 L 23.6 88.5 L 23.2 88.5 L 22.7 88.5 L 22.3 88.5 L 21.8 88.5 L 21.4 88.5 L 20.9 88.5 L 20.5 88.5 Z" fill="none" stroke="#2563eb" stroke-width="2"/>
</svg>