  0
SECTION
  2
HEADER
  9
$ACADVER
  1
AC1009
  9
$DWGCODEPAGE
  3
ANSI_1252
  9
$INSBASE
 10
0.0
 20
0.0
 30
0.0
  9
$EXTMIN
 10
1e+20
 20
1e+20
 30
1e+20
  9
$EXTMAX
 10
-1e+20
 20
-1e+20
 30
-1e+20
  9
$LIMMIN
 10
0.0
 20
0.0
  9
$LIMMAX
 10
420.0
 20
297.0
  9
$ORTHOMODE
 70
0
  9
$REGENMODE
 70
1
  9
$FILLMODE
 70
1
  9
$DRAGMODE
 70
2
  9
$QTEXTMODE
 70
0
  9
$MIRRTEXT
 70
1
  9
$OSMODE
 70
20583
  9
$LTSCALE
 40
1.0
  9
$ATTMODE
 70
1
  9
$TEXTSIZE
 40
2.5
  9
$TRACEWID
 40
1.0
  9
$TEXTSTYLE
  7
Standard
  9
$CLAYER
  8
0
  9
$CELTYPE
  6
ByLayer
  9
$CECOLOR
 62
256
  9
$DIMSCALE
 40
1.0
  9
$DIMASZ
 40
2.5
  9
$DIMEXO
 40
0.625
  9
$DIMDLI
 40
3.75
  9
$DIMRND
 40
0.0
  9
$DIMDLE
 40
0.0
  9
$DIMEXE
 40
1.25
  9
$DIMTP
 40
0.0
  9
$DIMTM
 40
0.0
  9
$DIMTXT
 40
2.5
  9
$DIMCEN
 40
2.5
  9
$DIMTSZ
 40
0.0
  9
$DIMTOL
 70
0
  9
$DIMLIM
 70
0
  9
$DIMTIH
 70
0
  9
$DIMTOH
 70
0
  9
$DIMSE1
 70
0
  9
$DIMSE2
 70
0
  9
$DIMTAD
 70
1
  9
$DIMZIN
 70
8
  9
$DIMBLK
  1

  9
$DIMASO
 70
1
  9
$DIMSHO
 70
1
  9
$DIMPOST
  1

  9
$DIMAPOST
  1

  9
$DIMALT
 70
0
  9
$DIMALTD
 70
3
  9
$DIMALTF
 40
0.03937007874
  9
$DIMLFAC
 40
1.0
  9
$DIMTOFL
 70
1
  9
$DIMTVP
 40
0.0
  9
$DIMTIX
 70
0
  9
$DIMSOXD
 70
0
  9
$DIMSAH
 70
0
  9
$DIMBLK1
  1

  9
$DIMBLK2
  1

  9
$DIMSTYLE
  2
ISO-25
  9
$DIMCLRD
 70
0
  9
$DIMCLRE
 70
0
  9
$DIMCLRT
 70
0
  9
$DIMTFAC
 40
1.0
  9
$DIMGAP
 40
0.625
  9
$COORDS
 70
1
  9
$ATTDIA
 70
0
  9
$ATTREQ
 70
1
  9
$HANDLING
 70
1
  9
$LUNITS
 70
2
  9
$LUPREC
 70
4
  9
$SKETCHINC
 40
1.0
  9
$FILLETRAD
 40
10.0
  9
$AUNITS
 70
0
  9
$AUPREC
 70
2
  9
$MENU
  1
.
  9
$ELEVATION
 40
0.0
  9
$PELEVATION
 40
0.0
  9
$THICKNESS
 40
0.0
  9
$LIMCHECK
 70
0
  9
$CHAMFERA
 40
0.0
  9
$CHAMFERB
 40
0.0
  9
$SKPOLY
 70
0
  9
$TDCREATE
 40
2461106.679490741
  9
$TDUPDATE
 40
2461106.679502315
  9
$TDINDWG
 40
0.0
  9
$TDUSRTIMER
 40
0.0
  9
$USRTIMER
 70
1
  9
$ANGBASE
 50
0.0
  9
$ANGDIR
 70
0
  9
$PDMODE
 70
0
  9
$PDSIZE
 40
0.0
  9
$PLINEWID
 40
0.0
  9
$SPLFRAME
 70
0
  9
$SPLINETYPE
 70
6
  9
$SPLINESEGS
 70
8
  9
$HANDSEED
  5
256
  9
$SURFTAB1
 70
6
  9
$SURFTAB2
 70
6
  9
$SURFTYPE
 70
6
  9
$SURFU
 70
6
  9
$SURFV
 70
6
  9
$UCSNAME
  2

  9
$UCSORG
 10
0.0
 20
0.0
 30
0.0
  9
$UCSXDIR
 10
1.0
 20
0.0
 30
0.0
  9
$UCSYDIR
 10
0.0
 20
1.0
 30
0.0
  9
$PUCSNAME
  2

  9
$PUCSORG
 10
0.0
 20
0.0
 30
0.0
  9
$PUCSXDIR
 10
1.0
 20
0.0
 30
0.0
  9
$PUCSYDIR
 10
0.0
 20
1.0
 30
0.0
  9
$USERI1
 70
0
  9
$USERI2
 70
0
  9
$USERI3
 70
0
  9
$USERI4
 70
0
  9
$USERI5
 70
0
  9
$USERR1
 40
0.0
  9
$USERR2
 40
0.0
  9
$USERR3
 40
0.0
  9
$USERR4
 40
0.0
  9
$USERR5
 40
0.0
  9
$WORLDVIEW
 70
1
  9
$SHADEDGE
 70
3
  9
$SHADEDIF
 70
70
  9
$TILEMODE
 70
1
  9
$MAXACTVP
 70
64
  9
$PLIMCHECK
 70
0
  9
$PEXTMIN
 10
1e+20
 20
1e+20
 30
1e+20
  9
$PEXTMAX
 10
-1e+20
 20
-1e+20
 30
-1e+20
  9
$PLIMMIN
 10
0.0
 20
0.0
  9
$PLIMMAX
 10
420.0
 20
297.0
  9
$UNITMODE
 70
0
  9
$VISRETAIN
 70
1
  9
$PLINEGEN
 70
0
  9
$PSLTSCALE
 70
1
  0
ENDSEC
  0
SECTION
  2
TABLES
  0
TABLE
  2
VPORT
 70
1
  0
VPORT
  5
23
  2
*Active
 70
0
 10
0.0
 20
0.0
 11
1.0
 21
1.0
 12
0.0
 22
0.0
 13
0.0
 23
0.0
 14
0.5
 24
0.5
 15
0.5
 25
0.5
 16
0.0
 26
0.0
 36
1.0
 17
0.0
 27
0.0
 37
0.0
 40
1000.0
 41
1.34
 42
50.0
 43
0.0
 44
0.0
 50
0.0
 51
0.0
 71
0
 72
1000
 73
1
 74
3
 75
0
 76
0
 77
0
 78
0
  0
ENDTAB
  0
TABLE
  2
LTYPE
 70
3
  0
LTYPE
  5
24
  2
ByBlock
 70
0
  3

 72
65
 73
0
 40
0.0
  0
LTYPE
  5
25
  2
ByLayer
 70
0
  3

 72
65
 73
0
 40
0.0
  0
LTYPE
  5
26
  2
Continuous
 70
0
  3

 72
65
 73
0
 40
0.0
  0
ENDTAB
  0
TABLE
  2
LAYER
 70
2
  0
LAYER
  5
27
  2
0
 70
0
 62
7
  6
Continuous
  0
LAYER
  5
28
  2
Defpoints
 70
0
 62
7
  6
Continuous
  0
ENDTAB
  0
TABLE
  2
STYLE
 70
1
  0
STYLE
  5
29
  2
Standard
 70
0
 40
0.0
 41
1.0
 50
0.0
 71
0
 42
2.5
  3
txt
  4

  0
ENDTAB
  0
TABLE
  2
VIEW
 70
0
  0
ENDTAB
  0
TABLE
  2
UCS
 70
0
  0
ENDTAB
  0
TABLE
  2
APPID
 70
3
  0
APPID
  5
2A
  2
ACAD
 70
0
  0
APPID
  5
254
  2
HATCHBACKGROUNDCOLOR
 70
0
  0
APPID
  5
255
  2
EZDXF
 70
0
  0
ENDTAB
  0
TABLE
  2
DIMSTYLE
 70
1
  0
DIMSTYLE
105
2B
  2
Standard
 70
0
  3

  4

  5

  6

  7

 40
1.0
 41
2.5
 42
0.625
 43
3.75
 44
1.25
 45
0.0
 46
0.0
 47
0.0
 48
0.0
140
2.5
141
2.5
142
0.0
143
0.03937007874
144
1.0
145
0.0
146
1.0
147
0.625
 71
0
 72
0
 73
0
 74
0
 75
0
 76
0
 77
1
 78
8
170
0
171
3
172
1
173
0
174
0
175
0
176
0
177
0
178
0
  0
ENDTAB
  0
ENDSEC
  0
SECTION
  2
BLOCKS
  0
BLOCK
  5
18
  8
0
  2
$Model_Space
 70
0
 10
0.0
 20
0.0
 30
0.0
  3
$Model_Space
  1

1001
EZDXF
1000
CREATED_BY_EZDXF
1000
1.4.3 @ 2026-03-06T22:18:28.951679+00:00
1000
WRITTEN_BY_EZDXF
1000
1.4.3 @ 2026-03-06T22:18:29.369410+00:00
  0
ENDBLK
  5
19
  8
0
  0
BLOCK
  5
1C
  8
0
  2
$Paper_Space
 70
0
 10
0.0
 20
0.0
 30
0.0
  3
$Paper_Space
  1

  0
ENDBLK
  5
1D
  8
0
  0
ENDSEC
  0
SECTION
  2
ENTITIES
  0
LINE
  5
2D
  8
SMALL_FEATURE
 10
176.3606719970703
 20
256.4129943847656
 30
0.0
 11
179.9166717529297
 21
255.8626708984375
 31
0.0
  0
LINE
  5
2E
  8
SMALL_FEATURE
 10
179.9166717529297
 20
255.8626708984375
 30
0.0
 11
182.83766174316406
 21
254.211669921875
 31
0.0
  0
LINE
  5
2F
  8
SMALL_FEATURE
 10
182.83766174316406
 20
254.211669921875
 30
0.0
 11
184.2346649169922
 21
252.81466674804688
 31
0.0
  0
LINE
  5
30
  8
SMALL_FEATURE
 10
184.2346649169922
 20
252.81466674804688
 30
0.0
 11
185.37767028808594
 21
250.90966796875
 31
0.0
  0
LINE
  5
31
  8
SMALL_FEATURE
 10
185.37767028808594
 20
250.90966796875
 30
0.0
 11
186.35133361816406
 21
248.32733154296875
 31
0.0
  0
LINE
  5
32
  8
SMALL_FEATURE
 10
186.35133361816406
 20
248.32733154296875
 30
0.0
 11
186.43600463867188
 21
246.97267150878906
 31
0.0
  0
LINE
  5
33
  8
SMALL_FEATURE
 10
186.43600463867188
 20
246.97267150878906
 30
0.0
 11
186.35133361816406
 21
244.81365966796875
 31
0.0
  0
LINE
  5
34
  8
SMALL_FEATURE
 10
186.35133361816406
 20
244.81365966796875
 30
0.0
 11
185.92799377441406
 21
243.37432861328125
 31
0.0
  0
LINE
  5
35
  8
SMALL_FEATURE
 10
185.92799377441406
 20
243.37432861328125
 30
0.0
 11
184.2346649169922
 21
240.24166870117188
 31
0.0
  0
LINE
  5
36
  8
SMALL_FEATURE
 10
184.2346649169922
 20
240.24166870117188
 30
0.0
 11
182.83766174316406
 21
238.84466552734375
 31
0.0
  0
LINE
  5
37
  8
SMALL_FEATURE
 10
182.83766174316406
 20
238.84466552734375
 30
0.0
 11
179.9166717529297
 21
237.19366455078125
 31
0.0
  0
LINE
  5
38
  8
SMALL_FEATURE
 10
179.9166717529297
 20
237.19366455078125
 30
0.0
 11
176.78399658203125
 21
236.64332580566406
 31
0.0
  0
LINE
  5
39
  8
SMALL_FEATURE
 10
176.78399658203125
 20
236.64332580566406
 30
0.0
 11
173.2703399658203
 21
237.19366455078125
 31
0.0
  0
LINE
  5
3A
  8
SMALL_FEATURE
 10
173.2703399658203
 20
237.19366455078125
 30
0.0
 11
170.26466369628906
 21
238.84466552734375
 31
0.0
  0
LINE
  5
3B
  8
SMALL_FEATURE
 10
170.26466369628906
 20
238.84466552734375
 30
0.0
 11
168.02099609375
 21
241.5540008544922
 31
0.0
  0
LINE
  5
3C
  8
SMALL_FEATURE
 10
168.02099609375
 20
241.5540008544922
 30
0.0
 11
167.21665954589844
 21
243.24732971191406
 31
0.0
  0
LINE
  5
3D
  8
SMALL_FEATURE
 10
167.21665954589844
 20
243.24732971191406
 30
0.0
 11
166.7086639404297
 21
245.91433715820312
 31
0.0
  0
LINE
  5
3E
  8
SMALL_FEATURE
 10
166.7086639404297
 20
245.91433715820312
 30
0.0
 11
167.21665954589844
 21
249.8090057373047
 31
0.0
  0
LINE
  5
3F
  8
SMALL_FEATURE
 10
167.21665954589844
 20
249.8090057373047
 30
0.0
 11
169.12167358398438
 21
253.02633666992188
 31
0.0
  0
LINE
  5
40
  8
SMALL_FEATURE
 10
169.12167358398438
 20
253.02633666992188
 30
0.0
 11
170.26466369628906
 21
254.211669921875
 31
0.0
  0
LINE
  5
41
  8
SMALL_FEATURE
 10
170.26466369628906
 20
254.211669921875
 30
0.0
 11
173.0586700439453
 21
255.7779998779297
 31
0.0
  0
LINE
  5
42
  8
SMALL_FEATURE
 10
173.0586700439453
 20
255.7779998779297
 30
0.0
 11
176.3606719970703
 21
256.4129943847656
 31
0.0
  0
LINE
  5
43
  8
SMALL_FEATURE
 10
60.959999084472656
 20
229.57366943359375
 30
0.0
 11
64.30433654785156
 21
229.57366943359375
 31
0.0
  0
LINE
  5
44
  8
SMALL_FEATURE
 10
64.30433654785156
 20
229.57366943359375
 30
0.0
 11
67.14066314697266
 21
228.5153350830078
 31
0.0
  0
LINE
  5
45
  8
SMALL_FEATURE
 10
67.14066314697266
 20
228.5153350830078
 30
0.0
 11
68.4530029296875
 21
227.66867065429688
 31
0.0
  0
LINE
  5
46
  8
SMALL_FEATURE
 10
68.4530029296875
 20
227.66867065429688
 30
0.0
 11
70.78133392333984
 21
225.0016632080078
 31
0.0
  0
LINE
  5
47
  8
SMALL_FEATURE
 10
70.78133392333984
 20
225.0016632080078
 30
0.0
 11
71.88200378417969
 21
221.9536590576172
 31
0.0
  0
LINE
  5
48
  8
SMALL_FEATURE
 10
71.88200378417969
 20
221.9536590576172
 30
0.0
 11
71.88200378417969
 21
218.52467346191406
 31
0.0
  0
LINE
  5
49
  8
SMALL_FEATURE
 10
71.88200378417969
 20
218.52467346191406
 30
0.0
 11
70.52733612060547
 21
215.18032836914062
 31
0.0
  0
LINE
  5
4A
  8
SMALL_FEATURE
 10
70.52733612060547
 20
215.18032836914062
 30
0.0
 11
67.77566528320312
 21
212.4286651611328
 31
0.0
  0
LINE
  5
4B
  8
SMALL_FEATURE
 10
67.77566528320312
 20
212.4286651611328
 30
0.0
 11
65.78600311279297
 21
211.37033081054688
 31
0.0
  0
LINE
  5
4C
  8
SMALL_FEATURE
 10
65.78600311279297
 20
211.37033081054688
 30
0.0
 11
64.34666442871094
 21
210.9893341064453
 31
0.0
  0
LINE
  5
4D
  8
SMALL_FEATURE
 10
64.34666442871094
 20
210.9893341064453
 30
0.0
 11
60.917667388916016
 21
210.9893341064453
 31
0.0
  0
LINE
  5
4E
  8
SMALL_FEATURE
 10
60.917667388916016
 20
210.9893341064453
 30
0.0
 11
59.47833251953125
 21
211.37033081054688
 31
0.0
  0
LINE
  5
4F
  8
SMALL_FEATURE
 10
59.47833251953125
 20
211.37033081054688
 30
0.0
 11
57.573333740234375
 21
212.4286651611328
 31
0.0
  0
LINE
  5
50
  8
SMALL_FEATURE
 10
57.573333740234375
 20
212.4286651611328
 30
0.0
 11
54.483001708984375
 21
215.56134033203125
 31
0.0
  0
LINE
  5
51
  8
SMALL_FEATURE
 10
54.483001708984375
 20
215.56134033203125
 30
0.0
 11
53.38233184814453
 21
218.52467346191406
 31
0.0
  0
LINE
  5
52
  8
SMALL_FEATURE
 10
53.38233184814453
 20
218.52467346191406
 30
0.0
 11
53.38233184814453
 21
221.9536590576172
 31
0.0
  0
LINE
  5
53
  8
SMALL_FEATURE
 10
53.38233184814453
 20
221.9536590576172
 30
0.0
 11
54.483001708984375
 21
225.0016632080078
 31
0.0
  0
LINE
  5
54
  8
SMALL_FEATURE
 10
54.483001708984375
 20
225.0016632080078
 30
0.0
 11
56.895999908447266
 21
227.66867065429688
 31
0.0
  0
LINE
  5
55
  8
SMALL_FEATURE
 10
56.895999908447266
 20
227.66867065429688
 30
0.0
 11
59.266666412353516
 21
229.02333068847656
 31
0.0
  0
LINE
  5
56
  8
SMALL_FEATURE
 10
59.266666412353516
 20
229.02333068847656
 30
0.0
 11
60.959999084472656
 21
229.57366943359375
 31
0.0
  0
LINE
  5
57
  8
SMALL_FEATURE
 10
181.5676727294922
 20
39.45466613769531
 30
0.0
 11
188.34100341796875
 21
39.49700164794922
 31
0.0
  0
LINE
  5
58
  8
SMALL_FEATURE
 10
188.34100341796875
 20
39.49700164794922
 30
0.0
 11
188.5103302001953
 21
38.98899841308594
 31
0.0
  0
LINE
  5
59
  8
SMALL_FEATURE
 10
188.5103302001953
 20
38.98899841308594
 30
0.0
 11
188.55267333984375
 21
39.49700164794922
 31
0.0
  0
LINE
  5
5A
  8
SMALL_FEATURE
 10
188.55267333984375
 20
39.49700164794922
 30
0.0
 11
198.7550048828125
 21
39.49700164794922
 31
0.0
  0
LINE
  5
5B
  8
SMALL_FEATURE
 10
198.7550048828125
 20
39.49700164794922
 30
0.0
 11
198.79733276367188
 21
24.595666885375977
 31
0.0
  0
LINE
  5
5C
  8
SMALL_FEATURE
 10
198.79733276367188
 20
24.595666885375977
 30
0.0
 11
194.47933959960938
 21
24.553333282470703
 31
0.0
  0
LINE
  5
5D
  8
SMALL_FEATURE
 10
194.47933959960938
 20
24.553333282470703
 30
0.0
 11
194.30999755859375
 21
24.849666595458984
 31
0.0
  0
LINE
  5
5E
  8
SMALL_FEATURE
 10
194.30999755859375
 20
24.849666595458984
 30
0.0
 11
194.26766967773438
 21
24.553333282470703
 31
0.0
  0
LINE
  5
5F
  8
SMALL_FEATURE
 10
194.26766967773438
 20
24.553333282470703
 30
0.0
 11
193.4633331298828
 21
24.553333282470703
 31
0.0
  0
LINE
  5
60
  8
SMALL_FEATURE
 10
193.4633331298828
 20
24.553333282470703
 30
0.0
 11
193.29400634765625
 21
24.849666595458984
 31
0.0
  0
LINE
  5
61
  8
SMALL_FEATURE
 10
193.29400634765625
 20
24.849666595458984
 30
0.0
 11
193.2516632080078
 21
24.553333282470703
 31
0.0
  0
LINE
  5
62
  8
SMALL_FEATURE
 10
193.2516632080078
 20
24.553333282470703
 30
0.0
 11
190.24600219726562
 21
24.553333282470703
 31
0.0
  0
LINE
  5
63
  8
SMALL_FEATURE
 10
190.24600219726562
 20
24.553333282470703
 30
0.0
 11
190.2036590576172
 21
24.849666595458984
 31
0.0
  0
LINE
  5
64
  8
SMALL_FEATURE
 10
190.2036590576172
 20
24.849666595458984
 30
0.0
 11
189.56866455078125
 21
25.018999099731445
 31
0.0
  0
LINE
  5
65
  8
SMALL_FEATURE
 10
189.56866455078125
 20
25.018999099731445
 30
0.0
 11
189.52633666992188
 21
24.553333282470703
 31
0.0
  0
LINE
  5
66
  8
SMALL_FEATURE
 10
189.52633666992188
 20
24.553333282470703
 30
0.0
 11
181.61000061035156
 21
24.553333282470703
 31
0.0
  0
LINE
  5
67
  8
SMALL_FEATURE
 10
181.61000061035156
 20
24.553333282470703
 30
0.0
 11
181.5676727294922
 21
39.45466613769531
 31
0.0
  0
LINE
  5
68
  8
SMALL_FEATURE
 10
185.29299926757812
 20
24.299333572387695
 30
0.0
 11
198.7550048828125
 21
24.34166717529297
 31
0.0
  0
LINE
  5
69
  8
SMALL_FEATURE
 10
198.7550048828125
 20
24.34166717529297
 30
0.0
 11
198.79733276367188
 21
17.82233238220215
 31
0.0
  0
LINE
  5
6A
  8
SMALL_FEATURE
 10
198.79733276367188
 20
17.82233238220215
 30
0.0
 11
185.3353271484375
 21
17.780000686645508
 31
0.0
  0
LINE
  5
6B
  8
SMALL_FEATURE
 10
185.3353271484375
 20
17.780000686645508
 30
0.0
 11
185.29299926757812
 21
24.299333572387695
 31
0.0
  0
LINE
  5
6C
  8
SMALL_FEATURE
 10
185.29299926757812
 20
17.525999069213867
 30
0.0
 11
198.7550048828125
 21
17.56833267211914
 31
0.0
  0
LINE
  5
6D
  8
SMALL_FEATURE
 10
198.7550048828125
 20
17.56833267211914
 30
0.0
 11
198.79733276367188
 21
13.58899974822998
 31
0.0
  0
LINE
  5
6E
  8
SMALL_FEATURE
 10
198.79733276367188
 20
13.58899974822998
 30
0.0
 11
185.3353271484375
 21
13.546667098999023
 31
0.0
  0
LINE
  5
6F
  8
SMALL_FEATURE
 10
185.3353271484375
 20
13.546667098999023
 30
0.0
 11
185.29299926757812
 21
17.525999069213867
 31
0.0
  0
LINE
  5
70
  8
SMALL_FEATURE
 10
185.29299926757812
 20
13.2926664352417
 30
0.0
 11
198.7550048828125
 21
13.335000038146973
 31
0.0
  0
LINE
  5
71
  8
SMALL_FEATURE
 10
198.7550048828125
 20
13.335000038146973
 30
0.0
 11
198.79733276367188
 21
9.440333366394043
 31
0.0
  0
LINE
  5
72
  8
SMALL_FEATURE
 10
198.79733276367188
 20
9.440333366394043
 30
0.0
 11
185.3353271484375
 21
9.39799976348877
 31
0.0
  0
LINE
  5
73
  8
SMALL_FEATURE
 10
185.3353271484375
 20
9.39799976348877
 30
0.0
 11
185.29299926757812
 21
13.2926664352417
 31
0.0
  0
LINE
  5
74
  8
SMALL_FEATURE
 10
56.4726676940918
 20
205.2743377685547
 30
0.0
 11
50.0803337097168
 21
189.9496612548828
 31
0.0
  0
LINE
  5
75
  8
SMALL_FEATURE
 10
50.0803337097168
 20
189.9496612548828
 30
0.0
 11
48.090667724609375
 21
188.8489990234375
 31
0.0
  0
LINE
  5
76
  8
SMALL_FEATURE
 10
48.090667724609375
 20
188.8489990234375
 30
0.0
 11
47.66733169555664
 21
191.00799560546875
 31
0.0
  0
LINE
  5
77
  8
SMALL_FEATURE
 10
47.66733169555664
 20
191.00799560546875
 30
0.0
 11
53.805667877197266
 21
205.18966674804688
 31
0.0
  0
LINE
  5
78
  8
SMALL_FEATURE
 10
53.805667877197266
 20
205.18966674804688
 30
0.0
 11
56.4726676940918
 21
205.2743377685547
 31
0.0
  0
LINE
  5
79
  8
SMALL_FEATURE
 10
43.391666412353516
 20
177.54600524902344
 30
0.0
 11
43.814998626708984
 21
175.42933654785156
 31
0.0
  0
LINE
  5
7A
  8
SMALL_FEATURE
 10
43.814998626708984
 20
175.42933654785156
 30
0.0
 11
39.83566665649414
 21
166.2429962158203
 31
0.0
  0
LINE
  5
7B
  8
SMALL_FEATURE
 10
39.83566665649414
 20
166.2429962158203
 30
0.0
 11
37.50733184814453
 21
167.0050048828125
 31
0.0
  0
LINE
  5
7C
  8
SMALL_FEATURE
 10
37.50733184814453
 20
167.0050048828125
 30
0.0
 11
37.54966735839844
 21
167.63999938964844
 31
0.0
  0
LINE
  5
7D
  8
SMALL_FEATURE
 10
37.54966735839844
 20
167.63999938964844
 30
0.0
 11
41.35966491699219
 21
176.44532775878906
 31
0.0
  0
LINE
  5
7E
  8
SMALL_FEATURE
 10
41.35966491699219
 20
176.44532775878906
 30
0.0
 11
43.391666412353516
 21
177.54600524902344
 31
0.0
  0
LINE
  5
7F
  8
SMALL_FEATURE
 10
76.49633026123047
 20
232.41000366210938
 30
0.0
 11
76.66566467285156
 21
233.00267028808594
 31
0.0
  0
LINE
  5
80
  8
SMALL_FEATURE
 10
76.66566467285156
 20
233.00267028808594
 30
0.0
 11
77.51233673095703
 21
233.4683380126953
 31
0.0
  0
LINE
  5
81
  8
SMALL_FEATURE
 10
77.51233673095703
 20
233.4683380126953
 30
0.0
 11
89.49266815185547
 21
233.42599487304688
 31
0.0
  0
LINE
  5
82
  8
SMALL_FEATURE
 10
89.49266815185547
 20
233.42599487304688
 30
0.0
 11
89.28099822998047
 21
231.8173370361328
 31
0.0
  0
LINE
  5
83
  8
SMALL_FEATURE
 10
89.28099822998047
 20
231.8173370361328
 30
0.0
 11
77.34300231933594
 21
231.8173370361328
 31
0.0
  0
LINE
  5
84
  8
SMALL_FEATURE
 10
77.34300231933594
 20
231.8173370361328
 30
0.0
 11
76.49633026123047
 21
232.41000366210938
 31
0.0
  0
LINE
  5
85
  8
SMALL_FEATURE
 10
36.702999114990234
 20
207.05233764648438
 30
0.0
 11
37.253334045410156
 21
208.66099548339844
 31
0.0
  0
LINE
  5
86
  8
SMALL_FEATURE
 10
37.253334045410156
 20
208.66099548339844
 30
0.0
 11
48.4293327331543
 21
208.66099548339844
 31
0.0
  0
LINE
  5
87
  8
SMALL_FEATURE
 10
48.4293327331543
 20
208.66099548339844
 30
0.0
 11
49.487667083740234
 21
208.0260009765625
 31
0.0
  0
LINE
  5
88
  8
SMALL_FEATURE
 10
49.487667083740234
 20
208.0260009765625
 30
0.0
 11
49.40299987792969
 21
207.56033325195312
 31
0.0
  0
LINE
  5
89
  8
SMALL_FEATURE
 10
49.40299987792969
 20
207.56033325195312
 30
0.0
 11
48.4293327331543
 21
207.00999450683594
 31
0.0
  0
LINE
  5
8A
  8
SMALL_FEATURE
 10
48.4293327331543
 20
207.00999450683594
 30
0.0
 11
36.702999114990234
 21
207.05233764648438
 31
0.0
  0
LINE
  5
8B
  8
SMALL_FEATURE
 10
75.77666473388672
 20
208.0260009765625
 30
0.0
 11
76.83499908447266
 21
208.66099548339844
 31
0.0
  0
LINE
  5
8C
  8
SMALL_FEATURE
 10
76.83499908447266
 20
208.66099548339844
 30
0.0
 11
87.92633056640625
 21
208.66099548339844
 31
0.0
  0
LINE
  5
8D
  8
SMALL_FEATURE
 10
87.92633056640625
 20
208.66099548339844
 30
0.0
 11
88.47666931152344
 21
207.05233764648438
 31
0.0
  0
LINE
  5
8E
  8
SMALL_FEATURE
 10
88.47666931152344
 20
207.05233764648438
 30
0.0
 11
76.83499908447266
 21
207.00999450683594
 31
0.0
  0
LINE
  5
8F
  8
SMALL_FEATURE
 10
76.83499908447266
 20
207.00999450683594
 30
0.0
 11
75.86133575439453
 21
207.56033325195312
 31
0.0
  0
LINE
  5
90
  8
SMALL_FEATURE
 10
75.86133575439453
 20
207.56033325195312
 30
0.0
 11
75.77666473388672
 21
208.0260009765625
 31
0.0
  0
LINE
  5
91
  8
SMALL_FEATURE
 10
81.36466979980469
 20
123.19000244140625
 30
0.0
 11
81.27999877929688
 21
121.75066375732422
 31
0.0
  0
LINE
  5
92
  8
SMALL_FEATURE
 10
81.27999877929688
 20
121.75066375732422
 30
0.0
 11
80.89900207519531
 21
121.70833587646484
 31
0.0
  0
LINE
  5
93
  8
SMALL_FEATURE
 10
80.89900207519531
 20
121.70833587646484
 30
0.0
 11
81.32233428955078
 21
118.82966613769531
 31
0.0
  0
LINE
  5
94
  8
SMALL_FEATURE
 10
81.32233428955078
 20
118.82966613769531
 30
0.0
 11
77.38533020019531
 21
118.57566833496094
 31
0.0
  0
LINE
  5
95
  8
SMALL_FEATURE
 10
77.38533020019531
 20
118.57566833496094
 30
0.0
 11
77.38533020019531
 21
117.81366729736328
 31
0.0
  0
LINE
  5
96
  8
SMALL_FEATURE
 10
77.38533020019531
 20
117.81366729736328
 30
0.0
 11
78.61299896240234
 21
117.6866683959961
 31
0.0
  0
LINE
  5
97
  8
SMALL_FEATURE
 10
78.61299896240234
 20
117.6866683959961
 30
0.0
 11
78.65533447265625
 21
117.17866516113281
 31
0.0
  0
LINE
  5
98
  8
SMALL_FEATURE
 10
78.65533447265625
 20
117.17866516113281
 30
0.0
 11
79.12100219726562
 21
117.17866516113281
 31
0.0
  0
LINE
  5
99
  8
SMALL_FEATURE
 10
79.12100219726562
 20
117.17866516113281
 30
0.0
 11
78.69766998291016
 21
117.43266296386719
 31
0.0
  0
LINE
  5
9A
  8
SMALL_FEATURE
 10
78.69766998291016
 20
117.43266296386719
 30
0.0
 11
78.90933227539062
 21
118.57566833496094
 31
0.0
  0
LINE
  5
9B
  8
SMALL_FEATURE
 10
78.90933227539062
 20
118.57566833496094
 30
0.0
 11
81.23766326904297
 21
118.57566833496094
 31
0.0
  0
LINE
  5
9C
  8
SMALL_FEATURE
 10
81.23766326904297
 20
118.57566833496094
 30
0.0
 11
81.27999877929688
 21
115.95099639892578
 31
0.0
  0
LINE
  5
9D
  8
SMALL_FEATURE
 10
81.27999877929688
 20
115.95099639892578
 30
0.0
 11
78.90933227539062
 21
115.9086685180664
 31
0.0
  0
LINE
  5
9E
  8
SMALL_FEATURE
 10
78.90933227539062
 20
115.9086685180664
 30
0.0
 11
78.78233337402344
 21
116.67066955566406
 31
0.0
  0
LINE
  5
9F
  8
SMALL_FEATURE
 10
78.78233337402344
 20
116.67066955566406
 30
0.0
 11
77.7663345336914
 21
116.83999633789062
 31
0.0
  0
LINE
  5
A0
  8
SMALL_FEATURE
 10
77.7663345336914
 20
116.83999633789062
 30
0.0
 11
77.34300231933594
 21
116.50133514404297
 31
0.0
  0
LINE
  5
A1
  8
SMALL_FEATURE
 10
77.34300231933594
 20
116.50133514404297
 30
0.0
 11
77.47000122070312
 21
115.78166961669922
 31
0.0
  0
LINE
  5
A2
  8
SMALL_FEATURE
 10
77.47000122070312
 20
115.78166961669922
 30
0.0
 11
81.32233428955078
 21
115.6546630859375
 31
0.0
  0
LINE
  5
A3
  8
SMALL_FEATURE
 10
81.32233428955078
 20
115.6546630859375
 30
0.0
 11
80.89900207519531
 21
112.86066436767578
 31
0.0
  0
LINE
  5
A4
  8
SMALL_FEATURE
 10
80.89900207519531
 20
112.86066436767578
 30
0.0
 11
81.27999877929688
 21
112.7336654663086
 31
0.0
  0
LINE
  5
A5
  8
SMALL_FEATURE
 10
81.27999877929688
 20
112.7336654663086
 30
0.0
 11
81.27999877929688
 21
110.02433013916016
 31
0.0
  0
LINE
  5
A6
  8
SMALL_FEATURE
 10
81.27999877929688
 20
110.02433013916016
 30
0.0
 11
80.77200317382812
 21
109.8550033569336
 31
0.0
  0
LINE
  5
A7
  8
SMALL_FEATURE
 10
80.77200317382812
 20
109.8550033569336
 30
0.0
 11
81.36466979980469
 21
109.60099792480469
 31
0.0
  0
LINE
  5
A8
  8
SMALL_FEATURE
 10
81.36466979980469
 20
109.60099792480469
 30
0.0
 11
83.9046630859375
 21
109.77033233642578
 31
0.0
  0
LINE
  5
A9
  8
SMALL_FEATURE
 10
83.9046630859375
 20
109.77033233642578
 30
0.0
 11
83.9469985961914
 21
109.38933563232422
 31
0.0
  0
LINE
  5
AA
  8
SMALL_FEATURE
 10
83.9469985961914
 20
109.38933563232422
 30
0.0
 11
86.82566833496094
 21
109.77033233642578
 31
0.0
  0
LINE
  5
AB
  8
SMALL_FEATURE
 10
86.82566833496094
 20
109.77033233642578
 30
0.0
 11
86.95266723632812
 21
105.96033477783203
 31
0.0
  0
LINE
  5
AC
  8
SMALL_FEATURE
 10
86.95266723632812
 20
105.96033477783203
 30
0.0
 11
87.07966613769531
 21
109.72799682617188
 31
0.0
  0
LINE
  5
AD
  8
SMALL_FEATURE
 10
87.07966613769531
 20
109.72799682617188
 30
0.0
 11
88.6883316040039
 21
109.77033233642578
 31
0.0
  0
LINE
  5
AE
  8
SMALL_FEATURE
 10
88.6883316040039
 20
109.77033233642578
 30
0.0
 11
88.857666015625
 21
105.96033477783203
 31
0.0
  0
LINE
  5
AF
  8
SMALL_FEATURE
 10
88.857666015625
 20
105.96033477783203
 30
0.0
 11
88.98466491699219
 21
109.81266784667969
 31
0.0
  0
LINE
  5
B0
  8
SMALL_FEATURE
 10
88.98466491699219
 20
109.81266784667969
 30
0.0
 11
91.86333465576172
 21
109.38933563232422
 31
0.0
  0
LINE
  5
B1
  8
SMALL_FEATURE
 10
91.86333465576172
 20
109.38933563232422
 30
0.0
 11
91.90567016601562
 21
109.77033233642578
 31
0.0
  0
LINE
  5
B2
  8
SMALL_FEATURE
 10
91.90567016601562
 20
109.77033233642578
 30
0.0
 11
94.27633666992188
 21
109.89733123779297
 31
0.0
  0
LINE
  5
B3
  8
SMALL_FEATURE
 10
94.27633666992188
 20
109.89733123779297
 30
0.0
 11
91.90567016601562
 21
109.98200225830078
 31
0.0
  0
LINE
  5
B4
  8
SMALL_FEATURE
 10
91.90567016601562
 20
109.98200225830078
 30
0.0
 11
91.86333465576172
 21
110.36299896240234
 31
0.0
  0
LINE
  5
B5
  8
SMALL_FEATURE
 10
91.86333465576172
 20
110.36299896240234
 30
0.0
 11
88.98466491699219
 21
109.93966674804688
 31
0.0
  0
LINE
  5
B6
  8
SMALL_FEATURE
 10
88.98466491699219
 20
109.93966674804688
 30
0.0
 11
88.9000015258789
 21
111.63300323486328
 31
0.0
  0
LINE
  5
B7
  8
SMALL_FEATURE
 10
88.9000015258789
 20
111.63300323486328
 30
0.0
 11
89.19633483886719
 21
112.22566986083984
 31
0.0
  0
LINE
  5
B8
  8
SMALL_FEATURE
 10
89.19633483886719
 20
112.22566986083984
 30
0.0
 11
88.9000015258789
 21
113.15699768066406
 31
0.0
  0
LINE
  5
B9
  8
SMALL_FEATURE
 10
88.9000015258789
 20
113.15699768066406
 30
0.0
 11
88.47666931152344
 21
113.11466979980469
 31
0.0
  0
LINE
  5
BA
  8
SMALL_FEATURE
 10
88.47666931152344
 20
113.11466979980469
 30
0.0
 11
88.30733489990234
 21
112.7336654663086
 31
0.0
  0
LINE
  5
BB
  8
SMALL_FEATURE
 10
88.30733489990234
 20
112.7336654663086
 30
0.0
 11
88.94233703613281
 21
112.9453353881836
 31
0.0
  0
LINE
  5
BC
  8
SMALL_FEATURE
 10
88.94233703613281
 20
112.9453353881836
 30
0.0
 11
88.64600372314453
 21
112.3949966430664
 31
0.0
  0
LINE
  5
BD
  8
SMALL_FEATURE
 10
88.64600372314453
 20
112.3949966430664
 30
0.0
 11
88.98466491699219
 21
112.26799774169922
 31
0.0
  0
LINE
  5
BE
  8
SMALL_FEATURE
 10
88.98466491699219
 20
112.26799774169922
 30
0.0
 11
88.98466491699219
 21
111.84466552734375
 31
0.0
  0
LINE
  5
BF
  8
SMALL_FEATURE
 10
88.98466491699219
 20
111.84466552734375
 30
0.0
 11
88.39199829101562
 21
112.05633544921875
 31
0.0
  0
LINE
  5
C0
  8
SMALL_FEATURE
 10
88.39199829101562
 20
112.05633544921875
 30
0.0
 11
87.75700378417969
 21
111.84466552734375
 31
0.0
  0
LINE
  5
C1
  8
SMALL_FEATURE
 10
87.75700378417969
 20
111.84466552734375
 30
0.0
 11
87.75700378417969
 21
111.37899780273438
 31
0.0
  0
LINE
  5
C2
  8
SMALL_FEATURE
 10
87.75700378417969
 20
111.37899780273438
 30
0.0
 11
88.01100158691406
 21
111.76000213623047
 31
0.0
  0
LINE
  5
C3
  8
SMALL_FEATURE
 10
88.01100158691406
 20
111.76000213623047
 30
0.0
 11
88.73066711425781
 21
111.59066772460938
 31
0.0
  0
LINE
  5
C4
  8
SMALL_FEATURE
 10
88.73066711425781
 20
111.59066772460938
 30
0.0
 11
88.6883316040039
 21
109.98200225830078
 31
0.0
  0
LINE
  5
C5
  8
SMALL_FEATURE
 10
88.6883316040039
 20
109.98200225830078
 30
0.0
 11
87.07966613769531
 21
110.02433013916016
 31
0.0
  0
LINE
  5
C6
  8
SMALL_FEATURE
 10
87.07966613769531
 20
110.02433013916016
 30
0.0
 11
87.07966613769531
 21
111.63300323486328
 31
0.0
  0
LINE
  5
C7
  8
SMALL_FEATURE
 10
87.07966613769531
 20
111.63300323486328
 30
0.0
 11
87.4183349609375
 21
111.92933654785156
 31
0.0
  0
LINE
  5
C8
  8
SMALL_FEATURE
 10
87.4183349609375
 20
111.92933654785156
 30
0.0
 11
87.4183349609375
 21
112.7336654663086
 31
0.0
  0
LINE
  5
C9
  8
SMALL_FEATURE
 10
87.4183349609375
 20
112.7336654663086
 30
0.0
 11
87.07966613769531
 21
113.15699768066406
 31
0.0
  0
LINE
  5
CA
  8
SMALL_FEATURE
 10
87.07966613769531
 20
113.15699768066406
 30
0.0
 11
86.74099731445312
 21
113.11466979980469
 31
0.0
  0
LINE
  5
CB
  8
SMALL_FEATURE
 10
86.74099731445312
 20
113.11466979980469
 30
0.0
 11
86.48699951171875
 21
112.5643310546875
 31
0.0
  0
LINE
  5
CC
  8
SMALL_FEATURE
 10
86.48699951171875
 20
112.5643310546875
 30
0.0
 11
86.86799621582031
 21
111.59066772460938
 31
0.0
  0
LINE
  5
CD
  8
SMALL_FEATURE
 10
86.86799621582031
 20
111.59066772460938
 30
0.0
 11
86.82566833496094
 21
109.98200225830078
 31
0.0
  0
LINE
  5
CE
  8
SMALL_FEATURE
 10
86.82566833496094
 20
109.98200225830078
 30
0.0
 11
84.03166961669922
 21
110.36299896240234
 31
0.0
  0
LINE
  5
CF
  8
SMALL_FEATURE
 10
84.03166961669922
 20
110.36299896240234
 30
0.0
 11
83.9046630859375
 21
109.98200225830078
 31
0.0
  0
LINE
  5
D0
  8
SMALL_FEATURE
 10
83.9046630859375
 20
109.98200225830078
 30
0.0
 11
81.49166870117188
 21
110.02433013916016
 31
0.0
  0
LINE
  5
D1
  8
SMALL_FEATURE
 10
81.49166870117188
 20
110.02433013916016
 30
0.0
 11
81.49166870117188
 21
112.7336654663086
 31
0.0
  0
LINE
  5
D2
  8
SMALL_FEATURE
 10
81.49166870117188
 20
112.7336654663086
 30
0.0
 11
81.87266540527344
 21
112.86066436767578
 31
0.0
  0
LINE
  5
D3
  8
SMALL_FEATURE
 10
81.87266540527344
 20
112.86066436767578
 30
0.0
 11
81.44933319091797
 21
115.6546630859375
 31
0.0
  0
LINE
  5
D4
  8
SMALL_FEATURE
 10
81.44933319091797
 20
115.6546630859375
 30
0.0
 11
83.01566314697266
 21
115.8239974975586
 31
0.0
  0
LINE
  5
D5
  8
SMALL_FEATURE
 10
83.01566314697266
 20
115.8239974975586
 30
0.0
 11
81.49166870117188
 21
115.95099639892578
 31
0.0
  0
LINE
  5
D6
  8
SMALL_FEATURE
 10
81.49166870117188
 20
115.95099639892578
 30
0.0
 11
81.49166870117188
 21
118.53333282470703
 31
0.0
  0
LINE
  5
D7
  8
SMALL_FEATURE
 10
81.49166870117188
 20
118.53333282470703
 30
0.0
 11
82.76166534423828
 21
118.70266723632812
 31
0.0
  0
LINE
  5
D8
  8
SMALL_FEATURE
 10
82.76166534423828
 20
118.70266723632812
 30
0.0
 11
81.44933319091797
 21
118.82966613769531
 31
0.0
  0
LINE
  5
D9
  8
SMALL_FEATURE
 10
81.44933319091797
 20
118.82966613769531
 30
0.0
 11
81.87266540527344
 21
121.70833587646484
 31
0.0
  0
LINE
  5
DA
  8
SMALL_FEATURE
 10
81.87266540527344
 20
121.70833587646484
 30
0.0
 11
81.49166870117188
 21
121.75066375732422
 31
0.0
  0
LINE
  5
DB
  8
SMALL_FEATURE
 10
81.49166870117188
 20
121.75066375732422
 30
0.0
 11
81.36466979980469
 21
123.19000244140625
 31
0.0
  0
LINE
  5
DC
  8
SMALL_FEATURE
 10
48.17533493041992
 20
186.05499267578125
 30
0.0
 11
47.92133331298828
 21
184.95433044433594
 31
0.0
  0
LINE
  5
DD
  8
SMALL_FEATURE
 10
47.92133331298828
 20
184.95433044433594
 30
0.0
 11
47.625
 21
184.6580047607422
 31
0.0
  0
LINE
  5
DE
  8
SMALL_FEATURE
 10
47.625
 20
184.6580047607422
 30
0.0
 11
46.9900016784668
 21
184.82733154296875
 31
0.0
  0
LINE
  5
DF
  8
SMALL_FEATURE
 10
46.9900016784668
 20
184.82733154296875
 30
0.0
 11
46.736000061035156
 21
184.48866271972656
 31
0.0
  0
LINE
  5
E0
  8
SMALL_FEATURE
 10
46.736000061035156
 20
184.48866271972656
 30
0.0
 11
46.8206672668457
 21
184.0229949951172
 31
0.0
  0
LINE
  5
E1
  8
SMALL_FEATURE
 10
46.8206672668457
 20
184.0229949951172
 30
0.0
 11
47.37099838256836
 21
184.0229949951172
 31
0.0
  0
LINE
  5
E2
  8
SMALL_FEATURE
 10
47.37099838256836
 20
184.0229949951172
 30
0.0
 11
47.03233337402344
 21
182.92233276367188
 31
0.0
  0
LINE
  5
E3
  8
SMALL_FEATURE
 10
47.03233337402344
 20
182.92233276367188
 30
0.0
 11
46.185665130615234
 21
182.62600708007812
 31
0.0
  0
LINE
  5
E4
  8
SMALL_FEATURE
 10
46.185665130615234
 20
182.62600708007812
 30
0.0
 11
45.042667388916016
 21
182.7953338623047
 31
0.0
  0
LINE
  5
E5
  8
SMALL_FEATURE
 10
45.042667388916016
 20
182.7953338623047
 30
0.0
 11
46.481998443603516
 21
181.94866943359375
 31
0.0
  0
LINE
  5
E6
  8
SMALL_FEATURE
 10
46.481998443603516
 20
181.94866943359375
 30
0.0
 11
46.22800064086914
 21
181.017333984375
 31
0.0
  0
LINE
  5
E7
  8
SMALL_FEATURE
 10
46.22800064086914
 20
181.017333984375
 30
0.0
 11
45.55066680908203
 21
181.017333984375
 31
0.0
  0
LINE
  5
E8
  8
SMALL_FEATURE
 10
45.55066680908203
 20
181.017333984375
 30
0.0
 11
45.21200180053711
 21
180.6786651611328
 31
0.0
  0
LINE
  5
E9
  8
SMALL_FEATURE
 10
45.21200180053711
 20
180.6786651611328
 30
0.0
 11
43.94200134277344
 21
180.84800720214844
 31
0.0
  0
LINE
  5
EA
  8
SMALL_FEATURE
 10
43.94200134277344
 20
180.84800720214844
 30
0.0
 11
44.365333557128906
 21
180.4669952392578
 31
0.0
  0
LINE
  5
EB
  8
SMALL_FEATURE
 10
44.365333557128906
 20
180.4669952392578
 30
0.0
 11
45.084999084472656
 21
180.4669952392578
 31
0.0
  0
LINE
  5
EC
  8
SMALL_FEATURE
 10
45.084999084472656
 20
180.4669952392578
 30
0.0
 11
45.12733459472656
 21
180.04367065429688
 31
0.0
  0
LINE
  5
ED
  8
SMALL_FEATURE
 10
45.12733459472656
 20
180.04367065429688
 30
0.0
 11
45.55066680908203
 21
179.83200073242188
 31
0.0
  0
LINE
  5
EE
  8
SMALL_FEATURE
 10
45.55066680908203
 20
179.83200073242188
 30
0.0
 11
45.3390007019043
 21
179.07000732421875
 31
0.0
  0
LINE
  5
EF
  8
SMALL_FEATURE
 10
45.3390007019043
 20
179.07000732421875
 30
0.0
 11
44.788665771484375
 21
179.07000732421875
 31
0.0
  0
LINE
  5
F0
  8
SMALL_FEATURE
 10
44.788665771484375
 20
179.07000732421875
 30
0.0
 11
44.492332458496094
 21
179.6626739501953
 31
0.0
  0
LINE
  5
F1
  8
SMALL_FEATURE
 10
44.492332458496094
 20
179.6626739501953
 30
0.0
 11
44.111331939697266
 21
179.6626739501953
 31
0.0
  0
LINE
  5
F2
  8
SMALL_FEATURE
 10
44.111331939697266
 20
179.6626739501953
 30
0.0
 11
44.45000076293945
 21
179.0276641845703
 31
0.0
  0
LINE
  5
F3
  8
SMALL_FEATURE
 10
44.45000076293945
 20
179.0276641845703
 30
0.0
 11
45.084999084472656
 21
178.73133850097656
 31
0.0
  0
LINE
  5
F4
  8
SMALL_FEATURE
 10
45.084999084472656
 20
178.73133850097656
 30
0.0
 11
44.91566848754883
 21
177.96932983398438
 31
0.0
  0
LINE
  5
F5
  8
SMALL_FEATURE
 10
44.91566848754883
 20
177.96932983398438
 30
0.0
 11
43.98433303833008
 21
178.18099975585938
 31
0.0
  0
LINE
  5
F6
  8
SMALL_FEATURE
 10
43.98433303833008
 20
178.18099975585938
 30
0.0
 11
44.323001861572266
 21
178.8159942626953
 31
0.0
  0
LINE
  5
F7
  8
SMALL_FEATURE
 10
44.323001861572266
 20
178.8159942626953
 30
0.0
 11
42.92599868774414
 21
178.73133850097656
 31
0.0
  0
LINE
  5
F8
  8
SMALL_FEATURE
 10
42.92599868774414
 20
178.73133850097656
 30
0.0
 11
42.62966537475586
 21
179.3663330078125
 31
0.0
  0
LINE
  5
F9
  8
SMALL_FEATURE
 10
42.62966537475586
 20
179.3663330078125
 30
0.0
 11
42.8836669921875
 21
179.87432861328125
 31
0.0
  0
LINE
  5
FA
  8
SMALL_FEATURE
 10
42.8836669921875
 20
179.87432861328125
 30
0.0
 11
43.645668029785156
 21
180.04367065429688
 31
0.0
  0
LINE
  5
FB
  8
SMALL_FEATURE
 10
43.645668029785156
 20
180.04367065429688
 30
0.0
 11
43.7303352355957
 21
180.50933837890625
 31
0.0
  0
LINE
  5
FC
  8
SMALL_FEATURE
 10
43.7303352355957
 20
180.50933837890625
 30
0.0
 11
43.30699920654297
 21
180.55166625976562
 31
0.0
  0
LINE
  5
FD
  8
SMALL_FEATURE
 10
43.30699920654297
 20
180.55166625976562
 30
0.0
 11
43.772666931152344
 21
181.99099731445312
 31
0.0
  0
LINE
  5
FE
  8
SMALL_FEATURE
 10
43.772666931152344
 20
181.99099731445312
 30
0.0
 11
44.91566848754883
 21
182.3296661376953
 31
0.0
  0
LINE
  5
FF
  8
SMALL_FEATURE
 10
44.91566848754883
 20
182.3296661376953
 30
0.0
 11
44.15366744995117
 21
182.49899291992188
 31
0.0
  0
LINE
  5
100
  8
SMALL_FEATURE
 10
44.15366744995117
 20
182.49899291992188
 30
0.0
 11
44.61933517456055
 21
183.9806671142578
 31
0.0
  0
LINE
  5
101
  8
SMALL_FEATURE
 10
44.61933517456055
 20
183.9806671142578
 30
0.0
 11
46.016334533691406
 21
184.1923370361328
 31
0.0
  0
LINE
  5
102
  8
SMALL_FEATURE
 10
46.016334533691406
 20
184.1923370361328
 30
0.0
 11
46.185665130615234
 21
185.16600036621094
 31
0.0
  0
LINE
  5
103
  8
SMALL_FEATURE
 10
46.185665130615234
 20
185.16600036621094
 30
0.0
 11
47.03233337402344
 21
185.4623260498047
 31
0.0
  0
LINE
  5
104
  8
SMALL_FEATURE
 10
47.03233337402344
 20
185.4623260498047
 30
0.0
 11
47.159332275390625
 21
186.22433471679688
 31
0.0
  0
LINE
  5
105
  8
SMALL_FEATURE
 10
47.159332275390625
 20
186.22433471679688
 30
0.0
 11
48.17533493041992
 21
186.05499267578125
 31
0.0
  0
LINE
  5
106
  8
SMALL_FEATURE
 10
103.71666717529297
 20
261.2813415527344
 30
0.0
 11
103.63200378417969
 21
249.51266479492188
 31
0.0
  0
LINE
  5
107
  8
SMALL_FEATURE
 10
103.63200378417969
 20
249.51266479492188
 30
0.0
 11
103.2509994506836
 21
249.4703369140625
 31
0.0
  0
LINE
  5
108
  8
SMALL_FEATURE
 10
103.2509994506836
 20
249.4703369140625
 30
0.0
 11
103.67433166503906
 21
246.59165954589844
 31
0.0
  0
LINE
  5
109
  8
SMALL_FEATURE
 10
103.67433166503906
 20
246.59165954589844
 30
0.0
 11
99.90666961669922
 21
246.54933166503906
 31
0.0
  0
LINE
  5
10A
  8
SMALL_FEATURE
 10
99.90666961669922
 20
246.54933166503906
 30
0.0
 11
99.8219985961914
 21
245.8296661376953
 31
0.0
  0
LINE
  5
10B
  8
SMALL_FEATURE
 10
99.8219985961914
 20
245.8296661376953
 30
0.0
 11
103.67433166503906
 21
245.70266723632812
 31
0.0
  0
LINE
  5
10C
  8
SMALL_FEATURE
 10
103.67433166503906
 20
245.70266723632812
 30
0.0
 11
103.2509994506836
 21
242.82400512695312
 31
0.0
  0
LINE
  5
10D
  8
SMALL_FEATURE
 10
103.2509994506836
 20
242.82400512695312
 30
0.0
 11
103.63200378417969
 21
242.7816619873047
 31
0.0
  0
LINE
  5
10E
  8
SMALL_FEATURE
 10
103.63200378417969
 20
242.7816619873047
 30
0.0
 11
103.75900268554688
 21
239.6490020751953
 31
0.0
  0
LINE
  5
10F
  8
SMALL_FEATURE
 10
103.75900268554688
 20
239.6490020751953
 30
0.0
 11
103.84366607666016
 21
242.7816619873047
 31
0.0
  0
LINE
  5
110
  8
SMALL_FEATURE
 10
103.84366607666016
 20
242.7816619873047
 30
0.0
 11
104.22467041015625
 21
242.82400512695312
 31
0.0
  0
LINE
  5
111
  8
SMALL_FEATURE
 10
104.22467041015625
 20
242.82400512695312
 30
0.0
 11
103.84366607666016
 21
245.7449951171875
 31
0.0
  0
LINE
  5
112
  8
SMALL_FEATURE
 10
103.84366607666016
 20
245.7449951171875
 30
0.0
 11
110.78633117675781
 21
245.7449951171875
 31
0.0
  0
LINE
  5
113
  8
SMALL_FEATURE
 10
110.78633117675781
 20
245.7449951171875
 30
0.0
 11
110.87100219726562
 21
246.46466064453125
 31
0.0
  0
LINE
  5
114
  8
SMALL_FEATURE
 10
110.87100219726562
 20
246.46466064453125
 30
0.0
 11
103.80133056640625
 21
246.59165954589844
 31
0.0
  0
LINE
  5
115
  8
SMALL_FEATURE
 10
103.80133056640625
 20
246.59165954589844
 30
0.0
 11
104.22467041015625
 21
249.4703369140625
 31
0.0
  0
LINE
  5
116
  8
SMALL_FEATURE
 10
104.22467041015625
 20
249.4703369140625
 30
0.0
 11
103.84366607666016
 21
249.51266479492188
 31
0.0
  0
LINE
  5
117
  8
SMALL_FEATURE
 10
103.84366607666016
 20
249.51266479492188
 30
0.0
 11
103.71666717529297
 21
261.2813415527344
 31
0.0
  0
LINE
  5
118
  8
SMALL_FEATURE
 10
163.4066619873047
 20
228.0919952392578
 30
0.0
 11
163.32200622558594
 21
216.32333374023438
 31
0.0
  0
LINE
  5
119
  8
SMALL_FEATURE
 10
163.32200622558594
 20
216.32333374023438
 30
0.0
 11
162.9409942626953
 21
216.281005859375
 31
0.0
  0
LINE
  5
11A
  8
SMALL_FEATURE
 10
162.9409942626953
 20
216.281005859375
 30
0.0
 11
163.3643341064453
 21
213.40232849121094
 31
0.0
  0
LINE
  5
11B
  8
SMALL_FEATURE
 10
163.3643341064453
 20
213.40232849121094
 30
0.0
 11
159.59666442871094
 21
213.36000061035156
 31
0.0
  0
LINE
  5
11C
  8
SMALL_FEATURE
 10
159.59666442871094
 20
213.36000061035156
 30
0.0
 11
159.51199340820312
 21
212.6403350830078
 31
0.0
  0
LINE
  5
11D
  8
SMALL_FEATURE
 10
159.51199340820312
 20
212.6403350830078
 30
0.0
 11
163.3643341064453
 21
212.51333618164062
 31
0.0
  0
LINE
  5
11E
  8
SMALL_FEATURE
 10
163.3643341064453
 20
212.51333618164062
 30
0.0
 11
162.9409942626953
 21
209.63467407226562
 31
0.0
  0
LINE
  5
11F
  8
SMALL_FEATURE
 10
162.9409942626953
 20
209.63467407226562
 30
0.0
 11
163.32200622558594
 21
209.5923309326172
 31
0.0
  0
LINE
  5
120
  8
SMALL_FEATURE
 10
163.32200622558594
 20
209.5923309326172
 30
0.0
 11
163.44900512695312
 21
206.4596710205078
 31
0.0
  0
LINE
  5
121
  8
SMALL_FEATURE
 10
163.44900512695312
 20
206.4596710205078
 30
0.0
 11
163.53366088867188
 21
209.5923309326172
 31
0.0
  0
LINE
  5
122
  8
SMALL_FEATURE
 10
163.53366088867188
 20
209.5923309326172
 30
0.0
 11
163.9146728515625
 21
209.63467407226562
 31
0.0
  0
LINE
  5
123
  8
SMALL_FEATURE
 10
163.9146728515625
 20
209.63467407226562
 30
0.0
 11
163.53366088867188
 21
212.5556640625
 31
0.0
  0
LINE
  5
124
  8
SMALL_FEATURE
 10
163.53366088867188
 20
212.5556640625
 30
0.0
 11
170.39166259765625
 21
212.5556640625
 31
0.0
  0
LINE
  5
125
  8
SMALL_FEATURE
 10
170.39166259765625
 20
212.5556640625
 30
0.0
 11
170.47633361816406
 21
213.27532958984375
 31
0.0
  0
LINE
  5
126
  8
SMALL_FEATURE
 10
170.47633361816406
 20
213.27532958984375
 30
0.0
 11
163.4913330078125
 21
213.40232849121094
 31
0.0
  0
LINE
  5
127
  8
SMALL_FEATURE
 10
163.4913330078125
 20
213.40232849121094
 30
0.0
 11
163.9146728515625
 21
216.281005859375
 31
0.0
  0
LINE
  5
128
  8
SMALL_FEATURE
 10
163.9146728515625
 20
216.281005859375
 30
0.0
 11
163.53366088867188
 21
216.32333374023438
 31
0.0
  0
LINE
  5
129
  8
SMALL_FEATURE
 10
163.53366088867188
 20
216.32333374023438
 30
0.0
 11
163.4066619873047
 21
228.0919952392578
 31
0.0
  0
LINE
  5
12A
  8
SMALL_FEATURE
 10
162.3906707763672
 20
89.32333374023438
 30
0.0
 11
162.30599975585938
 21
80.51799774169922
 31
0.0
  0
LINE
  5
12B
  8
SMALL_FEATURE
 10
162.30599975585938
 20
80.51799774169922
 30
0.0
 11
161.9250030517578
 21
80.47566986083984
 31
0.0
  0
LINE
  5
12C
  8
SMALL_FEATURE
 10
161.9250030517578
 20
80.47566986083984
 30
0.0
 11
162.34832763671875
 21
77.59700012207031
 31
0.0
  0
LINE
  5
12D
  8
SMALL_FEATURE
 10
162.34832763671875
 20
77.59700012207031
 30
0.0
 11
158.49600219726562
 21
77.47000122070312
 31
0.0
  0
LINE
  5
12E
  8
SMALL_FEATURE
 10
158.49600219726562
 20
77.47000122070312
 30
0.0
 11
162.263671875
 21
77.34300231933594
 31
0.0
  0
LINE
  5
12F
  8
SMALL_FEATURE
 10
162.263671875
 20
77.34300231933594
 30
0.0
 11
162.30599975585938
 21
73.95633697509766
 31
0.0
  0
LINE
  5
130
  8
SMALL_FEATURE
 10
162.30599975585938
 20
73.95633697509766
 30
0.0
 11
158.49600219726562
 21
73.78700256347656
 31
0.0
  0
LINE
  5
131
  8
SMALL_FEATURE
 10
158.49600219726562
 20
73.78700256347656
 30
0.0
 11
162.34832763671875
 21
73.66000366210938
 31
0.0
  0
LINE
  5
132
  8
SMALL_FEATURE
 10
162.34832763671875
 20
73.66000366210938
 30
0.0
 11
161.9250030517578
 21
70.78133392333984
 31
0.0
  0
LINE
  5
133
  8
SMALL_FEATURE
 10
161.9250030517578
 20
70.78133392333984
 30
0.0
 11
162.30599975585938
 21
70.73899841308594
 31
0.0
  0
LINE
  5
134
  8
SMALL_FEATURE
 10
162.30599975585938
 20
70.73899841308594
 30
0.0
 11
162.43299865722656
 21
67.69100189208984
 31
0.0
  0
LINE
  5
135
  8
SMALL_FEATURE
 10
162.43299865722656
 20
67.69100189208984
 30
0.0
 11
162.51766967773438
 21
70.73899841308594
 31
0.0
  0
LINE
  5
136
  8
SMALL_FEATURE
 10
162.51766967773438
 20
70.73899841308594
 30
0.0
 11
162.89866638183594
 21
70.78133392333984
 31
0.0
  0
LINE
  5
137
  8
SMALL_FEATURE
 10
162.89866638183594
 20
70.78133392333984
 30
0.0
 11
162.47532653808594
 21
73.66000366210938
 31
0.0
  0
LINE
  5
138
  8
SMALL_FEATURE
 10
162.47532653808594
 20
73.66000366210938
 30
0.0
 11
165.565673828125
 21
73.78700256347656
 31
0.0
  0
LINE
  5
139
  8
SMALL_FEATURE
 10
165.565673828125
 20
73.78700256347656
 30
0.0
 11
162.51766967773438
 21
73.95633697509766
 31
0.0
  0
LINE
  5
13A
  8
SMALL_FEATURE
 10
162.51766967773438
 20
73.95633697509766
 30
0.0
 11
162.51766967773438
 21
77.30066680908203
 31
0.0
  0
LINE
  5
13B
  8
SMALL_FEATURE
 10
162.51766967773438
 20
77.30066680908203
 30
0.0
 11
166.32766723632812
 21
77.47000122070312
 31
0.0
  0
LINE
  5
13C
  8
SMALL_FEATURE
 10
166.32766723632812
 20
77.47000122070312
 30
0.0
 11
162.47532653808594
 21
77.59700012207031
 31
0.0
  0
LINE
  5
13D
  8
SMALL_FEATURE
 10
162.47532653808594
 20
77.59700012207031
 30
0.0
 11
162.89866638183594
 21
80.47566986083984
 31
0.0
  0
LINE
  5
13E
  8
SMALL_FEATURE
 10
162.89866638183594
 20
80.47566986083984
 30
0.0
 11
162.51766967773438
 21
80.51799774169922
 31
0.0
  0
LINE
  5
13F
  8
SMALL_FEATURE
 10
162.51766967773438
 20
80.51799774169922
 30
0.0
 11
162.3906707763672
 21
89.32333374023438
 31
0.0
  0
LINE
  5
140
  8
SMALL_FEATURE
 10
165.18466186523438
 20
174.9213409423828
 30
0.0
 11
165.10000610351562
 21
166.20066833496094
 31
0.0
  0
LINE
  5
141
  8
SMALL_FEATURE
 10
165.10000610351562
 20
166.20066833496094
 30
0.0
 11
164.718994140625
 21
166.15834045410156
 31
0.0
  0
LINE
  5
142
  8
SMALL_FEATURE
 10
164.718994140625
 20
166.15834045410156
 30
0.0
 11
165.142333984375
 21
163.2796630859375
 31
0.0
  0
LINE
  5
143
  8
SMALL_FEATURE
 10
165.142333984375
 20
163.2796630859375
 30
0.0
 11
161.2899932861328
 21
163.1526641845703
 31
0.0
  0
LINE
  5
144
  8
SMALL_FEATURE
 10
161.2899932861328
 20
163.1526641845703
 30
0.0
 11
165.0576629638672
 21
163.02566528320312
 31
0.0
  0
LINE
  5
145
  8
SMALL_FEATURE
 10
165.0576629638672
 20
163.02566528320312
 30
0.0
 11
165.10000610351562
 21
159.63900756835938
 31
0.0
  0
LINE
  5
146
  8
SMALL_FEATURE
 10
165.10000610351562
 20
159.63900756835938
 30
0.0
 11
161.2899932861328
 21
159.46966552734375
 31
0.0
  0
LINE
  5
147
  8
SMALL_FEATURE
 10
161.2899932861328
 20
159.46966552734375
 30
0.0
 11
165.142333984375
 21
159.34266662597656
 31
0.0
  0
LINE
  5
148
  8
SMALL_FEATURE
 10
165.142333984375
 20
159.34266662597656
 30
0.0
 11
164.718994140625
 21
156.46400451660156
 31
0.0
  0
LINE
  5
149
  8
SMALL_FEATURE
 10
164.718994140625
 20
156.46400451660156
 30
0.0
 11
165.10000610351562
 21
156.42166137695312
 31
0.0
  0
LINE
  5
14A
  8
SMALL_FEATURE
 10
165.10000610351562
 20
156.42166137695312
 30
0.0
 11
165.2270050048828
 21
153.28900146484375
 31
0.0
  0
LINE
  5
14B
  8
SMALL_FEATURE
 10
165.2270050048828
 20
153.28900146484375
 30
0.0
 11
165.31166076660156
 21
156.42166137695312
 31
0.0
  0
LINE
  5
14C
  8
SMALL_FEATURE
 10
165.31166076660156
 20
156.42166137695312
 30
0.0
 11
165.6926727294922
 21
156.46400451660156
 31
0.0
  0
LINE
  5
14D
  8
SMALL_FEATURE
 10
165.6926727294922
 20
156.46400451660156
 30
0.0
 11
165.2693328857422
 21
159.34266662597656
 31
0.0
  0
LINE
  5
14E
  8
SMALL_FEATURE
 10
165.2693328857422
 20
159.34266662597656
 30
0.0
 11
168.27499389648438
 21
159.46966552734375
 31
0.0
  0
LINE
  5
14F
  8
SMALL_FEATURE
 10
168.27499389648438
 20
159.46966552734375
 30
0.0
 11
165.31166076660156
 21
159.63900756835938
 31
0.0
  0
LINE
  5
150
  8
SMALL_FEATURE
 10
165.31166076660156
 20
159.63900756835938
 30
0.0
 11
165.31166076660156
 21
162.98333740234375
 31
0.0
  0
LINE
  5
151
  8
SMALL_FEATURE
 10
165.31166076660156
 20
162.98333740234375
 30
0.0
 11
168.27499389648438
 21
163.1526641845703
 31
0.0
  0
LINE
  5
152
  8
SMALL_FEATURE
 10
168.27499389648438
 20
163.1526641845703
 30
0.0
 11
165.2693328857422
 21
163.2796630859375
 31
0.0
  0
LINE
  5
153
  8
SMALL_FEATURE
 10
165.2693328857422
 20
163.2796630859375
 30
0.0
 11
165.6926727294922
 21
166.15834045410156
 31
0.0
  0
LINE
  5
154
  8
SMALL_FEATURE
 10
165.6926727294922
 20
166.15834045410156
 30
0.0
 11
165.31166076660156
 21
166.20066833496094
 31
0.0
  0
LINE
  5
155
  8
SMALL_FEATURE
 10
165.31166076660156
 20
166.20066833496094
 30
0.0
 11
165.18466186523438
 21
174.9213409423828
 31
0.0
  0
LINE
  5
156
  8
SMALL_FEATURE
 10
189.86500549316406
 20
32.85066604614258
 30
0.0
 11
188.55267333984375
 21
32.85066604614258
 31
0.0
  0
LINE
  5
157
  8
SMALL_FEATURE
 10
188.55267333984375
 20
32.85066604614258
 30
0.0
 11
188.00233459472656
 21
33.231666564941406
 31
0.0
  0
LINE
  5
158
  8
SMALL_FEATURE
 10
188.00233459472656
 20
33.231666564941406
 30
0.0
 11
188.00233459472656
 21
33.69733428955078
 31
0.0
  0
LINE
  5
159
  8
SMALL_FEATURE
 10
188.00233459472656
 20
33.69733428955078
 30
0.0
 11
187.66366577148438
 21
33.189334869384766
 31
0.0
  0
LINE
  5
15A
  8
SMALL_FEATURE
 10
187.66366577148438
 20
33.189334869384766
 30
0.0
 11
187.197998046875
 21
33.189334869384766
 31
0.0
  0
LINE
  5
15B
  8
SMALL_FEATURE
 10
187.197998046875
 20
33.189334869384766
 30
0.0
 11
187.36734008789062
 21
34.71333312988281
 31
0.0
  0
LINE
  5
15C
  8
SMALL_FEATURE
 10
187.36734008789062
 20
34.71333312988281
 30
0.0
 11
186.3090057373047
 21
33.358665466308594
 31
0.0
  0
LINE
  5
15D
  8
SMALL_FEATURE
 10
186.3090057373047
 20
33.358665466308594
 30
0.0
 11
184.1923370361328
 21
32.13100051879883
 31
0.0
  0
LINE
  5
15E
  8
SMALL_FEATURE
 10
184.1923370361328
 20
32.13100051879883
 30
0.0
 11
183.34567260742188
 21
31.284334182739258
 31
0.0
  0
LINE
  5
15F
  8
SMALL_FEATURE
 10
183.34567260742188
 20
31.284334182739258
 30
0.0
 11
183.0070037841797
 21
29.80266761779785
 31
0.0
  0
LINE
  5
160
  8
SMALL_FEATURE
 10
183.0070037841797
 20
29.80266761779785
 30
0.0
 11
183.85366821289062
 21
31.496000289916992
 31
0.0
  0
LINE
  5
161
  8
SMALL_FEATURE
 10
183.85366821289062
 20
31.496000289916992
 30
0.0
 11
185.37767028808594
 21
32.34266662597656
 31
0.0
  0
LINE
  5
162
  8
SMALL_FEATURE
 10
185.37767028808594
 20
32.34266662597656
 30
0.0
 11
186.13966369628906
 21
32.34266662597656
 31
0.0
  0
LINE
  5
163
  8
SMALL_FEATURE
 10
186.13966369628906
 20
32.34266662597656
 30
0.0
 11
185.37767028808594
 21
29.125333786010742
 31
0.0
  0
LINE
  5
164
  8
SMALL_FEATURE
 10
185.37767028808594
 20
29.125333786010742
 30
0.0
 11
184.48866271972656
 21
26.71233367919922
 31
0.0
  0
LINE
  5
165
  8
SMALL_FEATURE
 10
184.48866271972656
 20
26.71233367919922
 30
0.0
 11
184.0229949951172
 21
26.71233367919922
 31
0.0
  0
LINE
  5
166
  8
SMALL_FEATURE
 10
184.0229949951172
 20
26.71233367919922
 30
0.0
 11
184.14999389648438
 21
28.40566635131836
 31
0.0
  0
LINE
  5
167
  8
SMALL_FEATURE
 10
184.14999389648438
 20
28.40566635131836
 30
0.0
 11
184.6580047607422
 21
28.913665771484375
 31
0.0
  0
LINE
  5
168
  8
SMALL_FEATURE
 10
184.6580047607422
 20
28.913665771484375
 30
0.0
 11
183.51499938964844
 21
28.066999435424805
 31
0.0
  0
LINE
  5
169
  8
SMALL_FEATURE
 10
183.51499938964844
 20
28.066999435424805
 30
0.0
 11
181.99099731445312
 21
25.908000946044922
 31
0.0
  0
LINE
  5
16A
  8
SMALL_FEATURE
 10
181.99099731445312
 20
25.908000946044922
 30
0.0
 11
183.34567260742188
 21
27.43199920654297
 31
0.0
  0
LINE
  5
16B
  8
SMALL_FEATURE
 10
183.34567260742188
 20
27.43199920654297
 30
0.0
 11
183.85366821289062
 21
27.389667510986328
 31
0.0
  0
LINE
  5
16C
  8
SMALL_FEATURE
 10
183.85366821289062
 20
27.389667510986328
 30
0.0
 11
183.51499938964844
 21
25.738666534423828
 31
0.0
  0
LINE
  5
16D
  8
SMALL_FEATURE
 10
183.51499938964844
 20
25.738666534423828
 30
0.0
 11
183.684326171875
 21
26.246665954589844
 31
0.0
  0
LINE
  5
16E
  8
SMALL_FEATURE
 10
183.684326171875
 20
26.246665954589844
 30
0.0
 11
184.48866271972656
 21
26.246665954589844
 31
0.0
  0
LINE
  5
16F
  8
SMALL_FEATURE
 10
184.48866271972656
 20
26.246665954589844
 30
0.0
 11
185.8433380126953
 21
29.125333786010742
 31
0.0
  0
LINE
  5
170
  8
SMALL_FEATURE
 10
185.8433380126953
 20
29.125333786010742
 30
0.0
 11
186.69000244140625
 21
31.665332794189453
 31
0.0
  0
LINE
  5
171
  8
SMALL_FEATURE
 10
186.69000244140625
 20
31.665332794189453
 30
0.0
 11
187.3249969482422
 21
31.665332794189453
 31
0.0
  0
LINE
  5
172
  8
SMALL_FEATURE
 10
187.3249969482422
 20
31.665332794189453
 30
0.0
 11
187.70599365234375
 21
32.893001556396484
 31
0.0
  0
LINE
  5
173
  8
SMALL_FEATURE
 10
187.70599365234375
 20
32.893001556396484
 30
0.0
 11
188.89132690429688
 21
32.5543327331543
 31
0.0
  0
LINE
  5
174
  8
SMALL_FEATURE
 10
188.89132690429688
 20
32.5543327331543
 30
0.0
 11
189.86500549316406
 21
32.5543327331543
 31
0.0
  0
LINE
  5
175
  8
SMALL_FEATURE
 10
189.86500549316406
 20
32.5543327331543
 30
0.0
 11
189.86500549316406
 21
32.85066604614258
 31
0.0
  0
LINE
  5
176
  8
SMALL_FEATURE
 10
107.27266693115234
 20
239.60667419433594
 30
0.0
 11
110.40533447265625
 21
239.4796600341797
 31
0.0
  0
LINE
  5
177
  8
SMALL_FEATURE
 10
110.40533447265625
 20
239.4796600341797
 30
0.0
 11
110.44766998291016
 21
239.09866333007812
 31
0.0
  0
LINE
  5
178
  8
SMALL_FEATURE
 10
110.44766998291016
 20
239.09866333007812
 30
0.0
 11
113.32633209228516
 21
239.52200317382812
 31
0.0
  0
LINE
  5
179
  8
SMALL_FEATURE
 10
113.32633209228516
 20
239.52200317382812
 30
0.0
 11
113.45333099365234
 21
235.66966247558594
 31
0.0
  0
LINE
  5
17A
  8
SMALL_FEATURE
 10
113.45333099365234
 20
235.66966247558594
 30
0.0
 11
113.62266540527344
 21
239.4796600341797
 31
0.0
  0
LINE
  5
17B
  8
SMALL_FEATURE
 10
113.62266540527344
 20
239.4796600341797
 30
0.0
 11
117.00933074951172
 21
239.4373321533203
 31
0.0
  0
LINE
  5
17C
  8
SMALL_FEATURE
 10
117.00933074951172
 20
239.4373321533203
 30
0.0
 11
117.1363296508789
 21
235.66966247558594
 31
0.0
  0
LINE
  5
17D
  8
SMALL_FEATURE
 10
117.1363296508789
 20
235.66966247558594
 30
0.0
 11
117.26333618164062
 21
239.52200317382812
 31
0.0
  0
LINE
  5
17E
  8
SMALL_FEATURE
 10
117.26333618164062
 20
239.52200317382812
 30
0.0
 11
120.14199829101562
 21
239.09866333007812
 31
0.0
  0
LINE
  5
17F
  8
SMALL_FEATURE
 10
120.14199829101562
 20
239.09866333007812
 30
0.0
 11
120.18433380126953
 21
239.4796600341797
 31
0.0
  0
LINE
  5
180
  8
SMALL_FEATURE
 10
120.18433380126953
 20
239.4796600341797
 30
0.0
 11
128.90499877929688
 21
239.5643310546875
 31
0.0
  0
LINE
  5
181
  8
SMALL_FEATURE
 10
128.90499877929688
 20
239.5643310546875
 30
0.0
 11
120.18433380126953
 21
239.6913299560547
 31
0.0
  0
LINE
  5
182
  8
SMALL_FEATURE
 10
120.18433380126953
 20
239.6913299560547
 30
0.0
 11
120.14199829101562
 21
240.07232666015625
 31
0.0
  0
LINE
  5
183
  8
SMALL_FEATURE
 10
120.14199829101562
 20
240.07232666015625
 30
0.0
 11
117.26333618164062
 21
239.6490020751953
 31
0.0
  0
LINE
  5
184
  8
SMALL_FEATURE
 10
117.26333618164062
 20
239.6490020751953
 30
0.0
 11
117.1363296508789
 21
241.38467407226562
 31
0.0
  0
LINE
  5
185
  8
SMALL_FEATURE
 10
117.1363296508789
 20
241.38467407226562
 30
0.0
 11
116.96700286865234
 21
239.6913299560547
 31
0.0
  0
LINE
  5
186
  8
SMALL_FEATURE
 10
116.96700286865234
 20
239.6913299560547
 30
0.0
 11
113.62266540527344
 21
239.6913299560547
 31
0.0
  0
LINE
  5
187
  8
SMALL_FEATURE
 10
113.62266540527344
 20
239.6913299560547
 30
0.0
 11
113.45333099365234
 21
241.38467407226562
 31
0.0
  0
LINE
  5
188
  8
SMALL_FEATURE
 10
113.45333099365234
 20
241.38467407226562
 30
0.0
 11
113.32633209228516
 21
239.6490020751953
 31
0.0
  0
LINE
  5
189
  8
SMALL_FEATURE
 10
113.32633209228516
 20
239.6490020751953
 30
0.0
 11
110.44766998291016
 21
240.07232666015625
 31
0.0
  0
LINE
  5
18A
  8
SMALL_FEATURE
 10
110.44766998291016
 20
240.07232666015625
 30
0.0
 11
110.40533447265625
 21
239.6913299560547
 31
0.0
  0
LINE
  5
18B
  8
SMALL_FEATURE
 10
110.40533447265625
 20
239.6913299560547
 30
0.0
 11
107.27266693115234
 21
239.60667419433594
 31
0.0
  0
LINE
  5
18C
  8
SMALL_FEATURE
 10
166.96266174316406
 20
206.41732788085938
 30
0.0
 11
170.0953369140625
 21
206.2903289794922
 31
0.0
  0
LINE
  5
18D
  8
SMALL_FEATURE
 10
170.0953369140625
 20
206.2903289794922
 30
0.0
 11
170.13766479492188
 21
205.90933227539062
 31
0.0
  0
LINE
  5
18E
  8
SMALL_FEATURE
 10
170.13766479492188
 20
205.90933227539062
 30
0.0
 11
172.93167114257812
 21
206.33267211914062
 31
0.0
  0
LINE
  5
18F
  8
SMALL_FEATURE
 10
172.93167114257812
 20
206.33267211914062
 30
0.0
 11
173.0586700439453
 21
202.48033142089844
 31
0.0
  0
LINE
  5
190
  8
SMALL_FEATURE
 10
173.0586700439453
 20
202.48033142089844
 30
0.0
 11
173.22799682617188
 21
206.2903289794922
 31
0.0
  0
LINE
  5
191
  8
SMALL_FEATURE
 10
173.22799682617188
 20
206.2903289794922
 30
0.0
 11
176.6146697998047
 21
206.2480010986328
 31
0.0
  0
LINE
  5
192
  8
SMALL_FEATURE
 10
176.6146697998047
 20
206.2480010986328
 30
0.0
 11
176.74166870117188
 21
202.48033142089844
 31
0.0
  0
LINE
  5
193
  8
SMALL_FEATURE
 10
176.74166870117188
 20
202.48033142089844
 30
0.0
 11
176.86866760253906
 21
206.33267211914062
 31
0.0
  0
LINE
  5
194
  8
SMALL_FEATURE
 10
176.86866760253906
 20
206.33267211914062
 30
0.0
 11
179.74732971191406
 21
205.90933227539062
 31
0.0
  0
LINE
  5
195
  8
SMALL_FEATURE
 10
179.74732971191406
 20
205.90933227539062
 30
0.0
 11
179.7896728515625
 21
206.2903289794922
 31
0.0
  0
LINE
  5
196
  8
SMALL_FEATURE
 10
179.7896728515625
 20
206.2903289794922
 30
0.0
 11
188.59500122070312
 21
206.375
 31
0.0
  0
LINE
  5
197
  8
SMALL_FEATURE
 10
188.59500122070312
 20
206.375
 30
0.0
 11
179.7896728515625
 21
206.5019989013672
 31
0.0
  0
LINE
  5
198
  8
SMALL_FEATURE
 10
179.7896728515625
 20
206.5019989013672
 30
0.0
 11
179.74732971191406
 21
206.88299560546875
 31
0.0
  0
LINE
  5
199
  8
SMALL_FEATURE
 10
179.74732971191406
 20
206.88299560546875
 30
0.0
 11
176.86866760253906
 21
206.4596710205078
 31
0.0
  0
LINE
  5
19A
  8
SMALL_FEATURE
 10
176.86866760253906
 20
206.4596710205078
 30
0.0
 11
176.74166870117188
 21
208.19532775878906
 31
0.0
  0
LINE
  5
19B
  8
SMALL_FEATURE
 10
176.74166870117188
 20
208.19532775878906
 30
0.0
 11
176.57232666015625
 21
206.5019989013672
 31
0.0
  0
LINE
  5
19C
  8
SMALL_FEATURE
 10
176.57232666015625
 20
206.5019989013672
 30
0.0
 11
173.22799682617188
 21
206.5019989013672
 31
0.0
  0
LINE
  5
19D
  8
SMALL_FEATURE
 10
173.22799682617188
 20
206.5019989013672
 30
0.0
 11
173.0586700439453
 21
208.19532775878906
 31
0.0
  0
LINE
  5
19E
  8
SMALL_FEATURE
 10
173.0586700439453
 20
208.19532775878906
 30
0.0
 11
172.93167114257812
 21
206.4596710205078
 31
0.0
  0
LINE
  5
19F
  8
SMALL_FEATURE
 10
172.93167114257812
 20
206.4596710205078
 30
0.0
 11
170.13766479492188
 21
206.88299560546875
 31
0.0
  0
LINE
  5
1A0
  8
SMALL_FEATURE
 10
170.13766479492188
 20
206.88299560546875
 30
0.0
 11
170.0953369140625
 21
206.5019989013672
 31
0.0
  0
LINE
  5
1A1
  8
SMALL_FEATURE
 10
170.0953369140625
 20
206.5019989013672
 30
0.0
 11
166.96266174316406
 21
206.41732788085938
 31
0.0
  0
LINE
  5
1A2
  8
SMALL_FEATURE
 10
79.07866668701172
 20
41.14799880981445
 30
0.0
 11
82.12666320800781
 21
41.020999908447266
 31
0.0
  0
LINE
  5
1A3
  8
SMALL_FEATURE
 10
82.12666320800781
 20
41.020999908447266
 30
0.0
 11
82.16899871826172
 21
40.63999938964844
 31
0.0
  0
LINE
  5
1A4
  8
SMALL_FEATURE
 10
82.16899871826172
 20
40.63999938964844
 30
0.0
 11
85.04766845703125
 21
41.063331604003906
 31
0.0
  0
LINE
  5
1A5
  8
SMALL_FEATURE
 10
85.04766845703125
 20
41.063331604003906
 30
0.0
 11
85.17466735839844
 21
37.21099853515625
 31
0.0
  0
LINE
  5
1A6
  8
SMALL_FEATURE
 10
85.17466735839844
 20
37.21099853515625
 30
0.0
 11
85.34400177001953
 21
41.020999908447266
 31
0.0
  0
LINE
  5
1A7
  8
SMALL_FEATURE
 10
85.34400177001953
 20
41.020999908447266
 30
0.0
 11
88.13800048828125
 21
40.978668212890625
 31
0.0
  0
LINE
  5
1A8
  8
SMALL_FEATURE
 10
88.13800048828125
 20
40.978668212890625
 30
0.0
 11
88.26499938964844
 21
37.21099853515625
 31
0.0
  0
LINE
  5
1A9
  8
SMALL_FEATURE
 10
88.26499938964844
 20
37.21099853515625
 30
0.0
 11
88.39199829101562
 21
41.063331604003906
 31
0.0
  0
LINE
  5
1AA
  8
SMALL_FEATURE
 10
88.39199829101562
 20
41.063331604003906
 30
0.0
 11
91.27066802978516
 21
40.63999938964844
 31
0.0
  0
LINE
  5
1AB
  8
SMALL_FEATURE
 10
91.27066802978516
 20
40.63999938964844
 30
0.0
 11
91.31300354003906
 21
41.020999908447266
 31
0.0
  0
LINE
  5
1AC
  8
SMALL_FEATURE
 10
91.31300354003906
 20
41.020999908447266
 30
0.0
 11
94.44566345214844
 21
41.10566711425781
 31
0.0
  0
LINE
  5
1AD
  8
SMALL_FEATURE
 10
94.44566345214844
 20
41.10566711425781
 30
0.0
 11
91.31300354003906
 21
41.232666015625
 31
0.0
  0
LINE
  5
1AE
  8
SMALL_FEATURE
 10
91.31300354003906
 20
41.232666015625
 30
0.0
 11
91.27066802978516
 21
41.61366653442383
 31
0.0
  0
LINE
  5
1AF
  8
SMALL_FEATURE
 10
91.27066802978516
 20
41.61366653442383
 30
0.0
 11
88.39199829101562
 21
41.19033432006836
 31
0.0
  0
LINE
  5
1B0
  8
SMALL_FEATURE
 10
88.39199829101562
 20
41.19033432006836
 30
0.0
 11
88.26499938964844
 21
45.465999603271484
 31
0.0
  0
LINE
  5
1B1
  8
SMALL_FEATURE
 10
88.26499938964844
 20
45.465999603271484
 30
0.0
 11
88.09566497802734
 21
41.232666015625
 31
0.0
  0
LINE
  5
1B2
  8
SMALL_FEATURE
 10
88.09566497802734
 20
41.232666015625
 30
0.0
 11
85.30166625976562
 21
41.275001525878906
 31
0.0
  0
LINE
  5
1B3
  8
SMALL_FEATURE
 10
85.30166625976562
 20
41.275001525878906
 30
0.0
 11
85.17466735839844
 21
45.465999603271484
 31
0.0
  0
LINE
  5
1B4
  8
SMALL_FEATURE
 10
85.17466735839844
 20
45.465999603271484
 30
0.0
 11
85.04766845703125
 21
41.19033432006836
 31
0.0
  0
LINE
  5
1B5
  8
SMALL_FEATURE
 10
85.04766845703125
 20
41.19033432006836
 30
0.0
 11
82.16899871826172
 21
41.61366653442383
 31
0.0
  0
LINE
  5
1B6
  8
SMALL_FEATURE
 10
82.16899871826172
 20
41.61366653442383
 30
0.0
 11
82.12666320800781
 21
41.232666015625
 31
0.0
  0
LINE
  5
1B7
  8
SMALL_FEATURE
 10
82.12666320800781
 20
41.232666015625
 30
0.0
 11
79.07866668701172
 21
41.14799880981445
 31
0.0
  0
LINE
  5
1B8
  8
SMALL_FEATURE
 10
163.8300018310547
 20
69.17266845703125
 30
0.0
 11
166.96266174316406
 21
69.04566955566406
 31
0.0
  0
LINE
  5
1B9
  8
SMALL_FEATURE
 10
166.96266174316406
 20
69.04566955566406
 30
0.0
 11
167.0050048828125
 21
68.66466522216797
 31
0.0
  0
LINE
  5
1BA
  8
SMALL_FEATURE
 10
167.0050048828125
 20
68.66466522216797
 30
0.0
 11
169.8836669921875
 21
69.08799743652344
 31
0.0
  0
LINE
  5
1BB
  8
SMALL_FEATURE
 10
169.8836669921875
 20
69.08799743652344
 30
0.0
 11
170.0106658935547
 21
65.23566436767578
 31
0.0
  0
LINE
  5
1BC
  8
SMALL_FEATURE
 10
170.0106658935547
 20
65.23566436767578
 30
0.0
 11
170.17999267578125
 21
69.04566955566406
 31
0.0
  0
LINE
  5
1BD
  8
SMALL_FEATURE
 10
170.17999267578125
 20
69.04566955566406
 30
0.0
 11
171.36532592773438
 21
69.00333404541016
 31
0.0
  0
LINE
  5
1BE
  8
SMALL_FEATURE
 10
171.36532592773438
 20
69.00333404541016
 30
0.0
 11
171.49234008789062
 21
65.23566436767578
 31
0.0
  0
LINE
  5
1BF
  8
SMALL_FEATURE
 10
171.49234008789062
 20
65.23566436767578
 30
0.0
 11
171.6193389892578
 21
69.08799743652344
 31
0.0
  0
LINE
  5
1C0
  8
SMALL_FEATURE
 10
171.6193389892578
 20
69.08799743652344
 30
0.0
 11
174.4980010986328
 21
68.66466522216797
 31
0.0
  0
LINE
  5
1C1
  8
SMALL_FEATURE
 10
174.4980010986328
 20
68.66466522216797
 30
0.0
 11
174.5403289794922
 21
69.04566955566406
 31
0.0
  0
LINE
  5
1C2
  8
SMALL_FEATURE
 10
174.5403289794922
 20
69.04566955566406
 30
0.0
 11
183.51499938964844
 21
69.13033294677734
 31
0.0
  0
LINE
  5
1C3
  8
SMALL_FEATURE
 10
183.51499938964844
 20
69.13033294677734
 30
0.0
 11
174.5403289794922
 21
69.25733184814453
 31
0.0
  0
LINE
  5
1C4
  8
SMALL_FEATURE
 10
174.5403289794922
 20
69.25733184814453
 30
0.0
 11
174.4980010986328
 21
69.63833618164062
 31
0.0
  0
LINE
  5
1C5
  8
SMALL_FEATURE
 10
174.4980010986328
 20
69.63833618164062
 30
0.0
 11
171.6193389892578
 21
69.21499633789062
 31
0.0
  0
LINE
  5
1C6
  8
SMALL_FEATURE
 10
171.6193389892578
 20
69.21499633789062
 30
0.0
 11
171.49234008789062
 21
69.8499984741211
 31
0.0
  0
LINE
  5
1C7
  8
SMALL_FEATURE
 10
171.49234008789062
 20
69.8499984741211
 30
0.0
 11
171.322998046875
 21
69.25733184814453
 31
0.0
  0
LINE
  5
1C8
  8
SMALL_FEATURE
 10
171.322998046875
 20
69.25733184814453
 30
0.0
 11
169.41799926757812
 21
69.21499633789062
 31
0.0
  0
LINE
  5
1C9
  8
SMALL_FEATURE
 10
169.41799926757812
 20
69.21499633789062
 30
0.0
 11
167.0050048828125
 21
69.63833618164062
 31
0.0
  0
LINE
  5
1CA
  8
SMALL_FEATURE
 10
167.0050048828125
 20
69.63833618164062
 30
0.0
 11
166.96266174316406
 21
69.25733184814453
 31
0.0
  0
LINE
  5
1CB
  8
SMALL_FEATURE
 10
166.96266174316406
 20
69.25733184814453
 30
0.0
 11
163.8300018310547
 21
69.17266845703125
 31
0.0
  0
LINE
  5
1CC
  8
SMALL_FEATURE
 10
166.53933715820312
 20
154.77066040039062
 30
0.0
 11
169.6719970703125
 21
154.64366149902344
 31
0.0
  0
LINE
  5
1CD
  8
SMALL_FEATURE
 10
169.6719970703125
 20
154.64366149902344
 30
0.0
 11
169.71434020996094
 21
154.26266479492188
 31
0.0
  0
LINE
  5
1CE
  8
SMALL_FEATURE
 10
169.71434020996094
 20
154.26266479492188
 30
0.0
 11
172.59300231933594
 21
154.68600463867188
 31
0.0
  0
LINE
  5
1CF
  8
SMALL_FEATURE
 10
172.59300231933594
 20
154.68600463867188
 30
0.0
 11
172.72000122070312
 21
150.8336639404297
 31
0.0
  0
LINE
  5
1D0
  8
SMALL_FEATURE
 10
172.72000122070312
 20
150.8336639404297
 30
0.0
 11
172.8893280029297
 21
154.64366149902344
 31
0.0
  0
LINE
  5
1D1
  8
SMALL_FEATURE
 10
172.8893280029297
 20
154.64366149902344
 30
0.0
 11
174.15933227539062
 21
154.60133361816406
 31
0.0
  0
LINE
  5
1D2
  8
SMALL_FEATURE
 10
174.15933227539062
 20
154.60133361816406
 30
0.0
 11
174.2863311767578
 21
150.8336639404297
 31
0.0
  0
LINE
  5
1D3
  8
SMALL_FEATURE
 10
174.2863311767578
 20
150.8336639404297
 30
0.0
 11
174.413330078125
 21
154.68600463867188
 31
0.0
  0
LINE
  5
1D4
  8
SMALL_FEATURE
 10
174.413330078125
 20
154.68600463867188
 30
0.0
 11
177.29200744628906
 21
154.26266479492188
 31
0.0
  0
LINE
  5
1D5
  8
SMALL_FEATURE
 10
177.29200744628906
 20
154.26266479492188
 30
0.0
 11
177.33433532714844
 21
154.64366149902344
 31
0.0
  0
LINE
  5
1D6
  8
SMALL_FEATURE
 10
177.33433532714844
 20
154.64366149902344
 30
0.0
 11
186.22433471679688
 21
154.72833251953125
 31
0.0
  0
LINE
  5
1D7
  8
SMALL_FEATURE
 10
186.22433471679688
 20
154.72833251953125
 30
0.0
 11
177.33433532714844
 21
154.85533142089844
 31
0.0
  0
LINE
  5
1D8
  8
SMALL_FEATURE
 10
177.33433532714844
 20
154.85533142089844
 30
0.0
 11
177.29200744628906
 21
155.236328125
 31
0.0
  0
LINE
  5
1D9
  8
SMALL_FEATURE
 10
177.29200744628906
 20
155.236328125
 30
0.0
 11
174.413330078125
 21
154.81300354003906
 31
0.0
  0
LINE
  5
1DA
  8
SMALL_FEATURE
 10
174.413330078125
 20
154.81300354003906
 30
0.0
 11
174.2863311767578
 21
155.447998046875
 31
0.0
  0
LINE
  5
1DB
  8
SMALL_FEATURE
 10
174.2863311767578
 20
155.447998046875
 30
0.0
 11
174.11700439453125
 21
154.85533142089844
 31
0.0
  0
LINE
  5
1DC
  8
SMALL_FEATURE
 10
174.11700439453125
 20
154.85533142089844
 30
0.0
 11
172.12733459472656
 21
154.81300354003906
 31
0.0
  0
LINE
  5
1DD
  8
SMALL_FEATURE
 10
172.12733459472656
 20
154.81300354003906
 30
0.0
 11
169.71434020996094
 21
155.236328125
 31
0.0
  0
LINE
  5
1DE
  8
SMALL_FEATURE
 10
169.71434020996094
 20
155.236328125
 30
0.0
 11
169.6719970703125
 21
154.85533142089844
 31
0.0
  0
LINE
  5
1DF
  8
SMALL_FEATURE
 10
169.6719970703125
 20
154.85533142089844
 30
0.0
 11
166.53933715820312
 21
154.77066040039062
 31
0.0
  0
LINE
  5
1E0
  8
BRIDGE_ROUTE
 10
131.10633850097656
 20
9.440333366394043
 30
0.0
 11
131.14866638183594
 21
41.020999908447266
 31
0.0
  0
LINE
  5
1E1
  8
BRIDGE_ROUTE
 10
131.14866638183594
 20
41.020999908447266
 30
0.0
 11
198.79733276367188
 21
40.978668212890625
 31
0.0
  0
LINE
  5
1E2
  8
BRIDGE_ROUTE
 10
198.79733276367188
 20
40.978668212890625
 30
0.0
 11
198.7550048828125
 21
39.70866775512695
 31
0.0
  0
LINE
  5
1E3
  8
BRIDGE_ROUTE
 10
198.7550048828125
 20
39.70866775512695
 30
0.0
 11
132.50332641601562
 21
39.70866775512695
 31
0.0
  0
LINE
  5
1E4
  8
BRIDGE_ROUTE
 10
132.50332641601562
 20
39.70866775512695
 30
0.0
 11
132.41867065429688
 21
9.440333366394043
 31
0.0
  0
LINE
  5
1E5
  8
BRIDGE_ROUTE
 10
132.41867065429688
 20
9.440333366394043
 30
0.0
 11
131.10633850097656
 21
9.440333366394043
 31
0.0
  0
LINE
  5
1E6
  8
CONTROL_CAVITY
 10
50.41899871826172
 20
255.9896697998047
 30
0.0
 11
46.10100173950195
 21
254.42333984375
 31
0.0
  0
LINE
  5
1E7
  8
CONTROL_CAVITY
 10
46.10100173950195
 20
254.42333984375
 30
0.0
 11
42.121665954589844
 21
251.54466247558594
 31
0.0
  0
LINE
  5
1E8
  8
CONTROL_CAVITY
 10
42.121665954589844
 20
251.54466247558594
 30
0.0
 11
40.55533218383789
 21
249.8090057373047
 31
0.0
  0
LINE
  5
1E9
  8
CONTROL_CAVITY
 10
40.55533218383789
 20
249.8090057373047
 30
0.0
 11
37.930667877197266
 21
245.7449951171875
 31
0.0
  0
LINE
  5
1EA
  8
CONTROL_CAVITY
 10
37.930667877197266
 20
245.7449951171875
 30
0.0
 11
36.15266799926758
 21
241.3423309326172
 31
0.0
  0
LINE
  5
1EB
  8
CONTROL_CAVITY
 10
36.15266799926758
 20
241.3423309326172
 30
0.0
 11
35.22133255004883
 21
236.7703399658203
 31
0.0
  0
LINE
  5
1EC
  8
CONTROL_CAVITY
 10
35.22133255004883
 20
236.7703399658203
 30
0.0
 11
35.47533416748047
 21
231.69033813476562
 31
0.0
  0
LINE
  5
1ED
  8
CONTROL_CAVITY
 10
35.47533416748047
 20
231.69033813476562
 30
0.0
 11
38.48099899291992
 21
220.00633239746094
 31
0.0
  0
LINE
  5
1EE
  8
CONTROL_CAVITY
 10
38.48099899291992
 20
220.00633239746094
 30
0.0
 11
38.692665100097656
 21
217.2123260498047
 31
0.0
  0
LINE
  5
1EF
  8
CONTROL_CAVITY
 10
38.692665100097656
 20
217.2123260498047
 30
0.0
 11
38.311668395996094
 21
213.27532958984375
 31
0.0
  0
LINE
  5
1F0
  8
CONTROL_CAVITY
 10
38.311668395996094
 20
213.27532958984375
 30
0.0
 11
36.91466522216797
 21
208.40699768066406
 31
0.0
  0
LINE
  5
1F1
  8
CONTROL_CAVITY
 10
36.91466522216797
 20
208.40699768066406
 30
0.0
 11
35.17900085449219
 21
204.3006591796875
 31
0.0
  0
LINE
  5
1F2
  8
CONTROL_CAVITY
 10
35.17900085449219
 20
204.3006591796875
 30
0.0
 11
28.278667449951172
 21
191.47366333007812
 31
0.0
  0
LINE
  5
1F3
  8
CONTROL_CAVITY
 10
28.278667449951172
 20
191.47366333007812
 30
0.0
 11
25.48466682434082
 21
184.78500366210938
 31
0.0
  0
LINE
  5
1F4
  8
CONTROL_CAVITY
 10
25.48466682434082
 20
184.78500366210938
 30
0.0
 11
24.849666595458984
 21
182.20266723632812
 31
0.0
  0
LINE
  5
1F5
  8
CONTROL_CAVITY
 10
24.849666595458984
 20
182.20266723632812
 30
0.0
 11
24.553333282470703
 21
177.46133422851562
 31
0.0
  0
LINE
  5
1F6
  8
CONTROL_CAVITY
 10
24.553333282470703
 20
177.46133422851562
 30
0.0
 11
24.764999389648438
 21
174.9636688232422
 31
0.0
  0
LINE
  5
1F7
  8
CONTROL_CAVITY
 10
24.764999389648438
 20
174.9636688232422
 30
0.0
 11
25.738666534423828
 21
170.51866149902344
 31
0.0
  0
LINE
  5
1F8
  8
CONTROL_CAVITY
 10
25.738666534423828
 20
170.51866149902344
 30
0.0
 11
27.601333618164062
 21
166.11599731445312
 31
0.0
  0
LINE
  5
1F9
  8
CONTROL_CAVITY
 10
27.601333618164062
 20
166.11599731445312
 30
0.0
 11
31.665332794189453
 21
160.1893310546875
 31
0.0
  0
LINE
  5
1FA
  8
CONTROL_CAVITY
 10
31.665332794189453
 20
160.1893310546875
 30
0.0
 11
35.17900085449219
 21
156.7603302001953
 31
0.0
  0
LINE
  5
1FB
  8
CONTROL_CAVITY
 10
35.17900085449219
 20
156.7603302001953
 30
0.0
 11
39.15833282470703
 21
154.1356658935547
 31
0.0
  0
LINE
  5
1FC
  8
CONTROL_CAVITY
 10
39.15833282470703
 20
154.1356658935547
 30
0.0
 11
43.56100082397461
 21
152.4423370361328
 31
0.0
  0
LINE
  5
1FD
  8
CONTROL_CAVITY
 10
43.56100082397461
 20
152.4423370361328
 30
0.0
 11
52.91666793823242
 21
150.41033935546875
 31
0.0
  0
LINE
  5
1FE
  8
CONTROL_CAVITY
 10
52.91666793823242
 20
150.41033935546875
 30
0.0
 11
57.319332122802734
 21
150.1563262939453
 31
0.0
  0
LINE
  5
1FF
  8
CONTROL_CAVITY
 10
57.319332122802734
 20
150.1563262939453
 30
0.0
 11
69.9346694946289
 21
150.1563262939453
 31
0.0
  0
LINE
  5
200
  8
CONTROL_CAVITY
 10
69.9346694946289
 20
150.1563262939453
 30
0.0
 11
81.61866760253906
 21
152.4423370361328
 31
0.0
  0
LINE
  5
201
  8
CONTROL_CAVITY
 10
81.61866760253906
 20
152.4423370361328
 30
0.0
 11
86.10600280761719
 21
154.1356658935547
 31
0.0
  0
LINE
  5
202
  8
CONTROL_CAVITY
 10
86.10600280761719
 20
154.1356658935547
 30
0.0
 11
90.08533477783203
 21
156.7603302001953
 31
0.0
  0
LINE
  5
203
  8
CONTROL_CAVITY
 10
90.08533477783203
 20
156.7603302001953
 30
0.0
 11
93.51433563232422
 21
160.1893310546875
 31
0.0
  0
LINE
  5
204
  8
CONTROL_CAVITY
 10
93.51433563232422
 20
160.1893310546875
 30
0.0
 11
96.30833435058594
 21
164.08399963378906
 31
0.0
  0
LINE
  5
205
  8
CONTROL_CAVITY
 10
96.30833435058594
 20
164.08399963378906
 30
0.0
 11
98.67900085449219
 21
168.3173370361328
 31
0.0
  0
LINE
  5
206
  8
CONTROL_CAVITY
 10
98.67900085449219
 20
168.3173370361328
 30
0.0
 11
99.52566528320312
 21
170.51866149902344
 31
0.0
  0
LINE
  5
207
  8
CONTROL_CAVITY
 10
99.52566528320312
 20
170.51866149902344
 30
0.0
 11
100.45700073242188
 21
175.13299560546875
 31
0.0
  0
LINE
  5
208
  8
CONTROL_CAVITY
 10
100.45700073242188
 20
175.13299560546875
 30
0.0
 11
100.54166412353516
 21
180.21299743652344
 31
0.0
  0
LINE
  5
209
  8
CONTROL_CAVITY
 10
100.54166412353516
 20
180.21299743652344
 30
0.0
 11
99.56800079345703
 21
185.25067138671875
 31
0.0
  0
LINE
  5
20A
  8
CONTROL_CAVITY
 10
99.56800079345703
 20
185.25067138671875
 30
0.0
 11
96.9010009765625
 21
191.47366333007812
 31
0.0
  0
LINE
  5
20B
  8
CONTROL_CAVITY
 10
96.9010009765625
 20
191.47366333007812
 30
0.0
 11
90.00066375732422
 21
204.3006591796875
 31
0.0
  0
LINE
  5
20C
  8
CONTROL_CAVITY
 10
90.00066375732422
 20
204.3006591796875
 30
0.0
 11
87.4606704711914
 21
210.82000732421875
 31
0.0
  0
LINE
  5
20D
  8
CONTROL_CAVITY
 10
87.4606704711914
 20
210.82000732421875
 30
0.0
 11
86.57166290283203
 21
215.26499938964844
 31
0.0
  0
LINE
  5
20E
  8
CONTROL_CAVITY
 10
86.57166290283203
 20
215.26499938964844
 30
0.0
 11
86.69866943359375
 21
220.00633239746094
 31
0.0
  0
LINE
  5
20F
  8
CONTROL_CAVITY
 10
86.69866943359375
 20
220.00633239746094
 30
0.0
 11
89.70433044433594
 21
231.69033813476562
 31
0.0
  0
LINE
  5
210
  8
CONTROL_CAVITY
 10
89.70433044433594
 20
231.69033813476562
 30
0.0
 11
89.95833587646484
 21
236.09300231933594
 31
0.0
  0
LINE
  5
211
  8
CONTROL_CAVITY
 10
89.95833587646484
 20
236.09300231933594
 30
0.0
 11
89.19633483886719
 21
241.04600524902344
 31
0.0
  0
LINE
  5
212
  8
CONTROL_CAVITY
 10
89.19633483886719
 20
241.04600524902344
 30
0.0
 11
86.95266723632812
 21
246.7186737060547
 31
0.0
  0
LINE
  5
213
  8
CONTROL_CAVITY
 10
86.95266723632812
 20
246.7186737060547
 30
0.0
 11
92.15966796875
 21
249.1316680908203
 31
0.0
  0
LINE
  5
214
  8
CONTROL_CAVITY
 10
92.15966796875
 20
249.1316680908203
 30
0.0
 11
86.36000061035156
 21
249.6820068359375
 31
0.0
  0
LINE
  5
215
  8
CONTROL_CAVITY
 10
86.36000061035156
 20
249.6820068359375
 30
0.0
 11
86.36000061035156
 21
249.4703369140625
 31
0.0
  0
LINE
  5
216
  8
CONTROL_CAVITY
 10
86.36000061035156
 20
249.4703369140625
 30
0.0
 11
89.45033264160156
 21
249.21633911132812
 31
0.0
  0
LINE
  5
217
  8
CONTROL_CAVITY
 10
89.45033264160156
 20
249.21633911132812
 30
0.0
 11
89.53500366210938
 21
248.79299926757812
 31
0.0
  0
LINE
  5
218
  8
CONTROL_CAVITY
 10
89.53500366210938
 20
248.79299926757812
 30
0.0
 11
85.767333984375
 21
248.24266052246094
 31
0.0
  0
LINE
  5
219
  8
CONTROL_CAVITY
 10
85.767333984375
 20
248.24266052246094
 30
0.0
 11
82.97333526611328
 21
251.62933349609375
 31
0.0
  0
LINE
  5
21A
  8
CONTROL_CAVITY
 10
82.97333526611328
 20
251.62933349609375
 30
0.0
 11
79.07866668701172
 21
254.42333984375
 31
0.0
  0
LINE
  5
21B
  8
CONTROL_CAVITY
 10
79.07866668701172
 20
254.42333984375
 30
0.0
 11
75.9036636352539
 21
255.6510009765625
 31
0.0
  0
LINE
  5
21C
  8
CONTROL_CAVITY
 10
75.9036636352539
 20
255.6510009765625
 30
0.0
 11
72.26300048828125
 21
256.455322265625
 31
0.0
  0
LINE
  5
21D
  8
CONTROL_CAVITY
 10
72.26300048828125
 20
256.455322265625
 30
0.0
 11
55.16033172607422
 21
256.6246643066406
 31
0.0
  0
LINE
  5
21E
  8
CONTROL_CAVITY
 10
55.16033172607422
 20
256.6246643066406
 30
0.0
 11
50.41899871826172
 21
255.9896697998047
 31
0.0
  0
LINE
  5
21F
  8
NECK_POCKET
 10
36.40666580200195
 20
206.75599670410156
 30
0.0
 11
88.73066711425781
 21
206.79833984375
 31
0.0
  0
LINE
  5
220
  8
NECK_POCKET
 10
88.73066711425781
 20
206.79833984375
 30
0.0
 11
89.91600036621094
 21
203.96200561523438
 31
0.0
  0
LINE
  5
221
  8
NECK_POCKET
 10
89.91600036621094
 20
203.96200561523438
 30
0.0
 11
96.47766876220703
 21
191.8123321533203
 31
0.0
  0
LINE
  5
222
  8
NECK_POCKET
 10
96.47766876220703
 20
191.8123321533203
 30
0.0
 11
98.67900085449219
 21
187.1133270263672
 31
0.0
  0
LINE
  5
223
  8
NECK_POCKET
 10
98.67900085449219
 20
187.1133270263672
 30
0.0
 11
99.52566528320312
 21
184.70033264160156
 31
0.0
  0
LINE
  5
224
  8
NECK_POCKET
 10
99.52566528320312
 20
184.70033264160156
 30
0.0
 11
100.33000183105469
 21
180.17066955566406
 31
0.0
  0
LINE
  5
225
  8
NECK_POCKET
 10
100.33000183105469
 20
180.17066955566406
 30
0.0
 11
100.24533081054688
 21
175.13299560546875
 31
0.0
  0
LINE
  5
226
  8
NECK_POCKET
 10
100.24533081054688
 20
175.13299560546875
 30
0.0
 11
99.31400299072266
 21
170.56100463867188
 31
0.0
  0
LINE
  5
227
  8
NECK_POCKET
 10
99.31400299072266
 20
170.56100463867188
 30
0.0
 11
97.32433319091797
 21
166.11599731445312
 31
0.0
  0
LINE
  5
228
  8
NECK_POCKET
 10
97.32433319091797
 20
166.11599731445312
 30
0.0
 11
93.4296646118164
 21
160.44332885742188
 31
0.0
  0
LINE
  5
229
  8
NECK_POCKET
 10
93.4296646118164
 20
160.44332885742188
 30
0.0
 11
89.83133697509766
 21
156.84500122070312
 31
0.0
  0
LINE
  5
22A
  8
NECK_POCKET
 10
89.83133697509766
 20
156.84500122070312
 30
0.0
 11
85.767333984375
 21
154.2203369140625
 31
0.0
  0
LINE
  5
22B
  8
NECK_POCKET
 10
85.767333984375
 20
154.2203369140625
 30
0.0
 11
81.27999877929688
 21
152.5693359375
 31
0.0
  0
LINE
  5
22C
  8
NECK_POCKET
 10
81.27999877929688
 20
152.5693359375
 30
0.0
 11
69.892333984375
 21
150.3679962158203
 31
0.0
  0
LINE
  5
22D
  8
NECK_POCKET
 10
69.892333984375
 20
150.3679962158203
 30
0.0
 11
52.95899963378906
 21
150.6219940185547
 31
0.0
  0
LINE
  5
22E
  8
NECK_POCKET
 10
52.95899963378906
 20
150.6219940185547
 30
0.0
 11
41.994667053222656
 21
153.20433044433594
 31
0.0
  0
LINE
  5
22F
  8
NECK_POCKET
 10
41.994667053222656
 20
153.20433044433594
 30
0.0
 11
39.15833282470703
 21
154.38966369628906
 31
0.0
  0
LINE
  5
230
  8
NECK_POCKET
 10
39.15833282470703
 20
154.38966369628906
 30
0.0
 11
35.43299865722656
 21
156.84500122070312
 31
0.0
  0
LINE
  5
231
  8
NECK_POCKET
 10
35.43299865722656
 20
156.84500122070312
 30
0.0
 11
31.75
 21
160.44332885742188
 31
0.0
  0
LINE
  5
232
  8
NECK_POCKET
 10
31.75
 20
160.44332885742188
 30
0.0
 11
27.601333618164062
 21
166.62399291992188
 31
0.0
  0
LINE
  5
233
  8
NECK_POCKET
 10
27.601333618164062
 20
166.62399291992188
 30
0.0
 11
25.950332641601562
 21
170.56100463867188
 31
0.0
  0
LINE
  5
234
  8
NECK_POCKET
 10
25.950332641601562
 20
170.56100463867188
 30
0.0
 11
25.357666015625
 21
172.8893280029297
 31
0.0
  0
LINE
  5
235
  8
NECK_POCKET
 10
25.357666015625
 20
172.8893280029297
 30
0.0
 11
24.764999389648438
 21
178.30799865722656
 31
0.0
  0
LINE
  5
236
  8
NECK_POCKET
 10
24.764999389648438
 20
178.30799865722656
 30
0.0
 11
25.103666305541992
 21
182.49899291992188
 31
0.0
  0
LINE
  5
237
  8
NECK_POCKET
 10
25.103666305541992
 20
182.49899291992188
 30
0.0
 11
26.542999267578125
 21
187.02867126464844
 31
0.0
  0
LINE
  5
238
  8
NECK_POCKET
 10
26.542999267578125
 20
187.02867126464844
 30
0.0
 11
28.70199966430664
 21
191.8123321533203
 31
0.0
  0
LINE
  5
239
  8
NECK_POCKET
 10
28.70199966430664
 20
191.8123321533203
 30
0.0
 11
35.263668060302734
 21
203.96200561523438
 31
0.0
  0
LINE
  5
23A
  8
NECK_POCKET
 10
35.263668060302734
 20
203.96200561523438
 30
0.0
 11
36.40666580200195
 21
206.75599670410156
 31
0.0
  0
LINE
  5
23B
  8
JACK_ROUTE
 10
60.70600128173828
 20
256.37066650390625
 30
0.0
 11
60.663665771484375
 21
233.67999267578125
 31
0.0
  0
LINE
  5
23C
  8
JACK_ROUTE
 10
60.663665771484375
 20
233.67999267578125
 30
0.0
 11
35.560001373291016
 21
233.76466369628906
 31
0.0
  0
LINE
  5
23D
  8
JACK_ROUTE
 10
35.560001373291016
 20
233.76466369628906
 30
0.0
 11
35.43299865722656
 21
236.72799682617188
 31
0.0
  0
LINE
  5
23E
  8
JACK_ROUTE
 10
35.43299865722656
 20
236.72799682617188
 30
0.0
 11
35.729331970214844
 21
238.80233764648438
 31
0.0
  0
LINE
  5
23F
  8
JACK_ROUTE
 10
35.729331970214844
 20
238.80233764648438
 30
0.0
 11
37.08399963378906
 21
243.45899963378906
 31
0.0
  0
LINE
  5
240
  8
JACK_ROUTE
 10
37.08399963378906
 20
243.45899963378906
 30
0.0
 11
39.5816650390625
 21
248.031005859375
 31
0.0
  0
LINE
  5
241
  8
JACK_ROUTE
 10
39.5816650390625
 20
248.031005859375
 30
0.0
 11
42.50266647338867
 21
251.58700561523438
 31
0.0
  0
LINE
  5
242
  8
JACK_ROUTE
 10
42.50266647338867
 20
251.58700561523438
 30
0.0
 11
46.10100173950195
 21
254.16932678222656
 31
0.0
  0
LINE
  5
243
  8
JACK_ROUTE
 10
46.10100173950195
 20
254.16932678222656
 30
0.0
 11
50.461334228515625
 21
255.7779998779297
 31
0.0
  0
LINE
  5
244
  8
JACK_ROUTE
 10
50.461334228515625
 20
255.7779998779297
 30
0.0
 11
55.07566833496094
 21
256.4129943847656
 31
0.0
  0
LINE
  5
245
  8
JACK_ROUTE
 10
55.07566833496094
 20
256.4129943847656
 30
0.0
 11
60.70600128173828
 21
256.37066650390625
 31
0.0
  0
LINE
  5
246
  8
JACK_ROUTE
 10
64.55833435058594
 20
256.3283386230469
 30
0.0
 11
71.5856704711914
 21
256.2860107421875
 31
0.0
  0
LINE
  5
247
  8
JACK_ROUTE
 10
71.5856704711914
 20
256.2860107421875
 30
0.0
 11
74.71833038330078
 21
255.7779998779297
 31
0.0
  0
LINE
  5
248
  8
JACK_ROUTE
 10
74.71833038330078
 20
255.7779998779297
 30
0.0
 11
79.07866668701172
 21
254.16932678222656
 31
0.0
  0
LINE
  5
249
  8
JACK_ROUTE
 10
79.07866668701172
 20
254.16932678222656
 30
0.0
 11
82.677001953125
 21
251.58700561523438
 31
0.0
  0
LINE
  5
24A
  8
JACK_ROUTE
 10
82.677001953125
 20
251.58700561523438
 30
0.0
 11
85.25933074951172
 21
248.58132934570312
 31
0.0
  0
LINE
  5
24B
  8
JACK_ROUTE
 10
85.25933074951172
 20
248.58132934570312
 30
0.0
 11
85.21700286865234
 21
248.07333374023438
 31
0.0
  0
LINE
  5
24C
  8
JACK_ROUTE
 10
85.21700286865234
 20
248.07333374023438
 30
0.0
 11
67.98733520507812
 21
245.23699951171875
 31
0.0
  0
LINE
  5
24D
  8
JACK_ROUTE
 10
67.98733520507812
 20
245.23699951171875
 30
0.0
 11
85.7249984741211
 21
247.9040069580078
 31
0.0
  0
LINE
  5
24E
  8
JACK_ROUTE
 10
85.7249984741211
 20
247.9040069580078
 30
0.0
 11
87.2490005493164
 21
245.32167053222656
 31
0.0
  0
LINE
  5
24F
  8
JACK_ROUTE
 10
87.2490005493164
 20
245.32167053222656
 30
0.0
 11
88.94233703613281
 21
241.17300415039062
 31
0.0
  0
LINE
  5
250
  8
JACK_ROUTE
 10
88.94233703613281
 20
241.17300415039062
 30
0.0
 11
89.74666595458984
 21
236.8126678466797
 31
0.0
  0
LINE
  5
251
  8
JACK_ROUTE
 10
89.74666595458984
 20
236.8126678466797
 30
0.0
 11
89.61966705322266
 21
233.76466369628906
 31
0.0
  0
LINE
  5
252
  8
JACK_ROUTE
 10
89.61966705322266
 20
233.76466369628906
 30
0.0
 11
64.60066986083984
 21
233.67999267578125
 31
0.0
  0
LINE
  5
253
  8
JACK_ROUTE
 10
64.60066986083984
 20
233.67999267578125
 30
0.0
 11
64.55833435058594
 21
256.3283386230469
 31
0.0
  0
ENDSEC
  0
EOF
