  0
SECTION
  2
HEADER
  9
$ACADVER
  1
AC1009
  9
$DWGCODEPAGE
  3
ANSI_1252
  9
$INSBASE
 10
0.0
 20
0.0
 30
0.0
  9
$EXTMIN
 10
1e+20
 20
1e+20
 30
1e+20
  9
$EXTMAX
 10
-1e+20
 20
-1e+20
 30
-1e+20
  9
$LIMMIN
 10
0.0
 20
0.0
  9
$LIMMAX
 10
420.0
 20
297.0
  9
$ORTHOMODE
 70
0
  9
$REGENMODE
 70
1
  9
$FILLMODE
 70
1
  9
$DRAGMODE
 70
2
  9
$QTEXTMODE
 70
0
  9
$MIRRTEXT
 70
1
  9
$OSMODE
 70
20583
  9
$LTSCALE
 40
1.0
  9
$ATTMODE
 70
1
  9
$TEXTSIZE
 40
2.5
  9
$TRACEWID
 40
1.0
  9
$TEXTSTYLE
  7
Standard
  9
$CLAYER
  8
0
  9
$CELTYPE
  6
ByLayer
  9
$CECOLOR
 62
256
  9
$DIMSCALE
 40
1.0
  9
$DIMASZ
 40
2.5
  9
$DIMEXO
 40
0.625
  9
$DIMDLI
 40
3.75
  9
$DIMRND
 40
0.0
  9
$DIMDLE
 40
0.0
  9
$DIMEXE
 40
1.25
  9
$DIMTP
 40
0.0
  9
$DIMTM
 40
0.0
  9
$DIMTXT
 40
2.5
  9
$DIMCEN
 40
2.5
  9
$DIMTSZ
 40
0.0
  9
$DIMTOL
 70
0
  9
$DIMLIM
 70
0
  9
$DIMTIH
 70
0
  9
$DIMTOH
 70
0
  9
$DIMSE1
 70
0
  9
$DIMSE2
 70
0
  9
$DIMTAD
 70
1
  9
$DIMZIN
 70
8
  9
$DIMBLK
  1

  9
$DIMASO
 70
1
  9
$DIMSHO
 70
1
  9
$DIMPOST
  1

  9
$DIMAPOST
  1

  9
$DIMALT
 70
0
  9
$DIMALTD
 70
3
  9
$DIMALTF
 40
0.03937007874
  9
$DIMLFAC
 40
1.0
  9
$DIMTOFL
 70
1
  9
$DIMTVP
 40
0.0
  9
$DIMTIX
 70
0
  9
$DIMSOXD
 70
0
  9
$DIMSAH
 70
0
  9
$DIMBLK1
  1

  9
$DIMBLK2
  1

  9
$DIMSTYLE
  2
ISO-25
  9
$DIMCLRD
 70
0
  9
$DIMCLRE
 70
0
  9
$DIMCLRT
 70
0
  9
$DIMTFAC
 40
1.0
  9
$DIMGAP
 40
0.625
  9
$COORDS
 70
1
  9
$ATTDIA
 70
0
  9
$ATTREQ
 70
1
  9
$HANDLING
 70
1
  9
$LUNITS
 70
2
  9
$LUPREC
 70
4
  9
$SKETCHINC
 40
1.0
  9
$FILLETRAD
 40
10.0
  9
$AUNITS
 70
0
  9
$AUPREC
 70
2
  9
$MENU
  1
.
  9
$ELEVATION
 40
0.0
  9
$PELEVATION
 40
0.0
  9
$THICKNESS
 40
0.0
  9
$LIMCHECK
 70
0
  9
$CHAMFERA
 40
0.0
  9
$CHAMFERB
 40
0.0
  9
$SKPOLY
 70
0
  9
$TDCREATE
 40
2461106.6795717594
  9
$TDUPDATE
 40
2461106.6795833334
  9
$TDINDWG
 40
0.0
  9
$TDUSRTIMER
 40
0.0
  9
$USRTIMER
 70
1
  9
$ANGBASE
 50
0.0
  9
$ANGDIR
 70
0
  9
$PDMODE
 70
0
  9
$PDSIZE
 40
0.0
  9
$PLINEWID
 40
0.0
  9
$SPLFRAME
 70
0
  9
$SPLINETYPE
 70
6
  9
$SPLINESEGS
 70
8
  9
$HANDSEED
  5
2E3
  9
$SURFTAB1
 70
6
  9
$SURFTAB2
 70
6
  9
$SURFTYPE
 70
6
  9
$SURFU
 70
6
  9
$SURFV
 70
6
  9
$UCSNAME
  2

  9
$UCSORG
 10
0.0
 20
0.0
 30
0.0
  9
$UCSXDIR
 10
1.0
 20
0.0
 30
0.0
  9
$UCSYDIR
 10
0.0
 20
1.0
 30
0.0
  9
$PUCSNAME
  2

  9
$PUCSORG
 10
0.0
 20
0.0
 30
0.0
  9
$PUCSXDIR
 10
1.0
 20
0.0
 30
0.0
  9
$PUCSYDIR
 10
0.0
 20
1.0
 30
0.0
  9
$USERI1
 70
0
  9
$USERI2
 70
0
  9
$USERI3
 70
0
  9
$USERI4
 70
0
  9
$USERI5
 70
0
  9
$USERR1
 40
0.0
  9
$USERR2
 40
0.0
  9
$USERR3
 40
0.0
  9
$USERR4
 40
0.0
  9
$USERR5
 40
0.0
  9
$WORLDVIEW
 70
1
  9
$SHADEDGE
 70
3
  9
$SHADEDIF
 70
70
  9
$TILEMODE
 70
1
  9
$MAXACTVP
 70
64
  9
$PLIMCHECK
 70
0
  9
$PEXTMIN
 10
1e+20
 20
1e+20
 30
1e+20
  9
$PEXTMAX
 10
-1e+20
 20
-1e+20
 30
-1e+20
  9
$PLIMMIN
 10
0.0
 20
0.0
  9
$PLIMMAX
 10
420.0
 20
297.0
  9
$UNITMODE
 70
0
  9
$VISRETAIN
 70
1
  9
$PLINEGEN
 70
0
  9
$PSLTSCALE
 70
1
  0
ENDSEC
  0
SECTION
  2
TABLES
  0
TABLE
  2
VPORT
 70
1
  0
VPORT
  5
23
  2
*Active
 70
0
 10
0.0
 20
0.0
 11
1.0
 21
1.0
 12
0.0
 22
0.0
 13
0.0
 23
0.0
 14
0.5
 24
0.5
 15
0.5
 25
0.5
 16
0.0
 26
0.0
 36
1.0
 17
0.0
 27
0.0
 37
0.0
 40
1000.0
 41
1.34
 42
50.0
 43
0.0
 44
0.0
 50
0.0
 51
0.0
 71
0
 72
1000
 73
1
 74
3
 75
0
 76
0
 77
0
 78
0
  0
ENDTAB
  0
TABLE
  2
LTYPE
 70
3
  0
LTYPE
  5
24
  2
ByBlock
 70
0
  3

 72
65
 73
0
 40
0.0
  0
LTYPE
  5
25
  2
ByLayer
 70
0
  3

 72
65
 73
0
 40
0.0
  0
LTYPE
  5
26
  2
Continuous
 70
0
  3

 72
65
 73
0
 40
0.0
  0
ENDTAB
  0
TABLE
  2
LAYER
 70
2
  0
LAYER
  5
27
  2
0
 70
0
 62
7
  6
Continuous
  0
LAYER
  5
28
  2
Defpoints
 70
0
 62
7
  6
Continuous
  0
ENDTAB
  0
TABLE
  2
STYLE
 70
1
  0
STYLE
  5
29
  2
Standard
 70
0
 40
0.0
 41
1.0
 50
0.0
 71
0
 42
2.5
  3
txt
  4

  0
ENDTAB
  0
TABLE
  2
VIEW
 70
0
  0
ENDTAB
  0
TABLE
  2
UCS
 70
0
  0
ENDTAB
  0
TABLE
  2
APPID
 70
3
  0
APPID
  5
2A
  2
ACAD
 70
0
  0
APPID
  5
2E1
  2
HATCHBACKGROUNDCOLOR
 70
0
  0
APPID
  5
2E2
  2
EZDXF
 70
0
  0
ENDTAB
  0
TABLE
  2
DIMSTYLE
 70
1
  0
DIMSTYLE
105
2B
  2
Standard
 70
0
  3

  4

  5

  6

  7

 40
1.0
 41
2.5
 42
0.625
 43
3.75
 44
1.25
 45
0.0
 46
0.0
 47
0.0
 48
0.0
140
2.5
141
2.5
142
0.0
143
0.03937007874
144
1.0
145
0.0
146
1.0
147
0.625
 71
0
 72
0
 73
0
 74
0
 75
0
 76
0
 77
1
 78
8
170
0
171
3
172
1
173
0
174
0
175
0
176
0
177
0
178
0
  0
ENDTAB
  0
ENDSEC
  0
SECTION
  2
BLOCKS
  0
BLOCK
  5
18
  8
0
  2
$Model_Space
 70
0
 10
0.0
 20
0.0
 30
0.0
  3
$Model_Space
  1

1001
EZDXF
1000
CREATED_BY_EZDXF
1000
1.4.3 @ 2026-03-06T22:18:35.928574+00:00
1000
WRITTEN_BY_EZDXF
1000
1.4.3 @ 2026-03-06T22:18:36.373699+00:00
  0
ENDBLK
  5
19
  8
0
  0
BLOCK
  5
1C
  8
0
  2
$Paper_Space
 70
0
 10
0.0
 20
0.0
 30
0.0
  3
$Paper_Space
  1

  0
ENDBLK
  5
1D
  8
0
  0
ENDSEC
  0
SECTION
  2
ENTITIES
  0
LINE
  5
2D
  8
SMALL_FEATURE
 10
181.5676727294922
 20
39.45466613769531
 30
0.0
 11
188.34100341796875
 21
39.49700164794922
 31
0.0
  0
LINE
  5
2E
  8
SMALL_FEATURE
 10
188.34100341796875
 20
39.49700164794922
 30
0.0
 11
188.5103302001953
 21
38.98899841308594
 31
0.0
  0
LINE
  5
2F
  8
SMALL_FEATURE
 10
188.5103302001953
 20
38.98899841308594
 30
0.0
 11
188.55267333984375
 21
39.49700164794922
 31
0.0
  0
LINE
  5
30
  8
SMALL_FEATURE
 10
188.55267333984375
 20
39.49700164794922
 30
0.0
 11
198.7550048828125
 21
39.49700164794922
 31
0.0
  0
LINE
  5
31
  8
SMALL_FEATURE
 10
198.7550048828125
 20
39.49700164794922
 30
0.0
 11
198.79733276367188
 21
24.595666885375977
 31
0.0
  0
LINE
  5
32
  8
SMALL_FEATURE
 10
198.79733276367188
 20
24.595666885375977
 30
0.0
 11
194.47933959960938
 21
24.553333282470703
 31
0.0
  0
LINE
  5
33
  8
SMALL_FEATURE
 10
194.47933959960938
 20
24.553333282470703
 30
0.0
 11
194.30999755859375
 21
24.849666595458984
 31
0.0
  0
LINE
  5
34
  8
SMALL_FEATURE
 10
194.30999755859375
 20
24.849666595458984
 30
0.0
 11
194.26766967773438
 21
24.553333282470703
 31
0.0
  0
LINE
  5
35
  8
SMALL_FEATURE
 10
194.26766967773438
 20
24.553333282470703
 30
0.0
 11
193.4633331298828
 21
24.553333282470703
 31
0.0
  0
LINE
  5
36
  8
SMALL_FEATURE
 10
193.4633331298828
 20
24.553333282470703
 30
0.0
 11
193.29400634765625
 21
24.849666595458984
 31
0.0
  0
LINE
  5
37
  8
SMALL_FEATURE
 10
193.29400634765625
 20
24.849666595458984
 30
0.0
 11
193.2516632080078
 21
24.553333282470703
 31
0.0
  0
LINE
  5
38
  8
SMALL_FEATURE
 10
193.2516632080078
 20
24.553333282470703
 30
0.0
 11
190.24600219726562
 21
24.553333282470703
 31
0.0
  0
LINE
  5
39
  8
SMALL_FEATURE
 10
190.24600219726562
 20
24.553333282470703
 30
0.0
 11
190.2036590576172
 21
24.849666595458984
 31
0.0
  0
LINE
  5
3A
  8
SMALL_FEATURE
 10
190.2036590576172
 20
24.849666595458984
 30
0.0
 11
189.56866455078125
 21
25.018999099731445
 31
0.0
  0
LINE
  5
3B
  8
SMALL_FEATURE
 10
189.56866455078125
 20
25.018999099731445
 30
0.0
 11
189.52633666992188
 21
24.553333282470703
 31
0.0
  0
LINE
  5
3C
  8
SMALL_FEATURE
 10
189.52633666992188
 20
24.553333282470703
 30
0.0
 11
181.61000061035156
 21
24.553333282470703
 31
0.0
  0
LINE
  5
3D
  8
SMALL_FEATURE
 10
181.61000061035156
 20
24.553333282470703
 30
0.0
 11
181.5676727294922
 21
39.45466613769531
 31
0.0
  0
LINE
  5
3E
  8
SMALL_FEATURE
 10
185.29299926757812
 20
24.299333572387695
 30
0.0
 11
198.7550048828125
 21
24.34166717529297
 31
0.0
  0
LINE
  5
3F
  8
SMALL_FEATURE
 10
198.7550048828125
 20
24.34166717529297
 30
0.0
 11
198.79733276367188
 21
17.82233238220215
 31
0.0
  0
LINE
  5
40
  8
SMALL_FEATURE
 10
198.79733276367188
 20
17.82233238220215
 30
0.0
 11
185.3353271484375
 21
17.780000686645508
 31
0.0
  0
LINE
  5
41
  8
SMALL_FEATURE
 10
185.3353271484375
 20
17.780000686645508
 30
0.0
 11
185.29299926757812
 21
24.299333572387695
 31
0.0
  0
LINE
  5
42
  8
SMALL_FEATURE
 10
185.29299926757812
 20
17.525999069213867
 30
0.0
 11
198.7550048828125
 21
17.56833267211914
 31
0.0
  0
LINE
  5
43
  8
SMALL_FEATURE
 10
198.7550048828125
 20
17.56833267211914
 30
0.0
 11
198.79733276367188
 21
13.58899974822998
 31
0.0
  0
LINE
  5
44
  8
SMALL_FEATURE
 10
198.79733276367188
 20
13.58899974822998
 30
0.0
 11
185.3353271484375
 21
13.546667098999023
 31
0.0
  0
LINE
  5
45
  8
SMALL_FEATURE
 10
185.3353271484375
 20
13.546667098999023
 30
0.0
 11
185.29299926757812
 21
17.525999069213867
 31
0.0
  0
LINE
  5
46
  8
SMALL_FEATURE
 10
185.29299926757812
 20
13.2926664352417
 30
0.0
 11
198.7550048828125
 21
13.335000038146973
 31
0.0
  0
LINE
  5
47
  8
SMALL_FEATURE
 10
198.7550048828125
 20
13.335000038146973
 30
0.0
 11
198.79733276367188
 21
9.440333366394043
 31
0.0
  0
LINE
  5
48
  8
SMALL_FEATURE
 10
198.79733276367188
 20
9.440333366394043
 30
0.0
 11
185.3353271484375
 21
9.39799976348877
 31
0.0
  0
LINE
  5
49
  8
SMALL_FEATURE
 10
185.3353271484375
 20
9.39799976348877
 30
0.0
 11
185.29299926757812
 21
13.2926664352417
 31
0.0
  0
LINE
  5
4A
  8
SMALL_FEATURE
 10
53.42466735839844
 20
255.60867309570312
 30
0.0
 11
54.14433288574219
 21
255.7356719970703
 31
0.0
  0
LINE
  5
4B
  8
SMALL_FEATURE
 10
54.14433288574219
 20
255.7356719970703
 30
0.0
 11
54.017333984375
 21
254.97366333007812
 31
0.0
  0
LINE
  5
4C
  8
SMALL_FEATURE
 10
54.017333984375
 20
254.97366333007812
 30
0.0
 11
54.229000091552734
 21
254.97366333007812
 31
0.0
  0
LINE
  5
4D
  8
SMALL_FEATURE
 10
54.229000091552734
 20
254.97366333007812
 30
0.0
 11
54.35599899291992
 21
255.39700317382812
 31
0.0
  0
LINE
  5
4E
  8
SMALL_FEATURE
 10
54.35599899291992
 20
255.39700317382812
 30
0.0
 11
54.73699951171875
 21
255.48167419433594
 31
0.0
  0
LINE
  5
4F
  8
SMALL_FEATURE
 10
54.73699951171875
 20
255.48167419433594
 30
0.0
 11
54.31366729736328
 21
255.7356719970703
 31
0.0
  0
LINE
  5
50
  8
SMALL_FEATURE
 10
54.31366729736328
 20
255.7356719970703
 30
0.0
 11
54.35599899291992
 21
256.24365234375
 31
0.0
  0
LINE
  5
51
  8
SMALL_FEATURE
 10
54.35599899291992
 20
256.24365234375
 30
0.0
 11
54.948665618896484
 21
256.2013244628906
 31
0.0
  0
LINE
  5
52
  8
SMALL_FEATURE
 10
54.948665618896484
 20
256.2013244628906
 30
0.0
 11
54.948665618896484
 21
255.6510009765625
 31
0.0
  0
LINE
  5
53
  8
SMALL_FEATURE
 10
54.948665618896484
 20
255.6510009765625
 30
0.0
 11
56.76900100708008
 21
256.24365234375
 31
0.0
  0
LINE
  5
54
  8
SMALL_FEATURE
 10
56.76900100708008
 20
256.24365234375
 30
0.0
 11
56.557334899902344
 21
255.39700317382812
 31
0.0
  0
LINE
  5
55
  8
SMALL_FEATURE
 10
56.557334899902344
 20
255.39700317382812
 30
0.0
 11
57.06533432006836
 21
256.15899658203125
 31
0.0
  0
LINE
  5
56
  8
SMALL_FEATURE
 10
57.06533432006836
 20
256.15899658203125
 30
0.0
 11
58.63166809082031
 21
256.24365234375
 31
0.0
  0
LINE
  5
57
  8
SMALL_FEATURE
 10
58.63166809082031
 20
256.24365234375
 30
0.0
 11
58.7586669921875
 21
255.48167419433594
 31
0.0
  0
LINE
  5
58
  8
SMALL_FEATURE
 10
58.7586669921875
 20
255.48167419433594
 30
0.0
 11
59.35133361816406
 21
255.3546600341797
 31
0.0
  0
LINE
  5
59
  8
SMALL_FEATURE
 10
59.35133361816406
 20
255.3546600341797
 30
0.0
 11
59.224334716796875
 21
254.59266662597656
 31
0.0
  0
LINE
  5
5A
  8
SMALL_FEATURE
 10
59.224334716796875
 20
254.59266662597656
 30
0.0
 11
58.08133316040039
 21
254.76199340820312
 31
0.0
  0
LINE
  5
5B
  8
SMALL_FEATURE
 10
58.08133316040039
 20
254.76199340820312
 30
0.0
 11
57.82733154296875
 21
255.27000427246094
 31
0.0
  0
LINE
  5
5C
  8
SMALL_FEATURE
 10
57.82733154296875
 20
255.27000427246094
 30
0.0
 11
57.82733154296875
 21
254.59266662597656
 31
0.0
  0
LINE
  5
5D
  8
SMALL_FEATURE
 10
57.82733154296875
 20
254.59266662597656
 30
0.0
 11
56.13399887084961
 21
254.50799560546875
 31
0.0
  0
LINE
  5
5E
  8
SMALL_FEATURE
 10
56.13399887084961
 20
254.50799560546875
 30
0.0
 11
56.26100158691406
 21
255.27000427246094
 31
0.0
  0
LINE
  5
5F
  8
SMALL_FEATURE
 10
56.26100158691406
 20
255.27000427246094
 30
0.0
 11
56.04933166503906
 21
255.27000427246094
 31
0.0
  0
LINE
  5
60
  8
SMALL_FEATURE
 10
56.04933166503906
 20
255.27000427246094
 30
0.0
 11
55.75299835205078
 21
254.42333984375
 31
0.0
  0
LINE
  5
61
  8
SMALL_FEATURE
 10
55.75299835205078
 20
254.42333984375
 30
0.0
 11
55.37200164794922
 21
254.42333984375
 31
0.0
  0
LINE
  5
62
  8
SMALL_FEATURE
 10
55.37200164794922
 20
254.42333984375
 30
0.0
 11
55.03333282470703
 21
255.01600646972656
 31
0.0
  0
LINE
  5
63
  8
SMALL_FEATURE
 10
55.03333282470703
 20
255.01600646972656
 30
0.0
 11
55.03333282470703
 21
254.38099670410156
 31
0.0
  0
LINE
  5
64
  8
SMALL_FEATURE
 10
55.03333282470703
 20
254.38099670410156
 30
0.0
 11
55.499000549316406
 21
254.38099670410156
 31
0.0
  0
LINE
  5
65
  8
SMALL_FEATURE
 10
55.499000549316406
 20
254.38099670410156
 30
0.0
 11
56.04933166503906
 21
253.7036590576172
 31
0.0
  0
LINE
  5
66
  8
SMALL_FEATURE
 10
56.04933166503906
 20
253.7036590576172
 30
0.0
 11
56.68433380126953
 21
253.53433227539062
 31
0.0
  0
LINE
  5
67
  8
SMALL_FEATURE
 10
56.68433380126953
 20
253.53433227539062
 30
0.0
 11
56.26100158691406
 21
253.788330078125
 31
0.0
  0
LINE
  5
68
  8
SMALL_FEATURE
 10
56.26100158691406
 20
253.788330078125
 30
0.0
 11
56.26100158691406
 21
254.2963409423828
 31
0.0
  0
LINE
  5
69
  8
SMALL_FEATURE
 10
56.26100158691406
 20
254.2963409423828
 30
0.0
 11
59.308998107910156
 21
254.46566772460938
 31
0.0
  0
LINE
  5
6A
  8
SMALL_FEATURE
 10
59.308998107910156
 20
254.46566772460938
 30
0.0
 11
59.35133361816406
 21
253.36500549316406
 31
0.0
  0
LINE
  5
6B
  8
SMALL_FEATURE
 10
59.35133361816406
 20
253.36500549316406
 30
0.0
 11
58.16600036621094
 21
252.8993377685547
 31
0.0
  0
LINE
  5
6C
  8
SMALL_FEATURE
 10
58.16600036621094
 20
252.8993377685547
 30
0.0
 11
57.65800094604492
 21
252.0103302001953
 31
0.0
  0
LINE
  5
6D
  8
SMALL_FEATURE
 10
57.65800094604492
 20
252.0103302001953
 30
0.0
 11
57.9543342590332
 21
252.0103302001953
 31
0.0
  0
LINE
  5
6E
  8
SMALL_FEATURE
 10
57.9543342590332
 20
252.0103302001953
 30
0.0
 11
58.37766647338867
 21
252.7723388671875
 31
0.0
  0
LINE
  5
6F
  8
SMALL_FEATURE
 10
58.37766647338867
 20
252.7723388671875
 30
0.0
 11
59.5629997253418
 21
252.60299682617188
 31
0.0
  0
LINE
  5
70
  8
SMALL_FEATURE
 10
59.5629997253418
 20
252.60299682617188
 30
0.0
 11
59.944000244140625
 21
251.9256591796875
 31
0.0
  0
LINE
  5
71
  8
SMALL_FEATURE
 10
59.944000244140625
 20
251.9256591796875
 30
0.0
 11
60.15566635131836
 21
252.05267333984375
 31
0.0
  0
LINE
  5
72
  8
SMALL_FEATURE
 10
60.15566635131836
 20
252.05267333984375
 30
0.0
 11
59.901668548583984
 21
252.5606689453125
 31
0.0
  0
LINE
  5
73
  8
SMALL_FEATURE
 10
59.901668548583984
 20
252.5606689453125
 30
0.0
 11
60.49433517456055
 21
252.60299682617188
 31
0.0
  0
LINE
  5
74
  8
SMALL_FEATURE
 10
60.49433517456055
 20
252.60299682617188
 30
0.0
 11
60.621334075927734
 21
251.33299255371094
 31
0.0
  0
LINE
  5
75
  8
SMALL_FEATURE
 10
60.621334075927734
 20
251.33299255371094
 30
0.0
 11
62.356998443603516
 21
250.74032592773438
 31
0.0
  0
LINE
  5
76
  8
SMALL_FEATURE
 10
62.356998443603516
 20
250.74032592773438
 30
0.0
 11
62.39933395385742
 21
250.3593292236328
 31
0.0
  0
LINE
  5
77
  8
SMALL_FEATURE
 10
62.39933395385742
 20
250.3593292236328
 30
0.0
 11
60.959999084472656
 21
250.31700134277344
 31
0.0
  0
LINE
  5
78
  8
SMALL_FEATURE
 10
60.959999084472656
 20
250.31700134277344
 30
0.0
 11
60.70600128173828
 21
250.6133270263672
 31
0.0
  0
LINE
  5
79
  8
SMALL_FEATURE
 10
60.70600128173828
 20
250.6133270263672
 30
0.0
 11
59.18199920654297
 21
250.31700134277344
 31
0.0
  0
LINE
  5
7A
  8
SMALL_FEATURE
 10
59.18199920654297
 20
250.31700134277344
 30
0.0
 11
59.13966751098633
 21
250.7826690673828
 31
0.0
  0
LINE
  5
7B
  8
SMALL_FEATURE
 10
59.13966751098633
 20
250.7826690673828
 30
0.0
 11
59.986331939697266
 21
251.20599365234375
 31
0.0
  0
LINE
  5
7C
  8
SMALL_FEATURE
 10
59.986331939697266
 20
251.20599365234375
 30
0.0
 11
58.928001403808594
 21
251.29066467285156
 31
0.0
  0
LINE
  5
7D
  8
SMALL_FEATURE
 10
58.928001403808594
 20
251.29066467285156
 30
0.0
 11
58.970333099365234
 21
251.96800231933594
 31
0.0
  0
LINE
  5
7E
  8
SMALL_FEATURE
 10
58.970333099365234
 20
251.96800231933594
 30
0.0
 11
58.50466537475586
 21
251.71400451660156
 31
0.0
  0
LINE
  5
7F
  8
SMALL_FEATURE
 10
58.50466537475586
 20
251.71400451660156
 30
0.0
 11
58.928001403808594
 21
250.95199584960938
 31
0.0
  0
LINE
  5
80
  8
SMALL_FEATURE
 10
58.928001403808594
 20
250.95199584960938
 30
0.0
 11
58.80099868774414
 21
250.3593292236328
 31
0.0
  0
LINE
  5
81
  8
SMALL_FEATURE
 10
58.80099868774414
 20
250.3593292236328
 30
0.0
 11
57.48866653442383
 21
250.31700134277344
 31
0.0
  0
LINE
  5
82
  8
SMALL_FEATURE
 10
57.48866653442383
 20
250.31700134277344
 30
0.0
 11
57.44633483886719
 21
250.7826690673828
 31
0.0
  0
LINE
  5
83
  8
SMALL_FEATURE
 10
57.44633483886719
 20
250.7826690673828
 30
0.0
 11
58.20833206176758
 21
251.20599365234375
 31
0.0
  0
LINE
  5
84
  8
SMALL_FEATURE
 10
58.20833206176758
 20
251.20599365234375
 30
0.0
 11
57.23466491699219
 21
251.0366668701172
 31
0.0
  0
LINE
  5
85
  8
SMALL_FEATURE
 10
57.23466491699219
 20
251.0366668701172
 30
0.0
 11
57.107666015625
 21
251.88333129882812
 31
0.0
  0
LINE
  5
86
  8
SMALL_FEATURE
 10
57.107666015625
 20
251.88333129882812
 30
0.0
 11
56.895999908447266
 21
251.20599365234375
 31
0.0
  0
LINE
  5
87
  8
SMALL_FEATURE
 10
56.895999908447266
 20
251.20599365234375
 30
0.0
 11
56.13399887084961
 21
251.20599365234375
 31
0.0
  0
LINE
  5
88
  8
SMALL_FEATURE
 10
56.13399887084961
 20
251.20599365234375
 30
0.0
 11
55.880001068115234
 21
250.7826690673828
 31
0.0
  0
LINE
  5
89
  8
SMALL_FEATURE
 10
55.880001068115234
 20
250.7826690673828
 30
0.0
 11
55.37200164794922
 21
250.7826690673828
 31
0.0
  0
LINE
  5
8A
  8
SMALL_FEATURE
 10
55.37200164794922
 20
250.7826690673828
 30
0.0
 11
54.99100112915039
 21
251.29066467285156
 31
0.0
  0
LINE
  5
8B
  8
SMALL_FEATURE
 10
54.99100112915039
 20
251.29066467285156
 30
0.0
 11
53.72100067138672
 21
251.20599365234375
 31
0.0
  0
LINE
  5
8C
  8
SMALL_FEATURE
 10
53.72100067138672
 20
251.20599365234375
 30
0.0
 11
53.42466735839844
 21
253.40733337402344
 31
0.0
  0
LINE
  5
8D
  8
SMALL_FEATURE
 10
53.42466735839844
 20
253.40733337402344
 30
0.0
 11
54.31366729736328
 21
253.61900329589844
 31
0.0
  0
LINE
  5
8E
  8
SMALL_FEATURE
 10
54.31366729736328
 20
253.61900329589844
 30
0.0
 11
54.906333923339844
 21
254.25399780273438
 31
0.0
  0
LINE
  5
8F
  8
SMALL_FEATURE
 10
54.906333923339844
 20
254.25399780273438
 30
0.0
 11
54.271331787109375
 21
254.16932678222656
 31
0.0
  0
LINE
  5
90
  8
SMALL_FEATURE
 10
54.271331787109375
 20
254.16932678222656
 30
0.0
 11
53.89033508300781
 21
254.76199340820312
 31
0.0
  0
LINE
  5
91
  8
SMALL_FEATURE
 10
53.89033508300781
 20
254.76199340820312
 30
0.0
 11
53.46699905395508
 21
254.76199340820312
 31
0.0
  0
LINE
  5
92
  8
SMALL_FEATURE
 10
53.46699905395508
 20
254.76199340820312
 30
0.0
 11
53.42466735839844
 21
255.60867309570312
 31
0.0
  0
LINE
  5
93
  8
SMALL_FEATURE
 10
71.45866394042969
 20
255.4393310546875
 30
0.0
 11
70.44266510009766
 21
255.3546600341797
 31
0.0
  0
LINE
  5
94
  8
SMALL_FEATURE
 10
70.44266510009766
 20
255.3546600341797
 30
0.0
 11
71.20466613769531
 21
255.14300537109375
 31
0.0
  0
LINE
  5
95
  8
SMALL_FEATURE
 10
71.20466613769531
 20
255.14300537109375
 30
0.0
 11
70.86599731445312
 21
254.63499450683594
 31
0.0
  0
LINE
  5
96
  8
SMALL_FEATURE
 10
70.86599731445312
 20
254.63499450683594
 30
0.0
 11
71.5009994506836
 21
254.3386688232422
 31
0.0
  0
LINE
  5
97
  8
SMALL_FEATURE
 10
71.5009994506836
 20
254.3386688232422
 30
0.0
 11
71.41633605957031
 21
252.81466674804688
 31
0.0
  0
LINE
  5
98
  8
SMALL_FEATURE
 10
71.41633605957031
 20
252.81466674804688
 30
0.0
 11
69.9346694946289
 21
252.6453399658203
 31
0.0
  0
LINE
  5
99
  8
SMALL_FEATURE
 10
69.9346694946289
 20
252.6453399658203
 30
0.0
 11
69.63833618164062
 21
252.98399353027344
 31
0.0
  0
LINE
  5
9A
  8
SMALL_FEATURE
 10
69.63833618164062
 20
252.98399353027344
 30
0.0
 11
69.29966735839844
 21
252.72999572753906
 31
0.0
  0
LINE
  5
9B
  8
SMALL_FEATURE
 10
69.29966735839844
 20
252.72999572753906
 30
0.0
 11
68.2413330078125
 21
252.8993377685547
 31
0.0
  0
LINE
  5
9C
  8
SMALL_FEATURE
 10
68.2413330078125
 20
252.8993377685547
 30
0.0
 11
67.90266418457031
 21
251.84100341796875
 31
0.0
  0
LINE
  5
9D
  8
SMALL_FEATURE
 10
67.90266418457031
 20
251.84100341796875
 30
0.0
 11
69.21499633789062
 21
252.0103302001953
 31
0.0
  0
LINE
  5
9E
  8
SMALL_FEATURE
 10
69.21499633789062
 20
252.0103302001953
 30
0.0
 11
69.34200286865234
 21
252.60299682617188
 31
0.0
  0
LINE
  5
9F
  8
SMALL_FEATURE
 10
69.34200286865234
 20
252.60299682617188
 30
0.0
 11
69.9346694946289
 21
252.5606689453125
 31
0.0
  0
LINE
  5
A0
  8
SMALL_FEATURE
 10
69.9346694946289
 20
252.5606689453125
 30
0.0
 11
69.6806640625
 21
252.05267333984375
 31
0.0
  0
LINE
  5
A1
  8
SMALL_FEATURE
 10
69.6806640625
 20
252.05267333984375
 30
0.0
 11
69.8499984741211
 21
250.90966796875
 31
0.0
  0
LINE
  5
A2
  8
SMALL_FEATURE
 10
69.8499984741211
 20
250.90966796875
 30
0.0
 11
68.74933624267578
 21
250.697998046875
 31
0.0
  0
LINE
  5
A3
  8
SMALL_FEATURE
 10
68.74933624267578
 20
250.697998046875
 30
0.0
 11
68.62232971191406
 21
250.31700134277344
 31
0.0
  0
LINE
  5
A4
  8
SMALL_FEATURE
 10
68.62232971191406
 20
250.31700134277344
 30
0.0
 11
68.1989974975586
 21
250.3593292236328
 31
0.0
  0
LINE
  5
A5
  8
SMALL_FEATURE
 10
68.1989974975586
 20
250.3593292236328
 30
0.0
 11
68.2836685180664
 21
251.0366668701172
 31
0.0
  0
LINE
  5
A6
  8
SMALL_FEATURE
 10
68.2836685180664
 20
251.0366668701172
 30
0.0
 11
67.94499969482422
 21
251.29066467285156
 31
0.0
  0
LINE
  5
A7
  8
SMALL_FEATURE
 10
67.94499969482422
 20
251.29066467285156
 30
0.0
 11
67.56400299072266
 21
251.0366668701172
 31
0.0
  0
LINE
  5
A8
  8
SMALL_FEATURE
 10
67.56400299072266
 20
251.0366668701172
 30
0.0
 11
67.52166748046875
 21
250.52867126464844
 31
0.0
  0
LINE
  5
A9
  8
SMALL_FEATURE
 10
67.52166748046875
 20
250.52867126464844
 30
0.0
 11
66.46333312988281
 21
250.3593292236328
 31
0.0
  0
LINE
  5
AA
  8
SMALL_FEATURE
 10
66.46333312988281
 20
250.3593292236328
 30
0.0
 11
66.08233642578125
 21
251.121337890625
 31
0.0
  0
LINE
  5
AB
  8
SMALL_FEATURE
 10
66.08233642578125
 20
251.121337890625
 30
0.0
 11
65.3203353881836
 21
251.37533569335938
 31
0.0
  0
LINE
  5
AC
  8
SMALL_FEATURE
 10
65.3203353881836
 20
251.37533569335938
 30
0.0
 11
65.1086654663086
 21
251.16366577148438
 31
0.0
  0
LINE
  5
AD
  8
SMALL_FEATURE
 10
65.1086654663086
 20
251.16366577148438
 30
0.0
 11
66.12466430664062
 21
250.86734008789062
 31
0.0
  0
LINE
  5
AE
  8
SMALL_FEATURE
 10
66.12466430664062
 20
250.86734008789062
 30
0.0
 11
66.08233642578125
 21
250.3593292236328
 31
0.0
  0
LINE
  5
AF
  8
SMALL_FEATURE
 10
66.08233642578125
 20
250.3593292236328
 30
0.0
 11
65.1086654663086
 21
250.31700134277344
 31
0.0
  0
LINE
  5
B0
  8
SMALL_FEATURE
 10
65.1086654663086
 20
250.31700134277344
 30
0.0
 11
64.85466766357422
 21
251.0366668701172
 31
0.0
  0
LINE
  5
B1
  8
SMALL_FEATURE
 10
64.85466766357422
 20
251.0366668701172
 30
0.0
 11
64.72766876220703
 21
250.697998046875
 31
0.0
  0
LINE
  5
B2
  8
SMALL_FEATURE
 10
64.72766876220703
 20
250.697998046875
 30
0.0
 11
64.26200103759766
 21
250.697998046875
 31
0.0
  0
LINE
  5
B3
  8
SMALL_FEATURE
 10
64.26200103759766
 20
250.697998046875
 30
0.0
 11
64.21966552734375
 21
250.31700134277344
 31
0.0
  0
LINE
  5
B4
  8
SMALL_FEATURE
 10
64.21966552734375
 20
250.31700134277344
 30
0.0
 11
63.07666778564453
 21
250.31700134277344
 31
0.0
  0
LINE
  5
B5
  8
SMALL_FEATURE
 10
63.07666778564453
 20
250.31700134277344
 30
0.0
 11
61.51033401489258
 21
251.71400451660156
 31
0.0
  0
LINE
  5
B6
  8
SMALL_FEATURE
 10
61.51033401489258
 20
251.71400451660156
 30
0.0
 11
60.917667388916016
 21
251.67166137695312
 31
0.0
  0
LINE
  5
B7
  8
SMALL_FEATURE
 10
60.917667388916016
 20
251.67166137695312
 30
0.0
 11
61.0446662902832
 21
252.60299682617188
 31
0.0
  0
LINE
  5
B8
  8
SMALL_FEATURE
 10
61.0446662902832
 20
252.60299682617188
 30
0.0
 11
63.288333892822266
 21
252.60299682617188
 31
0.0
  0
LINE
  5
B9
  8
SMALL_FEATURE
 10
63.288333892822266
 20
252.60299682617188
 30
0.0
 11
63.37300109863281
 21
251.71400451660156
 31
0.0
  0
LINE
  5
BA
  8
SMALL_FEATURE
 10
63.37300109863281
 20
251.71400451660156
 30
0.0
 11
61.97600173950195
 21
252.0103302001953
 31
0.0
  0
LINE
  5
BB
  8
SMALL_FEATURE
 10
61.97600173950195
 20
252.0103302001953
 30
0.0
 11
63.965667724609375
 21
250.90966796875
 31
0.0
  0
LINE
  5
BC
  8
SMALL_FEATURE
 10
63.965667724609375
 20
250.90966796875
 30
0.0
 11
63.669334411621094
 21
251.2483367919922
 31
0.0
  0
LINE
  5
BD
  8
SMALL_FEATURE
 10
63.669334411621094
 20
251.2483367919922
 30
0.0
 11
63.669334411621094
 21
252.60299682617188
 31
0.0
  0
LINE
  5
BE
  8
SMALL_FEATURE
 10
63.669334411621094
 20
252.60299682617188
 30
0.0
 11
65.3203353881836
 21
252.4336700439453
 31
0.0
  0
LINE
  5
BF
  8
SMALL_FEATURE
 10
65.3203353881836
 20
252.4336700439453
 30
0.0
 11
65.74366760253906
 21
252.7723388671875
 31
0.0
  0
LINE
  5
C0
  8
SMALL_FEATURE
 10
65.74366760253906
 20
252.7723388671875
 30
0.0
 11
65.70133209228516
 21
253.28033447265625
 31
0.0
  0
LINE
  5
C1
  8
SMALL_FEATURE
 10
65.70133209228516
 20
253.28033447265625
 30
0.0
 11
66.33633422851562
 21
253.28033447265625
 31
0.0
  0
LINE
  5
C2
  8
SMALL_FEATURE
 10
66.33633422851562
 20
253.28033447265625
 30
0.0
 11
66.29399871826172
 21
253.788330078125
 31
0.0
  0
LINE
  5
C3
  8
SMALL_FEATURE
 10
66.29399871826172
 20
253.788330078125
 30
0.0
 11
67.60633087158203
 21
253.95767211914062
 31
0.0
  0
LINE
  5
C4
  8
SMALL_FEATURE
 10
67.60633087158203
 20
253.95767211914062
 30
0.0
 11
67.56400299072266
 21
253.4496612548828
 31
0.0
  0
LINE
  5
C5
  8
SMALL_FEATURE
 10
67.56400299072266
 20
253.4496612548828
 30
0.0
 11
68.11433410644531
 21
253.19566345214844
 31
0.0
  0
LINE
  5
C6
  8
SMALL_FEATURE
 10
68.11433410644531
 20
253.19566345214844
 30
0.0
 11
68.2413330078125
 21
254.04232788085938
 31
0.0
  0
LINE
  5
C7
  8
SMALL_FEATURE
 10
68.2413330078125
 20
254.04232788085938
 30
0.0
 11
68.96099853515625
 21
253.8730010986328
 31
0.0
  0
LINE
  5
C8
  8
SMALL_FEATURE
 10
68.96099853515625
 20
253.8730010986328
 30
0.0
 11
69.08799743652344
 21
254.211669921875
 31
0.0
  0
LINE
  5
C9
  8
SMALL_FEATURE
 10
69.08799743652344
 20
254.211669921875
 30
0.0
 11
70.10399627685547
 21
253.9153289794922
 31
0.0
  0
LINE
  5
CA
  8
SMALL_FEATURE
 10
70.10399627685547
 20
253.9153289794922
 30
0.0
 11
70.10399627685547
 21
253.53433227539062
 31
0.0
  0
LINE
  5
CB
  8
SMALL_FEATURE
 10
70.10399627685547
 20
253.53433227539062
 30
0.0
 11
69.6806640625
 21
253.28033447265625
 31
0.0
  0
LINE
  5
CC
  8
SMALL_FEATURE
 10
69.6806640625
 20
253.28033447265625
 30
0.0
 11
70.65433502197266
 21
253.19566345214844
 31
0.0
  0
LINE
  5
CD
  8
SMALL_FEATURE
 10
70.65433502197266
 20
253.19566345214844
 30
0.0
 11
70.48500061035156
 21
253.83067321777344
 31
0.0
  0
LINE
  5
CE
  8
SMALL_FEATURE
 10
70.48500061035156
 20
253.83067321777344
 30
0.0
 11
70.82366943359375
 21
254.0
 31
0.0
  0
LINE
  5
CF
  8
SMALL_FEATURE
 10
70.82366943359375
 20
254.0
 30
0.0
 11
69.80766296386719
 21
254.76199340820312
 31
0.0
  0
LINE
  5
D0
  8
SMALL_FEATURE
 10
69.80766296386719
 20
254.76199340820312
 30
0.0
 11
69.00333404541016
 21
254.84666442871094
 31
0.0
  0
LINE
  5
D1
  8
SMALL_FEATURE
 10
69.00333404541016
 20
254.84666442871094
 30
0.0
 11
68.70700073242188
 21
254.25399780273438
 31
0.0
  0
LINE
  5
D2
  8
SMALL_FEATURE
 10
68.70700073242188
 20
254.25399780273438
 30
0.0
 11
68.0719985961914
 21
254.25399780273438
 31
0.0
  0
LINE
  5
D3
  8
SMALL_FEATURE
 10
68.0719985961914
 20
254.25399780273438
 30
0.0
 11
67.81800079345703
 21
254.67733764648438
 31
0.0
  0
LINE
  5
D4
  8
SMALL_FEATURE
 10
67.81800079345703
 20
254.67733764648438
 30
0.0
 11
67.69100189208984
 21
254.16932678222656
 31
0.0
  0
LINE
  5
D5
  8
SMALL_FEATURE
 10
67.69100189208984
 20
254.16932678222656
 30
0.0
 11
67.22533416748047
 21
254.16932678222656
 31
0.0
  0
LINE
  5
D6
  8
SMALL_FEATURE
 10
67.22533416748047
 20
254.16932678222656
 30
0.0
 11
66.7596664428711
 21
254.76199340820312
 31
0.0
  0
LINE
  5
D7
  8
SMALL_FEATURE
 10
66.7596664428711
 20
254.76199340820312
 30
0.0
 11
65.70133209228516
 21
254.76199340820312
 31
0.0
  0
LINE
  5
D8
  8
SMALL_FEATURE
 10
65.70133209228516
 20
254.76199340820312
 30
0.0
 11
65.65899658203125
 21
255.18533325195312
 31
0.0
  0
LINE
  5
D9
  8
SMALL_FEATURE
 10
65.65899658203125
 20
255.18533325195312
 30
0.0
 11
66.29399871826172
 21
256.0743408203125
 31
0.0
  0
LINE
  5
DA
  8
SMALL_FEATURE
 10
66.29399871826172
 20
256.0743408203125
 30
0.0
 11
66.802001953125
 21
256.0320129394531
 31
0.0
  0
LINE
  5
DB
  8
SMALL_FEATURE
 10
66.802001953125
 20
256.0320129394531
 30
0.0
 11
66.9713363647461
 21
255.2276611328125
 31
0.0
  0
LINE
  5
DC
  8
SMALL_FEATURE
 10
66.9713363647461
 20
255.2276611328125
 30
0.0
 11
68.0296630859375
 21
255.7356719970703
 31
0.0
  0
LINE
  5
DD
  8
SMALL_FEATURE
 10
68.0296630859375
 20
255.7356719970703
 30
0.0
 11
68.0719985961914
 21
256.24365234375
 31
0.0
  0
LINE
  5
DE
  8
SMALL_FEATURE
 10
68.0719985961914
 20
256.24365234375
 30
0.0
 11
69.46900177001953
 21
255.90499877929688
 31
0.0
  0
LINE
  5
DF
  8
SMALL_FEATURE
 10
69.46900177001953
 20
255.90499877929688
 30
0.0
 11
69.59600067138672
 21
255.39700317382812
 31
0.0
  0
LINE
  5
E0
  8
SMALL_FEATURE
 10
69.59600067138672
 20
255.39700317382812
 30
0.0
 11
69.892333984375
 21
255.9896697998047
 31
0.0
  0
LINE
  5
E1
  8
SMALL_FEATURE
 10
69.892333984375
 20
255.9896697998047
 30
0.0
 11
70.48500061035156
 21
255.82032775878906
 31
0.0
  0
LINE
  5
E2
  8
SMALL_FEATURE
 10
70.48500061035156
 20
255.82032775878906
 30
0.0
 11
71.3316650390625
 21
256.15899658203125
 31
0.0
  0
LINE
  5
E3
  8
SMALL_FEATURE
 10
71.3316650390625
 20
256.15899658203125
 30
0.0
 11
71.45866394042969
 21
255.4393310546875
 31
0.0
  0
LINE
  5
E4
  8
SMALL_FEATURE
 10
59.5629997253418
 20
256.37066650390625
 30
0.0
 11
65.40499877929688
 21
256.4129943847656
 31
0.0
  0
LINE
  5
E5
  8
SMALL_FEATURE
 10
65.40499877929688
 20
256.4129943847656
 30
0.0
 11
65.44733428955078
 21
252.85699462890625
 31
0.0
  0
LINE
  5
E6
  8
SMALL_FEATURE
 10
65.44733428955078
 20
252.85699462890625
 30
0.0
 11
59.6053352355957
 21
252.98399353027344
 31
0.0
  0
LINE
  5
E7
  8
SMALL_FEATURE
 10
59.6053352355957
 20
252.98399353027344
 30
0.0
 11
59.5629997253418
 21
256.37066650390625
 31
0.0
  0
LINE
  5
E8
  8
SMALL_FEATURE
 10
175.9796600341797
 20
142.663330078125
 30
0.0
 11
175.34466552734375
 21
142.28233337402344
 31
0.0
  0
LINE
  5
E9
  8
SMALL_FEATURE
 10
175.34466552734375
 20
142.28233337402344
 30
0.0
 11
174.4980010986328
 21
139.74234008789062
 31
0.0
  0
LINE
  5
EA
  8
SMALL_FEATURE
 10
174.4980010986328
 20
139.74234008789062
 30
0.0
 11
174.4980010986328
 21
135.3820037841797
 31
0.0
  0
LINE
  5
EB
  8
SMALL_FEATURE
 10
174.4980010986328
 20
135.3820037841797
 30
0.0
 11
177.6306610107422
 21
135.33966064453125
 31
0.0
  0
LINE
  5
EC
  8
SMALL_FEATURE
 10
177.6306610107422
 20
135.33966064453125
 30
0.0
 11
177.67300415039062
 21
139.74234008789062
 31
0.0
  0
LINE
  5
ED
  8
SMALL_FEATURE
 10
177.67300415039062
 20
139.74234008789062
 30
0.0
 11
176.8263397216797
 21
142.28233337402344
 31
0.0
  0
LINE
  5
EE
  8
SMALL_FEATURE
 10
176.8263397216797
 20
142.28233337402344
 30
0.0
 11
175.9796600341797
 21
142.663330078125
 31
0.0
  0
LINE
  5
EF
  8
SMALL_FEATURE
 10
64.30433654785156
 20
235.41566467285156
 30
0.0
 11
64.34666442871094
 21
233.97633361816406
 31
0.0
  0
LINE
  5
F0
  8
SMALL_FEATURE
 10
64.34666442871094
 20
233.97633361816406
 30
0.0
 11
63.669334411621094
 21
233.8070068359375
 31
0.0
  0
LINE
  5
F1
  8
SMALL_FEATURE
 10
63.669334411621094
 20
233.8070068359375
 30
0.0
 11
64.34666442871094
 21
233.67999267578125
 31
0.0
  0
LINE
  5
F2
  8
SMALL_FEATURE
 10
64.34666442871094
 20
233.67999267578125
 30
0.0
 11
64.34666442871094
 21
231.52099609375
 31
0.0
  0
LINE
  5
F3
  8
SMALL_FEATURE
 10
64.34666442871094
 20
231.52099609375
 30
0.0
 11
64.09266662597656
 21
231.3939971923828
 31
0.0
  0
LINE
  5
F4
  8
SMALL_FEATURE
 10
64.09266662597656
 20
231.3939971923828
 30
0.0
 11
64.34666442871094
 21
231.22467041015625
 31
0.0
  0
LINE
  5
F5
  8
SMALL_FEATURE
 10
64.34666442871094
 20
231.22467041015625
 30
0.0
 11
64.34666442871094
 21
230.4203338623047
 31
0.0
  0
LINE
  5
F6
  8
SMALL_FEATURE
 10
64.34666442871094
 20
230.4203338623047
 30
0.0
 11
63.92333221435547
 21
230.3780059814453
 31
0.0
  0
LINE
  5
F7
  8
SMALL_FEATURE
 10
63.92333221435547
 20
230.3780059814453
 30
0.0
 11
63.669334411621094
 21
230.71665954589844
 31
0.0
  0
LINE
  5
F8
  8
SMALL_FEATURE
 10
63.669334411621094
 20
230.71665954589844
 30
0.0
 11
63.034332275390625
 21
230.03933715820312
 31
0.0
  0
LINE
  5
F9
  8
SMALL_FEATURE
 10
63.034332275390625
 20
230.03933715820312
 30
0.0
 11
61.80666732788086
 21
230.03933715820312
 31
0.0
  0
LINE
  5
FA
  8
SMALL_FEATURE
 10
61.80666732788086
 20
230.03933715820312
 30
0.0
 11
62.018333435058594
 21
230.71665954589844
 31
0.0
  0
LINE
  5
FB
  8
SMALL_FEATURE
 10
62.018333435058594
 20
230.71665954589844
 30
0.0
 11
60.917667388916016
 21
230.67433166503906
 31
0.0
  0
LINE
  5
FC
  8
SMALL_FEATURE
 10
60.917667388916016
 20
230.67433166503906
 30
0.0
 11
61.08700180053711
 21
231.47866821289062
 31
0.0
  0
LINE
  5
FD
  8
SMALL_FEATURE
 10
61.08700180053711
 20
231.47866821289062
 30
0.0
 11
61.93366622924805
 21
231.6056671142578
 31
0.0
  0
LINE
  5
FE
  8
SMALL_FEATURE
 10
61.93366622924805
 20
231.6056671142578
 30
0.0
 11
62.018333435058594
 21
231.9443359375
 31
0.0
  0
LINE
  5
FF
  8
SMALL_FEATURE
 10
62.018333435058594
 20
231.9443359375
 30
0.0
 11
61.17166519165039
 21
232.11366271972656
 31
0.0
  0
LINE
  5
100
  8
SMALL_FEATURE
 10
61.17166519165039
 20
232.11366271972656
 30
0.0
 11
60.917667388916016
 21
233.2566680908203
 31
0.0
  0
LINE
  5
101
  8
SMALL_FEATURE
 10
60.917667388916016
 20
233.2566680908203
 30
0.0
 11
61.17166519165039
 21
233.2989959716797
 31
0.0
  0
LINE
  5
102
  8
SMALL_FEATURE
 10
61.17166519165039
 20
233.2989959716797
 30
0.0
 11
60.917667388916016
 21
234.01866149902344
 31
0.0
  0
LINE
  5
103
  8
SMALL_FEATURE
 10
60.917667388916016
 20
234.01866149902344
 30
0.0
 11
61.08700180053711
 21
235.1193389892578
 31
0.0
  0
LINE
  5
104
  8
SMALL_FEATURE
 10
61.08700180053711
 20
235.1193389892578
 30
0.0
 11
63.45766830444336
 21
235.41566467285156
 31
0.0
  0
LINE
  5
105
  8
SMALL_FEATURE
 10
63.45766830444336
 20
235.41566467285156
 30
0.0
 11
63.5
 21
234.99234008789062
 31
0.0
  0
LINE
  5
106
  8
SMALL_FEATURE
 10
63.5
 20
234.99234008789062
 30
0.0
 11
62.992000579833984
 21
234.822998046875
 31
0.0
  0
LINE
  5
107
  8
SMALL_FEATURE
 10
62.992000579833984
 20
234.822998046875
 30
0.0
 11
63.62699890136719
 21
234.4843292236328
 31
0.0
  0
LINE
  5
108
  8
SMALL_FEATURE
 10
63.62699890136719
 20
234.4843292236328
 30
0.0
 11
63.88100051879883
 21
235.3733367919922
 31
0.0
  0
LINE
  5
109
  8
SMALL_FEATURE
 10
63.88100051879883
 20
235.3733367919922
 30
0.0
 11
64.30433654785156
 21
235.41566467285156
 31
0.0
  0
LINE
  5
10A
  8
SMALL_FEATURE
 10
64.13500213623047
 20
240.91900634765625
 30
0.0
 11
64.34666442871094
 21
239.81832885742188
 31
0.0
  0
LINE
  5
10B
  8
SMALL_FEATURE
 10
64.34666442871094
 20
239.81832885742188
 30
0.0
 11
63.669334411621094
 21
239.14100646972656
 31
0.0
  0
LINE
  5
10C
  8
SMALL_FEATURE
 10
63.669334411621094
 20
239.14100646972656
 30
0.0
 11
64.34666442871094
 21
239.09866333007812
 31
0.0
  0
LINE
  5
10D
  8
SMALL_FEATURE
 10
64.34666442871094
 20
239.09866333007812
 30
0.0
 11
64.34666442871094
 21
238.4636688232422
 31
0.0
  0
LINE
  5
10E
  8
SMALL_FEATURE
 10
64.34666442871094
 20
238.4636688232422
 30
0.0
 11
64.00800323486328
 21
238.336669921875
 31
0.0
  0
LINE
  5
10F
  8
SMALL_FEATURE
 10
64.00800323486328
 20
238.336669921875
 30
0.0
 11
64.30433654785156
 21
237.913330078125
 31
0.0
  0
LINE
  5
110
  8
SMALL_FEATURE
 10
64.30433654785156
 20
237.913330078125
 30
0.0
 11
64.34666442871094
 21
235.83900451660156
 31
0.0
  0
LINE
  5
111
  8
SMALL_FEATURE
 10
64.34666442871094
 20
235.83900451660156
 30
0.0
 11
62.90733337402344
 21
235.96600341796875
 31
0.0
  0
LINE
  5
112
  8
SMALL_FEATURE
 10
62.90733337402344
 20
235.96600341796875
 30
0.0
 11
62.90733337402344
 21
235.41566467285156
 31
0.0
  0
LINE
  5
113
  8
SMALL_FEATURE
 10
62.90733337402344
 20
235.41566467285156
 30
0.0
 11
62.44166564941406
 21
235.3733367919922
 31
0.0
  0
LINE
  5
114
  8
SMALL_FEATURE
 10
62.44166564941406
 20
235.3733367919922
 30
0.0
 11
61.72200012207031
 21
236.0506591796875
 31
0.0
  0
LINE
  5
115
  8
SMALL_FEATURE
 10
61.72200012207031
 20
236.0506591796875
 30
0.0
 11
61.595001220703125
 21
235.3733367919922
 31
0.0
  0
LINE
  5
116
  8
SMALL_FEATURE
 10
61.595001220703125
 20
235.3733367919922
 30
0.0
 11
60.959999084472656
 21
235.3733367919922
 31
0.0
  0
LINE
  5
117
  8
SMALL_FEATURE
 10
60.959999084472656
 20
235.3733367919922
 30
0.0
 11
60.917667388916016
 21
236.8973388671875
 31
0.0
  0
LINE
  5
118
  8
SMALL_FEATURE
 10
60.917667388916016
 20
236.8973388671875
 30
0.0
 11
61.8489990234375
 21
237.32066345214844
 31
0.0
  0
LINE
  5
119
  8
SMALL_FEATURE
 10
61.8489990234375
 20
237.32066345214844
 30
0.0
 11
60.917667388916016
 21
237.87100219726562
 31
0.0
  0
LINE
  5
11A
  8
SMALL_FEATURE
 10
60.917667388916016
 20
237.87100219726562
 30
0.0
 11
60.917667388916016
 21
238.6753387451172
 31
0.0
  0
LINE
  5
11B
  8
SMALL_FEATURE
 10
60.917667388916016
 20
238.6753387451172
 30
0.0
 11
61.17166519165039
 21
238.80233764648438
 31
0.0
  0
LINE
  5
11C
  8
SMALL_FEATURE
 10
61.17166519165039
 20
238.80233764648438
 30
0.0
 11
60.917667388916016
 21
239.6913299560547
 31
0.0
  0
LINE
  5
11D
  8
SMALL_FEATURE
 10
60.917667388916016
 20
239.6913299560547
 30
0.0
 11
61.67966842651367
 21
239.5643310546875
 31
0.0
  0
LINE
  5
11E
  8
SMALL_FEATURE
 10
61.67966842651367
 20
239.5643310546875
 30
0.0
 11
61.51033401489258
 21
240.53799438476562
 31
0.0
  0
LINE
  5
11F
  8
SMALL_FEATURE
 10
61.51033401489258
 20
240.53799438476562
 30
0.0
 11
62.611000061035156
 21
240.49566650390625
 31
0.0
  0
LINE
  5
120
  8
SMALL_FEATURE
 10
62.611000061035156
 20
240.49566650390625
 30
0.0
 11
62.737998962402344
 21
240.74966430664062
 31
0.0
  0
LINE
  5
121
  8
SMALL_FEATURE
 10
62.737998962402344
 20
240.74966430664062
 30
0.0
 11
63.41533279418945
 21
240.70733642578125
 31
0.0
  0
LINE
  5
122
  8
SMALL_FEATURE
 10
63.41533279418945
 20
240.70733642578125
 30
0.0
 11
63.24599838256836
 21
239.9029998779297
 31
0.0
  0
LINE
  5
123
  8
SMALL_FEATURE
 10
63.24599838256836
 20
239.9029998779297
 30
0.0
 11
63.79633331298828
 21
239.9876708984375
 31
0.0
  0
LINE
  5
124
  8
SMALL_FEATURE
 10
63.79633331298828
 20
239.9876708984375
 30
0.0
 11
63.54233169555664
 21
240.83433532714844
 31
0.0
  0
LINE
  5
125
  8
SMALL_FEATURE
 10
63.54233169555664
 20
240.83433532714844
 30
0.0
 11
64.13500213623047
 21
240.91900634765625
 31
0.0
  0
LINE
  5
126
  8
SMALL_FEATURE
 10
128.94732666015625
 20
249.3433380126953
 30
0.0
 11
128.8626708984375
 21
237.49000549316406
 31
0.0
  0
LINE
  5
127
  8
SMALL_FEATURE
 10
128.8626708984375
 20
237.49000549316406
 30
0.0
 11
128.48167419433594
 21
237.44766235351562
 31
0.0
  0
LINE
  5
128
  8
SMALL_FEATURE
 10
128.48167419433594
 20
237.44766235351562
 30
0.0
 11
128.90499877929688
 21
234.56900024414062
 31
0.0
  0
LINE
  5
129
  8
SMALL_FEATURE
 10
128.90499877929688
 20
234.56900024414062
 30
0.0
 11
125.13733673095703
 21
234.52667236328125
 31
0.0
  0
LINE
  5
12A
  8
SMALL_FEATURE
 10
125.13733673095703
 20
234.52667236328125
 30
0.0
 11
125.05266571044922
 21
233.8070068359375
 31
0.0
  0
LINE
  5
12B
  8
SMALL_FEATURE
 10
125.05266571044922
 20
233.8070068359375
 30
0.0
 11
128.90499877929688
 21
233.67999267578125
 31
0.0
  0
LINE
  5
12C
  8
SMALL_FEATURE
 10
128.90499877929688
 20
233.67999267578125
 30
0.0
 11
128.48167419433594
 21
230.80133056640625
 31
0.0
  0
LINE
  5
12D
  8
SMALL_FEATURE
 10
128.48167419433594
 20
230.80133056640625
 30
0.0
 11
128.8626708984375
 21
230.75900268554688
 31
0.0
  0
LINE
  5
12E
  8
SMALL_FEATURE
 10
128.8626708984375
 20
230.75900268554688
 30
0.0
 11
128.9896697998047
 21
227.71099853515625
 31
0.0
  0
LINE
  5
12F
  8
SMALL_FEATURE
 10
128.9896697998047
 20
227.71099853515625
 30
0.0
 11
129.0743408203125
 21
230.75900268554688
 31
0.0
  0
LINE
  5
130
  8
SMALL_FEATURE
 10
129.0743408203125
 20
230.75900268554688
 30
0.0
 11
129.45533752441406
 21
230.80133056640625
 31
0.0
  0
LINE
  5
131
  8
SMALL_FEATURE
 10
129.45533752441406
 20
230.80133056640625
 30
0.0
 11
129.0743408203125
 21
233.7223358154297
 31
0.0
  0
LINE
  5
132
  8
SMALL_FEATURE
 10
129.0743408203125
 20
233.7223358154297
 30
0.0
 11
136.01699829101562
 21
233.7223358154297
 31
0.0
  0
LINE
  5
133
  8
SMALL_FEATURE
 10
136.01699829101562
 20
233.7223358154297
 30
0.0
 11
136.10166931152344
 21
234.44200134277344
 31
0.0
  0
LINE
  5
134
  8
SMALL_FEATURE
 10
136.10166931152344
 20
234.44200134277344
 30
0.0
 11
129.03199768066406
 21
234.56900024414062
 31
0.0
  0
LINE
  5
135
  8
SMALL_FEATURE
 10
129.03199768066406
 20
234.56900024414062
 30
0.0
 11
129.45533752441406
 21
237.44766235351562
 31
0.0
  0
LINE
  5
136
  8
SMALL_FEATURE
 10
129.45533752441406
 20
237.44766235351562
 30
0.0
 11
129.0743408203125
 21
237.49000549316406
 31
0.0
  0
LINE
  5
137
  8
SMALL_FEATURE
 10
129.0743408203125
 20
237.49000549316406
 30
0.0
 11
128.94732666015625
 21
249.3433380126953
 31
0.0
  0
LINE
  5
138
  8
SMALL_FEATURE
 10
64.30433654785156
 20
169.03700256347656
 30
0.0
 11
64.34666442871094
 21
168.1056671142578
 31
0.0
  0
LINE
  5
139
  8
SMALL_FEATURE
 10
64.34666442871094
 20
168.1056671142578
 30
0.0
 11
63.79633331298828
 21
167.47067260742188
 31
0.0
  0
LINE
  5
13A
  8
SMALL_FEATURE
 10
63.79633331298828
 20
167.47067260742188
 30
0.0
 11
62.90733337402344
 21
167.08966064453125
 31
0.0
  0
LINE
  5
13B
  8
SMALL_FEATURE
 10
62.90733337402344
 20
167.08966064453125
 30
0.0
 11
64.34666442871094
 21
167.21665954589844
 31
0.0
  0
LINE
  5
13C
  8
SMALL_FEATURE
 10
64.34666442871094
 20
167.21665954589844
 30
0.0
 11
63.92333221435547
 21
166.4546661376953
 31
0.0
  0
LINE
  5
13D
  8
SMALL_FEATURE
 10
63.92333221435547
 20
166.4546661376953
 30
0.0
 11
64.34666442871094
 21
166.28533935546875
 31
0.0
  0
LINE
  5
13E
  8
SMALL_FEATURE
 10
64.34666442871094
 20
166.28533935546875
 30
0.0
 11
64.34666442871094
 21
165.73500061035156
 31
0.0
  0
LINE
  5
13F
  8
SMALL_FEATURE
 10
64.34666442871094
 20
165.73500061035156
 30
0.0
 11
63.75400161743164
 21
165.60800170898438
 31
0.0
  0
LINE
  5
140
  8
SMALL_FEATURE
 10
63.75400161743164
 20
165.60800170898438
 30
0.0
 11
63.83866500854492
 21
164.97300720214844
 31
0.0
  0
LINE
  5
141
  8
SMALL_FEATURE
 10
63.83866500854492
 20
164.97300720214844
 30
0.0
 11
64.34666442871094
 21
164.9306640625
 31
0.0
  0
LINE
  5
142
  8
SMALL_FEATURE
 10
64.34666442871094
 20
164.9306640625
 30
0.0
 11
64.34666442871094
 21
164.29566955566406
 31
0.0
  0
LINE
  5
143
  8
SMALL_FEATURE
 10
64.34666442871094
 20
164.29566955566406
 30
0.0
 11
64.00800323486328
 21
163.8300018310547
 31
0.0
  0
LINE
  5
144
  8
SMALL_FEATURE
 10
64.00800323486328
 20
163.8300018310547
 30
0.0
 11
63.58466720581055
 21
163.8300018310547
 31
0.0
  0
LINE
  5
145
  8
SMALL_FEATURE
 10
63.58466720581055
 20
163.8300018310547
 30
0.0
 11
63.79633331298828
 21
164.8459930419922
 31
0.0
  0
LINE
  5
146
  8
SMALL_FEATURE
 10
63.79633331298828
 20
164.8459930419922
 30
0.0
 11
62.992000579833984
 21
164.50733947753906
 31
0.0
  0
LINE
  5
147
  8
SMALL_FEATURE
 10
62.992000579833984
 20
164.50733947753906
 30
0.0
 11
63.5
 21
164.16867065429688
 31
0.0
  0
LINE
  5
148
  8
SMALL_FEATURE
 10
63.5
 20
164.16867065429688
 30
0.0
 11
63.41533279418945
 21
163.74533081054688
 31
0.0
  0
LINE
  5
149
  8
SMALL_FEATURE
 10
63.41533279418945
 20
163.74533081054688
 30
0.0
 11
62.22999954223633
 21
163.8300018310547
 31
0.0
  0
LINE
  5
14A
  8
SMALL_FEATURE
 10
62.22999954223633
 20
163.8300018310547
 30
0.0
 11
61.72200012207031
 21
163.5760040283203
 31
0.0
  0
LINE
  5
14B
  8
SMALL_FEATURE
 10
61.72200012207031
 20
163.5760040283203
 30
0.0
 11
61.51033401489258
 21
164.42266845703125
 31
0.0
  0
LINE
  5
14C
  8
SMALL_FEATURE
 10
61.51033401489258
 20
164.42266845703125
 30
0.0
 11
60.917667388916016
 21
164.63433837890625
 31
0.0
  0
LINE
  5
14D
  8
SMALL_FEATURE
 10
60.917667388916016
 20
164.63433837890625
 30
0.0
 11
61.08700180053711
 21
165.60800170898438
 31
0.0
  0
LINE
  5
14E
  8
SMALL_FEATURE
 10
61.08700180053711
 20
165.60800170898438
 30
0.0
 11
61.51033401489258
 21
165.65032958984375
 31
0.0
  0
LINE
  5
14F
  8
SMALL_FEATURE
 10
61.51033401489258
 20
165.65032958984375
 30
0.0
 11
60.917667388916016
 21
165.90432739257812
 31
0.0
  0
LINE
  5
150
  8
SMALL_FEATURE
 10
60.917667388916016
 20
165.90432739257812
 30
0.0
 11
60.917667388916016
 21
166.62399291992188
 31
0.0
  0
LINE
  5
151
  8
SMALL_FEATURE
 10
60.917667388916016
 20
166.62399291992188
 30
0.0
 11
61.51033401489258
 21
166.5816650390625
 31
0.0
  0
LINE
  5
152
  8
SMALL_FEATURE
 10
61.51033401489258
 20
166.5816650390625
 30
0.0
 11
61.637332916259766
 21
167.0050048828125
 31
0.0
  0
LINE
  5
153
  8
SMALL_FEATURE
 10
61.637332916259766
 20
167.0050048828125
 30
0.0
 11
62.44166564941406
 21
167.1320037841797
 31
0.0
  0
LINE
  5
154
  8
SMALL_FEATURE
 10
62.44166564941406
 20
167.1320037841797
 30
0.0
 11
60.959999084472656
 21
167.21665954589844
 31
0.0
  0
LINE
  5
155
  8
SMALL_FEATURE
 10
60.959999084472656
 20
167.21665954589844
 30
0.0
 11
60.917667388916016
 21
168.232666015625
 31
0.0
  0
LINE
  5
156
  8
SMALL_FEATURE
 10
60.917667388916016
 20
168.232666015625
 30
0.0
 11
61.340999603271484
 21
168.27499389648438
 31
0.0
  0
LINE
  5
157
  8
SMALL_FEATURE
 10
61.340999603271484
 20
168.27499389648438
 30
0.0
 11
61.46799850463867
 21
168.7830047607422
 31
0.0
  0
LINE
  5
158
  8
SMALL_FEATURE
 10
61.46799850463867
 20
168.7830047607422
 30
0.0
 11
62.060665130615234
 21
168.5290069580078
 31
0.0
  0
LINE
  5
159
  8
SMALL_FEATURE
 10
62.060665130615234
 20
168.5290069580078
 30
0.0
 11
62.6533317565918
 21
168.7830047607422
 31
0.0
  0
LINE
  5
15A
  8
SMALL_FEATURE
 10
62.6533317565918
 20
168.7830047607422
 30
0.0
 11
62.90733337402344
 21
168.1056671142578
 31
0.0
  0
LINE
  5
15B
  8
SMALL_FEATURE
 10
62.90733337402344
 20
168.1056671142578
 30
0.0
 11
61.891334533691406
 21
167.93634033203125
 31
0.0
  0
LINE
  5
15C
  8
SMALL_FEATURE
 10
61.891334533691406
 20
167.93634033203125
 30
0.0
 11
62.14533233642578
 21
167.6823272705078
 31
0.0
  0
LINE
  5
15D
  8
SMALL_FEATURE
 10
62.14533233642578
 20
167.6823272705078
 30
0.0
 11
62.94966506958008
 21
167.76699829101562
 31
0.0
  0
LINE
  5
15E
  8
SMALL_FEATURE
 10
62.94966506958008
 20
167.76699829101562
 30
0.0
 11
63.20366668701172
 21
168.3596649169922
 31
0.0
  0
LINE
  5
15F
  8
SMALL_FEATURE
 10
63.20366668701172
 20
168.3596649169922
 30
0.0
 11
62.992000579833984
 21
168.95233154296875
 31
0.0
  0
LINE
  5
160
  8
SMALL_FEATURE
 10
62.992000579833984
 20
168.95233154296875
 30
0.0
 11
64.30433654785156
 21
169.03700256347656
 31
0.0
  0
LINE
  5
161
  8
SMALL_FEATURE
 10
60.959999084472656
 20
183.09165954589844
 30
0.0
 11
62.356998443603516
 21
183.17633056640625
 31
0.0
  0
LINE
  5
162
  8
SMALL_FEATURE
 10
62.356998443603516
 20
183.17633056640625
 30
0.0
 11
62.568668365478516
 21
182.5836639404297
 31
0.0
  0
LINE
  5
163
  8
SMALL_FEATURE
 10
62.568668365478516
 20
182.5836639404297
 30
0.0
 11
63.62699890136719
 21
182.41433715820312
 31
0.0
  0
LINE
  5
164
  8
SMALL_FEATURE
 10
63.62699890136719
 20
182.41433715820312
 30
0.0
 11
63.288333892822266
 21
182.7953338623047
 31
0.0
  0
LINE
  5
165
  8
SMALL_FEATURE
 10
63.288333892822266
 20
182.7953338623047
 30
0.0
 11
62.6956672668457
 21
182.7953338623047
 31
0.0
  0
LINE
  5
166
  8
SMALL_FEATURE
 10
62.6956672668457
 20
182.7953338623047
 30
0.0
 11
62.78033447265625
 21
183.30332946777344
 31
0.0
  0
LINE
  5
167
  8
SMALL_FEATURE
 10
62.78033447265625
 20
183.30332946777344
 30
0.0
 11
64.26200103759766
 21
183.30332946777344
 31
0.0
  0
LINE
  5
168
  8
SMALL_FEATURE
 10
64.26200103759766
 20
183.30332946777344
 30
0.0
 11
64.34666442871094
 21
182.2449951171875
 31
0.0
  0
LINE
  5
169
  8
SMALL_FEATURE
 10
64.34666442871094
 20
182.2449951171875
 30
0.0
 11
63.75400161743164
 21
182.20266723632812
 31
0.0
  0
LINE
  5
16A
  8
SMALL_FEATURE
 10
63.75400161743164
 20
182.20266723632812
 30
0.0
 11
63.58466720581055
 21
181.31365966796875
 31
0.0
  0
LINE
  5
16B
  8
SMALL_FEATURE
 10
63.58466720581055
 20
181.31365966796875
 30
0.0
 11
63.07666778564453
 21
180.97500610351562
 31
0.0
  0
LINE
  5
16C
  8
SMALL_FEATURE
 10
63.07666778564453
 20
180.97500610351562
 30
0.0
 11
63.62699890136719
 21
181.05966186523438
 31
0.0
  0
LINE
  5
16D
  8
SMALL_FEATURE
 10
63.62699890136719
 20
181.05966186523438
 30
0.0
 11
63.83866500854492
 21
181.61000061035156
 31
0.0
  0
LINE
  5
16E
  8
SMALL_FEATURE
 10
63.83866500854492
 20
181.61000061035156
 30
0.0
 11
64.34666442871094
 21
181.52532958984375
 31
0.0
  0
LINE
  5
16F
  8
SMALL_FEATURE
 10
64.34666442871094
 20
181.52532958984375
 30
0.0
 11
64.34666442871094
 21
180.12832641601562
 31
0.0
  0
LINE
  5
170
  8
SMALL_FEATURE
 10
64.34666442871094
 20
180.12832641601562
 30
0.0
 11
63.669334411621094
 21
179.2393341064453
 31
0.0
  0
LINE
  5
171
  8
SMALL_FEATURE
 10
63.669334411621094
 20
179.2393341064453
 30
0.0
 11
64.34666442871094
 21
179.1546630859375
 31
0.0
  0
LINE
  5
172
  8
SMALL_FEATURE
 10
64.34666442871094
 20
179.1546630859375
 30
0.0
 11
64.30433654785156
 21
178.22332763671875
 31
0.0
  0
LINE
  5
173
  8
SMALL_FEATURE
 10
64.30433654785156
 20
178.22332763671875
 30
0.0
 11
63.83866500854492
 21
178.22332763671875
 31
0.0
  0
LINE
  5
174
  8
SMALL_FEATURE
 10
63.83866500854492
 20
178.22332763671875
 30
0.0
 11
63.711666107177734
 21
178.56199645996094
 31
0.0
  0
LINE
  5
175
  8
SMALL_FEATURE
 10
63.711666107177734
 20
178.56199645996094
 30
0.0
 11
62.018333435058594
 21
178.35032653808594
 31
0.0
  0
LINE
  5
176
  8
SMALL_FEATURE
 10
62.018333435058594
 20
178.35032653808594
 30
0.0
 11
61.72200012207031
 21
179.7050018310547
 31
0.0
  0
LINE
  5
177
  8
SMALL_FEATURE
 10
61.72200012207031
 20
179.7050018310547
 30
0.0
 11
63.711666107177734
 21
179.7050018310547
 31
0.0
  0
LINE
  5
178
  8
SMALL_FEATURE
 10
63.711666107177734
 20
179.7050018310547
 30
0.0
 11
63.45766830444336
 21
180.17066955566406
 31
0.0
  0
LINE
  5
179
  8
SMALL_FEATURE
 10
63.45766830444336
 20
180.17066955566406
 30
0.0
 11
62.78033447265625
 21
180.29766845703125
 31
0.0
  0
LINE
  5
17A
  8
SMALL_FEATURE
 10
62.78033447265625
 20
180.29766845703125
 30
0.0
 11
62.611000061035156
 21
180.9326629638672
 31
0.0
  0
LINE
  5
17B
  8
SMALL_FEATURE
 10
62.611000061035156
 20
180.9326629638672
 30
0.0
 11
62.272335052490234
 21
179.83200073242188
 31
0.0
  0
LINE
  5
17C
  8
SMALL_FEATURE
 10
62.272335052490234
 20
179.83200073242188
 30
0.0
 11
60.917667388916016
 21
179.7050018310547
 31
0.0
  0
LINE
  5
17D
  8
SMALL_FEATURE
 10
60.917667388916016
 20
179.7050018310547
 30
0.0
 11
60.917667388916016
 21
180.84800720214844
 31
0.0
  0
LINE
  5
17E
  8
SMALL_FEATURE
 10
60.917667388916016
 20
180.84800720214844
 30
0.0
 11
61.17166519165039
 21
180.97500610351562
 31
0.0
  0
LINE
  5
17F
  8
SMALL_FEATURE
 10
61.17166519165039
 20
180.97500610351562
 30
0.0
 11
60.917667388916016
 21
181.94866943359375
 31
0.0
  0
LINE
  5
180
  8
SMALL_FEATURE
 10
60.917667388916016
 20
181.94866943359375
 30
0.0
 11
61.25633239746094
 21
182.07566833496094
 31
0.0
  0
LINE
  5
181
  8
SMALL_FEATURE
 10
61.25633239746094
 20
182.07566833496094
 30
0.0
 11
60.917667388916016
 21
182.2449951171875
 31
0.0
  0
LINE
  5
182
  8
SMALL_FEATURE
 10
60.917667388916016
 20
182.2449951171875
 30
0.0
 11
60.959999084472656
 21
183.09165954589844
 31
0.0
  0
LINE
  5
183
  8
SMALL_FEATURE
 10
61.0446662902832
 20
209.50765991210938
 30
0.0
 11
61.891334533691406
 21
209.29600524902344
 31
0.0
  0
LINE
  5
184
  8
SMALL_FEATURE
 10
61.891334533691406
 20
209.29600524902344
 30
0.0
 11
61.891334533691406
 21
208.66099548339844
 31
0.0
  0
LINE
  5
185
  8
SMALL_FEATURE
 10
61.891334533691406
 20
208.66099548339844
 30
0.0
 11
61.46799850463867
 21
208.32232666015625
 31
0.0
  0
LINE
  5
186
  8
SMALL_FEATURE
 10
61.46799850463867
 20
208.32232666015625
 30
0.0
 11
61.93366622924805
 21
208.2376708984375
 31
0.0
  0
LINE
  5
187
  8
SMALL_FEATURE
 10
61.93366622924805
 20
208.2376708984375
 30
0.0
 11
62.314666748046875
 21
207.64500427246094
 31
0.0
  0
LINE
  5
188
  8
SMALL_FEATURE
 10
62.314666748046875
 20
207.64500427246094
 30
0.0
 11
62.8650016784668
 21
207.8990020751953
 31
0.0
  0
LINE
  5
189
  8
SMALL_FEATURE
 10
62.8650016784668
 20
207.8990020751953
 30
0.0
 11
62.90733337402344
 21
208.66099548339844
 31
0.0
  0
LINE
  5
18A
  8
SMALL_FEATURE
 10
62.90733337402344
 20
208.66099548339844
 30
0.0
 11
64.34666442871094
 21
208.61866760253906
 31
0.0
  0
LINE
  5
18B
  8
SMALL_FEATURE
 10
64.34666442871094
 20
208.61866760253906
 30
0.0
 11
64.09266662597656
 21
207.9413299560547
 31
0.0
  0
LINE
  5
18C
  8
SMALL_FEATURE
 10
64.09266662597656
 20
207.9413299560547
 30
0.0
 11
64.34666442871094
 21
207.77200317382812
 31
0.0
  0
LINE
  5
18D
  8
SMALL_FEATURE
 10
64.34666442871094
 20
207.77200317382812
 30
0.0
 11
64.30433654785156
 21
207.09466552734375
 31
0.0
  0
LINE
  5
18E
  8
SMALL_FEATURE
 10
64.30433654785156
 20
207.09466552734375
 30
0.0
 11
63.83866500854492
 21
207.09466552734375
 31
0.0
  0
LINE
  5
18F
  8
SMALL_FEATURE
 10
63.83866500854492
 20
207.09466552734375
 30
0.0
 11
63.711666107177734
 21
207.6026611328125
 31
0.0
  0
LINE
  5
190
  8
SMALL_FEATURE
 10
63.711666107177734
 20
207.6026611328125
 30
0.0
 11
63.330665588378906
 21
207.6873321533203
 31
0.0
  0
LINE
  5
191
  8
SMALL_FEATURE
 10
63.330665588378906
 20
207.6873321533203
 30
0.0
 11
63.330665588378906
 21
206.96766662597656
 31
0.0
  0
LINE
  5
192
  8
SMALL_FEATURE
 10
63.330665588378906
 20
206.96766662597656
 30
0.0
 11
64.34666442871094
 21
206.75599670410156
 31
0.0
  0
LINE
  5
193
  8
SMALL_FEATURE
 10
64.34666442871094
 20
206.75599670410156
 30
0.0
 11
64.30433654785156
 21
205.40133666992188
 31
0.0
  0
LINE
  5
194
  8
SMALL_FEATURE
 10
64.30433654785156
 20
205.40133666992188
 30
0.0
 11
62.992000579833984
 21
205.1473388671875
 31
0.0
  0
LINE
  5
195
  8
SMALL_FEATURE
 10
62.992000579833984
 20
205.1473388671875
 30
0.0
 11
63.11899948120117
 21
205.99400329589844
 31
0.0
  0
LINE
  5
196
  8
SMALL_FEATURE
 10
63.11899948120117
 20
205.99400329589844
 30
0.0
 11
62.78033447265625
 21
206.4596710205078
 31
0.0
  0
LINE
  5
197
  8
SMALL_FEATURE
 10
62.78033447265625
 20
206.4596710205078
 30
0.0
 11
63.288333892822266
 21
206.84066772460938
 31
0.0
  0
LINE
  5
198
  8
SMALL_FEATURE
 10
63.288333892822266
 20
206.84066772460938
 30
0.0
 11
62.060665130615234
 21
206.75599670410156
 31
0.0
  0
LINE
  5
199
  8
SMALL_FEATURE
 10
62.060665130615234
 20
206.75599670410156
 30
0.0
 11
61.97600173950195
 21
206.375
 31
0.0
  0
LINE
  5
19A
  8
SMALL_FEATURE
 10
61.97600173950195
 20
206.375
 30
0.0
 11
62.6533317565918
 21
205.99400329589844
 31
0.0
  0
LINE
  5
19B
  8
SMALL_FEATURE
 10
62.6533317565918
 20
205.99400329589844
 30
0.0
 11
63.034332275390625
 21
204.3853302001953
 31
0.0
  0
LINE
  5
19C
  8
SMALL_FEATURE
 10
63.034332275390625
 20
204.3853302001953
 30
0.0
 11
62.10300064086914
 21
204.42767333984375
 31
0.0
  0
LINE
  5
19D
  8
SMALL_FEATURE
 10
62.10300064086914
 20
204.42767333984375
 30
0.0
 11
61.8489990234375
 21
205.90933227539062
 31
0.0
  0
LINE
  5
19E
  8
SMALL_FEATURE
 10
61.8489990234375
 20
205.90933227539062
 30
0.0
 11
61.637332916259766
 21
205.8246612548828
 31
0.0
  0
LINE
  5
19F
  8
SMALL_FEATURE
 10
61.637332916259766
 20
205.8246612548828
 30
0.0
 11
61.80666732788086
 21
204.8509979248047
 31
0.0
  0
LINE
  5
1A0
  8
SMALL_FEATURE
 10
61.80666732788086
 20
204.8509979248047
 30
0.0
 11
61.08700180053711
 21
204.8509979248047
 31
0.0
  0
LINE
  5
1A1
  8
SMALL_FEATURE
 10
61.08700180053711
 20
204.8509979248047
 30
0.0
 11
60.917667388916016
 21
206.33267211914062
 31
0.0
  0
LINE
  5
1A2
  8
SMALL_FEATURE
 10
60.917667388916016
 20
206.33267211914062
 30
0.0
 11
61.93366622924805
 21
207.17933654785156
 31
0.0
  0
LINE
  5
1A3
  8
SMALL_FEATURE
 10
61.93366622924805
 20
207.17933654785156
 30
0.0
 11
60.917667388916016
 21
207.22166442871094
 31
0.0
  0
LINE
  5
1A4
  8
SMALL_FEATURE
 10
60.917667388916016
 20
207.22166442871094
 30
0.0
 11
61.0446662902832
 21
209.50765991210938
 31
0.0
  0
LINE
  5
1A5
  8
SMALL_FEATURE
 10
55.37200164794922
 20
151.84967041015625
 30
0.0
 11
55.83766555786133
 21
151.84967041015625
 31
0.0
  0
LINE
  5
1A6
  8
SMALL_FEATURE
 10
55.83766555786133
 20
151.84967041015625
 30
0.0
 11
56.641998291015625
 21
150.8336639404297
 31
0.0
  0
LINE
  5
1A7
  8
SMALL_FEATURE
 10
56.641998291015625
 20
150.8336639404297
 30
0.0
 11
57.277000427246094
 21
151.0030059814453
 31
0.0
  0
LINE
  5
1A8
  8
SMALL_FEATURE
 10
57.277000427246094
 20
151.0030059814453
 30
0.0
 11
57.19233322143555
 21
151.72267150878906
 31
0.0
  0
LINE
  5
1A9
  8
SMALL_FEATURE
 10
57.19233322143555
 20
151.72267150878906
 30
0.0
 11
55.499000549316406
 21
152.10366821289062
 31
0.0
  0
LINE
  5
1AA
  8
SMALL_FEATURE
 10
55.499000549316406
 20
152.10366821289062
 30
0.0
 11
56.00699996948242
 21
152.86566162109375
 31
0.0
  0
LINE
  5
1AB
  8
SMALL_FEATURE
 10
56.00699996948242
 20
152.86566162109375
 30
0.0
 11
56.599666595458984
 21
152.52699279785156
 31
0.0
  0
LINE
  5
1AC
  8
SMALL_FEATURE
 10
56.599666595458984
 20
152.52699279785156
 30
0.0
 11
56.72666549682617
 21
153.16200256347656
 31
0.0
  0
LINE
  5
1AD
  8
SMALL_FEATURE
 10
56.72666549682617
 20
153.16200256347656
 30
0.0
 11
57.19233322143555
 21
153.16200256347656
 31
0.0
  0
LINE
  5
1AE
  8
SMALL_FEATURE
 10
57.19233322143555
 20
153.16200256347656
 30
0.0
 11
57.44633483886719
 21
152.781005859375
 31
0.0
  0
LINE
  5
1AF
  8
SMALL_FEATURE
 10
57.44633483886719
 20
152.781005859375
 30
0.0
 11
57.573333740234375
 21
153.20433044433594
 31
0.0
  0
LINE
  5
1B0
  8
SMALL_FEATURE
 10
57.573333740234375
 20
153.20433044433594
 30
0.0
 11
58.547000885009766
 21
153.20433044433594
 31
0.0
  0
LINE
  5
1B1
  8
SMALL_FEATURE
 10
58.547000885009766
 20
153.20433044433594
 30
0.0
 11
58.80099868774414
 21
152.781005859375
 31
0.0
  0
LINE
  5
1B2
  8
SMALL_FEATURE
 10
58.80099868774414
 20
152.781005859375
 30
0.0
 11
58.928001403808594
 21
153.20433044433594
 31
0.0
  0
LINE
  5
1B3
  8
SMALL_FEATURE
 10
58.928001403808594
 20
153.20433044433594
 30
0.0
 11
59.986331939697266
 21
153.20433044433594
 31
0.0
  0
LINE
  5
1B4
  8
SMALL_FEATURE
 10
59.986331939697266
 20
153.20433044433594
 30
0.0
 11
59.986331939697266
 21
152.14599609375
 31
0.0
  0
LINE
  5
1B5
  8
SMALL_FEATURE
 10
59.986331939697266
 20
152.14599609375
 30
0.0
 11
58.41999816894531
 21
151.89199829101562
 31
0.0
  0
LINE
  5
1B6
  8
SMALL_FEATURE
 10
58.41999816894531
 20
151.89199829101562
 30
0.0
 11
58.46233367919922
 21
152.73866271972656
 31
0.0
  0
LINE
  5
1B7
  8
SMALL_FEATURE
 10
58.46233367919922
 20
152.73866271972656
 30
0.0
 11
58.250667572021484
 21
152.73866271972656
 31
0.0
  0
LINE
  5
1B8
  8
SMALL_FEATURE
 10
58.250667572021484
 20
152.73866271972656
 30
0.0
 11
57.869667053222656
 21
152.0189971923828
 31
0.0
  0
LINE
  5
1B9
  8
SMALL_FEATURE
 10
57.869667053222656
 20
152.0189971923828
 30
0.0
 11
57.23466491699219
 21
151.84967041015625
 31
0.0
  0
LINE
  5
1BA
  8
SMALL_FEATURE
 10
57.23466491699219
 20
151.84967041015625
 30
0.0
 11
58.20833206176758
 21
151.68032836914062
 31
0.0
  0
LINE
  5
1BB
  8
SMALL_FEATURE
 10
58.20833206176758
 20
151.68032836914062
 30
0.0
 11
58.46233367919922
 21
151.2570037841797
 31
0.0
  0
LINE
  5
1BC
  8
SMALL_FEATURE
 10
58.46233367919922
 20
151.2570037841797
 30
0.0
 11
58.970333099365234
 21
151.42633056640625
 31
0.0
  0
LINE
  5
1BD
  8
SMALL_FEATURE
 10
58.970333099365234
 20
151.42633056640625
 30
0.0
 11
59.09733200073242
 21
151.934326171875
 31
0.0
  0
LINE
  5
1BE
  8
SMALL_FEATURE
 10
59.09733200073242
 20
151.934326171875
 30
0.0
 11
60.240333557128906
 21
151.934326171875
 31
0.0
  0
LINE
  5
1BF
  8
SMALL_FEATURE
 10
60.240333557128906
 20
151.934326171875
 30
0.0
 11
60.02866744995117
 21
151.17233276367188
 31
0.0
  0
LINE
  5
1C0
  8
SMALL_FEATURE
 10
60.02866744995117
 20
151.17233276367188
 30
0.0
 11
60.663665771484375
 21
151.2570037841797
 31
0.0
  0
LINE
  5
1C1
  8
SMALL_FEATURE
 10
60.663665771484375
 20
151.2570037841797
 30
0.0
 11
60.70600128173828
 21
150.4949951171875
 31
0.0
  0
LINE
  5
1C2
  8
SMALL_FEATURE
 10
60.70600128173828
 20
150.4949951171875
 30
0.0
 11
59.85933303833008
 21
150.3679962158203
 31
0.0
  0
LINE
  5
1C3
  8
SMALL_FEATURE
 10
59.85933303833008
 20
150.3679962158203
 30
0.0
 11
59.81700134277344
 21
150.96066284179688
 31
0.0
  0
LINE
  5
1C4
  8
SMALL_FEATURE
 10
59.81700134277344
 20
150.96066284179688
 30
0.0
 11
59.09733200073242
 21
151.21466064453125
 31
0.0
  0
LINE
  5
1C5
  8
SMALL_FEATURE
 10
59.09733200073242
 20
151.21466064453125
 30
0.0
 11
59.13966751098633
 21
150.3679962158203
 31
0.0
  0
LINE
  5
1C6
  8
SMALL_FEATURE
 10
59.13966751098633
 20
150.3679962158203
 30
0.0
 11
57.65800094604492
 21
150.3679962158203
 31
0.0
  0
LINE
  5
1C7
  8
SMALL_FEATURE
 10
57.65800094604492
 20
150.3679962158203
 30
0.0
 11
57.53099822998047
 21
150.7066650390625
 31
0.0
  0
LINE
  5
1C8
  8
SMALL_FEATURE
 10
57.53099822998047
 20
150.7066650390625
 30
0.0
 11
57.277000427246094
 21
150.41033935546875
 31
0.0
  0
LINE
  5
1C9
  8
SMALL_FEATURE
 10
57.277000427246094
 20
150.41033935546875
 30
0.0
 11
55.96466827392578
 21
150.41033935546875
 31
0.0
  0
LINE
  5
1CA
  8
SMALL_FEATURE
 10
55.96466827392578
 20
150.41033935546875
 30
0.0
 11
55.75299835205078
 21
150.7066650390625
 31
0.0
  0
LINE
  5
1CB
  8
SMALL_FEATURE
 10
55.75299835205078
 20
150.7066650390625
 30
0.0
 11
55.16033172607422
 21
150.66433715820312
 31
0.0
  0
LINE
  5
1CC
  8
SMALL_FEATURE
 10
55.16033172607422
 20
150.66433715820312
 30
0.0
 11
55.37200164794922
 21
151.84967041015625
 31
0.0
  0
LINE
  5
1CD
  8
SMALL_FEATURE
 10
189.86500549316406
 20
32.85066604614258
 30
0.0
 11
188.55267333984375
 21
32.85066604614258
 31
0.0
  0
LINE
  5
1CE
  8
SMALL_FEATURE
 10
188.55267333984375
 20
32.85066604614258
 30
0.0
 11
188.00233459472656
 21
33.231666564941406
 31
0.0
  0
LINE
  5
1CF
  8
SMALL_FEATURE
 10
188.00233459472656
 20
33.231666564941406
 30
0.0
 11
188.00233459472656
 21
33.69733428955078
 31
0.0
  0
LINE
  5
1D0
  8
SMALL_FEATURE
 10
188.00233459472656
 20
33.69733428955078
 30
0.0
 11
187.66366577148438
 21
33.189334869384766
 31
0.0
  0
LINE
  5
1D1
  8
SMALL_FEATURE
 10
187.66366577148438
 20
33.189334869384766
 30
0.0
 11
187.197998046875
 21
33.189334869384766
 31
0.0
  0
LINE
  5
1D2
  8
SMALL_FEATURE
 10
187.197998046875
 20
33.189334869384766
 30
0.0
 11
187.36734008789062
 21
34.71333312988281
 31
0.0
  0
LINE
  5
1D3
  8
SMALL_FEATURE
 10
187.36734008789062
 20
34.71333312988281
 30
0.0
 11
186.3090057373047
 21
33.358665466308594
 31
0.0
  0
LINE
  5
1D4
  8
SMALL_FEATURE
 10
186.3090057373047
 20
33.358665466308594
 30
0.0
 11
184.1923370361328
 21
32.13100051879883
 31
0.0
  0
LINE
  5
1D5
  8
SMALL_FEATURE
 10
184.1923370361328
 20
32.13100051879883
 30
0.0
 11
183.34567260742188
 21
31.284334182739258
 31
0.0
  0
LINE
  5
1D6
  8
SMALL_FEATURE
 10
183.34567260742188
 20
31.284334182739258
 30
0.0
 11
183.0070037841797
 21
29.80266761779785
 31
0.0
  0
LINE
  5
1D7
  8
SMALL_FEATURE
 10
183.0070037841797
 20
29.80266761779785
 30
0.0
 11
183.85366821289062
 21
31.496000289916992
 31
0.0
  0
LINE
  5
1D8
  8
SMALL_FEATURE
 10
183.85366821289062
 20
31.496000289916992
 30
0.0
 11
185.37767028808594
 21
32.34266662597656
 31
0.0
  0
LINE
  5
1D9
  8
SMALL_FEATURE
 10
185.37767028808594
 20
32.34266662597656
 30
0.0
 11
186.13966369628906
 21
32.34266662597656
 31
0.0
  0
LINE
  5
1DA
  8
SMALL_FEATURE
 10
186.13966369628906
 20
32.34266662597656
 30
0.0
 11
185.37767028808594
 21
29.125333786010742
 31
0.0
  0
LINE
  5
1DB
  8
SMALL_FEATURE
 10
185.37767028808594
 20
29.125333786010742
 30
0.0
 11
184.48866271972656
 21
26.71233367919922
 31
0.0
  0
LINE
  5
1DC
  8
SMALL_FEATURE
 10
184.48866271972656
 20
26.71233367919922
 30
0.0
 11
184.0229949951172
 21
26.71233367919922
 31
0.0
  0
LINE
  5
1DD
  8
SMALL_FEATURE
 10
184.0229949951172
 20
26.71233367919922
 30
0.0
 11
184.14999389648438
 21
28.40566635131836
 31
0.0
  0
LINE
  5
1DE
  8
SMALL_FEATURE
 10
184.14999389648438
 20
28.40566635131836
 30
0.0
 11
184.6580047607422
 21
28.913665771484375
 31
0.0
  0
LINE
  5
1DF
  8
SMALL_FEATURE
 10
184.6580047607422
 20
28.913665771484375
 30
0.0
 11
183.51499938964844
 21
28.066999435424805
 31
0.0
  0
LINE
  5
1E0
  8
SMALL_FEATURE
 10
183.51499938964844
 20
28.066999435424805
 30
0.0
 11
181.99099731445312
 21
25.908000946044922
 31
0.0
  0
LINE
  5
1E1
  8
SMALL_FEATURE
 10
181.99099731445312
 20
25.908000946044922
 30
0.0
 11
183.34567260742188
 21
27.43199920654297
 31
0.0
  0
LINE
  5
1E2
  8
SMALL_FEATURE
 10
183.34567260742188
 20
27.43199920654297
 30
0.0
 11
183.85366821289062
 21
27.389667510986328
 31
0.0
  0
LINE
  5
1E3
  8
SMALL_FEATURE
 10
183.85366821289062
 20
27.389667510986328
 30
0.0
 11
183.51499938964844
 21
25.738666534423828
 31
0.0
  0
LINE
  5
1E4
  8
SMALL_FEATURE
 10
183.51499938964844
 20
25.738666534423828
 30
0.0
 11
183.684326171875
 21
26.246665954589844
 31
0.0
  0
LINE
  5
1E5
  8
SMALL_FEATURE
 10
183.684326171875
 20
26.246665954589844
 30
0.0
 11
184.48866271972656
 21
26.246665954589844
 31
0.0
  0
LINE
  5
1E6
  8
SMALL_FEATURE
 10
184.48866271972656
 20
26.246665954589844
 30
0.0
 11
185.8433380126953
 21
29.125333786010742
 31
0.0
  0
LINE
  5
1E7
  8
SMALL_FEATURE
 10
185.8433380126953
 20
29.125333786010742
 30
0.0
 11
186.69000244140625
 21
31.665332794189453
 31
0.0
  0
LINE
  5
1E8
  8
SMALL_FEATURE
 10
186.69000244140625
 20
31.665332794189453
 30
0.0
 11
187.3249969482422
 21
31.665332794189453
 31
0.0
  0
LINE
  5
1E9
  8
SMALL_FEATURE
 10
187.3249969482422
 20
31.665332794189453
 30
0.0
 11
187.70599365234375
 21
32.893001556396484
 31
0.0
  0
LINE
  5
1EA
  8
SMALL_FEATURE
 10
187.70599365234375
 20
32.893001556396484
 30
0.0
 11
188.89132690429688
 21
32.5543327331543
 31
0.0
  0
LINE
  5
1EB
  8
SMALL_FEATURE
 10
188.89132690429688
 20
32.5543327331543
 30
0.0
 11
189.86500549316406
 21
32.5543327331543
 31
0.0
  0
LINE
  5
1EC
  8
SMALL_FEATURE
 10
189.86500549316406
 20
32.5543327331543
 30
0.0
 11
189.86500549316406
 21
32.85066604614258
 31
0.0
  0
LINE
  5
1ED
  8
SMALL_FEATURE
 10
132.50332641601562
 20
227.66867065429688
 30
0.0
 11
135.63600158691406
 21
227.5416717529297
 31
0.0
  0
LINE
  5
1EE
  8
SMALL_FEATURE
 10
135.63600158691406
 20
227.5416717529297
 30
0.0
 11
135.67832946777344
 21
227.16065979003906
 31
0.0
  0
LINE
  5
1EF
  8
SMALL_FEATURE
 10
135.67832946777344
 20
227.16065979003906
 30
0.0
 11
138.5570068359375
 21
227.58399963378906
 31
0.0
  0
LINE
  5
1F0
  8
SMALL_FEATURE
 10
138.5570068359375
 20
227.58399963378906
 30
0.0
 11
138.6840057373047
 21
223.73167419433594
 31
0.0
  0
LINE
  5
1F1
  8
SMALL_FEATURE
 10
138.6840057373047
 20
223.73167419433594
 30
0.0
 11
138.85333251953125
 21
227.5416717529297
 31
0.0
  0
LINE
  5
1F2
  8
SMALL_FEATURE
 10
138.85333251953125
 20
227.5416717529297
 30
0.0
 11
142.24000549316406
 21
227.49932861328125
 31
0.0
  0
LINE
  5
1F3
  8
SMALL_FEATURE
 10
142.24000549316406
 20
227.49932861328125
 30
0.0
 11
142.36700439453125
 21
223.73167419433594
 31
0.0
  0
LINE
  5
1F4
  8
SMALL_FEATURE
 10
142.36700439453125
 20
223.73167419433594
 30
0.0
 11
142.49400329589844
 21
227.58399963378906
 31
0.0
  0
LINE
  5
1F5
  8
SMALL_FEATURE
 10
142.49400329589844
 20
227.58399963378906
 30
0.0
 11
145.37266540527344
 21
227.16065979003906
 31
0.0
  0
LINE
  5
1F6
  8
SMALL_FEATURE
 10
145.37266540527344
 20
227.16065979003906
 30
0.0
 11
145.4149932861328
 21
227.5416717529297
 31
0.0
  0
LINE
  5
1F7
  8
SMALL_FEATURE
 10
145.4149932861328
 20
227.5416717529297
 30
0.0
 11
154.1356658935547
 21
227.62632751464844
 31
0.0
  0
LINE
  5
1F8
  8
SMALL_FEATURE
 10
154.1356658935547
 20
227.62632751464844
 30
0.0
 11
145.4149932861328
 21
227.75332641601562
 31
0.0
  0
LINE
  5
1F9
  8
SMALL_FEATURE
 10
145.4149932861328
 20
227.75332641601562
 30
0.0
 11
145.37266540527344
 21
228.13433837890625
 31
0.0
  0
LINE
  5
1FA
  8
SMALL_FEATURE
 10
145.37266540527344
 20
228.13433837890625
 30
0.0
 11
142.49400329589844
 21
227.71099853515625
 31
0.0
  0
LINE
  5
1FB
  8
SMALL_FEATURE
 10
142.49400329589844
 20
227.71099853515625
 30
0.0
 11
142.36700439453125
 21
229.44667053222656
 31
0.0
  0
LINE
  5
1FC
  8
SMALL_FEATURE
 10
142.36700439453125
 20
229.44667053222656
 30
0.0
 11
142.19766235351562
 21
227.75332641601562
 31
0.0
  0
LINE
  5
1FD
  8
SMALL_FEATURE
 10
142.19766235351562
 20
227.75332641601562
 30
0.0
 11
138.85333251953125
 21
227.75332641601562
 31
0.0
  0
LINE
  5
1FE
  8
SMALL_FEATURE
 10
138.85333251953125
 20
227.75332641601562
 30
0.0
 11
138.6840057373047
 21
229.44667053222656
 31
0.0
  0
LINE
  5
1FF
  8
SMALL_FEATURE
 10
138.6840057373047
 20
229.44667053222656
 30
0.0
 11
138.5570068359375
 21
227.71099853515625
 31
0.0
  0
LINE
  5
200
  8
SMALL_FEATURE
 10
138.5570068359375
 20
227.71099853515625
 30
0.0
 11
135.67832946777344
 21
228.13433837890625
 31
0.0
  0
LINE
  5
201
  8
SMALL_FEATURE
 10
135.67832946777344
 20
228.13433837890625
 30
0.0
 11
135.63600158691406
 21
227.75332641601562
 31
0.0
  0
LINE
  5
202
  8
SMALL_FEATURE
 10
135.63600158691406
 20
227.75332641601562
 30
0.0
 11
132.50332641601562
 21
227.66867065429688
 31
0.0
  0
LINE
  5
203
  8
BRIDGE_ROUTE
 10
131.10633850097656
 20
9.440333366394043
 30
0.0
 11
131.14866638183594
 21
41.020999908447266
 31
0.0
  0
LINE
  5
204
  8
BRIDGE_ROUTE
 10
131.14866638183594
 20
41.020999908447266
 30
0.0
 11
198.79733276367188
 21
40.978668212890625
 31
0.0
  0
LINE
  5
205
  8
BRIDGE_ROUTE
 10
198.79733276367188
 20
40.978668212890625
 30
0.0
 11
198.7550048828125
 21
39.70866775512695
 31
0.0
  0
LINE
  5
206
  8
BRIDGE_ROUTE
 10
198.7550048828125
 20
39.70866775512695
 30
0.0
 11
132.50332641601562
 21
39.70866775512695
 31
0.0
  0
LINE
  5
207
  8
BRIDGE_ROUTE
 10
132.50332641601562
 20
39.70866775512695
 30
0.0
 11
132.41867065429688
 21
9.440333366394043
 31
0.0
  0
LINE
  5
208
  8
BRIDGE_ROUTE
 10
132.41867065429688
 20
9.440333366394043
 30
0.0
 11
131.10633850097656
 21
9.440333366394043
 31
0.0
  0
LINE
  5
209
  8
PICKUP_ROUTE
 10
62.52633285522461
 20
121.24266815185547
 30
0.0
 11
57.9543342590332
 21
120.22666931152344
 31
0.0
  0
LINE
  5
20A
  8
PICKUP_ROUTE
 10
57.9543342590332
 20
120.22666931152344
 30
0.0
 11
53.72100067138672
 21
118.02532958984375
 31
0.0
  0
LINE
  5
20B
  8
PICKUP_ROUTE
 10
53.72100067138672
 20
118.02532958984375
 30
0.0
 11
50.207332611083984
 21
114.68099975585938
 31
0.0
  0
LINE
  5
20C
  8
PICKUP_ROUTE
 10
50.207332611083984
 20
114.68099975585938
 30
0.0
 11
46.56666564941406
 21
108.50033569335938
 31
0.0
  0
LINE
  5
20D
  8
PICKUP_ROUTE
 10
46.56666564941406
 20
108.50033569335938
 30
0.0
 11
45.1696662902832
 21
103.63200378417969
 31
0.0
  0
LINE
  5
20E
  8
PICKUP_ROUTE
 10
45.1696662902832
 20
103.63200378417969
 30
0.0
 11
44.91566848754883
 21
99.69499969482422
 31
0.0
  0
LINE
  5
20F
  8
PICKUP_ROUTE
 10
44.91566848754883
 20
99.69499969482422
 30
0.0
 11
45.3390007019043
 21
96.39299774169922
 31
0.0
  0
LINE
  5
210
  8
PICKUP_ROUTE
 10
45.3390007019043
 20
96.39299774169922
 30
0.0
 11
48.090667724609375
 21
85.13233184814453
 31
0.0
  0
LINE
  5
211
  8
PICKUP_ROUTE
 10
48.090667724609375
 20
85.13233184814453
 30
0.0
 11
48.2599983215332
 21
80.13700103759766
 31
0.0
  0
LINE
  5
212
  8
PICKUP_ROUTE
 10
48.2599983215332
 20
80.13700103759766
 30
0.0
 11
47.92133331298828
 21
77.80867004394531
 31
0.0
  0
LINE
  5
213
  8
PICKUP_ROUTE
 10
47.92133331298828
 20
77.80867004394531
 30
0.0
 11
46.56666564941406
 21
73.27899932861328
 31
0.0
  0
LINE
  5
214
  8
PICKUP_ROUTE
 10
46.56666564941406
 20
73.27899932861328
 30
0.0
 11
44.788665771484375
 21
69.25733184814453
 31
0.0
  0
LINE
  5
215
  8
PICKUP_ROUTE
 10
44.788665771484375
 20
69.25733184814453
 30
0.0
 11
37.84600067138672
 21
56.26100158691406
 31
0.0
  0
LINE
  5
216
  8
PICKUP_ROUTE
 10
37.84600067138672
 20
56.26100158691406
 30
0.0
 11
35.89866638183594
 21
51.94300079345703
 31
0.0
  0
LINE
  5
217
  8
PICKUP_ROUTE
 10
35.89866638183594
 20
51.94300079345703
 30
0.0
 11
34.50166702270508
 21
46.9900016784668
 31
0.0
  0
LINE
  5
218
  8
PICKUP_ROUTE
 10
34.50166702270508
 20
46.9900016784668
 30
0.0
 11
34.2053337097168
 21
43.01066589355469
 31
0.0
  0
LINE
  5
219
  8
PICKUP_ROUTE
 10
34.2053337097168
 20
43.01066589355469
 30
0.0
 11
34.37466812133789
 21
40.005001068115234
 31
0.0
  0
LINE
  5
21A
  8
PICKUP_ROUTE
 10
34.37466812133789
 20
40.005001068115234
 30
0.0
 11
35.39066696166992
 21
35.305999755859375
 31
0.0
  0
LINE
  5
21B
  8
PICKUP_ROUTE
 10
35.39066696166992
 20
35.305999755859375
 30
0.0
 11
37.21099853515625
 21
31.07266616821289
 31
0.0
  0
LINE
  5
21C
  8
PICKUP_ROUTE
 10
37.21099853515625
 20
31.07266616821289
 30
0.0
 11
38.52333450317383
 21
28.871334075927734
 31
0.0
  0
LINE
  5
21D
  8
PICKUP_ROUTE
 10
38.52333450317383
 20
28.871334075927734
 30
0.0
 11
42.8836669921875
 21
23.325666427612305
 31
0.0
  0
LINE
  5
21E
  8
PICKUP_ROUTE
 10
42.8836669921875
 20
23.325666427612305
 30
0.0
 11
46.693668365478516
 21
20.19300079345703
 31
0.0
  0
LINE
  5
21F
  8
PICKUP_ROUTE
 10
46.693668365478516
 20
20.19300079345703
 30
0.0
 11
51.01166534423828
 21
17.991666793823242
 31
0.0
  0
LINE
  5
220
  8
PICKUP_ROUTE
 10
51.01166534423828
 20
17.991666793823242
 30
0.0
 11
58.12366485595703
 21
16.086666107177734
 31
0.0
  0
LINE
  5
221
  8
PICKUP_ROUTE
 10
58.12366485595703
 20
16.086666107177734
 30
0.0
 11
63.11899948120117
 21
15.155333518981934
 31
0.0
  0
LINE
  5
222
  8
PICKUP_ROUTE
 10
63.11899948120117
 20
15.155333518981934
 30
0.0
 11
72.30533599853516
 21
15.02833366394043
 31
0.0
  0
LINE
  5
223
  8
PICKUP_ROUTE
 10
72.30533599853516
 20
15.02833366394043
 30
0.0
 11
72.34766387939453
 21
121.36966705322266
 31
0.0
  0
LINE
  5
224
  8
PICKUP_ROUTE
 10
72.34766387939453
 20
121.36966705322266
 30
0.0
 11
62.52633285522461
 21
121.24266815185547
 31
0.0
  0
LINE
  5
225
  8
PICKUP_ROUTE
 10
81.91500091552734
 20
121.41200256347656
 30
0.0
 11
81.87266540527344
 21
15.070666313171387
 31
0.0
  0
LINE
  5
226
  8
PICKUP_ROUTE
 10
81.87266540527344
 20
15.070666313171387
 30
0.0
 11
89.2386703491211
 21
15.02833366394043
 31
0.0
  0
LINE
  5
227
  8
PICKUP_ROUTE
 10
89.2386703491211
 20
15.02833366394043
 30
0.0
 11
96.09666442871094
 21
16.17133331298828
 31
0.0
  0
LINE
  5
228
  8
PICKUP_ROUTE
 10
96.09666442871094
 20
16.17133331298828
 30
0.0
 11
103.20866394042969
 21
17.991666793823242
 31
0.0
  0
LINE
  5
229
  8
PICKUP_ROUTE
 10
103.20866394042969
 20
17.991666793823242
 30
0.0
 11
107.44200134277344
 21
20.19300079345703
 31
0.0
  0
LINE
  5
22A
  8
PICKUP_ROUTE
 10
107.44200134277344
 20
20.19300079345703
 30
0.0
 11
111.125
 21
23.198667526245117
 31
0.0
  0
LINE
  5
22B
  8
PICKUP_ROUTE
 10
111.125
 20
23.198667526245117
 30
0.0
 11
115.61233520507812
 21
28.95599937438965
 31
0.0
  0
LINE
  5
22C
  8
PICKUP_ROUTE
 10
115.61233520507812
 20
28.95599937438965
 30
0.0
 11
117.98300170898438
 21
33.10466766357422
 31
0.0
  0
LINE
  5
22D
  8
PICKUP_ROUTE
 10
117.98300170898438
 20
33.10466766357422
 30
0.0
 11
119.76100158691406
 21
40.005001068115234
 31
0.0
  0
LINE
  5
22E
  8
PICKUP_ROUTE
 10
119.76100158691406
 20
40.005001068115234
 30
0.0
 11
119.84566497802734
 21
45.084999084472656
 31
0.0
  0
LINE
  5
22F
  8
PICKUP_ROUTE
 10
119.84566497802734
 20
45.084999084472656
 30
0.0
 11
119.04133605957031
 21
49.487667083740234
 31
0.0
  0
LINE
  5
230
  8
PICKUP_ROUTE
 10
119.04133605957031
 20
49.487667083740234
 30
0.0
 11
116.20500183105469
 21
56.26100158691406
 31
0.0
  0
LINE
  5
231
  8
PICKUP_ROUTE
 10
116.20500183105469
 20
56.26100158691406
 30
0.0
 11
109.3046646118164
 21
69.17266845703125
 31
0.0
  0
LINE
  5
232
  8
PICKUP_ROUTE
 10
109.3046646118164
 20
69.17266845703125
 30
0.0
 11
107.56900024414062
 21
73.1943359375
 31
0.0
  0
LINE
  5
233
  8
PICKUP_ROUTE
 10
107.56900024414062
 20
73.1943359375
 30
0.0
 11
106.2143325805664
 21
77.80867004394531
 31
0.0
  0
LINE
  5
234
  8
PICKUP_ROUTE
 10
106.2143325805664
 20
77.80867004394531
 30
0.0
 11
105.79100036621094
 21
81.99966430664062
 31
0.0
  0
LINE
  5
235
  8
PICKUP_ROUTE
 10
105.79100036621094
 20
81.99966430664062
 30
0.0
 11
106.00267028808594
 21
84.79366302490234
 31
0.0
  0
LINE
  5
236
  8
PICKUP_ROUTE
 10
106.00267028808594
 20
84.79366302490234
 30
0.0
 11
108.79666900634766
 21
96.30833435058594
 31
0.0
  0
LINE
  5
237
  8
PICKUP_ROUTE
 10
108.79666900634766
 20
96.30833435058594
 30
0.0
 11
109.26233673095703
 21
100.88033294677734
 31
0.0
  0
LINE
  5
238
  8
PICKUP_ROUTE
 10
109.26233673095703
 20
100.88033294677734
 30
0.0
 11
108.50033569335938
 21
105.83333587646484
 31
0.0
  0
LINE
  5
239
  8
PICKUP_ROUTE
 10
108.50033569335938
 20
105.83333587646484
 30
0.0
 11
106.5953369140625
 21
110.53233337402344
 31
0.0
  0
LINE
  5
23A
  8
PICKUP_ROUTE
 10
106.5953369140625
 20
110.53233337402344
 30
0.0
 11
104.9020004272461
 21
113.28399658203125
 31
0.0
  0
LINE
  5
23B
  8
PICKUP_ROUTE
 10
104.9020004272461
 20
113.28399658203125
 30
0.0
 11
102.23500061035156
 21
116.45899963378906
 31
0.0
  0
LINE
  5
23C
  8
PICKUP_ROUTE
 10
102.23500061035156
 20
116.45899963378906
 30
0.0
 11
100.49933624267578
 21
117.94066619873047
 31
0.0
  0
LINE
  5
23D
  8
PICKUP_ROUTE
 10
100.49933624267578
 20
117.94066619873047
 30
0.0
 11
96.26599884033203
 21
120.22666931152344
 31
0.0
  0
LINE
  5
23E
  8
PICKUP_ROUTE
 10
96.26599884033203
 20
120.22666931152344
 30
0.0
 11
91.60933685302734
 21
121.24266815185547
 31
0.0
  0
LINE
  5
23F
  8
PICKUP_ROUTE
 10
91.60933685302734
 20
121.24266815185547
 30
0.0
 11
81.91500091552734
 21
121.41200256347656
 31
0.0
  0
LINE
  5
240
  8
PICKUP_ROUTE
 10
62.568668365478516
 20
121.03099822998047
 30
0.0
 11
72.13600158691406
 21
121.15799713134766
 31
0.0
  0
LINE
  5
241
  8
PICKUP_ROUTE
 10
72.13600158691406
 20
121.15799713134766
 30
0.0
 11
72.09366607666016
 21
15.239999771118164
 31
0.0
  0
LINE
  5
242
  8
PICKUP_ROUTE
 10
72.09366607666016
 20
15.239999771118164
 30
0.0
 11
63.034332275390625
 21
15.366999626159668
 31
0.0
  0
LINE
  5
243
  8
PICKUP_ROUTE
 10
63.034332275390625
 20
15.366999626159668
 30
0.0
 11
57.9543342590332
 21
16.340665817260742
 31
0.0
  0
LINE
  5
244
  8
PICKUP_ROUTE
 10
57.9543342590332
 20
16.340665817260742
 30
0.0
 11
51.05400085449219
 21
18.203332901000977
 31
0.0
  0
LINE
  5
245
  8
PICKUP_ROUTE
 10
51.05400085449219
 20
18.203332901000977
 30
0.0
 11
46.7783317565918
 21
20.404666900634766
 31
0.0
  0
LINE
  5
246
  8
PICKUP_ROUTE
 10
46.7783317565918
 20
20.404666900634766
 30
0.0
 11
42.79899978637695
 21
23.749000549316406
 31
0.0
  0
LINE
  5
247
  8
PICKUP_ROUTE
 10
42.79899978637695
 20
23.749000549316406
 30
0.0
 11
38.650333404541016
 21
29.08300018310547
 31
0.0
  0
LINE
  5
248
  8
PICKUP_ROUTE
 10
38.650333404541016
 20
29.08300018310547
 30
0.0
 11
36.999332427978516
 21
32.00400161743164
 31
0.0
  0
LINE
  5
249
  8
PICKUP_ROUTE
 10
36.999332427978516
 20
32.00400161743164
 30
0.0
 11
35.602333068847656
 21
35.348331451416016
 31
0.0
  0
LINE
  5
24A
  8
PICKUP_ROUTE
 10
35.602333068847656
 20
35.348331451416016
 30
0.0
 11
34.54399871826172
 21
40.38600158691406
 31
0.0
  0
LINE
  5
24B
  8
PICKUP_ROUTE
 10
34.54399871826172
 20
40.38600158691406
 30
0.0
 11
34.71333312988281
 21
47.03233337402344
 31
0.0
  0
LINE
  5
24C
  8
PICKUP_ROUTE
 10
34.71333312988281
 20
47.03233337402344
 30
0.0
 11
36.11033248901367
 21
51.900665283203125
 31
0.0
  0
LINE
  5
24D
  8
PICKUP_ROUTE
 10
36.11033248901367
 20
51.900665283203125
 30
0.0
 11
38.26933288574219
 21
56.599666595458984
 31
0.0
  0
LINE
  5
24E
  8
PICKUP_ROUTE
 10
38.26933288574219
 20
56.599666595458984
 30
0.0
 11
44.83100128173828
 21
68.83399963378906
 31
0.0
  0
LINE
  5
24F
  8
PICKUP_ROUTE
 10
44.83100128173828
 20
68.83399963378906
 30
0.0
 11
46.7783317565918
 21
73.23666381835938
 31
0.0
  0
LINE
  5
250
  8
PICKUP_ROUTE
 10
46.7783317565918
 20
73.23666381835938
 30
0.0
 11
48.17533493041992
 21
78.02033233642578
 31
0.0
  0
LINE
  5
251
  8
PICKUP_ROUTE
 10
48.17533493041992
 20
78.02033233642578
 30
0.0
 11
48.4716682434082
 21
80.09466552734375
 31
0.0
  0
LINE
  5
252
  8
PICKUP_ROUTE
 10
48.4716682434082
 20
80.09466552734375
 30
0.0
 11
48.30233383178711
 21
85.13233184814453
 31
0.0
  0
LINE
  5
253
  8
PICKUP_ROUTE
 10
48.30233383178711
 20
85.13233184814453
 30
0.0
 11
45.50833511352539
 21
96.60466766357422
 31
0.0
  0
LINE
  5
254
  8
PICKUP_ROUTE
 10
45.50833511352539
 20
96.60466766357422
 30
0.0
 11
45.12733459472656
 21
99.61033630371094
 31
0.0
  0
LINE
  5
255
  8
PICKUP_ROUTE
 10
45.12733459472656
 20
99.61033630371094
 30
0.0
 11
45.423667907714844
 21
103.84366607666016
 31
0.0
  0
LINE
  5
256
  8
PICKUP_ROUTE
 10
45.423667907714844
 20
103.84366607666016
 30
0.0
 11
46.736000061035156
 21
108.33100128173828
 31
0.0
  0
LINE
  5
257
  8
PICKUP_ROUTE
 10
46.736000061035156
 20
108.33100128173828
 30
0.0
 11
47.836666107177734
 21
110.61699676513672
 31
0.0
  0
LINE
  5
258
  8
PICKUP_ROUTE
 10
47.836666107177734
 20
110.61699676513672
 30
0.0
 11
50.29199981689453
 21
114.427001953125
 31
0.0
  0
LINE
  5
259
  8
PICKUP_ROUTE
 10
50.29199981689453
 20
114.427001953125
 30
0.0
 11
53.805667877197266
 21
117.81366729736328
 31
0.0
  0
LINE
  5
25A
  8
PICKUP_ROUTE
 10
53.805667877197266
 20
117.81366729736328
 30
0.0
 11
57.996665954589844
 21
120.01499938964844
 31
0.0
  0
LINE
  5
25B
  8
PICKUP_ROUTE
 10
57.996665954589844
 20
120.01499938964844
 30
0.0
 11
62.568668365478516
 21
121.03099822998047
 31
0.0
  0
LINE
  5
25C
  8
PICKUP_ROUTE
 10
82.12666320800781
 20
121.20033264160156
 30
0.0
 11
91.56700134277344
 21
121.03099822998047
 31
0.0
  0
LINE
  5
25D
  8
PICKUP_ROUTE
 10
91.56700134277344
 20
121.03099822998047
 30
0.0
 11
96.22366333007812
 21
120.01499938964844
 31
0.0
  0
LINE
  5
25E
  8
PICKUP_ROUTE
 10
96.22366333007812
 20
120.01499938964844
 30
0.0
 11
100.1606674194336
 21
117.89833068847656
 31
0.0
  0
LINE
  5
25F
  8
PICKUP_ROUTE
 10
100.1606674194336
 20
117.89833068847656
 30
0.0
 11
101.93866729736328
 21
116.41666412353516
 31
0.0
  0
LINE
  5
260
  8
PICKUP_ROUTE
 10
101.93866729736328
 20
116.41666412353516
 30
0.0
 11
104.81733703613281
 21
113.02999877929688
 31
0.0
  0
LINE
  5
261
  8
PICKUP_ROUTE
 10
104.81733703613281
 20
113.02999877929688
 30
0.0
 11
106.5530014038086
 21
110.10900115966797
 31
0.0
  0
LINE
  5
262
  8
PICKUP_ROUTE
 10
106.5530014038086
 20
110.10900115966797
 30
0.0
 11
108.24633026123047
 21
105.96033477783203
 31
0.0
  0
LINE
  5
263
  8
PICKUP_ROUTE
 10
108.24633026123047
 20
105.96033477783203
 30
0.0
 11
108.83899688720703
 21
103.58966827392578
 31
0.0
  0
LINE
  5
264
  8
PICKUP_ROUTE
 10
108.83899688720703
 20
103.58966827392578
 30
0.0
 11
109.05066680908203
 21
100.75333404541016
 31
0.0
  0
LINE
  5
265
  8
PICKUP_ROUTE
 10
109.05066680908203
 20
100.75333404541016
 30
0.0
 11
108.62733459472656
 21
96.5199966430664
 31
0.0
  0
LINE
  5
266
  8
PICKUP_ROUTE
 10
108.62733459472656
 20
96.5199966430664
 30
0.0
 11
105.83333587646484
 21
85.08999633789062
 31
0.0
  0
LINE
  5
267
  8
PICKUP_ROUTE
 10
105.83333587646484
 20
85.08999633789062
 30
0.0
 11
105.57933044433594
 21
82.08433532714844
 31
0.0
  0
LINE
  5
268
  8
PICKUP_ROUTE
 10
105.57933044433594
 20
82.08433532714844
 30
0.0
 11
106.00267028808594
 21
77.80867004394531
 31
0.0
  0
LINE
  5
269
  8
PICKUP_ROUTE
 10
106.00267028808594
 20
77.80867004394531
 30
0.0
 11
107.35733032226562
 21
73.1520004272461
 31
0.0
  0
LINE
  5
26A
  8
PICKUP_ROUTE
 10
107.35733032226562
 20
73.1520004272461
 30
0.0
 11
109.22000122070312
 21
68.83399963378906
 31
0.0
  0
LINE
  5
26B
  8
PICKUP_ROUTE
 10
109.22000122070312
 20
68.83399963378906
 30
0.0
 11
115.78166961669922
 21
56.599666595458984
 31
0.0
  0
LINE
  5
26C
  8
PICKUP_ROUTE
 10
115.78166961669922
 20
56.599666595458984
 30
0.0
 11
118.82966613769531
 21
49.487667083740234
 31
0.0
  0
LINE
  5
26D
  8
PICKUP_ROUTE
 10
118.82966613769531
 20
49.487667083740234
 30
0.0
 11
119.63400268554688
 21
45.042667388916016
 31
0.0
  0
LINE
  5
26E
  8
PICKUP_ROUTE
 10
119.63400268554688
 20
45.042667388916016
 30
0.0
 11
119.54933166503906
 21
40.005001068115234
 31
0.0
  0
LINE
  5
26F
  8
PICKUP_ROUTE
 10
119.54933166503906
 20
40.005001068115234
 30
0.0
 11
117.81366729736328
 21
33.27399826049805
 31
0.0
  0
LINE
  5
270
  8
PICKUP_ROUTE
 10
117.81366729736328
 20
33.27399826049805
 30
0.0
 11
115.31600189208984
 21
28.913665771484375
 31
0.0
  0
LINE
  5
271
  8
PICKUP_ROUTE
 10
115.31600189208984
 20
28.913665771484375
 30
0.0
 11
112.7336654663086
 21
25.315332412719727
 31
0.0
  0
LINE
  5
272
  8
PICKUP_ROUTE
 10
112.7336654663086
 20
25.315332412719727
 30
0.0
 11
110.70166778564453
 21
23.11400032043457
 31
0.0
  0
LINE
  5
273
  8
PICKUP_ROUTE
 10
110.70166778564453
 20
23.11400032043457
 30
0.0
 11
107.23033142089844
 21
20.31999969482422
 31
0.0
  0
LINE
  5
274
  8
PICKUP_ROUTE
 10
107.23033142089844
 20
20.31999969482422
 30
0.0
 11
103.16633605957031
 21
18.203332901000977
 31
0.0
  0
LINE
  5
275
  8
PICKUP_ROUTE
 10
103.16633605957031
 20
18.203332901000977
 30
0.0
 11
96.47766876220703
 21
16.467666625976562
 31
0.0
  0
LINE
  5
276
  8
PICKUP_ROUTE
 10
96.47766876220703
 20
16.467666625976562
 30
0.0
 11
89.28099822998047
 21
15.239999771118164
 31
0.0
  0
LINE
  5
277
  8
PICKUP_ROUTE
 10
89.28099822998047
 20
15.239999771118164
 30
0.0
 11
82.08433532714844
 21
15.282333374023438
 31
0.0
  0
LINE
  5
278
  8
PICKUP_ROUTE
 10
82.08433532714844
 20
15.282333374023438
 30
0.0
 11
82.12666320800781
 21
121.20033264160156
 31
0.0
  0
LINE
  5
279
  8
JACK_ROUTE
 10
169.24867248535156
 20
156.46400451660156
 30
0.0
 11
169.16400146484375
 21
145.6266632080078
 31
0.0
  0
LINE
  5
27A
  8
JACK_ROUTE
 10
169.16400146484375
 20
145.6266632080078
 30
0.0
 11
168.7830047607422
 21
145.58433532714844
 31
0.0
  0
LINE
  5
27B
  8
JACK_ROUTE
 10
168.7830047607422
 20
145.58433532714844
 30
0.0
 11
169.16400146484375
 21
142.70567321777344
 31
0.0
  0
LINE
  5
27C
  8
JACK_ROUTE
 10
169.16400146484375
 20
142.70567321777344
 30
0.0
 11
165.35400390625
 21
142.5786590576172
 31
0.0
  0
LINE
  5
27D
  8
JACK_ROUTE
 10
165.35400390625
 20
142.5786590576172
 30
0.0
 11
169.16400146484375
 21
142.40933227539062
 31
0.0
  0
LINE
  5
27E
  8
JACK_ROUTE
 10
169.16400146484375
 20
142.40933227539062
 30
0.0
 11
169.16400146484375
 21
135.5936737060547
 31
0.0
  0
LINE
  5
27F
  8
JACK_ROUTE
 10
169.16400146484375
 20
135.5936737060547
 30
0.0
 11
165.35400390625
 21
135.46665954589844
 31
0.0
  0
LINE
  5
280
  8
JACK_ROUTE
 10
165.35400390625
 20
135.46665954589844
 30
0.0
 11
169.20632934570312
 21
135.29733276367188
 31
0.0
  0
LINE
  5
281
  8
JACK_ROUTE
 10
169.20632934570312
 20
135.29733276367188
 30
0.0
 11
168.7830047607422
 21
132.46099853515625
 31
0.0
  0
LINE
  5
282
  8
JACK_ROUTE
 10
168.7830047607422
 20
132.46099853515625
 30
0.0
 11
169.16400146484375
 21
132.37632751464844
 31
0.0
  0
LINE
  5
283
  8
JACK_ROUTE
 10
169.16400146484375
 20
132.37632751464844
 30
0.0
 11
169.16400146484375
 21
130.8523406982422
 31
0.0
  0
LINE
  5
284
  8
JACK_ROUTE
 10
169.16400146484375
 20
130.8523406982422
 30
0.0
 11
168.40199279785156
 21
130.72532653808594
 31
0.0
  0
LINE
  5
285
  8
JACK_ROUTE
 10
168.40199279785156
 20
130.72532653808594
 30
0.0
 11
169.16400146484375
 21
130.55599975585938
 31
0.0
  0
LINE
  5
286
  8
JACK_ROUTE
 10
169.16400146484375
 20
130.55599975585938
 30
0.0
 11
169.16400146484375
 21
129.32833862304688
 31
0.0
  0
LINE
  5
287
  8
JACK_ROUTE
 10
169.16400146484375
 20
129.32833862304688
 30
0.0
 11
169.37567138671875
 21
129.32833862304688
 31
0.0
  0
LINE
  5
288
  8
JACK_ROUTE
 10
169.37567138671875
 20
129.32833862304688
 30
0.0
 11
169.41799926757812
 21
130.59832763671875
 31
0.0
  0
LINE
  5
289
  8
JACK_ROUTE
 10
169.41799926757812
 20
130.59832763671875
 30
0.0
 11
171.53466796875
 21
130.59832763671875
 31
0.0
  0
LINE
  5
28A
  8
JACK_ROUTE
 10
171.53466796875
 20
130.59832763671875
 30
0.0
 11
171.6193389892578
 21
130.2173309326172
 31
0.0
  0
LINE
  5
28B
  8
JACK_ROUTE
 10
171.6193389892578
 20
130.2173309326172
 30
0.0
 11
174.45567321777344
 21
130.6406707763672
 31
0.0
  0
LINE
  5
28C
  8
JACK_ROUTE
 10
174.45567321777344
 20
130.6406707763672
 30
0.0
 11
174.625
 21
126.788330078125
 31
0.0
  0
LINE
  5
28D
  8
JACK_ROUTE
 10
174.625
 20
126.788330078125
 30
0.0
 11
174.7096710205078
 21
130.55599975585938
 31
0.0
  0
LINE
  5
28E
  8
JACK_ROUTE
 10
174.7096710205078
 20
130.55599975585938
 30
0.0
 11
177.41900634765625
 21
130.59832763671875
 31
0.0
  0
LINE
  5
28F
  8
JACK_ROUTE
 10
177.41900634765625
 20
130.59832763671875
 30
0.0
 11
177.5883331298828
 21
126.788330078125
 31
0.0
  0
LINE
  5
290
  8
JACK_ROUTE
 10
177.5883331298828
 20
126.788330078125
 30
0.0
 11
177.71533203125
 21
130.6406707763672
 31
0.0
  0
LINE
  5
291
  8
JACK_ROUTE
 10
177.71533203125
 20
130.6406707763672
 30
0.0
 11
180.4669952392578
 21
130.2173309326172
 31
0.0
  0
LINE
  5
292
  8
JACK_ROUTE
 10
180.4669952392578
 20
130.2173309326172
 30
0.0
 11
180.55166625976562
 21
130.59832763671875
 31
0.0
  0
LINE
  5
293
  8
JACK_ROUTE
 10
180.55166625976562
 20
130.59832763671875
 30
0.0
 11
193.75967407226562
 21
130.59832763671875
 31
0.0
  0
LINE
  5
294
  8
JACK_ROUTE
 10
193.75967407226562
 20
130.59832763671875
 30
0.0
 11
193.75967407226562
 21
130.80999755859375
 31
0.0
  0
LINE
  5
295
  8
JACK_ROUTE
 10
193.75967407226562
 20
130.80999755859375
 30
0.0
 11
180.55166625976562
 21
130.80999755859375
 31
0.0
  0
LINE
  5
296
  8
JACK_ROUTE
 10
180.55166625976562
 20
130.80999755859375
 30
0.0
 11
180.50933837890625
 21
131.1909942626953
 31
0.0
  0
LINE
  5
297
  8
JACK_ROUTE
 10
180.50933837890625
 20
131.1909942626953
 30
0.0
 11
177.71533203125
 21
130.76766967773438
 31
0.0
  0
LINE
  5
298
  8
JACK_ROUTE
 10
177.71533203125
 20
130.76766967773438
 30
0.0
 11
177.5883331298828
 21
131.4026641845703
 31
0.0
  0
LINE
  5
299
  8
JACK_ROUTE
 10
177.5883331298828
 20
131.4026641845703
 30
0.0
 11
177.41900634765625
 21
130.80999755859375
 31
0.0
  0
LINE
  5
29A
  8
JACK_ROUTE
 10
177.41900634765625
 20
130.80999755859375
 30
0.0
 11
174.58267211914062
 21
130.97933959960938
 31
0.0
  0
LINE
  5
29B
  8
JACK_ROUTE
 10
174.58267211914062
 20
130.97933959960938
 30
0.0
 11
173.99000549316406
 21
130.76766967773438
 31
0.0
  0
LINE
  5
29C
  8
JACK_ROUTE
 10
173.99000549316406
 20
130.76766967773438
 30
0.0
 11
171.6616668701172
 21
131.1909942626953
 31
0.0
  0
LINE
  5
29D
  8
JACK_ROUTE
 10
171.6616668701172
 20
131.1909942626953
 30
0.0
 11
171.53466796875
 21
130.80999755859375
 31
0.0
  0
LINE
  5
29E
  8
JACK_ROUTE
 10
171.53466796875
 20
130.80999755859375
 30
0.0
 11
169.37567138671875
 21
130.8523406982422
 31
0.0
  0
LINE
  5
29F
  8
JACK_ROUTE
 10
169.37567138671875
 20
130.8523406982422
 30
0.0
 11
169.37567138671875
 21
132.37632751464844
 31
0.0
  0
LINE
  5
2A0
  8
JACK_ROUTE
 10
169.37567138671875
 20
132.37632751464844
 30
0.0
 11
169.7566680908203
 21
132.50332641601562
 31
0.0
  0
LINE
  5
2A1
  8
JACK_ROUTE
 10
169.7566680908203
 20
132.50332641601562
 30
0.0
 11
169.3333282470703
 21
135.29733276367188
 31
0.0
  0
LINE
  5
2A2
  8
JACK_ROUTE
 10
169.3333282470703
 20
135.29733276367188
 30
0.0
 11
170.81500244140625
 21
135.42433166503906
 31
0.0
  0
LINE
  5
2A3
  8
JACK_ROUTE
 10
170.81500244140625
 20
135.42433166503906
 30
0.0
 11
169.37567138671875
 21
135.5936737060547
 31
0.0
  0
LINE
  5
2A4
  8
JACK_ROUTE
 10
169.37567138671875
 20
135.5936737060547
 30
0.0
 11
169.37567138671875
 21
142.40933227539062
 31
0.0
  0
LINE
  5
2A5
  8
JACK_ROUTE
 10
169.37567138671875
 20
142.40933227539062
 30
0.0
 11
170.81500244140625
 21
142.5786590576172
 31
0.0
  0
LINE
  5
2A6
  8
JACK_ROUTE
 10
170.81500244140625
 20
142.5786590576172
 30
0.0
 11
169.37567138671875
 21
142.70567321777344
 31
0.0
  0
LINE
  5
2A7
  8
JACK_ROUTE
 10
169.37567138671875
 20
142.70567321777344
 30
0.0
 11
169.7566680908203
 21
145.58433532714844
 31
0.0
  0
LINE
  5
2A8
  8
JACK_ROUTE
 10
169.7566680908203
 20
145.58433532714844
 30
0.0
 11
169.37567138671875
 21
145.6266632080078
 31
0.0
  0
LINE
  5
2A9
  8
JACK_ROUTE
 10
169.37567138671875
 20
145.6266632080078
 30
0.0
 11
169.24867248535156
 21
156.46400451660156
 31
0.0
  0
LINE
  5
2AA
  8
CONTROL_CAVITY
 10
52.91666793823242
 20
256.455322265625
 30
0.0
 11
48.34466552734375
 21
255.39700317382812
 31
0.0
  0
LINE
  5
2AB
  8
CONTROL_CAVITY
 10
48.34466552734375
 20
255.39700317382812
 30
0.0
 11
46.016334533691406
 21
254.42333984375
 31
0.0
  0
LINE
  5
2AC
  8
CONTROL_CAVITY
 10
46.016334533691406
 20
254.42333984375
 30
0.0
 11
42.24866485595703
 21
251.67166137695312
 31
0.0
  0
LINE
  5
2AD
  8
CONTROL_CAVITY
 10
42.24866485595703
 20
251.67166137695312
 30
0.0
 11
39.11600112915039
 21
247.86166381835938
 31
0.0
  0
LINE
  5
2AE
  8
CONTROL_CAVITY
 10
39.11600112915039
 20
247.86166381835938
 30
0.0
 11
36.91466522216797
 21
243.62832641601562
 31
0.0
  0
LINE
  5
2AF
  8
CONTROL_CAVITY
 10
36.91466522216797
 20
243.62832641601562
 30
0.0
 11
36.15266799926758
 21
241.3423309326172
 31
0.0
  0
LINE
  5
2B0
  8
CONTROL_CAVITY
 10
36.15266799926758
 20
241.3423309326172
 30
0.0
 11
35.22133255004883
 21
236.7703399658203
 31
0.0
  0
LINE
  5
2B1
  8
CONTROL_CAVITY
 10
35.22133255004883
 20
236.7703399658203
 30
0.0
 11
35.560001373291016
 21
231.732666015625
 31
0.0
  0
LINE
  5
2B2
  8
CONTROL_CAVITY
 10
35.560001373291016
 20
231.732666015625
 30
0.0
 11
38.354000091552734
 21
220.30267333984375
 31
0.0
  0
LINE
  5
2B3
  8
CONTROL_CAVITY
 10
38.354000091552734
 20
220.30267333984375
 30
0.0
 11
38.608001708984375
 21
215.34967041015625
 31
0.0
  0
LINE
  5
2B4
  8
CONTROL_CAVITY
 10
38.608001708984375
 20
215.34967041015625
 30
0.0
 11
38.311668395996094
 21
213.27532958984375
 31
0.0
  0
LINE
  5
2B5
  8
CONTROL_CAVITY
 10
38.311668395996094
 20
213.27532958984375
 30
0.0
 11
36.91466522216797
 21
208.40699768066406
 31
0.0
  0
LINE
  5
2B6
  8
CONTROL_CAVITY
 10
36.91466522216797
 20
208.40699768066406
 30
0.0
 11
35.263668060302734
 21
204.68167114257812
 31
0.0
  0
LINE
  5
2B7
  8
CONTROL_CAVITY
 10
35.263668060302734
 20
204.68167114257812
 30
0.0
 11
28.194000244140625
 21
191.47366333007812
 31
0.0
  0
LINE
  5
2B8
  8
CONTROL_CAVITY
 10
28.194000244140625
 20
191.47366333007812
 30
0.0
 11
25.48466682434082
 21
184.78500366210938
 31
0.0
  0
LINE
  5
2B9
  8
CONTROL_CAVITY
 10
25.48466682434082
 20
184.78500366210938
 30
0.0
 11
24.553333282470703
 21
180.21299743652344
 31
0.0
  0
LINE
  5
2BA
  8
CONTROL_CAVITY
 10
24.553333282470703
 20
180.21299743652344
 30
0.0
 11
24.553333282470703
 21
177.46133422851562
 31
0.0
  0
LINE
  5
2BB
  8
CONTROL_CAVITY
 10
24.553333282470703
 20
177.46133422851562
 30
0.0
 11
25.018999099731445
 21
173.1009979248047
 31
0.0
  0
LINE
  5
2BC
  8
CONTROL_CAVITY
 10
25.018999099731445
 20
173.1009979248047
 30
0.0
 11
25.65399932861328
 21
170.51866149902344
 31
0.0
  0
LINE
  5
2BD
  8
CONTROL_CAVITY
 10
25.65399932861328
 20
170.51866149902344
 30
0.0
 11
26.500667572021484
 21
168.3173370361328
 31
0.0
  0
LINE
  5
2BE
  8
CONTROL_CAVITY
 10
26.500667572021484
 20
168.3173370361328
 30
0.0
 11
28.786666870117188
 21
164.08399963378906
 31
0.0
  0
LINE
  5
2BF
  8
CONTROL_CAVITY
 10
28.786666870117188
 20
164.08399963378906
 30
0.0
 11
33.189334869384766
 21
158.58067321777344
 31
0.0
  0
LINE
  5
2C0
  8
CONTROL_CAVITY
 10
33.189334869384766
 20
158.58067321777344
 30
0.0
 11
35.09433364868164
 21
156.7603302001953
 31
0.0
  0
LINE
  5
2C1
  8
CONTROL_CAVITY
 10
35.09433364868164
 20
156.7603302001953
 30
0.0
 11
39.073665618896484
 21
154.1356658935547
 31
0.0
  0
LINE
  5
2C2
  8
CONTROL_CAVITY
 10
39.073665618896484
 20
154.1356658935547
 30
0.0
 11
43.56100082397461
 21
152.4423370361328
 31
0.0
  0
LINE
  5
2C3
  8
CONTROL_CAVITY
 10
43.56100082397461
 20
152.4423370361328
 30
0.0
 11
54.99100112915039
 21
150.1563262939453
 31
0.0
  0
LINE
  5
2C4
  8
CONTROL_CAVITY
 10
54.99100112915039
 20
150.1563262939453
 30
0.0
 11
70.23100280761719
 21
150.1563262939453
 31
0.0
  0
LINE
  5
2C5
  8
CONTROL_CAVITY
 10
70.23100280761719
 20
150.1563262939453
 30
0.0
 11
81.53399658203125
 21
152.4423370361328
 31
0.0
  0
LINE
  5
2C6
  8
CONTROL_CAVITY
 10
81.53399658203125
 20
152.4423370361328
 30
0.0
 11
86.02133178710938
 21
154.1356658935547
 31
0.0
  0
LINE
  5
2C7
  8
CONTROL_CAVITY
 10
86.02133178710938
 20
154.1356658935547
 30
0.0
 11
88.13800048828125
 21
155.3209991455078
 31
0.0
  0
LINE
  5
2C8
  8
CONTROL_CAVITY
 10
88.13800048828125
 20
155.3209991455078
 30
0.0
 11
90.00066375732422
 21
156.7603302001953
 31
0.0
  0
LINE
  5
2C9
  8
CONTROL_CAVITY
 10
90.00066375732422
 20
156.7603302001953
 30
0.0
 11
93.4296646118164
 21
160.1893310546875
 31
0.0
  0
LINE
  5
2CA
  8
CONTROL_CAVITY
 10
93.4296646118164
 20
160.1893310546875
 30
0.0
 11
96.30833435058594
 21
164.08399963378906
 31
0.0
  0
LINE
  5
2CB
  8
CONTROL_CAVITY
 10
96.30833435058594
 20
164.08399963378906
 30
0.0
 11
98.59432983398438
 21
168.3173370361328
 31
0.0
  0
LINE
  5
2CC
  8
CONTROL_CAVITY
 10
98.59432983398438
 20
168.3173370361328
 30
0.0
 11
99.44100189208984
 21
170.51866149902344
 31
0.0
  0
LINE
  5
2CD
  8
CONTROL_CAVITY
 10
99.44100189208984
 20
170.51866149902344
 30
0.0
 11
100.45700073242188
 21
175.13299560546875
 31
0.0
  0
LINE
  5
2CE
  8
CONTROL_CAVITY
 10
100.45700073242188
 20
175.13299560546875
 30
0.0
 11
100.54166412353516
 21
180.21299743652344
 31
0.0
  0
LINE
  5
2CF
  8
CONTROL_CAVITY
 10
100.54166412353516
 20
180.21299743652344
 30
0.0
 11
100.2030029296875
 21
182.49899291992188
 31
0.0
  0
LINE
  5
2D0
  8
CONTROL_CAVITY
 10
100.2030029296875
 20
182.49899291992188
 30
0.0
 11
98.84833526611328
 21
187.0709991455078
 31
0.0
  0
LINE
  5
2D1
  8
CONTROL_CAVITY
 10
98.84833526611328
 20
187.0709991455078
 30
0.0
 11
96.9010009765625
 21
191.47366333007812
 31
0.0
  0
LINE
  5
2D2
  8
CONTROL_CAVITY
 10
96.9010009765625
 20
191.47366333007812
 30
0.0
 11
89.95833587646484
 21
204.3853302001953
 31
0.0
  0
LINE
  5
2D3
  8
CONTROL_CAVITY
 10
89.95833587646484
 20
204.3853302001953
 30
0.0
 11
88.18033599853516
 21
208.40699768066406
 31
0.0
  0
LINE
  5
2D4
  8
CONTROL_CAVITY
 10
88.18033599853516
 20
208.40699768066406
 30
0.0
 11
86.82566833496094
 21
212.93666076660156
 31
0.0
  0
LINE
  5
2D5
  8
CONTROL_CAVITY
 10
86.82566833496094
 20
212.93666076660156
 30
0.0
 11
86.48699951171875
 21
215.26499938964844
 31
0.0
  0
LINE
  5
2D6
  8
CONTROL_CAVITY
 10
86.48699951171875
 20
215.26499938964844
 30
0.0
 11
86.69866943359375
 21
220.00633239746094
 31
0.0
  0
LINE
  5
2D7
  8
CONTROL_CAVITY
 10
86.69866943359375
 20
220.00633239746094
 30
0.0
 11
89.53500366210938
 21
231.732666015625
 31
0.0
  0
LINE
  5
2D8
  8
CONTROL_CAVITY
 10
89.53500366210938
 20
231.732666015625
 30
0.0
 11
89.87366485595703
 21
236.7703399658203
 31
0.0
  0
LINE
  5
2D9
  8
CONTROL_CAVITY
 10
89.87366485595703
 20
236.7703399658203
 30
0.0
 11
89.11166381835938
 21
241.04600524902344
 31
0.0
  0
LINE
  5
2DA
  8
CONTROL_CAVITY
 10
89.11166381835938
 20
241.04600524902344
 30
0.0
 11
87.1643295288086
 21
245.8296661376953
 31
0.0
  0
LINE
  5
2DB
  8
CONTROL_CAVITY
 10
87.1643295288086
 20
245.8296661376953
 30
0.0
 11
84.62433624267578
 21
249.8090057373047
 31
0.0
  0
LINE
  5
2DC
  8
CONTROL_CAVITY
 10
84.62433624267578
 20
249.8090057373047
 30
0.0
 11
81.11066436767578
 21
253.15333557128906
 31
0.0
  0
LINE
  5
2DD
  8
CONTROL_CAVITY
 10
81.11066436767578
 20
253.15333557128906
 30
0.0
 11
78.48600006103516
 21
254.67733764648438
 31
0.0
  0
LINE
  5
2DE
  8
CONTROL_CAVITY
 10
78.48600006103516
 20
254.67733764648438
 30
0.0
 11
74.76066589355469
 21
255.9896697998047
 31
0.0
  0
LINE
  5
2DF
  8
CONTROL_CAVITY
 10
74.76066589355469
 20
255.9896697998047
 30
0.0
 11
72.26300048828125
 21
256.455322265625
 31
0.0
  0
LINE
  5
2E0
  8
CONTROL_CAVITY
 10
72.26300048828125
 20
256.455322265625
 30
0.0
 11
52.91666793823242
 21
256.455322265625
 31
0.0
  0
ENDSEC
  0
EOF
