  0
SECTION
  2
HEADER
  9
$ACADVER
  1
AC1009
  9
$DWGCODEPAGE
  3
ANSI_1252
  9
$INSBASE
 10
0.0
 20
0.0
 30
0.0
  9
$EXTMIN
 10
1e+20
 20
1e+20
 30
1e+20
  9
$EXTMAX
 10
-1e+20
 20
-1e+20
 30
-1e+20
  9
$LIMMIN
 10
0.0
 20
0.0
  9
$LIMMAX
 10
420.0
 20
297.0
  9
$ORTHOMODE
 70
0
  9
$REGENMODE
 70
1
  9
$FILLMODE
 70
1
  9
$DRAGMODE
 70
2
  9
$QTEXTMODE
 70
0
  9
$MIRRTEXT
 70
1
  9
$OSMODE
 70
20583
  9
$LTSCALE
 40
1.0
  9
$ATTMODE
 70
1
  9
$TEXTSIZE
 40
2.5
  9
$TRACEWID
 40
1.0
  9
$TEXTSTYLE
  7
Standard
  9
$CLAYER
  8
0
  9
$CELTYPE
  6
ByLayer
  9
$CECOLOR
 62
256
  9
$DIMSCALE
 40
1.0
  9
$DIMASZ
 40
2.5
  9
$DIMEXO
 40
0.625
  9
$DIMDLI
 40
3.75
  9
$DIMRND
 40
0.0
  9
$DIMDLE
 40
0.0
  9
$DIMEXE
 40
1.25
  9
$DIMTP
 40
0.0
  9
$DIMTM
 40
0.0
  9
$DIMTXT
 40
2.5
  9
$DIMCEN
 40
2.5
  9
$DIMTSZ
 40
0.0
  9
$DIMTOL
 70
0
  9
$DIMLIM
 70
0
  9
$DIMTIH
 70
0
  9
$DIMTOH
 70
0
  9
$DIMSE1
 70
0
  9
$DIMSE2
 70
0
  9
$DIMTAD
 70
1
  9
$DIMZIN
 70
8
  9
$DIMBLK
  1

  9
$DIMASO
 70
1
  9
$DIMSHO
 70
1
  9
$DIMPOST
  1

  9
$DIMAPOST
  1

  9
$DIMALT
 70
0
  9
$DIMALTD
 70
3
  9
$DIMALTF
 40
0.03937007874
  9
$DIMLFAC
 40
1.0
  9
$DIMTOFL
 70
1
  9
$DIMTVP
 40
0.0
  9
$DIMTIX
 70
0
  9
$DIMSOXD
 70
0
  9
$DIMSAH
 70
0
  9
$DIMBLK1
  1

  9
$DIMBLK2
  1

  9
$DIMSTYLE
  2
ISO-25
  9
$DIMCLRD
 70
0
  9
$DIMCLRE
 70
0
  9
$DIMCLRT
 70
0
  9
$DIMTFAC
 40
1.0
  9
$DIMGAP
 40
0.625
  9
$COORDS
 70
1
  9
$ATTDIA
 70
0
  9
$ATTREQ
 70
1
  9
$HANDLING
 70
1
  9
$LUNITS
 70
2
  9
$LUPREC
 70
4
  9
$SKETCHINC
 40
1.0
  9
$FILLETRAD
 40
10.0
  9
$AUNITS
 70
0
  9
$AUPREC
 70
2
  9
$MENU
  1
.
  9
$ELEVATION
 40
0.0
  9
$PELEVATION
 40
0.0
  9
$THICKNESS
 40
0.0
  9
$LIMCHECK
 70
0
  9
$CHAMFERA
 40
0.0
  9
$CHAMFERB
 40
0.0
  9
$SKPOLY
 70
0
  9
$TDCREATE
 40
2461106.6792592593
  9
$TDUPDATE
 40
2461106.6792708333
  9
$TDINDWG
 40
0.0
  9
$TDUSRTIMER
 40
0.0
  9
$USRTIMER
 70
1
  9
$ANGBASE
 50
0.0
  9
$ANGDIR
 70
0
  9
$PDMODE
 70
0
  9
$PDSIZE
 40
0.0
  9
$PLINEWID
 40
0.0
  9
$SPLFRAME
 70
0
  9
$SPLINETYPE
 70
6
  9
$SPLINESEGS
 70
8
  9
$HANDSEED
  5
31D
  9
$SURFTAB1
 70
6
  9
$SURFTAB2
 70
6
  9
$SURFTYPE
 70
6
  9
$SURFU
 70
6
  9
$SURFV
 70
6
  9
$UCSNAME
  2

  9
$UCSORG
 10
0.0
 20
0.0
 30
0.0
  9
$UCSXDIR
 10
1.0
 20
0.0
 30
0.0
  9
$UCSYDIR
 10
0.0
 20
1.0
 30
0.0
  9
$PUCSNAME
  2

  9
$PUCSORG
 10
0.0
 20
0.0
 30
0.0
  9
$PUCSXDIR
 10
1.0
 20
0.0
 30
0.0
  9
$PUCSYDIR
 10
0.0
 20
1.0
 30
0.0
  9
$USERI1
 70
0
  9
$USERI2
 70
0
  9
$USERI3
 70
0
  9
$USERI4
 70
0
  9
$USERI5
 70
0
  9
$USERR1
 40
0.0
  9
$USERR2
 40
0.0
  9
$USERR3
 40
0.0
  9
$USERR4
 40
0.0
  9
$USERR5
 40
0.0
  9
$WORLDVIEW
 70
1
  9
$SHADEDGE
 70
3
  9
$SHADEDIF
 70
70
  9
$TILEMODE
 70
1
  9
$MAXACTVP
 70
64
  9
$PLIMCHECK
 70
0
  9
$PEXTMIN
 10
1e+20
 20
1e+20
 30
1e+20
  9
$PEXTMAX
 10
-1e+20
 20
-1e+20
 30
-1e+20
  9
$PLIMMIN
 10
0.0
 20
0.0
  9
$PLIMMAX
 10
420.0
 20
297.0
  9
$UNITMODE
 70
0
  9
$VISRETAIN
 70
1
  9
$PLINEGEN
 70
0
  9
$PSLTSCALE
 70
1
  0
ENDSEC
  0
SECTION
  2
TABLES
  0
TABLE
  2
VPORT
 70
1
  0
VPORT
  5
23
  2
*Active
 70
0
 10
0.0
 20
0.0
 11
1.0
 21
1.0
 12
0.0
 22
0.0
 13
0.0
 23
0.0
 14
0.5
 24
0.5
 15
0.5
 25
0.5
 16
0.0
 26
0.0
 36
1.0
 17
0.0
 27
0.0
 37
0.0
 40
1000.0
 41
1.34
 42
50.0
 43
0.0
 44
0.0
 50
0.0
 51
0.0
 71
0
 72
1000
 73
1
 74
3
 75
0
 76
0
 77
0
 78
0
  0
ENDTAB
  0
TABLE
  2
LTYPE
 70
3
  0
LTYPE
  5
24
  2
ByBlock
 70
0
  3

 72
65
 73
0
 40
0.0
  0
LTYPE
  5
25
  2
ByLayer
 70
0
  3

 72
65
 73
0
 40
0.0
  0
LTYPE
  5
26
  2
Continuous
 70
0
  3

 72
65
 73
0
 40
0.0
  0
ENDTAB
  0
TABLE
  2
LAYER
 70
2
  0
LAYER
  5
27
  2
0
 70
0
 62
7
  6
Continuous
  0
LAYER
  5
28
  2
Defpoints
 70
0
 62
7
  6
Continuous
  0
ENDTAB
  0
TABLE
  2
STYLE
 70
1
  0
STYLE
  5
29
  2
Standard
 70
0
 40
0.0
 41
1.0
 50
0.0
 71
0
 42
2.5
  3
txt
  4

  0
ENDTAB
  0
TABLE
  2
VIEW
 70
0
  0
ENDTAB
  0
TABLE
  2
UCS
 70
0
  0
ENDTAB
  0
TABLE
  2
APPID
 70
3
  0
APPID
  5
2A
  2
ACAD
 70
0
  0
APPID
  5
31B
  2
HATCHBACKGROUNDCOLOR
 70
0
  0
APPID
  5
31C
  2
EZDXF
 70
0
  0
ENDTAB
  0
TABLE
  2
DIMSTYLE
 70
1
  0
DIMSTYLE
105
2B
  2
Standard
 70
0
  3

  4

  5

  6

  7

 40
1.0
 41
2.5
 42
0.625
 43
3.75
 44
1.25
 45
0.0
 46
0.0
 47
0.0
 48
0.0
140
2.5
141
2.5
142
0.0
143
0.03937007874
144
1.0
145
0.0
146
1.0
147
0.625
 71
0
 72
0
 73
0
 74
0
 75
0
 76
0
 77
1
 78
8
170
0
171
3
172
1
173
0
174
0
175
0
176
0
177
0
178
0
  0
ENDTAB
  0
ENDSEC
  0
SECTION
  2
BLOCKS
  0
BLOCK
  5
18
  8
0
  2
$Model_Space
 70
0
 10
0.0
 20
0.0
 30
0.0
  3
$Model_Space
  1

1001
EZDXF
1000
CREATED_BY_EZDXF
1000
1.4.3 @ 2026-03-06T22:18:08.391057+00:00
1000
WRITTEN_BY_EZDXF
1000
1.4.3 @ 2026-03-06T22:18:09.107868+00:00
  0
ENDBLK
  5
19
  8
0
  0
BLOCK
  5
1C
  8
0
  2
$Paper_Space
 70
0
 10
0.0
 20
0.0
 30
0.0
  3
$Paper_Space
  1

  0
ENDBLK
  5
1D
  8
0
  0
ENDSEC
  0
SECTION
  2
ENTITIES
  0
LINE
  5
2D
  8
SMALL_FEATURE
 10
181.5676727294922
 20
39.45466613769531
 30
0.0
 11
188.34100341796875
 21
39.49700164794922
 31
0.0
  0
LINE
  5
2E
  8
SMALL_FEATURE
 10
188.34100341796875
 20
39.49700164794922
 30
0.0
 11
188.5103302001953
 21
38.98899841308594
 31
0.0
  0
LINE
  5
2F
  8
SMALL_FEATURE
 10
188.5103302001953
 20
38.98899841308594
 30
0.0
 11
188.55267333984375
 21
39.49700164794922
 31
0.0
  0
LINE
  5
30
  8
SMALL_FEATURE
 10
188.55267333984375
 20
39.49700164794922
 30
0.0
 11
198.7550048828125
 21
39.49700164794922
 31
0.0
  0
LINE
  5
31
  8
SMALL_FEATURE
 10
198.7550048828125
 20
39.49700164794922
 30
0.0
 11
198.79733276367188
 21
24.595666885375977
 31
0.0
  0
LINE
  5
32
  8
SMALL_FEATURE
 10
198.79733276367188
 20
24.595666885375977
 30
0.0
 11
194.47933959960938
 21
24.553333282470703
 31
0.0
  0
LINE
  5
33
  8
SMALL_FEATURE
 10
194.47933959960938
 20
24.553333282470703
 30
0.0
 11
194.30999755859375
 21
24.849666595458984
 31
0.0
  0
LINE
  5
34
  8
SMALL_FEATURE
 10
194.30999755859375
 20
24.849666595458984
 30
0.0
 11
194.26766967773438
 21
24.553333282470703
 31
0.0
  0
LINE
  5
35
  8
SMALL_FEATURE
 10
194.26766967773438
 20
24.553333282470703
 30
0.0
 11
193.4633331298828
 21
24.553333282470703
 31
0.0
  0
LINE
  5
36
  8
SMALL_FEATURE
 10
193.4633331298828
 20
24.553333282470703
 30
0.0
 11
193.29400634765625
 21
24.849666595458984
 31
0.0
  0
LINE
  5
37
  8
SMALL_FEATURE
 10
193.29400634765625
 20
24.849666595458984
 30
0.0
 11
193.2516632080078
 21
24.553333282470703
 31
0.0
  0
LINE
  5
38
  8
SMALL_FEATURE
 10
193.2516632080078
 20
24.553333282470703
 30
0.0
 11
190.24600219726562
 21
24.553333282470703
 31
0.0
  0
LINE
  5
39
  8
SMALL_FEATURE
 10
190.24600219726562
 20
24.553333282470703
 30
0.0
 11
190.2036590576172
 21
24.849666595458984
 31
0.0
  0
LINE
  5
3A
  8
SMALL_FEATURE
 10
190.2036590576172
 20
24.849666595458984
 30
0.0
 11
189.56866455078125
 21
25.018999099731445
 31
0.0
  0
LINE
  5
3B
  8
SMALL_FEATURE
 10
189.56866455078125
 20
25.018999099731445
 30
0.0
 11
189.52633666992188
 21
24.553333282470703
 31
0.0
  0
LINE
  5
3C
  8
SMALL_FEATURE
 10
189.52633666992188
 20
24.553333282470703
 30
0.0
 11
181.61000061035156
 21
24.553333282470703
 31
0.0
  0
LINE
  5
3D
  8
SMALL_FEATURE
 10
181.61000061035156
 20
24.553333282470703
 30
0.0
 11
181.5676727294922
 21
39.45466613769531
 31
0.0
  0
LINE
  5
3E
  8
SMALL_FEATURE
 10
162.052001953125
 20
175.21766662597656
 30
0.0
 11
162.47532653808594
 21
175.1753387451172
 31
0.0
  0
LINE
  5
3F
  8
SMALL_FEATURE
 10
162.47532653808594
 20
175.1753387451172
 30
0.0
 11
167.55532836914062
 21
171.06900024414062
 31
0.0
  0
LINE
  5
40
  8
SMALL_FEATURE
 10
167.55532836914062
 20
171.06900024414062
 30
0.0
 11
170.0106658935547
 21
174.24400329589844
 31
0.0
  0
LINE
  5
41
  8
SMALL_FEATURE
 10
170.0106658935547
 20
174.24400329589844
 30
0.0
 11
170.64566040039062
 21
174.37100219726562
 31
0.0
  0
LINE
  5
42
  8
SMALL_FEATURE
 10
170.64566040039062
 20
174.37100219726562
 30
0.0
 11
175.42933654785156
 21
168.4443359375
 31
0.0
  0
LINE
  5
43
  8
SMALL_FEATURE
 10
175.42933654785156
 20
168.4443359375
 30
0.0
 11
175.47166442871094
 21
160.0623321533203
 31
0.0
  0
LINE
  5
44
  8
SMALL_FEATURE
 10
175.47166442871094
 20
160.0623321533203
 30
0.0
 11
171.83099365234375
 21
160.8243408203125
 31
0.0
  0
LINE
  5
45
  8
SMALL_FEATURE
 10
171.83099365234375
 20
160.8243408203125
 30
0.0
 11
171.70399475097656
 21
161.24766540527344
 31
0.0
  0
LINE
  5
46
  8
SMALL_FEATURE
 10
171.70399475097656
 20
161.24766540527344
 30
0.0
 11
168.86766052246094
 21
160.90899658203125
 31
0.0
  0
LINE
  5
47
  8
SMALL_FEATURE
 10
168.86766052246094
 20
160.90899658203125
 30
0.0
 11
165.65032958984375
 21
161.24766540527344
 31
0.0
  0
LINE
  5
48
  8
SMALL_FEATURE
 10
165.65032958984375
 20
161.24766540527344
 30
0.0
 11
165.52333068847656
 21
160.8243408203125
 31
0.0
  0
LINE
  5
49
  8
SMALL_FEATURE
 10
165.52333068847656
 20
160.8243408203125
 30
0.0
 11
161.84033203125
 21
160.1046600341797
 31
0.0
  0
LINE
  5
4A
  8
SMALL_FEATURE
 10
161.84033203125
 20
160.1046600341797
 30
0.0
 11
162.052001953125
 21
175.21766662597656
 31
0.0
  0
LINE
  5
4B
  8
SMALL_FEATURE
 10
159.72366333007812
 20
123.9520034790039
 30
0.0
 11
162.55999755859375
 21
123.99433135986328
 31
0.0
  0
LINE
  5
4C
  8
SMALL_FEATURE
 10
162.55999755859375
 20
123.99433135986328
 30
0.0
 11
162.64466857910156
 21
123.61333465576172
 31
0.0
  0
LINE
  5
4D
  8
SMALL_FEATURE
 10
162.64466857910156
 20
123.61333465576172
 30
0.0
 11
165.4810028076172
 21
124.03666687011719
 31
0.0
  0
LINE
  5
4E
  8
SMALL_FEATURE
 10
165.4810028076172
 20
124.03666687011719
 30
0.0
 11
165.65032958984375
 21
120.18433380126953
 31
0.0
  0
LINE
  5
4F
  8
SMALL_FEATURE
 10
165.65032958984375
 20
120.18433380126953
 30
0.0
 11
165.77732849121094
 21
123.99433135986328
 31
0.0
  0
LINE
  5
50
  8
SMALL_FEATURE
 10
165.77732849121094
 20
123.99433135986328
 30
0.0
 11
171.57699584960938
 21
123.99433135986328
 31
0.0
  0
LINE
  5
51
  8
SMALL_FEATURE
 10
171.57699584960938
 20
123.99433135986328
 30
0.0
 11
171.746337890625
 21
120.18433380126953
 31
0.0
  0
LINE
  5
52
  8
SMALL_FEATURE
 10
171.746337890625
 20
120.18433380126953
 30
0.0
 11
171.8733367919922
 21
124.03666687011719
 31
0.0
  0
LINE
  5
53
  8
SMALL_FEATURE
 10
171.8733367919922
 20
124.03666687011719
 30
0.0
 11
174.7096710205078
 21
123.61333465576172
 31
0.0
  0
LINE
  5
54
  8
SMALL_FEATURE
 10
174.7096710205078
 20
123.61333465576172
 30
0.0
 11
174.79432678222656
 21
123.99433135986328
 31
0.0
  0
LINE
  5
55
  8
SMALL_FEATURE
 10
174.79432678222656
 20
123.99433135986328
 30
0.0
 11
177.5883331298828
 21
123.99433135986328
 31
0.0
  0
LINE
  5
56
  8
SMALL_FEATURE
 10
177.5883331298828
 20
123.99433135986328
 30
0.0
 11
177.6306610107422
 21
115.9086685180664
 31
0.0
  0
LINE
  5
57
  8
SMALL_FEATURE
 10
177.6306610107422
 20
115.9086685180664
 30
0.0
 11
174.87899780273438
 21
116.28966522216797
 31
0.0
  0
LINE
  5
58
  8
SMALL_FEATURE
 10
174.87899780273438
 20
116.28966522216797
 30
0.0
 11
174.7519989013672
 21
115.9086685180664
 31
0.0
  0
LINE
  5
59
  8
SMALL_FEATURE
 10
174.7519989013672
 20
115.9086685180664
 30
0.0
 11
162.6023406982422
 21
115.9086685180664
 31
0.0
  0
LINE
  5
5A
  8
SMALL_FEATURE
 10
162.6023406982422
 20
115.9086685180664
 30
0.0
 11
162.47532653808594
 21
116.28966522216797
 31
0.0
  0
LINE
  5
5B
  8
SMALL_FEATURE
 10
162.47532653808594
 20
116.28966522216797
 30
0.0
 11
159.76600646972656
 21
115.8663330078125
 31
0.0
  0
LINE
  5
5C
  8
SMALL_FEATURE
 10
159.76600646972656
 20
115.8663330078125
 30
0.0
 11
159.72366333007812
 21
123.9520034790039
 31
0.0
  0
LINE
  5
5D
  8
SMALL_FEATURE
 10
161.84033203125
 20
159.68133544921875
 30
0.0
 11
165.31166076660156
 21
160.6126708984375
 31
0.0
  0
LINE
  5
5E
  8
SMALL_FEATURE
 10
165.31166076660156
 20
160.6126708984375
 30
0.0
 11
165.77732849121094
 21
160.2740020751953
 31
0.0
  0
LINE
  5
5F
  8
SMALL_FEATURE
 10
165.77732849121094
 20
160.2740020751953
 30
0.0
 11
168.40199279785156
 21
160.90899658203125
 31
0.0
  0
LINE
  5
60
  8
SMALL_FEATURE
 10
168.40199279785156
 20
160.90899658203125
 30
0.0
 11
171.57699584960938
 21
160.2740020751953
 31
0.0
  0
LINE
  5
61
  8
SMALL_FEATURE
 10
171.57699584960938
 20
160.2740020751953
 30
0.0
 11
172.04266357421875
 21
160.6126708984375
 31
0.0
  0
LINE
  5
62
  8
SMALL_FEATURE
 10
172.04266357421875
 20
160.6126708984375
 30
0.0
 11
175.47166442871094
 21
159.72366333007812
 31
0.0
  0
LINE
  5
63
  8
SMALL_FEATURE
 10
175.47166442871094
 20
159.72366333007812
 30
0.0
 11
175.59866333007812
 21
152.6963348388672
 31
0.0
  0
LINE
  5
64
  8
SMALL_FEATURE
 10
175.59866333007812
 20
152.6963348388672
 30
0.0
 11
172.93167114257812
 21
153.03500366210938
 31
0.0
  0
LINE
  5
65
  8
SMALL_FEATURE
 10
172.93167114257812
 20
153.03500366210938
 30
0.0
 11
172.8893280029297
 21
152.6540069580078
 31
0.0
  0
LINE
  5
66
  8
SMALL_FEATURE
 10
172.8893280029297
 20
152.6540069580078
 30
0.0
 11
164.63433837890625
 21
152.6540069580078
 31
0.0
  0
LINE
  5
67
  8
SMALL_FEATURE
 10
164.63433837890625
 20
152.6540069580078
 30
0.0
 11
164.50733947753906
 21
153.03500366210938
 31
0.0
  0
LINE
  5
68
  8
SMALL_FEATURE
 10
164.50733947753906
 20
153.03500366210938
 30
0.0
 11
161.79800415039062
 21
152.61166381835938
 31
0.0
  0
LINE
  5
69
  8
SMALL_FEATURE
 10
161.79800415039062
 20
152.61166381835938
 30
0.0
 11
161.84033203125
 21
159.68133544921875
 31
0.0
  0
LINE
  5
6A
  8
SMALL_FEATURE
 10
161.7556610107422
 20
152.4423370361328
 30
0.0
 11
164.54966735839844
 21
152.06134033203125
 31
0.0
  0
LINE
  5
6B
  8
SMALL_FEATURE
 10
164.54966735839844
 20
152.06134033203125
 30
0.0
 11
164.63433837890625
 21
152.4423370361328
 31
0.0
  0
LINE
  5
6C
  8
SMALL_FEATURE
 10
164.63433837890625
 20
152.4423370361328
 30
0.0
 11
172.8893280029297
 21
152.4423370361328
 31
0.0
  0
LINE
  5
6D
  8
SMALL_FEATURE
 10
172.8893280029297
 20
152.4423370361328
 30
0.0
 11
172.93167114257812
 21
152.06134033203125
 31
0.0
  0
LINE
  5
6E
  8
SMALL_FEATURE
 10
172.93167114257812
 20
152.06134033203125
 30
0.0
 11
175.55633544921875
 21
152.4423370361328
 31
0.0
  0
LINE
  5
6F
  8
SMALL_FEATURE
 10
175.55633544921875
 20
152.4423370361328
 30
0.0
 11
175.68333435058594
 21
144.7376708984375
 31
0.0
  0
LINE
  5
70
  8
SMALL_FEATURE
 10
175.68333435058594
 20
144.7376708984375
 30
0.0
 11
174.79432678222656
 21
144.69532775878906
 31
0.0
  0
LINE
  5
71
  8
SMALL_FEATURE
 10
174.79432678222656
 20
144.69532775878906
 30
0.0
 11
174.66732788085938
 21
145.0763397216797
 31
0.0
  0
LINE
  5
72
  8
SMALL_FEATURE
 10
174.66732788085938
 20
145.0763397216797
 30
0.0
 11
171.8733367919922
 21
144.6529998779297
 31
0.0
  0
LINE
  5
73
  8
SMALL_FEATURE
 10
171.8733367919922
 20
144.6529998779297
 30
0.0
 11
171.70399475097656
 21
148.50534057617188
 31
0.0
  0
LINE
  5
74
  8
SMALL_FEATURE
 10
171.70399475097656
 20
148.50534057617188
 30
0.0
 11
171.57699584960938
 21
144.69532775878906
 31
0.0
  0
LINE
  5
75
  8
SMALL_FEATURE
 10
171.57699584960938
 20
144.69532775878906
 30
0.0
 11
165.77732849121094
 21
144.69532775878906
 31
0.0
  0
LINE
  5
76
  8
SMALL_FEATURE
 10
165.77732849121094
 20
144.69532775878906
 30
0.0
 11
165.60800170898438
 21
148.50534057617188
 31
0.0
  0
LINE
  5
77
  8
SMALL_FEATURE
 10
165.60800170898438
 20
148.50534057617188
 30
0.0
 11
165.4810028076172
 21
144.6529998779297
 31
0.0
  0
LINE
  5
78
  8
SMALL_FEATURE
 10
165.4810028076172
 20
144.6529998779297
 30
0.0
 11
162.68699645996094
 21
145.0763397216797
 31
0.0
  0
LINE
  5
79
  8
SMALL_FEATURE
 10
162.68699645996094
 20
145.0763397216797
 30
0.0
 11
162.55999755859375
 21
144.69532775878906
 31
0.0
  0
LINE
  5
7A
  8
SMALL_FEATURE
 10
162.55999755859375
 20
144.69532775878906
 30
0.0
 11
161.7133331298828
 21
144.69532775878906
 31
0.0
  0
LINE
  5
7B
  8
SMALL_FEATURE
 10
161.7133331298828
 20
144.69532775878906
 30
0.0
 11
161.7556610107422
 21
152.4423370361328
 31
0.0
  0
LINE
  5
7C
  8
SMALL_FEATURE
 10
185.29299926757812
 20
24.299333572387695
 30
0.0
 11
198.7550048828125
 21
24.34166717529297
 31
0.0
  0
LINE
  5
7D
  8
SMALL_FEATURE
 10
198.7550048828125
 20
24.34166717529297
 30
0.0
 11
198.79733276367188
 21
17.82233238220215
 31
0.0
  0
LINE
  5
7E
  8
SMALL_FEATURE
 10
198.79733276367188
 20
17.82233238220215
 30
0.0
 11
185.3353271484375
 21
17.780000686645508
 31
0.0
  0
LINE
  5
7F
  8
SMALL_FEATURE
 10
185.3353271484375
 20
17.780000686645508
 30
0.0
 11
185.29299926757812
 21
24.299333572387695
 31
0.0
  0
LINE
  5
80
  8
SMALL_FEATURE
 10
177.67300415039062
 20
137.62567138671875
 30
0.0
 11
177.67300415039062
 21
134.66233825683594
 31
0.0
  0
LINE
  5
81
  8
SMALL_FEATURE
 10
177.67300415039062
 20
134.66233825683594
 30
0.0
 11
176.1913299560547
 21
134.53533935546875
 31
0.0
  0
LINE
  5
82
  8
SMALL_FEATURE
 10
176.1913299560547
 20
134.53533935546875
 30
0.0
 11
177.67300415039062
 21
134.36599731445312
 31
0.0
  0
LINE
  5
83
  8
SMALL_FEATURE
 10
177.67300415039062
 20
134.36599731445312
 30
0.0
 11
177.5883331298828
 21
132.92666625976562
 31
0.0
  0
LINE
  5
84
  8
SMALL_FEATURE
 10
177.5883331298828
 20
132.92666625976562
 30
0.0
 11
176.6146697998047
 21
131.9530029296875
 31
0.0
  0
LINE
  5
85
  8
SMALL_FEATURE
 10
176.6146697998047
 20
131.9530029296875
 30
0.0
 11
160.65499877929688
 21
131.99533081054688
 31
0.0
  0
LINE
  5
86
  8
SMALL_FEATURE
 10
160.65499877929688
 20
131.99533081054688
 30
0.0
 11
159.76600646972656
 21
132.92666625976562
 31
0.0
  0
LINE
  5
87
  8
SMALL_FEATURE
 10
159.76600646972656
 20
132.92666625976562
 30
0.0
 11
159.8506622314453
 21
137.62567138671875
 31
0.0
  0
LINE
  5
88
  8
SMALL_FEATURE
 10
159.8506622314453
 20
137.62567138671875
 30
0.0
 11
165.4810028076172
 21
137.7103271484375
 31
0.0
  0
LINE
  5
89
  8
SMALL_FEATURE
 10
165.4810028076172
 20
137.7103271484375
 30
0.0
 11
165.60800170898438
 21
134.06967163085938
 31
0.0
  0
LINE
  5
8A
  8
SMALL_FEATURE
 10
165.60800170898438
 20
134.06967163085938
 30
0.0
 11
171.746337890625
 21
134.06967163085938
 31
0.0
  0
LINE
  5
8B
  8
SMALL_FEATURE
 10
171.746337890625
 20
134.06967163085938
 30
0.0
 11
171.8733367919922
 21
137.7103271484375
 31
0.0
  0
LINE
  5
8C
  8
SMALL_FEATURE
 10
171.8733367919922
 20
137.7103271484375
 30
0.0
 11
177.67300415039062
 21
137.62567138671875
 31
0.0
  0
LINE
  5
8D
  8
SMALL_FEATURE
 10
173.2703399658203
 20
84.53966522216797
 30
0.0
 11
173.14332580566406
 21
78.35900115966797
 31
0.0
  0
LINE
  5
8E
  8
SMALL_FEATURE
 10
173.14332580566406
 20
78.35900115966797
 30
0.0
 11
172.72000122070312
 21
77.08899688720703
 31
0.0
  0
LINE
  5
8F
  8
SMALL_FEATURE
 10
172.72000122070312
 20
77.08899688720703
 30
0.0
 11
171.322998046875
 21
75.05699920654297
 31
0.0
  0
LINE
  5
90
  8
SMALL_FEATURE
 10
171.322998046875
 20
75.05699920654297
 30
0.0
 11
170.13766479492188
 21
73.95633697509766
 31
0.0
  0
LINE
  5
91
  8
SMALL_FEATURE
 10
170.13766479492188
 20
73.95633697509766
 30
0.0
 11
167.76699829101562
 21
72.89800262451172
 31
0.0
  0
LINE
  5
92
  8
SMALL_FEATURE
 10
167.76699829101562
 20
72.89800262451172
 30
0.0
 11
162.22132873535156
 21
72.22066497802734
 31
0.0
  0
LINE
  5
93
  8
SMALL_FEATURE
 10
162.22132873535156
 20
72.22066497802734
 30
0.0
 11
162.89866638183594
 21
74.71833038330078
 31
0.0
  0
LINE
  5
94
  8
SMALL_FEATURE
 10
162.89866638183594
 20
74.71833038330078
 30
0.0
 11
165.35400390625
 21
78.82466888427734
 31
0.0
  0
LINE
  5
95
  8
SMALL_FEATURE
 10
165.35400390625
 20
78.82466888427734
 30
0.0
 11
168.656005859375
 21
82.08433532714844
 31
0.0
  0
LINE
  5
96
  8
SMALL_FEATURE
 10
168.656005859375
 20
82.08433532714844
 30
0.0
 11
172.0850067138672
 21
84.1586685180664
 31
0.0
  0
LINE
  5
97
  8
SMALL_FEATURE
 10
172.0850067138672
 20
84.1586685180664
 30
0.0
 11
173.2703399658203
 21
84.53966522216797
 31
0.0
  0
LINE
  5
98
  8
SMALL_FEATURE
 10
88.05333709716797
 20
191.21966552734375
 30
0.0
 11
92.79467010498047
 21
191.17733764648438
 31
0.0
  0
LINE
  5
99
  8
SMALL_FEATURE
 10
92.79467010498047
 20
191.17733764648438
 30
0.0
 11
92.79467010498047
 21
176.02200317382812
 31
0.0
  0
LINE
  5
9A
  8
SMALL_FEATURE
 10
92.79467010498047
 20
176.02200317382812
 30
0.0
 11
88.05333709716797
 21
176.0643310546875
 31
0.0
  0
LINE
  5
9B
  8
SMALL_FEATURE
 10
88.05333709716797
 20
176.0643310546875
 30
0.0
 11
88.05333709716797
 21
191.21966552734375
 31
0.0
  0
LINE
  5
9C
  8
SMALL_FEATURE
 10
42.54499816894531
 20
204.7239990234375
 30
0.0
 11
42.79899978637695
 21
202.5226593017578
 31
0.0
  0
LINE
  5
9D
  8
SMALL_FEATURE
 10
42.79899978637695
 20
202.5226593017578
 30
0.0
 11
43.85733413696289
 21
200.82933044433594
 31
0.0
  0
LINE
  5
9E
  8
SMALL_FEATURE
 10
43.85733413696289
 20
200.82933044433594
 30
0.0
 11
45.720001220703125
 21
199.4323272705078
 31
0.0
  0
LINE
  5
9F
  8
SMALL_FEATURE
 10
45.720001220703125
 20
199.4323272705078
 30
0.0
 11
48.2599983215332
 21
198.71266174316406
 31
0.0
  0
LINE
  5
A0
  8
SMALL_FEATURE
 10
48.2599983215332
 20
198.71266174316406
 30
0.0
 11
50.884666442871094
 21
198.8820037841797
 31
0.0
  0
LINE
  5
A1
  8
SMALL_FEATURE
 10
50.884666442871094
 20
198.8820037841797
 30
0.0
 11
52.78966522216797
 21
199.60166931152344
 31
0.0
  0
LINE
  5
A2
  8
SMALL_FEATURE
 10
52.78966522216797
 20
199.60166931152344
 30
0.0
 11
54.948665618896484
 21
201.5489959716797
 31
0.0
  0
LINE
  5
A3
  8
SMALL_FEATURE
 10
54.948665618896484
 20
201.5489959716797
 30
0.0
 11
55.625999450683594
 21
203.53866577148438
 31
0.0
  0
LINE
  5
A4
  8
SMALL_FEATURE
 10
55.625999450683594
 20
203.53866577148438
 30
0.0
 11
55.625999450683594
 21
204.7239990234375
 31
0.0
  0
LINE
  5
A5
  8
SMALL_FEATURE
 10
55.625999450683594
 20
204.7239990234375
 30
0.0
 11
55.07566833496094
 21
205.18966674804688
 31
0.0
  0
LINE
  5
A6
  8
SMALL_FEATURE
 10
55.07566833496094
 20
205.18966674804688
 30
0.0
 11
43.095333099365234
 21
205.18966674804688
 31
0.0
  0
LINE
  5
A7
  8
SMALL_FEATURE
 10
43.095333099365234
 20
205.18966674804688
 30
0.0
 11
42.54499816894531
 21
204.7239990234375
 31
0.0
  0
LINE
  5
A8
  8
SMALL_FEATURE
 10
139.19200134277344
 20
200.02499389648438
 30
0.0
 11
145.92300415039062
 21
199.982666015625
 31
0.0
  0
LINE
  5
A9
  8
SMALL_FEATURE
 10
145.92300415039062
 20
199.982666015625
 30
0.0
 11
145.92300415039062
 21
189.35699462890625
 31
0.0
  0
LINE
  5
AA
  8
SMALL_FEATURE
 10
145.92300415039062
 20
189.35699462890625
 30
0.0
 11
145.58433532714844
 21
189.35699462890625
 31
0.0
  0
LINE
  5
AB
  8
SMALL_FEATURE
 10
145.58433532714844
 20
189.35699462890625
 30
0.0
 11
142.9596710205078
 21
191.68533325195312
 31
0.0
  0
LINE
  5
AC
  8
SMALL_FEATURE
 10
142.9596710205078
 20
191.68533325195312
 30
0.0
 11
141.98599243164062
 21
190.711669921875
 31
0.0
  0
LINE
  5
AD
  8
SMALL_FEATURE
 10
141.98599243164062
 20
190.711669921875
 30
0.0
 11
141.6473388671875
 21
190.711669921875
 31
0.0
  0
LINE
  5
AE
  8
SMALL_FEATURE
 10
141.6473388671875
 20
190.711669921875
 30
0.0
 11
139.14967346191406
 21
192.91299438476562
 31
0.0
  0
LINE
  5
AF
  8
SMALL_FEATURE
 10
139.14967346191406
 20
192.91299438476562
 30
0.0
 11
139.19200134277344
 21
200.02499389648438
 31
0.0
  0
LINE
  5
B0
  8
SMALL_FEATURE
 10
185.29299926757812
 20
17.525999069213867
 30
0.0
 11
198.7550048828125
 21
17.56833267211914
 31
0.0
  0
LINE
  5
B1
  8
SMALL_FEATURE
 10
198.7550048828125
 20
17.56833267211914
 30
0.0
 11
198.79733276367188
 21
13.58899974822998
 31
0.0
  0
LINE
  5
B2
  8
SMALL_FEATURE
 10
198.79733276367188
 20
13.58899974822998
 30
0.0
 11
185.3353271484375
 21
13.546667098999023
 31
0.0
  0
LINE
  5
B3
  8
SMALL_FEATURE
 10
185.3353271484375
 20
13.546667098999023
 30
0.0
 11
185.29299926757812
 21
17.525999069213867
 31
0.0
  0
LINE
  5
B4
  8
SMALL_FEATURE
 10
185.29299926757812
 20
13.2926664352417
 30
0.0
 11
198.7550048828125
 21
13.335000038146973
 31
0.0
  0
LINE
  5
B5
  8
SMALL_FEATURE
 10
198.7550048828125
 20
13.335000038146973
 30
0.0
 11
198.79733276367188
 21
9.440333366394043
 31
0.0
  0
LINE
  5
B6
  8
SMALL_FEATURE
 10
198.79733276367188
 20
9.440333366394043
 30
0.0
 11
185.3353271484375
 21
9.39799976348877
 31
0.0
  0
LINE
  5
B7
  8
SMALL_FEATURE
 10
185.3353271484375
 20
9.39799976348877
 30
0.0
 11
185.29299926757812
 21
13.2926664352417
 31
0.0
  0
LINE
  5
B8
  8
SMALL_FEATURE
 10
178.43499755859375
 20
95.71566772460938
 30
0.0
 11
178.4773406982422
 21
86.19066619873047
 31
0.0
  0
LINE
  5
B9
  8
SMALL_FEATURE
 10
178.4773406982422
 20
86.19066619873047
 30
0.0
 11
176.99566650390625
 21
86.23300170898438
 31
0.0
  0
LINE
  5
BA
  8
SMALL_FEATURE
 10
176.99566650390625
 20
86.23300170898438
 30
0.0
 11
176.86866760253906
 21
85.8096694946289
 31
0.0
  0
LINE
  5
BB
  8
SMALL_FEATURE
 10
176.86866760253906
 20
85.8096694946289
 30
0.0
 11
173.3973388671875
 21
85.00533294677734
 31
0.0
  0
LINE
  5
BC
  8
SMALL_FEATURE
 10
173.3973388671875
 20
85.00533294677734
 30
0.0
 11
173.35499572753906
 21
92.66766357421875
 31
0.0
  0
LINE
  5
BD
  8
SMALL_FEATURE
 10
173.35499572753906
 20
92.66766357421875
 30
0.0
 11
175.64100646972656
 21
95.67333221435547
 31
0.0
  0
LINE
  5
BE
  8
SMALL_FEATURE
 10
175.64100646972656
 20
95.67333221435547
 30
0.0
 11
176.0643310546875
 21
95.67333221435547
 31
0.0
  0
LINE
  5
BF
  8
SMALL_FEATURE
 10
176.0643310546875
 20
95.67333221435547
 30
0.0
 11
177.33433532714844
 21
94.69966888427734
 31
0.0
  0
LINE
  5
C0
  8
SMALL_FEATURE
 10
177.33433532714844
 20
94.69966888427734
 30
0.0
 11
178.09632873535156
 21
95.71566772460938
 31
0.0
  0
LINE
  5
C1
  8
SMALL_FEATURE
 10
178.09632873535156
 20
95.71566772460938
 30
0.0
 11
178.43499755859375
 21
95.71566772460938
 31
0.0
  0
LINE
  5
C2
  8
SMALL_FEATURE
 10
42.79899978637695
 20
203.496337890625
 30
0.0
 11
55.32966613769531
 21
203.53866577148438
 31
0.0
  0
LINE
  5
C3
  8
SMALL_FEATURE
 10
55.32966613769531
 20
203.53866577148438
 30
0.0
 11
55.37200164794922
 21
203.03067016601562
 31
0.0
  0
LINE
  5
C4
  8
SMALL_FEATURE
 10
55.37200164794922
 20
203.03067016601562
 30
0.0
 11
54.8216667175293
 21
201.59133911132812
 31
0.0
  0
LINE
  5
C5
  8
SMALL_FEATURE
 10
54.8216667175293
 20
201.59133911132812
 30
0.0
 11
52.62033462524414
 21
199.6439971923828
 31
0.0
  0
LINE
  5
C6
  8
SMALL_FEATURE
 10
52.62033462524414
 20
199.6439971923828
 30
0.0
 11
51.09633255004883
 21
199.05133056640625
 31
0.0
  0
LINE
  5
C7
  8
SMALL_FEATURE
 10
51.09633255004883
 20
199.05133056640625
 30
0.0
 11
48.2599983215332
 21
198.83966064453125
 31
0.0
  0
LINE
  5
C8
  8
SMALL_FEATURE
 10
48.2599983215332
 20
198.83966064453125
 30
0.0
 11
46.8206672668457
 21
199.0936737060547
 31
0.0
  0
LINE
  5
C9
  8
SMALL_FEATURE
 10
46.8206672668457
 20
199.0936737060547
 30
0.0
 11
44.365333557128906
 21
200.49066162109375
 31
0.0
  0
LINE
  5
CA
  8
SMALL_FEATURE
 10
44.365333557128906
 20
200.49066162109375
 30
0.0
 11
43.349334716796875
 21
201.59133911132812
 31
0.0
  0
LINE
  5
CB
  8
SMALL_FEATURE
 10
43.349334716796875
 20
201.59133911132812
 30
0.0
 11
42.79899978637695
 21
203.496337890625
 31
0.0
  0
LINE
  5
CC
  8
SMALL_FEATURE
 10
88.09566497802734
 20
175.81033325195312
 30
0.0
 11
92.83699798583984
 21
175.76800537109375
 31
0.0
  0
LINE
  5
CD
  8
SMALL_FEATURE
 10
92.83699798583984
 20
175.76800537109375
 30
0.0
 11
92.75233459472656
 21
166.3699951171875
 31
0.0
  0
LINE
  5
CE
  8
SMALL_FEATURE
 10
92.75233459472656
 20
166.3699951171875
 30
0.0
 11
88.09566497802734
 21
166.41233825683594
 31
0.0
  0
LINE
  5
CF
  8
SMALL_FEATURE
 10
88.09566497802734
 20
166.41233825683594
 30
0.0
 11
88.09566497802734
 21
175.81033325195312
 31
0.0
  0
LINE
  5
D0
  8
SMALL_FEATURE
 10
88.13800048828125
 20
166.15834045410156
 30
0.0
 11
92.83699798583984
 21
166.11599731445312
 31
0.0
  0
LINE
  5
D1
  8
SMALL_FEATURE
 10
92.83699798583984
 20
166.11599731445312
 30
0.0
 11
92.79467010498047
 21
156.7603302001953
 31
0.0
  0
LINE
  5
D2
  8
SMALL_FEATURE
 10
92.79467010498047
 20
156.7603302001953
 30
0.0
 11
89.95833587646484
 21
157.1836700439453
 31
0.0
  0
LINE
  5
D3
  8
SMALL_FEATURE
 10
89.95833587646484
 20
157.1836700439453
 30
0.0
 11
89.83133697509766
 21
156.80267333984375
 31
0.0
  0
LINE
  5
D4
  8
SMALL_FEATURE
 10
89.83133697509766
 20
156.80267333984375
 30
0.0
 11
88.09566497802734
 21
156.84500122070312
 31
0.0
  0
LINE
  5
D5
  8
SMALL_FEATURE
 10
88.09566497802734
 20
156.84500122070312
 30
0.0
 11
88.13800048828125
 21
166.15834045410156
 31
0.0
  0
LINE
  5
D6
  8
SMALL_FEATURE
 10
30.183666229248047
 20
146.0500030517578
 30
0.0
 11
28.194000244140625
 21
143.72166442871094
 31
0.0
  0
LINE
  5
D7
  8
SMALL_FEATURE
 10
28.194000244140625
 20
143.72166442871094
 30
0.0
 11
27.17799949645996
 21
140.84300231933594
 31
0.0
  0
LINE
  5
D8
  8
SMALL_FEATURE
 10
27.17799949645996
 20
140.84300231933594
 30
0.0
 11
26.923999786376953
 21
139.19200134277344
 31
0.0
  0
LINE
  5
D9
  8
SMALL_FEATURE
 10
26.923999786376953
 20
139.19200134277344
 30
0.0
 11
33.44333267211914
 21
139.14967346191406
 31
0.0
  0
LINE
  5
DA
  8
SMALL_FEATURE
 10
33.44333267211914
 20
139.14967346191406
 30
0.0
 11
33.31633377075195
 21
140.84300231933594
 31
0.0
  0
LINE
  5
DB
  8
SMALL_FEATURE
 10
33.31633377075195
 20
140.84300231933594
 30
0.0
 11
32.257999420166016
 21
143.63699340820312
 31
0.0
  0
LINE
  5
DC
  8
SMALL_FEATURE
 10
32.257999420166016
 20
143.63699340820312
 30
0.0
 11
30.183666229248047
 21
146.0500030517578
 31
0.0
  0
LINE
  5
DD
  8
SMALL_FEATURE
 10
30.05666732788086
 20
145.58433532714844
 30
0.0
 11
30.479999542236328
 21
145.54200744628906
 31
0.0
  0
LINE
  5
DE
  8
SMALL_FEATURE
 10
30.479999542236328
 20
145.54200744628906
 30
0.0
 11
32.00400161743164
 21
143.63699340820312
 31
0.0
  0
LINE
  5
DF
  8
SMALL_FEATURE
 10
32.00400161743164
 20
143.63699340820312
 30
0.0
 11
33.06233215332031
 21
140.97000122070312
 31
0.0
  0
LINE
  5
E0
  8
SMALL_FEATURE
 10
33.06233215332031
 20
140.97000122070312
 30
0.0
 11
33.189334869384766
 21
139.361328125
 31
0.0
  0
LINE
  5
E1
  8
SMALL_FEATURE
 10
33.189334869384766
 20
139.361328125
 30
0.0
 11
27.220333099365234
 21
139.40367126464844
 31
0.0
  0
LINE
  5
E2
  8
SMALL_FEATURE
 10
27.220333099365234
 20
139.40367126464844
 30
0.0
 11
27.43199920654297
 21
140.97000122070312
 31
0.0
  0
LINE
  5
E3
  8
SMALL_FEATURE
 10
27.43199920654297
 20
140.97000122070312
 30
0.0
 11
28.320999145507812
 21
143.46766662597656
 31
0.0
  0
LINE
  5
E4
  8
SMALL_FEATURE
 10
28.320999145507812
 20
143.46766662597656
 30
0.0
 11
30.05666732788086
 21
145.58433532714844
 31
0.0
  0
LINE
  5
E5
  8
SMALL_FEATURE
 10
177.8000030517578
 20
137.62567138671875
 30
0.0
 11
181.1443328857422
 21
137.16000366210938
 31
0.0
  0
LINE
  5
E6
  8
SMALL_FEATURE
 10
181.1443328857422
 20
137.16000366210938
 30
0.0
 11
183.684326171875
 21
136.31333923339844
 31
0.0
  0
LINE
  5
E7
  8
SMALL_FEATURE
 10
183.684326171875
 20
136.31333923339844
 30
0.0
 11
186.0973358154297
 21
135.0433349609375
 31
0.0
  0
LINE
  5
E8
  8
SMALL_FEATURE
 10
186.0973358154297
 20
135.0433349609375
 30
0.0
 11
186.13966369628906
 21
134.66233825683594
 31
0.0
  0
LINE
  5
E9
  8
SMALL_FEATURE
 10
186.13966369628906
 20
134.66233825683594
 30
0.0
 11
177.8423309326172
 21
134.6199951171875
 31
0.0
  0
LINE
  5
EA
  8
SMALL_FEATURE
 10
177.8423309326172
 20
134.6199951171875
 30
0.0
 11
177.8000030517578
 21
137.62567138671875
 31
0.0
  0
LINE
  5
EB
  8
SMALL_FEATURE
 10
169.37567138671875
 20
111.97166442871094
 30
0.0
 11
169.29100036621094
 21
111.54833221435547
 31
0.0
  0
LINE
  5
EC
  8
SMALL_FEATURE
 10
169.29100036621094
 20
111.54833221435547
 30
0.0
 11
163.19500732421875
 21
107.69599914550781
 31
0.0
  0
LINE
  5
ED
  8
SMALL_FEATURE
 10
163.19500732421875
 20
107.69599914550781
 30
0.0
 11
162.77166748046875
 21
107.69599914550781
 31
0.0
  0
LINE
  5
EE
  8
SMALL_FEATURE
 10
162.77166748046875
 20
107.69599914550781
 30
0.0
 11
161.7556610107422
 21
108.66967010498047
 31
0.0
  0
LINE
  5
EF
  8
SMALL_FEATURE
 10
161.7556610107422
 20
108.66967010498047
 30
0.0
 11
161.7556610107422
 21
109.00833129882812
 31
0.0
  0
LINE
  5
F0
  8
SMALL_FEATURE
 10
161.7556610107422
 20
109.00833129882812
 30
0.0
 11
162.77166748046875
 21
109.93966674804688
 31
0.0
  0
LINE
  5
F1
  8
SMALL_FEATURE
 10
162.77166748046875
 20
109.93966674804688
 30
0.0
 11
165.35400390625
 21
111.46366882324219
 31
0.0
  0
LINE
  5
F2
  8
SMALL_FEATURE
 10
165.35400390625
 20
111.46366882324219
 30
0.0
 11
167.08966064453125
 21
111.92933654785156
 31
0.0
  0
LINE
  5
F3
  8
SMALL_FEATURE
 10
167.08966064453125
 20
111.92933654785156
 30
0.0
 11
169.37567138671875
 21
111.97166442871094
 31
0.0
  0
LINE
  5
F4
  8
SMALL_FEATURE
 10
93.00633239746094
 20
166.2429962158203
 30
0.0
 11
94.36100006103516
 21
166.0313262939453
 31
0.0
  0
LINE
  5
F5
  8
SMALL_FEATURE
 10
94.36100006103516
 20
166.0313262939453
 30
0.0
 11
94.36100006103516
 21
156.80267333984375
 31
0.0
  0
LINE
  5
F6
  8
SMALL_FEATURE
 10
94.36100006103516
 20
156.80267333984375
 30
0.0
 11
93.00633239746094
 21
156.84500122070312
 31
0.0
  0
LINE
  5
F7
  8
SMALL_FEATURE
 10
93.00633239746094
 20
156.84500122070312
 30
0.0
 11
93.00633239746094
 21
166.2429962158203
 31
0.0
  0
LINE
  5
F8
  8
SMALL_FEATURE
 10
94.31866455078125
 20
175.81033325195312
 30
0.0
 11
94.36100006103516
 21
166.53933715820312
 31
0.0
  0
LINE
  5
F9
  8
SMALL_FEATURE
 10
94.36100006103516
 20
166.53933715820312
 30
0.0
 11
93.04866790771484
 21
166.32766723632812
 31
0.0
  0
LINE
  5
FA
  8
SMALL_FEATURE
 10
93.04866790771484
 20
166.32766723632812
 30
0.0
 11
92.96399688720703
 21
175.76800537109375
 31
0.0
  0
LINE
  5
FB
  8
SMALL_FEATURE
 10
92.96399688720703
 20
175.76800537109375
 30
0.0
 11
94.31866455078125
 21
175.81033325195312
 31
0.0
  0
LINE
  5
FC
  8
SMALL_FEATURE
 10
183.47267150878906
 20
137.66799926757812
 30
0.0
 11
189.61099243164062
 21
137.7103271484375
 31
0.0
  0
LINE
  5
FD
  8
SMALL_FEATURE
 10
189.61099243164062
 20
137.7103271484375
 30
0.0
 11
189.65333557128906
 21
134.66233825683594
 31
0.0
  0
LINE
  5
FE
  8
SMALL_FEATURE
 10
189.65333557128906
 20
134.66233825683594
 30
0.0
 11
188.04466247558594
 21
134.6199951171875
 31
0.0
  0
LINE
  5
FF
  8
SMALL_FEATURE
 10
188.04466247558594
 20
134.6199951171875
 30
0.0
 11
187.621337890625
 21
134.9586639404297
 31
0.0
  0
LINE
  5
100
  8
SMALL_FEATURE
 10
187.621337890625
 20
134.9586639404297
 30
0.0
 11
187.87533569335938
 21
135.46665954589844
 31
0.0
  0
LINE
  5
101
  8
SMALL_FEATURE
 10
187.87533569335938
 20
135.46665954589844
 30
0.0
 11
186.986328125
 21
135.46665954589844
 31
0.0
  0
LINE
  5
102
  8
SMALL_FEATURE
 10
186.986328125
 20
135.46665954589844
 30
0.0
 11
183.51499938964844
 21
137.28700256347656
 31
0.0
  0
LINE
  5
103
  8
SMALL_FEATURE
 10
183.51499938964844
 20
137.28700256347656
 30
0.0
 11
183.47267150878906
 21
137.66799926757812
 31
0.0
  0
LINE
  5
104
  8
SMALL_FEATURE
 10
156.8873291015625
 20
137.66799926757812
 30
0.0
 11
156.84500122070312
 21
137.28700256347656
 31
0.0
  0
LINE
  5
105
  8
SMALL_FEATURE
 10
156.84500122070312
 20
137.28700256347656
 30
0.0
 11
153.07733154296875
 21
136.10166931152344
 31
0.0
  0
LINE
  5
106
  8
SMALL_FEATURE
 10
153.07733154296875
 20
136.10166931152344
 30
0.0
 11
148.7169952392578
 21
133.22300720214844
 31
0.0
  0
LINE
  5
107
  8
SMALL_FEATURE
 10
148.7169952392578
 20
133.22300720214844
 30
0.0
 11
146.76966857910156
 21
131.02166748046875
 31
0.0
  0
LINE
  5
108
  8
SMALL_FEATURE
 10
146.76966857910156
 20
131.02166748046875
 30
0.0
 11
144.27200317382812
 21
127.0423355102539
 31
0.0
  0
LINE
  5
109
  8
SMALL_FEATURE
 10
144.27200317382812
 20
127.0423355102539
 30
0.0
 11
143.84866333007812
 21
127.0423355102539
 31
0.0
  0
LINE
  5
10A
  8
SMALL_FEATURE
 10
143.84866333007812
 20
127.0423355102539
 30
0.0
 11
144.77999877929688
 21
129.11666870117188
 31
0.0
  0
LINE
  5
10B
  8
SMALL_FEATURE
 10
144.77999877929688
 20
129.11666870117188
 30
0.0
 11
146.388671875
 21
131.57200622558594
 31
0.0
  0
LINE
  5
10C
  8
SMALL_FEATURE
 10
146.388671875
 20
131.57200622558594
 30
0.0
 11
150.45266723632812
 21
135.50900268554688
 31
0.0
  0
LINE
  5
10D
  8
SMALL_FEATURE
 10
150.45266723632812
 20
135.50900268554688
 30
0.0
 11
153.07733154296875
 21
137.0330047607422
 31
0.0
  0
LINE
  5
10E
  8
SMALL_FEATURE
 10
153.07733154296875
 20
137.0330047607422
 30
0.0
 11
154.77066040039062
 21
137.62567138671875
 31
0.0
  0
LINE
  5
10F
  8
SMALL_FEATURE
 10
154.77066040039062
 20
137.62567138671875
 30
0.0
 11
156.8873291015625
 21
137.66799926757812
 31
0.0
  0
LINE
  5
110
  8
SMALL_FEATURE
 10
31.91933250427246
 20
211.2433319091797
 30
0.0
 11
31.834667205810547
 21
208.1106719970703
 31
0.0
  0
LINE
  5
111
  8
SMALL_FEATURE
 10
31.834667205810547
 20
208.1106719970703
 30
0.0
 11
31.45366668701172
 21
208.06832885742188
 31
0.0
  0
LINE
  5
112
  8
SMALL_FEATURE
 10
31.45366668701172
 20
208.06832885742188
 30
0.0
 11
31.87700080871582
 21
205.2743377685547
 31
0.0
  0
LINE
  5
113
  8
SMALL_FEATURE
 10
31.87700080871582
 20
205.2743377685547
 30
0.0
 11
28.109333038330078
 21
205.1473388671875
 31
0.0
  0
LINE
  5
114
  8
SMALL_FEATURE
 10
28.109333038330078
 20
205.1473388671875
 30
0.0
 11
31.834667205810547
 21
204.97799682617188
 31
0.0
  0
LINE
  5
115
  8
SMALL_FEATURE
 10
31.834667205810547
 20
204.97799682617188
 30
0.0
 11
31.834667205810547
 21
198.83966064453125
 31
0.0
  0
LINE
  5
116
  8
SMALL_FEATURE
 10
31.834667205810547
 20
198.83966064453125
 30
0.0
 11
28.109333038330078
 21
198.6703338623047
 31
0.0
  0
LINE
  5
117
  8
SMALL_FEATURE
 10
28.109333038330078
 20
198.6703338623047
 30
0.0
 11
31.87700080871582
 21
198.5433349609375
 31
0.0
  0
LINE
  5
118
  8
SMALL_FEATURE
 10
31.87700080871582
 20
198.5433349609375
 30
0.0
 11
31.45366668701172
 21
195.74932861328125
 31
0.0
  0
LINE
  5
119
  8
SMALL_FEATURE
 10
31.45366668701172
 20
195.74932861328125
 30
0.0
 11
31.834667205810547
 21
195.70700073242188
 31
0.0
  0
LINE
  5
11A
  8
SMALL_FEATURE
 10
31.834667205810547
 20
195.70700073242188
 30
0.0
 11
31.961666107177734
 21
192.5743408203125
 31
0.0
  0
LINE
  5
11B
  8
SMALL_FEATURE
 10
31.961666107177734
 20
192.5743408203125
 30
0.0
 11
32.04633331298828
 21
195.70700073242188
 31
0.0
  0
LINE
  5
11C
  8
SMALL_FEATURE
 10
32.04633331298828
 20
195.70700073242188
 30
0.0
 11
32.42733383178711
 21
195.74932861328125
 31
0.0
  0
LINE
  5
11D
  8
SMALL_FEATURE
 10
32.42733383178711
 20
195.74932861328125
 30
0.0
 11
32.00400161743164
 21
198.5433349609375
 31
0.0
  0
LINE
  5
11E
  8
SMALL_FEATURE
 10
32.00400161743164
 20
198.5433349609375
 30
0.0
 11
37.2956657409668
 21
198.6703338623047
 31
0.0
  0
LINE
  5
11F
  8
SMALL_FEATURE
 10
37.2956657409668
 20
198.6703338623047
 30
0.0
 11
32.04633331298828
 21
198.83966064453125
 31
0.0
  0
LINE
  5
120
  8
SMALL_FEATURE
 10
32.04633331298828
 20
198.83966064453125
 30
0.0
 11
32.04633331298828
 21
204.97799682617188
 31
0.0
  0
LINE
  5
121
  8
SMALL_FEATURE
 10
32.04633331298828
 20
204.97799682617188
 30
0.0
 11
38.650333404541016
 21
205.1473388671875
 31
0.0
  0
LINE
  5
122
  8
SMALL_FEATURE
 10
38.650333404541016
 20
205.1473388671875
 30
0.0
 11
32.04633331298828
 21
205.23199462890625
 31
0.0
  0
LINE
  5
123
  8
SMALL_FEATURE
 10
32.04633331298828
 20
205.23199462890625
 30
0.0
 11
32.42733383178711
 21
208.06832885742188
 31
0.0
  0
LINE
  5
124
  8
SMALL_FEATURE
 10
32.42733383178711
 20
208.06832885742188
 30
0.0
 11
32.04633331298828
 21
208.1106719970703
 31
0.0
  0
LINE
  5
125
  8
SMALL_FEATURE
 10
32.04633331298828
 20
208.1106719970703
 30
0.0
 11
31.91933250427246
 21
211.2433319091797
 31
0.0
  0
LINE
  5
126
  8
SMALL_FEATURE
 10
20.91266632080078
 20
130.302001953125
 30
0.0
 11
23.96066665649414
 21
130.1750030517578
 31
0.0
  0
LINE
  5
127
  8
SMALL_FEATURE
 10
23.96066665649414
 20
130.1750030517578
 30
0.0
 11
24.003000259399414
 21
129.79400634765625
 31
0.0
  0
LINE
  5
128
  8
SMALL_FEATURE
 10
24.003000259399414
 20
129.79400634765625
 30
0.0
 11
26.88166618347168
 21
130.2173309326172
 31
0.0
  0
LINE
  5
129
  8
SMALL_FEATURE
 10
26.88166618347168
 20
130.2173309326172
 30
0.0
 11
27.0086669921875
 21
126.36499786376953
 31
0.0
  0
LINE
  5
12A
  8
SMALL_FEATURE
 10
27.0086669921875
 20
126.36499786376953
 30
0.0
 11
27.17799949645996
 21
130.1750030517578
 31
0.0
  0
LINE
  5
12B
  8
SMALL_FEATURE
 10
27.17799949645996
 20
130.1750030517578
 30
0.0
 11
33.231666564941406
 21
130.1750030517578
 31
0.0
  0
LINE
  5
12C
  8
SMALL_FEATURE
 10
33.231666564941406
 20
130.1750030517578
 30
0.0
 11
33.4010009765625
 21
126.36499786376953
 31
0.0
  0
LINE
  5
12D
  8
SMALL_FEATURE
 10
33.4010009765625
 20
126.36499786376953
 30
0.0
 11
33.52799987792969
 21
130.2173309326172
 31
0.0
  0
LINE
  5
12E
  8
SMALL_FEATURE
 10
33.52799987792969
 20
130.2173309326172
 30
0.0
 11
36.40666580200195
 21
129.79400634765625
 31
0.0
  0
LINE
  5
12F
  8
SMALL_FEATURE
 10
36.40666580200195
 20
129.79400634765625
 30
0.0
 11
36.44900131225586
 21
130.1750030517578
 31
0.0
  0
LINE
  5
130
  8
SMALL_FEATURE
 10
36.44900131225586
 20
130.1750030517578
 30
0.0
 11
39.5816650390625
 21
130.25967407226562
 31
0.0
  0
LINE
  5
131
  8
SMALL_FEATURE
 10
39.5816650390625
 20
130.25967407226562
 30
0.0
 11
36.44900131225586
 21
130.3866729736328
 31
0.0
  0
LINE
  5
132
  8
SMALL_FEATURE
 10
36.44900131225586
 20
130.3866729736328
 30
0.0
 11
36.40666580200195
 21
130.76766967773438
 31
0.0
  0
LINE
  5
133
  8
SMALL_FEATURE
 10
36.40666580200195
 20
130.76766967773438
 30
0.0
 11
33.52799987792969
 21
130.34432983398438
 31
0.0
  0
LINE
  5
134
  8
SMALL_FEATURE
 10
33.52799987792969
 20
130.34432983398438
 30
0.0
 11
33.4010009765625
 21
134.87399291992188
 31
0.0
  0
LINE
  5
135
  8
SMALL_FEATURE
 10
33.4010009765625
 20
134.87399291992188
 30
0.0
 11
33.231666564941406
 21
130.3866729736328
 31
0.0
  0
LINE
  5
136
  8
SMALL_FEATURE
 10
33.231666564941406
 20
130.3866729736328
 30
0.0
 11
27.17799949645996
 21
130.3866729736328
 31
0.0
  0
LINE
  5
137
  8
SMALL_FEATURE
 10
27.17799949645996
 20
130.3866729736328
 30
0.0
 11
27.0086669921875
 21
134.87399291992188
 31
0.0
  0
LINE
  5
138
  8
SMALL_FEATURE
 10
27.0086669921875
 20
134.87399291992188
 30
0.0
 11
26.88166618347168
 21
130.34432983398438
 31
0.0
  0
LINE
  5
139
  8
SMALL_FEATURE
 10
26.88166618347168
 20
130.34432983398438
 30
0.0
 11
24.003000259399414
 21
130.76766967773438
 31
0.0
  0
LINE
  5
13A
  8
SMALL_FEATURE
 10
24.003000259399414
 20
130.76766967773438
 30
0.0
 11
23.96066665649414
 21
130.3866729736328
 31
0.0
  0
LINE
  5
13B
  8
SMALL_FEATURE
 10
23.96066665649414
 20
130.3866729736328
 30
0.0
 11
20.91266632080078
 21
130.302001953125
 31
0.0
  0
LINE
  5
13C
  8
SMALL_FEATURE
 10
189.86500549316406
 20
32.85066604614258
 30
0.0
 11
188.55267333984375
 21
32.85066604614258
 31
0.0
  0
LINE
  5
13D
  8
SMALL_FEATURE
 10
188.55267333984375
 20
32.85066604614258
 30
0.0
 11
188.00233459472656
 21
33.231666564941406
 31
0.0
  0
LINE
  5
13E
  8
SMALL_FEATURE
 10
188.00233459472656
 20
33.231666564941406
 30
0.0
 11
188.00233459472656
 21
33.69733428955078
 31
0.0
  0
LINE
  5
13F
  8
SMALL_FEATURE
 10
188.00233459472656
 20
33.69733428955078
 30
0.0
 11
187.66366577148438
 21
33.189334869384766
 31
0.0
  0
LINE
  5
140
  8
SMALL_FEATURE
 10
187.66366577148438
 20
33.189334869384766
 30
0.0
 11
187.197998046875
 21
33.189334869384766
 31
0.0
  0
LINE
  5
141
  8
SMALL_FEATURE
 10
187.197998046875
 20
33.189334869384766
 30
0.0
 11
187.36734008789062
 21
34.71333312988281
 31
0.0
  0
LINE
  5
142
  8
SMALL_FEATURE
 10
187.36734008789062
 20
34.71333312988281
 30
0.0
 11
186.3090057373047
 21
33.358665466308594
 31
0.0
  0
LINE
  5
143
  8
SMALL_FEATURE
 10
186.3090057373047
 20
33.358665466308594
 30
0.0
 11
184.1923370361328
 21
32.13100051879883
 31
0.0
  0
LINE
  5
144
  8
SMALL_FEATURE
 10
184.1923370361328
 20
32.13100051879883
 30
0.0
 11
183.34567260742188
 21
31.284334182739258
 31
0.0
  0
LINE
  5
145
  8
SMALL_FEATURE
 10
183.34567260742188
 20
31.284334182739258
 30
0.0
 11
183.0070037841797
 21
29.80266761779785
 31
0.0
  0
LINE
  5
146
  8
SMALL_FEATURE
 10
183.0070037841797
 20
29.80266761779785
 30
0.0
 11
183.85366821289062
 21
31.496000289916992
 31
0.0
  0
LINE
  5
147
  8
SMALL_FEATURE
 10
183.85366821289062
 20
31.496000289916992
 30
0.0
 11
185.37767028808594
 21
32.34266662597656
 31
0.0
  0
LINE
  5
148
  8
SMALL_FEATURE
 10
185.37767028808594
 20
32.34266662597656
 30
0.0
 11
186.13966369628906
 21
32.34266662597656
 31
0.0
  0
LINE
  5
149
  8
SMALL_FEATURE
 10
186.13966369628906
 20
32.34266662597656
 30
0.0
 11
185.37767028808594
 21
29.125333786010742
 31
0.0
  0
LINE
  5
14A
  8
SMALL_FEATURE
 10
185.37767028808594
 20
29.125333786010742
 30
0.0
 11
184.48866271972656
 21
26.71233367919922
 31
0.0
  0
LINE
  5
14B
  8
SMALL_FEATURE
 10
184.48866271972656
 20
26.71233367919922
 30
0.0
 11
184.0229949951172
 21
26.71233367919922
 31
0.0
  0
LINE
  5
14C
  8
SMALL_FEATURE
 10
184.0229949951172
 20
26.71233367919922
 30
0.0
 11
184.14999389648438
 21
28.40566635131836
 31
0.0
  0
LINE
  5
14D
  8
SMALL_FEATURE
 10
184.14999389648438
 20
28.40566635131836
 30
0.0
 11
184.6580047607422
 21
28.913665771484375
 31
0.0
  0
LINE
  5
14E
  8
SMALL_FEATURE
 10
184.6580047607422
 20
28.913665771484375
 30
0.0
 11
183.51499938964844
 21
28.066999435424805
 31
0.0
  0
LINE
  5
14F
  8
SMALL_FEATURE
 10
183.51499938964844
 20
28.066999435424805
 30
0.0
 11
181.99099731445312
 21
25.908000946044922
 31
0.0
  0
LINE
  5
150
  8
SMALL_FEATURE
 10
181.99099731445312
 20
25.908000946044922
 30
0.0
 11
183.34567260742188
 21
27.43199920654297
 31
0.0
  0
LINE
  5
151
  8
SMALL_FEATURE
 10
183.34567260742188
 20
27.43199920654297
 30
0.0
 11
183.85366821289062
 21
27.389667510986328
 31
0.0
  0
LINE
  5
152
  8
SMALL_FEATURE
 10
183.85366821289062
 20
27.389667510986328
 30
0.0
 11
183.51499938964844
 21
25.738666534423828
 31
0.0
  0
LINE
  5
153
  8
SMALL_FEATURE
 10
183.51499938964844
 20
25.738666534423828
 30
0.0
 11
183.684326171875
 21
26.246665954589844
 31
0.0
  0
LINE
  5
154
  8
SMALL_FEATURE
 10
183.684326171875
 20
26.246665954589844
 30
0.0
 11
184.48866271972656
 21
26.246665954589844
 31
0.0
  0
LINE
  5
155
  8
SMALL_FEATURE
 10
184.48866271972656
 20
26.246665954589844
 30
0.0
 11
185.8433380126953
 21
29.125333786010742
 31
0.0
  0
LINE
  5
156
  8
SMALL_FEATURE
 10
185.8433380126953
 20
29.125333786010742
 30
0.0
 11
186.69000244140625
 21
31.665332794189453
 31
0.0
  0
LINE
  5
157
  8
SMALL_FEATURE
 10
186.69000244140625
 20
31.665332794189453
 30
0.0
 11
187.3249969482422
 21
31.665332794189453
 31
0.0
  0
LINE
  5
158
  8
SMALL_FEATURE
 10
187.3249969482422
 20
31.665332794189453
 30
0.0
 11
187.70599365234375
 21
32.893001556396484
 31
0.0
  0
LINE
  5
159
  8
SMALL_FEATURE
 10
187.70599365234375
 20
32.893001556396484
 30
0.0
 11
188.89132690429688
 21
32.5543327331543
 31
0.0
  0
LINE
  5
15A
  8
SMALL_FEATURE
 10
188.89132690429688
 20
32.5543327331543
 30
0.0
 11
189.86500549316406
 21
32.5543327331543
 31
0.0
  0
LINE
  5
15B
  8
SMALL_FEATURE
 10
189.86500549316406
 20
32.5543327331543
 30
0.0
 11
189.86500549316406
 21
32.85066604614258
 31
0.0
  0
LINE
  5
15C
  8
SMALL_FEATURE
 10
171.6193389892578
 20
137.66799926757812
 30
0.0
 11
171.6193389892578
 21
137.11766052246094
 31
0.0
  0
LINE
  5
15D
  8
SMALL_FEATURE
 10
171.6193389892578
 20
137.11766052246094
 30
0.0
 11
171.02667236328125
 21
137.07533264160156
 31
0.0
  0
LINE
  5
15E
  8
SMALL_FEATURE
 10
171.02667236328125
 20
137.07533264160156
 30
0.0
 11
171.6193389892578
 21
136.8213348388672
 31
0.0
  0
LINE
  5
15F
  8
SMALL_FEATURE
 10
171.6193389892578
 20
136.8213348388672
 30
0.0
 11
171.57699584960938
 21
136.059326171875
 31
0.0
  0
LINE
  5
160
  8
SMALL_FEATURE
 10
171.57699584960938
 20
136.059326171875
 30
0.0
 11
170.17999267578125
 21
136.3979949951172
 31
0.0
  0
LINE
  5
161
  8
SMALL_FEATURE
 10
170.17999267578125
 20
136.3979949951172
 30
0.0
 11
170.51866149902344
 21
135.76300048828125
 31
0.0
  0
LINE
  5
162
  8
SMALL_FEATURE
 10
170.51866149902344
 20
135.76300048828125
 30
0.0
 11
170.13766479492188
 21
134.6199951171875
 31
0.0
  0
LINE
  5
163
  8
SMALL_FEATURE
 10
170.13766479492188
 20
134.6199951171875
 30
0.0
 11
169.37567138671875
 21
134.66233825683594
 31
0.0
  0
LINE
  5
164
  8
SMALL_FEATURE
 10
169.37567138671875
 20
134.66233825683594
 30
0.0
 11
169.37567138671875
 21
135.29733276367188
 31
0.0
  0
LINE
  5
165
  8
SMALL_FEATURE
 10
169.37567138671875
 20
135.29733276367188
 30
0.0
 11
169.71434020996094
 21
135.46665954589844
 31
0.0
  0
LINE
  5
166
  8
SMALL_FEATURE
 10
169.71434020996094
 20
135.46665954589844
 30
0.0
 11
168.5290069580078
 21
136.31333923339844
 31
0.0
  0
LINE
  5
167
  8
SMALL_FEATURE
 10
168.5290069580078
 20
136.31333923339844
 30
0.0
 11
167.72467041015625
 21
136.22866821289062
 31
0.0
  0
LINE
  5
168
  8
SMALL_FEATURE
 10
167.72467041015625
 20
136.22866821289062
 30
0.0
 11
168.48666381835938
 21
136.059326171875
 31
0.0
  0
LINE
  5
169
  8
SMALL_FEATURE
 10
168.48666381835938
 20
136.059326171875
 30
0.0
 11
168.3596649169922
 21
135.21266174316406
 31
0.0
  0
LINE
  5
16A
  8
SMALL_FEATURE
 10
168.3596649169922
 20
135.21266174316406
 30
0.0
 11
167.85166931152344
 21
135.21266174316406
 31
0.0
  0
LINE
  5
16B
  8
SMALL_FEATURE
 10
167.85166931152344
 20
135.21266174316406
 30
0.0
 11
167.76699829101562
 21
135.63600158691406
 31
0.0
  0
LINE
  5
16C
  8
SMALL_FEATURE
 10
167.76699829101562
 20
135.63600158691406
 30
0.0
 11
166.75100708007812
 21
136.31333923339844
 31
0.0
  0
LINE
  5
16D
  8
SMALL_FEATURE
 10
166.75100708007812
 20
136.31333923339844
 30
0.0
 11
166.53933715820312
 21
136.18634033203125
 31
0.0
  0
LINE
  5
16E
  8
SMALL_FEATURE
 10
166.53933715820312
 20
136.18634033203125
 30
0.0
 11
167.1320037841797
 21
135.67832946777344
 31
0.0
  0
LINE
  5
16F
  8
SMALL_FEATURE
 10
167.1320037841797
 20
135.67832946777344
 30
0.0
 11
167.1320037841797
 21
135.29733276367188
 31
0.0
  0
LINE
  5
170
  8
SMALL_FEATURE
 10
167.1320037841797
 20
135.29733276367188
 30
0.0
 11
165.90432739257812
 21
135.2550048828125
 31
0.0
  0
LINE
  5
171
  8
SMALL_FEATURE
 10
165.90432739257812
 20
135.2550048828125
 30
0.0
 11
165.77732849121094
 21
136.6943359375
 31
0.0
  0
LINE
  5
172
  8
SMALL_FEATURE
 10
165.77732849121094
 20
136.6943359375
 30
0.0
 11
167.25900268554688
 21
136.6943359375
 31
0.0
  0
LINE
  5
173
  8
SMALL_FEATURE
 10
167.25900268554688
 20
136.6943359375
 30
0.0
 11
168.5290069580078
 21
137.11766052246094
 31
0.0
  0
LINE
  5
174
  8
SMALL_FEATURE
 10
168.5290069580078
 20
137.11766052246094
 30
0.0
 11
170.05299377441406
 21
136.6943359375
 31
0.0
  0
LINE
  5
175
  8
SMALL_FEATURE
 10
170.05299377441406
 20
136.6943359375
 30
0.0
 11
170.05299377441406
 21
137.28700256347656
 31
0.0
  0
LINE
  5
176
  8
SMALL_FEATURE
 10
170.05299377441406
 20
137.28700256347656
 30
0.0
 11
171.6193389892578
 21
137.66799926757812
 31
0.0
  0
LINE
  5
177
  8
SMALL_FEATURE
 10
145.54200744628906
 20
73.49066925048828
 30
0.0
 11
145.45733642578125
 21
70.35800170898438
 31
0.0
  0
LINE
  5
178
  8
SMALL_FEATURE
 10
145.45733642578125
 20
70.35800170898438
 30
0.0
 11
145.0763397216797
 21
70.31566619873047
 31
0.0
  0
LINE
  5
179
  8
SMALL_FEATURE
 10
145.0763397216797
 20
70.31566619873047
 30
0.0
 11
145.49966430664062
 21
67.43699645996094
 31
0.0
  0
LINE
  5
17A
  8
SMALL_FEATURE
 10
145.49966430664062
 20
67.43699645996094
 30
0.0
 11
141.6473388671875
 21
67.30999755859375
 31
0.0
  0
LINE
  5
17B
  8
SMALL_FEATURE
 10
141.6473388671875
 20
67.30999755859375
 30
0.0
 11
145.45733642578125
 21
67.14066314697266
 31
0.0
  0
LINE
  5
17C
  8
SMALL_FEATURE
 10
145.45733642578125
 20
67.14066314697266
 30
0.0
 11
145.45733642578125
 21
63.20366668701172
 31
0.0
  0
LINE
  5
17D
  8
SMALL_FEATURE
 10
145.45733642578125
 20
63.20366668701172
 30
0.0
 11
141.6473388671875
 21
63.034332275390625
 31
0.0
  0
LINE
  5
17E
  8
SMALL_FEATURE
 10
141.6473388671875
 20
63.034332275390625
 30
0.0
 11
145.49966430664062
 21
62.90733337402344
 31
0.0
  0
LINE
  5
17F
  8
SMALL_FEATURE
 10
145.49966430664062
 20
62.90733337402344
 30
0.0
 11
145.0763397216797
 21
60.02866744995117
 31
0.0
  0
LINE
  5
180
  8
SMALL_FEATURE
 10
145.0763397216797
 20
60.02866744995117
 30
0.0
 11
145.45733642578125
 21
59.986331939697266
 31
0.0
  0
LINE
  5
181
  8
SMALL_FEATURE
 10
145.45733642578125
 20
59.986331939697266
 30
0.0
 11
145.58433532714844
 21
56.853668212890625
 31
0.0
  0
LINE
  5
182
  8
SMALL_FEATURE
 10
145.58433532714844
 20
56.853668212890625
 30
0.0
 11
145.66900634765625
 21
59.986331939697266
 31
0.0
  0
LINE
  5
183
  8
SMALL_FEATURE
 10
145.66900634765625
 20
59.986331939697266
 30
0.0
 11
146.0500030517578
 21
60.02866744995117
 31
0.0
  0
LINE
  5
184
  8
SMALL_FEATURE
 10
146.0500030517578
 20
60.02866744995117
 30
0.0
 11
145.6266632080078
 21
62.90733337402344
 31
0.0
  0
LINE
  5
185
  8
SMALL_FEATURE
 10
145.6266632080078
 20
62.90733337402344
 30
0.0
 11
147.2776641845703
 21
63.034332275390625
 31
0.0
  0
LINE
  5
186
  8
SMALL_FEATURE
 10
147.2776641845703
 20
63.034332275390625
 30
0.0
 11
145.66900634765625
 21
63.20366668701172
 31
0.0
  0
LINE
  5
187
  8
SMALL_FEATURE
 10
145.66900634765625
 20
63.20366668701172
 30
0.0
 11
145.66900634765625
 21
67.14066314697266
 31
0.0
  0
LINE
  5
188
  8
SMALL_FEATURE
 10
145.66900634765625
 20
67.14066314697266
 30
0.0
 11
147.36233520507812
 21
67.30999755859375
 31
0.0
  0
LINE
  5
189
  8
SMALL_FEATURE
 10
147.36233520507812
 20
67.30999755859375
 30
0.0
 11
145.6266632080078
 21
67.43699645996094
 31
0.0
  0
LINE
  5
18A
  8
SMALL_FEATURE
 10
145.6266632080078
 20
67.43699645996094
 30
0.0
 11
146.0500030517578
 21
70.31566619873047
 31
0.0
  0
LINE
  5
18B
  8
SMALL_FEATURE
 10
146.0500030517578
 20
70.31566619873047
 30
0.0
 11
145.66900634765625
 21
70.35800170898438
 31
0.0
  0
LINE
  5
18C
  8
SMALL_FEATURE
 10
145.66900634765625
 20
70.35800170898438
 30
0.0
 11
145.54200744628906
 21
73.49066925048828
 31
0.0
  0
LINE
  5
18D
  8
SMALL_FEATURE
 10
180.12832641601562
 20
81.66100311279297
 30
0.0
 11
182.96466064453125
 21
80.8566665649414
 31
0.0
  0
LINE
  5
18E
  8
SMALL_FEATURE
 10
182.96466064453125
 20
80.8566665649414
 30
0.0
 11
183.0070037841797
 21
81.11066436767578
 31
0.0
  0
LINE
  5
18F
  8
SMALL_FEATURE
 10
183.0070037841797
 20
81.11066436767578
 30
0.0
 11
186.35133361816406
 21
80.05233001708984
 31
0.0
  0
LINE
  5
190
  8
SMALL_FEATURE
 10
186.35133361816406
 20
80.05233001708984
 30
0.0
 11
189.1453399658203
 21
78.23200225830078
 31
0.0
  0
LINE
  5
191
  8
SMALL_FEATURE
 10
189.1453399658203
 20
78.23200225830078
 30
0.0
 11
190.96566772460938
 21
76.41166687011719
 31
0.0
  0
LINE
  5
192
  8
SMALL_FEATURE
 10
190.96566772460938
 20
76.41166687011719
 30
0.0
 11
193.33633422851562
 21
72.43233489990234
 31
0.0
  0
LINE
  5
193
  8
SMALL_FEATURE
 10
193.33633422851562
 20
72.43233489990234
 30
0.0
 11
193.8866729736328
 21
70.27333068847656
 31
0.0
  0
LINE
  5
194
  8
SMALL_FEATURE
 10
193.8866729736328
 20
70.27333068847656
 30
0.0
 11
193.59033203125
 21
70.23100280761719
 31
0.0
  0
LINE
  5
195
  8
SMALL_FEATURE
 10
193.59033203125
 20
70.23100280761719
 30
0.0
 11
194.30999755859375
 21
67.35233306884766
 31
0.0
  0
LINE
  5
196
  8
SMALL_FEATURE
 10
194.30999755859375
 20
67.35233306884766
 30
0.0
 11
194.56399536132812
 21
70.31566619873047
 31
0.0
  0
LINE
  5
197
  8
SMALL_FEATURE
 10
194.56399536132812
 20
70.31566619873047
 30
0.0
 11
194.18299865722656
 21
70.35800170898438
 31
0.0
  0
LINE
  5
198
  8
SMALL_FEATURE
 10
194.18299865722656
 20
70.35800170898438
 30
0.0
 11
193.5056610107422
 21
72.60166931152344
 31
0.0
  0
LINE
  5
199
  8
SMALL_FEATURE
 10
193.5056610107422
 20
72.60166931152344
 30
0.0
 11
191.00799560546875
 21
76.70800018310547
 31
0.0
  0
LINE
  5
19A
  8
SMALL_FEATURE
 10
191.00799560546875
 20
76.70800018310547
 30
0.0
 11
187.4943389892578
 21
79.71366882324219
 31
0.0
  0
LINE
  5
19B
  8
SMALL_FEATURE
 10
187.4943389892578
 20
79.71366882324219
 30
0.0
 11
185.3353271484375
 21
80.77200317382812
 31
0.0
  0
LINE
  5
19C
  8
SMALL_FEATURE
 10
185.3353271484375
 20
80.77200317382812
 30
0.0
 11
183.09165954589844
 21
81.40699768066406
 31
0.0
  0
LINE
  5
19D
  8
SMALL_FEATURE
 10
183.09165954589844
 20
81.40699768066406
 30
0.0
 11
183.04933166503906
 21
81.83032989501953
 31
0.0
  0
LINE
  5
19E
  8
SMALL_FEATURE
 10
183.04933166503906
 20
81.83032989501953
 30
0.0
 11
180.12832641601562
 21
81.66100311279297
 31
0.0
  0
LINE
  5
19F
  8
SMALL_FEATURE
 10
188.59500122070312
 20
81.61866760253906
 30
0.0
 11
188.7220001220703
 21
81.11066436767578
 31
0.0
  0
LINE
  5
1A0
  8
SMALL_FEATURE
 10
188.7220001220703
 20
81.11066436767578
 30
0.0
 11
189.48399353027344
 21
80.9836654663086
 31
0.0
  0
LINE
  5
1A1
  8
SMALL_FEATURE
 10
189.48399353027344
 20
80.9836654663086
 30
0.0
 11
189.61099243164062
 21
80.30633544921875
 31
0.0
  0
LINE
  5
1A2
  8
SMALL_FEATURE
 10
189.61099243164062
 20
80.30633544921875
 30
0.0
 11
190.288330078125
 21
80.17933654785156
 31
0.0
  0
LINE
  5
1A3
  8
SMALL_FEATURE
 10
190.288330078125
 20
80.17933654785156
 30
0.0
 11
190.07666015625
 21
79.62899780273438
 31
0.0
  0
LINE
  5
1A4
  8
SMALL_FEATURE
 10
190.07666015625
 20
79.62899780273438
 30
0.0
 11
190.75399780273438
 21
79.75599670410156
 31
0.0
  0
LINE
  5
1A5
  8
SMALL_FEATURE
 10
190.75399780273438
 20
79.75599670410156
 30
0.0
 11
190.92333984375
 21
79.163330078125
 31
0.0
  0
LINE
  5
1A6
  8
SMALL_FEATURE
 10
190.92333984375
 20
79.163330078125
 30
0.0
 11
191.7276611328125
 21
79.03633117675781
 31
0.0
  0
LINE
  5
1A7
  8
SMALL_FEATURE
 10
191.7276611328125
 20
79.03633117675781
 30
0.0
 11
191.98167419433594
 21
78.31666564941406
 31
0.0
  0
LINE
  5
1A8
  8
SMALL_FEATURE
 10
191.98167419433594
 20
78.31666564941406
 30
0.0
 11
192.74366760253906
 21
78.69766998291016
 31
0.0
  0
LINE
  5
1A9
  8
SMALL_FEATURE
 10
192.74366760253906
 20
78.69766998291016
 30
0.0
 11
193.63265991210938
 21
78.35900115966797
 31
0.0
  0
LINE
  5
1AA
  8
SMALL_FEATURE
 10
193.63265991210938
 20
78.35900115966797
 30
0.0
 11
193.63265991210938
 21
78.78233337402344
 31
0.0
  0
LINE
  5
1AB
  8
SMALL_FEATURE
 10
193.63265991210938
 20
78.78233337402344
 30
0.0
 11
193.0399932861328
 21
78.90933227539062
 31
0.0
  0
LINE
  5
1AC
  8
SMALL_FEATURE
 10
193.0399932861328
 20
78.90933227539062
 30
0.0
 11
192.87066650390625
 21
79.586669921875
 31
0.0
  0
LINE
  5
1AD
  8
SMALL_FEATURE
 10
192.87066650390625
 20
79.586669921875
 30
0.0
 11
192.10867309570312
 21
79.67133331298828
 31
0.0
  0
LINE
  5
1AE
  8
SMALL_FEATURE
 10
192.10867309570312
 20
79.67133331298828
 30
0.0
 11
191.8546600341797
 21
80.39099884033203
 31
0.0
  0
LINE
  5
1AF
  8
SMALL_FEATURE
 10
191.8546600341797
 20
80.39099884033203
 30
0.0
 11
190.5
 21
79.79833221435547
 31
0.0
  0
LINE
  5
1B0
  8
SMALL_FEATURE
 10
190.5
 20
79.79833221435547
 30
0.0
 11
190.288330078125
 21
80.39099884033203
 31
0.0
  0
LINE
  5
1B1
  8
SMALL_FEATURE
 10
190.288330078125
 20
80.39099884033203
 30
0.0
 11
190.75399780273438
 21
81.32233428955078
 31
0.0
  0
LINE
  5
1B2
  8
SMALL_FEATURE
 10
190.75399780273438
 20
81.32233428955078
 30
0.0
 11
189.9496612548828
 21
81.53399658203125
 31
0.0
  0
LINE
  5
1B3
  8
SMALL_FEATURE
 10
189.9496612548828
 20
81.53399658203125
 30
0.0
 11
189.73800659179688
 21
82.2959976196289
 31
0.0
  0
LINE
  5
1B4
  8
SMALL_FEATURE
 10
189.73800659179688
 20
82.2959976196289
 30
0.0
 11
189.1876678466797
 21
82.33833312988281
 31
0.0
  0
LINE
  5
1B5
  8
SMALL_FEATURE
 10
189.1876678466797
 20
82.33833312988281
 30
0.0
 11
188.9336700439453
 21
81.70333099365234
 31
0.0
  0
LINE
  5
1B6
  8
SMALL_FEATURE
 10
188.9336700439453
 20
81.70333099365234
 30
0.0
 11
188.59500122070312
 21
81.61866760253906
 31
0.0
  0
LINE
  5
1B7
  8
BRIDGE_ROUTE
 10
131.10633850097656
 20
9.440333366394043
 30
0.0
 11
131.14866638183594
 21
41.020999908447266
 31
0.0
  0
LINE
  5
1B8
  8
BRIDGE_ROUTE
 10
131.14866638183594
 20
41.020999908447266
 30
0.0
 11
198.79733276367188
 21
40.978668212890625
 31
0.0
  0
LINE
  5
1B9
  8
BRIDGE_ROUTE
 10
198.79733276367188
 20
40.978668212890625
 30
0.0
 11
198.7550048828125
 21
39.70866775512695
 31
0.0
  0
LINE
  5
1BA
  8
BRIDGE_ROUTE
 10
198.7550048828125
 20
39.70866775512695
 30
0.0
 11
132.50332641601562
 21
39.70866775512695
 31
0.0
  0
LINE
  5
1BB
  8
BRIDGE_ROUTE
 10
132.50332641601562
 20
39.70866775512695
 30
0.0
 11
132.41867065429688
 21
9.440333366394043
 31
0.0
  0
LINE
  5
1BC
  8
BRIDGE_ROUTE
 10
132.41867065429688
 20
9.440333366394043
 30
0.0
 11
131.10633850097656
 21
9.440333366394043
 31
0.0
  0
LINE
  5
1BD
  8
JACK_ROUTE
 10
147.15066528320312
 20
141.6473388671875
 30
0.0
 11
146.81199645996094
 21
142.11300659179688
 31
0.0
  0
LINE
  5
1BE
  8
JACK_ROUTE
 10
146.81199645996094
 20
142.11300659179688
 30
0.0
 11
147.23533630371094
 21
144.2296600341797
 31
0.0
  0
LINE
  5
1BF
  8
JACK_ROUTE
 10
147.23533630371094
 20
144.2296600341797
 30
0.0
 11
148.9286651611328
 21
148.63233947753906
 31
0.0
  0
LINE
  5
1C0
  8
JACK_ROUTE
 10
148.9286651611328
 20
148.63233947753906
 30
0.0
 11
150.5796661376953
 21
151.42633056640625
 31
0.0
  0
LINE
  5
1C1
  8
JACK_ROUTE
 10
150.5796661376953
 20
151.42633056640625
 30
0.0
 11
152.0189971923828
 21
153.24667358398438
 31
0.0
  0
LINE
  5
1C2
  8
JACK_ROUTE
 10
152.0189971923828
 20
153.24667358398438
 30
0.0
 11
155.9983367919922
 21
156.84500122070312
 31
0.0
  0
LINE
  5
1C3
  8
JACK_ROUTE
 10
155.9983367919922
 20
156.84500122070312
 30
0.0
 11
158.11500549316406
 21
158.24200439453125
 31
0.0
  0
LINE
  5
1C4
  8
JACK_ROUTE
 10
158.11500549316406
 20
158.24200439453125
 30
0.0
 11
161.41700744628906
 21
159.59666442871094
 31
0.0
  0
LINE
  5
1C5
  8
JACK_ROUTE
 10
161.41700744628906
 20
159.59666442871094
 30
0.0
 11
161.79800415039062
 21
159.55433654785156
 31
0.0
  0
LINE
  5
1C6
  8
JACK_ROUTE
 10
161.79800415039062
 20
159.55433654785156
 30
0.0
 11
161.7556610107422
 21
156.50633239746094
 31
0.0
  0
LINE
  5
1C7
  8
JACK_ROUTE
 10
161.7556610107422
 20
156.50633239746094
 30
0.0
 11
161.45933532714844
 21
156.37933349609375
 31
0.0
  0
LINE
  5
1C8
  8
JACK_ROUTE
 10
161.45933532714844
 20
156.37933349609375
 30
0.0
 11
161.45933532714844
 21
144.7376708984375
 31
0.0
  0
LINE
  5
1C9
  8
JACK_ROUTE
 10
161.45933532714844
 20
144.7376708984375
 30
0.0
 11
159.51199340820312
 21
144.56832885742188
 31
0.0
  0
LINE
  5
1CA
  8
JACK_ROUTE
 10
159.51199340820312
 20
144.56832885742188
 30
0.0
 11
161.45933532714844
 21
144.4413299560547
 31
0.0
  0
LINE
  5
1CB
  8
JACK_ROUTE
 10
161.45933532714844
 20
144.4413299560547
 30
0.0
 11
161.54400634765625
 21
138.89566040039062
 31
0.0
  0
LINE
  5
1CC
  8
JACK_ROUTE
 10
161.54400634765625
 20
138.89566040039062
 30
0.0
 11
161.67100524902344
 21
144.4413299560547
 31
0.0
  0
LINE
  5
1CD
  8
JACK_ROUTE
 10
161.67100524902344
 20
144.4413299560547
 30
0.0
 11
162.55999755859375
 21
144.48367309570312
 31
0.0
  0
LINE
  5
1CE
  8
JACK_ROUTE
 10
162.55999755859375
 20
144.48367309570312
 30
0.0
 11
162.64466857910156
 21
144.1026611328125
 31
0.0
  0
LINE
  5
1CF
  8
JACK_ROUTE
 10
162.64466857910156
 20
144.1026611328125
 30
0.0
 11
165.52333068847656
 21
144.48367309570312
 31
0.0
  0
LINE
  5
1D0
  8
JACK_ROUTE
 10
165.52333068847656
 20
144.48367309570312
 30
0.0
 11
165.60800170898438
 21
143.2136688232422
 31
0.0
  0
LINE
  5
1D1
  8
JACK_ROUTE
 10
165.60800170898438
 20
143.2136688232422
 30
0.0
 11
165.77732849121094
 21
144.48367309570312
 31
0.0
  0
LINE
  5
1D2
  8
JACK_ROUTE
 10
165.77732849121094
 20
144.48367309570312
 30
0.0
 11
171.57699584960938
 21
144.48367309570312
 31
0.0
  0
LINE
  5
1D3
  8
JACK_ROUTE
 10
171.57699584960938
 20
144.48367309570312
 30
0.0
 11
171.70399475097656
 21
143.2136688232422
 31
0.0
  0
LINE
  5
1D4
  8
JACK_ROUTE
 10
171.70399475097656
 20
143.2136688232422
 30
0.0
 11
171.8733367919922
 21
144.5260009765625
 31
0.0
  0
LINE
  5
1D5
  8
JACK_ROUTE
 10
171.8733367919922
 20
144.5260009765625
 30
0.0
 11
174.7096710205078
 21
144.1026611328125
 31
0.0
  0
LINE
  5
1D6
  8
JACK_ROUTE
 10
174.7096710205078
 20
144.1026611328125
 30
0.0
 11
174.79432678222656
 21
144.48367309570312
 31
0.0
  0
LINE
  5
1D7
  8
JACK_ROUTE
 10
174.79432678222656
 20
144.48367309570312
 30
0.0
 11
175.68333435058594
 21
144.48367309570312
 31
0.0
  0
LINE
  5
1D8
  8
JACK_ROUTE
 10
175.68333435058594
 20
144.48367309570312
 30
0.0
 11
175.81033325195312
 21
138.89566040039062
 31
0.0
  0
LINE
  5
1D9
  8
JACK_ROUTE
 10
175.81033325195312
 20
138.89566040039062
 30
0.0
 11
175.76800537109375
 21
143.1713409423828
 31
0.0
  0
LINE
  5
1DA
  8
JACK_ROUTE
 10
175.76800537109375
 20
143.1713409423828
 30
0.0
 11
176.0643310546875
 21
143.29833984375
 31
0.0
  0
LINE
  5
1DB
  8
JACK_ROUTE
 10
176.0643310546875
 20
143.29833984375
 30
0.0
 11
176.0643310546875
 21
144.4413299560547
 31
0.0
  0
LINE
  5
1DC
  8
JACK_ROUTE
 10
176.0643310546875
 20
144.4413299560547
 30
0.0
 11
177.8423309326172
 21
144.6106719970703
 31
0.0
  0
LINE
  5
1DD
  8
JACK_ROUTE
 10
177.8423309326172
 20
144.6106719970703
 30
0.0
 11
176.0643310546875
 21
144.7376708984375
 31
0.0
  0
LINE
  5
1DE
  8
JACK_ROUTE
 10
176.0643310546875
 20
144.7376708984375
 30
0.0
 11
176.0643310546875
 21
156.37933349609375
 31
0.0
  0
LINE
  5
1DF
  8
JACK_ROUTE
 10
176.0643310546875
 20
156.37933349609375
 30
0.0
 11
175.59866333007812
 21
156.50633239746094
 31
0.0
  0
LINE
  5
1E0
  8
JACK_ROUTE
 10
175.59866333007812
 20
156.50633239746094
 30
0.0
 11
175.64100646972656
 21
159.55433654785156
 31
0.0
  0
LINE
  5
1E1
  8
JACK_ROUTE
 10
175.64100646972656
 20
159.55433654785156
 30
0.0
 11
179.2393341064453
 21
158.24200439453125
 31
0.0
  0
LINE
  5
1E2
  8
JACK_ROUTE
 10
179.2393341064453
 20
158.24200439453125
 30
0.0
 11
183.17633056640625
 21
155.40567016601562
 31
0.0
  0
LINE
  5
1E3
  8
JACK_ROUTE
 10
183.17633056640625
 20
155.40567016601562
 30
0.0
 11
185.3353271484375
 21
153.24667358398438
 31
0.0
  0
LINE
  5
1E4
  8
JACK_ROUTE
 10
185.3353271484375
 20
153.24667358398438
 30
0.0
 11
188.08700561523438
 21
149.30966186523438
 31
0.0
  0
LINE
  5
1E5
  8
JACK_ROUTE
 10
188.08700561523438
 20
149.30966186523438
 30
0.0
 11
190.03433227539062
 21
144.48367309570312
 31
0.0
  0
LINE
  5
1E6
  8
JACK_ROUTE
 10
190.03433227539062
 20
144.48367309570312
 30
0.0
 11
190.03433227539062
 21
144.06033325195312
 31
0.0
  0
LINE
  5
1E7
  8
JACK_ROUTE
 10
190.03433227539062
 20
144.06033325195312
 30
0.0
 11
189.65333557128906
 21
143.93333435058594
 31
0.0
  0
LINE
  5
1E8
  8
JACK_ROUTE
 10
189.65333557128906
 20
143.93333435058594
 30
0.0
 11
189.65333557128906
 21
140.8853302001953
 31
0.0
  0
LINE
  5
1E9
  8
JACK_ROUTE
 10
189.65333557128906
 20
140.8853302001953
 30
0.0
 11
189.2723388671875
 21
140.84300231933594
 31
0.0
  0
LINE
  5
1EA
  8
JACK_ROUTE
 10
189.2723388671875
 20
140.84300231933594
 30
0.0
 11
189.65333557128906
 21
137.9219970703125
 31
0.0
  0
LINE
  5
1EB
  8
JACK_ROUTE
 10
189.65333557128906
 20
137.9219970703125
 30
0.0
 11
181.82167053222656
 21
137.9219970703125
 31
0.0
  0
LINE
  5
1EC
  8
JACK_ROUTE
 10
181.82167053222656
 20
137.9219970703125
 30
0.0
 11
177.71533203125
 21
138.59933471679688
 31
0.0
  0
LINE
  5
1ED
  8
JACK_ROUTE
 10
177.71533203125
 20
138.59933471679688
 30
0.0
 11
181.52532958984375
 21
138.0066680908203
 31
0.0
  0
LINE
  5
1EE
  8
JACK_ROUTE
 10
181.52532958984375
 20
138.0066680908203
 30
0.0
 11
184.36166381835938
 21
136.94833374023438
 31
0.0
  0
LINE
  5
1EF
  8
JACK_ROUTE
 10
184.36166381835938
 20
136.94833374023438
 30
0.0
 11
186.35133361816406
 21
135.80532836914062
 31
0.0
  0
LINE
  5
1F0
  8
JACK_ROUTE
 10
186.35133361816406
 20
135.80532836914062
 30
0.0
 11
186.35133361816406
 21
135.1280059814453
 31
0.0
  0
LINE
  5
1F1
  8
JACK_ROUTE
 10
186.35133361816406
 20
135.1280059814453
 30
0.0
 11
181.3560028076172
 21
137.16000366210938
 31
0.0
  0
LINE
  5
1F2
  8
JACK_ROUTE
 10
181.3560028076172
 20
137.16000366210938
 30
0.0
 11
177.75765991210938
 21
137.87966918945312
 31
0.0
  0
LINE
  5
1F3
  8
JACK_ROUTE
 10
177.75765991210938
 20
137.87966918945312
 30
0.0
 11
171.8733367919922
 21
137.9219970703125
 31
0.0
  0
LINE
  5
1F4
  8
JACK_ROUTE
 10
171.8733367919922
 20
137.9219970703125
 30
0.0
 11
171.83099365234375
 21
138.59933471679688
 31
0.0
  0
LINE
  5
1F5
  8
JACK_ROUTE
 10
171.83099365234375
 20
138.59933471679688
 30
0.0
 11
171.28067016601562
 21
138.59933471679688
 31
0.0
  0
LINE
  5
1F6
  8
JACK_ROUTE
 10
171.28067016601562
 20
138.59933471679688
 30
0.0
 11
170.89967346191406
 21
137.9219970703125
 31
0.0
  0
LINE
  5
1F7
  8
JACK_ROUTE
 10
170.89967346191406
 20
137.9219970703125
 30
0.0
 11
169.50267028808594
 21
137.9219970703125
 31
0.0
  0
LINE
  5
1F8
  8
JACK_ROUTE
 10
169.50267028808594
 20
137.9219970703125
 30
0.0
 11
169.4603271484375
 21
138.59933471679688
 31
0.0
  0
LINE
  5
1F9
  8
JACK_ROUTE
 10
169.4603271484375
 20
138.59933471679688
 30
0.0
 11
169.16400146484375
 21
138.59933471679688
 31
0.0
  0
LINE
  5
1FA
  8
JACK_ROUTE
 10
169.16400146484375
 20
138.59933471679688
 30
0.0
 11
169.12167358398438
 21
137.9219970703125
 31
0.0
  0
LINE
  5
1FB
  8
JACK_ROUTE
 10
169.12167358398438
 20
137.9219970703125
 30
0.0
 11
168.656005859375
 21
137.9219970703125
 31
0.0
  0
LINE
  5
1FC
  8
JACK_ROUTE
 10
168.656005859375
 20
137.9219970703125
 30
0.0
 11
168.5290069580078
 21
138.2606658935547
 31
0.0
  0
LINE
  5
1FD
  8
JACK_ROUTE
 10
168.5290069580078
 20
138.2606658935547
 30
0.0
 11
168.27499389648438
 21
137.9219970703125
 31
0.0
  0
LINE
  5
1FE
  8
JACK_ROUTE
 10
168.27499389648438
 20
137.9219970703125
 30
0.0
 11
167.72467041015625
 21
137.9219970703125
 31
0.0
  0
LINE
  5
1FF
  8
JACK_ROUTE
 10
167.72467041015625
 20
137.9219970703125
 30
0.0
 11
167.6823272705078
 21
138.3453369140625
 31
0.0
  0
LINE
  5
200
  8
JACK_ROUTE
 10
167.6823272705078
 20
138.3453369140625
 30
0.0
 11
167.38600158691406
 21
138.3453369140625
 31
0.0
  0
LINE
  5
201
  8
JACK_ROUTE
 10
167.38600158691406
 20
138.3453369140625
 30
0.0
 11
167.3436737060547
 21
137.9219970703125
 31
0.0
  0
LINE
  5
202
  8
JACK_ROUTE
 10
167.3436737060547
 20
137.9219970703125
 30
0.0
 11
166.0313262939453
 21
137.9219970703125
 31
0.0
  0
LINE
  5
203
  8
JACK_ROUTE
 10
166.0313262939453
 20
137.9219970703125
 30
0.0
 11
165.94667053222656
 21
138.51466369628906
 31
0.0
  0
LINE
  5
204
  8
JACK_ROUTE
 10
165.94667053222656
 20
138.51466369628906
 30
0.0
 11
166.53933715820312
 21
138.59933471679688
 31
0.0
  0
LINE
  5
205
  8
JACK_ROUTE
 10
166.53933715820312
 20
138.59933471679688
 30
0.0
 11
165.52333068847656
 21
138.59933471679688
 31
0.0
  0
LINE
  5
206
  8
JACK_ROUTE
 10
165.52333068847656
 20
138.59933471679688
 30
0.0
 11
165.4810028076172
 21
137.9219970703125
 31
0.0
  0
LINE
  5
207
  8
JACK_ROUTE
 10
165.4810028076172
 20
137.9219970703125
 30
0.0
 11
161.37466430664062
 21
137.9219970703125
 31
0.0
  0
LINE
  5
208
  8
JACK_ROUTE
 10
161.37466430664062
 20
137.9219970703125
 30
0.0
 11
156.92967224121094
 21
137.37167358398438
 31
0.0
  0
LINE
  5
209
  8
JACK_ROUTE
 10
156.92967224121094
 20
137.37167358398438
 30
0.0
 11
156.9720001220703
 21
138.2183380126953
 31
0.0
  0
LINE
  5
20A
  8
JACK_ROUTE
 10
156.9720001220703
 20
138.2183380126953
 30
0.0
 11
159.72366333007812
 21
138.59933471679688
 31
0.0
  0
LINE
  5
20B
  8
JACK_ROUTE
 10
159.72366333007812
 20
138.59933471679688
 30
0.0
 11
157.35299682617188
 21
138.30299377441406
 31
0.0
  0
LINE
  5
20C
  8
JACK_ROUTE
 10
157.35299682617188
 20
138.30299377441406
 30
0.0
 11
156.84500122070312
 21
138.51466369628906
 31
0.0
  0
LINE
  5
20D
  8
JACK_ROUTE
 10
156.84500122070312
 20
138.51466369628906
 30
0.0
 11
146.55799865722656
 21
138.51466369628906
 31
0.0
  0
LINE
  5
20E
  8
JACK_ROUTE
 10
146.55799865722656
 20
138.51466369628906
 30
0.0
 11
147.15066528320312
 21
141.6473388671875
 31
0.0
  0
LINE
  5
20F
  8
JACK_ROUTE
 10
75.01466369628906
 20
262.8053283691406
 30
0.0
 11
38.650333404541016
 21
256.37066650390625
 31
0.0
  0
LINE
  5
210
  8
JACK_ROUTE
 10
38.650333404541016
 20
256.37066650390625
 30
0.0
 11
42.33333206176758
 21
256.9209899902344
 31
0.0
  0
LINE
  5
211
  8
JACK_ROUTE
 10
42.33333206176758
 20
256.9209899902344
 30
0.0
 11
42.46033477783203
 21
253.9153289794922
 31
0.0
  0
LINE
  5
212
  8
JACK_ROUTE
 10
42.46033477783203
 20
253.9153289794922
 30
0.0
 11
42.96833419799805
 21
253.8730010986328
 31
0.0
  0
LINE
  5
213
  8
JACK_ROUTE
 10
42.96833419799805
 20
253.8730010986328
 30
0.0
 11
47.87900161743164
 21
226.22933959960938
 31
0.0
  0
LINE
  5
214
  8
JACK_ROUTE
 10
47.87900161743164
 20
226.22933959960938
 30
0.0
 11
47.87900161743164
 21
225.8906707763672
 31
0.0
  0
LINE
  5
215
  8
JACK_ROUTE
 10
47.87900161743164
 20
225.8906707763672
 30
0.0
 11
47.455665588378906
 21
225.763671875
 31
0.0
  0
LINE
  5
216
  8
JACK_ROUTE
 10
47.455665588378906
 20
225.763671875
 30
0.0
 11
48.34466552734375
 21
223.30833435058594
 31
0.0
  0
LINE
  5
217
  8
JACK_ROUTE
 10
48.34466552734375
 20
223.30833435058594
 30
0.0
 11
48.21766662597656
 21
222.84266662597656
 31
0.0
  0
LINE
  5
218
  8
JACK_ROUTE
 10
48.21766662597656
 20
222.84266662597656
 30
0.0
 11
44.746334075927734
 21
222.20767211914062
 31
0.0
  0
LINE
  5
219
  8
JACK_ROUTE
 10
44.746334075927734
 20
222.20767211914062
 30
0.0
 11
73.32133483886719
 21
227.2030029296875
 31
0.0
  0
LINE
  5
21A
  8
JACK_ROUTE
 10
73.32133483886719
 20
227.2030029296875
 30
0.0
 11
73.74466705322266
 21
224.28199768066406
 31
0.0
  0
LINE
  5
21B
  8
JACK_ROUTE
 10
73.74466705322266
 20
224.28199768066406
 30
0.0
 11
69.9346694946289
 21
224.15499877929688
 31
0.0
  0
LINE
  5
21C
  8
JACK_ROUTE
 10
69.9346694946289
 20
224.15499877929688
 30
0.0
 11
73.74466705322266
 21
224.0279998779297
 31
0.0
  0
LINE
  5
21D
  8
JACK_ROUTE
 10
73.74466705322266
 20
224.0279998779297
 30
0.0
 11
73.74466705322266
 21
219.2443389892578
 31
0.0
  0
LINE
  5
21E
  8
JACK_ROUTE
 10
73.74466705322266
 20
219.2443389892578
 30
0.0
 11
69.9346694946289
 21
219.0749969482422
 31
0.0
  0
LINE
  5
21F
  8
JACK_ROUTE
 10
69.9346694946289
 20
219.0749969482422
 30
0.0
 11
73.78700256347656
 21
218.947998046875
 31
0.0
  0
LINE
  5
220
  8
JACK_ROUTE
 10
73.78700256347656
 20
218.947998046875
 30
0.0
 11
73.3636703491211
 21
216.0693359375
 31
0.0
  0
LINE
  5
221
  8
JACK_ROUTE
 10
73.3636703491211
 20
216.0693359375
 30
0.0
 11
73.74466705322266
 21
216.02699279785156
 31
0.0
  0
LINE
  5
222
  8
JACK_ROUTE
 10
73.74466705322266
 20
216.02699279785156
 30
0.0
 11
73.82933044433594
 21
212.8943328857422
 31
0.0
  0
LINE
  5
223
  8
JACK_ROUTE
 10
73.82933044433594
 20
212.8943328857422
 30
0.0
 11
73.95633697509766
 21
216.02699279785156
 31
0.0
  0
LINE
  5
224
  8
JACK_ROUTE
 10
73.95633697509766
 20
216.02699279785156
 30
0.0
 11
74.33733367919922
 21
216.0693359375
 31
0.0
  0
LINE
  5
225
  8
JACK_ROUTE
 10
74.33733367919922
 20
216.0693359375
 30
0.0
 11
73.95633697509766
 21
218.99032592773438
 31
0.0
  0
LINE
  5
226
  8
JACK_ROUTE
 10
73.95633697509766
 20
218.99032592773438
 30
0.0
 11
83.52366638183594
 21
219.0749969482422
 31
0.0
  0
LINE
  5
227
  8
JACK_ROUTE
 10
83.52366638183594
 20
219.0749969482422
 30
0.0
 11
73.95633697509766
 21
219.2443389892578
 31
0.0
  0
LINE
  5
228
  8
JACK_ROUTE
 10
73.95633697509766
 20
219.2443389892578
 30
0.0
 11
73.99866485595703
 21
224.07032775878906
 31
0.0
  0
LINE
  5
229
  8
JACK_ROUTE
 10
73.99866485595703
 20
224.07032775878906
 30
0.0
 11
83.43900299072266
 21
224.19732666015625
 31
0.0
  0
LINE
  5
22A
  8
JACK_ROUTE
 10
83.43900299072266
 20
224.19732666015625
 30
0.0
 11
73.95633697509766
 21
224.28199768066406
 31
0.0
  0
LINE
  5
22B
  8
JACK_ROUTE
 10
73.95633697509766
 20
224.28199768066406
 30
0.0
 11
74.37966918945312
 21
227.45700073242188
 31
0.0
  0
LINE
  5
22C
  8
JACK_ROUTE
 10
74.37966918945312
 20
227.45700073242188
 30
0.0
 11
81.11066436767578
 21
228.68466186523438
 31
0.0
  0
LINE
  5
22D
  8
JACK_ROUTE
 10
81.11066436767578
 20
228.68466186523438
 30
0.0
 11
73.99866485595703
 21
227.49932861328125
 31
0.0
  0
LINE
  5
22E
  8
JACK_ROUTE
 10
73.99866485595703
 20
227.49932861328125
 30
0.0
 11
73.87166595458984
 21
230.2933349609375
 31
0.0
  0
LINE
  5
22F
  8
JACK_ROUTE
 10
73.87166595458984
 20
230.2933349609375
 30
0.0
 11
73.57533264160156
 21
227.3300018310547
 31
0.0
  0
LINE
  5
230
  8
JACK_ROUTE
 10
73.57533264160156
 20
227.3300018310547
 30
0.0
 11
48.4293327331543
 21
223.01199340820312
 31
0.0
  0
LINE
  5
231
  8
JACK_ROUTE
 10
48.4293327331543
 20
223.01199340820312
 30
0.0
 11
48.4293327331543
 21
225.93299865722656
 31
0.0
  0
LINE
  5
232
  8
JACK_ROUTE
 10
48.4293327331543
 20
225.93299865722656
 30
0.0
 11
47.92133331298828
 21
225.97532653808594
 31
0.0
  0
LINE
  5
233
  8
JACK_ROUTE
 10
47.92133331298828
 20
225.97532653808594
 30
0.0
 11
43.01066589355469
 21
253.95767211914062
 31
0.0
  0
LINE
  5
234
  8
JACK_ROUTE
 10
43.01066589355469
 20
253.95767211914062
 30
0.0
 11
43.433998107910156
 21
254.0846710205078
 31
0.0
  0
LINE
  5
235
  8
JACK_ROUTE
 10
43.433998107910156
 20
254.0846710205078
 30
0.0
 11
42.46033477783203
 21
256.9633483886719
 31
0.0
  0
LINE
  5
236
  8
JACK_ROUTE
 10
42.46033477783203
 20
256.9633483886719
 30
0.0
 11
75.01466369628906
 21
262.8053283691406
 31
0.0
  0
LINE
  5
237
  8
NECK_POCKET
 10
161.9673309326172
 20
175.55633544921875
 30
0.0
 11
161.79800415039062
 21
159.9776611328125
 31
0.0
  0
LINE
  5
238
  8
NECK_POCKET
 10
161.79800415039062
 20
159.9776611328125
 30
0.0
 11
157.98800659179688
 21
158.4113311767578
 31
0.0
  0
LINE
  5
239
  8
NECK_POCKET
 10
157.98800659179688
 20
158.4113311767578
 30
0.0
 11
153.8816680908203
 21
155.447998046875
 31
0.0
  0
LINE
  5
23A
  8
NECK_POCKET
 10
153.8816680908203
 20
155.447998046875
 30
0.0
 11
152.0189971923828
 21
153.5853271484375
 31
0.0
  0
LINE
  5
23B
  8
NECK_POCKET
 10
152.0189971923828
 20
153.5853271484375
 30
0.0
 11
148.75933837890625
 21
148.75933837890625
 31
0.0
  0
LINE
  5
23C
  8
NECK_POCKET
 10
148.75933837890625
 20
148.75933837890625
 30
0.0
 11
147.0659942626953
 21
144.3990020751953
 31
0.0
  0
LINE
  5
23D
  8
NECK_POCKET
 10
147.0659942626953
 20
144.3990020751953
 30
0.0
 11
146.60032653808594
 21
141.90133666992188
 31
0.0
  0
LINE
  5
23E
  8
NECK_POCKET
 10
146.60032653808594
 20
141.90133666992188
 30
0.0
 11
146.177001953125
 21
141.7743377685547
 31
0.0
  0
LINE
  5
23F
  8
NECK_POCKET
 10
146.177001953125
 20
141.7743377685547
 30
0.0
 11
146.13467407226562
 21
141.4356689453125
 31
0.0
  0
LINE
  5
240
  8
NECK_POCKET
 10
146.13467407226562
 20
141.4356689453125
 30
0.0
 11
145.66900634765625
 21
141.47799682617188
 31
0.0
  0
LINE
  5
241
  8
NECK_POCKET
 10
145.66900634765625
 20
141.47799682617188
 30
0.0
 11
145.66900634765625
 21
144.5260009765625
 31
0.0
  0
LINE
  5
242
  8
NECK_POCKET
 10
145.66900634765625
 20
144.5260009765625
 30
0.0
 11
145.45733642578125
 21
144.5260009765625
 31
0.0
  0
LINE
  5
243
  8
NECK_POCKET
 10
145.45733642578125
 20
144.5260009765625
 30
0.0
 11
145.45733642578125
 21
141.47799682617188
 31
0.0
  0
LINE
  5
244
  8
NECK_POCKET
 10
145.45733642578125
 20
141.47799682617188
 30
0.0
 11
145.0763397216797
 21
141.3509979248047
 31
0.0
  0
LINE
  5
245
  8
NECK_POCKET
 10
145.0763397216797
 20
141.3509979248047
 30
0.0
 11
145.49966430664062
 21
138.5570068359375
 31
0.0
  0
LINE
  5
246
  8
NECK_POCKET
 10
145.49966430664062
 20
138.5570068359375
 30
0.0
 11
143.72166442871094
 21
138.51466369628906
 31
0.0
  0
LINE
  5
247
  8
NECK_POCKET
 10
143.72166442871094
 20
138.51466369628906
 30
0.0
 11
143.67933654785156
 21
139.53067016601562
 31
0.0
  0
LINE
  5
248
  8
NECK_POCKET
 10
143.67933654785156
 20
139.53067016601562
 30
0.0
 11
143.50999450683594
 21
139.06500244140625
 31
0.0
  0
LINE
  5
249
  8
NECK_POCKET
 10
143.50999450683594
 20
139.06500244140625
 30
0.0
 11
142.45166015625
 21
139.53067016601562
 31
0.0
  0
LINE
  5
24A
  8
NECK_POCKET
 10
142.45166015625
 20
139.53067016601562
 30
0.0
 11
142.24000549316406
 21
138.5570068359375
 31
0.0
  0
LINE
  5
24B
  8
NECK_POCKET
 10
142.24000549316406
 20
138.5570068359375
 30
0.0
 11
141.6473388671875
 21
138.42999267578125
 31
0.0
  0
LINE
  5
24C
  8
NECK_POCKET
 10
141.6473388671875
 20
138.42999267578125
 30
0.0
 11
141.6473388671875
 21
137.7949981689453
 31
0.0
  0
LINE
  5
24D
  8
NECK_POCKET
 10
141.6473388671875
 20
137.7949981689453
 30
0.0
 11
142.15533447265625
 21
137.7103271484375
 31
0.0
  0
LINE
  5
24E
  8
NECK_POCKET
 10
142.15533447265625
 20
137.7103271484375
 30
0.0
 11
142.24000549316406
 21
137.07533264160156
 31
0.0
  0
LINE
  5
24F
  8
NECK_POCKET
 10
142.24000549316406
 20
137.07533264160156
 30
0.0
 11
142.7903289794922
 21
136.8213348388672
 31
0.0
  0
LINE
  5
250
  8
NECK_POCKET
 10
142.7903289794922
 20
136.8213348388672
 30
0.0
 11
143.55233764648438
 21
136.94833374023438
 31
0.0
  0
LINE
  5
251
  8
NECK_POCKET
 10
143.55233764648438
 20
136.94833374023438
 30
0.0
 11
143.76400756835938
 21
137.7103271484375
 31
0.0
  0
LINE
  5
252
  8
NECK_POCKET
 10
143.76400756835938
 20
137.7103271484375
 30
0.0
 11
145.49966430664062
 21
137.66799926757812
 31
0.0
  0
LINE
  5
253
  8
NECK_POCKET
 10
145.49966430664062
 20
137.66799926757812
 30
0.0
 11
145.0763397216797
 21
134.78933715820312
 31
0.0
  0
LINE
  5
254
  8
NECK_POCKET
 10
145.0763397216797
 20
134.78933715820312
 30
0.0
 11
145.45733642578125
 21
134.7469940185547
 31
0.0
  0
LINE
  5
255
  8
NECK_POCKET
 10
145.45733642578125
 20
134.7469940185547
 30
0.0
 11
145.54200744628906
 21
131.69900512695312
 31
0.0
  0
LINE
  5
256
  8
NECK_POCKET
 10
145.54200744628906
 20
131.69900512695312
 30
0.0
 11
145.66900634765625
 21
134.7469940185547
 31
0.0
  0
LINE
  5
257
  8
NECK_POCKET
 10
145.66900634765625
 20
134.7469940185547
 30
0.0
 11
146.0500030517578
 21
134.78933715820312
 31
0.0
  0
LINE
  5
258
  8
NECK_POCKET
 10
146.0500030517578
 20
134.78933715820312
 30
0.0
 11
145.66900634765625
 21
137.7103271484375
 31
0.0
  0
LINE
  5
259
  8
NECK_POCKET
 10
145.66900634765625
 20
137.7103271484375
 30
0.0
 11
153.75466918945312
 21
137.7103271484375
 31
0.0
  0
LINE
  5
25A
  8
NECK_POCKET
 10
153.75466918945312
 20
137.7103271484375
 30
0.0
 11
153.7969970703125
 21
137.32933044433594
 31
0.0
  0
LINE
  5
25B
  8
NECK_POCKET
 10
153.7969970703125
 20
137.32933044433594
 30
0.0
 11
150.66433715820312
 21
135.72067260742188
 31
0.0
  0
LINE
  5
25C
  8
NECK_POCKET
 10
150.66433715820312
 20
135.72067260742188
 30
0.0
 11
148.12432861328125
 21
133.56166076660156
 31
0.0
  0
LINE
  5
25D
  8
NECK_POCKET
 10
148.12432861328125
 20
133.56166076660156
 30
0.0
 11
146.34632873535156
 21
131.6143341064453
 31
0.0
  0
LINE
  5
25E
  8
NECK_POCKET
 10
146.34632873535156
 20
131.6143341064453
 30
0.0
 11
143.4253387451172
 21
126.66133117675781
 31
0.0
  0
LINE
  5
25F
  8
NECK_POCKET
 10
143.4253387451172
 20
126.66133117675781
 30
0.0
 11
162.89866638183594
 21
107.48433685302734
 31
0.0
  0
LINE
  5
260
  8
NECK_POCKET
 10
162.89866638183594
 20
107.48433685302734
 30
0.0
 11
175.13299560546875
 21
115.23133087158203
 31
0.0
  0
LINE
  5
261
  8
NECK_POCKET
 10
175.13299560546875
 20
115.23133087158203
 30
0.0
 11
175.81033325195312
 21
115.40066528320312
 31
0.0
  0
LINE
  5
262
  8
NECK_POCKET
 10
175.81033325195312
 20
115.40066528320312
 30
0.0
 11
177.6306610107422
 21
114.08833312988281
 31
0.0
  0
LINE
  5
263
  8
NECK_POCKET
 10
177.6306610107422
 20
114.08833312988281
 30
0.0
 11
177.71533203125
 21
111.88700103759766
 31
0.0
  0
LINE
  5
264
  8
NECK_POCKET
 10
177.71533203125
 20
111.88700103759766
 30
0.0
 11
177.8423309326172
 21
113.66500091552734
 31
0.0
  0
LINE
  5
265
  8
NECK_POCKET
 10
177.8423309326172
 20
113.66500091552734
 30
0.0
 11
178.22332763671875
 21
113.70733642578125
 31
0.0
  0
LINE
  5
266
  8
NECK_POCKET
 10
178.22332763671875
 20
113.70733642578125
 30
0.0
 11
192.87066650390625
 21
103.50499725341797
 31
0.0
  0
LINE
  5
267
  8
NECK_POCKET
 10
192.87066650390625
 20
103.50499725341797
 30
0.0
 11
195.70700073242188
 21
114.80799865722656
 31
0.0
  0
LINE
  5
268
  8
NECK_POCKET
 10
195.70700073242188
 20
114.80799865722656
 30
0.0
 11
195.96099853515625
 21
117.64433288574219
 31
0.0
  0
LINE
  5
269
  8
NECK_POCKET
 10
195.96099853515625
 20
117.64433288574219
 30
0.0
 11
195.70700073242188
 21
121.15799713134766
 31
0.0
  0
LINE
  5
26A
  8
NECK_POCKET
 10
195.70700073242188
 20
121.15799713134766
 30
0.0
 11
194.05599975585938
 21
126.32266998291016
 31
0.0
  0
LINE
  5
26B
  8
NECK_POCKET
 10
194.05599975585938
 20
126.32266998291016
 30
0.0
 11
192.61666870117188
 21
129.03199768066406
 31
0.0
  0
LINE
  5
26C
  8
NECK_POCKET
 10
192.61666870117188
 20
129.03199768066406
 30
0.0
 11
190.07666015625
 21
132.58799743652344
 31
0.0
  0
LINE
  5
26D
  8
NECK_POCKET
 10
190.07666015625
 20
132.58799743652344
 30
0.0
 11
189.86500549316406
 21
134.40834045410156
 31
0.0
  0
LINE
  5
26E
  8
NECK_POCKET
 10
189.86500549316406
 20
134.40834045410156
 30
0.0
 11
193.59033203125
 21
134.53533935546875
 31
0.0
  0
LINE
  5
26F
  8
NECK_POCKET
 10
193.59033203125
 20
134.53533935546875
 30
0.0
 11
189.90733337402344
 21
134.6199951171875
 31
0.0
  0
LINE
  5
270
  8
NECK_POCKET
 10
189.90733337402344
 20
134.6199951171875
 30
0.0
 11
189.86500549316406
 21
137.66799926757812
 31
0.0
  0
LINE
  5
271
  8
NECK_POCKET
 10
189.86500549316406
 20
137.66799926757812
 30
0.0
 11
193.59033203125
 21
137.8373260498047
 31
0.0
  0
LINE
  5
272
  8
NECK_POCKET
 10
193.59033203125
 20
137.8373260498047
 30
0.0
 11
189.82266235351562
 21
137.96434020996094
 31
0.0
  0
LINE
  5
273
  8
NECK_POCKET
 10
189.82266235351562
 20
137.96434020996094
 30
0.0
 11
190.1613311767578
 21
140.25033569335938
 31
0.0
  0
LINE
  5
274
  8
NECK_POCKET
 10
190.1613311767578
 20
140.25033569335938
 30
0.0
 11
190.54232788085938
 21
140.20799255371094
 31
0.0
  0
LINE
  5
275
  8
NECK_POCKET
 10
190.54232788085938
 20
140.20799255371094
 30
0.0
 11
190.88099670410156
 21
138.85333251953125
 31
0.0
  0
LINE
  5
276
  8
NECK_POCKET
 10
190.88099670410156
 20
138.85333251953125
 30
0.0
 11
191.17733764648438
 21
141.7743377685547
 31
0.0
  0
LINE
  5
277
  8
NECK_POCKET
 10
191.17733764648438
 20
141.7743377685547
 30
0.0
 11
190.75399780273438
 21
141.90133666992188
 31
0.0
  0
LINE
  5
278
  8
NECK_POCKET
 10
190.75399780273438
 20
141.90133666992188
 30
0.0
 11
190.288330078125
 21
144.3990020751953
 31
0.0
  0
LINE
  5
279
  8
NECK_POCKET
 10
190.288330078125
 20
144.3990020751953
 30
0.0
 11
188.59500122070312
 21
148.75933837890625
 31
0.0
  0
LINE
  5
27A
  8
NECK_POCKET
 10
188.59500122070312
 20
148.75933837890625
 30
0.0
 11
185.3353271484375
 21
153.5853271484375
 31
0.0
  0
LINE
  5
27B
  8
NECK_POCKET
 10
185.3353271484375
 20
153.5853271484375
 30
0.0
 11
183.47267150878906
 21
155.447998046875
 31
0.0
  0
LINE
  5
27C
  8
NECK_POCKET
 10
183.47267150878906
 20
155.447998046875
 30
0.0
 11
179.3663330078125
 21
158.4113311767578
 31
0.0
  0
LINE
  5
27D
  8
NECK_POCKET
 10
179.3663330078125
 20
158.4113311767578
 30
0.0
 11
175.55633544921875
 21
159.93533325195312
 31
0.0
  0
LINE
  5
27E
  8
NECK_POCKET
 10
175.55633544921875
 20
159.93533325195312
 30
0.0
 11
175.47166442871094
 21
168.4443359375
 31
0.0
  0
LINE
  5
27F
  8
NECK_POCKET
 10
175.47166442871094
 20
168.4443359375
 30
0.0
 11
170.4340057373047
 21
174.7096710205078
 31
0.0
  0
LINE
  5
280
  8
NECK_POCKET
 10
170.4340057373047
 20
174.7096710205078
 30
0.0
 11
167.76699829101562
 21
171.36532592773438
 31
0.0
  0
LINE
  5
281
  8
NECK_POCKET
 10
167.76699829101562
 20
171.36532592773438
 30
0.0
 11
167.30133056640625
 21
171.322998046875
 31
0.0
  0
LINE
  5
282
  8
NECK_POCKET
 10
167.30133056640625
 20
171.322998046875
 30
0.0
 11
161.9673309326172
 21
175.55633544921875
 31
0.0
  0
LINE
  5
283
  8
BRACING
 10
86.40233612060547
 20
264.8796691894531
 30
0.0
 11
79.45966339111328
 21
263.6520080566406
 31
0.0
  0
LINE
  5
284
  8
BRACING
 10
79.45966339111328
 20
263.6520080566406
 30
0.0
 11
83.9469985961914
 21
237.65933227539062
 31
0.0
  0
LINE
  5
285
  8
BRACING
 10
83.9469985961914
 20
237.65933227539062
 30
0.0
 11
81.0683364868164
 21
237.70166015625
 31
0.0
  0
LINE
  5
286
  8
BRACING
 10
81.0683364868164
 20
237.70166015625
 30
0.0
 11
80.94132995605469
 21
237.36300659179688
 31
0.0
  0
LINE
  5
287
  8
BRACING
 10
80.94132995605469
 20
237.36300659179688
 30
0.0
 11
80.30633544921875
 21
237.36300659179688
 31
0.0
  0
LINE
  5
288
  8
BRACING
 10
80.30633544921875
 20
237.36300659179688
 30
0.0
 11
80.22166442871094
 21
237.70166015625
 31
0.0
  0
LINE
  5
289
  8
BRACING
 10
80.22166442871094
 20
237.70166015625
 30
0.0
 11
77.38533020019531
 21
237.10899353027344
 31
0.0
  0
LINE
  5
28A
  8
BRACING
 10
77.38533020019531
 20
237.10899353027344
 30
0.0
 11
77.25833129882812
 21
243.75534057617188
 31
0.0
  0
LINE
  5
28B
  8
BRACING
 10
77.25833129882812
 20
243.75534057617188
 30
0.0
 11
77.08899688720703
 21
237.19366455078125
 31
0.0
  0
LINE
  5
28C
  8
BRACING
 10
77.08899688720703
 20
237.19366455078125
 30
0.0
 11
65.27799987792969
 21
237.8286590576172
 31
0.0
  0
LINE
  5
28D
  8
BRACING
 10
65.27799987792969
 20
237.8286590576172
 30
0.0
 11
77.08899688720703
 21
236.93966674804688
 31
0.0
  0
LINE
  5
28E
  8
BRACING
 10
77.08899688720703
 20
236.93966674804688
 30
0.0
 11
77.21600341796875
 21
233.12966918945312
 31
0.0
  0
LINE
  5
28F
  8
BRACING
 10
77.21600341796875
 20
233.12966918945312
 30
0.0
 11
77.38533020019531
 21
237.0243377685547
 31
0.0
  0
LINE
  5
290
  8
BRACING
 10
77.38533020019531
 20
237.0243377685547
 30
0.0
 11
80.26399993896484
 21
236.72799682617188
 31
0.0
  0
LINE
  5
291
  8
BRACING
 10
80.26399993896484
 20
236.72799682617188
 30
0.0
 11
80.47566986083984
 21
237.15133666992188
 31
0.0
  0
LINE
  5
292
  8
BRACING
 10
80.47566986083984
 20
237.15133666992188
 30
0.0
 11
81.15299987792969
 21
237.15133666992188
 31
0.0
  0
LINE
  5
293
  8
BRACING
 10
81.15299987792969
 20
237.15133666992188
 30
0.0
 11
81.23766326904297
 21
236.8126678466797
 31
0.0
  0
LINE
  5
294
  8
BRACING
 10
81.23766326904297
 20
236.8126678466797
 30
0.0
 11
83.98933410644531
 21
237.49000549316406
 31
0.0
  0
LINE
  5
295
  8
BRACING
 10
83.98933410644531
 20
237.49000549316406
 30
0.0
 11
85.68266296386719
 21
228.93865966796875
 31
0.0
  0
LINE
  5
296
  8
BRACING
 10
85.68266296386719
 20
228.93865966796875
 30
0.0
 11
86.95266723632812
 21
226.8643341064453
 31
0.0
  0
LINE
  5
297
  8
BRACING
 10
86.95266723632812
 20
226.8643341064453
 30
0.0
 11
87.67233276367188
 21
224.95933532714844
 31
0.0
  0
LINE
  5
298
  8
BRACING
 10
87.67233276367188
 20
224.95933532714844
 30
0.0
 11
87.92633056640625
 21
176.02200317382812
 31
0.0
  0
LINE
  5
299
  8
BRACING
 10
87.92633056640625
 20
176.02200317382812
 30
0.0
 11
85.04766845703125
 21
176.4029998779297
 31
0.0
  0
LINE
  5
29A
  8
BRACING
 10
85.04766845703125
 20
176.4029998779297
 30
0.0
 11
85.00533294677734
 21
176.02200317382812
 31
0.0
  0
LINE
  5
29B
  8
BRACING
 10
85.00533294677734
 20
176.02200317382812
 30
0.0
 11
81.87266540527344
 21
175.89500427246094
 31
0.0
  0
LINE
  5
29C
  8
BRACING
 10
81.87266540527344
 20
175.89500427246094
 30
0.0
 11
85.00533294677734
 21
175.81033325195312
 31
0.0
  0
LINE
  5
29D
  8
BRACING
 10
85.00533294677734
 20
175.81033325195312
 30
0.0
 11
85.04766845703125
 21
175.42933654785156
 31
0.0
  0
LINE
  5
29E
  8
BRACING
 10
85.04766845703125
 20
175.42933654785156
 30
0.0
 11
87.92633056640625
 21
175.81033325195312
 31
0.0
  0
LINE
  5
29F
  8
BRACING
 10
87.92633056640625
 20
175.81033325195312
 30
0.0
 11
87.88400268554688
 21
166.3699951171875
 31
0.0
  0
LINE
  5
2A0
  8
BRACING
 10
87.88400268554688
 20
166.3699951171875
 30
0.0
 11
84.96299743652344
 21
166.75100708007812
 31
0.0
  0
LINE
  5
2A1
  8
BRACING
 10
84.96299743652344
 20
166.75100708007812
 30
0.0
 11
84.92066955566406
 21
166.3699951171875
 31
0.0
  0
LINE
  5
2A2
  8
BRACING
 10
84.92066955566406
 20
166.3699951171875
 30
0.0
 11
76.19999694824219
 21
166.2429962158203
 31
0.0
  0
LINE
  5
2A3
  8
BRACING
 10
76.19999694824219
 20
166.2429962158203
 30
0.0
 11
84.92066955566406
 21
166.15834045410156
 31
0.0
  0
LINE
  5
2A4
  8
BRACING
 10
84.92066955566406
 20
166.15834045410156
 30
0.0
 11
84.96299743652344
 21
165.77732849121094
 31
0.0
  0
LINE
  5
2A5
  8
BRACING
 10
84.96299743652344
 20
165.77732849121094
 30
0.0
 11
87.96866607666016
 21
166.11599731445312
 31
0.0
  0
LINE
  5
2A6
  8
BRACING
 10
87.96866607666016
 20
166.11599731445312
 30
0.0
 11
87.96866607666016
 21
156.84500122070312
 31
0.0
  0
LINE
  5
2A7
  8
BRACING
 10
87.96866607666016
 20
156.84500122070312
 30
0.0
 11
80.94132995605469
 21
156.6756591796875
 31
0.0
  0
LINE
  5
2A8
  8
BRACING
 10
80.94132995605469
 20
156.6756591796875
 30
0.0
 11
87.96866607666016
 21
156.5486602783203
 31
0.0
  0
LINE
  5
2A9
  8
BRACING
 10
87.96866607666016
 20
156.5486602783203
 30
0.0
 11
88.01100158691406
 21
134.53533935546875
 31
0.0
  0
LINE
  5
2AA
  8
BRACING
 10
88.01100158691406
 20
134.53533935546875
 30
0.0
 11
87.67233276367188
 21
132.54566955566406
 31
0.0
  0
LINE
  5
2AB
  8
BRACING
 10
87.67233276367188
 20
132.54566955566406
 30
0.0
 11
86.74099731445312
 21
130.513671875
 31
0.0
  0
LINE
  5
2AC
  8
BRACING
 10
86.74099731445312
 20
130.513671875
 30
0.0
 11
84.87833404541016
 21
128.60867309570312
 31
0.0
  0
LINE
  5
2AD
  8
BRACING
 10
84.87833404541016
 20
128.60867309570312
 30
0.0
 11
82.2959976196289
 21
127.55033111572266
 31
0.0
  0
LINE
  5
2AE
  8
BRACING
 10
82.2959976196289
 20
127.55033111572266
 30
0.0
 11
70.65433502197266
 21
127.38099670410156
 31
0.0
  0
LINE
  5
2AF
  8
BRACING
 10
70.65433502197266
 20
127.38099670410156
 30
0.0
 11
67.09833526611328
 21
127.93133544921875
 31
0.0
  0
LINE
  5
2B0
  8
BRACING
 10
67.09833526611328
 20
127.93133544921875
 30
0.0
 11
65.1510009765625
 21
128.69332885742188
 31
0.0
  0
LINE
  5
2B1
  8
BRACING
 10
65.1510009765625
 20
128.69332885742188
 30
0.0
 11
63.965667724609375
 21
26.88166618347168
 31
0.0
  0
LINE
  5
2B2
  8
BRACING
 10
63.965667724609375
 20
26.88166618347168
 30
0.0
 11
63.75400161743164
 21
26.754667282104492
 31
0.0
  0
LINE
  5
2B3
  8
BRACING
 10
63.75400161743164
 20
26.754667282104492
 30
0.0
 11
63.83866500854492
 21
14.986000061035156
 31
0.0
  0
LINE
  5
2B4
  8
BRACING
 10
63.83866500854492
 20
14.986000061035156
 30
0.0
 11
94.23400115966797
 21
15.02833366394043
 31
0.0
  0
LINE
  5
2B5
  8
BRACING
 10
94.23400115966797
 20
15.02833366394043
 30
0.0
 11
94.19166564941406
 21
45.465999603271484
 31
0.0
  0
LINE
  5
2B6
  8
BRACING
 10
94.19166564941406
 20
45.465999603271484
 30
0.0
 11
96.7316665649414
 21
45.59299850463867
 31
0.0
  0
LINE
  5
2B7
  8
BRACING
 10
96.7316665649414
 20
45.59299850463867
 30
0.0
 11
96.7316665649414
 21
47.794334411621094
 31
0.0
  0
LINE
  5
2B8
  8
BRACING
 10
96.7316665649414
 20
47.794334411621094
 30
0.0
 11
95.80033111572266
 21
47.836666107177734
 31
0.0
  0
LINE
  5
2B9
  8
BRACING
 10
95.80033111572266
 20
47.836666107177734
 30
0.0
 11
95.75800323486328
 21
48.2599983215332
 31
0.0
  0
LINE
  5
2BA
  8
BRACING
 10
95.75800323486328
 20
48.2599983215332
 30
0.0
 11
96.6893310546875
 21
49.57233428955078
 31
0.0
  0
LINE
  5
2BB
  8
BRACING
 10
96.6893310546875
 20
49.57233428955078
 30
0.0
 11
97.49366760253906
 21
49.61466598510742
 31
0.0
  0
LINE
  5
2BC
  8
BRACING
 10
97.49366760253906
 20
49.61466598510742
 30
0.0
 11
97.49366760253906
 21
50.33433151245117
 31
0.0
  0
LINE
  5
2BD
  8
BRACING
 10
97.49366760253906
 20
50.33433151245117
 30
0.0
 11
96.7316665649414
 21
50.41899871826172
 31
0.0
  0
LINE
  5
2BE
  8
BRACING
 10
96.7316665649414
 20
50.41899871826172
 30
0.0
 11
96.64700317382812
 21
51.30799865722656
 31
0.0
  0
LINE
  5
2BF
  8
BRACING
 10
96.64700317382812
 20
51.30799865722656
 30
0.0
 11
94.19166564941406
 21
51.35033416748047
 31
0.0
  0
LINE
  5
2C0
  8
BRACING
 10
94.19166564941406
 20
51.35033416748047
 30
0.0
 11
94.10700225830078
 21
84.92066955566406
 31
0.0
  0
LINE
  5
2C1
  8
BRACING
 10
94.10700225830078
 20
84.92066955566406
 30
0.0
 11
94.61499786376953
 21
85.04766845703125
 31
0.0
  0
LINE
  5
2C2
  8
BRACING
 10
94.61499786376953
 20
85.04766845703125
 30
0.0
 11
94.53033447265625
 21
156.59100341796875
 31
0.0
  0
LINE
  5
2C3
  8
BRACING
 10
94.53033447265625
 20
156.59100341796875
 30
0.0
 11
97.45133209228516
 21
156.2100067138672
 31
0.0
  0
LINE
  5
2C4
  8
BRACING
 10
97.45133209228516
 20
156.2100067138672
 30
0.0
 11
97.49366760253906
 21
156.59100341796875
 31
0.0
  0
LINE
  5
2C5
  8
BRACING
 10
97.49366760253906
 20
156.59100341796875
 30
0.0
 11
100.62633514404297
 21
156.71800231933594
 31
0.0
  0
LINE
  5
2C6
  8
BRACING
 10
100.62633514404297
 20
156.71800231933594
 30
0.0
 11
97.49366760253906
 21
156.80267333984375
 31
0.0
  0
LINE
  5
2C7
  8
BRACING
 10
97.49366760253906
 20
156.80267333984375
 30
0.0
 11
97.45133209228516
 21
157.1836700439453
 31
0.0
  0
LINE
  5
2C8
  8
BRACING
 10
97.45133209228516
 20
157.1836700439453
 30
0.0
 11
94.53033447265625
 21
156.80267333984375
 31
0.0
  0
LINE
  5
2C9
  8
BRACING
 10
94.53033447265625
 20
156.80267333984375
 30
0.0
 11
94.48799896240234
 21
165.94667053222656
 31
0.0
  0
LINE
  5
2CA
  8
BRACING
 10
94.48799896240234
 20
165.94667053222656
 30
0.0
 11
95.84266662597656
 21
165.86199951171875
 31
0.0
  0
LINE
  5
2CB
  8
BRACING
 10
95.84266662597656
 20
165.86199951171875
 30
0.0
 11
95.88500213623047
 21
166.15834045410156
 31
0.0
  0
LINE
  5
2CC
  8
BRACING
 10
95.88500213623047
 20
166.15834045410156
 30
0.0
 11
99.01766967773438
 21
166.3699951171875
 31
0.0
  0
LINE
  5
2CD
  8
BRACING
 10
99.01766967773438
 20
166.3699951171875
 30
0.0
 11
95.88500213623047
 21
166.3699951171875
 31
0.0
  0
LINE
  5
2CE
  8
BRACING
 10
95.88500213623047
 20
166.3699951171875
 30
0.0
 11
95.84266662597656
 21
166.75100708007812
 31
0.0
  0
LINE
  5
2CF
  8
BRACING
 10
95.84266662597656
 20
166.75100708007812
 30
0.0
 11
94.48799896240234
 21
166.62399291992188
 31
0.0
  0
LINE
  5
2D0
  8
BRACING
 10
94.48799896240234
 20
166.62399291992188
 30
0.0
 11
94.48799896240234
 21
175.81033325195312
 31
0.0
  0
LINE
  5
2D1
  8
BRACING
 10
94.48799896240234
 20
175.81033325195312
 30
0.0
 11
97.45133209228516
 21
175.42933654785156
 31
0.0
  0
LINE
  5
2D2
  8
BRACING
 10
97.45133209228516
 20
175.42933654785156
 30
0.0
 11
97.49366760253906
 21
175.81033325195312
 31
0.0
  0
LINE
  5
2D3
  8
BRACING
 10
97.49366760253906
 20
175.81033325195312
 30
0.0
 11
100.62633514404297
 21
175.9373321533203
 31
0.0
  0
LINE
  5
2D4
  8
BRACING
 10
100.62633514404297
 20
175.9373321533203
 30
0.0
 11
97.49366760253906
 21
176.02200317382812
 31
0.0
  0
LINE
  5
2D5
  8
BRACING
 10
97.49366760253906
 20
176.02200317382812
 30
0.0
 11
97.45133209228516
 21
176.4029998779297
 31
0.0
  0
LINE
  5
2D6
  8
BRACING
 10
97.45133209228516
 20
176.4029998779297
 30
0.0
 11
94.48799896240234
 21
176.02200317382812
 31
0.0
  0
LINE
  5
2D7
  8
BRACING
 10
94.48799896240234
 20
176.02200317382812
 30
0.0
 11
94.40333557128906
 21
218.947998046875
 31
0.0
  0
LINE
  5
2D8
  8
BRACING
 10
94.40333557128906
 20
218.947998046875
 30
0.0
 11
95.12300109863281
 21
219.0749969482422
 31
0.0
  0
LINE
  5
2D9
  8
BRACING
 10
95.12300109863281
 20
219.0749969482422
 30
0.0
 11
95.12300109863281
 21
220.21800231933594
 31
0.0
  0
LINE
  5
2DA
  8
BRACING
 10
95.12300109863281
 20
220.21800231933594
 30
0.0
 11
94.40333557128906
 21
220.30267333984375
 31
0.0
  0
LINE
  5
2DB
  8
BRACING
 10
94.40333557128906
 20
220.30267333984375
 30
0.0
 11
86.40233612060547
 21
264.8796691894531
 31
0.0
  0
LINE
  5
2DC
  8
BRACING
 10
122.80899810791016
 20
219.2866668701172
 30
0.0
 11
99.39866638183594
 21
219.2443389892578
 31
0.0
  0
LINE
  5
2DD
  8
BRACING
 10
99.39866638183594
 20
219.2443389892578
 30
0.0
 11
106.29900360107422
 21
219.0326690673828
 31
0.0
  0
LINE
  5
2DE
  8
BRACING
 10
106.29900360107422
 20
219.0326690673828
 30
0.0
 11
105.87566375732422
 21
216.1540069580078
 31
0.0
  0
LINE
  5
2DF
  8
BRACING
 10
105.87566375732422
 20
216.1540069580078
 30
0.0
 11
106.25666809082031
 21
216.11166381835938
 31
0.0
  0
LINE
  5
2E0
  8
BRACING
 10
106.25666809082031
 20
216.11166381835938
 30
0.0
 11
106.4260025024414
 21
124.37533569335938
 31
0.0
  0
LINE
  5
2E1
  8
BRACING
 10
106.4260025024414
 20
124.37533569335938
 30
0.0
 11
106.04499816894531
 21
124.29066467285156
 31
0.0
  0
LINE
  5
2E2
  8
BRACING
 10
106.04499816894531
 20
124.29066467285156
 30
0.0
 11
106.46833038330078
 21
121.45433044433594
 31
0.0
  0
LINE
  5
2E3
  8
BRACING
 10
106.46833038330078
 20
121.45433044433594
 30
0.0
 11
98.89066314697266
 21
121.24266815185547
 31
0.0
  0
LINE
  5
2E4
  8
BRACING
 10
98.89066314697266
 20
121.24266815185547
 30
0.0
 11
106.46833038330078
 21
121.15799713134766
 31
0.0
  0
LINE
  5
2E5
  8
BRACING
 10
106.46833038330078
 20
121.15799713134766
 30
0.0
 11
106.04499816894531
 21
118.27933502197266
 31
0.0
  0
LINE
  5
2E6
  8
BRACING
 10
106.04499816894531
 20
118.27933502197266
 30
0.0
 11
106.4260025024414
 21
118.23699951171875
 31
0.0
  0
LINE
  5
2E7
  8
BRACING
 10
106.4260025024414
 20
118.23699951171875
 30
0.0
 11
106.5530014038086
 21
50.461334228515625
 31
0.0
  0
LINE
  5
2E8
  8
BRACING
 10
106.5530014038086
 20
50.461334228515625
 30
0.0
 11
99.73733520507812
 21
50.24966812133789
 31
0.0
  0
LINE
  5
2E9
  8
BRACING
 10
99.73733520507812
 20
50.24966812133789
 30
0.0
 11
106.5530014038086
 21
50.165000915527344
 31
0.0
  0
LINE
  5
2EA
  8
BRACING
 10
106.5530014038086
 20
50.165000915527344
 30
0.0
 11
106.5953369140625
 21
18.203332901000977
 31
0.0
  0
LINE
  5
2EB
  8
BRACING
 10
106.5953369140625
 20
18.203332901000977
 30
0.0
 11
106.2143325805664
 21
18.07633399963379
 31
0.0
  0
LINE
  5
2EC
  8
BRACING
 10
106.2143325805664
 20
18.07633399963379
 30
0.0
 11
106.63766479492188
 21
15.282333374023438
 31
0.0
  0
LINE
  5
2ED
  8
BRACING
 10
106.63766479492188
 20
15.282333374023438
 30
0.0
 11
99.14466857910156
 21
15.239999771118164
 31
0.0
  0
LINE
  5
2EE
  8
BRACING
 10
99.14466857910156
 20
15.239999771118164
 30
0.0
 11
99.14466857910156
 21
15.02833366394043
 31
0.0
  0
LINE
  5
2EF
  8
BRACING
 10
99.14466857910156
 20
15.02833366394043
 30
0.0
 11
110.61699676513672
 21
15.11299991607666
 31
0.0
  0
LINE
  5
2F0
  8
BRACING
 10
110.61699676513672
 20
15.11299991607666
 30
0.0
 11
106.76466369628906
 21
15.282333374023438
 31
0.0
  0
LINE
  5
2F1
  8
BRACING
 10
106.76466369628906
 20
15.282333374023438
 30
0.0
 11
107.18800354003906
 21
18.118667602539062
 31
0.0
  0
LINE
  5
2F2
  8
BRACING
 10
107.18800354003906
 20
18.118667602539062
 30
0.0
 11
106.80699920654297
 21
18.203332901000977
 31
0.0
  0
LINE
  5
2F3
  8
BRACING
 10
106.80699920654297
 20
18.203332901000977
 30
0.0
 11
106.76466369628906
 21
50.165000915527344
 31
0.0
  0
LINE
  5
2F4
  8
BRACING
 10
106.76466369628906
 20
50.165000915527344
 30
0.0
 11
123.14766693115234
 21
50.33433151245117
 31
0.0
  0
LINE
  5
2F5
  8
BRACING
 10
123.14766693115234
 20
50.33433151245117
 30
0.0
 11
119.29533386230469
 21
50.503665924072266
 31
0.0
  0
LINE
  5
2F6
  8
BRACING
 10
119.29533386230469
 20
50.503665924072266
 30
0.0
 11
119.71866607666016
 21
53.29766845703125
 31
0.0
  0
LINE
  5
2F7
  8
BRACING
 10
119.71866607666016
 20
53.29766845703125
 30
0.0
 11
119.3376693725586
 21
53.34000015258789
 31
0.0
  0
LINE
  5
2F8
  8
BRACING
 10
119.3376693725586
 20
53.34000015258789
 30
0.0
 11
119.08366394042969
 21
198.6280059814453
 31
0.0
  0
LINE
  5
2F9
  8
BRACING
 10
119.08366394042969
 20
198.6280059814453
 30
0.0
 11
119.08366394042969
 21
216.11166381835938
 31
0.0
  0
LINE
  5
2FA
  8
BRACING
 10
119.08366394042969
 20
216.11166381835938
 30
0.0
 11
119.46466827392578
 21
216.23866271972656
 31
0.0
  0
LINE
  5
2FB
  8
BRACING
 10
119.46466827392578
 20
216.23866271972656
 30
0.0
 11
119.04133605957031
 21
219.0326690673828
 31
0.0
  0
LINE
  5
2FC
  8
BRACING
 10
119.04133605957031
 20
219.0326690673828
 30
0.0
 11
122.80899810791016
 21
219.0749969482422
 31
0.0
  0
LINE
  5
2FD
  8
BRACING
 10
122.80899810791016
 20
219.0749969482422
 30
0.0
 11
122.80899810791016
 21
219.2866668701172
 31
0.0
  0
LINE
  5
2FE
  8
BRACING
 10
106.46833038330078
 20
219.0749969482422
 30
0.0
 11
118.9143295288086
 21
219.0326690673828
 31
0.0
  0
LINE
  5
2FF
  8
BRACING
 10
118.9143295288086
 20
219.0326690673828
 30
0.0
 11
118.49099731445312
 21
216.1540069580078
 31
0.0
  0
LINE
  5
300
  8
BRACING
 10
118.49099731445312
 20
216.1540069580078
 30
0.0
 11
118.87200164794922
 21
216.11166381835938
 31
0.0
  0
LINE
  5
301
  8
BRACING
 10
118.87200164794922
 20
216.11166381835938
 30
0.0
 11
119.1259994506836
 21
53.34000015258789
 31
0.0
  0
LINE
  5
302
  8
BRACING
 10
119.1259994506836
 20
53.34000015258789
 30
0.0
 11
118.74500274658203
 21
53.255332946777344
 31
0.0
  0
LINE
  5
303
  8
BRACING
 10
118.74500274658203
 20
53.255332946777344
 30
0.0
 11
119.1259994506836
 21
50.461334228515625
 31
0.0
  0
LINE
  5
304
  8
BRACING
 10
119.1259994506836
 20
50.461334228515625
 30
0.0
 11
106.76466369628906
 21
50.461334228515625
 31
0.0
  0
LINE
  5
305
  8
BRACING
 10
106.76466369628906
 20
50.461334228515625
 30
0.0
 11
106.63766479492188
 21
118.23699951171875
 31
0.0
  0
LINE
  5
306
  8
BRACING
 10
106.63766479492188
 20
118.23699951171875
 30
0.0
 11
107.01866912841797
 21
118.32166290283203
 31
0.0
  0
LINE
  5
307
  8
BRACING
 10
107.01866912841797
 20
118.32166290283203
 30
0.0
 11
106.5953369140625
 21
121.15799713134766
 31
0.0
  0
LINE
  5
308
  8
BRACING
 10
106.5953369140625
 20
121.15799713134766
 30
0.0
 11
110.44766998291016
 21
121.36966705322266
 31
0.0
  0
LINE
  5
309
  8
BRACING
 10
110.44766998291016
 20
121.36966705322266
 30
0.0
 11
106.5953369140625
 21
121.45433044433594
 31
0.0
  0
LINE
  5
30A
  8
BRACING
 10
106.5953369140625
 20
121.45433044433594
 30
0.0
 11
107.01866912841797
 21
124.33300018310547
 31
0.0
  0
LINE
  5
30B
  8
BRACING
 10
107.01866912841797
 20
124.33300018310547
 30
0.0
 11
106.63766479492188
 21
124.37533569335938
 31
0.0
  0
LINE
  5
30C
  8
BRACING
 10
106.63766479492188
 20
124.37533569335938
 30
0.0
 11
106.46833038330078
 21
216.11166381835938
 31
0.0
  0
LINE
  5
30D
  8
BRACING
 10
106.46833038330078
 20
216.11166381835938
 30
0.0
 11
106.84933471679688
 21
216.23866271972656
 31
0.0
  0
LINE
  5
30E
  8
BRACING
 10
106.84933471679688
 20
216.23866271972656
 30
0.0
 11
106.46833038330078
 21
219.0749969482422
 31
0.0
  0
LINE
  5
30F
  8
PICKUP_ROUTE
 10
93.85299682617188
 20
110.57466888427734
 30
0.0
 11
94.06466674804688
 21
23.11400032043457
 31
0.0
  0
LINE
  5
310
  8
PICKUP_ROUTE
 10
94.06466674804688
 20
23.11400032043457
 30
0.0
 11
91.22833251953125
 21
23.4950008392334
 31
0.0
  0
LINE
  5
311
  8
PICKUP_ROUTE
 10
91.22833251953125
 20
23.4950008392334
 30
0.0
 11
91.10133361816406
 21
23.11400032043457
 31
0.0
  0
LINE
  5
312
  8
PICKUP_ROUTE
 10
91.10133361816406
 20
23.11400032043457
 30
0.0
 11
66.92900085449219
 21
23.11400032043457
 31
0.0
  0
LINE
  5
313
  8
PICKUP_ROUTE
 10
66.92900085449219
 20
23.11400032043457
 30
0.0
 11
66.802001953125
 21
23.4950008392334
 31
0.0
  0
LINE
  5
314
  8
PICKUP_ROUTE
 10
66.802001953125
 20
23.4950008392334
 30
0.0
 11
64.05033111572266
 21
23.071666717529297
 31
0.0
  0
LINE
  5
315
  8
PICKUP_ROUTE
 10
64.05033111572266
 20
23.071666717529297
 30
0.0
 11
65.3203353881836
 21
110.44766998291016
 31
0.0
  0
LINE
  5
316
  8
PICKUP_ROUTE
 10
65.3203353881836
 20
110.44766998291016
 30
0.0
 11
68.2413330078125
 21
110.06666564941406
 31
0.0
  0
LINE
  5
317
  8
PICKUP_ROUTE
 10
68.2413330078125
 20
110.06666564941406
 30
0.0
 11
68.2836685180664
 21
110.44766998291016
 31
0.0
  0
LINE
  5
318
  8
PICKUP_ROUTE
 10
68.2836685180664
 20
110.44766998291016
 30
0.0
 11
91.01667022705078
 21
110.53233337402344
 31
0.0
  0
LINE
  5
319
  8
PICKUP_ROUTE
 10
91.01667022705078
 20
110.53233337402344
 30
0.0
 11
91.10133361816406
 21
110.15133666992188
 31
0.0
  0
LINE
  5
31A
  8
PICKUP_ROUTE
 10
91.10133361816406
 20
110.15133666992188
 30
0.0
 11
93.85299682617188
 21
110.57466888427734
 31
0.0
  0
ENDSEC
  0
EOF
