  0
SECTION
  2
HEADER
  9
$ACADVER
  1
AC1009
  9
$DWGCODEPAGE
  3
ANSI_1252
  9
$INSBASE
 10
0.0
 20
0.0
 30
0.0
  9
$EXTMIN
 10
1e+20
 20
1e+20
 30
1e+20
  9
$EXTMAX
 10
-1e+20
 20
-1e+20
 30
-1e+20
  9
$LIMMIN
 10
0.0
 20
0.0
  9
$LIMMAX
 10
420.0
 20
297.0
  9
$ORTHOMODE
 70
0
  9
$REGENMODE
 70
1
  9
$FILLMODE
 70
1
  9
$DRAGMODE
 70
2
  9
$QTEXTMODE
 70
0
  9
$MIRRTEXT
 70
1
  9
$OSMODE
 70
20583
  9
$LTSCALE
 40
1.0
  9
$ATTMODE
 70
1
  9
$TEXTSIZE
 40
2.5
  9
$TRACEWID
 40
1.0
  9
$TEXTSTYLE
  7
Standard
  9
$CLAYER
  8
0
  9
$CELTYPE
  6
ByLayer
  9
$CECOLOR
 62
256
  9
$DIMSCALE
 40
1.0
  9
$DIMASZ
 40
2.5
  9
$DIMEXO
 40
0.625
  9
$DIMDLI
 40
3.75
  9
$DIMRND
 40
0.0
  9
$DIMDLE
 40
0.0
  9
$DIMEXE
 40
1.25
  9
$DIMTP
 40
0.0
  9
$DIMTM
 40
0.0
  9
$DIMTXT
 40
2.5
  9
$DIMCEN
 40
2.5
  9
$DIMTSZ
 40
0.0
  9
$DIMTOL
 70
0
  9
$DIMLIM
 70
0
  9
$DIMTIH
 70
0
  9
$DIMTOH
 70
0
  9
$DIMSE1
 70
0
  9
$DIMSE2
 70
0
  9
$DIMTAD
 70
1
  9
$DIMZIN
 70
8
  9
$DIMBLK
  1

  9
$DIMASO
 70
1
  9
$DIMSHO
 70
1
  9
$DIMPOST
  1

  9
$DIMAPOST
  1

  9
$DIMALT
 70
0
  9
$DIMALTD
 70
3
  9
$DIMALTF
 40
0.03937007874
  9
$DIMLFAC
 40
1.0
  9
$DIMTOFL
 70
1
  9
$DIMTVP
 40
0.0
  9
$DIMTIX
 70
0
  9
$DIMSOXD
 70
0
  9
$DIMSAH
 70
0
  9
$DIMBLK1
  1

  9
$DIMBLK2
  1

  9
$DIMSTYLE
  2
ISO-25
  9
$DIMCLRD
 70
0
  9
$DIMCLRE
 70
0
  9
$DIMCLRT
 70
0
  9
$DIMTFAC
 40
1.0
  9
$DIMGAP
 40
0.625
  9
$COORDS
 70
1
  9
$ATTDIA
 70
0
  9
$ATTREQ
 70
1
  9
$HANDLING
 70
1
  9
$LUNITS
 70
2
  9
$LUPREC
 70
4
  9
$SKETCHINC
 40
1.0
  9
$FILLETRAD
 40
10.0
  9
$AUNITS
 70
0
  9
$AUPREC
 70
2
  9
$MENU
  1
.
  9
$ELEVATION
 40
0.0
  9
$PELEVATION
 40
0.0
  9
$THICKNESS
 40
0.0
  9
$LIMCHECK
 70
0
  9
$CHAMFERA
 40
0.0
  9
$CHAMFERB
 40
0.0
  9
$SKPOLY
 70
0
  9
$TDCREATE
 40
2461106.679722222
  9
$TDUPDATE
 40
2461106.679722222
  9
$TDINDWG
 40
0.0
  9
$TDUSRTIMER
 40
0.0
  9
$USRTIMER
 70
1
  9
$ANGBASE
 50
0.0
  9
$ANGDIR
 70
0
  9
$PDMODE
 70
0
  9
$PDSIZE
 40
0.0
  9
$PLINEWID
 40
0.0
  9
$SPLFRAME
 70
0
  9
$SPLINETYPE
 70
6
  9
$SPLINESEGS
 70
8
  9
$HANDSEED
  5
274
  9
$SURFTAB1
 70
6
  9
$SURFTAB2
 70
6
  9
$SURFTYPE
 70
6
  9
$SURFU
 70
6
  9
$SURFV
 70
6
  9
$UCSNAME
  2

  9
$UCSORG
 10
0.0
 20
0.0
 30
0.0
  9
$UCSXDIR
 10
1.0
 20
0.0
 30
0.0
  9
$UCSYDIR
 10
0.0
 20
1.0
 30
0.0
  9
$PUCSNAME
  2

  9
$PUCSORG
 10
0.0
 20
0.0
 30
0.0
  9
$PUCSXDIR
 10
1.0
 20
0.0
 30
0.0
  9
$PUCSYDIR
 10
0.0
 20
1.0
 30
0.0
  9
$USERI1
 70
0
  9
$USERI2
 70
0
  9
$USERI3
 70
0
  9
$USERI4
 70
0
  9
$USERI5
 70
0
  9
$USERR1
 40
0.0
  9
$USERR2
 40
0.0
  9
$USERR3
 40
0.0
  9
$USERR4
 40
0.0
  9
$USERR5
 40
0.0
  9
$WORLDVIEW
 70
1
  9
$SHADEDGE
 70
3
  9
$SHADEDIF
 70
70
  9
$TILEMODE
 70
1
  9
$MAXACTVP
 70
64
  9
$PLIMCHECK
 70
0
  9
$PEXTMIN
 10
1e+20
 20
1e+20
 30
1e+20
  9
$PEXTMAX
 10
-1e+20
 20
-1e+20
 30
-1e+20
  9
$PLIMMIN
 10
0.0
 20
0.0
  9
$PLIMMAX
 10
420.0
 20
297.0
  9
$UNITMODE
 70
0
  9
$VISRETAIN
 70
1
  9
$PLINEGEN
 70
0
  9
$PSLTSCALE
 70
1
  0
ENDSEC
  0
SECTION
  2
TABLES
  0
TABLE
  2
VPORT
 70
1
  0
VPORT
  5
23
  2
*Active
 70
0
 10
0.0
 20
0.0
 11
1.0
 21
1.0
 12
0.0
 22
0.0
 13
0.0
 23
0.0
 14
0.5
 24
0.5
 15
0.5
 25
0.5
 16
0.0
 26
0.0
 36
1.0
 17
0.0
 27
0.0
 37
0.0
 40
1000.0
 41
1.34
 42
50.0
 43
0.0
 44
0.0
 50
0.0
 51
0.0
 71
0
 72
1000
 73
1
 74
3
 75
0
 76
0
 77
0
 78
0
  0
ENDTAB
  0
TABLE
  2
LTYPE
 70
3
  0
LTYPE
  5
24
  2
ByBlock
 70
0
  3

 72
65
 73
0
 40
0.0
  0
LTYPE
  5
25
  2
ByLayer
 70
0
  3

 72
65
 73
0
 40
0.0
  0
LTYPE
  5
26
  2
Continuous
 70
0
  3

 72
65
 73
0
 40
0.0
  0
ENDTAB
  0
TABLE
  2
LAYER
 70
2
  0
LAYER
  5
27
  2
0
 70
0
 62
7
  6
Continuous
  0
LAYER
  5
28
  2
Defpoints
 70
0
 62
7
  6
Continuous
  0
ENDTAB
  0
TABLE
  2
STYLE
 70
1
  0
STYLE
  5
29
  2
Standard
 70
0
 40
0.0
 41
1.0
 50
0.0
 71
0
 42
2.5
  3
txt
  4

  0
ENDTAB
  0
TABLE
  2
VIEW
 70
0
  0
ENDTAB
  0
TABLE
  2
UCS
 70
0
  0
ENDTAB
  0
TABLE
  2
APPID
 70
3
  0
APPID
  5
2A
  2
ACAD
 70
0
  0
APPID
  5
272
  2
HATCHBACKGROUNDCOLOR
 70
0
  0
APPID
  5
273
  2
EZDXF
 70
0
  0
ENDTAB
  0
TABLE
  2
DIMSTYLE
 70
1
  0
DIMSTYLE
105
2B
  2
Standard
 70
0
  3

  4

  5

  6

  7

 40
1.0
 41
2.5
 42
0.625
 43
3.75
 44
1.25
 45
0.0
 46
0.0
 47
0.0
 48
0.0
140
2.5
141
2.5
142
0.0
143
0.03937007874
144
1.0
145
0.0
146
1.0
147
0.625
 71
0
 72
0
 73
0
 74
0
 75
0
 76
0
 77
1
 78
8
170
0
171
3
172
1
173
0
174
0
175
0
176
0
177
0
178
0
  0
ENDTAB
  0
ENDSEC
  0
SECTION
  2
BLOCKS
  0
BLOCK
  5
18
  8
0
  2
$Model_Space
 70
0
 10
0.0
 20
0.0
 30
0.0
  3
$Model_Space
  1

1001
EZDXF
1000
CREATED_BY_EZDXF
1000
1.4.3 @ 2026-03-06T22:18:48.197020+00:00
1000
WRITTEN_BY_EZDXF
1000
1.4.3 @ 2026-03-06T22:18:48.631697+00:00
  0
ENDBLK
  5
19
  8
0
  0
BLOCK
  5
1C
  8
0
  2
$Paper_Space
 70
0
 10
0.0
 20
0.0
 30
0.0
  3
$Paper_Space
  1

  0
ENDBLK
  5
1D
  8
0
  0
ENDSEC
  0
SECTION
  2
ENTITIES
  0
LINE
  5
2D
  8
SMALL_FEATURE
 10
162.72933959960938
 20
236.22000122070312
 30
0.0
 11
161.33233642578125
 21
236.1353302001953
 31
0.0
  0
LINE
  5
2E
  8
SMALL_FEATURE
 10
161.33233642578125
 20
236.1353302001953
 30
0.0
 11
158.4113311767578
 21
235.03466796875
 31
0.0
  0
LINE
  5
2F
  8
SMALL_FEATURE
 10
158.4113311767578
 20
235.03466796875
 30
0.0
 11
155.61734008789062
 21
232.8333282470703
 31
0.0
  0
LINE
  5
30
  8
SMALL_FEATURE
 10
155.61734008789062
 20
232.8333282470703
 30
0.0
 11
154.0086669921875
 21
229.9546661376953
 31
0.0
  0
LINE
  5
31
  8
SMALL_FEATURE
 10
154.0086669921875
 20
229.9546661376953
 30
0.0
 11
153.41600036621094
 21
226.48333740234375
 31
0.0
  0
LINE
  5
32
  8
SMALL_FEATURE
 10
153.41600036621094
 20
226.48333740234375
 30
0.0
 11
153.5853271484375
 21
224.87466430664062
 31
0.0
  0
LINE
  5
33
  8
SMALL_FEATURE
 10
153.5853271484375
 20
224.87466430664062
 30
0.0
 11
154.60133361816406
 21
221.9536590576172
 31
0.0
  0
LINE
  5
34
  8
SMALL_FEATURE
 10
154.60133361816406
 20
221.9536590576172
 30
0.0
 11
156.80267333984375
 21
219.2443389892578
 31
0.0
  0
LINE
  5
35
  8
SMALL_FEATURE
 10
156.80267333984375
 20
219.2443389892578
 30
0.0
 11
159.76600646972656
 21
217.55099487304688
 31
0.0
  0
LINE
  5
36
  8
SMALL_FEATURE
 10
159.76600646972656
 20
217.55099487304688
 30
0.0
 11
163.1526641845703
 21
216.9583282470703
 31
0.0
  0
LINE
  5
37
  8
SMALL_FEATURE
 10
163.1526641845703
 20
216.9583282470703
 30
0.0
 11
164.76133728027344
 21
217.12767028808594
 31
0.0
  0
LINE
  5
38
  8
SMALL_FEATURE
 10
164.76133728027344
 20
217.12767028808594
 30
0.0
 11
167.6823272705078
 21
218.14366149902344
 31
0.0
  0
LINE
  5
39
  8
SMALL_FEATURE
 10
167.6823272705078
 20
218.14366149902344
 30
0.0
 11
170.4340057373047
 21
220.4720001220703
 31
0.0
  0
LINE
  5
3A
  8
SMALL_FEATURE
 10
170.4340057373047
 20
220.4720001220703
 30
0.0
 11
172.0850067138672
 21
223.30833435058594
 31
0.0
  0
LINE
  5
3B
  8
SMALL_FEATURE
 10
172.0850067138672
 20
223.30833435058594
 30
0.0
 11
172.67767333984375
 21
226.7796630859375
 31
0.0
  0
LINE
  5
3C
  8
SMALL_FEATURE
 10
172.67767333984375
 20
226.7796630859375
 30
0.0
 11
172.12733459472656
 21
229.82766723632812
 31
0.0
  0
LINE
  5
3D
  8
SMALL_FEATURE
 10
172.12733459472656
 20
229.82766723632812
 30
0.0
 11
171.49234008789062
 21
231.309326171875
 31
0.0
  0
LINE
  5
3E
  8
SMALL_FEATURE
 10
171.49234008789062
 20
231.309326171875
 30
0.0
 11
169.20632934570312
 21
234.01866149902344
 31
0.0
  0
LINE
  5
3F
  8
SMALL_FEATURE
 10
169.20632934570312
 20
234.01866149902344
 30
0.0
 11
166.32766723632812
 21
235.62733459472656
 31
0.0
  0
LINE
  5
40
  8
SMALL_FEATURE
 10
166.32766723632812
 20
235.62733459472656
 30
0.0
 11
164.76133728027344
 21
236.1353302001953
 31
0.0
  0
LINE
  5
41
  8
SMALL_FEATURE
 10
164.76133728027344
 20
236.1353302001953
 30
0.0
 11
162.72933959960938
 21
236.22000122070312
 31
0.0
  0
LINE
  5
42
  8
SMALL_FEATURE
 10
161.7133331298828
 20
236.1353302001953
 30
0.0
 11
164.76133728027344
 21
236.09300231933594
 31
0.0
  0
LINE
  5
43
  8
SMALL_FEATURE
 10
164.76133728027344
 20
236.09300231933594
 30
0.0
 11
167.6823272705078
 21
234.99234008789062
 31
0.0
  0
LINE
  5
44
  8
SMALL_FEATURE
 10
167.6823272705078
 20
234.99234008789062
 30
0.0
 11
169.07933044433594
 21
234.06100463867188
 31
0.0
  0
LINE
  5
45
  8
SMALL_FEATURE
 10
169.07933044433594
 20
234.06100463867188
 30
0.0
 11
171.4076690673828
 21
231.3939971923828
 31
0.0
  0
LINE
  5
46
  8
SMALL_FEATURE
 10
171.4076690673828
 20
231.3939971923828
 30
0.0
 11
172.50833129882812
 21
228.04966735839844
 31
0.0
  0
LINE
  5
47
  8
SMALL_FEATURE
 10
172.50833129882812
 20
228.04966735839844
 30
0.0
 11
172.46600341796875
 21
224.87466430664062
 31
0.0
  0
LINE
  5
48
  8
SMALL_FEATURE
 10
172.46600341796875
 20
224.87466430664062
 30
0.0
 11
171.322998046875
 21
221.74200439453125
 31
0.0
  0
LINE
  5
49
  8
SMALL_FEATURE
 10
171.322998046875
 20
221.74200439453125
 30
0.0
 11
170.4340057373047
 21
220.55667114257812
 31
0.0
  0
LINE
  5
4A
  8
SMALL_FEATURE
 10
170.4340057373047
 20
220.55667114257812
 30
0.0
 11
167.8939971923828
 21
218.31300354003906
 31
0.0
  0
LINE
  5
4B
  8
SMALL_FEATURE
 10
167.8939971923828
 20
218.31300354003906
 30
0.0
 11
164.50733947753906
 21
217.12767028808594
 31
0.0
  0
LINE
  5
4C
  8
SMALL_FEATURE
 10
164.50733947753906
 20
217.12767028808594
 30
0.0
 11
162.77166748046875
 21
217.00067138671875
 31
0.0
  0
LINE
  5
4D
  8
SMALL_FEATURE
 10
162.77166748046875
 20
217.00067138671875
 30
0.0
 11
160.02000427246094
 21
217.5086669921875
 31
0.0
  0
LINE
  5
4E
  8
SMALL_FEATURE
 10
160.02000427246094
 20
217.5086669921875
 30
0.0
 11
156.92967224121094
 21
219.20199584960938
 31
0.0
  0
LINE
  5
4F
  8
SMALL_FEATURE
 10
156.92967224121094
 20
219.20199584960938
 30
0.0
 11
154.72833251953125
 21
221.78433227539062
 31
0.0
  0
LINE
  5
50
  8
SMALL_FEATURE
 10
154.72833251953125
 20
221.78433227539062
 30
0.0
 11
153.5853271484375
 21
225.128662109375
 31
0.0
  0
LINE
  5
51
  8
SMALL_FEATURE
 10
153.5853271484375
 20
225.128662109375
 30
0.0
 11
153.4583282470703
 21
226.8643341064453
 31
0.0
  0
LINE
  5
52
  8
SMALL_FEATURE
 10
153.4583282470703
 20
226.8643341064453
 30
0.0
 11
154.0086669921875
 21
229.82766723632812
 31
0.0
  0
LINE
  5
53
  8
SMALL_FEATURE
 10
154.0086669921875
 20
229.82766723632812
 30
0.0
 11
155.5749969482422
 21
232.70632934570312
 31
0.0
  0
LINE
  5
54
  8
SMALL_FEATURE
 10
155.5749969482422
 20
232.70632934570312
 30
0.0
 11
158.24200439453125
 21
234.9076690673828
 31
0.0
  0
LINE
  5
55
  8
SMALL_FEATURE
 10
158.24200439453125
 20
234.9076690673828
 30
0.0
 11
161.7133331298828
 21
236.1353302001953
 31
0.0
  0
LINE
  5
56
  8
SMALL_FEATURE
 10
180.8056640625
 20
39.87799835205078
 30
0.0
 11
187.4943389892578
 21
39.92033386230469
 31
0.0
  0
LINE
  5
57
  8
SMALL_FEATURE
 10
187.4943389892578
 20
39.92033386230469
 30
0.0
 11
187.621337890625
 21
39.20066833496094
 31
0.0
  0
LINE
  5
58
  8
SMALL_FEATURE
 10
187.621337890625
 20
39.20066833496094
 30
0.0
 11
186.8593292236328
 21
38.73500061035156
 31
0.0
  0
LINE
  5
59
  8
SMALL_FEATURE
 10
186.8593292236328
 20
38.73500061035156
 30
0.0
 11
186.52066040039062
 21
36.999332427978516
 31
0.0
  0
LINE
  5
5A
  8
SMALL_FEATURE
 10
186.52066040039062
 20
36.999332427978516
 30
0.0
 11
187.1133270263672
 21
38.692665100097656
 31
0.0
  0
LINE
  5
5B
  8
SMALL_FEATURE
 10
187.1133270263672
 20
38.692665100097656
 30
0.0
 11
187.621337890625
 21
38.650333404541016
 31
0.0
  0
LINE
  5
5C
  8
SMALL_FEATURE
 10
187.621337890625
 20
38.650333404541016
 30
0.0
 11
187.87533569335938
 21
37.676666259765625
 31
0.0
  0
LINE
  5
5D
  8
SMALL_FEATURE
 10
187.87533569335938
 20
37.676666259765625
 30
0.0
 11
187.0709991455078
 21
36.36433410644531
 31
0.0
  0
LINE
  5
5E
  8
SMALL_FEATURE
 10
187.0709991455078
 20
36.36433410644531
 30
0.0
 11
186.52066040039062
 21
36.533668518066406
 31
0.0
  0
LINE
  5
5F
  8
SMALL_FEATURE
 10
186.52066040039062
 20
36.533668518066406
 30
0.0
 11
186.90167236328125
 21
35.81399917602539
 31
0.0
  0
LINE
  5
60
  8
SMALL_FEATURE
 10
186.90167236328125
 20
35.81399917602539
 30
0.0
 11
187.3249969482422
 21
36.15266799926758
 31
0.0
  0
LINE
  5
61
  8
SMALL_FEATURE
 10
187.3249969482422
 20
36.15266799926758
 30
0.0
 11
187.91766357421875
 21
37.676666259765625
 31
0.0
  0
LINE
  5
62
  8
SMALL_FEATURE
 10
187.91766357421875
 20
37.676666259765625
 30
0.0
 11
187.79066467285156
 21
39.92033386230469
 31
0.0
  0
LINE
  5
63
  8
SMALL_FEATURE
 10
187.79066467285156
 20
39.92033386230469
 30
0.0
 11
198.16233825683594
 21
39.92033386230469
 31
0.0
  0
LINE
  5
64
  8
SMALL_FEATURE
 10
198.16233825683594
 20
39.92033386230469
 30
0.0
 11
198.2046661376953
 21
32.5966682434082
 31
0.0
  0
LINE
  5
65
  8
SMALL_FEATURE
 10
198.2046661376953
 20
32.5966682434082
 30
0.0
 11
197.48500061035156
 21
32.80833435058594
 31
0.0
  0
LINE
  5
66
  8
SMALL_FEATURE
 10
197.48500061035156
 20
32.80833435058594
 30
0.0
 11
196.8076629638672
 21
32.04633331298828
 31
0.0
  0
LINE
  5
67
  8
SMALL_FEATURE
 10
196.8076629638672
 20
32.04633331298828
 30
0.0
 11
195.62232971191406
 21
29.167667388916016
 31
0.0
  0
LINE
  5
68
  8
SMALL_FEATURE
 10
195.62232971191406
 20
29.167667388916016
 30
0.0
 11
195.19900512695312
 21
27.0086669921875
 31
0.0
  0
LINE
  5
69
  8
SMALL_FEATURE
 10
195.19900512695312
 20
27.0086669921875
 30
0.0
 11
195.5800018310547
 21
26.839332580566406
 31
0.0
  0
LINE
  5
6A
  8
SMALL_FEATURE
 10
195.5800018310547
 20
26.839332580566406
 30
0.0
 11
195.74932861328125
 21
28.998332977294922
 31
0.0
  0
LINE
  5
6B
  8
SMALL_FEATURE
 10
195.74932861328125
 20
28.998332977294922
 30
0.0
 11
196.85000610351562
 21
31.792333602905273
 31
0.0
  0
LINE
  5
6C
  8
SMALL_FEATURE
 10
196.85000610351562
 20
31.792333602905273
 30
0.0
 11
197.315673828125
 21
32.42733383178711
 31
0.0
  0
LINE
  5
6D
  8
SMALL_FEATURE
 10
197.315673828125
 20
32.42733383178711
 30
0.0
 11
198.16233825683594
 21
32.512001037597656
 31
0.0
  0
LINE
  5
6E
  8
SMALL_FEATURE
 10
198.16233825683594
 20
32.512001037597656
 30
0.0
 11
198.2046661376953
 21
24.849666595458984
 31
0.0
  0
LINE
  5
6F
  8
SMALL_FEATURE
 10
198.2046661376953
 20
24.849666595458984
 30
0.0
 11
195.7916717529297
 21
24.80733299255371
 31
0.0
  0
LINE
  5
70
  8
SMALL_FEATURE
 10
195.7916717529297
 20
24.80733299255371
 30
0.0
 11
195.5800018310547
 21
25.357666015625
 31
0.0
  0
LINE
  5
71
  8
SMALL_FEATURE
 10
195.5800018310547
 20
25.357666015625
 30
0.0
 11
195.91867065429688
 21
25.611665725708008
 31
0.0
  0
LINE
  5
72
  8
SMALL_FEATURE
 10
195.91867065429688
 20
25.611665725708008
 30
0.0
 11
195.5376739501953
 21
25.611665725708008
 31
0.0
  0
LINE
  5
73
  8
SMALL_FEATURE
 10
195.5376739501953
 20
25.611665725708008
 30
0.0
 11
195.41065979003906
 21
24.80733299255371
 31
0.0
  0
LINE
  5
74
  8
SMALL_FEATURE
 10
195.41065979003906
 20
24.80733299255371
 30
0.0
 11
195.0296630859375
 21
24.80733299255371
 31
0.0
  0
LINE
  5
75
  8
SMALL_FEATURE
 10
195.0296630859375
 20
24.80733299255371
 30
0.0
 11
194.98733520507812
 21
25.18833351135254
 31
0.0
  0
LINE
  5
76
  8
SMALL_FEATURE
 10
194.98733520507812
 20
25.18833351135254
 30
0.0
 11
194.8179931640625
 21
24.80733299255371
 31
0.0
  0
LINE
  5
77
  8
SMALL_FEATURE
 10
194.8179931640625
 20
24.80733299255371
 30
0.0
 11
193.84432983398438
 21
24.80733299255371
 31
0.0
  0
LINE
  5
78
  8
SMALL_FEATURE
 10
193.84432983398438
 20
24.80733299255371
 30
0.0
 11
193.9290008544922
 21
25.611665725708008
 31
0.0
  0
LINE
  5
79
  8
SMALL_FEATURE
 10
193.9290008544922
 20
25.611665725708008
 30
0.0
 11
193.42100524902344
 21
25.527000427246094
 31
0.0
  0
LINE
  5
7A
  8
SMALL_FEATURE
 10
193.42100524902344
 20
25.527000427246094
 30
0.0
 11
193.33633422851562
 21
24.849666595458984
 31
0.0
  0
LINE
  5
7B
  8
SMALL_FEATURE
 10
193.33633422851562
 20
24.849666595458984
 30
0.0
 11
192.91299438476562
 21
24.80733299255371
 31
0.0
  0
LINE
  5
7C
  8
SMALL_FEATURE
 10
192.91299438476562
 20
24.80733299255371
 30
0.0
 11
192.99766540527344
 21
26.373666763305664
 31
0.0
  0
LINE
  5
7D
  8
SMALL_FEATURE
 10
192.99766540527344
 20
26.373666763305664
 30
0.0
 11
192.74366760253906
 21
25.06133270263672
 31
0.0
  0
LINE
  5
7E
  8
SMALL_FEATURE
 10
192.74366760253906
 20
25.06133270263672
 30
0.0
 11
192.0663299560547
 21
24.80733299255371
 31
0.0
  0
LINE
  5
7F
  8
SMALL_FEATURE
 10
192.0663299560547
 20
24.80733299255371
 30
0.0
 11
191.7276611328125
 21
26.373666763305664
 31
0.0
  0
LINE
  5
80
  8
SMALL_FEATURE
 10
191.7276611328125
 20
26.373666763305664
 30
0.0
 11
191.8546600341797
 21
24.80733299255371
 31
0.0
  0
LINE
  5
81
  8
SMALL_FEATURE
 10
191.8546600341797
 20
24.80733299255371
 30
0.0
 11
191.30433654785156
 21
24.80733299255371
 31
0.0
  0
LINE
  5
82
  8
SMALL_FEATURE
 10
191.30433654785156
 20
24.80733299255371
 30
0.0
 11
191.26199340820312
 21
25.103666305541992
 31
0.0
  0
LINE
  5
83
  8
SMALL_FEATURE
 10
191.26199340820312
 20
25.103666305541992
 30
0.0
 11
191.00799560546875
 21
24.80733299255371
 31
0.0
  0
LINE
  5
84
  8
SMALL_FEATURE
 10
191.00799560546875
 20
24.80733299255371
 30
0.0
 11
189.52633666992188
 21
24.80733299255371
 31
0.0
  0
LINE
  5
85
  8
SMALL_FEATURE
 10
189.52633666992188
 20
24.80733299255371
 30
0.0
 11
189.99200439453125
 21
26.71233367919922
 31
0.0
  0
LINE
  5
86
  8
SMALL_FEATURE
 10
189.99200439453125
 20
26.71233367919922
 30
0.0
 11
190.66932678222656
 21
27.262666702270508
 31
0.0
  0
LINE
  5
87
  8
SMALL_FEATURE
 10
190.66932678222656
 20
27.262666702270508
 30
0.0
 11
190.33067321777344
 21
27.051000595092773
 31
0.0
  0
LINE
  5
88
  8
SMALL_FEATURE
 10
190.33067321777344
 20
27.051000595092773
 30
0.0
 11
189.56866455078125
 21
27.262666702270508
 31
0.0
  0
LINE
  5
89
  8
SMALL_FEATURE
 10
189.56866455078125
 20
27.262666702270508
 30
0.0
 11
190.45767211914062
 21
29.760334014892578
 31
0.0
  0
LINE
  5
8A
  8
SMALL_FEATURE
 10
190.45767211914062
 20
29.760334014892578
 30
0.0
 11
189.61099243164062
 21
28.659666061401367
 31
0.0
  0
LINE
  5
8B
  8
SMALL_FEATURE
 10
189.61099243164062
 20
28.659666061401367
 30
0.0
 11
189.31466674804688
 21
27.474332809448242
 31
0.0
  0
LINE
  5
8C
  8
SMALL_FEATURE
 10
189.31466674804688
 20
27.474332809448242
 30
0.0
 11
189.9496612548828
 21
26.797000885009766
 31
0.0
  0
LINE
  5
8D
  8
SMALL_FEATURE
 10
189.9496612548828
 20
26.797000885009766
 30
0.0
 11
189.44166564941406
 21
24.849666595458984
 31
0.0
  0
LINE
  5
8E
  8
SMALL_FEATURE
 10
189.44166564941406
 20
24.849666595458984
 30
0.0
 11
188.9759979248047
 21
24.80733299255371
 31
0.0
  0
LINE
  5
8F
  8
SMALL_FEATURE
 10
188.9759979248047
 20
24.80733299255371
 30
0.0
 11
189.01832580566406
 21
25.527000427246094
 31
0.0
  0
LINE
  5
90
  8
SMALL_FEATURE
 10
189.01832580566406
 20
25.527000427246094
 30
0.0
 11
188.6373291015625
 21
25.611665725708008
 31
0.0
  0
LINE
  5
91
  8
SMALL_FEATURE
 10
188.6373291015625
 20
25.611665725708008
 30
0.0
 11
188.2986602783203
 21
24.849666595458984
 31
0.0
  0
LINE
  5
92
  8
SMALL_FEATURE
 10
188.2986602783203
 20
24.849666595458984
 30
0.0
 11
187.87533569335938
 21
24.80733299255371
 31
0.0
  0
LINE
  5
93
  8
SMALL_FEATURE
 10
187.87533569335938
 20
24.80733299255371
 30
0.0
 11
188.00233459472656
 21
25.611665725708008
 31
0.0
  0
LINE
  5
94
  8
SMALL_FEATURE
 10
188.00233459472656
 20
25.611665725708008
 30
0.0
 11
187.79066467285156
 21
25.611665725708008
 31
0.0
  0
LINE
  5
95
  8
SMALL_FEATURE
 10
187.79066467285156
 20
25.611665725708008
 30
0.0
 11
187.621337890625
 21
24.849666595458984
 31
0.0
  0
LINE
  5
96
  8
SMALL_FEATURE
 10
187.621337890625
 20
24.849666595458984
 30
0.0
 11
187.197998046875
 21
24.80733299255371
 31
0.0
  0
LINE
  5
97
  8
SMALL_FEATURE
 10
187.197998046875
 20
24.80733299255371
 30
0.0
 11
187.621337890625
 21
26.45833396911621
 31
0.0
  0
LINE
  5
98
  8
SMALL_FEATURE
 10
187.621337890625
 20
26.45833396911621
 30
0.0
 11
186.60533142089844
 21
24.849666595458984
 31
0.0
  0
LINE
  5
99
  8
SMALL_FEATURE
 10
186.60533142089844
 20
24.849666595458984
 30
0.0
 11
186.0973358154297
 21
24.80733299255371
 31
0.0
  0
LINE
  5
9A
  8
SMALL_FEATURE
 10
186.0973358154297
 20
24.80733299255371
 30
0.0
 11
186.05499267578125
 21
25.357666015625
 31
0.0
  0
LINE
  5
9B
  8
SMALL_FEATURE
 10
186.05499267578125
 20
25.357666015625
 30
0.0
 11
186.56300354003906
 21
26.33133316040039
 31
0.0
  0
LINE
  5
9C
  8
SMALL_FEATURE
 10
186.56300354003906
 20
26.33133316040039
 30
0.0
 11
186.3090057373047
 21
26.797000885009766
 31
0.0
  0
LINE
  5
9D
  8
SMALL_FEATURE
 10
186.3090057373047
 20
26.797000885009766
 30
0.0
 11
186.56300354003906
 21
26.966333389282227
 31
0.0
  0
LINE
  5
9E
  8
SMALL_FEATURE
 10
186.56300354003906
 20
26.966333389282227
 30
0.0
 11
186.05499267578125
 21
27.093334197998047
 31
0.0
  0
LINE
  5
9F
  8
SMALL_FEATURE
 10
186.05499267578125
 20
27.093334197998047
 30
0.0
 11
186.05499267578125
 21
27.55900001525879
 31
0.0
  0
LINE
  5
A0
  8
SMALL_FEATURE
 10
186.05499267578125
 20
27.55900001525879
 30
0.0
 11
187.36734008789062
 21
29.464000701904297
 31
0.0
  0
LINE
  5
A1
  8
SMALL_FEATURE
 10
187.36734008789062
 20
29.464000701904297
 30
0.0
 11
188.00233459472656
 21
29.54866600036621
 31
0.0
  0
LINE
  5
A2
  8
SMALL_FEATURE
 10
188.00233459472656
 20
29.54866600036621
 30
0.0
 11
187.45199584960938
 21
29.760334014892578
 31
0.0
  0
LINE
  5
A3
  8
SMALL_FEATURE
 10
187.45199584960938
 20
29.760334014892578
 30
0.0
 11
185.8433380126953
 21
27.474332809448242
 31
0.0
  0
LINE
  5
A4
  8
SMALL_FEATURE
 10
185.8433380126953
 20
27.474332809448242
 30
0.0
 11
185.8433380126953
 21
27.093334197998047
 31
0.0
  0
LINE
  5
A5
  8
SMALL_FEATURE
 10
185.8433380126953
 20
27.093334197998047
 30
0.0
 11
186.26666259765625
 21
26.797000885009766
 31
0.0
  0
LINE
  5
A6
  8
SMALL_FEATURE
 10
186.26666259765625
 20
26.797000885009766
 30
0.0
 11
186.26666259765625
 21
25.908000946044922
 31
0.0
  0
LINE
  5
A7
  8
SMALL_FEATURE
 10
186.26666259765625
 20
25.908000946044922
 30
0.0
 11
185.80099487304688
 21
24.80733299255371
 31
0.0
  0
LINE
  5
A8
  8
SMALL_FEATURE
 10
185.80099487304688
 20
24.80733299255371
 30
0.0
 11
180.84800720214844
 21
24.80733299255371
 31
0.0
  0
LINE
  5
A9
  8
SMALL_FEATURE
 10
180.84800720214844
 20
24.80733299255371
 30
0.0
 11
180.8056640625
 21
25.950332641601562
 31
0.0
  0
LINE
  5
AA
  8
SMALL_FEATURE
 10
180.8056640625
 20
25.950332641601562
 30
0.0
 11
182.5413360595703
 21
27.770666122436523
 31
0.0
  0
LINE
  5
AB
  8
SMALL_FEATURE
 10
182.5413360595703
 20
27.770666122436523
 30
0.0
 11
182.96466064453125
 21
27.72833251953125
 31
0.0
  0
LINE
  5
AC
  8
SMALL_FEATURE
 10
182.96466064453125
 20
27.72833251953125
 30
0.0
 11
182.5413360595703
 21
25.65399932861328
 31
0.0
  0
LINE
  5
AD
  8
SMALL_FEATURE
 10
182.5413360595703
 20
25.65399932861328
 30
0.0
 11
182.96466064453125
 21
26.754667282104492
 31
0.0
  0
LINE
  5
AE
  8
SMALL_FEATURE
 10
182.96466064453125
 20
26.754667282104492
 30
0.0
 11
183.59967041015625
 21
26.500667572021484
 31
0.0
  0
LINE
  5
AF
  8
SMALL_FEATURE
 10
183.59967041015625
 20
26.500667572021484
 30
0.0
 11
185.92799377441406
 21
32.08866500854492
 31
0.0
  0
LINE
  5
B0
  8
SMALL_FEATURE
 10
185.92799377441406
 20
32.08866500854492
 30
0.0
 11
186.35133361816406
 21
32.04633331298828
 31
0.0
  0
LINE
  5
B1
  8
SMALL_FEATURE
 10
186.35133361816406
 20
32.04633331298828
 30
0.0
 11
186.3090057373047
 21
31.07266616821289
 31
0.0
  0
LINE
  5
B2
  8
SMALL_FEATURE
 10
186.3090057373047
 20
31.07266616821289
 30
0.0
 11
186.8593292236328
 21
33.189334869384766
 31
0.0
  0
LINE
  5
B3
  8
SMALL_FEATURE
 10
186.8593292236328
 20
33.189334869384766
 30
0.0
 11
188.2986602783203
 21
32.935333251953125
 31
0.0
  0
LINE
  5
B4
  8
SMALL_FEATURE
 10
188.2986602783203
 20
32.935333251953125
 30
0.0
 11
189.2723388671875
 21
33.14699935913086
 31
0.0
  0
LINE
  5
B5
  8
SMALL_FEATURE
 10
189.2723388671875
 20
33.14699935913086
 30
0.0
 11
187.2826690673828
 21
33.48566818237305
 31
0.0
  0
LINE
  5
B6
  8
SMALL_FEATURE
 10
187.2826690673828
 20
33.48566818237305
 30
0.0
 11
187.24032592773438
 21
34.24766540527344
 31
0.0
  0
LINE
  5
B7
  8
SMALL_FEATURE
 10
187.24032592773438
 20
34.24766540527344
 30
0.0
 11
186.90167236328125
 21
33.654998779296875
 31
0.0
  0
LINE
  5
B8
  8
SMALL_FEATURE
 10
186.90167236328125
 20
33.654998779296875
 30
0.0
 11
186.52066040039062
 21
33.654998779296875
 31
0.0
  0
LINE
  5
B9
  8
SMALL_FEATURE
 10
186.52066040039062
 20
33.654998779296875
 30
0.0
 11
186.69000244140625
 21
35.348331451416016
 31
0.0
  0
LINE
  5
BA
  8
SMALL_FEATURE
 10
186.69000244140625
 20
35.348331451416016
 30
0.0
 11
185.6316680908203
 21
33.909000396728516
 31
0.0
  0
LINE
  5
BB
  8
SMALL_FEATURE
 10
185.6316680908203
 20
33.909000396728516
 30
0.0
 11
183.13400268554688
 21
32.30033493041992
 31
0.0
  0
LINE
  5
BC
  8
SMALL_FEATURE
 10
183.13400268554688
 20
32.30033493041992
 30
0.0
 11
182.28733825683594
 21
31.284334182739258
 31
0.0
  0
LINE
  5
BD
  8
SMALL_FEATURE
 10
182.28733825683594
 20
31.284334182739258
 30
0.0
 11
182.1179962158203
 21
28.95599937438965
 31
0.0
  0
LINE
  5
BE
  8
SMALL_FEATURE
 10
182.1179962158203
 20
28.95599937438965
 30
0.0
 11
182.41433715820312
 21
28.70199966430664
 31
0.0
  0
LINE
  5
BF
  8
SMALL_FEATURE
 10
182.41433715820312
 20
28.70199966430664
 30
0.0
 11
182.2449951171875
 21
30.5223331451416
 31
0.0
  0
LINE
  5
C0
  8
SMALL_FEATURE
 10
182.2449951171875
 20
30.5223331451416
 30
0.0
 11
182.6683349609375
 21
31.368999481201172
 31
0.0
  0
LINE
  5
C1
  8
SMALL_FEATURE
 10
182.6683349609375
 20
31.368999481201172
 30
0.0
 11
183.5573272705078
 21
32.17333221435547
 31
0.0
  0
LINE
  5
C2
  8
SMALL_FEATURE
 10
183.5573272705078
 20
32.17333221435547
 30
0.0
 11
185.3353271484375
 21
32.72366714477539
 31
0.0
  0
LINE
  5
C3
  8
SMALL_FEATURE
 10
185.3353271484375
 20
32.72366714477539
 30
0.0
 11
183.72666931152344
 21
27.347333908081055
 31
0.0
  0
LINE
  5
C4
  8
SMALL_FEATURE
 10
183.72666931152344
 20
27.347333908081055
 30
0.0
 11
183.26100158691406
 21
27.347333908081055
 31
0.0
  0
LINE
  5
C5
  8
SMALL_FEATURE
 10
183.26100158691406
 20
27.347333908081055
 30
0.0
 11
183.17633056640625
 21
28.575000762939453
 31
0.0
  0
LINE
  5
C6
  8
SMALL_FEATURE
 10
183.17633056640625
 20
28.575000762939453
 30
0.0
 11
183.93833923339844
 21
29.506332397460938
 31
0.0
  0
LINE
  5
C7
  8
SMALL_FEATURE
 10
183.93833923339844
 20
29.506332397460938
 30
0.0
 11
182.71066284179688
 21
28.490333557128906
 31
0.0
  0
LINE
  5
C8
  8
SMALL_FEATURE
 10
182.71066284179688
 20
28.490333557128906
 30
0.0
 11
181.22900390625
 21
26.45833396911621
 31
0.0
  0
LINE
  5
C9
  8
SMALL_FEATURE
 10
181.22900390625
 20
26.45833396911621
 30
0.0
 11
180.84800720214844
 21
26.45833396911621
 31
0.0
  0
LINE
  5
CA
  8
SMALL_FEATURE
 10
180.84800720214844
 20
26.45833396911621
 30
0.0
 11
180.8056640625
 21
39.87799835205078
 31
0.0
  0
LINE
  5
CB
  8
SMALL_FEATURE
 10
184.61566162109375
 20
24.553333282470703
 30
0.0
 11
198.16233825683594
 21
24.595666885375977
 31
0.0
  0
LINE
  5
CC
  8
SMALL_FEATURE
 10
198.16233825683594
 20
24.595666885375977
 30
0.0
 11
198.2046661376953
 21
17.906999588012695
 31
0.0
  0
LINE
  5
CD
  8
SMALL_FEATURE
 10
198.2046661376953
 20
17.906999588012695
 30
0.0
 11
184.6580047607422
 21
17.864665985107422
 31
0.0
  0
LINE
  5
CE
  8
SMALL_FEATURE
 10
184.6580047607422
 20
17.864665985107422
 30
0.0
 11
184.61566162109375
 21
24.553333282470703
 31
0.0
  0
LINE
  5
CF
  8
SMALL_FEATURE
 10
54.05966567993164
 20
217.25466918945312
 30
0.0
 11
73.0250015258789
 21
217.2969970703125
 31
0.0
  0
LINE
  5
D0
  8
SMALL_FEATURE
 10
73.0250015258789
 20
217.2969970703125
 30
0.0
 11
73.06733703613281
 21
213.9949951171875
 31
0.0
  0
LINE
  5
D1
  8
SMALL_FEATURE
 10
73.06733703613281
 20
213.9949951171875
 30
0.0
 11
54.10200119018555
 21
213.95266723632812
 31
0.0
  0
LINE
  5
D2
  8
SMALL_FEATURE
 10
54.10200119018555
 20
213.95266723632812
 30
0.0
 11
54.05966567993164
 21
217.25466918945312
 31
0.0
  0
LINE
  5
D3
  8
SMALL_FEATURE
 10
143.04432678222656
 20
192.2779998779297
 30
0.0
 11
154.2203369140625
 21
192.32032775878906
 31
0.0
  0
LINE
  5
D4
  8
SMALL_FEATURE
 10
154.2203369140625
 20
192.32032775878906
 30
0.0
 11
154.26266479492188
 21
186.73233032226562
 31
0.0
  0
LINE
  5
D5
  8
SMALL_FEATURE
 10
154.26266479492188
 20
186.73233032226562
 30
0.0
 11
143.086669921875
 21
186.69000244140625
 31
0.0
  0
LINE
  5
D6
  8
SMALL_FEATURE
 10
143.086669921875
 20
186.69000244140625
 30
0.0
 11
143.04432678222656
 21
192.2779998779297
 31
0.0
  0
LINE
  5
D7
  8
SMALL_FEATURE
 10
171.746337890625
 20
192.2779998779297
 30
0.0
 11
182.83766174316406
 21
192.32032775878906
 31
0.0
  0
LINE
  5
D8
  8
SMALL_FEATURE
 10
182.83766174316406
 20
192.32032775878906
 30
0.0
 11
182.8800048828125
 21
186.73233032226562
 31
0.0
  0
LINE
  5
D9
  8
SMALL_FEATURE
 10
182.8800048828125
 20
186.73233032226562
 30
0.0
 11
171.78866577148438
 21
186.69000244140625
 31
0.0
  0
LINE
  5
DA
  8
SMALL_FEATURE
 10
171.78866577148438
 20
186.69000244140625
 30
0.0
 11
171.746337890625
 21
192.2779998779297
 31
0.0
  0
LINE
  5
DB
  8
SMALL_FEATURE
 10
184.61566162109375
 20
13.461999893188477
 30
0.0
 11
198.16233825683594
 21
13.50433349609375
 31
0.0
  0
LINE
  5
DC
  8
SMALL_FEATURE
 10
198.16233825683594
 20
13.50433349609375
 30
0.0
 11
198.2046661376953
 21
9.524999618530273
 31
0.0
  0
LINE
  5
DD
  8
SMALL_FEATURE
 10
198.2046661376953
 20
9.524999618530273
 30
0.0
 11
184.6580047607422
 21
9.482666969299316
 31
0.0
  0
LINE
  5
DE
  8
SMALL_FEATURE
 10
184.6580047607422
 20
9.482666969299316
 30
0.0
 11
184.61566162109375
 21
13.461999893188477
 31
0.0
  0
LINE
  5
DF
  8
SMALL_FEATURE
 10
184.61566162109375
 20
17.610666275024414
 30
0.0
 11
198.16233825683594
 21
17.652999877929688
 31
0.0
  0
LINE
  5
E0
  8
SMALL_FEATURE
 10
198.16233825683594
 20
17.652999877929688
 30
0.0
 11
198.2046661376953
 21
13.758333206176758
 31
0.0
  0
LINE
  5
E1
  8
SMALL_FEATURE
 10
198.2046661376953
 20
13.758333206176758
 30
0.0
 11
184.6580047607422
 21
13.715999603271484
 31
0.0
  0
LINE
  5
E2
  8
SMALL_FEATURE
 10
184.6580047607422
 20
13.715999603271484
 30
0.0
 11
184.61566162109375
 21
17.610666275024414
 31
0.0
  0
LINE
  5
E3
  8
SMALL_FEATURE
 10
45.1696662902832
 20
219.371337890625
 30
0.0
 11
53.805667877197266
 21
219.41366577148438
 31
0.0
  0
LINE
  5
E4
  8
SMALL_FEATURE
 10
53.805667877197266
 20
219.41366577148438
 30
0.0
 11
53.847999572753906
 21
212.4709930419922
 31
0.0
  0
LINE
  5
E5
  8
SMALL_FEATURE
 10
53.847999572753906
 20
212.4709930419922
 30
0.0
 11
45.3390007019043
 21
212.4286651611328
 31
0.0
  0
LINE
  5
E6
  8
SMALL_FEATURE
 10
45.3390007019043
 20
212.4286651611328
 30
0.0
 11
45.29666519165039
 21
212.80966186523438
 31
0.0
  0
LINE
  5
E7
  8
SMALL_FEATURE
 10
45.29666519165039
 20
212.80966186523438
 30
0.0
 11
46.60900115966797
 21
214.3336639404297
 31
0.0
  0
LINE
  5
E8
  8
SMALL_FEATURE
 10
46.60900115966797
 20
214.3336639404297
 30
0.0
 11
46.94766616821289
 21
216.53500366210938
 31
0.0
  0
LINE
  5
E9
  8
SMALL_FEATURE
 10
46.94766616821289
 20
216.53500366210938
 30
0.0
 11
46.52433395385742
 21
217.6356658935547
 31
0.0
  0
LINE
  5
EA
  8
SMALL_FEATURE
 10
46.52433395385742
 20
217.6356658935547
 30
0.0
 11
45.1696662902832
 21
219.0326690673828
 31
0.0
  0
LINE
  5
EB
  8
SMALL_FEATURE
 10
45.1696662902832
 20
219.0326690673828
 30
0.0
 11
45.1696662902832
 21
219.371337890625
 31
0.0
  0
LINE
  5
EC
  8
SMALL_FEATURE
 10
73.27899932861328
 20
219.371337890625
 30
0.0
 11
81.83032989501953
 21
219.41366577148438
 31
0.0
  0
LINE
  5
ED
  8
SMALL_FEATURE
 10
81.83032989501953
 20
219.41366577148438
 30
0.0
 11
81.87266540527344
 21
219.0326690673828
 31
0.0
  0
LINE
  5
EE
  8
SMALL_FEATURE
 10
81.87266540527344
 20
219.0326690673828
 30
0.0
 11
80.51799774169922
 21
217.6356658935547
 31
0.0
  0
LINE
  5
EF
  8
SMALL_FEATURE
 10
80.51799774169922
 20
217.6356658935547
 30
0.0
 11
80.17933654785156
 21
216.53500366210938
 31
0.0
  0
LINE
  5
F0
  8
SMALL_FEATURE
 10
80.17933654785156
 20
216.53500366210938
 30
0.0
 11
80.17933654785156
 21
215.22267150878906
 31
0.0
  0
LINE
  5
F1
  8
SMALL_FEATURE
 10
80.17933654785156
 20
215.22267150878906
 30
0.0
 11
80.60266876220703
 21
214.1219940185547
 31
0.0
  0
LINE
  5
F2
  8
SMALL_FEATURE
 10
80.60266876220703
 20
214.1219940185547
 30
0.0
 11
81.83032989501953
 21
212.80966186523438
 31
0.0
  0
LINE
  5
F3
  8
SMALL_FEATURE
 10
81.83032989501953
 20
212.80966186523438
 30
0.0
 11
81.83032989501953
 21
212.4709930419922
 31
0.0
  0
LINE
  5
F4
  8
SMALL_FEATURE
 10
81.83032989501953
 20
212.4709930419922
 30
0.0
 11
73.32133483886719
 21
212.4286651611328
 31
0.0
  0
LINE
  5
F5
  8
SMALL_FEATURE
 10
73.32133483886719
 20
212.4286651611328
 30
0.0
 11
73.27899932861328
 21
219.371337890625
 31
0.0
  0
LINE
  5
F6
  8
SMALL_FEATURE
 10
87.3759994506836
 20
41.232666015625
 30
0.0
 11
87.33366394042969
 21
38.608001708984375
 31
0.0
  0
LINE
  5
F7
  8
SMALL_FEATURE
 10
87.33366394042969
 20
38.608001708984375
 30
0.0
 11
68.2836685180664
 21
38.650333404541016
 31
0.0
  0
LINE
  5
F8
  8
SMALL_FEATURE
 10
68.2836685180664
 20
38.650333404541016
 30
0.0
 11
68.32599639892578
 21
41.275001525878906
 31
0.0
  0
LINE
  5
F9
  8
SMALL_FEATURE
 10
68.32599639892578
 20
41.275001525878906
 30
0.0
 11
87.3759994506836
 21
41.232666015625
 31
0.0
  0
LINE
  5
FA
  8
SMALL_FEATURE
 10
65.95532989501953
 20
247.35366821289062
 30
0.0
 11
70.35800170898438
 21
247.31134033203125
 31
0.0
  0
LINE
  5
FB
  8
SMALL_FEATURE
 10
70.35800170898438
 20
247.31134033203125
 30
0.0
 11
70.31566619873047
 21
240.41099548339844
 31
0.0
  0
LINE
  5
FC
  8
SMALL_FEATURE
 10
70.31566619873047
 20
240.41099548339844
 30
0.0
 11
67.39466857910156
 21
240.83433532714844
 31
0.0
  0
LINE
  5
FD
  8
SMALL_FEATURE
 10
67.39466857910156
 20
240.83433532714844
 30
0.0
 11
67.30999755859375
 21
240.45333862304688
 31
0.0
  0
LINE
  5
FE
  8
SMALL_FEATURE
 10
67.30999755859375
 20
240.45333862304688
 30
0.0
 11
65.91300201416016
 21
240.49566650390625
 31
0.0
  0
LINE
  5
FF
  8
SMALL_FEATURE
 10
65.91300201416016
 20
240.49566650390625
 30
0.0
 11
65.95532989501953
 21
247.35366821289062
 31
0.0
  0
LINE
  5
100
  8
SMALL_FEATURE
 10
54.10200119018555
 20
240.24166870117188
 30
0.0
 11
56.557334899902344
 21
240.1993408203125
 31
0.0
  0
LINE
  5
101
  8
SMALL_FEATURE
 10
56.557334899902344
 20
240.1993408203125
 30
0.0
 11
56.557334899902344
 21
232.53700256347656
 31
0.0
  0
LINE
  5
102
  8
SMALL_FEATURE
 10
56.557334899902344
 20
232.53700256347656
 30
0.0
 11
56.218666076660156
 21
232.41000366210938
 31
0.0
  0
LINE
  5
103
  8
SMALL_FEATURE
 10
56.218666076660156
 20
232.41000366210938
 30
0.0
 11
56.176334381103516
 21
228.642333984375
 31
0.0
  0
LINE
  5
104
  8
SMALL_FEATURE
 10
56.176334381103516
 20
228.642333984375
 30
0.0
 11
54.05966567993164
 21
228.9810028076172
 31
0.0
  0
LINE
  5
105
  8
SMALL_FEATURE
 10
54.05966567993164
 20
228.9810028076172
 30
0.0
 11
54.10200119018555
 21
240.24166870117188
 31
0.0
  0
LINE
  5
106
  8
SMALL_FEATURE
 10
42.29100036621094
 20
119.71866607666016
 30
0.0
 11
49.44533157348633
 21
119.76100158691406
 31
0.0
  0
LINE
  5
107
  8
SMALL_FEATURE
 10
49.44533157348633
 20
119.76100158691406
 30
0.0
 11
49.44533157348633
 21
119.2106704711914
 31
0.0
  0
LINE
  5
108
  8
SMALL_FEATURE
 10
49.44533157348633
 20
119.2106704711914
 30
0.0
 11
45.63533401489258
 21
119.1259994506836
 31
0.0
  0
LINE
  5
109
  8
SMALL_FEATURE
 10
45.63533401489258
 20
119.1259994506836
 30
0.0
 11
49.40299987792969
 21
118.9990005493164
 31
0.0
  0
LINE
  5
10A
  8
SMALL_FEATURE
 10
49.40299987792969
 20
118.9990005493164
 30
0.0
 11
49.44533157348633
 21
116.54366302490234
 31
0.0
  0
LINE
  5
10B
  8
SMALL_FEATURE
 10
49.44533157348633
 20
116.54366302490234
 30
0.0
 11
42.33333206176758
 21
116.50133514404297
 31
0.0
  0
LINE
  5
10C
  8
SMALL_FEATURE
 10
42.33333206176758
 20
116.50133514404297
 30
0.0
 11
42.29100036621094
 21
119.71866607666016
 31
0.0
  0
LINE
  5
10D
  8
SMALL_FEATURE
 10
46.10100173950195
 20
41.82533264160156
 30
0.0
 11
53.1706657409668
 21
41.86766815185547
 31
0.0
  0
LINE
  5
10E
  8
SMALL_FEATURE
 10
53.1706657409668
 20
41.86766815185547
 30
0.0
 11
53.1706657409668
 21
41.31733322143555
 31
0.0
  0
LINE
  5
10F
  8
SMALL_FEATURE
 10
53.1706657409668
 20
41.31733322143555
 30
0.0
 11
49.2760009765625
 21
41.232666015625
 31
0.0
  0
LINE
  5
110
  8
SMALL_FEATURE
 10
49.2760009765625
 20
41.232666015625
 30
0.0
 11
53.128334045410156
 21
41.10566711425781
 31
0.0
  0
LINE
  5
111
  8
SMALL_FEATURE
 10
53.128334045410156
 20
41.10566711425781
 30
0.0
 11
53.1706657409668
 21
38.650333404541016
 31
0.0
  0
LINE
  5
112
  8
SMALL_FEATURE
 10
53.1706657409668
 20
38.650333404541016
 30
0.0
 11
46.143333435058594
 21
38.608001708984375
 31
0.0
  0
LINE
  5
113
  8
SMALL_FEATURE
 10
46.143333435058594
 20
38.608001708984375
 30
0.0
 11
46.10100173950195
 21
41.82533264160156
 31
0.0
  0
LINE
  5
114
  8
SMALL_FEATURE
 10
61.46799850463867
 20
141.81666564941406
 30
0.0
 11
63.83866500854492
 21
141.47799682617188
 31
0.0
  0
LINE
  5
115
  8
SMALL_FEATURE
 10
63.83866500854492
 20
141.47799682617188
 30
0.0
 11
63.79633331298828
 21
134.23899841308594
 31
0.0
  0
LINE
  5
116
  8
SMALL_FEATURE
 10
63.79633331298828
 20
134.23899841308594
 30
0.0
 11
61.42566680908203
 21
133.9426727294922
 31
0.0
  0
LINE
  5
117
  8
SMALL_FEATURE
 10
61.42566680908203
 20
133.9426727294922
 30
0.0
 11
61.46799850463867
 21
141.81666564941406
 31
0.0
  0
LINE
  5
118
  8
SMALL_FEATURE
 10
70.78133392333984
 20
57.48866653442383
 30
0.0
 11
70.86599731445312
 21
46.35499954223633
 31
0.0
  0
LINE
  5
119
  8
SMALL_FEATURE
 10
70.86599731445312
 20
46.35499954223633
 30
0.0
 11
71.03533172607422
 21
53.59400177001953
 31
0.0
  0
LINE
  5
11A
  8
SMALL_FEATURE
 10
71.03533172607422
 20
53.59400177001953
 30
0.0
 11
73.87166595458984
 21
53.1706657409668
 31
0.0
  0
LINE
  5
11B
  8
SMALL_FEATURE
 10
73.87166595458984
 20
53.1706657409668
 30
0.0
 11
73.95633697509766
 21
53.551666259765625
 31
0.0
  0
LINE
  5
11C
  8
SMALL_FEATURE
 10
73.95633697509766
 20
53.551666259765625
 30
0.0
 11
81.61866760253906
 21
53.551666259765625
 31
0.0
  0
LINE
  5
11D
  8
SMALL_FEATURE
 10
81.61866760253906
 20
53.551666259765625
 30
0.0
 11
81.70333099365234
 21
53.1706657409668
 31
0.0
  0
LINE
  5
11E
  8
SMALL_FEATURE
 10
81.70333099365234
 20
53.1706657409668
 30
0.0
 11
84.53966522216797
 21
53.59400177001953
 31
0.0
  0
LINE
  5
11F
  8
SMALL_FEATURE
 10
84.53966522216797
 20
53.59400177001953
 30
0.0
 11
84.53966522216797
 21
48.810333251953125
 31
0.0
  0
LINE
  5
120
  8
SMALL_FEATURE
 10
84.53966522216797
 20
48.810333251953125
 30
0.0
 11
81.66100311279297
 21
49.233665466308594
 31
0.0
  0
LINE
  5
121
  8
SMALL_FEATURE
 10
81.66100311279297
 20
49.233665466308594
 30
0.0
 11
81.61866760253906
 21
48.852664947509766
 31
0.0
  0
LINE
  5
122
  8
SMALL_FEATURE
 10
81.61866760253906
 20
48.852664947509766
 30
0.0
 11
78.40133666992188
 21
48.72566604614258
 31
0.0
  0
LINE
  5
123
  8
SMALL_FEATURE
 10
78.40133666992188
 20
48.72566604614258
 30
0.0
 11
81.61866760253906
 21
48.64099884033203
 31
0.0
  0
LINE
  5
124
  8
SMALL_FEATURE
 10
81.61866760253906
 20
48.64099884033203
 30
0.0
 11
81.66100311279297
 21
48.2599983215332
 31
0.0
  0
LINE
  5
125
  8
SMALL_FEATURE
 10
81.66100311279297
 20
48.2599983215332
 30
0.0
 11
84.53966522216797
 21
48.68333435058594
 31
0.0
  0
LINE
  5
126
  8
SMALL_FEATURE
 10
84.53966522216797
 20
48.68333435058594
 30
0.0
 11
84.66666412353516
 21
46.27033233642578
 31
0.0
  0
LINE
  5
127
  8
SMALL_FEATURE
 10
84.66666412353516
 20
46.27033233642578
 30
0.0
 11
84.83599853515625
 21
48.64099884033203
 31
0.0
  0
LINE
  5
128
  8
SMALL_FEATURE
 10
84.83599853515625
 20
48.64099884033203
 30
0.0
 11
87.33366394042969
 21
48.64099884033203
 31
0.0
  0
LINE
  5
129
  8
SMALL_FEATURE
 10
87.33366394042969
 20
48.64099884033203
 30
0.0
 11
87.50299835205078
 21
46.35499954223633
 31
0.0
  0
LINE
  5
12A
  8
SMALL_FEATURE
 10
87.50299835205078
 20
46.35499954223633
 30
0.0
 11
87.62999725341797
 21
48.68333435058594
 31
0.0
  0
LINE
  5
12B
  8
SMALL_FEATURE
 10
87.62999725341797
 20
48.68333435058594
 30
0.0
 11
90.5086669921875
 21
48.2599983215332
 31
0.0
  0
LINE
  5
12C
  8
SMALL_FEATURE
 10
90.5086669921875
 20
48.2599983215332
 30
0.0
 11
90.5510025024414
 21
48.64099884033203
 31
0.0
  0
LINE
  5
12D
  8
SMALL_FEATURE
 10
90.5510025024414
 20
48.64099884033203
 30
0.0
 11
93.68367004394531
 21
48.72566604614258
 31
0.0
  0
LINE
  5
12E
  8
SMALL_FEATURE
 10
93.68367004394531
 20
48.72566604614258
 30
0.0
 11
90.5510025024414
 21
48.852664947509766
 31
0.0
  0
LINE
  5
12F
  8
SMALL_FEATURE
 10
90.5510025024414
 20
48.852664947509766
 30
0.0
 11
90.5086669921875
 21
49.233665466308594
 31
0.0
  0
LINE
  5
130
  8
SMALL_FEATURE
 10
90.5086669921875
 20
49.233665466308594
 30
0.0
 11
87.62999725341797
 21
48.810333251953125
 31
0.0
  0
LINE
  5
131
  8
SMALL_FEATURE
 10
87.62999725341797
 20
48.810333251953125
 30
0.0
 11
87.50299835205078
 21
52.66266632080078
 31
0.0
  0
LINE
  5
132
  8
SMALL_FEATURE
 10
87.50299835205078
 20
52.66266632080078
 30
0.0
 11
87.33366394042969
 21
52.112335205078125
 31
0.0
  0
LINE
  5
133
  8
SMALL_FEATURE
 10
87.33366394042969
 20
52.112335205078125
 30
0.0
 11
86.57166290283203
 21
51.94300079345703
 31
0.0
  0
LINE
  5
134
  8
SMALL_FEATURE
 10
86.57166290283203
 20
51.94300079345703
 30
0.0
 11
86.52933502197266
 21
50.84233474731445
 31
0.0
  0
LINE
  5
135
  8
SMALL_FEATURE
 10
86.52933502197266
 20
50.84233474731445
 30
0.0
 11
85.97899627685547
 21
50.79999923706055
 31
0.0
  0
LINE
  5
136
  8
SMALL_FEATURE
 10
85.97899627685547
 20
50.79999923706055
 30
0.0
 11
85.97899627685547
 21
50.33433151245117
 31
0.0
  0
LINE
  5
137
  8
SMALL_FEATURE
 10
85.97899627685547
 20
50.33433151245117
 30
0.0
 11
86.23300170898438
 21
50.757667541503906
 31
0.0
  0
LINE
  5
138
  8
SMALL_FEATURE
 10
86.23300170898438
 20
50.757667541503906
 30
0.0
 11
87.3759994506836
 21
50.54600143432617
 31
0.0
  0
LINE
  5
139
  8
SMALL_FEATURE
 10
87.3759994506836
 20
50.54600143432617
 30
0.0
 11
87.3759994506836
 21
48.89500045776367
 31
0.0
  0
LINE
  5
13A
  8
SMALL_FEATURE
 10
87.3759994506836
 20
48.89500045776367
 30
0.0
 11
84.83599853515625
 21
48.852664947509766
 31
0.0
  0
LINE
  5
13B
  8
SMALL_FEATURE
 10
84.83599853515625
 20
48.852664947509766
 30
0.0
 11
84.79366302490234
 21
50.54600143432617
 31
0.0
  0
LINE
  5
13C
  8
SMALL_FEATURE
 10
84.79366302490234
 20
50.54600143432617
 30
0.0
 11
85.64033508300781
 21
50.884666442871094
 31
0.0
  0
LINE
  5
13D
  8
SMALL_FEATURE
 10
85.64033508300781
 20
50.884666442871094
 30
0.0
 11
85.47100067138672
 21
52.02766799926758
 31
0.0
  0
LINE
  5
13E
  8
SMALL_FEATURE
 10
85.47100067138672
 20
52.02766799926758
 30
0.0
 11
84.79366302490234
 21
52.154666900634766
 31
0.0
  0
LINE
  5
13F
  8
SMALL_FEATURE
 10
84.79366302490234
 20
52.154666900634766
 30
0.0
 11
84.70899963378906
 21
57.573333740234375
 31
0.0
  0
LINE
  5
140
  8
SMALL_FEATURE
 10
84.70899963378906
 20
57.573333740234375
 30
0.0
 11
84.53966522216797
 21
53.72100067138672
 31
0.0
  0
LINE
  5
141
  8
SMALL_FEATURE
 10
84.53966522216797
 20
53.72100067138672
 30
0.0
 11
81.74566650390625
 21
54.14433288574219
 31
0.0
  0
LINE
  5
142
  8
SMALL_FEATURE
 10
81.74566650390625
 20
54.14433288574219
 30
0.0
 11
81.61866760253906
 21
53.76333236694336
 31
0.0
  0
LINE
  5
143
  8
SMALL_FEATURE
 10
81.61866760253906
 20
53.76333236694336
 30
0.0
 11
73.95633697509766
 21
53.76333236694336
 31
0.0
  0
LINE
  5
144
  8
SMALL_FEATURE
 10
73.95633697509766
 20
53.76333236694336
 30
0.0
 11
73.82933044433594
 21
54.14433288574219
 31
0.0
  0
LINE
  5
145
  8
SMALL_FEATURE
 10
73.82933044433594
 20
54.14433288574219
 30
0.0
 11
71.03533172607422
 21
53.72100067138672
 31
0.0
  0
LINE
  5
146
  8
SMALL_FEATURE
 10
71.03533172607422
 20
53.72100067138672
 30
0.0
 11
70.99299621582031
 21
57.48866653442383
 31
0.0
  0
LINE
  5
147
  8
SMALL_FEATURE
 10
70.99299621582031
 20
57.48866653442383
 30
0.0
 11
70.78133392333984
 21
57.48866653442383
 31
0.0
  0
LINE
  5
148
  8
SMALL_FEATURE
 10
59.689998626708984
 20
119.1259994506836
 30
0.0
 11
59.77466583251953
 21
116.28966522216797
 31
0.0
  0
LINE
  5
149
  8
SMALL_FEATURE
 10
59.77466583251953
 20
116.28966522216797
 30
0.0
 11
66.08233642578125
 21
116.37433624267578
 31
0.0
  0
LINE
  5
14A
  8
SMALL_FEATURE
 10
66.08233642578125
 20
116.37433624267578
 30
0.0
 11
65.99766540527344
 21
119.2106704711914
 31
0.0
  0
LINE
  5
14B
  8
SMALL_FEATURE
 10
65.99766540527344
 20
119.2106704711914
 30
0.0
 11
63.88100051879883
 21
119.2106704711914
 31
0.0
  0
LINE
  5
14C
  8
SMALL_FEATURE
 10
63.88100051879883
 20
119.2106704711914
 30
0.0
 11
63.79633331298828
 21
117.94066619873047
 31
0.0
  0
LINE
  5
14D
  8
SMALL_FEATURE
 10
63.79633331298828
 20
117.94066619873047
 30
0.0
 11
61.46799850463867
 21
119.1259994506836
 31
0.0
  0
LINE
  5
14E
  8
SMALL_FEATURE
 10
61.46799850463867
 20
119.1259994506836
 30
0.0
 11
61.42566680908203
 21
119.50700378417969
 31
0.0
  0
LINE
  5
14F
  8
SMALL_FEATURE
 10
61.42566680908203
 20
119.50700378417969
 30
0.0
 11
60.79066848754883
 21
119.97266387939453
 31
0.0
  0
LINE
  5
150
  8
SMALL_FEATURE
 10
60.79066848754883
 20
119.97266387939453
 30
0.0
 11
60.57899856567383
 21
119.2106704711914
 31
0.0
  0
LINE
  5
151
  8
SMALL_FEATURE
 10
60.57899856567383
 20
119.2106704711914
 30
0.0
 11
59.689998626708984
 21
119.1259994506836
 31
0.0
  0
LINE
  5
152
  8
SMALL_FEATURE
 10
61.46799850463867
 20
148.9709930419922
 30
0.0
 11
63.83866500854492
 21
148.9286651611328
 31
0.0
  0
LINE
  5
153
  8
SMALL_FEATURE
 10
63.83866500854492
 20
148.9286651611328
 30
0.0
 11
63.79633331298828
 21
142.24000549316406
 31
0.0
  0
LINE
  5
154
  8
SMALL_FEATURE
 10
63.79633331298828
 20
142.24000549316406
 30
0.0
 11
61.42566680908203
 21
141.98599243164062
 31
0.0
  0
LINE
  5
155
  8
SMALL_FEATURE
 10
61.42566680908203
 20
141.98599243164062
 30
0.0
 11
61.46799850463867
 21
148.9709930419922
 31
0.0
  0
LINE
  5
156
  8
SMALL_FEATURE
 10
82.97333526611328
 20
219.2866668701172
 30
0.0
 11
83.39666748046875
 21
219.2443389892578
 31
0.0
  0
LINE
  5
157
  8
SMALL_FEATURE
 10
83.39666748046875
 20
219.2443389892578
 30
0.0
 11
83.35433197021484
 21
212.5556640625
 31
0.0
  0
LINE
  5
158
  8
SMALL_FEATURE
 10
83.35433197021484
 20
212.5556640625
 30
0.0
 11
82.5076675415039
 21
212.6403350830078
 31
0.0
  0
LINE
  5
159
  8
SMALL_FEATURE
 10
82.5076675415039
 20
212.6403350830078
 30
0.0
 11
81.53399658203125
 21
213.27532958984375
 31
0.0
  0
LINE
  5
15A
  8
SMALL_FEATURE
 10
81.53399658203125
 20
213.27532958984375
 30
0.0
 11
80.39099884033203
 21
215.26499938964844
 31
0.0
  0
LINE
  5
15B
  8
SMALL_FEATURE
 10
80.39099884033203
 20
215.26499938964844
 30
0.0
 11
80.72966766357422
 21
217.55099487304688
 31
0.0
  0
LINE
  5
15C
  8
SMALL_FEATURE
 10
80.72966766357422
 20
217.55099487304688
 30
0.0
 11
81.44933319091797
 21
218.48233032226562
 31
0.0
  0
LINE
  5
15D
  8
SMALL_FEATURE
 10
81.44933319091797
 20
218.48233032226562
 30
0.0
 11
82.97333526611328
 21
219.2866668701172
 31
0.0
  0
LINE
  5
15E
  8
SMALL_FEATURE
 10
43.772666931152344
 20
219.2443389892578
 30
0.0
 11
44.61933517456055
 21
219.11734008789062
 31
0.0
  0
LINE
  5
15F
  8
SMALL_FEATURE
 10
44.61933517456055
 20
219.11734008789062
 30
0.0
 11
45.59299850463867
 21
218.48233032226562
 31
0.0
  0
LINE
  5
160
  8
SMALL_FEATURE
 10
45.59299850463867
 20
218.48233032226562
 30
0.0
 11
46.736000061035156
 21
216.49266052246094
 31
0.0
  0
LINE
  5
161
  8
SMALL_FEATURE
 10
46.736000061035156
 20
216.49266052246094
 30
0.0
 11
46.736000061035156
 21
215.26499938964844
 31
0.0
  0
LINE
  5
162
  8
SMALL_FEATURE
 10
46.736000061035156
 20
215.26499938964844
 30
0.0
 11
46.31266784667969
 21
214.2066650390625
 31
0.0
  0
LINE
  5
163
  8
SMALL_FEATURE
 10
46.31266784667969
 20
214.2066650390625
 30
0.0
 11
45.59299850463867
 21
213.27532958984375
 31
0.0
  0
LINE
  5
164
  8
SMALL_FEATURE
 10
45.59299850463867
 20
213.27532958984375
 30
0.0
 11
44.23833465576172
 21
212.5556640625
 31
0.0
  0
LINE
  5
165
  8
SMALL_FEATURE
 10
44.23833465576172
 20
212.5556640625
 30
0.0
 11
43.7303352355957
 21
212.59800720214844
 31
0.0
  0
LINE
  5
166
  8
SMALL_FEATURE
 10
43.7303352355957
 20
212.59800720214844
 30
0.0
 11
43.772666931152344
 21
219.2443389892578
 31
0.0
  0
LINE
  5
167
  8
SMALL_FEATURE
 10
64.47366333007812
 20
141.7743377685547
 30
0.0
 11
65.87066650390625
 21
141.73199462890625
 31
0.0
  0
LINE
  5
168
  8
SMALL_FEATURE
 10
65.87066650390625
 20
141.73199462890625
 30
0.0
 11
65.82833099365234
 21
133.85800170898438
 31
0.0
  0
LINE
  5
169
  8
SMALL_FEATURE
 10
65.82833099365234
 20
133.85800170898438
 30
0.0
 11
64.05033111572266
 21
133.90032958984375
 31
0.0
  0
LINE
  5
16A
  8
SMALL_FEATURE
 10
64.05033111572266
 20
133.90032958984375
 30
0.0
 11
64.05033111572266
 21
141.3509979248047
 31
0.0
  0
LINE
  5
16B
  8
SMALL_FEATURE
 10
64.05033111572266
 20
141.3509979248047
 30
0.0
 11
64.43133544921875
 21
141.39332580566406
 31
0.0
  0
LINE
  5
16C
  8
SMALL_FEATURE
 10
64.43133544921875
 20
141.39332580566406
 30
0.0
 11
64.47366333007812
 21
141.7743377685547
 31
0.0
  0
LINE
  5
16D
  8
SMALL_FEATURE
 10
64.09266662597656
 20
149.01333618164062
 30
0.0
 11
65.87066650390625
 21
148.75933837890625
 31
0.0
  0
LINE
  5
16E
  8
SMALL_FEATURE
 10
65.87066650390625
 20
148.75933837890625
 30
0.0
 11
65.82833099365234
 21
141.98599243164062
 31
0.0
  0
LINE
  5
16F
  8
SMALL_FEATURE
 10
65.82833099365234
 20
141.98599243164062
 30
0.0
 11
64.47366333007812
 21
141.98599243164062
 31
0.0
  0
LINE
  5
170
  8
SMALL_FEATURE
 10
64.47366333007812
 20
141.98599243164062
 30
0.0
 11
64.43133544921875
 21
142.36700439453125
 31
0.0
  0
LINE
  5
171
  8
SMALL_FEATURE
 10
64.43133544921875
 20
142.36700439453125
 30
0.0
 11
64.05033111572266
 21
142.40933227539062
 31
0.0
  0
LINE
  5
172
  8
SMALL_FEATURE
 10
64.05033111572266
 20
142.40933227539062
 30
0.0
 11
64.09266662597656
 21
149.01333618164062
 31
0.0
  0
LINE
  5
173
  8
SMALL_FEATURE
 10
64.09266662597656
 20
155.9983367919922
 30
0.0
 11
65.87066650390625
 21
155.95599365234375
 31
0.0
  0
LINE
  5
174
  8
SMALL_FEATURE
 10
65.87066650390625
 20
155.95599365234375
 30
0.0
 11
65.87066650390625
 21
149.3943328857422
 31
0.0
  0
LINE
  5
175
  8
SMALL_FEATURE
 10
65.87066650390625
 20
149.3943328857422
 30
0.0
 11
64.05033111572266
 21
149.1826629638672
 31
0.0
  0
LINE
  5
176
  8
SMALL_FEATURE
 10
64.05033111572266
 20
149.1826629638672
 30
0.0
 11
64.09266662597656
 21
155.9983367919922
 31
0.0
  0
LINE
  5
177
  8
SMALL_FEATURE
 10
93.30266571044922
 20
225.72132873535156
 30
0.0
 11
93.21800231933594
 21
222.5886688232422
 31
0.0
  0
LINE
  5
178
  8
SMALL_FEATURE
 10
93.21800231933594
 20
222.5886688232422
 30
0.0
 11
92.83699798583984
 21
222.5463409423828
 31
0.0
  0
LINE
  5
179
  8
SMALL_FEATURE
 10
92.83699798583984
 20
222.5463409423828
 30
0.0
 11
93.26033020019531
 21
219.66766357421875
 31
0.0
  0
LINE
  5
17A
  8
SMALL_FEATURE
 10
93.26033020019531
 20
219.66766357421875
 30
0.0
 11
87.96866607666016
 21
219.54066467285156
 31
0.0
  0
LINE
  5
17B
  8
SMALL_FEATURE
 10
87.96866607666016
 20
219.54066467285156
 30
0.0
 11
93.21800231933594
 21
219.371337890625
 31
0.0
  0
LINE
  5
17C
  8
SMALL_FEATURE
 10
93.21800231933594
 20
219.371337890625
 30
0.0
 11
93.21800231933594
 21
212.4709930419922
 31
0.0
  0
LINE
  5
17D
  8
SMALL_FEATURE
 10
93.21800231933594
 20
212.4709930419922
 30
0.0
 11
87.96866607666016
 21
212.30166625976562
 31
0.0
  0
LINE
  5
17E
  8
SMALL_FEATURE
 10
87.96866607666016
 20
212.30166625976562
 30
0.0
 11
93.26033020019531
 21
212.17466735839844
 31
0.0
  0
LINE
  5
17F
  8
SMALL_FEATURE
 10
93.26033020019531
 20
212.17466735839844
 30
0.0
 11
92.83699798583984
 21
209.29600524902344
 31
0.0
  0
LINE
  5
180
  8
SMALL_FEATURE
 10
92.83699798583984
 20
209.29600524902344
 30
0.0
 11
93.21800231933594
 21
209.253662109375
 31
0.0
  0
LINE
  5
181
  8
SMALL_FEATURE
 10
93.21800231933594
 20
209.253662109375
 30
0.0
 11
93.34500122070312
 21
206.0363311767578
 31
0.0
  0
LINE
  5
182
  8
SMALL_FEATURE
 10
93.34500122070312
 20
206.0363311767578
 30
0.0
 11
93.4296646118164
 21
209.253662109375
 31
0.0
  0
LINE
  5
183
  8
SMALL_FEATURE
 10
93.4296646118164
 20
209.253662109375
 30
0.0
 11
93.8106689453125
 21
209.29600524902344
 31
0.0
  0
LINE
  5
184
  8
SMALL_FEATURE
 10
93.8106689453125
 20
209.29600524902344
 30
0.0
 11
93.38733673095703
 21
212.17466735839844
 31
0.0
  0
LINE
  5
185
  8
SMALL_FEATURE
 10
93.38733673095703
 20
212.17466735839844
 30
0.0
 11
97.32433319091797
 21
212.30166625976562
 31
0.0
  0
LINE
  5
186
  8
SMALL_FEATURE
 10
97.32433319091797
 20
212.30166625976562
 30
0.0
 11
93.4296646118164
 21
212.4709930419922
 31
0.0
  0
LINE
  5
187
  8
SMALL_FEATURE
 10
93.4296646118164
 20
212.4709930419922
 30
0.0
 11
93.4296646118164
 21
219.371337890625
 31
0.0
  0
LINE
  5
188
  8
SMALL_FEATURE
 10
93.4296646118164
 20
219.371337890625
 30
0.0
 11
97.32433319091797
 21
219.54066467285156
 31
0.0
  0
LINE
  5
189
  8
SMALL_FEATURE
 10
97.32433319091797
 20
219.54066467285156
 30
0.0
 11
93.38733673095703
 21
219.66766357421875
 31
0.0
  0
LINE
  5
18A
  8
SMALL_FEATURE
 10
93.38733673095703
 20
219.66766357421875
 30
0.0
 11
93.8106689453125
 21
222.5463409423828
 31
0.0
  0
LINE
  5
18B
  8
SMALL_FEATURE
 10
93.8106689453125
 20
222.5463409423828
 30
0.0
 11
93.4296646118164
 21
222.5886688232422
 31
0.0
  0
LINE
  5
18C
  8
SMALL_FEATURE
 10
93.4296646118164
 20
222.5886688232422
 30
0.0
 11
93.30266571044922
 21
225.72132873535156
 31
0.0
  0
LINE
  5
18D
  8
SMALL_FEATURE
 10
68.0719985961914
 20
37.253334045410156
 30
0.0
 11
68.15666961669922
 21
28.40566635131836
 31
0.0
  0
LINE
  5
18E
  8
SMALL_FEATURE
 10
68.15666961669922
 20
28.40566635131836
 30
0.0
 11
68.32599639892578
 21
32.34266662597656
 31
0.0
  0
LINE
  5
18F
  8
SMALL_FEATURE
 10
68.32599639892578
 20
32.34266662597656
 30
0.0
 11
71.1623306274414
 21
31.91933250427246
 31
0.0
  0
LINE
  5
190
  8
SMALL_FEATURE
 10
71.1623306274414
 20
31.91933250427246
 30
0.0
 11
71.24700164794922
 21
32.30033493041992
 31
0.0
  0
LINE
  5
191
  8
SMALL_FEATURE
 10
71.24700164794922
 20
32.30033493041992
 30
0.0
 11
84.3280029296875
 21
32.30033493041992
 31
0.0
  0
LINE
  5
192
  8
SMALL_FEATURE
 10
84.3280029296875
 20
32.30033493041992
 30
0.0
 11
84.41266632080078
 21
31.91933250427246
 31
0.0
  0
LINE
  5
193
  8
SMALL_FEATURE
 10
84.41266632080078
 20
31.91933250427246
 30
0.0
 11
87.33366394042969
 21
32.34266662597656
 31
0.0
  0
LINE
  5
194
  8
SMALL_FEATURE
 10
87.33366394042969
 20
32.34266662597656
 30
0.0
 11
87.3759994506836
 21
28.490333557128906
 31
0.0
  0
LINE
  5
195
  8
SMALL_FEATURE
 10
87.3759994506836
 20
28.490333557128906
 30
0.0
 11
87.5876693725586
 21
28.490333557128906
 31
0.0
  0
LINE
  5
196
  8
SMALL_FEATURE
 10
87.5876693725586
 20
28.490333557128906
 30
0.0
 11
87.50299835205078
 21
37.3380012512207
 31
0.0
  0
LINE
  5
197
  8
SMALL_FEATURE
 10
87.50299835205078
 20
37.3380012512207
 30
0.0
 11
87.33366394042969
 21
32.46966552734375
 31
0.0
  0
LINE
  5
198
  8
SMALL_FEATURE
 10
87.33366394042969
 20
32.46966552734375
 30
0.0
 11
84.45500183105469
 21
32.893001556396484
 31
0.0
  0
LINE
  5
199
  8
SMALL_FEATURE
 10
84.45500183105469
 20
32.893001556396484
 30
0.0
 11
84.3280029296875
 21
32.512001037597656
 31
0.0
  0
LINE
  5
19A
  8
SMALL_FEATURE
 10
84.3280029296875
 20
32.512001037597656
 30
0.0
 11
71.24700164794922
 21
32.512001037597656
 31
0.0
  0
LINE
  5
19B
  8
SMALL_FEATURE
 10
71.24700164794922
 20
32.512001037597656
 30
0.0
 11
71.12000274658203
 21
32.893001556396484
 31
0.0
  0
LINE
  5
19C
  8
SMALL_FEATURE
 10
71.12000274658203
 20
32.893001556396484
 30
0.0
 11
68.32599639892578
 21
32.46966552734375
 31
0.0
  0
LINE
  5
19D
  8
SMALL_FEATURE
 10
68.32599639892578
 20
32.46966552734375
 30
0.0
 11
68.2836685180664
 21
37.253334045410156
 31
0.0
  0
LINE
  5
19E
  8
SMALL_FEATURE
 10
68.2836685180664
 20
37.253334045410156
 30
0.0
 11
68.0719985961914
 21
37.253334045410156
 31
0.0
  0
LINE
  5
19F
  8
SMALL_FEATURE
 10
53.59400177001953
 20
109.38933563232422
 30
0.0
 11
56.72666549682617
 21
109.26233673095703
 31
0.0
  0
LINE
  5
1A0
  8
SMALL_FEATURE
 10
56.72666549682617
 20
109.26233673095703
 30
0.0
 11
56.76900100708008
 21
108.88133239746094
 31
0.0
  0
LINE
  5
1A1
  8
SMALL_FEATURE
 10
56.76900100708008
 20
108.88133239746094
 30
0.0
 11
59.647666931152344
 21
109.3046646118164
 31
0.0
  0
LINE
  5
1A2
  8
SMALL_FEATURE
 10
59.647666931152344
 20
109.3046646118164
 30
0.0
 11
59.77466583251953
 21
105.45233154296875
 31
0.0
  0
LINE
  5
1A3
  8
SMALL_FEATURE
 10
59.77466583251953
 20
105.45233154296875
 30
0.0
 11
59.944000244140625
 21
109.26233673095703
 31
0.0
  0
LINE
  5
1A4
  8
SMALL_FEATURE
 10
59.944000244140625
 20
109.26233673095703
 30
0.0
 11
65.82833099365234
 21
109.26233673095703
 31
0.0
  0
LINE
  5
1A5
  8
SMALL_FEATURE
 10
65.82833099365234
 20
109.26233673095703
 30
0.0
 11
65.99766540527344
 21
105.45233154296875
 31
0.0
  0
LINE
  5
1A6
  8
SMALL_FEATURE
 10
65.99766540527344
 20
105.45233154296875
 30
0.0
 11
66.12466430664062
 21
109.3046646118164
 31
0.0
  0
LINE
  5
1A7
  8
SMALL_FEATURE
 10
66.12466430664062
 20
109.3046646118164
 30
0.0
 11
69.00333404541016
 21
108.88133239746094
 31
0.0
  0
LINE
  5
1A8
  8
SMALL_FEATURE
 10
69.00333404541016
 20
108.88133239746094
 30
0.0
 11
69.04566955566406
 21
109.26233673095703
 31
0.0
  0
LINE
  5
1A9
  8
SMALL_FEATURE
 10
69.04566955566406
 20
109.26233673095703
 30
0.0
 11
72.17833709716797
 21
109.34700012207031
 31
0.0
  0
LINE
  5
1AA
  8
SMALL_FEATURE
 10
72.17833709716797
 20
109.34700012207031
 30
0.0
 11
69.04566955566406
 21
109.4739990234375
 31
0.0
  0
LINE
  5
1AB
  8
SMALL_FEATURE
 10
69.04566955566406
 20
109.4739990234375
 30
0.0
 11
69.00333404541016
 21
109.8550033569336
 31
0.0
  0
LINE
  5
1AC
  8
SMALL_FEATURE
 10
69.00333404541016
 20
109.8550033569336
 30
0.0
 11
66.12466430664062
 21
109.4316635131836
 31
0.0
  0
LINE
  5
1AD
  8
SMALL_FEATURE
 10
66.12466430664062
 20
109.4316635131836
 30
0.0
 11
65.99766540527344
 21
114.3846664428711
 31
0.0
  0
LINE
  5
1AE
  8
SMALL_FEATURE
 10
65.99766540527344
 20
114.3846664428711
 30
0.0
 11
65.82833099365234
 21
109.4739990234375
 31
0.0
  0
LINE
  5
1AF
  8
SMALL_FEATURE
 10
65.82833099365234
 20
109.4739990234375
 30
0.0
 11
59.944000244140625
 21
109.4739990234375
 31
0.0
  0
LINE
  5
1B0
  8
SMALL_FEATURE
 10
59.944000244140625
 20
109.4739990234375
 30
0.0
 11
59.77466583251953
 21
114.3846664428711
 31
0.0
  0
LINE
  5
1B1
  8
SMALL_FEATURE
 10
59.77466583251953
 20
114.3846664428711
 30
0.0
 11
59.647666931152344
 21
109.4316635131836
 31
0.0
  0
LINE
  5
1B2
  8
SMALL_FEATURE
 10
59.647666931152344
 20
109.4316635131836
 30
0.0
 11
56.76900100708008
 21
109.8550033569336
 31
0.0
  0
LINE
  5
1B3
  8
SMALL_FEATURE
 10
56.76900100708008
 20
109.8550033569336
 30
0.0
 11
56.72666549682617
 21
109.4739990234375
 31
0.0
  0
LINE
  5
1B4
  8
SMALL_FEATURE
 10
56.72666549682617
 20
109.4739990234375
 30
0.0
 11
53.59400177001953
 21
109.38933563232422
 31
0.0
  0
LINE
  5
1B5
  8
SMALL_FEATURE
 10
57.82733154296875
 20
57.573333740234375
 30
0.0
 11
57.74266815185547
 21
43.56100082397461
 31
0.0
  0
LINE
  5
1B6
  8
SMALL_FEATURE
 10
57.74266815185547
 20
43.56100082397461
 30
0.0
 11
57.9543342590332
 21
43.56100082397461
 31
0.0
  0
LINE
  5
1B7
  8
SMALL_FEATURE
 10
57.9543342590332
 20
43.56100082397461
 30
0.0
 11
57.996665954589844
 21
53.59400177001953
 31
0.0
  0
LINE
  5
1B8
  8
SMALL_FEATURE
 10
57.996665954589844
 20
53.59400177001953
 30
0.0
 11
60.83300018310547
 21
53.1706657409668
 31
0.0
  0
LINE
  5
1B9
  8
SMALL_FEATURE
 10
60.83300018310547
 20
53.1706657409668
 30
0.0
 11
60.917667388916016
 21
53.551666259765625
 31
0.0
  0
LINE
  5
1BA
  8
SMALL_FEATURE
 10
60.917667388916016
 20
53.551666259765625
 30
0.0
 11
65.1086654663086
 21
53.551666259765625
 31
0.0
  0
LINE
  5
1BB
  8
SMALL_FEATURE
 10
65.1086654663086
 20
53.551666259765625
 30
0.0
 11
65.1933364868164
 21
53.1706657409668
 31
0.0
  0
LINE
  5
1BC
  8
SMALL_FEATURE
 10
65.1933364868164
 20
53.1706657409668
 30
0.0
 11
68.0296630859375
 21
53.59400177001953
 31
0.0
  0
LINE
  5
1BD
  8
SMALL_FEATURE
 10
68.0296630859375
 20
53.59400177001953
 30
0.0
 11
68.1989974975586
 21
46.35499954223633
 31
0.0
  0
LINE
  5
1BE
  8
SMALL_FEATURE
 10
68.1989974975586
 20
46.35499954223633
 30
0.0
 11
68.2836685180664
 21
57.48866653442383
 31
0.0
  0
LINE
  5
1BF
  8
SMALL_FEATURE
 10
68.2836685180664
 20
57.48866653442383
 30
0.0
 11
68.0719985961914
 21
57.48866653442383
 31
0.0
  0
LINE
  5
1C0
  8
SMALL_FEATURE
 10
68.0719985961914
 20
57.48866653442383
 30
0.0
 11
68.0296630859375
 21
53.72100067138672
 31
0.0
  0
LINE
  5
1C1
  8
SMALL_FEATURE
 10
68.0296630859375
 20
53.72100067138672
 30
0.0
 11
65.23566436767578
 21
54.14433288574219
 31
0.0
  0
LINE
  5
1C2
  8
SMALL_FEATURE
 10
65.23566436767578
 20
54.14433288574219
 30
0.0
 11
65.1086654663086
 21
53.76333236694336
 31
0.0
  0
LINE
  5
1C3
  8
SMALL_FEATURE
 10
65.1086654663086
 20
53.76333236694336
 30
0.0
 11
60.917667388916016
 21
53.76333236694336
 31
0.0
  0
LINE
  5
1C4
  8
SMALL_FEATURE
 10
60.917667388916016
 20
53.76333236694336
 30
0.0
 11
60.79066848754883
 21
54.14433288574219
 31
0.0
  0
LINE
  5
1C5
  8
SMALL_FEATURE
 10
60.79066848754883
 20
54.14433288574219
 30
0.0
 11
57.996665954589844
 21
53.72100067138672
 31
0.0
  0
LINE
  5
1C6
  8
SMALL_FEATURE
 10
57.996665954589844
 20
53.72100067138672
 30
0.0
 11
57.82733154296875
 21
57.573333740234375
 31
0.0
  0
LINE
  5
1C7
  8
SMALL_FEATURE
 10
76.75033569335938
 20
118.9990005493164
 30
0.0
 11
82.33833312988281
 21
118.9566650390625
 31
0.0
  0
LINE
  5
1C8
  8
SMALL_FEATURE
 10
82.33833312988281
 20
118.9566650390625
 30
0.0
 11
82.16899871826172
 21
117.60199737548828
 31
0.0
  0
LINE
  5
1C9
  8
SMALL_FEATURE
 10
82.16899871826172
 20
117.60199737548828
 30
0.0
 11
76.58100128173828
 21
117.60199737548828
 31
0.0
  0
LINE
  5
1CA
  8
SMALL_FEATURE
 10
76.58100128173828
 20
117.60199737548828
 30
0.0
 11
76.75033569335938
 21
118.9990005493164
 31
0.0
  0
LINE
  5
1CB
  8
SMALL_FEATURE
 10
162.30599975585938
 20
181.39833068847656
 30
0.0
 11
160.1893310546875
 21
174.24400329589844
 31
0.0
  0
LINE
  5
1CC
  8
SMALL_FEATURE
 10
160.1893310546875
 20
174.24400329589844
 30
0.0
 11
161.88265991210938
 21
179.87432861328125
 31
0.0
  0
LINE
  5
1CD
  8
SMALL_FEATURE
 10
161.88265991210938
 20
179.87432861328125
 30
0.0
 11
162.263671875
 21
179.9166717529297
 31
0.0
  0
LINE
  5
1CE
  8
SMALL_FEATURE
 10
162.263671875
 20
179.9166717529297
 30
0.0
 11
162.34832763671875
 21
162.3906707763672
 31
0.0
  0
LINE
  5
1CF
  8
SMALL_FEATURE
 10
162.34832763671875
 20
162.3906707763672
 30
0.0
 11
162.3906707763672
 21
180.00132751464844
 31
0.0
  0
LINE
  5
1D0
  8
SMALL_FEATURE
 10
162.3906707763672
 20
180.00132751464844
 30
0.0
 11
162.77166748046875
 21
179.95899963378906
 31
0.0
  0
LINE
  5
1D1
  8
SMALL_FEATURE
 10
162.77166748046875
 20
179.95899963378906
 30
0.0
 11
164.54966735839844
 21
174.2863311767578
 31
0.0
  0
LINE
  5
1D2
  8
SMALL_FEATURE
 10
164.54966735839844
 20
174.2863311767578
 30
0.0
 11
162.30599975585938
 21
181.39833068847656
 31
0.0
  0
LINE
  5
1D3
  8
SMALL_FEATURE
 10
190.75399780273438
 20
32.5543327331543
 30
0.0
 11
190.2036590576172
 21
32.80833435058594
 31
0.0
  0
LINE
  5
1D4
  8
SMALL_FEATURE
 10
190.2036590576172
 20
32.80833435058594
 30
0.0
 11
189.78033447265625
 21
32.3849983215332
 31
0.0
  0
LINE
  5
1D5
  8
SMALL_FEATURE
 10
189.78033447265625
 20
32.3849983215332
 30
0.0
 11
188.21400451660156
 21
28.871334075927734
 31
0.0
  0
LINE
  5
1D6
  8
SMALL_FEATURE
 10
188.21400451660156
 20
28.871334075927734
 30
0.0
 11
186.69000244140625
 21
27.17799949645996
 31
0.0
  0
LINE
  5
1D7
  8
SMALL_FEATURE
 10
186.69000244140625
 20
27.17799949645996
 30
0.0
 11
187.5366668701172
 21
28.02466583251953
 31
0.0
  0
LINE
  5
1D8
  8
SMALL_FEATURE
 10
187.5366668701172
 20
28.02466583251953
 30
0.0
 11
187.91766357421875
 21
28.02466583251953
 31
0.0
  0
LINE
  5
1D9
  8
SMALL_FEATURE
 10
187.91766357421875
 20
28.02466583251953
 30
0.0
 11
187.87533569335938
 21
27.093334197998047
 31
0.0
  0
LINE
  5
1DA
  8
SMALL_FEATURE
 10
187.87533569335938
 20
27.093334197998047
 30
0.0
 11
188.25633239746094
 21
26.839332580566406
 31
0.0
  0
LINE
  5
1DB
  8
SMALL_FEATURE
 10
188.25633239746094
 20
26.839332580566406
 30
0.0
 11
188.34100341796875
 21
28.82900047302246
 31
0.0
  0
LINE
  5
1DC
  8
SMALL_FEATURE
 10
188.34100341796875
 20
28.82900047302246
 30
0.0
 11
189.1876678466797
 21
31.030332565307617
 31
0.0
  0
LINE
  5
1DD
  8
SMALL_FEATURE
 10
189.1876678466797
 20
31.030332565307617
 30
0.0
 11
190.03433227539062
 21
32.42733383178711
 31
0.0
  0
LINE
  5
1DE
  8
SMALL_FEATURE
 10
190.03433227539062
 20
32.42733383178711
 30
0.0
 11
190.75399780273438
 21
32.5543327331543
 31
0.0
  0
LINE
  5
1DF
  8
JACK_ROUTE
 10
131.27566528320312
 20
39.87799835205078
 30
0.0
 11
180.55166625976562
 21
39.92033386230469
 31
0.0
  0
LINE
  5
1E0
  8
JACK_ROUTE
 10
180.55166625976562
 20
39.92033386230469
 30
0.0
 11
180.593994140625
 21
24.849666595458984
 31
0.0
  0
LINE
  5
1E1
  8
JACK_ROUTE
 10
180.593994140625
 20
24.849666595458984
 30
0.0
 11
131.3179931640625
 21
24.80733299255371
 31
0.0
  0
LINE
  5
1E2
  8
JACK_ROUTE
 10
131.3179931640625
 20
24.80733299255371
 30
0.0
 11
131.27566528320312
 21
39.87799835205078
 31
0.0
  0
LINE
  5
1E3
  8
JACK_ROUTE
 10
79.2056655883789
 20
156.2100067138672
 30
0.0
 11
69.04566955566406
 21
156.2100067138672
 31
0.0
  0
LINE
  5
1E4
  8
JACK_ROUTE
 10
69.04566955566406
 20
156.2100067138672
 30
0.0
 11
68.91866302490234
 21
156.59100341796875
 31
0.0
  0
LINE
  5
1E5
  8
JACK_ROUTE
 10
68.91866302490234
 20
156.59100341796875
 30
0.0
 11
66.12466430664062
 21
156.16766357421875
 31
0.0
  0
LINE
  5
1E6
  8
JACK_ROUTE
 10
66.12466430664062
 20
156.16766357421875
 30
0.0
 11
65.99766540527344
 21
160.02000427246094
 31
0.0
  0
LINE
  5
1E7
  8
JACK_ROUTE
 10
65.99766540527344
 20
160.02000427246094
 30
0.0
 11
65.87066650390625
 21
156.25233459472656
 31
0.0
  0
LINE
  5
1E8
  8
JACK_ROUTE
 10
65.87066650390625
 20
156.25233459472656
 30
0.0
 11
64.09266662597656
 21
156.2100067138672
 31
0.0
  0
LINE
  5
1E9
  8
JACK_ROUTE
 10
64.09266662597656
 20
156.2100067138672
 30
0.0
 11
63.92333221435547
 21
160.02000427246094
 31
0.0
  0
LINE
  5
1EA
  8
JACK_ROUTE
 10
63.92333221435547
 20
160.02000427246094
 30
0.0
 11
63.79633331298828
 21
156.16766357421875
 31
0.0
  0
LINE
  5
1EB
  8
JACK_ROUTE
 10
63.79633331298828
 20
156.16766357421875
 30
0.0
 11
60.917667388916016
 21
156.59100341796875
 31
0.0
  0
LINE
  5
1EC
  8
JACK_ROUTE
 10
60.917667388916016
 20
156.59100341796875
 30
0.0
 11
60.87533187866211
 21
156.2100067138672
 31
0.0
  0
LINE
  5
1ED
  8
JACK_ROUTE
 10
60.87533187866211
 20
156.2100067138672
 30
0.0
 11
57.74266815185547
 21
156.12533569335938
 31
0.0
  0
LINE
  5
1EE
  8
JACK_ROUTE
 10
57.74266815185547
 20
156.12533569335938
 30
0.0
 11
60.87533187866211
 21
155.9983367919922
 31
0.0
  0
LINE
  5
1EF
  8
JACK_ROUTE
 10
60.87533187866211
 20
155.9983367919922
 30
0.0
 11
60.917667388916016
 21
155.61734008789062
 31
0.0
  0
LINE
  5
1F0
  8
JACK_ROUTE
 10
60.917667388916016
 20
155.61734008789062
 30
0.0
 11
63.83866500854492
 21
155.9983367919922
 31
0.0
  0
LINE
  5
1F1
  8
JACK_ROUTE
 10
63.83866500854492
 20
155.9983367919922
 30
0.0
 11
63.79633331298828
 21
149.1826629638672
 31
0.0
  0
LINE
  5
1F2
  8
JACK_ROUTE
 10
63.79633331298828
 20
149.1826629638672
 30
0.0
 11
61.42566680908203
 21
149.22500610351562
 31
0.0
  0
LINE
  5
1F3
  8
JACK_ROUTE
 10
61.42566680908203
 20
149.22500610351562
 30
0.0
 11
61.340999603271484
 21
153.07733154296875
 31
0.0
  0
LINE
  5
1F4
  8
JACK_ROUTE
 10
61.340999603271484
 20
153.07733154296875
 30
0.0
 11
61.17166519165039
 21
149.1403350830078
 31
0.0
  0
LINE
  5
1F5
  8
JACK_ROUTE
 10
61.17166519165039
 20
149.1403350830078
 30
0.0
 11
58.37766647338867
 21
149.56365966796875
 31
0.0
  0
LINE
  5
1F6
  8
JACK_ROUTE
 10
58.37766647338867
 20
149.56365966796875
 30
0.0
 11
58.250667572021484
 21
149.1826629638672
 31
0.0
  0
LINE
  5
1F7
  8
JACK_ROUTE
 10
58.250667572021484
 20
149.1826629638672
 30
0.0
 11
44.61933517456055
 21
149.1826629638672
 31
0.0
  0
LINE
  5
1F8
  8
JACK_ROUTE
 10
44.61933517456055
 20
149.1826629638672
 30
0.0
 11
44.61933517456055
 21
148.9709930419922
 31
0.0
  0
LINE
  5
1F9
  8
JACK_ROUTE
 10
44.61933517456055
 20
148.9709930419922
 30
0.0
 11
58.250667572021484
 21
148.9709930419922
 31
0.0
  0
LINE
  5
1FA
  8
JACK_ROUTE
 10
58.250667572021484
 20
148.9709930419922
 30
0.0
 11
58.292999267578125
 21
148.58999633789062
 31
0.0
  0
LINE
  5
1FB
  8
JACK_ROUTE
 10
58.292999267578125
 20
148.58999633789062
 30
0.0
 11
61.2140007019043
 21
148.9709930419922
 31
0.0
  0
LINE
  5
1FC
  8
JACK_ROUTE
 10
61.2140007019043
 20
148.9709930419922
 30
0.0
 11
61.2140007019043
 21
145.753662109375
 31
0.0
  0
LINE
  5
1FD
  8
JACK_ROUTE
 10
61.2140007019043
 20
145.753662109375
 30
0.0
 11
60.621334075927734
 21
145.71133422851562
 31
0.0
  0
LINE
  5
1FE
  8
JACK_ROUTE
 10
60.621334075927734
 20
145.71133422851562
 30
0.0
 11
60.57899856567383
 21
141.94366455078125
 31
0.0
  0
LINE
  5
1FF
  8
JACK_ROUTE
 10
60.57899856567383
 20
141.94366455078125
 30
0.0
 11
57.70033264160156
 21
142.36700439453125
 31
0.0
  0
LINE
  5
200
  8
JACK_ROUTE
 10
57.70033264160156
 20
142.36700439453125
 30
0.0
 11
57.65800094604492
 21
141.98599243164062
 31
0.0
  0
LINE
  5
201
  8
JACK_ROUTE
 10
57.65800094604492
 20
141.98599243164062
 30
0.0
 11
45.720001220703125
 21
141.90133666992188
 31
0.0
  0
LINE
  5
202
  8
JACK_ROUTE
 10
45.720001220703125
 20
141.90133666992188
 30
0.0
 11
57.65800094604492
 21
141.7743377685547
 31
0.0
  0
LINE
  5
203
  8
JACK_ROUTE
 10
57.65800094604492
 20
141.7743377685547
 30
0.0
 11
57.70033264160156
 21
141.39332580566406
 31
0.0
  0
LINE
  5
204
  8
JACK_ROUTE
 10
57.70033264160156
 20
141.39332580566406
 30
0.0
 11
60.57899856567383
 21
141.81666564941406
 31
0.0
  0
LINE
  5
205
  8
JACK_ROUTE
 10
60.57899856567383
 20
141.81666564941406
 30
0.0
 11
60.57899856567383
 21
133.85800170898438
 31
0.0
  0
LINE
  5
206
  8
JACK_ROUTE
 10
60.57899856567383
 20
133.85800170898438
 30
0.0
 11
59.901668548583984
 21
133.90032958984375
 31
0.0
  0
LINE
  5
207
  8
JACK_ROUTE
 10
59.901668548583984
 20
133.90032958984375
 30
0.0
 11
59.77466583251953
 21
137.66799926757812
 31
0.0
  0
LINE
  5
208
  8
JACK_ROUTE
 10
59.77466583251953
 20
137.66799926757812
 30
0.0
 11
59.647666931152344
 21
133.815673828125
 31
0.0
  0
LINE
  5
209
  8
JACK_ROUTE
 10
59.647666931152344
 20
133.815673828125
 30
0.0
 11
56.76900100708008
 21
134.23899841308594
 31
0.0
  0
LINE
  5
20A
  8
JACK_ROUTE
 10
56.76900100708008
 20
134.23899841308594
 30
0.0
 11
56.72666549682617
 21
133.85800170898438
 31
0.0
  0
LINE
  5
20B
  8
JACK_ROUTE
 10
56.72666549682617
 20
133.85800170898438
 30
0.0
 11
44.788665771484375
 21
133.7310028076172
 31
0.0
  0
LINE
  5
20C
  8
JACK_ROUTE
 10
44.788665771484375
 20
133.7310028076172
 30
0.0
 11
56.72666549682617
 21
133.64633178710938
 31
0.0
  0
LINE
  5
20D
  8
JACK_ROUTE
 10
56.72666549682617
 20
133.64633178710938
 30
0.0
 11
56.76900100708008
 21
133.2653350830078
 31
0.0
  0
LINE
  5
20E
  8
JACK_ROUTE
 10
56.76900100708008
 20
133.2653350830078
 30
0.0
 11
59.647666931152344
 21
133.68865966796875
 31
0.0
  0
LINE
  5
20F
  8
JACK_ROUTE
 10
59.647666931152344
 20
133.68865966796875
 30
0.0
 11
59.77466583251953
 21
123.40166473388672
 31
0.0
  0
LINE
  5
210
  8
JACK_ROUTE
 10
59.77466583251953
 20
123.40166473388672
 30
0.0
 11
59.901668548583984
 21
133.60400390625
 31
0.0
  0
LINE
  5
211
  8
JACK_ROUTE
 10
59.901668548583984
 20
133.60400390625
 30
0.0
 11
60.621334075927734
 21
133.60400390625
 31
0.0
  0
LINE
  5
212
  8
JACK_ROUTE
 10
60.621334075927734
 20
133.60400390625
 30
0.0
 11
60.70600128173828
 21
123.40166473388672
 31
0.0
  0
LINE
  5
213
  8
JACK_ROUTE
 10
60.70600128173828
 20
123.40166473388672
 30
0.0
 11
60.87533187866211
 21
123.8673324584961
 31
0.0
  0
LINE
  5
214
  8
JACK_ROUTE
 10
60.87533187866211
 20
123.8673324584961
 30
0.0
 11
61.42566680908203
 21
123.8673324584961
 31
0.0
  0
LINE
  5
215
  8
JACK_ROUTE
 10
61.42566680908203
 20
123.8673324584961
 30
0.0
 11
61.42566680908203
 21
133.56166076660156
 31
0.0
  0
LINE
  5
216
  8
JACK_ROUTE
 10
61.42566680908203
 20
133.56166076660156
 30
0.0
 11
63.83866500854492
 21
133.22300720214844
 31
0.0
  0
LINE
  5
217
  8
JACK_ROUTE
 10
63.83866500854492
 20
133.22300720214844
 30
0.0
 11
63.965667724609375
 21
123.40166473388672
 31
0.0
  0
LINE
  5
218
  8
JACK_ROUTE
 10
63.965667724609375
 20
123.40166473388672
 30
0.0
 11
64.05033111572266
 21
133.60400390625
 31
0.0
  0
LINE
  5
219
  8
JACK_ROUTE
 10
64.05033111572266
 20
133.60400390625
 30
0.0
 11
65.82833099365234
 21
133.64633178710938
 31
0.0
  0
LINE
  5
21A
  8
JACK_ROUTE
 10
65.82833099365234
 20
133.64633178710938
 30
0.0
 11
65.99766540527344
 21
123.40166473388672
 31
0.0
  0
LINE
  5
21B
  8
JACK_ROUTE
 10
65.99766540527344
 20
123.40166473388672
 30
0.0
 11
66.08233642578125
 21
133.60400390625
 31
0.0
  0
LINE
  5
21C
  8
JACK_ROUTE
 10
66.08233642578125
 20
133.60400390625
 30
0.0
 11
67.01366424560547
 21
133.7310028076172
 31
0.0
  0
LINE
  5
21D
  8
JACK_ROUTE
 10
67.01366424560547
 20
133.7310028076172
 30
0.0
 11
66.08233642578125
 21
133.90032958984375
 31
0.0
  0
LINE
  5
21E
  8
JACK_ROUTE
 10
66.08233642578125
 20
133.90032958984375
 30
0.0
 11
66.08233642578125
 21
141.73199462890625
 31
0.0
  0
LINE
  5
21F
  8
JACK_ROUTE
 10
66.08233642578125
 20
141.73199462890625
 30
0.0
 11
67.60633087158203
 21
141.85899353027344
 31
0.0
  0
LINE
  5
220
  8
JACK_ROUTE
 10
67.60633087158203
 20
141.85899353027344
 30
0.0
 11
66.08233642578125
 21
142.02833557128906
 31
0.0
  0
LINE
  5
221
  8
JACK_ROUTE
 10
66.08233642578125
 20
142.02833557128906
 30
0.0
 11
66.08233642578125
 21
148.63233947753906
 31
0.0
  0
LINE
  5
222
  8
JACK_ROUTE
 10
66.08233642578125
 20
148.63233947753906
 30
0.0
 11
66.9713363647461
 21
148.58999633789062
 31
0.0
  0
LINE
  5
223
  8
JACK_ROUTE
 10
66.9713363647461
 20
148.58999633789062
 30
0.0
 11
67.01366424560547
 21
148.9709930419922
 31
0.0
  0
LINE
  5
224
  8
JACK_ROUTE
 10
67.01366424560547
 20
148.9709930419922
 30
0.0
 11
70.23100280761719
 21
149.0556640625
 31
0.0
  0
LINE
  5
225
  8
JACK_ROUTE
 10
70.23100280761719
 20
149.0556640625
 30
0.0
 11
67.01366424560547
 21
149.1826629638672
 31
0.0
  0
LINE
  5
226
  8
JACK_ROUTE
 10
67.01366424560547
 20
149.1826629638672
 30
0.0
 11
66.9713363647461
 21
149.56365966796875
 31
0.0
  0
LINE
  5
227
  8
JACK_ROUTE
 10
66.9713363647461
 20
149.56365966796875
 30
0.0
 11
66.08233642578125
 21
149.52133178710938
 31
0.0
  0
LINE
  5
228
  8
JACK_ROUTE
 10
66.08233642578125
 20
149.52133178710938
 30
0.0
 11
66.08233642578125
 21
155.9983367919922
 31
0.0
  0
LINE
  5
229
  8
JACK_ROUTE
 10
66.08233642578125
 20
155.9983367919922
 30
0.0
 11
69.00333404541016
 21
155.61734008789062
 31
0.0
  0
LINE
  5
22A
  8
JACK_ROUTE
 10
69.00333404541016
 20
155.61734008789062
 30
0.0
 11
69.04566955566406
 21
155.9983367919922
 31
0.0
  0
LINE
  5
22B
  8
JACK_ROUTE
 10
69.04566955566406
 20
155.9983367919922
 30
0.0
 11
79.2056655883789
 21
155.9983367919922
 31
0.0
  0
LINE
  5
22C
  8
JACK_ROUTE
 10
79.2056655883789
 20
155.9983367919922
 30
0.0
 11
79.2056655883789
 21
156.2100067138672
 31
0.0
  0
LINE
  5
22D
  8
BRIDGE_ROUTE
 10
129.7516632080078
 20
9.524999618530273
 30
0.0
 11
129.79400634765625
 21
41.444332122802734
 31
0.0
  0
LINE
  5
22E
  8
BRIDGE_ROUTE
 10
129.79400634765625
 20
41.444332122802734
 30
0.0
 11
198.2046661376953
 21
41.402000427246094
 31
0.0
  0
LINE
  5
22F
  8
BRIDGE_ROUTE
 10
198.2046661376953
 20
41.402000427246094
 30
0.0
 11
198.16233825683594
 21
40.13199996948242
 31
0.0
  0
LINE
  5
230
  8
BRIDGE_ROUTE
 10
198.16233825683594
 20
40.13199996948242
 30
0.0
 11
131.14866638183594
 21
40.13199996948242
 31
0.0
  0
LINE
  5
231
  8
BRIDGE_ROUTE
 10
131.14866638183594
 20
40.13199996948242
 30
0.0
 11
131.06399536132812
 21
9.524999618530273
 31
0.0
  0
LINE
  5
232
  8
BRIDGE_ROUTE
 10
131.06399536132812
 20
9.524999618530273
 30
0.0
 11
129.7516632080078
 21
9.524999618530273
 31
0.0
  0
LINE
  5
233
  8
CONTROL_CAVITY
 10
149.3943328857422
 20
262.2550048828125
 30
0.0
 11
154.2203369140625
 21
263.1440124511719
 31
0.0
  0
LINE
  5
234
  8
CONTROL_CAVITY
 10
154.2203369140625
 20
263.1440124511719
 30
0.0
 11
170.05299377441406
 21
263.18634033203125
 31
0.0
  0
LINE
  5
235
  8
CONTROL_CAVITY
 10
170.05299377441406
 20
263.18634033203125
 30
0.0
 11
173.94766235351562
 21
262.9323425292969
 31
0.0
  0
LINE
  5
236
  8
CONTROL_CAVITY
 10
173.94766235351562
 20
262.9323425292969
 30
0.0
 11
178.18099975585938
 21
261.74700927734375
 31
0.0
  0
LINE
  5
237
  8
CONTROL_CAVITY
 10
178.18099975585938
 20
261.74700927734375
 30
0.0
 11
181.9063262939453
 21
259.5880126953125
 31
0.0
  0
LINE
  5
238
  8
CONTROL_CAVITY
 10
181.9063262939453
 20
259.5880126953125
 30
0.0
 11
185.03900146484375
 21
256.58233642578125
 31
0.0
  0
LINE
  5
239
  8
CONTROL_CAVITY
 10
185.03900146484375
 20
256.58233642578125
 30
0.0
 11
187.621337890625
 21
252.72999572753906
 31
0.0
  0
LINE
  5
23A
  8
CONTROL_CAVITY
 10
187.621337890625
 20
252.72999572753906
 30
0.0
 11
189.3993377685547
 21
248.66600036621094
 31
0.0
  0
LINE
  5
23B
  8
CONTROL_CAVITY
 10
189.3993377685547
 20
248.66600036621094
 30
0.0
 11
190.1613311767578
 21
246.0413360595703
 31
0.0
  0
LINE
  5
23C
  8
CONTROL_CAVITY
 10
190.1613311767578
 20
246.0413360595703
 30
0.0
 11
190.5
 21
241.72332763671875
 31
0.0
  0
LINE
  5
23D
  8
CONTROL_CAVITY
 10
190.5
 20
241.72332763671875
 30
0.0
 11
189.9496612548828
 21
237.36300659179688
 31
0.0
  0
LINE
  5
23E
  8
CONTROL_CAVITY
 10
189.9496612548828
 20
237.36300659179688
 30
0.0
 11
187.79066467285156
 21
229.065673828125
 31
0.0
  0
LINE
  5
23F
  8
CONTROL_CAVITY
 10
187.79066467285156
 20
229.065673828125
 30
0.0
 11
187.02867126464844
 21
224.70533752441406
 31
0.0
  0
LINE
  5
240
  8
CONTROL_CAVITY
 10
187.02867126464844
 20
224.70533752441406
 30
0.0
 11
187.24032592773438
 21
220.34500122070312
 31
0.0
  0
LINE
  5
241
  8
CONTROL_CAVITY
 10
187.24032592773438
 20
220.34500122070312
 30
0.0
 11
188.21400451660156
 21
216.281005859375
 31
0.0
  0
LINE
  5
242
  8
CONTROL_CAVITY
 10
188.21400451660156
 20
216.281005859375
 30
0.0
 11
189.9496612548828
 21
211.79367065429688
 31
0.0
  0
LINE
  5
243
  8
CONTROL_CAVITY
 10
189.9496612548828
 20
211.79367065429688
 30
0.0
 11
198.2046661376953
 21
196.17266845703125
 31
0.0
  0
LINE
  5
244
  8
CONTROL_CAVITY
 10
198.2046661376953
 20
196.17266845703125
 30
0.0
 11
198.2046661376953
 21
171.95799255371094
 31
0.0
  0
LINE
  5
245
  8
CONTROL_CAVITY
 10
198.2046661376953
 20
171.95799255371094
 30
0.0
 11
194.8179931640625
 21
166.83566284179688
 31
0.0
  0
LINE
  5
246
  8
CONTROL_CAVITY
 10
194.8179931640625
 20
166.83566284179688
 30
0.0
 11
191.38900756835938
 21
163.11033630371094
 31
0.0
  0
LINE
  5
247
  8
CONTROL_CAVITY
 10
191.38900756835938
 20
163.11033630371094
 30
0.0
 11
188.00233459472656
 21
160.6126708984375
 31
0.0
  0
LINE
  5
248
  8
CONTROL_CAVITY
 10
188.00233459472656
 20
160.6126708984375
 30
0.0
 11
183.93833923339844
 21
158.6230010986328
 31
0.0
  0
LINE
  5
249
  8
CONTROL_CAVITY
 10
183.93833923339844
 20
158.6230010986328
 30
0.0
 11
179.5780029296875
 21
157.4376678466797
 31
0.0
  0
LINE
  5
24A
  8
CONTROL_CAVITY
 10
179.5780029296875
 20
157.4376678466797
 30
0.0
 11
171.02667236328125
 21
155.871337890625
 31
0.0
  0
LINE
  5
24B
  8
CONTROL_CAVITY
 10
171.02667236328125
 20
155.871337890625
 30
0.0
 11
155.1093292236328
 21
155.871337890625
 31
0.0
  0
LINE
  5
24C
  8
CONTROL_CAVITY
 10
155.1093292236328
 20
155.871337890625
 30
0.0
 11
151.0453338623047
 21
156.42166137695312
 31
0.0
  0
LINE
  5
24D
  8
CONTROL_CAVITY
 10
151.0453338623047
 20
156.42166137695312
 30
0.0
 11
144.3143310546875
 21
157.98800659179688
 31
0.0
  0
LINE
  5
24E
  8
CONTROL_CAVITY
 10
144.3143310546875
 20
157.98800659179688
 30
0.0
 11
139.10733032226562
 21
159.9776611328125
 31
0.0
  0
LINE
  5
24F
  8
CONTROL_CAVITY
 10
139.10733032226562
 20
159.9776611328125
 30
0.0
 11
136.22866821289062
 21
161.79800415039062
 31
0.0
  0
LINE
  5
250
  8
CONTROL_CAVITY
 10
136.22866821289062
 20
161.79800415039062
 30
0.0
 11
133.60400390625
 21
164.12632751464844
 31
0.0
  0
LINE
  5
251
  8
CONTROL_CAVITY
 10
133.60400390625
 20
164.12632751464844
 30
0.0
 11
129.878662109375
 21
168.5713348388672
 31
0.0
  0
LINE
  5
252
  8
CONTROL_CAVITY
 10
129.878662109375
 20
168.5713348388672
 30
0.0
 11
127.80433654785156
 21
171.83099365234375
 31
0.0
  0
LINE
  5
253
  8
CONTROL_CAVITY
 10
127.80433654785156
 20
171.83099365234375
 30
0.0
 11
125.89933013916016
 21
176.02200317382812
 31
0.0
  0
LINE
  5
254
  8
CONTROL_CAVITY
 10
125.89933013916016
 20
176.02200317382812
 30
0.0
 11
124.92566680908203
 21
180.12832641601562
 31
0.0
  0
LINE
  5
255
  8
CONTROL_CAVITY
 10
124.92566680908203
 20
180.12832641601562
 30
0.0
 11
124.67166900634766
 21
185.03900146484375
 31
0.0
  0
LINE
  5
256
  8
CONTROL_CAVITY
 10
124.67166900634766
 20
185.03900146484375
 30
0.0
 11
125.05266571044922
 21
188.4256591796875
 31
0.0
  0
LINE
  5
257
  8
CONTROL_CAVITY
 10
125.05266571044922
 20
188.4256591796875
 30
0.0
 11
135.72067260742188
 21
188.46800231933594
 31
0.0
  0
LINE
  5
258
  8
CONTROL_CAVITY
 10
135.72067260742188
 20
188.46800231933594
 30
0.0
 11
135.67832946777344
 21
188.08700561523438
 31
0.0
  0
LINE
  5
259
  8
CONTROL_CAVITY
 10
135.67832946777344
 20
188.08700561523438
 30
0.0
 11
130.13265991210938
 21
186.39366149902344
 31
0.0
  0
LINE
  5
25A
  8
CONTROL_CAVITY
 10
130.13265991210938
 20
186.39366149902344
 30
0.0
 11
137.16000366210938
 21
188.5103302001953
 31
0.0
  0
LINE
  5
25B
  8
CONTROL_CAVITY
 10
137.16000366210938
 20
188.5103302001953
 30
0.0
 11
130.13265991210938
 21
190.75399780273438
 31
0.0
  0
LINE
  5
25C
  8
CONTROL_CAVITY
 10
130.13265991210938
 20
190.75399780273438
 30
0.0
 11
135.72067260742188
 21
188.9759979248047
 31
0.0
  0
LINE
  5
25D
  8
CONTROL_CAVITY
 10
135.72067260742188
 20
188.9759979248047
 30
0.0
 11
135.76300048828125
 21
188.59500122070312
 31
0.0
  0
LINE
  5
25E
  8
CONTROL_CAVITY
 10
135.76300048828125
 20
188.59500122070312
 30
0.0
 11
125.13733673095703
 21
188.59500122070312
 31
0.0
  0
LINE
  5
25F
  8
CONTROL_CAVITY
 10
125.13733673095703
 20
188.59500122070312
 30
0.0
 11
125.3489990234375
 21
189.73800659179688
 31
0.0
  0
LINE
  5
260
  8
CONTROL_CAVITY
 10
125.3489990234375
 20
189.73800659179688
 30
0.0
 11
126.19566345214844
 21
189.78033447265625
 31
0.0
  0
LINE
  5
261
  8
CONTROL_CAVITY
 10
126.19566345214844
 20
189.78033447265625
 30
0.0
 11
125.5606689453125
 21
189.90733337402344
 31
0.0
  0
LINE
  5
262
  8
CONTROL_CAVITY
 10
125.5606689453125
 20
189.90733337402344
 30
0.0
 11
125.5183334350586
 21
190.3730010986328
 31
0.0
  0
LINE
  5
263
  8
CONTROL_CAVITY
 10
125.5183334350586
 20
190.3730010986328
 30
0.0
 11
126.49199676513672
 21
193.29400634765625
 31
0.0
  0
LINE
  5
264
  8
CONTROL_CAVITY
 10
126.49199676513672
 20
193.29400634765625
 30
0.0
 11
128.5663299560547
 21
197.7813262939453
 31
0.0
  0
LINE
  5
265
  8
CONTROL_CAVITY
 10
128.5663299560547
 20
197.7813262939453
 30
0.0
 11
135.80532836914062
 21
211.4550018310547
 31
0.0
  0
LINE
  5
266
  8
CONTROL_CAVITY
 10
135.80532836914062
 20
211.4550018310547
 30
0.0
 11
137.41400146484375
 21
215.13800048828125
 31
0.0
  0
LINE
  5
267
  8
CONTROL_CAVITY
 10
137.41400146484375
 20
215.13800048828125
 30
0.0
 11
138.4723358154297
 21
219.0749969482422
 31
0.0
  0
LINE
  5
268
  8
CONTROL_CAVITY
 10
138.4723358154297
 20
219.0749969482422
 30
0.0
 11
138.98033142089844
 21
222.71566772460938
 31
0.0
  0
LINE
  5
269
  8
CONTROL_CAVITY
 10
138.98033142089844
 20
222.71566772460938
 30
0.0
 11
138.76866149902344
 21
225.84832763671875
 31
0.0
  0
LINE
  5
26A
  8
CONTROL_CAVITY
 10
138.76866149902344
 20
225.84832763671875
 30
0.0
 11
135.67832946777344
 21
239.14100646972656
 31
0.0
  0
LINE
  5
26B
  8
CONTROL_CAVITY
 10
135.67832946777344
 20
239.14100646972656
 30
0.0
 11
135.42433166503906
 21
242.90866088867188
 31
0.0
  0
LINE
  5
26C
  8
CONTROL_CAVITY
 10
135.42433166503906
 20
242.90866088867188
 30
0.0
 11
135.84767150878906
 21
245.99899291992188
 31
0.0
  0
LINE
  5
26D
  8
CONTROL_CAVITY
 10
135.84767150878906
 20
245.99899291992188
 30
0.0
 11
138.0489959716797
 21
252.05267333984375
 31
0.0
  0
LINE
  5
26E
  8
CONTROL_CAVITY
 10
138.0489959716797
 20
252.05267333984375
 30
0.0
 11
140.54666137695312
 21
255.9896697998047
 31
0.0
  0
LINE
  5
26F
  8
CONTROL_CAVITY
 10
140.54666137695312
 20
255.9896697998047
 30
0.0
 11
142.83267211914062
 21
258.5719909667969
 31
0.0
  0
LINE
  5
270
  8
CONTROL_CAVITY
 10
142.83267211914062
 20
258.5719909667969
 30
0.0
 11
145.20333862304688
 21
260.3500061035156
 31
0.0
  0
LINE
  5
271
  8
CONTROL_CAVITY
 10
145.20333862304688
 20
260.3500061035156
 30
0.0
 11
149.3943328857422
 21
262.2550048828125
 31
0.0
  0
ENDSEC
  0
EOF
