  0
SECTION
  2
HEADER
  9
$ACADVER
  1
AC1009
  9
$DWGCODEPAGE
  3
ANSI_1252
  9
$INSBASE
 10
0.0
 20
0.0
 30
0.0
  9
$EXTMIN
 10
1e+20
 20
1e+20
 30
1e+20
  9
$EXTMAX
 10
-1e+20
 20
-1e+20
 30
-1e+20
  9
$LIMMIN
 10
0.0
 20
0.0
  9
$LIMMAX
 10
420.0
 20
297.0
  9
$ORTHOMODE
 70
0
  9
$REGENMODE
 70
1
  9
$FILLMODE
 70
1
  9
$DRAGMODE
 70
2
  9
$QTEXTMODE
 70
0
  9
$MIRRTEXT
 70
1
  9
$OSMODE
 70
20583
  9
$LTSCALE
 40
1.0
  9
$ATTMODE
 70
1
  9
$TEXTSIZE
 40
2.5
  9
$TRACEWID
 40
1.0
  9
$TEXTSTYLE
  7
Standard
  9
$CLAYER
  8
0
  9
$CELTYPE
  6
ByLayer
  9
$CECOLOR
 62
256
  9
$DIMSCALE
 40
1.0
  9
$DIMASZ
 40
2.5
  9
$DIMEXO
 40
0.625
  9
$DIMDLI
 40
3.75
  9
$DIMRND
 40
0.0
  9
$DIMDLE
 40
0.0
  9
$DIMEXE
 40
1.25
  9
$DIMTP
 40
0.0
  9
$DIMTM
 40
0.0
  9
$DIMTXT
 40
2.5
  9
$DIMCEN
 40
2.5
  9
$DIMTSZ
 40
0.0
  9
$DIMTOL
 70
0
  9
$DIMLIM
 70
0
  9
$DIMTIH
 70
0
  9
$DIMTOH
 70
0
  9
$DIMSE1
 70
0
  9
$DIMSE2
 70
0
  9
$DIMTAD
 70
1
  9
$DIMZIN
 70
8
  9
$DIMBLK
  1

  9
$DIMASO
 70
1
  9
$DIMSHO
 70
1
  9
$DIMPOST
  1

  9
$DIMAPOST
  1

  9
$DIMALT
 70
0
  9
$DIMALTD
 70
3
  9
$DIMALTF
 40
0.03937007874
  9
$DIMLFAC
 40
1.0
  9
$DIMTOFL
 70
1
  9
$DIMTVP
 40
0.0
  9
$DIMTIX
 70
0
  9
$DIMSOXD
 70
0
  9
$DIMSAH
 70
0
  9
$DIMBLK1
  1

  9
$DIMBLK2
  1

  9
$DIMSTYLE
  2
ISO-25
  9
$DIMCLRD
 70
0
  9
$DIMCLRE
 70
0
  9
$DIMCLRT
 70
0
  9
$DIMTFAC
 40
1.0
  9
$DIMGAP
 40
0.625
  9
$COORDS
 70
1
  9
$ATTDIA
 70
0
  9
$ATTREQ
 70
1
  9
$HANDLING
 70
1
  9
$LUNITS
 70
2
  9
$LUPREC
 70
4
  9
$SKETCHINC
 40
1.0
  9
$FILLETRAD
 40
10.0
  9
$AUNITS
 70
0
  9
$AUPREC
 70
2
  9
$MENU
  1
.
  9
$ELEVATION
 40
0.0
  9
$PELEVATION
 40
0.0
  9
$THICKNESS
 40
0.0
  9
$LIMCHECK
 70
0
  9
$CHAMFERA
 40
0.0
  9
$CHAMFERB
 40
0.0
  9
$SKPOLY
 70
0
  9
$TDCREATE
 40
2461106.6793981483
  9
$TDUPDATE
 40
2461106.6794097223
  9
$TDINDWG
 40
0.0
  9
$TDUSRTIMER
 40
0.0
  9
$USRTIMER
 70
1
  9
$ANGBASE
 50
0.0
  9
$ANGDIR
 70
0
  9
$PDMODE
 70
0
  9
$PDSIZE
 40
0.0
  9
$PLINEWID
 40
0.0
  9
$SPLFRAME
 70
0
  9
$SPLINETYPE
 70
6
  9
$SPLINESEGS
 70
8
  9
$HANDSEED
  5
3F9
  9
$SURFTAB1
 70
6
  9
$SURFTAB2
 70
6
  9
$SURFTYPE
 70
6
  9
$SURFU
 70
6
  9
$SURFV
 70
6
  9
$UCSNAME
  2

  9
$UCSORG
 10
0.0
 20
0.0
 30
0.0
  9
$UCSXDIR
 10
1.0
 20
0.0
 30
0.0
  9
$UCSYDIR
 10
0.0
 20
1.0
 30
0.0
  9
$PUCSNAME
  2

  9
$PUCSORG
 10
0.0
 20
0.0
 30
0.0
  9
$PUCSXDIR
 10
1.0
 20
0.0
 30
0.0
  9
$PUCSYDIR
 10
0.0
 20
1.0
 30
0.0
  9
$USERI1
 70
0
  9
$USERI2
 70
0
  9
$USERI3
 70
0
  9
$USERI4
 70
0
  9
$USERI5
 70
0
  9
$USERR1
 40
0.0
  9
$USERR2
 40
0.0
  9
$USERR3
 40
0.0
  9
$USERR4
 40
0.0
  9
$USERR5
 40
0.0
  9
$WORLDVIEW
 70
1
  9
$SHADEDGE
 70
3
  9
$SHADEDIF
 70
70
  9
$TILEMODE
 70
1
  9
$MAXACTVP
 70
64
  9
$PLIMCHECK
 70
0
  9
$PEXTMIN
 10
1e+20
 20
1e+20
 30
1e+20
  9
$PEXTMAX
 10
-1e+20
 20
-1e+20
 30
-1e+20
  9
$PLIMMIN
 10
0.0
 20
0.0
  9
$PLIMMAX
 10
420.0
 20
297.0
  9
$UNITMODE
 70
0
  9
$VISRETAIN
 70
1
  9
$PLINEGEN
 70
0
  9
$PSLTSCALE
 70
1
  0
ENDSEC
  0
SECTION
  2
TABLES
  0
TABLE
  2
VPORT
 70
1
  0
VPORT
  5
23
  2
*Active
 70
0
 10
0.0
 20
0.0
 11
1.0
 21
1.0
 12
0.0
 22
0.0
 13
0.0
 23
0.0
 14
0.5
 24
0.5
 15
0.5
 25
0.5
 16
0.0
 26
0.0
 36
1.0
 17
0.0
 27
0.0
 37
0.0
 40
1000.0
 41
1.34
 42
50.0
 43
0.0
 44
0.0
 50
0.0
 51
0.0
 71
0
 72
1000
 73
1
 74
3
 75
0
 76
0
 77
0
 78
0
  0
ENDTAB
  0
TABLE
  2
LTYPE
 70
3
  0
LTYPE
  5
24
  2
ByBlock
 70
0
  3

 72
65
 73
0
 40
0.0
  0
LTYPE
  5
25
  2
ByLayer
 70
0
  3

 72
65
 73
0
 40
0.0
  0
LTYPE
  5
26
  2
Continuous
 70
0
  3

 72
65
 73
0
 40
0.0
  0
ENDTAB
  0
TABLE
  2
LAYER
 70
2
  0
LAYER
  5
27
  2
0
 70
0
 62
7
  6
Continuous
  0
LAYER
  5
28
  2
Defpoints
 70
0
 62
7
  6
Continuous
  0
ENDTAB
  0
TABLE
  2
STYLE
 70
1
  0
STYLE
  5
29
  2
Standard
 70
0
 40
0.0
 41
1.0
 50
0.0
 71
0
 42
2.5
  3
txt
  4

  0
ENDTAB
  0
TABLE
  2
VIEW
 70
0
  0
ENDTAB
  0
TABLE
  2
UCS
 70
0
  0
ENDTAB
  0
TABLE
  2
APPID
 70
3
  0
APPID
  5
2A
  2
ACAD
 70
0
  0
APPID
  5
3F7
  2
HATCHBACKGROUNDCOLOR
 70
0
  0
APPID
  5
3F8
  2
EZDXF
 70
0
  0
ENDTAB
  0
TABLE
  2
DIMSTYLE
 70
1
  0
DIMSTYLE
105
2B
  2
Standard
 70
0
  3

  4

  5

  6

  7

 40
1.0
 41
2.5
 42
0.625
 43
3.75
 44
1.25
 45
0.0
 46
0.0
 47
0.0
 48
0.0
140
2.5
141
2.5
142
0.0
143
0.03937007874
144
1.0
145
0.0
146
1.0
147
0.625
 71
0
 72
0
 73
0
 74
0
 75
0
 76
0
 77
1
 78
8
170
0
171
3
172
1
173
0
174
0
175
0
176
0
177
0
178
0
  0
ENDTAB
  0
ENDSEC
  0
SECTION
  2
BLOCKS
  0
BLOCK
  5
18
  8
0
  2
$Model_Space
 70
0
 10
0.0
 20
0.0
 30
0.0
  3
$Model_Space
  1

1001
EZDXF
1000
CREATED_BY_EZDXF
1000
1.4.3 @ 2026-03-06T22:18:20.967880+00:00
1000
WRITTEN_BY_EZDXF
1000
1.4.3 @ 2026-03-06T22:18:21.556458+00:00
  0
ENDBLK
  5
19
  8
0
  0
BLOCK
  5
1C
  8
0
  2
$Paper_Space
 70
0
 10
0.0
 20
0.0
 30
0.0
  3
$Paper_Space
  1

  0
ENDBLK
  5
1D
  8
0
  0
ENDSEC
  0
SECTION
  2
ENTITIES
  0
LINE
  5
2D
  8
SMALL_FEATURE
 10
181.5676727294922
 20
39.45466613769531
 30
0.0
 11
188.34100341796875
 21
39.49700164794922
 31
0.0
  0
LINE
  5
2E
  8
SMALL_FEATURE
 10
188.34100341796875
 20
39.49700164794922
 30
0.0
 11
188.5103302001953
 21
38.98899841308594
 31
0.0
  0
LINE
  5
2F
  8
SMALL_FEATURE
 10
188.5103302001953
 20
38.98899841308594
 30
0.0
 11
188.55267333984375
 21
39.49700164794922
 31
0.0
  0
LINE
  5
30
  8
SMALL_FEATURE
 10
188.55267333984375
 20
39.49700164794922
 30
0.0
 11
198.7550048828125
 21
39.49700164794922
 31
0.0
  0
LINE
  5
31
  8
SMALL_FEATURE
 10
198.7550048828125
 20
39.49700164794922
 30
0.0
 11
198.79733276367188
 21
24.595666885375977
 31
0.0
  0
LINE
  5
32
  8
SMALL_FEATURE
 10
198.79733276367188
 20
24.595666885375977
 30
0.0
 11
194.47933959960938
 21
24.553333282470703
 31
0.0
  0
LINE
  5
33
  8
SMALL_FEATURE
 10
194.47933959960938
 20
24.553333282470703
 30
0.0
 11
194.30999755859375
 21
24.849666595458984
 31
0.0
  0
LINE
  5
34
  8
SMALL_FEATURE
 10
194.30999755859375
 20
24.849666595458984
 30
0.0
 11
194.26766967773438
 21
24.553333282470703
 31
0.0
  0
LINE
  5
35
  8
SMALL_FEATURE
 10
194.26766967773438
 20
24.553333282470703
 30
0.0
 11
193.4633331298828
 21
24.553333282470703
 31
0.0
  0
LINE
  5
36
  8
SMALL_FEATURE
 10
193.4633331298828
 20
24.553333282470703
 30
0.0
 11
193.29400634765625
 21
24.849666595458984
 31
0.0
  0
LINE
  5
37
  8
SMALL_FEATURE
 10
193.29400634765625
 20
24.849666595458984
 30
0.0
 11
193.2516632080078
 21
24.553333282470703
 31
0.0
  0
LINE
  5
38
  8
SMALL_FEATURE
 10
193.2516632080078
 20
24.553333282470703
 30
0.0
 11
190.24600219726562
 21
24.553333282470703
 31
0.0
  0
LINE
  5
39
  8
SMALL_FEATURE
 10
190.24600219726562
 20
24.553333282470703
 30
0.0
 11
190.2036590576172
 21
24.849666595458984
 31
0.0
  0
LINE
  5
3A
  8
SMALL_FEATURE
 10
190.2036590576172
 20
24.849666595458984
 30
0.0
 11
189.56866455078125
 21
25.018999099731445
 31
0.0
  0
LINE
  5
3B
  8
SMALL_FEATURE
 10
189.56866455078125
 20
25.018999099731445
 30
0.0
 11
189.52633666992188
 21
24.553333282470703
 31
0.0
  0
LINE
  5
3C
  8
SMALL_FEATURE
 10
189.52633666992188
 20
24.553333282470703
 30
0.0
 11
181.61000061035156
 21
24.553333282470703
 31
0.0
  0
LINE
  5
3D
  8
SMALL_FEATURE
 10
181.61000061035156
 20
24.553333282470703
 30
0.0
 11
181.5676727294922
 21
39.45466613769531
 31
0.0
  0
LINE
  5
3E
  8
SMALL_FEATURE
 10
68.49533081054688
 20
226.6526641845703
 30
0.0
 11
71.5433349609375
 21
226.22933959960938
 31
0.0
  0
LINE
  5
3F
  8
SMALL_FEATURE
 10
71.5433349609375
 20
226.22933959960938
 30
0.0
 11
74.29499816894531
 21
224.57833862304688
 31
0.0
  0
LINE
  5
40
  8
SMALL_FEATURE
 10
74.29499816894531
 20
224.57833862304688
 30
0.0
 11
76.70800018310547
 21
221.6996612548828
 31
0.0
  0
LINE
  5
41
  8
SMALL_FEATURE
 10
76.70800018310547
 20
221.6996612548828
 30
0.0
 11
77.5546646118164
 21
219.371337890625
 31
0.0
  0
LINE
  5
42
  8
SMALL_FEATURE
 10
77.5546646118164
 20
219.371337890625
 30
0.0
 11
77.80867004394531
 21
217.5086669921875
 31
0.0
  0
LINE
  5
43
  8
SMALL_FEATURE
 10
77.80867004394531
 20
217.5086669921875
 30
0.0
 11
77.21600341796875
 21
214.0796661376953
 31
0.0
  0
LINE
  5
44
  8
SMALL_FEATURE
 10
77.21600341796875
 20
214.0796661376953
 30
0.0
 11
75.64966583251953
 21
211.4126739501953
 31
0.0
  0
LINE
  5
45
  8
SMALL_FEATURE
 10
75.64966583251953
 20
211.4126739501953
 30
0.0
 11
72.9403305053711
 21
209.1266632080078
 31
0.0
  0
LINE
  5
46
  8
SMALL_FEATURE
 10
72.9403305053711
 20
209.1266632080078
 30
0.0
 11
71.5433349609375
 21
208.40699768066406
 31
0.0
  0
LINE
  5
47
  8
SMALL_FEATURE
 10
71.5433349609375
 20
208.40699768066406
 30
0.0
 11
69.63833618164062
 21
207.98367309570312
 31
0.0
  0
LINE
  5
48
  8
SMALL_FEATURE
 10
69.63833618164062
 20
207.98367309570312
 30
0.0
 11
68.4530029296875
 21
208.0260009765625
 31
0.0
  0
LINE
  5
49
  8
SMALL_FEATURE
 10
68.4530029296875
 20
208.0260009765625
 30
0.0
 11
68.49533081054688
 21
226.6526641845703
 31
0.0
  0
LINE
  5
4A
  8
SMALL_FEATURE
 10
67.14066314697266
 20
226.6526641845703
 30
0.0
 11
68.2413330078125
 21
226.61033630371094
 31
0.0
  0
LINE
  5
4B
  8
SMALL_FEATURE
 10
68.2413330078125
 20
226.61033630371094
 30
0.0
 11
68.1989974975586
 21
207.98367309570312
 31
0.0
  0
LINE
  5
4C
  8
SMALL_FEATURE
 10
68.1989974975586
 20
207.98367309570312
 30
0.0
 11
65.23566436767578
 21
208.40699768066406
 31
0.0
  0
LINE
  5
4D
  8
SMALL_FEATURE
 10
65.23566436767578
 20
208.40699768066406
 30
0.0
 11
62.39933395385742
 21
210.05799865722656
 31
0.0
  0
LINE
  5
4E
  8
SMALL_FEATURE
 10
62.39933395385742
 20
210.05799865722656
 30
0.0
 11
60.07099914550781
 21
212.93666076660156
 31
0.0
  0
LINE
  5
4F
  8
SMALL_FEATURE
 10
60.07099914550781
 20
212.93666076660156
 30
0.0
 11
59.13966751098633
 21
215.64599609375
 31
0.0
  0
LINE
  5
50
  8
SMALL_FEATURE
 10
59.13966751098633
 20
215.64599609375
 30
0.0
 11
58.970333099365234
 21
217.12767028808594
 31
0.0
  0
LINE
  5
51
  8
SMALL_FEATURE
 10
58.970333099365234
 20
217.12767028808594
 30
0.0
 11
59.5629997253418
 21
220.55667114257812
 31
0.0
  0
LINE
  5
52
  8
SMALL_FEATURE
 10
59.5629997253418
 20
220.55667114257812
 30
0.0
 11
61.08700180053711
 21
223.26600646972656
 31
0.0
  0
LINE
  5
53
  8
SMALL_FEATURE
 10
61.08700180053711
 20
223.26600646972656
 30
0.0
 11
63.62699890136719
 21
225.4250030517578
 31
0.0
  0
LINE
  5
54
  8
SMALL_FEATURE
 10
63.62699890136719
 20
225.4250030517578
 30
0.0
 11
65.23566436767578
 21
226.22933959960938
 31
0.0
  0
LINE
  5
55
  8
SMALL_FEATURE
 10
65.23566436767578
 20
226.22933959960938
 30
0.0
 11
67.14066314697266
 21
226.6526641845703
 31
0.0
  0
LINE
  5
56
  8
SMALL_FEATURE
 10
185.29299926757812
 20
24.299333572387695
 30
0.0
 11
198.7550048828125
 21
24.34166717529297
 31
0.0
  0
LINE
  5
57
  8
SMALL_FEATURE
 10
198.7550048828125
 20
24.34166717529297
 30
0.0
 11
198.79733276367188
 21
17.82233238220215
 31
0.0
  0
LINE
  5
58
  8
SMALL_FEATURE
 10
198.79733276367188
 20
17.82233238220215
 30
0.0
 11
185.3353271484375
 21
17.780000686645508
 31
0.0
  0
LINE
  5
59
  8
SMALL_FEATURE
 10
185.3353271484375
 20
17.780000686645508
 30
0.0
 11
185.29299926757812
 21
24.299333572387695
 31
0.0
  0
LINE
  5
5A
  8
SMALL_FEATURE
 10
77.08899688720703
 20
183.30332946777344
 30
0.0
 11
87.92633056640625
 21
183.34567260742188
 31
0.0
  0
LINE
  5
5B
  8
SMALL_FEATURE
 10
87.92633056640625
 20
183.34567260742188
 30
0.0
 11
87.96866607666016
 21
178.0116729736328
 31
0.0
  0
LINE
  5
5C
  8
SMALL_FEATURE
 10
87.96866607666016
 20
178.0116729736328
 30
0.0
 11
77.13133239746094
 21
177.96932983398438
 31
0.0
  0
LINE
  5
5D
  8
SMALL_FEATURE
 10
77.13133239746094
 20
177.96932983398438
 30
0.0
 11
77.08899688720703
 21
183.30332946777344
 31
0.0
  0
LINE
  5
5E
  8
SMALL_FEATURE
 10
48.72566604614258
 20
183.30332946777344
 30
0.0
 11
59.5629997253418
 21
183.34567260742188
 31
0.0
  0
LINE
  5
5F
  8
SMALL_FEATURE
 10
59.5629997253418
 20
183.34567260742188
 30
0.0
 11
59.6053352355957
 21
178.0116729736328
 31
0.0
  0
LINE
  5
60
  8
SMALL_FEATURE
 10
59.6053352355957
 20
178.0116729736328
 30
0.0
 11
48.768001556396484
 21
177.96932983398438
 31
0.0
  0
LINE
  5
61
  8
SMALL_FEATURE
 10
48.768001556396484
 20
177.96932983398438
 30
0.0
 11
48.72566604614258
 21
183.30332946777344
 31
0.0
  0
LINE
  5
62
  8
SMALL_FEATURE
 10
185.29299926757812
 20
17.525999069213867
 30
0.0
 11
198.7550048828125
 21
17.56833267211914
 31
0.0
  0
LINE
  5
63
  8
SMALL_FEATURE
 10
198.7550048828125
 20
17.56833267211914
 30
0.0
 11
198.79733276367188
 21
13.58899974822998
 31
0.0
  0
LINE
  5
64
  8
SMALL_FEATURE
 10
198.79733276367188
 20
13.58899974822998
 30
0.0
 11
185.3353271484375
 21
13.546667098999023
 31
0.0
  0
LINE
  5
65
  8
SMALL_FEATURE
 10
185.3353271484375
 20
13.546667098999023
 30
0.0
 11
185.29299926757812
 21
17.525999069213867
 31
0.0
  0
LINE
  5
66
  8
SMALL_FEATURE
 10
185.29299926757812
 20
13.2926664352417
 30
0.0
 11
198.7550048828125
 21
13.335000038146973
 31
0.0
  0
LINE
  5
67
  8
SMALL_FEATURE
 10
198.7550048828125
 20
13.335000038146973
 30
0.0
 11
198.79733276367188
 21
9.440333366394043
 31
0.0
  0
LINE
  5
68
  8
SMALL_FEATURE
 10
198.79733276367188
 20
9.440333366394043
 30
0.0
 11
185.3353271484375
 21
9.39799976348877
 31
0.0
  0
LINE
  5
69
  8
SMALL_FEATURE
 10
185.3353271484375
 20
9.39799976348877
 30
0.0
 11
185.29299926757812
 21
13.2926664352417
 31
0.0
  0
LINE
  5
6A
  8
SMALL_FEATURE
 10
143.34066772460938
 20
229.91233825683594
 30
0.0
 11
144.3143310546875
 21
229.065673828125
 31
0.0
  0
LINE
  5
6B
  8
SMALL_FEATURE
 10
144.3143310546875
 20
229.065673828125
 30
0.0
 11
144.56832885742188
 21
229.27732849121094
 31
0.0
  0
LINE
  5
6C
  8
SMALL_FEATURE
 10
144.56832885742188
 20
229.27732849121094
 30
0.0
 11
144.06033325195312
 21
229.44667053222656
 31
0.0
  0
LINE
  5
6D
  8
SMALL_FEATURE
 10
144.06033325195312
 20
229.44667053222656
 30
0.0
 11
144.1026611328125
 21
229.82766723632812
 31
0.0
  0
LINE
  5
6E
  8
SMALL_FEATURE
 10
144.1026611328125
 20
229.82766723632812
 30
0.0
 11
145.16099548339844
 21
229.7429962158203
 31
0.0
  0
LINE
  5
6F
  8
SMALL_FEATURE
 10
145.16099548339844
 20
229.7429962158203
 30
0.0
 11
146.5156707763672
 21
230.1663360595703
 31
0.0
  0
LINE
  5
70
  8
SMALL_FEATURE
 10
146.5156707763672
 20
230.1663360595703
 30
0.0
 11
147.1929931640625
 21
229.91233825683594
 31
0.0
  0
LINE
  5
71
  8
SMALL_FEATURE
 10
147.1929931640625
 20
229.91233825683594
 30
0.0
 11
147.32000732421875
 21
230.25100708007812
 31
0.0
  0
LINE
  5
72
  8
SMALL_FEATURE
 10
147.32000732421875
 20
230.25100708007812
 30
0.0
 11
147.7433319091797
 21
230.2086639404297
 31
0.0
  0
LINE
  5
73
  8
SMALL_FEATURE
 10
147.7433319091797
 20
230.2086639404297
 30
0.0
 11
147.99732971191406
 21
229.31967163085938
 31
0.0
  0
LINE
  5
74
  8
SMALL_FEATURE
 10
147.99732971191406
 20
229.31967163085938
 30
0.0
 11
148.42066955566406
 21
229.1926727294922
 31
0.0
  0
LINE
  5
75
  8
SMALL_FEATURE
 10
148.42066955566406
 20
229.1926727294922
 30
0.0
 11
148.37832641601562
 21
228.7693328857422
 31
0.0
  0
LINE
  5
76
  8
SMALL_FEATURE
 10
148.37832641601562
 20
228.7693328857422
 30
0.0
 11
146.68499755859375
 21
228.60000610351562
 31
0.0
  0
LINE
  5
77
  8
SMALL_FEATURE
 10
146.68499755859375
 20
228.60000610351562
 30
0.0
 11
146.5156707763672
 21
229.27732849121094
 31
0.0
  0
LINE
  5
78
  8
SMALL_FEATURE
 10
146.5156707763672
 20
229.27732849121094
 30
0.0
 11
145.71133422851562
 21
229.27732849121094
 31
0.0
  0
LINE
  5
79
  8
SMALL_FEATURE
 10
145.71133422851562
 20
229.27732849121094
 30
0.0
 11
146.47332763671875
 21
229.02333068847656
 31
0.0
  0
LINE
  5
7A
  8
SMALL_FEATURE
 10
146.47332763671875
 20
229.02333068847656
 30
0.0
 11
146.388671875
 21
228.5576629638672
 31
0.0
  0
LINE
  5
7B
  8
SMALL_FEATURE
 10
146.388671875
 20
228.5576629638672
 30
0.0
 11
145.8806610107422
 21
228.4306640625
 31
0.0
  0
LINE
  5
7C
  8
SMALL_FEATURE
 10
145.8806610107422
 20
228.4306640625
 30
0.0
 11
146.21932983398438
 21
227.79566955566406
 31
0.0
  0
LINE
  5
7D
  8
SMALL_FEATURE
 10
146.21932983398438
 20
227.79566955566406
 30
0.0
 11
146.5156707763672
 21
228.38833618164062
 31
0.0
  0
LINE
  5
7E
  8
SMALL_FEATURE
 10
146.5156707763672
 20
228.38833618164062
 30
0.0
 11
147.0659942626953
 21
228.3459930419922
 31
0.0
  0
LINE
  5
7F
  8
SMALL_FEATURE
 10
147.0659942626953
 20
228.3459930419922
 30
0.0
 11
147.0659942626953
 21
227.79566955566406
 31
0.0
  0
LINE
  5
80
  8
SMALL_FEATURE
 10
147.0659942626953
 20
227.79566955566406
 30
0.0
 11
146.55799865722656
 21
227.62632751464844
 31
0.0
  0
LINE
  5
81
  8
SMALL_FEATURE
 10
146.55799865722656
 20
227.62632751464844
 30
0.0
 11
147.0659942626953
 21
227.3300018310547
 31
0.0
  0
LINE
  5
82
  8
SMALL_FEATURE
 10
147.0659942626953
 20
227.3300018310547
 30
0.0
 11
147.15066528320312
 21
226.8643341064453
 31
0.0
  0
LINE
  5
83
  8
SMALL_FEATURE
 10
147.15066528320312
 20
226.8643341064453
 30
0.0
 11
145.71133422851562
 21
226.9066619873047
 31
0.0
  0
LINE
  5
84
  8
SMALL_FEATURE
 10
145.71133422851562
 20
226.9066619873047
 30
0.0
 11
145.6266632080078
 21
226.5679931640625
 31
0.0
  0
LINE
  5
85
  8
SMALL_FEATURE
 10
145.6266632080078
 20
226.5679931640625
 30
0.0
 11
144.69532775878906
 21
226.48333740234375
 31
0.0
  0
LINE
  5
86
  8
SMALL_FEATURE
 10
144.69532775878906
 20
226.48333740234375
 30
0.0
 11
144.4413299560547
 21
226.73733520507812
 31
0.0
  0
LINE
  5
87
  8
SMALL_FEATURE
 10
144.4413299560547
 20
226.73733520507812
 30
0.0
 11
144.35667419433594
 21
226.52566528320312
 31
0.0
  0
LINE
  5
88
  8
SMALL_FEATURE
 10
144.35667419433594
 20
226.52566528320312
 30
0.0
 11
144.9493408203125
 21
226.22933959960938
 31
0.0
  0
LINE
  5
89
  8
SMALL_FEATURE
 10
144.9493408203125
 20
226.22933959960938
 30
0.0
 11
144.9493408203125
 21
225.763671875
 31
0.0
  0
LINE
  5
8A
  8
SMALL_FEATURE
 10
144.9493408203125
 20
225.763671875
 30
0.0
 11
145.28799438476562
 21
225.59432983398438
 31
0.0
  0
LINE
  5
8B
  8
SMALL_FEATURE
 10
145.28799438476562
 20
225.59432983398438
 30
0.0
 11
145.66900634765625
 21
225.93299865722656
 31
0.0
  0
LINE
  5
8C
  8
SMALL_FEATURE
 10
145.66900634765625
 20
225.93299865722656
 30
0.0
 11
145.6266632080078
 21
226.4409942626953
 31
0.0
  0
LINE
  5
8D
  8
SMALL_FEATURE
 10
145.6266632080078
 20
226.4409942626953
 30
0.0
 11
146.5156707763672
 21
226.52566528320312
 31
0.0
  0
LINE
  5
8E
  8
SMALL_FEATURE
 10
146.5156707763672
 20
226.52566528320312
 30
0.0
 11
146.47332763671875
 21
226.01766967773438
 31
0.0
  0
LINE
  5
8F
  8
SMALL_FEATURE
 10
146.47332763671875
 20
226.01766967773438
 30
0.0
 11
147.15066528320312
 21
225.763671875
 31
0.0
  0
LINE
  5
90
  8
SMALL_FEATURE
 10
147.15066528320312
 20
225.763671875
 30
0.0
 11
147.15066528320312
 21
224.66299438476562
 31
0.0
  0
LINE
  5
91
  8
SMALL_FEATURE
 10
147.15066528320312
 20
224.66299438476562
 30
0.0
 11
147.8280029296875
 21
224.74766540527344
 31
0.0
  0
LINE
  5
92
  8
SMALL_FEATURE
 10
147.8280029296875
 20
224.74766540527344
 30
0.0
 11
147.65866088867188
 21
224.15499877929688
 31
0.0
  0
LINE
  5
93
  8
SMALL_FEATURE
 10
147.65866088867188
 20
224.15499877929688
 30
0.0
 11
148.37832641601562
 21
223.9010009765625
 31
0.0
  0
LINE
  5
94
  8
SMALL_FEATURE
 10
148.37832641601562
 20
223.9010009765625
 30
0.0
 11
148.88633728027344
 21
224.19732666015625
 31
0.0
  0
LINE
  5
95
  8
SMALL_FEATURE
 10
148.88633728027344
 20
224.19732666015625
 30
0.0
 11
148.20899963378906
 21
224.15499877929688
 31
0.0
  0
LINE
  5
96
  8
SMALL_FEATURE
 10
148.20899963378906
 20
224.15499877929688
 30
0.0
 11
148.33599853515625
 21
224.91700744628906
 31
0.0
  0
LINE
  5
97
  8
SMALL_FEATURE
 10
148.33599853515625
 20
224.91700744628906
 30
0.0
 11
148.88633728027344
 21
224.91700744628906
 31
0.0
  0
LINE
  5
98
  8
SMALL_FEATURE
 10
148.88633728027344
 20
224.91700744628906
 30
0.0
 11
149.1403350830078
 21
224.49366760253906
 31
0.0
  0
LINE
  5
99
  8
SMALL_FEATURE
 10
149.1403350830078
 20
224.49366760253906
 30
0.0
 11
149.1826629638672
 21
225.08633422851562
 31
0.0
  0
LINE
  5
9A
  8
SMALL_FEATURE
 10
149.1826629638672
 20
225.08633422851562
 30
0.0
 11
150.5796661376953
 21
225.08633422851562
 31
0.0
  0
LINE
  5
9B
  8
SMALL_FEATURE
 10
150.5796661376953
 20
225.08633422851562
 30
0.0
 11
150.7066650390625
 21
224.66299438476562
 31
0.0
  0
LINE
  5
9C
  8
SMALL_FEATURE
 10
150.7066650390625
 20
224.66299438476562
 30
0.0
 11
151.08766174316406
 21
224.57833862304688
 31
0.0
  0
LINE
  5
9D
  8
SMALL_FEATURE
 10
151.08766174316406
 20
224.57833862304688
 30
0.0
 11
150.96066284179688
 21
225.34033203125
 31
0.0
  0
LINE
  5
9E
  8
SMALL_FEATURE
 10
150.96066284179688
 20
225.34033203125
 30
0.0
 11
151.84967041015625
 21
225.2556610107422
 31
0.0
  0
LINE
  5
9F
  8
SMALL_FEATURE
 10
151.84967041015625
 20
225.2556610107422
 30
0.0
 11
152.14599609375
 21
225.763671875
 31
0.0
  0
LINE
  5
A0
  8
SMALL_FEATURE
 10
152.14599609375
 20
225.763671875
 30
0.0
 11
152.6963348388672
 21
225.763671875
 31
0.0
  0
LINE
  5
A1
  8
SMALL_FEATURE
 10
152.6963348388672
 20
225.763671875
 30
0.0
 11
152.86566162109375
 21
224.66299438476562
 31
0.0
  0
LINE
  5
A2
  8
SMALL_FEATURE
 10
152.86566162109375
 20
224.66299438476562
 30
0.0
 11
153.07733154296875
 21
225.59432983398438
 31
0.0
  0
LINE
  5
A3
  8
SMALL_FEATURE
 10
153.07733154296875
 20
225.59432983398438
 30
0.0
 11
153.7969970703125
 21
225.34033203125
 31
0.0
  0
LINE
  5
A4
  8
SMALL_FEATURE
 10
153.7969970703125
 20
225.34033203125
 30
0.0
 11
154.1356658935547
 21
225.80599975585938
 31
0.0
  0
LINE
  5
A5
  8
SMALL_FEATURE
 10
154.1356658935547
 20
225.80599975585938
 30
0.0
 11
150.87600708007812
 21
226.14466857910156
 31
0.0
  0
LINE
  5
A6
  8
SMALL_FEATURE
 10
150.87600708007812
 20
226.14466857910156
 30
0.0
 11
150.87600708007812
 21
225.17100524902344
 31
0.0
  0
LINE
  5
A7
  8
SMALL_FEATURE
 10
150.87600708007812
 20
225.17100524902344
 30
0.0
 11
150.3679962158203
 21
225.128662109375
 31
0.0
  0
LINE
  5
A8
  8
SMALL_FEATURE
 10
150.3679962158203
 20
225.128662109375
 30
0.0
 11
149.47900390625
 21
226.05999755859375
 31
0.0
  0
LINE
  5
A9
  8
SMALL_FEATURE
 10
149.47900390625
 20
226.05999755859375
 30
0.0
 11
149.01333618164062
 21
226.05999755859375
 31
0.0
  0
LINE
  5
AA
  8
SMALL_FEATURE
 10
149.01333618164062
 20
226.05999755859375
 30
0.0
 11
149.52133178710938
 21
225.72132873535156
 31
0.0
  0
LINE
  5
AB
  8
SMALL_FEATURE
 10
149.52133178710938
 20
225.72132873535156
 30
0.0
 11
149.47900390625
 21
225.29800415039062
 31
0.0
  0
LINE
  5
AC
  8
SMALL_FEATURE
 10
149.47900390625
 20
225.29800415039062
 30
0.0
 11
148.42066955566406
 21
225.128662109375
 31
0.0
  0
LINE
  5
AD
  8
SMALL_FEATURE
 10
148.42066955566406
 20
225.128662109375
 30
0.0
 11
148.1666717529297
 21
225.4673309326172
 31
0.0
  0
LINE
  5
AE
  8
SMALL_FEATURE
 10
148.1666717529297
 20
225.4673309326172
 30
0.0
 11
148.0396728515625
 21
225.128662109375
 31
0.0
  0
LINE
  5
AF
  8
SMALL_FEATURE
 10
148.0396728515625
 20
225.128662109375
 30
0.0
 11
147.4893341064453
 21
225.128662109375
 31
0.0
  0
LINE
  5
B0
  8
SMALL_FEATURE
 10
147.4893341064453
 20
225.128662109375
 30
0.0
 11
147.7010040283203
 21
225.72132873535156
 31
0.0
  0
LINE
  5
B1
  8
SMALL_FEATURE
 10
147.7010040283203
 20
225.72132873535156
 30
0.0
 11
147.36233520507812
 21
226.05999755859375
 31
0.0
  0
LINE
  5
B2
  8
SMALL_FEATURE
 10
147.36233520507812
 20
226.05999755859375
 30
0.0
 11
146.81199645996094
 21
226.01766967773438
 31
0.0
  0
LINE
  5
B3
  8
SMALL_FEATURE
 10
146.81199645996094
 20
226.01766967773438
 30
0.0
 11
146.7273406982422
 21
226.52566528320312
 31
0.0
  0
LINE
  5
B4
  8
SMALL_FEATURE
 10
146.7273406982422
 20
226.52566528320312
 30
0.0
 11
148.0396728515625
 21
226.69500732421875
 31
0.0
  0
LINE
  5
B5
  8
SMALL_FEATURE
 10
148.0396728515625
 20
226.69500732421875
 30
0.0
 11
148.88633728027344
 21
226.4409942626953
 31
0.0
  0
LINE
  5
B6
  8
SMALL_FEATURE
 10
148.88633728027344
 20
226.4409942626953
 30
0.0
 11
149.0556640625
 21
226.94900512695312
 31
0.0
  0
LINE
  5
B7
  8
SMALL_FEATURE
 10
149.0556640625
 20
226.94900512695312
 30
0.0
 11
149.64833068847656
 21
227.0760040283203
 31
0.0
  0
LINE
  5
B8
  8
SMALL_FEATURE
 10
149.64833068847656
 20
227.0760040283203
 30
0.0
 11
148.75933837890625
 21
227.75332641601562
 31
0.0
  0
LINE
  5
B9
  8
SMALL_FEATURE
 10
148.75933837890625
 20
227.75332641601562
 30
0.0
 11
148.75933837890625
 21
226.9913330078125
 31
0.0
  0
LINE
  5
BA
  8
SMALL_FEATURE
 10
148.75933837890625
 20
226.9913330078125
 30
0.0
 11
148.1666717529297
 21
226.9913330078125
 31
0.0
  0
LINE
  5
BB
  8
SMALL_FEATURE
 10
148.1666717529297
 20
226.9913330078125
 30
0.0
 11
147.9126739501953
 21
227.4146728515625
 31
0.0
  0
LINE
  5
BC
  8
SMALL_FEATURE
 10
147.9126739501953
 20
227.4146728515625
 30
0.0
 11
147.8280029296875
 21
226.94900512695312
 31
0.0
  0
LINE
  5
BD
  8
SMALL_FEATURE
 10
147.8280029296875
 20
226.94900512695312
 30
0.0
 11
147.4046630859375
 21
226.9066619873047
 31
0.0
  0
LINE
  5
BE
  8
SMALL_FEATURE
 10
147.4046630859375
 20
226.9066619873047
 30
0.0
 11
147.4046630859375
 21
228.38833618164062
 31
0.0
  0
LINE
  5
BF
  8
SMALL_FEATURE
 10
147.4046630859375
 20
228.38833618164062
 30
0.0
 11
148.843994140625
 21
228.642333984375
 31
0.0
  0
LINE
  5
C0
  8
SMALL_FEATURE
 10
148.843994140625
 20
228.642333984375
 30
0.0
 11
150.1563262939453
 21
227.79566955566406
 31
0.0
  0
LINE
  5
C1
  8
SMALL_FEATURE
 10
150.1563262939453
 20
227.79566955566406
 30
0.0
 11
149.8176727294922
 21
228.218994140625
 31
0.0
  0
LINE
  5
C2
  8
SMALL_FEATURE
 10
149.8176727294922
 20
228.218994140625
 30
0.0
 11
149.90232849121094
 21
228.81166076660156
 31
0.0
  0
LINE
  5
C3
  8
SMALL_FEATURE
 10
149.90232849121094
 20
228.81166076660156
 30
0.0
 11
150.66433715820312
 21
228.89633178710938
 31
0.0
  0
LINE
  5
C4
  8
SMALL_FEATURE
 10
150.66433715820312
 20
228.89633178710938
 30
0.0
 11
150.9183349609375
 21
228.642333984375
 31
0.0
  0
LINE
  5
C5
  8
SMALL_FEATURE
 10
150.9183349609375
 20
228.642333984375
 30
0.0
 11
151.0453338623047
 21
229.065673828125
 31
0.0
  0
LINE
  5
C6
  8
SMALL_FEATURE
 10
151.0453338623047
 20
229.065673828125
 30
0.0
 11
152.4423370361328
 21
229.065673828125
 31
0.0
  0
LINE
  5
C7
  8
SMALL_FEATURE
 10
152.4423370361328
 20
229.065673828125
 30
0.0
 11
152.6963348388672
 21
228.642333984375
 31
0.0
  0
LINE
  5
C8
  8
SMALL_FEATURE
 10
152.6963348388672
 20
228.642333984375
 30
0.0
 11
152.82333374023438
 21
229.065673828125
 31
0.0
  0
LINE
  5
C9
  8
SMALL_FEATURE
 10
152.82333374023438
 20
229.065673828125
 30
0.0
 11
154.0933380126953
 21
229.27732849121094
 31
0.0
  0
LINE
  5
CA
  8
SMALL_FEATURE
 10
154.0933380126953
 20
229.27732849121094
 30
0.0
 11
154.17799377441406
 21
228.642333984375
 31
0.0
  0
LINE
  5
CB
  8
SMALL_FEATURE
 10
154.17799377441406
 20
228.642333984375
 30
0.0
 11
153.83934020996094
 21
228.5153350830078
 31
0.0
  0
LINE
  5
CC
  8
SMALL_FEATURE
 10
153.83934020996094
 20
228.5153350830078
 30
0.0
 11
154.05099487304688
 21
228.38833618164062
 31
0.0
  0
LINE
  5
CD
  8
SMALL_FEATURE
 10
154.05099487304688
 20
228.38833618164062
 30
0.0
 11
154.5590057373047
 21
228.642333984375
 31
0.0
  0
LINE
  5
CE
  8
SMALL_FEATURE
 10
154.5590057373047
 20
228.642333984375
 30
0.0
 11
154.4320068359375
 21
229.31967163085938
 31
0.0
  0
LINE
  5
CF
  8
SMALL_FEATURE
 10
154.4320068359375
 20
229.31967163085938
 30
0.0
 11
155.15167236328125
 21
229.065673828125
 31
0.0
  0
LINE
  5
D0
  8
SMALL_FEATURE
 10
155.15167236328125
 20
229.065673828125
 30
0.0
 11
155.5326690673828
 21
229.48899841308594
 31
0.0
  0
LINE
  5
D1
  8
SMALL_FEATURE
 10
155.5326690673828
 20
229.48899841308594
 30
0.0
 11
156.42166137695312
 21
229.61599731445312
 31
0.0
  0
LINE
  5
D2
  8
SMALL_FEATURE
 10
156.42166137695312
 20
229.61599731445312
 30
0.0
 11
156.42166137695312
 21
230.12399291992188
 31
0.0
  0
LINE
  5
D3
  8
SMALL_FEATURE
 10
156.42166137695312
 20
230.12399291992188
 30
0.0
 11
155.871337890625
 21
230.2086639404297
 31
0.0
  0
LINE
  5
D4
  8
SMALL_FEATURE
 10
155.871337890625
 20
230.2086639404297
 30
0.0
 11
155.15167236328125
 21
230.92832946777344
 31
0.0
  0
LINE
  5
D5
  8
SMALL_FEATURE
 10
155.15167236328125
 20
230.92832946777344
 30
0.0
 11
155.236328125
 21
231.35166931152344
 31
0.0
  0
LINE
  5
D6
  8
SMALL_FEATURE
 10
155.236328125
 20
231.35166931152344
 30
0.0
 11
156.16766357421875
 21
231.35166931152344
 31
0.0
  0
LINE
  5
D7
  8
SMALL_FEATURE
 10
156.16766357421875
 20
231.35166931152344
 30
0.0
 11
157.05667114257812
 21
230.67433166503906
 31
0.0
  0
LINE
  5
D8
  8
SMALL_FEATURE
 10
157.05667114257812
 20
230.67433166503906
 30
0.0
 11
157.73399353027344
 21
230.75900268554688
 31
0.0
  0
LINE
  5
D9
  8
SMALL_FEATURE
 10
157.73399353027344
 20
230.75900268554688
 30
0.0
 11
157.56466674804688
 21
229.9969940185547
 31
0.0
  0
LINE
  5
DA
  8
SMALL_FEATURE
 10
157.56466674804688
 20
229.9969940185547
 30
0.0
 11
157.14132690429688
 21
229.9546661376953
 31
0.0
  0
LINE
  5
DB
  8
SMALL_FEATURE
 10
157.14132690429688
 20
229.9546661376953
 30
0.0
 11
156.80267333984375
 21
229.44667053222656
 31
0.0
  0
LINE
  5
DC
  8
SMALL_FEATURE
 10
156.80267333984375
 20
229.44667053222656
 30
0.0
 11
157.05667114257812
 21
228.89633178710938
 31
0.0
  0
LINE
  5
DD
  8
SMALL_FEATURE
 10
157.05667114257812
 20
228.89633178710938
 30
0.0
 11
157.35299682617188
 21
229.15032958984375
 31
0.0
  0
LINE
  5
DE
  8
SMALL_FEATURE
 10
157.35299682617188
 20
229.15032958984375
 30
0.0
 11
157.26832580566406
 21
229.70066833496094
 31
0.0
  0
LINE
  5
DF
  8
SMALL_FEATURE
 10
157.26832580566406
 20
229.70066833496094
 30
0.0
 11
158.1996612548828
 21
229.82766723632812
 31
0.0
  0
LINE
  5
E0
  8
SMALL_FEATURE
 10
158.1996612548828
 20
229.82766723632812
 30
0.0
 11
158.538330078125
 21
230.3780059814453
 31
0.0
  0
LINE
  5
E1
  8
SMALL_FEATURE
 10
158.538330078125
 20
230.3780059814453
 30
0.0
 11
157.77633666992188
 21
230.3780059814453
 31
0.0
  0
LINE
  5
E2
  8
SMALL_FEATURE
 10
157.77633666992188
 20
230.3780059814453
 30
0.0
 11
157.86099243164062
 21
231.309326171875
 31
0.0
  0
LINE
  5
E3
  8
SMALL_FEATURE
 10
157.86099243164062
 20
231.309326171875
 30
0.0
 11
158.1996612548828
 21
231.56333923339844
 31
0.0
  0
LINE
  5
E4
  8
SMALL_FEATURE
 10
158.1996612548828
 20
231.56333923339844
 30
0.0
 11
157.3106689453125
 21
231.732666015625
 31
0.0
  0
LINE
  5
E5
  8
SMALL_FEATURE
 10
157.3106689453125
 20
231.732666015625
 30
0.0
 11
157.0989990234375
 21
232.24066162109375
 31
0.0
  0
LINE
  5
E6
  8
SMALL_FEATURE
 10
157.0989990234375
 20
232.24066162109375
 30
0.0
 11
156.7603302001953
 21
231.6479949951172
 31
0.0
  0
LINE
  5
E7
  8
SMALL_FEATURE
 10
156.7603302001953
 20
231.6479949951172
 30
0.0
 11
155.1093292236328
 21
231.47866821289062
 31
0.0
  0
LINE
  5
E8
  8
SMALL_FEATURE
 10
155.1093292236328
 20
231.47866821289062
 30
0.0
 11
155.40567016601562
 21
232.11366271972656
 31
0.0
  0
LINE
  5
E9
  8
SMALL_FEATURE
 10
155.40567016601562
 20
232.11366271972656
 30
0.0
 11
155.19400024414062
 21
232.24066162109375
 31
0.0
  0
LINE
  5
EA
  8
SMALL_FEATURE
 10
155.19400024414062
 20
232.24066162109375
 30
0.0
 11
154.85533142089844
 21
231.98666381835938
 31
0.0
  0
LINE
  5
EB
  8
SMALL_FEATURE
 10
154.85533142089844
 20
231.98666381835938
 30
0.0
 11
154.94000244140625
 21
231.3939971923828
 31
0.0
  0
LINE
  5
EC
  8
SMALL_FEATURE
 10
154.94000244140625
 20
231.3939971923828
 30
0.0
 11
154.0933380126953
 21
231.8173370361328
 31
0.0
  0
LINE
  5
ED
  8
SMALL_FEATURE
 10
154.0933380126953
 20
231.8173370361328
 30
0.0
 11
153.96633911132812
 21
231.309326171875
 31
0.0
  0
LINE
  5
EE
  8
SMALL_FEATURE
 10
153.96633911132812
 20
231.309326171875
 30
0.0
 11
152.73866271972656
 21
231.13999938964844
 31
0.0
  0
LINE
  5
EF
  8
SMALL_FEATURE
 10
152.73866271972656
 20
231.13999938964844
 30
0.0
 11
152.4846649169922
 21
231.47866821289062
 31
0.0
  0
LINE
  5
F0
  8
SMALL_FEATURE
 10
152.4846649169922
 20
231.47866821289062
 30
0.0
 11
151.8073272705078
 21
230.97067260742188
 31
0.0
  0
LINE
  5
F1
  8
SMALL_FEATURE
 10
151.8073272705078
 20
230.97067260742188
 30
0.0
 11
150.96066284179688
 21
230.88600158691406
 31
0.0
  0
LINE
  5
F2
  8
SMALL_FEATURE
 10
150.96066284179688
 20
230.88600158691406
 30
0.0
 11
151.0453338623047
 21
230.1663360595703
 31
0.0
  0
LINE
  5
F3
  8
SMALL_FEATURE
 10
151.0453338623047
 20
230.1663360595703
 30
0.0
 11
150.53733825683594
 21
229.48899841308594
 31
0.0
  0
LINE
  5
F4
  8
SMALL_FEATURE
 10
150.53733825683594
 20
229.48899841308594
 30
0.0
 11
149.86000061035156
 21
229.44667053222656
 31
0.0
  0
LINE
  5
F5
  8
SMALL_FEATURE
 10
149.86000061035156
 20
229.44667053222656
 30
0.0
 11
149.6060028076172
 21
228.7270050048828
 31
0.0
  0
LINE
  5
F6
  8
SMALL_FEATURE
 10
149.6060028076172
 20
228.7270050048828
 30
0.0
 11
149.1403350830078
 21
228.68466186523438
 31
0.0
  0
LINE
  5
F7
  8
SMALL_FEATURE
 10
149.1403350830078
 20
228.68466186523438
 30
0.0
 11
147.9550018310547
 21
229.9546661376953
 31
0.0
  0
LINE
  5
F8
  8
SMALL_FEATURE
 10
147.9550018310547
 20
229.9546661376953
 30
0.0
 11
147.9550018310547
 21
230.2933349609375
 31
0.0
  0
LINE
  5
F9
  8
SMALL_FEATURE
 10
147.9550018310547
 20
230.2933349609375
 30
0.0
 11
148.37832641601562
 21
230.4203338623047
 31
0.0
  0
LINE
  5
FA
  8
SMALL_FEATURE
 10
148.37832641601562
 20
230.4203338623047
 30
0.0
 11
148.12432861328125
 21
231.05532836914062
 31
0.0
  0
LINE
  5
FB
  8
SMALL_FEATURE
 10
148.12432861328125
 20
231.05532836914062
 30
0.0
 11
147.1929931640625
 21
231.3939971923828
 31
0.0
  0
LINE
  5
FC
  8
SMALL_FEATURE
 10
147.1929931640625
 20
231.3939971923828
 30
0.0
 11
146.2616729736328
 21
231.05532836914062
 31
0.0
  0
LINE
  5
FD
  8
SMALL_FEATURE
 10
146.2616729736328
 20
231.05532836914062
 30
0.0
 11
145.4149932861328
 21
231.26699829101562
 31
0.0
  0
LINE
  5
FE
  8
SMALL_FEATURE
 10
145.4149932861328
 20
231.26699829101562
 30
0.0
 11
145.4149932861328
 21
231.6479949951172
 31
0.0
  0
LINE
  5
FF
  8
SMALL_FEATURE
 10
145.4149932861328
 20
231.6479949951172
 30
0.0
 11
145.96533203125
 21
231.8596649169922
 31
0.0
  0
LINE
  5
100
  8
SMALL_FEATURE
 10
145.96533203125
 20
231.8596649169922
 30
0.0
 11
148.33599853515625
 21
231.9443359375
 31
0.0
  0
LINE
  5
101
  8
SMALL_FEATURE
 10
148.33599853515625
 20
231.9443359375
 30
0.0
 11
149.267333984375
 21
231.01300048828125
 31
0.0
  0
LINE
  5
102
  8
SMALL_FEATURE
 10
149.267333984375
 20
231.01300048828125
 30
0.0
 11
148.843994140625
 21
229.91233825683594
 31
0.0
  0
LINE
  5
103
  8
SMALL_FEATURE
 10
148.843994140625
 20
229.91233825683594
 30
0.0
 11
149.30966186523438
 21
230.5050048828125
 31
0.0
  0
LINE
  5
104
  8
SMALL_FEATURE
 10
149.30966186523438
 20
230.5050048828125
 30
0.0
 11
150.1563262939453
 21
230.25100708007812
 31
0.0
  0
LINE
  5
105
  8
SMALL_FEATURE
 10
150.1563262939453
 20
230.25100708007812
 30
0.0
 11
150.32566833496094
 21
231.05532836914062
 31
0.0
  0
LINE
  5
106
  8
SMALL_FEATURE
 10
150.32566833496094
 20
231.05532836914062
 30
0.0
 11
149.09800720214844
 21
231.22467041015625
 31
0.0
  0
LINE
  5
107
  8
SMALL_FEATURE
 10
149.09800720214844
 20
231.22467041015625
 30
0.0
 11
148.7169952392578
 21
231.77499389648438
 31
0.0
  0
LINE
  5
108
  8
SMALL_FEATURE
 10
148.7169952392578
 20
231.77499389648438
 30
0.0
 11
148.75933837890625
 21
232.19833374023438
 31
0.0
  0
LINE
  5
109
  8
SMALL_FEATURE
 10
148.75933837890625
 20
232.19833374023438
 30
0.0
 11
149.64833068847656
 21
232.2830047607422
 31
0.0
  0
LINE
  5
10A
  8
SMALL_FEATURE
 10
149.64833068847656
 20
232.2830047607422
 30
0.0
 11
149.73300170898438
 21
232.8333282470703
 31
0.0
  0
LINE
  5
10B
  8
SMALL_FEATURE
 10
149.73300170898438
 20
232.8333282470703
 30
0.0
 11
150.07167053222656
 21
232.87567138671875
 31
0.0
  0
LINE
  5
10C
  8
SMALL_FEATURE
 10
150.07167053222656
 20
232.87567138671875
 30
0.0
 11
149.90232849121094
 21
233.5106658935547
 31
0.0
  0
LINE
  5
10D
  8
SMALL_FEATURE
 10
149.90232849121094
 20
233.5106658935547
 30
0.0
 11
149.09800720214844
 21
233.76466369628906
 31
0.0
  0
LINE
  5
10E
  8
SMALL_FEATURE
 10
149.09800720214844
 20
233.76466369628906
 30
0.0
 11
149.6060028076172
 21
233.42599487304688
 31
0.0
  0
LINE
  5
10F
  8
SMALL_FEATURE
 10
149.6060028076172
 20
233.42599487304688
 30
0.0
 11
149.690673828125
 21
232.9603271484375
 31
0.0
  0
LINE
  5
110
  8
SMALL_FEATURE
 10
149.690673828125
 20
232.9603271484375
 30
0.0
 11
148.75933837890625
 21
232.74867248535156
 31
0.0
  0
LINE
  5
111
  8
SMALL_FEATURE
 10
148.75933837890625
 20
232.74867248535156
 30
0.0
 11
148.63233947753906
 21
232.41000366210938
 31
0.0
  0
LINE
  5
112
  8
SMALL_FEATURE
 10
148.63233947753906
 20
232.41000366210938
 30
0.0
 11
147.65866088867188
 21
232.49465942382812
 31
0.0
  0
LINE
  5
113
  8
SMALL_FEATURE
 10
147.65866088867188
 20
232.49465942382812
 30
0.0
 11
147.0659942626953
 21
233.1719970703125
 31
0.0
  0
LINE
  5
114
  8
SMALL_FEATURE
 10
147.0659942626953
 20
233.1719970703125
 30
0.0
 11
146.93899536132812
 21
232.156005859375
 31
0.0
  0
LINE
  5
115
  8
SMALL_FEATURE
 10
146.93899536132812
 20
232.156005859375
 30
0.0
 11
145.37266540527344
 21
231.98666381835938
 31
0.0
  0
LINE
  5
116
  8
SMALL_FEATURE
 10
145.37266540527344
 20
231.98666381835938
 30
0.0
 11
145.4149932861328
 21
232.70632934570312
 31
0.0
  0
LINE
  5
117
  8
SMALL_FEATURE
 10
145.4149932861328
 20
232.70632934570312
 30
0.0
 11
144.9493408203125
 21
232.91799926757812
 31
0.0
  0
LINE
  5
118
  8
SMALL_FEATURE
 10
144.9493408203125
 20
232.91799926757812
 30
0.0
 11
145.11866760253906
 21
231.9443359375
 31
0.0
  0
LINE
  5
119
  8
SMALL_FEATURE
 10
145.11866760253906
 20
231.9443359375
 30
0.0
 11
144.1026611328125
 21
232.0713348388672
 31
0.0
  0
LINE
  5
11A
  8
SMALL_FEATURE
 10
144.1026611328125
 20
232.0713348388672
 30
0.0
 11
144.01800537109375
 21
231.8596649169922
 31
0.0
  0
LINE
  5
11B
  8
SMALL_FEATURE
 10
144.01800537109375
 20
231.8596649169922
 30
0.0
 11
145.0763397216797
 21
231.69033813476562
 31
0.0
  0
LINE
  5
11C
  8
SMALL_FEATURE
 10
145.0763397216797
 20
231.69033813476562
 30
0.0
 11
145.20333862304688
 21
231.1823272705078
 31
0.0
  0
LINE
  5
11D
  8
SMALL_FEATURE
 10
145.20333862304688
 20
231.1823272705078
 30
0.0
 11
146.0500030517578
 21
230.80133056640625
 31
0.0
  0
LINE
  5
11E
  8
SMALL_FEATURE
 10
146.0500030517578
 20
230.80133056640625
 30
0.0
 11
146.0500030517578
 21
230.25100708007812
 31
0.0
  0
LINE
  5
11F
  8
SMALL_FEATURE
 10
146.0500030517578
 20
230.25100708007812
 30
0.0
 11
144.9493408203125
 21
230.12399291992188
 31
0.0
  0
LINE
  5
120
  8
SMALL_FEATURE
 10
144.9493408203125
 20
230.12399291992188
 30
0.0
 11
144.35667419433594
 21
230.71665954589844
 31
0.0
  0
LINE
  5
121
  8
SMALL_FEATURE
 10
144.35667419433594
 20
230.71665954589844
 30
0.0
 11
144.27200317382812
 21
229.9546661376953
 31
0.0
  0
LINE
  5
122
  8
SMALL_FEATURE
 10
144.27200317382812
 20
229.9546661376953
 30
0.0
 11
143.34066772460938
 21
229.91233825683594
 31
0.0
  0
LINE
  5
123
  8
SMALL_FEATURE
 10
68.4530029296875
 20
181.77932739257812
 30
0.0
 11
76.83499908447266
 21
181.82167053222656
 31
0.0
  0
LINE
  5
124
  8
SMALL_FEATURE
 10
76.83499908447266
 20
181.82167053222656
 30
0.0
 11
76.87733459472656
 21
180.12832641601562
 31
0.0
  0
LINE
  5
125
  8
SMALL_FEATURE
 10
76.87733459472656
 20
180.12832641601562
 30
0.0
 11
68.49533081054688
 21
180.08599853515625
 31
0.0
  0
LINE
  5
126
  8
SMALL_FEATURE
 10
68.49533081054688
 20
180.08599853515625
 30
0.0
 11
68.4530029296875
 21
181.77932739257812
 31
0.0
  0
LINE
  5
127
  8
SMALL_FEATURE
 10
59.81700134277344
 20
181.77932739257812
 30
0.0
 11
68.1989974975586
 21
181.82167053222656
 31
0.0
  0
LINE
  5
128
  8
SMALL_FEATURE
 10
68.1989974975586
 20
181.82167053222656
 30
0.0
 11
68.2413330078125
 21
180.12832641601562
 31
0.0
  0
LINE
  5
129
  8
SMALL_FEATURE
 10
68.2413330078125
 20
180.12832641601562
 30
0.0
 11
59.85933303833008
 21
180.08599853515625
 31
0.0
  0
LINE
  5
12A
  8
SMALL_FEATURE
 10
59.85933303833008
 20
180.08599853515625
 30
0.0
 11
59.81700134277344
 21
181.77932739257812
 31
0.0
  0
LINE
  5
12B
  8
SMALL_FEATURE
 10
189.86500549316406
 20
32.85066604614258
 30
0.0
 11
188.55267333984375
 21
32.85066604614258
 31
0.0
  0
LINE
  5
12C
  8
SMALL_FEATURE
 10
188.55267333984375
 20
32.85066604614258
 30
0.0
 11
188.00233459472656
 21
33.231666564941406
 31
0.0
  0
LINE
  5
12D
  8
SMALL_FEATURE
 10
188.00233459472656
 20
33.231666564941406
 30
0.0
 11
188.00233459472656
 21
33.69733428955078
 31
0.0
  0
LINE
  5
12E
  8
SMALL_FEATURE
 10
188.00233459472656
 20
33.69733428955078
 30
0.0
 11
187.66366577148438
 21
33.189334869384766
 31
0.0
  0
LINE
  5
12F
  8
SMALL_FEATURE
 10
187.66366577148438
 20
33.189334869384766
 30
0.0
 11
187.197998046875
 21
33.189334869384766
 31
0.0
  0
LINE
  5
130
  8
SMALL_FEATURE
 10
187.197998046875
 20
33.189334869384766
 30
0.0
 11
187.36734008789062
 21
34.71333312988281
 31
0.0
  0
LINE
  5
131
  8
SMALL_FEATURE
 10
187.36734008789062
 20
34.71333312988281
 30
0.0
 11
186.3090057373047
 21
33.358665466308594
 31
0.0
  0
LINE
  5
132
  8
SMALL_FEATURE
 10
186.3090057373047
 20
33.358665466308594
 30
0.0
 11
184.1923370361328
 21
32.13100051879883
 31
0.0
  0
LINE
  5
133
  8
SMALL_FEATURE
 10
184.1923370361328
 20
32.13100051879883
 30
0.0
 11
183.34567260742188
 21
31.284334182739258
 31
0.0
  0
LINE
  5
134
  8
SMALL_FEATURE
 10
183.34567260742188
 20
31.284334182739258
 30
0.0
 11
183.0070037841797
 21
29.80266761779785
 31
0.0
  0
LINE
  5
135
  8
SMALL_FEATURE
 10
183.0070037841797
 20
29.80266761779785
 30
0.0
 11
183.85366821289062
 21
31.496000289916992
 31
0.0
  0
LINE
  5
136
  8
SMALL_FEATURE
 10
183.85366821289062
 20
31.496000289916992
 30
0.0
 11
185.37767028808594
 21
32.34266662597656
 31
0.0
  0
LINE
  5
137
  8
SMALL_FEATURE
 10
185.37767028808594
 20
32.34266662597656
 30
0.0
 11
186.13966369628906
 21
32.34266662597656
 31
0.0
  0
LINE
  5
138
  8
SMALL_FEATURE
 10
186.13966369628906
 20
32.34266662597656
 30
0.0
 11
185.37767028808594
 21
29.125333786010742
 31
0.0
  0
LINE
  5
139
  8
SMALL_FEATURE
 10
185.37767028808594
 20
29.125333786010742
 30
0.0
 11
184.48866271972656
 21
26.71233367919922
 31
0.0
  0
LINE
  5
13A
  8
SMALL_FEATURE
 10
184.48866271972656
 20
26.71233367919922
 30
0.0
 11
184.0229949951172
 21
26.71233367919922
 31
0.0
  0
LINE
  5
13B
  8
SMALL_FEATURE
 10
184.0229949951172
 20
26.71233367919922
 30
0.0
 11
184.14999389648438
 21
28.40566635131836
 31
0.0
  0
LINE
  5
13C
  8
SMALL_FEATURE
 10
184.14999389648438
 20
28.40566635131836
 30
0.0
 11
184.6580047607422
 21
28.913665771484375
 31
0.0
  0
LINE
  5
13D
  8
SMALL_FEATURE
 10
184.6580047607422
 20
28.913665771484375
 30
0.0
 11
183.51499938964844
 21
28.066999435424805
 31
0.0
  0
LINE
  5
13E
  8
SMALL_FEATURE
 10
183.51499938964844
 20
28.066999435424805
 30
0.0
 11
181.99099731445312
 21
25.908000946044922
 31
0.0
  0
LINE
  5
13F
  8
SMALL_FEATURE
 10
181.99099731445312
 20
25.908000946044922
 30
0.0
 11
183.34567260742188
 21
27.43199920654297
 31
0.0
  0
LINE
  5
140
  8
SMALL_FEATURE
 10
183.34567260742188
 20
27.43199920654297
 30
0.0
 11
183.85366821289062
 21
27.389667510986328
 31
0.0
  0
LINE
  5
141
  8
SMALL_FEATURE
 10
183.85366821289062
 20
27.389667510986328
 30
0.0
 11
183.51499938964844
 21
25.738666534423828
 31
0.0
  0
LINE
  5
142
  8
SMALL_FEATURE
 10
183.51499938964844
 20
25.738666534423828
 30
0.0
 11
183.684326171875
 21
26.246665954589844
 31
0.0
  0
LINE
  5
143
  8
SMALL_FEATURE
 10
183.684326171875
 20
26.246665954589844
 30
0.0
 11
184.48866271972656
 21
26.246665954589844
 31
0.0
  0
LINE
  5
144
  8
SMALL_FEATURE
 10
184.48866271972656
 20
26.246665954589844
 30
0.0
 11
185.8433380126953
 21
29.125333786010742
 31
0.0
  0
LINE
  5
145
  8
SMALL_FEATURE
 10
185.8433380126953
 20
29.125333786010742
 30
0.0
 11
186.69000244140625
 21
31.665332794189453
 31
0.0
  0
LINE
  5
146
  8
SMALL_FEATURE
 10
186.69000244140625
 20
31.665332794189453
 30
0.0
 11
187.3249969482422
 21
31.665332794189453
 31
0.0
  0
LINE
  5
147
  8
SMALL_FEATURE
 10
187.3249969482422
 20
31.665332794189453
 30
0.0
 11
187.70599365234375
 21
32.893001556396484
 31
0.0
  0
LINE
  5
148
  8
SMALL_FEATURE
 10
187.70599365234375
 20
32.893001556396484
 30
0.0
 11
188.89132690429688
 21
32.5543327331543
 31
0.0
  0
LINE
  5
149
  8
SMALL_FEATURE
 10
188.89132690429688
 20
32.5543327331543
 30
0.0
 11
189.86500549316406
 21
32.5543327331543
 31
0.0
  0
LINE
  5
14A
  8
SMALL_FEATURE
 10
189.86500549316406
 20
32.5543327331543
 30
0.0
 11
189.86500549316406
 21
32.85066604614258
 31
0.0
  0
LINE
  5
14B
  8
SMALL_FEATURE
 10
164.33799743652344
 20
225.97532653808594
 30
0.0
 11
164.67666625976562
 21
225.34033203125
 31
0.0
  0
LINE
  5
14C
  8
SMALL_FEATURE
 10
164.67666625976562
 20
225.34033203125
 30
0.0
 11
165.6926727294922
 21
225.38265991210938
 31
0.0
  0
LINE
  5
14D
  8
SMALL_FEATURE
 10
165.6926727294922
 20
225.38265991210938
 30
0.0
 11
165.43865966796875
 21
224.74766540527344
 31
0.0
  0
LINE
  5
14E
  8
SMALL_FEATURE
 10
165.43865966796875
 20
224.74766540527344
 30
0.0
 11
165.98899841308594
 21
225.08633422851562
 31
0.0
  0
LINE
  5
14F
  8
SMALL_FEATURE
 10
165.98899841308594
 20
225.08633422851562
 30
0.0
 11
165.94667053222656
 21
225.59432983398438
 31
0.0
  0
LINE
  5
150
  8
SMALL_FEATURE
 10
165.94667053222656
 20
225.59432983398438
 30
0.0
 11
166.6663360595703
 21
225.50967407226562
 31
0.0
  0
LINE
  5
151
  8
SMALL_FEATURE
 10
166.6663360595703
 20
225.50967407226562
 30
0.0
 11
166.96266174316406
 21
224.83233642578125
 31
0.0
  0
LINE
  5
152
  8
SMALL_FEATURE
 10
166.96266174316406
 20
224.83233642578125
 30
0.0
 11
167.47067260742188
 21
224.7899932861328
 31
0.0
  0
LINE
  5
153
  8
SMALL_FEATURE
 10
167.47067260742188
 20
224.7899932861328
 30
0.0
 11
167.47067260742188
 21
224.3243408203125
 31
0.0
  0
LINE
  5
154
  8
SMALL_FEATURE
 10
167.47067260742188
 20
224.3243408203125
 30
0.0
 11
167.1320037841797
 21
224.19732666015625
 31
0.0
  0
LINE
  5
155
  8
SMALL_FEATURE
 10
167.1320037841797
 20
224.19732666015625
 30
0.0
 11
167.30133056640625
 21
223.5623321533203
 31
0.0
  0
LINE
  5
156
  8
SMALL_FEATURE
 10
167.30133056640625
 20
223.5623321533203
 30
0.0
 11
168.1056671142578
 21
223.9856719970703
 31
0.0
  0
LINE
  5
157
  8
SMALL_FEATURE
 10
168.1056671142578
 20
223.9856719970703
 30
0.0
 11
168.40199279785156
 21
223.52000427246094
 31
0.0
  0
LINE
  5
158
  8
SMALL_FEATURE
 10
168.40199279785156
 20
223.52000427246094
 30
0.0
 11
168.1056671142578
 21
222.5886688232422
 31
0.0
  0
LINE
  5
159
  8
SMALL_FEATURE
 10
168.1056671142578
 20
222.5886688232422
 30
0.0
 11
166.7933349609375
 21
222.5886688232422
 31
0.0
  0
LINE
  5
15A
  8
SMALL_FEATURE
 10
166.7933349609375
 20
222.5886688232422
 30
0.0
 11
166.75100708007812
 21
222.1653289794922
 31
0.0
  0
LINE
  5
15B
  8
SMALL_FEATURE
 10
166.75100708007812
 20
222.1653289794922
 30
0.0
 11
165.52333068847656
 21
222.50399780273438
 31
0.0
  0
LINE
  5
15C
  8
SMALL_FEATURE
 10
165.52333068847656
 20
222.50399780273438
 30
0.0
 11
165.43865966796875
 21
222.1230010986328
 31
0.0
  0
LINE
  5
15D
  8
SMALL_FEATURE
 10
165.43865966796875
 20
222.1230010986328
 30
0.0
 11
166.41233825683594
 21
221.86900329589844
 31
0.0
  0
LINE
  5
15E
  8
SMALL_FEATURE
 10
166.41233825683594
 20
221.86900329589844
 30
0.0
 11
166.53933715820312
 21
221.53033447265625
 31
0.0
  0
LINE
  5
15F
  8
SMALL_FEATURE
 10
166.53933715820312
 20
221.53033447265625
 30
0.0
 11
167.76699829101562
 21
221.6996612548828
 31
0.0
  0
LINE
  5
160
  8
SMALL_FEATURE
 10
167.76699829101562
 20
221.6996612548828
 30
0.0
 11
167.8939971923828
 21
222.1230010986328
 31
0.0
  0
LINE
  5
161
  8
SMALL_FEATURE
 10
167.8939971923828
 20
222.1230010986328
 30
0.0
 11
170.0953369140625
 21
222.29232788085938
 31
0.0
  0
LINE
  5
162
  8
SMALL_FEATURE
 10
170.0953369140625
 20
222.29232788085938
 30
0.0
 11
170.3070068359375
 21
221.53033447265625
 31
0.0
  0
LINE
  5
163
  8
SMALL_FEATURE
 10
170.3070068359375
 20
221.53033447265625
 30
0.0
 11
170.56100463867188
 21
221.78433227539062
 31
0.0
  0
LINE
  5
164
  8
SMALL_FEATURE
 10
170.56100463867188
 20
221.78433227539062
 30
0.0
 11
170.39166259765625
 21
222.50399780273438
 31
0.0
  0
LINE
  5
165
  8
SMALL_FEATURE
 10
170.39166259765625
 20
222.50399780273438
 30
0.0
 11
170.81500244140625
 21
222.5463409423828
 31
0.0
  0
LINE
  5
166
  8
SMALL_FEATURE
 10
170.81500244140625
 20
222.5463409423828
 30
0.0
 11
170.0953369140625
 21
223.09666442871094
 31
0.0
  0
LINE
  5
167
  8
SMALL_FEATURE
 10
170.0953369140625
 20
223.09666442871094
 30
0.0
 11
169.9683380126953
 21
222.5886688232422
 31
0.0
  0
LINE
  5
168
  8
SMALL_FEATURE
 10
169.9683380126953
 20
222.5886688232422
 30
0.0
 11
168.4443359375
 21
222.5463409423828
 31
0.0
  0
LINE
  5
169
  8
SMALL_FEATURE
 10
168.4443359375
 20
222.5463409423828
 30
0.0
 11
168.4443359375
 21
223.09666442871094
 31
0.0
  0
LINE
  5
16A
  8
SMALL_FEATURE
 10
168.4443359375
 20
223.09666442871094
 30
0.0
 11
169.03700256347656
 21
223.05433654785156
 31
0.0
  0
LINE
  5
16B
  8
SMALL_FEATURE
 10
169.03700256347656
 20
223.05433654785156
 30
0.0
 11
169.37567138671875
 21
223.85867309570312
 31
0.0
  0
LINE
  5
16C
  8
SMALL_FEATURE
 10
169.37567138671875
 20
223.85867309570312
 30
0.0
 11
169.7989959716797
 21
223.9010009765625
 31
0.0
  0
LINE
  5
16D
  8
SMALL_FEATURE
 10
169.7989959716797
 20
223.9010009765625
 30
0.0
 11
169.92599487304688
 21
224.2396697998047
 31
0.0
  0
LINE
  5
16E
  8
SMALL_FEATURE
 10
169.92599487304688
 20
224.2396697998047
 30
0.0
 11
171.4076690673828
 21
224.3243408203125
 31
0.0
  0
LINE
  5
16F
  8
SMALL_FEATURE
 10
171.4076690673828
 20
224.3243408203125
 30
0.0
 11
171.91566467285156
 21
223.9010009765625
 31
0.0
  0
LINE
  5
170
  8
SMALL_FEATURE
 10
171.91566467285156
 20
223.9010009765625
 30
0.0
 11
172.0850067138672
 21
224.70533752441406
 31
0.0
  0
LINE
  5
171
  8
SMALL_FEATURE
 10
172.0850067138672
 20
224.70533752441406
 30
0.0
 11
171.111328125
 21
224.62066650390625
 31
0.0
  0
LINE
  5
172
  8
SMALL_FEATURE
 10
171.111328125
 20
224.62066650390625
 30
0.0
 11
170.85733032226562
 21
225.04400634765625
 31
0.0
  0
LINE
  5
173
  8
SMALL_FEATURE
 10
170.85733032226562
 20
225.04400634765625
 30
0.0
 11
170.81500244140625
 21
224.4513397216797
 31
0.0
  0
LINE
  5
174
  8
SMALL_FEATURE
 10
170.81500244140625
 20
224.4513397216797
 30
0.0
 11
169.07933044433594
 21
224.28199768066406
 31
0.0
  0
LINE
  5
175
  8
SMALL_FEATURE
 10
169.07933044433594
 20
224.28199768066406
 30
0.0
 11
169.07933044433594
 21
223.39300537109375
 31
0.0
  0
LINE
  5
176
  8
SMALL_FEATURE
 10
169.07933044433594
 20
223.39300537109375
 30
0.0
 11
168.5713348388672
 21
223.43533325195312
 31
0.0
  0
LINE
  5
177
  8
SMALL_FEATURE
 10
168.5713348388672
 20
223.43533325195312
 30
0.0
 11
168.3596649169922
 21
224.28199768066406
 31
0.0
  0
LINE
  5
178
  8
SMALL_FEATURE
 10
168.3596649169922
 20
224.28199768066406
 30
0.0
 11
167.809326171875
 21
224.36666870117188
 31
0.0
  0
LINE
  5
179
  8
SMALL_FEATURE
 10
167.809326171875
 20
224.36666870117188
 30
0.0
 11
167.42832946777344
 21
225.04400634765625
 31
0.0
  0
LINE
  5
17A
  8
SMALL_FEATURE
 10
167.42832946777344
 20
225.04400634765625
 30
0.0
 11
166.9203338623047
 21
225.2133331298828
 31
0.0
  0
LINE
  5
17B
  8
SMALL_FEATURE
 10
166.9203338623047
 20
225.2133331298828
 30
0.0
 11
166.96266174316406
 21
225.59432983398438
 31
0.0
  0
LINE
  5
17C
  8
SMALL_FEATURE
 10
166.96266174316406
 20
225.59432983398438
 30
0.0
 11
167.6823272705078
 21
225.763671875
 31
0.0
  0
LINE
  5
17D
  8
SMALL_FEATURE
 10
167.6823272705078
 20
225.763671875
 30
0.0
 11
167.51300048828125
 21
226.69500732421875
 31
0.0
  0
LINE
  5
17E
  8
SMALL_FEATURE
 10
167.51300048828125
 20
226.69500732421875
 30
0.0
 11
168.1479949951172
 21
226.82200622558594
 31
0.0
  0
LINE
  5
17F
  8
SMALL_FEATURE
 10
168.1479949951172
 20
226.82200622558594
 30
0.0
 11
168.06333923339844
 21
226.35633850097656
 31
0.0
  0
LINE
  5
180
  8
SMALL_FEATURE
 10
168.06333923339844
 20
226.35633850097656
 30
0.0
 11
168.3173370361328
 21
226.22933959960938
 31
0.0
  0
LINE
  5
181
  8
SMALL_FEATURE
 10
168.3173370361328
 20
226.22933959960938
 30
0.0
 11
167.97866821289062
 21
225.0016632080078
 31
0.0
  0
LINE
  5
182
  8
SMALL_FEATURE
 10
167.97866821289062
 20
225.0016632080078
 30
0.0
 11
168.40199279785156
 21
225.84832763671875
 31
0.0
  0
LINE
  5
183
  8
SMALL_FEATURE
 10
168.40199279785156
 20
225.84832763671875
 30
0.0
 11
169.12167358398438
 21
225.50967407226562
 31
0.0
  0
LINE
  5
184
  8
SMALL_FEATURE
 10
169.12167358398438
 20
225.50967407226562
 30
0.0
 11
169.5449981689453
 21
226.01766967773438
 31
0.0
  0
LINE
  5
185
  8
SMALL_FEATURE
 10
169.5449981689453
 20
226.01766967773438
 30
0.0
 11
169.29100036621094
 21
226.39866638183594
 31
0.0
  0
LINE
  5
186
  8
SMALL_FEATURE
 10
169.29100036621094
 20
226.39866638183594
 30
0.0
 11
168.40199279785156
 21
226.05999755859375
 31
0.0
  0
LINE
  5
187
  8
SMALL_FEATURE
 10
168.40199279785156
 20
226.05999755859375
 30
0.0
 11
168.27499389648438
 21
227.0760040283203
 31
0.0
  0
LINE
  5
188
  8
SMALL_FEATURE
 10
168.27499389648438
 20
227.0760040283203
 30
0.0
 11
167.47067260742188
 21
227.0760040283203
 31
0.0
  0
LINE
  5
189
  8
SMALL_FEATURE
 10
167.47067260742188
 20
227.0760040283203
 30
0.0
 11
167.17433166503906
 21
225.97532653808594
 31
0.0
  0
LINE
  5
18A
  8
SMALL_FEATURE
 10
167.17433166503906
 20
225.97532653808594
 30
0.0
 11
166.62399291992188
 21
226.05999755859375
 31
0.0
  0
LINE
  5
18B
  8
SMALL_FEATURE
 10
166.62399291992188
 20
226.05999755859375
 30
0.0
 11
165.98899841308594
 21
225.6366729736328
 31
0.0
  0
LINE
  5
18C
  8
SMALL_FEATURE
 10
165.98899841308594
 20
225.6366729736328
 30
0.0
 11
165.0153350830078
 21
225.552001953125
 31
0.0
  0
LINE
  5
18D
  8
SMALL_FEATURE
 10
165.0153350830078
 20
225.552001953125
 30
0.0
 11
164.33799743652344
 21
225.97532653808594
 31
0.0
  0
LINE
  5
18E
  8
SMALL_FEATURE
 10
170.05299377441406
 20
231.13999938964844
 30
0.0
 11
169.5873260498047
 21
231.13999938964844
 31
0.0
  0
LINE
  5
18F
  8
SMALL_FEATURE
 10
169.5873260498047
 20
231.13999938964844
 30
0.0
 11
169.03700256347656
 21
231.732666015625
 31
0.0
  0
LINE
  5
190
  8
SMALL_FEATURE
 10
169.03700256347656
 20
231.732666015625
 30
0.0
 11
168.656005859375
 21
231.3939971923828
 31
0.0
  0
LINE
  5
191
  8
SMALL_FEATURE
 10
168.656005859375
 20
231.3939971923828
 30
0.0
 11
168.06333923339844
 21
231.56333923339844
 31
0.0
  0
LINE
  5
192
  8
SMALL_FEATURE
 10
168.06333923339844
 20
231.56333923339844
 30
0.0
 11
167.38600158691406
 21
231.309326171875
 31
0.0
  0
LINE
  5
193
  8
SMALL_FEATURE
 10
167.38600158691406
 20
231.309326171875
 30
0.0
 11
167.3436737060547
 21
231.90199279785156
 31
0.0
  0
LINE
  5
194
  8
SMALL_FEATURE
 10
167.3436737060547
 20
231.90199279785156
 30
0.0
 11
168.02099609375
 21
231.9443359375
 31
0.0
  0
LINE
  5
195
  8
SMALL_FEATURE
 10
168.02099609375
 20
231.9443359375
 30
0.0
 11
168.02099609375
 21
232.41000366210938
 31
0.0
  0
LINE
  5
196
  8
SMALL_FEATURE
 10
168.02099609375
 20
232.41000366210938
 30
0.0
 11
167.30133056640625
 21
232.156005859375
 31
0.0
  0
LINE
  5
197
  8
SMALL_FEATURE
 10
167.30133056640625
 20
232.156005859375
 30
0.0
 11
166.7933349609375
 21
231.13999938964844
 31
0.0
  0
LINE
  5
198
  8
SMALL_FEATURE
 10
166.7933349609375
 20
231.13999938964844
 30
0.0
 11
165.77732849121094
 21
231.01300048828125
 31
0.0
  0
LINE
  5
199
  8
SMALL_FEATURE
 10
165.77732849121094
 20
231.01300048828125
 30
0.0
 11
165.4810028076172
 21
231.6479949951172
 31
0.0
  0
LINE
  5
19A
  8
SMALL_FEATURE
 10
165.4810028076172
 20
231.6479949951172
 30
0.0
 11
165.18466186523438
 21
231.6479949951172
 31
0.0
  0
LINE
  5
19B
  8
SMALL_FEATURE
 10
165.18466186523438
 20
231.6479949951172
 30
0.0
 11
165.0576629638672
 21
231.22467041015625
 31
0.0
  0
LINE
  5
19C
  8
SMALL_FEATURE
 10
165.0576629638672
 20
231.22467041015625
 30
0.0
 11
164.33799743652344
 21
230.92832946777344
 31
0.0
  0
LINE
  5
19D
  8
SMALL_FEATURE
 10
164.33799743652344
 20
230.92832946777344
 30
0.0
 11
164.8036651611328
 21
230.67433166503906
 31
0.0
  0
LINE
  5
19E
  8
SMALL_FEATURE
 10
164.8036651611328
 20
230.67433166503906
 30
0.0
 11
166.75100708007812
 21
231.01300048828125
 31
0.0
  0
LINE
  5
19F
  8
SMALL_FEATURE
 10
166.75100708007812
 20
231.01300048828125
 30
0.0
 11
168.1056671142578
 21
230.8436737060547
 31
0.0
  0
LINE
  5
1A0
  8
SMALL_FEATURE
 10
168.1056671142578
 20
230.8436737060547
 30
0.0
 11
168.232666015625
 21
231.1823272705078
 31
0.0
  0
LINE
  5
1A1
  8
SMALL_FEATURE
 10
168.232666015625
 20
231.1823272705078
 30
0.0
 11
168.74066162109375
 21
231.13999938964844
 31
0.0
  0
LINE
  5
1A2
  8
SMALL_FEATURE
 10
168.74066162109375
 20
231.13999938964844
 30
0.0
 11
168.82533264160156
 21
230.4203338623047
 31
0.0
  0
LINE
  5
1A3
  8
SMALL_FEATURE
 10
168.82533264160156
 20
230.4203338623047
 30
0.0
 11
168.40199279785156
 21
230.25100708007812
 31
0.0
  0
LINE
  5
1A4
  8
SMALL_FEATURE
 10
168.40199279785156
 20
230.25100708007812
 30
0.0
 11
169.41799926757812
 21
230.2086639404297
 31
0.0
  0
LINE
  5
1A5
  8
SMALL_FEATURE
 10
169.41799926757812
 20
230.2086639404297
 30
0.0
 11
169.41799926757812
 21
229.78533935546875
 31
0.0
  0
LINE
  5
1A6
  8
SMALL_FEATURE
 10
169.41799926757812
 20
229.78533935546875
 30
0.0
 11
168.91000366210938
 21
229.61599731445312
 31
0.0
  0
LINE
  5
1A7
  8
SMALL_FEATURE
 10
168.91000366210938
 20
229.61599731445312
 30
0.0
 11
168.74066162109375
 21
227.83799743652344
 31
0.0
  0
LINE
  5
1A8
  8
SMALL_FEATURE
 10
168.74066162109375
 20
227.83799743652344
 30
0.0
 11
168.232666015625
 21
227.75332641601562
 31
0.0
  0
LINE
  5
1A9
  8
SMALL_FEATURE
 10
168.232666015625
 20
227.75332641601562
 30
0.0
 11
168.06333923339844
 21
228.3459930419922
 31
0.0
  0
LINE
  5
1AA
  8
SMALL_FEATURE
 10
168.06333923339844
 20
228.3459930419922
 30
0.0
 11
168.02099609375
 21
227.75332641601562
 31
0.0
  0
LINE
  5
1AB
  8
SMALL_FEATURE
 10
168.02099609375
 20
227.75332641601562
 30
0.0
 11
166.28533935546875
 21
227.58399963378906
 31
0.0
  0
LINE
  5
1AC
  8
SMALL_FEATURE
 10
166.28533935546875
 20
227.58399963378906
 30
0.0
 11
166.4969940185547
 21
228.3459930419922
 31
0.0
  0
LINE
  5
1AD
  8
SMALL_FEATURE
 10
166.4969940185547
 20
228.3459930419922
 30
0.0
 11
166.0313262939453
 21
228.4306640625
 31
0.0
  0
LINE
  5
1AE
  8
SMALL_FEATURE
 10
166.0313262939453
 20
228.4306640625
 30
0.0
 11
165.90432739257812
 21
227.58399963378906
 31
0.0
  0
LINE
  5
1AF
  8
SMALL_FEATURE
 10
165.90432739257812
 20
227.58399963378906
 30
0.0
 11
164.42266845703125
 21
227.3300018310547
 31
0.0
  0
LINE
  5
1B0
  8
SMALL_FEATURE
 10
164.42266845703125
 20
227.3300018310547
 30
0.0
 11
163.9146728515625
 21
227.83799743652344
 31
0.0
  0
LINE
  5
1B1
  8
SMALL_FEATURE
 10
163.9146728515625
 20
227.83799743652344
 30
0.0
 11
163.4913330078125
 21
227.45700073242188
 31
0.0
  0
LINE
  5
1B2
  8
SMALL_FEATURE
 10
163.4913330078125
 20
227.45700073242188
 30
0.0
 11
163.95700073242188
 21
227.45700073242188
 31
0.0
  0
LINE
  5
1B3
  8
SMALL_FEATURE
 10
163.95700073242188
 20
227.45700073242188
 30
0.0
 11
164.50733947753906
 21
226.7796630859375
 31
0.0
  0
LINE
  5
1B4
  8
SMALL_FEATURE
 10
164.50733947753906
 20
226.7796630859375
 30
0.0
 11
165.142333984375
 21
226.94900512695312
 31
0.0
  0
LINE
  5
1B5
  8
SMALL_FEATURE
 10
165.142333984375
 20
226.94900512695312
 30
0.0
 11
165.35400390625
 21
226.1023406982422
 31
0.0
  0
LINE
  5
1B6
  8
SMALL_FEATURE
 10
165.35400390625
 20
226.1023406982422
 30
0.0
 11
165.73500061035156
 21
226.31399536132812
 31
0.0
  0
LINE
  5
1B7
  8
SMALL_FEATURE
 10
165.73500061035156
 20
226.31399536132812
 30
0.0
 11
165.2270050048828
 21
226.94900512695312
 31
0.0
  0
LINE
  5
1B8
  8
SMALL_FEATURE
 10
165.2270050048828
 20
226.94900512695312
 30
0.0
 11
165.2693328857422
 21
227.45700073242188
 31
0.0
  0
LINE
  5
1B9
  8
SMALL_FEATURE
 10
165.2693328857422
 20
227.45700073242188
 30
0.0
 11
166.2429962158203
 21
227.2876739501953
 31
0.0
  0
LINE
  5
1BA
  8
SMALL_FEATURE
 10
166.2429962158203
 20
227.2876739501953
 30
0.0
 11
166.3699951171875
 21
226.8643341064453
 31
0.0
  0
LINE
  5
1BB
  8
SMALL_FEATURE
 10
166.3699951171875
 20
226.8643341064453
 30
0.0
 11
166.62399291992188
 21
227.37232971191406
 31
0.0
  0
LINE
  5
1BC
  8
SMALL_FEATURE
 10
166.62399291992188
 20
227.37232971191406
 30
0.0
 11
167.38600158691406
 21
227.58399963378906
 31
0.0
  0
LINE
  5
1BD
  8
SMALL_FEATURE
 10
167.38600158691406
 20
227.58399963378906
 30
0.0
 11
169.8836669921875
 21
227.37232971191406
 31
0.0
  0
LINE
  5
1BE
  8
SMALL_FEATURE
 10
169.8836669921875
 20
227.37232971191406
 30
0.0
 11
170.26466369628906
 21
227.62632751464844
 31
0.0
  0
LINE
  5
1BF
  8
SMALL_FEATURE
 10
170.26466369628906
 20
227.62632751464844
 30
0.0
 11
170.81500244140625
 21
227.37232971191406
 31
0.0
  0
LINE
  5
1C0
  8
SMALL_FEATURE
 10
170.81500244140625
 20
227.37232971191406
 30
0.0
 11
170.81500244140625
 21
228.00733947753906
 31
0.0
  0
LINE
  5
1C1
  8
SMALL_FEATURE
 10
170.81500244140625
 20
228.00733947753906
 30
0.0
 11
170.17999267578125
 21
228.00733947753906
 31
0.0
  0
LINE
  5
1C2
  8
SMALL_FEATURE
 10
170.17999267578125
 20
228.00733947753906
 30
0.0
 11
170.05299377441406
 21
228.4306640625
 31
0.0
  0
LINE
  5
1C3
  8
SMALL_FEATURE
 10
170.05299377441406
 20
228.4306640625
 30
0.0
 11
169.5449981689453
 21
227.75332641601562
 31
0.0
  0
LINE
  5
1C4
  8
SMALL_FEATURE
 10
169.5449981689453
 20
227.75332641601562
 30
0.0
 11
168.95233154296875
 21
227.79566955566406
 31
0.0
  0
LINE
  5
1C5
  8
SMALL_FEATURE
 10
168.95233154296875
 20
227.79566955566406
 30
0.0
 11
169.20632934570312
 21
229.57366943359375
 31
0.0
  0
LINE
  5
1C6
  8
SMALL_FEATURE
 10
169.20632934570312
 20
229.57366943359375
 30
0.0
 11
170.56100463867188
 21
229.23500061035156
 31
0.0
  0
LINE
  5
1C7
  8
SMALL_FEATURE
 10
170.56100463867188
 20
229.23500061035156
 30
0.0
 11
170.56100463867188
 21
229.5313262939453
 31
0.0
  0
LINE
  5
1C8
  8
SMALL_FEATURE
 10
170.56100463867188
 20
229.5313262939453
 30
0.0
 11
169.71434020996094
 21
229.82766723632812
 31
0.0
  0
LINE
  5
1C9
  8
SMALL_FEATURE
 10
169.71434020996094
 20
229.82766723632812
 30
0.0
 11
169.62966918945312
 21
230.2933349609375
 31
0.0
  0
LINE
  5
1CA
  8
SMALL_FEATURE
 10
169.62966918945312
 20
230.2933349609375
 30
0.0
 11
169.12167358398438
 21
230.33566284179688
 31
0.0
  0
LINE
  5
1CB
  8
SMALL_FEATURE
 10
169.12167358398438
 20
230.33566284179688
 30
0.0
 11
169.16400146484375
 21
230.92832946777344
 31
0.0
  0
LINE
  5
1CC
  8
SMALL_FEATURE
 10
169.16400146484375
 20
230.92832946777344
 30
0.0
 11
169.71434020996094
 21
230.8436737060547
 31
0.0
  0
LINE
  5
1CD
  8
SMALL_FEATURE
 10
169.71434020996094
 20
230.8436737060547
 30
0.0
 11
170.05299377441406
 21
231.13999938964844
 31
0.0
  0
LINE
  5
1CE
  8
SMALL_FEATURE
 10
133.77333068847656
 20
217.0853271484375
 30
0.0
 11
134.78933715820312
 21
217.12767028808594
 31
0.0
  0
LINE
  5
1CF
  8
SMALL_FEATURE
 10
134.78933715820312
 20
217.12767028808594
 30
0.0
 11
134.78933715820312
 21
216.11166381835938
 31
0.0
  0
LINE
  5
1D0
  8
SMALL_FEATURE
 10
134.78933715820312
 20
216.11166381835938
 30
0.0
 11
135.46665954589844
 21
215.9846649169922
 31
0.0
  0
LINE
  5
1D1
  8
SMALL_FEATURE
 10
135.46665954589844
 20
215.9846649169922
 30
0.0
 11
135.3820037841797
 21
215.34967041015625
 31
0.0
  0
LINE
  5
1D2
  8
SMALL_FEATURE
 10
135.3820037841797
 20
215.34967041015625
 30
0.0
 11
136.65199279785156
 21
215.01100158691406
 31
0.0
  0
LINE
  5
1D3
  8
SMALL_FEATURE
 10
136.65199279785156
 20
215.01100158691406
 30
0.0
 11
136.6096649169922
 21
214.6300048828125
 31
0.0
  0
LINE
  5
1D4
  8
SMALL_FEATURE
 10
136.6096649169922
 20
214.6300048828125
 30
0.0
 11
135.55133056640625
 21
214.5453338623047
 31
0.0
  0
LINE
  5
1D5
  8
SMALL_FEATURE
 10
135.55133056640625
 20
214.5453338623047
 30
0.0
 11
135.55133056640625
 21
214.3336639404297
 31
0.0
  0
LINE
  5
1D6
  8
SMALL_FEATURE
 10
135.55133056640625
 20
214.3336639404297
 30
0.0
 11
137.49867248535156
 21
214.4183349609375
 31
0.0
  0
LINE
  5
1D7
  8
SMALL_FEATURE
 10
137.49867248535156
 20
214.4183349609375
 30
0.0
 11
137.87966918945312
 21
213.91033935546875
 31
0.0
  0
LINE
  5
1D8
  8
SMALL_FEATURE
 10
137.87966918945312
 20
213.91033935546875
 30
0.0
 11
137.96434020996094
 21
214.67233276367188
 31
0.0
  0
LINE
  5
1D9
  8
SMALL_FEATURE
 10
137.96434020996094
 20
214.67233276367188
 30
0.0
 11
139.572998046875
 21
214.4183349609375
 31
0.0
  0
LINE
  5
1DA
  8
SMALL_FEATURE
 10
139.572998046875
 20
214.4183349609375
 30
0.0
 11
140.50433349609375
 21
215.18032836914062
 31
0.0
  0
LINE
  5
1DB
  8
SMALL_FEATURE
 10
140.50433349609375
 20
215.18032836914062
 30
0.0
 11
139.9116668701172
 21
215.56134033203125
 31
0.0
  0
LINE
  5
1DC
  8
SMALL_FEATURE
 10
139.9116668701172
 20
215.56134033203125
 30
0.0
 11
139.6576690673828
 21
215.22267150878906
 31
0.0
  0
LINE
  5
1DD
  8
SMALL_FEATURE
 10
139.6576690673828
 20
215.22267150878906
 30
0.0
 11
138.17599487304688
 21
215.22267150878906
 31
0.0
  0
LINE
  5
1DE
  8
SMALL_FEATURE
 10
138.17599487304688
 20
215.22267150878906
 30
0.0
 11
137.7103271484375
 21
215.89999389648438
 31
0.0
  0
LINE
  5
1DF
  8
SMALL_FEATURE
 10
137.7103271484375
 20
215.89999389648438
 30
0.0
 11
137.49867248535156
 21
215.434326171875
 31
0.0
  0
LINE
  5
1E0
  8
SMALL_FEATURE
 10
137.49867248535156
 20
215.434326171875
 30
0.0
 11
137.9219970703125
 21
215.18032836914062
 31
0.0
  0
LINE
  5
1E1
  8
SMALL_FEATURE
 10
137.9219970703125
 20
215.18032836914062
 30
0.0
 11
137.87966918945312
 21
214.79933166503906
 31
0.0
  0
LINE
  5
1E2
  8
SMALL_FEATURE
 10
137.87966918945312
 20
214.79933166503906
 30
0.0
 11
136.906005859375
 21
214.79933166503906
 31
0.0
  0
LINE
  5
1E3
  8
SMALL_FEATURE
 10
136.906005859375
 20
214.79933166503906
 30
0.0
 11
136.7790069580078
 21
215.22267150878906
 31
0.0
  0
LINE
  5
1E4
  8
SMALL_FEATURE
 10
136.7790069580078
 20
215.22267150878906
 30
0.0
 11
135.97467041015625
 21
215.39199829101562
 31
0.0
  0
LINE
  5
1E5
  8
SMALL_FEATURE
 10
135.97467041015625
 20
215.39199829101562
 30
0.0
 11
136.01699829101562
 21
216.1963348388672
 31
0.0
  0
LINE
  5
1E6
  8
SMALL_FEATURE
 10
136.01699829101562
 20
216.1963348388672
 30
0.0
 11
138.2183380126953
 21
216.36566162109375
 31
0.0
  0
LINE
  5
1E7
  8
SMALL_FEATURE
 10
138.2183380126953
 20
216.36566162109375
 30
0.0
 11
138.4723358154297
 21
215.7729949951172
 31
0.0
  0
LINE
  5
1E8
  8
SMALL_FEATURE
 10
138.4723358154297
 20
215.7729949951172
 30
0.0
 11
138.6840057373047
 21
216.53500366210938
 31
0.0
  0
LINE
  5
1E9
  8
SMALL_FEATURE
 10
138.6840057373047
 20
216.53500366210938
 30
0.0
 11
139.6576690673828
 21
216.61965942382812
 31
0.0
  0
LINE
  5
1EA
  8
SMALL_FEATURE
 10
139.6576690673828
 20
216.61965942382812
 30
0.0
 11
139.996337890625
 21
216.9583282470703
 31
0.0
  0
LINE
  5
1EB
  8
SMALL_FEATURE
 10
139.996337890625
 20
216.9583282470703
 30
0.0
 11
139.19200134277344
 21
217.33934020996094
 31
0.0
  0
LINE
  5
1EC
  8
SMALL_FEATURE
 10
139.19200134277344
 20
217.33934020996094
 30
0.0
 11
139.14967346191406
 21
216.74667358398438
 31
0.0
  0
LINE
  5
1ED
  8
SMALL_FEATURE
 10
139.14967346191406
 20
216.74667358398438
 30
0.0
 11
137.96434020996094
 21
216.49266052246094
 31
0.0
  0
LINE
  5
1EE
  8
SMALL_FEATURE
 10
137.96434020996094
 20
216.49266052246094
 30
0.0
 11
137.62567138671875
 21
216.70433044433594
 31
0.0
  0
LINE
  5
1EF
  8
SMALL_FEATURE
 10
137.62567138671875
 20
216.70433044433594
 30
0.0
 11
137.62567138671875
 21
217.25466918945312
 31
0.0
  0
LINE
  5
1F0
  8
SMALL_FEATURE
 10
137.62567138671875
 20
217.25466918945312
 30
0.0
 11
136.906005859375
 21
217.33934020996094
 31
0.0
  0
LINE
  5
1F1
  8
SMALL_FEATURE
 10
136.906005859375
 20
217.33934020996094
 30
0.0
 11
137.28700256347656
 21
216.49266052246094
 31
0.0
  0
LINE
  5
1F2
  8
SMALL_FEATURE
 10
137.28700256347656
 20
216.49266052246094
 30
0.0
 11
135.08566284179688
 21
216.281005859375
 31
0.0
  0
LINE
  5
1F3
  8
SMALL_FEATURE
 10
135.08566284179688
 20
216.281005859375
 30
0.0
 11
135.08566284179688
 21
216.83132934570312
 31
0.0
  0
LINE
  5
1F4
  8
SMALL_FEATURE
 10
135.08566284179688
 20
216.83132934570312
 30
0.0
 11
135.84767150878906
 21
217.0853271484375
 31
0.0
  0
LINE
  5
1F5
  8
SMALL_FEATURE
 10
135.84767150878906
 20
217.0853271484375
 30
0.0
 11
135.1280059814453
 21
217.0853271484375
 31
0.0
  0
LINE
  5
1F6
  8
SMALL_FEATURE
 10
135.1280059814453
 20
217.0853271484375
 30
0.0
 11
135.0433349609375
 21
217.88966369628906
 31
0.0
  0
LINE
  5
1F7
  8
SMALL_FEATURE
 10
135.0433349609375
 20
217.88966369628906
 30
0.0
 11
136.10166931152344
 21
217.97433471679688
 31
0.0
  0
LINE
  5
1F8
  8
SMALL_FEATURE
 10
136.10166931152344
 20
217.97433471679688
 30
0.0
 11
136.44033813476562
 21
217.6356658935547
 31
0.0
  0
LINE
  5
1F9
  8
SMALL_FEATURE
 10
136.44033813476562
 20
217.6356658935547
 30
0.0
 11
137.28700256347656
 21
218.27066040039062
 31
0.0
  0
LINE
  5
1FA
  8
SMALL_FEATURE
 10
137.28700256347656
 20
218.27066040039062
 30
0.0
 11
135.80532836914062
 21
218.18600463867188
 31
0.0
  0
LINE
  5
1FB
  8
SMALL_FEATURE
 10
135.80532836914062
 20
218.18600463867188
 30
0.0
 11
135.46665954589844
 21
218.6093292236328
 31
0.0
  0
LINE
  5
1FC
  8
SMALL_FEATURE
 10
135.46665954589844
 20
218.6093292236328
 30
0.0
 11
135.33966064453125
 21
218.10133361816406
 31
0.0
  0
LINE
  5
1FD
  8
SMALL_FEATURE
 10
135.33966064453125
 20
218.10133361816406
 30
0.0
 11
134.19667053222656
 21
217.8473358154297
 31
0.0
  0
LINE
  5
1FE
  8
SMALL_FEATURE
 10
134.19667053222656
 20
217.8473358154297
 30
0.0
 11
134.87399291992188
 21
217.5933380126953
 31
0.0
  0
LINE
  5
1FF
  8
SMALL_FEATURE
 10
134.87399291992188
 20
217.5933380126953
 30
0.0
 11
134.78933715820312
 21
217.1699981689453
 31
0.0
  0
LINE
  5
200
  8
SMALL_FEATURE
 10
134.78933715820312
 20
217.1699981689453
 30
0.0
 11
134.11199951171875
 21
217.33934020996094
 31
0.0
  0
LINE
  5
201
  8
SMALL_FEATURE
 10
134.11199951171875
 20
217.33934020996094
 30
0.0
 11
133.77333068847656
 21
217.0853271484375
 31
0.0
  0
LINE
  5
202
  8
SMALL_FEATURE
 10
148.7169952392578
 20
240.70733642578125
 30
0.0
 11
148.25132751464844
 21
240.79200744628906
 31
0.0
  0
LINE
  5
203
  8
SMALL_FEATURE
 10
148.25132751464844
 20
240.79200744628906
 30
0.0
 11
148.20899963378906
 21
241.3000030517578
 31
0.0
  0
LINE
  5
204
  8
SMALL_FEATURE
 10
148.20899963378906
 20
241.3000030517578
 30
0.0
 11
147.78565979003906
 21
241.46932983398438
 31
0.0
  0
LINE
  5
205
  8
SMALL_FEATURE
 10
147.78565979003906
 20
241.46932983398438
 30
0.0
 11
146.98133850097656
 21
241.21533203125
 31
0.0
  0
LINE
  5
206
  8
SMALL_FEATURE
 10
146.98133850097656
 20
241.21533203125
 30
0.0
 11
146.68499755859375
 21
241.5116729736328
 31
0.0
  0
LINE
  5
207
  8
SMALL_FEATURE
 10
146.68499755859375
 20
241.5116729736328
 30
0.0
 11
146.93899536132812
 21
242.14666748046875
 31
0.0
  0
LINE
  5
208
  8
SMALL_FEATURE
 10
146.93899536132812
 20
242.14666748046875
 30
0.0
 11
146.60032653808594
 21
241.638671875
 31
0.0
  0
LINE
  5
209
  8
SMALL_FEATURE
 10
146.60032653808594
 20
241.638671875
 30
0.0
 11
145.79600524902344
 21
241.38467407226562
 31
0.0
  0
LINE
  5
20A
  8
SMALL_FEATURE
 10
145.79600524902344
 20
241.38467407226562
 30
0.0
 11
145.66900634765625
 21
240.96133422851562
 31
0.0
  0
LINE
  5
20B
  8
SMALL_FEATURE
 10
145.66900634765625
 20
240.96133422851562
 30
0.0
 11
144.8646697998047
 21
240.70733642578125
 31
0.0
  0
LINE
  5
20C
  8
SMALL_FEATURE
 10
144.8646697998047
 20
240.70733642578125
 30
0.0
 11
144.3143310546875
 21
240.8766632080078
 31
0.0
  0
LINE
  5
20D
  8
SMALL_FEATURE
 10
144.3143310546875
 20
240.8766632080078
 30
0.0
 11
144.35667419433594
 21
241.25765991210938
 31
0.0
  0
LINE
  5
20E
  8
SMALL_FEATURE
 10
144.35667419433594
 20
241.25765991210938
 30
0.0
 11
144.82232666015625
 21
241.3423309326172
 31
0.0
  0
LINE
  5
20F
  8
SMALL_FEATURE
 10
144.82232666015625
 20
241.3423309326172
 30
0.0
 11
144.7376708984375
 21
241.638671875
 31
0.0
  0
LINE
  5
210
  8
SMALL_FEATURE
 10
144.7376708984375
 20
241.638671875
 30
0.0
 11
144.14500427246094
 21
241.38467407226562
 31
0.0
  0
LINE
  5
211
  8
SMALL_FEATURE
 10
144.14500427246094
 20
241.38467407226562
 30
0.0
 11
143.34066772460938
 21
241.5540008544922
 31
0.0
  0
LINE
  5
212
  8
SMALL_FEATURE
 10
143.34066772460938
 20
241.5540008544922
 30
0.0
 11
144.1026611328125
 21
241.1306610107422
 31
0.0
  0
LINE
  5
213
  8
SMALL_FEATURE
 10
144.1026611328125
 20
241.1306610107422
 30
0.0
 11
144.1026611328125
 21
240.74966430664062
 31
0.0
  0
LINE
  5
214
  8
SMALL_FEATURE
 10
144.1026611328125
 20
240.74966430664062
 30
0.0
 11
143.0019989013672
 21
240.58033752441406
 31
0.0
  0
LINE
  5
215
  8
SMALL_FEATURE
 10
143.0019989013672
 20
240.58033752441406
 30
0.0
 11
144.7376708984375
 21
240.58033752441406
 31
0.0
  0
LINE
  5
216
  8
SMALL_FEATURE
 10
144.7376708984375
 20
240.58033752441406
 30
0.0
 11
144.82232666015625
 21
239.01400756835938
 31
0.0
  0
LINE
  5
217
  8
SMALL_FEATURE
 10
144.82232666015625
 20
239.01400756835938
 30
0.0
 11
143.34066772460938
 21
239.01400756835938
 31
0.0
  0
LINE
  5
218
  8
SMALL_FEATURE
 10
143.34066772460938
 20
239.01400756835938
 30
0.0
 11
143.1713409423828
 21
239.6490020751953
 31
0.0
  0
LINE
  5
219
  8
SMALL_FEATURE
 10
143.1713409423828
 20
239.6490020751953
 30
0.0
 11
142.45166015625
 21
239.9029998779297
 31
0.0
  0
LINE
  5
21A
  8
SMALL_FEATURE
 10
142.45166015625
 20
239.9029998779297
 30
0.0
 11
142.5363311767578
 21
240.53799438476562
 31
0.0
  0
LINE
  5
21B
  8
SMALL_FEATURE
 10
142.5363311767578
 20
240.53799438476562
 30
0.0
 11
141.6473388671875
 21
240.45333862304688
 31
0.0
  0
LINE
  5
21C
  8
SMALL_FEATURE
 10
141.6473388671875
 20
240.45333862304688
 30
0.0
 11
141.5203399658203
 21
240.96133422851562
 31
0.0
  0
LINE
  5
21D
  8
SMALL_FEATURE
 10
141.5203399658203
 20
240.96133422851562
 30
0.0
 11
141.2239990234375
 21
240.58033752441406
 31
0.0
  0
LINE
  5
21E
  8
SMALL_FEATURE
 10
141.2239990234375
 20
240.58033752441406
 30
0.0
 11
143.0019989013672
 21
239.3526611328125
 31
0.0
  0
LINE
  5
21F
  8
SMALL_FEATURE
 10
143.0019989013672
 20
239.3526611328125
 30
0.0
 11
143.0019989013672
 21
238.75999450683594
 31
0.0
  0
LINE
  5
220
  8
SMALL_FEATURE
 10
143.0019989013672
 20
238.75999450683594
 30
0.0
 11
141.81666564941406
 21
239.01400756835938
 31
0.0
  0
LINE
  5
221
  8
SMALL_FEATURE
 10
141.81666564941406
 20
239.01400756835938
 30
0.0
 11
142.15533447265625
 21
238.54833984375
 31
0.0
  0
LINE
  5
222
  8
SMALL_FEATURE
 10
142.15533447265625
 20
238.54833984375
 30
0.0
 11
143.9756622314453
 21
238.71766662597656
 31
0.0
  0
LINE
  5
223
  8
SMALL_FEATURE
 10
143.9756622314453
 20
238.71766662597656
 30
0.0
 11
144.3143310546875
 21
238.125
 31
0.0
  0
LINE
  5
224
  8
SMALL_FEATURE
 10
144.3143310546875
 20
238.125
 30
0.0
 11
144.3143310546875
 21
238.75999450683594
 31
0.0
  0
LINE
  5
225
  8
SMALL_FEATURE
 10
144.3143310546875
 20
238.75999450683594
 30
0.0
 11
145.0763397216797
 21
238.88699340820312
 31
0.0
  0
LINE
  5
226
  8
SMALL_FEATURE
 10
145.0763397216797
 20
238.88699340820312
 30
0.0
 11
145.20333862304688
 21
239.39500427246094
 31
0.0
  0
LINE
  5
227
  8
SMALL_FEATURE
 10
145.20333862304688
 20
239.39500427246094
 30
0.0
 11
145.79600524902344
 21
239.26800537109375
 31
0.0
  0
LINE
  5
228
  8
SMALL_FEATURE
 10
145.79600524902344
 20
239.26800537109375
 30
0.0
 11
146.00765991210938
 21
238.54833984375
 31
0.0
  0
LINE
  5
229
  8
SMALL_FEATURE
 10
146.00765991210938
 20
238.54833984375
 30
0.0
 11
147.9550018310547
 21
239.9876708984375
 31
0.0
  0
LINE
  5
22A
  8
SMALL_FEATURE
 10
147.9550018310547
 20
239.9876708984375
 30
0.0
 11
147.65866088867188
 21
240.1993408203125
 31
0.0
  0
LINE
  5
22B
  8
SMALL_FEATURE
 10
147.65866088867188
 20
240.1993408203125
 30
0.0
 11
147.0659942626953
 21
239.94532775878906
 31
0.0
  0
LINE
  5
22C
  8
SMALL_FEATURE
 10
147.0659942626953
 20
239.94532775878906
 30
0.0
 11
146.68499755859375
 21
239.26800537109375
 31
0.0
  0
LINE
  5
22D
  8
SMALL_FEATURE
 10
146.68499755859375
 20
239.26800537109375
 30
0.0
 11
145.96533203125
 21
239.26800537109375
 31
0.0
  0
LINE
  5
22E
  8
SMALL_FEATURE
 10
145.96533203125
 20
239.26800537109375
 30
0.0
 11
145.92300415039062
 21
240.1146697998047
 31
0.0
  0
LINE
  5
22F
  8
SMALL_FEATURE
 10
145.92300415039062
 20
240.1146697998047
 30
0.0
 11
145.66900634765625
 21
239.60667419433594
 31
0.0
  0
LINE
  5
230
  8
SMALL_FEATURE
 10
145.66900634765625
 20
239.60667419433594
 30
0.0
 11
145.0763397216797
 21
239.73367309570312
 31
0.0
  0
LINE
  5
231
  8
SMALL_FEATURE
 10
145.0763397216797
 20
239.73367309570312
 30
0.0
 11
145.16099548339844
 21
240.6649932861328
 31
0.0
  0
LINE
  5
232
  8
SMALL_FEATURE
 10
145.16099548339844
 20
240.6649932861328
 30
0.0
 11
146.5156707763672
 21
240.83433532714844
 31
0.0
  0
LINE
  5
233
  8
SMALL_FEATURE
 10
146.5156707763672
 20
240.83433532714844
 30
0.0
 11
146.60032653808594
 21
241.25765991210938
 31
0.0
  0
LINE
  5
234
  8
SMALL_FEATURE
 10
146.60032653808594
 20
241.25765991210938
 30
0.0
 11
146.98133850097656
 21
241.21533203125
 31
0.0
  0
LINE
  5
235
  8
SMALL_FEATURE
 10
146.98133850097656
 20
241.21533203125
 30
0.0
 11
146.7273406982422
 21
240.58033752441406
 31
0.0
  0
LINE
  5
236
  8
SMALL_FEATURE
 10
146.7273406982422
 20
240.58033752441406
 30
0.0
 11
147.23533630371094
 21
241.003662109375
 31
0.0
  0
LINE
  5
237
  8
SMALL_FEATURE
 10
147.23533630371094
 20
241.003662109375
 30
0.0
 11
147.7010040283203
 21
241.003662109375
 31
0.0
  0
LINE
  5
238
  8
SMALL_FEATURE
 10
147.7010040283203
 20
241.003662109375
 30
0.0
 11
147.8280029296875
 21
240.58033752441406
 31
0.0
  0
LINE
  5
239
  8
SMALL_FEATURE
 10
147.8280029296875
 20
240.58033752441406
 30
0.0
 11
148.7169952392578
 21
240.70733642578125
 31
0.0
  0
LINE
  5
23A
  8
SMALL_FEATURE
 10
138.0489959716797
 20
232.57933044433594
 30
0.0
 11
137.20233154296875
 21
232.79100036621094
 31
0.0
  0
LINE
  5
23B
  8
SMALL_FEATURE
 10
137.20233154296875
 20
232.79100036621094
 30
0.0
 11
137.28700256347656
 21
233.76466369628906
 31
0.0
  0
LINE
  5
23C
  8
SMALL_FEATURE
 10
137.28700256347656
 20
233.76466369628906
 30
0.0
 11
137.07533264160156
 21
233.84933471679688
 31
0.0
  0
LINE
  5
23D
  8
SMALL_FEATURE
 10
137.07533264160156
 20
233.84933471679688
 30
0.0
 11
136.86366271972656
 21
232.8333282470703
 31
0.0
  0
LINE
  5
23E
  8
SMALL_FEATURE
 10
136.86366271972656
 20
232.8333282470703
 30
0.0
 11
135.88999938964844
 21
233.34133911132812
 31
0.0
  0
LINE
  5
23F
  8
SMALL_FEATURE
 10
135.88999938964844
 20
233.34133911132812
 30
0.0
 11
136.18634033203125
 21
232.57933044433594
 31
0.0
  0
LINE
  5
240
  8
SMALL_FEATURE
 10
136.18634033203125
 20
232.57933044433594
 30
0.0
 11
134.7046661376953
 21
232.41000366210938
 31
0.0
  0
LINE
  5
241
  8
SMALL_FEATURE
 10
134.7046661376953
 20
232.41000366210938
 30
0.0
 11
134.11199951171875
 21
232.91799926757812
 31
0.0
  0
LINE
  5
242
  8
SMALL_FEATURE
 10
134.11199951171875
 20
232.91799926757812
 30
0.0
 11
133.77333068847656
 21
232.74867248535156
 31
0.0
  0
LINE
  5
243
  8
SMALL_FEATURE
 10
133.77333068847656
 20
232.74867248535156
 30
0.0
 11
133.68865966796875
 21
232.156005859375
 31
0.0
  0
LINE
  5
244
  8
SMALL_FEATURE
 10
133.68865966796875
 20
232.156005859375
 30
0.0
 11
132.75733947753906
 21
232.0290069580078
 31
0.0
  0
LINE
  5
245
  8
SMALL_FEATURE
 10
132.75733947753906
 20
232.0290069580078
 30
0.0
 11
133.4770050048828
 21
231.69033813476562
 31
0.0
  0
LINE
  5
246
  8
SMALL_FEATURE
 10
133.4770050048828
 20
231.69033813476562
 30
0.0
 11
134.02732849121094
 21
232.36766052246094
 31
0.0
  0
LINE
  5
247
  8
SMALL_FEATURE
 10
134.02732849121094
 20
232.36766052246094
 30
0.0
 11
134.40834045410156
 21
232.36766052246094
 31
0.0
  0
LINE
  5
248
  8
SMALL_FEATURE
 10
134.40834045410156
 20
232.36766052246094
 30
0.0
 11
134.53533935546875
 21
231.8596649169922
 31
0.0
  0
LINE
  5
249
  8
SMALL_FEATURE
 10
134.53533935546875
 20
231.8596649169922
 30
0.0
 11
135.1280059814453
 21
231.69033813476562
 31
0.0
  0
LINE
  5
24A
  8
SMALL_FEATURE
 10
135.1280059814453
 20
231.69033813476562
 30
0.0
 11
135.1280059814453
 21
231.26699829101562
 31
0.0
  0
LINE
  5
24B
  8
SMALL_FEATURE
 10
135.1280059814453
 20
231.26699829101562
 30
0.0
 11
134.19667053222656
 21
231.09767150878906
 31
0.0
  0
LINE
  5
24C
  8
SMALL_FEATURE
 10
134.19667053222656
 20
231.09767150878906
 30
0.0
 11
134.8316650390625
 21
231.01300048828125
 31
0.0
  0
LINE
  5
24D
  8
SMALL_FEATURE
 10
134.8316650390625
 20
231.01300048828125
 30
0.0
 11
135.21266174316406
 21
230.33566284179688
 31
0.0
  0
LINE
  5
24E
  8
SMALL_FEATURE
 10
135.21266174316406
 20
230.33566284179688
 30
0.0
 11
135.9323272705078
 21
230.5050048828125
 31
0.0
  0
LINE
  5
24F
  8
SMALL_FEATURE
 10
135.9323272705078
 20
230.5050048828125
 30
0.0
 11
136.27099609375
 21
229.7429962158203
 31
0.0
  0
LINE
  5
250
  8
SMALL_FEATURE
 10
136.27099609375
 20
229.7429962158203
 30
0.0
 11
137.0330047607422
 21
229.9546661376953
 31
0.0
  0
LINE
  5
251
  8
SMALL_FEATURE
 10
137.0330047607422
 20
229.9546661376953
 30
0.0
 11
136.27099609375
 21
230.1663360595703
 31
0.0
  0
LINE
  5
252
  8
SMALL_FEATURE
 10
136.27099609375
 20
230.1663360595703
 30
0.0
 11
136.52499389648438
 21
230.67433166503906
 31
0.0
  0
LINE
  5
253
  8
SMALL_FEATURE
 10
136.52499389648438
 20
230.67433166503906
 30
0.0
 11
136.27099609375
 21
231.309326171875
 31
0.0
  0
LINE
  5
254
  8
SMALL_FEATURE
 10
136.27099609375
 20
231.309326171875
 30
0.0
 11
135.88999938964844
 21
230.71665954589844
 31
0.0
  0
LINE
  5
255
  8
SMALL_FEATURE
 10
135.88999938964844
 20
230.71665954589844
 30
0.0
 11
135.1703338623047
 21
230.67433166503906
 31
0.0
  0
LINE
  5
256
  8
SMALL_FEATURE
 10
135.1703338623047
 20
230.67433166503906
 30
0.0
 11
135.1703338623047
 21
231.05532836914062
 31
0.0
  0
LINE
  5
257
  8
SMALL_FEATURE
 10
135.1703338623047
 20
231.05532836914062
 30
0.0
 11
135.5936737060547
 21
231.1823272705078
 31
0.0
  0
LINE
  5
258
  8
SMALL_FEATURE
 10
135.5936737060547
 20
231.1823272705078
 30
0.0
 11
135.33966064453125
 21
231.8173370361328
 31
0.0
  0
LINE
  5
259
  8
SMALL_FEATURE
 10
135.33966064453125
 20
231.8173370361328
 30
0.0
 11
135.84767150878906
 21
232.36766052246094
 31
0.0
  0
LINE
  5
25A
  8
SMALL_FEATURE
 10
135.84767150878906
 20
232.36766052246094
 30
0.0
 11
137.7103271484375
 21
232.53700256347656
 31
0.0
  0
LINE
  5
25B
  8
SMALL_FEATURE
 10
137.7103271484375
 20
232.53700256347656
 30
0.0
 11
137.7103271484375
 21
232.0713348388672
 31
0.0
  0
LINE
  5
25C
  8
SMALL_FEATURE
 10
137.7103271484375
 20
232.0713348388672
 30
0.0
 11
136.906005859375
 21
231.90199279785156
 31
0.0
  0
LINE
  5
25D
  8
SMALL_FEATURE
 10
136.906005859375
 20
231.90199279785156
 30
0.0
 11
137.54100036621094
 21
231.69033813476562
 31
0.0
  0
LINE
  5
25E
  8
SMALL_FEATURE
 10
137.54100036621094
 20
231.69033813476562
 30
0.0
 11
138.0489959716797
 21
232.57933044433594
 31
0.0
  0
LINE
  5
25F
  8
SMALL_FEATURE
 10
165.86199951171875
 20
233.42599487304688
 30
0.0
 11
166.0313262939453
 21
232.19833374023438
 31
0.0
  0
LINE
  5
260
  8
SMALL_FEATURE
 10
166.0313262939453
 20
232.19833374023438
 30
0.0
 11
167.25900268554688
 21
232.9603271484375
 31
0.0
  0
LINE
  5
261
  8
SMALL_FEATURE
 10
167.25900268554688
 20
232.9603271484375
 30
0.0
 11
168.61366271972656
 21
233.0449981689453
 31
0.0
  0
LINE
  5
262
  8
SMALL_FEATURE
 10
168.61366271972656
 20
233.0449981689453
 30
0.0
 11
168.99465942382812
 21
232.62167358398438
 31
0.0
  0
LINE
  5
263
  8
SMALL_FEATURE
 10
168.99465942382812
 20
232.62167358398438
 30
0.0
 11
169.7566680908203
 21
232.49465942382812
 31
0.0
  0
LINE
  5
264
  8
SMALL_FEATURE
 10
169.7566680908203
 20
232.49465942382812
 30
0.0
 11
170.17999267578125
 21
231.43634033203125
 31
0.0
  0
LINE
  5
265
  8
SMALL_FEATURE
 10
170.17999267578125
 20
231.43634033203125
 30
0.0
 11
171.322998046875
 21
231.1823272705078
 31
0.0
  0
LINE
  5
266
  8
SMALL_FEATURE
 10
171.322998046875
 20
231.1823272705078
 30
0.0
 11
171.6193389892578
 21
230.67433166503906
 31
0.0
  0
LINE
  5
267
  8
SMALL_FEATURE
 10
171.6193389892578
 20
230.67433166503906
 30
0.0
 11
171.91566467285156
 21
230.92832946777344
 31
0.0
  0
LINE
  5
268
  8
SMALL_FEATURE
 10
171.91566467285156
 20
230.92832946777344
 30
0.0
 11
171.322998046875
 21
231.26699829101562
 31
0.0
  0
LINE
  5
269
  8
SMALL_FEATURE
 10
171.322998046875
 20
231.26699829101562
 30
0.0
 11
171.322998046875
 21
231.8173370361328
 31
0.0
  0
LINE
  5
26A
  8
SMALL_FEATURE
 10
171.322998046875
 20
231.8173370361328
 30
0.0
 11
170.4340057373047
 21
231.732666015625
 31
0.0
  0
LINE
  5
26B
  8
SMALL_FEATURE
 10
170.4340057373047
 20
231.732666015625
 30
0.0
 11
169.7989959716797
 21
232.45233154296875
 31
0.0
  0
LINE
  5
26C
  8
SMALL_FEATURE
 10
169.7989959716797
 20
232.45233154296875
 30
0.0
 11
169.71434020996094
 21
233.12966918945312
 31
0.0
  0
LINE
  5
26D
  8
SMALL_FEATURE
 10
169.71434020996094
 20
233.12966918945312
 30
0.0
 11
170.13766479492188
 21
233.2989959716797
 31
0.0
  0
LINE
  5
26E
  8
SMALL_FEATURE
 10
170.13766479492188
 20
233.2989959716797
 30
0.0
 11
171.322998046875
 21
232.62167358398438
 31
0.0
  0
LINE
  5
26F
  8
SMALL_FEATURE
 10
171.322998046875
 20
232.62167358398438
 30
0.0
 11
170.64566040039062
 21
233.5106658935547
 31
0.0
  0
LINE
  5
270
  8
SMALL_FEATURE
 10
170.64566040039062
 20
233.5106658935547
 30
0.0
 11
170.0106658935547
 21
233.42599487304688
 31
0.0
  0
LINE
  5
271
  8
SMALL_FEATURE
 10
170.0106658935547
 20
233.42599487304688
 30
0.0
 11
169.50267028808594
 21
233.84933471679688
 31
0.0
  0
LINE
  5
272
  8
SMALL_FEATURE
 10
169.50267028808594
 20
233.84933471679688
 30
0.0
 11
169.4603271484375
 21
232.8333282470703
 31
0.0
  0
LINE
  5
273
  8
SMALL_FEATURE
 10
169.4603271484375
 20
232.8333282470703
 30
0.0
 11
169.03700256347656
 21
232.87567138671875
 31
0.0
  0
LINE
  5
274
  8
SMALL_FEATURE
 10
169.03700256347656
 20
232.87567138671875
 30
0.0
 11
168.86766052246094
 21
233.5106658935547
 31
0.0
  0
LINE
  5
275
  8
SMALL_FEATURE
 10
168.86766052246094
 20
233.5106658935547
 30
0.0
 11
168.5713348388672
 21
233.1719970703125
 31
0.0
  0
LINE
  5
276
  8
SMALL_FEATURE
 10
168.5713348388672
 20
233.1719970703125
 30
0.0
 11
168.1056671142578
 21
233.21434020996094
 31
0.0
  0
LINE
  5
277
  8
SMALL_FEATURE
 10
168.1056671142578
 20
233.21434020996094
 30
0.0
 11
168.3596649169922
 21
234.2726593017578
 31
0.0
  0
LINE
  5
278
  8
SMALL_FEATURE
 10
168.3596649169922
 20
234.2726593017578
 30
0.0
 11
169.03700256347656
 21
234.31500244140625
 31
0.0
  0
LINE
  5
279
  8
SMALL_FEATURE
 10
169.03700256347656
 20
234.31500244140625
 30
0.0
 11
168.40199279785156
 21
234.52667236328125
 31
0.0
  0
LINE
  5
27A
  8
SMALL_FEATURE
 10
168.40199279785156
 20
234.52667236328125
 30
0.0
 11
168.19033813476562
 21
234.9499969482422
 31
0.0
  0
LINE
  5
27B
  8
SMALL_FEATURE
 10
168.19033813476562
 20
234.9499969482422
 30
0.0
 11
167.04733276367188
 21
234.86532592773438
 31
0.0
  0
LINE
  5
27C
  8
SMALL_FEATURE
 10
167.04733276367188
 20
234.86532592773438
 30
0.0
 11
166.8780059814453
 21
234.35733032226562
 31
0.0
  0
LINE
  5
27D
  8
SMALL_FEATURE
 10
166.8780059814453
 20
234.35733032226562
 30
0.0
 11
168.06333923339844
 21
234.6959991455078
 31
0.0
  0
LINE
  5
27E
  8
SMALL_FEATURE
 10
168.06333923339844
 20
234.6959991455078
 30
0.0
 11
167.97866821289062
 21
233.7223358154297
 31
0.0
  0
LINE
  5
27F
  8
SMALL_FEATURE
 10
167.97866821289062
 20
233.7223358154297
 30
0.0
 11
167.21665954589844
 21
233.76466369628906
 31
0.0
  0
LINE
  5
280
  8
SMALL_FEATURE
 10
167.21665954589844
 20
233.76466369628906
 30
0.0
 11
167.809326171875
 21
233.5953369140625
 31
0.0
  0
LINE
  5
281
  8
SMALL_FEATURE
 10
167.809326171875
 20
233.5953369140625
 30
0.0
 11
167.85166931152344
 21
233.0873260498047
 31
0.0
  0
LINE
  5
282
  8
SMALL_FEATURE
 10
167.85166931152344
 20
233.0873260498047
 30
0.0
 11
166.28533935546875
 21
233.00267028808594
 31
0.0
  0
LINE
  5
283
  8
SMALL_FEATURE
 10
166.28533935546875
 20
233.00267028808594
 30
0.0
 11
166.2429962158203
 21
233.76466369628906
 31
0.0
  0
LINE
  5
284
  8
SMALL_FEATURE
 10
166.2429962158203
 20
233.76466369628906
 30
0.0
 11
165.86199951171875
 21
233.42599487304688
 31
0.0
  0
LINE
  5
285
  8
SMALL_FEATURE
 10
132.1646728515625
 20
237.74400329589844
 30
0.0
 11
132.71499633789062
 21
237.61700439453125
 31
0.0
  0
LINE
  5
286
  8
SMALL_FEATURE
 10
132.71499633789062
 20
237.61700439453125
 30
0.0
 11
133.1806640625
 21
237.0243377685547
 31
0.0
  0
LINE
  5
287
  8
SMALL_FEATURE
 10
133.1806640625
 20
237.0243377685547
 30
0.0
 11
133.90032958984375
 21
237.10899353027344
 31
0.0
  0
LINE
  5
288
  8
SMALL_FEATURE
 10
133.90032958984375
 20
237.10899353027344
 30
0.0
 11
134.11199951171875
 21
237.70166015625
 31
0.0
  0
LINE
  5
289
  8
SMALL_FEATURE
 10
134.11199951171875
 20
237.70166015625
 30
0.0
 11
134.57766723632812
 21
237.70166015625
 31
0.0
  0
LINE
  5
28A
  8
SMALL_FEATURE
 10
134.57766723632812
 20
237.70166015625
 30
0.0
 11
134.36599731445312
 21
237.10899353027344
 31
0.0
  0
LINE
  5
28B
  8
SMALL_FEATURE
 10
134.36599731445312
 20
237.10899353027344
 30
0.0
 11
135.08566284179688
 21
237.0243377685547
 31
0.0
  0
LINE
  5
28C
  8
SMALL_FEATURE
 10
135.08566284179688
 20
237.0243377685547
 30
0.0
 11
135.2550048828125
 21
237.70166015625
 31
0.0
  0
LINE
  5
28D
  8
SMALL_FEATURE
 10
135.2550048828125
 20
237.70166015625
 30
0.0
 11
135.9323272705078
 21
237.70166015625
 31
0.0
  0
LINE
  5
28E
  8
SMALL_FEATURE
 10
135.9323272705078
 20
237.70166015625
 30
0.0
 11
136.10166931152344
 21
237.10899353027344
 31
0.0
  0
LINE
  5
28F
  8
SMALL_FEATURE
 10
136.10166931152344
 20
237.10899353027344
 30
0.0
 11
136.01699829101562
 21
237.70166015625
 31
0.0
  0
LINE
  5
290
  8
SMALL_FEATURE
 10
136.01699829101562
 20
237.70166015625
 30
0.0
 11
136.44033813476562
 21
237.7863311767578
 31
0.0
  0
LINE
  5
291
  8
SMALL_FEATURE
 10
136.44033813476562
 20
237.7863311767578
 30
0.0
 11
136.8213348388672
 21
237.10899353027344
 31
0.0
  0
LINE
  5
292
  8
SMALL_FEATURE
 10
136.8213348388672
 20
237.10899353027344
 30
0.0
 11
137.54100036621094
 21
236.85499572753906
 31
0.0
  0
LINE
  5
293
  8
SMALL_FEATURE
 10
137.54100036621094
 20
236.85499572753906
 30
0.0
 11
136.7790069580078
 21
237.36300659179688
 31
0.0
  0
LINE
  5
294
  8
SMALL_FEATURE
 10
136.7790069580078
 20
237.36300659179688
 30
0.0
 11
136.7790069580078
 21
237.74400329589844
 31
0.0
  0
LINE
  5
295
  8
SMALL_FEATURE
 10
136.7790069580078
 20
237.74400329589844
 30
0.0
 11
137.87966918945312
 21
237.8286590576172
 31
0.0
  0
LINE
  5
296
  8
SMALL_FEATURE
 10
137.87966918945312
 20
237.8286590576172
 30
0.0
 11
137.07533264160156
 21
238.0403289794922
 31
0.0
  0
LINE
  5
297
  8
SMALL_FEATURE
 10
137.07533264160156
 20
238.0403289794922
 30
0.0
 11
136.94833374023438
 21
238.6753387451172
 31
0.0
  0
LINE
  5
298
  8
SMALL_FEATURE
 10
136.94833374023438
 20
238.6753387451172
 30
0.0
 11
136.6943359375
 21
237.9980010986328
 31
0.0
  0
LINE
  5
299
  8
SMALL_FEATURE
 10
136.6943359375
 20
237.9980010986328
 30
0.0
 11
136.22866821289062
 21
237.9980010986328
 31
0.0
  0
LINE
  5
29A
  8
SMALL_FEATURE
 10
136.22866821289062
 20
237.9980010986328
 30
0.0
 11
135.72067260742188
 21
238.50599670410156
 31
0.0
  0
LINE
  5
29B
  8
SMALL_FEATURE
 10
135.72067260742188
 20
238.50599670410156
 30
0.0
 11
135.80532836914062
 21
237.95567321777344
 31
0.0
  0
LINE
  5
29C
  8
SMALL_FEATURE
 10
135.80532836914062
 20
237.95567321777344
 30
0.0
 11
135.21266174316406
 21
237.8286590576172
 31
0.0
  0
LINE
  5
29D
  8
SMALL_FEATURE
 10
135.21266174316406
 20
237.8286590576172
 30
0.0
 11
135.1703338623047
 21
238.75999450683594
 31
0.0
  0
LINE
  5
29E
  8
SMALL_FEATURE
 10
135.1703338623047
 20
238.75999450683594
 30
0.0
 11
135.5936737060547
 21
239.01400756835938
 31
0.0
  0
LINE
  5
29F
  8
SMALL_FEATURE
 10
135.5936737060547
 20
239.01400756835938
 30
0.0
 11
135.1703338623047
 21
239.14100646972656
 31
0.0
  0
LINE
  5
2A0
  8
SMALL_FEATURE
 10
135.1703338623047
 20
239.14100646972656
 30
0.0
 11
134.87399291992188
 21
239.94532775878906
 31
0.0
  0
LINE
  5
2A1
  8
SMALL_FEATURE
 10
134.87399291992188
 20
239.94532775878906
 30
0.0
 11
133.9426727294922
 21
239.7760009765625
 31
0.0
  0
LINE
  5
2A2
  8
SMALL_FEATURE
 10
133.9426727294922
 20
239.7760009765625
 30
0.0
 11
134.02732849121094
 21
239.05633544921875
 31
0.0
  0
LINE
  5
2A3
  8
SMALL_FEATURE
 10
134.02732849121094
 20
239.05633544921875
 30
0.0
 11
135.0433349609375
 21
239.3526611328125
 31
0.0
  0
LINE
  5
2A4
  8
SMALL_FEATURE
 10
135.0433349609375
 20
239.3526611328125
 30
0.0
 11
134.8316650390625
 21
238.16732788085938
 31
0.0
  0
LINE
  5
2A5
  8
SMALL_FEATURE
 10
134.8316650390625
 20
238.16732788085938
 30
0.0
 11
133.68865966796875
 21
237.913330078125
 31
0.0
  0
LINE
  5
2A6
  8
SMALL_FEATURE
 10
133.68865966796875
 20
237.913330078125
 30
0.0
 11
133.56166076660156
 21
237.5746612548828
 31
0.0
  0
LINE
  5
2A7
  8
SMALL_FEATURE
 10
133.56166076660156
 20
237.5746612548828
 30
0.0
 11
133.01133728027344
 21
237.5746612548828
 31
0.0
  0
LINE
  5
2A8
  8
SMALL_FEATURE
 10
133.01133728027344
 20
237.5746612548828
 30
0.0
 11
132.88433837890625
 21
238.16732788085938
 31
0.0
  0
LINE
  5
2A9
  8
SMALL_FEATURE
 10
132.88433837890625
 20
238.16732788085938
 30
0.0
 11
132.1646728515625
 21
237.74400329589844
 31
0.0
  0
LINE
  5
2AA
  8
SMALL_FEATURE
 10
165.35400390625
 20
221.31866455078125
 30
0.0
 11
165.60800170898438
 21
220.76832580566406
 31
0.0
  0
LINE
  5
2AB
  8
SMALL_FEATURE
 10
165.60800170898438
 20
220.76832580566406
 30
0.0
 11
167.38600158691406
 21
219.7100067138672
 31
0.0
  0
LINE
  5
2AC
  8
SMALL_FEATURE
 10
167.38600158691406
 20
219.7100067138672
 30
0.0
 11
167.63999938964844
 21
218.77867126464844
 31
0.0
  0
LINE
  5
2AD
  8
SMALL_FEATURE
 10
167.63999938964844
 20
218.77867126464844
 30
0.0
 11
167.21665954589844
 21
218.69400024414062
 31
0.0
  0
LINE
  5
2AE
  8
SMALL_FEATURE
 10
167.21665954589844
 20
218.69400024414062
 30
0.0
 11
166.7086639404297
 21
219.11734008789062
 31
0.0
  0
LINE
  5
2AF
  8
SMALL_FEATURE
 10
166.7086639404297
 20
219.11734008789062
 30
0.0
 11
166.53933715820312
 21
218.736328125
 31
0.0
  0
LINE
  5
2B0
  8
SMALL_FEATURE
 10
166.53933715820312
 20
218.736328125
 30
0.0
 11
167.42832946777344
 21
218.48233032226562
 31
0.0
  0
LINE
  5
2B1
  8
SMALL_FEATURE
 10
167.42832946777344
 20
218.48233032226562
 30
0.0
 11
167.55532836914062
 21
218.14366149902344
 31
0.0
  0
LINE
  5
2B2
  8
SMALL_FEATURE
 10
167.55532836914062
 20
218.14366149902344
 30
0.0
 11
168.19033813476562
 21
218.0590057373047
 31
0.0
  0
LINE
  5
2B3
  8
SMALL_FEATURE
 10
168.19033813476562
 20
218.0590057373047
 30
0.0
 11
168.656005859375
 21
218.8209991455078
 31
0.0
  0
LINE
  5
2B4
  8
SMALL_FEATURE
 10
168.656005859375
 20
218.8209991455078
 30
0.0
 11
169.24867248535156
 21
218.6093292236328
 31
0.0
  0
LINE
  5
2B5
  8
SMALL_FEATURE
 10
169.24867248535156
 20
218.6093292236328
 30
0.0
 11
168.99465942382812
 21
218.01666259765625
 31
0.0
  0
LINE
  5
2B6
  8
SMALL_FEATURE
 10
168.99465942382812
 20
218.01666259765625
 30
0.0
 11
169.20632934570312
 21
217.88966369628906
 31
0.0
  0
LINE
  5
2B7
  8
SMALL_FEATURE
 10
169.20632934570312
 20
217.88966369628906
 30
0.0
 11
169.5873260498047
 21
218.736328125
 31
0.0
  0
LINE
  5
2B8
  8
SMALL_FEATURE
 10
169.5873260498047
 20
218.736328125
 30
0.0
 11
170.94200134277344
 21
219.0326690673828
 31
0.0
  0
LINE
  5
2B9
  8
SMALL_FEATURE
 10
170.94200134277344
 20
219.0326690673828
 30
0.0
 11
171.2383270263672
 21
218.14366149902344
 31
0.0
  0
LINE
  5
2BA
  8
SMALL_FEATURE
 10
171.2383270263672
 20
218.14366149902344
 30
0.0
 11
171.57699584960938
 21
219.0749969482422
 31
0.0
  0
LINE
  5
2BB
  8
SMALL_FEATURE
 10
171.57699584960938
 20
219.0749969482422
 30
0.0
 11
172.25433349609375
 21
218.99032592773438
 31
0.0
  0
LINE
  5
2BC
  8
SMALL_FEATURE
 10
172.25433349609375
 20
218.99032592773438
 30
0.0
 11
172.00033569335938
 21
219.2866668701172
 31
0.0
  0
LINE
  5
2BD
  8
SMALL_FEATURE
 10
172.00033569335938
 20
219.2866668701172
 30
0.0
 11
171.36532592773438
 21
219.20199584960938
 31
0.0
  0
LINE
  5
2BE
  8
SMALL_FEATURE
 10
171.36532592773438
 20
219.20199584960938
 30
0.0
 11
171.111328125
 21
219.7100067138672
 31
0.0
  0
LINE
  5
2BF
  8
SMALL_FEATURE
 10
171.111328125
 20
219.7100067138672
 30
0.0
 11
170.9843292236328
 21
219.2866668701172
 31
0.0
  0
LINE
  5
2C0
  8
SMALL_FEATURE
 10
170.9843292236328
 20
219.2866668701172
 30
0.0
 11
170.4340057373047
 21
219.371337890625
 31
0.0
  0
LINE
  5
2C1
  8
SMALL_FEATURE
 10
170.4340057373047
 20
219.371337890625
 30
0.0
 11
169.92599487304688
 21
218.947998046875
 31
0.0
  0
LINE
  5
2C2
  8
SMALL_FEATURE
 10
169.92599487304688
 20
218.947998046875
 30
0.0
 11
168.82533264160156
 21
219.11734008789062
 31
0.0
  0
LINE
  5
2C3
  8
SMALL_FEATURE
 10
168.82533264160156
 20
219.11734008789062
 30
0.0
 11
167.809326171875
 21
218.77867126464844
 31
0.0
  0
LINE
  5
2C4
  8
SMALL_FEATURE
 10
167.809326171875
 20
218.77867126464844
 30
0.0
 11
167.6823272705078
 21
220.97999572753906
 31
0.0
  0
LINE
  5
2C5
  8
SMALL_FEATURE
 10
167.6823272705078
 20
220.97999572753906
 30
0.0
 11
167.38600158691406
 21
220.97999572753906
 31
0.0
  0
LINE
  5
2C6
  8
SMALL_FEATURE
 10
167.38600158691406
 20
220.97999572753906
 30
0.0
 11
167.42832946777344
 21
220.4720001220703
 31
0.0
  0
LINE
  5
2C7
  8
SMALL_FEATURE
 10
167.42832946777344
 20
220.4720001220703
 30
0.0
 11
166.7086639404297
 21
220.4720001220703
 31
0.0
  0
LINE
  5
2C8
  8
SMALL_FEATURE
 10
166.7086639404297
 20
220.4720001220703
 30
0.0
 11
165.35400390625
 21
221.31866455078125
 31
0.0
  0
LINE
  5
2C9
  8
SMALL_FEATURE
 10
168.19033813476562
 20
240.28399658203125
 30
0.0
 11
167.47067260742188
 21
240.36866760253906
 31
0.0
  0
LINE
  5
2CA
  8
SMALL_FEATURE
 10
167.47067260742188
 20
240.36866760253906
 30
0.0
 11
167.1320037841797
 21
240.79200744628906
 31
0.0
  0
LINE
  5
2CB
  8
SMALL_FEATURE
 10
167.1320037841797
 20
240.79200744628906
 30
0.0
 11
167.08966064453125
 21
240.45333862304688
 31
0.0
  0
LINE
  5
2CC
  8
SMALL_FEATURE
 10
167.08966064453125
 20
240.45333862304688
 30
0.0
 11
166.53933715820312
 21
240.53799438476562
 31
0.0
  0
LINE
  5
2CD
  8
SMALL_FEATURE
 10
166.53933715820312
 20
240.53799438476562
 30
0.0
 11
166.41233825683594
 21
240.28399658203125
 31
0.0
  0
LINE
  5
2CE
  8
SMALL_FEATURE
 10
166.41233825683594
 20
240.28399658203125
 30
0.0
 11
165.86199951171875
 21
240.36866760253906
 31
0.0
  0
LINE
  5
2CF
  8
SMALL_FEATURE
 10
165.86199951171875
 20
240.36866760253906
 30
0.0
 11
165.73500061035156
 21
240.02999877929688
 31
0.0
  0
LINE
  5
2D0
  8
SMALL_FEATURE
 10
165.73500061035156
 20
240.02999877929688
 30
0.0
 11
164.63433837890625
 21
239.8606719970703
 31
0.0
  0
LINE
  5
2D1
  8
SMALL_FEATURE
 10
164.63433837890625
 20
239.8606719970703
 30
0.0
 11
163.66065979003906
 21
240.62266540527344
 31
0.0
  0
LINE
  5
2D2
  8
SMALL_FEATURE
 10
163.66065979003906
 20
240.62266540527344
 30
0.0
 11
164.08399963378906
 21
239.81832885742188
 31
0.0
  0
LINE
  5
2D3
  8
SMALL_FEATURE
 10
164.08399963378906
 20
239.81832885742188
 30
0.0
 11
163.0679931640625
 21
239.5643310546875
 31
0.0
  0
LINE
  5
2D4
  8
SMALL_FEATURE
 10
163.0679931640625
 20
239.5643310546875
 30
0.0
 11
165.0576629638672
 21
239.4796600341797
 31
0.0
  0
LINE
  5
2D5
  8
SMALL_FEATURE
 10
165.0576629638672
 20
239.4796600341797
 30
0.0
 11
165.18466186523438
 21
239.05633544921875
 31
0.0
  0
LINE
  5
2D6
  8
SMALL_FEATURE
 10
165.18466186523438
 20
239.05633544921875
 30
0.0
 11
165.77732849121094
 21
238.84466552734375
 31
0.0
  0
LINE
  5
2D7
  8
SMALL_FEATURE
 10
165.77732849121094
 20
238.84466552734375
 30
0.0
 11
165.86199951171875
 21
237.61700439453125
 31
0.0
  0
LINE
  5
2D8
  8
SMALL_FEATURE
 10
165.86199951171875
 20
237.61700439453125
 30
0.0
 11
166.32766723632812
 21
237.10899353027344
 31
0.0
  0
LINE
  5
2D9
  8
SMALL_FEATURE
 10
166.32766723632812
 20
237.10899353027344
 30
0.0
 11
166.20066833496094
 21
237.7863311767578
 31
0.0
  0
LINE
  5
2DA
  8
SMALL_FEATURE
 10
166.20066833496094
 20
237.7863311767578
 30
0.0
 11
167.51300048828125
 21
237.7863311767578
 31
0.0
  0
LINE
  5
2DB
  8
SMALL_FEATURE
 10
167.51300048828125
 20
237.7863311767578
 30
0.0
 11
167.51300048828125
 21
238.08267211914062
 31
0.0
  0
LINE
  5
2DC
  8
SMALL_FEATURE
 10
167.51300048828125
 20
238.08267211914062
 30
0.0
 11
167.0050048828125
 21
238.4213409423828
 31
0.0
  0
LINE
  5
2DD
  8
SMALL_FEATURE
 10
167.0050048828125
 20
238.4213409423828
 30
0.0
 11
166.20066833496094
 21
238.336669921875
 31
0.0
  0
LINE
  5
2DE
  8
SMALL_FEATURE
 10
166.20066833496094
 20
238.336669921875
 30
0.0
 11
166.15834045410156
 21
239.01400756835938
 31
0.0
  0
LINE
  5
2DF
  8
SMALL_FEATURE
 10
166.15834045410156
 20
239.01400756835938
 30
0.0
 11
165.43865966796875
 21
239.09866333007812
 31
0.0
  0
LINE
  5
2E0
  8
SMALL_FEATURE
 10
165.43865966796875
 20
239.09866333007812
 30
0.0
 11
165.142333984375
 21
239.6913299560547
 31
0.0
  0
LINE
  5
2E1
  8
SMALL_FEATURE
 10
165.142333984375
 20
239.6913299560547
 30
0.0
 11
166.32766723632812
 21
239.9029998779297
 31
0.0
  0
LINE
  5
2E2
  8
SMALL_FEATURE
 10
166.32766723632812
 20
239.9029998779297
 30
0.0
 11
166.96266174316406
 21
239.5643310546875
 31
0.0
  0
LINE
  5
2E3
  8
SMALL_FEATURE
 10
166.96266174316406
 20
239.5643310546875
 30
0.0
 11
168.19033813476562
 21
240.28399658203125
 31
0.0
  0
LINE
  5
2E4
  8
BRIDGE_ROUTE
 10
110.74400329589844
 20
248.9199981689453
 30
0.0
 11
114.5963363647461
 21
248.75067138671875
 31
0.0
  0
LINE
  5
2E5
  8
BRIDGE_ROUTE
 10
114.5963363647461
 20
248.75067138671875
 30
0.0
 11
114.1729965209961
 21
246.0413360595703
 31
0.0
  0
LINE
  5
2E6
  8
BRIDGE_ROUTE
 10
114.1729965209961
 20
246.0413360595703
 30
0.0
 11
114.55400085449219
 21
245.91433715820312
 31
0.0
  0
LINE
  5
2E7
  8
BRIDGE_ROUTE
 10
114.55400085449219
 20
245.91433715820312
 30
0.0
 11
114.55400085449219
 21
215.81533813476562
 31
0.0
  0
LINE
  5
2E8
  8
BRIDGE_ROUTE
 10
114.55400085449219
 20
215.81533813476562
 30
0.0
 11
114.1729965209961
 21
215.68833923339844
 31
0.0
  0
LINE
  5
2E9
  8
BRIDGE_ROUTE
 10
114.1729965209961
 20
215.68833923339844
 30
0.0
 11
114.5963363647461
 21
212.8943328857422
 31
0.0
  0
LINE
  5
2EA
  8
BRIDGE_ROUTE
 10
114.5963363647461
 20
212.8943328857422
 30
0.0
 11
110.82866668701172
 21
212.8520050048828
 31
0.0
  0
LINE
  5
2EB
  8
BRIDGE_ROUTE
 10
110.82866668701172
 20
212.8520050048828
 30
0.0
 11
110.82866668701172
 21
212.6403350830078
 31
0.0
  0
LINE
  5
2EC
  8
BRIDGE_ROUTE
 10
110.82866668701172
 20
212.6403350830078
 30
0.0
 11
123.7403335571289
 21
212.72500610351562
 31
0.0
  0
LINE
  5
2ED
  8
BRIDGE_ROUTE
 10
123.7403335571289
 20
212.72500610351562
 30
0.0
 11
114.72333526611328
 21
212.8943328857422
 31
0.0
  0
LINE
  5
2EE
  8
BRIDGE_ROUTE
 10
114.72333526611328
 20
212.8943328857422
 30
0.0
 11
115.14666748046875
 21
215.7306671142578
 31
0.0
  0
LINE
  5
2EF
  8
BRIDGE_ROUTE
 10
115.14666748046875
 20
215.7306671142578
 30
0.0
 11
114.76566314697266
 21
215.81533813476562
 31
0.0
  0
LINE
  5
2F0
  8
BRIDGE_ROUTE
 10
114.76566314697266
 20
215.81533813476562
 30
0.0
 11
114.76566314697266
 21
245.91433715820312
 31
0.0
  0
LINE
  5
2F1
  8
BRIDGE_ROUTE
 10
114.76566314697266
 20
245.91433715820312
 30
0.0
 11
115.14666748046875
 21
245.9566650390625
 31
0.0
  0
LINE
  5
2F2
  8
BRIDGE_ROUTE
 10
115.14666748046875
 20
245.9566650390625
 30
0.0
 11
114.76566314697266
 21
248.79299926757812
 31
0.0
  0
LINE
  5
2F3
  8
BRIDGE_ROUTE
 10
114.76566314697266
 20
248.79299926757812
 30
0.0
 11
140.16566467285156
 21
248.75067138671875
 31
0.0
  0
LINE
  5
2F4
  8
BRIDGE_ROUTE
 10
140.16566467285156
 20
248.75067138671875
 30
0.0
 11
140.1233367919922
 21
248.36965942382812
 31
0.0
  0
LINE
  5
2F5
  8
BRIDGE_ROUTE
 10
140.1233367919922
 20
248.36965942382812
 30
0.0
 11
138.42999267578125
 21
248.031005859375
 31
0.0
  0
LINE
  5
2F6
  8
BRIDGE_ROUTE
 10
138.42999267578125
 20
248.031005859375
 30
0.0
 11
135.33966064453125
 21
246.7186737060547
 31
0.0
  0
LINE
  5
2F7
  8
BRIDGE_ROUTE
 10
135.33966064453125
 20
246.7186737060547
 30
0.0
 11
132.54566955566406
 21
244.68666076660156
 31
0.0
  0
LINE
  5
2F8
  8
BRIDGE_ROUTE
 10
132.54566955566406
 20
244.68666076660156
 30
0.0
 11
130.13265991210938
 21
242.10433959960938
 31
0.0
  0
LINE
  5
2F9
  8
BRIDGE_ROUTE
 10
130.13265991210938
 20
242.10433959960938
 30
0.0
 11
128.18533325195312
 21
239.31033325195312
 31
0.0
  0
LINE
  5
2FA
  8
BRIDGE_ROUTE
 10
128.18533325195312
 20
239.31033325195312
 30
0.0
 11
126.61900329589844
 21
236.1353302001953
 31
0.0
  0
LINE
  5
2FB
  8
BRIDGE_ROUTE
 10
126.61900329589844
 20
236.1353302001953
 30
0.0
 11
125.5606689453125
 21
232.91799926757812
 31
0.0
  0
LINE
  5
2FC
  8
BRIDGE_ROUTE
 10
125.5606689453125
 20
232.91799926757812
 30
0.0
 11
124.88333129882812
 21
227.62632751464844
 31
0.0
  0
LINE
  5
2FD
  8
BRIDGE_ROUTE
 10
124.88333129882812
 20
227.62632751464844
 30
0.0
 11
125.64533233642578
 21
222.67333984375
 31
0.0
  0
LINE
  5
2FE
  8
BRIDGE_ROUTE
 10
125.64533233642578
 20
222.67333984375
 30
0.0
 11
128.14300537109375
 21
212.6403350830078
 31
0.0
  0
LINE
  5
2FF
  8
BRIDGE_ROUTE
 10
128.14300537109375
 20
212.6403350830078
 30
0.0
 11
142.83267211914062
 21
212.6403350830078
 31
0.0
  0
LINE
  5
300
  8
BRIDGE_ROUTE
 10
142.83267211914062
 20
212.6403350830078
 30
0.0
 11
143.46766662597656
 21
215.9846649169922
 31
0.0
  0
LINE
  5
301
  8
BRIDGE_ROUTE
 10
143.46766662597656
 20
215.9846649169922
 30
0.0
 11
145.03399658203125
 21
218.65167236328125
 31
0.0
  0
LINE
  5
302
  8
BRIDGE_ROUTE
 10
145.03399658203125
 20
218.65167236328125
 30
0.0
 11
146.388671875
 21
220.00633239746094
 31
0.0
  0
LINE
  5
303
  8
BRIDGE_ROUTE
 10
146.388671875
 20
220.00633239746094
 30
0.0
 11
148.20899963378906
 21
221.1493377685547
 31
0.0
  0
LINE
  5
304
  8
BRIDGE_ROUTE
 10
148.20899963378906
 20
221.1493377685547
 30
0.0
 11
150.5796661376953
 21
221.9536590576172
 31
0.0
  0
LINE
  5
305
  8
BRIDGE_ROUTE
 10
150.5796661376953
 20
221.9536590576172
 30
0.0
 11
152.14599609375
 21
222.1230010986328
 31
0.0
  0
LINE
  5
306
  8
BRIDGE_ROUTE
 10
152.14599609375
 20
222.1230010986328
 30
0.0
 11
155.447998046875
 21
221.57266235351562
 31
0.0
  0
LINE
  5
307
  8
BRIDGE_ROUTE
 10
155.447998046875
 20
221.57266235351562
 30
0.0
 11
158.28433227539062
 21
220.00633239746094
 31
0.0
  0
LINE
  5
308
  8
BRIDGE_ROUTE
 10
158.28433227539062
 20
220.00633239746094
 30
0.0
 11
160.6126708984375
 21
217.12767028808594
 31
0.0
  0
LINE
  5
309
  8
BRIDGE_ROUTE
 10
160.6126708984375
 20
217.12767028808594
 30
0.0
 11
161.54400634765625
 21
214.4183349609375
 31
0.0
  0
LINE
  5
30A
  8
BRIDGE_ROUTE
 10
161.54400634765625
 20
214.4183349609375
 30
0.0
 11
161.7556610107422
 21
212.6403350830078
 31
0.0
  0
LINE
  5
30B
  8
BRIDGE_ROUTE
 10
161.7556610107422
 20
212.6403350830078
 30
0.0
 11
176.4029998779297
 21
212.6826629638672
 31
0.0
  0
LINE
  5
30C
  8
BRIDGE_ROUTE
 10
176.4029998779297
 20
212.6826629638672
 30
0.0
 11
179.3663330078125
 21
224.40899658203125
 31
0.0
  0
LINE
  5
30D
  8
BRIDGE_ROUTE
 10
179.3663330078125
 20
224.40899658203125
 30
0.0
 11
179.62033081054688
 21
228.68466186523438
 31
0.0
  0
LINE
  5
30E
  8
BRIDGE_ROUTE
 10
179.62033081054688
 20
228.68466186523438
 30
0.0
 11
179.07000732421875
 21
232.79100036621094
 31
0.0
  0
LINE
  5
30F
  8
BRIDGE_ROUTE
 10
179.07000732421875
 20
232.79100036621094
 30
0.0
 11
177.08033752441406
 21
237.8286590576172
 31
0.0
  0
LINE
  5
310
  8
BRIDGE_ROUTE
 10
177.08033752441406
 20
237.8286590576172
 30
0.0
 11
174.37100219726562
 21
242.18899536132812
 31
0.0
  0
LINE
  5
311
  8
BRIDGE_ROUTE
 10
174.37100219726562
 20
242.18899536132812
 30
0.0
 11
171.4076690673828
 21
245.19467163085938
 31
0.0
  0
LINE
  5
312
  8
BRIDGE_ROUTE
 10
171.4076690673828
 20
245.19467163085938
 30
0.0
 11
169.16400146484375
 21
246.7186737060547
 31
0.0
  0
LINE
  5
313
  8
BRIDGE_ROUTE
 10
169.16400146484375
 20
246.7186737060547
 30
0.0
 11
165.94667053222656
 21
248.07333374023438
 31
0.0
  0
LINE
  5
314
  8
BRIDGE_ROUTE
 10
165.94667053222656
 20
248.07333374023438
 30
0.0
 11
162.64466857910156
 21
248.8353271484375
 31
0.0
  0
LINE
  5
315
  8
BRIDGE_ROUTE
 10
162.64466857910156
 20
248.8353271484375
 30
0.0
 11
160.23167419433594
 21
249.00466918945312
 31
0.0
  0
LINE
  5
316
  8
BRIDGE_ROUTE
 10
160.23167419433594
 20
249.00466918945312
 30
0.0
 11
145.16099548339844
 21
249.00466918945312
 31
0.0
  0
LINE
  5
317
  8
BRIDGE_ROUTE
 10
145.16099548339844
 20
249.00466918945312
 30
0.0
 11
140.71600341796875
 21
248.58132934570312
 31
0.0
  0
LINE
  5
318
  8
BRIDGE_ROUTE
 10
140.71600341796875
 20
248.58132934570312
 30
0.0
 11
140.58900451660156
 21
249.00466918945312
 31
0.0
  0
LINE
  5
319
  8
BRIDGE_ROUTE
 10
140.58900451660156
 20
249.00466918945312
 30
0.0
 11
110.74400329589844
 21
248.9199981689453
 31
0.0
  0
LINE
  5
31A
  8
BRIDGE_ROUTE
 10
131.10633850097656
 20
9.440333366394043
 30
0.0
 11
131.14866638183594
 21
41.020999908447266
 31
0.0
  0
LINE
  5
31B
  8
BRIDGE_ROUTE
 10
131.14866638183594
 20
41.020999908447266
 30
0.0
 11
198.79733276367188
 21
40.978668212890625
 31
0.0
  0
LINE
  5
31C
  8
BRIDGE_ROUTE
 10
198.79733276367188
 20
40.978668212890625
 30
0.0
 11
198.7550048828125
 21
39.70866775512695
 31
0.0
  0
LINE
  5
31D
  8
BRIDGE_ROUTE
 10
198.7550048828125
 20
39.70866775512695
 30
0.0
 11
132.50332641601562
 21
39.70866775512695
 31
0.0
  0
LINE
  5
31E
  8
BRIDGE_ROUTE
 10
132.50332641601562
 20
39.70866775512695
 30
0.0
 11
132.41867065429688
 21
9.440333366394043
 31
0.0
  0
LINE
  5
31F
  8
BRIDGE_ROUTE
 10
132.41867065429688
 20
9.440333366394043
 30
0.0
 11
131.10633850097656
 21
9.440333366394043
 31
0.0
  0
LINE
  5
320
  8
PICKUP_ROUTE
 10
66.67500305175781
 20
121.24266815185547
 30
0.0
 11
62.10300064086914
 21
120.22666931152344
 31
0.0
  0
LINE
  5
321
  8
PICKUP_ROUTE
 10
62.10300064086914
 20
120.22666931152344
 30
0.0
 11
57.869667053222656
 21
118.02532958984375
 31
0.0
  0
LINE
  5
322
  8
PICKUP_ROUTE
 10
57.869667053222656
 20
118.02532958984375
 30
0.0
 11
54.35599899291992
 21
114.68099975585938
 31
0.0
  0
LINE
  5
323
  8
PICKUP_ROUTE
 10
54.35599899291992
 20
114.68099975585938
 30
0.0
 11
50.71533203125
 21
108.50033569335938
 31
0.0
  0
LINE
  5
324
  8
PICKUP_ROUTE
 10
50.71533203125
 20
108.50033569335938
 30
0.0
 11
49.31833267211914
 21
103.63200378417969
 31
0.0
  0
LINE
  5
325
  8
PICKUP_ROUTE
 10
49.31833267211914
 20
103.63200378417969
 30
0.0
 11
49.064334869384766
 21
99.69499969482422
 31
0.0
  0
LINE
  5
326
  8
PICKUP_ROUTE
 10
49.064334869384766
 20
99.69499969482422
 30
0.0
 11
49.487667083740234
 21
96.39299774169922
 31
0.0
  0
LINE
  5
327
  8
PICKUP_ROUTE
 10
49.487667083740234
 20
96.39299774169922
 30
0.0
 11
52.23933410644531
 21
85.13233184814453
 31
0.0
  0
LINE
  5
328
  8
PICKUP_ROUTE
 10
52.23933410644531
 20
85.13233184814453
 30
0.0
 11
52.408668518066406
 21
80.13700103759766
 31
0.0
  0
LINE
  5
329
  8
PICKUP_ROUTE
 10
52.408668518066406
 20
80.13700103759766
 30
0.0
 11
52.06999969482422
 21
77.80867004394531
 31
0.0
  0
LINE
  5
32A
  8
PICKUP_ROUTE
 10
52.06999969482422
 20
77.80867004394531
 30
0.0
 11
50.71533203125
 21
73.27899932861328
 31
0.0
  0
LINE
  5
32B
  8
PICKUP_ROUTE
 10
50.71533203125
 20
73.27899932861328
 30
0.0
 11
48.93733215332031
 21
69.25733184814453
 31
0.0
  0
LINE
  5
32C
  8
PICKUP_ROUTE
 10
48.93733215332031
 20
69.25733184814453
 30
0.0
 11
41.994667053222656
 21
56.26100158691406
 31
0.0
  0
LINE
  5
32D
  8
PICKUP_ROUTE
 10
41.994667053222656
 20
56.26100158691406
 30
0.0
 11
40.047332763671875
 21
51.94300079345703
 31
0.0
  0
LINE
  5
32E
  8
PICKUP_ROUTE
 10
40.047332763671875
 20
51.94300079345703
 30
0.0
 11
38.650333404541016
 21
46.9900016784668
 31
0.0
  0
LINE
  5
32F
  8
PICKUP_ROUTE
 10
38.650333404541016
 20
46.9900016784668
 30
0.0
 11
38.354000091552734
 21
43.01066589355469
 31
0.0
  0
LINE
  5
330
  8
PICKUP_ROUTE
 10
38.354000091552734
 20
43.01066589355469
 30
0.0
 11
38.52333450317383
 21
40.005001068115234
 31
0.0
  0
LINE
  5
331
  8
PICKUP_ROUTE
 10
38.52333450317383
 20
40.005001068115234
 30
0.0
 11
39.53933334350586
 21
35.305999755859375
 31
0.0
  0
LINE
  5
332
  8
PICKUP_ROUTE
 10
39.53933334350586
 20
35.305999755859375
 30
0.0
 11
41.35966491699219
 21
31.07266616821289
 31
0.0
  0
LINE
  5
333
  8
PICKUP_ROUTE
 10
41.35966491699219
 20
31.07266616821289
 30
0.0
 11
42.672000885009766
 21
28.871334075927734
 31
0.0
  0
LINE
  5
334
  8
PICKUP_ROUTE
 10
42.672000885009766
 20
28.871334075927734
 30
0.0
 11
47.03233337402344
 21
23.325666427612305
 31
0.0
  0
LINE
  5
335
  8
PICKUP_ROUTE
 10
47.03233337402344
 20
23.325666427612305
 30
0.0
 11
50.84233474731445
 21
20.19300079345703
 31
0.0
  0
LINE
  5
336
  8
PICKUP_ROUTE
 10
50.84233474731445
 20
20.19300079345703
 30
0.0
 11
55.16033172607422
 21
17.991666793823242
 31
0.0
  0
LINE
  5
337
  8
PICKUP_ROUTE
 10
55.16033172607422
 20
17.991666793823242
 30
0.0
 11
62.272335052490234
 21
16.086666107177734
 31
0.0
  0
LINE
  5
338
  8
PICKUP_ROUTE
 10
62.272335052490234
 20
16.086666107177734
 30
0.0
 11
67.26766967773438
 21
15.155333518981934
 31
0.0
  0
LINE
  5
339
  8
PICKUP_ROUTE
 10
67.26766967773438
 20
15.155333518981934
 30
0.0
 11
76.4540023803711
 21
15.02833366394043
 31
0.0
  0
LINE
  5
33A
  8
PICKUP_ROUTE
 10
76.4540023803711
 20
15.02833366394043
 30
0.0
 11
76.49633026123047
 21
121.36966705322266
 31
0.0
  0
LINE
  5
33B
  8
PICKUP_ROUTE
 10
76.49633026123047
 20
121.36966705322266
 30
0.0
 11
66.67500305175781
 21
121.24266815185547
 31
0.0
  0
LINE
  5
33C
  8
PICKUP_ROUTE
 10
87.92633056640625
 20
121.41200256347656
 30
0.0
 11
87.88400268554688
 21
15.070666313171387
 31
0.0
  0
LINE
  5
33D
  8
PICKUP_ROUTE
 10
87.88400268554688
 20
15.070666313171387
 30
0.0
 11
95.33466339111328
 21
15.02833366394043
 31
0.0
  0
LINE
  5
33E
  8
PICKUP_ROUTE
 10
95.33466339111328
 20
15.02833366394043
 30
0.0
 11
102.19266510009766
 21
16.17133331298828
 31
0.0
  0
LINE
  5
33F
  8
PICKUP_ROUTE
 10
102.19266510009766
 20
16.17133331298828
 30
0.0
 11
109.3046646118164
 21
17.991666793823242
 31
0.0
  0
LINE
  5
340
  8
PICKUP_ROUTE
 10
109.3046646118164
 20
17.991666793823242
 30
0.0
 11
113.53800201416016
 21
20.19300079345703
 31
0.0
  0
LINE
  5
341
  8
PICKUP_ROUTE
 10
113.53800201416016
 20
20.19300079345703
 30
0.0
 11
117.22100067138672
 21
23.198667526245117
 31
0.0
  0
LINE
  5
342
  8
PICKUP_ROUTE
 10
117.22100067138672
 20
23.198667526245117
 30
0.0
 11
121.70833587646484
 21
28.95599937438965
 31
0.0
  0
LINE
  5
343
  8
PICKUP_ROUTE
 10
121.70833587646484
 20
28.95599937438965
 30
0.0
 11
123.99433135986328
 21
33.10466766357422
 31
0.0
  0
LINE
  5
344
  8
PICKUP_ROUTE
 10
123.99433135986328
 20
33.10466766357422
 30
0.0
 11
124.92566680908203
 21
35.6870002746582
 31
0.0
  0
LINE
  5
345
  8
PICKUP_ROUTE
 10
124.92566680908203
 20
35.6870002746582
 30
0.0
 11
125.85700225830078
 21
40.005001068115234
 31
0.0
  0
LINE
  5
346
  8
PICKUP_ROUTE
 10
125.85700225830078
 20
40.005001068115234
 30
0.0
 11
125.94166564941406
 21
45.084999084472656
 31
0.0
  0
LINE
  5
347
  8
PICKUP_ROUTE
 10
125.94166564941406
 20
45.084999084472656
 30
0.0
 11
125.60299682617188
 21
47.37099838256836
 31
0.0
  0
LINE
  5
348
  8
PICKUP_ROUTE
 10
125.60299682617188
 20
47.37099838256836
 30
0.0
 11
124.24833679199219
 21
51.94300079345703
 31
0.0
  0
LINE
  5
349
  8
PICKUP_ROUTE
 10
124.24833679199219
 20
51.94300079345703
 30
0.0
 11
122.3010025024414
 21
56.26100158691406
 31
0.0
  0
LINE
  5
34A
  8
PICKUP_ROUTE
 10
122.3010025024414
 20
56.26100158691406
 30
0.0
 11
115.35832977294922
 21
69.25733184814453
 31
0.0
  0
LINE
  5
34B
  8
PICKUP_ROUTE
 10
115.35832977294922
 20
69.25733184814453
 30
0.0
 11
113.58032989501953
 21
73.1943359375
 31
0.0
  0
LINE
  5
34C
  8
PICKUP_ROUTE
 10
113.58032989501953
 20
73.1943359375
 30
0.0
 11
112.22566986083984
 21
77.80867004394531
 31
0.0
  0
LINE
  5
34D
  8
PICKUP_ROUTE
 10
112.22566986083984
 20
77.80867004394531
 30
0.0
 11
111.88700103759766
 21
80.13700103759766
 31
0.0
  0
LINE
  5
34E
  8
PICKUP_ROUTE
 10
111.88700103759766
 20
80.13700103759766
 30
0.0
 11
112.09866333007812
 21
84.79366302490234
 31
0.0
  0
LINE
  5
34F
  8
PICKUP_ROUTE
 10
112.09866333007812
 20
84.79366302490234
 30
0.0
 11
114.93499755859375
 21
96.5199966430664
 31
0.0
  0
LINE
  5
350
  8
PICKUP_ROUTE
 10
114.93499755859375
 20
96.5199966430664
 30
0.0
 11
115.23133087158203
 21
99.65266418457031
 31
0.0
  0
LINE
  5
351
  8
PICKUP_ROUTE
 10
115.23133087158203
 20
99.65266418457031
 30
0.0
 11
115.01966857910156
 21
103.84366607666016
 31
0.0
  0
LINE
  5
352
  8
PICKUP_ROUTE
 10
115.01966857910156
 20
103.84366607666016
 30
0.0
 11
113.66500091552734
 21
108.41566467285156
 31
0.0
  0
LINE
  5
353
  8
PICKUP_ROUTE
 10
113.66500091552734
 20
108.41566467285156
 30
0.0
 11
110.02433013916016
 21
114.5963363647461
 31
0.0
  0
LINE
  5
354
  8
PICKUP_ROUTE
 10
110.02433013916016
 20
114.5963363647461
 30
0.0
 11
108.11933135986328
 21
116.62833404541016
 31
0.0
  0
LINE
  5
355
  8
PICKUP_ROUTE
 10
108.11933135986328
 20
116.62833404541016
 30
0.0
 11
104.47866821289062
 21
119.2106704711914
 31
0.0
  0
LINE
  5
356
  8
PICKUP_ROUTE
 10
104.47866821289062
 20
119.2106704711914
 30
0.0
 11
101.72699737548828
 21
120.39600372314453
 31
0.0
  0
LINE
  5
357
  8
PICKUP_ROUTE
 10
101.72699737548828
 20
120.39600372314453
 30
0.0
 11
97.70532989501953
 21
121.24266815185547
 31
0.0
  0
LINE
  5
358
  8
PICKUP_ROUTE
 10
97.70532989501953
 20
121.24266815185547
 30
0.0
 11
87.92633056640625
 21
121.41200256347656
 31
0.0
  0
LINE
  5
359
  8
PICKUP_ROUTE
 10
66.71733093261719
 20
121.03099822998047
 30
0.0
 11
76.28466796875
 21
121.15799713134766
 31
0.0
  0
LINE
  5
35A
  8
PICKUP_ROUTE
 10
76.28466796875
 20
121.15799713134766
 30
0.0
 11
76.2423324584961
 21
15.239999771118164
 31
0.0
  0
LINE
  5
35B
  8
PICKUP_ROUTE
 10
76.2423324584961
 20
15.239999771118164
 30
0.0
 11
67.18299865722656
 21
15.366999626159668
 31
0.0
  0
LINE
  5
35C
  8
PICKUP_ROUTE
 10
67.18299865722656
 20
15.366999626159668
 30
0.0
 11
62.10300064086914
 21
16.340665817260742
 31
0.0
  0
LINE
  5
35D
  8
PICKUP_ROUTE
 10
62.10300064086914
 20
16.340665817260742
 30
0.0
 11
55.202667236328125
 21
18.203332901000977
 31
0.0
  0
LINE
  5
35E
  8
PICKUP_ROUTE
 10
55.202667236328125
 20
18.203332901000977
 30
0.0
 11
50.926998138427734
 21
20.404666900634766
 31
0.0
  0
LINE
  5
35F
  8
PICKUP_ROUTE
 10
50.926998138427734
 20
20.404666900634766
 30
0.0
 11
46.94766616821289
 21
23.749000549316406
 31
0.0
  0
LINE
  5
360
  8
PICKUP_ROUTE
 10
46.94766616821289
 20
23.749000549316406
 30
0.0
 11
42.79899978637695
 21
29.08300018310547
 31
0.0
  0
LINE
  5
361
  8
PICKUP_ROUTE
 10
42.79899978637695
 20
29.08300018310547
 30
0.0
 11
41.14799880981445
 21
32.00400161743164
 31
0.0
  0
LINE
  5
362
  8
PICKUP_ROUTE
 10
41.14799880981445
 20
32.00400161743164
 30
0.0
 11
39.750999450683594
 21
35.348331451416016
 31
0.0
  0
LINE
  5
363
  8
PICKUP_ROUTE
 10
39.750999450683594
 20
35.348331451416016
 30
0.0
 11
38.692665100097656
 21
40.38600158691406
 31
0.0
  0
LINE
  5
364
  8
PICKUP_ROUTE
 10
38.692665100097656
 20
40.38600158691406
 30
0.0
 11
38.86199951171875
 21
47.03233337402344
 31
0.0
  0
LINE
  5
365
  8
PICKUP_ROUTE
 10
38.86199951171875
 20
47.03233337402344
 30
0.0
 11
40.25899887084961
 21
51.900665283203125
 31
0.0
  0
LINE
  5
366
  8
PICKUP_ROUTE
 10
40.25899887084961
 20
51.900665283203125
 30
0.0
 11
42.417999267578125
 21
56.599666595458984
 31
0.0
  0
LINE
  5
367
  8
PICKUP_ROUTE
 10
42.417999267578125
 20
56.599666595458984
 30
0.0
 11
48.97966766357422
 21
68.83399963378906
 31
0.0
  0
LINE
  5
368
  8
PICKUP_ROUTE
 10
48.97966766357422
 20
68.83399963378906
 30
0.0
 11
50.926998138427734
 21
73.23666381835938
 31
0.0
  0
LINE
  5
369
  8
PICKUP_ROUTE
 10
50.926998138427734
 20
73.23666381835938
 30
0.0
 11
52.32400131225586
 21
78.02033233642578
 31
0.0
  0
LINE
  5
36A
  8
PICKUP_ROUTE
 10
52.32400131225586
 20
78.02033233642578
 30
0.0
 11
52.62033462524414
 21
80.09466552734375
 31
0.0
  0
LINE
  5
36B
  8
PICKUP_ROUTE
 10
52.62033462524414
 20
80.09466552734375
 30
0.0
 11
52.45100021362305
 21
85.13233184814453
 31
0.0
  0
LINE
  5
36C
  8
PICKUP_ROUTE
 10
52.45100021362305
 20
85.13233184814453
 30
0.0
 11
49.65700149536133
 21
96.60466766357422
 31
0.0
  0
LINE
  5
36D
  8
PICKUP_ROUTE
 10
49.65700149536133
 20
96.60466766357422
 30
0.0
 11
49.2760009765625
 21
99.61033630371094
 31
0.0
  0
LINE
  5
36E
  8
PICKUP_ROUTE
 10
49.2760009765625
 20
99.61033630371094
 30
0.0
 11
49.57233428955078
 21
103.84366607666016
 31
0.0
  0
LINE
  5
36F
  8
PICKUP_ROUTE
 10
49.57233428955078
 20
103.84366607666016
 30
0.0
 11
50.884666442871094
 21
108.33100128173828
 31
0.0
  0
LINE
  5
370
  8
PICKUP_ROUTE
 10
50.884666442871094
 20
108.33100128173828
 30
0.0
 11
51.98533248901367
 21
110.61699676513672
 31
0.0
  0
LINE
  5
371
  8
PICKUP_ROUTE
 10
51.98533248901367
 20
110.61699676513672
 30
0.0
 11
54.44066619873047
 21
114.427001953125
 31
0.0
  0
LINE
  5
372
  8
PICKUP_ROUTE
 10
54.44066619873047
 20
114.427001953125
 30
0.0
 11
57.9543342590332
 21
117.81366729736328
 31
0.0
  0
LINE
  5
373
  8
PICKUP_ROUTE
 10
57.9543342590332
 20
117.81366729736328
 30
0.0
 11
62.14533233642578
 21
120.01499938964844
 31
0.0
  0
LINE
  5
374
  8
PICKUP_ROUTE
 10
62.14533233642578
 20
120.01499938964844
 30
0.0
 11
66.71733093261719
 21
121.03099822998047
 31
0.0
  0
LINE
  5
375
  8
PICKUP_ROUTE
 10
88.13800048828125
 20
121.20033264160156
 30
0.0
 11
97.66300201416016
 21
121.03099822998047
 31
0.0
  0
LINE
  5
376
  8
PICKUP_ROUTE
 10
97.66300201416016
 20
121.03099822998047
 30
0.0
 11
102.10800170898438
 21
120.05733489990234
 31
0.0
  0
LINE
  5
377
  8
PICKUP_ROUTE
 10
102.10800170898438
 20
120.05733489990234
 30
0.0
 11
104.47866821289062
 21
118.9566650390625
 31
0.0
  0
LINE
  5
378
  8
PICKUP_ROUTE
 10
104.47866821289062
 20
118.9566650390625
 30
0.0
 11
107.822998046875
 21
116.58599853515625
 31
0.0
  0
LINE
  5
379
  8
PICKUP_ROUTE
 10
107.822998046875
 20
116.58599853515625
 30
0.0
 11
109.77033233642578
 21
114.55400085449219
 31
0.0
  0
LINE
  5
37A
  8
PICKUP_ROUTE
 10
109.77033233642578
 20
114.55400085449219
 30
0.0
 11
113.49566650390625
 21
108.24633026123047
 31
0.0
  0
LINE
  5
37B
  8
PICKUP_ROUTE
 10
113.49566650390625
 20
108.24633026123047
 30
0.0
 11
114.80799865722656
 21
103.84366607666016
 31
0.0
  0
LINE
  5
37C
  8
PICKUP_ROUTE
 10
114.80799865722656
 20
103.84366607666016
 30
0.0
 11
115.01966857910156
 21
99.52566528320312
 31
0.0
  0
LINE
  5
37D
  8
PICKUP_ROUTE
 10
115.01966857910156
 20
99.52566528320312
 30
0.0
 11
114.72333526611328
 21
96.5199966430664
 31
0.0
  0
LINE
  5
37E
  8
PICKUP_ROUTE
 10
114.72333526611328
 20
96.5199966430664
 30
0.0
 11
111.92933654785156
 21
85.08999633789062
 31
0.0
  0
LINE
  5
37F
  8
PICKUP_ROUTE
 10
111.92933654785156
 20
85.08999633789062
 30
0.0
 11
111.67533111572266
 21
80.09466552734375
 31
0.0
  0
LINE
  5
380
  8
PICKUP_ROUTE
 10
111.67533111572266
 20
80.09466552734375
 30
0.0
 11
111.97166442871094
 21
78.02033233642578
 31
0.0
  0
LINE
  5
381
  8
PICKUP_ROUTE
 10
111.97166442871094
 20
78.02033233642578
 30
0.0
 11
113.36866760253906
 21
73.1520004272461
 31
0.0
  0
LINE
  5
382
  8
PICKUP_ROUTE
 10
113.36866760253906
 20
73.1520004272461
 30
0.0
 11
115.31600189208984
 21
68.83399963378906
 31
0.0
  0
LINE
  5
383
  8
PICKUP_ROUTE
 10
115.31600189208984
 20
68.83399963378906
 30
0.0
 11
121.87767028808594
 21
56.599666595458984
 31
0.0
  0
LINE
  5
384
  8
PICKUP_ROUTE
 10
121.87767028808594
 20
56.599666595458984
 30
0.0
 11
124.03666687011719
 21
51.900665283203125
 31
0.0
  0
LINE
  5
385
  8
PICKUP_ROUTE
 10
124.03666687011719
 20
51.900665283203125
 30
0.0
 11
125.3913345336914
 21
47.37099838256836
 31
0.0
  0
LINE
  5
386
  8
PICKUP_ROUTE
 10
125.3913345336914
 20
47.37099838256836
 30
0.0
 11
125.7300033569336
 21
45.042667388916016
 31
0.0
  0
LINE
  5
387
  8
PICKUP_ROUTE
 10
125.7300033569336
 20
45.042667388916016
 30
0.0
 11
125.64533233642578
 21
40.005001068115234
 31
0.0
  0
LINE
  5
388
  8
PICKUP_ROUTE
 10
125.64533233642578
 20
40.005001068115234
 30
0.0
 11
124.67166900634766
 21
35.560001373291016
 31
0.0
  0
LINE
  5
389
  8
PICKUP_ROUTE
 10
124.67166900634766
 20
35.560001373291016
 30
0.0
 11
123.8673324584961
 21
33.358665466308594
 31
0.0
  0
LINE
  5
38A
  8
PICKUP_ROUTE
 10
123.8673324584961
 20
33.358665466308594
 30
0.0
 11
121.41200256347656
 21
28.913665771484375
 31
0.0
  0
LINE
  5
38B
  8
PICKUP_ROUTE
 10
121.41200256347656
 20
28.913665771484375
 30
0.0
 11
118.82966613769531
 21
25.315332412719727
 31
0.0
  0
LINE
  5
38C
  8
PICKUP_ROUTE
 10
118.82966613769531
 20
25.315332412719727
 30
0.0
 11
116.79766845703125
 21
23.11400032043457
 31
0.0
  0
LINE
  5
38D
  8
PICKUP_ROUTE
 10
116.79766845703125
 20
23.11400032043457
 30
0.0
 11
113.32633209228516
 21
20.31999969482422
 31
0.0
  0
LINE
  5
38E
  8
PICKUP_ROUTE
 10
113.32633209228516
 20
20.31999969482422
 30
0.0
 11
109.26233673095703
 21
18.203332901000977
 31
0.0
  0
LINE
  5
38F
  8
PICKUP_ROUTE
 10
109.26233673095703
 20
18.203332901000977
 30
0.0
 11
102.57366943359375
 21
16.467666625976562
 31
0.0
  0
LINE
  5
390
  8
PICKUP_ROUTE
 10
102.57366943359375
 20
16.467666625976562
 30
0.0
 11
95.37699890136719
 21
15.239999771118164
 31
0.0
  0
LINE
  5
391
  8
PICKUP_ROUTE
 10
95.37699890136719
 20
15.239999771118164
 30
0.0
 11
88.09566497802734
 21
15.282333374023438
 31
0.0
  0
LINE
  5
392
  8
PICKUP_ROUTE
 10
88.09566497802734
 20
15.282333374023438
 30
0.0
 11
88.13800048828125
 21
121.20033264160156
 31
0.0
  0
LINE
  5
393
  8
JACK_ROUTE
 10
128.1006622314453
 20
208.19532775878906
 30
0.0
 11
128.18533325195312
 21
181.99099731445312
 31
0.0
  0
LINE
  5
394
  8
JACK_ROUTE
 10
128.18533325195312
 20
181.99099731445312
 30
0.0
 11
128.3546600341797
 21
185.8433380126953
 31
0.0
  0
LINE
  5
395
  8
JACK_ROUTE
 10
128.3546600341797
 20
185.8433380126953
 30
0.0
 11
131.14866638183594
 21
185.4199981689453
 31
0.0
  0
LINE
  5
396
  8
JACK_ROUTE
 10
131.14866638183594
 20
185.4199981689453
 30
0.0
 11
131.27566528320312
 21
185.80099487304688
 31
0.0
  0
LINE
  5
397
  8
JACK_ROUTE
 10
131.27566528320312
 20
185.80099487304688
 30
0.0
 11
173.3126678466797
 21
185.80099487304688
 31
0.0
  0
LINE
  5
398
  8
JACK_ROUTE
 10
173.3126678466797
 20
185.80099487304688
 30
0.0
 11
173.43966674804688
 21
185.4199981689453
 31
0.0
  0
LINE
  5
399
  8
JACK_ROUTE
 10
173.43966674804688
 20
185.4199981689453
 30
0.0
 11
176.1490020751953
 21
185.8433380126953
 31
0.0
  0
LINE
  5
39A
  8
JACK_ROUTE
 10
176.1490020751953
 20
185.8433380126953
 30
0.0
 11
176.1913299560547
 21
182.07566833496094
 31
0.0
  0
LINE
  5
39B
  8
JACK_ROUTE
 10
176.1913299560547
 20
182.07566833496094
 30
0.0
 11
176.4029998779297
 21
182.07566833496094
 31
0.0
  0
LINE
  5
39C
  8
JACK_ROUTE
 10
176.4029998779297
 20
182.07566833496094
 30
0.0
 11
176.3606719970703
 21
208.27999877929688
 31
0.0
  0
LINE
  5
39D
  8
JACK_ROUTE
 10
176.3606719970703
 20
208.27999877929688
 30
0.0
 11
176.1490020751953
 21
202.56500244140625
 31
0.0
  0
LINE
  5
39E
  8
JACK_ROUTE
 10
176.1490020751953
 20
202.56500244140625
 30
0.0
 11
173.43966674804688
 21
202.9883270263672
 31
0.0
  0
LINE
  5
39F
  8
JACK_ROUTE
 10
173.43966674804688
 20
202.9883270263672
 30
0.0
 11
173.3126678466797
 21
202.60733032226562
 31
0.0
  0
LINE
  5
3A0
  8
JACK_ROUTE
 10
173.3126678466797
 20
202.60733032226562
 30
0.0
 11
164.88833618164062
 21
202.60733032226562
 31
0.0
  0
LINE
  5
3A1
  8
JACK_ROUTE
 10
164.88833618164062
 20
202.60733032226562
 30
0.0
 11
164.76133728027344
 21
202.9883270263672
 31
0.0
  0
LINE
  5
3A2
  8
JACK_ROUTE
 10
164.76133728027344
 20
202.9883270263672
 30
0.0
 11
161.9673309326172
 21
202.56500244140625
 31
0.0
  0
LINE
  5
3A3
  8
JACK_ROUTE
 10
161.9673309326172
 20
202.56500244140625
 30
0.0
 11
161.88265991210938
 21
208.27999877929688
 31
0.0
  0
LINE
  5
3A4
  8
JACK_ROUTE
 10
161.88265991210938
 20
208.27999877929688
 30
0.0
 11
161.67100524902344
 21
202.64967346191406
 31
0.0
  0
LINE
  5
3A5
  8
JACK_ROUTE
 10
161.67100524902344
 20
202.64967346191406
 30
0.0
 11
158.8769989013672
 21
202.9883270263672
 31
0.0
  0
LINE
  5
3A6
  8
JACK_ROUTE
 10
158.8769989013672
 20
202.9883270263672
 30
0.0
 11
158.75
 21
202.69200134277344
 31
0.0
  0
LINE
  5
3A7
  8
JACK_ROUTE
 10
158.75
 20
202.69200134277344
 30
0.0
 11
145.8383331298828
 21
202.69200134277344
 31
0.0
  0
LINE
  5
3A8
  8
JACK_ROUTE
 10
145.8383331298828
 20
202.69200134277344
 30
0.0
 11
145.71133422851562
 21
202.9883270263672
 31
0.0
  0
LINE
  5
3A9
  8
JACK_ROUTE
 10
145.71133422851562
 20
202.9883270263672
 30
0.0
 11
142.91732788085938
 21
202.64967346191406
 31
0.0
  0
LINE
  5
3AA
  8
JACK_ROUTE
 10
142.91732788085938
 20
202.64967346191406
 30
0.0
 11
142.875
 21
208.19532775878906
 31
0.0
  0
LINE
  5
3AB
  8
JACK_ROUTE
 10
142.875
 20
208.19532775878906
 30
0.0
 11
142.663330078125
 21
208.19532775878906
 31
0.0
  0
LINE
  5
3AC
  8
JACK_ROUTE
 10
142.663330078125
 20
208.19532775878906
 30
0.0
 11
142.7480010986328
 21
198.6703338623047
 31
0.0
  0
LINE
  5
3AD
  8
JACK_ROUTE
 10
142.7480010986328
 20
198.6703338623047
 30
0.0
 11
142.91732788085938
 21
202.5226593017578
 31
0.0
  0
LINE
  5
3AE
  8
JACK_ROUTE
 10
142.91732788085938
 20
202.5226593017578
 30
0.0
 11
145.753662109375
 21
202.09933471679688
 31
0.0
  0
LINE
  5
3AF
  8
JACK_ROUTE
 10
145.753662109375
 20
202.09933471679688
 30
0.0
 11
145.8383331298828
 21
202.48033142089844
 31
0.0
  0
LINE
  5
3B0
  8
JACK_ROUTE
 10
145.8383331298828
 20
202.48033142089844
 30
0.0
 11
158.75
 21
202.48033142089844
 31
0.0
  0
LINE
  5
3B1
  8
JACK_ROUTE
 10
158.75
 20
202.48033142089844
 30
0.0
 11
158.8346710205078
 21
202.09933471679688
 31
0.0
  0
LINE
  5
3B2
  8
JACK_ROUTE
 10
158.8346710205078
 20
202.09933471679688
 30
0.0
 11
161.67100524902344
 21
202.5226593017578
 31
0.0
  0
LINE
  5
3B3
  8
JACK_ROUTE
 10
161.67100524902344
 20
202.5226593017578
 30
0.0
 11
161.79800415039062
 21
198.58566284179688
 31
0.0
  0
LINE
  5
3B4
  8
JACK_ROUTE
 10
161.79800415039062
 20
198.58566284179688
 30
0.0
 11
161.9673309326172
 21
202.43800354003906
 31
0.0
  0
LINE
  5
3B5
  8
JACK_ROUTE
 10
161.9673309326172
 20
202.43800354003906
 30
0.0
 11
164.8036651611328
 21
202.01466369628906
 31
0.0
  0
LINE
  5
3B6
  8
JACK_ROUTE
 10
164.8036651611328
 20
202.01466369628906
 30
0.0
 11
164.88833618164062
 21
202.39566040039062
 31
0.0
  0
LINE
  5
3B7
  8
JACK_ROUTE
 10
164.88833618164062
 20
202.39566040039062
 30
0.0
 11
173.3126678466797
 21
202.39566040039062
 31
0.0
  0
LINE
  5
3B8
  8
JACK_ROUTE
 10
173.3126678466797
 20
202.39566040039062
 30
0.0
 11
173.3973388671875
 21
202.01466369628906
 31
0.0
  0
LINE
  5
3B9
  8
JACK_ROUTE
 10
173.3973388671875
 20
202.01466369628906
 30
0.0
 11
176.1490020751953
 21
202.43800354003906
 31
0.0
  0
LINE
  5
3BA
  8
JACK_ROUTE
 10
176.1490020751953
 20
202.43800354003906
 30
0.0
 11
176.1490020751953
 21
185.9703369140625
 31
0.0
  0
LINE
  5
3BB
  8
JACK_ROUTE
 10
176.1490020751953
 20
185.9703369140625
 30
0.0
 11
173.3973388671875
 21
186.39366149902344
 31
0.0
  0
LINE
  5
3BC
  8
JACK_ROUTE
 10
173.3973388671875
 20
186.39366149902344
 30
0.0
 11
173.3126678466797
 21
186.01266479492188
 31
0.0
  0
LINE
  5
3BD
  8
JACK_ROUTE
 10
173.3126678466797
 20
186.01266479492188
 30
0.0
 11
131.27566528320312
 21
186.01266479492188
 31
0.0
  0
LINE
  5
3BE
  8
JACK_ROUTE
 10
131.27566528320312
 20
186.01266479492188
 30
0.0
 11
131.1909942626953
 21
186.39366149902344
 31
0.0
  0
LINE
  5
3BF
  8
JACK_ROUTE
 10
131.1909942626953
 20
186.39366149902344
 30
0.0
 11
128.3546600341797
 21
185.9703369140625
 31
0.0
  0
LINE
  5
3C0
  8
JACK_ROUTE
 10
128.3546600341797
 20
185.9703369140625
 30
0.0
 11
128.3123321533203
 21
208.19532775878906
 31
0.0
  0
LINE
  5
3C1
  8
JACK_ROUTE
 10
128.3123321533203
 20
208.19532775878906
 30
0.0
 11
128.1006622314453
 21
208.19532775878906
 31
0.0
  0
LINE
  5
3C2
  8
CONTROL_CAVITY
 10
53.974998474121094
 20
252.4759979248047
 30
0.0
 11
49.74166488647461
 21
250.19000244140625
 31
0.0
  0
LINE
  5
3C3
  8
CONTROL_CAVITY
 10
49.74166488647461
 20
250.19000244140625
 30
0.0
 11
46.31266784667969
 21
246.84567260742188
 31
0.0
  0
LINE
  5
3C4
  8
CONTROL_CAVITY
 10
46.31266784667969
 20
246.84567260742188
 30
0.0
 11
43.6879997253418
 21
242.8663330078125
 31
0.0
  0
LINE
  5
3C5
  8
CONTROL_CAVITY
 10
43.6879997253418
 20
242.8663330078125
 30
0.0
 11
41.82533264160156
 21
238.08267211914062
 31
0.0
  0
LINE
  5
3C6
  8
CONTROL_CAVITY
 10
41.82533264160156
 20
238.08267211914062
 30
0.0
 11
40.978668212890625
 21
233.8070068359375
 31
0.0
  0
LINE
  5
3C7
  8
CONTROL_CAVITY
 10
40.978668212890625
 20
233.8070068359375
 30
0.0
 11
41.063331604003906
 21
231.13999938964844
 31
0.0
  0
LINE
  5
3C8
  8
CONTROL_CAVITY
 10
41.063331604003906
 20
231.13999938964844
 30
0.0
 11
44.111331939697266
 21
217.33934020996094
 31
0.0
  0
LINE
  5
3C9
  8
CONTROL_CAVITY
 10
44.111331939697266
 20
217.33934020996094
 30
0.0
 11
44.365333557128906
 21
212.38633728027344
 31
0.0
  0
LINE
  5
3CA
  8
CONTROL_CAVITY
 10
44.365333557128906
 20
212.38633728027344
 30
0.0
 11
44.069000244140625
 21
210.31199645996094
 31
0.0
  0
LINE
  5
3CB
  8
CONTROL_CAVITY
 10
44.069000244140625
 20
210.31199645996094
 30
0.0
 11
42.672000885009766
 21
205.44366455078125
 31
0.0
  0
LINE
  5
3CC
  8
CONTROL_CAVITY
 10
42.672000885009766
 20
205.44366455078125
 30
0.0
 11
33.951332092285156
 21
188.5103302001953
 31
0.0
  0
LINE
  5
3CD
  8
CONTROL_CAVITY
 10
33.951332092285156
 20
188.5103302001953
 30
0.0
 11
31.242000579833984
 21
181.9063262939453
 31
0.0
  0
LINE
  5
3CE
  8
CONTROL_CAVITY
 10
31.242000579833984
 20
181.9063262939453
 30
0.0
 11
30.310667037963867
 21
177.24966430664062
 31
0.0
  0
LINE
  5
3CF
  8
CONTROL_CAVITY
 10
30.310667037963867
 20
177.24966430664062
 30
0.0
 11
30.310667037963867
 21
174.4980010986328
 31
0.0
  0
LINE
  5
3D0
  8
CONTROL_CAVITY
 10
30.310667037963867
 20
174.4980010986328
 30
0.0
 11
30.77633285522461
 21
170.13766479492188
 31
0.0
  0
LINE
  5
3D1
  8
CONTROL_CAVITY
 10
30.77633285522461
 20
170.13766479492188
 30
0.0
 11
31.411333084106445
 21
167.55532836914062
 31
0.0
  0
LINE
  5
3D2
  8
CONTROL_CAVITY
 10
31.411333084106445
 20
167.55532836914062
 30
0.0
 11
32.34266662597656
 21
165.18466186523438
 31
0.0
  0
LINE
  5
3D3
  8
CONTROL_CAVITY
 10
32.34266662597656
 20
165.18466186523438
 30
0.0
 11
34.628665924072266
 21
161.12066650390625
 31
0.0
  0
LINE
  5
3D4
  8
CONTROL_CAVITY
 10
34.628665924072266
 20
161.12066650390625
 30
0.0
 11
38.98899841308594
 21
155.5749969482422
 31
0.0
  0
LINE
  5
3D5
  8
CONTROL_CAVITY
 10
38.98899841308594
 20
155.5749969482422
 30
0.0
 11
40.85166549682617
 21
153.8816680908203
 31
0.0
  0
LINE
  5
3D6
  8
CONTROL_CAVITY
 10
40.85166549682617
 20
153.8816680908203
 30
0.0
 11
44.83100128173828
 21
151.17233276367188
 31
0.0
  0
LINE
  5
3D7
  8
CONTROL_CAVITY
 10
44.83100128173828
 20
151.17233276367188
 30
0.0
 11
49.31833267211914
 21
149.47900390625
 31
0.0
  0
LINE
  5
3D8
  8
CONTROL_CAVITY
 10
49.31833267211914
 20
149.47900390625
 30
0.0
 11
59.13966751098633
 21
147.4046630859375
 31
0.0
  0
LINE
  5
3D9
  8
CONTROL_CAVITY
 10
59.13966751098633
 20
147.4046630859375
 30
0.0
 11
75.69200134277344
 21
147.2776641845703
 31
0.0
  0
LINE
  5
3DA
  8
CONTROL_CAVITY
 10
75.69200134277344
 20
147.2776641845703
 30
0.0
 11
82.46533203125
 21
148.33599853515625
 31
0.0
  0
LINE
  5
3DB
  8
CONTROL_CAVITY
 10
82.46533203125
 20
148.33599853515625
 30
0.0
 11
89.57733154296875
 21
150.24099731445312
 31
0.0
  0
LINE
  5
3DC
  8
CONTROL_CAVITY
 10
89.57733154296875
 20
150.24099731445312
 30
0.0
 11
91.7786636352539
 21
151.17233276367188
 31
0.0
  0
LINE
  5
3DD
  8
CONTROL_CAVITY
 10
91.7786636352539
 20
151.17233276367188
 30
0.0
 11
95.75800323486328
 21
153.7969970703125
 31
0.0
  0
LINE
  5
3DE
  8
CONTROL_CAVITY
 10
95.75800323486328
 20
153.7969970703125
 30
0.0
 11
99.18699645996094
 21
157.3106689453125
 31
0.0
  0
LINE
  5
3DF
  8
CONTROL_CAVITY
 10
99.18699645996094
 20
157.3106689453125
 30
0.0
 11
102.06566619873047
 21
161.12066650390625
 31
0.0
  0
LINE
  5
3E0
  8
CONTROL_CAVITY
 10
102.06566619873047
 20
161.12066650390625
 30
0.0
 11
104.35166931152344
 21
165.35400390625
 31
0.0
  0
LINE
  5
3E1
  8
CONTROL_CAVITY
 10
104.35166931152344
 20
165.35400390625
 30
0.0
 11
105.19833374023438
 21
167.55532836914062
 31
0.0
  0
LINE
  5
3E2
  8
CONTROL_CAVITY
 10
105.19833374023438
 20
167.55532836914062
 30
0.0
 11
106.1719970703125
 21
172.00033569335938
 31
0.0
  0
LINE
  5
3E3
  8
CONTROL_CAVITY
 10
106.1719970703125
 20
172.00033569335938
 30
0.0
 11
106.3836669921875
 21
174.4980010986328
 31
0.0
  0
LINE
  5
3E4
  8
CONTROL_CAVITY
 10
106.3836669921875
 20
174.4980010986328
 30
0.0
 11
106.00267028808594
 21
179.32400512695312
 31
0.0
  0
LINE
  5
3E5
  8
CONTROL_CAVITY
 10
106.00267028808594
 20
179.32400512695312
 30
0.0
 11
104.60566711425781
 21
184.107666015625
 31
0.0
  0
LINE
  5
3E6
  8
CONTROL_CAVITY
 10
104.60566711425781
 20
184.107666015625
 30
0.0
 11
102.65833282470703
 21
188.5103302001953
 31
0.0
  0
LINE
  5
3E7
  8
CONTROL_CAVITY
 10
102.65833282470703
 20
188.5103302001953
 30
0.0
 11
95.71566772460938
 21
201.4219970703125
 31
0.0
  0
LINE
  5
3E8
  8
CONTROL_CAVITY
 10
95.71566772460938
 20
201.4219970703125
 30
0.0
 11
93.93766784667969
 21
205.44366455078125
 31
0.0
  0
LINE
  5
3E9
  8
CONTROL_CAVITY
 10
93.93766784667969
 20
205.44366455078125
 30
0.0
 11
92.58300018310547
 21
210.05799865722656
 31
0.0
  0
LINE
  5
3EA
  8
CONTROL_CAVITY
 10
92.58300018310547
 20
210.05799865722656
 30
0.0
 11
92.24433135986328
 21
212.38633728027344
 31
0.0
  0
LINE
  5
3EB
  8
CONTROL_CAVITY
 10
92.24433135986328
 20
212.38633728027344
 30
0.0
 11
92.49833679199219
 21
217.33934020996094
 31
0.0
  0
LINE
  5
3EC
  8
CONTROL_CAVITY
 10
92.49833679199219
 20
217.33934020996094
 30
0.0
 11
95.63099670410156
 21
231.05532836914062
 31
0.0
  0
LINE
  5
3ED
  8
CONTROL_CAVITY
 10
95.63099670410156
 20
231.05532836914062
 30
0.0
 11
95.4193344116211
 21
235.79666137695312
 31
0.0
  0
LINE
  5
3EE
  8
CONTROL_CAVITY
 10
95.4193344116211
 20
235.79666137695312
 30
0.0
 11
94.78433227539062
 21
238.37899780273438
 31
0.0
  0
LINE
  5
3EF
  8
CONTROL_CAVITY
 10
94.78433227539062
 20
238.37899780273438
 30
0.0
 11
92.92166900634766
 21
242.8663330078125
 31
0.0
  0
LINE
  5
3F0
  8
CONTROL_CAVITY
 10
92.92166900634766
 20
242.8663330078125
 30
0.0
 11
90.38166809082031
 21
246.84567260742188
 31
0.0
  0
LINE
  5
3F1
  8
CONTROL_CAVITY
 10
90.38166809082031
 20
246.84567260742188
 30
0.0
 11
86.86799621582031
 21
250.19000244140625
 31
0.0
  0
LINE
  5
3F2
  8
CONTROL_CAVITY
 10
86.86799621582031
 20
250.19000244140625
 30
0.0
 11
82.6346664428711
 21
252.4759979248047
 31
0.0
  0
LINE
  5
3F3
  8
CONTROL_CAVITY
 10
82.6346664428711
 20
252.4759979248047
 30
0.0
 11
78.02033233642578
 21
253.49200439453125
 31
0.0
  0
LINE
  5
3F4
  8
CONTROL_CAVITY
 10
78.02033233642578
 20
253.49200439453125
 30
0.0
 11
60.917667388916016
 21
253.6613311767578
 31
0.0
  0
LINE
  5
3F5
  8
CONTROL_CAVITY
 10
60.917667388916016
 20
253.6613311767578
 30
0.0
 11
58.41999816894531
 21
253.4496612548828
 31
0.0
  0
LINE
  5
3F6
  8
CONTROL_CAVITY
 10
58.41999816894531
 20
253.4496612548828
 30
0.0
 11
53.974998474121094
 21
252.4759979248047
 31
0.0
  0
ENDSEC
  0
EOF
