  0
SECTION
  2
HEADER
  9
$ACADVER
  1
AC1009
  9
$DWGCODEPAGE
  3
ANSI_1252
  9
$INSBASE
 10
0.0
 20
0.0
 30
0.0
  9
$EXTMIN
 10
1e+20
 20
1e+20
 30
1e+20
  9
$EXTMAX
 10
-1e+20
 20
-1e+20
 30
-1e+20
  9
$LIMMIN
 10
0.0
 20
0.0
  9
$LIMMAX
 10
420.0
 20
297.0
  9
$ORTHOMODE
 70
0
  9
$REGENMODE
 70
1
  9
$FILLMODE
 70
1
  9
$DRAGMODE
 70
2
  9
$QTEXTMODE
 70
0
  9
$MIRRTEXT
 70
1
  9
$OSMODE
 70
20583
  9
$LTSCALE
 40
1.0
  9
$ATTMODE
 70
1
  9
$TEXTSIZE
 40
2.5
  9
$TRACEWID
 40
1.0
  9
$TEXTSTYLE
  7
Standard
  9
$CLAYER
  8
0
  9
$CELTYPE
  6
ByLayer
  9
$CECOLOR
 62
256
  9
$DIMSCALE
 40
1.0
  9
$DIMASZ
 40
2.5
  9
$DIMEXO
 40
0.625
  9
$DIMDLI
 40
3.75
  9
$DIMRND
 40
0.0
  9
$DIMDLE
 40
0.0
  9
$DIMEXE
 40
1.25
  9
$DIMTP
 40
0.0
  9
$DIMTM
 40
0.0
  9
$DIMTXT
 40
2.5
  9
$DIMCEN
 40
2.5
  9
$DIMTSZ
 40
0.0
  9
$DIMTOL
 70
0
  9
$DIMLIM
 70
0
  9
$DIMTIH
 70
0
  9
$DIMTOH
 70
0
  9
$DIMSE1
 70
0
  9
$DIMSE2
 70
0
  9
$DIMTAD
 70
1
  9
$DIMZIN
 70
8
  9
$DIMBLK
  1

  9
$DIMASO
 70
1
  9
$DIMSHO
 70
1
  9
$DIMPOST
  1

  9
$DIMAPOST
  1

  9
$DIMALT
 70
0
  9
$DIMALTD
 70
3
  9
$DIMALTF
 40
0.03937007874
  9
$DIMLFAC
 40
1.0
  9
$DIMTOFL
 70
1
  9
$DIMTVP
 40
0.0
  9
$DIMTIX
 70
0
  9
$DIMSOXD
 70
0
  9
$DIMSAH
 70
0
  9
$DIMBLK1
  1

  9
$DIMBLK2
  1

  9
$DIMSTYLE
  2
ISO-25
  9
$DIMCLRD
 70
0
  9
$DIMCLRE
 70
0
  9
$DIMCLRT
 70
0
  9
$DIMTFAC
 40
1.0
  9
$DIMGAP
 40
0.625
  9
$COORDS
 70
1
  9
$ATTDIA
 70
0
  9
$ATTREQ
 70
1
  9
$HANDLING
 70
1
  9
$LUNITS
 70
2
  9
$LUPREC
 70
4
  9
$SKETCHINC
 40
1.0
  9
$FILLETRAD
 40
10.0
  9
$AUNITS
 70
0
  9
$AUPREC
 70
2
  9
$MENU
  1
.
  9
$ELEVATION
 40
0.0
  9
$PELEVATION
 40
0.0
  9
$THICKNESS
 40
0.0
  9
$LIMCHECK
 70
0
  9
$CHAMFERA
 40
0.0
  9
$CHAMFERB
 40
0.0
  9
$SKPOLY
 70
0
  9
$TDCREATE
 40
2461106.6791782407
  9
$TDUPDATE
 40
2461106.6791898147
  9
$TDINDWG
 40
0.0
  9
$TDUSRTIMER
 40
0.0
  9
$USRTIMER
 70
1
  9
$ANGBASE
 50
0.0
  9
$ANGDIR
 70
0
  9
$PDMODE
 70
0
  9
$PDSIZE
 40
0.0
  9
$PLINEWID
 40
0.0
  9
$SPLFRAME
 70
0
  9
$SPLINETYPE
 70
6
  9
$SPLINESEGS
 70
8
  9
$HANDSEED
  5
1E0
  9
$SURFTAB1
 70
6
  9
$SURFTAB2
 70
6
  9
$SURFTYPE
 70
6
  9
$SURFU
 70
6
  9
$SURFV
 70
6
  9
$UCSNAME
  2

  9
$UCSORG
 10
0.0
 20
0.0
 30
0.0
  9
$UCSXDIR
 10
1.0
 20
0.0
 30
0.0
  9
$UCSYDIR
 10
0.0
 20
1.0
 30
0.0
  9
$PUCSNAME
  2

  9
$PUCSORG
 10
0.0
 20
0.0
 30
0.0
  9
$PUCSXDIR
 10
1.0
 20
0.0
 30
0.0
  9
$PUCSYDIR
 10
0.0
 20
1.0
 30
0.0
  9
$USERI1
 70
0
  9
$USERI2
 70
0
  9
$USERI3
 70
0
  9
$USERI4
 70
0
  9
$USERI5
 70
0
  9
$USERR1
 40
0.0
  9
$USERR2
 40
0.0
  9
$USERR3
 40
0.0
  9
$USERR4
 40
0.0
  9
$USERR5
 40
0.0
  9
$WORLDVIEW
 70
1
  9
$SHADEDGE
 70
3
  9
$SHADEDIF
 70
70
  9
$TILEMODE
 70
1
  9
$MAXACTVP
 70
64
  9
$PLIMCHECK
 70
0
  9
$PEXTMIN
 10
1e+20
 20
1e+20
 30
1e+20
  9
$PEXTMAX
 10
-1e+20
 20
-1e+20
 30
-1e+20
  9
$PLIMMIN
 10
0.0
 20
0.0
  9
$PLIMMAX
 10
420.0
 20
297.0
  9
$UNITMODE
 70
0
  9
$VISRETAIN
 70
1
  9
$PLINEGEN
 70
0
  9
$PSLTSCALE
 70
1
  0
ENDSEC
  0
SECTION
  2
TABLES
  0
TABLE
  2
VPORT
 70
1
  0
VPORT
  5
23
  2
*Active
 70
0
 10
0.0
 20
0.0
 11
1.0
 21
1.0
 12
0.0
 22
0.0
 13
0.0
 23
0.0
 14
0.5
 24
0.5
 15
0.5
 25
0.5
 16
0.0
 26
0.0
 36
1.0
 17
0.0
 27
0.0
 37
0.0
 40
1000.0
 41
1.34
 42
50.0
 43
0.0
 44
0.0
 50
0.0
 51
0.0
 71
0
 72
1000
 73
1
 74
3
 75
0
 76
0
 77
0
 78
0
  0
ENDTAB
  0
TABLE
  2
LTYPE
 70
3
  0
LTYPE
  5
24
  2
ByBlock
 70
0
  3

 72
65
 73
0
 40
0.0
  0
LTYPE
  5
25
  2
ByLayer
 70
0
  3

 72
65
 73
0
 40
0.0
  0
LTYPE
  5
26
  2
Continuous
 70
0
  3

 72
65
 73
0
 40
0.0
  0
ENDTAB
  0
TABLE
  2
LAYER
 70
2
  0
LAYER
  5
27
  2
0
 70
0
 62
7
  6
Continuous
  0
LAYER
  5
28
  2
Defpoints
 70
0
 62
7
  6
Continuous
  0
ENDTAB
  0
TABLE
  2
STYLE
 70
1
  0
STYLE
  5
29
  2
Standard
 70
0
 40
0.0
 41
1.0
 50
0.0
 71
0
 42
2.5
  3
txt
  4

  0
ENDTAB
  0
TABLE
  2
VIEW
 70
0
  0
ENDTAB
  0
TABLE
  2
UCS
 70
0
  0
ENDTAB
  0
TABLE
  2
APPID
 70
3
  0
APPID
  5
2A
  2
ACAD
 70
0
  0
APPID
  5
1DE
  2
HATCHBACKGROUNDCOLOR
 70
0
  0
APPID
  5
1DF
  2
EZDXF
 70
0
  0
ENDTAB
  0
TABLE
  2
DIMSTYLE
 70
1
  0
DIMSTYLE
105
2B
  2
Standard
 70
0
  3

  4

  5

  6

  7

 40
1.0
 41
2.5
 42
0.625
 43
3.75
 44
1.25
 45
0.0
 46
0.0
 47
0.0
 48
0.0
140
2.5
141
2.5
142
0.0
143
0.03937007874
144
1.0
145
0.0
146
1.0
147
0.625
 71
0
 72
0
 73
0
 74
0
 75
0
 76
0
 77
1
 78
8
170
0
171
3
172
1
173
0
174
0
175
0
176
0
177
0
178
0
  0
ENDTAB
  0
ENDSEC
  0
SECTION
  2
BLOCKS
  0
BLOCK
  5
18
  8
0
  2
$Model_Space
 70
0
 10
0.0
 20
0.0
 30
0.0
  3
$Model_Space
  1

1001
EZDXF
1000
CREATED_BY_EZDXF
1000
1.4.3 @ 2026-03-06T22:18:01.480479+00:00
1000
WRITTEN_BY_EZDXF
1000
1.4.3 @ 2026-03-06T22:18:02.077056+00:00
  0
ENDBLK
  5
19
  8
0
  0
BLOCK
  5
1C
  8
0
  2
$Paper_Space
 70
0
 10
0.0
 20
0.0
 30
0.0
  3
$Paper_Space
  1

  0
ENDBLK
  5
1D
  8
0
  0
ENDSEC
  0
SECTION
  2
ENTITIES
  0
LINE
  5
2D
  8
SMALL_FEATURE
 10
181.5676727294922
 20
39.45466613769531
 30
0.0
 11
188.34100341796875
 21
39.49700164794922
 31
0.0
  0
LINE
  5
2E
  8
SMALL_FEATURE
 10
188.34100341796875
 20
39.49700164794922
 30
0.0
 11
188.5103302001953
 21
38.98899841308594
 31
0.0
  0
LINE
  5
2F
  8
SMALL_FEATURE
 10
188.5103302001953
 20
38.98899841308594
 30
0.0
 11
188.55267333984375
 21
39.49700164794922
 31
0.0
  0
LINE
  5
30
  8
SMALL_FEATURE
 10
188.55267333984375
 20
39.49700164794922
 30
0.0
 11
198.7550048828125
 21
39.49700164794922
 31
0.0
  0
LINE
  5
31
  8
SMALL_FEATURE
 10
198.7550048828125
 20
39.49700164794922
 30
0.0
 11
198.79733276367188
 21
24.595666885375977
 31
0.0
  0
LINE
  5
32
  8
SMALL_FEATURE
 10
198.79733276367188
 20
24.595666885375977
 30
0.0
 11
194.47933959960938
 21
24.553333282470703
 31
0.0
  0
LINE
  5
33
  8
SMALL_FEATURE
 10
194.47933959960938
 20
24.553333282470703
 30
0.0
 11
194.30999755859375
 21
24.849666595458984
 31
0.0
  0
LINE
  5
34
  8
SMALL_FEATURE
 10
194.30999755859375
 20
24.849666595458984
 30
0.0
 11
194.26766967773438
 21
24.553333282470703
 31
0.0
  0
LINE
  5
35
  8
SMALL_FEATURE
 10
194.26766967773438
 20
24.553333282470703
 30
0.0
 11
193.4633331298828
 21
24.553333282470703
 31
0.0
  0
LINE
  5
36
  8
SMALL_FEATURE
 10
193.4633331298828
 20
24.553333282470703
 30
0.0
 11
193.29400634765625
 21
24.849666595458984
 31
0.0
  0
LINE
  5
37
  8
SMALL_FEATURE
 10
193.29400634765625
 20
24.849666595458984
 30
0.0
 11
193.2516632080078
 21
24.553333282470703
 31
0.0
  0
LINE
  5
38
  8
SMALL_FEATURE
 10
193.2516632080078
 20
24.553333282470703
 30
0.0
 11
190.24600219726562
 21
24.553333282470703
 31
0.0
  0
LINE
  5
39
  8
SMALL_FEATURE
 10
190.24600219726562
 20
24.553333282470703
 30
0.0
 11
190.2036590576172
 21
24.849666595458984
 31
0.0
  0
LINE
  5
3A
  8
SMALL_FEATURE
 10
190.2036590576172
 20
24.849666595458984
 30
0.0
 11
189.56866455078125
 21
25.018999099731445
 31
0.0
  0
LINE
  5
3B
  8
SMALL_FEATURE
 10
189.56866455078125
 20
25.018999099731445
 30
0.0
 11
189.52633666992188
 21
24.553333282470703
 31
0.0
  0
LINE
  5
3C
  8
SMALL_FEATURE
 10
189.52633666992188
 20
24.553333282470703
 30
0.0
 11
181.61000061035156
 21
24.553333282470703
 31
0.0
  0
LINE
  5
3D
  8
SMALL_FEATURE
 10
181.61000061035156
 20
24.553333282470703
 30
0.0
 11
181.5676727294922
 21
39.45466613769531
 31
0.0
  0
LINE
  5
3E
  8
SMALL_FEATURE
 10
78.61299896240234
 20
252.98399353027344
 30
0.0
 11
79.84066772460938
 21
252.39132690429688
 31
0.0
  0
LINE
  5
3F
  8
SMALL_FEATURE
 10
79.84066772460938
 20
252.39132690429688
 30
0.0
 11
80.34866333007812
 21
251.16366577148438
 31
0.0
  0
LINE
  5
40
  8
SMALL_FEATURE
 10
80.34866333007812
 20
251.16366577148438
 30
0.0
 11
79.50199890136719
 21
230.54733276367188
 31
0.0
  0
LINE
  5
41
  8
SMALL_FEATURE
 10
79.50199890136719
 20
230.54733276367188
 30
0.0
 11
78.69766998291016
 21
229.10800170898438
 31
0.0
  0
LINE
  5
42
  8
SMALL_FEATURE
 10
78.69766998291016
 20
229.10800170898438
 30
0.0
 11
77.97799682617188
 21
228.7270050048828
 31
0.0
  0
LINE
  5
43
  8
SMALL_FEATURE
 10
77.97799682617188
 20
228.7270050048828
 30
0.0
 11
77.13133239746094
 21
228.7270050048828
 31
0.0
  0
LINE
  5
44
  8
SMALL_FEATURE
 10
77.13133239746094
 20
228.7270050048828
 30
0.0
 11
76.03067016601562
 21
229.44667053222656
 31
0.0
  0
LINE
  5
45
  8
SMALL_FEATURE
 10
76.03067016601562
 20
229.44667053222656
 30
0.0
 11
75.56500244140625
 21
230.6320037841797
 31
0.0
  0
LINE
  5
46
  8
SMALL_FEATURE
 10
75.56500244140625
 20
230.6320037841797
 30
0.0
 11
76.36933135986328
 21
250.6133270263672
 31
0.0
  0
LINE
  5
47
  8
SMALL_FEATURE
 10
76.36933135986328
 20
250.6133270263672
 30
0.0
 11
76.91967010498047
 21
252.39132690429688
 31
0.0
  0
LINE
  5
48
  8
SMALL_FEATURE
 10
76.91967010498047
 20
252.39132690429688
 30
0.0
 11
77.6816635131836
 21
252.8993377685547
 31
0.0
  0
LINE
  5
49
  8
SMALL_FEATURE
 10
77.6816635131836
 20
252.8993377685547
 30
0.0
 11
78.61299896240234
 21
252.98399353027344
 31
0.0
  0
LINE
  5
4A
  8
SMALL_FEATURE
 10
70.27333068847656
 20
252.94166564941406
 30
0.0
 11
70.95066833496094
 21
252.39132690429688
 31
0.0
  0
LINE
  5
4B
  8
SMALL_FEATURE
 10
70.95066833496094
 20
252.39132690429688
 30
0.0
 11
71.5009994506836
 21
250.6133270263672
 31
0.0
  0
LINE
  5
4C
  8
SMALL_FEATURE
 10
71.5009994506836
 20
250.6133270263672
 30
0.0
 11
72.26300048828125
 21
230.4203338623047
 31
0.0
  0
LINE
  5
4D
  8
SMALL_FEATURE
 10
72.26300048828125
 20
230.4203338623047
 30
0.0
 11
71.79733276367188
 21
229.40432739257812
 31
0.0
  0
LINE
  5
4E
  8
SMALL_FEATURE
 10
71.79733276367188
 20
229.40432739257812
 30
0.0
 11
70.61199951171875
 21
228.7270050048828
 31
0.0
  0
LINE
  5
4F
  8
SMALL_FEATURE
 10
70.61199951171875
 20
228.7270050048828
 30
0.0
 11
69.13033294677734
 21
229.15032958984375
 31
0.0
  0
LINE
  5
50
  8
SMALL_FEATURE
 10
69.13033294677734
 20
229.15032958984375
 30
0.0
 11
68.36833190917969
 21
230.54733276367188
 31
0.0
  0
LINE
  5
51
  8
SMALL_FEATURE
 10
68.36833190917969
 20
230.54733276367188
 30
0.0
 11
67.52166748046875
 21
251.16366577148438
 31
0.0
  0
LINE
  5
52
  8
SMALL_FEATURE
 10
67.52166748046875
 20
251.16366577148438
 30
0.0
 11
68.0719985961914
 21
252.3489990234375
 31
0.0
  0
LINE
  5
53
  8
SMALL_FEATURE
 10
68.0719985961914
 20
252.3489990234375
 30
0.0
 11
68.66466522216797
 21
252.8993377685547
 31
0.0
  0
LINE
  5
54
  8
SMALL_FEATURE
 10
68.66466522216797
 20
252.8993377685547
 30
0.0
 11
70.27333068847656
 21
252.94166564941406
 31
0.0
  0
LINE
  5
55
  8
SMALL_FEATURE
 10
185.29299926757812
 20
24.299333572387695
 30
0.0
 11
198.7550048828125
 21
24.34166717529297
 31
0.0
  0
LINE
  5
56
  8
SMALL_FEATURE
 10
198.7550048828125
 20
24.34166717529297
 30
0.0
 11
198.79733276367188
 21
17.82233238220215
 31
0.0
  0
LINE
  5
57
  8
SMALL_FEATURE
 10
198.79733276367188
 20
17.82233238220215
 30
0.0
 11
185.3353271484375
 21
17.780000686645508
 31
0.0
  0
LINE
  5
58
  8
SMALL_FEATURE
 10
185.3353271484375
 20
17.780000686645508
 30
0.0
 11
185.29299926757812
 21
24.299333572387695
 31
0.0
  0
LINE
  5
59
  8
SMALL_FEATURE
 10
79.4173355102539
 20
74.76066589355469
 30
0.0
 11
79.71366882324219
 21
51.35033416748047
 31
0.0
  0
LINE
  5
5A
  8
SMALL_FEATURE
 10
79.71366882324219
 20
51.35033416748047
 30
0.0
 11
75.94599914550781
 21
51.30799865722656
 31
0.0
  0
LINE
  5
5B
  8
SMALL_FEATURE
 10
75.94599914550781
 20
51.30799865722656
 30
0.0
 11
75.81900024414062
 21
73.57533264160156
 31
0.0
  0
LINE
  5
5C
  8
SMALL_FEATURE
 10
75.81900024414062
 20
73.57533264160156
 30
0.0
 11
79.4173355102539
 21
74.76066589355469
 31
0.0
  0
LINE
  5
5D
  8
SMALL_FEATURE
 10
68.49533081054688
 20
74.76066589355469
 30
0.0
 11
72.00900268554688
 21
73.57533264160156
 31
0.0
  0
LINE
  5
5E
  8
SMALL_FEATURE
 10
72.00900268554688
 20
73.57533264160156
 30
0.0
 11
71.88200378417969
 21
51.30799865722656
 31
0.0
  0
LINE
  5
5F
  8
SMALL_FEATURE
 10
71.88200378417969
 20
51.30799865722656
 30
0.0
 11
68.1989974975586
 21
51.35033416748047
 31
0.0
  0
LINE
  5
60
  8
SMALL_FEATURE
 10
68.1989974975586
 20
51.35033416748047
 30
0.0
 11
68.49533081054688
 21
74.76066589355469
 31
0.0
  0
LINE
  5
61
  8
SMALL_FEATURE
 10
72.17833709716797
 20
73.57533264160156
 30
0.0
 11
75.77666473388672
 21
73.53299713134766
 31
0.0
  0
LINE
  5
62
  8
SMALL_FEATURE
 10
75.77666473388672
 20
73.53299713134766
 30
0.0
 11
75.81900024414062
 21
51.30799865722656
 31
0.0
  0
LINE
  5
63
  8
SMALL_FEATURE
 10
75.81900024414062
 20
51.30799865722656
 30
0.0
 11
72.05133056640625
 21
51.35033416748047
 31
0.0
  0
LINE
  5
64
  8
SMALL_FEATURE
 10
72.05133056640625
 20
51.35033416748047
 30
0.0
 11
72.17833709716797
 21
73.57533264160156
 31
0.0
  0
LINE
  5
65
  8
SMALL_FEATURE
 10
73.82933044433594
 20
94.53033447265625
 30
0.0
 11
75.69200134277344
 21
94.31866455078125
 31
0.0
  0
LINE
  5
66
  8
SMALL_FEATURE
 10
75.69200134277344
 20
94.31866455078125
 30
0.0
 11
75.77666473388672
 21
75.94599914550781
 31
0.0
  0
LINE
  5
67
  8
SMALL_FEATURE
 10
75.77666473388672
 20
75.94599914550781
 30
0.0
 11
74.21033477783203
 21
75.69200134277344
 31
0.0
  0
LINE
  5
68
  8
SMALL_FEATURE
 10
74.21033477783203
 20
75.69200134277344
 30
0.0
 11
72.13600158691406
 21
75.94599914550781
 31
0.0
  0
LINE
  5
69
  8
SMALL_FEATURE
 10
72.13600158691406
 20
75.94599914550781
 30
0.0
 11
72.22066497802734
 21
94.31866455078125
 31
0.0
  0
LINE
  5
6A
  8
SMALL_FEATURE
 10
72.22066497802734
 20
94.31866455078125
 30
0.0
 11
73.82933044433594
 21
94.53033447265625
 31
0.0
  0
LINE
  5
6B
  8
SMALL_FEATURE
 10
75.77666473388672
 20
94.23400115966797
 30
0.0
 11
78.48600006103516
 21
93.38733673095703
 31
0.0
  0
LINE
  5
6C
  8
SMALL_FEATURE
 10
78.48600006103516
 20
93.38733673095703
 30
0.0
 11
79.29033660888672
 21
92.66766357421875
 31
0.0
  0
LINE
  5
6D
  8
SMALL_FEATURE
 10
79.29033660888672
 20
92.66766357421875
 30
0.0
 11
79.4173355102539
 21
77.47000122070312
 31
0.0
  0
LINE
  5
6E
  8
SMALL_FEATURE
 10
79.4173355102539
 20
77.47000122070312
 30
0.0
 11
76.3270034790039
 21
76.03067016601562
 31
0.0
  0
LINE
  5
6F
  8
SMALL_FEATURE
 10
76.3270034790039
 20
76.03067016601562
 30
0.0
 11
75.81900024414062
 21
76.072998046875
 31
0.0
  0
LINE
  5
70
  8
SMALL_FEATURE
 10
75.81900024414062
 20
76.072998046875
 30
0.0
 11
75.77666473388672
 21
94.23400115966797
 31
0.0
  0
LINE
  5
71
  8
SMALL_FEATURE
 10
71.62799835205078
 20
94.19166564941406
 30
0.0
 11
72.09366607666016
 21
94.14933013916016
 31
0.0
  0
LINE
  5
72
  8
SMALL_FEATURE
 10
72.09366607666016
 20
94.14933013916016
 30
0.0
 11
71.96666717529297
 21
76.03067016601562
 31
0.0
  0
LINE
  5
73
  8
SMALL_FEATURE
 10
71.96666717529297
 20
76.03067016601562
 30
0.0
 11
70.61199951171875
 21
76.3270034790039
 31
0.0
  0
LINE
  5
74
  8
SMALL_FEATURE
 10
70.61199951171875
 20
76.3270034790039
 30
0.0
 11
68.49533081054688
 21
77.47000122070312
 31
0.0
  0
LINE
  5
75
  8
SMALL_FEATURE
 10
68.49533081054688
 20
77.47000122070312
 30
0.0
 11
68.62232971191406
 21
92.66766357421875
 31
0.0
  0
LINE
  5
76
  8
SMALL_FEATURE
 10
68.62232971191406
 20
92.66766357421875
 30
0.0
 11
69.21499633789062
 21
93.26033020019531
 31
0.0
  0
LINE
  5
77
  8
SMALL_FEATURE
 10
69.21499633789062
 20
93.26033020019531
 30
0.0
 11
71.62799835205078
 21
94.19166564941406
 31
0.0
  0
LINE
  5
78
  8
SMALL_FEATURE
 10
82.677001953125
 20
51.05400085449219
 30
0.0
 11
93.51433563232422
 21
51.09633255004883
 31
0.0
  0
LINE
  5
79
  8
SMALL_FEATURE
 10
93.51433563232422
 20
51.09633255004883
 30
0.0
 11
93.5566635131836
 21
45.762332916259766
 31
0.0
  0
LINE
  5
7A
  8
SMALL_FEATURE
 10
93.5566635131836
 20
45.762332916259766
 30
0.0
 11
82.71932983398438
 21
45.720001220703125
 31
0.0
  0
LINE
  5
7B
  8
SMALL_FEATURE
 10
82.71932983398438
 20
45.720001220703125
 30
0.0
 11
82.677001953125
 21
51.05400085449219
 31
0.0
  0
LINE
  5
7C
  8
SMALL_FEATURE
 10
54.31366729736328
 20
51.05400085449219
 30
0.0
 11
65.1510009765625
 21
51.09633255004883
 31
0.0
  0
LINE
  5
7D
  8
SMALL_FEATURE
 10
65.1510009765625
 20
51.09633255004883
 30
0.0
 11
65.1933364868164
 21
45.762332916259766
 31
0.0
  0
LINE
  5
7E
  8
SMALL_FEATURE
 10
65.1933364868164
 20
45.762332916259766
 30
0.0
 11
54.35599899291992
 21
45.720001220703125
 31
0.0
  0
LINE
  5
7F
  8
SMALL_FEATURE
 10
54.35599899291992
 20
45.720001220703125
 30
0.0
 11
54.35599899291992
 21
50.24966812133789
 31
0.0
  0
LINE
  5
80
  8
SMALL_FEATURE
 10
54.35599899291992
 20
50.24966812133789
 30
0.0
 11
60.83300018310547
 21
50.37666702270508
 31
0.0
  0
LINE
  5
81
  8
SMALL_FEATURE
 10
60.83300018310547
 20
50.37666702270508
 30
0.0
 11
54.35599899291992
 21
50.461334228515625
 31
0.0
  0
LINE
  5
82
  8
SMALL_FEATURE
 10
54.35599899291992
 20
50.461334228515625
 30
0.0
 11
54.31366729736328
 21
51.05400085449219
 31
0.0
  0
LINE
  5
83
  8
SMALL_FEATURE
 10
185.29299926757812
 20
17.525999069213867
 30
0.0
 11
198.7550048828125
 21
17.56833267211914
 31
0.0
  0
LINE
  5
84
  8
SMALL_FEATURE
 10
198.7550048828125
 20
17.56833267211914
 30
0.0
 11
198.79733276367188
 21
13.58899974822998
 31
0.0
  0
LINE
  5
85
  8
SMALL_FEATURE
 10
198.79733276367188
 20
13.58899974822998
 30
0.0
 11
185.3353271484375
 21
13.546667098999023
 31
0.0
  0
LINE
  5
86
  8
SMALL_FEATURE
 10
185.3353271484375
 20
13.546667098999023
 30
0.0
 11
185.29299926757812
 21
17.525999069213867
 31
0.0
  0
LINE
  5
87
  8
SMALL_FEATURE
 10
185.29299926757812
 20
13.2926664352417
 30
0.0
 11
198.7550048828125
 21
13.335000038146973
 31
0.0
  0
LINE
  5
88
  8
SMALL_FEATURE
 10
198.7550048828125
 20
13.335000038146973
 30
0.0
 11
198.79733276367188
 21
9.440333366394043
 31
0.0
  0
LINE
  5
89
  8
SMALL_FEATURE
 10
198.79733276367188
 20
9.440333366394043
 30
0.0
 11
185.3353271484375
 21
9.39799976348877
 31
0.0
  0
LINE
  5
8A
  8
SMALL_FEATURE
 10
185.3353271484375
 20
9.39799976348877
 30
0.0
 11
185.29299926757812
 21
13.2926664352417
 31
0.0
  0
LINE
  5
8B
  8
SMALL_FEATURE
 10
79.5443344116211
 20
92.37133026123047
 30
0.0
 11
79.92533111572266
 21
92.37133026123047
 31
0.0
  0
LINE
  5
8C
  8
SMALL_FEATURE
 10
79.92533111572266
 20
92.37133026123047
 30
0.0
 11
80.77200317382812
 21
91.60933685302734
 31
0.0
  0
LINE
  5
8D
  8
SMALL_FEATURE
 10
80.77200317382812
 20
91.60933685302734
 30
0.0
 11
82.12666320800781
 21
89.78900146484375
 31
0.0
  0
LINE
  5
8E
  8
SMALL_FEATURE
 10
82.12666320800781
 20
89.78900146484375
 30
0.0
 11
82.8463363647461
 21
88.26499938964844
 31
0.0
  0
LINE
  5
8F
  8
SMALL_FEATURE
 10
82.8463363647461
 20
88.26499938964844
 30
0.0
 11
83.35433197021484
 21
85.68266296386719
 31
0.0
  0
LINE
  5
90
  8
SMALL_FEATURE
 10
83.35433197021484
 20
85.68266296386719
 30
0.0
 11
82.80400085449219
 21
81.83032989501953
 31
0.0
  0
LINE
  5
91
  8
SMALL_FEATURE
 10
82.80400085449219
 20
81.83032989501953
 30
0.0
 11
81.40699768066406
 21
79.29033660888672
 31
0.0
  0
LINE
  5
92
  8
SMALL_FEATURE
 10
81.40699768066406
 20
79.29033660888672
 30
0.0
 11
80.01000213623047
 21
77.85099792480469
 31
0.0
  0
LINE
  5
93
  8
SMALL_FEATURE
 10
80.01000213623047
 20
77.85099792480469
 30
0.0
 11
79.62899780273438
 21
77.8933334350586
 31
0.0
  0
LINE
  5
94
  8
SMALL_FEATURE
 10
79.62899780273438
 20
77.8933334350586
 30
0.0
 11
79.5443344116211
 21
92.37133026123047
 31
0.0
  0
LINE
  5
95
  8
SMALL_FEATURE
 10
67.94499969482422
 20
92.28666687011719
 30
0.0
 11
68.32599639892578
 21
92.24433135986328
 31
0.0
  0
LINE
  5
96
  8
SMALL_FEATURE
 10
68.32599639892578
 20
92.24433135986328
 30
0.0
 11
68.15666961669922
 21
77.97799682617188
 31
0.0
  0
LINE
  5
97
  8
SMALL_FEATURE
 10
68.15666961669922
 20
77.97799682617188
 30
0.0
 11
67.81800079345703
 21
77.97799682617188
 31
0.0
  0
LINE
  5
98
  8
SMALL_FEATURE
 10
67.81800079345703
 20
77.97799682617188
 30
0.0
 11
65.82833099365234
 21
80.34866333007812
 31
0.0
  0
LINE
  5
99
  8
SMALL_FEATURE
 10
65.82833099365234
 20
80.34866333007812
 30
0.0
 11
65.1086654663086
 21
81.95733642578125
 31
0.0
  0
LINE
  5
9A
  8
SMALL_FEATURE
 10
65.1086654663086
 20
81.95733642578125
 30
0.0
 11
64.55833435058594
 21
84.87833404541016
 31
0.0
  0
LINE
  5
9B
  8
SMALL_FEATURE
 10
64.55833435058594
 20
84.87833404541016
 30
0.0
 11
65.1933364868164
 21
88.47666931152344
 31
0.0
  0
LINE
  5
9C
  8
SMALL_FEATURE
 10
65.1933364868164
 20
88.47666931152344
 30
0.0
 11
66.67500305175781
 21
91.10133361816406
 31
0.0
  0
LINE
  5
9D
  8
SMALL_FEATURE
 10
66.67500305175781
 20
91.10133361816406
 30
0.0
 11
67.94499969482422
 21
92.28666687011719
 31
0.0
  0
LINE
  5
9E
  8
SMALL_FEATURE
 10
72.68633270263672
 20
219.0749969482422
 30
0.0
 11
75.26866912841797
 21
219.0326690673828
 31
0.0
  0
LINE
  5
9F
  8
SMALL_FEATURE
 10
75.26866912841797
 20
219.0326690673828
 30
0.0
 11
75.26866912841797
 21
209.8040008544922
 31
0.0
  0
LINE
  5
A0
  8
SMALL_FEATURE
 10
75.26866912841797
 20
209.8040008544922
 30
0.0
 11
72.60166931152344
 21
209.84632873535156
 31
0.0
  0
LINE
  5
A1
  8
SMALL_FEATURE
 10
72.60166931152344
 20
209.84632873535156
 30
0.0
 11
72.68633270263672
 21
219.0749969482422
 31
0.0
  0
LINE
  5
A2
  8
SMALL_FEATURE
 10
75.35333251953125
 20
219.0749969482422
 30
0.0
 11
77.8933334350586
 21
219.0326690673828
 31
0.0
  0
LINE
  5
A3
  8
SMALL_FEATURE
 10
77.8933334350586
 20
219.0326690673828
 30
0.0
 11
77.9356689453125
 21
209.8040008544922
 31
0.0
  0
LINE
  5
A4
  8
SMALL_FEATURE
 10
77.9356689453125
 20
209.8040008544922
 30
0.0
 11
75.35333251953125
 21
209.84632873535156
 31
0.0
  0
LINE
  5
A5
  8
SMALL_FEATURE
 10
75.35333251953125
 20
209.84632873535156
 30
0.0
 11
75.35333251953125
 21
219.0749969482422
 31
0.0
  0
LINE
  5
A6
  8
SMALL_FEATURE
 10
72.64399719238281
 20
209.5923309326172
 30
0.0
 11
75.31099700927734
 21
209.5500030517578
 31
0.0
  0
LINE
  5
A7
  8
SMALL_FEATURE
 10
75.31099700927734
 20
209.5500030517578
 30
0.0
 11
75.26866912841797
 21
200.82933044433594
 31
0.0
  0
LINE
  5
A8
  8
SMALL_FEATURE
 10
75.26866912841797
 20
200.82933044433594
 30
0.0
 11
72.60166931152344
 21
200.87167358398438
 31
0.0
  0
LINE
  5
A9
  8
SMALL_FEATURE
 10
72.60166931152344
 20
200.87167358398438
 30
0.0
 11
72.64399719238281
 21
209.5923309326172
 31
0.0
  0
LINE
  5
AA
  8
SMALL_FEATURE
 10
75.39566802978516
 20
209.5923309326172
 30
0.0
 11
78.02033233642578
 21
209.5500030517578
 31
0.0
  0
LINE
  5
AB
  8
SMALL_FEATURE
 10
78.02033233642578
 20
209.5500030517578
 30
0.0
 11
78.06266784667969
 21
200.82933044433594
 31
0.0
  0
LINE
  5
AC
  8
SMALL_FEATURE
 10
78.06266784667969
 20
200.82933044433594
 30
0.0
 11
75.35333251953125
 21
200.87167358398438
 31
0.0
  0
LINE
  5
AD
  8
SMALL_FEATURE
 10
75.35333251953125
 20
200.87167358398438
 30
0.0
 11
75.39566802978516
 21
209.5923309326172
 31
0.0
  0
LINE
  5
AE
  8
SMALL_FEATURE
 10
70.0616683959961
 20
219.0749969482422
 30
0.0
 11
72.51699829101562
 21
219.0326690673828
 31
0.0
  0
LINE
  5
AF
  8
SMALL_FEATURE
 10
72.51699829101562
 20
219.0326690673828
 30
0.0
 11
72.43233489990234
 21
209.8040008544922
 31
0.0
  0
LINE
  5
B0
  8
SMALL_FEATURE
 10
72.43233489990234
 20
209.8040008544922
 30
0.0
 11
69.9346694946289
 21
209.84632873535156
 31
0.0
  0
LINE
  5
B1
  8
SMALL_FEATURE
 10
69.9346694946289
 20
209.84632873535156
 30
0.0
 11
70.0616683959961
 21
219.0749969482422
 31
0.0
  0
LINE
  5
B2
  8
SMALL_FEATURE
 10
69.9346694946289
 20
209.5923309326172
 30
0.0
 11
72.47467041015625
 21
209.5500030517578
 31
0.0
  0
LINE
  5
B3
  8
SMALL_FEATURE
 10
72.47467041015625
 20
209.5500030517578
 30
0.0
 11
72.43233489990234
 21
200.82933044433594
 31
0.0
  0
LINE
  5
B4
  8
SMALL_FEATURE
 10
72.43233489990234
 20
200.82933044433594
 30
0.0
 11
69.80766296386719
 21
200.87167358398438
 31
0.0
  0
LINE
  5
B5
  8
SMALL_FEATURE
 10
69.80766296386719
 20
200.87167358398438
 30
0.0
 11
69.9346694946289
 21
209.5923309326172
 31
0.0
  0
LINE
  5
B6
  8
SMALL_FEATURE
 10
72.60166931152344
 20
200.61766052246094
 30
0.0
 11
75.35333251953125
 21
200.57533264160156
 31
0.0
  0
LINE
  5
B7
  8
SMALL_FEATURE
 10
75.35333251953125
 20
200.57533264160156
 30
0.0
 11
75.31099700927734
 21
192.44732666015625
 31
0.0
  0
LINE
  5
B8
  8
SMALL_FEATURE
 10
75.31099700927734
 20
192.44732666015625
 30
0.0
 11
72.55933380126953
 21
192.4896697998047
 31
0.0
  0
LINE
  5
B9
  8
SMALL_FEATURE
 10
72.55933380126953
 20
192.4896697998047
 30
0.0
 11
72.60166931152344
 21
200.61766052246094
 31
0.0
  0
LINE
  5
BA
  8
SMALL_FEATURE
 10
75.43800354003906
 20
200.61766052246094
 30
0.0
 11
78.1050033569336
 21
200.57533264160156
 31
0.0
  0
LINE
  5
BB
  8
SMALL_FEATURE
 10
78.1050033569336
 20
200.57533264160156
 30
0.0
 11
78.14733123779297
 21
192.44732666015625
 31
0.0
  0
LINE
  5
BC
  8
SMALL_FEATURE
 10
78.14733123779297
 20
192.44732666015625
 30
0.0
 11
75.39566802978516
 21
192.4896697998047
 31
0.0
  0
LINE
  5
BD
  8
SMALL_FEATURE
 10
75.39566802978516
 20
192.4896697998047
 30
0.0
 11
75.43800354003906
 21
200.61766052246094
 31
0.0
  0
LINE
  5
BE
  8
SMALL_FEATURE
 10
72.60166931152344
 20
192.2356719970703
 30
0.0
 11
75.35333251953125
 21
192.19332885742188
 31
0.0
  0
LINE
  5
BF
  8
SMALL_FEATURE
 10
75.35333251953125
 20
192.19332885742188
 30
0.0
 11
75.35333251953125
 21
184.4040069580078
 31
0.0
  0
LINE
  5
C0
  8
SMALL_FEATURE
 10
75.35333251953125
 20
184.4040069580078
 30
0.0
 11
72.51699829101562
 21
184.4463348388672
 31
0.0
  0
LINE
  5
C1
  8
SMALL_FEATURE
 10
72.51699829101562
 20
184.4463348388672
 30
0.0
 11
72.60166931152344
 21
192.2356719970703
 31
0.0
  0
LINE
  5
C2
  8
SMALL_FEATURE
 10
75.43800354003906
 20
192.2356719970703
 30
0.0
 11
78.18966674804688
 21
192.19332885742188
 31
0.0
  0
LINE
  5
C3
  8
SMALL_FEATURE
 10
78.18966674804688
 20
192.19332885742188
 30
0.0
 11
78.23200225830078
 21
184.4040069580078
 31
0.0
  0
LINE
  5
C4
  8
SMALL_FEATURE
 10
78.23200225830078
 20
184.4040069580078
 30
0.0
 11
75.43800354003906
 21
184.4463348388672
 31
0.0
  0
LINE
  5
C5
  8
SMALL_FEATURE
 10
75.43800354003906
 20
184.4463348388672
 30
0.0
 11
75.43800354003906
 21
192.2356719970703
 31
0.0
  0
LINE
  5
C6
  8
SMALL_FEATURE
 10
69.8499984741211
 20
200.61766052246094
 30
0.0
 11
72.43233489990234
 21
200.57533264160156
 31
0.0
  0
LINE
  5
C7
  8
SMALL_FEATURE
 10
72.43233489990234
 20
200.57533264160156
 30
0.0
 11
72.38999938964844
 21
192.44732666015625
 31
0.0
  0
LINE
  5
C8
  8
SMALL_FEATURE
 10
72.38999938964844
 20
192.44732666015625
 30
0.0
 11
69.7229995727539
 21
192.4896697998047
 31
0.0
  0
LINE
  5
C9
  8
SMALL_FEATURE
 10
69.7229995727539
 20
192.4896697998047
 30
0.0
 11
69.8499984741211
 21
200.61766052246094
 31
0.0
  0
LINE
  5
CA
  8
SMALL_FEATURE
 10
69.76533508300781
 20
192.2356719970703
 30
0.0
 11
72.43233489990234
 21
192.19332885742188
 31
0.0
  0
LINE
  5
CB
  8
SMALL_FEATURE
 10
72.43233489990234
 20
192.19332885742188
 30
0.0
 11
72.34766387939453
 21
184.4040069580078
 31
0.0
  0
LINE
  5
CC
  8
SMALL_FEATURE
 10
72.34766387939453
 20
184.4040069580078
 30
0.0
 11
69.63833618164062
 21
184.4463348388672
 31
0.0
  0
LINE
  5
CD
  8
SMALL_FEATURE
 10
69.63833618164062
 20
184.4463348388672
 30
0.0
 11
69.76533508300781
 21
192.2356719970703
 31
0.0
  0
LINE
  5
CE
  8
SMALL_FEATURE
 10
72.55933380126953
 20
184.1923370361328
 30
0.0
 11
75.39566802978516
 21
184.14999389648438
 31
0.0
  0
LINE
  5
CF
  8
SMALL_FEATURE
 10
75.39566802978516
 20
184.14999389648438
 30
0.0
 11
75.35333251953125
 21
176.95333862304688
 31
0.0
  0
LINE
  5
D0
  8
SMALL_FEATURE
 10
75.35333251953125
 20
176.95333862304688
 30
0.0
 11
72.51699829101562
 21
176.99566650390625
 31
0.0
  0
LINE
  5
D1
  8
SMALL_FEATURE
 10
72.51699829101562
 20
176.99566650390625
 30
0.0
 11
72.55933380126953
 21
184.1923370361328
 31
0.0
  0
LINE
  5
D2
  8
SMALL_FEATURE
 10
75.48033142089844
 20
184.1923370361328
 30
0.0
 11
78.27433013916016
 21
184.14999389648438
 31
0.0
  0
LINE
  5
D3
  8
SMALL_FEATURE
 10
78.27433013916016
 20
184.14999389648438
 30
0.0
 11
78.31666564941406
 21
176.95333862304688
 31
0.0
  0
LINE
  5
D4
  8
SMALL_FEATURE
 10
78.31666564941406
 20
176.95333862304688
 30
0.0
 11
75.43800354003906
 21
176.99566650390625
 31
0.0
  0
LINE
  5
D5
  8
SMALL_FEATURE
 10
75.43800354003906
 20
176.99566650390625
 30
0.0
 11
75.48033142089844
 21
184.1923370361328
 31
0.0
  0
LINE
  5
D6
  8
SMALL_FEATURE
 10
72.55933380126953
 20
176.74166870117188
 30
0.0
 11
75.39566802978516
 21
176.6993408203125
 31
0.0
  0
LINE
  5
D7
  8
SMALL_FEATURE
 10
75.39566802978516
 20
176.6993408203125
 30
0.0
 11
75.39566802978516
 21
169.84133911132812
 31
0.0
  0
LINE
  5
D8
  8
SMALL_FEATURE
 10
75.39566802978516
 20
169.84133911132812
 30
0.0
 11
72.47467041015625
 21
169.8836669921875
 31
0.0
  0
LINE
  5
D9
  8
SMALL_FEATURE
 10
72.47467041015625
 20
169.8836669921875
 30
0.0
 11
72.55933380126953
 21
176.74166870117188
 31
0.0
  0
LINE
  5
DA
  8
SMALL_FEATURE
 10
69.6806640625
 20
184.1923370361328
 30
0.0
 11
72.38999938964844
 21
184.14999389648438
 31
0.0
  0
LINE
  5
DB
  8
SMALL_FEATURE
 10
72.38999938964844
 20
184.14999389648438
 30
0.0
 11
72.34766387939453
 21
176.95333862304688
 31
0.0
  0
LINE
  5
DC
  8
SMALL_FEATURE
 10
72.34766387939453
 20
176.95333862304688
 30
0.0
 11
69.55366516113281
 21
176.99566650390625
 31
0.0
  0
LINE
  5
DD
  8
SMALL_FEATURE
 10
69.55366516113281
 20
176.99566650390625
 30
0.0
 11
69.6806640625
 21
184.1923370361328
 31
0.0
  0
LINE
  5
DE
  8
SMALL_FEATURE
 10
75.48033142089844
 20
176.74166870117188
 30
0.0
 11
78.35900115966797
 21
176.6993408203125
 31
0.0
  0
LINE
  5
DF
  8
SMALL_FEATURE
 10
78.35900115966797
 20
176.6993408203125
 30
0.0
 11
78.40133666992188
 21
169.84133911132812
 31
0.0
  0
LINE
  5
E0
  8
SMALL_FEATURE
 10
78.40133666992188
 20
169.84133911132812
 30
0.0
 11
75.48033142089844
 21
169.8836669921875
 31
0.0
  0
LINE
  5
E1
  8
SMALL_FEATURE
 10
75.48033142089844
 20
169.8836669921875
 30
0.0
 11
75.48033142089844
 21
176.74166870117188
 31
0.0
  0
LINE
  5
E2
  8
SMALL_FEATURE
 10
69.59600067138672
 20
176.74166870117188
 30
0.0
 11
72.38999938964844
 21
176.6993408203125
 31
0.0
  0
LINE
  5
E3
  8
SMALL_FEATURE
 10
72.38999938964844
 20
176.6993408203125
 30
0.0
 11
72.30533599853516
 21
169.84133911132812
 31
0.0
  0
LINE
  5
E4
  8
SMALL_FEATURE
 10
72.30533599853516
 20
169.84133911132812
 30
0.0
 11
69.46900177001953
 21
169.8836669921875
 31
0.0
  0
LINE
  5
E5
  8
SMALL_FEATURE
 10
69.46900177001953
 20
169.8836669921875
 30
0.0
 11
69.59600067138672
 21
176.74166870117188
 31
0.0
  0
LINE
  5
E6
  8
SMALL_FEATURE
 10
75.52266693115234
 20
169.62966918945312
 30
0.0
 11
78.44366455078125
 21
169.5873260498047
 31
0.0
  0
LINE
  5
E7
  8
SMALL_FEATURE
 10
78.44366455078125
 20
169.5873260498047
 30
0.0
 11
78.44366455078125
 21
163.1526641845703
 31
0.0
  0
LINE
  5
E8
  8
SMALL_FEATURE
 10
78.44366455078125
 20
163.1526641845703
 30
0.0
 11
75.52266693115234
 21
163.19500732421875
 31
0.0
  0
LINE
  5
E9
  8
SMALL_FEATURE
 10
75.52266693115234
 20
163.19500732421875
 30
0.0
 11
75.52266693115234
 21
169.62966918945312
 31
0.0
  0
LINE
  5
EA
  8
SMALL_FEATURE
 10
72.51699829101562
 20
169.62966918945312
 30
0.0
 11
75.43800354003906
 21
169.5873260498047
 31
0.0
  0
LINE
  5
EB
  8
SMALL_FEATURE
 10
75.43800354003906
 20
169.5873260498047
 30
0.0
 11
75.43800354003906
 21
163.1526641845703
 31
0.0
  0
LINE
  5
EC
  8
SMALL_FEATURE
 10
75.43800354003906
 20
163.1526641845703
 30
0.0
 11
72.43233489990234
 21
163.19500732421875
 31
0.0
  0
LINE
  5
ED
  8
SMALL_FEATURE
 10
72.43233489990234
 20
163.19500732421875
 30
0.0
 11
72.51699829101562
 21
169.62966918945312
 31
0.0
  0
LINE
  5
EE
  8
SMALL_FEATURE
 10
69.5113296508789
 20
169.62966918945312
 30
0.0
 11
72.34766387939453
 21
169.5873260498047
 31
0.0
  0
LINE
  5
EF
  8
SMALL_FEATURE
 10
72.34766387939453
 20
169.5873260498047
 30
0.0
 11
72.26300048828125
 21
163.1526641845703
 31
0.0
  0
LINE
  5
F0
  8
SMALL_FEATURE
 10
72.26300048828125
 20
163.1526641845703
 30
0.0
 11
69.42666625976562
 21
163.19500732421875
 31
0.0
  0
LINE
  5
F1
  8
SMALL_FEATURE
 10
69.42666625976562
 20
163.19500732421875
 30
0.0
 11
69.5113296508789
 21
169.62966918945312
 31
0.0
  0
LINE
  5
F2
  8
SMALL_FEATURE
 10
72.47467041015625
 20
162.9409942626953
 30
0.0
 11
75.48033142089844
 21
162.89866638183594
 31
0.0
  0
LINE
  5
F3
  8
SMALL_FEATURE
 10
75.48033142089844
 20
162.89866638183594
 30
0.0
 11
75.43800354003906
 21
156.80267333984375
 31
0.0
  0
LINE
  5
F4
  8
SMALL_FEATURE
 10
75.43800354003906
 20
156.80267333984375
 30
0.0
 11
72.43233489990234
 21
156.84500122070312
 31
0.0
  0
LINE
  5
F5
  8
SMALL_FEATURE
 10
72.43233489990234
 20
156.84500122070312
 30
0.0
 11
72.47467041015625
 21
162.9409942626953
 31
0.0
  0
LINE
  5
F6
  8
SMALL_FEATURE
 10
75.56500244140625
 20
162.9409942626953
 30
0.0
 11
78.48600006103516
 21
162.89866638183594
 31
0.0
  0
LINE
  5
F7
  8
SMALL_FEATURE
 10
78.48600006103516
 20
162.89866638183594
 30
0.0
 11
78.52833557128906
 21
156.80267333984375
 31
0.0
  0
LINE
  5
F8
  8
SMALL_FEATURE
 10
78.52833557128906
 20
156.80267333984375
 30
0.0
 11
75.52266693115234
 21
156.84500122070312
 31
0.0
  0
LINE
  5
F9
  8
SMALL_FEATURE
 10
75.52266693115234
 20
156.84500122070312
 30
0.0
 11
75.56500244140625
 21
162.9409942626953
 31
0.0
  0
LINE
  5
FA
  8
SMALL_FEATURE
 10
69.46900177001953
 20
162.9409942626953
 30
0.0
 11
72.30533599853516
 21
162.89866638183594
 31
0.0
  0
LINE
  5
FB
  8
SMALL_FEATURE
 10
72.30533599853516
 20
162.89866638183594
 30
0.0
 11
72.26300048828125
 21
156.80267333984375
 31
0.0
  0
LINE
  5
FC
  8
SMALL_FEATURE
 10
72.26300048828125
 20
156.80267333984375
 30
0.0
 11
69.34200286865234
 21
156.84500122070312
 31
0.0
  0
LINE
  5
FD
  8
SMALL_FEATURE
 10
69.34200286865234
 20
156.84500122070312
 30
0.0
 11
69.46900177001953
 21
162.9409942626953
 31
0.0
  0
LINE
  5
FE
  8
SMALL_FEATURE
 10
75.56500244140625
 20
156.59100341796875
 30
0.0
 11
78.57066345214844
 21
156.5486602783203
 31
0.0
  0
LINE
  5
FF
  8
SMALL_FEATURE
 10
78.57066345214844
 20
156.5486602783203
 30
0.0
 11
78.57066345214844
 21
150.7913360595703
 31
0.0
  0
LINE
  5
100
  8
SMALL_FEATURE
 10
78.57066345214844
 20
150.7913360595703
 30
0.0
 11
75.56500244140625
 21
150.8336639404297
 31
0.0
  0
LINE
  5
101
  8
SMALL_FEATURE
 10
75.56500244140625
 20
150.8336639404297
 30
0.0
 11
75.56500244140625
 21
156.59100341796875
 31
0.0
  0
LINE
  5
102
  8
SMALL_FEATURE
 10
72.47467041015625
 20
156.59100341796875
 30
0.0
 11
75.48033142089844
 21
156.5486602783203
 31
0.0
  0
LINE
  5
103
  8
SMALL_FEATURE
 10
75.48033142089844
 20
156.5486602783203
 30
0.0
 11
75.48033142089844
 21
150.7913360595703
 31
0.0
  0
LINE
  5
104
  8
SMALL_FEATURE
 10
75.48033142089844
 20
150.7913360595703
 30
0.0
 11
72.38999938964844
 21
150.8336639404297
 31
0.0
  0
LINE
  5
105
  8
SMALL_FEATURE
 10
72.38999938964844
 20
150.8336639404297
 30
0.0
 11
72.47467041015625
 21
156.59100341796875
 31
0.0
  0
LINE
  5
106
  8
SMALL_FEATURE
 10
69.38433074951172
 20
156.59100341796875
 30
0.0
 11
72.30533599853516
 21
156.5486602783203
 31
0.0
  0
LINE
  5
107
  8
SMALL_FEATURE
 10
72.30533599853516
 20
156.5486602783203
 30
0.0
 11
72.22066497802734
 21
150.7913360595703
 31
0.0
  0
LINE
  5
108
  8
SMALL_FEATURE
 10
72.22066497802734
 20
150.7913360595703
 30
0.0
 11
69.29966735839844
 21
150.8336639404297
 31
0.0
  0
LINE
  5
109
  8
SMALL_FEATURE
 10
69.29966735839844
 20
150.8336639404297
 30
0.0
 11
69.38433074951172
 21
156.59100341796875
 31
0.0
  0
LINE
  5
10A
  8
SMALL_FEATURE
 10
78.14733123779297
 20
219.0749969482422
 30
0.0
 11
79.96766662597656
 21
219.0326690673828
 31
0.0
  0
LINE
  5
10B
  8
SMALL_FEATURE
 10
79.96766662597656
 20
219.0326690673828
 30
0.0
 11
80.01000213623047
 21
209.8040008544922
 31
0.0
  0
LINE
  5
10C
  8
SMALL_FEATURE
 10
80.01000213623047
 20
209.8040008544922
 30
0.0
 11
78.18966674804688
 21
209.84632873535156
 31
0.0
  0
LINE
  5
10D
  8
SMALL_FEATURE
 10
78.18966674804688
 20
209.84632873535156
 30
0.0
 11
78.14733123779297
 21
219.0749969482422
 31
0.0
  0
LINE
  5
10E
  8
SMALL_FEATURE
 10
67.94499969482422
 20
219.0749969482422
 30
0.0
 11
69.7229995727539
 21
219.0326690673828
 31
0.0
  0
LINE
  5
10F
  8
SMALL_FEATURE
 10
69.7229995727539
 20
219.0326690673828
 30
0.0
 11
69.59600067138672
 21
209.8040008544922
 31
0.0
  0
LINE
  5
110
  8
SMALL_FEATURE
 10
69.59600067138672
 20
209.8040008544922
 30
0.0
 11
67.81800079345703
 21
209.84632873535156
 31
0.0
  0
LINE
  5
111
  8
SMALL_FEATURE
 10
67.81800079345703
 20
209.84632873535156
 30
0.0
 11
67.94499969482422
 21
219.0749969482422
 31
0.0
  0
LINE
  5
112
  8
SMALL_FEATURE
 10
72.43233489990234
 20
150.5796661376953
 30
0.0
 11
75.52266693115234
 21
150.53733825683594
 31
0.0
  0
LINE
  5
113
  8
SMALL_FEATURE
 10
75.52266693115234
 20
150.53733825683594
 30
0.0
 11
75.48033142089844
 21
145.20333862304688
 31
0.0
  0
LINE
  5
114
  8
SMALL_FEATURE
 10
75.48033142089844
 20
145.20333862304688
 30
0.0
 11
72.38999938964844
 21
145.24566650390625
 31
0.0
  0
LINE
  5
115
  8
SMALL_FEATURE
 10
72.38999938964844
 20
145.24566650390625
 30
0.0
 11
72.43233489990234
 21
150.5796661376953
 31
0.0
  0
LINE
  5
116
  8
SMALL_FEATURE
 10
75.60733032226562
 20
150.5796661376953
 30
0.0
 11
78.65533447265625
 21
150.53733825683594
 31
0.0
  0
LINE
  5
117
  8
SMALL_FEATURE
 10
78.65533447265625
 20
150.53733825683594
 30
0.0
 11
78.65533447265625
 21
145.20333862304688
 31
0.0
  0
LINE
  5
118
  8
SMALL_FEATURE
 10
78.65533447265625
 20
145.20333862304688
 30
0.0
 11
75.56500244140625
 21
145.24566650390625
 31
0.0
  0
LINE
  5
119
  8
SMALL_FEATURE
 10
75.56500244140625
 20
145.24566650390625
 30
0.0
 11
75.60733032226562
 21
150.5796661376953
 31
0.0
  0
LINE
  5
11A
  8
SMALL_FEATURE
 10
78.27433013916016
 20
209.5923309326172
 30
0.0
 11
80.05233001708984
 21
209.5500030517578
 31
0.0
  0
LINE
  5
11B
  8
SMALL_FEATURE
 10
80.05233001708984
 20
209.5500030517578
 30
0.0
 11
80.09466552734375
 21
200.82933044433594
 31
0.0
  0
LINE
  5
11C
  8
SMALL_FEATURE
 10
80.09466552734375
 20
200.82933044433594
 30
0.0
 11
78.31666564941406
 21
200.87167358398438
 31
0.0
  0
LINE
  5
11D
  8
SMALL_FEATURE
 10
78.31666564941406
 20
200.87167358398438
 30
0.0
 11
78.27433013916016
 21
209.5923309326172
 31
0.0
  0
LINE
  5
11E
  8
SMALL_FEATURE
 10
69.29966735839844
 20
150.5796661376953
 30
0.0
 11
72.26300048828125
 21
150.53733825683594
 31
0.0
  0
LINE
  5
11F
  8
SMALL_FEATURE
 10
72.26300048828125
 20
150.53733825683594
 30
0.0
 11
72.22066497802734
 21
145.20333862304688
 31
0.0
  0
LINE
  5
120
  8
SMALL_FEATURE
 10
72.22066497802734
 20
145.20333862304688
 30
0.0
 11
69.21499633789062
 21
145.24566650390625
 31
0.0
  0
LINE
  5
121
  8
SMALL_FEATURE
 10
69.21499633789062
 20
145.24566650390625
 30
0.0
 11
69.29966735839844
 21
150.5796661376953
 31
0.0
  0
LINE
  5
122
  8
SMALL_FEATURE
 10
75.60733032226562
 20
144.99166870117188
 30
0.0
 11
78.69766998291016
 21
144.9493408203125
 31
0.0
  0
LINE
  5
123
  8
SMALL_FEATURE
 10
78.69766998291016
 20
144.9493408203125
 30
0.0
 11
78.69766998291016
 21
139.8693389892578
 31
0.0
  0
LINE
  5
124
  8
SMALL_FEATURE
 10
78.69766998291016
 20
139.8693389892578
 30
0.0
 11
75.56500244140625
 21
139.9116668701172
 31
0.0
  0
LINE
  5
125
  8
SMALL_FEATURE
 10
75.56500244140625
 20
139.9116668701172
 30
0.0
 11
75.60733032226562
 21
144.99166870117188
 31
0.0
  0
LINE
  5
126
  8
BRIDGE_ROUTE
 10
131.10633850097656
 20
9.440333366394043
 30
0.0
 11
131.14866638183594
 21
41.020999908447266
 31
0.0
  0
LINE
  5
127
  8
BRIDGE_ROUTE
 10
131.14866638183594
 20
41.020999908447266
 30
0.0
 11
198.79733276367188
 21
40.978668212890625
 31
0.0
  0
LINE
  5
128
  8
BRIDGE_ROUTE
 10
198.79733276367188
 20
40.978668212890625
 30
0.0
 11
198.7550048828125
 21
39.70866775512695
 31
0.0
  0
LINE
  5
129
  8
BRIDGE_ROUTE
 10
198.7550048828125
 20
39.70866775512695
 30
0.0
 11
132.50332641601562
 21
39.70866775512695
 31
0.0
  0
LINE
  5
12A
  8
BRIDGE_ROUTE
 10
132.50332641601562
 20
39.70866775512695
 30
0.0
 11
132.41867065429688
 21
9.440333366394043
 31
0.0
  0
LINE
  5
12B
  8
BRIDGE_ROUTE
 10
132.41867065429688
 20
9.440333366394043
 30
0.0
 11
131.10633850097656
 21
9.440333366394043
 31
0.0
  0
LINE
  5
12C
  8
RHYTHM_CIRCUIT
 10
72.68633270263672
 20
262.7206726074219
 30
0.0
 11
71.20466613769531
 21
260.1383361816406
 31
0.0
  0
LINE
  5
12D
  8
RHYTHM_CIRCUIT
 10
71.20466613769531
 20
260.1383361816406
 30
0.0
 11
68.83399963378906
 21
258.23333740234375
 31
0.0
  0
LINE
  5
12E
  8
RHYTHM_CIRCUIT
 10
68.83399963378906
 20
258.23333740234375
 30
0.0
 11
67.26766967773438
 21
257.6830139160156
 31
0.0
  0
LINE
  5
12F
  8
RHYTHM_CIRCUIT
 10
67.26766967773438
 20
257.6830139160156
 30
0.0
 11
64.34666442871094
 21
257.4289855957031
 31
0.0
  0
LINE
  5
130
  8
RHYTHM_CIRCUIT
 10
64.34666442871094
 20
257.4289855957031
 30
0.0
 11
65.61666870117188
 21
226.22933959960938
 31
0.0
  0
LINE
  5
131
  8
RHYTHM_CIRCUIT
 10
65.61666870117188
 20
226.22933959960938
 30
0.0
 11
67.18299865722656
 21
224.2396697998047
 31
0.0
  0
LINE
  5
132
  8
RHYTHM_CIRCUIT
 10
67.18299865722656
 20
224.2396697998047
 30
0.0
 11
67.86033630371094
 21
222.038330078125
 31
0.0
  0
LINE
  5
133
  8
RHYTHM_CIRCUIT
 10
67.86033630371094
 20
222.038330078125
 30
0.0
 11
66.7596664428711
 21
121.41200256347656
 31
0.0
  0
LINE
  5
134
  8
RHYTHM_CIRCUIT
 10
66.7596664428711
 20
121.41200256347656
 30
0.0
 11
62.39933395385742
 21
120.90399932861328
 31
0.0
  0
LINE
  5
135
  8
RHYTHM_CIRCUIT
 10
62.39933395385742
 20
120.90399932861328
 30
0.0
 11
59.986331939697266
 21
120.26899719238281
 31
0.0
  0
LINE
  5
136
  8
RHYTHM_CIRCUIT
 10
59.986331939697266
 20
120.26899719238281
 30
0.0
 11
55.880001068115234
 21
118.27933502197266
 31
0.0
  0
LINE
  5
137
  8
RHYTHM_CIRCUIT
 10
55.880001068115234
 20
118.27933502197266
 30
0.0
 11
52.3663330078125
 21
115.14666748046875
 31
0.0
  0
LINE
  5
138
  8
RHYTHM_CIRCUIT
 10
52.3663330078125
 20
115.14666748046875
 30
0.0
 11
49.86866760253906
 21
111.59066772460938
 31
0.0
  0
LINE
  5
139
  8
RHYTHM_CIRCUIT
 10
49.86866760253906
 20
111.59066772460938
 30
0.0
 11
48.72566604614258
 21
109.3046646118164
 31
0.0
  0
LINE
  5
13A
  8
RHYTHM_CIRCUIT
 10
48.72566604614258
 20
109.3046646118164
 30
0.0
 11
47.20166778564453
 21
104.85966491699219
 31
0.0
  0
LINE
  5
13B
  8
RHYTHM_CIRCUIT
 10
47.20166778564453
 20
104.85966491699219
 30
0.0
 11
46.60900115966797
 21
100.41466522216797
 31
0.0
  0
LINE
  5
13C
  8
RHYTHM_CIRCUIT
 10
46.60900115966797
 20
100.41466522216797
 30
0.0
 11
47.117000579833984
 21
96.01200103759766
 31
0.0
  0
LINE
  5
13D
  8
RHYTHM_CIRCUIT
 10
47.117000579833984
 20
96.01200103759766
 30
0.0
 11
49.86866760253906
 21
84.70899963378906
 31
0.0
  0
LINE
  5
13E
  8
RHYTHM_CIRCUIT
 10
49.86866760253906
 20
84.70899963378906
 30
0.0
 11
49.99566650390625
 21
80.30633544921875
 31
0.0
  0
LINE
  5
13F
  8
RHYTHM_CIRCUIT
 10
49.99566650390625
 20
80.30633544921875
 30
0.0
 11
49.14899826049805
 21
75.64966583251953
 31
0.0
  0
LINE
  5
140
  8
RHYTHM_CIRCUIT
 10
49.14899826049805
 20
75.64966583251953
 30
0.0
 11
46.7783317565918
 21
69.55366516113281
 31
0.0
  0
LINE
  5
141
  8
RHYTHM_CIRCUIT
 10
46.7783317565918
 20
69.55366516113281
 30
0.0
 11
39.83566665649414
 21
56.641998291015625
 31
0.0
  0
LINE
  5
142
  8
RHYTHM_CIRCUIT
 10
39.83566665649414
 20
56.641998291015625
 30
0.0
 11
37.253334045410156
 21
50.461334228515625
 31
0.0
  0
LINE
  5
143
  8
RHYTHM_CIRCUIT
 10
37.253334045410156
 20
50.461334228515625
 30
0.0
 11
33.44333267211914
 21
50.503665924072266
 31
0.0
  0
LINE
  5
144
  8
RHYTHM_CIRCUIT
 10
33.44333267211914
 20
50.503665924072266
 30
0.0
 11
33.86666488647461
 21
53.255332946777344
 31
0.0
  0
LINE
  5
145
  8
RHYTHM_CIRCUIT
 10
33.86666488647461
 20
53.255332946777344
 30
0.0
 11
33.48566818237305
 21
53.34000015258789
 31
0.0
  0
LINE
  5
146
  8
RHYTHM_CIRCUIT
 10
33.48566818237305
 20
53.34000015258789
 30
0.0
 11
33.48566818237305
 21
216.11166381835938
 31
0.0
  0
LINE
  5
147
  8
RHYTHM_CIRCUIT
 10
33.48566818237305
 20
216.11166381835938
 30
0.0
 11
33.86666488647461
 21
216.23866271972656
 31
0.0
  0
LINE
  5
148
  8
RHYTHM_CIRCUIT
 10
33.86666488647461
 20
216.23866271972656
 30
0.0
 11
33.44333267211914
 21
219.0326690673828
 31
0.0
  0
LINE
  5
149
  8
RHYTHM_CIRCUIT
 10
33.44333267211914
 20
219.0326690673828
 30
0.0
 11
50.41899871826172
 21
219.0326690673828
 31
0.0
  0
LINE
  5
14A
  8
RHYTHM_CIRCUIT
 10
50.41899871826172
 20
219.0326690673828
 30
0.0
 11
49.99566650390625
 21
216.1963348388672
 31
0.0
  0
LINE
  5
14B
  8
RHYTHM_CIRCUIT
 10
49.99566650390625
 20
216.1963348388672
 30
0.0
 11
50.37666702270508
 21
216.11166381835938
 31
0.0
  0
LINE
  5
14C
  8
RHYTHM_CIRCUIT
 10
50.37666702270508
 20
216.11166381835938
 30
0.0
 11
50.37666702270508
 21
137.8373260498047
 31
0.0
  0
LINE
  5
14D
  8
RHYTHM_CIRCUIT
 10
50.37666702270508
 20
137.8373260498047
 30
0.0
 11
49.99566650390625
 21
137.75267028808594
 31
0.0
  0
LINE
  5
14E
  8
RHYTHM_CIRCUIT
 10
49.99566650390625
 20
137.75267028808594
 30
0.0
 11
50.41899871826172
 21
134.9163360595703
 31
0.0
  0
LINE
  5
14F
  8
RHYTHM_CIRCUIT
 10
50.41899871826172
 20
134.9163360595703
 30
0.0
 11
46.56666564941406
 21
134.7469940185547
 31
0.0
  0
LINE
  5
150
  8
RHYTHM_CIRCUIT
 10
46.56666564941406
 20
134.7469940185547
 30
0.0
 11
62.44166564941406
 21
134.66233825683594
 31
0.0
  0
LINE
  5
151
  8
RHYTHM_CIRCUIT
 10
62.44166564941406
 20
134.66233825683594
 30
0.0
 11
62.44166564941406
 21
134.87399291992188
 31
0.0
  0
LINE
  5
152
  8
RHYTHM_CIRCUIT
 10
62.44166564941406
 20
134.87399291992188
 30
0.0
 11
50.54600143432617
 21
134.9163360595703
 31
0.0
  0
LINE
  5
153
  8
RHYTHM_CIRCUIT
 10
50.54600143432617
 20
134.9163360595703
 30
0.0
 11
50.96933364868164
 21
137.75267028808594
 31
0.0
  0
LINE
  5
154
  8
RHYTHM_CIRCUIT
 10
50.96933364868164
 20
137.75267028808594
 30
0.0
 11
50.58833312988281
 21
137.8373260498047
 31
0.0
  0
LINE
  5
155
  8
RHYTHM_CIRCUIT
 10
50.58833312988281
 20
137.8373260498047
 30
0.0
 11
50.58833312988281
 21
216.11166381835938
 31
0.0
  0
LINE
  5
156
  8
RHYTHM_CIRCUIT
 10
50.58833312988281
 20
216.11166381835938
 30
0.0
 11
50.96933364868164
 21
216.1963348388672
 31
0.0
  0
LINE
  5
157
  8
RHYTHM_CIRCUIT
 10
50.96933364868164
 20
216.1963348388672
 30
0.0
 11
50.54600143432617
 21
219.0326690673828
 31
0.0
  0
LINE
  5
158
  8
RHYTHM_CIRCUIT
 10
50.54600143432617
 20
219.0326690673828
 30
0.0
 11
63.45766830444336
 21
219.20199584960938
 31
0.0
  0
LINE
  5
159
  8
RHYTHM_CIRCUIT
 10
63.45766830444336
 20
219.20199584960938
 30
0.0
 11
29.54866600036621
 21
219.20199584960938
 31
0.0
  0
LINE
  5
15A
  8
RHYTHM_CIRCUIT
 10
29.54866600036621
 20
219.20199584960938
 30
0.0
 11
33.31633377075195
 21
219.0326690673828
 31
0.0
  0
LINE
  5
15B
  8
RHYTHM_CIRCUIT
 10
33.31633377075195
 20
219.0326690673828
 30
0.0
 11
32.893001556396484
 21
216.1963348388672
 31
0.0
  0
LINE
  5
15C
  8
RHYTHM_CIRCUIT
 10
32.893001556396484
 20
216.1963348388672
 30
0.0
 11
33.27399826049805
 21
216.11166381835938
 31
0.0
  0
LINE
  5
15D
  8
RHYTHM_CIRCUIT
 10
33.27399826049805
 20
216.11166381835938
 30
0.0
 11
33.27399826049805
 21
53.34000015258789
 31
0.0
  0
LINE
  5
15E
  8
RHYTHM_CIRCUIT
 10
33.27399826049805
 20
53.34000015258789
 30
0.0
 11
32.893001556396484
 21
53.255332946777344
 31
0.0
  0
LINE
  5
15F
  8
RHYTHM_CIRCUIT
 10
32.893001556396484
 20
53.255332946777344
 30
0.0
 11
33.31633377075195
 21
50.503665924072266
 31
0.0
  0
LINE
  5
160
  8
RHYTHM_CIRCUIT
 10
33.31633377075195
 20
50.503665924072266
 30
0.0
 11
29.54866600036621
 21
50.33433151245117
 31
0.0
  0
LINE
  5
161
  8
RHYTHM_CIRCUIT
 10
29.54866600036621
 20
50.33433151245117
 30
0.0
 11
37.04166793823242
 21
50.207332611083984
 31
0.0
  0
LINE
  5
162
  8
RHYTHM_CIRCUIT
 10
37.04166793823242
 20
50.207332611083984
 30
0.0
 11
35.941001892089844
 21
44.746334075927734
 31
0.0
  0
LINE
  5
163
  8
RHYTHM_CIRCUIT
 10
35.941001892089844
 20
44.746334075927734
 30
0.0
 11
36.11033248901367
 21
39.92033386230469
 31
0.0
  0
LINE
  5
164
  8
RHYTHM_CIRCUIT
 10
36.11033248901367
 20
39.92033386230469
 30
0.0
 11
37.04166793823242
 21
35.47533416748047
 31
0.0
  0
LINE
  5
165
  8
RHYTHM_CIRCUIT
 10
37.04166793823242
 20
35.47533416748047
 30
0.0
 11
38.86199951171875
 21
31.284334182739258
 31
0.0
  0
LINE
  5
166
  8
RHYTHM_CIRCUIT
 10
38.86199951171875
 20
31.284334182739258
 30
0.0
 11
41.52899932861328
 21
27.093334197998047
 31
0.0
  0
LINE
  5
167
  8
RHYTHM_CIRCUIT
 10
41.52899932861328
 20
27.093334197998047
 30
0.0
 11
43.89966583251953
 21
24.08766746520996
 31
0.0
  0
LINE
  5
168
  8
RHYTHM_CIRCUIT
 10
43.89966583251953
 20
24.08766746520996
 30
0.0
 11
47.49800109863281
 21
20.870332717895508
 31
0.0
  0
LINE
  5
169
  8
RHYTHM_CIRCUIT
 10
47.49800109863281
 20
20.870332717895508
 30
0.0
 11
51.64666748046875
 21
18.499666213989258
 31
0.0
  0
LINE
  5
16A
  8
RHYTHM_CIRCUIT
 10
51.64666748046875
 20
18.499666213989258
 30
0.0
 11
55.75299835205078
 21
17.1026668548584
 31
0.0
  0
LINE
  5
16B
  8
RHYTHM_CIRCUIT
 10
55.75299835205078
 20
17.1026668548584
 30
0.0
 11
60.45199966430664
 21
15.95966625213623
 31
0.0
  0
LINE
  5
16C
  8
RHYTHM_CIRCUIT
 10
60.45199966430664
 20
15.95966625213623
 30
0.0
 11
66.802001953125
 21
15.02833366394043
 31
0.0
  0
LINE
  5
16D
  8
RHYTHM_CIRCUIT
 10
66.802001953125
 20
15.02833366394043
 30
0.0
 11
81.0683364868164
 21
15.02833366394043
 31
0.0
  0
LINE
  5
16E
  8
RHYTHM_CIRCUIT
 10
81.0683364868164
 20
15.02833366394043
 30
0.0
 11
87.67233276367188
 21
16.086666107177734
 31
0.0
  0
LINE
  5
16F
  8
RHYTHM_CIRCUIT
 10
87.67233276367188
 20
16.086666107177734
 30
0.0
 11
94.23400115966797
 21
17.69533348083496
 31
0.0
  0
LINE
  5
170
  8
RHYTHM_CIRCUIT
 10
94.23400115966797
 20
17.69533348083496
 30
0.0
 11
98.5096664428711
 21
19.60033416748047
 31
0.0
  0
LINE
  5
171
  8
RHYTHM_CIRCUIT
 10
98.5096664428711
 20
19.60033416748047
 30
0.0
 11
102.31966400146484
 21
22.479000091552734
 31
0.0
  0
LINE
  5
172
  8
RHYTHM_CIRCUIT
 10
102.31966400146484
 20
22.479000091552734
 30
0.0
 11
103.97066497802734
 21
24.08766746520996
 31
0.0
  0
LINE
  5
173
  8
RHYTHM_CIRCUIT
 10
103.97066497802734
 20
24.08766746520996
 30
0.0
 11
106.5530014038086
 21
27.389667510986328
 31
0.0
  0
LINE
  5
174
  8
RHYTHM_CIRCUIT
 10
106.5530014038086
 20
27.389667510986328
 30
0.0
 11
110.10900115966797
 21
33.48566818237305
 31
0.0
  0
LINE
  5
175
  8
RHYTHM_CIRCUIT
 10
110.10900115966797
 20
33.48566818237305
 30
0.0
 11
111.46366882324219
 21
37.972999572753906
 31
0.0
  0
LINE
  5
176
  8
RHYTHM_CIRCUIT
 10
111.46366882324219
 20
37.972999572753906
 30
0.0
 11
111.92933654785156
 21
42.79899978637695
 31
0.0
  0
LINE
  5
177
  8
RHYTHM_CIRCUIT
 10
111.92933654785156
 20
42.79899978637695
 30
0.0
 11
111.59066772460938
 21
46.94766616821289
 31
0.0
  0
LINE
  5
178
  8
RHYTHM_CIRCUIT
 10
111.59066772460938
 20
46.94766616821289
 30
0.0
 11
110.40533447265625
 21
51.35033416748047
 31
0.0
  0
LINE
  5
179
  8
RHYTHM_CIRCUIT
 10
110.40533447265625
 20
51.35033416748047
 30
0.0
 11
107.44200134277344
 21
57.9119987487793
 31
0.0
  0
LINE
  5
17A
  8
RHYTHM_CIRCUIT
 10
107.44200134277344
 20
57.9119987487793
 30
0.0
 11
101.09200286865234
 21
69.55366516113281
 31
0.0
  0
LINE
  5
17B
  8
RHYTHM_CIRCUIT
 10
101.09200286865234
 20
69.55366516113281
 30
0.0
 11
99.31400299072266
 21
73.78700256347656
 31
0.0
  0
LINE
  5
17C
  8
RHYTHM_CIRCUIT
 10
99.31400299072266
 20
73.78700256347656
 30
0.0
 11
98.12866973876953
 21
78.14733123779297
 31
0.0
  0
LINE
  5
17D
  8
RHYTHM_CIRCUIT
 10
98.12866973876953
 20
78.14733123779297
 30
0.0
 11
97.79000091552734
 21
82.08433532714844
 31
0.0
  0
LINE
  5
17E
  8
RHYTHM_CIRCUIT
 10
97.79000091552734
 20
82.08433532714844
 30
0.0
 11
98.00166320800781
 21
84.79366302490234
 31
0.0
  0
LINE
  5
17F
  8
RHYTHM_CIRCUIT
 10
98.00166320800781
 20
84.79366302490234
 30
0.0
 11
100.75333404541016
 21
96.01200103759766
 31
0.0
  0
LINE
  5
180
  8
RHYTHM_CIRCUIT
 10
100.75333404541016
 20
96.01200103759766
 30
0.0
 11
101.2613296508789
 21
100.41466522216797
 31
0.0
  0
LINE
  5
181
  8
RHYTHM_CIRCUIT
 10
101.2613296508789
 20
100.41466522216797
 30
0.0
 11
101.09200286865234
 21
103.0393295288086
 31
0.0
  0
LINE
  5
182
  8
RHYTHM_CIRCUIT
 10
101.09200286865234
 20
103.0393295288086
 30
0.0
 11
99.9913330078125
 21
107.39966583251953
 31
0.0
  0
LINE
  5
183
  8
RHYTHM_CIRCUIT
 10
99.9913330078125
 20
107.39966583251953
 30
0.0
 11
98.00166320800781
 21
111.59066772460938
 31
0.0
  0
LINE
  5
184
  8
RHYTHM_CIRCUIT
 10
98.00166320800781
 20
111.59066772460938
 30
0.0
 11
95.461669921875
 21
115.18900299072266
 31
0.0
  0
LINE
  5
185
  8
RHYTHM_CIRCUIT
 10
95.461669921875
 20
115.18900299072266
 30
0.0
 11
91.9903335571289
 21
118.27933502197266
 31
0.0
  0
LINE
  5
186
  8
RHYTHM_CIRCUIT
 10
91.9903335571289
 20
118.27933502197266
 30
0.0
 11
87.88400268554688
 21
120.26899719238281
 31
0.0
  0
LINE
  5
187
  8
RHYTHM_CIRCUIT
 10
87.88400268554688
 20
120.26899719238281
 30
0.0
 11
85.47100067138672
 21
120.90399932861328
 31
0.0
  0
LINE
  5
188
  8
RHYTHM_CIRCUIT
 10
85.47100067138672
 20
120.90399932861328
 30
0.0
 11
81.11066436767578
 21
121.41200256347656
 31
0.0
  0
LINE
  5
189
  8
RHYTHM_CIRCUIT
 10
81.11066436767578
 20
121.41200256347656
 30
0.0
 11
80.01000213623047
 21
222.038330078125
 31
0.0
  0
LINE
  5
18A
  8
RHYTHM_CIRCUIT
 10
80.01000213623047
 20
222.038330078125
 30
0.0
 11
80.68733215332031
 21
224.2396697998047
 31
0.0
  0
LINE
  5
18B
  8
RHYTHM_CIRCUIT
 10
80.68733215332031
 20
224.2396697998047
 30
0.0
 11
82.25366973876953
 21
226.22933959960938
 31
0.0
  0
LINE
  5
18C
  8
RHYTHM_CIRCUIT
 10
82.25366973876953
 20
226.22933959960938
 30
0.0
 11
83.52366638183594
 21
257.4289855957031
 31
0.0
  0
LINE
  5
18D
  8
RHYTHM_CIRCUIT
 10
83.52366638183594
 20
257.4289855957031
 30
0.0
 11
81.78800201416016
 21
257.4713439941406
 31
0.0
  0
LINE
  5
18E
  8
RHYTHM_CIRCUIT
 10
81.78800201416016
 20
257.4713439941406
 30
0.0
 11
79.12100219726562
 21
258.1910095214844
 31
0.0
  0
LINE
  5
18F
  8
RHYTHM_CIRCUIT
 10
79.12100219726562
 20
258.1910095214844
 30
0.0
 11
76.66566467285156
 21
260.1383361816406
 31
0.0
  0
LINE
  5
190
  8
RHYTHM_CIRCUIT
 10
76.66566467285156
 20
260.1383361816406
 30
0.0
 11
75.18399810791016
 21
262.7206726074219
 31
0.0
  0
LINE
  5
191
  8
RHYTHM_CIRCUIT
 10
75.18399810791016
 20
262.7206726074219
 30
0.0
 11
72.68633270263672
 21
262.7206726074219
 31
0.0
  0
LINE
  5
192
  8
NECK_POCKET
 10
97.83233642578125
 20
84.96299743652344
 30
0.0
 11
97.66300201416016
 21
82.21133422851562
 31
0.0
  0
LINE
  5
193
  8
NECK_POCKET
 10
97.66300201416016
 20
82.21133422851562
 30
0.0
 11
97.91699981689453
 21
78.78233337402344
 31
0.0
  0
LINE
  5
194
  8
NECK_POCKET
 10
97.91699981689453
 20
78.78233337402344
 30
0.0
 11
99.18699645996094
 21
73.74466705322266
 31
0.0
  0
LINE
  5
195
  8
NECK_POCKET
 10
99.18699645996094
 20
73.74466705322266
 30
0.0
 11
101.21900177001953
 21
69.04566955566406
 31
0.0
  0
LINE
  5
196
  8
NECK_POCKET
 10
101.21900177001953
 20
69.04566955566406
 30
0.0
 11
107.52666473388672
 21
57.48866653442383
 31
0.0
  0
LINE
  5
197
  8
NECK_POCKET
 10
107.52666473388672
 20
57.48866653442383
 30
0.0
 11
109.4316635131836
 21
53.42466735839844
 31
0.0
  0
LINE
  5
198
  8
NECK_POCKET
 10
109.4316635131836
 20
53.42466735839844
 30
0.0
 11
111.50599670410156
 21
46.693668365478516
 31
0.0
  0
LINE
  5
199
  8
NECK_POCKET
 10
111.50599670410156
 20
46.693668365478516
 30
0.0
 11
111.80233001708984
 21
42.0369987487793
 31
0.0
  0
LINE
  5
19A
  8
NECK_POCKET
 10
111.80233001708984
 20
42.0369987487793
 30
0.0
 11
111.336669921875
 21
37.972999572753906
 31
0.0
  0
LINE
  5
19B
  8
NECK_POCKET
 10
111.336669921875
 20
37.972999572753906
 30
0.0
 11
110.74400329589844
 21
35.6446647644043
 31
0.0
  0
LINE
  5
19C
  8
NECK_POCKET
 10
110.74400329589844
 20
35.6446647644043
 30
0.0
 11
108.96600341796875
 21
31.45366668701172
 31
0.0
  0
LINE
  5
19D
  8
NECK_POCKET
 10
108.96600341796875
 20
31.45366668701172
 30
0.0
 11
105.15599822998047
 21
25.696332931518555
 31
0.0
  0
LINE
  5
19E
  8
NECK_POCKET
 10
105.15599822998047
 20
25.696332931518555
 30
0.0
 11
103.54733276367188
 21
23.83366584777832
 31
0.0
  0
LINE
  5
19F
  8
NECK_POCKET
 10
103.54733276367188
 20
23.83366584777832
 30
0.0
 11
100.62633514404297
 21
21.251333236694336
 31
0.0
  0
LINE
  5
1A0
  8
NECK_POCKET
 10
100.62633514404297
 20
21.251333236694336
 30
0.0
 11
96.39299774169922
 21
18.66900062561035
 31
0.0
  0
LINE
  5
1A1
  8
NECK_POCKET
 10
96.39299774169922
 20
18.66900062561035
 30
0.0
 11
91.73633575439453
 21
17.060333251953125
 31
0.0
  0
LINE
  5
1A2
  8
NECK_POCKET
 10
91.73633575439453
 20
17.060333251953125
 30
0.0
 11
82.80400085449219
 21
15.324666976928711
 31
0.0
  0
LINE
  5
1A3
  8
NECK_POCKET
 10
82.80400085449219
 20
15.324666976928711
 30
0.0
 11
64.68533325195312
 21
15.366999626159668
 31
0.0
  0
LINE
  5
1A4
  8
NECK_POCKET
 10
64.68533325195312
 20
15.366999626159668
 30
0.0
 11
60.240333557128906
 21
16.128999710083008
 31
0.0
  0
LINE
  5
1A5
  8
NECK_POCKET
 10
60.240333557128906
 20
16.128999710083008
 30
0.0
 11
54.44066619873047
 21
17.652999877929688
 31
0.0
  0
LINE
  5
1A6
  8
NECK_POCKET
 10
54.44066619873047
 20
17.652999877929688
 30
0.0
 11
51.5620002746582
 21
18.66900062561035
 31
0.0
  0
LINE
  5
1A7
  8
NECK_POCKET
 10
51.5620002746582
 20
18.66900062561035
 30
0.0
 11
47.66733169555664
 21
20.91266632080078
 31
0.0
  0
LINE
  5
1A8
  8
NECK_POCKET
 10
47.66733169555664
 20
20.91266632080078
 30
0.0
 11
44.111331939697266
 21
24.045333862304688
 31
0.0
  0
LINE
  5
1A9
  8
NECK_POCKET
 10
44.111331939697266
 20
24.045333862304688
 30
0.0
 11
41.57133483886719
 21
27.262666702270508
 31
0.0
  0
LINE
  5
1AA
  8
NECK_POCKET
 10
41.57133483886719
 20
27.262666702270508
 30
0.0
 11
38.904335021972656
 21
31.45366668701172
 31
0.0
  0
LINE
  5
1AB
  8
NECK_POCKET
 10
38.904335021972656
 20
31.45366668701172
 30
0.0
 11
37.253334045410156
 21
35.263668060302734
 31
0.0
  0
LINE
  5
1AC
  8
NECK_POCKET
 10
37.253334045410156
 20
35.263668060302734
 30
0.0
 11
36.237335205078125
 21
39.92033386230469
 31
0.0
  0
LINE
  5
1AD
  8
NECK_POCKET
 10
36.237335205078125
 20
39.92033386230469
 30
0.0
 11
36.06800079345703
 21
44.788665771484375
 31
0.0
  0
LINE
  5
1AE
  8
NECK_POCKET
 10
36.06800079345703
 20
44.788665771484375
 30
0.0
 11
36.321998596191406
 21
46.94766616821289
 31
0.0
  0
LINE
  5
1AF
  8
NECK_POCKET
 10
36.321998596191406
 20
46.94766616821289
 30
0.0
 11
37.2956657409668
 21
50.207332611083984
 31
0.0
  0
LINE
  5
1B0
  8
NECK_POCKET
 10
37.2956657409668
 20
50.207332611083984
 30
0.0
 11
54.05966567993164
 21
50.24966812133789
 31
0.0
  0
LINE
  5
1B1
  8
NECK_POCKET
 10
54.05966567993164
 20
50.24966812133789
 30
0.0
 11
54.14433288574219
 21
45.50833511352539
 31
0.0
  0
LINE
  5
1B2
  8
NECK_POCKET
 10
54.14433288574219
 20
45.50833511352539
 30
0.0
 11
93.72599792480469
 21
45.50833511352539
 31
0.0
  0
LINE
  5
1B3
  8
NECK_POCKET
 10
93.72599792480469
 20
45.50833511352539
 30
0.0
 11
93.72599792480469
 21
51.30799865722656
 31
0.0
  0
LINE
  5
1B4
  8
NECK_POCKET
 10
93.72599792480469
 20
51.30799865722656
 30
0.0
 11
79.92533111572266
 21
51.35033416748047
 31
0.0
  0
LINE
  5
1B5
  8
NECK_POCKET
 10
79.92533111572266
 20
51.35033416748047
 30
0.0
 11
79.67133331298828
 21
75.01466369628906
 31
0.0
  0
LINE
  5
1B6
  8
NECK_POCKET
 10
79.67133331298828
 20
75.01466369628906
 30
0.0
 11
81.44933319091797
 21
76.15766906738281
 31
0.0
  0
LINE
  5
1B7
  8
NECK_POCKET
 10
81.44933319091797
 20
76.15766906738281
 30
0.0
 11
84.03166961669922
 21
79.24800109863281
 31
0.0
  0
LINE
  5
1B8
  8
NECK_POCKET
 10
84.03166961669922
 20
79.24800109863281
 30
0.0
 11
84.96299743652344
 21
81.40699768066406
 31
0.0
  0
LINE
  5
1B9
  8
NECK_POCKET
 10
84.96299743652344
 20
81.40699768066406
 30
0.0
 11
85.5979995727539
 21
84.96299743652344
 31
0.0
  0
LINE
  5
1BA
  8
NECK_POCKET
 10
85.5979995727539
 20
84.96299743652344
 30
0.0
 11
97.83233642578125
 21
84.96299743652344
 31
0.0
  0
LINE
  5
1BB
  8
JACK_ROUTE
 10
50.03799819946289
 20
84.96299743652344
 30
0.0
 11
62.356998443603516
 21
84.96299743652344
 31
0.0
  0
LINE
  5
1BC
  8
JACK_ROUTE
 10
62.356998443603516
 20
84.96299743652344
 30
0.0
 11
62.992000579833984
 21
81.40699768066406
 31
0.0
  0
LINE
  5
1BD
  8
JACK_ROUTE
 10
62.992000579833984
 20
81.40699768066406
 30
0.0
 11
63.92333221435547
 21
79.24800109863281
 31
0.0
  0
LINE
  5
1BE
  8
JACK_ROUTE
 10
63.92333221435547
 20
79.24800109863281
 30
0.0
 11
66.50566864013672
 21
76.15766906738281
 31
0.0
  0
LINE
  5
1BF
  8
JACK_ROUTE
 10
66.50566864013672
 20
76.15766906738281
 30
0.0
 11
68.15666961669922
 21
75.09933471679688
 31
0.0
  0
LINE
  5
1C0
  8
JACK_ROUTE
 10
68.15666961669922
 20
75.09933471679688
 30
0.0
 11
67.86033630371094
 21
51.30799865722656
 31
0.0
  0
LINE
  5
1C1
  8
JACK_ROUTE
 10
67.86033630371094
 20
51.30799865722656
 30
0.0
 11
54.14433288574219
 21
51.30799865722656
 31
0.0
  0
LINE
  5
1C2
  8
JACK_ROUTE
 10
54.14433288574219
 20
51.30799865722656
 30
0.0
 11
54.05966567993164
 21
50.461334228515625
 31
0.0
  0
LINE
  5
1C3
  8
JACK_ROUTE
 10
54.05966567993164
 20
50.461334228515625
 30
0.0
 11
37.54966735839844
 21
50.503665924072266
 31
0.0
  0
LINE
  5
1C4
  8
JACK_ROUTE
 10
37.54966735839844
 20
50.503665924072266
 30
0.0
 11
38.43866729736328
 21
53.42466735839844
 31
0.0
  0
LINE
  5
1C5
  8
JACK_ROUTE
 10
38.43866729736328
 20
53.42466735839844
 30
0.0
 11
46.9900016784668
 21
69.7229995727539
 31
0.0
  0
LINE
  5
1C6
  8
JACK_ROUTE
 10
46.9900016784668
 20
69.7229995727539
 30
0.0
 11
48.768001556396484
 21
74.21033477783203
 31
0.0
  0
LINE
  5
1C7
  8
JACK_ROUTE
 10
48.768001556396484
 20
74.21033477783203
 30
0.0
 11
49.9109992980957
 21
78.44366455078125
 31
0.0
  0
LINE
  5
1C8
  8
JACK_ROUTE
 10
49.9109992980957
 20
78.44366455078125
 30
0.0
 11
50.03799819946289
 21
84.96299743652344
 31
0.0
  0
LINE
  5
1C9
  8
JACK_ROUTE
 10
79.2056655883789
 20
121.20033264160156
 30
0.0
 11
85.47100067138672
 21
120.7770004272461
 31
0.0
  0
LINE
  5
1CA
  8
JACK_ROUTE
 10
85.47100067138672
 20
120.7770004272461
 30
0.0
 11
90.16999816894531
 21
119.1683349609375
 31
0.0
  0
LINE
  5
1CB
  8
JACK_ROUTE
 10
90.16999816894531
 20
119.1683349609375
 30
0.0
 11
93.68367004394531
 21
116.79766845703125
 31
0.0
  0
LINE
  5
1CC
  8
JACK_ROUTE
 10
93.68367004394531
 20
116.79766845703125
 30
0.0
 11
95.33466339111328
 21
115.14666748046875
 31
0.0
  0
LINE
  5
1CD
  8
JACK_ROUTE
 10
95.33466339111328
 20
115.14666748046875
 30
0.0
 11
97.95933532714844
 21
111.42133331298828
 31
0.0
  0
LINE
  5
1CE
  8
JACK_ROUTE
 10
97.95933532714844
 20
111.42133331298828
 30
0.0
 11
100.49933624267578
 21
105.32533264160156
 31
0.0
  0
LINE
  5
1CF
  8
JACK_ROUTE
 10
100.49933624267578
 20
105.32533264160156
 30
0.0
 11
101.13433074951172
 21
100.37232971191406
 31
0.0
  0
LINE
  5
1D0
  8
JACK_ROUTE
 10
101.13433074951172
 20
100.37232971191406
 30
0.0
 11
100.62633514404297
 21
96.01200103759766
 31
0.0
  0
LINE
  5
1D1
  8
JACK_ROUTE
 10
100.62633514404297
 20
96.01200103759766
 30
0.0
 11
97.91699981689453
 21
85.17466735839844
 31
0.0
  0
LINE
  5
1D2
  8
JACK_ROUTE
 10
97.91699981689453
 20
85.17466735839844
 30
0.0
 11
91.18599700927734
 21
85.17466735839844
 31
0.0
  0
LINE
  5
1D3
  8
JACK_ROUTE
 10
91.18599700927734
 20
85.17466735839844
 30
0.0
 11
91.05899810791016
 21
85.68266296386719
 31
0.0
  0
LINE
  5
1D4
  8
JACK_ROUTE
 10
91.05899810791016
 20
85.68266296386719
 30
0.0
 11
90.80500030517578
 21
85.17466735839844
 31
0.0
  0
LINE
  5
1D5
  8
JACK_ROUTE
 10
90.80500030517578
 20
85.17466735839844
 30
0.0
 11
83.65066528320312
 21
85.17466735839844
 31
0.0
  0
LINE
  5
1D6
  8
JACK_ROUTE
 10
83.65066528320312
 20
85.17466735839844
 30
0.0
 11
83.10033416748047
 21
88.13800048828125
 31
0.0
  0
LINE
  5
1D7
  8
JACK_ROUTE
 10
83.10033416748047
 20
88.13800048828125
 30
0.0
 11
82.33833312988281
 21
89.87366485595703
 31
0.0
  0
LINE
  5
1D8
  8
JACK_ROUTE
 10
82.33833312988281
 20
89.87366485595703
 30
0.0
 11
81.40699768066406
 21
91.31300354003906
 31
0.0
  0
LINE
  5
1D9
  8
JACK_ROUTE
 10
81.40699768066406
 20
91.31300354003906
 30
0.0
 11
79.45966339111328
 21
93.00633239746094
 31
0.0
  0
LINE
  5
1DA
  8
JACK_ROUTE
 10
79.45966339111328
 20
93.00633239746094
 30
0.0
 11
79.24800109863281
 21
115.8239974975586
 31
0.0
  0
LINE
  5
1DB
  8
JACK_ROUTE
 10
79.24800109863281
 20
115.8239974975586
 30
0.0
 11
79.79833221435547
 21
115.99333190917969
 31
0.0
  0
LINE
  5
1DC
  8
JACK_ROUTE
 10
79.79833221435547
 20
115.99333190917969
 30
0.0
 11
79.2056655883789
 21
116.12033081054688
 31
0.0
  0
LINE
  5
1DD
  8
JACK_ROUTE
 10
79.2056655883789
 20
116.12033081054688
 30
0.0
 11
79.2056655883789
 21
121.20033264160156
 31
0.0
  0
ENDSEC
  0
EOF
