  0
SECTION
  2
HEADER
  9
$ACADVER
  1
AC1009
  9
$DWGCODEPAGE
  3
ANSI_1252
  9
$INSBASE
 10
0.0
 20
0.0
 30
0.0
  9
$EXTMIN
 10
1e+20
 20
1e+20
 30
1e+20
  9
$EXTMAX
 10
-1e+20
 20
-1e+20
 30
-1e+20
  9
$LIMMIN
 10
0.0
 20
0.0
  9
$LIMMAX
 10
420.0
 20
297.0
  9
$ORTHOMODE
 70
0
  9
$REGENMODE
 70
1
  9
$FILLMODE
 70
1
  9
$DRAGMODE
 70
2
  9
$QTEXTMODE
 70
0
  9
$MIRRTEXT
 70
1
  9
$OSMODE
 70
20583
  9
$LTSCALE
 40
1.0
  9
$ATTMODE
 70
1
  9
$TEXTSIZE
 40
2.5
  9
$TRACEWID
 40
1.0
  9
$TEXTSTYLE
  7
Standard
  9
$CLAYER
  8
0
  9
$CELTYPE
  6
ByLayer
  9
$CECOLOR
 62
256
  9
$DIMSCALE
 40
1.0
  9
$DIMASZ
 40
2.5
  9
$DIMEXO
 40
0.625
  9
$DIMDLI
 40
3.75
  9
$DIMRND
 40
0.0
  9
$DIMDLE
 40
0.0
  9
$DIMEXE
 40
1.25
  9
$DIMTP
 40
0.0
  9
$DIMTM
 40
0.0
  9
$DIMTXT
 40
2.5
  9
$DIMCEN
 40
2.5
  9
$DIMTSZ
 40
0.0
  9
$DIMTOL
 70
0
  9
$DIMLIM
 70
0
  9
$DIMTIH
 70
0
  9
$DIMTOH
 70
0
  9
$DIMSE1
 70
0
  9
$DIMSE2
 70
0
  9
$DIMTAD
 70
1
  9
$DIMZIN
 70
8
  9
$DIMBLK
  1

  9
$DIMASO
 70
1
  9
$DIMSHO
 70
1
  9
$DIMPOST
  1

  9
$DIMAPOST
  1

  9
$DIMALT
 70
0
  9
$DIMALTD
 70
3
  9
$DIMALTF
 40
0.03937007874
  9
$DIMLFAC
 40
1.0
  9
$DIMTOFL
 70
1
  9
$DIMTVP
 40
0.0
  9
$DIMTIX
 70
0
  9
$DIMSOXD
 70
0
  9
$DIMSAH
 70
0
  9
$DIMBLK1
  1

  9
$DIMBLK2
  1

  9
$DIMSTYLE
  2
ISO-25
  9
$DIMCLRD
 70
0
  9
$DIMCLRE
 70
0
  9
$DIMCLRT
 70
0
  9
$DIMTFAC
 40
1.0
  9
$DIMGAP
 40
0.625
  9
$COORDS
 70
1
  9
$ATTDIA
 70
0
  9
$ATTREQ
 70
1
  9
$HANDLING
 70
1
  9
$LUNITS
 70
2
  9
$LUPREC
 70
4
  9
$SKETCHINC
 40
1.0
  9
$FILLETRAD
 40
10.0
  9
$AUNITS
 70
0
  9
$AUPREC
 70
2
  9
$MENU
  1
.
  9
$ELEVATION
 40
0.0
  9
$PELEVATION
 40
0.0
  9
$THICKNESS
 40
0.0
  9
$LIMCHECK
 70
0
  9
$CHAMFERA
 40
0.0
  9
$CHAMFERB
 40
0.0
  9
$SKPOLY
 70
0
  9
$TDCREATE
 40
2461106.679340278
  9
$TDUPDATE
 40
2461106.679340278
  9
$TDINDWG
 40
0.0
  9
$TDUSRTIMER
 40
0.0
  9
$USRTIMER
 70
1
  9
$ANGBASE
 50
0.0
  9
$ANGDIR
 70
0
  9
$PDMODE
 70
0
  9
$PDSIZE
 40
0.0
  9
$PLINEWID
 40
0.0
  9
$SPLFRAME
 70
0
  9
$SPLINETYPE
 70
6
  9
$SPLINESEGS
 70
8
  9
$HANDSEED
  5
262
  9
$SURFTAB1
 70
6
  9
$SURFTAB2
 70
6
  9
$SURFTYPE
 70
6
  9
$SURFU
 70
6
  9
$SURFV
 70
6
  9
$UCSNAME
  2

  9
$UCSORG
 10
0.0
 20
0.0
 30
0.0
  9
$UCSXDIR
 10
1.0
 20
0.0
 30
0.0
  9
$UCSYDIR
 10
0.0
 20
1.0
 30
0.0
  9
$PUCSNAME
  2

  9
$PUCSORG
 10
0.0
 20
0.0
 30
0.0
  9
$PUCSXDIR
 10
1.0
 20
0.0
 30
0.0
  9
$PUCSYDIR
 10
0.0
 20
1.0
 30
0.0
  9
$USERI1
 70
0
  9
$USERI2
 70
0
  9
$USERI3
 70
0
  9
$USERI4
 70
0
  9
$USERI5
 70
0
  9
$USERR1
 40
0.0
  9
$USERR2
 40
0.0
  9
$USERR3
 40
0.0
  9
$USERR4
 40
0.0
  9
$USERR5
 40
0.0
  9
$WORLDVIEW
 70
1
  9
$SHADEDGE
 70
3
  9
$SHADEDIF
 70
70
  9
$TILEMODE
 70
1
  9
$MAXACTVP
 70
64
  9
$PLIMCHECK
 70
0
  9
$PEXTMIN
 10
1e+20
 20
1e+20
 30
1e+20
  9
$PEXTMAX
 10
-1e+20
 20
-1e+20
 30
-1e+20
  9
$PLIMMIN
 10
0.0
 20
0.0
  9
$PLIMMAX
 10
420.0
 20
297.0
  9
$UNITMODE
 70
0
  9
$VISRETAIN
 70
1
  9
$PLINEGEN
 70
0
  9
$PSLTSCALE
 70
1
  0
ENDSEC
  0
SECTION
  2
TABLES
  0
TABLE
  2
VPORT
 70
1
  0
VPORT
  5
23
  2
*Active
 70
0
 10
0.0
 20
0.0
 11
1.0
 21
1.0
 12
0.0
 22
0.0
 13
0.0
 23
0.0
 14
0.5
 24
0.5
 15
0.5
 25
0.5
 16
0.0
 26
0.0
 36
1.0
 17
0.0
 27
0.0
 37
0.0
 40
1000.0
 41
1.34
 42
50.0
 43
0.0
 44
0.0
 50
0.0
 51
0.0
 71
0
 72
1000
 73
1
 74
3
 75
0
 76
0
 77
0
 78
0
  0
ENDTAB
  0
TABLE
  2
LTYPE
 70
3
  0
LTYPE
  5
24
  2
ByBlock
 70
0
  3

 72
65
 73
0
 40
0.0
  0
LTYPE
  5
25
  2
ByLayer
 70
0
  3

 72
65
 73
0
 40
0.0
  0
LTYPE
  5
26
  2
Continuous
 70
0
  3

 72
65
 73
0
 40
0.0
  0
ENDTAB
  0
TABLE
  2
LAYER
 70
2
  0
LAYER
  5
27
  2
0
 70
0
 62
7
  6
Continuous
  0
LAYER
  5
28
  2
Defpoints
 70
0
 62
7
  6
Continuous
  0
ENDTAB
  0
TABLE
  2
STYLE
 70
1
  0
STYLE
  5
29
  2
Standard
 70
0
 40
0.0
 41
1.0
 50
0.0
 71
0
 42
2.5
  3
txt
  4

  0
ENDTAB
  0
TABLE
  2
VIEW
 70
0
  0
ENDTAB
  0
TABLE
  2
UCS
 70
0
  0
ENDTAB
  0
TABLE
  2
APPID
 70
3
  0
APPID
  5
2A
  2
ACAD
 70
0
  0
APPID
  5
260
  2
HATCHBACKGROUNDCOLOR
 70
0
  0
APPID
  5
261
  2
EZDXF
 70
0
  0
ENDTAB
  0
TABLE
  2
DIMSTYLE
 70
1
  0
DIMSTYLE
105
2B
  2
Standard
 70
0
  3

  4

  5

  6

  7

 40
1.0
 41
2.5
 42
0.625
 43
3.75
 44
1.25
 45
0.0
 46
0.0
 47
0.0
 48
0.0
140
2.5
141
2.5
142
0.0
143
0.03937007874
144
1.0
145
0.0
146
1.0
147
0.625
 71
0
 72
0
 73
0
 74
0
 75
0
 76
0
 77
1
 78
8
170
0
171
3
172
1
173
0
174
0
175
0
176
0
177
0
178
0
  0
ENDTAB
  0
ENDSEC
  0
SECTION
  2
BLOCKS
  0
BLOCK
  5
18
  8
0
  2
$Model_Space
 70
0
 10
0.0
 20
0.0
 30
0.0
  3
$Model_Space
  1

1001
EZDXF
1000
CREATED_BY_EZDXF
1000
1.4.3 @ 2026-03-06T22:18:15.085174+00:00
1000
WRITTEN_BY_EZDXF
1000
1.4.3 @ 2026-03-06T22:18:15.496350+00:00
  0
ENDBLK
  5
19
  8
0
  0
BLOCK
  5
1C
  8
0
  2
$Paper_Space
 70
0
 10
0.0
 20
0.0
 30
0.0
  3
$Paper_Space
  1

  0
ENDBLK
  5
1D
  8
0
  0
ENDSEC
  0
SECTION
  2
ENTITIES
  0
LINE
  5
2D
  8
SMALL_FEATURE
 10
181.5676727294922
 20
39.45466613769531
 30
0.0
 11
188.34100341796875
 21
39.49700164794922
 31
0.0
  0
LINE
  5
2E
  8
SMALL_FEATURE
 10
188.34100341796875
 20
39.49700164794922
 30
0.0
 11
188.5103302001953
 21
38.98899841308594
 31
0.0
  0
LINE
  5
2F
  8
SMALL_FEATURE
 10
188.5103302001953
 20
38.98899841308594
 30
0.0
 11
188.55267333984375
 21
39.49700164794922
 31
0.0
  0
LINE
  5
30
  8
SMALL_FEATURE
 10
188.55267333984375
 20
39.49700164794922
 30
0.0
 11
198.7550048828125
 21
39.49700164794922
 31
0.0
  0
LINE
  5
31
  8
SMALL_FEATURE
 10
198.7550048828125
 20
39.49700164794922
 30
0.0
 11
198.79733276367188
 21
24.595666885375977
 31
0.0
  0
LINE
  5
32
  8
SMALL_FEATURE
 10
198.79733276367188
 20
24.595666885375977
 30
0.0
 11
194.47933959960938
 21
24.553333282470703
 31
0.0
  0
LINE
  5
33
  8
SMALL_FEATURE
 10
194.47933959960938
 20
24.553333282470703
 30
0.0
 11
194.30999755859375
 21
24.849666595458984
 31
0.0
  0
LINE
  5
34
  8
SMALL_FEATURE
 10
194.30999755859375
 20
24.849666595458984
 30
0.0
 11
194.26766967773438
 21
24.553333282470703
 31
0.0
  0
LINE
  5
35
  8
SMALL_FEATURE
 10
194.26766967773438
 20
24.553333282470703
 30
0.0
 11
193.4633331298828
 21
24.553333282470703
 31
0.0
  0
LINE
  5
36
  8
SMALL_FEATURE
 10
193.4633331298828
 20
24.553333282470703
 30
0.0
 11
193.29400634765625
 21
24.849666595458984
 31
0.0
  0
LINE
  5
37
  8
SMALL_FEATURE
 10
193.29400634765625
 20
24.849666595458984
 30
0.0
 11
193.2516632080078
 21
24.553333282470703
 31
0.0
  0
LINE
  5
38
  8
SMALL_FEATURE
 10
193.2516632080078
 20
24.553333282470703
 30
0.0
 11
190.24600219726562
 21
24.553333282470703
 31
0.0
  0
LINE
  5
39
  8
SMALL_FEATURE
 10
190.24600219726562
 20
24.553333282470703
 30
0.0
 11
190.2036590576172
 21
24.849666595458984
 31
0.0
  0
LINE
  5
3A
  8
SMALL_FEATURE
 10
190.2036590576172
 20
24.849666595458984
 30
0.0
 11
189.56866455078125
 21
25.018999099731445
 31
0.0
  0
LINE
  5
3B
  8
SMALL_FEATURE
 10
189.56866455078125
 20
25.018999099731445
 30
0.0
 11
189.52633666992188
 21
24.553333282470703
 31
0.0
  0
LINE
  5
3C
  8
SMALL_FEATURE
 10
189.52633666992188
 20
24.553333282470703
 30
0.0
 11
181.61000061035156
 21
24.553333282470703
 31
0.0
  0
LINE
  5
3D
  8
SMALL_FEATURE
 10
181.61000061035156
 20
24.553333282470703
 30
0.0
 11
181.5676727294922
 21
39.45466613769531
 31
0.0
  0
LINE
  5
3E
  8
SMALL_FEATURE
 10
96.05433654785156
 20
90.12767028808594
 30
0.0
 11
96.05433654785156
 21
89.66200256347656
 31
0.0
  0
LINE
  5
3F
  8
SMALL_FEATURE
 10
96.05433654785156
 20
89.66200256347656
 30
0.0
 11
93.51433563232422
 21
88.77300262451172
 31
0.0
  0
LINE
  5
40
  8
SMALL_FEATURE
 10
93.51433563232422
 20
88.77300262451172
 30
0.0
 11
93.5566635131836
 21
88.30733489990234
 31
0.0
  0
LINE
  5
41
  8
SMALL_FEATURE
 10
93.5566635131836
 20
88.30733489990234
 30
0.0
 11
80.34866333007812
 21
80.68733215332031
 31
0.0
  0
LINE
  5
42
  8
SMALL_FEATURE
 10
80.34866333007812
 20
80.68733215332031
 30
0.0
 11
79.88300323486328
 21
80.68733215332031
 31
0.0
  0
LINE
  5
43
  8
SMALL_FEATURE
 10
79.88300323486328
 20
80.68733215332031
 30
0.0
 11
79.24800109863281
 21
81.95733642578125
 31
0.0
  0
LINE
  5
44
  8
SMALL_FEATURE
 10
79.24800109863281
 20
81.95733642578125
 30
0.0
 11
78.82466888427734
 21
83.86233520507812
 31
0.0
  0
LINE
  5
45
  8
SMALL_FEATURE
 10
78.82466888427734
 20
83.86233520507812
 30
0.0
 11
78.86699676513672
 21
86.82566833496094
 31
0.0
  0
LINE
  5
46
  8
SMALL_FEATURE
 10
78.86699676513672
 20
86.82566833496094
 30
0.0
 11
79.24800109863281
 21
88.26499938964844
 31
0.0
  0
LINE
  5
47
  8
SMALL_FEATURE
 10
79.24800109863281
 20
88.26499938964844
 30
0.0
 11
80.89900207519531
 21
91.10133361816406
 31
0.0
  0
LINE
  5
48
  8
SMALL_FEATURE
 10
80.89900207519531
 20
91.10133361816406
 30
0.0
 11
83.43900299072266
 21
93.26033020019531
 31
0.0
  0
LINE
  5
49
  8
SMALL_FEATURE
 10
83.43900299072266
 20
93.26033020019531
 30
0.0
 11
86.40233612060547
 21
94.36100006103516
 31
0.0
  0
LINE
  5
4A
  8
SMALL_FEATURE
 10
86.40233612060547
 20
94.36100006103516
 30
0.0
 11
89.83133697509766
 21
94.36100006103516
 31
0.0
  0
LINE
  5
4B
  8
SMALL_FEATURE
 10
89.83133697509766
 20
94.36100006103516
 30
0.0
 11
92.87933349609375
 21
93.26033020019531
 31
0.0
  0
LINE
  5
4C
  8
SMALL_FEATURE
 10
92.87933349609375
 20
93.26033020019531
 30
0.0
 11
94.86900329589844
 21
91.65166473388672
 31
0.0
  0
LINE
  5
4D
  8
SMALL_FEATURE
 10
94.86900329589844
 20
91.65166473388672
 30
0.0
 11
96.05433654785156
 21
90.12767028808594
 31
0.0
  0
LINE
  5
4E
  8
SMALL_FEATURE
 10
96.43533325195312
 20
89.45033264160156
 30
0.0
 11
96.98566436767578
 21
88.26499938964844
 31
0.0
  0
LINE
  5
4F
  8
SMALL_FEATURE
 10
96.98566436767578
 20
88.26499938964844
 30
0.0
 11
97.49366760253906
 21
85.68266296386719
 31
0.0
  0
LINE
  5
50
  8
SMALL_FEATURE
 10
97.49366760253906
 20
85.68266296386719
 30
0.0
 11
96.98566436767578
 21
81.95733642578125
 31
0.0
  0
LINE
  5
51
  8
SMALL_FEATURE
 10
96.98566436767578
 20
81.95733642578125
 30
0.0
 11
95.4193344116211
 21
79.12100219726562
 31
0.0
  0
LINE
  5
52
  8
SMALL_FEATURE
 10
95.4193344116211
 20
79.12100219726562
 30
0.0
 11
92.87933349609375
 21
76.96199798583984
 31
0.0
  0
LINE
  5
53
  8
SMALL_FEATURE
 10
92.87933349609375
 20
76.96199798583984
 30
0.0
 11
89.83133697509766
 21
75.86133575439453
 31
0.0
  0
LINE
  5
54
  8
SMALL_FEATURE
 10
89.83133697509766
 20
75.86133575439453
 30
0.0
 11
86.40233612060547
 21
75.86133575439453
 31
0.0
  0
LINE
  5
55
  8
SMALL_FEATURE
 10
86.40233612060547
 20
75.86133575439453
 30
0.0
 11
83.05799865722656
 21
77.21600341796875
 31
0.0
  0
LINE
  5
56
  8
SMALL_FEATURE
 10
83.05799865722656
 20
77.21600341796875
 30
0.0
 11
80.30633544921875
 21
79.96766662597656
 31
0.0
  0
LINE
  5
57
  8
SMALL_FEATURE
 10
80.30633544921875
 20
79.96766662597656
 30
0.0
 11
80.56033325195312
 21
80.60266876220703
 31
0.0
  0
LINE
  5
58
  8
SMALL_FEATURE
 10
80.56033325195312
 20
80.60266876220703
 30
0.0
 11
93.51433563232422
 21
88.05333709716797
 31
0.0
  0
LINE
  5
59
  8
SMALL_FEATURE
 10
93.51433563232422
 20
88.05333709716797
 30
0.0
 11
94.06466674804688
 21
87.92633056640625
 31
0.0
  0
LINE
  5
5A
  8
SMALL_FEATURE
 10
94.06466674804688
 20
87.92633056640625
 30
0.0
 11
95.92733001708984
 21
89.49266815185547
 31
0.0
  0
LINE
  5
5B
  8
SMALL_FEATURE
 10
95.92733001708984
 20
89.49266815185547
 30
0.0
 11
96.43533325195312
 21
89.45033264160156
 31
0.0
  0
LINE
  5
5C
  8
SMALL_FEATURE
 10
81.15299987792969
 20
129.32833862304688
 30
0.0
 11
83.9469985961914
 21
128.94732666015625
 31
0.0
  0
LINE
  5
5D
  8
SMALL_FEATURE
 10
83.9469985961914
 20
128.94732666015625
 30
0.0
 11
84.03166961669922
 21
129.32833862304688
 31
0.0
  0
LINE
  5
5E
  8
SMALL_FEATURE
 10
84.03166961669922
 20
129.32833862304688
 30
0.0
 11
92.2020034790039
 21
129.32833862304688
 31
0.0
  0
LINE
  5
5F
  8
SMALL_FEATURE
 10
92.2020034790039
 20
129.32833862304688
 30
0.0
 11
92.28666687011719
 21
128.94732666015625
 31
0.0
  0
LINE
  5
60
  8
SMALL_FEATURE
 10
92.28666687011719
 20
128.94732666015625
 30
0.0
 11
95.038330078125
 21
129.37066650390625
 31
0.0
  0
LINE
  5
61
  8
SMALL_FEATURE
 10
95.038330078125
 20
129.37066650390625
 30
0.0
 11
95.16533660888672
 21
121.45433044433594
 31
0.0
  0
LINE
  5
62
  8
SMALL_FEATURE
 10
95.16533660888672
 20
121.45433044433594
 30
0.0
 11
81.11066436767578
 21
121.41200256347656
 31
0.0
  0
LINE
  5
63
  8
SMALL_FEATURE
 10
81.11066436767578
 20
121.41200256347656
 30
0.0
 11
81.15299987792969
 21
129.32833862304688
 31
0.0
  0
LINE
  5
64
  8
SMALL_FEATURE
 10
57.9543342590332
 20
94.53033447265625
 30
0.0
 11
61.67966842651367
 21
94.40333557128906
 31
0.0
  0
LINE
  5
65
  8
SMALL_FEATURE
 10
61.67966842651367
 20
94.40333557128906
 30
0.0
 11
63.54233169555664
 21
87.2066650390625
 31
0.0
  0
LINE
  5
66
  8
SMALL_FEATURE
 10
63.54233169555664
 20
87.2066650390625
 30
0.0
 11
64.17733001708984
 21
82.80400085449219
 31
0.0
  0
LINE
  5
67
  8
SMALL_FEATURE
 10
64.17733001708984
 20
82.80400085449219
 30
0.0
 11
64.09266662597656
 21
80.13700103759766
 31
0.0
  0
LINE
  5
68
  8
SMALL_FEATURE
 10
64.09266662597656
 20
80.13700103759766
 30
0.0
 11
63.24599838256836
 21
75.69200134277344
 31
0.0
  0
LINE
  5
69
  8
SMALL_FEATURE
 10
63.24599838256836
 20
75.69200134277344
 30
0.0
 11
57.9119987487793
 21
75.73433685302734
 31
0.0
  0
LINE
  5
6A
  8
SMALL_FEATURE
 10
57.9119987487793
 20
75.73433685302734
 30
0.0
 11
58.33533477783203
 21
78.52833557128906
 31
0.0
  0
LINE
  5
6B
  8
SMALL_FEATURE
 10
58.33533477783203
 20
78.52833557128906
 30
0.0
 11
57.9543342590332
 21
78.65533447265625
 31
0.0
  0
LINE
  5
6C
  8
SMALL_FEATURE
 10
57.9543342590332
 20
78.65533447265625
 30
0.0
 11
57.9543342590332
 21
91.56700134277344
 31
0.0
  0
LINE
  5
6D
  8
SMALL_FEATURE
 10
57.9543342590332
 20
91.56700134277344
 30
0.0
 11
58.33533477783203
 21
91.60933685302734
 31
0.0
  0
LINE
  5
6E
  8
SMALL_FEATURE
 10
58.33533477783203
 20
91.60933685302734
 30
0.0
 11
57.9543342590332
 21
94.53033447265625
 31
0.0
  0
LINE
  5
6F
  8
SMALL_FEATURE
 10
83.48133087158203
 20
253.02633666992188
 30
0.0
 11
84.45500183105469
 21
252.94166564941406
 31
0.0
  0
LINE
  5
70
  8
SMALL_FEATURE
 10
84.45500183105469
 20
252.94166564941406
 30
0.0
 11
85.5556640625
 21
251.75633239746094
 31
0.0
  0
LINE
  5
71
  8
SMALL_FEATURE
 10
85.5556640625
 20
251.75633239746094
 30
0.0
 11
86.48699951171875
 21
230.75900268554688
 31
0.0
  0
LINE
  5
72
  8
SMALL_FEATURE
 10
86.48699951171875
 20
230.75900268554688
 30
0.0
 11
86.02133178710938
 21
229.40432739257812
 31
0.0
  0
LINE
  5
73
  8
SMALL_FEATURE
 10
86.02133178710938
 20
229.40432739257812
 30
0.0
 11
84.75133514404297
 21
228.7270050048828
 31
0.0
  0
LINE
  5
74
  8
SMALL_FEATURE
 10
84.75133514404297
 20
228.7270050048828
 30
0.0
 11
83.26966857910156
 21
229.15032958984375
 31
0.0
  0
LINE
  5
75
  8
SMALL_FEATURE
 10
83.26966857910156
 20
229.15032958984375
 30
0.0
 11
82.71932983398438
 21
229.8699951171875
 31
0.0
  0
LINE
  5
76
  8
SMALL_FEATURE
 10
82.71932983398438
 20
229.8699951171875
 30
0.0
 11
82.5076675415039
 21
230.8436737060547
 31
0.0
  0
LINE
  5
77
  8
SMALL_FEATURE
 10
82.5076675415039
 20
230.8436737060547
 30
0.0
 11
81.74566650390625
 21
251.16366577148438
 31
0.0
  0
LINE
  5
78
  8
SMALL_FEATURE
 10
81.74566650390625
 20
251.16366577148438
 30
0.0
 11
82.25366973876953
 21
252.39132690429688
 31
0.0
  0
LINE
  5
79
  8
SMALL_FEATURE
 10
82.25366973876953
 20
252.39132690429688
 30
0.0
 11
83.48133087158203
 21
253.02633666992188
 31
0.0
  0
LINE
  5
7A
  8
SMALL_FEATURE
 10
92.83699798583984
 20
252.98399353027344
 30
0.0
 11
93.9800033569336
 21
252.39132690429688
 31
0.0
  0
LINE
  5
7B
  8
SMALL_FEATURE
 10
93.9800033569336
 20
252.39132690429688
 30
0.0
 11
94.48799896240234
 21
251.16366577148438
 31
0.0
  0
LINE
  5
7C
  8
SMALL_FEATURE
 10
94.48799896240234
 20
251.16366577148438
 30
0.0
 11
93.6413345336914
 21
230.54733276367188
 31
0.0
  0
LINE
  5
7D
  8
SMALL_FEATURE
 10
93.6413345336914
 20
230.54733276367188
 30
0.0
 11
92.92166900634766
 21
229.10800170898438
 31
0.0
  0
LINE
  5
7E
  8
SMALL_FEATURE
 10
92.92166900634766
 20
229.10800170898438
 30
0.0
 11
92.2020034790039
 21
228.7270050048828
 31
0.0
  0
LINE
  5
7F
  8
SMALL_FEATURE
 10
92.2020034790039
 20
228.7270050048828
 30
0.0
 11
91.35533142089844
 21
228.7270050048828
 31
0.0
  0
LINE
  5
80
  8
SMALL_FEATURE
 10
91.35533142089844
 20
228.7270050048828
 30
0.0
 11
90.16999816894531
 21
229.44667053222656
 31
0.0
  0
LINE
  5
81
  8
SMALL_FEATURE
 10
90.16999816894531
 20
229.44667053222656
 30
0.0
 11
89.74666595458984
 21
230.4203338623047
 31
0.0
  0
LINE
  5
82
  8
SMALL_FEATURE
 10
89.74666595458984
 20
230.4203338623047
 30
0.0
 11
90.5086669921875
 21
250.6133270263672
 31
0.0
  0
LINE
  5
83
  8
SMALL_FEATURE
 10
90.5086669921875
 20
250.6133270263672
 30
0.0
 11
91.05899810791016
 21
252.39132690429688
 31
0.0
  0
LINE
  5
84
  8
SMALL_FEATURE
 10
91.05899810791016
 20
252.39132690429688
 30
0.0
 11
91.86333465576172
 21
252.8993377685547
 31
0.0
  0
LINE
  5
85
  8
SMALL_FEATURE
 10
91.86333465576172
 20
252.8993377685547
 30
0.0
 11
92.83699798583984
 21
252.98399353027344
 31
0.0
  0
LINE
  5
86
  8
SMALL_FEATURE
 10
185.29299926757812
 20
24.299333572387695
 30
0.0
 11
198.7550048828125
 21
24.34166717529297
 31
0.0
  0
LINE
  5
87
  8
SMALL_FEATURE
 10
198.7550048828125
 20
24.34166717529297
 30
0.0
 11
198.79733276367188
 21
17.82233238220215
 31
0.0
  0
LINE
  5
88
  8
SMALL_FEATURE
 10
198.79733276367188
 20
17.82233238220215
 30
0.0
 11
185.3353271484375
 21
17.780000686645508
 31
0.0
  0
LINE
  5
89
  8
SMALL_FEATURE
 10
185.3353271484375
 20
17.780000686645508
 30
0.0
 11
185.29299926757812
 21
24.299333572387695
 31
0.0
  0
LINE
  5
8A
  8
SMALL_FEATURE
 10
82.16899871826172
 20
219.0326690673828
 30
0.0
 11
94.02233123779297
 21
219.0749969482422
 31
0.0
  0
LINE
  5
8B
  8
SMALL_FEATURE
 10
94.02233123779297
 20
219.0749969482422
 30
0.0
 11
94.06466674804688
 21
212.25933837890625
 31
0.0
  0
LINE
  5
8C
  8
SMALL_FEATURE
 10
94.06466674804688
 20
212.25933837890625
 30
0.0
 11
91.22833251953125
 21
212.6403350830078
 31
0.0
  0
LINE
  5
8D
  8
SMALL_FEATURE
 10
91.22833251953125
 20
212.6403350830078
 30
0.0
 11
91.10133361816406
 21
212.25933837890625
 31
0.0
  0
LINE
  5
8E
  8
SMALL_FEATURE
 10
91.10133361816406
 20
212.25933837890625
 30
0.0
 11
85.04766845703125
 21
212.25933837890625
 31
0.0
  0
LINE
  5
8F
  8
SMALL_FEATURE
 10
85.04766845703125
 20
212.25933837890625
 30
0.0
 11
84.92066955566406
 21
212.6403350830078
 31
0.0
  0
LINE
  5
90
  8
SMALL_FEATURE
 10
84.92066955566406
 20
212.6403350830078
 30
0.0
 11
82.21133422851562
 21
212.2169952392578
 31
0.0
  0
LINE
  5
91
  8
SMALL_FEATURE
 10
82.21133422851562
 20
212.2169952392578
 30
0.0
 11
82.16899871826172
 21
219.0326690673828
 31
0.0
  0
LINE
  5
92
  8
SMALL_FEATURE
 10
160.90899658203125
 20
240.1146697998047
 30
0.0
 11
161.7556610107422
 21
219.87933349609375
 31
0.0
  0
LINE
  5
93
  8
SMALL_FEATURE
 10
161.7556610107422
 20
219.87933349609375
 30
0.0
 11
158.91932678222656
 21
220.2603302001953
 31
0.0
  0
LINE
  5
94
  8
SMALL_FEATURE
 10
158.91932678222656
 20
220.2603302001953
 30
0.0
 11
158.8346710205078
 21
219.87933349609375
 31
0.0
  0
LINE
  5
95
  8
SMALL_FEATURE
 10
158.8346710205078
 20
219.87933349609375
 30
0.0
 11
157.90333557128906
 21
219.87933349609375
 31
0.0
  0
LINE
  5
96
  8
SMALL_FEATURE
 10
157.90333557128906
 20
219.87933349609375
 30
0.0
 11
157.0143280029297
 21
240.02999877929688
 31
0.0
  0
LINE
  5
97
  8
SMALL_FEATURE
 10
157.0143280029297
 20
240.02999877929688
 30
0.0
 11
157.98800659179688
 21
240.07232666015625
 31
0.0
  0
LINE
  5
98
  8
SMALL_FEATURE
 10
157.98800659179688
 20
240.07232666015625
 30
0.0
 11
158.07266235351562
 21
239.6913299560547
 31
0.0
  0
LINE
  5
99
  8
SMALL_FEATURE
 10
158.07266235351562
 20
239.6913299560547
 30
0.0
 11
160.90899658203125
 21
240.1146697998047
 31
0.0
  0
LINE
  5
9A
  8
SMALL_FEATURE
 10
161.20533752441406
 20
240.07232666015625
 30
0.0
 11
165.60800170898438
 21
240.02999877929688
 31
0.0
  0
LINE
  5
9B
  8
SMALL_FEATURE
 10
165.60800170898438
 20
240.02999877929688
 30
0.0
 11
165.2693328857422
 21
231.43634033203125
 31
0.0
  0
LINE
  5
9C
  8
SMALL_FEATURE
 10
165.2693328857422
 20
231.43634033203125
 30
0.0
 11
163.4066619873047
 21
231.309326171875
 31
0.0
  0
LINE
  5
9D
  8
SMALL_FEATURE
 10
163.4066619873047
 20
231.309326171875
 30
0.0
 11
165.2270050048828
 21
231.13999938964844
 31
0.0
  0
LINE
  5
9E
  8
SMALL_FEATURE
 10
165.2270050048828
 20
231.13999938964844
 30
0.0
 11
164.76133728027344
 21
219.87933349609375
 31
0.0
  0
LINE
  5
9F
  8
SMALL_FEATURE
 10
164.76133728027344
 20
219.87933349609375
 30
0.0
 11
161.9673309326172
 21
219.92166137695312
 31
0.0
  0
LINE
  5
A0
  8
SMALL_FEATURE
 10
161.9673309326172
 20
219.92166137695312
 30
0.0
 11
162.00967407226562
 21
224.19732666015625
 31
0.0
  0
LINE
  5
A1
  8
SMALL_FEATURE
 10
162.00967407226562
 20
224.19732666015625
 30
0.0
 11
161.7556610107422
 21
224.87466430664062
 31
0.0
  0
LINE
  5
A2
  8
SMALL_FEATURE
 10
161.7556610107422
 20
224.87466430664062
 30
0.0
 11
161.20533752441406
 21
240.07232666015625
 31
0.0
  0
LINE
  5
A3
  8
SMALL_FEATURE
 10
96.81632995605469
 20
51.05400085449219
 30
0.0
 11
107.6536636352539
 21
51.09633255004883
 31
0.0
  0
LINE
  5
A4
  8
SMALL_FEATURE
 10
107.6536636352539
 20
51.09633255004883
 30
0.0
 11
107.69599914550781
 21
45.762332916259766
 31
0.0
  0
LINE
  5
A5
  8
SMALL_FEATURE
 10
107.69599914550781
 20
45.762332916259766
 30
0.0
 11
96.8586654663086
 21
45.720001220703125
 31
0.0
  0
LINE
  5
A6
  8
SMALL_FEATURE
 10
96.8586654663086
 20
45.720001220703125
 30
0.0
 11
96.81632995605469
 21
51.05400085449219
 31
0.0
  0
LINE
  5
A7
  8
SMALL_FEATURE
 10
68.4530029296875
 20
51.05400085449219
 30
0.0
 11
79.29033660888672
 21
51.09633255004883
 31
0.0
  0
LINE
  5
A8
  8
SMALL_FEATURE
 10
79.29033660888672
 20
51.09633255004883
 30
0.0
 11
79.3326644897461
 21
45.762332916259766
 31
0.0
  0
LINE
  5
A9
  8
SMALL_FEATURE
 10
79.3326644897461
 20
45.762332916259766
 30
0.0
 11
68.49533081054688
 21
45.720001220703125
 31
0.0
  0
LINE
  5
AA
  8
SMALL_FEATURE
 10
68.49533081054688
 20
45.720001220703125
 30
0.0
 11
68.49533081054688
 21
50.24966812133789
 31
0.0
  0
LINE
  5
AB
  8
SMALL_FEATURE
 10
68.49533081054688
 20
50.24966812133789
 30
0.0
 11
75.05699920654297
 21
50.37666702270508
 31
0.0
  0
LINE
  5
AC
  8
SMALL_FEATURE
 10
75.05699920654297
 20
50.37666702270508
 30
0.0
 11
68.49533081054688
 21
50.461334228515625
 31
0.0
  0
LINE
  5
AD
  8
SMALL_FEATURE
 10
68.49533081054688
 20
50.461334228515625
 30
0.0
 11
68.4530029296875
 21
51.05400085449219
 31
0.0
  0
LINE
  5
AE
  8
SMALL_FEATURE
 10
185.29299926757812
 20
17.525999069213867
 30
0.0
 11
198.7550048828125
 21
17.56833267211914
 31
0.0
  0
LINE
  5
AF
  8
SMALL_FEATURE
 10
198.7550048828125
 20
17.56833267211914
 30
0.0
 11
198.79733276367188
 21
13.58899974822998
 31
0.0
  0
LINE
  5
B0
  8
SMALL_FEATURE
 10
198.79733276367188
 20
13.58899974822998
 30
0.0
 11
185.3353271484375
 21
13.546667098999023
 31
0.0
  0
LINE
  5
B1
  8
SMALL_FEATURE
 10
185.3353271484375
 20
13.546667098999023
 30
0.0
 11
185.29299926757812
 21
17.525999069213867
 31
0.0
  0
LINE
  5
B2
  8
SMALL_FEATURE
 10
185.29299926757812
 20
13.2926664352417
 30
0.0
 11
198.7550048828125
 21
13.335000038146973
 31
0.0
  0
LINE
  5
B3
  8
SMALL_FEATURE
 10
198.7550048828125
 20
13.335000038146973
 30
0.0
 11
198.79733276367188
 21
9.440333366394043
 31
0.0
  0
LINE
  5
B4
  8
SMALL_FEATURE
 10
198.79733276367188
 20
9.440333366394043
 30
0.0
 11
185.3353271484375
 21
9.39799976348877
 31
0.0
  0
LINE
  5
B5
  8
SMALL_FEATURE
 10
185.3353271484375
 20
9.39799976348877
 30
0.0
 11
185.29299926757812
 21
13.2926664352417
 31
0.0
  0
LINE
  5
B6
  8
SMALL_FEATURE
 10
169.3333282470703
 20
231.22467041015625
 30
0.0
 11
168.91000366210938
 21
219.92166137695312
 31
0.0
  0
LINE
  5
B7
  8
SMALL_FEATURE
 10
168.91000366210938
 20
219.92166137695312
 30
0.0
 11
167.93634033203125
 21
219.87933349609375
 31
0.0
  0
LINE
  5
B8
  8
SMALL_FEATURE
 10
167.93634033203125
 20
219.87933349609375
 30
0.0
 11
167.85166931152344
 21
220.2603302001953
 31
0.0
  0
LINE
  5
B9
  8
SMALL_FEATURE
 10
167.85166931152344
 20
220.2603302001953
 30
0.0
 11
165.0576629638672
 21
219.83700561523438
 31
0.0
  0
LINE
  5
BA
  8
SMALL_FEATURE
 10
165.0576629638672
 20
219.83700561523438
 30
0.0
 11
165.43865966796875
 21
231.13999938964844
 31
0.0
  0
LINE
  5
BB
  8
SMALL_FEATURE
 10
165.43865966796875
 20
231.13999938964844
 30
0.0
 11
166.53933715820312
 21
231.1823272705078
 31
0.0
  0
LINE
  5
BC
  8
SMALL_FEATURE
 10
166.53933715820312
 20
231.1823272705078
 30
0.0
 11
166.6663360595703
 21
230.80133056640625
 31
0.0
  0
LINE
  5
BD
  8
SMALL_FEATURE
 10
166.6663360595703
 20
230.80133056640625
 30
0.0
 11
169.3333282470703
 21
231.22467041015625
 31
0.0
  0
LINE
  5
BE
  8
SMALL_FEATURE
 10
165.86199951171875
 20
240.1146697998047
 30
0.0
 11
168.69833374023438
 21
239.6913299560547
 31
0.0
  0
LINE
  5
BF
  8
SMALL_FEATURE
 10
168.69833374023438
 20
239.6913299560547
 30
0.0
 11
168.7830047607422
 21
240.07232666015625
 31
0.0
  0
LINE
  5
C0
  8
SMALL_FEATURE
 10
168.7830047607422
 20
240.07232666015625
 30
0.0
 11
169.7566680908203
 21
240.02999877929688
 31
0.0
  0
LINE
  5
C1
  8
SMALL_FEATURE
 10
169.7566680908203
 20
240.02999877929688
 30
0.0
 11
169.3333282470703
 21
231.35166931152344
 31
0.0
  0
LINE
  5
C2
  8
SMALL_FEATURE
 10
169.3333282470703
 20
231.35166931152344
 30
0.0
 11
166.62399291992188
 21
231.77499389648438
 31
0.0
  0
LINE
  5
C3
  8
SMALL_FEATURE
 10
166.62399291992188
 20
231.77499389648438
 30
0.0
 11
166.53933715820312
 21
231.3939971923828
 31
0.0
  0
LINE
  5
C4
  8
SMALL_FEATURE
 10
166.53933715820312
 20
231.3939971923828
 30
0.0
 11
165.4810028076172
 21
231.43634033203125
 31
0.0
  0
LINE
  5
C5
  8
SMALL_FEATURE
 10
165.4810028076172
 20
231.43634033203125
 30
0.0
 11
165.86199951171875
 21
240.1146697998047
 31
0.0
  0
LINE
  5
C6
  8
SMALL_FEATURE
 10
63.07666778564453
 20
75.48033142089844
 30
0.0
 11
62.48400115966797
 21
73.27899932861328
 31
0.0
  0
LINE
  5
C7
  8
SMALL_FEATURE
 10
62.48400115966797
 20
73.27899932861328
 30
0.0
 11
58.50466537475586
 21
64.9816665649414
 31
0.0
  0
LINE
  5
C8
  8
SMALL_FEATURE
 10
58.50466537475586
 20
64.9816665649414
 30
0.0
 11
57.996665954589844
 21
64.72766876220703
 31
0.0
  0
LINE
  5
C9
  8
SMALL_FEATURE
 10
57.996665954589844
 20
64.72766876220703
 30
0.0
 11
57.9543342590332
 21
72.51699829101562
 31
0.0
  0
LINE
  5
CA
  8
SMALL_FEATURE
 10
57.9543342590332
 20
72.51699829101562
 30
0.0
 11
58.33533477783203
 21
72.64399719238281
 31
0.0
  0
LINE
  5
CB
  8
SMALL_FEATURE
 10
58.33533477783203
 20
72.64399719238281
 30
0.0
 11
57.9119987487793
 21
75.43800354003906
 31
0.0
  0
LINE
  5
CC
  8
SMALL_FEATURE
 10
57.9119987487793
 20
75.43800354003906
 30
0.0
 11
63.07666778564453
 21
75.48033142089844
 31
0.0
  0
LINE
  5
CD
  8
SMALL_FEATURE
 10
169.62966918945312
 20
231.1823272705078
 30
0.0
 11
172.12733459472656
 21
231.13999938964844
 31
0.0
  0
LINE
  5
CE
  8
SMALL_FEATURE
 10
172.12733459472656
 20
231.13999938964844
 30
0.0
 11
171.6193389892578
 21
219.87933349609375
 31
0.0
  0
LINE
  5
CF
  8
SMALL_FEATURE
 10
171.6193389892578
 20
219.87933349609375
 30
0.0
 11
169.12167358398438
 21
219.92166137695312
 31
0.0
  0
LINE
  5
D0
  8
SMALL_FEATURE
 10
169.12167358398438
 20
219.92166137695312
 30
0.0
 11
169.41799926757812
 21
227.3300018310547
 31
0.0
  0
LINE
  5
D1
  8
SMALL_FEATURE
 10
169.41799926757812
 20
227.3300018310547
 30
0.0
 11
169.71434020996094
 21
227.45700073242188
 31
0.0
  0
LINE
  5
D2
  8
SMALL_FEATURE
 10
169.71434020996094
 20
227.45700073242188
 30
0.0
 11
169.62966918945312
 21
231.1823272705078
 31
0.0
  0
LINE
  5
D3
  8
SMALL_FEATURE
 10
50.29199981689453
 20
37.676666259765625
 30
0.0
 11
50.67300033569336
 21
37.634334564208984
 31
0.0
  0
LINE
  5
D4
  8
SMALL_FEATURE
 10
50.67300033569336
 20
37.634334564208984
 30
0.0
 11
52.06999969482422
 21
33.10466766357422
 31
0.0
  0
LINE
  5
D5
  8
SMALL_FEATURE
 10
52.06999969482422
 20
33.10466766357422
 30
0.0
 11
55.202667236328125
 21
27.812999725341797
 31
0.0
  0
LINE
  5
D6
  8
SMALL_FEATURE
 10
55.202667236328125
 20
27.812999725341797
 30
0.0
 11
55.202667236328125
 21
27.347333908081055
 31
0.0
  0
LINE
  5
D7
  8
SMALL_FEATURE
 10
55.202667236328125
 20
27.347333908081055
 30
0.0
 11
53.2130012512207
 21
27.347333908081055
 31
0.0
  0
LINE
  5
D8
  8
SMALL_FEATURE
 10
53.2130012512207
 20
27.347333908081055
 30
0.0
 11
53.1706657409668
 21
27.72833251953125
 31
0.0
  0
LINE
  5
D9
  8
SMALL_FEATURE
 10
53.1706657409668
 20
27.72833251953125
 30
0.0
 11
50.24966812133789
 21
27.347333908081055
 31
0.0
  0
LINE
  5
DA
  8
SMALL_FEATURE
 10
50.24966812133789
 20
27.347333908081055
 30
0.0
 11
50.29199981689453
 21
37.676666259765625
 31
0.0
  0
LINE
  5
DB
  8
SMALL_FEATURE
 10
171.36532592773438
 20
94.36100006103516
 30
0.0
 11
174.3286590576172
 21
94.31866455078125
 31
0.0
  0
LINE
  5
DC
  8
SMALL_FEATURE
 10
174.3286590576172
 20
94.31866455078125
 30
0.0
 11
174.20166015625
 21
86.14833068847656
 31
0.0
  0
LINE
  5
DD
  8
SMALL_FEATURE
 10
174.20166015625
 20
86.14833068847656
 30
0.0
 11
171.322998046875
 21
86.61399841308594
 31
0.0
  0
LINE
  5
DE
  8
SMALL_FEATURE
 10
171.322998046875
 20
86.61399841308594
 30
0.0
 11
171.36532592773438
 21
94.36100006103516
 31
0.0
  0
LINE
  5
DF
  8
SMALL_FEATURE
 10
125.85700225830078
 20
37.3380012512207
 30
0.0
 11
125.89933013916016
 21
27.347333908081055
 31
0.0
  0
LINE
  5
E0
  8
SMALL_FEATURE
 10
125.89933013916016
 20
27.347333908081055
 30
0.0
 11
123.06300354003906
 21
27.72833251953125
 31
0.0
  0
LINE
  5
E1
  8
SMALL_FEATURE
 10
123.06300354003906
 20
27.72833251953125
 30
0.0
 11
122.93599700927734
 21
27.347333908081055
 31
0.0
  0
LINE
  5
E2
  8
SMALL_FEATURE
 10
122.93599700927734
 20
27.347333908081055
 30
0.0
 11
120.9886703491211
 21
27.347333908081055
 31
0.0
  0
LINE
  5
E3
  8
SMALL_FEATURE
 10
120.9886703491211
 20
27.347333908081055
 30
0.0
 11
120.9886703491211
 21
27.812999725341797
 31
0.0
  0
LINE
  5
E4
  8
SMALL_FEATURE
 10
120.9886703491211
 20
27.812999725341797
 30
0.0
 11
124.16366577148438
 21
33.10466766357422
 31
0.0
  0
LINE
  5
E5
  8
SMALL_FEATURE
 10
124.16366577148438
 20
33.10466766357422
 30
0.0
 11
125.47599792480469
 21
37.2956657409668
 31
0.0
  0
LINE
  5
E6
  8
SMALL_FEATURE
 10
125.47599792480469
 20
37.2956657409668
 30
0.0
 11
125.85700225830078
 21
37.3380012512207
 31
0.0
  0
LINE
  5
E7
  8
SMALL_FEATURE
 10
128.60867309570312
 20
171.111328125
 30
0.0
 11
128.60867309570312
 21
163.2796630859375
 31
0.0
  0
LINE
  5
E8
  8
SMALL_FEATURE
 10
128.60867309570312
 20
163.2796630859375
 30
0.0
 11
126.70366668701172
 21
163.23733520507812
 31
0.0
  0
LINE
  5
E9
  8
SMALL_FEATURE
 10
126.70366668701172
 20
163.23733520507812
 30
0.0
 11
126.70366668701172
 21
161.9250030517578
 31
0.0
  0
LINE
  5
EA
  8
SMALL_FEATURE
 10
126.70366668701172
 20
161.9250030517578
 30
0.0
 11
138.98033142089844
 21
161.9673309326172
 31
0.0
  0
LINE
  5
EB
  8
SMALL_FEATURE
 10
138.98033142089844
 20
161.9673309326172
 30
0.0
 11
138.93800354003906
 21
163.23733520507812
 31
0.0
  0
LINE
  5
EC
  8
SMALL_FEATURE
 10
138.93800354003906
 20
163.23733520507812
 30
0.0
 11
137.0330047607422
 21
163.2796630859375
 31
0.0
  0
LINE
  5
ED
  8
SMALL_FEATURE
 10
137.0330047607422
 20
163.2796630859375
 30
0.0
 11
136.94833374023438
 21
170.51866149902344
 31
0.0
  0
LINE
  5
EE
  8
SMALL_FEATURE
 10
136.94833374023438
 20
170.51866149902344
 30
0.0
 11
136.7790069580078
 21
163.23733520507812
 31
0.0
  0
LINE
  5
EF
  8
SMALL_FEATURE
 10
136.7790069580078
 20
163.23733520507812
 30
0.0
 11
134.23899841308594
 21
163.2796630859375
 31
0.0
  0
LINE
  5
F0
  8
SMALL_FEATURE
 10
134.23899841308594
 20
163.2796630859375
 30
0.0
 11
134.15432739257812
 21
170.51866149902344
 31
0.0
  0
LINE
  5
F1
  8
SMALL_FEATURE
 10
134.15432739257812
 20
170.51866149902344
 30
0.0
 11
134.02732849121094
 21
163.2796630859375
 31
0.0
  0
LINE
  5
F2
  8
SMALL_FEATURE
 10
134.02732849121094
 20
163.2796630859375
 30
0.0
 11
131.5296630859375
 21
163.2796630859375
 31
0.0
  0
LINE
  5
F3
  8
SMALL_FEATURE
 10
131.5296630859375
 20
163.2796630859375
 30
0.0
 11
131.4026641845703
 21
170.51866149902344
 31
0.0
  0
LINE
  5
F4
  8
SMALL_FEATURE
 10
131.4026641845703
 20
170.51866149902344
 30
0.0
 11
131.3179931640625
 21
163.2796630859375
 31
0.0
  0
LINE
  5
F5
  8
SMALL_FEATURE
 10
131.3179931640625
 20
163.2796630859375
 30
0.0
 11
128.8626708984375
 21
163.23733520507812
 31
0.0
  0
LINE
  5
F6
  8
SMALL_FEATURE
 10
128.8626708984375
 20
163.23733520507812
 30
0.0
 11
128.82032775878906
 21
171.111328125
 31
0.0
  0
LINE
  5
F7
  8
SMALL_FEATURE
 10
128.82032775878906
 20
171.111328125
 30
0.0
 11
128.60867309570312
 21
171.111328125
 31
0.0
  0
LINE
  5
F8
  8
SMALL_FEATURE
 10
170.0106658935547
 20
240.07232666015625
 30
0.0
 11
172.50833129882812
 21
240.02999877929688
 31
0.0
  0
LINE
  5
F9
  8
SMALL_FEATURE
 10
172.50833129882812
 20
240.02999877929688
 30
0.0
 11
172.12733459472656
 21
231.3939971923828
 31
0.0
  0
LINE
  5
FA
  8
SMALL_FEATURE
 10
172.12733459472656
 20
231.3939971923828
 30
0.0
 11
169.62966918945312
 21
231.43634033203125
 31
0.0
  0
LINE
  5
FB
  8
SMALL_FEATURE
 10
169.62966918945312
 20
231.43634033203125
 30
0.0
 11
170.0106658935547
 21
240.07232666015625
 31
0.0
  0
LINE
  5
FC
  8
SMALL_FEATURE
 10
171.4499969482422
 20
102.9123306274414
 30
0.0
 11
173.22799682617188
 21
102.82766723632812
 31
0.0
  0
LINE
  5
FD
  8
SMALL_FEATURE
 10
173.22799682617188
 20
102.82766723632812
 30
0.0
 11
174.20166015625
 21
96.6893310546875
 31
0.0
  0
LINE
  5
FE
  8
SMALL_FEATURE
 10
174.20166015625
 20
96.6893310546875
 30
0.0
 11
171.28067016601562
 21
96.7316665649414
 31
0.0
  0
LINE
  5
FF
  8
SMALL_FEATURE
 10
171.28067016601562
 20
96.7316665649414
 30
0.0
 11
170.94200134277344
 21
99.05999755859375
 31
0.0
  0
LINE
  5
100
  8
SMALL_FEATURE
 10
170.94200134277344
 20
99.05999755859375
 30
0.0
 11
171.4076690673828
 21
99.18699645996094
 31
0.0
  0
LINE
  5
101
  8
SMALL_FEATURE
 10
171.4076690673828
 20
99.18699645996094
 30
0.0
 11
171.4499969482422
 21
102.9123306274414
 31
0.0
  0
LINE
  5
102
  8
SMALL_FEATURE
 10
122.51266479492188
 20
180.84800720214844
 30
0.0
 11
125.64533233642578
 21
180.7209930419922
 31
0.0
  0
LINE
  5
103
  8
SMALL_FEATURE
 10
125.64533233642578
 20
180.7209930419922
 30
0.0
 11
125.68766784667969
 21
180.33999633789062
 31
0.0
  0
LINE
  5
104
  8
SMALL_FEATURE
 10
125.68766784667969
 20
180.33999633789062
 30
0.0
 11
128.5663299560547
 21
180.76333618164062
 31
0.0
  0
LINE
  5
105
  8
SMALL_FEATURE
 10
128.5663299560547
 20
180.76333618164062
 30
0.0
 11
128.69332885742188
 21
175.55633544921875
 31
0.0
  0
LINE
  5
106
  8
SMALL_FEATURE
 10
128.69332885742188
 20
175.55633544921875
 30
0.0
 11
128.8626708984375
 21
180.7209930419922
 31
0.0
  0
LINE
  5
107
  8
SMALL_FEATURE
 10
128.8626708984375
 20
180.7209930419922
 30
0.0
 11
136.7790069580078
 21
180.7209930419922
 31
0.0
  0
LINE
  5
108
  8
SMALL_FEATURE
 10
136.7790069580078
 20
180.7209930419922
 30
0.0
 11
136.906005859375
 21
174.79432678222656
 31
0.0
  0
LINE
  5
109
  8
SMALL_FEATURE
 10
136.906005859375
 20
174.79432678222656
 30
0.0
 11
137.07533264160156
 21
180.76333618164062
 31
0.0
  0
LINE
  5
10A
  8
SMALL_FEATURE
 10
137.07533264160156
 20
180.76333618164062
 30
0.0
 11
139.95399475097656
 21
180.33999633789062
 31
0.0
  0
LINE
  5
10B
  8
SMALL_FEATURE
 10
139.95399475097656
 20
180.33999633789062
 30
0.0
 11
139.996337890625
 21
180.7209930419922
 31
0.0
  0
LINE
  5
10C
  8
SMALL_FEATURE
 10
139.996337890625
 20
180.7209930419922
 30
0.0
 11
143.04432678222656
 21
180.8056640625
 31
0.0
  0
LINE
  5
10D
  8
SMALL_FEATURE
 10
143.04432678222656
 20
180.8056640625
 30
0.0
 11
139.996337890625
 21
180.9326629638672
 31
0.0
  0
LINE
  5
10E
  8
SMALL_FEATURE
 10
139.996337890625
 20
180.9326629638672
 30
0.0
 11
139.95399475097656
 21
181.31365966796875
 31
0.0
  0
LINE
  5
10F
  8
SMALL_FEATURE
 10
139.95399475097656
 20
181.31365966796875
 30
0.0
 11
137.07533264160156
 21
180.8903350830078
 31
0.0
  0
LINE
  5
110
  8
SMALL_FEATURE
 10
137.07533264160156
 20
180.8903350830078
 30
0.0
 11
136.94833374023438
 21
184.74266052246094
 31
0.0
  0
LINE
  5
111
  8
SMALL_FEATURE
 10
136.94833374023438
 20
184.74266052246094
 30
0.0
 11
136.7790069580078
 21
180.9326629638672
 31
0.0
  0
LINE
  5
112
  8
SMALL_FEATURE
 10
136.7790069580078
 20
180.9326629638672
 30
0.0
 11
128.8626708984375
 21
180.9326629638672
 31
0.0
  0
LINE
  5
113
  8
SMALL_FEATURE
 10
128.8626708984375
 20
180.9326629638672
 30
0.0
 11
128.69332885742188
 21
184.74266052246094
 31
0.0
  0
LINE
  5
114
  8
SMALL_FEATURE
 10
128.69332885742188
 20
184.74266052246094
 30
0.0
 11
128.5663299560547
 21
180.8903350830078
 31
0.0
  0
LINE
  5
115
  8
SMALL_FEATURE
 10
128.5663299560547
 20
180.8903350830078
 30
0.0
 11
125.68766784667969
 21
181.31365966796875
 31
0.0
  0
LINE
  5
116
  8
SMALL_FEATURE
 10
125.68766784667969
 20
181.31365966796875
 30
0.0
 11
125.64533233642578
 21
180.9326629638672
 31
0.0
  0
LINE
  5
117
  8
SMALL_FEATURE
 10
125.64533233642578
 20
180.9326629638672
 30
0.0
 11
122.51266479492188
 21
180.84800720214844
 31
0.0
  0
LINE
  5
118
  8
SMALL_FEATURE
 10
117.77133178710938
 20
57.40399932861328
 30
0.0
 11
117.6866683959961
 21
54.271331787109375
 31
0.0
  0
LINE
  5
119
  8
SMALL_FEATURE
 10
117.6866683959961
 20
54.271331787109375
 30
0.0
 11
117.3056640625
 21
54.229000091552734
 31
0.0
  0
LINE
  5
11A
  8
SMALL_FEATURE
 10
117.3056640625
 20
54.229000091552734
 30
0.0
 11
117.72899627685547
 21
51.35033416748047
 31
0.0
  0
LINE
  5
11B
  8
SMALL_FEATURE
 10
117.72899627685547
 20
51.35033416748047
 30
0.0
 11
112.26799774169922
 21
51.223331451416016
 31
0.0
  0
LINE
  5
11C
  8
SMALL_FEATURE
 10
112.26799774169922
 20
51.223331451416016
 30
0.0
 11
117.6866683959961
 21
51.05400085449219
 31
0.0
  0
LINE
  5
11D
  8
SMALL_FEATURE
 10
117.6866683959961
 20
51.05400085449219
 30
0.0
 11
117.6866683959961
 21
45.762332916259766
 31
0.0
  0
LINE
  5
11E
  8
SMALL_FEATURE
 10
117.6866683959961
 20
45.762332916259766
 30
0.0
 11
112.26799774169922
 21
45.59299850463867
 31
0.0
  0
LINE
  5
11F
  8
SMALL_FEATURE
 10
112.26799774169922
 20
45.59299850463867
 30
0.0
 11
117.72899627685547
 21
45.465999603271484
 31
0.0
  0
LINE
  5
120
  8
SMALL_FEATURE
 10
117.72899627685547
 20
45.465999603271484
 30
0.0
 11
117.3056640625
 21
42.58733367919922
 31
0.0
  0
LINE
  5
121
  8
SMALL_FEATURE
 10
117.3056640625
 20
42.58733367919922
 30
0.0
 11
117.6866683959961
 21
42.54499816894531
 31
0.0
  0
LINE
  5
122
  8
SMALL_FEATURE
 10
117.6866683959961
 20
42.54499816894531
 30
0.0
 11
117.81366729736328
 21
39.41233444213867
 31
0.0
  0
LINE
  5
123
  8
SMALL_FEATURE
 10
117.81366729736328
 20
39.41233444213867
 30
0.0
 11
117.89833068847656
 21
42.54499816894531
 31
0.0
  0
LINE
  5
124
  8
SMALL_FEATURE
 10
117.89833068847656
 20
42.54499816894531
 30
0.0
 11
118.27933502197266
 21
42.58733367919922
 31
0.0
  0
LINE
  5
125
  8
SMALL_FEATURE
 10
118.27933502197266
 20
42.58733367919922
 30
0.0
 11
117.85600280761719
 21
45.465999603271484
 31
0.0
  0
LINE
  5
126
  8
SMALL_FEATURE
 10
117.85600280761719
 20
45.465999603271484
 30
0.0
 11
121.70833587646484
 21
45.59299850463867
 31
0.0
  0
LINE
  5
127
  8
SMALL_FEATURE
 10
121.70833587646484
 20
45.59299850463867
 30
0.0
 11
117.89833068847656
 21
45.762332916259766
 31
0.0
  0
LINE
  5
128
  8
SMALL_FEATURE
 10
117.89833068847656
 20
45.762332916259766
 30
0.0
 11
117.89833068847656
 21
51.05400085449219
 31
0.0
  0
LINE
  5
129
  8
SMALL_FEATURE
 10
117.89833068847656
 20
51.05400085449219
 30
0.0
 11
121.70833587646484
 21
51.223331451416016
 31
0.0
  0
LINE
  5
12A
  8
SMALL_FEATURE
 10
121.70833587646484
 20
51.223331451416016
 30
0.0
 11
117.85600280761719
 21
51.35033416748047
 31
0.0
  0
LINE
  5
12B
  8
SMALL_FEATURE
 10
117.85600280761719
 20
51.35033416748047
 30
0.0
 11
118.27933502197266
 21
54.229000091552734
 31
0.0
  0
LINE
  5
12C
  8
SMALL_FEATURE
 10
118.27933502197266
 20
54.229000091552734
 30
0.0
 11
117.89833068847656
 21
54.271331787109375
 31
0.0
  0
LINE
  5
12D
  8
SMALL_FEATURE
 10
117.89833068847656
 20
54.271331787109375
 30
0.0
 11
117.77133178710938
 21
57.40399932861328
 31
0.0
  0
LINE
  5
12E
  8
SMALL_FEATURE
 10
153.75466918945312
 20
259.5880126953125
 30
0.0
 11
153.83934020996094
 21
250.90966796875
 31
0.0
  0
LINE
  5
12F
  8
SMALL_FEATURE
 10
153.83934020996094
 20
250.90966796875
 30
0.0
 11
154.0086669921875
 21
255.69332885742188
 31
0.0
  0
LINE
  5
130
  8
SMALL_FEATURE
 10
154.0086669921875
 20
255.69332885742188
 30
0.0
 11
156.80267333984375
 21
255.27000427246094
 31
0.0
  0
LINE
  5
131
  8
SMALL_FEATURE
 10
156.80267333984375
 20
255.27000427246094
 30
0.0
 11
156.92967224121094
 21
255.6510009765625
 31
0.0
  0
LINE
  5
132
  8
SMALL_FEATURE
 10
156.92967224121094
 20
255.6510009765625
 30
0.0
 11
169.84133911132812
 21
255.6510009765625
 31
0.0
  0
LINE
  5
133
  8
SMALL_FEATURE
 10
169.84133911132812
 20
255.6510009765625
 30
0.0
 11
169.9683380126953
 21
255.27000427246094
 31
0.0
  0
LINE
  5
134
  8
SMALL_FEATURE
 10
169.9683380126953
 20
255.27000427246094
 30
0.0
 11
172.7623291015625
 21
255.69332885742188
 31
0.0
  0
LINE
  5
135
  8
SMALL_FEATURE
 10
172.7623291015625
 20
255.69332885742188
 30
0.0
 11
172.80467224121094
 21
250.9943389892578
 31
0.0
  0
LINE
  5
136
  8
SMALL_FEATURE
 10
172.80467224121094
 20
250.9943389892578
 30
0.0
 11
173.01632690429688
 21
250.9943389892578
 31
0.0
  0
LINE
  5
137
  8
SMALL_FEATURE
 10
173.01632690429688
 20
250.9943389892578
 30
0.0
 11
172.93167114257812
 21
259.67266845703125
 31
0.0
  0
LINE
  5
138
  8
SMALL_FEATURE
 10
172.93167114257812
 20
259.67266845703125
 30
0.0
 11
172.7623291015625
 21
255.82032775878906
 31
0.0
  0
LINE
  5
139
  8
SMALL_FEATURE
 10
172.7623291015625
 20
255.82032775878906
 30
0.0
 11
169.92599487304688
 21
256.24365234375
 31
0.0
  0
LINE
  5
13A
  8
SMALL_FEATURE
 10
169.92599487304688
 20
256.24365234375
 30
0.0
 11
169.84133911132812
 21
255.8626708984375
 31
0.0
  0
LINE
  5
13B
  8
SMALL_FEATURE
 10
169.84133911132812
 20
255.8626708984375
 30
0.0
 11
156.92967224121094
 21
255.8626708984375
 31
0.0
  0
LINE
  5
13C
  8
SMALL_FEATURE
 10
156.92967224121094
 20
255.8626708984375
 30
0.0
 11
156.84500122070312
 21
256.24365234375
 31
0.0
  0
LINE
  5
13D
  8
SMALL_FEATURE
 10
156.84500122070312
 20
256.24365234375
 30
0.0
 11
154.0086669921875
 21
255.82032775878906
 31
0.0
  0
LINE
  5
13E
  8
SMALL_FEATURE
 10
154.0086669921875
 20
255.82032775878906
 30
0.0
 11
153.96633911132812
 21
259.5880126953125
 31
0.0
  0
LINE
  5
13F
  8
SMALL_FEATURE
 10
153.96633911132812
 20
259.5880126953125
 30
0.0
 11
153.75466918945312
 21
259.5880126953125
 31
0.0
  0
LINE
  5
140
  8
SMALL_FEATURE
 10
145.79600524902344
 20
240.62266540527344
 30
0.0
 11
145.79600524902344
 21
240.41099548339844
 31
0.0
  0
LINE
  5
141
  8
SMALL_FEATURE
 10
145.79600524902344
 20
240.41099548339844
 30
0.0
 11
149.56365966796875
 21
240.36866760253906
 31
0.0
  0
LINE
  5
142
  8
SMALL_FEATURE
 10
149.56365966796875
 20
240.36866760253906
 30
0.0
 11
149.1403350830078
 21
237.53233337402344
 31
0.0
  0
LINE
  5
143
  8
SMALL_FEATURE
 10
149.1403350830078
 20
237.53233337402344
 30
0.0
 11
149.52133178710938
 21
237.44766235351562
 31
0.0
  0
LINE
  5
144
  8
SMALL_FEATURE
 10
149.52133178710938
 20
237.44766235351562
 30
0.0
 11
149.52133178710938
 21
222.67333984375
 31
0.0
  0
LINE
  5
145
  8
SMALL_FEATURE
 10
149.52133178710938
 20
222.67333984375
 30
0.0
 11
149.1403350830078
 21
222.5886688232422
 31
0.0
  0
LINE
  5
146
  8
SMALL_FEATURE
 10
149.1403350830078
 20
222.5886688232422
 30
0.0
 11
149.56365966796875
 21
219.75233459472656
 31
0.0
  0
LINE
  5
147
  8
SMALL_FEATURE
 10
149.56365966796875
 20
219.75233459472656
 30
0.0
 11
145.71133422851562
 21
219.58299255371094
 31
0.0
  0
LINE
  5
148
  8
SMALL_FEATURE
 10
145.71133422851562
 20
219.58299255371094
 30
0.0
 11
153.20433044433594
 21
219.4983367919922
 31
0.0
  0
LINE
  5
149
  8
SMALL_FEATURE
 10
153.20433044433594
 20
219.4983367919922
 30
0.0
 11
153.20433044433594
 21
219.7100067138672
 31
0.0
  0
LINE
  5
14A
  8
SMALL_FEATURE
 10
153.20433044433594
 20
219.7100067138672
 30
0.0
 11
149.690673828125
 21
219.75233459472656
 31
0.0
  0
LINE
  5
14B
  8
SMALL_FEATURE
 10
149.690673828125
 20
219.75233459472656
 30
0.0
 11
150.11399841308594
 21
222.5886688232422
 31
0.0
  0
LINE
  5
14C
  8
SMALL_FEATURE
 10
150.11399841308594
 20
222.5886688232422
 30
0.0
 11
149.73300170898438
 21
222.67333984375
 31
0.0
  0
LINE
  5
14D
  8
SMALL_FEATURE
 10
149.73300170898438
 20
222.67333984375
 30
0.0
 11
149.73300170898438
 21
237.44766235351562
 31
0.0
  0
LINE
  5
14E
  8
SMALL_FEATURE
 10
149.73300170898438
 20
237.44766235351562
 30
0.0
 11
150.11399841308594
 21
237.53233337402344
 31
0.0
  0
LINE
  5
14F
  8
SMALL_FEATURE
 10
150.11399841308594
 20
237.53233337402344
 30
0.0
 11
149.690673828125
 21
240.36866760253906
 31
0.0
  0
LINE
  5
150
  8
SMALL_FEATURE
 10
149.690673828125
 20
240.36866760253906
 30
0.0
 11
152.52699279785156
 21
240.53799438476562
 31
0.0
  0
LINE
  5
151
  8
SMALL_FEATURE
 10
152.52699279785156
 20
240.53799438476562
 30
0.0
 11
145.79600524902344
 21
240.62266540527344
 31
0.0
  0
LINE
  5
152
  8
SMALL_FEATURE
 10
189.86500549316406
 20
32.85066604614258
 30
0.0
 11
188.55267333984375
 21
32.85066604614258
 31
0.0
  0
LINE
  5
153
  8
SMALL_FEATURE
 10
188.55267333984375
 20
32.85066604614258
 30
0.0
 11
188.00233459472656
 21
33.231666564941406
 31
0.0
  0
LINE
  5
154
  8
SMALL_FEATURE
 10
188.00233459472656
 20
33.231666564941406
 30
0.0
 11
188.00233459472656
 21
33.69733428955078
 31
0.0
  0
LINE
  5
155
  8
SMALL_FEATURE
 10
188.00233459472656
 20
33.69733428955078
 30
0.0
 11
187.66366577148438
 21
33.189334869384766
 31
0.0
  0
LINE
  5
156
  8
SMALL_FEATURE
 10
187.66366577148438
 20
33.189334869384766
 30
0.0
 11
187.197998046875
 21
33.189334869384766
 31
0.0
  0
LINE
  5
157
  8
SMALL_FEATURE
 10
187.197998046875
 20
33.189334869384766
 30
0.0
 11
187.36734008789062
 21
34.71333312988281
 31
0.0
  0
LINE
  5
158
  8
SMALL_FEATURE
 10
187.36734008789062
 20
34.71333312988281
 30
0.0
 11
186.3090057373047
 21
33.358665466308594
 31
0.0
  0
LINE
  5
159
  8
SMALL_FEATURE
 10
186.3090057373047
 20
33.358665466308594
 30
0.0
 11
184.1923370361328
 21
32.13100051879883
 31
0.0
  0
LINE
  5
15A
  8
SMALL_FEATURE
 10
184.1923370361328
 20
32.13100051879883
 30
0.0
 11
183.34567260742188
 21
31.284334182739258
 31
0.0
  0
LINE
  5
15B
  8
SMALL_FEATURE
 10
183.34567260742188
 20
31.284334182739258
 30
0.0
 11
183.0070037841797
 21
29.80266761779785
 31
0.0
  0
LINE
  5
15C
  8
SMALL_FEATURE
 10
183.0070037841797
 20
29.80266761779785
 30
0.0
 11
183.85366821289062
 21
31.496000289916992
 31
0.0
  0
LINE
  5
15D
  8
SMALL_FEATURE
 10
183.85366821289062
 20
31.496000289916992
 30
0.0
 11
185.37767028808594
 21
32.34266662597656
 31
0.0
  0
LINE
  5
15E
  8
SMALL_FEATURE
 10
185.37767028808594
 20
32.34266662597656
 30
0.0
 11
186.13966369628906
 21
32.34266662597656
 31
0.0
  0
LINE
  5
15F
  8
SMALL_FEATURE
 10
186.13966369628906
 20
32.34266662597656
 30
0.0
 11
185.37767028808594
 21
29.125333786010742
 31
0.0
  0
LINE
  5
160
  8
SMALL_FEATURE
 10
185.37767028808594
 20
29.125333786010742
 30
0.0
 11
184.48866271972656
 21
26.71233367919922
 31
0.0
  0
LINE
  5
161
  8
SMALL_FEATURE
 10
184.48866271972656
 20
26.71233367919922
 30
0.0
 11
184.0229949951172
 21
26.71233367919922
 31
0.0
  0
LINE
  5
162
  8
SMALL_FEATURE
 10
184.0229949951172
 20
26.71233367919922
 30
0.0
 11
184.14999389648438
 21
28.40566635131836
 31
0.0
  0
LINE
  5
163
  8
SMALL_FEATURE
 10
184.14999389648438
 20
28.40566635131836
 30
0.0
 11
184.6580047607422
 21
28.913665771484375
 31
0.0
  0
LINE
  5
164
  8
SMALL_FEATURE
 10
184.6580047607422
 20
28.913665771484375
 30
0.0
 11
183.51499938964844
 21
28.066999435424805
 31
0.0
  0
LINE
  5
165
  8
SMALL_FEATURE
 10
183.51499938964844
 20
28.066999435424805
 30
0.0
 11
181.99099731445312
 21
25.908000946044922
 31
0.0
  0
LINE
  5
166
  8
SMALL_FEATURE
 10
181.99099731445312
 20
25.908000946044922
 30
0.0
 11
183.34567260742188
 21
27.43199920654297
 31
0.0
  0
LINE
  5
167
  8
SMALL_FEATURE
 10
183.34567260742188
 20
27.43199920654297
 30
0.0
 11
183.85366821289062
 21
27.389667510986328
 31
0.0
  0
LINE
  5
168
  8
SMALL_FEATURE
 10
183.85366821289062
 20
27.389667510986328
 30
0.0
 11
183.51499938964844
 21
25.738666534423828
 31
0.0
  0
LINE
  5
169
  8
SMALL_FEATURE
 10
183.51499938964844
 20
25.738666534423828
 30
0.0
 11
183.684326171875
 21
26.246665954589844
 31
0.0
  0
LINE
  5
16A
  8
SMALL_FEATURE
 10
183.684326171875
 20
26.246665954589844
 30
0.0
 11
184.48866271972656
 21
26.246665954589844
 31
0.0
  0
LINE
  5
16B
  8
SMALL_FEATURE
 10
184.48866271972656
 20
26.246665954589844
 30
0.0
 11
185.8433380126953
 21
29.125333786010742
 31
0.0
  0
LINE
  5
16C
  8
SMALL_FEATURE
 10
185.8433380126953
 20
29.125333786010742
 30
0.0
 11
186.69000244140625
 21
31.665332794189453
 31
0.0
  0
LINE
  5
16D
  8
SMALL_FEATURE
 10
186.69000244140625
 20
31.665332794189453
 30
0.0
 11
187.3249969482422
 21
31.665332794189453
 31
0.0
  0
LINE
  5
16E
  8
SMALL_FEATURE
 10
187.3249969482422
 20
31.665332794189453
 30
0.0
 11
187.70599365234375
 21
32.893001556396484
 31
0.0
  0
LINE
  5
16F
  8
SMALL_FEATURE
 10
187.70599365234375
 20
32.893001556396484
 30
0.0
 11
188.89132690429688
 21
32.5543327331543
 31
0.0
  0
LINE
  5
170
  8
SMALL_FEATURE
 10
188.89132690429688
 20
32.5543327331543
 30
0.0
 11
189.86500549316406
 21
32.5543327331543
 31
0.0
  0
LINE
  5
171
  8
SMALL_FEATURE
 10
189.86500549316406
 20
32.5543327331543
 30
0.0
 11
189.86500549316406
 21
32.85066604614258
 31
0.0
  0
LINE
  5
172
  8
SMALL_FEATURE
 10
157.2259979248047
 20
203.70799255371094
 30
0.0
 11
157.3106689453125
 21
193.9290008544922
 31
0.0
  0
LINE
  5
173
  8
SMALL_FEATURE
 10
157.3106689453125
 20
193.9290008544922
 30
0.0
 11
157.47999572753906
 21
197.7813262939453
 31
0.0
  0
LINE
  5
174
  8
SMALL_FEATURE
 10
157.47999572753906
 20
197.7813262939453
 30
0.0
 11
160.3163299560547
 21
197.35800170898438
 31
0.0
  0
LINE
  5
175
  8
SMALL_FEATURE
 10
160.3163299560547
 20
197.35800170898438
 30
0.0
 11
160.4010009765625
 21
197.73899841308594
 31
0.0
  0
LINE
  5
176
  8
SMALL_FEATURE
 10
160.4010009765625
 20
197.73899841308594
 30
0.0
 11
166.3699951171875
 21
197.73899841308594
 31
0.0
  0
LINE
  5
177
  8
SMALL_FEATURE
 10
166.3699951171875
 20
197.73899841308594
 30
0.0
 11
166.4546661376953
 21
197.35800170898438
 31
0.0
  0
LINE
  5
178
  8
SMALL_FEATURE
 10
166.4546661376953
 20
197.35800170898438
 30
0.0
 11
169.29100036621094
 21
197.7813262939453
 31
0.0
  0
LINE
  5
179
  8
SMALL_FEATURE
 10
169.29100036621094
 20
197.7813262939453
 30
0.0
 11
169.3333282470703
 21
194.013671875
 31
0.0
  0
LINE
  5
17A
  8
SMALL_FEATURE
 10
169.3333282470703
 20
194.013671875
 30
0.0
 11
169.5449981689453
 21
194.013671875
 31
0.0
  0
LINE
  5
17B
  8
SMALL_FEATURE
 10
169.5449981689453
 20
194.013671875
 30
0.0
 11
169.4603271484375
 21
203.79266357421875
 31
0.0
  0
LINE
  5
17C
  8
SMALL_FEATURE
 10
169.4603271484375
 20
203.79266357421875
 30
0.0
 11
169.29100036621094
 21
197.90834045410156
 31
0.0
  0
LINE
  5
17D
  8
SMALL_FEATURE
 10
169.29100036621094
 20
197.90834045410156
 30
0.0
 11
166.4969940185547
 21
198.3316650390625
 31
0.0
  0
LINE
  5
17E
  8
SMALL_FEATURE
 10
166.4969940185547
 20
198.3316650390625
 30
0.0
 11
166.3699951171875
 21
197.95066833496094
 31
0.0
  0
LINE
  5
17F
  8
SMALL_FEATURE
 10
166.3699951171875
 20
197.95066833496094
 30
0.0
 11
160.4010009765625
 21
197.95066833496094
 31
0.0
  0
LINE
  5
180
  8
SMALL_FEATURE
 10
160.4010009765625
 20
197.95066833496094
 30
0.0
 11
160.2740020751953
 21
198.3316650390625
 31
0.0
  0
LINE
  5
181
  8
SMALL_FEATURE
 10
160.2740020751953
 20
198.3316650390625
 30
0.0
 11
157.47999572753906
 21
197.90834045410156
 31
0.0
  0
LINE
  5
182
  8
SMALL_FEATURE
 10
157.47999572753906
 20
197.90834045410156
 30
0.0
 11
157.4376678466797
 21
203.70799255371094
 31
0.0
  0
LINE
  5
183
  8
SMALL_FEATURE
 10
157.4376678466797
 20
203.70799255371094
 30
0.0
 11
157.2259979248047
 21
203.70799255371094
 31
0.0
  0
LINE
  5
184
  8
SMALL_FEATURE
 10
126.66133117675781
 20
176.02200317382812
 30
0.0
 11
126.74600219726562
 21
167.59767150878906
 31
0.0
  0
LINE
  5
185
  8
SMALL_FEATURE
 10
126.74600219726562
 20
167.59767150878906
 30
0.0
 11
126.91533660888672
 21
172.12733459472656
 31
0.0
  0
LINE
  5
186
  8
SMALL_FEATURE
 10
126.91533660888672
 20
172.12733459472656
 30
0.0
 11
129.7516632080078
 21
171.70399475097656
 31
0.0
  0
LINE
  5
187
  8
SMALL_FEATURE
 10
129.7516632080078
 20
171.70399475097656
 30
0.0
 11
129.83633422851562
 21
172.0850067138672
 31
0.0
  0
LINE
  5
188
  8
SMALL_FEATURE
 10
129.83633422851562
 20
172.0850067138672
 30
0.0
 11
135.80532836914062
 21
172.0850067138672
 31
0.0
  0
LINE
  5
189
  8
SMALL_FEATURE
 10
135.80532836914062
 20
172.0850067138672
 30
0.0
 11
135.88999938964844
 21
171.70399475097656
 31
0.0
  0
LINE
  5
18A
  8
SMALL_FEATURE
 10
135.88999938964844
 20
171.70399475097656
 30
0.0
 11
138.72633361816406
 21
172.12733459472656
 31
0.0
  0
LINE
  5
18B
  8
SMALL_FEATURE
 10
138.72633361816406
 20
172.12733459472656
 30
0.0
 11
138.76866149902344
 21
167.6823272705078
 31
0.0
  0
LINE
  5
18C
  8
SMALL_FEATURE
 10
138.76866149902344
 20
167.6823272705078
 30
0.0
 11
138.98033142089844
 21
167.6823272705078
 31
0.0
  0
LINE
  5
18D
  8
SMALL_FEATURE
 10
138.98033142089844
 20
167.6823272705078
 30
0.0
 11
138.89566040039062
 21
176.10667419433594
 31
0.0
  0
LINE
  5
18E
  8
SMALL_FEATURE
 10
138.89566040039062
 20
176.10667419433594
 30
0.0
 11
138.72633361816406
 21
172.25433349609375
 31
0.0
  0
LINE
  5
18F
  8
SMALL_FEATURE
 10
138.72633361816406
 20
172.25433349609375
 30
0.0
 11
135.9323272705078
 21
172.67767333984375
 31
0.0
  0
LINE
  5
190
  8
SMALL_FEATURE
 10
135.9323272705078
 20
172.67767333984375
 30
0.0
 11
135.80532836914062
 21
172.29666137695312
 31
0.0
  0
LINE
  5
191
  8
SMALL_FEATURE
 10
135.80532836914062
 20
172.29666137695312
 30
0.0
 11
129.83633422851562
 21
172.29666137695312
 31
0.0
  0
LINE
  5
192
  8
SMALL_FEATURE
 10
129.83633422851562
 20
172.29666137695312
 30
0.0
 11
129.70933532714844
 21
172.67767333984375
 31
0.0
  0
LINE
  5
193
  8
SMALL_FEATURE
 10
129.70933532714844
 20
172.67767333984375
 30
0.0
 11
126.91533660888672
 21
172.25433349609375
 31
0.0
  0
LINE
  5
194
  8
SMALL_FEATURE
 10
126.91533660888672
 20
172.25433349609375
 30
0.0
 11
126.87300109863281
 21
176.02200317382812
 31
0.0
  0
LINE
  5
195
  8
SMALL_FEATURE
 10
126.87300109863281
 20
176.02200317382812
 30
0.0
 11
126.66133117675781
 21
176.02200317382812
 31
0.0
  0
LINE
  5
196
  8
SMALL_FEATURE
 10
131.14866638183594
 20
15.02833366394043
 30
0.0
 11
132.41867065429688
 21
14.986000061035156
 31
0.0
  0
LINE
  5
197
  8
SMALL_FEATURE
 10
132.41867065429688
 20
14.986000061035156
 30
0.0
 11
132.37632751464844
 21
9.39799976348877
 31
0.0
  0
LINE
  5
198
  8
SMALL_FEATURE
 10
132.37632751464844
 20
9.39799976348877
 30
0.0
 11
131.10633850097656
 21
9.440333366394043
 31
0.0
  0
LINE
  5
199
  8
SMALL_FEATURE
 10
131.10633850097656
 20
9.440333366394043
 30
0.0
 11
131.14866638183594
 21
15.02833366394043
 31
0.0
  0
LINE
  5
19A
  8
SMALL_FEATURE
 10
149.94467163085938
 20
146.13467407226562
 30
0.0
 11
155.236328125
 21
138.30299377441406
 31
0.0
  0
LINE
  5
19B
  8
SMALL_FEATURE
 10
155.236328125
 20
138.30299377441406
 30
0.0
 11
150.02932739257812
 21
140.25033569335938
 31
0.0
  0
LINE
  5
19C
  8
SMALL_FEATURE
 10
150.02932739257812
 20
140.25033569335938
 30
0.0
 11
156.2100067138672
 21
137.45632934570312
 31
0.0
  0
LINE
  5
19D
  8
SMALL_FEATURE
 10
156.2100067138672
 20
137.45632934570312
 30
0.0
 11
155.40567016601562
 21
144.1873321533203
 31
0.0
  0
LINE
  5
19E
  8
SMALL_FEATURE
 10
155.40567016601562
 20
144.1873321533203
 30
0.0
 11
155.19400024414062
 21
144.01800537109375
 31
0.0
  0
LINE
  5
19F
  8
SMALL_FEATURE
 10
155.19400024414062
 20
144.01800537109375
 30
0.0
 11
155.82899475097656
 21
138.64166259765625
 31
0.0
  0
LINE
  5
1A0
  8
SMALL_FEATURE
 10
155.82899475097656
 20
138.64166259765625
 30
0.0
 11
155.447998046875
 21
138.6840057373047
 31
0.0
  0
LINE
  5
1A1
  8
SMALL_FEATURE
 10
155.447998046875
 20
138.6840057373047
 30
0.0
 11
149.94467163085938
 21
146.13467407226562
 31
0.0
  0
LINE
  5
1A2
  8
JACK_ROUTE
 10
64.17733001708984
 20
84.92066955566406
 30
0.0
 11
78.52833557128906
 21
84.96299743652344
 31
0.0
  0
LINE
  5
1A3
  8
JACK_ROUTE
 10
78.52833557128906
 20
84.96299743652344
 30
0.0
 11
79.07866668701172
 21
81.78800201416016
 31
0.0
  0
LINE
  5
1A4
  8
JACK_ROUTE
 10
79.07866668701172
 20
81.78800201416016
 30
0.0
 11
80.77200317382812
 21
78.90933227539062
 31
0.0
  0
LINE
  5
1A5
  8
JACK_ROUTE
 10
80.77200317382812
 20
78.90933227539062
 30
0.0
 11
81.99966430664062
 21
77.6816635131836
 31
0.0
  0
LINE
  5
1A6
  8
JACK_ROUTE
 10
81.99966430664062
 20
77.6816635131836
 30
0.0
 11
84.79366302490234
 21
76.072998046875
 31
0.0
  0
LINE
  5
1A7
  8
JACK_ROUTE
 10
84.79366302490234
 20
76.072998046875
 30
0.0
 11
88.34967041015625
 21
75.48033142089844
 31
0.0
  0
LINE
  5
1A8
  8
JACK_ROUTE
 10
88.34967041015625
 20
75.48033142089844
 30
0.0
 11
91.14366912841797
 21
75.98833465576172
 31
0.0
  0
LINE
  5
1A9
  8
JACK_ROUTE
 10
91.14366912841797
 20
75.98833465576172
 30
0.0
 11
92.87933349609375
 21
76.70800018310547
 31
0.0
  0
LINE
  5
1AA
  8
JACK_ROUTE
 10
92.87933349609375
 20
76.70800018310547
 30
0.0
 11
95.54633331298828
 21
78.90933227539062
 31
0.0
  0
LINE
  5
1AB
  8
JACK_ROUTE
 10
95.54633331298828
 20
78.90933227539062
 30
0.0
 11
97.15499877929688
 21
81.78800201416016
 31
0.0
  0
LINE
  5
1AC
  8
JACK_ROUTE
 10
97.15499877929688
 20
81.78800201416016
 30
0.0
 11
97.79000091552734
 21
84.96299743652344
 31
0.0
  0
LINE
  5
1AD
  8
JACK_ROUTE
 10
97.79000091552734
 20
84.96299743652344
 30
0.0
 11
111.92933654785156
 21
84.96299743652344
 31
0.0
  0
LINE
  5
1AE
  8
JACK_ROUTE
 10
111.92933654785156
 20
84.96299743652344
 30
0.0
 11
111.76000213623047
 21
82.08433532714844
 31
0.0
  0
LINE
  5
1AF
  8
JACK_ROUTE
 10
111.76000213623047
 20
82.08433532714844
 30
0.0
 11
112.18333435058594
 21
77.59700012207031
 31
0.0
  0
LINE
  5
1B0
  8
JACK_ROUTE
 10
112.18333435058594
 20
77.59700012207031
 30
0.0
 11
111.76000213623047
 21
77.47000122070312
 31
0.0
  0
LINE
  5
1B1
  8
JACK_ROUTE
 10
111.76000213623047
 20
77.47000122070312
 30
0.0
 11
111.76000213623047
 21
66.5479965209961
 31
0.0
  0
LINE
  5
1B2
  8
JACK_ROUTE
 10
111.76000213623047
 20
66.5479965209961
 30
0.0
 11
109.00833129882812
 21
66.92900085449219
 31
0.0
  0
LINE
  5
1B3
  8
JACK_ROUTE
 10
109.00833129882812
 20
66.92900085449219
 30
0.0
 11
108.88133239746094
 21
66.5479965209961
 31
0.0
  0
LINE
  5
1B4
  8
JACK_ROUTE
 10
108.88133239746094
 20
66.5479965209961
 30
0.0
 11
67.35233306884766
 21
66.5479965209961
 31
0.0
  0
LINE
  5
1B5
  8
JACK_ROUTE
 10
67.35233306884766
 20
66.5479965209961
 30
0.0
 11
67.22533416748047
 21
66.92900085449219
 31
0.0
  0
LINE
  5
1B6
  8
JACK_ROUTE
 10
67.22533416748047
 20
66.92900085449219
 30
0.0
 11
64.43133544921875
 21
66.50566864013672
 31
0.0
  0
LINE
  5
1B7
  8
JACK_ROUTE
 10
64.43133544921875
 20
66.50566864013672
 30
0.0
 11
64.43133544921875
 21
75.48033142089844
 31
0.0
  0
LINE
  5
1B8
  8
JACK_ROUTE
 10
64.43133544921875
 20
75.48033142089844
 30
0.0
 11
83.69300079345703
 21
75.64966583251953
 31
0.0
  0
LINE
  5
1B9
  8
JACK_ROUTE
 10
83.69300079345703
 20
75.64966583251953
 30
0.0
 11
64.43133544921875
 21
75.69200134277344
 31
0.0
  0
LINE
  5
1BA
  8
JACK_ROUTE
 10
64.43133544921875
 20
75.69200134277344
 30
0.0
 11
64.38899993896484
 21
77.47000122070312
 31
0.0
  0
LINE
  5
1BB
  8
JACK_ROUTE
 10
64.38899993896484
 20
77.47000122070312
 30
0.0
 11
63.965667724609375
 21
77.59700012207031
 31
0.0
  0
LINE
  5
1BC
  8
JACK_ROUTE
 10
63.965667724609375
 20
77.59700012207031
 30
0.0
 11
64.38899993896484
 21
82.08433532714844
 31
0.0
  0
LINE
  5
1BD
  8
JACK_ROUTE
 10
64.38899993896484
 20
82.08433532714844
 30
0.0
 11
64.17733001708984
 21
84.92066955566406
 31
0.0
  0
LINE
  5
1BE
  8
JACK_ROUTE
 10
162.09432983398438
 20
251.7986602783203
 30
0.0
 11
161.24766540527344
 21
250.06300354003906
 31
0.0
  0
LINE
  5
1BF
  8
JACK_ROUTE
 10
161.24766540527344
 20
250.06300354003906
 30
0.0
 11
159.38499450683594
 21
248.07333374023438
 31
0.0
  0
LINE
  5
1C0
  8
JACK_ROUTE
 10
159.38499450683594
 20
248.07333374023438
 30
0.0
 11
156.92967224121094
 21
246.80332946777344
 31
0.0
  0
LINE
  5
1C1
  8
JACK_ROUTE
 10
156.92967224121094
 20
246.80332946777344
 30
0.0
 11
153.75466918945312
 21
246.46466064453125
 31
0.0
  0
LINE
  5
1C2
  8
JACK_ROUTE
 10
153.75466918945312
 20
246.46466064453125
 30
0.0
 11
155.1093292236328
 21
215.3073272705078
 31
0.0
  0
LINE
  5
1C3
  8
JACK_ROUTE
 10
155.1093292236328
 20
215.3073272705078
 30
0.0
 11
156.92967224121094
 21
212.4709930419922
 31
0.0
  0
LINE
  5
1C4
  8
JACK_ROUTE
 10
156.92967224121094
 20
212.4709930419922
 30
0.0
 11
157.26832580566406
 21
208.1529998779297
 31
0.0
  0
LINE
  5
1C5
  8
JACK_ROUTE
 10
157.26832580566406
 20
208.1529998779297
 30
0.0
 11
169.50267028808594
 21
208.1529998779297
 31
0.0
  0
LINE
  5
1C6
  8
JACK_ROUTE
 10
169.50267028808594
 20
208.1529998779297
 30
0.0
 11
169.84133911132812
 21
212.4709930419922
 31
0.0
  0
LINE
  5
1C7
  8
JACK_ROUTE
 10
169.84133911132812
 20
212.4709930419922
 30
0.0
 11
171.6616668701172
 21
215.3073272705078
 31
0.0
  0
LINE
  5
1C8
  8
JACK_ROUTE
 10
171.6616668701172
 20
215.3073272705078
 30
0.0
 11
171.83099365234375
 21
219.62533569335938
 31
0.0
  0
LINE
  5
1C9
  8
JACK_ROUTE
 10
171.83099365234375
 20
219.62533569335938
 30
0.0
 11
174.7096710205078
 21
219.75233459472656
 31
0.0
  0
LINE
  5
1CA
  8
JACK_ROUTE
 10
174.7096710205078
 20
219.75233459472656
 30
0.0
 11
171.8733367919922
 21
219.92166137695312
 31
0.0
  0
LINE
  5
1CB
  8
JACK_ROUTE
 10
171.8733367919922
 20
219.92166137695312
 30
0.0
 11
172.16966247558594
 21
227.3300018310547
 31
0.0
  0
LINE
  5
1CC
  8
JACK_ROUTE
 10
172.16966247558594
 20
227.3300018310547
 30
0.0
 11
172.4236602783203
 21
227.45700073242188
 31
0.0
  0
LINE
  5
1CD
  8
JACK_ROUTE
 10
172.4236602783203
 20
227.45700073242188
 30
0.0
 11
172.33900451660156
 21
231.1823272705078
 31
0.0
  0
LINE
  5
1CE
  8
JACK_ROUTE
 10
172.33900451660156
 20
231.1823272705078
 30
0.0
 11
175.34466552734375
 21
230.80133056640625
 31
0.0
  0
LINE
  5
1CF
  8
JACK_ROUTE
 10
175.34466552734375
 20
230.80133056640625
 30
0.0
 11
175.38699340820312
 21
231.1823272705078
 31
0.0
  0
LINE
  5
1D0
  8
JACK_ROUTE
 10
175.38699340820312
 20
231.1823272705078
 30
0.0
 11
184.27699279785156
 21
231.309326171875
 31
0.0
  0
LINE
  5
1D1
  8
JACK_ROUTE
 10
184.27699279785156
 20
231.309326171875
 30
0.0
 11
175.38699340820312
 21
231.3939971923828
 31
0.0
  0
LINE
  5
1D2
  8
JACK_ROUTE
 10
175.38699340820312
 20
231.3939971923828
 30
0.0
 11
175.34466552734375
 21
231.77499389648438
 31
0.0
  0
LINE
  5
1D3
  8
JACK_ROUTE
 10
175.34466552734375
 20
231.77499389648438
 30
0.0
 11
172.4236602783203
 21
231.35166931152344
 31
0.0
  0
LINE
  5
1D4
  8
JACK_ROUTE
 10
172.4236602783203
 20
231.35166931152344
 30
0.0
 11
172.72000122070312
 21
240.02999877929688
 31
0.0
  0
LINE
  5
1D5
  8
JACK_ROUTE
 10
172.72000122070312
 20
240.02999877929688
 30
0.0
 11
178.77366638183594
 21
240.1993408203125
 31
0.0
  0
LINE
  5
1D6
  8
JACK_ROUTE
 10
178.77366638183594
 20
240.1993408203125
 30
0.0
 11
172.80467224121094
 21
240.28399658203125
 31
0.0
  0
LINE
  5
1D7
  8
JACK_ROUTE
 10
172.80467224121094
 20
240.28399658203125
 30
0.0
 11
173.01632690429688
 21
246.5070037841797
 31
0.0
  0
LINE
  5
1D8
  8
JACK_ROUTE
 10
173.01632690429688
 20
246.5070037841797
 30
0.0
 11
170.0953369140625
 21
246.76100158691406
 31
0.0
  0
LINE
  5
1D9
  8
JACK_ROUTE
 10
170.0953369140625
 20
246.76100158691406
 30
0.0
 11
168.69833374023438
 21
247.31134033203125
 31
0.0
  0
LINE
  5
1DA
  8
JACK_ROUTE
 10
168.69833374023438
 20
247.31134033203125
 30
0.0
 11
166.11599731445312
 21
249.2586669921875
 31
0.0
  0
LINE
  5
1DB
  8
JACK_ROUTE
 10
166.11599731445312
 20
249.2586669921875
 30
0.0
 11
164.67666625976562
 21
251.7986602783203
 31
0.0
  0
LINE
  5
1DC
  8
JACK_ROUTE
 10
164.67666625976562
 20
251.7986602783203
 30
0.0
 11
162.09432983398438
 21
251.7986602783203
 31
0.0
  0
LINE
  5
1DD
  8
PICKUP_ROUTE
 10
112.3949966430664
 20
77.08899688720703
 30
0.0
 11
113.53800201416016
 21
73.23666381835938
 31
0.0
  0
LINE
  5
1DE
  8
PICKUP_ROUTE
 10
113.53800201416016
 20
73.23666381835938
 30
0.0
 11
115.40066528320312
 21
68.83399963378906
 31
0.0
  0
LINE
  5
1DF
  8
PICKUP_ROUTE
 10
115.40066528320312
 20
68.83399963378906
 30
0.0
 11
122.0469970703125
 21
56.599666595458984
 31
0.0
  0
LINE
  5
1E0
  8
PICKUP_ROUTE
 10
122.0469970703125
 20
56.599666595458984
 30
0.0
 11
124.20600128173828
 21
51.900665283203125
 31
0.0
  0
LINE
  5
1E1
  8
PICKUP_ROUTE
 10
124.20600128173828
 20
51.900665283203125
 30
0.0
 11
125.5606689453125
 21
47.37099838256836
 31
0.0
  0
LINE
  5
1E2
  8
PICKUP_ROUTE
 10
125.5606689453125
 20
47.37099838256836
 30
0.0
 11
125.89933013916016
 21
42.16400146484375
 31
0.0
  0
LINE
  5
1E3
  8
PICKUP_ROUTE
 10
125.89933013916016
 20
42.16400146484375
 30
0.0
 11
125.3913345336914
 21
37.676666259765625
 31
0.0
  0
LINE
  5
1E4
  8
PICKUP_ROUTE
 10
125.3913345336914
 20
37.676666259765625
 30
0.0
 11
124.03666687011719
 21
33.358665466308594
 31
0.0
  0
LINE
  5
1E5
  8
PICKUP_ROUTE
 10
124.03666687011719
 20
33.358665466308594
 30
0.0
 11
120.39600372314453
 21
27.347333908081055
 31
0.0
  0
LINE
  5
1E6
  8
PICKUP_ROUTE
 10
120.39600372314453
 20
27.347333908081055
 30
0.0
 11
55.75299835205078
 21
27.389667510986328
 31
0.0
  0
LINE
  5
1E7
  8
PICKUP_ROUTE
 10
55.75299835205078
 20
27.389667510986328
 30
0.0
 11
53.2130012512207
 21
31.368999481201172
 31
0.0
  0
LINE
  5
1E8
  8
PICKUP_ROUTE
 10
53.2130012512207
 20
31.368999481201172
 30
0.0
 11
51.39266586303711
 21
35.560001373291016
 31
0.0
  0
LINE
  5
1E9
  8
PICKUP_ROUTE
 10
51.39266586303711
 20
35.560001373291016
 30
0.0
 11
50.37666702270508
 21
40.38600158691406
 31
0.0
  0
LINE
  5
1EA
  8
PICKUP_ROUTE
 10
50.37666702270508
 20
40.38600158691406
 30
0.0
 11
50.41899871826172
 21
45.465999603271484
 31
0.0
  0
LINE
  5
1EB
  8
PICKUP_ROUTE
 10
50.41899871826172
 20
45.465999603271484
 30
0.0
 11
63.965667724609375
 21
45.63533401489258
 31
0.0
  0
LINE
  5
1EC
  8
PICKUP_ROUTE
 10
63.965667724609375
 20
45.63533401489258
 30
0.0
 11
50.54600143432617
 21
45.720001220703125
 31
0.0
  0
LINE
  5
1ED
  8
PICKUP_ROUTE
 10
50.54600143432617
 20
45.720001220703125
 30
0.0
 11
50.67300033569336
 21
47.28633499145508
 31
0.0
  0
LINE
  5
1EE
  8
PICKUP_ROUTE
 10
50.67300033569336
 20
47.28633499145508
 30
0.0
 11
51.5196647644043
 21
50.24966812133789
 31
0.0
  0
LINE
  5
1EF
  8
PICKUP_ROUTE
 10
51.5196647644043
 20
50.24966812133789
 30
0.0
 11
68.1989974975586
 21
50.24966812133789
 31
0.0
  0
LINE
  5
1F0
  8
PICKUP_ROUTE
 10
68.1989974975586
 20
50.24966812133789
 30
0.0
 11
68.2836685180664
 21
45.50833511352539
 31
0.0
  0
LINE
  5
1F1
  8
PICKUP_ROUTE
 10
68.2836685180664
 20
45.50833511352539
 30
0.0
 11
107.90766906738281
 21
45.55066680908203
 31
0.0
  0
LINE
  5
1F2
  8
PICKUP_ROUTE
 10
107.90766906738281
 20
45.55066680908203
 30
0.0
 11
107.8653335571289
 21
51.30799865722656
 31
0.0
  0
LINE
  5
1F3
  8
PICKUP_ROUTE
 10
107.8653335571289
 20
51.30799865722656
 30
0.0
 11
68.2836685180664
 21
51.30799865722656
 31
0.0
  0
LINE
  5
1F4
  8
PICKUP_ROUTE
 10
68.2836685180664
 20
51.30799865722656
 30
0.0
 11
68.1989974975586
 21
50.461334228515625
 31
0.0
  0
LINE
  5
1F5
  8
PICKUP_ROUTE
 10
68.1989974975586
 20
50.461334228515625
 30
0.0
 11
51.7313346862793
 21
50.461334228515625
 31
0.0
  0
LINE
  5
1F6
  8
PICKUP_ROUTE
 10
51.7313346862793
 20
50.461334228515625
 30
0.0
 11
52.02766799926758
 21
51.900665283203125
 31
0.0
  0
LINE
  5
1F7
  8
PICKUP_ROUTE
 10
52.02766799926758
 20
51.900665283203125
 30
0.0
 11
53.805667877197266
 21
55.83766555786133
 31
0.0
  0
LINE
  5
1F8
  8
PICKUP_ROUTE
 10
53.805667877197266
 20
55.83766555786133
 30
0.0
 11
57.36166763305664
 21
62.44166564941406
 31
0.0
  0
LINE
  5
1F9
  8
PICKUP_ROUTE
 10
57.36166763305664
 20
62.44166564941406
 30
0.0
 11
57.74266815185547
 21
62.39933395385742
 31
0.0
  0
LINE
  5
1FA
  8
PICKUP_ROUTE
 10
57.74266815185547
 20
62.39933395385742
 30
0.0
 11
57.74266815185547
 21
54.271331787109375
 31
0.0
  0
LINE
  5
1FB
  8
PICKUP_ROUTE
 10
57.74266815185547
 20
54.271331787109375
 30
0.0
 11
57.36166763305664
 21
54.14433288574219
 31
0.0
  0
LINE
  5
1FC
  8
PICKUP_ROUTE
 10
57.36166763305664
 20
54.14433288574219
 30
0.0
 11
57.78499984741211
 21
51.35033416748047
 31
0.0
  0
LINE
  5
1FD
  8
PICKUP_ROUTE
 10
57.78499984741211
 20
51.35033416748047
 30
0.0
 11
53.93266677856445
 21
51.180999755859375
 31
0.0
  0
LINE
  5
1FE
  8
PICKUP_ROUTE
 10
53.93266677856445
 20
51.180999755859375
 30
0.0
 11
63.965667724609375
 21
51.180999755859375
 31
0.0
  0
LINE
  5
1FF
  8
PICKUP_ROUTE
 10
63.965667724609375
 20
51.180999755859375
 30
0.0
 11
57.9119987487793
 21
51.35033416748047
 31
0.0
  0
LINE
  5
200
  8
PICKUP_ROUTE
 10
57.9119987487793
 20
51.35033416748047
 30
0.0
 11
58.33533477783203
 21
54.14433288574219
 31
0.0
  0
LINE
  5
201
  8
PICKUP_ROUTE
 10
58.33533477783203
 20
54.14433288574219
 30
0.0
 11
57.9543342590332
 21
54.271331787109375
 31
0.0
  0
LINE
  5
202
  8
PICKUP_ROUTE
 10
57.9543342590332
 20
54.271331787109375
 30
0.0
 11
57.9543342590332
 21
63.54233169555664
 31
0.0
  0
LINE
  5
203
  8
PICKUP_ROUTE
 10
57.9543342590332
 20
63.54233169555664
 30
0.0
 11
60.74833297729492
 21
68.83399963378906
 31
0.0
  0
LINE
  5
204
  8
PICKUP_ROUTE
 10
60.74833297729492
 20
68.83399963378906
 30
0.0
 11
63.5
 21
75.48033142089844
 31
0.0
  0
LINE
  5
205
  8
PICKUP_ROUTE
 10
63.5
 20
75.48033142089844
 30
0.0
 11
64.17733001708984
 21
75.43800354003906
 31
0.0
  0
LINE
  5
206
  8
PICKUP_ROUTE
 10
64.17733001708984
 20
75.43800354003906
 30
0.0
 11
64.26200103759766
 21
62.611000061035156
 31
0.0
  0
LINE
  5
207
  8
PICKUP_ROUTE
 10
64.26200103759766
 20
62.611000061035156
 30
0.0
 11
64.43133544921875
 21
66.37866973876953
 31
0.0
  0
LINE
  5
208
  8
PICKUP_ROUTE
 10
64.43133544921875
 20
66.37866973876953
 30
0.0
 11
67.26766967773438
 21
65.95532989501953
 31
0.0
  0
LINE
  5
209
  8
PICKUP_ROUTE
 10
67.26766967773438
 20
65.95532989501953
 30
0.0
 11
67.35233306884766
 21
66.33633422851562
 31
0.0
  0
LINE
  5
20A
  8
PICKUP_ROUTE
 10
67.35233306884766
 20
66.33633422851562
 30
0.0
 11
108.88133239746094
 21
66.33633422851562
 31
0.0
  0
LINE
  5
20B
  8
PICKUP_ROUTE
 10
108.88133239746094
 20
66.33633422851562
 30
0.0
 11
108.96600341796875
 21
65.95532989501953
 31
0.0
  0
LINE
  5
20C
  8
PICKUP_ROUTE
 10
108.96600341796875
 20
65.95532989501953
 30
0.0
 11
111.71766662597656
 21
66.37866973876953
 31
0.0
  0
LINE
  5
20D
  8
PICKUP_ROUTE
 10
111.71766662597656
 20
66.37866973876953
 30
0.0
 11
111.88700103759766
 21
62.611000061035156
 31
0.0
  0
LINE
  5
20E
  8
PICKUP_ROUTE
 10
111.88700103759766
 20
62.611000061035156
 30
0.0
 11
111.97166442871094
 21
77.08899688720703
 31
0.0
  0
LINE
  5
20F
  8
PICKUP_ROUTE
 10
111.97166442871094
 20
77.08899688720703
 30
0.0
 11
112.3949966430664
 21
77.08899688720703
 31
0.0
  0
LINE
  5
210
  8
PICKUP_ROUTE
 10
167.17433166503906
 20
136.3556671142578
 30
0.0
 11
160.8243408203125
 21
129.28599548339844
 31
0.0
  0
LINE
  5
211
  8
PICKUP_ROUTE
 10
160.8243408203125
 20
129.28599548339844
 30
0.0
 11
160.44332885742188
 21
129.28599548339844
 31
0.0
  0
LINE
  5
212
  8
PICKUP_ROUTE
 10
160.44332885742188
 20
129.28599548339844
 30
0.0
 11
159.0886688232422
 21
130.80999755859375
 31
0.0
  0
LINE
  5
213
  8
PICKUP_ROUTE
 10
159.0886688232422
 20
130.80999755859375
 30
0.0
 11
154.77066040039062
 21
126.9576644897461
 31
0.0
  0
LINE
  5
214
  8
PICKUP_ROUTE
 10
154.77066040039062
 20
126.9576644897461
 30
0.0
 11
157.14132690429688
 21
113.70733642578125
 31
0.0
  0
LINE
  5
215
  8
PICKUP_ROUTE
 10
157.14132690429688
 20
113.70733642578125
 30
0.0
 11
160.2740020751953
 21
108.88133239746094
 31
0.0
  0
LINE
  5
216
  8
PICKUP_ROUTE
 10
160.2740020751953
 20
108.88133239746094
 30
0.0
 11
161.41700744628906
 21
104.35166931152344
 31
0.0
  0
LINE
  5
217
  8
PICKUP_ROUTE
 10
161.41700744628906
 20
104.35166931152344
 30
0.0
 11
161.628662109375
 21
63.75400161743164
 31
0.0
  0
LINE
  5
218
  8
PICKUP_ROUTE
 10
161.628662109375
 20
63.75400161743164
 30
0.0
 11
165.10000610351562
 21
60.663665771484375
 31
0.0
  0
LINE
  5
219
  8
PICKUP_ROUTE
 10
165.10000610351562
 20
60.663665771484375
 30
0.0
 11
166.53933715820312
 21
62.22999954223633
 31
0.0
  0
LINE
  5
21A
  8
PICKUP_ROUTE
 10
166.53933715820312
 20
62.22999954223633
 30
0.0
 11
166.8780059814453
 21
62.22999954223633
 31
0.0
  0
LINE
  5
21B
  8
PICKUP_ROUTE
 10
166.8780059814453
 20
62.22999954223633
 30
0.0
 11
174.37100219726562
 21
53.93266677856445
 31
0.0
  0
LINE
  5
21C
  8
PICKUP_ROUTE
 10
174.37100219726562
 20
53.93266677856445
 30
0.0
 11
174.45567321777344
 21
85.9366683959961
 31
0.0
  0
LINE
  5
21D
  8
PICKUP_ROUTE
 10
174.45567321777344
 20
85.9366683959961
 30
0.0
 11
176.10667419433594
 21
85.9366683959961
 31
0.0
  0
LINE
  5
21E
  8
PICKUP_ROUTE
 10
176.10667419433594
 20
85.9366683959961
 30
0.0
 11
176.23367309570312
 21
82.16899871826172
 31
0.0
  0
LINE
  5
21F
  8
PICKUP_ROUTE
 10
176.23367309570312
 20
82.16899871826172
 30
0.0
 11
176.3606719970703
 21
86.02133178710938
 31
0.0
  0
LINE
  5
220
  8
PICKUP_ROUTE
 10
176.3606719970703
 20
86.02133178710938
 30
0.0
 11
179.1546630859375
 21
85.5979995727539
 31
0.0
  0
LINE
  5
221
  8
PICKUP_ROUTE
 10
179.1546630859375
 20
85.5979995727539
 30
0.0
 11
179.19700622558594
 21
85.97899627685547
 31
0.0
  0
LINE
  5
222
  8
PICKUP_ROUTE
 10
179.19700622558594
 20
85.97899627685547
 30
0.0
 11
192.99766540527344
 21
86.10600280761719
 31
0.0
  0
LINE
  5
223
  8
PICKUP_ROUTE
 10
192.99766540527344
 20
86.10600280761719
 30
0.0
 11
179.19700622558594
 21
86.19066619873047
 31
0.0
  0
LINE
  5
224
  8
PICKUP_ROUTE
 10
179.19700622558594
 20
86.19066619873047
 30
0.0
 11
179.1546630859375
 21
86.57166290283203
 31
0.0
  0
LINE
  5
225
  8
PICKUP_ROUTE
 10
179.1546630859375
 20
86.57166290283203
 30
0.0
 11
176.3606719970703
 21
86.14833068847656
 31
0.0
  0
LINE
  5
226
  8
PICKUP_ROUTE
 10
176.3606719970703
 20
86.14833068847656
 30
0.0
 11
176.23367309570312
 21
90.00066375732422
 31
0.0
  0
LINE
  5
227
  8
PICKUP_ROUTE
 10
176.23367309570312
 20
90.00066375732422
 30
0.0
 11
176.10667419433594
 21
86.23300170898438
 31
0.0
  0
LINE
  5
228
  8
PICKUP_ROUTE
 10
176.10667419433594
 20
86.23300170898438
 30
0.0
 11
174.45567321777344
 21
86.23300170898438
 31
0.0
  0
LINE
  5
229
  8
PICKUP_ROUTE
 10
174.45567321777344
 20
86.23300170898438
 30
0.0
 11
174.37100219726562
 21
94.31866455078125
 31
0.0
  0
LINE
  5
22A
  8
PICKUP_ROUTE
 10
174.37100219726562
 20
94.31866455078125
 30
0.0
 11
176.2760009765625
 21
94.36100006103516
 31
0.0
  0
LINE
  5
22B
  8
PICKUP_ROUTE
 10
176.2760009765625
 20
94.36100006103516
 30
0.0
 11
175.7256622314453
 21
96.64700317382812
 31
0.0
  0
LINE
  5
22C
  8
PICKUP_ROUTE
 10
175.7256622314453
 20
96.64700317382812
 30
0.0
 11
174.3286590576172
 21
96.7316665649414
 31
0.0
  0
LINE
  5
22D
  8
PICKUP_ROUTE
 10
174.3286590576172
 20
96.7316665649414
 30
0.0
 11
173.35499572753906
 21
102.9123306274414
 31
0.0
  0
LINE
  5
22E
  8
PICKUP_ROUTE
 10
173.35499572753906
 20
102.9123306274414
 30
0.0
 11
176.2760009765625
 21
102.87000274658203
 31
0.0
  0
LINE
  5
22F
  8
PICKUP_ROUTE
 10
176.2760009765625
 20
102.87000274658203
 30
0.0
 11
176.3606719970703
 21
99.10233306884766
 31
0.0
  0
LINE
  5
230
  8
PICKUP_ROUTE
 10
176.3606719970703
 20
99.10233306884766
 30
0.0
 11
176.52999877929688
 21
102.9123306274414
 31
0.0
  0
LINE
  5
231
  8
PICKUP_ROUTE
 10
176.52999877929688
 20
102.9123306274414
 30
0.0
 11
179.2816619873047
 21
102.53133392333984
 31
0.0
  0
LINE
  5
232
  8
PICKUP_ROUTE
 10
179.2816619873047
 20
102.53133392333984
 30
0.0
 11
179.3663330078125
 21
102.9123306274414
 31
0.0
  0
LINE
  5
233
  8
PICKUP_ROUTE
 10
179.3663330078125
 20
102.9123306274414
 30
0.0
 11
182.28733825683594
 21
102.87000274658203
 31
0.0
  0
LINE
  5
234
  8
PICKUP_ROUTE
 10
182.28733825683594
 20
102.87000274658203
 30
0.0
 11
182.28733825683594
 21
99.65266418457031
 31
0.0
  0
LINE
  5
235
  8
PICKUP_ROUTE
 10
182.28733825683594
 20
99.65266418457031
 30
0.0
 11
181.9063262939453
 21
99.56800079345703
 31
0.0
  0
LINE
  5
236
  8
PICKUP_ROUTE
 10
181.9063262939453
 20
99.56800079345703
 30
0.0
 11
182.3296661376953
 21
96.7316665649414
 31
0.0
  0
LINE
  5
237
  8
PICKUP_ROUTE
 10
182.3296661376953
 20
96.7316665649414
 30
0.0
 11
178.4773406982422
 21
96.60466766357422
 31
0.0
  0
LINE
  5
238
  8
PICKUP_ROUTE
 10
178.4773406982422
 20
96.60466766357422
 30
0.0
 11
182.2449951171875
 21
96.47766876220703
 31
0.0
  0
LINE
  5
239
  8
PICKUP_ROUTE
 10
182.2449951171875
 20
96.47766876220703
 30
0.0
 11
182.28733825683594
 21
94.86900329589844
 31
0.0
  0
LINE
  5
23A
  8
PICKUP_ROUTE
 10
182.28733825683594
 20
94.86900329589844
 30
0.0
 11
178.4773406982422
 21
94.69966888427734
 31
0.0
  0
LINE
  5
23B
  8
PICKUP_ROUTE
 10
178.4773406982422
 20
94.69966888427734
 30
0.0
 11
182.3296661376953
 21
94.57266998291016
 31
0.0
  0
LINE
  5
23C
  8
PICKUP_ROUTE
 10
182.3296661376953
 20
94.57266998291016
 30
0.0
 11
181.9063262939453
 21
91.7786636352539
 31
0.0
  0
LINE
  5
23D
  8
PICKUP_ROUTE
 10
181.9063262939453
 20
91.7786636352539
 30
0.0
 11
182.28733825683594
 21
91.73633575439453
 31
0.0
  0
LINE
  5
23E
  8
PICKUP_ROUTE
 10
182.28733825683594
 20
91.73633575439453
 30
0.0
 11
182.3719940185547
 21
89.61966705322266
 31
0.0
  0
LINE
  5
23F
  8
PICKUP_ROUTE
 10
182.3719940185547
 20
89.61966705322266
 30
0.0
 11
182.49899291992188
 21
91.73633575439453
 31
0.0
  0
LINE
  5
240
  8
PICKUP_ROUTE
 10
182.49899291992188
 20
91.73633575439453
 30
0.0
 11
182.8800048828125
 21
91.7786636352539
 31
0.0
  0
LINE
  5
241
  8
PICKUP_ROUTE
 10
182.8800048828125
 20
91.7786636352539
 30
0.0
 11
182.4566650390625
 21
94.57266998291016
 31
0.0
  0
LINE
  5
242
  8
PICKUP_ROUTE
 10
182.4566650390625
 20
94.57266998291016
 30
0.0
 11
186.39366149902344
 21
94.69966888427734
 31
0.0
  0
LINE
  5
243
  8
PICKUP_ROUTE
 10
186.39366149902344
 20
94.69966888427734
 30
0.0
 11
182.5413360595703
 21
94.82666778564453
 31
0.0
  0
LINE
  5
244
  8
PICKUP_ROUTE
 10
182.5413360595703
 20
94.82666778564453
 30
0.0
 11
182.49899291992188
 21
96.43533325195312
 31
0.0
  0
LINE
  5
245
  8
PICKUP_ROUTE
 10
182.49899291992188
 20
96.43533325195312
 30
0.0
 11
186.3090057373047
 21
96.60466766357422
 31
0.0
  0
LINE
  5
246
  8
PICKUP_ROUTE
 10
186.3090057373047
 20
96.60466766357422
 30
0.0
 11
182.4566650390625
 21
96.7316665649414
 31
0.0
  0
LINE
  5
247
  8
PICKUP_ROUTE
 10
182.4566650390625
 20
96.7316665649414
 30
0.0
 11
182.8800048828125
 21
99.61033630371094
 31
0.0
  0
LINE
  5
248
  8
PICKUP_ROUTE
 10
182.8800048828125
 20
99.61033630371094
 30
0.0
 11
182.49899291992188
 21
99.65266418457031
 31
0.0
  0
LINE
  5
249
  8
PICKUP_ROUTE
 10
182.49899291992188
 20
99.65266418457031
 30
0.0
 11
182.41433715820312
 21
112.52200317382812
 31
0.0
  0
LINE
  5
24A
  8
PICKUP_ROUTE
 10
182.41433715820312
 20
112.52200317382812
 30
0.0
 11
182.28733825683594
 21
103.16633605957031
 31
0.0
  0
LINE
  5
24B
  8
PICKUP_ROUTE
 10
182.28733825683594
 20
103.16633605957031
 30
0.0
 11
179.3663330078125
 21
103.1240005493164
 31
0.0
  0
LINE
  5
24C
  8
PICKUP_ROUTE
 10
179.3663330078125
 20
103.1240005493164
 30
0.0
 11
179.32400512695312
 21
103.50499725341797
 31
0.0
  0
LINE
  5
24D
  8
PICKUP_ROUTE
 10
179.32400512695312
 20
103.50499725341797
 30
0.0
 11
176.4876708984375
 21
103.16633605957031
 31
0.0
  0
LINE
  5
24E
  8
PICKUP_ROUTE
 10
176.4876708984375
 20
103.16633605957031
 30
0.0
 11
176.4876708984375
 21
106.76466369628906
 31
0.0
  0
LINE
  5
24F
  8
PICKUP_ROUTE
 10
176.4876708984375
 20
106.76466369628906
 30
0.0
 11
176.8263397216797
 21
107.69599914550781
 31
0.0
  0
LINE
  5
250
  8
PICKUP_ROUTE
 10
176.8263397216797
 20
107.69599914550781
 30
0.0
 11
176.57232666015625
 21
108.11933135986328
 31
0.0
  0
LINE
  5
251
  8
PICKUP_ROUTE
 10
176.57232666015625
 20
108.11933135986328
 30
0.0
 11
176.6993408203125
 21
109.17766571044922
 31
0.0
  0
LINE
  5
252
  8
PICKUP_ROUTE
 10
176.6993408203125
 20
109.17766571044922
 30
0.0
 11
176.0643310546875
 21
109.6856689453125
 31
0.0
  0
LINE
  5
253
  8
PICKUP_ROUTE
 10
176.0643310546875
 20
109.6856689453125
 30
0.0
 11
175.47166442871094
 21
109.6433334350586
 31
0.0
  0
LINE
  5
254
  8
PICKUP_ROUTE
 10
175.47166442871094
 20
109.6433334350586
 30
0.0
 11
175.00599670410156
 21
109.17766571044922
 31
0.0
  0
LINE
  5
255
  8
PICKUP_ROUTE
 10
175.00599670410156
 20
109.17766571044922
 30
0.0
 11
174.87899780273438
 21
107.27266693115234
 31
0.0
  0
LINE
  5
256
  8
PICKUP_ROUTE
 10
174.87899780273438
 20
107.27266693115234
 30
0.0
 11
175.21766662597656
 21
106.76466369628906
 31
0.0
  0
LINE
  5
257
  8
PICKUP_ROUTE
 10
175.21766662597656
 20
106.76466369628906
 30
0.0
 11
176.2760009765625
 21
106.5530014038086
 31
0.0
  0
LINE
  5
258
  8
PICKUP_ROUTE
 10
176.2760009765625
 20
106.5530014038086
 30
0.0
 11
176.2760009765625
 21
103.16633605957031
 31
0.0
  0
LINE
  5
259
  8
PICKUP_ROUTE
 10
176.2760009765625
 20
103.16633605957031
 30
0.0
 11
173.1856689453125
 21
103.16633605957031
 31
0.0
  0
LINE
  5
25A
  8
PICKUP_ROUTE
 10
173.1856689453125
 20
103.16633605957031
 30
0.0
 11
172.6353302001953
 21
106.63766479492188
 31
0.0
  0
LINE
  5
25B
  8
PICKUP_ROUTE
 10
172.6353302001953
 20
106.63766479492188
 30
0.0
 11
173.1856689453125
 21
107.35733032226562
 31
0.0
  0
LINE
  5
25C
  8
PICKUP_ROUTE
 10
173.1856689453125
 20
107.35733032226562
 30
0.0
 11
173.22799682617188
 21
108.71199798583984
 31
0.0
  0
LINE
  5
25D
  8
PICKUP_ROUTE
 10
173.22799682617188
 20
108.71199798583984
 30
0.0
 11
172.8470001220703
 21
109.5163345336914
 31
0.0
  0
LINE
  5
25E
  8
PICKUP_ROUTE
 10
172.8470001220703
 20
109.5163345336914
 30
0.0
 11
172.00033569335938
 21
109.72799682617188
 31
0.0
  0
LINE
  5
25F
  8
PICKUP_ROUTE
 10
172.00033569335938
 20
109.72799682617188
 30
0.0
 11
167.17433166503906
 21
136.3556671142578
 31
0.0
  0
ENDSEC
  0
EOF
