  0
SECTION
  2
HEADER
  9
$ACADVER
  1
AC1009
  9
$DWGCODEPAGE
  3
ANSI_1252
  9
$INSBASE
 10
0.0
 20
0.0
 30
0.0
  9
$EXTMIN
 10
1e+20
 20
1e+20
 30
1e+20
  9
$EXTMAX
 10
-1e+20
 20
-1e+20
 30
-1e+20
  9
$LIMMIN
 10
0.0
 20
0.0
  9
$LIMMAX
 10
420.0
 20
297.0
  9
$ORTHOMODE
 70
0
  9
$REGENMODE
 70
1
  9
$FILLMODE
 70
1
  9
$DRAGMODE
 70
2
  9
$QTEXTMODE
 70
0
  9
$MIRRTEXT
 70
1
  9
$OSMODE
 70
20583
  9
$LTSCALE
 40
1.0
  9
$ATTMODE
 70
1
  9
$TEXTSIZE
 40
2.5
  9
$TRACEWID
 40
1.0
  9
$TEXTSTYLE
  7
Standard
  9
$CLAYER
  8
0
  9
$CELTYPE
  6
ByLayer
  9
$CECOLOR
 62
256
  9
$DIMSCALE
 40
1.0
  9
$DIMASZ
 40
2.5
  9
$DIMEXO
 40
0.625
  9
$DIMDLI
 40
3.75
  9
$DIMRND
 40
0.0
  9
$DIMDLE
 40
0.0
  9
$DIMEXE
 40
1.25
  9
$DIMTP
 40
0.0
  9
$DIMTM
 40
0.0
  9
$DIMTXT
 40
2.5
  9
$DIMCEN
 40
2.5
  9
$DIMTSZ
 40
0.0
  9
$DIMTOL
 70
0
  9
$DIMLIM
 70
0
  9
$DIMTIH
 70
0
  9
$DIMTOH
 70
0
  9
$DIMSE1
 70
0
  9
$DIMSE2
 70
0
  9
$DIMTAD
 70
1
  9
$DIMZIN
 70
8
  9
$DIMBLK
  1

  9
$DIMASO
 70
1
  9
$DIMSHO
 70
1
  9
$DIMPOST
  1

  9
$DIMAPOST
  1

  9
$DIMALT
 70
0
  9
$DIMALTD
 70
3
  9
$DIMALTF
 40
0.03937007874
  9
$DIMLFAC
 40
1.0
  9
$DIMTOFL
 70
1
  9
$DIMTVP
 40
0.0
  9
$DIMTIX
 70
0
  9
$DIMSOXD
 70
0
  9
$DIMSAH
 70
0
  9
$DIMBLK1
  1

  9
$DIMBLK2
  1

  9
$DIMSTYLE
  2
ISO-25
  9
$DIMCLRD
 70
0
  9
$DIMCLRE
 70
0
  9
$DIMCLRT
 70
0
  9
$DIMTFAC
 40
1.0
  9
$DIMGAP
 40
0.625
  9
$COORDS
 70
1
  9
$ATTDIA
 70
0
  9
$ATTREQ
 70
1
  9
$HANDLING
 70
1
  9
$LUNITS
 70
2
  9
$LUPREC
 70
4
  9
$SKETCHINC
 40
1.0
  9
$FILLETRAD
 40
10.0
  9
$AUNITS
 70
0
  9
$AUPREC
 70
2
  9
$MENU
  1
.
  9
$ELEVATION
 40
0.0
  9
$PELEVATION
 40
0.0
  9
$THICKNESS
 40
0.0
  9
$LIMCHECK
 70
0
  9
$CHAMFERA
 40
0.0
  9
$CHAMFERB
 40
0.0
  9
$SKPOLY
 70
0
  9
$TDCREATE
 40
2461106.6799074076
  9
$TDUPDATE
 40
2461106.6799189816
  9
$TDINDWG
 40
0.0
  9
$TDUSRTIMER
 40
0.0
  9
$USRTIMER
 70
1
  9
$ANGBASE
 50
0.0
  9
$ANGDIR
 70
0
  9
$PDMODE
 70
0
  9
$PDSIZE
 40
0.0
  9
$PLINEWID
 40
0.0
  9
$SPLFRAME
 70
0
  9
$SPLINETYPE
 70
6
  9
$SPLINESEGS
 70
8
  9
$HANDSEED
  5
45B
  9
$SURFTAB1
 70
6
  9
$SURFTAB2
 70
6
  9
$SURFTYPE
 70
6
  9
$SURFU
 70
6
  9
$SURFV
 70
6
  9
$UCSNAME
  2

  9
$UCSORG
 10
0.0
 20
0.0
 30
0.0
  9
$UCSXDIR
 10
1.0
 20
0.0
 30
0.0
  9
$UCSYDIR
 10
0.0
 20
1.0
 30
0.0
  9
$PUCSNAME
  2

  9
$PUCSORG
 10
0.0
 20
0.0
 30
0.0
  9
$PUCSXDIR
 10
1.0
 20
0.0
 30
0.0
  9
$PUCSYDIR
 10
0.0
 20
1.0
 30
0.0
  9
$USERI1
 70
0
  9
$USERI2
 70
0
  9
$USERI3
 70
0
  9
$USERI4
 70
0
  9
$USERI5
 70
0
  9
$USERR1
 40
0.0
  9
$USERR2
 40
0.0
  9
$USERR3
 40
0.0
  9
$USERR4
 40
0.0
  9
$USERR5
 40
0.0
  9
$WORLDVIEW
 70
1
  9
$SHADEDGE
 70
3
  9
$SHADEDIF
 70
70
  9
$TILEMODE
 70
1
  9
$MAXACTVP
 70
64
  9
$PLIMCHECK
 70
0
  9
$PEXTMIN
 10
1e+20
 20
1e+20
 30
1e+20
  9
$PEXTMAX
 10
-1e+20
 20
-1e+20
 30
-1e+20
  9
$PLIMMIN
 10
0.0
 20
0.0
  9
$PLIMMAX
 10
420.0
 20
297.0
  9
$UNITMODE
 70
0
  9
$VISRETAIN
 70
1
  9
$PLINEGEN
 70
0
  9
$PSLTSCALE
 70
1
  0
ENDSEC
  0
SECTION
  2
TABLES
  0
TABLE
  2
VPORT
 70
1
  0
VPORT
  5
23
  2
*Active
 70
0
 10
0.0
 20
0.0
 11
1.0
 21
1.0
 12
0.0
 22
0.0
 13
0.0
 23
0.0
 14
0.5
 24
0.5
 15
0.5
 25
0.5
 16
0.0
 26
0.0
 36
1.0
 17
0.0
 27
0.0
 37
0.0
 40
1000.0
 41
1.34
 42
50.0
 43
0.0
 44
0.0
 50
0.0
 51
0.0
 71
0
 72
1000
 73
1
 74
3
 75
0
 76
0
 77
0
 78
0
  0
ENDTAB
  0
TABLE
  2
LTYPE
 70
3
  0
LTYPE
  5
24
  2
ByBlock
 70
0
  3

 72
65
 73
0
 40
0.0
  0
LTYPE
  5
25
  2
ByLayer
 70
0
  3

 72
65
 73
0
 40
0.0
  0
LTYPE
  5
26
  2
Continuous
 70
0
  3

 72
65
 73
0
 40
0.0
  0
ENDTAB
  0
TABLE
  2
LAYER
 70
2
  0
LAYER
  5
27
  2
0
 70
0
 62
7
  6
Continuous
  0
LAYER
  5
28
  2
Defpoints
 70
0
 62
7
  6
Continuous
  0
ENDTAB
  0
TABLE
  2
STYLE
 70
1
  0
STYLE
  5
29
  2
Standard
 70
0
 40
0.0
 41
1.0
 50
0.0
 71
0
 42
2.5
  3
txt
  4

  0
ENDTAB
  0
TABLE
  2
VIEW
 70
0
  0
ENDTAB
  0
TABLE
  2
UCS
 70
0
  0
ENDTAB
  0
TABLE
  2
APPID
 70
3
  0
APPID
  5
2A
  2
ACAD
 70
0
  0
APPID
  5
459
  2
HATCHBACKGROUNDCOLOR
 70
0
  0
APPID
  5
45A
  2
EZDXF
 70
0
  0
ENDTAB
  0
TABLE
  2
DIMSTYLE
 70
1
  0
DIMSTYLE
105
2B
  2
Standard
 70
0
  3

  4

  5

  6

  7

 40
1.0
 41
2.5
 42
0.625
 43
3.75
 44
1.25
 45
0.0
 46
0.0
 47
0.0
 48
0.0
140
2.5
141
2.5
142
0.0
143
0.03937007874
144
1.0
145
0.0
146
1.0
147
0.625
 71
0
 72
0
 73
0
 74
0
 75
0
 76
0
 77
1
 78
8
170
0
171
3
172
1
173
0
174
0
175
0
176
0
177
0
178
0
  0
ENDTAB
  0
ENDSEC
  0
SECTION
  2
BLOCKS
  0
BLOCK
  5
18
  8
0
  2
$Model_Space
 70
0
 10
0.0
 20
0.0
 30
0.0
  3
$Model_Space
  1

1001
EZDXF
1000
CREATED_BY_EZDXF
1000
1.4.3 @ 2026-03-06T22:19:04.124178+00:00
1000
WRITTEN_BY_EZDXF
1000
1.4.3 @ 2026-03-06T22:19:05.836478+00:00
  0
ENDBLK
  5
19
  8
0
  0
BLOCK
  5
1C
  8
0
  2
$Paper_Space
 70
0
 10
0.0
 20
0.0
 30
0.0
  3
$Paper_Space
  1

  0
ENDBLK
  5
1D
  8
0
  0
ENDSEC
  0
SECTION
  2
ENTITIES
  0
LINE
  5
2D
  8
BRACING
 10
220.4720001220703
 20
675.3436889648438
 30
0.0
 11
225.04400634765625
 21
675.3013305664062
 31
0.0
  0
LINE
  5
2E
  8
BRACING
 10
225.04400634765625
 20
675.3013305664062
 30
0.0
 11
225.552001953125
 21
668.9089965820312
 31
0.0
  0
LINE
  5
2F
  8
BRACING
 10
225.552001953125
 20
668.9089965820312
 30
0.0
 11
227.1183319091797
 21
662.81298828125
 31
0.0
  0
LINE
  5
30
  8
BRACING
 10
227.1183319091797
 20
662.81298828125
 30
0.0
 11
229.48899841308594
 21
657.690673828125
 31
0.0
  0
LINE
  5
31
  8
BRACING
 10
229.48899841308594
 20
657.690673828125
 30
0.0
 11
232.57933044433594
 21
653.753662109375
 31
0.0
  0
LINE
  5
32
  8
BRACING
 10
232.57933044433594
 20
653.753662109375
 30
0.0
 11
234.39967346191406
 21
652.27197265625
 31
0.0
  0
LINE
  5
33
  8
BRACING
 10
234.39967346191406
 20
652.27197265625
 30
0.0
 11
236.3470001220703
 21
651.1290283203125
 31
0.0
  0
LINE
  5
34
  8
BRACING
 10
236.3470001220703
 20
651.1290283203125
 30
0.0
 11
240.1146697998047
 21
650.2823486328125
 31
0.0
  0
LINE
  5
35
  8
BRACING
 10
240.1146697998047
 20
650.2823486328125
 30
0.0
 11
240.1993408203125
 21
649.1393432617188
 31
0.0
  0
LINE
  5
36
  8
BRACING
 10
240.1993408203125
 20
649.1393432617188
 30
0.0
 11
240.3263397216797
 21
650.2823486328125
 31
0.0
  0
LINE
  5
37
  8
BRACING
 10
240.3263397216797
 20
650.2823486328125
 30
0.0
 11
244.1786651611328
 21
651.1290283203125
 31
0.0
  0
LINE
  5
38
  8
BRACING
 10
244.1786651611328
 20
651.1290283203125
 30
0.0
 11
246.12600708007812
 21
652.27197265625
 31
0.0
  0
LINE
  5
39
  8
BRACING
 10
246.12600708007812
 20
652.27197265625
 30
0.0
 11
247.9463348388672
 21
653.753662109375
 31
0.0
  0
LINE
  5
3A
  8
BRACING
 10
247.9463348388672
 20
653.753662109375
 30
0.0
 11
251.0366668701172
 21
657.690673828125
 31
0.0
  0
LINE
  5
3B
  8
BRACING
 10
251.0366668701172
 20
657.690673828125
 30
0.0
 11
253.40733337402344
 21
662.81298828125
 31
0.0
  0
LINE
  5
3C
  8
BRACING
 10
253.40733337402344
 20
662.81298828125
 30
0.0
 11
254.97366333007812
 21
668.9089965820312
 31
0.0
  0
LINE
  5
3D
  8
BRACING
 10
254.97366333007812
 20
668.9089965820312
 30
0.0
 11
255.48167419433594
 21
675.3013305664062
 31
0.0
  0
LINE
  5
3E
  8
BRACING
 10
255.48167419433594
 20
675.3013305664062
 30
0.0
 11
260.09600830078125
 21
675.3013305664062
 31
0.0
  0
LINE
  5
3F
  8
BRACING
 10
260.09600830078125
 20
675.3013305664062
 30
0.0
 11
257.9793395996094
 21
334.4333190917969
 31
0.0
  0
LINE
  5
40
  8
BRACING
 10
257.9793395996094
 20
334.4333190917969
 30
0.0
 11
258.82598876953125
 21
329.5226745605469
 31
0.0
  0
LINE
  5
41
  8
BRACING
 10
258.82598876953125
 20
329.5226745605469
 30
0.0
 11
259.4186706542969
 21
327.7446594238281
 31
0.0
  0
LINE
  5
42
  8
BRACING
 10
259.4186706542969
 20
327.7446594238281
 30
0.0
 11
261.0696716308594
 21
325.24700927734375
 31
0.0
  0
LINE
  5
43
  8
BRACING
 10
261.0696716308594
 20
325.24700927734375
 30
0.0
 11
261.02734375
 21
324.8659973144531
 31
0.0
  0
LINE
  5
44
  8
BRACING
 10
261.02734375
 20
324.8659973144531
 30
0.0
 11
250.10533142089844
 21
326.3900146484375
 31
0.0
  0
LINE
  5
45
  8
BRACING
 10
250.10533142089844
 20
326.3900146484375
 30
0.0
 11
240.3263397216797
 21
326.7286682128906
 31
0.0
  0
LINE
  5
46
  8
BRACING
 10
240.3263397216797
 20
326.7286682128906
 30
0.0
 11
240.24166870117188
 21
330.15765380859375
 31
0.0
  0
LINE
  5
47
  8
BRACING
 10
240.24166870117188
 20
330.15765380859375
 30
0.0
 11
240.1146697998047
 21
326.7286682128906
 31
0.0
  0
LINE
  5
48
  8
BRACING
 10
240.1146697998047
 20
326.7286682128906
 30
0.0
 11
230.4203338623047
 21
326.3900146484375
 31
0.0
  0
LINE
  5
49
  8
BRACING
 10
230.4203338623047
 20
326.3900146484375
 30
0.0
 11
219.45599365234375
 21
324.9083251953125
 31
0.0
  0
LINE
  5
4A
  8
BRACING
 10
219.45599365234375
 20
324.9083251953125
 30
0.0
 11
221.10699462890625
 21
327.7446594238281
 31
0.0
  0
LINE
  5
4B
  8
BRACING
 10
221.10699462890625
 20
327.7446594238281
 30
0.0
 11
222.1653289794922
 21
331.1736755371094
 31
0.0
  0
LINE
  5
4C
  8
BRACING
 10
222.1653289794922
 20
331.1736755371094
 30
0.0
 11
222.461669921875
 21
334.3486633300781
 31
0.0
  0
LINE
  5
4D
  8
BRACING
 10
222.461669921875
 20
334.3486633300781
 30
0.0
 11
220.4720001220703
 21
675.3436889648438
 31
0.0
  0
LINE
  5
4E
  8
BRACING
 10
88.6883316040039
 20
1059.4339599609375
 30
0.0
 11
258.5296630859375
 21
1059.476318359375
 31
0.0
  0
LINE
  5
4F
  8
BRACING
 10
258.5296630859375
 20
1059.476318359375
 30
0.0
 11
258.61431884765625
 21
1049.4857177734375
 31
0.0
  0
LINE
  5
50
  8
BRACING
 10
258.61431884765625
 20
1049.4857177734375
 30
0.0
 11
258.65667724609375
 21
1059.476318359375
 31
0.0
  0
LINE
  5
51
  8
BRACING
 10
258.65667724609375
 20
1059.476318359375
 30
0.0
 11
428.54034423828125
 21
1059.476318359375
 31
0.0
  0
LINE
  5
52
  8
BRACING
 10
428.54034423828125
 20
1059.476318359375
 30
0.0
 11
428.5826721191406
 21
1039.7490234375
 31
0.0
  0
LINE
  5
53
  8
BRACING
 10
428.5826721191406
 20
1039.7490234375
 30
0.0
 11
88.73066711425781
 21
1039.537353515625
 31
0.0
  0
LINE
  5
54
  8
BRACING
 10
88.73066711425781
 20
1039.537353515625
 30
0.0
 11
88.6883316040039
 21
1059.4339599609375
 31
0.0
  0
LINE
  5
55
  8
BRACING
 10
490.0083312988281
 20
871.3469848632812
 30
0.0
 11
485.22467041015625
 21
337.9469909667969
 31
0.0
  0
LINE
  5
56
  8
BRACING
 10
485.22467041015625
 20
337.9469909667969
 30
0.0
 11
484.37799072265625
 21
337.9046630859375
 31
0.0
  0
LINE
  5
57
  8
BRACING
 10
484.37799072265625
 20
337.9046630859375
 30
0.0
 11
484.3356628417969
 21
341.9686584472656
 31
0.0
  0
LINE
  5
58
  8
BRACING
 10
484.3356628417969
 20
341.9686584472656
 30
0.0
 11
484.6743469238281
 21
342.6036682128906
 31
0.0
  0
LINE
  5
59
  8
BRACING
 10
484.6743469238281
 20
342.6036682128906
 30
0.0
 11
484.3356628417969
 21
343.1116638183594
 31
0.0
  0
LINE
  5
5A
  8
BRACING
 10
484.3356628417969
 20
343.1116638183594
 30
0.0
 11
484.2510070800781
 21
371.6866760253906
 31
0.0
  0
LINE
  5
5B
  8
BRACING
 10
484.2510070800781
 20
371.6866760253906
 30
0.0
 11
484.58966064453125
 21
372.3216552734375
 31
0.0
  0
LINE
  5
5C
  8
BRACING
 10
484.58966064453125
 20
372.3216552734375
 30
0.0
 11
484.20867919921875
 21
372.9143371582031
 31
0.0
  0
LINE
  5
5D
  8
BRACING
 10
484.20867919921875
 20
372.9143371582031
 30
0.0
 11
484.16632080078125
 21
399.7959899902344
 31
0.0
  0
LINE
  5
5E
  8
BRACING
 10
484.16632080078125
 20
399.7959899902344
 30
0.0
 11
484.5050048828125
 21
400.4309997558594
 31
0.0
  0
LINE
  5
5F
  8
BRACING
 10
484.5050048828125
 20
400.4309997558594
 30
0.0
 11
484.1239929199219
 21
400.9813232421875
 31
0.0
  0
LINE
  5
60
  8
BRACING
 10
484.1239929199219
 20
400.9813232421875
 30
0.0
 11
484.0816650390625
 21
426.2966613769531
 31
0.0
  0
LINE
  5
61
  8
BRACING
 10
484.0816650390625
 20
426.2966613769531
 30
0.0
 11
484.4203186035156
 21
426.9316711425781
 31
0.0
  0
LINE
  5
62
  8
BRACING
 10
484.4203186035156
 20
426.9316711425781
 30
0.0
 11
484.0816650390625
 21
427.4396667480469
 31
0.0
  0
LINE
  5
63
  8
BRACING
 10
484.0816650390625
 20
427.4396667480469
 30
0.0
 11
483.99700927734375
 21
442.76434326171875
 31
0.0
  0
LINE
  5
64
  8
BRACING
 10
483.99700927734375
 20
442.76434326171875
 30
0.0
 11
483.99700927734375
 21
451.2733459472656
 31
0.0
  0
LINE
  5
65
  8
BRACING
 10
483.99700927734375
 20
451.2733459472656
 30
0.0
 11
484.3356628417969
 21
451.9506530761719
 31
0.0
  0
LINE
  5
66
  8
BRACING
 10
484.3356628417969
 20
451.9506530761719
 30
0.0
 11
483.99700927734375
 21
452.5010070800781
 31
0.0
  0
LINE
  5
67
  8
BRACING
 10
483.99700927734375
 20
452.5010070800781
 30
0.0
 11
483.9123229980469
 21
474.8529968261719
 31
0.0
  0
LINE
  5
68
  8
BRACING
 10
483.9123229980469
 20
474.8529968261719
 30
0.0
 11
484.3356628417969
 21
475.53033447265625
 31
0.0
  0
LINE
  5
69
  8
BRACING
 10
484.3356628417969
 20
475.53033447265625
 30
0.0
 11
483.9123229980469
 21
476.038330078125
 31
0.0
  0
LINE
  5
6A
  8
BRACING
 10
483.9123229980469
 20
476.038330078125
 30
0.0
 11
483.8699951171875
 21
497.16265869140625
 31
0.0
  0
LINE
  5
6B
  8
BRACING
 10
483.8699951171875
 20
497.16265869140625
 30
0.0
 11
484.2510070800781
 21
497.79766845703125
 31
0.0
  0
LINE
  5
6C
  8
BRACING
 10
484.2510070800781
 20
497.79766845703125
 30
0.0
 11
483.8276672363281
 21
499.1099853515625
 31
0.0
  0
LINE
  5
6D
  8
BRACING
 10
483.8276672363281
 20
499.1099853515625
 30
0.0
 11
483.78533935546875
 21
518.1599731445312
 31
0.0
  0
LINE
  5
6E
  8
BRACING
 10
483.78533935546875
 20
518.1599731445312
 30
0.0
 11
484.16632080078125
 21
518.879638671875
 31
0.0
  0
LINE
  5
6F
  8
BRACING
 10
484.16632080078125
 20
518.879638671875
 30
0.0
 11
483.78533935546875
 21
519.3876953125
 31
0.0
  0
LINE
  5
70
  8
BRACING
 10
483.78533935546875
 20
519.3876953125
 30
0.0
 11
483.7430114746094
 21
538.056640625
 31
0.0
  0
LINE
  5
71
  8
BRACING
 10
483.7430114746094
 20
538.056640625
 30
0.0
 11
484.0816650390625
 21
538.691650390625
 31
0.0
  0
LINE
  5
72
  8
BRACING
 10
484.0816650390625
 20
538.691650390625
 30
0.0
 11
483.7430114746094
 21
539.1996459960938
 31
0.0
  0
LINE
  5
73
  8
BRACING
 10
483.7430114746094
 20
539.1996459960938
 30
0.0
 11
483.6583251953125
 21
556.7680053710938
 31
0.0
  0
LINE
  5
74
  8
BRACING
 10
483.6583251953125
 20
556.7680053710938
 30
0.0
 11
484.0816650390625
 21
557.4030151367188
 31
0.0
  0
LINE
  5
75
  8
BRACING
 10
484.0816650390625
 20
557.4030151367188
 30
0.0
 11
483.6583251953125
 21
557.9956665039062
 31
0.0
  0
LINE
  5
76
  8
BRACING
 10
483.6583251953125
 20
557.9956665039062
 30
0.0
 11
483.6159973144531
 21
574.4633178710938
 31
0.0
  0
LINE
  5
77
  8
BRACING
 10
483.6159973144531
 20
574.4633178710938
 30
0.0
 11
483.99700927734375
 21
575.1406860351562
 31
0.0
  0
LINE
  5
78
  8
BRACING
 10
483.99700927734375
 20
575.1406860351562
 30
0.0
 11
483.6159973144531
 21
575.6909790039062
 31
0.0
  0
LINE
  5
79
  8
BRACING
 10
483.6159973144531
 20
575.6909790039062
 30
0.0
 11
483.57366943359375
 21
591.1426391601562
 31
0.0
  0
LINE
  5
7A
  8
BRACING
 10
483.57366943359375
 20
591.1426391601562
 30
0.0
 11
483.99700927734375
 21
591.7776489257812
 31
0.0
  0
LINE
  5
7B
  8
BRACING
 10
483.99700927734375
 20
591.7776489257812
 30
0.0
 11
483.57366943359375
 21
592.370361328125
 31
0.0
  0
LINE
  5
7C
  8
BRACING
 10
483.57366943359375
 20
592.370361328125
 30
0.0
 11
483.5313415527344
 21
606.8906860351562
 31
0.0
  0
LINE
  5
7D
  8
BRACING
 10
483.5313415527344
 20
606.8906860351562
 30
0.0
 11
483.9123229980469
 21
607.5679931640625
 31
0.0
  0
LINE
  5
7E
  8
BRACING
 10
483.9123229980469
 20
607.5679931640625
 30
0.0
 11
483.5313415527344
 21
608.1183471679688
 31
0.0
  0
LINE
  5
7F
  8
BRACING
 10
483.5313415527344
 20
608.1183471679688
 30
0.0
 11
483.489013671875
 21
621.7919921875
 31
0.0
  0
LINE
  5
80
  8
BRACING
 10
483.489013671875
 20
621.7919921875
 30
0.0
 11
483.9123229980469
 21
622.427001953125
 31
0.0
  0
LINE
  5
81
  8
BRACING
 10
483.9123229980469
 20
622.427001953125
 30
0.0
 11
483.489013671875
 21
622.9349975585938
 31
0.0
  0
LINE
  5
82
  8
BRACING
 10
483.489013671875
 20
622.9349975585938
 30
0.0
 11
483.4466552734375
 21
635.8043212890625
 31
0.0
  0
LINE
  5
83
  8
BRACING
 10
483.4466552734375
 20
635.8043212890625
 30
0.0
 11
483.8276672363281
 21
636.481689453125
 31
0.0
  0
LINE
  5
84
  8
BRACING
 10
483.8276672363281
 20
636.481689453125
 30
0.0
 11
483.4466552734375
 21
637.031982421875
 31
0.0
  0
LINE
  5
85
  8
BRACING
 10
483.4466552734375
 20
637.031982421875
 30
0.0
 11
483.4043273925781
 21
649.0546875
 31
0.0
  0
LINE
  5
86
  8
BRACING
 10
483.4043273925781
 20
649.0546875
 30
0.0
 11
483.8276672363281
 21
649.6896362304688
 31
0.0
  0
LINE
  5
87
  8
BRACING
 10
483.8276672363281
 20
649.6896362304688
 30
0.0
 11
483.4043273925781
 21
650.2823486328125
 31
0.0
  0
LINE
  5
88
  8
BRACING
 10
483.4043273925781
 20
650.2823486328125
 30
0.0
 11
483.36199951171875
 21
661.5430297851562
 31
0.0
  0
LINE
  5
89
  8
BRACING
 10
483.36199951171875
 20
661.5430297851562
 30
0.0
 11
483.7430114746094
 21
662.2203369140625
 31
0.0
  0
LINE
  5
8A
  8
BRACING
 10
483.7430114746094
 20
662.2203369140625
 30
0.0
 11
483.36199951171875
 21
662.7706909179688
 31
0.0
  0
LINE
  5
8B
  8
BRACING
 10
483.36199951171875
 20
662.7706909179688
 30
0.0
 11
483.3196716308594
 21
673.35400390625
 31
0.0
  0
LINE
  5
8C
  8
BRACING
 10
483.3196716308594
 20
673.35400390625
 30
0.0
 11
483.7430114746094
 21
673.8619995117188
 31
0.0
  0
LINE
  5
8D
  8
BRACING
 10
483.7430114746094
 20
673.8619995117188
 30
0.0
 11
483.3196716308594
 21
674.5816650390625
 31
0.0
  0
LINE
  5
8E
  8
BRACING
 10
483.3196716308594
 20
674.5816650390625
 30
0.0
 11
483.3196716308594
 21
738.4203491210938
 31
0.0
  0
LINE
  5
8F
  8
BRACING
 10
483.3196716308594
 20
738.4203491210938
 30
0.0
 11
484.37799072265625
 21
738.54736328125
 31
0.0
  0
LINE
  5
90
  8
BRACING
 10
484.37799072265625
 20
738.54736328125
 30
0.0
 11
483.3196716308594
 21
738.6320190429688
 31
0.0
  0
LINE
  5
91
  8
BRACING
 10
483.3196716308594
 20
738.6320190429688
 30
0.0
 11
483.1080017089844
 21
775.5466918945312
 31
0.0
  0
LINE
  5
92
  8
BRACING
 10
483.1080017089844
 20
775.5466918945312
 30
0.0
 11
481.07598876953125
 21
775.5889892578125
 31
0.0
  0
LINE
  5
93
  8
BRACING
 10
481.07598876953125
 20
775.5889892578125
 30
0.0
 11
481.28765869140625
 21
812.4190063476562
 31
0.0
  0
LINE
  5
94
  8
BRACING
 10
481.28765869140625
 20
812.4190063476562
 30
0.0
 11
484.37799072265625
 21
812.5460205078125
 31
0.0
  0
LINE
  5
95
  8
BRACING
 10
484.37799072265625
 20
812.5460205078125
 30
0.0
 11
481.28765869140625
 21
812.6306762695312
 31
0.0
  0
LINE
  5
96
  8
BRACING
 10
481.28765869140625
 20
812.6306762695312
 30
0.0
 11
481.28765869140625
 21
868.6799926757812
 31
0.0
  0
LINE
  5
97
  8
BRACING
 10
481.28765869140625
 20
868.6799926757812
 30
0.0
 11
487.3413391113281
 21
869.4843139648438
 31
0.0
  0
LINE
  5
98
  8
BRACING
 10
487.3413391113281
 20
869.4843139648438
 30
0.0
 11
488.0610046386719
 21
869.9923095703125
 31
0.0
  0
LINE
  5
99
  8
BRACING
 10
488.0610046386719
 20
869.9923095703125
 30
0.0
 11
488.3573303222656
 21
870.7119750976562
 31
0.0
  0
LINE
  5
9A
  8
BRACING
 10
488.3573303222656
 20
870.7119750976562
 30
0.0
 11
490.0083312988281
 21
871.3469848632812
 31
0.0
  0
LINE
  5
9B
  8
BRACING
 10
103.88600158691406
 20
259.3763427734375
 30
0.0
 11
113.45333099365234
 21
259.3340148925781
 31
0.0
  0
LINE
  5
9C
  8
BRACING
 10
113.45333099365234
 20
259.3340148925781
 30
0.0
 11
113.41100311279297
 21
69.8499984741211
 31
0.0
  0
LINE
  5
9D
  8
BRACING
 10
113.41100311279297
 20
69.8499984741211
 30
0.0
 11
103.84366607666016
 21
69.892333984375
 31
0.0
  0
LINE
  5
9E
  8
BRACING
 10
103.84366607666016
 20
69.892333984375
 30
0.0
 11
103.88600158691406
 21
259.3763427734375
 31
0.0
  0
LINE
  5
9F
  8
BRACING
 10
478.7476806640625
 20
975.2329711914062
 30
0.0
 11
478.7900085449219
 21
816.7369995117188
 31
0.0
  0
LINE
  5
A0
  8
BRACING
 10
478.7900085449219
 20
816.7369995117188
 30
0.0
 11
474.5989990234375
 21
816.6946411132812
 31
0.0
  0
LINE
  5
A1
  8
BRACING
 10
474.5989990234375
 20
816.6946411132812
 30
0.0
 11
471.0853271484375
 21
815.1283569335938
 31
0.0
  0
LINE
  5
A2
  8
BRACING
 10
471.0853271484375
 20
815.1283569335938
 30
0.0
 11
471.0429992675781
 21
975.190673828125
 31
0.0
  0
LINE
  5
A3
  8
BRACING
 10
471.0429992675781
 20
975.190673828125
 30
0.0
 11
478.7476806640625
 21
975.2329711914062
 31
0.0
  0
LINE
  5
A4
  8
BRACING
 10
146.89666748046875
 20
397.17132568359375
 30
0.0
 11
146.89666748046875
 21
235.1616668701172
 31
0.0
  0
LINE
  5
A5
  8
BRACING
 10
146.89666748046875
 20
235.1616668701172
 30
0.0
 11
146.5156707763672
 21
235.1193389892578
 31
0.0
  0
LINE
  5
A6
  8
BRACING
 10
146.5156707763672
 20
235.1193389892578
 30
0.0
 11
146.0500030517578
 21
235.5850067138672
 31
0.0
  0
LINE
  5
A7
  8
BRACING
 10
146.0500030517578
 20
235.5850067138672
 30
0.0
 11
145.8383331298828
 21
235.33099365234375
 31
0.0
  0
LINE
  5
A8
  8
BRACING
 10
145.8383331298828
 20
235.33099365234375
 30
0.0
 11
146.3040008544922
 21
234.56900024414062
 31
0.0
  0
LINE
  5
A9
  8
BRACING
 10
146.3040008544922
 20
234.56900024414062
 30
0.0
 11
145.71133422851562
 21
234.52667236328125
 31
0.0
  0
LINE
  5
AA
  8
BRACING
 10
145.71133422851562
 20
234.52667236328125
 30
0.0
 11
146.89666748046875
 21
234.31500244140625
 31
0.0
  0
LINE
  5
AB
  8
BRACING
 10
146.89666748046875
 20
234.31500244140625
 30
0.0
 11
146.89666748046875
 21
230.1663360595703
 31
0.0
  0
LINE
  5
AC
  8
BRACING
 10
146.89666748046875
 20
230.1663360595703
 30
0.0
 11
146.5156707763672
 21
230.12399291992188
 31
0.0
  0
LINE
  5
AD
  8
BRACING
 10
146.5156707763672
 20
230.12399291992188
 30
0.0
 11
146.0500030517578
 21
230.58966064453125
 31
0.0
  0
LINE
  5
AE
  8
BRACING
 10
146.0500030517578
 20
230.58966064453125
 30
0.0
 11
145.8383331298828
 21
230.3780059814453
 31
0.0
  0
LINE
  5
AF
  8
BRACING
 10
145.8383331298828
 20
230.3780059814453
 30
0.0
 11
146.3040008544922
 21
229.91233825683594
 31
0.0
  0
LINE
  5
B0
  8
BRACING
 10
146.3040008544922
 20
229.91233825683594
 30
0.0
 11
146.2616729736328
 21
229.5313262939453
 31
0.0
  0
LINE
  5
B1
  8
BRACING
 10
146.2616729736328
 20
229.5313262939453
 30
0.0
 11
138.38766479492188
 21
229.61599731445312
 31
0.0
  0
LINE
  5
B2
  8
BRACING
 10
138.38766479492188
 20
229.61599731445312
 30
0.0
 11
138.3453369140625
 21
394.63134765625
 31
0.0
  0
LINE
  5
B3
  8
BRACING
 10
138.3453369140625
 20
394.63134765625
 30
0.0
 11
138.3453369140625
 21
230.0816650390625
 31
0.0
  0
LINE
  5
B4
  8
BRACING
 10
138.3453369140625
 20
230.0816650390625
 30
0.0
 11
137.96434020996094
 21
230.03933715820312
 31
0.0
  0
LINE
  5
B5
  8
BRACING
 10
137.96434020996094
 20
230.03933715820312
 30
0.0
 11
137.41400146484375
 21
230.54733276367188
 31
0.0
  0
LINE
  5
B6
  8
BRACING
 10
137.41400146484375
 20
230.54733276367188
 30
0.0
 11
137.75267028808594
 21
229.57366943359375
 31
0.0
  0
LINE
  5
B7
  8
BRACING
 10
137.75267028808594
 20
229.57366943359375
 30
0.0
 11
137.07533264160156
 21
229.48899841308594
 31
0.0
  0
LINE
  5
B8
  8
BRACING
 10
137.07533264160156
 20
229.48899841308594
 30
0.0
 11
138.17599487304688
 21
229.48899841308594
 31
0.0
  0
LINE
  5
B9
  8
BRACING
 10
138.17599487304688
 20
229.48899841308594
 30
0.0
 11
139.2343292236328
 21
228.4306640625
 31
0.0
  0
LINE
  5
BA
  8
BRACING
 10
139.2343292236328
 20
228.4306640625
 30
0.0
 11
139.40367126464844
 21
228.60000610351562
 31
0.0
  0
LINE
  5
BB
  8
BRACING
 10
139.40367126464844
 20
228.60000610351562
 30
0.0
 11
138.89566040039062
 21
229.10800170898438
 31
0.0
  0
LINE
  5
BC
  8
BRACING
 10
138.89566040039062
 20
229.10800170898438
 30
0.0
 11
138.93800354003906
 21
229.48899841308594
 31
0.0
  0
LINE
  5
BD
  8
BRACING
 10
138.93800354003906
 20
229.48899841308594
 30
0.0
 11
146.7273406982422
 21
229.48899841308594
 31
0.0
  0
LINE
  5
BE
  8
BRACING
 10
146.7273406982422
 20
229.48899841308594
 30
0.0
 11
146.93899536132812
 21
227.03366088867188
 31
0.0
  0
LINE
  5
BF
  8
BRACING
 10
146.93899536132812
 20
227.03366088867188
 30
0.0
 11
146.93899536132812
 21
228.89633178710938
 31
0.0
  0
LINE
  5
C0
  8
BRACING
 10
146.93899536132812
 20
228.89633178710938
 30
0.0
 11
147.9550018310547
 21
228.5576629638672
 31
0.0
  0
LINE
  5
C1
  8
BRACING
 10
147.9550018310547
 20
228.5576629638672
 30
0.0
 11
147.5316619873047
 21
229.48899841308594
 31
0.0
  0
LINE
  5
C2
  8
BRACING
 10
147.5316619873047
 20
229.48899841308594
 30
0.0
 11
159.3003387451172
 21
229.48899841308594
 31
0.0
  0
LINE
  5
C3
  8
BRACING
 10
159.3003387451172
 20
229.48899841308594
 30
0.0
 11
147.10833740234375
 21
229.5313262939453
 31
0.0
  0
LINE
  5
C4
  8
BRACING
 10
147.10833740234375
 20
229.5313262939453
 30
0.0
 11
146.93899536132812
 21
233.89166259765625
 31
0.0
  0
LINE
  5
C5
  8
BRACING
 10
146.93899536132812
 20
233.89166259765625
 30
0.0
 11
147.99732971191406
 21
233.55299377441406
 31
0.0
  0
LINE
  5
C6
  8
BRACING
 10
147.99732971191406
 20
233.55299377441406
 30
0.0
 11
147.4893341064453
 21
234.10333251953125
 31
0.0
  0
LINE
  5
C7
  8
BRACING
 10
147.4893341064453
 20
234.10333251953125
 30
0.0
 11
147.5316619873047
 21
234.4843292236328
 31
0.0
  0
LINE
  5
C8
  8
BRACING
 10
147.5316619873047
 20
234.4843292236328
 30
0.0
 11
159.3003387451172
 21
234.52667236328125
 31
0.0
  0
LINE
  5
C9
  8
BRACING
 10
159.3003387451172
 20
234.52667236328125
 30
0.0
 11
146.93899536132812
 21
234.6959991455078
 31
0.0
  0
LINE
  5
CA
  8
BRACING
 10
146.93899536132812
 20
234.6959991455078
 30
0.0
 11
146.89666748046875
 21
397.17132568359375
 31
0.0
  0
LINE
  5
CB
  8
BRACING
 10
573.193359375
 20
581.4906616210938
 30
0.0
 11
573.193359375
 21
343.1963195800781
 31
0.0
  0
LINE
  5
CC
  8
BRACING
 10
573.193359375
 20
343.1963195800781
 30
0.0
 11
572.8123168945312
 21
343.15399169921875
 31
0.0
  0
LINE
  5
CD
  8
BRACING
 10
572.8123168945312
 20
343.15399169921875
 30
0.0
 11
572.3889770507812
 21
343.6196594238281
 31
0.0
  0
LINE
  5
CE
  8
BRACING
 10
572.3889770507812
 20
343.6196594238281
 30
0.0
 11
572.1773071289062
 21
343.36566162109375
 31
0.0
  0
LINE
  5
CF
  8
BRACING
 10
572.1773071289062
 20
343.36566162109375
 30
0.0
 11
572.6006469726562
 21
342.6036682128906
 31
0.0
  0
LINE
  5
D0
  8
BRACING
 10
572.6006469726562
 20
342.6036682128906
 30
0.0
 11
571.92333984375
 21
342.5190124511719
 31
0.0
  0
LINE
  5
D1
  8
BRACING
 10
571.92333984375
 20
342.5190124511719
 30
0.0
 11
573.0239868164062
 21
342.5190124511719
 31
0.0
  0
LINE
  5
D2
  8
BRACING
 10
573.0239868164062
 20
342.5190124511719
 30
0.0
 11
574.0823364257812
 21
341.50299072265625
 31
0.0
  0
LINE
  5
D3
  8
BRACING
 10
574.0823364257812
 20
341.50299072265625
 30
0.0
 11
573.8283081054688
 21
342.5190124511719
 31
0.0
  0
LINE
  5
D4
  8
BRACING
 10
573.8283081054688
 20
342.5190124511719
 30
0.0
 11
597.6196899414062
 21
342.5190124511719
 31
0.0
  0
LINE
  5
D5
  8
BRACING
 10
597.6196899414062
 20
342.5190124511719
 30
0.0
 11
573.2356567382812
 21
342.73065185546875
 31
0.0
  0
LINE
  5
D6
  8
BRACING
 10
573.2356567382812
 20
342.73065185546875
 30
0.0
 11
573.193359375
 21
581.4906616210938
 31
0.0
  0
LINE
  5
D7
  8
SMALL_FEATURE
 10
479.2980041503906
 20
333.9253234863281
 30
0.0
 11
480.8219909667969
 21
333.9676818847656
 31
0.0
  0
LINE
  5
D8
  8
SMALL_FEATURE
 10
480.8219909667969
 20
333.9676818847656
 30
0.0
 11
494.4110107421875
 21
331.7239990234375
 31
0.0
  0
LINE
  5
D9
  8
SMALL_FEATURE
 10
494.4110107421875
 20
331.7239990234375
 30
0.0
 11
494.5379943847656
 21
331.0889892578125
 31
0.0
  0
LINE
  5
DA
  8
SMALL_FEATURE
 10
494.5379943847656
 20
331.0889892578125
 30
0.0
 11
493.1409912109375
 21
322.6223449707031
 31
0.0
  0
LINE
  5
DB
  8
SMALL_FEATURE
 10
493.1409912109375
 20
322.6223449707031
 30
0.0
 11
492.760009765625
 21
322.5799865722656
 31
0.0
  0
LINE
  5
DC
  8
SMALL_FEATURE
 10
492.760009765625
 20
322.5799865722656
 30
0.0
 11
492.336669921875
 21
323.1303405761719
 31
0.0
  0
LINE
  5
DD
  8
SMALL_FEATURE
 10
492.336669921875
 20
323.1303405761719
 30
0.0
 11
492.125
 21
322.96099853515625
 31
0.0
  0
LINE
  5
DE
  8
SMALL_FEATURE
 10
492.125
 20
322.96099853515625
 30
0.0
 11
492.42132568359375
 21
322.2413330078125
 31
0.0
  0
LINE
  5
DF
  8
SMALL_FEATURE
 10
492.42132568359375
 20
322.2413330078125
 30
0.0
 11
479.128662109375
 21
324.2733459472656
 31
0.0
  0
LINE
  5
E0
  8
SMALL_FEATURE
 10
479.128662109375
 20
324.2733459472656
 30
0.0
 11
479.2980041503906
 21
333.9253234863281
 31
0.0
  0
LINE
  5
E1
  8
SMALL_FEATURE
 10
409.36334228515625
 20
519.8109741210938
 30
0.0
 11
415.5863342285156
 21
519.7686767578125
 31
0.0
  0
LINE
  5
E2
  8
SMALL_FEATURE
 10
415.5863342285156
 20
519.7686767578125
 30
0.0
 11
416.2213439941406
 21
513.5880126953125
 31
0.0
  0
LINE
  5
E3
  8
SMALL_FEATURE
 10
416.2213439941406
 20
513.5880126953125
 30
0.0
 11
416.5176696777344
 21
499.87200927734375
 31
0.0
  0
LINE
  5
E4
  8
SMALL_FEATURE
 10
416.5176696777344
 20
499.87200927734375
 30
0.0
 11
409.3210144042969
 21
499.9143371582031
 31
0.0
  0
LINE
  5
E5
  8
SMALL_FEATURE
 10
409.3210144042969
 20
499.9143371582031
 30
0.0
 11
409.3210144042969
 21
509.77801513671875
 31
0.0
  0
LINE
  5
E6
  8
SMALL_FEATURE
 10
409.3210144042969
 20
509.77801513671875
 30
0.0
 11
415.2476806640625
 21
509.8203430175781
 31
0.0
  0
LINE
  5
E7
  8
SMALL_FEATURE
 10
415.2476806640625
 20
509.8203430175781
 30
0.0
 11
409.3210144042969
 21
509.9049987792969
 31
0.0
  0
LINE
  5
E8
  8
SMALL_FEATURE
 10
409.3210144042969
 20
509.9049987792969
 30
0.0
 11
409.36334228515625
 21
519.8109741210938
 31
0.0
  0
LINE
  5
E9
  8
SMALL_FEATURE
 10
464.3543395996094
 20
340.614013671875
 30
0.0
 11
464.6929931640625
 21
340.614013671875
 31
0.0
  0
LINE
  5
EA
  8
SMALL_FEATURE
 10
464.6929931640625
 20
340.614013671875
 30
0.0
 11
477.6470031738281
 21
327.6600036621094
 31
0.0
  0
LINE
  5
EB
  8
SMALL_FEATURE
 10
477.6470031738281
 20
327.6600036621094
 30
0.0
 11
477.60467529296875
 21
327.2366638183594
 31
0.0
  0
LINE
  5
EC
  8
SMALL_FEATURE
 10
477.60467529296875
 20
327.2366638183594
 30
0.0
 11
475.1493225097656
 21
327.61767578125
 31
0.0
  0
LINE
  5
ED
  8
SMALL_FEATURE
 10
475.1493225097656
 20
327.61767578125
 30
0.0
 11
474.2603454589844
 21
328.50665283203125
 31
0.0
  0
LINE
  5
EE
  8
SMALL_FEATURE
 10
474.2603454589844
 20
328.50665283203125
 30
0.0
 11
474.47198486328125
 21
327.8716735839844
 31
0.0
  0
LINE
  5
EF
  8
SMALL_FEATURE
 10
474.47198486328125
 20
327.8716735839844
 30
0.0
 11
474.0486755371094
 21
327.829345703125
 31
0.0
  0
LINE
  5
F0
  8
SMALL_FEATURE
 10
474.0486755371094
 20
327.829345703125
 30
0.0
 11
475.10699462890625
 21
327.5753479003906
 31
0.0
  0
LINE
  5
F1
  8
SMALL_FEATURE
 10
475.10699462890625
 20
327.5753479003906
 30
0.0
 11
477.2659912109375
 21
325.3316650390625
 31
0.0
  0
LINE
  5
F2
  8
SMALL_FEATURE
 10
477.2659912109375
 20
325.3316650390625
 30
0.0
 11
477.2236633300781
 21
324.6966552734375
 31
0.0
  0
LINE
  5
F3
  8
SMALL_FEATURE
 10
477.2236633300781
 20
324.6966552734375
 30
0.0
 11
475.1916809082031
 21
324.9083251953125
 31
0.0
  0
LINE
  5
F4
  8
SMALL_FEATURE
 10
475.1916809082031
 20
324.9083251953125
 30
0.0
 11
473.7099914550781
 21
326.3053283691406
 31
0.0
  0
LINE
  5
F5
  8
SMALL_FEATURE
 10
473.7099914550781
 20
326.3053283691406
 30
0.0
 11
476.9273376464844
 21
323.045654296875
 31
0.0
  0
LINE
  5
F6
  8
SMALL_FEATURE
 10
476.9273376464844
 20
323.045654296875
 30
0.0
 11
476.6310119628906
 21
321.1406555175781
 31
0.0
  0
LINE
  5
F7
  8
SMALL_FEATURE
 10
476.6310119628906
 20
321.1406555175781
 30
0.0
 11
475.9960021972656
 21
321.3946533203125
 31
0.0
  0
LINE
  5
F8
  8
SMALL_FEATURE
 10
475.9960021972656
 20
321.3946533203125
 30
0.0
 11
472.6093444824219
 21
324.739013671875
 31
0.0
  0
LINE
  5
F9
  8
SMALL_FEATURE
 10
472.6093444824219
 20
324.739013671875
 30
0.0
 11
472.65167236328125
 21
325.1199951171875
 31
0.0
  0
LINE
  5
FA
  8
SMALL_FEATURE
 10
472.65167236328125
 20
325.1199951171875
 30
0.0
 11
474.0486755371094
 21
324.9083251953125
 31
0.0
  0
LINE
  5
FB
  8
SMALL_FEATURE
 10
474.0486755371094
 20
324.9083251953125
 30
0.0
 11
474.2603454589844
 21
325.1199951171875
 31
0.0
  0
LINE
  5
FC
  8
SMALL_FEATURE
 10
474.2603454589844
 20
325.1199951171875
 30
0.0
 11
471.8473205566406
 21
325.5010070800781
 31
0.0
  0
LINE
  5
FD
  8
SMALL_FEATURE
 10
471.8473205566406
 20
325.5010070800781
 30
0.0
 11
471.1276550292969
 21
326.3053283691406
 31
0.0
  0
LINE
  5
FE
  8
SMALL_FEATURE
 10
471.1276550292969
 20
326.3053283691406
 30
0.0
 11
471.2969970703125
 21
325.7126770019531
 31
0.0
  0
LINE
  5
FF
  8
SMALL_FEATURE
 10
471.2969970703125
 20
325.7126770019531
 30
0.0
 11
470.49267578125
 21
325.62799072265625
 31
0.0
  0
LINE
  5
100
  8
SMALL_FEATURE
 10
470.49267578125
 20
325.62799072265625
 30
0.0
 11
471.9743347167969
 21
325.2893371582031
 31
0.0
  0
LINE
  5
101
  8
SMALL_FEATURE
 10
471.9743347167969
 20
325.2893371582031
 30
0.0
 11
476.54632568359375
 21
320.802001953125
 31
0.0
  0
LINE
  5
102
  8
SMALL_FEATURE
 10
476.54632568359375
 20
320.802001953125
 30
0.0
 11
476.25
 21
318.8123474121094
 31
0.0
  0
LINE
  5
103
  8
SMALL_FEATURE
 10
476.25
 20
318.8123474121094
 30
0.0
 11
475.9113464355469
 21
318.8123474121094
 31
0.0
  0
LINE
  5
104
  8
SMALL_FEATURE
 10
475.9113464355469
 20
318.8123474121094
 30
0.0
 11
469.434326171875
 21
325.2893371582031
 31
0.0
  0
LINE
  5
105
  8
SMALL_FEATURE
 10
469.434326171875
 20
325.2893371582031
 30
0.0
 11
469.6883239746094
 21
325.8819885253906
 31
0.0
  0
LINE
  5
106
  8
SMALL_FEATURE
 10
469.6883239746094
 20
325.8819885253906
 30
0.0
 11
468.71466064453125
 21
326.0090026855469
 31
0.0
  0
LINE
  5
107
  8
SMALL_FEATURE
 10
468.71466064453125
 20
326.0090026855469
 30
0.0
 11
467.8256530761719
 21
326.89801025390625
 31
0.0
  0
LINE
  5
108
  8
SMALL_FEATURE
 10
467.8256530761719
 20
326.89801025390625
 30
0.0
 11
468.0373229980469
 21
326.1783447265625
 31
0.0
  0
LINE
  5
109
  8
SMALL_FEATURE
 10
468.0373229980469
 20
326.1783447265625
 30
0.0
 11
465.7090148925781
 21
326.3900146484375
 31
0.0
  0
LINE
  5
10A
  8
SMALL_FEATURE
 10
465.7090148925781
 20
326.3900146484375
 30
0.0
 11
463.253662109375
 21
328.92999267578125
 31
0.0
  0
LINE
  5
10B
  8
SMALL_FEATURE
 10
463.253662109375
 20
328.92999267578125
 30
0.0
 11
463.38067626953125
 21
329.9036560058594
 31
0.0
  0
LINE
  5
10C
  8
SMALL_FEATURE
 10
463.38067626953125
 20
329.9036560058594
 30
0.0
 11
465.0740051269531
 21
329.6073303222656
 31
0.0
  0
LINE
  5
10D
  8
SMALL_FEATURE
 10
465.0740051269531
 20
329.6073303222656
 30
0.0
 11
466.25933837890625
 21
328.4643249511719
 31
0.0
  0
LINE
  5
10E
  8
SMALL_FEATURE
 10
466.25933837890625
 20
328.4643249511719
 30
0.0
 11
465.83599853515625
 21
329.3110046386719
 31
0.0
  0
LINE
  5
10F
  8
SMALL_FEATURE
 10
465.83599853515625
 20
329.3110046386719
 30
0.0
 11
466.47100830078125
 21
329.3110046386719
 31
0.0
  0
LINE
  5
110
  8
SMALL_FEATURE
 10
466.47100830078125
 20
329.3110046386719
 30
0.0
 11
465.1163330078125
 21
329.649658203125
 31
0.0
  0
LINE
  5
111
  8
SMALL_FEATURE
 10
465.1163330078125
 20
329.649658203125
 30
0.0
 11
463.59234619140625
 21
331.13134765625
 31
0.0
  0
LINE
  5
112
  8
SMALL_FEATURE
 10
463.59234619140625
 20
331.13134765625
 30
0.0
 11
463.888671875
 21
333.07867431640625
 31
0.0
  0
LINE
  5
113
  8
SMALL_FEATURE
 10
463.888671875
 20
333.07867431640625
 30
0.0
 11
464.2273254394531
 21
333.07867431640625
 31
0.0
  0
LINE
  5
114
  8
SMALL_FEATURE
 10
464.2273254394531
 20
333.07867431640625
 30
0.0
 11
466.7250061035156
 21
330.6656799316406
 31
0.0
  0
LINE
  5
115
  8
SMALL_FEATURE
 10
466.7250061035156
 20
330.6656799316406
 30
0.0
 11
463.97332763671875
 21
333.375
 31
0.0
  0
LINE
  5
116
  8
SMALL_FEATURE
 10
463.97332763671875
 20
333.375
 30
0.0
 11
464.2696533203125
 21
335.3646545410156
 31
0.0
  0
LINE
  5
117
  8
SMALL_FEATURE
 10
464.2696533203125
 20
335.3646545410156
 30
0.0
 11
464.60833740234375
 21
335.3646545410156
 31
0.0
  0
LINE
  5
118
  8
SMALL_FEATURE
 10
464.60833740234375
 20
335.3646545410156
 30
0.0
 11
469.0956726074219
 21
330.919677734375
 31
0.0
  0
LINE
  5
119
  8
SMALL_FEATURE
 10
469.0956726074219
 20
330.919677734375
 30
0.0
 11
464.3543395996094
 21
335.7033386230469
 31
0.0
  0
LINE
  5
11A
  8
SMALL_FEATURE
 10
464.3543395996094
 20
335.7033386230469
 30
0.0
 11
464.3543395996094
 21
337.9046630859375
 31
0.0
  0
LINE
  5
11B
  8
SMALL_FEATURE
 10
464.3543395996094
 20
337.9046630859375
 30
0.0
 11
464.6929931640625
 21
337.9046630859375
 31
0.0
  0
LINE
  5
11C
  8
SMALL_FEATURE
 10
464.6929931640625
 20
337.9046630859375
 30
0.0
 11
472.3976745605469
 21
330.3269958496094
 31
0.0
  0
LINE
  5
11D
  8
SMALL_FEATURE
 10
472.3976745605469
 20
330.3269958496094
 30
0.0
 11
464.31201171875
 21
338.3703308105469
 31
0.0
  0
LINE
  5
11E
  8
SMALL_FEATURE
 10
464.31201171875
 20
338.3703308105469
 30
0.0
 11
464.3543395996094
 21
340.614013671875
 31
0.0
  0
LINE
  5
11F
  8
SMALL_FEATURE
 10
464.1426696777344
 20
354.11834716796875
 30
0.0
 11
464.4813232421875
 21
354.11834716796875
 31
0.0
  0
LINE
  5
120
  8
SMALL_FEATURE
 10
464.4813232421875
 20
354.11834716796875
 30
0.0
 11
477.0119934082031
 21
341.50299072265625
 31
0.0
  0
LINE
  5
121
  8
SMALL_FEATURE
 10
477.0119934082031
 20
341.50299072265625
 30
0.0
 11
476.96966552734375
 21
341.12200927734375
 31
0.0
  0
LINE
  5
122
  8
SMALL_FEATURE
 10
476.96966552734375
 20
341.12200927734375
 30
0.0
 11
474.8529968261719
 21
341.12200927734375
 31
0.0
  0
LINE
  5
123
  8
SMALL_FEATURE
 10
474.8529968261719
 20
341.12200927734375
 30
0.0
 11
474.0486755371094
 21
341.8840026855469
 31
0.0
  0
LINE
  5
124
  8
SMALL_FEATURE
 10
474.0486755371094
 20
341.8840026855469
 30
0.0
 11
474.3873291015625
 21
341.50299072265625
 31
0.0
  0
LINE
  5
125
  8
SMALL_FEATURE
 10
474.3873291015625
 20
341.50299072265625
 30
0.0
 11
474.3873291015625
 21
341.1643371582031
 31
0.0
  0
LINE
  5
126
  8
SMALL_FEATURE
 10
474.3873291015625
 20
341.1643371582031
 30
0.0
 11
474.0486755371094
 21
341.0796813964844
 31
0.0
  0
LINE
  5
127
  8
SMALL_FEATURE
 10
474.0486755371094
 20
341.0796813964844
 30
0.0
 11
474.8106689453125
 21
341.0796813964844
 31
0.0
  0
LINE
  5
128
  8
SMALL_FEATURE
 10
474.8106689453125
 20
341.0796813964844
 30
0.0
 11
478.7900085449219
 21
337.100341796875
 31
0.0
  0
LINE
  5
129
  8
SMALL_FEATURE
 10
478.7900085449219
 20
337.100341796875
 30
0.0
 11
478.7476806640625
 21
334.94134521484375
 31
0.0
  0
LINE
  5
12A
  8
SMALL_FEATURE
 10
478.7476806640625
 20
334.94134521484375
 30
0.0
 11
478.40899658203125
 21
334.94134521484375
 31
0.0
  0
LINE
  5
12B
  8
SMALL_FEATURE
 10
478.40899658203125
 20
334.94134521484375
 30
0.0
 11
474.0486755371094
 21
339.2170104980469
 31
0.0
  0
LINE
  5
12C
  8
SMALL_FEATURE
 10
474.0486755371094
 20
339.2170104980469
 30
0.0
 11
478.7900085449219
 21
334.4756774902344
 31
0.0
  0
LINE
  5
12D
  8
SMALL_FEATURE
 10
478.7900085449219
 20
334.4756774902344
 30
0.0
 11
478.49365234375
 21
332.5283203125
 31
0.0
  0
LINE
  5
12E
  8
SMALL_FEATURE
 10
478.49365234375
 20
332.5283203125
 30
0.0
 11
478.1126708984375
 21
332.5283203125
 31
0.0
  0
LINE
  5
12F
  8
SMALL_FEATURE
 10
478.1126708984375
 20
332.5283203125
 30
0.0
 11
471.42401123046875
 21
339.2170104980469
 31
0.0
  0
LINE
  5
130
  8
SMALL_FEATURE
 10
471.42401123046875
 20
339.2170104980469
 30
0.0
 11
478.40899658203125
 21
332.1473388671875
 31
0.0
  0
LINE
  5
131
  8
SMALL_FEATURE
 10
478.40899658203125
 20
332.1473388671875
 30
0.0
 11
478.1126708984375
 21
330.2423400878906
 31
0.0
  0
LINE
  5
132
  8
SMALL_FEATURE
 10
478.1126708984375
 20
330.2423400878906
 30
0.0
 11
477.77398681640625
 21
330.2423400878906
 31
0.0
  0
LINE
  5
133
  8
SMALL_FEATURE
 10
477.77398681640625
 20
330.2423400878906
 30
0.0
 11
467.2330017089844
 21
340.69866943359375
 31
0.0
  0
LINE
  5
134
  8
SMALL_FEATURE
 10
467.2330017089844
 20
340.69866943359375
 30
0.0
 11
467.27532958984375
 21
341.0796813964844
 31
0.0
  0
LINE
  5
135
  8
SMALL_FEATURE
 10
467.27532958984375
 20
341.0796813964844
 30
0.0
 11
469.0956726074219
 21
341.0796813964844
 31
0.0
  0
LINE
  5
136
  8
SMALL_FEATURE
 10
469.0956726074219
 20
341.0796813964844
 30
0.0
 11
469.0956726074219
 21
341.5453186035156
 31
0.0
  0
LINE
  5
137
  8
SMALL_FEATURE
 10
469.0956726074219
 20
341.5453186035156
 30
0.0
 11
464.18499755859375
 21
346.45599365234375
 31
0.0
  0
LINE
  5
138
  8
SMALL_FEATURE
 10
464.18499755859375
 20
346.45599365234375
 30
0.0
 11
464.2273254394531
 21
348.6996765136719
 31
0.0
  0
LINE
  5
139
  8
SMALL_FEATURE
 10
464.2273254394531
 20
348.6996765136719
 30
0.0
 11
464.5660095214844
 21
348.6996765136719
 31
0.0
  0
LINE
  5
13A
  8
SMALL_FEATURE
 10
464.5660095214844
 20
348.6996765136719
 30
0.0
 11
470.36566162109375
 21
342.98468017578125
 31
0.0
  0
LINE
  5
13B
  8
SMALL_FEATURE
 10
470.36566162109375
 20
342.98468017578125
 30
0.0
 11
464.1426696777344
 21
349.2076721191406
 31
0.0
  0
LINE
  5
13C
  8
SMALL_FEATURE
 10
464.1426696777344
 20
349.2076721191406
 30
0.0
 11
464.18499755859375
 21
351.3666687011719
 31
0.0
  0
LINE
  5
13D
  8
SMALL_FEATURE
 10
464.18499755859375
 20
351.3666687011719
 30
0.0
 11
464.523681640625
 21
351.3666687011719
 31
0.0
  0
LINE
  5
13E
  8
SMALL_FEATURE
 10
464.523681640625
 20
351.3666687011719
 30
0.0
 11
472.9903259277344
 21
342.98468017578125
 31
0.0
  0
LINE
  5
13F
  8
SMALL_FEATURE
 10
472.9903259277344
 20
342.98468017578125
 30
0.0
 11
464.100341796875
 21
351.8746643066406
 31
0.0
  0
LINE
  5
140
  8
SMALL_FEATURE
 10
464.100341796875
 20
351.8746643066406
 30
0.0
 11
464.1426696777344
 21
354.11834716796875
 31
0.0
  0
LINE
  5
141
  8
SMALL_FEATURE
 10
319.3626708984375
 20
153.37367248535156
 30
0.0
 11
319.7860107421875
 21
153.33132934570312
 31
0.0
  0
LINE
  5
142
  8
SMALL_FEATURE
 10
319.7860107421875
 20
153.33132934570312
 30
0.0
 11
319.74365234375
 21
128.90499877929688
 31
0.0
  0
LINE
  5
143
  8
SMALL_FEATURE
 10
319.74365234375
 20
128.90499877929688
 30
0.0
 11
318.8970031738281
 21
128.9896697998047
 31
0.0
  0
LINE
  5
144
  8
SMALL_FEATURE
 10
318.8970031738281
 20
128.9896697998047
 30
0.0
 11
318.00799560546875
 21
129.58233642578125
 31
0.0
  0
LINE
  5
145
  8
SMALL_FEATURE
 10
318.00799560546875
 20
129.58233642578125
 30
0.0
 11
316.1876525878906
 21
131.99533081054688
 31
0.0
  0
LINE
  5
146
  8
SMALL_FEATURE
 10
316.1876525878906
 20
131.99533081054688
 30
0.0
 11
315.044677734375
 21
135.55133056640625
 31
0.0
  0
LINE
  5
147
  8
SMALL_FEATURE
 10
315.044677734375
 20
135.55133056640625
 30
0.0
 11
314.4519958496094
 21
139.74234008789062
 31
0.0
  0
LINE
  5
148
  8
SMALL_FEATURE
 10
314.4519958496094
 20
139.74234008789062
 30
0.0
 11
314.5790100097656
 21
144.3143310546875
 31
0.0
  0
LINE
  5
149
  8
SMALL_FEATURE
 10
314.5790100097656
 20
144.3143310546875
 30
0.0
 11
315.5103454589844
 21
148.54766845703125
 31
0.0
  0
LINE
  5
14A
  8
SMALL_FEATURE
 10
315.5103454589844
 20
148.54766845703125
 30
0.0
 11
317.0343322753906
 21
151.68032836914062
 31
0.0
  0
LINE
  5
14B
  8
SMALL_FEATURE
 10
317.0343322753906
 20
151.68032836914062
 30
0.0
 11
317.9656677246094
 21
152.6963348388672
 31
0.0
  0
LINE
  5
14C
  8
SMALL_FEATURE
 10
317.9656677246094
 20
152.6963348388672
 30
0.0
 11
319.3626708984375
 21
153.37367248535156
 31
0.0
  0
LINE
  5
14D
  8
SMALL_FEATURE
 10
217.1699981689453
 20
153.37367248535156
 30
0.0
 11
218.8209991455078
 21
152.73866271972656
 31
0.0
  0
LINE
  5
14E
  8
SMALL_FEATURE
 10
218.8209991455078
 20
152.73866271972656
 30
0.0
 11
219.87933349609375
 21
151.68032836914062
 31
0.0
  0
LINE
  5
14F
  8
SMALL_FEATURE
 10
219.87933349609375
 20
151.68032836914062
 30
0.0
 11
220.7259979248047
 21
150.07167053222656
 31
0.0
  0
LINE
  5
150
  8
SMALL_FEATURE
 10
220.7259979248047
 20
150.07167053222656
 30
0.0
 11
221.86900329589844
 21
146.76966857910156
 31
0.0
  0
LINE
  5
151
  8
SMALL_FEATURE
 10
221.86900329589844
 20
146.76966857910156
 30
0.0
 11
222.461669921875
 21
142.5786590576172
 31
0.0
  0
LINE
  5
152
  8
SMALL_FEATURE
 10
222.461669921875
 20
142.5786590576172
 30
0.0
 11
222.3346710205078
 21
138.0066680908203
 31
0.0
  0
LINE
  5
153
  8
SMALL_FEATURE
 10
222.3346710205078
 20
138.0066680908203
 30
0.0
 11
221.40333557128906
 21
133.68865966796875
 31
0.0
  0
LINE
  5
154
  8
SMALL_FEATURE
 10
221.40333557128906
 20
133.68865966796875
 30
0.0
 11
219.87933349609375
 21
130.6406707763672
 31
0.0
  0
LINE
  5
155
  8
SMALL_FEATURE
 10
219.87933349609375
 20
130.6406707763672
 30
0.0
 11
218.8209991455078
 21
129.58233642578125
 31
0.0
  0
LINE
  5
156
  8
SMALL_FEATURE
 10
218.8209991455078
 20
129.58233642578125
 30
0.0
 11
217.5933380126953
 21
128.90499877929688
 31
0.0
  0
LINE
  5
157
  8
SMALL_FEATURE
 10
217.5933380126953
 20
128.90499877929688
 30
0.0
 11
217.12767028808594
 21
128.94732666015625
 31
0.0
  0
LINE
  5
158
  8
SMALL_FEATURE
 10
217.12767028808594
 20
128.94732666015625
 30
0.0
 11
217.1699981689453
 21
153.37367248535156
 31
0.0
  0
LINE
  5
159
  8
SMALL_FEATURE
 10
339.3016662597656
 20
299.8046569824219
 30
0.0
 11
349.2923278808594
 21
299.84698486328125
 31
0.0
  0
LINE
  5
15A
  8
SMALL_FEATURE
 10
349.2923278808594
 20
299.84698486328125
 30
0.0
 11
349.33465576171875
 21
289.8563232421875
 31
0.0
  0
LINE
  5
15B
  8
SMALL_FEATURE
 10
349.33465576171875
 20
289.8563232421875
 30
0.0
 11
339.343994140625
 21
289.8139953613281
 31
0.0
  0
LINE
  5
15C
  8
SMALL_FEATURE
 10
339.343994140625
 20
289.8139953613281
 30
0.0
 11
339.3016662597656
 21
299.8046569824219
 31
0.0
  0
LINE
  5
15D
  8
SMALL_FEATURE
 10
339.3016662597656
 20
399.7959899902344
 30
0.0
 11
349.2923278808594
 21
399.8383483886719
 31
0.0
  0
LINE
  5
15E
  8
SMALL_FEATURE
 10
349.2923278808594
 20
399.8383483886719
 30
0.0
 11
349.33465576171875
 21
389.84765625
 31
0.0
  0
LINE
  5
15F
  8
SMALL_FEATURE
 10
349.33465576171875
 20
389.84765625
 30
0.0
 11
339.343994140625
 21
389.8053283691406
 31
0.0
  0
LINE
  5
160
  8
SMALL_FEATURE
 10
339.343994140625
 20
389.8053283691406
 30
0.0
 11
339.3016662597656
 21
399.7959899902344
 31
0.0
  0
LINE
  5
161
  8
SMALL_FEATURE
 10
339.3016662597656
 20
499.7873229980469
 30
0.0
 11
349.2923278808594
 21
499.8296813964844
 31
0.0
  0
LINE
  5
162
  8
SMALL_FEATURE
 10
349.2923278808594
 20
499.8296813964844
 30
0.0
 11
349.33465576171875
 21
489.8389892578125
 31
0.0
  0
LINE
  5
163
  8
SMALL_FEATURE
 10
349.33465576171875
 20
489.8389892578125
 30
0.0
 11
339.343994140625
 21
489.7966613769531
 31
0.0
  0
LINE
  5
164
  8
SMALL_FEATURE
 10
339.343994140625
 20
489.7966613769531
 30
0.0
 11
339.3016662597656
 21
499.7873229980469
 31
0.0
  0
LINE
  5
165
  8
SMALL_FEATURE
 10
339.3016662597656
 20
289.7293395996094
 30
0.0
 11
349.2923278808594
 21
289.77166748046875
 31
0.0
  0
LINE
  5
166
  8
SMALL_FEATURE
 10
349.2923278808594
 20
289.77166748046875
 30
0.0
 11
349.33465576171875
 21
279.86566162109375
 31
0.0
  0
LINE
  5
167
  8
SMALL_FEATURE
 10
349.33465576171875
 20
279.86566162109375
 30
0.0
 11
339.343994140625
 21
279.8233337402344
 31
0.0
  0
LINE
  5
168
  8
SMALL_FEATURE
 10
339.343994140625
 20
279.8233337402344
 30
0.0
 11
339.3016662597656
 21
289.7293395996094
 31
0.0
  0
LINE
  5
169
  8
SMALL_FEATURE
 10
399.3726806640625
 20
299.84698486328125
 30
0.0
 11
409.2786560058594
 21
299.8046569824219
 31
0.0
  0
LINE
  5
16A
  8
SMALL_FEATURE
 10
409.2786560058594
 20
299.8046569824219
 30
0.0
 11
409.236328125
 21
289.8139953613281
 31
0.0
  0
LINE
  5
16B
  8
SMALL_FEATURE
 10
409.236328125
 20
289.8139953613281
 30
0.0
 11
399.330322265625
 21
289.8563232421875
 31
0.0
  0
LINE
  5
16C
  8
SMALL_FEATURE
 10
399.330322265625
 20
289.8563232421875
 30
0.0
 11
399.3726806640625
 21
299.84698486328125
 31
0.0
  0
LINE
  5
16D
  8
SMALL_FEATURE
 10
389.3819885253906
 20
299.84698486328125
 30
0.0
 11
399.2879943847656
 21
299.8046569824219
 31
0.0
  0
LINE
  5
16E
  8
SMALL_FEATURE
 10
399.2879943847656
 20
299.8046569824219
 30
0.0
 11
399.24566650390625
 21
289.8139953613281
 31
0.0
  0
LINE
  5
16F
  8
SMALL_FEATURE
 10
399.24566650390625
 20
289.8139953613281
 30
0.0
 11
389.33966064453125
 21
289.8563232421875
 31
0.0
  0
LINE
  5
170
  8
SMALL_FEATURE
 10
389.33966064453125
 20
289.8563232421875
 30
0.0
 11
389.3819885253906
 21
299.84698486328125
 31
0.0
  0
LINE
  5
171
  8
SMALL_FEATURE
 10
379.3913269042969
 20
299.84698486328125
 30
0.0
 11
389.2973327636719
 21
299.8046569824219
 31
0.0
  0
LINE
  5
172
  8
SMALL_FEATURE
 10
389.2973327636719
 20
299.8046569824219
 30
0.0
 11
389.2550048828125
 21
289.8139953613281
 31
0.0
  0
LINE
  5
173
  8
SMALL_FEATURE
 10
389.2550048828125
 20
289.8139953613281
 30
0.0
 11
379.3489990234375
 21
289.8563232421875
 31
0.0
  0
LINE
  5
174
  8
SMALL_FEATURE
 10
379.3489990234375
 20
289.8563232421875
 30
0.0
 11
379.3913269042969
 21
299.84698486328125
 31
0.0
  0
LINE
  5
175
  8
SMALL_FEATURE
 10
359.4100036621094
 20
299.84698486328125
 30
0.0
 11
369.3160095214844
 21
299.8046569824219
 31
0.0
  0
LINE
  5
176
  8
SMALL_FEATURE
 10
369.3160095214844
 20
299.8046569824219
 30
0.0
 11
369.273681640625
 21
289.8139953613281
 31
0.0
  0
LINE
  5
177
  8
SMALL_FEATURE
 10
369.273681640625
 20
289.8139953613281
 30
0.0
 11
359.36767578125
 21
289.8563232421875
 31
0.0
  0
LINE
  5
178
  8
SMALL_FEATURE
 10
359.36767578125
 20
289.8563232421875
 30
0.0
 11
359.4100036621094
 21
299.84698486328125
 31
0.0
  0
LINE
  5
179
  8
SMALL_FEATURE
 10
349.4193420410156
 20
299.84698486328125
 30
0.0
 11
359.3253479003906
 21
299.8046569824219
 31
0.0
  0
LINE
  5
17A
  8
SMALL_FEATURE
 10
359.3253479003906
 20
299.8046569824219
 30
0.0
 11
359.2829895019531
 21
289.8139953613281
 31
0.0
  0
LINE
  5
17B
  8
SMALL_FEATURE
 10
359.2829895019531
 20
289.8139953613281
 30
0.0
 11
349.37701416015625
 21
289.8563232421875
 31
0.0
  0
LINE
  5
17C
  8
SMALL_FEATURE
 10
349.37701416015625
 20
289.8563232421875
 30
0.0
 11
349.4193420410156
 21
299.84698486328125
 31
0.0
  0
LINE
  5
17D
  8
SMALL_FEATURE
 10
329.35333251953125
 20
299.84698486328125
 30
0.0
 11
339.25933837890625
 21
299.8046569824219
 31
0.0
  0
LINE
  5
17E
  8
SMALL_FEATURE
 10
339.25933837890625
 20
299.8046569824219
 30
0.0
 11
339.2170104980469
 21
289.8139953613281
 31
0.0
  0
LINE
  5
17F
  8
SMALL_FEATURE
 10
339.2170104980469
 20
289.8139953613281
 30
0.0
 11
329.3110046386719
 21
289.8563232421875
 31
0.0
  0
LINE
  5
180
  8
SMALL_FEATURE
 10
329.3110046386719
 20
289.8563232421875
 30
0.0
 11
329.35333251953125
 21
299.84698486328125
 31
0.0
  0
LINE
  5
181
  8
SMALL_FEATURE
 10
319.3626708984375
 20
299.84698486328125
 30
0.0
 11
329.2686767578125
 21
299.8046569824219
 31
0.0
  0
LINE
  5
182
  8
SMALL_FEATURE
 10
329.2686767578125
 20
299.8046569824219
 30
0.0
 11
329.226318359375
 21
289.8139953613281
 31
0.0
  0
LINE
  5
183
  8
SMALL_FEATURE
 10
329.226318359375
 20
289.8139953613281
 30
0.0
 11
319.3203430175781
 21
289.8563232421875
 31
0.0
  0
LINE
  5
184
  8
SMALL_FEATURE
 10
319.3203430175781
 20
289.8563232421875
 30
0.0
 11
319.3626708984375
 21
299.84698486328125
 31
0.0
  0
LINE
  5
185
  8
SMALL_FEATURE
 10
309.37200927734375
 20
299.84698486328125
 30
0.0
 11
319.27801513671875
 21
299.8046569824219
 31
0.0
  0
LINE
  5
186
  8
SMALL_FEATURE
 10
319.27801513671875
 20
299.8046569824219
 30
0.0
 11
319.23565673828125
 21
289.8139953613281
 31
0.0
  0
LINE
  5
187
  8
SMALL_FEATURE
 10
319.23565673828125
 20
289.8139953613281
 30
0.0
 11
309.3296813964844
 21
289.8563232421875
 31
0.0
  0
LINE
  5
188
  8
SMALL_FEATURE
 10
309.3296813964844
 20
289.8563232421875
 30
0.0
 11
309.37200927734375
 21
299.84698486328125
 31
0.0
  0
LINE
  5
189
  8
SMALL_FEATURE
 10
339.3016662597656
 20
309.7953186035156
 30
0.0
 11
349.2923278808594
 21
309.8376770019531
 31
0.0
  0
LINE
  5
18A
  8
SMALL_FEATURE
 10
349.2923278808594
 20
309.8376770019531
 30
0.0
 11
349.33465576171875
 21
299.9316711425781
 31
0.0
  0
LINE
  5
18B
  8
SMALL_FEATURE
 10
349.33465576171875
 20
299.9316711425781
 30
0.0
 11
339.343994140625
 21
299.88934326171875
 31
0.0
  0
LINE
  5
18C
  8
SMALL_FEATURE
 10
339.343994140625
 20
299.88934326171875
 30
0.0
 11
339.3016662597656
 21
309.7953186035156
 31
0.0
  0
LINE
  5
18D
  8
SMALL_FEATURE
 10
339.3016662597656
 20
319.7860107421875
 30
0.0
 11
349.2923278808594
 21
319.8283386230469
 31
0.0
  0
LINE
  5
18E
  8
SMALL_FEATURE
 10
349.2923278808594
 20
319.8283386230469
 30
0.0
 11
349.33465576171875
 21
309.9223327636719
 31
0.0
  0
LINE
  5
18F
  8
SMALL_FEATURE
 10
349.33465576171875
 20
309.9223327636719
 30
0.0
 11
339.343994140625
 21
309.8800048828125
 31
0.0
  0
LINE
  5
190
  8
SMALL_FEATURE
 10
339.343994140625
 20
309.8800048828125
 30
0.0
 11
339.3016662597656
 21
319.7860107421875
 31
0.0
  0
LINE
  5
191
  8
SMALL_FEATURE
 10
339.3016662597656
 20
329.77667236328125
 30
0.0
 11
349.2923278808594
 21
329.8190002441406
 31
0.0
  0
LINE
  5
192
  8
SMALL_FEATURE
 10
349.2923278808594
 20
329.8190002441406
 30
0.0
 11
349.33465576171875
 21
319.9129943847656
 31
0.0
  0
LINE
  5
193
  8
SMALL_FEATURE
 10
349.33465576171875
 20
319.9129943847656
 30
0.0
 11
339.343994140625
 21
319.87066650390625
 31
0.0
  0
LINE
  5
194
  8
SMALL_FEATURE
 10
339.343994140625
 20
319.87066650390625
 30
0.0
 11
339.3016662597656
 21
329.77667236328125
 31
0.0
  0
LINE
  5
195
  8
SMALL_FEATURE
 10
339.3016662597656
 20
339.767333984375
 30
0.0
 11
349.2923278808594
 21
339.8096618652344
 31
0.0
  0
LINE
  5
196
  8
SMALL_FEATURE
 10
349.2923278808594
 20
339.8096618652344
 30
0.0
 11
349.33465576171875
 21
329.9036560058594
 31
0.0
  0
LINE
  5
197
  8
SMALL_FEATURE
 10
349.33465576171875
 20
329.9036560058594
 30
0.0
 11
339.343994140625
 21
329.861328125
 31
0.0
  0
LINE
  5
198
  8
SMALL_FEATURE
 10
339.343994140625
 20
329.861328125
 30
0.0
 11
339.3016662597656
 21
339.767333984375
 31
0.0
  0
LINE
  5
199
  8
SMALL_FEATURE
 10
339.3016662597656
 20
349.75799560546875
 30
0.0
 11
349.2923278808594
 21
349.8003234863281
 31
0.0
  0
LINE
  5
19A
  8
SMALL_FEATURE
 10
349.2923278808594
 20
349.8003234863281
 30
0.0
 11
349.33465576171875
 21
339.89434814453125
 31
0.0
  0
LINE
  5
19B
  8
SMALL_FEATURE
 10
349.33465576171875
 20
339.89434814453125
 30
0.0
 11
339.343994140625
 21
339.85198974609375
 31
0.0
  0
LINE
  5
19C
  8
SMALL_FEATURE
 10
339.343994140625
 20
339.85198974609375
 30
0.0
 11
339.3016662597656
 21
349.75799560546875
 31
0.0
  0
LINE
  5
19D
  8
SMALL_FEATURE
 10
339.3016662597656
 20
359.7486572265625
 30
0.0
 11
349.2923278808594
 21
359.7909851074219
 31
0.0
  0
LINE
  5
19E
  8
SMALL_FEATURE
 10
349.2923278808594
 20
359.7909851074219
 30
0.0
 11
349.33465576171875
 21
349.885009765625
 31
0.0
  0
LINE
  5
19F
  8
SMALL_FEATURE
 10
349.33465576171875
 20
349.885009765625
 30
0.0
 11
339.343994140625
 21
349.8426818847656
 31
0.0
  0
LINE
  5
1A0
  8
SMALL_FEATURE
 10
339.343994140625
 20
349.8426818847656
 30
0.0
 11
339.3016662597656
 21
359.7486572265625
 31
0.0
  0
LINE
  5
1A1
  8
SMALL_FEATURE
 10
339.3016662597656
 20
369.73931884765625
 30
0.0
 11
349.2923278808594
 21
369.78167724609375
 31
0.0
  0
LINE
  5
1A2
  8
SMALL_FEATURE
 10
349.2923278808594
 20
369.78167724609375
 30
0.0
 11
349.33465576171875
 21
359.87567138671875
 31
0.0
  0
LINE
  5
1A3
  8
SMALL_FEATURE
 10
349.33465576171875
 20
359.87567138671875
 30
0.0
 11
339.343994140625
 21
359.8333435058594
 31
0.0
  0
LINE
  5
1A4
  8
SMALL_FEATURE
 10
339.343994140625
 20
359.8333435058594
 30
0.0
 11
339.3016662597656
 21
369.73931884765625
 31
0.0
  0
LINE
  5
1A5
  8
SMALL_FEATURE
 10
339.3016662597656
 20
379.7300109863281
 30
0.0
 11
349.2923278808594
 21
379.7723388671875
 31
0.0
  0
LINE
  5
1A6
  8
SMALL_FEATURE
 10
349.2923278808594
 20
379.7723388671875
 30
0.0
 11
349.33465576171875
 21
369.8663330078125
 31
0.0
  0
LINE
  5
1A7
  8
SMALL_FEATURE
 10
349.33465576171875
 20
369.8663330078125
 30
0.0
 11
339.343994140625
 21
369.8240051269531
 31
0.0
  0
LINE
  5
1A8
  8
SMALL_FEATURE
 10
339.343994140625
 20
369.8240051269531
 30
0.0
 11
339.3016662597656
 21
379.7300109863281
 31
0.0
  0
LINE
  5
1A9
  8
SMALL_FEATURE
 10
339.3016662597656
 20
389.7206726074219
 30
0.0
 11
349.2923278808594
 21
389.76300048828125
 31
0.0
  0
LINE
  5
1AA
  8
SMALL_FEATURE
 10
349.2923278808594
 20
389.76300048828125
 30
0.0
 11
349.33465576171875
 21
379.85699462890625
 31
0.0
  0
LINE
  5
1AB
  8
SMALL_FEATURE
 10
349.33465576171875
 20
379.85699462890625
 30
0.0
 11
339.343994140625
 21
379.8146667480469
 31
0.0
  0
LINE
  5
1AC
  8
SMALL_FEATURE
 10
339.343994140625
 20
379.8146667480469
 30
0.0
 11
339.3016662597656
 21
389.7206726074219
 31
0.0
  0
LINE
  5
1AD
  8
SMALL_FEATURE
 10
399.3726806640625
 20
399.8383483886719
 30
0.0
 11
409.2786560058594
 21
399.7959899902344
 31
0.0
  0
LINE
  5
1AE
  8
SMALL_FEATURE
 10
409.2786560058594
 20
399.7959899902344
 30
0.0
 11
409.236328125
 21
389.8053283691406
 31
0.0
  0
LINE
  5
1AF
  8
SMALL_FEATURE
 10
409.236328125
 20
389.8053283691406
 30
0.0
 11
399.330322265625
 21
389.84765625
 31
0.0
  0
LINE
  5
1B0
  8
SMALL_FEATURE
 10
399.330322265625
 20
389.84765625
 30
0.0
 11
399.3726806640625
 21
399.8383483886719
 31
0.0
  0
LINE
  5
1B1
  8
SMALL_FEATURE
 10
389.3819885253906
 20
399.8383483886719
 30
0.0
 11
399.2879943847656
 21
399.7959899902344
 31
0.0
  0
LINE
  5
1B2
  8
SMALL_FEATURE
 10
399.2879943847656
 20
399.7959899902344
 30
0.0
 11
399.24566650390625
 21
389.8053283691406
 31
0.0
  0
LINE
  5
1B3
  8
SMALL_FEATURE
 10
399.24566650390625
 20
389.8053283691406
 30
0.0
 11
389.33966064453125
 21
389.84765625
 31
0.0
  0
LINE
  5
1B4
  8
SMALL_FEATURE
 10
389.33966064453125
 20
389.84765625
 30
0.0
 11
389.3819885253906
 21
399.8383483886719
 31
0.0
  0
LINE
  5
1B5
  8
SMALL_FEATURE
 10
379.3913269042969
 20
399.8383483886719
 30
0.0
 11
389.2973327636719
 21
399.7959899902344
 31
0.0
  0
LINE
  5
1B6
  8
SMALL_FEATURE
 10
389.2973327636719
 20
399.7959899902344
 30
0.0
 11
389.2550048828125
 21
389.8053283691406
 31
0.0
  0
LINE
  5
1B7
  8
SMALL_FEATURE
 10
389.2550048828125
 20
389.8053283691406
 30
0.0
 11
379.3489990234375
 21
389.84765625
 31
0.0
  0
LINE
  5
1B8
  8
SMALL_FEATURE
 10
379.3489990234375
 20
389.84765625
 30
0.0
 11
379.3913269042969
 21
399.8383483886719
 31
0.0
  0
LINE
  5
1B9
  8
SMALL_FEATURE
 10
359.4100036621094
 20
399.8383483886719
 30
0.0
 11
369.3160095214844
 21
399.7959899902344
 31
0.0
  0
LINE
  5
1BA
  8
SMALL_FEATURE
 10
369.3160095214844
 20
399.7959899902344
 30
0.0
 11
369.273681640625
 21
389.8053283691406
 31
0.0
  0
LINE
  5
1BB
  8
SMALL_FEATURE
 10
369.273681640625
 20
389.8053283691406
 30
0.0
 11
359.36767578125
 21
389.84765625
 31
0.0
  0
LINE
  5
1BC
  8
SMALL_FEATURE
 10
359.36767578125
 20
389.84765625
 30
0.0
 11
359.4100036621094
 21
399.8383483886719
 31
0.0
  0
LINE
  5
1BD
  8
SMALL_FEATURE
 10
349.4193420410156
 20
399.8383483886719
 30
0.0
 11
359.3253479003906
 21
399.7959899902344
 31
0.0
  0
LINE
  5
1BE
  8
SMALL_FEATURE
 10
359.3253479003906
 20
399.7959899902344
 30
0.0
 11
359.2829895019531
 21
389.8053283691406
 31
0.0
  0
LINE
  5
1BF
  8
SMALL_FEATURE
 10
359.2829895019531
 20
389.8053283691406
 30
0.0
 11
349.37701416015625
 21
389.84765625
 31
0.0
  0
LINE
  5
1C0
  8
SMALL_FEATURE
 10
349.37701416015625
 20
389.84765625
 30
0.0
 11
349.4193420410156
 21
399.8383483886719
 31
0.0
  0
LINE
  5
1C1
  8
SMALL_FEATURE
 10
329.35333251953125
 20
399.8383483886719
 30
0.0
 11
339.25933837890625
 21
399.7959899902344
 31
0.0
  0
LINE
  5
1C2
  8
SMALL_FEATURE
 10
339.25933837890625
 20
399.7959899902344
 30
0.0
 11
339.2170104980469
 21
389.8053283691406
 31
0.0
  0
LINE
  5
1C3
  8
SMALL_FEATURE
 10
339.2170104980469
 20
389.8053283691406
 30
0.0
 11
329.3110046386719
 21
389.84765625
 31
0.0
  0
LINE
  5
1C4
  8
SMALL_FEATURE
 10
329.3110046386719
 20
389.84765625
 30
0.0
 11
329.35333251953125
 21
399.8383483886719
 31
0.0
  0
LINE
  5
1C5
  8
SMALL_FEATURE
 10
319.3626708984375
 20
399.8383483886719
 30
0.0
 11
329.2686767578125
 21
399.7959899902344
 31
0.0
  0
LINE
  5
1C6
  8
SMALL_FEATURE
 10
329.2686767578125
 20
399.7959899902344
 30
0.0
 11
329.226318359375
 21
389.8053283691406
 31
0.0
  0
LINE
  5
1C7
  8
SMALL_FEATURE
 10
329.226318359375
 20
389.8053283691406
 30
0.0
 11
319.3203430175781
 21
389.84765625
 31
0.0
  0
LINE
  5
1C8
  8
SMALL_FEATURE
 10
319.3203430175781
 20
389.84765625
 30
0.0
 11
319.3626708984375
 21
399.8383483886719
 31
0.0
  0
LINE
  5
1C9
  8
SMALL_FEATURE
 10
309.37200927734375
 20
399.8383483886719
 30
0.0
 11
319.27801513671875
 21
399.7959899902344
 31
0.0
  0
LINE
  5
1CA
  8
SMALL_FEATURE
 10
319.27801513671875
 20
399.7959899902344
 30
0.0
 11
319.23565673828125
 21
389.8053283691406
 31
0.0
  0
LINE
  5
1CB
  8
SMALL_FEATURE
 10
319.23565673828125
 20
389.8053283691406
 30
0.0
 11
309.3296813964844
 21
389.84765625
 31
0.0
  0
LINE
  5
1CC
  8
SMALL_FEATURE
 10
309.3296813964844
 20
389.84765625
 30
0.0
 11
309.37200927734375
 21
399.8383483886719
 31
0.0
  0
LINE
  5
1CD
  8
SMALL_FEATURE
 10
339.3016662597656
 20
409.7866516113281
 30
0.0
 11
349.2923278808594
 21
409.8290100097656
 31
0.0
  0
LINE
  5
1CE
  8
SMALL_FEATURE
 10
349.2923278808594
 20
409.8290100097656
 30
0.0
 11
349.33465576171875
 21
399.9230041503906
 31
0.0
  0
LINE
  5
1CF
  8
SMALL_FEATURE
 10
349.33465576171875
 20
399.9230041503906
 30
0.0
 11
339.343994140625
 21
399.88067626953125
 31
0.0
  0
LINE
  5
1D0
  8
SMALL_FEATURE
 10
339.343994140625
 20
399.88067626953125
 30
0.0
 11
339.3016662597656
 21
409.7866516113281
 31
0.0
  0
LINE
  5
1D1
  8
SMALL_FEATURE
 10
339.3016662597656
 20
419.77734375
 30
0.0
 11
349.2923278808594
 21
419.8196716308594
 31
0.0
  0
LINE
  5
1D2
  8
SMALL_FEATURE
 10
349.2923278808594
 20
419.8196716308594
 30
0.0
 11
349.33465576171875
 21
409.9136657714844
 31
0.0
  0
LINE
  5
1D3
  8
SMALL_FEATURE
 10
349.33465576171875
 20
409.9136657714844
 30
0.0
 11
339.343994140625
 21
409.871337890625
 31
0.0
  0
LINE
  5
1D4
  8
SMALL_FEATURE
 10
339.343994140625
 20
409.871337890625
 30
0.0
 11
339.3016662597656
 21
419.77734375
 31
0.0
  0
LINE
  5
1D5
  8
SMALL_FEATURE
 10
339.3016662597656
 20
429.76800537109375
 30
0.0
 11
349.2923278808594
 21
429.8103332519531
 31
0.0
  0
LINE
  5
1D6
  8
SMALL_FEATURE
 10
349.2923278808594
 20
429.8103332519531
 30
0.0
 11
349.33465576171875
 21
419.9043273925781
 31
0.0
  0
LINE
  5
1D7
  8
SMALL_FEATURE
 10
349.33465576171875
 20
419.9043273925781
 30
0.0
 11
339.343994140625
 21
419.86199951171875
 31
0.0
  0
LINE
  5
1D8
  8
SMALL_FEATURE
 10
339.343994140625
 20
419.86199951171875
 30
0.0
 11
339.3016662597656
 21
429.76800537109375
 31
0.0
  0
LINE
  5
1D9
  8
SMALL_FEATURE
 10
339.3016662597656
 20
439.7586669921875
 30
0.0
 11
349.2923278808594
 21
439.8009948730469
 31
0.0
  0
LINE
  5
1DA
  8
SMALL_FEATURE
 10
349.2923278808594
 20
439.8009948730469
 30
0.0
 11
349.33465576171875
 21
429.8949890136719
 31
0.0
  0
LINE
  5
1DB
  8
SMALL_FEATURE
 10
349.33465576171875
 20
429.8949890136719
 30
0.0
 11
339.343994140625
 21
429.8526611328125
 31
0.0
  0
LINE
  5
1DC
  8
SMALL_FEATURE
 10
339.343994140625
 20
429.8526611328125
 30
0.0
 11
339.3016662597656
 21
439.7586669921875
 31
0.0
  0
LINE
  5
1DD
  8
SMALL_FEATURE
 10
339.3016662597656
 20
449.74932861328125
 30
0.0
 11
349.2923278808594
 21
449.7916564941406
 31
0.0
  0
LINE
  5
1DE
  8
SMALL_FEATURE
 10
349.2923278808594
 20
449.7916564941406
 30
0.0
 11
349.33465576171875
 21
439.88568115234375
 31
0.0
  0
LINE
  5
1DF
  8
SMALL_FEATURE
 10
349.33465576171875
 20
439.88568115234375
 30
0.0
 11
339.343994140625
 21
439.84332275390625
 31
0.0
  0
LINE
  5
1E0
  8
SMALL_FEATURE
 10
339.343994140625
 20
439.84332275390625
 30
0.0
 11
339.3016662597656
 21
449.74932861328125
 31
0.0
  0
LINE
  5
1E1
  8
SMALL_FEATURE
 10
339.3016662597656
 20
459.739990234375
 30
0.0
 11
349.2923278808594
 21
459.7823181152344
 31
0.0
  0
LINE
  5
1E2
  8
SMALL_FEATURE
 10
349.2923278808594
 20
459.7823181152344
 30
0.0
 11
349.33465576171875
 21
449.8763427734375
 31
0.0
  0
LINE
  5
1E3
  8
SMALL_FEATURE
 10
349.33465576171875
 20
449.8763427734375
 30
0.0
 11
339.343994140625
 21
449.8340148925781
 31
0.0
  0
LINE
  5
1E4
  8
SMALL_FEATURE
 10
339.343994140625
 20
449.8340148925781
 30
0.0
 11
339.3016662597656
 21
459.739990234375
 31
0.0
  0
LINE
  5
1E5
  8
SMALL_FEATURE
 10
339.3016662597656
 20
469.73065185546875
 30
0.0
 11
349.2923278808594
 21
469.77301025390625
 31
0.0
  0
LINE
  5
1E6
  8
SMALL_FEATURE
 10
349.2923278808594
 20
469.77301025390625
 30
0.0
 11
349.33465576171875
 21
459.86700439453125
 31
0.0
  0
LINE
  5
1E7
  8
SMALL_FEATURE
 10
349.33465576171875
 20
459.86700439453125
 30
0.0
 11
339.343994140625
 21
459.8246765136719
 31
0.0
  0
LINE
  5
1E8
  8
SMALL_FEATURE
 10
339.343994140625
 20
459.8246765136719
 30
0.0
 11
339.3016662597656
 21
469.73065185546875
 31
0.0
  0
LINE
  5
1E9
  8
SMALL_FEATURE
 10
339.3016662597656
 20
479.7213439941406
 30
0.0
 11
349.2923278808594
 21
479.763671875
 31
0.0
  0
LINE
  5
1EA
  8
SMALL_FEATURE
 10
349.2923278808594
 20
479.763671875
 30
0.0
 11
349.33465576171875
 21
469.857666015625
 31
0.0
  0
LINE
  5
1EB
  8
SMALL_FEATURE
 10
349.33465576171875
 20
469.857666015625
 30
0.0
 11
339.343994140625
 21
469.8153381347656
 31
0.0
  0
LINE
  5
1EC
  8
SMALL_FEATURE
 10
339.343994140625
 20
469.8153381347656
 30
0.0
 11
339.3016662597656
 21
479.7213439941406
 31
0.0
  0
LINE
  5
1ED
  8
SMALL_FEATURE
 10
339.3016662597656
 20
489.7120056152344
 30
0.0
 11
349.2923278808594
 21
489.75433349609375
 31
0.0
  0
LINE
  5
1EE
  8
SMALL_FEATURE
 10
349.2923278808594
 20
489.75433349609375
 30
0.0
 11
349.33465576171875
 21
479.84832763671875
 31
0.0
  0
LINE
  5
1EF
  8
SMALL_FEATURE
 10
349.33465576171875
 20
479.84832763671875
 30
0.0
 11
339.343994140625
 21
479.8059997558594
 31
0.0
  0
LINE
  5
1F0
  8
SMALL_FEATURE
 10
339.343994140625
 20
479.8059997558594
 30
0.0
 11
339.3016662597656
 21
489.7120056152344
 31
0.0
  0
LINE
  5
1F1
  8
SMALL_FEATURE
 10
399.3726806640625
 20
499.8296813964844
 30
0.0
 11
409.2786560058594
 21
499.7873229980469
 31
0.0
  0
LINE
  5
1F2
  8
SMALL_FEATURE
 10
409.2786560058594
 20
499.7873229980469
 30
0.0
 11
409.236328125
 21
489.7966613769531
 31
0.0
  0
LINE
  5
1F3
  8
SMALL_FEATURE
 10
409.236328125
 20
489.7966613769531
 30
0.0
 11
399.330322265625
 21
489.8389892578125
 31
0.0
  0
LINE
  5
1F4
  8
SMALL_FEATURE
 10
399.330322265625
 20
489.8389892578125
 30
0.0
 11
399.3726806640625
 21
499.8296813964844
 31
0.0
  0
LINE
  5
1F5
  8
SMALL_FEATURE
 10
389.3819885253906
 20
499.8296813964844
 30
0.0
 11
399.2879943847656
 21
499.7873229980469
 31
0.0
  0
LINE
  5
1F6
  8
SMALL_FEATURE
 10
399.2879943847656
 20
499.7873229980469
 30
0.0
 11
399.24566650390625
 21
489.7966613769531
 31
0.0
  0
LINE
  5
1F7
  8
SMALL_FEATURE
 10
399.24566650390625
 20
489.7966613769531
 30
0.0
 11
389.33966064453125
 21
489.8389892578125
 31
0.0
  0
LINE
  5
1F8
  8
SMALL_FEATURE
 10
389.33966064453125
 20
489.8389892578125
 30
0.0
 11
389.3819885253906
 21
499.8296813964844
 31
0.0
  0
LINE
  5
1F9
  8
SMALL_FEATURE
 10
379.3913269042969
 20
499.8296813964844
 30
0.0
 11
389.2973327636719
 21
499.7873229980469
 31
0.0
  0
LINE
  5
1FA
  8
SMALL_FEATURE
 10
389.2973327636719
 20
499.7873229980469
 30
0.0
 11
389.2550048828125
 21
489.7966613769531
 31
0.0
  0
LINE
  5
1FB
  8
SMALL_FEATURE
 10
389.2550048828125
 20
489.7966613769531
 30
0.0
 11
379.3489990234375
 21
489.8389892578125
 31
0.0
  0
LINE
  5
1FC
  8
SMALL_FEATURE
 10
379.3489990234375
 20
489.8389892578125
 30
0.0
 11
379.3913269042969
 21
499.8296813964844
 31
0.0
  0
LINE
  5
1FD
  8
SMALL_FEATURE
 10
369.4006652832031
 20
499.8296813964844
 30
0.0
 11
379.3066711425781
 21
499.7873229980469
 31
0.0
  0
LINE
  5
1FE
  8
SMALL_FEATURE
 10
379.3066711425781
 20
499.7873229980469
 30
0.0
 11
379.26434326171875
 21
489.7966613769531
 31
0.0
  0
LINE
  5
1FF
  8
SMALL_FEATURE
 10
379.26434326171875
 20
489.7966613769531
 30
0.0
 11
369.35833740234375
 21
489.8389892578125
 31
0.0
  0
LINE
  5
200
  8
SMALL_FEATURE
 10
369.35833740234375
 20
489.8389892578125
 30
0.0
 11
369.4006652832031
 21
499.8296813964844
 31
0.0
  0
LINE
  5
201
  8
SMALL_FEATURE
 10
359.4100036621094
 20
499.8296813964844
 30
0.0
 11
369.3160095214844
 21
499.7873229980469
 31
0.0
  0
LINE
  5
202
  8
SMALL_FEATURE
 10
369.3160095214844
 20
499.7873229980469
 30
0.0
 11
369.273681640625
 21
489.7966613769531
 31
0.0
  0
LINE
  5
203
  8
SMALL_FEATURE
 10
369.273681640625
 20
489.7966613769531
 30
0.0
 11
359.36767578125
 21
489.8389892578125
 31
0.0
  0
LINE
  5
204
  8
SMALL_FEATURE
 10
359.36767578125
 20
489.8389892578125
 30
0.0
 11
359.4100036621094
 21
499.8296813964844
 31
0.0
  0
LINE
  5
205
  8
SMALL_FEATURE
 10
349.4193420410156
 20
499.8296813964844
 30
0.0
 11
359.3253479003906
 21
499.7873229980469
 31
0.0
  0
LINE
  5
206
  8
SMALL_FEATURE
 10
359.3253479003906
 20
499.7873229980469
 30
0.0
 11
359.2829895019531
 21
489.7966613769531
 31
0.0
  0
LINE
  5
207
  8
SMALL_FEATURE
 10
359.2829895019531
 20
489.7966613769531
 30
0.0
 11
349.37701416015625
 21
489.8389892578125
 31
0.0
  0
LINE
  5
208
  8
SMALL_FEATURE
 10
349.37701416015625
 20
489.8389892578125
 30
0.0
 11
349.4193420410156
 21
499.8296813964844
 31
0.0
  0
LINE
  5
209
  8
CONTROL_CAVITY
 10
573.2356567382812
 20
775.3350219726562
 30
0.0
 11
586.0626831054688
 21
775.3350219726562
 31
0.0
  0
LINE
  5
20A
  8
CONTROL_CAVITY
 10
586.0626831054688
 20
775.3350219726562
 30
0.0
 11
586.316650390625
 21
771.7366943359375
 31
0.0
  0
LINE
  5
20B
  8
CONTROL_CAVITY
 10
586.316650390625
 20
771.7366943359375
 30
0.0
 11
587.4596557617188
 21
766.2756958007812
 31
0.0
  0
LINE
  5
20C
  8
CONTROL_CAVITY
 10
587.4596557617188
 20
766.2756958007812
 30
0.0
 11
588.6026611328125
 21
763.1853637695312
 31
0.0
  0
LINE
  5
20D
  8
CONTROL_CAVITY
 10
588.6026611328125
 20
763.1853637695312
 30
0.0
 11
591.7776489257812
 21
757.6820068359375
 31
0.0
  0
LINE
  5
20E
  8
CONTROL_CAVITY
 10
591.7776489257812
 20
757.6820068359375
 30
0.0
 11
596.010986328125
 21
753.0253295898438
 31
0.0
  0
LINE
  5
20F
  8
CONTROL_CAVITY
 10
596.010986328125
 20
753.0253295898438
 30
0.0
 11
598.7203369140625
 21
750.90869140625
 31
0.0
  0
LINE
  5
210
  8
CONTROL_CAVITY
 10
598.7203369140625
 20
750.90869140625
 30
0.0
 11
603.5886840820312
 21
748.0723266601562
 31
0.0
  0
LINE
  5
211
  8
CONTROL_CAVITY
 10
603.5886840820312
 20
748.0723266601562
 30
0.0
 11
603.5886840820312
 21
742.6536865234375
 31
0.0
  0
LINE
  5
212
  8
CONTROL_CAVITY
 10
603.5886840820312
 20
742.6536865234375
 30
0.0
 11
603.1653442382812
 21
742.5266723632812
 31
0.0
  0
LINE
  5
213
  8
CONTROL_CAVITY
 10
603.1653442382812
 20
742.5266723632812
 30
0.0
 11
603.5886840820312
 21
742.3573608398438
 31
0.0
  0
LINE
  5
214
  8
CONTROL_CAVITY
 10
603.5886840820312
 20
742.3573608398438
 30
0.0
 11
603.5886840820312
 21
738.6320190429688
 31
0.0
  0
LINE
  5
215
  8
CONTROL_CAVITY
 10
603.5886840820312
 20
738.6320190429688
 30
0.0
 11
601.6836547851562
 21
738.5050048828125
 31
0.0
  0
LINE
  5
216
  8
CONTROL_CAVITY
 10
601.6836547851562
 20
738.5050048828125
 30
0.0
 11
603.5886840820312
 21
738.4203491210938
 31
0.0
  0
LINE
  5
217
  8
CONTROL_CAVITY
 10
603.5886840820312
 20
738.4203491210938
 30
0.0
 11
603.5886840820312
 21
734.6103515625
 31
0.0
  0
LINE
  5
218
  8
CONTROL_CAVITY
 10
603.5886840820312
 20
734.6103515625
 30
0.0
 11
602.82666015625
 21
734.4409790039062
 31
0.0
  0
LINE
  5
219
  8
CONTROL_CAVITY
 10
602.82666015625
 20
734.4409790039062
 30
0.0
 11
603.5886840820312
 21
734.3140258789062
 31
0.0
  0
LINE
  5
21A
  8
CONTROL_CAVITY
 10
603.5886840820312
 20
734.3140258789062
 30
0.0
 11
603.6309814453125
 21
729.1069946289062
 31
0.0
  0
LINE
  5
21B
  8
CONTROL_CAVITY
 10
603.6309814453125
 20
729.1069946289062
 30
0.0
 11
603.6309814453125
 21
734.3140258789062
 31
0.0
  0
LINE
  5
21C
  8
CONTROL_CAVITY
 10
603.6309814453125
 20
734.3140258789062
 30
0.0
 11
606.5943603515625
 21
734.4409790039062
 31
0.0
  0
LINE
  5
21D
  8
CONTROL_CAVITY
 10
606.5943603515625
 20
734.4409790039062
 30
0.0
 11
603.6309814453125
 21
734.6103515625
 31
0.0
  0
LINE
  5
21E
  8
CONTROL_CAVITY
 10
603.6309814453125
 20
734.6103515625
 30
0.0
 11
603.6309814453125
 21
742.3573608398438
 31
0.0
  0
LINE
  5
21F
  8
CONTROL_CAVITY
 10
603.6309814453125
 20
742.3573608398438
 30
0.0
 11
606.9329833984375
 21
742.4843139648438
 31
0.0
  0
LINE
  5
220
  8
CONTROL_CAVITY
 10
606.9329833984375
 20
742.4843139648438
 30
0.0
 11
603.6309814453125
 21
742.6536865234375
 31
0.0
  0
LINE
  5
221
  8
CONTROL_CAVITY
 10
603.6309814453125
 20
742.6536865234375
 30
0.0
 11
603.6309814453125
 21
747.8606567382812
 31
0.0
  0
LINE
  5
222
  8
CONTROL_CAVITY
 10
603.6309814453125
 20
747.8606567382812
 30
0.0
 11
609.7269897460938
 21
745.9979858398438
 31
0.0
  0
LINE
  5
223
  8
CONTROL_CAVITY
 10
609.7269897460938
 20
745.9979858398438
 30
0.0
 11
612.9443359375
 21
745.4476928710938
 31
0.0
  0
LINE
  5
224
  8
CONTROL_CAVITY
 10
612.9443359375
 20
745.4476928710938
 30
0.0
 11
616.5850219726562
 21
745.2783203125
 31
0.0
  0
LINE
  5
225
  8
CONTROL_CAVITY
 10
616.5850219726562
 20
745.2783203125
 30
0.0
 11
622.3423461914062
 21
745.913330078125
 31
0.0
  0
LINE
  5
226
  8
CONTROL_CAVITY
 10
622.3423461914062
 20
745.913330078125
 30
0.0
 11
628.39599609375
 21
747.8606567382812
 31
0.0
  0
LINE
  5
227
  8
CONTROL_CAVITY
 10
628.39599609375
 20
747.8606567382812
 30
0.0
 11
631.697998046875
 21
749.5963134765625
 31
0.0
  0
LINE
  5
228
  8
CONTROL_CAVITY
 10
631.697998046875
 20
749.5963134765625
 30
0.0
 11
636.4393310546875
 21
753.0253295898438
 31
0.0
  0
LINE
  5
229
  8
CONTROL_CAVITY
 10
636.4393310546875
 20
753.0253295898438
 30
0.0
 11
640.5880126953125
 21
757.5973510742188
 31
0.0
  0
LINE
  5
22A
  8
CONTROL_CAVITY
 10
640.5880126953125
 20
757.5973510742188
 30
0.0
 11
643.7630004882812
 21
755.5230102539062
 31
0.0
  0
LINE
  5
22B
  8
CONTROL_CAVITY
 10
643.7630004882812
 20
755.5230102539062
 30
0.0
 11
641.2230224609375
 21
757.427978515625
 31
0.0
  0
LINE
  5
22C
  8
CONTROL_CAVITY
 10
641.2230224609375
 20
757.427978515625
 30
0.0
 11
641.2653198242188
 21
757.851318359375
 31
0.0
  0
LINE
  5
22D
  8
CONTROL_CAVITY
 10
641.2653198242188
 20
757.851318359375
 30
0.0
 11
641.9426879882812
 21
757.9359741210938
 31
0.0
  0
LINE
  5
22E
  8
CONTROL_CAVITY
 10
641.9426879882812
 20
757.9359741210938
 30
0.0
 11
641.8579711914062
 21
758.2323608398438
 31
0.0
  0
LINE
  5
22F
  8
CONTROL_CAVITY
 10
641.8579711914062
 20
758.2323608398438
 30
0.0
 11
641.2653198242188
 21
758.1900024414062
 31
0.0
  0
LINE
  5
230
  8
CONTROL_CAVITY
 10
641.2653198242188
 20
758.1900024414062
 30
0.0
 11
641.2230224609375
 21
758.5709838867188
 31
0.0
  0
LINE
  5
231
  8
CONTROL_CAVITY
 10
641.2230224609375
 20
758.5709838867188
 30
0.0
 11
643.84765625
 21
763.1853637695312
 31
0.0
  0
LINE
  5
232
  8
CONTROL_CAVITY
 10
643.84765625
 20
763.1853637695312
 30
0.0
 11
644.9906616210938
 21
766.2756958007812
 31
0.0
  0
LINE
  5
233
  8
CONTROL_CAVITY
 10
644.9906616210938
 20
766.2756958007812
 30
0.0
 11
646.2183227539062
 21
771.7366943359375
 31
0.0
  0
LINE
  5
234
  8
CONTROL_CAVITY
 10
646.2183227539062
 20
771.7366943359375
 30
0.0
 11
646.4299926757812
 21
775.3773193359375
 31
0.0
  0
LINE
  5
235
  8
CONTROL_CAVITY
 10
646.4299926757812
 20
775.3773193359375
 30
0.0
 11
688.0013427734375
 21
775.3773193359375
 31
0.0
  0
LINE
  5
236
  8
CONTROL_CAVITY
 10
688.0013427734375
 20
775.3773193359375
 30
0.0
 11
688.8480224609375
 21
772.6256713867188
 31
0.0
  0
LINE
  5
237
  8
CONTROL_CAVITY
 10
688.8480224609375
 20
772.6256713867188
 30
0.0
 11
688.3400268554688
 21
775.3350219726562
 31
0.0
  0
LINE
  5
238
  8
CONTROL_CAVITY
 10
688.3400268554688
 20
775.3350219726562
 30
0.0
 11
689.9910278320312
 21
775.3773193359375
 31
0.0
  0
LINE
  5
239
  8
CONTROL_CAVITY
 10
689.9910278320312
 20
775.3773193359375
 30
0.0
 11
696.0869750976562
 21
755.2266845703125
 31
0.0
  0
LINE
  5
23A
  8
CONTROL_CAVITY
 10
696.0869750976562
 20
755.2266845703125
 30
0.0
 11
697.5686645507812
 21
748.4956665039062
 31
0.0
  0
LINE
  5
23B
  8
CONTROL_CAVITY
 10
697.5686645507812
 20
748.4956665039062
 30
0.0
 11
698.5
 21
741.8916625976562
 31
0.0
  0
LINE
  5
23C
  8
CONTROL_CAVITY
 10
698.5
 20
741.8916625976562
 30
0.0
 11
698.711669921875
 21
738.5896606445312
 31
0.0
  0
LINE
  5
23D
  8
CONTROL_CAVITY
 10
698.711669921875
 20
738.5896606445312
 30
0.0
 11
697.018310546875
 21
738.67431640625
 31
0.0
  0
LINE
  5
23E
  8
CONTROL_CAVITY
 10
697.018310546875
 20
738.67431640625
 30
0.0
 11
696.7219848632812
 21
741.5106811523438
 31
0.0
  0
LINE
  5
23F
  8
CONTROL_CAVITY
 10
696.7219848632812
 20
741.5106811523438
 30
0.0
 11
696.7643432617188
 21
738.5896606445312
 31
0.0
  0
LINE
  5
240
  8
CONTROL_CAVITY
 10
696.7643432617188
 20
738.5896606445312
 30
0.0
 11
690.5836791992188
 21
738.54736328125
 31
0.0
  0
LINE
  5
241
  8
CONTROL_CAVITY
 10
690.5836791992188
 20
738.54736328125
 30
0.0
 11
696.806640625
 21
738.462646484375
 31
0.0
  0
LINE
  5
242
  8
CONTROL_CAVITY
 10
696.806640625
 20
738.462646484375
 30
0.0
 11
696.9760131835938
 21
737.6583251953125
 31
0.0
  0
LINE
  5
243
  8
CONTROL_CAVITY
 10
696.9760131835938
 20
737.6583251953125
 30
0.0
 11
697.10302734375
 21
738.462646484375
 31
0.0
  0
LINE
  5
244
  8
CONTROL_CAVITY
 10
697.10302734375
 20
738.462646484375
 30
0.0
 11
698.7963256835938
 21
738.4203491210938
 31
0.0
  0
LINE
  5
245
  8
CONTROL_CAVITY
 10
698.7963256835938
 20
738.4203491210938
 30
0.0
 11
699.135009765625
 21
734.1446533203125
 31
0.0
  0
LINE
  5
246
  8
CONTROL_CAVITY
 10
699.135009765625
 20
734.1446533203125
 30
0.0
 11
699.0926513671875
 21
728.00634765625
 31
0.0
  0
LINE
  5
247
  8
CONTROL_CAVITY
 10
699.0926513671875
 20
728.00634765625
 30
0.0
 11
698.2459716796875
 21
721.4446411132812
 31
0.0
  0
LINE
  5
248
  8
CONTROL_CAVITY
 10
698.2459716796875
 20
721.4446411132812
 30
0.0
 11
696.9760131835938
 21
716.4493408203125
 31
0.0
  0
LINE
  5
249
  8
CONTROL_CAVITY
 10
696.9760131835938
 20
716.4493408203125
 30
0.0
 11
695.3250122070312
 21
716.4916381835938
 31
0.0
  0
LINE
  5
24A
  8
CONTROL_CAVITY
 10
695.3250122070312
 20
716.4916381835938
 30
0.0
 11
695.7906494140625
 21
719.15869140625
 31
0.0
  0
LINE
  5
24B
  8
CONTROL_CAVITY
 10
695.7906494140625
 20
719.15869140625
 30
0.0
 11
694.986328125
 21
716.4493408203125
 31
0.0
  0
LINE
  5
24C
  8
CONTROL_CAVITY
 10
694.986328125
 20
716.4493408203125
 30
0.0
 11
689.1019897460938
 21
716.4493408203125
 31
0.0
  0
LINE
  5
24D
  8
CONTROL_CAVITY
 10
689.1019897460938
 20
716.4493408203125
 30
0.0
 11
689.440673828125
 21
718.4813232421875
 31
0.0
  0
LINE
  5
24E
  8
CONTROL_CAVITY
 10
689.440673828125
 20
718.4813232421875
 30
0.0
 11
688.8903198242188
 21
716.4493408203125
 31
0.0
  0
LINE
  5
24F
  8
CONTROL_CAVITY
 10
688.8903198242188
 20
716.4493408203125
 30
0.0
 11
628.6500244140625
 21
716.406982421875
 31
0.0
  0
LINE
  5
250
  8
CONTROL_CAVITY
 10
628.6500244140625
 20
716.406982421875
 30
0.0
 11
688.7633056640625
 21
716.406982421875
 31
0.0
  0
LINE
  5
251
  8
CONTROL_CAVITY
 10
688.7633056640625
 20
716.406982421875
 30
0.0
 11
688.5093383789062
 21
714.9676513671875
 31
0.0
  0
LINE
  5
252
  8
CONTROL_CAVITY
 10
688.5093383789062
 20
714.9676513671875
 30
0.0
 11
688.9749755859375
 21
716.406982421875
 31
0.0
  0
LINE
  5
253
  8
CONTROL_CAVITY
 10
688.9749755859375
 20
716.406982421875
 30
0.0
 11
694.8593139648438
 21
716.406982421875
 31
0.0
  0
LINE
  5
254
  8
CONTROL_CAVITY
 10
694.8593139648438
 20
716.406982421875
 30
0.0
 11
694.8593139648438
 21
715.4756469726562
 31
0.0
  0
LINE
  5
255
  8
CONTROL_CAVITY
 10
694.8593139648438
 20
715.4756469726562
 30
0.0
 11
695.2403564453125
 21
716.406982421875
 31
0.0
  0
LINE
  5
256
  8
CONTROL_CAVITY
 10
695.2403564453125
 20
716.406982421875
 30
0.0
 11
696.8489990234375
 21
716.406982421875
 31
0.0
  0
LINE
  5
257
  8
CONTROL_CAVITY
 10
696.8489990234375
 20
716.406982421875
 30
0.0
 11
695.7483520507812
 21
711.8773193359375
 31
0.0
  0
LINE
  5
258
  8
CONTROL_CAVITY
 10
695.7483520507812
 20
711.8773193359375
 30
0.0
 11
694.56298828125
 21
708.6599731445312
 31
0.0
  0
LINE
  5
259
  8
CONTROL_CAVITY
 10
694.56298828125
 20
708.6599731445312
 30
0.0
 11
691.5150146484375
 21
702.648681640625
 31
0.0
  0
LINE
  5
25A
  8
CONTROL_CAVITY
 10
691.5150146484375
 20
702.648681640625
 30
0.0
 11
687.4933471679688
 21
697.10302734375
 31
0.0
  0
LINE
  5
25B
  8
CONTROL_CAVITY
 10
687.4933471679688
 20
697.10302734375
 30
0.0
 11
683.9796752929688
 21
693.377685546875
 31
0.0
  0
LINE
  5
25C
  8
CONTROL_CAVITY
 10
683.9796752929688
 20
693.377685546875
 30
0.0
 11
680.38134765625
 21
689.9910278320312
 31
0.0
  0
LINE
  5
25D
  8
CONTROL_CAVITY
 10
680.38134765625
 20
689.9910278320312
 30
0.0
 11
675.17431640625
 21
685.927001953125
 31
0.0
  0
LINE
  5
25E
  8
CONTROL_CAVITY
 10
675.17431640625
 20
685.927001953125
 30
0.0
 11
669.3746948242188
 21
682.413330078125
 31
0.0
  0
LINE
  5
25F
  8
CONTROL_CAVITY
 10
669.3746948242188
 20
682.413330078125
 30
0.0
 11
666.2420043945312
 21
680.931640625
 31
0.0
  0
LINE
  5
260
  8
CONTROL_CAVITY
 10
666.2420043945312
 20
680.931640625
 30
0.0
 11
656.6746826171875
 21
677.5449829101562
 31
0.0
  0
LINE
  5
261
  8
CONTROL_CAVITY
 10
656.6746826171875
 20
677.5449829101562
 30
0.0
 11
651.6793212890625
 21
676.5289916992188
 31
0.0
  0
LINE
  5
262
  8
CONTROL_CAVITY
 10
651.6793212890625
 20
676.5289916992188
 30
0.0
 11
645.0753173828125
 21
675.9786376953125
 31
0.0
  0
LINE
  5
263
  8
CONTROL_CAVITY
 10
645.0753173828125
 20
675.9786376953125
 30
0.0
 11
645.0753173828125
 21
677.6719970703125
 31
0.0
  0
LINE
  5
264
  8
CONTROL_CAVITY
 10
645.0753173828125
 20
677.6719970703125
 30
0.0
 11
648.0809936523438
 21
678.0106811523438
 31
0.0
  0
LINE
  5
265
  8
CONTROL_CAVITY
 10
648.0809936523438
 20
678.0106811523438
 30
0.0
 11
645.0330200195312
 21
677.926025390625
 31
0.0
  0
LINE
  5
266
  8
CONTROL_CAVITY
 10
645.0330200195312
 20
677.926025390625
 30
0.0
 11
645.0330200195312
 21
683.7680053710938
 31
0.0
  0
LINE
  5
267
  8
CONTROL_CAVITY
 10
645.0330200195312
 20
683.7680053710938
 30
0.0
 11
646.8956909179688
 21
683.9373168945312
 31
0.0
  0
LINE
  5
268
  8
CONTROL_CAVITY
 10
646.8956909179688
 20
683.9373168945312
 30
0.0
 11
645.0330200195312
 21
683.89501953125
 31
0.0
  0
LINE
  5
269
  8
CONTROL_CAVITY
 10
645.0330200195312
 20
683.89501953125
 30
0.0
 11
644.9906616210938
 21
686.9006958007812
 31
0.0
  0
LINE
  5
26A
  8
CONTROL_CAVITY
 10
644.9906616210938
 20
686.9006958007812
 30
0.0
 11
644.9906616210938
 21
683.89501953125
 31
0.0
  0
LINE
  5
26B
  8
CONTROL_CAVITY
 10
644.9906616210938
 20
683.89501953125
 30
0.0
 11
643.29736328125
 21
683.7680053710938
 31
0.0
  0
LINE
  5
26C
  8
CONTROL_CAVITY
 10
643.29736328125
 20
683.7680053710938
 30
0.0
 11
644.9906616210938
 21
683.7680053710938
 31
0.0
  0
LINE
  5
26D
  8
CONTROL_CAVITY
 10
644.9906616210938
 20
683.7680053710938
 30
0.0
 11
644.9906616210938
 21
677.8836669921875
 31
0.0
  0
LINE
  5
26E
  8
CONTROL_CAVITY
 10
644.9906616210938
 20
677.8836669921875
 30
0.0
 11
644.2286376953125
 21
677.7566528320312
 31
0.0
  0
LINE
  5
26F
  8
CONTROL_CAVITY
 10
644.2286376953125
 20
677.7566528320312
 30
0.0
 11
644.9906616210938
 21
677.5873413085938
 31
0.0
  0
LINE
  5
270
  8
CONTROL_CAVITY
 10
644.9906616210938
 20
677.5873413085938
 30
0.0
 11
644.9483032226562
 21
676.1480102539062
 31
0.0
  0
LINE
  5
271
  8
CONTROL_CAVITY
 10
644.9483032226562
 20
676.1480102539062
 30
0.0
 11
644.1863403320312
 21
676.6136474609375
 31
0.0
  0
LINE
  5
272
  8
CONTROL_CAVITY
 10
644.1863403320312
 20
676.6136474609375
 30
0.0
 11
643.9746704101562
 21
675.9363403320312
 31
0.0
  0
LINE
  5
273
  8
CONTROL_CAVITY
 10
643.9746704101562
 20
675.9363403320312
 30
0.0
 11
631.3593139648438
 21
675.7246704101562
 31
0.0
  0
LINE
  5
274
  8
CONTROL_CAVITY
 10
631.3593139648438
 20
675.7246704101562
 30
0.0
 11
631.3593139648438
 21
677.3756713867188
 31
0.0
  0
LINE
  5
275
  8
CONTROL_CAVITY
 10
631.3593139648438
 20
677.3756713867188
 30
0.0
 11
633.3489990234375
 21
677.502685546875
 31
0.0
  0
LINE
  5
276
  8
CONTROL_CAVITY
 10
633.3489990234375
 20
677.502685546875
 30
0.0
 11
631.1476440429688
 21
677.5873413085938
 31
0.0
  0
LINE
  5
277
  8
CONTROL_CAVITY
 10
631.1476440429688
 20
677.5873413085938
 30
0.0
 11
631.06298828125
 21
675.7246704101562
 31
0.0
  0
LINE
  5
278
  8
CONTROL_CAVITY
 10
631.06298828125
 20
675.7246704101562
 30
0.0
 11
616.3309936523438
 21
675.7246704101562
 31
0.0
  0
LINE
  5
279
  8
CONTROL_CAVITY
 10
616.3309936523438
 20
675.7246704101562
 30
0.0
 11
616.246337890625
 21
676.02099609375
 31
0.0
  0
LINE
  5
27A
  8
CONTROL_CAVITY
 10
616.246337890625
 20
676.02099609375
 30
0.0
 11
616.1193237304688
 21
675.7246704101562
 31
0.0
  0
LINE
  5
27B
  8
CONTROL_CAVITY
 10
616.1193237304688
 20
675.7246704101562
 30
0.0
 11
603.67333984375
 21
675.7246704101562
 31
0.0
  0
LINE
  5
27C
  8
CONTROL_CAVITY
 10
603.67333984375
 20
675.7246704101562
 30
0.0
 11
603.6309814453125
 21
703.3259887695312
 31
0.0
  0
LINE
  5
27D
  8
CONTROL_CAVITY
 10
603.6309814453125
 20
703.3259887695312
 30
0.0
 11
606.9329833984375
 21
703.495361328125
 31
0.0
  0
LINE
  5
27E
  8
CONTROL_CAVITY
 10
606.9329833984375
 20
703.495361328125
 30
0.0
 11
603.6309814453125
 21
703.622314453125
 31
0.0
  0
LINE
  5
27F
  8
CONTROL_CAVITY
 10
603.6309814453125
 20
703.622314453125
 30
0.0
 11
603.6309814453125
 21
716.3646850585938
 31
0.0
  0
LINE
  5
280
  8
CONTROL_CAVITY
 10
603.6309814453125
 20
716.3646850585938
 30
0.0
 11
621.3263549804688
 21
716.4493408203125
 31
0.0
  0
LINE
  5
281
  8
CONTROL_CAVITY
 10
621.3263549804688
 20
716.4493408203125
 30
0.0
 11
603.67333984375
 21
716.4493408203125
 31
0.0
  0
LINE
  5
282
  8
CONTROL_CAVITY
 10
603.67333984375
 20
716.4493408203125
 30
0.0
 11
603.6309814453125
 21
721.8679809570312
 31
0.0
  0
LINE
  5
283
  8
CONTROL_CAVITY
 10
603.6309814453125
 20
721.8679809570312
 30
0.0
 11
603.5463256835938
 21
716.4493408203125
 31
0.0
  0
LINE
  5
284
  8
CONTROL_CAVITY
 10
603.5463256835938
 20
716.4493408203125
 30
0.0
 11
573.2356567382812
 21
716.4916381835938
 31
0.0
  0
LINE
  5
285
  8
CONTROL_CAVITY
 10
573.2356567382812
 20
716.4916381835938
 30
0.0
 11
573.2356567382812
 21
734.3140258789062
 31
0.0
  0
LINE
  5
286
  8
CONTROL_CAVITY
 10
573.2356567382812
 20
734.3140258789062
 30
0.0
 11
575.0983276367188
 21
734.4409790039062
 31
0.0
  0
LINE
  5
287
  8
CONTROL_CAVITY
 10
575.0983276367188
 20
734.4409790039062
 30
0.0
 11
573.2356567382812
 21
734.6103515625
 31
0.0
  0
LINE
  5
288
  8
CONTROL_CAVITY
 10
573.2356567382812
 20
734.6103515625
 30
0.0
 11
573.2356567382812
 21
738.4203491210938
 31
0.0
  0
LINE
  5
289
  8
CONTROL_CAVITY
 10
573.2356567382812
 20
738.4203491210938
 30
0.0
 11
574.8866577148438
 21
738.5050048828125
 31
0.0
  0
LINE
  5
28A
  8
CONTROL_CAVITY
 10
574.8866577148438
 20
738.5050048828125
 30
0.0
 11
573.2356567382812
 21
738.6320190429688
 31
0.0
  0
LINE
  5
28B
  8
CONTROL_CAVITY
 10
573.2356567382812
 20
738.6320190429688
 30
0.0
 11
573.2356567382812
 21
742.3573608398438
 31
0.0
  0
LINE
  5
28C
  8
CONTROL_CAVITY
 10
573.2356567382812
 20
742.3573608398438
 30
0.0
 11
575.43701171875
 21
742.4843139648438
 31
0.0
  0
LINE
  5
28D
  8
CONTROL_CAVITY
 10
575.43701171875
 20
742.4843139648438
 30
0.0
 11
573.2356567382812
 21
742.6536865234375
 31
0.0
  0
LINE
  5
28E
  8
CONTROL_CAVITY
 10
573.2356567382812
 20
742.6536865234375
 30
0.0
 11
573.2356567382812
 21
775.3350219726562
 31
0.0
  0
LINE
  5
28F
  8
CONTROL_CAVITY
 10
593.0900268554688
 20
179.6626739501953
 30
0.0
 11
593.0900268554688
 21
178.56199645996094
 31
0.0
  0
LINE
  5
290
  8
CONTROL_CAVITY
 10
593.0900268554688
 20
178.56199645996094
 30
0.0
 11
592.0316772460938
 21
177.54600524902344
 31
0.0
  0
LINE
  5
291
  8
CONTROL_CAVITY
 10
592.0316772460938
 20
177.54600524902344
 30
0.0
 11
592.28564453125
 21
177.33433532714844
 31
0.0
  0
LINE
  5
292
  8
CONTROL_CAVITY
 10
592.28564453125
 20
177.33433532714844
 30
0.0
 11
592.708984375
 21
177.75765991210938
 31
0.0
  0
LINE
  5
293
  8
CONTROL_CAVITY
 10
592.708984375
 20
177.75765991210938
 30
0.0
 11
593.0900268554688
 21
177.71533203125
 31
0.0
  0
LINE
  5
294
  8
CONTROL_CAVITY
 10
593.0900268554688
 20
177.71533203125
 30
0.0
 11
593.0900268554688
 21
169.84133911132812
 31
0.0
  0
LINE
  5
295
  8
CONTROL_CAVITY
 10
593.0900268554688
 20
169.84133911132812
 30
0.0
 11
592.0316772460938
 21
168.82533264160156
 31
0.0
  0
LINE
  5
296
  8
CONTROL_CAVITY
 10
592.0316772460938
 20
168.82533264160156
 30
0.0
 11
592.28564453125
 21
168.61366271972656
 31
0.0
  0
LINE
  5
297
  8
CONTROL_CAVITY
 10
592.28564453125
 20
168.61366271972656
 30
0.0
 11
592.708984375
 21
169.03700256347656
 31
0.0
  0
LINE
  5
298
  8
CONTROL_CAVITY
 10
592.708984375
 20
169.03700256347656
 30
0.0
 11
593.0900268554688
 21
168.99465942382812
 31
0.0
  0
LINE
  5
299
  8
CONTROL_CAVITY
 10
593.0900268554688
 20
168.99465942382812
 30
0.0
 11
593.0900268554688
 21
156.9720001220703
 31
0.0
  0
LINE
  5
29A
  8
CONTROL_CAVITY
 10
593.0900268554688
 20
156.9720001220703
 30
0.0
 11
592.0316772460938
 21
155.95599365234375
 31
0.0
  0
LINE
  5
29B
  8
CONTROL_CAVITY
 10
592.0316772460938
 20
155.95599365234375
 30
0.0
 11
592.28564453125
 21
155.7443389892578
 31
0.0
  0
LINE
  5
29C
  8
CONTROL_CAVITY
 10
592.28564453125
 20
155.7443389892578
 30
0.0
 11
592.708984375
 21
156.16766357421875
 31
0.0
  0
LINE
  5
29D
  8
CONTROL_CAVITY
 10
592.708984375
 20
156.16766357421875
 30
0.0
 11
593.0900268554688
 21
156.12533569335938
 31
0.0
  0
LINE
  5
29E
  8
CONTROL_CAVITY
 10
593.0900268554688
 20
156.12533569335938
 30
0.0
 11
593.0900268554688
 21
150.41033935546875
 31
0.0
  0
LINE
  5
29F
  8
CONTROL_CAVITY
 10
593.0900268554688
 20
150.41033935546875
 30
0.0
 11
592.8783569335938
 21
150.19866943359375
 31
0.0
  0
LINE
  5
2A0
  8
CONTROL_CAVITY
 10
592.8783569335938
 20
150.19866943359375
 30
0.0
 11
583.9459838867188
 21
150.19866943359375
 31
0.0
  0
LINE
  5
2A1
  8
CONTROL_CAVITY
 10
583.9459838867188
 20
150.19866943359375
 30
0.0
 11
582.8876953125
 21
151.2570037841797
 31
0.0
  0
LINE
  5
2A2
  8
CONTROL_CAVITY
 10
582.8876953125
 20
151.2570037841797
 30
0.0
 11
582.7183227539062
 21
151.0453338623047
 31
0.0
  0
LINE
  5
2A3
  8
CONTROL_CAVITY
 10
582.7183227539062
 20
151.0453338623047
 30
0.0
 11
583.1840209960938
 21
150.24099731445312
 31
0.0
  0
LINE
  5
2A4
  8
CONTROL_CAVITY
 10
583.1840209960938
 20
150.24099731445312
 30
0.0
 11
582.5066528320312
 21
150.19866943359375
 31
0.0
  0
LINE
  5
2A5
  8
CONTROL_CAVITY
 10
582.5066528320312
 20
150.19866943359375
 30
0.0
 11
583.7766723632812
 21
149.98699951171875
 31
0.0
  0
LINE
  5
2A6
  8
CONTROL_CAVITY
 10
583.7766723632812
 20
149.98699951171875
 30
0.0
 11
583.7766723632812
 21
137.87966918945312
 31
0.0
  0
LINE
  5
2A7
  8
CONTROL_CAVITY
 10
583.7766723632812
 20
137.87966918945312
 30
0.0
 11
583.8189697265625
 21
149.52133178710938
 31
0.0
  0
LINE
  5
2A8
  8
CONTROL_CAVITY
 10
583.8189697265625
 20
149.52133178710938
 30
0.0
 11
584.8350219726562
 21
149.22500610351562
 31
0.0
  0
LINE
  5
2A9
  8
CONTROL_CAVITY
 10
584.8350219726562
 20
149.22500610351562
 30
0.0
 11
584.4116821289062
 21
150.1563262939453
 31
0.0
  0
LINE
  5
2AA
  8
CONTROL_CAVITY
 10
584.4116821289062
 20
150.1563262939453
 30
0.0
 11
592.920654296875
 21
150.11399841308594
 31
0.0
  0
LINE
  5
2AB
  8
CONTROL_CAVITY
 10
592.920654296875
 20
150.11399841308594
 30
0.0
 11
592.920654296875
 21
132.24932861328125
 31
0.0
  0
LINE
  5
2AC
  8
CONTROL_CAVITY
 10
592.920654296875
 20
132.24932861328125
 30
0.0
 11
588.3909912109375
 21
132.1646728515625
 31
0.0
  0
LINE
  5
2AD
  8
CONTROL_CAVITY
 10
588.3909912109375
 20
132.1646728515625
 30
0.0
 11
592.920654296875
 21
132.0376739501953
 31
0.0
  0
LINE
  5
2AE
  8
CONTROL_CAVITY
 10
592.920654296875
 20
132.0376739501953
 30
0.0
 11
592.920654296875
 21
114.2576675415039
 31
0.0
  0
LINE
  5
2AF
  8
CONTROL_CAVITY
 10
592.920654296875
 20
114.2576675415039
 30
0.0
 11
583.8189697265625
 21
114.3846664428711
 31
0.0
  0
LINE
  5
2B0
  8
CONTROL_CAVITY
 10
583.8189697265625
 20
114.3846664428711
 30
0.0
 11
583.7766723632812
 21
126.49199676513672
 31
0.0
  0
LINE
  5
2B1
  8
CONTROL_CAVITY
 10
583.7766723632812
 20
126.49199676513672
 30
0.0
 11
583.7766723632812
 21
114.80799865722656
 31
0.0
  0
LINE
  5
2B2
  8
CONTROL_CAVITY
 10
583.7766723632812
 20
114.80799865722656
 30
0.0
 11
583.3956909179688
 21
114.76566314697266
 31
0.0
  0
LINE
  5
2B3
  8
CONTROL_CAVITY
 10
583.3956909179688
 20
114.76566314697266
 30
0.0
 11
582.8876953125
 21
115.27366638183594
 31
0.0
  0
LINE
  5
2B4
  8
CONTROL_CAVITY
 10
582.8876953125
 20
115.27366638183594
 30
0.0
 11
583.226318359375
 21
114.2576675415039
 31
0.0
  0
LINE
  5
2B5
  8
CONTROL_CAVITY
 10
583.226318359375
 20
114.2576675415039
 30
0.0
 11
582.5066528320312
 21
114.21533203125
 31
0.0
  0
LINE
  5
2B6
  8
CONTROL_CAVITY
 10
582.5066528320312
 20
114.21533203125
 30
0.0
 11
583.649658203125
 21
114.1729965209961
 31
0.0
  0
LINE
  5
2B7
  8
CONTROL_CAVITY
 10
583.649658203125
 20
114.1729965209961
 30
0.0
 11
584.6233520507812
 21
113.15699768066406
 31
0.0
  0
LINE
  5
2B8
  8
CONTROL_CAVITY
 10
584.6233520507812
 20
113.15699768066406
 30
0.0
 11
584.8350219726562
 21
113.36866760253906
 31
0.0
  0
LINE
  5
2B9
  8
CONTROL_CAVITY
 10
584.8350219726562
 20
113.36866760253906
 30
0.0
 11
584.4116821289062
 21
113.79199981689453
 31
0.0
  0
LINE
  5
2BA
  8
CONTROL_CAVITY
 10
584.4116821289062
 20
113.79199981689453
 30
0.0
 11
584.4539794921875
 21
114.1729965209961
 31
0.0
  0
LINE
  5
2BB
  8
CONTROL_CAVITY
 10
584.4539794921875
 20
114.1729965209961
 30
0.0
 11
592.8783569335938
 21
114.1729965209961
 31
0.0
  0
LINE
  5
2BC
  8
CONTROL_CAVITY
 10
592.8783569335938
 20
114.1729965209961
 30
0.0
 11
593.0900268554688
 21
113.96133422851562
 31
0.0
  0
LINE
  5
2BD
  8
CONTROL_CAVITY
 10
593.0900268554688
 20
113.96133422851562
 30
0.0
 11
593.0900268554688
 21
97.02799987792969
 31
0.0
  0
LINE
  5
2BE
  8
CONTROL_CAVITY
 10
593.0900268554688
 20
97.02799987792969
 30
0.0
 11
592.0316772460938
 21
96.01200103759766
 31
0.0
  0
LINE
  5
2BF
  8
CONTROL_CAVITY
 10
592.0316772460938
 20
96.01200103759766
 30
0.0
 11
592.2433471679688
 21
95.80033111572266
 31
0.0
  0
LINE
  5
2C0
  8
CONTROL_CAVITY
 10
592.2433471679688
 20
95.80033111572266
 30
0.0
 11
593.0476684570312
 21
96.22366333007812
 31
0.0
  0
LINE
  5
2C1
  8
CONTROL_CAVITY
 10
593.0476684570312
 20
96.22366333007812
 30
0.0
 11
593.13232421875
 21
95.63099670410156
 31
0.0
  0
LINE
  5
2C2
  8
CONTROL_CAVITY
 10
593.13232421875
 20
95.63099670410156
 30
0.0
 11
593.2593383789062
 21
96.81632995605469
 31
0.0
  0
LINE
  5
2C3
  8
CONTROL_CAVITY
 10
593.2593383789062
 20
96.81632995605469
 30
0.0
 11
609.1343383789062
 21
96.81632995605469
 31
0.0
  0
LINE
  5
2C4
  8
CONTROL_CAVITY
 10
609.1343383789062
 20
96.81632995605469
 30
0.0
 11
593.7249755859375
 21
96.8586654663086
 31
0.0
  0
LINE
  5
2C5
  8
CONTROL_CAVITY
 10
593.7249755859375
 20
96.8586654663086
 30
0.0
 11
594.1060180664062
 21
97.83233642578125
 31
0.0
  0
LINE
  5
2C6
  8
CONTROL_CAVITY
 10
594.1060180664062
 20
97.83233642578125
 30
0.0
 11
593.13232421875
 21
97.45133209228516
 31
0.0
  0
LINE
  5
2C7
  8
CONTROL_CAVITY
 10
593.13232421875
 20
97.45133209228516
 30
0.0
 11
593.1746826171875
 21
114.00366973876953
 31
0.0
  0
LINE
  5
2C8
  8
CONTROL_CAVITY
 10
593.1746826171875
 20
114.00366973876953
 30
0.0
 11
599.1436767578125
 21
113.74966430664062
 31
0.0
  0
LINE
  5
2C9
  8
CONTROL_CAVITY
 10
599.1436767578125
 20
113.74966430664062
 30
0.0
 11
602.7420043945312
 21
112.69132995605469
 31
0.0
  0
LINE
  5
2CA
  8
CONTROL_CAVITY
 10
602.7420043945312
 20
112.69132995605469
 30
0.0
 11
604.943359375
 21
111.37899780273438
 31
0.0
  0
LINE
  5
2CB
  8
CONTROL_CAVITY
 10
604.943359375
 20
111.37899780273438
 30
0.0
 11
606.1710205078125
 21
109.5163345336914
 31
0.0
  0
LINE
  5
2CC
  8
CONTROL_CAVITY
 10
606.1710205078125
 20
109.5163345336914
 30
0.0
 11
612.309326171875
 21
109.26233673095703
 31
0.0
  0
LINE
  5
2CD
  8
CONTROL_CAVITY
 10
612.309326171875
 20
109.26233673095703
 30
0.0
 11
612.9443359375
 21
108.66967010498047
 31
0.0
  0
LINE
  5
2CE
  8
CONTROL_CAVITY
 10
612.9443359375
 20
108.66967010498047
 30
0.0
 11
613.156005859375
 21
109.17766571044922
 31
0.0
  0
LINE
  5
2CF
  8
CONTROL_CAVITY
 10
613.156005859375
 20
109.17766571044922
 30
0.0
 11
633.1373291015625
 21
108.33100128173828
 31
0.0
  0
LINE
  5
2D0
  8
CONTROL_CAVITY
 10
633.1373291015625
 20
108.33100128173828
 30
0.0
 11
633.2219848632812
 21
97.0703353881836
 31
0.0
  0
LINE
  5
2D1
  8
CONTROL_CAVITY
 10
633.2219848632812
 20
97.0703353881836
 30
0.0
 11
633.0103149414062
 21
96.8586654663086
 31
0.0
  0
LINE
  5
2D2
  8
CONTROL_CAVITY
 10
633.0103149414062
 20
96.8586654663086
 30
0.0
 11
617.219970703125
 21
96.81632995605469
 31
0.0
  0
LINE
  5
2D3
  8
CONTROL_CAVITY
 10
617.219970703125
 20
96.81632995605469
 30
0.0
 11
632.544677734375
 21
96.81632995605469
 31
0.0
  0
LINE
  5
2D4
  8
CONTROL_CAVITY
 10
632.544677734375
 20
96.81632995605469
 30
0.0
 11
632.2059936523438
 21
95.88500213623047
 31
0.0
  0
LINE
  5
2D5
  8
CONTROL_CAVITY
 10
632.2059936523438
 20
95.88500213623047
 30
0.0
 11
633.1796875
 21
96.26599884033203
 31
0.0
  0
LINE
  5
2D6
  8
CONTROL_CAVITY
 10
633.1796875
 20
96.26599884033203
 30
0.0
 11
633.2219848632812
 21
95.63099670410156
 31
0.0
  0
LINE
  5
2D7
  8
CONTROL_CAVITY
 10
633.2219848632812
 20
95.63099670410156
 30
0.0
 11
633.391357421875
 21
96.81632995605469
 31
0.0
  0
LINE
  5
2D8
  8
CONTROL_CAVITY
 10
633.391357421875
 20
96.81632995605469
 30
0.0
 11
658.0716552734375
 21
96.81632995605469
 31
0.0
  0
LINE
  5
2D9
  8
CONTROL_CAVITY
 10
658.0716552734375
 20
96.81632995605469
 30
0.0
 11
633.8569946289062
 21
96.8586654663086
 31
0.0
  0
LINE
  5
2DA
  8
CONTROL_CAVITY
 10
633.8569946289062
 20
96.8586654663086
 30
0.0
 11
633.8146362304688
 21
97.23966979980469
 31
0.0
  0
LINE
  5
2DB
  8
CONTROL_CAVITY
 10
633.8146362304688
 20
97.23966979980469
 30
0.0
 11
634.3226928710938
 21
97.79000091552734
 31
0.0
  0
LINE
  5
2DC
  8
CONTROL_CAVITY
 10
634.3226928710938
 20
97.79000091552734
 30
0.0
 11
633.2643432617188
 21
97.53600311279297
 31
0.0
  0
LINE
  5
2DD
  8
CONTROL_CAVITY
 10
633.2643432617188
 20
97.53600311279297
 30
0.0
 11
633.306640625
 21
108.28866577148438
 31
0.0
  0
LINE
  5
2DE
  8
CONTROL_CAVITY
 10
633.306640625
 20
108.28866577148438
 30
0.0
 11
660.4423217773438
 21
107.10333251953125
 31
0.0
  0
LINE
  5
2DF
  8
CONTROL_CAVITY
 10
660.4423217773438
 20
107.10333251953125
 30
0.0
 11
661.3736572265625
 21
106.08733367919922
 31
0.0
  0
LINE
  5
2E0
  8
CONTROL_CAVITY
 10
661.3736572265625
 20
106.08733367919922
 30
0.0
 11
661.2466430664062
 21
107.01866912841797
 31
0.0
  0
LINE
  5
2E1
  8
CONTROL_CAVITY
 10
661.2466430664062
 20
107.01866912841797
 30
0.0
 11
688.1283569335938
 21
105.83333587646484
 31
0.0
  0
LINE
  5
2E2
  8
CONTROL_CAVITY
 10
688.1283569335938
 20
105.83333587646484
 30
0.0
 11
688.0013427734375
 21
96.8586654663086
 31
0.0
  0
LINE
  5
2E3
  8
CONTROL_CAVITY
 10
688.0013427734375
 20
96.8586654663086
 30
0.0
 11
663.3633422851562
 21
96.81632995605469
 31
0.0
  0
LINE
  5
2E4
  8
CONTROL_CAVITY
 10
663.3633422851562
 20
96.81632995605469
 30
0.0
 11
687.53564453125
 21
96.81632995605469
 31
0.0
  0
LINE
  5
2E5
  8
CONTROL_CAVITY
 10
687.53564453125
 20
96.81632995605469
 30
0.0
 11
687.5780029296875
 21
96.43533325195312
 31
0.0
  0
LINE
  5
2E6
  8
CONTROL_CAVITY
 10
687.5780029296875
 20
96.43533325195312
 30
0.0
 11
687.1123046875
 21
95.96966552734375
 31
0.0
  0
LINE
  5
2E7
  8
CONTROL_CAVITY
 10
687.1123046875
 20
95.96966552734375
 30
0.0
 11
687.3663330078125
 21
95.75800323486328
 31
0.0
  0
LINE
  5
2E8
  8
CONTROL_CAVITY
 10
687.3663330078125
 20
95.75800323486328
 30
0.0
 11
688.1283569335938
 21
96.22366333007812
 31
0.0
  0
LINE
  5
2E9
  8
CONTROL_CAVITY
 10
688.1283569335938
 20
96.22366333007812
 30
0.0
 11
688.170654296875
 21
95.63099670410156
 31
0.0
  0
LINE
  5
2EA
  8
CONTROL_CAVITY
 10
688.170654296875
 20
95.63099670410156
 30
0.0
 11
688.38232421875
 21
96.81632995605469
 31
0.0
  0
LINE
  5
2EB
  8
CONTROL_CAVITY
 10
688.38232421875
 20
96.81632995605469
 30
0.0
 11
700.3203125
 21
96.81632995605469
 31
0.0
  0
LINE
  5
2EC
  8
CONTROL_CAVITY
 10
700.3203125
 20
96.81632995605469
 30
0.0
 11
688.8056640625
 21
96.8586654663086
 31
0.0
  0
LINE
  5
2ED
  8
CONTROL_CAVITY
 10
688.8056640625
 20
96.8586654663086
 30
0.0
 11
688.7633056640625
 21
97.23966979980469
 31
0.0
  0
LINE
  5
2EE
  8
CONTROL_CAVITY
 10
688.7633056640625
 20
97.23966979980469
 30
0.0
 11
689.2713623046875
 21
97.79000091552734
 31
0.0
  0
LINE
  5
2EF
  8
CONTROL_CAVITY
 10
689.2713623046875
 20
97.79000091552734
 30
0.0
 11
688.2130126953125
 21
97.45133209228516
 31
0.0
  0
LINE
  5
2F0
  8
CONTROL_CAVITY
 10
688.2130126953125
 20
97.45133209228516
 30
0.0
 11
688.2553100585938
 21
105.83333587646484
 31
0.0
  0
LINE
  5
2F1
  8
CONTROL_CAVITY
 10
688.2553100585938
 20
105.83333587646484
 30
0.0
 11
717.253662109375
 21
104.52100372314453
 31
0.0
  0
LINE
  5
2F2
  8
CONTROL_CAVITY
 10
717.253662109375
 20
104.52100372314453
 30
0.0
 11
721.0636596679688
 21
104.6903305053711
 31
0.0
  0
LINE
  5
2F3
  8
CONTROL_CAVITY
 10
721.0636596679688
 20
104.6903305053711
 30
0.0
 11
720.97900390625
 21
96.9010009765625
 31
0.0
  0
LINE
  5
2F4
  8
CONTROL_CAVITY
 10
720.97900390625
 20
96.9010009765625
 30
0.0
 11
708.9986572265625
 21
96.81632995605469
 31
0.0
  0
LINE
  5
2F5
  8
CONTROL_CAVITY
 10
708.9986572265625
 20
96.81632995605469
 30
0.0
 11
720.4710083007812
 21
96.81632995605469
 31
0.0
  0
LINE
  5
2F6
  8
CONTROL_CAVITY
 10
720.4710083007812
 20
96.81632995605469
 30
0.0
 11
720.5133056640625
 21
96.43533325195312
 31
0.0
  0
LINE
  5
2F7
  8
CONTROL_CAVITY
 10
720.5133056640625
 20
96.43533325195312
 30
0.0
 11
720.0476684570312
 21
95.96966552734375
 31
0.0
  0
LINE
  5
2F8
  8
CONTROL_CAVITY
 10
720.0476684570312
 20
95.96966552734375
 30
0.0
 11
720.2169799804688
 21
95.80033111572266
 31
0.0
  0
LINE
  5
2F9
  8
CONTROL_CAVITY
 10
720.2169799804688
 20
95.80033111572266
 30
0.0
 11
721.0636596679688
 21
96.30833435058594
 31
0.0
  0
LINE
  5
2FA
  8
CONTROL_CAVITY
 10
721.0636596679688
 20
96.30833435058594
 30
0.0
 11
721.1060180664062
 21
95.63099670410156
 31
0.0
  0
LINE
  5
2FB
  8
CONTROL_CAVITY
 10
721.1060180664062
 20
95.63099670410156
 30
0.0
 11
721.1483154296875
 21
96.7316665649414
 31
0.0
  0
LINE
  5
2FC
  8
CONTROL_CAVITY
 10
721.1483154296875
 20
96.7316665649414
 30
0.0
 11
722.164306640625
 21
97.74766540527344
 31
0.0
  0
LINE
  5
2FD
  8
CONTROL_CAVITY
 10
722.164306640625
 20
97.74766540527344
 30
0.0
 11
721.9949951171875
 21
97.91699981689453
 31
0.0
  0
LINE
  5
2FE
  8
CONTROL_CAVITY
 10
721.9949951171875
 20
97.91699981689453
 30
0.0
 11
721.5293579101562
 21
97.45133209228516
 31
0.0
  0
LINE
  5
2FF
  8
CONTROL_CAVITY
 10
721.5293579101562
 20
97.45133209228516
 30
0.0
 11
721.1483154296875
 21
97.49366760253906
 31
0.0
  0
LINE
  5
300
  8
CONTROL_CAVITY
 10
721.1483154296875
 20
97.49366760253906
 30
0.0
 11
721.190673828125
 21
104.6903305053711
 31
0.0
  0
LINE
  5
301
  8
CONTROL_CAVITY
 10
721.190673828125
 20
104.6903305053711
 30
0.0
 11
731.1389770507812
 21
104.6903305053711
 31
0.0
  0
LINE
  5
302
  8
CONTROL_CAVITY
 10
731.1389770507812
 20
104.6903305053711
 30
0.0
 11
732.3243408203125
 21
103.75900268554688
 31
0.0
  0
LINE
  5
303
  8
CONTROL_CAVITY
 10
732.3243408203125
 20
103.75900268554688
 30
0.0
 11
731.858642578125
 21
104.64800262451172
 31
0.0
  0
LINE
  5
304
  8
CONTROL_CAVITY
 10
731.858642578125
 20
104.64800262451172
 30
0.0
 11
732.5783081054688
 21
104.732666015625
 31
0.0
  0
LINE
  5
305
  8
CONTROL_CAVITY
 10
732.5783081054688
 20
104.732666015625
 30
0.0
 11
731.308349609375
 21
104.9020004272461
 31
0.0
  0
LINE
  5
306
  8
CONTROL_CAVITY
 10
731.308349609375
 20
104.9020004272461
 30
0.0
 11
731.308349609375
 21
136.3979949951172
 31
0.0
  0
LINE
  5
307
  8
CONTROL_CAVITY
 10
731.308349609375
 20
136.3979949951172
 30
0.0
 11
731.2659912109375
 21
105.36766815185547
 31
0.0
  0
LINE
  5
308
  8
CONTROL_CAVITY
 10
731.2659912109375
 20
105.36766815185547
 30
0.0
 11
730.4193115234375
 21
105.74866485595703
 31
0.0
  0
LINE
  5
309
  8
CONTROL_CAVITY
 10
730.4193115234375
 20
105.74866485595703
 30
0.0
 11
730.25
 21
105.53700256347656
 31
0.0
  0
LINE
  5
30A
  8
CONTROL_CAVITY
 10
730.25
 20
105.53700256347656
 30
0.0
 11
730.67333984375
 21
105.1136703491211
 31
0.0
  0
LINE
  5
30B
  8
CONTROL_CAVITY
 10
730.67333984375
 20
105.1136703491211
 30
0.0
 11
730.6309814453125
 21
104.732666015625
 31
0.0
  0
LINE
  5
30C
  8
CONTROL_CAVITY
 10
730.6309814453125
 20
104.732666015625
 30
0.0
 11
721.1483154296875
 21
104.7750015258789
 31
0.0
  0
LINE
  5
30D
  8
CONTROL_CAVITY
 10
721.1483154296875
 20
104.7750015258789
 30
0.0
 11
721.2329711914062
 21
132.0376739501953
 31
0.0
  0
LINE
  5
30E
  8
CONTROL_CAVITY
 10
721.2329711914062
 20
132.0376739501953
 30
0.0
 11
725.677978515625
 21
132.12232971191406
 31
0.0
  0
LINE
  5
30F
  8
CONTROL_CAVITY
 10
725.677978515625
 20
132.12232971191406
 30
0.0
 11
721.2329711914062
 21
132.24932861328125
 31
0.0
  0
LINE
  5
310
  8
CONTROL_CAVITY
 10
721.2329711914062
 20
132.24932861328125
 30
0.0
 11
721.1483154296875
 21
159.59666442871094
 31
0.0
  0
LINE
  5
311
  8
CONTROL_CAVITY
 10
721.1483154296875
 20
159.59666442871094
 30
0.0
 11
731.2659912109375
 21
159.55433654785156
 31
0.0
  0
LINE
  5
312
  8
CONTROL_CAVITY
 10
731.2659912109375
 20
159.55433654785156
 30
0.0
 11
731.308349609375
 21
141.68966674804688
 31
0.0
  0
LINE
  5
313
  8
CONTROL_CAVITY
 10
731.308349609375
 20
141.68966674804688
 30
0.0
 11
731.308349609375
 21
159.0886688232422
 31
0.0
  0
LINE
  5
314
  8
CONTROL_CAVITY
 10
731.308349609375
 20
159.0886688232422
 30
0.0
 11
731.6893310546875
 21
159.13099670410156
 31
0.0
  0
LINE
  5
315
  8
CONTROL_CAVITY
 10
731.6893310546875
 20
159.13099670410156
 30
0.0
 11
732.2396850585938
 21
158.6230010986328
 31
0.0
  0
LINE
  5
316
  8
CONTROL_CAVITY
 10
732.2396850585938
 20
158.6230010986328
 30
0.0
 11
731.943359375
 21
159.59666442871094
 31
0.0
  0
LINE
  5
317
  8
CONTROL_CAVITY
 10
731.943359375
 20
159.59666442871094
 30
0.0
 11
732.5783081054688
 21
159.63900756835938
 31
0.0
  0
LINE
  5
318
  8
CONTROL_CAVITY
 10
732.5783081054688
 20
159.63900756835938
 30
0.0
 11
731.52001953125
 21
159.68133544921875
 31
0.0
  0
LINE
  5
319
  8
CONTROL_CAVITY
 10
731.52001953125
 20
159.68133544921875
 30
0.0
 11
730.461669921875
 21
160.7396697998047
 31
0.0
  0
LINE
  5
31A
  8
CONTROL_CAVITY
 10
730.461669921875
 20
160.7396697998047
 30
0.0
 11
730.25
 21
160.57032775878906
 31
0.0
  0
LINE
  5
31B
  8
CONTROL_CAVITY
 10
730.25
 20
160.57032775878906
 30
0.0
 11
730.7579956054688
 21
160.0623321533203
 31
0.0
  0
LINE
  5
31C
  8
CONTROL_CAVITY
 10
730.7579956054688
 20
160.0623321533203
 30
0.0
 11
730.7156372070312
 21
159.68133544921875
 31
0.0
  0
LINE
  5
31D
  8
CONTROL_CAVITY
 10
730.7156372070312
 20
159.68133544921875
 30
0.0
 11
721.1483154296875
 21
159.72366333007812
 31
0.0
  0
LINE
  5
31E
  8
CONTROL_CAVITY
 10
721.1483154296875
 20
159.72366333007812
 30
0.0
 11
721.1483154296875
 21
169.5449981689453
 31
0.0
  0
LINE
  5
31F
  8
CONTROL_CAVITY
 10
721.1483154296875
 20
169.5449981689453
 30
0.0
 11
723.0956420898438
 21
169.62966918945312
 31
0.0
  0
LINE
  5
320
  8
CONTROL_CAVITY
 10
723.0956420898438
 20
169.62966918945312
 30
0.0
 11
721.6563110351562
 21
169.71434020996094
 31
0.0
  0
LINE
  5
321
  8
CONTROL_CAVITY
 10
721.6563110351562
 20
169.71434020996094
 30
0.0
 11
722.164306640625
 21
170.56100463867188
 31
0.0
  0
LINE
  5
322
  8
CONTROL_CAVITY
 10
722.164306640625
 20
170.56100463867188
 30
0.0
 11
721.9949951171875
 21
170.73033142089844
 31
0.0
  0
LINE
  5
323
  8
CONTROL_CAVITY
 10
721.9949951171875
 20
170.73033142089844
 30
0.0
 11
721.5293579101562
 21
170.26466369628906
 31
0.0
  0
LINE
  5
324
  8
CONTROL_CAVITY
 10
721.5293579101562
 20
170.26466369628906
 30
0.0
 11
721.1483154296875
 21
170.3070068359375
 31
0.0
  0
LINE
  5
325
  8
CONTROL_CAVITY
 10
721.1483154296875
 20
170.3070068359375
 30
0.0
 11
721.1483154296875
 21
178.2656707763672
 31
0.0
  0
LINE
  5
326
  8
CONTROL_CAVITY
 10
721.1483154296875
 20
178.2656707763672
 30
0.0
 11
722.164306640625
 21
179.2816619873047
 31
0.0
  0
LINE
  5
327
  8
CONTROL_CAVITY
 10
722.164306640625
 20
179.2816619873047
 30
0.0
 11
721.9949951171875
 21
179.4510040283203
 31
0.0
  0
LINE
  5
328
  8
CONTROL_CAVITY
 10
721.9949951171875
 20
179.4510040283203
 30
0.0
 11
721.190673828125
 21
178.98533630371094
 31
0.0
  0
LINE
  5
329
  8
CONTROL_CAVITY
 10
721.190673828125
 20
178.98533630371094
 30
0.0
 11
721.1060180664062
 21
179.6626739501953
 31
0.0
  0
LINE
  5
32A
  8
CONTROL_CAVITY
 10
721.1060180664062
 20
179.6626739501953
 30
0.0
 11
720.8943481445312
 21
178.39266967773438
 31
0.0
  0
LINE
  5
32B
  8
CONTROL_CAVITY
 10
720.8943481445312
 20
178.39266967773438
 30
0.0
 11
660.7386474609375
 21
178.39266967773438
 31
0.0
  0
LINE
  5
32C
  8
CONTROL_CAVITY
 10
660.7386474609375
 20
178.39266967773438
 30
0.0
 11
720.4710083007812
 21
178.35032653808594
 31
0.0
  0
LINE
  5
32D
  8
CONTROL_CAVITY
 10
720.4710083007812
 20
178.35032653808594
 30
0.0
 11
720.1746826171875
 21
177.33433532714844
 31
0.0
  0
LINE
  5
32E
  8
CONTROL_CAVITY
 10
720.1746826171875
 20
177.33433532714844
 30
0.0
 11
720.7249755859375
 21
177.8423309326172
 31
0.0
  0
LINE
  5
32F
  8
CONTROL_CAVITY
 10
720.7249755859375
 20
177.8423309326172
 30
0.0
 11
721.1060180664062
 21
177.8000030517578
 31
0.0
  0
LINE
  5
330
  8
CONTROL_CAVITY
 10
721.1060180664062
 20
177.8000030517578
 30
0.0
 11
721.1060180664062
 21
169.84133911132812
 31
0.0
  0
LINE
  5
331
  8
CONTROL_CAVITY
 10
721.1060180664062
 20
169.84133911132812
 30
0.0
 11
720.8943481445312
 21
169.6719970703125
 31
0.0
  0
LINE
  5
332
  8
CONTROL_CAVITY
 10
720.8943481445312
 20
169.6719970703125
 30
0.0
 11
718.2696533203125
 21
169.6719970703125
 31
0.0
  0
LINE
  5
333
  8
CONTROL_CAVITY
 10
718.2696533203125
 20
169.6719970703125
 30
0.0
 11
718.2273559570312
 21
170.05299377441406
 31
0.0
  0
LINE
  5
334
  8
CONTROL_CAVITY
 10
718.2273559570312
 20
170.05299377441406
 30
0.0
 11
718.7353515625
 21
170.60333251953125
 31
0.0
  0
LINE
  5
335
  8
CONTROL_CAVITY
 10
718.7353515625
 20
170.60333251953125
 30
0.0
 11
717.7193603515625
 21
170.3070068359375
 31
0.0
  0
LINE
  5
336
  8
CONTROL_CAVITY
 10
717.7193603515625
 20
170.3070068359375
 30
0.0
 11
717.6346435546875
 21
170.94200134277344
 31
0.0
  0
LINE
  5
337
  8
CONTROL_CAVITY
 10
717.6346435546875
 20
170.94200134277344
 30
0.0
 11
717.4229736328125
 21
169.6719970703125
 31
0.0
  0
LINE
  5
338
  8
CONTROL_CAVITY
 10
717.4229736328125
 20
169.6719970703125
 30
0.0
 11
667.4273071289062
 21
169.62966918945312
 31
0.0
  0
LINE
  5
339
  8
CONTROL_CAVITY
 10
667.4273071289062
 20
169.62966918945312
 30
0.0
 11
716.9573364257812
 21
169.62966918945312
 31
0.0
  0
LINE
  5
33A
  8
CONTROL_CAVITY
 10
716.9573364257812
 20
169.62966918945312
 30
0.0
 11
716.9996948242188
 21
169.24867248535156
 31
0.0
  0
LINE
  5
33B
  8
CONTROL_CAVITY
 10
716.9996948242188
 20
169.24867248535156
 30
0.0
 11
716.5763549804688
 21
168.82533264160156
 31
0.0
  0
LINE
  5
33C
  8
CONTROL_CAVITY
 10
716.5763549804688
 20
168.82533264160156
 30
0.0
 11
716.7456665039062
 21
168.5713348388672
 31
0.0
  0
LINE
  5
33D
  8
CONTROL_CAVITY
 10
716.7456665039062
 20
168.5713348388672
 30
0.0
 11
717.253662109375
 21
169.07933044433594
 31
0.0
  0
LINE
  5
33E
  8
CONTROL_CAVITY
 10
717.253662109375
 20
169.07933044433594
 30
0.0
 11
717.6346435546875
 21
169.03700256347656
 31
0.0
  0
LINE
  5
33F
  8
CONTROL_CAVITY
 10
717.6346435546875
 20
169.03700256347656
 30
0.0
 11
717.6346435546875
 21
160.3163299560547
 31
0.0
  0
LINE
  5
340
  8
CONTROL_CAVITY
 10
717.6346435546875
 20
160.3163299560547
 30
0.0
 11
717.677001953125
 21
169.50267028808594
 31
0.0
  0
LINE
  5
341
  8
CONTROL_CAVITY
 10
717.677001953125
 20
169.50267028808594
 30
0.0
 11
720.4710083007812
 21
169.62966918945312
 31
0.0
  0
LINE
  5
342
  8
CONTROL_CAVITY
 10
720.4710083007812
 20
169.62966918945312
 30
0.0
 11
720.1746826171875
 21
168.61366271972656
 31
0.0
  0
LINE
  5
343
  8
CONTROL_CAVITY
 10
720.1746826171875
 20
168.61366271972656
 30
0.0
 11
720.7249755859375
 21
169.12167358398438
 31
0.0
  0
LINE
  5
344
  8
CONTROL_CAVITY
 10
720.7249755859375
 20
169.12167358398438
 30
0.0
 11
721.1060180664062
 21
169.07933044433594
 31
0.0
  0
LINE
  5
345
  8
CONTROL_CAVITY
 10
721.1060180664062
 20
169.07933044433594
 30
0.0
 11
721.0636596679688
 21
159.68133544921875
 31
0.0
  0
LINE
  5
346
  8
CONTROL_CAVITY
 10
721.0636596679688
 20
159.68133544921875
 30
0.0
 11
717.253662109375
 21
159.8506622314453
 31
0.0
  0
LINE
  5
347
  8
CONTROL_CAVITY
 10
717.253662109375
 20
159.8506622314453
 30
0.0
 11
659.2146606445312
 21
157.2259979248047
 31
0.0
  0
LINE
  5
348
  8
CONTROL_CAVITY
 10
659.2146606445312
 20
157.2259979248047
 30
0.0
 11
658.1986694335938
 21
158.11500549316406
 31
0.0
  0
LINE
  5
349
  8
CONTROL_CAVITY
 10
658.1986694335938
 20
158.11500549316406
 30
0.0
 11
658.45263671875
 21
157.1836700439453
 31
0.0
  0
LINE
  5
34A
  8
CONTROL_CAVITY
 10
658.45263671875
 20
157.1836700439453
 30
0.0
 11
611.885986328125
 21
155.1093292236328
 31
0.0
  0
LINE
  5
34B
  8
CONTROL_CAVITY
 10
611.885986328125
 20
155.1093292236328
 30
0.0
 11
611.2086791992188
 21
155.7443389892578
 31
0.0
  0
LINE
  5
34C
  8
CONTROL_CAVITY
 10
611.2086791992188
 20
155.7443389892578
 30
0.0
 11
611.1240234375
 21
155.06700134277344
 31
0.0
  0
LINE
  5
34D
  8
CONTROL_CAVITY
 10
611.1240234375
 20
155.06700134277344
 30
0.0
 11
606.1710205078125
 21
154.85533142089844
 31
0.0
  0
LINE
  5
34E
  8
CONTROL_CAVITY
 10
606.1710205078125
 20
154.85533142089844
 30
0.0
 11
604.943359375
 21
152.99266052246094
 31
0.0
  0
LINE
  5
34F
  8
CONTROL_CAVITY
 10
604.943359375
 20
152.99266052246094
 30
0.0
 11
602.7420043945312
 21
151.68032836914062
 31
0.0
  0
LINE
  5
350
  8
CONTROL_CAVITY
 10
602.7420043945312
 20
151.68032836914062
 30
0.0
 11
599.4400024414062
 21
150.66433715820312
 31
0.0
  0
LINE
  5
351
  8
CONTROL_CAVITY
 10
599.4400024414062
 20
150.66433715820312
 30
0.0
 11
596.22265625
 21
150.41033935546875
 31
0.0
  0
LINE
  5
352
  8
CONTROL_CAVITY
 10
596.22265625
 20
150.41033935546875
 30
0.0
 11
596.1803588867188
 21
156.6756591796875
 31
0.0
  0
LINE
  5
353
  8
CONTROL_CAVITY
 10
596.1803588867188
 20
156.6756591796875
 30
0.0
 11
598.127685546875
 21
156.80267333984375
 31
0.0
  0
LINE
  5
354
  8
CONTROL_CAVITY
 10
598.127685546875
 20
156.80267333984375
 30
0.0
 11
596.7306518554688
 21
156.80267333984375
 31
0.0
  0
LINE
  5
355
  8
CONTROL_CAVITY
 10
596.7306518554688
 20
156.80267333984375
 30
0.0
 11
596.6883544921875
 21
157.1836700439453
 31
0.0
  0
LINE
  5
356
  8
CONTROL_CAVITY
 10
596.6883544921875
 20
157.1836700439453
 30
0.0
 11
597.1963500976562
 21
157.73399353027344
 31
0.0
  0
LINE
  5
357
  8
CONTROL_CAVITY
 10
597.1963500976562
 20
157.73399353027344
 30
0.0
 11
596.22265625
 21
157.4376678466797
 31
0.0
  0
LINE
  5
358
  8
CONTROL_CAVITY
 10
596.22265625
 20
157.4376678466797
 30
0.0
 11
596.1803588867188
 21
158.07266235351562
 31
0.0
  0
LINE
  5
359
  8
CONTROL_CAVITY
 10
596.1803588867188
 20
158.07266235351562
 30
0.0
 11
595.9263305664062
 21
156.80267333984375
 31
0.0
  0
LINE
  5
35A
  8
CONTROL_CAVITY
 10
595.9263305664062
 20
156.80267333984375
 30
0.0
 11
593.7249755859375
 21
156.80267333984375
 31
0.0
  0
LINE
  5
35B
  8
CONTROL_CAVITY
 10
593.7249755859375
 20
156.80267333984375
 30
0.0
 11
594.0636596679688
 21
157.81866455078125
 31
0.0
  0
LINE
  5
35C
  8
CONTROL_CAVITY
 10
594.0636596679688
 20
157.81866455078125
 30
0.0
 11
593.13232421875
 21
157.3953399658203
 31
0.0
  0
LINE
  5
35D
  8
CONTROL_CAVITY
 10
593.13232421875
 20
157.3953399658203
 30
0.0
 11
593.13232421875
 21
169.4603271484375
 31
0.0
  0
LINE
  5
35E
  8
CONTROL_CAVITY
 10
593.13232421875
 20
169.4603271484375
 30
0.0
 11
595.8416748046875
 21
169.62966918945312
 31
0.0
  0
LINE
  5
35F
  8
CONTROL_CAVITY
 10
595.8416748046875
 20
169.62966918945312
 30
0.0
 11
593.7249755859375
 21
169.6719970703125
 31
0.0
  0
LINE
  5
360
  8
CONTROL_CAVITY
 10
593.7249755859375
 20
169.6719970703125
 30
0.0
 11
594.0636596679688
 21
170.68800354003906
 31
0.0
  0
LINE
  5
361
  8
CONTROL_CAVITY
 10
594.0636596679688
 20
170.68800354003906
 30
0.0
 11
593.13232421875
 21
170.26466369628906
 31
0.0
  0
LINE
  5
362
  8
CONTROL_CAVITY
 10
593.13232421875
 20
170.26466369628906
 30
0.0
 11
593.2593383789062
 21
178.35032653808594
 31
0.0
  0
LINE
  5
363
  8
CONTROL_CAVITY
 10
593.2593383789062
 20
178.35032653808594
 30
0.0
 11
653.4996948242188
 21
178.39266967773438
 31
0.0
  0
LINE
  5
364
  8
CONTROL_CAVITY
 10
653.4996948242188
 20
178.39266967773438
 30
0.0
 11
593.7249755859375
 21
178.39266967773438
 31
0.0
  0
LINE
  5
365
  8
CONTROL_CAVITY
 10
593.7249755859375
 20
178.39266967773438
 30
0.0
 11
594.1483154296875
 21
179.32400512695312
 31
0.0
  0
LINE
  5
366
  8
CONTROL_CAVITY
 10
594.1483154296875
 20
179.32400512695312
 30
0.0
 11
593.1746826171875
 21
178.9429931640625
 31
0.0
  0
LINE
  5
367
  8
CONTROL_CAVITY
 10
593.1746826171875
 20
178.9429931640625
 30
0.0
 11
593.0900268554688
 21
179.6626739501953
 31
0.0
  0
LINE
  5
368
  8
CONTROL_CAVITY
 10
717.5499877929688
 20
159.34266662597656
 30
0.0
 11
719.8783569335938
 21
147.32000732421875
 31
0.0
  0
LINE
  5
369
  8
CONTROL_CAVITY
 10
719.8783569335938
 20
147.32000732421875
 30
0.0
 11
720.5556640625
 21
141.0970001220703
 31
0.0
  0
LINE
  5
36A
  8
CONTROL_CAVITY
 10
720.5556640625
 20
141.0970001220703
 30
0.0
 11
720.8519897460938
 21
132.24932861328125
 31
0.0
  0
LINE
  5
36B
  8
CONTROL_CAVITY
 10
720.8519897460938
 20
132.24932861328125
 30
0.0
 11
716.4916381835938
 21
132.12232971191406
 31
0.0
  0
LINE
  5
36C
  8
CONTROL_CAVITY
 10
716.4916381835938
 20
132.12232971191406
 30
0.0
 11
720.8096923828125
 21
132.0800018310547
 31
0.0
  0
LINE
  5
36D
  8
CONTROL_CAVITY
 10
720.8096923828125
 20
132.0800018310547
 30
0.0
 11
720.8519897460938
 21
128.69332885742188
 31
0.0
  0
LINE
  5
36E
  8
CONTROL_CAVITY
 10
720.8519897460938
 20
128.69332885742188
 30
0.0
 11
719.8359985351562
 21
116.71299743652344
 31
0.0
  0
LINE
  5
36F
  8
CONTROL_CAVITY
 10
719.8359985351562
 20
116.71299743652344
 30
0.0
 11
717.46533203125
 21
104.9443359375
 31
0.0
  0
LINE
  5
370
  8
CONTROL_CAVITY
 10
717.46533203125
 20
104.9443359375
 30
0.0
 11
688.2553100585938
 21
106.2143325805664
 31
0.0
  0
LINE
  5
371
  8
CONTROL_CAVITY
 10
688.2553100585938
 20
106.2143325805664
 30
0.0
 11
688.2130126953125
 21
108.11933135986328
 31
0.0
  0
LINE
  5
372
  8
CONTROL_CAVITY
 10
688.2130126953125
 20
108.11933135986328
 30
0.0
 11
688.1283569335938
 21
106.25666809082031
 31
0.0
  0
LINE
  5
373
  8
CONTROL_CAVITY
 10
688.1283569335938
 20
106.25666809082031
 30
0.0
 11
660.6116943359375
 21
107.44200134277344
 31
0.0
  0
LINE
  5
374
  8
CONTROL_CAVITY
 10
660.6116943359375
 20
107.44200134277344
 30
0.0
 11
660.6116943359375
 21
109.72799682617188
 31
0.0
  0
LINE
  5
375
  8
CONTROL_CAVITY
 10
660.6116943359375
 20
109.72799682617188
 30
0.0
 11
660.5269775390625
 21
107.822998046875
 31
0.0
  0
LINE
  5
376
  8
CONTROL_CAVITY
 10
660.5269775390625
 20
107.822998046875
 30
0.0
 11
660.14599609375
 21
107.78067016601562
 31
0.0
  0
LINE
  5
377
  8
CONTROL_CAVITY
 10
660.14599609375
 20
107.78067016601562
 30
0.0
 11
659.6380004882812
 21
108.33100128173828
 31
0.0
  0
LINE
  5
378
  8
CONTROL_CAVITY
 10
659.6380004882812
 20
108.33100128173828
 30
0.0
 11
659.72265625
 21
107.52666473388672
 31
0.0
  0
LINE
  5
379
  8
CONTROL_CAVITY
 10
659.72265625
 20
107.52666473388672
 30
0.0
 11
633.306640625
 21
108.66967010498047
 31
0.0
  0
LINE
  5
37A
  8
CONTROL_CAVITY
 10
633.306640625
 20
108.66967010498047
 30
0.0
 11
633.2643432617188
 21
110.65933227539062
 31
0.0
  0
LINE
  5
37B
  8
CONTROL_CAVITY
 10
633.2643432617188
 20
110.65933227539062
 30
0.0
 11
633.1796875
 21
108.71199798583984
 31
0.0
  0
LINE
  5
37C
  8
CONTROL_CAVITY
 10
633.1796875
 20
108.71199798583984
 30
0.0
 11
612.2670288085938
 21
109.72799682617188
 31
0.0
  0
LINE
  5
37D
  8
CONTROL_CAVITY
 10
612.2670288085938
 20
109.72799682617188
 30
0.0
 11
612.09765625
 21
123.61333465576172
 31
0.0
  0
LINE
  5
37E
  8
CONTROL_CAVITY
 10
612.09765625
 20
123.61333465576172
 30
0.0
 11
612.0553588867188
 21
110.36299896240234
 31
0.0
  0
LINE
  5
37F
  8
CONTROL_CAVITY
 10
612.0553588867188
 20
110.36299896240234
 30
0.0
 11
611.67431640625
 21
110.32066345214844
 31
0.0
  0
LINE
  5
380
  8
CONTROL_CAVITY
 10
611.67431640625
 20
110.32066345214844
 30
0.0
 11
611.2509765625
 21
110.78633117675781
 31
0.0
  0
LINE
  5
381
  8
CONTROL_CAVITY
 10
611.2509765625
 20
110.78633117675781
 30
0.0
 11
611.039306640625
 21
110.61699676513672
 31
0.0
  0
LINE
  5
382
  8
CONTROL_CAVITY
 10
611.039306640625
 20
110.61699676513672
 30
0.0
 11
611.4203491210938
 21
109.72799682617188
 31
0.0
  0
LINE
  5
383
  8
CONTROL_CAVITY
 10
611.4203491210938
 20
109.72799682617188
 30
0.0
 11
606.3826904296875
 21
109.89733123779297
 31
0.0
  0
LINE
  5
384
  8
CONTROL_CAVITY
 10
606.3826904296875
 20
109.89733123779297
 30
0.0
 11
605.1973266601562
 21
111.67533111572266
 31
0.0
  0
LINE
  5
385
  8
CONTROL_CAVITY
 10
605.1973266601562
 20
111.67533111572266
 30
0.0
 11
602.9113159179688
 21
113.02999877929688
 31
0.0
  0
LINE
  5
386
  8
CONTROL_CAVITY
 10
602.9113159179688
 20
113.02999877929688
 30
0.0
 11
599.6939697265625
 21
114.0459976196289
 31
0.0
  0
LINE
  5
387
  8
CONTROL_CAVITY
 10
599.6939697265625
 20
114.0459976196289
 30
0.0
 11
596.1803588867188
 21
114.427001953125
 31
0.0
  0
LINE
  5
388
  8
CONTROL_CAVITY
 10
596.1803588867188
 20
114.427001953125
 30
0.0
 11
596.1803588867188
 21
132.0376739501953
 31
0.0
  0
LINE
  5
389
  8
CONTROL_CAVITY
 10
596.1803588867188
 20
132.0376739501953
 30
0.0
 11
597.5773315429688
 21
132.12232971191406
 31
0.0
  0
LINE
  5
38A
  8
CONTROL_CAVITY
 10
597.5773315429688
 20
132.12232971191406
 30
0.0
 11
596.1803588867188
 21
132.24932861328125
 31
0.0
  0
LINE
  5
38B
  8
CONTROL_CAVITY
 10
596.1803588867188
 20
132.24932861328125
 30
0.0
 11
596.1803588867188
 21
149.94467163085938
 31
0.0
  0
LINE
  5
38C
  8
CONTROL_CAVITY
 10
596.1803588867188
 20
149.94467163085938
 30
0.0
 11
599.6939697265625
 21
150.32566833496094
 31
0.0
  0
LINE
  5
38D
  8
CONTROL_CAVITY
 10
599.6939697265625
 20
150.32566833496094
 30
0.0
 11
602.9113159179688
 21
151.34165954589844
 31
0.0
  0
LINE
  5
38E
  8
CONTROL_CAVITY
 10
602.9113159179688
 20
151.34165954589844
 30
0.0
 11
605.1973266601562
 21
152.6963348388672
 31
0.0
  0
LINE
  5
38F
  8
CONTROL_CAVITY
 10
605.1973266601562
 20
152.6963348388672
 30
0.0
 11
606.3826904296875
 21
154.47433471679688
 31
0.0
  0
LINE
  5
390
  8
CONTROL_CAVITY
 10
606.3826904296875
 20
154.47433471679688
 30
0.0
 11
612.0553588867188
 21
154.51666259765625
 31
0.0
  0
LINE
  5
391
  8
CONTROL_CAVITY
 10
612.0553588867188
 20
154.51666259765625
 30
0.0
 11
612.0553588867188
 21
132.24932861328125
 31
0.0
  0
LINE
  5
392
  8
CONTROL_CAVITY
 10
612.0553588867188
 20
132.24932861328125
 30
0.0
 11
602.191650390625
 21
132.12232971191406
 31
0.0
  0
LINE
  5
393
  8
CONTROL_CAVITY
 10
602.191650390625
 20
132.12232971191406
 30
0.0
 11
612.0130004882812
 21
132.0800018310547
 31
0.0
  0
LINE
  5
394
  8
CONTROL_CAVITY
 10
612.0130004882812
 20
132.0800018310547
 30
0.0
 11
612.09765625
 21
128.90499877929688
 31
0.0
  0
LINE
  5
395
  8
CONTROL_CAVITY
 10
612.09765625
 20
128.90499877929688
 30
0.0
 11
612.09765625
 21
154.0933380126953
 31
0.0
  0
LINE
  5
396
  8
CONTROL_CAVITY
 10
612.09765625
 20
154.0933380126953
 30
0.0
 11
612.4786376953125
 21
154.1356658935547
 31
0.0
  0
LINE
  5
397
  8
CONTROL_CAVITY
 10
612.4786376953125
 20
154.1356658935547
 30
0.0
 11
613.0289916992188
 21
153.62767028808594
 31
0.0
  0
LINE
  5
398
  8
CONTROL_CAVITY
 10
613.0289916992188
 20
153.62767028808594
 30
0.0
 11
612.732666015625
 21
154.64366149902344
 31
0.0
  0
LINE
  5
399
  8
CONTROL_CAVITY
 10
612.732666015625
 20
154.64366149902344
 30
0.0
 11
659.1300048828125
 21
156.84500122070312
 31
0.0
  0
LINE
  5
39A
  8
CONTROL_CAVITY
 10
659.1300048828125
 20
156.84500122070312
 30
0.0
 11
659.3416748046875
 21
154.5590057373047
 31
0.0
  0
LINE
  5
39B
  8
CONTROL_CAVITY
 10
659.3416748046875
 20
154.5590057373047
 30
0.0
 11
659.2570190429688
 21
156.42166137695312
 31
0.0
  0
LINE
  5
39C
  8
CONTROL_CAVITY
 10
659.2570190429688
 20
156.42166137695312
 30
0.0
 11
660.1036376953125
 21
156.08299255371094
 31
0.0
  0
LINE
  5
39D
  8
CONTROL_CAVITY
 10
660.1036376953125
 20
156.08299255371094
 30
0.0
 11
660.0613403320312
 21
156.84500122070312
 31
0.0
  0
LINE
  5
39E
  8
CONTROL_CAVITY
 10
660.0613403320312
 20
156.84500122070312
 30
0.0
 11
717.5499877929688
 21
159.34266662597656
 31
0.0
  0
LINE
  5
39F
  8
BRIDGE_ROUTE
 10
209.04200744628906
 20
154.51666259765625
 30
0.0
 11
209.46533203125
 21
153.7123260498047
 31
0.0
  0
LINE
  5
3A0
  8
BRIDGE_ROUTE
 10
209.46533203125
 20
153.7123260498047
 30
0.0
 11
208.87266540527344
 21
153.62767028808594
 31
0.0
  0
LINE
  5
3A1
  8
BRIDGE_ROUTE
 10
208.87266540527344
 20
153.62767028808594
 30
0.0
 11
210.05799865722656
 21
153.50067138671875
 31
0.0
  0
LINE
  5
3A2
  8
BRIDGE_ROUTE
 10
210.05799865722656
 20
153.50067138671875
 30
0.0
 11
210.05799865722656
 21
143.80633544921875
 31
0.0
  0
LINE
  5
3A3
  8
BRIDGE_ROUTE
 10
210.05799865722656
 20
143.80633544921875
 30
0.0
 11
210.10032653808594
 21
153.03500366210938
 31
0.0
  0
LINE
  5
3A4
  8
BRIDGE_ROUTE
 10
210.10032653808594
 20
153.03500366210938
 30
0.0
 11
211.0316619873047
 21
152.61166381835938
 31
0.0
  0
LINE
  5
3A5
  8
BRIDGE_ROUTE
 10
211.0316619873047
 20
152.61166381835938
 30
0.0
 11
210.6929931640625
 21
153.62767028808594
 31
0.0
  0
LINE
  5
3A6
  8
BRIDGE_ROUTE
 10
210.6929931640625
 20
153.62767028808594
 30
0.0
 11
216.74667358398438
 21
153.5853271484375
 31
0.0
  0
LINE
  5
3A7
  8
BRIDGE_ROUTE
 10
216.74667358398438
 20
153.5853271484375
 30
0.0
 11
216.74667358398438
 21
128.7356719970703
 31
0.0
  0
LINE
  5
3A8
  8
BRIDGE_ROUTE
 10
216.74667358398438
 20
128.7356719970703
 30
0.0
 11
210.10032653808594
 21
128.8626708984375
 31
0.0
  0
LINE
  5
3A9
  8
BRIDGE_ROUTE
 10
210.10032653808594
 20
128.8626708984375
 30
0.0
 11
210.05799865722656
 21
138.51466369628906
 31
0.0
  0
LINE
  5
3AA
  8
BRIDGE_ROUTE
 10
210.05799865722656
 20
138.51466369628906
 30
0.0
 11
210.05799865722656
 21
129.32833862304688
 31
0.0
  0
LINE
  5
3AB
  8
BRIDGE_ROUTE
 10
210.05799865722656
 20
129.32833862304688
 30
0.0
 11
209.677001953125
 21
129.28599548339844
 31
0.0
  0
LINE
  5
3AC
  8
BRIDGE_ROUTE
 10
209.677001953125
 20
129.28599548339844
 30
0.0
 11
209.21133422851562
 21
129.7516632080078
 31
0.0
  0
LINE
  5
3AD
  8
BRIDGE_ROUTE
 10
209.21133422851562
 20
129.7516632080078
 30
0.0
 11
209.04200744628906
 21
129.49766540527344
 31
0.0
  0
LINE
  5
3AE
  8
BRIDGE_ROUTE
 10
209.04200744628906
 20
129.49766540527344
 30
0.0
 11
209.46533203125
 21
128.7356719970703
 31
0.0
  0
LINE
  5
3AF
  8
BRIDGE_ROUTE
 10
209.46533203125
 20
128.7356719970703
 30
0.0
 11
208.87266540527344
 21
128.6510009765625
 31
0.0
  0
LINE
  5
3B0
  8
BRIDGE_ROUTE
 10
208.87266540527344
 20
128.6510009765625
 30
0.0
 11
209.93099975585938
 21
128.6510009765625
 31
0.0
  0
LINE
  5
3B1
  8
BRIDGE_ROUTE
 10
209.93099975585938
 20
128.6510009765625
 30
0.0
 11
210.9893341064453
 21
127.63500213623047
 31
0.0
  0
LINE
  5
3B2
  8
BRIDGE_ROUTE
 10
210.9893341064453
 20
127.63500213623047
 30
0.0
 11
210.6929931640625
 21
128.6510009765625
 31
0.0
  0
LINE
  5
3B3
  8
BRIDGE_ROUTE
 10
210.6929931640625
 20
128.6510009765625
 30
0.0
 11
297.81500244140625
 21
128.48167419433594
 31
0.0
  0
LINE
  5
3B4
  8
BRIDGE_ROUTE
 10
297.81500244140625
 20
128.48167419433594
 30
0.0
 11
297.899658203125
 21
126.61900329589844
 31
0.0
  0
LINE
  5
3B5
  8
BRIDGE_ROUTE
 10
297.899658203125
 20
126.61900329589844
 30
0.0
 11
297.899658203125
 21
128.01600646972656
 31
0.0
  0
LINE
  5
3B6
  8
BRIDGE_ROUTE
 10
297.899658203125
 20
128.01600646972656
 30
0.0
 11
298.9156799316406
 21
127.71966552734375
 31
0.0
  0
LINE
  5
3B7
  8
BRIDGE_ROUTE
 10
298.9156799316406
 20
127.71966552734375
 30
0.0
 11
298.61932373046875
 21
128.48167419433594
 31
0.0
  0
LINE
  5
3B8
  8
BRIDGE_ROUTE
 10
298.61932373046875
 20
128.48167419433594
 30
0.0
 11
320.1669921875
 21
128.60867309570312
 31
0.0
  0
LINE
  5
3B9
  8
BRIDGE_ROUTE
 10
320.1669921875
 20
128.60867309570312
 30
0.0
 11
319.9976806640625
 21
160.1046600341797
 31
0.0
  0
LINE
  5
3BA
  8
BRIDGE_ROUTE
 10
319.9976806640625
 20
160.1046600341797
 30
0.0
 11
321.0559997558594
 21
161.12066650390625
 31
0.0
  0
LINE
  5
3BB
  8
BRIDGE_ROUTE
 10
321.0559997558594
 20
161.12066650390625
 30
0.0
 11
320.802001953125
 21
161.2899932861328
 31
0.0
  0
LINE
  5
3BC
  8
BRIDGE_ROUTE
 10
320.802001953125
 20
161.2899932861328
 30
0.0
 11
320.378662109375
 21
160.86666870117188
 31
0.0
  0
LINE
  5
3BD
  8
BRIDGE_ROUTE
 10
320.378662109375
 20
160.86666870117188
 30
0.0
 11
319.9976806640625
 21
160.90899658203125
 31
0.0
  0
LINE
  5
3BE
  8
BRIDGE_ROUTE
 10
319.9976806640625
 20
160.90899658203125
 30
0.0
 11
319.9976806640625
 21
168.19033813476562
 31
0.0
  0
LINE
  5
3BF
  8
BRIDGE_ROUTE
 10
319.9976806640625
 20
168.19033813476562
 30
0.0
 11
321.013671875
 21
169.20632934570312
 31
0.0
  0
LINE
  5
3C0
  8
BRIDGE_ROUTE
 10
321.013671875
 20
169.20632934570312
 30
0.0
 11
320.8443298339844
 21
169.37567138671875
 31
0.0
  0
LINE
  5
3C1
  8
BRIDGE_ROUTE
 10
320.8443298339844
 20
169.37567138671875
 30
0.0
 11
320.0400085449219
 21
168.95233154296875
 31
0.0
  0
LINE
  5
3C2
  8
BRIDGE_ROUTE
 10
320.0400085449219
 20
168.95233154296875
 30
0.0
 11
319.9976806640625
 21
169.5873260498047
 31
0.0
  0
LINE
  5
3C3
  8
BRIDGE_ROUTE
 10
319.9976806640625
 20
169.5873260498047
 30
0.0
 11
319.74365234375
 21
168.3173370361328
 31
0.0
  0
LINE
  5
3C4
  8
BRIDGE_ROUTE
 10
319.74365234375
 20
168.3173370361328
 30
0.0
 11
272.11865234375
 21
168.3173370361328
 31
0.0
  0
LINE
  5
3C5
  8
BRIDGE_ROUTE
 10
272.11865234375
 20
168.3173370361328
 30
0.0
 11
319.3203430175781
 21
168.27499389648438
 31
0.0
  0
LINE
  5
3C6
  8
BRIDGE_ROUTE
 10
319.3203430175781
 20
168.27499389648438
 30
0.0
 11
319.02398681640625
 21
167.25900268554688
 31
0.0
  0
LINE
  5
3C7
  8
BRIDGE_ROUTE
 10
319.02398681640625
 20
167.25900268554688
 30
0.0
 11
319.5743408203125
 21
167.76699829101562
 31
0.0
  0
LINE
  5
3C8
  8
BRIDGE_ROUTE
 10
319.5743408203125
 20
167.76699829101562
 30
0.0
 11
319.955322265625
 21
167.72467041015625
 31
0.0
  0
LINE
  5
3C9
  8
BRIDGE_ROUTE
 10
319.955322265625
 20
167.72467041015625
 30
0.0
 11
319.7860107421875
 21
160.2740020751953
 31
0.0
  0
LINE
  5
3CA
  8
BRIDGE_ROUTE
 10
319.7860107421875
 20
160.2740020751953
 30
0.0
 11
307.593994140625
 21
160.23167419433594
 31
0.0
  0
LINE
  5
3CB
  8
BRIDGE_ROUTE
 10
307.593994140625
 20
160.23167419433594
 30
0.0
 11
319.3626708984375
 21
160.23167419433594
 31
0.0
  0
LINE
  5
3CC
  8
BRIDGE_ROUTE
 10
319.3626708984375
 20
160.23167419433594
 30
0.0
 11
318.9816589355469
 21
159.25799560546875
 31
0.0
  0
LINE
  5
3CD
  8
BRIDGE_ROUTE
 10
318.9816589355469
 20
159.25799560546875
 30
0.0
 11
319.955322265625
 21
159.63900756835938
 31
0.0
  0
LINE
  5
3CE
  8
BRIDGE_ROUTE
 10
319.955322265625
 20
159.63900756835938
 30
0.0
 11
319.9129943847656
 21
153.83934020996094
 31
0.0
  0
LINE
  5
3CF
  8
BRIDGE_ROUTE
 10
319.9129943847656
 20
153.83934020996094
 30
0.0
 11
297.8573303222656
 21
153.83934020996094
 31
0.0
  0
LINE
  5
3D0
  8
BRIDGE_ROUTE
 10
297.8573303222656
 20
153.83934020996094
 30
0.0
 11
296.96832275390625
 21
154.68600463867188
 31
0.0
  0
LINE
  5
3D1
  8
BRIDGE_ROUTE
 10
296.96832275390625
 20
154.68600463867188
 30
0.0
 11
297.0530090332031
 21
153.83934020996094
 31
0.0
  0
LINE
  5
3D2
  8
BRIDGE_ROUTE
 10
297.0530090332031
 20
153.83934020996094
 30
0.0
 11
289.98333740234375
 21
153.83934020996094
 31
0.0
  0
LINE
  5
3D3
  8
BRIDGE_ROUTE
 10
289.98333740234375
 20
153.83934020996094
 30
0.0
 11
289.9410095214844
 21
160.02000427246094
 31
0.0
  0
LINE
  5
3D4
  8
BRIDGE_ROUTE
 10
289.9410095214844
 20
160.02000427246094
 30
0.0
 11
290.1526794433594
 21
160.23167419433594
 31
0.0
  0
LINE
  5
3D5
  8
BRIDGE_ROUTE
 10
290.1526794433594
 20
160.23167419433594
 30
0.0
 11
302.3023376464844
 21
160.2740020751953
 31
0.0
  0
LINE
  5
3D6
  8
BRIDGE_ROUTE
 10
302.3023376464844
 20
160.2740020751953
 30
0.0
 11
290.61834716796875
 21
160.2740020751953
 31
0.0
  0
LINE
  5
3D7
  8
BRIDGE_ROUTE
 10
290.61834716796875
 20
160.2740020751953
 30
0.0
 11
290.9570007324219
 21
161.20533752441406
 31
0.0
  0
LINE
  5
3D8
  8
BRIDGE_ROUTE
 10
290.9570007324219
 20
161.20533752441406
 30
0.0
 11
289.98333740234375
 21
160.8243408203125
 31
0.0
  0
LINE
  5
3D9
  8
BRIDGE_ROUTE
 10
289.98333740234375
 20
160.8243408203125
 30
0.0
 11
289.9410095214844
 21
161.45933532714844
 31
0.0
  0
LINE
  5
3DA
  8
BRIDGE_ROUTE
 10
289.9410095214844
 20
161.45933532714844
 30
0.0
 11
289.77166748046875
 21
160.2740020751953
 31
0.0
  0
LINE
  5
3DB
  8
BRIDGE_ROUTE
 10
289.77166748046875
 20
160.2740020751953
 30
0.0
 11
271.1026611328125
 21
160.2740020751953
 31
0.0
  0
LINE
  5
3DC
  8
BRIDGE_ROUTE
 10
271.1026611328125
 20
160.2740020751953
 30
0.0
 11
289.3059997558594
 21
160.23167419433594
 31
0.0
  0
LINE
  5
3DD
  8
BRIDGE_ROUTE
 10
289.3059997558594
 20
160.23167419433594
 30
0.0
 11
289.34832763671875
 21
159.8506622314453
 31
0.0
  0
LINE
  5
3DE
  8
BRIDGE_ROUTE
 10
289.34832763671875
 20
159.8506622314453
 30
0.0
 11
288.84033203125
 21
159.34266662597656
 31
0.0
  0
LINE
  5
3DF
  8
BRIDGE_ROUTE
 10
288.84033203125
 20
159.34266662597656
 30
0.0
 11
289.0943298339844
 21
159.17333984375
 31
0.0
  0
LINE
  5
3E0
  8
BRIDGE_ROUTE
 10
289.0943298339844
 20
159.17333984375
 30
0.0
 11
289.5176696777344
 21
159.59666442871094
 31
0.0
  0
LINE
  5
3E1
  8
BRIDGE_ROUTE
 10
289.5176696777344
 20
159.59666442871094
 30
0.0
 11
289.898681640625
 21
159.55433654785156
 31
0.0
  0
LINE
  5
3E2
  8
BRIDGE_ROUTE
 10
289.898681640625
 20
159.55433654785156
 30
0.0
 11
289.8563232421875
 21
153.83934020996094
 31
0.0
  0
LINE
  5
3E3
  8
BRIDGE_ROUTE
 10
289.8563232421875
 20
153.83934020996094
 30
0.0
 11
247.0573272705078
 21
153.83934020996094
 31
0.0
  0
LINE
  5
3E4
  8
BRIDGE_ROUTE
 10
247.0573272705078
 20
153.83934020996094
 30
0.0
 11
247.184326171875
 21
160.23167419433594
 31
0.0
  0
LINE
  5
3E5
  8
BRIDGE_ROUTE
 10
247.184326171875
 20
160.23167419433594
 30
0.0
 11
265.8110046386719
 21
160.2740020751953
 31
0.0
  0
LINE
  5
3E6
  8
BRIDGE_ROUTE
 10
265.8110046386719
 20
160.2740020751953
 30
0.0
 11
247.64999389648438
 21
160.2740020751953
 31
0.0
  0
LINE
  5
3E7
  8
BRIDGE_ROUTE
 10
247.64999389648438
 20
160.2740020751953
 30
0.0
 11
247.607666015625
 21
160.65499877929688
 31
0.0
  0
LINE
  5
3E8
  8
BRIDGE_ROUTE
 10
247.607666015625
 20
160.65499877929688
 30
0.0
 11
248.07333374023438
 21
161.12066650390625
 31
0.0
  0
LINE
  5
3E9
  8
BRIDGE_ROUTE
 10
248.07333374023438
 20
161.12066650390625
 30
0.0
 11
247.8193359375
 21
161.33233642578125
 31
0.0
  0
LINE
  5
3EA
  8
BRIDGE_ROUTE
 10
247.8193359375
 20
161.33233642578125
 30
0.0
 11
247.0573272705078
 21
160.90899658203125
 31
0.0
  0
LINE
  5
3EB
  8
BRIDGE_ROUTE
 10
247.0573272705078
 20
160.90899658203125
 30
0.0
 11
247.01499938964844
 21
161.45933532714844
 31
0.0
  0
LINE
  5
3EC
  8
BRIDGE_ROUTE
 10
247.01499938964844
 20
161.45933532714844
 30
0.0
 11
246.76100158691406
 21
160.2740020751953
 31
0.0
  0
LINE
  5
3ED
  8
BRIDGE_ROUTE
 10
246.76100158691406
 20
160.2740020751953
 30
0.0
 11
234.611328125
 21
160.2740020751953
 31
0.0
  0
LINE
  5
3EE
  8
BRIDGE_ROUTE
 10
234.611328125
 20
160.2740020751953
 30
0.0
 11
246.2953338623047
 21
160.23167419433594
 31
0.0
  0
LINE
  5
3EF
  8
BRIDGE_ROUTE
 10
246.2953338623047
 20
160.23167419433594
 30
0.0
 11
246.33766174316406
 21
159.8506622314453
 31
0.0
  0
LINE
  5
3F0
  8
BRIDGE_ROUTE
 10
246.33766174316406
 20
159.8506622314453
 30
0.0
 11
245.8296661376953
 21
159.3003387451172
 31
0.0
  0
LINE
  5
3F1
  8
BRIDGE_ROUTE
 10
245.8296661376953
 20
159.3003387451172
 30
0.0
 11
246.97267150878906
 21
159.63900756835938
 31
0.0
  0
LINE
  5
3F2
  8
BRIDGE_ROUTE
 10
246.97267150878906
 20
159.63900756835938
 30
0.0
 11
246.93032836914062
 21
153.83934020996094
 31
0.0
  0
LINE
  5
3F3
  8
BRIDGE_ROUTE
 10
246.93032836914062
 20
153.83934020996094
 30
0.0
 11
217.00067138671875
 21
153.83934020996094
 31
0.0
  0
LINE
  5
3F4
  8
BRIDGE_ROUTE
 10
217.00067138671875
 20
153.83934020996094
 30
0.0
 11
217.12767028808594
 21
160.23167419433594
 31
0.0
  0
LINE
  5
3F5
  8
BRIDGE_ROUTE
 10
217.12767028808594
 20
160.23167419433594
 30
0.0
 11
229.31967163085938
 21
160.23167419433594
 31
0.0
  0
LINE
  5
3F6
  8
BRIDGE_ROUTE
 10
229.31967163085938
 20
160.23167419433594
 30
0.0
 11
217.5933380126953
 21
160.2740020751953
 31
0.0
  0
LINE
  5
3F7
  8
BRIDGE_ROUTE
 10
217.5933380126953
 20
160.2740020751953
 30
0.0
 11
217.88966369628906
 21
161.2899932861328
 31
0.0
  0
LINE
  5
3F8
  8
BRIDGE_ROUTE
 10
217.88966369628906
 20
161.2899932861328
 30
0.0
 11
217.33934020996094
 21
160.78199768066406
 31
0.0
  0
LINE
  5
3F9
  8
BRIDGE_ROUTE
 10
217.33934020996094
 20
160.78199768066406
 30
0.0
 11
216.9583282470703
 21
160.8243408203125
 31
0.0
  0
LINE
  5
3FA
  8
BRIDGE_ROUTE
 10
216.9583282470703
 20
160.8243408203125
 30
0.0
 11
217.0853271484375
 21
168.27499389648438
 31
0.0
  0
LINE
  5
3FB
  8
BRIDGE_ROUTE
 10
217.0853271484375
 20
168.27499389648438
 30
0.0
 11
264.7950134277344
 21
168.3173370361328
 31
0.0
  0
LINE
  5
3FC
  8
BRIDGE_ROUTE
 10
264.7950134277344
 20
168.3173370361328
 30
0.0
 11
217.55099487304688
 21
168.3173370361328
 31
0.0
  0
LINE
  5
3FD
  8
BRIDGE_ROUTE
 10
217.55099487304688
 20
168.3173370361328
 30
0.0
 11
217.5086669921875
 21
168.69833374023438
 31
0.0
  0
LINE
  5
3FE
  8
BRIDGE_ROUTE
 10
217.5086669921875
 20
168.69833374023438
 30
0.0
 11
218.01666259765625
 21
169.24867248535156
 31
0.0
  0
LINE
  5
3FF
  8
BRIDGE_ROUTE
 10
218.01666259765625
 20
169.24867248535156
 30
0.0
 11
217.00067138671875
 21
168.86766052246094
 31
0.0
  0
LINE
  5
400
  8
BRIDGE_ROUTE
 10
217.00067138671875
 20
168.86766052246094
 30
0.0
 11
216.9583282470703
 21
169.5873260498047
 31
0.0
  0
LINE
  5
401
  8
BRIDGE_ROUTE
 10
216.9583282470703
 20
169.5873260498047
 30
0.0
 11
216.91600036621094
 21
168.4443359375
 31
0.0
  0
LINE
  5
402
  8
BRIDGE_ROUTE
 10
216.91600036621094
 20
168.4443359375
 30
0.0
 11
215.89999389648438
 21
167.47067260742188
 31
0.0
  0
LINE
  5
403
  8
BRIDGE_ROUTE
 10
215.89999389648438
 20
167.47067260742188
 30
0.0
 11
216.11166381835938
 21
167.25900268554688
 31
0.0
  0
LINE
  5
404
  8
BRIDGE_ROUTE
 10
216.11166381835938
 20
167.25900268554688
 30
0.0
 11
216.53500366210938
 21
167.6823272705078
 31
0.0
  0
LINE
  5
405
  8
BRIDGE_ROUTE
 10
216.53500366210938
 20
167.6823272705078
 30
0.0
 11
216.91600036621094
 21
167.63999938964844
 31
0.0
  0
LINE
  5
406
  8
BRIDGE_ROUTE
 10
216.91600036621094
 20
167.63999938964844
 30
0.0
 11
216.91600036621094
 21
160.35867309570312
 31
0.0
  0
LINE
  5
407
  8
BRIDGE_ROUTE
 10
216.91600036621094
 20
160.35867309570312
 30
0.0
 11
215.89999389648438
 21
159.34266662597656
 31
0.0
  0
LINE
  5
408
  8
BRIDGE_ROUTE
 10
215.89999389648438
 20
159.34266662597656
 30
0.0
 11
216.0693359375
 21
159.17333984375
 31
0.0
  0
LINE
  5
409
  8
BRIDGE_ROUTE
 10
216.0693359375
 20
159.17333984375
 30
0.0
 11
216.53500366210938
 21
159.63900756835938
 31
0.0
  0
LINE
  5
40A
  8
BRIDGE_ROUTE
 10
216.53500366210938
 20
159.63900756835938
 30
0.0
 11
216.91600036621094
 21
159.59666442871094
 31
0.0
  0
LINE
  5
40B
  8
BRIDGE_ROUTE
 10
216.91600036621094
 20
159.59666442871094
 30
0.0
 11
216.91600036621094
 21
153.8816680908203
 31
0.0
  0
LINE
  5
40C
  8
BRIDGE_ROUTE
 10
216.91600036621094
 20
153.8816680908203
 30
0.0
 11
216.70433044433594
 21
153.6699981689453
 31
0.0
  0
LINE
  5
40D
  8
BRIDGE_ROUTE
 10
216.70433044433594
 20
153.6699981689453
 30
0.0
 11
210.26966857910156
 21
153.6699981689453
 31
0.0
  0
LINE
  5
40E
  8
BRIDGE_ROUTE
 10
210.26966857910156
 20
153.6699981689453
 30
0.0
 11
209.21133422851562
 21
154.72833251953125
 31
0.0
  0
LINE
  5
40F
  8
BRIDGE_ROUTE
 10
209.21133422851562
 20
154.72833251953125
 30
0.0
 11
209.04200744628906
 21
154.51666259765625
 31
0.0
  0
LINE
  5
410
  8
BRIDGE_ROUTE
 10
542.4593505859375
 20
775.3773193359375
 30
0.0
 11
544.1103515625
 21
775.3350219726562
 31
0.0
  0
LINE
  5
411
  8
BRIDGE_ROUTE
 10
544.1103515625
 20
775.3350219726562
 30
0.0
 11
543.5599975585938
 21
772.6256713867188
 31
0.0
  0
LINE
  5
412
  8
BRIDGE_ROUTE
 10
543.5599975585938
 20
772.6256713867188
 30
0.0
 11
544.448974609375
 21
775.3773193359375
 31
0.0
  0
LINE
  5
413
  8
BRIDGE_ROUTE
 10
544.448974609375
 20
775.3773193359375
 30
0.0
 11
573.193359375
 21
775.3350219726562
 31
0.0
  0
LINE
  5
414
  8
BRIDGE_ROUTE
 10
573.193359375
 20
775.3350219726562
 30
0.0
 11
573.193359375
 21
742.6536865234375
 31
0.0
  0
LINE
  5
415
  8
BRIDGE_ROUTE
 10
573.193359375
 20
742.6536865234375
 30
0.0
 11
571.6693115234375
 21
742.5266723632812
 31
0.0
  0
LINE
  5
416
  8
BRIDGE_ROUTE
 10
571.6693115234375
 20
742.5266723632812
 30
0.0
 11
573.193359375
 21
742.3573608398438
 31
0.0
  0
LINE
  5
417
  8
BRIDGE_ROUTE
 10
573.193359375
 20
742.3573608398438
 30
0.0
 11
573.193359375
 21
734.6103515625
 31
0.0
  0
LINE
  5
418
  8
BRIDGE_ROUTE
 10
573.193359375
 20
734.6103515625
 30
0.0
 11
571.3306884765625
 21
734.4833374023438
 31
0.0
  0
LINE
  5
419
  8
BRIDGE_ROUTE
 10
571.3306884765625
 20
734.4833374023438
 30
0.0
 11
573.193359375
 21
734.3140258789062
 31
0.0
  0
LINE
  5
41A
  8
BRIDGE_ROUTE
 10
573.193359375
 20
734.3140258789062
 30
0.0
 11
573.1510009765625
 21
716.4493408203125
 31
0.0
  0
LINE
  5
41B
  8
BRIDGE_ROUTE
 10
573.1510009765625
 20
716.4493408203125
 30
0.0
 11
543.5599975585938
 21
716.4493408203125
 31
0.0
  0
LINE
  5
41C
  8
BRIDGE_ROUTE
 10
543.5599975585938
 20
716.4493408203125
 30
0.0
 11
543.0096435546875
 21
718.4813232421875
 31
0.0
  0
LINE
  5
41D
  8
BRIDGE_ROUTE
 10
543.0096435546875
 20
718.4813232421875
 30
0.0
 11
543.3483276367188
 21
716.4493408203125
 31
0.0
  0
LINE
  5
41E
  8
BRIDGE_ROUTE
 10
543.3483276367188
 20
716.4493408203125
 30
0.0
 11
537.4639892578125
 21
716.4493408203125
 31
0.0
  0
LINE
  5
41F
  8
BRIDGE_ROUTE
 10
537.4639892578125
 20
716.4493408203125
 30
0.0
 11
536.65966796875
 21
719.15869140625
 31
0.0
  0
LINE
  5
420
  8
BRIDGE_ROUTE
 10
536.65966796875
 20
719.15869140625
 30
0.0
 11
537.1253051757812
 21
716.4916381835938
 31
0.0
  0
LINE
  5
421
  8
BRIDGE_ROUTE
 10
537.1253051757812
 20
716.4916381835938
 30
0.0
 11
535.4320068359375
 21
716.4916381835938
 31
0.0
  0
LINE
  5
422
  8
BRIDGE_ROUTE
 10
535.4320068359375
 20
716.4916381835938
 30
0.0
 11
534.204345703125
 21
721.4446411132812
 31
0.0
  0
LINE
  5
423
  8
BRIDGE_ROUTE
 10
534.204345703125
 20
721.4446411132812
 30
0.0
 11
533.357666015625
 21
728.00634765625
 31
0.0
  0
LINE
  5
424
  8
BRIDGE_ROUTE
 10
533.357666015625
 20
728.00634765625
 30
0.0
 11
533.4423217773438
 21
735.245361328125
 31
0.0
  0
LINE
  5
425
  8
BRIDGE_ROUTE
 10
533.4423217773438
 20
735.245361328125
 30
0.0
 11
533.6963500976562
 21
738.462646484375
 31
0.0
  0
LINE
  5
426
  8
BRIDGE_ROUTE
 10
533.6963500976562
 20
738.462646484375
 30
0.0
 11
534.1196899414062
 21
738.5050048828125
 31
0.0
  0
LINE
  5
427
  8
BRIDGE_ROUTE
 10
534.1196899414062
 20
738.5050048828125
 30
0.0
 11
533.7386474609375
 21
738.5896606445312
 31
0.0
  0
LINE
  5
428
  8
BRIDGE_ROUTE
 10
533.7386474609375
 20
738.5896606445312
 30
0.0
 11
533.9503173828125
 21
741.8916625976562
 31
0.0
  0
LINE
  5
429
  8
BRIDGE_ROUTE
 10
533.9503173828125
 20
741.8916625976562
 30
0.0
 11
534.8816528320312
 21
748.4956665039062
 31
0.0
  0
LINE
  5
42A
  8
BRIDGE_ROUTE
 10
534.8816528320312
 20
748.4956665039062
 30
0.0
 11
536.3633422851562
 21
755.2266845703125
 31
0.0
  0
LINE
  5
42B
  8
BRIDGE_ROUTE
 10
536.3633422851562
 20
755.2266845703125
 30
0.0
 11
542.4593505859375
 21
775.3773193359375
 31
0.0
  0
LINE
  5
42C
  8
JACK_ROUTE
 10
573.2780151367188
 20
716.406982421875
 30
0.0
 11
603.5886840820312
 21
716.3646850585938
 31
0.0
  0
LINE
  5
42D
  8
JACK_ROUTE
 10
603.5886840820312
 20
716.3646850585938
 30
0.0
 11
603.5886840820312
 21
703.622314453125
 31
0.0
  0
LINE
  5
42E
  8
JACK_ROUTE
 10
603.5886840820312
 20
703.622314453125
 30
0.0
 11
603.0806884765625
 21
703.495361328125
 31
0.0
  0
LINE
  5
42F
  8
JACK_ROUTE
 10
603.0806884765625
 20
703.495361328125
 30
0.0
 11
603.5886840820312
 21
703.3259887695312
 31
0.0
  0
LINE
  5
430
  8
JACK_ROUTE
 10
603.5886840820312
 20
703.3259887695312
 30
0.0
 11
603.5463256835938
 21
676.0633544921875
 31
0.0
  0
LINE
  5
431
  8
JACK_ROUTE
 10
603.5463256835938
 20
676.0633544921875
 30
0.0
 11
602.6573486328125
 21
676.5713500976562
 31
0.0
  0
LINE
  5
432
  8
JACK_ROUTE
 10
602.6573486328125
 20
676.5713500976562
 30
0.0
 11
602.7843627929688
 21
675.7246704101562
 31
0.0
  0
LINE
  5
433
  8
JACK_ROUTE
 10
602.7843627929688
 20
675.7246704101562
 30
0.0
 11
601.3873291015625
 21
675.7246704101562
 31
0.0
  0
LINE
  5
434
  8
JACK_ROUTE
 10
601.3873291015625
 20
675.7246704101562
 30
0.0
 11
601.3026733398438
 21
677.5873413085938
 31
0.0
  0
LINE
  5
435
  8
JACK_ROUTE
 10
601.3026733398438
 20
677.5873413085938
 30
0.0
 11
599.101318359375
 21
677.502685546875
 31
0.0
  0
LINE
  5
436
  8
JACK_ROUTE
 10
599.101318359375
 20
677.502685546875
 30
0.0
 11
601.0910034179688
 21
677.3756713867188
 31
0.0
  0
LINE
  5
437
  8
JACK_ROUTE
 10
601.0910034179688
 20
677.3756713867188
 30
0.0
 11
601.0910034179688
 21
675.7246704101562
 31
0.0
  0
LINE
  5
438
  8
JACK_ROUTE
 10
601.0910034179688
 20
675.7246704101562
 30
0.0
 11
585.2583618164062
 21
676.0633544921875
 31
0.0
  0
LINE
  5
439
  8
JACK_ROUTE
 10
585.2583618164062
 20
676.0633544921875
 30
0.0
 11
578.4849853515625
 21
676.86767578125
 31
0.0
  0
LINE
  5
43A
  8
JACK_ROUTE
 10
578.4849853515625
 20
676.86767578125
 30
0.0
 11
573.2356567382812
 21
678.3916625976562
 31
0.0
  0
LINE
  5
43B
  8
JACK_ROUTE
 10
573.2356567382812
 20
678.3916625976562
 30
0.0
 11
573.2780151367188
 21
680.0003051757812
 31
0.0
  0
LINE
  5
43C
  8
JACK_ROUTE
 10
573.2780151367188
 20
680.0003051757812
 30
0.0
 11
574.9290161132812
 21
679.746337890625
 31
0.0
  0
LINE
  5
43D
  8
JACK_ROUTE
 10
574.9290161132812
 20
679.746337890625
 30
0.0
 11
573.2356567382812
 21
680.38134765625
 31
0.0
  0
LINE
  5
43E
  8
JACK_ROUTE
 10
573.2356567382812
 20
680.38134765625
 30
0.0
 11
573.2356567382812
 21
686.3926391601562
 31
0.0
  0
LINE
  5
43F
  8
JACK_ROUTE
 10
573.2356567382812
 20
686.3926391601562
 30
0.0
 11
575.8603515625
 21
685.6729736328125
 31
0.0
  0
LINE
  5
440
  8
JACK_ROUTE
 10
575.8603515625
 20
685.6729736328125
 30
0.0
 11
573.2356567382812
 21
686.6466674804688
 31
0.0
  0
LINE
  5
441
  8
JACK_ROUTE
 10
573.2356567382812
 20
686.6466674804688
 30
0.0
 11
573.2780151367188
 21
716.406982421875
 31
0.0
  0
LINE
  5
442
  8
JACK_ROUTE
 10
159.93533325195312
 20
264.1600036621094
 30
0.0
 11
174.7096710205078
 21
264.20233154296875
 31
0.0
  0
LINE
  5
443
  8
JACK_ROUTE
 10
174.7096710205078
 20
264.20233154296875
 30
0.0
 11
174.79432678222656
 21
254.97366333007812
 31
0.0
  0
LINE
  5
444
  8
JACK_ROUTE
 10
174.79432678222656
 20
254.97366333007812
 30
0.0
 11
174.79432678222656
 21
263.7366638183594
 31
0.0
  0
LINE
  5
445
  8
JACK_ROUTE
 10
174.79432678222656
 20
263.7366638183594
 30
0.0
 11
175.55633544921875
 21
263.4403381347656
 31
0.0
  0
LINE
  5
446
  8
JACK_ROUTE
 10
175.55633544921875
 20
263.4403381347656
 30
0.0
 11
175.25999450683594
 21
264.20233154296875
 31
0.0
  0
LINE
  5
447
  8
JACK_ROUTE
 10
175.25999450683594
 20
264.20233154296875
 30
0.0
 11
177.8423309326172
 21
264.1600036621094
 31
0.0
  0
LINE
  5
448
  8
JACK_ROUTE
 10
177.8423309326172
 20
264.1600036621094
 30
0.0
 11
177.88467407226562
 21
258.148681640625
 31
0.0
  0
LINE
  5
449
  8
JACK_ROUTE
 10
177.88467407226562
 20
258.148681640625
 30
0.0
 11
178.0116729736328
 21
264.20233154296875
 31
0.0
  0
LINE
  5
44A
  8
JACK_ROUTE
 10
178.0116729736328
 20
264.20233154296875
 30
0.0
 11
181.017333984375
 21
264.20233154296875
 31
0.0
  0
LINE
  5
44B
  8
JACK_ROUTE
 10
181.017333984375
 20
264.20233154296875
 30
0.0
 11
181.77932739257812
 21
263.4403381347656
 31
0.0
  0
LINE
  5
44C
  8
JACK_ROUTE
 10
181.77932739257812
 20
263.4403381347656
 30
0.0
 11
181.52532958984375
 21
264.20233154296875
 31
0.0
  0
LINE
  5
44D
  8
JACK_ROUTE
 10
181.52532958984375
 20
264.20233154296875
 30
0.0
 11
195.83399963378906
 21
264.20233154296875
 31
0.0
  0
LINE
  5
44E
  8
JACK_ROUTE
 10
195.83399963378906
 20
264.20233154296875
 30
0.0
 11
195.70700073242188
 21
234.56900024414062
 31
0.0
  0
LINE
  5
44F
  8
JACK_ROUTE
 10
195.70700073242188
 20
234.56900024414062
 30
0.0
 11
178.0116729736328
 21
234.52667236328125
 31
0.0
  0
LINE
  5
450
  8
JACK_ROUTE
 10
178.0116729736328
 20
234.52667236328125
 30
0.0
 11
177.88467407226562
 21
239.2256622314453
 31
0.0
  0
LINE
  5
451
  8
JACK_ROUTE
 10
177.88467407226562
 20
239.2256622314453
 30
0.0
 11
177.8423309326172
 21
234.56900024414062
 31
0.0
  0
LINE
  5
452
  8
JACK_ROUTE
 10
177.8423309326172
 20
234.56900024414062
 30
0.0
 11
174.836669921875
 21
234.52667236328125
 31
0.0
  0
LINE
  5
453
  8
JACK_ROUTE
 10
174.836669921875
 20
234.52667236328125
 30
0.0
 11
174.7519989013672
 21
243.75534057617188
 31
0.0
  0
LINE
  5
454
  8
JACK_ROUTE
 10
174.7519989013672
 20
243.75534057617188
 30
0.0
 11
174.7519989013672
 21
234.99234008789062
 31
0.0
  0
LINE
  5
455
  8
JACK_ROUTE
 10
174.7519989013672
 20
234.99234008789062
 30
0.0
 11
173.99000549316406
 21
235.28866577148438
 31
0.0
  0
LINE
  5
456
  8
JACK_ROUTE
 10
173.99000549316406
 20
235.28866577148438
 30
0.0
 11
174.2863311767578
 21
234.52667236328125
 31
0.0
  0
LINE
  5
457
  8
JACK_ROUTE
 10
174.2863311767578
 20
234.52667236328125
 30
0.0
 11
160.14700317382812
 21
234.52667236328125
 31
0.0
  0
LINE
  5
458
  8
JACK_ROUTE
 10
160.14700317382812
 20
234.52667236328125
 30
0.0
 11
159.93533325195312
 21
264.1600036621094
 31
0.0
  0
ENDSEC
  0
EOF
