<svg xmlns="http://www.w3.org/2000/svg" viewBox="0 0 800 600">
  <rect width="100%" height="100%" fill="#f8fafc"/>
  <path d="M 83.8 20.0 L 83.3 20.5 L 82.9 20.5 L 82.4 20.5 L 81.9 20.5 L 81.4 20.5 L 80.9 20.5 L 80.5 20.5 L 80.0 21.0 L 79.5 21.0 L 79.0 21.0 L 78.5 21.4 L 78.1 21.4 L 77.6 21.4 L 77.1 21.9 L 76.6 21.9 L 76.1 22.4 L 75.7 22.4 L 75.2 22.9 L 74.7 22.9 L 74.2 23.4 L 73.7 23.8 L 73.3 24.3 L 72.8 24.3 L 72.3 24.8 L 71.8 25.3 L 71.3 25.8 L 70.9 26.2 L 70.4 26.2 L 69.9 26.7 L 69.4 27.2 L 68.9 27.7 L 68.5 27.7 L 68.0 28.2 L 67.5 28.6 L 67.0 29.1 L 66.5 29.1 L 66.1 29.6 L 65.6 29.6 L 65.1 30.1 L 64.6 30.6 L 64.6 31.0 L 64.1 31.5 L 63.7 32.0 L 63.2 32.0 L 62.7 32.0 L 62.2 32.5 L 61.7 33.0 L 61.3 33.4 L 60.8 33.9 L 60.3 33.9 L 59.8 34.4 L 59.3 34.9 L 58.9 34.9 L 58.4 35.4 L 57.9 35.8 L 57.4 36.3 L 56.9 36.8 L 56.5 36.8 L 56.0 37.3 L 55.5 37.8 L 55.0 37.8 L 54.6 38.2 L 54.1 38.7 L 53.6 38.7 L 53.1 39.2 L 52.6 39.2 L 52.2 39.7 L 51.7 40.2 L 51.2 40.2 L 50.7 40.6 L 50.2 41.1 L 49.8 41.1 L 49.3 41.6 L 48.8 41.6 L 48.3 42.1 L 47.8 42.6 L 47.4 42.6 L 46.9 43.0 L 46.4 43.0 L 45.9 43.5 L 45.4 43.5 L 45.0 43.5 L 44.5 44.0 L 44.0 44.5 L 43.5 44.5 L 43.0 45.0 L 42.6 45.0 L 42.1 45.4 L 41.6 45.4 L 41.1 45.4 L 40.6 45.9 L 40.2 46.4 L 39.7 46.4 L 39.2 46.9 L 38.7 46.9 L 38.2 46.9 L 37.8 47.4 L 37.3 47.8 L 36.8 47.8 L 36.3 47.8 L 35.8 48.3 L 35.4 48.3 L 34.9 48.8 L 34.4 48.8 L 33.9 49.3 L 33.4 49.3 L 33.0 49.3 L 32.5 49.8 L 32.0 49.8 L 31.5 50.2 L 31.0 50.2 L 30.6 50.2 L 30.1 50.7 L 29.6 51.2 L 29.1 51.2 L 28.6 51.7 L 28.2 51.7 L 27.7 52.2 L 27.2 52.6 L 26.7 52.6 L 26.2 53.1 L 25.8 53.6 L 25.3 54.1 L 24.8 54.6 L 24.8 55.0 L 24.3 55.5 L 24.3 56.0 L 23.8 56.5 L 23.8 56.9 L 23.8 57.4 L 23.4 57.9 L 23.4 58.4 L 22.9 58.9 L 22.9 59.3 L 22.9 59.8 L 22.4 60.3 L 22.4 60.8 L 22.4 61.3 L 22.4 61.7 L 22.4 62.2 L 22.4 62.7 L 22.4 63.2 L 22.4 63.7 L 22.4 64.1 L 22.4 64.6 L 22.4 65.1 L 22.4 65.6 L 22.4 66.1 L 22.9 66.5 L 22.9 67.0 L 23.4 67.5 L 23.4 68.0 L 23.8 68.5 L 23.8 68.9 L 23.8 69.4 L 24.3 69.9 L 24.8 70.4 L 25.3 70.9 L 25.8 71.3 L 26.2 71.8 L 26.7 72.3 L 27.2 72.8 L 27.7 73.3 L 28.2 73.7 L 27.7 74.2 L 27.2 74.7 L 26.7 75.2 L 26.2 75.7 L 25.8 75.7 L 25.3 76.1 L 25.3 76.6 L 24.8 77.1 L 24.3 77.6 L 24.3 78.1 L 23.8 78.5 L 23.8 79.0 L 23.8 79.5 L 23.4 80.0 L 23.4 80.5 L 23.4 80.9 L 22.9 81.4 L 22.9 81.9 L 22.9 82.4 L 22.9 82.9 L 22.9 83.3 L 22.9 83.8 L 22.9 84.3 L 22.9 84.8 L 22.9 85.3 L 22.9 85.7 L 22.9 86.2 L 22.9 86.7 L 22.9 87.2 L 22.9 87.7 L 22.9 88.1 L 22.9 88.6 L 23.4 89.1 L 23.4 89.6 L 23.4 90.1 L 23.4 90.5 L 23.4 91.0 L 23.4 91.5 L 23.4 92.0 L 23.4 92.5 L 23.4 92.9 L 23.4 93.4 L 23.4 93.9 L 23.4 94.4 L 23.4 94.9 L 23.4 95.3 L 23.4 95.8 L 23.8 96.3 L 23.8 96.8 L 23.4 97.3 L 23.8 97.7 L 23.8 98.2 L 23.8 98.7 L 23.8 99.2 L 23.8 99.7 L 23.8 100.1 L 23.8 100.6 L 23.8 101.1 L 23.8 101.6 L 23.8 102.1 L 23.8 102.5 L 23.8 103.0 L 23.8 103.5 L 24.3 104.0 L 24.3 104.5 L 24.3 104.9 L 24.3 105.4 L 24.3 105.9 L 24.3 106.4 L 24.3 106.9 L 24.3 107.3 L 24.3 107.8 L 24.3 108.3 L 24.3 108.8 L 24.3 109.3 L 24.3 109.7 L 24.3 110.2 L 24.3 110.7 L 24.3 111.2 L 24.3 111.7 L 24.3 112.1 L 24.3 112.6 L 24.8 113.1 L 24.8 113.6 L 24.8 114.1 L 24.8 114.5 L 24.8 115.0 L 24.3 115.5 L 23.8 115.5 L 23.4 115.5 L 22.9 115.5 L 22.4 115.5 L 21.9 116.0 L 21.4 115.5 L 21.0 116.0 L 20.5 116.0 L 20.0 116.0 L 20.5 116.5 L 20.0 116.9 L 20.5 116.9 L 21.0 116.9 L 21.4 116.9 L 21.9 116.9 L 22.4 116.9 L 22.9 116.9 L 23.4 116.9 L 23.8 116.9 L 24.3 116.9 L 24.8 117.4 L 24.8 117.9 L 24.8 118.4 L 24.8 118.9 L 24.8 119.3 L 24.8 119.8 L 25.3 120.3 L 25.3 120.8 L 25.3 121.3 L 25.3 121.7 L 25.3 122.2 L 25.3 122.7 L 25.3 123.2 L 25.3 123.7 L 25.3 124.1 L 25.3 124.6 L 25.3 125.1 L 25.3 125.6 L 25.3 126.0 L 25.8 126.5 L 25.8 127.0 L 25.8 127.5 L 25.8 128.0 L 25.8 128.4 L 25.8 128.9 L 25.8 129.4 L 25.8 129.9 L 25.8 130.4 L 25.8 130.8 L 25.8 131.3 L 25.8 131.8 L 25.8 132.3 L 25.8 132.8 L 25.8 133.2 L 25.8 133.7 L 26.2 134.2 L 26.2 134.7 L 26.2 135.2 L 26.2 135.6 L 26.2 136.1 L 26.2 136.6 L 26.2 137.1 L 26.2 137.6 L 26.2 138.0 L 26.2 138.5 L 26.2 139.0 L 26.2 139.5 L 26.2 140.0 L 26.2 140.4 L 26.2 140.9 L 26.2 141.4 L 26.7 141.9 L 26.7 142.4 L 26.7 142.8 L 26.7 143.3 L 26.7 143.8 L 26.7 144.3 L 26.7 144.8 L 26.7 145.2 L 26.7 145.7 L 26.7 146.2 L 26.7 146.7 L 26.7 147.2 L 26.7 147.6 L 27.2 148.1 L 27.2 148.6 L 27.2 149.1 L 27.2 149.6 L 27.2 150.0 L 27.2 150.5 L 27.2 151.0 L 27.2 151.5 L 27.2 152.0 L 27.2 152.4 L 27.2 152.9 L 27.2 153.4 L 27.2 153.9 L 27.2 154.4 L 27.2 154.8 L 27.2 155.3 L 27.2 155.8 L 27.2 156.3 L 27.2 156.8 L 27.7 157.2 L 27.7 157.7 L 27.7 158.2 L 27.7 158.7 L 27.7 159.2 L 27.7 159.6 L 27.7 160.1 L 27.7 160.6 L 27.7 161.1 L 27.7 161.6 L 27.2 162.0 L 27.2 162.5 L 26.7 163.0 L 27.2 163.5 L 27.7 164.0 L 28.2 164.4 L 28.2 164.9 L 28.2 165.4 L 28.2 165.9 L 28.2 166.4 L 28.2 166.8 L 28.2 167.3 L 28.2 167.8 L 28.2 168.3 L 28.2 168.8 L 28.2 169.2 L 28.2 169.7 L 28.6 170.2 L 28.6 170.7 L 28.6 171.2 L 28.6 171.6 L 28.6 172.1 L 28.6 172.6 L 28.6 173.1 L 28.6 173.6 L 28.6 174.0 L 28.6 174.5 L 28.6 175.0 L 28.6 175.5 L 28.6 176.0 L 28.6 176.4 L 28.6 176.9 L 28.6 177.4 L 28.6 177.9 L 28.6 178.4 L 28.6 178.8 L 28.6 179.3 L 28.6 179.8 L 29.1 180.3 L 29.1 180.8 L 29.1 181.2 L 29.1 181.7 L 29.1 182.2 L 29.1 182.7 L 29.1 183.2 L 29.1 183.6 L 29.1 184.1 L 29.1 184.6 L 29.1 185.1 L 29.1 185.6 L 29.1 186.0 L 29.1 186.5 L 29.1 187.0 L 29.6 187.5 L 29.6 188.0 L 29.6 188.4 L 29.6 188.9 L 29.6 189.4 L 29.6 189.9 L 29.6 190.4 L 29.6 190.8 L 29.6 191.3 L 29.6 191.8 L 29.6 192.3 L 29.6 192.8 L 29.6 193.2 L 29.6 193.7 L 29.6 194.2 L 29.6 194.7 L 29.6 195.1 L 29.6 195.6 L 29.6 196.1 L 29.6 196.6 L 29.6 197.1 L 30.1 197.5 L 30.1 198.0 L 30.1 198.5 L 30.1 199.0 L 30.1 199.5 L 30.1 199.9 L 30.1 200.4 L 30.1 200.9 L 30.1 201.4 L 30.1 201.9 L 30.1 202.3 L 30.1 202.8 L 30.1 203.3 L 30.1 203.8 L 30.1 204.3 L 30.6 204.7 L 30.6 205.2 L 30.6 205.7 L 30.6 206.2 L 30.6 206.7 L 30.6 207.1 L 30.6 207.6 L 30.6 208.1 L 30.6 208.6 L 30.6 209.1 L 30.6 209.5 L 30.6 210.0 L 30.6 210.5 L 30.6 211.0 L 30.6 211.5 L 30.1 211.9 L 29.6 211.9 L 29.1 211.9 L 28.6 212.4 L 28.2 212.4 L 27.7 212.4 L 27.2 212.4 L 26.7 212.4 L 26.2 212.4 L 25.8 212.4 L 25.3 212.4 L 24.8 212.4 L 24.8 212.9 L 24.8 213.4 L 25.3 213.9 L 25.8 213.9 L 26.2 213.4 L 26.7 213.4 L 27.2 213.4 L 27.7 213.4 L 28.2 213.4 L 28.6 213.4 L 29.1 213.4 L 29.6 213.4 L 30.1 212.9 L 30.6 212.9 L 31.0 213.4 L 31.0 213.9 L 31.0 214.3 L 31.0 214.8 L 31.0 215.3 L 31.0 215.8 L 31.0 216.3 L 31.0 216.7 L 31.0 217.2 L 31.0 217.7 L 31.0 218.2 L 31.5 218.7 L 31.5 219.1 L 31.5 219.6 L 31.5 220.1 L 31.5 220.6 L 31.5 221.1 L 31.5 221.5 L 31.5 222.0 L 31.5 222.5 L 31.5 223.0 L 31.5 223.5 L 31.5 223.9 L 31.5 224.4 L 31.5 224.9 L 31.5 225.4 L 31.5 225.9 L 31.5 226.3 L 32.0 226.8 L 32.0 227.3 L 32.0 227.8 L 32.0 228.3 L 32.0 228.7 L 32.0 229.2 L 32.0 229.7 L 32.0 230.2 L 32.0 230.7 L 32.0 231.1 L 32.0 231.6 L 32.0 232.1 L 32.0 232.6 L 32.0 233.1 L 32.5 233.5 L 32.5 234.0 L 32.5 234.5 L 32.5 235.0 L 32.5 235.5 L 32.5 235.9 L 32.5 236.4 L 32.5 236.9 L 32.5 237.4 L 32.5 237.9 L 32.5 238.3 L 32.5 238.8 L 32.5 239.3 L 32.5 239.8 L 32.5 240.3 L 32.5 240.7 L 32.5 241.2 L 32.5 241.7 L 32.5 242.2 L 33.0 242.7 L 33.0 243.1 L 33.0 243.6 L 33.0 244.1 L 33.0 244.6 L 33.0 245.1 L 33.0 245.5 L 33.0 246.0 L 33.0 246.5 L 33.0 247.0 L 33.0 247.5 L 33.0 247.9 L 33.4 248.4 L 33.4 248.9 L 33.4 249.4 L 33.4 249.9 L 33.4 250.3 L 33.4 250.8 L 33.4 251.3 L 33.4 251.8 L 33.4 252.3 L 33.4 252.7 L 33.4 253.2 L 33.9 253.7 L 33.4 254.2 L 33.4 254.7 L 33.4 255.1 L 33.4 255.6 L 33.9 256.1 L 33.9 256.6 L 33.9 257.1 L 33.9 257.5 L 33.9 258.0 L 33.9 258.5 L 33.9 259.0 L 33.9 259.5 L 33.9 259.9 L 33.4 260.4 L 33.0 260.4 L 32.5 260.9 L 32.0 260.9 L 31.5 260.9 L 31.0 260.9 L 30.6 260.9 L 30.1 260.9 L 29.6 261.4 L 29.1 261.4 L 28.6 261.4 L 28.2 261.4 L 27.7 260.9 L 27.2 260.9 L 26.7 260.9 L 26.2 261.4 L 25.8 261.4 L 25.3 261.4 L 24.8 261.4 L 24.3 261.4 L 23.8 261.4 L 23.8 261.9 L 23.8 262.3 L 24.3 262.3 L 24.8 262.3 L 25.3 262.3 L 25.8 262.3 L 26.2 262.3 L 26.7 262.3 L 27.2 262.3 L 27.7 262.3 L 28.2 262.3 L 28.6 262.3 L 29.1 262.3 L 29.6 262.3 L 30.1 262.3 L 30.6 262.3 L 31.0 262.3 L 31.5 262.3 L 32.0 261.9 L 32.5 261.9 L 33.0 261.9 L 33.4 261.9 L 33.9 262.3 L 34.4 262.8 L 34.4 263.3 L 34.4 263.8 L 34.4 264.3 L 34.4 264.7 L 34.4 265.2 L 34.4 265.7 L 34.4 266.2 L 34.4 266.6 L 34.4 267.1 L 34.4 267.6 L 34.4 268.1 L 34.4 268.6 L 34.4 269.0 L 34.4 269.5 L 34.4 270.0 L 34.9 270.5 L 34.9 271.0 L 34.9 271.4 L 34.9 271.9 L 34.9 272.4 L 34.9 272.9 L 34.9 273.4 L 34.9 273.8 L 34.9 274.3 L 34.9 274.8 L 34.9 275.3 L 34.9 275.8 L 34.9 276.2 L 34.9 276.7 L 34.9 277.2 L 34.9 277.7 L 34.9 278.2 L 34.9 278.6 L 34.9 279.1 L 35.4 279.6 L 35.4 280.1 L 35.4 280.6 L 35.4 281.0 L 35.4 281.5 L 35.4 282.0 L 35.4 282.5 L 35.4 283.0 L 35.4 283.4 L 35.4 283.9 L 35.4 284.4 L 35.4 284.9 L 35.4 285.4 L 35.4 285.8 L 35.4 286.3 L 35.8 286.8 L 35.8 287.3 L 35.8 287.8 L 35.8 288.2 L 35.8 288.7 L 35.8 289.2 L 35.8 289.7 L 35.8 290.2 L 35.8 290.6 L 35.8 291.1 L 35.8 291.6 L 35.8 292.1 L 35.8 292.6 L 35.8 293.0 L 35.8 293.5 L 35.8 294.0 L 36.3 294.5 L 36.3 295.0 L 36.3 295.4 L 36.3 295.9 L 36.3 296.4 L 36.3 296.9 L 36.3 297.4 L 36.3 297.8 L 36.3 298.3 L 36.3 298.8 L 36.3 299.3 L 36.3 299.8 L 36.3 300.2 L 36.3 300.7 L 36.3 301.2 L 36.8 301.7 L 36.8 302.2 L 36.8 302.6 L 36.8 303.1 L 36.8 303.6 L 36.8 304.1 L 36.8 304.6 L 36.8 305.0 L 36.8 305.5 L 36.8 306.0 L 36.8 306.5 L 36.8 307.0 L 36.8 307.4 L 36.8 307.9 L 36.8 308.4 L 37.3 308.9 L 37.3 309.4 L 37.3 309.8 L 37.3 310.3 L 37.3 310.8 L 37.3 311.3 L 37.3 311.8 L 37.3 312.2 L 37.3 312.7 L 37.3 313.2 L 37.3 313.7 L 36.8 314.2 L 36.3 314.2 L 35.8 314.2 L 35.4 314.2 L 34.9 314.2 L 34.4 314.2 L 33.9 314.2 L 33.4 314.2 L 33.0 314.2 L 32.5 314.2 L 32.0 314.2 L 31.5 314.2 L 31.0 314.2 L 30.6 314.2 L 30.1 314.2 L 29.6 314.2 L 29.1 314.2 L 28.6 314.2 L 28.6 314.6 L 28.6 315.1 L 28.6 315.6 L 29.1 315.6 L 29.6 315.6 L 30.1 315.6 L 30.6 315.6 L 31.0 315.1 L 31.5 315.1 L 32.0 315.1 L 32.5 315.1 L 32.0 315.1 L 31.5 315.1 L 31.0 315.1 L 30.6 315.6 L 30.1 315.6 L 29.6 315.6 L 29.1 315.6 L 28.6 315.1 L 28.6 314.6 L 29.1 314.2 L 29.6 314.2 L 30.1 314.2 L 30.6 314.2 L 31.0 314.2 L 31.5 314.2 L 32.0 314.2 L 32.5 314.2 L 33.0 314.2 L 33.4 314.6 L 33.4 315.1 L 33.9 315.1 L 34.4 315.1 L 34.9 315.1 L 35.4 315.1 L 35.8 315.1 L 36.3 315.1 L 36.8 315.1 L 37.3 315.6 L 37.3 316.1 L 37.8 316.6 L 37.8 317.0 L 37.8 317.5 L 37.8 318.0 L 37.8 318.5 L 37.8 319.0 L 37.8 319.4 L 37.8 319.9 L 37.8 320.4 L 37.8 320.9 L 37.8 321.4 L 37.8 321.8 L 37.8 322.3 L 37.8 322.8 L 38.2 323.3 L 38.2 323.8 L 38.2 324.2 L 38.2 324.7 L 38.2 325.2 L 38.2 325.7 L 38.2 326.2 L 38.2 326.6 L 38.2 327.1 L 38.2 327.6 L 38.2 328.1 L 38.2 328.6 L 38.2 329.0 L 38.7 329.5 L 38.7 330.0 L 38.2 330.5 L 38.2 331.0 L 38.2 331.4 L 38.7 331.9 L 38.7 332.4 L 38.7 332.9 L 38.7 333.4 L 38.7 333.8 L 38.7 334.3 L 38.7 334.8 L 38.7 335.3 L 38.7 335.7 L 38.7 336.2 L 38.7 336.7 L 38.7 337.2 L 38.7 337.7 L 38.7 338.1 L 38.7 338.6 L 39.2 339.1 L 39.2 339.6 L 39.2 340.1 L 39.2 340.5 L 39.2 341.0 L 39.2 341.5 L 39.2 342.0 L 39.2 342.5 L 39.2 342.9 L 39.2 343.4 L 39.7 343.9 L 39.7 344.4 L 39.7 344.9 L 39.7 345.3 L 39.7 345.8 L 39.2 346.3 L 39.2 346.8 L 39.2 347.3 L 39.7 347.7 L 39.7 348.2 L 40.2 348.7 L 40.2 349.2 L 40.2 349.7 L 40.6 350.1 L 40.6 350.6 L 41.1 351.1 L 41.6 351.6 L 41.6 352.1 L 42.1 352.5 L 42.6 353.0 L 42.6 353.5 L 43.0 354.0 L 43.0 354.5 L 43.0 354.9 L 43.5 355.4 L 44.0 355.9 L 44.0 356.4 L 44.5 356.9 L 44.5 357.3 L 44.5 357.8 L 45.0 358.3 L 45.4 358.8 L 45.4 359.3 L 45.4 359.7 L 45.9 360.2 L 45.9 360.7 L 45.9 361.2 L 46.4 361.7 L 46.4 362.1 L 46.4 362.6 L 46.4 363.1 L 46.9 363.6 L 46.9 364.1 L 46.9 364.5 L 47.4 365.0 L 47.4 365.5 L 47.4 366.0 L 47.4 366.5 L 47.4 366.9 L 47.8 367.4 L 47.8 367.9 L 47.8 368.4 L 47.8 368.9 L 47.8 369.3 L 47.8 369.8 L 47.8 370.3 L 47.8 370.8 L 47.8 371.3 L 47.8 371.7 L 47.8 372.2 L 48.3 372.7 L 48.3 373.2 L 48.3 373.7 L 48.3 374.1 L 48.3 374.6 L 48.3 375.1 L 48.3 375.6 L 48.3 376.1 L 48.3 376.5 L 48.3 377.0 L 48.3 377.5 L 48.3 378.0 L 48.3 378.5 L 48.3 378.9 L 48.3 379.4 L 48.3 379.9 L 48.3 380.4 L 48.3 380.9 L 48.3 381.3 L 48.3 381.8 L 48.3 382.3 L 48.8 382.8 L 48.8 383.3 L 48.8 383.7 L 48.3 384.2 L 48.3 384.7 L 48.3 385.2 L 48.3 385.7 L 48.3 386.1 L 48.3 386.6 L 48.8 387.1 L 48.8 387.6 L 48.8 388.1 L 48.8 388.5 L 48.8 389.0 L 48.8 389.5 L 48.8 390.0 L 48.8 390.5 L 48.8 390.9 L 48.8 391.4 L 48.8 391.9 L 48.8 392.4 L 48.8 392.9 L 48.8 393.3 L 48.8 393.8 L 48.8 394.3 L 48.8 394.8 L 48.8 395.3 L 48.8 395.7 L 48.8 396.2 L 48.8 396.7 L 48.8 397.2 L 48.8 397.7 L 48.8 398.1 L 48.8 398.6 L 48.8 399.1 L 48.8 399.6 L 48.8 400.1 L 48.8 400.5 L 48.8 401.0 L 48.8 401.5 L 48.8 402.0 L 48.8 402.5 L 48.3 402.9 L 48.3 403.4 L 48.3 403.9 L 48.3 404.4 L 48.3 404.9 L 48.3 405.3 L 48.3 405.8 L 48.3 406.3 L 48.3 406.8 L 48.3 407.2 L 48.3 407.7 L 48.3 408.2 L 48.3 408.7 L 48.3 409.2 L 48.3 409.6 L 48.3 410.1 L 48.3 410.6 L 48.3 411.1 L 48.3 411.6 L 48.3 412.0 L 48.3 412.5 L 48.3 413.0 L 48.3 413.5 L 48.3 414.0 L 48.3 414.4 L 48.3 414.9 L 48.3 415.4 L 48.3 415.9 L 48.3 416.4 L 48.3 416.8 L 48.3 417.3 L 48.3 417.8 L 48.3 418.3 L 48.3 418.8 L 48.3 419.2 L 48.3 419.7 L 48.3 420.2 L 48.3 420.7 L 48.3 421.2 L 48.3 421.6 L 48.3 422.1 L 48.3 422.6 L 48.3 423.1 L 48.3 423.6 L 48.3 424.0 L 48.3 424.5 L 47.8 425.0 L 47.8 425.5 L 47.8 426.0 L 47.8 426.4 L 47.8 426.9 L 47.8 427.4 L 47.8 427.9 L 47.8 428.4 L 47.8 428.8 L 47.8 429.3 L 47.8 429.8 L 47.8 430.3 L 47.8 430.8 L 47.8 431.2 L 47.8 431.7 L 47.8 432.2 L 47.8 432.7 L 47.8 433.2 L 47.8 433.6 L 47.8 434.1 L 47.8 434.6 L 47.8 435.1 L 47.8 435.6 L 47.8 436.0 L 47.8 436.5 L 47.8 437.0 L 47.8 437.5 L 47.8 438.0 L 47.8 438.4 L 47.8 438.9 L 47.8 439.4 L 47.8 439.9 L 47.8 440.4 L 47.8 440.8 L 47.8 441.3 L 47.8 441.8 L 47.8 442.3 L 47.8 442.8 L 47.8 443.2 L 47.8 443.7 L 47.8 444.2 L 47.8 444.7 L 47.8 445.2 L 47.8 445.6 L 47.8 446.1 L 47.8 446.6 L 47.8 447.1 L 47.8 447.6 L 47.8 448.0 L 47.8 448.5 L 47.4 449.0 L 47.4 449.5 L 47.4 450.0 L 47.4 450.4 L 47.4 450.9 L 47.4 451.4 L 47.4 451.9 L 47.4 452.4 L 47.4 452.8 L 47.4 453.3 L 47.4 453.8 L 47.4 454.3 L 47.4 454.8 L 47.4 455.2 L 46.9 455.7 L 46.4 456.2 L 46.4 456.7 L 46.4 457.2 L 46.4 457.6 L 45.9 458.1 L 45.9 458.6 L 45.9 459.1 L 45.9 459.6 L 45.9 460.0 L 45.9 460.5 L 45.9 461.0 L 45.9 461.5 L 45.9 462.0 L 45.9 462.4 L 45.9 462.9 L 45.9 463.4 L 45.9 463.9 L 45.9 464.4 L 45.9 464.8 L 45.9 465.3 L 45.9 465.8 L 45.9 466.3 L 45.9 466.8 L 45.9 467.2 L 45.9 467.7 L 45.9 468.2 L 45.9 468.7 L 45.9 469.2 L 45.9 469.6 L 45.9 470.1 L 45.9 470.6 L 45.9 471.1 L 45.9 471.6 L 45.9 472.0 L 45.9 472.5 L 45.9 473.0 L 45.9 473.5 L 45.9 474.0 L 45.9 474.4 L 45.9 474.9 L 45.9 475.4 L 45.9 475.9 L 45.9 476.3 L 45.9 476.8 L 45.9 477.3 L 45.9 477.8 L 45.9 478.3 L 45.9 478.7 L 45.9 479.2 L 45.9 479.7 L 45.9 480.2 L 45.9 480.7 L 45.9 481.1 L 45.9 481.6 L 45.9 482.1 L 45.9 482.6 L 45.9 483.1 L 45.9 483.5 L 45.9 484.0 L 45.9 484.5 L 45.9 485.0 L 45.9 485.5 L 45.9 485.9 L 45.9 486.4 L 45.9 486.9 L 45.9 487.4 L 45.4 487.9 L 45.4 488.3 L 45.4 488.8 L 45.4 489.3 L 45.4 489.8 L 45.4 490.3 L 45.4 490.7 L 45.4 491.2 L 45.4 491.7 L 45.4 492.2 L 45.4 492.7 L 45.4 493.1 L 45.4 493.6 L 45.4 494.1 L 45.4 494.6 L 45.4 495.1 L 45.4 495.5 L 45.4 496.0 L 45.4 496.5 L 45.4 497.0 L 45.4 497.5 L 45.4 497.9 L 45.4 498.4 L 45.4 498.9 L 45.4 499.4 L 45.4 499.9 L 45.4 500.3 L 45.4 500.8 L 45.4 501.3 L 45.4 501.8 L 45.4 502.3 L 45.4 502.7 L 45.4 503.2 L 45.4 503.7 L 45.4 504.2 L 45.4 504.7 L 45.4 505.1 L 45.4 505.6 L 45.4 506.1 L 45.4 506.6 L 45.4 507.1 L 45.4 507.5 L 45.4 508.0 L 45.4 508.5 L 45.4 509.0 L 45.0 509.5 L 45.0 509.9 L 45.0 510.4 L 45.0 510.9 L 45.0 511.4 L 45.0 511.9 L 45.0 512.3 L 45.0 512.8 L 45.0 513.3 L 45.0 513.8 L 45.0 514.3 L 45.4 514.7 L 45.4 515.2 L 45.4 515.7 L 45.0 516.2 L 45.0 516.7 L 45.0 517.1 L 45.0 517.6 L 45.0 518.1 L 45.0 518.6 L 45.0 519.1 L 45.0 519.5 L 45.0 520.0 L 45.0 520.5 L 45.0 521.0 L 45.0 521.5 L 45.0 521.9 L 45.0 522.4 L 45.0 522.9 L 45.0 523.4 L 45.0 523.9 L 45.0 524.3 L 45.0 524.8 L 45.0 525.3 L 45.0 525.8 L 45.0 526.3 L 45.0 526.7 L 45.0 527.2 L 45.0 527.7 L 45.0 528.2 L 45.0 528.7 L 45.0 529.1 L 45.0 529.6 L 45.0 530.1 L 45.0 530.6 L 45.0 531.1 L 45.0 531.5 L 45.0 532.0 L 45.0 532.5 L 45.0 533.0 L 45.0 533.5 L 44.5 533.9 L 44.5 534.4 L 45.0 534.9 L 44.5 535.4 L 44.5 535.9 L 44.5 536.3 L 44.5 536.8 L 44.5 537.3 L 44.5 537.8 L 44.5 538.3 L 45.0 538.7 L 45.0 539.2 L 45.0 539.7 L 44.5 540.2 L 44.5 540.7 L 44.5 541.1 L 44.5 541.6 L 44.5 542.1 L 44.5 542.6 L 44.5 543.1 L 44.5 543.5 L 44.5 544.0 L 44.5 544.5 L 44.5 545.0 L 44.5 545.4 L 44.5 545.9 L 44.5 546.4 L 44.5 546.9 L 44.5 547.4 L 44.5 547.8 L 44.5 548.3 L 44.5 548.8 L 44.5 549.3 L 44.5 549.8 L 44.5 550.2 L 44.5 550.7 L 44.5 551.2 L 44.5 551.7 L 44.5 552.2 L 44.5 552.6 L 44.5 553.1 L 44.5 553.6 L 44.5 554.1 L 44.5 554.6 L 44.5 555.0 L 44.0 555.5 L 44.0 556.0 L 44.0 556.5 L 44.0 557.0 L 44.0 557.4 L 44.0 557.9 L 44.0 558.4 L 44.0 558.9 L 44.0 559.4 L 44.0 559.8 L 44.0 560.3 L 44.0 560.8 L 44.0 561.3 L 44.0 561.8 L 44.0 562.2 L 44.0 562.7 L 44.0 563.2 L 44.0 563.7 L 44.0 564.2 L 44.0 564.6 L 44.0 565.1 L 44.0 565.6 L 44.0 566.1 L 44.0 566.6 L 44.0 567.0 L 44.0 567.5 L 44.0 568.0 L 44.0 568.5 L 44.0 569.0 L 44.0 569.4 L 43.5 569.9 L 44.0 570.4 L 44.5 570.4 L 45.0 570.4 L 45.0 569.9 L 45.0 569.4 L 45.0 569.0 L 45.0 568.5 L 45.0 568.0 L 45.0 567.5 L 45.0 567.0 L 45.0 566.6 L 45.0 566.1 L 45.4 565.6 L 45.4 565.1 L 45.4 564.6 L 45.4 564.2 L 45.4 563.7 L 45.4 563.2 L 45.4 562.7 L 45.4 562.2 L 45.4 561.8 L 45.4 561.3 L 45.4 560.8 L 45.4 560.3 L 45.4 559.8 L 45.4 559.4 L 45.4 558.9 L 45.4 558.4 L 45.4 557.9 L 45.4 557.4 L 45.4 557.0 L 45.4 556.5 L 45.4 556.0 L 45.4 555.5 L 45.4 555.0 L 45.4 554.6 L 45.4 554.1 L 45.9 553.6 L 45.9 553.1 L 45.9 552.6 L 45.9 552.2 L 45.4 551.7 L 45.4 551.2 L 45.4 550.7 L 45.4 550.2 L 45.9 549.8 L 45.9 549.3 L 45.9 548.8 L 45.4 548.3 L 45.4 547.8 L 45.4 547.4 L 45.4 546.9 L 45.4 546.4 L 45.4 545.9 L 45.4 545.4 L 45.9 545.0 L 45.9 544.5 L 45.9 544.0 L 45.9 543.5 L 45.9 543.1 L 45.9 542.6 L 45.9 542.1 L 45.9 541.6 L 45.9 541.1 L 45.9 540.7 L 46.4 540.2 L 46.9 539.7 L 47.4 539.7 L 47.8 539.7 L 48.3 539.7 L 48.8 539.7 L 49.3 539.7 L 49.8 539.7 L 50.2 539.7 L 50.7 539.7 L 51.2 539.7 L 51.7 539.7 L 52.2 539.7 L 52.6 539.7 L 53.1 539.7 L 53.6 539.7 L 54.1 539.7 L 54.6 539.7 L 55.0 539.7 L 55.5 539.7 L 56.0 539.7 L 56.5 539.7 L 56.9 539.7 L 57.4 539.7 L 57.9 539.7 L 58.4 539.7 L 58.9 539.7 L 59.3 539.7 L 59.8 539.7 L 60.3 539.7 L 60.8 539.7 L 61.3 539.7 L 61.7 539.7 L 62.2 539.7 L 62.7 539.7 L 63.2 539.7 L 63.7 539.7 L 64.1 539.7 L 64.6 539.7 L 65.1 539.7 L 65.6 539.7 L 66.1 539.7 L 66.5 539.7 L 67.0 539.7 L 67.5 539.7 L 68.0 539.7 L 68.5 539.7 L 68.9 539.7 L 69.4 539.7 L 69.9 539.7 L 70.4 539.7 L 70.9 539.7 L 71.3 539.7 L 71.8 539.7 L 72.3 539.7 L 72.8 539.7 L 73.3 539.7 L 73.7 539.7 L 74.2 539.7 L 74.7 539.7 L 75.2 539.7 L 75.7 539.7 L 76.1 539.7 L 76.6 539.7 L 77.1 539.7 L 77.6 539.7 L 78.1 539.7 L 78.5 539.7 L 79.0 539.7 L 79.5 539.7 L 80.0 539.7 L 80.5 539.7 L 80.9 539.7 L 81.4 539.7 L 81.9 539.7 L 82.4 540.2 L 82.9 540.7 L 83.3 541.1 L 83.8 541.1 L 84.3 541.1 L 84.8 541.1 L 85.3 541.1 L 85.7 541.1 L 86.2 541.6 L 86.7 541.6 L 87.2 541.6 L 87.7 541.6 L 88.1 541.1 L 88.6 541.1 L 89.1 541.1 L 89.6 541.1 L 90.1 541.1 L 90.5 541.1 L 91.0 541.1 L 91.5 541.1 L 92.0 540.7 L 92.5 540.2 L 92.9 540.2 L 93.4 540.2 L 93.9 540.2 L 94.4 540.2 L 94.9 539.7 L 95.3 540.2 L 95.8 540.2 L 96.3 540.2 L 96.8 540.2 L 97.3 539.7 L 97.7 539.7 L 98.2 539.7 L 98.7 539.7 L 99.2 539.7 L 99.7 539.7 L 100.1 539.7 L 100.6 539.7 L 101.1 539.7 L 101.6 539.7 L 102.1 539.7 L 102.5 539.7 L 103.0 539.7 L 103.5 539.7 L 104.0 539.7 L 104.5 539.7 L 104.9 539.7 L 105.4 539.7 L 105.9 539.7 L 106.4 539.7 L 106.9 539.7 L 107.3 539.7 L 107.8 539.7 L 108.3 539.7 L 108.8 539.7 L 109.3 539.7 L 109.7 539.7 L 110.2 539.7 L 110.7 539.7 L 111.2 539.7 L 111.7 539.7 L 112.1 539.7 L 112.6 539.7 L 113.1 539.7 L 113.6 539.7 L 114.1 539.7 L 114.5 539.7 L 115.0 539.7 L 115.5 539.7 L 116.0 539.7 L 116.5 539.7 L 116.9 539.7 L 117.4 539.7 L 117.9 539.7 L 118.4 539.7 L 118.9 539.7 L 119.3 539.7 L 119.8 539.7 L 120.3 539.7 L 120.8 539.7 L 121.3 539.7 L 121.7 539.7 L 122.2 539.7 L 122.7 539.7 L 123.2 539.7 L 123.7 539.7 L 124.1 539.7 L 124.6 539.7 L 125.1 539.7 L 125.6 539.7 L 126.0 539.7 L 126.5 539.7 L 127.0 539.7 L 127.5 539.7 L 128.0 539.7 L 128.4 539.7 L 128.9 539.7 L 129.4 539.7 L 129.9 539.7 L 130.4 539.7 L 130.8 539.7 L 131.3 539.7 L 131.8 539.7 L 132.3 539.7 L 132.8 539.7 L 133.2 539.7 L 133.7 539.7 L 134.2 539.7 L 134.7 539.7 L 135.2 539.7 L 135.6 539.7 L 136.1 539.7 L 136.6 539.7 L 137.1 539.7 L 137.6 539.7 L 138.0 539.7 L 138.5 539.7 L 139.0 539.7 L 139.5 539.7 L 140.0 539.7 L 140.4 539.7 L 140.9 539.7 L 141.4 539.7 L 141.9 539.7 L 142.4 539.7 L 142.8 540.2 L 143.3 540.7 L 143.3 541.1 L 143.3 541.6 L 143.3 542.1 L 143.3 542.6 L 143.3 543.1 L 143.3 543.5 L 143.3 544.0 L 143.3 544.5 L 143.3 545.0 L 143.3 545.4 L 143.3 545.9 L 143.3 546.4 L 143.3 546.9 L 143.3 547.4 L 143.3 547.8 L 143.3 548.3 L 143.3 548.8 L 143.3 549.3 L 143.3 549.8 L 143.3 550.2 L 143.3 550.7 L 143.3 551.2 L 143.3 551.7 L 143.3 552.2 L 143.3 552.6 L 143.3 553.1 L 143.3 553.6 L 143.3 554.1 L 143.3 554.6 L 143.3 555.0 L 143.3 555.5 L 143.3 556.0 L 143.3 556.5 L 143.3 557.0 L 143.3 557.4 L 143.3 557.9 L 143.3 558.4 L 143.3 558.9 L 143.8 559.4 L 143.8 559.8 L 143.8 560.3 L 143.8 560.8 L 143.8 561.3 L 143.8 561.8 L 143.8 562.2 L 143.8 562.7 L 143.8 563.2 L 143.3 563.7 L 143.8 564.2 L 143.8 564.6 L 143.8 565.1 L 143.8 565.6 L 143.8 566.1 L 143.8 566.6 L 143.8 567.0 L 143.8 567.5 L 143.8 568.0 L 143.8 568.5 L 143.8 569.0 L 143.8 569.4 L 143.8 569.9 L 143.8 570.4 L 143.8 570.9 L 143.8 571.4 L 143.8 571.8 L 143.8 572.3 L 143.8 572.8 L 143.8 573.3 L 143.8 573.8 L 143.8 574.2 L 143.8 574.7 L 143.8 575.2 L 143.8 575.7 L 143.8 576.2 L 143.8 576.6 L 143.8 577.1 L 144.3 577.6 L 143.8 578.1 L 143.8 578.6 L 143.8 579.0 L 143.8 579.5 L 143.8 580.0 L 144.3 580.0 L 144.8 580.0 L 145.2 580.0 L 145.2 579.5 L 145.2 579.0 L 145.2 578.6 L 145.2 578.1 L 145.2 577.6 L 145.2 577.1 L 145.2 576.6 L 145.2 576.2 L 145.2 575.7 L 144.8 575.2 L 144.8 574.7 L 144.8 574.2 L 144.8 573.8 L 145.2 573.3 L 145.2 572.8 L 145.2 572.3 L 145.2 571.8 L 145.2 571.4 L 145.2 570.9 L 145.2 570.4 L 145.2 569.9 L 145.2 569.4 L 144.8 569.0 L 144.8 568.5 L 144.8 568.0 L 144.8 567.5 L 144.8 567.0 L 144.8 566.6 L 144.8 566.1 L 144.8 565.6 L 144.8 565.1 L 144.8 564.6 L 144.8 564.2 L 144.8 563.7 L 144.8 563.2 L 144.8 562.7 L 144.8 562.2 L 144.8 561.8 L 144.8 561.3 L 144.8 560.8 L 144.8 560.3 L 144.8 559.8 L 144.8 559.4 L 144.8 558.9 L 144.8 558.4 L 144.8 557.9 L 144.8 557.4 L 144.8 557.0 L 144.8 556.5 L 144.8 556.0 L 144.8 555.5 L 144.8 555.0 L 144.8 554.6 L 144.8 554.1 L 144.8 553.6 L 144.8 553.1 L 144.8 552.6 L 144.8 552.2 L 144.8 551.7 L 144.8 551.2 L 144.8 550.7 L 144.8 550.2 L 144.8 549.8 L 144.8 549.3 L 144.8 548.8 L 144.8 548.3 L 144.8 547.8 L 144.8 547.4 L 144.8 546.9 L 144.8 546.4 L 144.8 545.9 L 144.8 545.4 L 144.8 545.0 L 144.8 544.5 L 144.8 544.0 L 144.8 543.5 L 144.8 543.1 L 144.8 542.6 L 144.8 542.1 L 144.8 541.6 L 144.3 541.1 L 144.3 540.7 L 144.3 540.2 L 144.3 539.7 L 144.8 539.2 L 144.3 538.7 L 144.3 538.3 L 144.3 537.8 L 144.3 537.3 L 144.8 536.8 L 144.8 536.3 L 144.8 535.9 L 144.8 535.4 L 144.3 534.9 L 144.3 534.4 L 144.3 533.9 L 144.3 533.5 L 144.3 533.0 L 144.3 532.5 L 144.3 532.0 L 144.3 531.5 L 144.3 531.1 L 144.3 530.6 L 144.8 530.1 L 144.8 529.6 L 144.8 529.1 L 144.8 528.7 L 144.8 528.2 L 144.8 527.7 L 144.8 527.2 L 144.8 526.7 L 144.8 526.3 L 144.8 525.8 L 144.3 525.3 L 144.3 524.8 L 144.3 524.3 L 144.3 523.9 L 144.3 523.4 L 144.3 522.9 L 144.3 522.4 L 144.3 521.9 L 144.3 521.5 L 144.3 521.0 L 144.3 520.5 L 144.3 520.0 L 144.3 519.5 L 144.3 519.1 L 144.3 518.6 L 144.3 518.1 L 144.3 517.6 L 143.8 517.1 L 143.8 516.7 L 144.3 516.2 L 144.3 515.7 L 144.3 515.2 L 144.3 514.7 L 144.3 514.3 L 144.3 513.8 L 144.3 513.3 L 144.3 512.8 L 144.3 512.3 L 144.3 511.9 L 144.3 511.4 L 144.3 510.9 L 144.3 510.4 L 144.3 509.9 L 144.3 509.5 L 144.3 509.0 L 144.3 508.5 L 144.3 508.0 L 143.8 507.5 L 143.8 507.1 L 143.8 506.6 L 143.8 506.1 L 143.8 505.6 L 143.8 505.1 L 143.8 504.7 L 144.3 504.2 L 144.3 503.7 L 144.3 503.2 L 144.3 502.7 L 144.3 502.3 L 143.8 501.8 L 143.8 501.3 L 143.8 500.8 L 143.8 500.3 L 143.8 499.9 L 143.8 499.4 L 143.8 498.9 L 143.8 498.4 L 143.8 497.9 L 143.8 497.5 L 143.8 497.0 L 143.8 496.5 L 143.8 496.0 L 143.8 495.5 L 144.3 495.1 L 144.3 494.6 L 144.3 494.1 L 143.8 493.6 L 143.8 493.1 L 143.8 492.7 L 143.3 492.2 L 143.3 491.7 L 143.3 491.2 L 143.3 490.7 L 143.8 490.3 L 143.8 489.8 L 144.3 489.3 L 144.3 488.8 L 144.3 488.3 L 144.3 487.9 L 144.3 487.4 L 143.8 486.9 L 143.8 486.4 L 143.8 485.9 L 143.3 485.5 L 143.3 485.0 L 143.3 484.5 L 143.3 484.0 L 143.3 483.5 L 143.3 483.1 L 143.3 482.6 L 143.3 482.1 L 143.8 481.6 L 144.3 481.1 L 144.3 480.7 L 144.3 480.2 L 144.3 479.7 L 144.3 479.2 L 144.3 478.7 L 144.3 478.3 L 144.3 477.8 L 144.3 477.3 L 144.3 476.8 L 144.3 476.3 L 144.3 475.9 L 144.3 475.4 L 144.3 474.9 L 144.3 474.4 L 144.3 474.0 L 144.3 473.5 L 143.8 473.0 L 143.8 472.5 L 143.8 472.0 L 143.8 471.6 L 143.8 471.1 L 143.8 470.6 L 143.8 470.1 L 143.8 469.6 L 143.8 469.2 L 143.8 468.7 L 143.8 468.2 L 143.8 467.7 L 143.8 467.2 L 143.8 466.8 L 143.8 466.3 L 143.8 465.8 L 143.8 465.3 L 143.8 464.8 L 143.8 464.4 L 143.8 463.9 L 143.8 463.4 L 143.8 462.9 L 143.8 462.4 L 143.8 462.0 L 143.8 461.5 L 143.8 461.0 L 143.8 460.5 L 143.8 460.0 L 143.8 459.6 L 143.8 459.1 L 143.8 458.6 L 143.8 458.1 L 143.8 457.6 L 143.8 457.2 L 143.8 456.7 L 143.8 456.2 L 143.8 455.7 L 143.8 455.2 L 143.8 454.8 L 143.8 454.3 L 143.8 453.8 L 143.8 453.3 L 143.8 452.8 L 143.8 452.4 L 143.8 451.9 L 143.8 451.4 L 143.8 450.9 L 143.8 450.4 L 143.8 450.0 L 143.8 449.5 L 143.8 449.0 L 143.8 448.5 L 143.8 448.0 L 143.8 447.6 L 143.8 447.1 L 143.8 446.6 L 143.8 446.1 L 143.8 445.6 L 143.8 445.2 L 143.8 444.7 L 143.8 444.2 L 143.8 443.7 L 143.8 443.2 L 143.8 442.8 L 143.8 442.3 L 143.8 441.8 L 143.8 441.3 L 143.8 440.8 L 143.8 440.4 L 143.3 439.9 L 143.3 439.4 L 143.3 438.9 L 143.8 438.4 L 143.8 438.0 L 143.3 437.5 L 143.3 437.0 L 143.3 436.5 L 143.3 436.0 L 143.3 435.6 L 143.8 435.1 L 143.8 434.6 L 143.8 434.1 L 143.3 433.6 L 143.3 433.2 L 143.3 432.7 L 143.3 432.2 L 143.3 431.7 L 143.3 431.2 L 143.3 430.8 L 143.3 430.3 L 143.3 429.8 L 143.3 429.3 L 143.3 428.8 L 143.3 428.4 L 143.3 427.9 L 143.3 427.4 L 143.3 426.9 L 143.3 426.4 L 143.3 426.0 L 143.3 425.5 L 143.3 425.0 L 143.3 424.5 L 143.3 424.0 L 143.3 423.6 L 143.3 423.1 L 143.3 422.6 L 143.3 422.1 L 143.3 421.6 L 143.3 421.2 L 143.3 420.7 L 143.3 420.2 L 143.3 419.7 L 143.3 419.2 L 142.8 418.8 L 142.8 418.3 L 142.8 417.8 L 142.8 417.3 L 142.8 416.8 L 142.8 416.4 L 142.8 415.9 L 142.8 415.4 L 142.8 414.9 L 142.8 414.4 L 142.8 414.0 L 142.8 413.5 L 142.8 413.0 L 142.8 412.5 L 142.8 412.0 L 142.8 411.6 L 142.8 411.1 L 142.8 410.6 L 142.8 410.1 L 142.8 409.6 L 142.8 409.2 L 142.8 408.7 L 142.8 408.2 L 142.8 407.7 L 142.8 407.2 L 142.8 406.8 L 142.8 406.3 L 142.8 405.8 L 142.8 405.3 L 142.8 404.9 L 142.8 404.4 L 142.8 403.9 L 142.8 403.4 L 142.8 402.9 L 142.8 402.5 L 142.8 402.0 L 142.8 401.5 L 142.8 401.0 L 142.8 400.5 L 142.8 400.1 L 142.8 399.6 L 142.8 399.1 L 142.8 398.6 L 142.8 398.1 L 142.4 397.7 L 142.4 397.2 L 142.4 396.7 L 142.4 396.2 L 142.4 395.7 L 142.4 395.3 L 142.4 394.8 L 142.8 394.3 L 142.8 393.8 L 142.8 393.3 L 142.8 392.9 L 142.8 392.4 L 142.8 391.9 L 142.8 391.4 L 142.8 390.9 L 142.8 390.5 L 142.4 390.0 L 142.8 389.5 L 142.8 389.0 L 142.4 388.5 L 142.4 388.1 L 142.4 387.6 L 142.4 387.1 L 142.4 386.6 L 142.4 386.1 L 142.4 385.7 L 142.4 385.2 L 142.4 384.7 L 142.8 384.2 L 142.4 383.7 L 142.4 383.3 L 142.4 382.8 L 142.4 382.3 L 142.4 381.8 L 142.8 381.3 L 142.8 380.9 L 142.4 380.4 L 142.4 379.9 L 142.4 379.4 L 142.4 378.9 L 142.4 378.5 L 142.4 378.0 L 142.4 377.5 L 141.9 377.0 L 141.9 376.5 L 141.9 376.1 L 141.9 375.6 L 141.9 375.1 L 141.9 374.6 L 141.9 374.1 L 141.9 373.7 L 142.4 373.2 L 142.4 372.7 L 142.4 372.2 L 142.8 371.7 L 142.8 371.3 L 142.8 370.8 L 142.8 370.3 L 143.3 369.8 L 143.3 369.3 L 143.3 368.9 L 143.8 368.4 L 143.8 367.9 L 143.8 367.4 L 143.8 366.9 L 143.8 366.5 L 143.8 366.0 L 144.3 365.5 L 144.3 365.0 L 144.3 364.5 L 144.8 364.1 L 144.8 363.6 L 145.2 363.1 L 145.2 362.6 L 145.7 362.1 L 146.2 361.7 L 146.2 361.2 L 146.2 360.7 L 146.2 360.2 L 146.7 359.7 L 147.2 359.3 L 147.2 358.8 L 147.6 358.3 L 148.1 357.8 L 148.1 357.3 L 148.6 356.9 L 149.1 356.4 L 149.6 355.9 L 150.0 355.4 L 150.5 354.9 L 150.5 354.5 L 150.5 354.0 L 151.0 353.5 L 151.5 353.0 L 152.0 352.5 L 152.0 352.1 L 152.0 351.6 L 152.4 351.1 L 152.4 350.6 L 152.4 350.1 L 152.4 349.7 L 152.4 349.2 L 152.4 348.7 L 152.4 348.2 L 152.9 347.7 L 152.9 347.3 L 152.9 346.8 L 152.4 346.3 L 152.4 345.8 L 152.4 345.3 L 152.4 344.9 L 152.4 344.4 L 152.4 343.9 L 152.4 343.4 L 152.4 342.9 L 152.4 342.5 L 152.4 342.0 L 152.4 341.5 L 152.4 341.0 L 152.4 340.5 L 152.9 340.1 L 152.9 339.6 L 152.9 339.1 L 152.9 338.6 L 152.9 338.1 L 152.9 337.7 L 152.9 337.2 L 152.9 336.7 L 152.9 336.2 L 152.9 335.7 L 152.9 335.3 L 152.9 334.8 L 152.9 334.3 L 153.4 333.8 L 153.4 333.4 L 152.9 332.9 L 153.4 332.4 L 153.4 331.9 L 153.4 331.4 L 153.4 331.0 L 153.4 330.5 L 153.4 330.0 L 153.4 329.5 L 153.4 329.0 L 153.4 328.6 L 153.4 328.1 L 153.4 327.6 L 153.4 327.1 L 153.4 326.6 L 153.4 326.2 L 153.9 325.7 L 153.9 325.2 L 153.9 324.7 L 153.9 324.2 L 153.9 323.8 L 153.9 323.3 L 153.9 322.8 L 153.9 322.3 L 153.9 321.8 L 153.9 321.4 L 153.9 320.9 L 153.9 320.4 L 153.9 319.9 L 153.9 319.4 L 153.9 319.0 L 153.9 318.5 L 153.9 318.0 L 153.9 317.5 L 153.9 317.0 L 153.9 316.6 L 153.9 316.1 L 153.9 315.6 L 154.4 315.1 L 154.8 314.6 L 155.3 314.6 L 155.8 314.6 L 156.3 314.6 L 156.8 314.6 L 157.2 314.6 L 157.7 314.6 L 158.2 314.6 L 158.7 314.6 L 159.2 314.6 L 159.6 314.6 L 160.1 314.6 L 160.6 315.1 L 161.1 315.1 L 161.6 315.1 L 162.0 315.1 L 162.5 315.1 L 163.0 315.1 L 163.5 315.1 L 164.0 315.1 L 164.4 315.1 L 164.9 315.1 L 165.4 315.1 L 165.9 315.1 L 166.4 315.1 L 166.8 315.1 L 166.8 314.6 L 166.8 314.2 L 166.4 314.2 L 165.9 314.2 L 165.4 314.2 L 164.9 314.2 L 164.4 313.7 L 164.0 313.7 L 163.5 313.7 L 163.0 313.7 L 162.5 313.7 L 162.0 313.7 L 161.6 313.7 L 161.1 313.7 L 160.6 313.7 L 160.1 313.7 L 159.6 313.2 L 159.2 313.2 L 158.7 313.2 L 158.2 313.2 L 157.7 313.2 L 157.2 313.2 L 156.8 313.2 L 156.3 313.2 L 155.8 313.2 L 155.3 313.2 L 154.8 313.2 L 154.4 312.7 L 154.4 312.2 L 154.4 311.8 L 154.4 311.3 L 154.4 310.8 L 154.4 310.3 L 154.4 309.8 L 154.4 309.4 L 154.8 308.9 L 154.8 308.4 L 154.8 307.9 L 154.8 307.4 L 154.8 307.0 L 154.8 306.5 L 154.8 306.0 L 154.8 305.5 L 154.8 305.0 L 154.8 304.6 L 154.8 304.1 L 154.8 303.6 L 154.8 303.1 L 154.8 302.6 L 155.3 302.2 L 155.3 301.7 L 155.3 301.2 L 155.3 300.7 L 155.3 300.2 L 155.3 299.8 L 155.3 299.3 L 155.3 298.8 L 155.3 298.3 L 155.3 297.8 L 155.3 297.4 L 155.3 296.9 L 155.3 296.4 L 155.3 295.9 L 155.3 295.4 L 155.3 295.0 L 155.3 294.5 L 155.3 294.0 L 155.3 293.5 L 155.3 293.0 L 155.3 292.6 L 155.3 292.1 L 155.3 291.6 L 155.3 291.1 L 155.3 290.6 L 155.8 290.2 L 155.8 289.7 L 155.8 289.2 L 155.8 288.7 L 155.8 288.2 L 155.8 287.8 L 155.8 287.3 L 155.8 286.8 L 155.8 286.3 L 155.8 285.8 L 155.8 285.4 L 155.8 284.9 L 155.8 284.4 L 155.8 283.9 L 155.8 283.4 L 155.8 283.0 L 155.8 282.5 L 155.8 282.0 L 155.8 281.5 L 155.8 281.0 L 155.8 280.6 L 156.3 280.1 L 156.3 279.6 L 156.3 279.1 L 156.3 278.6 L 156.3 278.2 L 156.3 277.7 L 156.3 277.2 L 156.3 276.7 L 156.3 276.2 L 156.8 275.8 L 156.8 275.3 L 156.8 274.8 L 156.3 274.3 L 156.3 273.8 L 156.3 273.4 L 156.3 272.9 L 156.3 272.4 L 156.3 271.9 L 156.8 271.4 L 156.8 271.0 L 156.8 270.5 L 156.8 270.0 L 156.8 269.5 L 156.8 269.0 L 156.8 268.6 L 156.8 268.1 L 156.8 267.6 L 156.8 267.1 L 156.8 266.6 L 156.8 266.2 L 156.8 265.7 L 156.8 265.2 L 157.2 264.7 L 157.2 264.3 L 157.2 263.8 L 157.2 263.3 L 157.2 262.8 L 157.2 262.3 L 157.2 261.9 L 157.2 261.4 L 157.7 260.9 L 158.2 260.9 L 158.7 260.9 L 159.2 260.9 L 159.6 260.9 L 160.1 260.9 L 160.6 260.9 L 161.1 260.9 L 161.6 260.9 L 162.0 260.9 L 162.5 260.9 L 163.0 260.9 L 163.5 260.9 L 164.0 260.9 L 164.4 260.9 L 164.9 260.9 L 165.4 260.9 L 165.9 260.9 L 166.4 260.9 L 166.8 260.9 L 167.3 260.9 L 167.8 260.9 L 168.3 260.9 L 168.8 260.9 L 169.2 260.9 L 169.2 260.4 L 169.2 259.9 L 168.8 259.9 L 168.3 259.9 L 167.8 259.9 L 167.3 259.9 L 166.8 259.9 L 166.4 259.9 L 165.9 259.9 L 165.4 259.9 L 164.9 259.9 L 164.4 259.9 L 164.0 259.9 L 163.5 259.9 L 163.0 259.9 L 162.5 259.9 L 162.0 259.9 L 161.6 259.9 L 161.1 259.9 L 160.6 259.9 L 160.1 259.9 L 159.6 259.9 L 159.2 259.9 L 158.7 259.9 L 158.2 259.9 L 157.7 259.5 L 157.2 259.0 L 157.2 258.5 L 157.2 258.0 L 157.2 257.5 L 157.2 257.1 L 157.2 256.6 L 157.7 256.1 L 157.7 255.6 L 157.7 255.1 L 157.7 254.7 L 157.7 254.2 L 157.7 253.7 L 157.7 253.2 L 157.7 252.7 L 157.7 252.3 L 157.7 251.8 L 157.7 251.3 L 157.7 250.8 L 157.7 250.3 L 157.7 249.9 L 157.7 249.4 L 157.7 248.9 L 158.2 248.4 L 158.2 247.9 L 158.2 247.5 L 158.2 247.0 L 158.2 246.5 L 158.2 246.0 L 158.2 245.5 L 158.2 245.1 L 158.2 244.6 L 158.2 244.1 L 158.2 243.6 L 158.2 243.1 L 158.2 242.7 L 158.2 242.2 L 158.2 241.7 L 158.2 241.2 L 158.2 240.7 L 158.2 240.3 L 158.2 239.8 L 158.2 239.3 L 158.2 238.8 L 158.2 238.3 L 158.7 237.9 L 158.7 237.4 L 158.7 236.9 L 158.7 236.4 L 158.7 235.9 L 158.7 235.5 L 158.7 235.0 L 158.7 234.5 L 158.7 234.0 L 158.7 233.5 L 158.7 233.1 L 158.7 232.6 L 158.7 232.1 L 158.7 231.6 L 158.7 231.1 L 158.7 230.7 L 158.7 230.2 L 158.7 229.7 L 158.7 229.2 L 159.2 228.7 L 159.2 228.3 L 159.2 227.8 L 159.2 227.3 L 159.2 226.8 L 159.2 226.3 L 159.2 225.9 L 159.2 225.4 L 159.2 224.9 L 159.2 224.4 L 159.2 223.9 L 159.2 223.5 L 159.2 223.0 L 159.2 222.5 L 159.2 222.0 L 159.2 221.5 L 159.2 221.1 L 159.6 220.6 L 159.6 220.1 L 159.6 219.6 L 159.6 219.1 L 159.6 218.7 L 159.6 218.2 L 159.6 217.7 L 159.6 217.2 L 159.6 216.7 L 159.6 216.3 L 159.6 215.8 L 159.6 215.3 L 159.6 214.8 L 159.6 214.3 L 159.6 213.9 L 159.6 213.4 L 159.6 212.9 L 160.1 212.4 L 160.6 212.4 L 161.1 212.4 L 161.6 212.4 L 161.1 212.4 L 160.6 212.4 L 160.1 212.4 L 159.6 212.4 L 159.2 212.4 L 158.7 212.4 L 158.2 211.9 L 158.7 211.5 L 158.7 211.0 L 158.7 210.5 L 158.7 210.0 L 158.7 209.5 L 159.2 209.1 L 158.7 208.6 L 158.7 208.1 L 158.7 207.6 L 158.7 207.1 L 159.2 206.7 L 159.2 206.2 L 159.2 205.7 L 159.2 205.2 L 159.2 204.7 L 159.2 204.3 L 159.2 203.8 L 159.2 203.3 L 159.2 202.8 L 159.2 202.3 L 159.2 201.9 L 159.2 201.4 L 159.2 200.9 L 159.6 200.4 L 159.6 199.9 L 159.6 199.5 L 159.6 199.0 L 159.6 198.5 L 159.6 198.0 L 159.6 197.5 L 159.6 197.1 L 159.6 196.6 L 159.6 196.1 L 159.6 195.6 L 159.6 195.1 L 159.6 194.7 L 159.6 194.2 L 159.6 193.7 L 159.6 193.2 L 159.6 192.8 L 159.6 192.3 L 160.1 191.8 L 159.6 191.3 L 159.6 190.8 L 159.6 190.4 L 159.6 189.9 L 159.6 189.4 L 160.1 188.9 L 160.1 188.4 L 160.1 188.0 L 160.1 187.5 L 160.1 187.0 L 160.1 186.5 L 160.1 186.0 L 160.1 185.6 L 160.1 185.1 L 160.1 184.6 L 160.1 184.1 L 160.1 183.6 L 160.6 183.2 L 160.6 182.7 L 160.6 182.2 L 160.6 181.7 L 160.6 181.2 L 160.6 180.8 L 160.6 180.3 L 160.6 179.8 L 160.6 179.3 L 160.6 178.8 L 160.6 178.4 L 160.6 177.9 L 160.6 177.4 L 160.6 176.9 L 160.6 176.4 L 160.6 176.0 L 160.6 175.5 L 160.6 175.0 L 160.6 174.5 L 161.1 174.0 L 161.1 173.6 L 161.1 173.1 L 161.1 172.6 L 161.1 172.1 L 161.1 171.6 L 161.1 171.2 L 161.1 170.7 L 161.1 170.2 L 161.6 169.7 L 161.6 169.2 L 161.6 168.8 L 161.6 168.3 L 161.6 167.8 L 161.6 167.3 L 161.6 166.8 L 161.6 166.4 L 161.6 165.9 L 161.6 165.4 L 161.6 164.9 L 161.6 164.4 L 161.6 164.0 L 161.6 163.5 L 161.6 163.0 L 161.6 162.5 L 161.6 162.0 L 161.1 162.0 L 160.6 162.0 L 160.1 162.0 L 159.6 162.0 L 159.2 161.6 L 159.2 161.1 L 159.6 160.6 L 160.1 160.6 L 160.6 160.6 L 161.1 160.6 L 161.6 160.6 L 161.6 160.1 L 161.6 159.6 L 162.0 159.2 L 162.0 158.7 L 162.5 158.2 L 163.0 158.7 L 163.0 159.2 L 163.0 159.6 L 163.5 160.1 L 163.5 160.6 L 164.0 160.6 L 164.4 160.6 L 164.9 160.6 L 165.4 160.6 L 165.9 160.6 L 166.4 160.6 L 166.8 160.6 L 167.3 160.6 L 167.8 160.6 L 168.3 160.6 L 168.8 160.6 L 169.2 160.6 L 169.7 160.6 L 170.2 161.1 L 170.7 161.1 L 171.2 161.1 L 171.6 161.1 L 172.1 161.1 L 172.6 161.1 L 173.1 161.1 L 173.6 161.1 L 174.0 161.1 L 174.5 161.1 L 175.0 160.6 L 175.5 161.1 L 176.0 161.6 L 175.5 162.0 L 175.0 162.5 L 174.5 162.5 L 174.0 162.5 L 173.6 162.5 L 173.1 162.5 L 172.6 162.5 L 172.1 162.5 L 171.6 162.5 L 171.2 162.5 L 170.7 162.0 L 170.2 162.0 L 169.7 162.0 L 169.2 162.0 L 168.8 162.0 L 168.3 162.0 L 167.8 162.0 L 167.3 162.0 L 166.8 162.0 L 166.4 162.0 L 165.9 162.0 L 165.4 162.0 L 164.9 162.0 L 164.4 162.0 L 164.0 162.0 L 163.5 161.6 L 163.0 162.0 L 163.0 162.5 L 163.0 163.0 L 163.0 163.5 L 163.0 164.0 L 163.0 164.4 L 163.0 164.9 L 163.0 165.4 L 163.0 165.9 L 163.0 166.4 L 163.0 166.8 L 163.0 167.3 L 163.0 167.8 L 163.0 168.3 L 163.0 168.8 L 163.0 169.2 L 162.5 169.7 L 162.5 170.2 L 162.5 170.7 L 162.5 171.2 L 162.5 171.6 L 162.5 172.1 L 162.5 172.6 L 162.5 173.1 L 162.5 173.6 L 162.0 174.0 L 162.0 174.5 L 162.0 175.0 L 162.0 175.5 L 162.0 176.0 L 162.0 176.4 L 162.0 176.9 L 162.0 177.4 L 162.0 177.9 L 162.0 178.4 L 162.0 178.8 L 162.0 179.3 L 162.0 179.8 L 162.0 180.3 L 162.0 180.8 L 162.0 181.2 L 162.0 181.7 L 162.0 182.2 L 161.6 182.7 L 161.6 183.2 L 161.6 183.6 L 161.6 184.1 L 161.6 184.6 L 161.6 185.1 L 161.6 185.6 L 161.6 186.0 L 161.6 186.5 L 161.6 187.0 L 161.6 187.5 L 161.6 188.0 L 161.1 188.4 L 161.1 188.9 L 161.1 189.4 L 161.1 189.9 L 161.1 190.4 L 161.1 190.8 L 161.1 191.3 L 161.1 191.8 L 161.1 192.3 L 161.1 192.8 L 161.1 193.2 L 161.1 193.7 L 161.1 194.2 L 161.1 194.7 L 161.1 195.1 L 160.6 195.6 L 160.6 196.1 L 160.6 196.6 L 160.6 197.1 L 160.6 197.5 L 160.6 198.0 L 160.6 198.5 L 160.6 199.0 L 160.6 199.5 L 160.6 199.9 L 160.6 200.4 L 160.6 200.9 L 160.6 201.4 L 160.6 201.9 L 160.1 202.3 L 160.1 202.8 L 160.1 203.3 L 160.1 203.8 L 160.1 204.3 L 160.1 204.7 L 160.1 205.2 L 160.1 205.7 L 160.1 206.2 L 160.1 206.7 L 160.1 207.1 L 160.1 207.6 L 160.1 208.1 L 160.1 208.6 L 160.1 209.1 L 160.1 209.5 L 160.1 210.0 L 160.1 210.5 L 160.1 211.0 L 160.6 211.0 L 161.1 211.0 L 161.6 211.5 L 161.1 211.0 L 160.6 211.0 L 160.1 210.5 L 160.1 210.0 L 160.1 209.5 L 160.1 209.1 L 160.1 208.6 L 160.1 208.1 L 160.1 207.6 L 160.1 207.1 L 160.1 206.7 L 160.1 206.2 L 160.1 205.7 L 160.1 205.2 L 160.1 204.7 L 160.1 204.3 L 160.1 203.8 L 160.1 203.3 L 160.1 202.8 L 160.1 202.3 L 160.6 201.9 L 160.6 201.4 L 160.6 200.9 L 160.6 200.4 L 160.6 199.9 L 160.6 199.5 L 160.6 199.0 L 160.6 198.5 L 160.6 198.0 L 160.6 197.5 L 160.6 197.1 L 160.6 196.6 L 160.6 196.1 L 160.6 195.6 L 161.1 195.1 L 161.1 194.7 L 161.1 194.2 L 161.1 193.7 L 161.1 193.2 L 161.1 192.8 L 161.1 192.3 L 161.1 191.8 L 161.1 191.3 L 161.1 190.8 L 161.1 190.4 L 161.1 189.9 L 161.1 189.4 L 161.1 188.9 L 161.1 188.4 L 161.6 188.0 L 161.6 187.5 L 161.6 187.0 L 161.6 186.5 L 161.6 186.0 L 161.6 185.6 L 161.6 185.1 L 161.6 184.6 L 161.6 184.1 L 161.6 183.6 L 161.6 183.2 L 161.6 182.7 L 162.0 182.2 L 162.0 181.7 L 162.0 181.2 L 162.0 180.8 L 162.0 180.3 L 162.0 179.8 L 162.0 179.3 L 162.0 178.8 L 162.0 178.4 L 162.0 177.9 L 162.0 177.4 L 162.0 176.9 L 162.0 176.4 L 162.0 176.0 L 162.0 175.5 L 162.0 175.0 L 162.0 174.5 L 162.0 174.0 L 162.5 173.6 L 162.5 173.1 L 162.5 172.6 L 162.5 172.1 L 162.5 171.6 L 162.5 171.2 L 162.5 170.7 L 162.5 170.2 L 162.5 169.7 L 163.0 169.2 L 163.0 168.8 L 163.0 168.3 L 163.0 167.8 L 163.0 167.3 L 163.0 166.8 L 163.0 166.4 L 163.0 165.9 L 163.0 165.4 L 163.0 164.9 L 163.0 164.4 L 163.0 164.0 L 163.0 163.5 L 163.0 163.0 L 163.0 162.5 L 163.5 162.0 L 164.0 162.0 L 164.4 162.0 L 164.9 162.0 L 165.4 162.0 L 165.9 162.0 L 166.4 162.0 L 166.8 162.0 L 167.3 162.0 L 167.8 162.0 L 168.3 162.0 L 168.8 162.0 L 169.2 162.0 L 169.7 162.0 L 170.2 162.0 L 170.7 162.0 L 171.2 162.5 L 171.6 162.5 L 172.1 162.5 L 172.6 162.5 L 173.1 162.5 L 173.6 162.5 L 174.0 162.5 L 174.5 162.5 L 175.0 162.5 L 175.5 162.5 L 176.0 162.0 L 176.0 161.6 L 175.5 161.1 L 175.0 160.6 L 174.5 161.1 L 174.0 161.1 L 173.6 161.1 L 173.1 161.1 L 172.6 161.1 L 172.1 161.1 L 171.6 161.1 L 171.2 161.1 L 170.7 161.1 L 170.2 161.1 L 169.7 160.6 L 169.2 160.6 L 168.8 160.6 L 168.3 160.6 L 167.8 160.6 L 167.3 160.6 L 166.8 160.6 L 166.4 160.6 L 165.9 160.6 L 165.4 160.6 L 164.9 160.6 L 164.4 160.6 L 164.0 160.6 L 163.5 160.1 L 163.0 159.6 L 163.0 159.2 L 163.0 158.7 L 163.0 158.2 L 163.0 157.7 L 163.0 157.2 L 163.5 156.8 L 163.5 156.3 L 163.5 155.8 L 163.5 155.3 L 163.5 154.8 L 163.5 154.4 L 163.5 153.9 L 163.5 153.4 L 163.5 152.9 L 163.5 152.4 L 163.5 152.0 L 163.5 151.5 L 163.5 151.0 L 163.5 150.5 L 163.5 150.0 L 163.5 149.6 L 163.5 149.1 L 163.5 148.6 L 163.5 148.1 L 164.0 147.6 L 164.0 147.2 L 164.0 146.7 L 164.0 146.2 L 164.0 145.7 L 164.0 145.2 L 164.0 144.8 L 164.0 144.3 L 164.0 143.8 L 164.0 143.3 L 164.0 142.8 L 164.0 142.4 L 164.0 141.9 L 164.0 141.4 L 164.0 140.9 L 164.0 140.4 L 164.4 140.0 L 164.4 139.5 L 164.4 139.0 L 164.4 138.5 L 164.4 138.0 L 164.4 137.6 L 164.4 137.1 L 164.4 136.6 L 164.4 136.1 L 164.4 135.6 L 164.4 135.2 L 164.4 134.7 L 164.4 134.2 L 164.9 133.7 L 164.9 133.2 L 164.9 132.8 L 164.9 132.3 L 164.9 131.8 L 164.9 131.3 L 164.9 130.8 L 164.9 130.4 L 164.9 129.9 L 164.9 129.4 L 164.9 128.9 L 164.9 128.4 L 164.9 128.0 L 164.9 127.5 L 164.9 127.0 L 164.9 126.5 L 164.9 126.0 L 164.9 125.6 L 164.9 125.1 L 164.9 124.6 L 164.9 124.1 L 164.9 123.7 L 165.4 123.2 L 165.4 122.7 L 165.4 122.2 L 165.4 121.7 L 165.4 121.3 L 165.4 120.8 L 165.4 120.3 L 165.4 119.8 L 165.4 119.3 L 165.4 118.9 L 165.4 118.4 L 165.4 117.9 L 165.4 117.4 L 165.4 116.9 L 165.4 116.5 L 165.9 116.0 L 165.9 115.5 L 166.4 115.0 L 166.8 115.0 L 167.3 115.0 L 167.8 115.0 L 168.3 115.0 L 168.8 115.0 L 169.2 115.0 L 169.7 115.0 L 170.2 115.0 L 170.7 115.0 L 171.2 115.0 L 171.6 115.0 L 172.1 115.0 L 172.6 115.0 L 173.1 115.0 L 173.6 115.0 L 174.0 115.0 L 174.5 115.0 L 175.0 115.0 L 174.5 115.0 L 174.0 115.0 L 173.6 115.0 L 173.1 115.0 L 172.6 115.0 L 172.1 114.5 L 172.6 114.1 L 173.1 114.1 L 173.6 114.1 L 174.0 114.1 L 174.5 114.1 L 175.0 114.1 L 174.5 114.1 L 174.0 114.1 L 173.6 114.1 L 173.1 114.1 L 172.6 114.1 L 172.1 114.1 L 171.6 114.1 L 171.2 114.1 L 170.7 114.1 L 170.2 114.1 L 169.7 114.1 L 169.2 114.1 L 168.8 114.1 L 168.3 114.1 L 167.8 113.6 L 167.3 113.6 L 166.8 113.6 L 166.4 113.6 L 165.9 113.1 L 165.9 112.6 L 165.9 112.1 L 165.9 111.7 L 165.9 111.2 L 165.9 110.7 L 165.9 110.2 L 165.9 109.7 L 165.9 109.3 L 165.9 108.8 L 166.4 108.3 L 166.4 107.8 L 166.4 107.3 L 166.4 106.9 L 166.4 106.4 L 166.4 105.9 L 166.4 105.4 L 166.4 104.9 L 166.4 104.5 L 166.4 104.0 L 166.4 103.5 L 166.4 103.0 L 166.4 102.5 L 166.4 102.1 L 166.4 101.6 L 166.4 101.1 L 166.4 100.6 L 166.4 100.1 L 166.8 99.7 L 166.8 99.2 L 166.8 98.7 L 166.8 98.2 L 166.8 97.7 L 166.8 97.3 L 166.8 96.8 L 166.8 96.3 L 166.8 95.8 L 166.8 95.3 L 166.8 94.9 L 166.8 94.4 L 166.8 93.9 L 166.8 93.4 L 167.3 92.9 L 167.3 92.5 L 167.3 92.0 L 167.3 91.5 L 167.3 91.0 L 167.3 90.5 L 167.3 90.1 L 167.3 89.6 L 167.3 89.1 L 167.3 88.6 L 167.3 88.1 L 167.3 87.7 L 167.3 87.2 L 167.3 86.7 L 167.3 86.2 L 167.3 85.7 L 167.3 85.3 L 167.8 84.8 L 167.8 84.3 L 167.8 83.8 L 167.8 83.3 L 167.8 82.9 L 167.8 82.4 L 167.8 81.9 L 167.8 81.4 L 168.3 80.9 L 168.3 80.5 L 168.3 80.0 L 168.3 79.5 L 168.3 79.0 L 168.3 78.5 L 168.3 78.1 L 167.8 77.6 L 167.8 77.1 L 167.3 76.6 L 167.3 76.1 L 166.8 75.7 L 166.4 75.2 L 165.9 74.7 L 165.4 74.2 L 164.9 73.7 L 164.4 73.3 L 164.0 72.8 L 164.4 72.3 L 164.9 71.8 L 165.4 71.3 L 165.9 70.9 L 166.4 70.4 L 166.8 69.9 L 167.3 69.4 L 167.8 69.4 L 168.3 68.9 L 168.3 68.5 L 168.8 68.0 L 169.2 67.5 L 169.2 67.0 L 169.7 66.5 L 169.7 66.1 L 170.2 65.6 L 170.2 65.1 L 170.2 64.6 L 170.2 64.1 L 170.7 63.7 L 170.7 63.2 L 171.2 62.7 L 171.2 62.2 L 171.2 61.7 L 171.2 61.3 L 171.2 60.8 L 171.2 60.3 L 171.2 59.8 L 171.2 59.3 L 170.7 58.9 L 170.7 58.4 L 170.7 57.9 L 170.7 57.4 L 170.2 56.9 L 170.2 56.5 L 170.2 56.0 L 169.7 55.5 L 169.7 55.0 L 169.7 54.6 L 169.7 54.1 L 169.2 53.6 L 168.8 53.1 L 168.3 52.6 L 168.3 52.2 L 167.8 51.7 L 167.3 51.2 L 166.8 50.7 L 166.4 50.2 L 165.9 50.2 L 165.4 49.8 L 164.9 49.8 L 164.4 49.3 L 164.0 48.8 L 163.5 48.8 L 163.0 48.3 L 162.5 48.3 L 162.0 47.8 L 161.6 47.8 L 161.1 47.4 L 160.6 47.4 L 160.1 47.4 L 159.6 47.4 L 159.2 46.9 L 158.7 46.9 L 158.2 46.9 L 157.7 46.9 L 157.2 46.4 L 156.8 46.4 L 156.3 45.9 L 155.8 45.9 L 155.3 45.9 L 154.8 45.4 L 154.4 45.4 L 153.9 45.4 L 153.4 45.4 L 152.9 45.0 L 152.4 45.0 L 152.0 45.0 L 151.5 45.0 L 151.0 44.5 L 150.5 44.5 L 150.0 44.5 L 149.6 44.5 L 149.1 44.0 L 148.6 44.0 L 148.1 44.0 L 147.6 43.5 L 147.2 43.5 L 146.7 43.0 L 146.2 43.0 L 145.7 43.0 L 145.2 42.6 L 144.8 42.6 L 144.3 42.6 L 143.8 42.1 L 143.3 41.6 L 142.8 41.6 L 142.4 41.6 L 141.9 41.1 L 141.4 41.1 L 140.9 41.1 L 140.4 40.6 L 140.0 40.6 L 139.5 40.2 L 139.0 40.2 L 138.5 39.7 L 138.0 39.7 L 137.6 39.7 L 137.1 39.2 L 136.6 39.2 L 136.1 38.7 L 135.6 38.7 L 135.2 38.2 L 134.7 38.2 L 134.2 37.8 L 133.7 37.8 L 133.2 37.3 L 132.8 36.8 L 132.3 36.8 L 131.8 36.3 L 131.3 35.8 L 130.8 35.4 L 130.4 34.9 L 129.9 34.9 L 129.4 34.4 L 128.9 34.4 L 128.4 33.9 L 128.0 33.4 L 127.5 33.4 L 127.0 33.0 L 126.5 32.5 L 126.0 32.0 L 125.6 31.5 L 125.1 31.5 L 124.6 31.0 L 124.1 31.0 L 123.7 30.6 L 123.2 30.1 L 122.7 29.6 L 122.2 29.1 L 121.7 28.6 L 121.3 28.2 L 120.8 27.7 L 120.3 27.2 L 119.8 26.7 L 119.3 26.2 L 118.9 25.8 L 118.4 25.3 L 117.9 24.8 L 117.4 24.3 L 116.9 23.8 L 116.5 23.4 L 116.0 22.9 L 115.5 22.4 L 115.0 22.4 L 114.5 21.9 L 114.1 21.9 L 113.6 21.4 L 113.1 21.4 L 112.6 21.4 L 112.1 21.0 L 111.7 21.0 L 111.2 21.0 L 110.7 21.0 L 110.2 20.5 L 109.7 21.0 L 109.3 21.0 L 108.8 21.0 L 108.3 21.0 L 107.8 21.0 L 107.3 21.0 L 106.9 21.0 L 106.4 21.0 L 105.9 21.0 L 105.4 21.0 L 104.9 21.0 L 104.5 21.4 L 104.0 21.4 L 103.5 21.4 L 103.0 21.9 L 102.5 21.9 L 102.1 22.4 L 101.6 22.4 L 101.1 22.9 L 100.6 23.4 L 100.1 23.8 L 99.7 24.3 L 99.2 24.8 L 98.7 25.3 L 98.2 25.8 L 98.2 26.2 L 97.7 26.7 L 97.3 27.2 L 97.3 27.7 L 97.3 28.2 L 97.3 28.6 L 96.8 29.1 L 96.3 29.6 L 95.8 29.1 L 95.8 28.6 L 95.8 28.2 L 95.3 27.7 L 95.3 27.2 L 94.9 26.7 L 94.9 26.2 L 94.4 25.8 L 94.4 25.3 L 93.9 24.8 L 93.4 24.3 L 92.9 23.8 L 92.5 23.4 L 92.0 22.9 L 91.5 22.4 L 91.0 22.4 L 90.5 21.9 L 90.1 21.4 L 89.6 21.4 L 89.1 21.0 L 88.6 21.0 L 88.1 21.0 L 87.7 21.0 L 87.2 20.5 L 86.7 20.5 L 86.2 20.5 L 85.7 20.5 L 85.3 20.5 L 84.8 20.0 L 84.3 20.0 L 83.8 20.0 Z" fill="none" stroke="#2563eb" stroke-width="2"/>
</svg>