  0
SECTION
  2
HEADER
  9
$ACADVER
  1
AC1009
  9
$DWGCODEPAGE
  3
ANSI_1252
  9
$INSBASE
 10
0.0
 20
0.0
 30
0.0
  9
$EXTMIN
 10
1e+20
 20
1e+20
 30
1e+20
  9
$EXTMAX
 10
-1e+20
 20
-1e+20
 30
-1e+20
  9
$LIMMIN
 10
0.0
 20
0.0
  9
$LIMMAX
 10
420.0
 20
297.0
  9
$ORTHOMODE
 70
0
  9
$REGENMODE
 70
1
  9
$FILLMODE
 70
1
  9
$DRAGMODE
 70
2
  9
$QTEXTMODE
 70
0
  9
$MIRRTEXT
 70
1
  9
$OSMODE
 70
20583
  9
$LTSCALE
 40
1.0
  9
$ATTMODE
 70
1
  9
$TEXTSIZE
 40
2.5
  9
$TRACEWID
 40
1.0
  9
$TEXTSTYLE
  7
Standard
  9
$CLAYER
  8
0
  9
$CELTYPE
  6
ByLayer
  9
$CECOLOR
 62
256
  9
$DIMSCALE
 40
1.0
  9
$DIMASZ
 40
2.5
  9
$DIMEXO
 40
0.625
  9
$DIMDLI
 40
3.75
  9
$DIMRND
 40
0.0
  9
$DIMDLE
 40
0.0
  9
$DIMEXE
 40
1.25
  9
$DIMTP
 40
0.0
  9
$DIMTM
 40
0.0
  9
$DIMTXT
 40
2.5
  9
$DIMCEN
 40
2.5
  9
$DIMTSZ
 40
0.0
  9
$DIMTOL
 70
0
  9
$DIMLIM
 70
0
  9
$DIMTIH
 70
0
  9
$DIMTOH
 70
0
  9
$DIMSE1
 70
0
  9
$DIMSE2
 70
0
  9
$DIMTAD
 70
1
  9
$DIMZIN
 70
8
  9
$DIMBLK
  1

  9
$DIMASO
 70
1
  9
$DIMSHO
 70
1
  9
$DIMPOST
  1

  9
$DIMAPOST
  1

  9
$DIMALT
 70
0
  9
$DIMALTD
 70
3
  9
$DIMALTF
 40
0.03937007874
  9
$DIMLFAC
 40
1.0
  9
$DIMTOFL
 70
1
  9
$DIMTVP
 40
0.0
  9
$DIMTIX
 70
0
  9
$DIMSOXD
 70
0
  9
$DIMSAH
 70
0
  9
$DIMBLK1
  1

  9
$DIMBLK2
  1

  9
$DIMSTYLE
  2
ISO-25
  9
$DIMCLRD
 70
0
  9
$DIMCLRE
 70
0
  9
$DIMCLRT
 70
0
  9
$DIMTFAC
 40
1.0
  9
$DIMGAP
 40
0.625
  9
$COORDS
 70
1
  9
$ATTDIA
 70
0
  9
$ATTREQ
 70
1
  9
$HANDLING
 70
1
  9
$LUNITS
 70
2
  9
$LUPREC
 70
4
  9
$SKETCHINC
 40
1.0
  9
$FILLETRAD
 40
10.0
  9
$AUNITS
 70
0
  9
$AUPREC
 70
2
  9
$MENU
  1
.
  9
$ELEVATION
 40
0.0
  9
$PELEVATION
 40
0.0
  9
$THICKNESS
 40
0.0
  9
$LIMCHECK
 70
0
  9
$CHAMFERA
 40
0.0
  9
$CHAMFERB
 40
0.0
  9
$SKPOLY
 70
0
  9
$TDCREATE
 40
2461114.9983912036
  9
$TDUPDATE
 40
2461114.9983912036
  9
$TDINDWG
 40
0.0
  9
$TDUSRTIMER
 40
0.0
  9
$USRTIMER
 70
1
  9
$ANGBASE
 50
0.0
  9
$ANGDIR
 70
0
  9
$PDMODE
 70
0
  9
$PDSIZE
 40
0.0
  9
$PLINEWID
 40
0.0
  9
$SPLFRAME
 70
0
  9
$SPLINETYPE
 70
6
  9
$SPLINESEGS
 70
8
  9
$HANDSEED
  5
37F
  9
$SURFTAB1
 70
6
  9
$SURFTAB2
 70
6
  9
$SURFTYPE
 70
6
  9
$SURFU
 70
6
  9
$SURFV
 70
6
  9
$UCSNAME
  2

  9
$UCSORG
 10
0.0
 20
0.0
 30
0.0
  9
$UCSXDIR
 10
1.0
 20
0.0
 30
0.0
  9
$UCSYDIR
 10
0.0
 20
1.0
 30
0.0
  9
$PUCSNAME
  2

  9
$PUCSORG
 10
0.0
 20
0.0
 30
0.0
  9
$PUCSXDIR
 10
1.0
 20
0.0
 30
0.0
  9
$PUCSYDIR
 10
0.0
 20
1.0
 30
0.0
  9
$USERI1
 70
0
  9
$USERI2
 70
0
  9
$USERI3
 70
0
  9
$USERI4
 70
0
  9
$USERI5
 70
0
  9
$USERR1
 40
0.0
  9
$USERR2
 40
0.0
  9
$USERR3
 40
0.0
  9
$USERR4
 40
0.0
  9
$USERR5
 40
0.0
  9
$WORLDVIEW
 70
1
  9
$SHADEDGE
 70
3
  9
$SHADEDIF
 70
70
  9
$TILEMODE
 70
1
  9
$MAXACTVP
 70
64
  9
$PLIMCHECK
 70
0
  9
$PEXTMIN
 10
1e+20
 20
1e+20
 30
1e+20
  9
$PEXTMAX
 10
-1e+20
 20
-1e+20
 30
-1e+20
  9
$PLIMMIN
 10
0.0
 20
0.0
  9
$PLIMMAX
 10
420.0
 20
297.0
  9
$UNITMODE
 70
0
  9
$VISRETAIN
 70
1
  9
$PLINEGEN
 70
0
  9
$PSLTSCALE
 70
1
  0
ENDSEC
  0
SECTION
  2
TABLES
  0
TABLE
  2
VPORT
 70
1
  0
VPORT
  5
23
  2
*Active
 70
0
 10
0.0
 20
0.0
 11
1.0
 21
1.0
 12
0.0
 22
0.0
 13
0.0
 23
0.0
 14
0.5
 24
0.5
 15
0.5
 25
0.5
 16
0.0
 26
0.0
 36
1.0
 17
0.0
 27
0.0
 37
0.0
 40
1000.0
 41
1.34
 42
50.0
 43
0.0
 44
0.0
 50
0.0
 51
0.0
 71
0
 72
1000
 73
1
 74
3
 75
0
 76
0
 77
0
 78
0
  0
ENDTAB
  0
TABLE
  2
LTYPE
 70
3
  0
LTYPE
  5
24
  2
ByBlock
 70
0
  3

 72
65
 73
0
 40
0.0
  0
LTYPE
  5
25
  2
ByLayer
 70
0
  3

 72
65
 73
0
 40
0.0
  0
LTYPE
  5
26
  2
Continuous
 70
0
  3

 72
65
 73
0
 40
0.0
  0
ENDTAB
  0
TABLE
  2
LAYER
 70
5
  0
LAYER
  5
27
  2
0
 70
0
 62
7
  6
Continuous
  0
LAYER
  5
28
  2
Defpoints
 70
0
 62
7
  6
Continuous
  0
LAYER
  5
2D
  2
UNKNOWN
 70
0
 62
7
  6
Continuous
  0
LAYER
  5
18B
  2
BRIDGE_ROUTE
 70
0
 62
7
  6
Continuous
  0
LAYER
  5
1C2
  2
BODY_OUTLINE
 70
0
 62
7
  6
Continuous
  0
ENDTAB
  0
TABLE
  2
STYLE
 70
1
  0
STYLE
  5
29
  2
Standard
 70
0
 40
0.0
 41
1.0
 50
0.0
 71
0
 42
2.5
  3
txt
  4

  0
ENDTAB
  0
TABLE
  2
VIEW
 70
0
  0
ENDTAB
  0
TABLE
  2
UCS
 70
0
  0
ENDTAB
  0
TABLE
  2
APPID
 70
3
  0
APPID
  5
2A
  2
ACAD
 70
0
  0
APPID
  5
37D
  2
HATCHBACKGROUNDCOLOR
 70
0
  0
APPID
  5
37E
  2
EZDXF
 70
0
  0
ENDTAB
  0
TABLE
  2
DIMSTYLE
 70
1
  0
DIMSTYLE
105
2B
  2
Standard
 70
0
  3

  4

  5

  6

  7

 40
1.0
 41
2.5
 42
0.625
 43
3.75
 44
1.25
 45
0.0
 46
0.0
 47
0.0
 48
0.0
140
2.5
141
2.5
142
0.0
143
0.03937007874
144
1.0
145
0.0
146
1.0
147
0.625
 71
0
 72
0
 73
0
 74
0
 75
0
 76
0
 77
1
 78
8
170
0
171
3
172
1
173
0
174
0
175
0
176
0
177
0
178
0
  0
ENDTAB
  0
ENDSEC
  0
SECTION
  2
BLOCKS
  0
BLOCK
  5
18
  8
0
  2
$Model_Space
 70
0
 10
0.0
 20
0.0
 30
0.0
  3
$Model_Space
  1

1001
EZDXF
1000
CREATED_BY_EZDXF
1000
1.4.3 @ 2026-03-15T04:57:41.847890+00:00
1000
WRITTEN_BY_EZDXF
1000
1.4.3 @ 2026-03-15T04:57:41.876548+00:00
  0
ENDBLK
  5
19
  8
0
  0
BLOCK
  5
1C
  8
0
  2
$Paper_Space
 70
0
 10
0.0
 20
0.0
 30
0.0
  3
$Paper_Space
  1

  0
ENDBLK
  5
1D
  8
0
  0
ENDSEC
  0
SECTION
  2
ENTITIES
  0
POLYLINE
  5
2E
  8
UNKNOWN
 66
1
 10
0.0
 20
0.0
 30
0.0
 70
1
  0
VERTEX
  5
30
  8
UNKNOWN
 10
70.9195556640625
 20
22.938674926757812
 30
0.0
 70
0
  0
VERTEX
  5
31
  8
UNKNOWN
 10
63.37200164794922
 20
27.5211181640625
 30
0.0
 70
0
  0
VERTEX
  5
32
  8
UNKNOWN
 10
57.711334228515625
 20
31.833999633789062
 30
0.0
 70
0
  0
VERTEX
  5
33
  8
UNKNOWN
 10
51.78111267089844
 20
37.76422119140625
 30
0.0
 70
0
  0
VERTEX
  5
34
  8
UNKNOWN
 10
48.276893615722656
 20
42.077117919921875
 30
0.0
 70
0
  0
VERTEX
  5
35
  8
UNKNOWN
 10
45.85089111328125
 20
46.120452880859375
 30
0.0
 70
0
  0
VERTEX
  5
36
  8
UNKNOWN
 10
44.772666931152344
 20
46.92912292480469
 30
0.0
 70
0
  0
VERTEX
  5
37
  8
UNKNOWN
 10
43.96400451660156
 20
46.38999938964844
 30
0.0
 70
0
  0
VERTEX
  5
38
  8
UNKNOWN
 10
43.96400451660156
 20
45.58134460449219
 30
0.0
 70
0
  0
VERTEX
  5
39
  8
UNKNOWN
 10
42.885780334472656
 20
44.50311279296875
 30
0.0
 70
0
  0
VERTEX
  5
3A
  8
UNKNOWN
 10
41.80755615234375
 20
43.96400451660156
 30
0.0
 70
0
  0
VERTEX
  5
3B
  8
UNKNOWN
 10
40.190223693847656
 20
43.96400451660156
 30
0.0
 70
0
  0
VERTEX
  5
3C
  8
UNKNOWN
 10
32.642669677734375
 20
40.45977783203125
 30
0.0
 70
0
  0
VERTEX
  5
3D
  8
UNKNOWN
 10
26.98200225830078
 20
34.79911804199219
 30
0.0
 70
0
  0
VERTEX
  5
3E
  8
UNKNOWN
 10
26.17333221435547
 20
32.37312316894531
 30
0.0
 70
0
  0
VERTEX
  5
3F
  8
UNKNOWN
 10
24.016891479492188
 20
30.2166748046875
 30
0.0
 70
0
  0
VERTEX
  5
40
  8
UNKNOWN
 10
24.016891479492188
 20
29.138442993164062
 30
0.0
 70
0
  0
VERTEX
  5
41
  8
UNKNOWN
 10
22.669113159179688
 20
26.712448120117188
 30
0.0
 70
0
  0
VERTEX
  5
42
  8
UNKNOWN
 10
22.1300048828125
 20
14.582443237304688
 30
0.0
 70
0
  0
VERTEX
  5
43
  8
UNKNOWN
 10
22.399559020996094
 20
13.773788452148438
 30
0.0
 70
0
  0
VERTEX
  5
44
  8
UNKNOWN
 10
25.095115661621094
 20
11.078231811523438
 30
0.0
 70
0
  0
VERTEX
  5
45
  8
UNKNOWN
 10
28.32978057861328
 20
10.269561767578125
 30
0.0
 70
0
  0
VERTEX
  5
46
  8
UNKNOWN
 10
35.338226318359375
 20
10.53912353515625
 30
0.0
 70
0
  0
VERTEX
  5
47
  8
UNKNOWN
 10
36.146888732910156
 20
10.0
 30
0.0
 70
0
  0
VERTEX
  5
48
  8
UNKNOWN
 10
40.190223693847656
 20
10.0
 30
0.0
 70
0
  0
VERTEX
  5
49
  8
UNKNOWN
 10
41.538002014160156
 20
10.808670043945312
 30
0.0
 70
0
  0
VERTEX
  5
4A
  8
UNKNOWN
 10
49.35511016845703
 20
11.3477783203125
 30
0.0
 70
0
  0
VERTEX
  5
4B
  8
UNKNOWN
 10
53.66800308227539
 20
13.773788452148438
 30
0.0
 70
0
  0
VERTEX
  5
4C
  8
UNKNOWN
 10
55.55488967895508
 20
13.773788452148438
 30
0.0
 70
0
  0
VERTEX
  5
4D
  8
UNKNOWN
 10
59.86777877807617
 20
15.121566772460938
 30
0.0
 70
0
  0
VERTEX
  5
4E
  8
UNKNOWN
 10
62.29377746582031
 20
15.39111328125
 30
0.0
 70
0
  0
VERTEX
  5
4F
  8
UNKNOWN
 10
64.98933410644531
 20
16.7388916015625
 30
0.0
 70
0
  0
VERTEX
  5
50
  8
UNKNOWN
 10
69.3022232055664
 20
20.512680053710938
 30
0.0
 70
0
  0
SEQEND
  5
2F
  8
UNKNOWN
  0
POLYLINE
  5
51
  8
UNKNOWN
 66
1
 10
0.0
 20
0.0
 30
0.0
 70
1
  0
VERTEX
  5
53
  8
UNKNOWN
 10
68.76310729980469
 20
22.938674926757812
 30
0.0
 70
0
  0
VERTEX
  5
54
  8
UNKNOWN
 10
68.76310729980469
 20
20.512680053710938
 30
0.0
 70
0
  0
VERTEX
  5
55
  8
UNKNOWN
 10
64.71977996826172
 20
17.008453369140625
 30
0.0
 70
0
  0
VERTEX
  5
56
  8
UNKNOWN
 10
62.02422332763672
 20
15.660675048828125
 30
0.0
 70
0
  0
VERTEX
  5
57
  8
UNKNOWN
 10
59.32866668701172
 20
15.39111328125
 30
0.0
 70
0
  0
VERTEX
  5
58
  8
UNKNOWN
 10
55.285335540771484
 20
14.0433349609375
 30
0.0
 70
0
  0
VERTEX
  5
59
  8
UNKNOWN
 10
53.39844512939453
 20
14.0433349609375
 30
0.0
 70
0
  0
VERTEX
  5
5A
  8
UNKNOWN
 10
48.816001892089844
 20
11.617340087890625
 30
0.0
 70
0
  0
VERTEX
  5
5B
  8
UNKNOWN
 10
41.538002014160156
 20
11.078231811523438
 30
0.0
 70
0
  0
VERTEX
  5
5C
  8
UNKNOWN
 10
39.92066955566406
 20
10.269561767578125
 30
0.0
 70
0
  0
VERTEX
  5
5D
  8
UNKNOWN
 10
36.41644287109375
 20
10.269561767578125
 30
0.0
 70
0
  0
VERTEX
  5
5E
  8
UNKNOWN
 10
35.338226318359375
 20
10.808670043945312
 30
0.0
 70
0
  0
VERTEX
  5
5F
  8
UNKNOWN
 10
27.251556396484375
 20
10.808670043945312
 30
0.0
 70
0
  0
VERTEX
  5
60
  8
UNKNOWN
 10
25.364669799804688
 20
11.3477783203125
 30
0.0
 70
0
  0
VERTEX
  5
61
  8
UNKNOWN
 10
22.669113159179688
 20
14.0433349609375
 30
0.0
 70
0
  0
VERTEX
  5
62
  8
UNKNOWN
 10
22.93866729736328
 20
26.442901611328125
 30
0.0
 70
0
  0
VERTEX
  5
63
  8
UNKNOWN
 10
24.28644561767578
 20
28.868896484375
 30
0.0
 70
0
  0
VERTEX
  5
64
  8
UNKNOWN
 10
24.28644561767578
 20
29.947113037109375
 30
0.0
 70
0
  0
VERTEX
  5
65
  8
UNKNOWN
 10
26.712448120117188
 20
32.37312316894531
 30
0.0
 70
0
  0
VERTEX
  5
66
  8
UNKNOWN
 10
27.52111053466797
 20
34.79911804199219
 30
0.0
 70
0
  0
VERTEX
  5
67
  8
UNKNOWN
 10
32.91222381591797
 20
40.19023132324219
 30
0.0
 70
0
  0
VERTEX
  5
68
  8
UNKNOWN
 10
40.729331970214844
 20
43.69444274902344
 30
0.0
 70
0
  0
VERTEX
  5
69
  8
UNKNOWN
 10
45.04222106933594
 20
43.96400451660156
 30
0.0
 70
0
  0
VERTEX
  5
6A
  8
UNKNOWN
 10
50.163780212402344
 20
37.22511291503906
 30
0.0
 70
0
  0
VERTEX
  5
6B
  8
UNKNOWN
 10
55.285335540771484
 20
32.10356140136719
 30
0.0
 70
0
  0
VERTEX
  5
6C
  8
UNKNOWN
 10
60.94600296020508
 20
27.5211181640625
 30
0.0
 70
0
  0
SEQEND
  5
52
  8
UNKNOWN
  0
POLYLINE
  5
6D
  8
UNKNOWN
 66
1
 10
0.0
 20
0.0
 30
0.0
 70
1
  0
VERTEX
  5
6F
  8
UNKNOWN
 10
74.962890625
 20
357.18756103515625
 30
0.0
 70
0
  0
VERTEX
  5
70
  8
UNKNOWN
 10
72.80644226074219
 20
355.83978271484375
 30
0.0
 70
0
  0
VERTEX
  5
71
  8
UNKNOWN
 10
58.25044631958008
 20
341.8228759765625
 30
0.0
 70
0
  0
VERTEX
  5
72
  8
UNKNOWN
 10
57.44178009033203
 20
341.5533447265625
 30
0.0
 70
0
  0
VERTEX
  5
73
  8
UNKNOWN
 10
53.66800308227539
 20
337.7795715332031
 30
0.0
 70
0
  0
VERTEX
  5
74
  8
UNKNOWN
 10
48.816001892089844
 20
331.8493347167969
 30
0.0
 70
0
  0
VERTEX
  5
75
  8
UNKNOWN
 10
48.276893615722656
 20
330.7711181640625
 30
0.0
 70
0
  0
VERTEX
  5
76
  8
UNKNOWN
 10
48.276893615722656
 20
326.9973449707031
 30
0.0
 70
0
  0
VERTEX
  5
77
  8
UNKNOWN
 10
46.929115295410156
 20
325.1104431152344
 30
0.0
 70
0
  0
VERTEX
  5
78
  8
UNKNOWN
 10
46.929115295410156
 20
324.3017883300781
 30
0.0
 70
0
  0
VERTEX
  5
79
  8
UNKNOWN
 10
42.885780334472656
 20
318.9106750488281
 30
0.0
 70
0
  0
VERTEX
  5
7A
  8
UNKNOWN
 10
42.885780334472656
 20
315.945556640625
 30
0.0
 70
0
  0
VERTEX
  5
7B
  8
UNKNOWN
 10
40.190223693847656
 20
312.98046875
 30
0.0
 70
0
  0
VERTEX
  5
7C
  8
UNKNOWN
 10
39.381553649902344
 20
311.09356689453125
 30
0.0
 70
0
  0
VERTEX
  5
7D
  8
UNKNOWN
 10
38.30333709716797
 20
310.0153503417969
 30
0.0
 70
0
  0
VERTEX
  5
7E
  8
UNKNOWN
 10
37.494667053222656
 20
305.9720153808594
 30
0.0
 70
0
  0
VERTEX
  5
7F
  8
UNKNOWN
 10
36.41644287109375
 20
304.893798828125
 30
0.0
 70
0
  0
VERTEX
  5
80
  8
UNKNOWN
 10
35.87733459472656
 20
301.1199951171875
 30
0.0
 70
0
  0
VERTEX
  5
81
  8
UNKNOWN
 10
32.37311553955078
 20
297.3462219238281
 30
0.0
 70
0
  0
VERTEX
  5
82
  8
UNKNOWN
 10
32.103553771972656
 20
291.685546875
 30
0.0
 70
0
  0
VERTEX
  5
83
  8
UNKNOWN
 10
29.947113037109375
 20
289.2595520019531
 30
0.0
 70
0
  0
VERTEX
  5
84
  8
UNKNOWN
 10
29.947113037109375
 20
287.9117736816406
 30
0.0
 70
0
  0
VERTEX
  5
85
  8
UNKNOWN
 10
27.790664672851562
 20
285.48577880859375
 30
0.0
 70
0
  0
VERTEX
  5
86
  8
UNKNOWN
 10
26.98200225830078
 20
277.12957763671875
 30
0.0
 70
0
  0
VERTEX
  5
87
  8
UNKNOWN
 10
25.095115661621094
 20
273.8948974609375
 30
0.0
 70
0
  0
VERTEX
  5
88
  8
UNKNOWN
 10
25.095115661621094
 20
265.5386657714844
 30
0.0
 70
0
  0
VERTEX
  5
89
  8
UNKNOWN
 10
24.28644561767578
 20
264.7300109863281
 30
0.0
 70
0
  0
VERTEX
  5
8A
  8
UNKNOWN
 10
24.016891479492188
 20
263.1126708984375
 30
0.0
 70
0
  0
VERTEX
  5
8B
  8
UNKNOWN
 10
22.399559020996094
 20
261.22576904296875
 30
0.0
 70
0
  0
VERTEX
  5
8C
  8
UNKNOWN
 10
22.399559020996094
 20
260.1475524902344
 30
0.0
 70
0
  0
VERTEX
  5
8D
  8
UNKNOWN
 10
21.860443115234375
 20
259.60845947265625
 30
0.0
 70
0
  0
VERTEX
  5
8E
  8
UNKNOWN
 10
21.051780700683594
 20
256.6433410644531
 30
0.0
 70
0
  0
VERTEX
  5
8F
  8
UNKNOWN
 10
21.051780700683594
 20
253.40867614746094
 30
0.0
 70
0
  0
VERTEX
  5
90
  8
UNKNOWN
 10
20.512664794921875
 20
252.60000610351562
 30
0.0
 70
0
  0
VERTEX
  5
91
  8
UNKNOWN
 10
19.973556518554688
 20
241.54823303222656
 30
0.0
 70
0
  0
VERTEX
  5
92
  8
UNKNOWN
 10
19.164886474609375
 20
237.77444458007812
 30
0.0
 70
0
  0
VERTEX
  5
93
  8
UNKNOWN
 10
19.164886474609375
 20
229.95733642578125
 30
0.0
 70
0
  0
VERTEX
  5
94
  8
UNKNOWN
 10
17.54755401611328
 20
227.26177978515625
 30
0.0
 70
0
  0
VERTEX
  5
95
  8
UNKNOWN
 10
17.277999877929688
 20
223.757568359375
 30
0.0
 70
0
  0
VERTEX
  5
96
  8
UNKNOWN
 10
16.469337463378906
 20
222.14022827148438
 30
0.0
 70
0
  0
VERTEX
  5
97
  8
UNKNOWN
 10
16.469337463378906
 20
212.975341796875
 30
0.0
 70
0
  0
VERTEX
  5
98
  8
UNKNOWN
 10
15.660667419433594
 20
212.1666717529297
 30
0.0
 70
0
  0
VERTEX
  5
99
  8
UNKNOWN
 10
15.660667419433594
 20
207.85379028320312
 30
0.0
 70
0
  0
VERTEX
  5
9A
  8
UNKNOWN
 10
14.582443237304688
 20
206.7755584716797
 30
0.0
 70
0
  0
VERTEX
  5
9B
  8
UNKNOWN
 10
14.312889099121094
 20
179.55044555664062
 30
0.0
 70
0
  0
VERTEX
  5
9C
  8
UNKNOWN
 10
13.234664916992188
 20
178.20266723632812
 30
0.0
 70
0
  0
VERTEX
  5
9D
  8
UNKNOWN
 10
12.965110778808594
 20
176.31578063964844
 30
0.0
 70
0
  0
VERTEX
  5
9E
  8
UNKNOWN
 10
11.617332458496094
 20
174.15933227539062
 30
0.0
 70
0
  0
VERTEX
  5
9F
  8
UNKNOWN
 10
11.617332458496094
 20
173.08111572265625
 30
0.0
 70
0
  0
VERTEX
  5
A0
  8
UNKNOWN
 10
10.0
 20
171.46377563476562
 30
0.0
 70
0
  0
VERTEX
  5
A1
  8
UNKNOWN
 10
10.0
 20
166.61178588867188
 30
0.0
 70
0
  0
VERTEX
  5
A2
  8
UNKNOWN
 10
17.008445739746094
 20
159.06423950195312
 30
0.0
 70
0
  0
VERTEX
  5
A3
  8
UNKNOWN
 10
17.008445739746094
 20
157.17733764648438
 30
0.0
 70
0
  0
VERTEX
  5
A4
  8
UNKNOWN
 10
18.89533233642578
 20
155.2904510498047
 30
0.0
 70
0
  0
VERTEX
  5
A5
  8
UNKNOWN
 10
20.24311065673828
 20
151.2471160888672
 30
0.0
 70
0
  0
VERTEX
  5
A6
  8
UNKNOWN
 10
31.02533721923828
 20
139.92578125
 30
0.0
 70
0
  0
VERTEX
  5
A7
  8
UNKNOWN
 10
31.56444549560547
 20
135.61288452148438
 30
0.0
 70
0
  0
VERTEX
  5
A8
  8
UNKNOWN
 10
32.103553771972656
 20
135.07379150390625
 30
0.0
 70
0
  0
VERTEX
  5
A9
  8
UNKNOWN
 10
32.103553771972656
 20
119.17000579833984
 30
0.0
 70
0
  0
VERTEX
  5
AA
  8
UNKNOWN
 10
33.18177795410156
 20
111.89200592041016
 30
0.0
 70
0
  0
VERTEX
  5
AB
  8
UNKNOWN
 10
41.80755615234375
 20
102.99667358398438
 30
0.0
 70
0
  0
VERTEX
  5
AC
  8
UNKNOWN
 10
41.80755615234375
 20
101.91844940185547
 30
0.0
 70
0
  0
VERTEX
  5
AD
  8
UNKNOWN
 10
42.61622619628906
 20
101.37933349609375
 30
0.0
 70
0
  0
VERTEX
  5
AE
  8
UNKNOWN
 10
43.424888610839844
 20
101.64889526367188
 30
0.0
 70
0
  0
VERTEX
  5
AF
  8
UNKNOWN
 10
44.772666931152344
 20
104.07489776611328
 30
0.0
 70
0
  0
VERTEX
  5
B0
  8
UNKNOWN
 10
44.772666931152344
 20
104.88356018066406
 30
0.0
 70
0
  0
VERTEX
  5
B1
  8
UNKNOWN
 10
45.581336975097656
 20
105.42267608642578
 30
0.0
 70
0
  0
VERTEX
  5
B2
  8
UNKNOWN
 10
45.31178283691406
 20
108.11822509765625
 30
0.0
 70
0
  0
VERTEX
  5
B3
  8
UNKNOWN
 10
48.816001892089844
 20
113.23978424072266
 30
0.0
 70
0
  0
VERTEX
  5
B4
  8
UNKNOWN
 10
50.163780212402344
 20
114.58756256103516
 30
0.0
 70
0
  0
VERTEX
  5
B5
  8
UNKNOWN
 10
52.85933303833008
 20
115.66578674316406
 30
0.0
 70
0
  0
VERTEX
  5
B6
  8
UNKNOWN
 10
53.12889099121094
 20
118.63089752197266
 30
0.0
 70
0
  0
VERTEX
  5
B7
  8
UNKNOWN
 10
61.485111236572266
 20
128.06533813476562
 30
0.0
 70
0
  0
VERTEX
  5
B8
  8
UNKNOWN
 10
62.832889556884766
 20
130.22178649902344
 30
0.0
 70
0
  0
VERTEX
  5
B9
  8
UNKNOWN
 10
64.71977996826172
 20
132.10867309570312
 30
0.0
 70
0
  0
VERTEX
  5
BA
  8
UNKNOWN
 10
66.06755828857422
 20
132.6477813720703
 30
0.0
 70
0
  0
VERTEX
  5
BB
  8
UNKNOWN
 10
67.14578247070312
 20
133.9955596923828
 30
0.0
 70
0
  0
VERTEX
  5
BC
  8
UNKNOWN
 10
67.14578247070312
 20
134.80422973632812
 30
0.0
 70
0
  0
VERTEX
  5
BD
  8
UNKNOWN
 10
66.6066665649414
 20
135.3433380126953
 30
0.0
 70
0
  0
VERTEX
  5
BE
  8
UNKNOWN
 10
66.6066665649414
 20
136.96066284179688
 30
0.0
 70
0
  0
VERTEX
  5
BF
  8
UNKNOWN
 10
67.41532897949219
 20
139.3866729736328
 30
0.0
 70
0
  0
VERTEX
  5
C0
  8
UNKNOWN
 10
67.41532897949219
 20
142.621337890625
 30
0.0
 70
0
  0
VERTEX
  5
C1
  8
UNKNOWN
 10
66.876220703125
 20
144.23867797851562
 30
0.0
 70
0
  0
VERTEX
  5
C2
  8
UNKNOWN
 10
66.876220703125
 20
146.39511108398438
 30
0.0
 70
0
  0
VERTEX
  5
C3
  8
UNKNOWN
 10
67.41532897949219
 20
146.93423461914062
 30
0.0
 70
0
  0
VERTEX
  5
C4
  8
UNKNOWN
 10
67.14578247070312
 20
148.82110595703125
 30
0.0
 70
0
  0
VERTEX
  5
C5
  8
UNKNOWN
 10
62.29377746582031
 20
159.3337860107422
 30
0.0
 70
0
  0
VERTEX
  5
C6
  8
UNKNOWN
 10
60.94600296020508
 20
163.37710571289062
 30
0.0
 70
0
  0
VERTEX
  5
C7
  8
UNKNOWN
 10
60.137332916259766
 20
163.64666748046875
 30
0.0
 70
0
  0
VERTEX
  5
C8
  8
UNKNOWN
 10
58.78955841064453
 20
165.26400756835938
 30
0.0
 70
0
  0
VERTEX
  5
C9
  8
UNKNOWN
 10
58.25044631958008
 20
167.95956420898438
 30
0.0
 70
0
  0
VERTEX
  5
CA
  8
UNKNOWN
 10
58.52000045776367
 20
178.74179077148438
 30
0.0
 70
0
  0
VERTEX
  5
CB
  8
UNKNOWN
 10
59.059112548828125
 20
180.62867736816406
 30
0.0
 70
0
  0
VERTEX
  5
CC
  8
UNKNOWN
 10
61.21555709838867
 20
182.24600219726562
 30
0.0
 70
0
  0
VERTEX
  5
CD
  8
UNKNOWN
 10
62.832889556884766
 20
185.21112060546875
 30
0.0
 70
0
  0
VERTEX
  5
CE
  8
UNKNOWN
 10
63.102447509765625
 20
187.3675537109375
 30
0.0
 70
0
  0
VERTEX
  5
CF
  8
UNKNOWN
 10
64.45022583007812
 20
187.63711547851562
 30
0.0
 70
0
  0
VERTEX
  5
D0
  8
UNKNOWN
 10
66.6066665649414
 20
190.0631103515625
 30
0.0
 70
0
  0
VERTEX
  5
D1
  8
UNKNOWN
 10
66.6066665649414
 20
191.95001220703125
 30
0.0
 70
0
  0
VERTEX
  5
D2
  8
UNKNOWN
 10
68.76310729980469
 20
193.5673370361328
 30
0.0
 70
0
  0
VERTEX
  5
D3
  8
UNKNOWN
 10
70.11088562011719
 20
193.02822875976562
 30
0.0
 70
0
  0
VERTEX
  5
D4
  8
UNKNOWN
 10
76.04110717773438
 20
196.53245544433594
 30
0.0
 70
0
  0
VERTEX
  5
D5
  8
UNKNOWN
 10
80.89311218261719
 20
198.1497802734375
 30
0.0
 70
0
  0
VERTEX
  5
D6
  8
UNKNOWN
 10
81.43222045898438
 20
199.22801208496094
 30
0.0
 70
0
  0
VERTEX
  5
D7
  8
UNKNOWN
 10
82.77999877929688
 20
199.49755859375
 30
0.0
 70
0
  0
VERTEX
  5
D8
  8
UNKNOWN
 10
84.3973388671875
 20
200.57577514648438
 30
0.0
 70
0
  0
VERTEX
  5
D9
  8
UNKNOWN
 10
87.36244201660156
 20
199.49755859375
 30
0.0
 70
0
  0
VERTEX
  5
DA
  8
UNKNOWN
 10
90.59711456298828
 20
201.6540069580078
 30
0.0
 70
0
  0
VERTEX
  5
DB
  8
UNKNOWN
 10
94.37088775634766
 20
201.92355346679688
 30
0.0
 70
0
  0
VERTEX
  5
DC
  8
UNKNOWN
 10
96.52733612060547
 20
200.57577514648438
 30
0.0
 70
0
  0
VERTEX
  5
DD
  8
UNKNOWN
 10
100.57067108154297
 20
200.57577514648438
 30
0.0
 70
0
  0
VERTEX
  5
DE
  8
UNKNOWN
 10
102.45755767822266
 20
199.22801208496094
 30
0.0
 70
0
  0
VERTEX
  5
DF
  8
UNKNOWN
 10
102.45755767822266
 20
190.33267211914062
 30
0.0
 70
0
  0
VERTEX
  5
E0
  8
UNKNOWN
 10
103.26622009277344
 20
189.5240020751953
 30
0.0
 70
0
  0
VERTEX
  5
E1
  8
UNKNOWN
 10
103.26622009277344
 20
180.35911560058594
 30
0.0
 70
0
  0
VERTEX
  5
E2
  8
UNKNOWN
 10
104.07489013671875
 20
179.82000732421875
 30
0.0
 70
0
  0
VERTEX
  5
E3
  8
UNKNOWN
 10
105.42266845703125
 20
180.62867736816406
 30
0.0
 70
0
  0
VERTEX
  5
E4
  8
UNKNOWN
 10
107.84867095947266
 20
179.28089904785156
 30
0.0
 70
0
  0
VERTEX
  5
E5
  8
UNKNOWN
 10
110.27466583251953
 20
180.08956909179688
 30
0.0
 70
0
  0
VERTEX
  5
E6
  8
UNKNOWN
 10
112.70066833496094
 20
178.47222900390625
 30
0.0
 70
0
  0
VERTEX
  5
E7
  8
UNKNOWN
 10
115.12667083740234
 20
180.08956909179688
 30
0.0
 70
0
  0
VERTEX
  5
E8
  8
UNKNOWN
 10
114.04844665527344
 20
181.70689392089844
 30
0.0
 70
0
  0
VERTEX
  5
E9
  8
UNKNOWN
 10
114.04844665527344
 20
184.13290405273438
 30
0.0
 70
0
  0
VERTEX
  5
EA
  8
UNKNOWN
 10
115.39622497558594
 20
185.21112060546875
 30
0.0
 70
0
  0
VERTEX
  5
EB
  8
UNKNOWN
 10
116.47444915771484
 20
185.21112060546875
 30
0.0
 70
0
  0
VERTEX
  5
EC
  8
UNKNOWN
 10
117.82221984863281
 20
184.13290405273438
 30
0.0
 70
0
  0
VERTEX
  5
ED
  8
UNKNOWN
 10
117.82221984863281
 20
181.70689392089844
 30
0.0
 70
0
  0
VERTEX
  5
EE
  8
UNKNOWN
 10
117.01355743408203
 20
180.35911560058594
 30
0.0
 70
0
  0
VERTEX
  5
EF
  8
UNKNOWN
 10
117.82221984863281
 20
179.82000732421875
 30
0.0
 70
0
  0
VERTEX
  5
F0
  8
UNKNOWN
 10
119.16999816894531
 20
179.82000732421875
 30
0.0
 70
0
  0
VERTEX
  5
F1
  8
UNKNOWN
 10
121.05689239501953
 20
178.47222900390625
 30
0.0
 70
0
  0
VERTEX
  5
F2
  8
UNKNOWN
 10
121.05689239501953
 20
176.04623413085938
 30
0.0
 70
0
  0
VERTEX
  5
F3
  8
UNKNOWN
 10
122.40467071533203
 20
175.23756408691406
 30
0.0
 70
0
  0
VERTEX
  5
F4
  8
UNKNOWN
 10
123.21333312988281
 20
175.77667236328125
 30
0.0
 70
0
  0
VERTEX
  5
F5
  8
UNKNOWN
 10
123.21333312988281
 20
179.55044555664062
 30
0.0
 70
0
  0
VERTEX
  5
F6
  8
UNKNOWN
 10
124.56111145019531
 20
180.62867736816406
 30
0.0
 70
0
  0
VERTEX
  5
F7
  8
UNKNOWN
 10
125.63933563232422
 20
180.62867736816406
 30
0.0
 70
0
  0
VERTEX
  5
F8
  8
UNKNOWN
 10
129.1435546875
 20
177.39401245117188
 30
0.0
 70
0
  0
VERTEX
  5
F9
  8
UNKNOWN
 10
129.1435546875
 20
176.04623413085938
 30
0.0
 70
0
  0
VERTEX
  5
FA
  8
UNKNOWN
 10
133.7259979248047
 20
173.08111572265625
 30
0.0
 70
0
  0
VERTEX
  5
FB
  8
UNKNOWN
 10
134.53466796875
 20
173.62022399902344
 30
0.0
 70
0
  0
VERTEX
  5
FC
  8
UNKNOWN
 10
134.80422973632812
 20
174.69845581054688
 30
0.0
 70
0
  0
VERTEX
  5
FD
  8
UNKNOWN
 10
136.6911163330078
 20
176.04623413085938
 30
0.0
 70
0
  0
VERTEX
  5
FE
  8
UNKNOWN
 10
138.84756469726562
 20
176.58534240722656
 30
0.0
 70
0
  0
VERTEX
  5
FF
  8
UNKNOWN
 10
140.19534301757812
 20
175.77667236328125
 30
0.0
 70
0
  0
VERTEX
  5
100
  8
UNKNOWN
 10
141.54310607910156
 20
176.58534240722656
 30
0.0
 70
0
  0
VERTEX
  5
101
  8
UNKNOWN
 10
149.8993377685547
 20
184.94155883789062
 30
0.0
 70
0
  0
VERTEX
  5
102
  8
UNKNOWN
 10
154.48178100585938
 20
187.63711547851562
 30
0.0
 70
0
  0
VERTEX
  5
103
  8
UNKNOWN
 10
158.52511596679688
 20
187.63711547851562
 30
0.0
 70
0
  0
VERTEX
  5
104
  8
UNKNOWN
 10
162.56845092773438
 20
185.75022888183594
 30
0.0
 70
0
  0
VERTEX
  5
105
  8
UNKNOWN
 10
164.45533752441406
 20
183.86334228515625
 30
0.0
 70
0
  0
VERTEX
  5
106
  8
UNKNOWN
 10
166.61178588867188
 20
179.82000732421875
 30
0.0
 70
0
  0
VERTEX
  5
107
  8
UNKNOWN
 10
167.42044067382812
 20
175.77667236328125
 30
0.0
 70
0
  0
VERTEX
  5
108
  8
UNKNOWN
 10
169.03778076171875
 20
174.42889404296875
 30
0.0
 70
0
  0
VERTEX
  5
109
  8
UNKNOWN
 10
168.76821899414062
 20
166.88134765625
 30
0.0
 70
0
  0
VERTEX
  5
10A
  8
UNKNOWN
 10
167.42044067382812
 20
165.26400756835938
 30
0.0
 70
0
  0
VERTEX
  5
10B
  8
UNKNOWN
 10
166.88133239746094
 20
162.56845092773438
 30
0.0
 70
0
  0
VERTEX
  5
10C
  8
UNKNOWN
 10
165.53355407714844
 20
160.95111083984375
 30
0.0
 70
0
  0
VERTEX
  5
10D
  8
UNKNOWN
 10
165.53355407714844
 20
159.06423950195312
 30
0.0
 70
0
  0
VERTEX
  5
10E
  8
UNKNOWN
 10
162.56845092773438
 20
152.5948944091797
 30
0.0
 70
0
  0
VERTEX
  5
10F
  8
UNKNOWN
 10
160.95111083984375
 20
151.2471160888672
 30
0.0
 70
0
  0
VERTEX
  5
110
  8
UNKNOWN
 10
160.95111083984375
 20
150.43844604492188
 30
0.0
 70
0
  0
VERTEX
  5
111
  8
UNKNOWN
 10
160.41200256347656
 20
149.8993377685547
 30
0.0
 70
0
  0
VERTEX
  5
112
  8
UNKNOWN
 10
160.68154907226562
 20
148.012451171875
 30
0.0
 70
0
  0
VERTEX
  5
113
  8
UNKNOWN
 10
159.33377075195312
 20
143.4300079345703
 30
0.0
 70
0
  0
VERTEX
  5
114
  8
UNKNOWN
 10
159.33377075195312
 20
141.81268310546875
 30
0.0
 70
0
  0
VERTEX
  5
115
  8
UNKNOWN
 10
159.87289428710938
 20
141.2735595703125
 30
0.0
 70
0
  0
VERTEX
  5
116
  8
UNKNOWN
 10
160.14244079589844
 20
138.0388946533203
 30
0.0
 70
0
  0
VERTEX
  5
117
  8
UNKNOWN
 10
160.68154907226562
 20
136.96066284179688
 30
0.0
 70
0
  0
VERTEX
  5
118
  8
UNKNOWN
 10
160.41200256347656
 20
135.3433380126953
 30
0.0
 70
0
  0
VERTEX
  5
119
  8
UNKNOWN
 10
161.75978088378906
 20
133.9955596923828
 30
0.0
 70
0
  0
VERTEX
  5
11A
  8
UNKNOWN
 10
161.75978088378906
 20
131.03045654296875
 30
0.0
 70
0
  0
VERTEX
  5
11B
  8
UNKNOWN
 10
167.69000244140625
 20
123.75244903564453
 30
0.0
 70
0
  0
VERTEX
  5
11C
  8
UNKNOWN
 10
170.11599731445312
 20
122.94378662109375
 30
0.0
 70
0
  0
VERTEX
  5
11D
  8
UNKNOWN
 10
172.00289916992188
 20
121.05689239501953
 30
0.0
 70
0
  0
VERTEX
  5
11E
  8
UNKNOWN
 10
171.73333740234375
 20
118.90045166015625
 30
0.0
 70
0
  0
VERTEX
  5
11F
  8
UNKNOWN
 10
177.93310546875
 20
111.35289764404297
 30
0.0
 70
0
  0
VERTEX
  5
120
  8
UNKNOWN
 10
182.51556396484375
 20
103.80533599853516
 30
0.0
 70
0
  0
VERTEX
  5
121
  8
UNKNOWN
 10
183.32421875
 20
103.26622772216797
 30
0.0
 70
0
  0
VERTEX
  5
122
  8
UNKNOWN
 10
184.1328887939453
 20
103.80533599853516
 30
0.0
 70
0
  0
VERTEX
  5
123
  8
UNKNOWN
 10
184.1328887939453
 20
104.88356018066406
 30
0.0
 70
0
  0
VERTEX
  5
124
  8
UNKNOWN
 10
201.3844451904297
 20
123.48289489746094
 30
0.0
 70
0
  0
VERTEX
  5
125
  8
UNKNOWN
 10
201.92355346679688
 20
125.63933563232422
 30
0.0
 70
0
  0
VERTEX
  5
126
  8
UNKNOWN
 10
204.0800018310547
 20
128.87400817871094
 30
0.0
 70
0
  0
VERTEX
  5
127
  8
UNKNOWN
 10
204.0800018310547
 20
130.4913330078125
 30
0.0
 70
0
  0
VERTEX
  5
128
  8
UNKNOWN
 10
212.70578002929688
 20
139.3866729736328
 30
0.0
 70
0
  0
VERTEX
  5
129
  8
UNKNOWN
 10
212.975341796875
 20
141.00399780273438
 30
0.0
 70
0
  0
VERTEX
  5
12A
  8
UNKNOWN
 10
214.3231201171875
 20
142.621337890625
 30
0.0
 70
0
  0
VERTEX
  5
12B
  8
UNKNOWN
 10
214.3231201171875
 20
143.9691162109375
 30
0.0
 70
0
  0
VERTEX
  5
12C
  8
UNKNOWN
 10
215.94044494628906
 20
145.8560028076172
 30
0.0
 70
0
  0
VERTEX
  5
12D
  8
UNKNOWN
 10
216.20999145507812
 20
147.2037811279297
 30
0.0
 70
0
  0
VERTEX
  5
12E
  8
UNKNOWN
 10
217.55776977539062
 20
148.5515594482422
 30
0.0
 70
0
  0
VERTEX
  5
12F
  8
UNKNOWN
 10
217.82733154296875
 20
159.87289428710938
 30
0.0
 70
0
  0
VERTEX
  5
130
  8
UNKNOWN
 10
218.63600158691406
 20
160.6815643310547
 30
0.0
 70
0
  0
VERTEX
  5
131
  8
UNKNOWN
 10
219.17510986328125
 20
177.12445068359375
 30
0.0
 70
0
  0
VERTEX
  5
132
  8
UNKNOWN
 10
219.7142333984375
 20
177.66355895996094
 30
0.0
 70
0
  0
VERTEX
  5
133
  8
UNKNOWN
 10
219.44467163085938
 20
215.6708984375
 30
0.0
 70
0
  0
VERTEX
  5
134
  8
UNKNOWN
 10
219.7142333984375
 20
223.21844482421875
 30
0.0
 70
0
  0
VERTEX
  5
135
  8
UNKNOWN
 10
220.25332641601562
 20
223.757568359375
 30
0.0
 70
0
  0
VERTEX
  5
136
  8
UNKNOWN
 10
220.25332641601562
 20
241.81777954101562
 30
0.0
 70
0
  0
VERTEX
  5
137
  8
UNKNOWN
 10
221.06201171875
 20
243.16555786132812
 30
0.0
 70
0
  0
VERTEX
  5
138
  8
UNKNOWN
 10
221.06201171875
 20
245.0524444580078
 30
0.0
 70
0
  0
VERTEX
  5
139
  8
UNKNOWN
 10
220.25332641601562
 20
245.86111450195312
 30
0.0
 70
0
  0
VERTEX
  5
13A
  8
UNKNOWN
 10
219.7142333984375
 20
248.287109375
 30
0.0
 70
0
  0
VERTEX
  5
13B
  8
UNKNOWN
 10
218.09689331054688
 20
249.90444946289062
 30
0.0
 70
0
  0
VERTEX
  5
13C
  8
UNKNOWN
 10
218.09689331054688
 20
253.1391143798828
 30
0.0
 70
0
  0
VERTEX
  5
13D
  8
UNKNOWN
 10
215.40133666992188
 20
257.1824645996094
 30
0.0
 70
0
  0
VERTEX
  5
13E
  8
UNKNOWN
 10
215.40133666992188
 20
261.22576904296875
 30
0.0
 70
0
  0
VERTEX
  5
13F
  8
UNKNOWN
 10
214.86221313476562
 20
262.8431091308594
 30
0.0
 70
0
  0
VERTEX
  5
140
  8
UNKNOWN
 10
214.86221313476562
 20
276.05133056640625
 30
0.0
 70
0
  0
VERTEX
  5
141
  8
UNKNOWN
 10
213.78399658203125
 20
279.0164489746094
 30
0.0
 70
0
  0
VERTEX
  5
142
  8
UNKNOWN
 10
210.8188934326172
 20
282.79022216796875
 30
0.0
 70
0
  0
VERTEX
  5
143
  8
UNKNOWN
 10
207.04510498046875
 20
286.5639953613281
 30
0.0
 70
0
  0
VERTEX
  5
144
  8
UNKNOWN
 10
207.04510498046875
 20
287.3726806640625
 30
0.0
 70
0
  0
VERTEX
  5
145
  8
UNKNOWN
 10
206.2364501953125
 20
288.4508972167969
 30
0.0
 70
0
  0
VERTEX
  5
146
  8
UNKNOWN
 10
205.69732666015625
 20
291.685546875
 30
0.0
 70
0
  0
VERTEX
  5
147
  8
UNKNOWN
 10
203.5408935546875
 20
295.4593505859375
 30
0.0
 70
0
  0
VERTEX
  5
148
  8
UNKNOWN
 10
203.27133178710938
 20
297.3462219238281
 30
0.0
 70
0
  0
VERTEX
  5
149
  8
UNKNOWN
 10
202.46267700195312
 20
298.1549072265625
 30
0.0
 70
0
  0
VERTEX
  5
14A
  8
UNKNOWN
 10
202.46267700195312
 20
302.7373352050781
 30
0.0
 70
0
  0
VERTEX
  5
14B
  8
UNKNOWN
 10
198.6888885498047
 20
307.05023193359375
 30
0.0
 70
0
  0
VERTEX
  5
14C
  8
UNKNOWN
 10
196.53244018554688
 20
314.5977783203125
 30
0.0
 70
0
  0
VERTEX
  5
14D
  8
UNKNOWN
 10
190.0631103515625
 20
322.4148864746094
 30
0.0
 70
0
  0
VERTEX
  5
14E
  8
UNKNOWN
 10
190.0631103515625
 20
323.49310302734375
 30
0.0
 70
0
  0
VERTEX
  5
14F
  8
UNKNOWN
 10
188.98489379882812
 20
324.57135009765625
 30
0.0
 70
0
  0
VERTEX
  5
150
  8
UNKNOWN
 10
188.98489379882812
 20
326.4582214355469
 30
0.0
 70
0
  0
VERTEX
  5
151
  8
UNKNOWN
 10
188.44577026367188
 20
326.9973449707031
 30
0.0
 70
0
  0
VERTEX
  5
152
  8
UNKNOWN
 10
188.44577026367188
 20
327.8059997558594
 30
0.0
 70
0
  0
VERTEX
  5
153
  8
UNKNOWN
 10
162.02932739257812
 20
354.7615661621094
 30
0.0
 70
0
  0
VERTEX
  5
154
  8
UNKNOWN
 10
159.60333251953125
 20
355.5702209472656
 30
0.0
 70
0
  0
VERTEX
  5
155
  8
UNKNOWN
 10
157.4468994140625
 20
357.18756103515625
 30
0.0
 70
0
  0
VERTEX
  5
156
  8
UNKNOWN
 10
151.51666259765625
 20
357.18756103515625
 30
0.0
 70
0
  0
VERTEX
  5
157
  8
UNKNOWN
 10
150.43844604492188
 20
357.7266845703125
 30
0.0
 70
0
  0
VERTEX
  5
158
  8
UNKNOWN
 10
133.9955596923828
 20
357.7266845703125
 30
0.0
 70
0
  0
VERTEX
  5
159
  8
UNKNOWN
 10
131.839111328125
 20
356.37890625
 30
0.0
 70
0
  0
VERTEX
  5
15A
  8
UNKNOWN
 10
130.22177124023438
 20
356.37890625
 30
0.0
 70
0
  0
VERTEX
  5
15B
  8
UNKNOWN
 10
128.06533813476562
 20
357.7266845703125
 30
0.0
 70
0
  0
VERTEX
  5
15C
  8
UNKNOWN
 10
119.97866821289062
 20
357.7266845703125
 30
0.0
 70
0
  0
VERTEX
  5
15D
  8
UNKNOWN
 10
119.16999816894531
 20
357.18756103515625
 30
0.0
 70
0
  0
VERTEX
  5
15E
  8
UNKNOWN
 10
118.90044403076172
 20
352.8746643066406
 30
0.0
 70
0
  0
VERTEX
  5
15F
  8
UNKNOWN
 10
118.09178161621094
 20
351.79644775390625
 30
0.0
 70
0
  0
VERTEX
  5
160
  8
UNKNOWN
 10
118.36133575439453
 20
349.10089111328125
 30
0.0
 70
0
  0
VERTEX
  5
161
  8
UNKNOWN
 10
117.55266571044922
 20
344.5184326171875
 30
0.0
 70
0
  0
VERTEX
  5
162
  8
UNKNOWN
 10
116.74400329589844
 20
343.170654296875
 30
0.0
 70
0
  0
VERTEX
  5
163
  8
UNKNOWN
 10
116.74400329589844
 20
338.8577880859375
 30
0.0
 70
0
  0
VERTEX
  5
164
  8
UNKNOWN
 10
115.66577911376953
 20
331.57977294921875
 30
0.0
 70
0
  0
VERTEX
  5
165
  8
UNKNOWN
 10
113.77889251708984
 20
330.23199462890625
 30
0.0
 70
0
  0
VERTEX
  5
166
  8
UNKNOWN
 10
109.73555755615234
 20
329.96246337890625
 30
0.0
 70
0
  0
VERTEX
  5
167
  8
UNKNOWN
 10
106.50089263916016
 20
333.4666748046875
 30
0.0
 70
0
  0
VERTEX
  5
168
  8
UNKNOWN
 10
105.69222259521484
 20
332.92755126953125
 30
0.0
 70
0
  0
VERTEX
  5
169
  8
UNKNOWN
 10
105.69222259521484
 20
331.8493347167969
 30
0.0
 70
0
  0
VERTEX
  5
16A
  8
UNKNOWN
 10
104.88356018066406
 20
331.0406799316406
 30
0.0
 70
0
  0
VERTEX
  5
16B
  8
UNKNOWN
 10
103.26622009277344
 20
330.7711181640625
 30
0.0
 70
0
  0
VERTEX
  5
16C
  8
UNKNOWN
 10
101.37933349609375
 20
332.118896484375
 30
0.0
 70
0
  0
VERTEX
  5
16D
  8
UNKNOWN
 10
99.76200103759766
 20
332.3884582519531
 30
0.0
 70
0
  0
VERTEX
  5
16E
  8
UNKNOWN
 10
98.95333862304688
 20
333.1971130371094
 30
0.0
 70
0
  0
VERTEX
  5
16F
  8
UNKNOWN
 10
98.95333862304688
 20
334.27532958984375
 30
0.0
 70
0
  0
VERTEX
  5
170
  8
UNKNOWN
 10
98.41422271728516
 20
334.814453125
 30
0.0
 70
0
  0
VERTEX
  5
171
  8
UNKNOWN
 10
98.68377685546875
 20
338.31866455078125
 30
0.0
 70
0
  0
VERTEX
  5
172
  8
UNKNOWN
 10
99.49244689941406
 20
339.1273498535156
 30
0.0
 70
0
  0
VERTEX
  5
173
  8
UNKNOWN
 10
100.84022521972656
 20
339.66644287109375
 30
0.0
 70
0
  0
VERTEX
  5
174
  8
UNKNOWN
 10
102.72711181640625
 20
338.5882263183594
 30
0.0
 70
0
  0
VERTEX
  5
175
  8
UNKNOWN
 10
104.34444427490234
 20
338.5882263183594
 30
0.0
 70
0
  0
VERTEX
  5
176
  8
UNKNOWN
 10
105.42266845703125
 20
338.04913330078125
 30
0.0
 70
0
  0
VERTEX
  5
177
  8
UNKNOWN
 10
106.77044677734375
 20
339.66644287109375
 30
0.0
 70
0
  0
VERTEX
  5
178
  8
UNKNOWN
 10
106.77044677734375
 20
342.6315612792969
 30
0.0
 70
0
  0
VERTEX
  5
179
  8
UNKNOWN
 10
108.11822509765625
 20
343.9793395996094
 30
0.0
 70
0
  0
VERTEX
  5
17A
  8
UNKNOWN
 10
108.11822509765625
 20
344.5184326171875
 30
0.0
 70
0
  0
VERTEX
  5
17B
  8
UNKNOWN
 10
107.57910919189453
 20
345.05755615234375
 30
0.0
 70
0
  0
VERTEX
  5
17C
  8
UNKNOWN
 10
107.57910919189453
 20
346.40533447265625
 30
0.0
 70
0
  0
VERTEX
  5
17D
  8
UNKNOWN
 10
106.77044677734375
 20
347.2139892578125
 30
0.0
 70
0
  0
VERTEX
  5
17E
  8
UNKNOWN
 10
107.57910919189453
 20
350.1791076660156
 30
0.0
 70
0
  0
VERTEX
  5
17F
  8
UNKNOWN
 10
106.23133850097656
 20
352.0660095214844
 30
0.0
 70
0
  0
VERTEX
  5
180
  8
UNKNOWN
 10
104.34444427490234
 20
352.3355712890625
 30
0.0
 70
0
  0
VERTEX
  5
181
  8
UNKNOWN
 10
103.53578186035156
 20
351.79644775390625
 30
0.0
 70
0
  0
VERTEX
  5
182
  8
UNKNOWN
 10
102.18800354003906
 20
351.79644775390625
 30
0.0
 70
0
  0
VERTEX
  5
183
  8
UNKNOWN
 10
101.10977935791016
 20
352.3355712890625
 30
0.0
 70
0
  0
VERTEX
  5
184
  8
UNKNOWN
 10
99.22289276123047
 20
354.2224426269531
 30
0.0
 70
0
  0
VERTEX
  5
185
  8
UNKNOWN
 10
99.22289276123047
 20
356.9179992675781
 30
0.0
 70
0
  0
VERTEX
  5
186
  8
UNKNOWN
 10
98.14466857910156
 20
357.7266845703125
 30
0.0
 70
0
  0
VERTEX
  5
187
  8
UNKNOWN
 10
97.06644439697266
 20
357.7266845703125
 30
0.0
 70
0
  0
VERTEX
  5
188
  8
UNKNOWN
 10
94.64044189453125
 20
356.1093444824219
 30
0.0
 70
0
  0
VERTEX
  5
189
  8
UNKNOWN
 10
91.40577697753906
 20
357.7266845703125
 30
0.0
 70
0
  0
VERTEX
  5
18A
  8
UNKNOWN
 10
76.5802230834961
 20
357.7266845703125
 30
0.0
 70
0
  0
SEQEND
  5
6E
  8
UNKNOWN
  0
POLYLINE
  5
18C
  8
BRIDGE_ROUTE
 66
1
 10
0.0
 20
0.0
 30
0.0
 70
1
  0
VERTEX
  5
18E
  8
BRIDGE_ROUTE
 10
113.23977661132812
 20
172.81155395507812
 30
0.0
 70
0
  0
VERTEX
  5
18F
  8
BRIDGE_ROUTE
 10
110.27466583251953
 20
170.92466735839844
 30
0.0
 70
0
  0
VERTEX
  5
190
  8
BRIDGE_ROUTE
 10
105.42266845703125
 20
170.92466735839844
 30
0.0
 70
0
  0
VERTEX
  5
191
  8
BRIDGE_ROUTE
 10
104.07489013671875
 20
171.73333740234375
 30
0.0
 70
0
  0
VERTEX
  5
192
  8
BRIDGE_ROUTE
 10
102.99666595458984
 20
171.19422912597656
 30
0.0
 70
0
  0
VERTEX
  5
193
  8
BRIDGE_ROUTE
 10
102.99666595458984
 20
166.61178588867188
 30
0.0
 70
0
  0
VERTEX
  5
194
  8
BRIDGE_ROUTE
 10
104.07489013671875
 20
165.5335693359375
 30
0.0
 70
0
  0
VERTEX
  5
195
  8
BRIDGE_ROUTE
 10
104.07489013671875
 20
139.3866729736328
 30
0.0
 70
0
  0
VERTEX
  5
196
  8
BRIDGE_ROUTE
 10
103.53578186035156
 20
102.18800354003906
 30
0.0
 70
0
  0
VERTEX
  5
197
  8
BRIDGE_ROUTE
 10
102.18800354003906
 20
101.10978698730469
 30
0.0
 70
0
  0
VERTEX
  5
198
  8
BRIDGE_ROUTE
 10
102.18800354003906
 20
100.5706787109375
 30
0.0
 70
0
  0
VERTEX
  5
199
  8
BRIDGE_ROUTE
 10
103.53578186035156
 20
99.49244689941406
 30
0.0
 70
0
  0
VERTEX
  5
19A
  8
BRIDGE_ROUTE
 10
102.99666595458984
 20
93.29267883300781
 30
0.0
 70
0
  0
VERTEX
  5
19B
  8
BRIDGE_ROUTE
 10
103.80533599853516
 20
92.75355529785156
 30
0.0
 70
0
  0
VERTEX
  5
19C
  8
BRIDGE_ROUTE
 10
105.42266845703125
 20
93.02311706542969
 30
0.0
 70
0
  0
VERTEX
  5
19D
  8
BRIDGE_ROUTE
 10
106.77044677734375
 20
91.94490051269531
 30
0.0
 70
0
  0
VERTEX
  5
19E
  8
BRIDGE_ROUTE
 10
107.30955505371094
 20
70.9195556640625
 30
0.0
 70
0
  0
VERTEX
  5
19F
  8
BRIDGE_ROUTE
 10
108.11822509765625
 20
70.38044738769531
 30
0.0
 70
0
  0
VERTEX
  5
1A0
  8
BRIDGE_ROUTE
 10
110.54421997070312
 20
70.38044738769531
 30
0.0
 70
0
  0
VERTEX
  5
1A1
  8
BRIDGE_ROUTE
 10
111.89199829101562
 20
71.18911743164062
 30
0.0
 70
0
  0
VERTEX
  5
1A2
  8
BRIDGE_ROUTE
 10
113.50933837890625
 20
70.9195556640625
 30
0.0
 70
0
  0
VERTEX
  5
1A3
  8
BRIDGE_ROUTE
 10
114.31800079345703
 20
71.45867919921875
 30
0.0
 70
0
  0
VERTEX
  5
1A4
  8
BRIDGE_ROUTE
 10
114.31800079345703
 20
98.95333862304688
 30
0.0
 70
0
  0
VERTEX
  5
1A5
  8
BRIDGE_ROUTE
 10
116.20488739013672
 20
100.30111694335938
 30
0.0
 70
0
  0
VERTEX
  5
1A6
  8
BRIDGE_ROUTE
 10
121.32644653320312
 20
100.30111694335938
 30
0.0
 70
0
  0
VERTEX
  5
1A7
  8
BRIDGE_ROUTE
 10
123.21333312988281
 20
101.10978698730469
 30
0.0
 70
0
  0
VERTEX
  5
1A8
  8
BRIDGE_ROUTE
 10
123.21333312988281
 20
101.64889526367188
 30
0.0
 70
0
  0
VERTEX
  5
1A9
  8
BRIDGE_ROUTE
 10
121.86555480957031
 20
102.72711944580078
 30
0.0
 70
0
  0
VERTEX
  5
1AA
  8
BRIDGE_ROUTE
 10
121.86555480957031
 20
109.19644927978516
 30
0.0
 70
0
  0
VERTEX
  5
1AB
  8
BRIDGE_ROUTE
 10
122.94377899169922
 20
110.27467346191406
 30
0.0
 70
0
  0
VERTEX
  5
1AC
  8
BRIDGE_ROUTE
 10
126.71755981445312
 20
111.62245178222656
 30
0.0
 70
0
  0
VERTEX
  5
1AD
  8
BRIDGE_ROUTE
 10
126.447998046875
 20
112.97023010253906
 30
0.0
 70
0
  0
VERTEX
  5
1AE
  8
BRIDGE_ROUTE
 10
124.02200317382812
 20
114.58756256103516
 30
0.0
 70
0
  0
VERTEX
  5
1AF
  8
BRIDGE_ROUTE
 10
124.02200317382812
 20
137.230224609375
 30
0.0
 70
0
  0
VERTEX
  5
1B0
  8
BRIDGE_ROUTE
 10
125.36978149414062
 20
138.30844116210938
 30
0.0
 70
0
  0
VERTEX
  5
1B1
  8
BRIDGE_ROUTE
 10
125.36978149414062
 20
138.84756469726562
 30
0.0
 70
0
  0
VERTEX
  5
1B2
  8
BRIDGE_ROUTE
 10
124.02200317382812
 20
139.92578125
 30
0.0
 70
0
  0
VERTEX
  5
1B3
  8
BRIDGE_ROUTE
 10
124.02200317382812
 20
160.95111083984375
 30
0.0
 70
0
  0
VERTEX
  5
1B4
  8
BRIDGE_ROUTE
 10
123.21333312988281
 20
161.75978088378906
 30
0.0
 70
0
  0
VERTEX
  5
1B5
  8
BRIDGE_ROUTE
 10
123.21333312988281
 20
165.5335693359375
 30
0.0
 70
0
  0
VERTEX
  5
1B6
  8
BRIDGE_ROUTE
 10
122.40467071533203
 20
166.0726776123047
 30
0.0
 70
0
  0
VERTEX
  5
1B7
  8
BRIDGE_ROUTE
 10
121.59600067138672
 20
165.5335693359375
 30
0.0
 70
0
  0
VERTEX
  5
1B8
  8
BRIDGE_ROUTE
 10
121.59600067138672
 20
162.29888916015625
 30
0.0
 70
0
  0
VERTEX
  5
1B9
  8
BRIDGE_ROUTE
 10
120.78733825683594
 20
161.490234375
 30
0.0
 70
0
  0
VERTEX
  5
1BA
  8
BRIDGE_ROUTE
 10
118.63088989257812
 20
161.490234375
 30
0.0
 70
0
  0
VERTEX
  5
1BB
  8
BRIDGE_ROUTE
 10
117.82221984863281
 20
162.29888916015625
 30
0.0
 70
0
  0
VERTEX
  5
1BC
  8
BRIDGE_ROUTE
 10
117.82221984863281
 20
165.80311584472656
 30
0.0
 70
0
  0
VERTEX
  5
1BD
  8
BRIDGE_ROUTE
 10
115.39622497558594
 20
166.61178588867188
 30
0.0
 70
0
  0
VERTEX
  5
1BE
  8
BRIDGE_ROUTE
 10
114.04844665527344
 20
167.69000244140625
 30
0.0
 70
0
  0
VERTEX
  5
1BF
  8
BRIDGE_ROUTE
 10
114.04844665527344
 20
169.84645080566406
 30
0.0
 70
0
  0
VERTEX
  5
1C0
  8
BRIDGE_ROUTE
 10
115.39622497558594
 20
170.92466735839844
 30
0.0
 70
0
  0
VERTEX
  5
1C1
  8
BRIDGE_ROUTE
 10
115.39622497558594
 20
171.46377563476562
 30
0.0
 70
0
  0
SEQEND
  5
18D
  8
BRIDGE_ROUTE
  0
POLYLINE
  5
1C3
  8
BODY_OUTLINE
 66
1
 10
0.0
 20
0.0
 30
0.0
 70
1
  0
VERTEX
  5
1C5
  8
BODY_OUTLINE
 10
126.71755981445312
 20
356.9179992675781
 30
0.0
 70
0
  0
VERTEX
  5
1C6
  8
BODY_OUTLINE
 10
128.87400817871094
 20
356.9179992675781
 30
0.0
 70
0
  0
VERTEX
  5
1C7
  8
BODY_OUTLINE
 10
130.22177124023438
 20
356.1093444824219
 30
0.0
 70
0
  0
VERTEX
  5
1C8
  8
BODY_OUTLINE
 10
131.839111328125
 20
356.1093444824219
 30
0.0
 70
0
  0
VERTEX
  5
1C9
  8
BODY_OUTLINE
 10
134.26510620117188
 20
357.4571228027344
 30
0.0
 70
0
  0
VERTEX
  5
1CA
  8
BODY_OUTLINE
 10
150.16888427734375
 20
357.4571228027344
 30
0.0
 70
0
  0
VERTEX
  5
1CB
  8
BODY_OUTLINE
 10
151.2471160888672
 20
356.9179992675781
 30
0.0
 70
0
  0
VERTEX
  5
1CC
  8
BODY_OUTLINE
 10
157.17733764648438
 20
356.9179992675781
 30
0.0
 70
0
  0
VERTEX
  5
1CD
  8
BODY_OUTLINE
 10
159.33377075195312
 20
355.3006591796875
 30
0.0
 70
0
  0
VERTEX
  5
1CE
  8
BODY_OUTLINE
 10
161.75978088378906
 20
354.49200439453125
 30
0.0
 70
0
  0
VERTEX
  5
1CF
  8
BODY_OUTLINE
 10
187.90667724609375
 20
327.8059997558594
 30
0.0
 70
0
  0
VERTEX
  5
1D0
  8
BODY_OUTLINE
 10
188.71533203125
 20
325.91912841796875
 30
0.0
 70
0
  0
VERTEX
  5
1D1
  8
BODY_OUTLINE
 10
188.71533203125
 20
324.3017883300781
 30
0.0
 70
0
  0
VERTEX
  5
1D2
  8
BODY_OUTLINE
 10
189.79354858398438
 20
323.22357177734375
 30
0.0
 70
0
  0
VERTEX
  5
1D3
  8
BODY_OUTLINE
 10
189.79354858398438
 20
322.14532470703125
 30
0.0
 70
0
  0
VERTEX
  5
1D4
  8
BODY_OUTLINE
 10
196.2628936767578
 20
314.3282470703125
 30
0.0
 70
0
  0
VERTEX
  5
1D5
  8
BODY_OUTLINE
 10
197.88021850585938
 20
308.1284484863281
 30
0.0
 70
0
  0
VERTEX
  5
1D6
  8
BODY_OUTLINE
 10
202.193115234375
 20
302.1982421875
 30
0.0
 70
0
  0
VERTEX
  5
1D7
  8
BODY_OUTLINE
 10
202.193115234375
 20
298.1549072265625
 30
0.0
 70
0
  0
VERTEX
  5
1D8
  8
BODY_OUTLINE
 10
203.00177001953125
 20
296.80712890625
 30
0.0
 70
0
  0
VERTEX
  5
1D9
  8
BODY_OUTLINE
 10
203.00177001953125
 20
295.7288818359375
 30
0.0
 70
0
  0
VERTEX
  5
1DA
  8
BODY_OUTLINE
 10
205.4277801513672
 20
291.416015625
 30
0.0
 70
0
  0
VERTEX
  5
1DB
  8
BODY_OUTLINE
 10
206.7755584716797
 20
286.29443359375
 30
0.0
 70
0
  0
VERTEX
  5
1DC
  8
BODY_OUTLINE
 10
212.1666717529297
 20
280.6337890625
 30
0.0
 70
0
  0
VERTEX
  5
1DD
  8
BODY_OUTLINE
 10
214.59266662597656
 20
275.78179931640625
 30
0.0
 70
0
  0
VERTEX
  5
1DE
  8
BODY_OUTLINE
 10
214.59266662597656
 20
262.30401611328125
 30
0.0
 70
0
  0
VERTEX
  5
1DF
  8
BODY_OUTLINE
 10
215.13177490234375
 20
260.95623779296875
 30
0.0
 70
0
  0
VERTEX
  5
1E0
  8
BODY_OUTLINE
 10
215.13177490234375
 20
256.91290283203125
 30
0.0
 70
0
  0
VERTEX
  5
1E1
  8
BODY_OUTLINE
 10
217.82733154296875
 20
252.86956787109375
 30
0.0
 70
0
  0
VERTEX
  5
1E2
  8
BODY_OUTLINE
 10
217.82733154296875
 20
249.6348876953125
 30
0.0
 70
0
  0
VERTEX
  5
1E3
  8
BODY_OUTLINE
 10
219.17510986328125
 20
248.287109375
 30
0.0
 70
0
  0
VERTEX
  5
1E4
  8
BODY_OUTLINE
 10
219.98377990722656
 20
246.13067626953125
 30
0.0
 70
0
  0
VERTEX
  5
1E5
  8
BODY_OUTLINE
 10
219.98377990722656
 20
224.2966766357422
 30
0.0
 70
0
  0
VERTEX
  5
1E6
  8
BODY_OUTLINE
 10
219.44467163085938
 20
223.48800659179688
 30
0.0
 70
0
  0
VERTEX
  5
1E7
  8
BODY_OUTLINE
 10
219.17510986328125
 20
216.2100067138672
 30
0.0
 70
0
  0
VERTEX
  5
1E8
  8
BODY_OUTLINE
 10
219.44467163085938
 20
178.20266723632812
 30
0.0
 70
0
  0
VERTEX
  5
1E9
  8
BODY_OUTLINE
 10
218.90554809570312
 20
177.12445068359375
 30
0.0
 70
0
  0
VERTEX
  5
1EA
  8
BODY_OUTLINE
 10
218.366455078125
 20
161.22067260742188
 30
0.0
 70
0
  0
VERTEX
  5
1EB
  8
BODY_OUTLINE
 10
217.55776977539062
 20
160.1424560546875
 30
0.0
 70
0
  0
VERTEX
  5
1EC
  8
BODY_OUTLINE
 10
217.28822326660156
 20
149.09066772460938
 30
0.0
 70
0
  0
VERTEX
  5
1ED
  8
BODY_OUTLINE
 10
214.05355834960938
 20
144.23867797851562
 30
0.0
 70
0
  0
VERTEX
  5
1EE
  8
BODY_OUTLINE
 10
214.05355834960938
 20
143.16046142578125
 30
0.0
 70
0
  0
VERTEX
  5
1EF
  8
BODY_OUTLINE
 10
212.70578002929688
 20
141.2735595703125
 30
0.0
 70
0
  0
VERTEX
  5
1F0
  8
BODY_OUTLINE
 10
212.43621826171875
 20
139.65621948242188
 30
0.0
 70
0
  0
VERTEX
  5
1F1
  8
BODY_OUTLINE
 10
203.81045532226562
 20
130.76089477539062
 30
0.0
 70
0
  0
VERTEX
  5
1F2
  8
BODY_OUTLINE
 10
203.5408935546875
 20
128.60446166992188
 30
0.0
 70
0
  0
VERTEX
  5
1F3
  8
BODY_OUTLINE
 10
201.65399169921875
 20
125.90889739990234
 30
0.0
 70
0
  0
VERTEX
  5
1F4
  8
BODY_OUTLINE
 10
201.11489868164062
 20
123.75244903564453
 30
0.0
 70
0
  0
VERTEX
  5
1F5
  8
BODY_OUTLINE
 10
185.4806671142578
 20
106.77044677734375
 30
0.0
 70
0
  0
VERTEX
  5
1F6
  8
BODY_OUTLINE
 10
183.32421875
 20
106.77044677734375
 30
0.0
 70
0
  0
VERTEX
  5
1F7
  8
BODY_OUTLINE
 10
177.3939971923828
 20
115.12667083740234
 30
0.0
 70
0
  0
VERTEX
  5
1F8
  8
BODY_OUTLINE
 10
164.72488403320312
 20
129.9522247314453
 30
0.0
 70
0
  0
VERTEX
  5
1F9
  8
BODY_OUTLINE
 10
161.49021911621094
 20
135.07379150390625
 30
0.0
 70
0
  0
VERTEX
  5
1FA
  8
BODY_OUTLINE
 10
160.41200256347656
 20
138.30844116210938
 30
0.0
 70
0
  0
VERTEX
  5
1FB
  8
BODY_OUTLINE
 10
160.14244079589844
 20
145.8560028076172
 30
0.0
 70
0
  0
VERTEX
  5
1FC
  8
BODY_OUTLINE
 10
161.22067260742188
 20
148.28201293945312
 30
0.0
 70
0
  0
VERTEX
  5
1FD
  8
BODY_OUTLINE
 10
161.22067260742188
 20
149.3602294921875
 30
0.0
 70
0
  0
VERTEX
  5
1FE
  8
BODY_OUTLINE
 10
165.53355407714844
 20
158.25555419921875
 30
0.0
 70
0
  0
VERTEX
  5
1FF
  8
BODY_OUTLINE
 10
166.07266235351562
 20
160.6815643310547
 30
0.0
 70
0
  0
VERTEX
  5
200
  8
BODY_OUTLINE
 10
167.15089416503906
 20
162.0293426513672
 30
0.0
 70
0
  0
VERTEX
  5
201
  8
BODY_OUTLINE
 10
168.49867248535156
 20
165.26400756835938
 30
0.0
 70
0
  0
VERTEX
  5
202
  8
BODY_OUTLINE
 10
169.30734252929688
 20
168.49867248535156
 30
0.0
 70
0
  0
VERTEX
  5
203
  8
BODY_OUTLINE
 10
169.57688903808594
 20
173.88978576660156
 30
0.0
 70
0
  0
VERTEX
  5
204
  8
BODY_OUTLINE
 10
169.03778076171875
 20
177.93312072753906
 30
0.0
 70
0
  0
VERTEX
  5
205
  8
BODY_OUTLINE
 10
167.95956420898438
 20
181.16778564453125
 30
0.0
 70
0
  0
VERTEX
  5
206
  8
BODY_OUTLINE
 10
165.80311584472656
 20
184.94155883789062
 30
0.0
 70
0
  0
VERTEX
  5
207
  8
BODY_OUTLINE
 10
163.64666748046875
 20
187.09800720214844
 30
0.0
 70
0
  0
VERTEX
  5
208
  8
BODY_OUTLINE
 10
160.68154907226562
 20
188.71533203125
 30
0.0
 70
0
  0
VERTEX
  5
209
  8
BODY_OUTLINE
 10
158.79466247558594
 20
189.25445556640625
 30
0.0
 70
0
  0
VERTEX
  5
20A
  8
BODY_OUTLINE
 10
154.48178100585938
 20
189.25445556640625
 30
0.0
 70
0
  0
VERTEX
  5
20B
  8
BODY_OUTLINE
 10
150.43844604492188
 20
187.63711547851562
 30
0.0
 70
0
  0
VERTEX
  5
20C
  8
BODY_OUTLINE
 10
148.28199768066406
 20
186.019775390625
 30
0.0
 70
0
  0
VERTEX
  5
20D
  8
BODY_OUTLINE
 10
141.54310607910156
 20
178.74179077148438
 30
0.0
 70
0
  0
VERTEX
  5
20E
  8
BODY_OUTLINE
 10
138.84756469726562
 20
176.85488891601562
 30
0.0
 70
0
  0
VERTEX
  5
20F
  8
BODY_OUTLINE
 10
137.49978637695312
 20
176.31578063964844
 30
0.0
 70
0
  0
VERTEX
  5
210
  8
BODY_OUTLINE
 10
131.3000030517578
 20
176.31578063964844
 30
0.0
 70
0
  0
VERTEX
  5
211
  8
BODY_OUTLINE
 10
126.1784439086914
 20
180.89822387695312
 30
0.0
 70
0
  0
VERTEX
  5
212
  8
BODY_OUTLINE
 10
124.56111145019531
 20
183.59378051757812
 30
0.0
 70
0
  0
VERTEX
  5
213
  8
BODY_OUTLINE
 10
123.4828872680664
 20
186.8284454345703
 30
0.0
 70
0
  0
VERTEX
  5
214
  8
BODY_OUTLINE
 10
121.59600067138672
 20
326.727783203125
 30
0.0
 70
0
  0
VERTEX
  5
215
  8
BODY_OUTLINE
 10
122.40467071533203
 20
328.61468505859375
 30
0.0
 70
0
  0
VERTEX
  5
216
  8
BODY_OUTLINE
 10
126.447998046875
 20
332.118896484375
 30
0.0
 70
0
  0
VERTEX
  5
217
  8
BODY_OUTLINE
 10
126.71755981445312
 20
334.00579833984375
 30
0.0
 70
0
  0
VERTEX
  5
218
  8
BODY_OUTLINE
 10
127.25666809082031
 20
334.5448913574219
 30
0.0
 70
0
  0
VERTEX
  5
219
  8
BODY_OUTLINE
 10
131.56954956054688
 20
334.5448913574219
 30
0.0
 70
0
  0
VERTEX
  5
21A
  8
BODY_OUTLINE
 10
133.45645141601562
 20
335.35357666015625
 30
0.0
 70
0
  0
VERTEX
  5
21B
  8
BODY_OUTLINE
 10
134.26510620117188
 20
336.70135498046875
 30
0.0
 70
0
  0
VERTEX
  5
21C
  8
BODY_OUTLINE
 10
134.26510620117188
 20
338.31866455078125
 30
0.0
 70
0
  0
VERTEX
  5
21D
  8
BODY_OUTLINE
 10
133.1868896484375
 20
340.20556640625
 30
0.0
 70
0
  0
VERTEX
  5
21E
  8
BODY_OUTLINE
 10
131.56954956054688
 20
341.01422119140625
 30
0.0
 70
0
  0
VERTEX
  5
21F
  8
BODY_OUTLINE
 10
130.22177124023438
 20
340.4751281738281
 30
0.0
 70
0
  0
VERTEX
  5
220
  8
BODY_OUTLINE
 10
126.71755981445312
 20
340.74468994140625
 30
0.0
 70
0
  0
VERTEX
  5
221
  8
BODY_OUTLINE
 10
126.71755981445312
 20
345.8662109375
 30
0.0
 70
0
  0
VERTEX
  5
222
  8
BODY_OUTLINE
 10
132.6477813720703
 20
345.8662109375
 30
0.0
 70
0
  0
VERTEX
  5
223
  8
BODY_OUTLINE
 10
133.45645141601562
 20
346.40533447265625
 30
0.0
 70
0
  0
VERTEX
  5
224
  8
BODY_OUTLINE
 10
133.9955596923828
 20
349.3704528808594
 30
0.0
 70
0
  0
VERTEX
  5
225
  8
BODY_OUTLINE
 10
133.1868896484375
 20
350.44866943359375
 30
0.0
 70
0
  0
VERTEX
  5
226
  8
BODY_OUTLINE
 10
129.1435546875
 20
350.98779296875
 30
0.0
 70
0
  0
VERTEX
  5
227
  8
BODY_OUTLINE
 10
128.87400817871094
 20
349.6400146484375
 30
0.0
 70
0
  0
VERTEX
  5
228
  8
BODY_OUTLINE
 10
126.447998046875
 20
349.9095458984375
 30
0.0
 70
0
  0
SEQEND
  5
1C4
  8
BODY_OUTLINE
  0
POLYLINE
  5
229
  8
BODY_OUTLINE
 66
1
 10
0.0
 20
0.0
 30
0.0
 70
1
  0
VERTEX
  5
22B
  8
BODY_OUTLINE
 10
98.68377685546875
 20
356.6484375
 30
0.0
 70
0
  0
VERTEX
  5
22C
  8
BODY_OUTLINE
 10
98.95333862304688
 20
350.98779296875
 30
0.0
 70
0
  0
VERTEX
  5
22D
  8
BODY_OUTLINE
 10
93.29266357421875
 20
350.98779296875
 30
0.0
 70
0
  0
VERTEX
  5
22E
  8
BODY_OUTLINE
 10
91.94489288330078
 20
350.44866943359375
 30
0.0
 70
0
  0
VERTEX
  5
22F
  8
BODY_OUTLINE
 10
91.40577697753906
 20
349.3704528808594
 30
0.0
 70
0
  0
VERTEX
  5
230
  8
BODY_OUTLINE
 10
91.94489288330078
 20
347.2139892578125
 30
0.0
 70
0
  0
VERTEX
  5
231
  8
BODY_OUTLINE
 10
93.02311706542969
 20
345.8662109375
 30
0.0
 70
0
  0
VERTEX
  5
232
  8
BODY_OUTLINE
 10
95.98822021484375
 20
345.8662109375
 30
0.0
 70
0
  0
VERTEX
  5
233
  8
BODY_OUTLINE
 10
96.52733612060547
 20
346.40533447265625
 30
0.0
 70
0
  0
VERTEX
  5
234
  8
BODY_OUTLINE
 10
98.95333862304688
 20
346.1357727050781
 30
0.0
 70
0
  0
VERTEX
  5
235
  8
BODY_OUTLINE
 10
98.68377685546875
 20
341.01422119140625
 30
0.0
 70
0
  0
VERTEX
  5
236
  8
BODY_OUTLINE
 10
92.48400115966797
 20
341.01422119140625
 30
0.0
 70
0
  0
VERTEX
  5
237
  8
BODY_OUTLINE
 10
91.94489288330078
 20
340.4751281738281
 30
0.0
 70
0
  0
VERTEX
  5
238
  8
BODY_OUTLINE
 10
91.40577697753906
 20
337.2404479980469
 30
0.0
 70
0
  0
VERTEX
  5
239
  8
BODY_OUTLINE
 10
91.94489288330078
 20
335.62310791015625
 30
0.0
 70
0
  0
VERTEX
  5
23A
  8
BODY_OUTLINE
 10
94.10133361816406
 20
334.5448913574219
 30
0.0
 70
0
  0
VERTEX
  5
23B
  8
BODY_OUTLINE
 10
95.71866607666016
 20
335.0840148925781
 30
0.0
 70
0
  0
VERTEX
  5
23C
  8
BODY_OUTLINE
 10
97.87511444091797
 20
335.0840148925781
 30
0.0
 70
0
  0
VERTEX
  5
23D
  8
BODY_OUTLINE
 10
98.95333862304688
 20
333.4666748046875
 30
0.0
 70
0
  0
VERTEX
  5
23E
  8
BODY_OUTLINE
 10
98.95333862304688
 20
332.118896484375
 30
0.0
 70
0
  0
VERTEX
  5
23F
  8
BODY_OUTLINE
 10
99.49244689941406
 20
331.31024169921875
 30
0.0
 70
0
  0
VERTEX
  5
240
  8
BODY_OUTLINE
 10
104.07489013671875
 20
327.53643798828125
 30
0.0
 70
0
  0
VERTEX
  5
241
  8
BODY_OUTLINE
 10
104.34444427490234
 20
326.4582214355469
 30
0.0
 70
0
  0
VERTEX
  5
242
  8
BODY_OUTLINE
 10
102.45755767822266
 20
204.0800018310547
 30
0.0
 70
0
  0
VERTEX
  5
243
  8
BODY_OUTLINE
 10
98.68377685546875
 20
203.81045532226562
 30
0.0
 70
0
  0
VERTEX
  5
244
  8
BODY_OUTLINE
 10
97.87511444091797
 20
202.193115234375
 30
0.0
 70
0
  0
VERTEX
  5
245
  8
BODY_OUTLINE
 10
90.59711456298828
 20
201.92355346679688
 30
0.0
 70
0
  0
VERTEX
  5
246
  8
BODY_OUTLINE
 10
84.3973388671875
 20
200.8453369140625
 30
0.0
 70
0
  0
VERTEX
  5
247
  8
BODY_OUTLINE
 10
74.42378234863281
 20
197.6106719970703
 30
0.0
 70
0
  0
VERTEX
  5
248
  8
BODY_OUTLINE
 10
67.14578247070312
 20
193.02822875976562
 30
0.0
 70
0
  0
VERTEX
  5
249
  8
BODY_OUTLINE
 10
63.64155578613281
 20
189.5240020751953
 30
0.0
 70
0
  0
VERTEX
  5
24A
  8
BODY_OUTLINE
 10
60.94600296020508
 20
185.75022888183594
 30
0.0
 70
0
  0
VERTEX
  5
24B
  8
BODY_OUTLINE
 10
57.98088836669922
 20
177.93312072753906
 30
0.0
 70
0
  0
VERTEX
  5
24C
  8
BODY_OUTLINE
 10
57.98088836669922
 20
167.69000244140625
 30
0.0
 70
0
  0
VERTEX
  5
24D
  8
BODY_OUTLINE
 10
60.67644500732422
 20
158.794677734375
 30
0.0
 70
0
  0
VERTEX
  5
24E
  8
BODY_OUTLINE
 10
64.98933410644531
 20
149.8993377685547
 30
0.0
 70
0
  0
VERTEX
  5
24F
  8
BODY_OUTLINE
 10
66.6066665649414
 20
145.31689453125
 30
0.0
 70
0
  0
VERTEX
  5
250
  8
BODY_OUTLINE
 10
67.14578247070312
 20
142.35177612304688
 30
0.0
 70
0
  0
VERTEX
  5
251
  8
BODY_OUTLINE
 10
66.876220703125
 20
138.30844116210938
 30
0.0
 70
0
  0
VERTEX
  5
252
  8
BODY_OUTLINE
 10
65.5284423828125
 20
134.53466796875
 30
0.0
 70
0
  0
VERTEX
  5
253
  8
BODY_OUTLINE
 10
63.91111373901367
 20
131.839111328125
 30
0.0
 70
0
  0
VERTEX
  5
254
  8
BODY_OUTLINE
 10
49.08555603027344
 20
114.31800842285156
 30
0.0
 70
0
  0
VERTEX
  5
255
  8
BODY_OUTLINE
 10
45.31178283691406
 20
108.92689514160156
 30
0.0
 70
0
  0
VERTEX
  5
256
  8
BODY_OUTLINE
 10
43.15533447265625
 20
104.88356018066406
 30
0.0
 70
0
  0
VERTEX
  5
257
  8
BODY_OUTLINE
 10
40.729331970214844
 20
104.61400604248047
 30
0.0
 70
0
  0
VERTEX
  5
258
  8
BODY_OUTLINE
 10
33.451332092285156
 20
112.43111419677734
 30
0.0
 70
0
  0
VERTEX
  5
259
  8
BODY_OUTLINE
 10
32.37311553955078
 20
119.70911407470703
 30
0.0
 70
0
  0
VERTEX
  5
25A
  8
BODY_OUTLINE
 10
32.37311553955078
 20
135.3433380126953
 30
0.0
 70
0
  0
VERTEX
  5
25B
  8
BODY_OUTLINE
 10
31.833999633789062
 20
135.8824462890625
 30
0.0
 70
0
  0
VERTEX
  5
25C
  8
BODY_OUTLINE
 10
31.294891357421875
 20
140.19534301757812
 30
0.0
 70
0
  0
VERTEX
  5
25D
  8
BODY_OUTLINE
 10
20.512664794921875
 20
151.51666259765625
 30
0.0
 70
0
  0
VERTEX
  5
25E
  8
BODY_OUTLINE
 10
19.164886474609375
 20
155.55999755859375
 30
0.0
 70
0
  0
VERTEX
  5
25F
  8
BODY_OUTLINE
 10
17.277999877929688
 20
157.71646118164062
 30
0.0
 70
0
  0
VERTEX
  5
260
  8
BODY_OUTLINE
 10
17.277999877929688
 20
159.3337860107422
 30
0.0
 70
0
  0
VERTEX
  5
261
  8
BODY_OUTLINE
 10
10.808670043945312
 20
166.34222412109375
 30
0.0
 70
0
  0
VERTEX
  5
262
  8
BODY_OUTLINE
 10
10.808670043945312
 20
171.73333740234375
 30
0.0
 70
0
  0
VERTEX
  5
263
  8
BODY_OUTLINE
 10
11.886886596679688
 20
172.81155395507812
 30
0.0
 70
0
  0
VERTEX
  5
264
  8
BODY_OUTLINE
 10
12.426002502441406
 20
175.23756408691406
 30
0.0
 70
0
  0
VERTEX
  5
265
  8
BODY_OUTLINE
 10
14.582443237304688
 20
179.55044555664062
 30
0.0
 70
0
  0
VERTEX
  5
266
  8
BODY_OUTLINE
 10
14.852005004882812
 20
206.2364501953125
 30
0.0
 70
0
  0
VERTEX
  5
267
  8
BODY_OUTLINE
 10
15.930221557617188
 20
207.584228515625
 30
0.0
 70
0
  0
VERTEX
  5
268
  8
BODY_OUTLINE
 10
15.930221557617188
 20
211.6275634765625
 30
0.0
 70
0
  0
VERTEX
  5
269
  8
BODY_OUTLINE
 10
16.7388916015625
 20
212.70578002929688
 30
0.0
 70
0
  0
VERTEX
  5
26A
  8
BODY_OUTLINE
 10
16.7388916015625
 20
221.6011199951172
 30
0.0
 70
0
  0
VERTEX
  5
26B
  8
BODY_OUTLINE
 10
17.54755401611328
 20
223.48800659179688
 30
0.0
 70
0
  0
VERTEX
  5
26C
  8
BODY_OUTLINE
 10
17.817115783691406
 20
226.72267150878906
 30
0.0
 70
0
  0
VERTEX
  5
26D
  8
BODY_OUTLINE
 10
19.4344482421875
 20
229.95733642578125
 30
0.0
 70
0
  0
VERTEX
  5
26E
  8
BODY_OUTLINE
 10
19.4344482421875
 20
237.50489807128906
 30
0.0
 70
0
  0
VERTEX
  5
26F
  8
BODY_OUTLINE
 10
19.973556518554688
 20
238.58311462402344
 30
0.0
 70
0
  0
VERTEX
  5
270
  8
BODY_OUTLINE
 10
20.512664794921875
 20
249.90444946289062
 30
0.0
 70
0
  0
VERTEX
  5
271
  8
BODY_OUTLINE
 10
21.321334838867188
 20
253.40867614746094
 30
0.0
 70
0
  0
VERTEX
  5
272
  8
BODY_OUTLINE
 10
21.59088897705078
 20
257.7215576171875
 30
0.0
 70
0
  0
VERTEX
  5
273
  8
BODY_OUTLINE
 10
22.93866729736328
 20
261.22576904296875
 30
0.0
 70
0
  0
VERTEX
  5
274
  8
BODY_OUTLINE
 10
24.28644561767578
 20
262.8431091308594
 30
0.0
 70
0
  0
VERTEX
  5
275
  8
BODY_OUTLINE
 10
24.28644561767578
 20
263.65179443359375
 30
0.0
 70
0
  0
VERTEX
  5
276
  8
BODY_OUTLINE
 10
25.364669799804688
 20
265.26910400390625
 30
0.0
 70
0
  0
VERTEX
  5
277
  8
BODY_OUTLINE
 10
25.364669799804688
 20
273.6253356933594
 30
0.0
 70
0
  0
VERTEX
  5
278
  8
BODY_OUTLINE
 10
27.251556396484375
 20
276.8600158691406
 30
0.0
 70
0
  0
VERTEX
  5
279
  8
BODY_OUTLINE
 10
28.060226440429688
 20
285.2162170410156
 30
0.0
 70
0
  0
VERTEX
  5
27A
  8
BODY_OUTLINE
 10
29.947113037109375
 20
287.3726806640625
 30
0.0
 70
0
  0
VERTEX
  5
27B
  8
BODY_OUTLINE
 10
30.21666717529297
 20
288.989990234375
 30
0.0
 70
0
  0
VERTEX
  5
27C
  8
BODY_OUTLINE
 10
32.37311553955078
 20
291.416015625
 30
0.0
 70
0
  0
VERTEX
  5
27D
  8
BODY_OUTLINE
 10
32.642669677734375
 20
296.80712890625
 30
0.0
 70
0
  0
VERTEX
  5
27E
  8
BODY_OUTLINE
 10
36.146888732910156
 20
300.8504638671875
 30
0.0
 70
0
  0
VERTEX
  5
27F
  8
BODY_OUTLINE
 10
36.686004638671875
 20
304.35467529296875
 30
0.0
 70
0
  0
VERTEX
  5
280
  8
BODY_OUTLINE
 10
37.76422119140625
 20
305.9720153808594
 30
0.0
 70
0
  0
VERTEX
  5
281
  8
BODY_OUTLINE
 10
38.57289123535156
 20
309.4762268066406
 30
0.0
 70
0
  0
VERTEX
  5
282
  8
BODY_OUTLINE
 10
40.729331970214844
 20
312.98046875
 30
0.0
 70
0
  0
VERTEX
  5
283
  8
BODY_OUTLINE
 10
43.15533447265625
 20
315.6759948730469
 30
0.0
 70
0
  0
VERTEX
  5
284
  8
BODY_OUTLINE
 10
43.15533447265625
 20
318.3715515136719
 30
0.0
 70
0
  0
VERTEX
  5
285
  8
BODY_OUTLINE
 10
48.00733184814453
 20
325.6495666503906
 30
0.0
 70
0
  0
VERTEX
  5
286
  8
BODY_OUTLINE
 10
48.54644775390625
 20
326.9973449707031
 30
0.0
 70
0
  0
VERTEX
  5
287
  8
BODY_OUTLINE
 10
48.54644775390625
 20
330.5015563964844
 30
0.0
 70
0
  0
VERTEX
  5
288
  8
BODY_OUTLINE
 10
49.08555603027344
 20
331.57977294921875
 30
0.0
 70
0
  0
VERTEX
  5
289
  8
BODY_OUTLINE
 10
53.937557220458984
 20
337.510009765625
 30
0.0
 70
0
  0
VERTEX
  5
28A
  8
BODY_OUTLINE
 10
57.711334228515625
 20
341.2837829589844
 30
0.0
 70
0
  0
VERTEX
  5
28B
  8
BODY_OUTLINE
 10
58.52000045776367
 20
341.5533447265625
 30
0.0
 70
0
  0
VERTEX
  5
28C
  8
BODY_OUTLINE
 10
69.57177734375
 20
352.3355712890625
 30
0.0
 70
0
  0
VERTEX
  5
28D
  8
BODY_OUTLINE
 10
74.6933364868164
 20
356.6484375
 30
0.0
 70
0
  0
VERTEX
  5
28E
  8
BODY_OUTLINE
 10
77.11933898925781
 20
357.4571228027344
 30
0.0
 70
0
  0
VERTEX
  5
28F
  8
BODY_OUTLINE
 10
91.13622283935547
 20
357.4571228027344
 30
0.0
 70
0
  0
VERTEX
  5
290
  8
BODY_OUTLINE
 10
94.10133361816406
 20
355.83978271484375
 30
0.0
 70
0
  0
VERTEX
  5
291
  8
BODY_OUTLINE
 10
96.25778198242188
 20
356.6484375
 30
0.0
 70
0
  0
SEQEND
  5
22A
  8
BODY_OUTLINE
  0
POLYLINE
  5
292
  8
BODY_OUTLINE
 66
1
 10
0.0
 20
0.0
 30
0.0
 70
1
  0
VERTEX
  5
294
  8
BODY_OUTLINE
 10
74.962890625
 20
357.18756103515625
 30
0.0
 70
0
  0
VERTEX
  5
295
  8
BODY_OUTLINE
 10
72.80644226074219
 20
355.83978271484375
 30
0.0
 70
0
  0
VERTEX
  5
296
  8
BODY_OUTLINE
 10
58.25044631958008
 20
341.8228759765625
 30
0.0
 70
0
  0
VERTEX
  5
297
  8
BODY_OUTLINE
 10
57.44178009033203
 20
341.5533447265625
 30
0.0
 70
0
  0
VERTEX
  5
298
  8
BODY_OUTLINE
 10
53.66800308227539
 20
337.7795715332031
 30
0.0
 70
0
  0
VERTEX
  5
299
  8
BODY_OUTLINE
 10
48.816001892089844
 20
331.8493347167969
 30
0.0
 70
0
  0
VERTEX
  5
29A
  8
BODY_OUTLINE
 10
48.276893615722656
 20
330.7711181640625
 30
0.0
 70
0
  0
VERTEX
  5
29B
  8
BODY_OUTLINE
 10
48.276893615722656
 20
326.9973449707031
 30
0.0
 70
0
  0
VERTEX
  5
29C
  8
BODY_OUTLINE
 10
46.929115295410156
 20
325.1104431152344
 30
0.0
 70
0
  0
VERTEX
  5
29D
  8
BODY_OUTLINE
 10
46.929115295410156
 20
324.3017883300781
 30
0.0
 70
0
  0
VERTEX
  5
29E
  8
BODY_OUTLINE
 10
42.885780334472656
 20
318.9106750488281
 30
0.0
 70
0
  0
VERTEX
  5
29F
  8
BODY_OUTLINE
 10
42.885780334472656
 20
315.945556640625
 30
0.0
 70
0
  0
VERTEX
  5
2A0
  8
BODY_OUTLINE
 10
40.190223693847656
 20
312.98046875
 30
0.0
 70
0
  0
VERTEX
  5
2A1
  8
BODY_OUTLINE
 10
39.381553649902344
 20
311.09356689453125
 30
0.0
 70
0
  0
VERTEX
  5
2A2
  8
BODY_OUTLINE
 10
38.30333709716797
 20
310.0153503417969
 30
0.0
 70
0
  0
VERTEX
  5
2A3
  8
BODY_OUTLINE
 10
37.494667053222656
 20
305.9720153808594
 30
0.0
 70
0
  0
VERTEX
  5
2A4
  8
BODY_OUTLINE
 10
36.41644287109375
 20
304.893798828125
 30
0.0
 70
0
  0
VERTEX
  5
2A5
  8
BODY_OUTLINE
 10
35.87733459472656
 20
301.1199951171875
 30
0.0
 70
0
  0
VERTEX
  5
2A6
  8
BODY_OUTLINE
 10
32.37311553955078
 20
297.3462219238281
 30
0.0
 70
0
  0
VERTEX
  5
2A7
  8
BODY_OUTLINE
 10
32.103553771972656
 20
291.685546875
 30
0.0
 70
0
  0
VERTEX
  5
2A8
  8
BODY_OUTLINE
 10
29.947113037109375
 20
289.2595520019531
 30
0.0
 70
0
  0
VERTEX
  5
2A9
  8
BODY_OUTLINE
 10
29.947113037109375
 20
287.9117736816406
 30
0.0
 70
0
  0
VERTEX
  5
2AA
  8
BODY_OUTLINE
 10
27.790664672851562
 20
285.48577880859375
 30
0.0
 70
0
  0
VERTEX
  5
2AB
  8
BODY_OUTLINE
 10
26.98200225830078
 20
277.12957763671875
 30
0.0
 70
0
  0
VERTEX
  5
2AC
  8
BODY_OUTLINE
 10
25.095115661621094
 20
273.8948974609375
 30
0.0
 70
0
  0
VERTEX
  5
2AD
  8
BODY_OUTLINE
 10
25.095115661621094
 20
265.5386657714844
 30
0.0
 70
0
  0
VERTEX
  5
2AE
  8
BODY_OUTLINE
 10
24.28644561767578
 20
264.7300109863281
 30
0.0
 70
0
  0
VERTEX
  5
2AF
  8
BODY_OUTLINE
 10
24.016891479492188
 20
263.1126708984375
 30
0.0
 70
0
  0
VERTEX
  5
2B0
  8
BODY_OUTLINE
 10
22.399559020996094
 20
261.22576904296875
 30
0.0
 70
0
  0
VERTEX
  5
2B1
  8
BODY_OUTLINE
 10
22.399559020996094
 20
260.1475524902344
 30
0.0
 70
0
  0
VERTEX
  5
2B2
  8
BODY_OUTLINE
 10
21.860443115234375
 20
259.60845947265625
 30
0.0
 70
0
  0
VERTEX
  5
2B3
  8
BODY_OUTLINE
 10
21.051780700683594
 20
256.6433410644531
 30
0.0
 70
0
  0
VERTEX
  5
2B4
  8
BODY_OUTLINE
 10
21.051780700683594
 20
253.40867614746094
 30
0.0
 70
0
  0
VERTEX
  5
2B5
  8
BODY_OUTLINE
 10
20.512664794921875
 20
252.60000610351562
 30
0.0
 70
0
  0
VERTEX
  5
2B6
  8
BODY_OUTLINE
 10
19.973556518554688
 20
241.54823303222656
 30
0.0
 70
0
  0
VERTEX
  5
2B7
  8
BODY_OUTLINE
 10
19.164886474609375
 20
237.77444458007812
 30
0.0
 70
0
  0
VERTEX
  5
2B8
  8
BODY_OUTLINE
 10
19.164886474609375
 20
229.95733642578125
 30
0.0
 70
0
  0
VERTEX
  5
2B9
  8
BODY_OUTLINE
 10
17.54755401611328
 20
227.26177978515625
 30
0.0
 70
0
  0
VERTEX
  5
2BA
  8
BODY_OUTLINE
 10
17.277999877929688
 20
223.757568359375
 30
0.0
 70
0
  0
VERTEX
  5
2BB
  8
BODY_OUTLINE
 10
16.469337463378906
 20
222.14022827148438
 30
0.0
 70
0
  0
VERTEX
  5
2BC
  8
BODY_OUTLINE
 10
16.469337463378906
 20
212.975341796875
 30
0.0
 70
0
  0
VERTEX
  5
2BD
  8
BODY_OUTLINE
 10
15.660667419433594
 20
212.1666717529297
 30
0.0
 70
0
  0
VERTEX
  5
2BE
  8
BODY_OUTLINE
 10
15.660667419433594
 20
207.85379028320312
 30
0.0
 70
0
  0
VERTEX
  5
2BF
  8
BODY_OUTLINE
 10
14.582443237304688
 20
206.7755584716797
 30
0.0
 70
0
  0
VERTEX
  5
2C0
  8
BODY_OUTLINE
 10
14.312889099121094
 20
179.55044555664062
 30
0.0
 70
0
  0
VERTEX
  5
2C1
  8
BODY_OUTLINE
 10
13.234664916992188
 20
178.20266723632812
 30
0.0
 70
0
  0
VERTEX
  5
2C2
  8
BODY_OUTLINE
 10
12.965110778808594
 20
176.31578063964844
 30
0.0
 70
0
  0
VERTEX
  5
2C3
  8
BODY_OUTLINE
 10
11.617332458496094
 20
174.15933227539062
 30
0.0
 70
0
  0
VERTEX
  5
2C4
  8
BODY_OUTLINE
 10
11.617332458496094
 20
173.08111572265625
 30
0.0
 70
0
  0
VERTEX
  5
2C5
  8
BODY_OUTLINE
 10
10.0
 20
171.46377563476562
 30
0.0
 70
0
  0
VERTEX
  5
2C6
  8
BODY_OUTLINE
 10
10.0
 20
166.61178588867188
 30
0.0
 70
0
  0
VERTEX
  5
2C7
  8
BODY_OUTLINE
 10
17.008445739746094
 20
159.06423950195312
 30
0.0
 70
0
  0
VERTEX
  5
2C8
  8
BODY_OUTLINE
 10
17.008445739746094
 20
157.17733764648438
 30
0.0
 70
0
  0
VERTEX
  5
2C9
  8
BODY_OUTLINE
 10
18.89533233642578
 20
155.2904510498047
 30
0.0
 70
0
  0
VERTEX
  5
2CA
  8
BODY_OUTLINE
 10
20.24311065673828
 20
151.2471160888672
 30
0.0
 70
0
  0
VERTEX
  5
2CB
  8
BODY_OUTLINE
 10
31.02533721923828
 20
139.92578125
 30
0.0
 70
0
  0
VERTEX
  5
2CC
  8
BODY_OUTLINE
 10
31.56444549560547
 20
135.61288452148438
 30
0.0
 70
0
  0
VERTEX
  5
2CD
  8
BODY_OUTLINE
 10
32.103553771972656
 20
135.07379150390625
 30
0.0
 70
0
  0
VERTEX
  5
2CE
  8
BODY_OUTLINE
 10
32.103553771972656
 20
119.17000579833984
 30
0.0
 70
0
  0
VERTEX
  5
2CF
  8
BODY_OUTLINE
 10
33.18177795410156
 20
111.89200592041016
 30
0.0
 70
0
  0
VERTEX
  5
2D0
  8
BODY_OUTLINE
 10
41.80755615234375
 20
102.99667358398438
 30
0.0
 70
0
  0
VERTEX
  5
2D1
  8
BODY_OUTLINE
 10
41.80755615234375
 20
101.91844940185547
 30
0.0
 70
0
  0
VERTEX
  5
2D2
  8
BODY_OUTLINE
 10
42.61622619628906
 20
101.37933349609375
 30
0.0
 70
0
  0
VERTEX
  5
2D3
  8
BODY_OUTLINE
 10
43.424888610839844
 20
101.64889526367188
 30
0.0
 70
0
  0
VERTEX
  5
2D4
  8
BODY_OUTLINE
 10
44.772666931152344
 20
104.07489776611328
 30
0.0
 70
0
  0
VERTEX
  5
2D5
  8
BODY_OUTLINE
 10
44.772666931152344
 20
104.88356018066406
 30
0.0
 70
0
  0
VERTEX
  5
2D6
  8
BODY_OUTLINE
 10
45.581336975097656
 20
105.42267608642578
 30
0.0
 70
0
  0
VERTEX
  5
2D7
  8
BODY_OUTLINE
 10
45.581336975097656
 20
108.65734100341797
 30
0.0
 70
0
  0
VERTEX
  5
2D8
  8
BODY_OUTLINE
 10
48.816001892089844
 20
113.23978424072266
 30
0.0
 70
0
  0
VERTEX
  5
2D9
  8
BODY_OUTLINE
 10
50.163780212402344
 20
114.58756256103516
 30
0.0
 70
0
  0
VERTEX
  5
2DA
  8
BODY_OUTLINE
 10
52.85933303833008
 20
115.66578674316406
 30
0.0
 70
0
  0
VERTEX
  5
2DB
  8
BODY_OUTLINE
 10
53.12889099121094
 20
118.63089752197266
 30
0.0
 70
0
  0
VERTEX
  5
2DC
  8
BODY_OUTLINE
 10
61.485111236572266
 20
128.06533813476562
 30
0.0
 70
0
  0
VERTEX
  5
2DD
  8
BODY_OUTLINE
 10
62.832889556884766
 20
130.22178649902344
 30
0.0
 70
0
  0
VERTEX
  5
2DE
  8
BODY_OUTLINE
 10
64.71977996826172
 20
132.10867309570312
 30
0.0
 70
0
  0
VERTEX
  5
2DF
  8
BODY_OUTLINE
 10
66.06755828857422
 20
132.6477813720703
 30
0.0
 70
0
  0
VERTEX
  5
2E0
  8
BODY_OUTLINE
 10
67.14578247070312
 20
133.9955596923828
 30
0.0
 70
0
  0
VERTEX
  5
2E1
  8
BODY_OUTLINE
 10
67.14578247070312
 20
148.82110595703125
 30
0.0
 70
0
  0
VERTEX
  5
2E2
  8
BODY_OUTLINE
 10
62.29377746582031
 20
159.3337860107422
 30
0.0
 70
0
  0
VERTEX
  5
2E3
  8
BODY_OUTLINE
 10
61.21555709838867
 20
162.8380126953125
 30
0.0
 70
0
  0
VERTEX
  5
2E4
  8
BODY_OUTLINE
 10
58.78955841064453
 20
165.26400756835938
 30
0.0
 70
0
  0
VERTEX
  5
2E5
  8
BODY_OUTLINE
 10
58.52000045776367
 20
166.34222412109375
 30
0.0
 70
0
  0
VERTEX
  5
2E6
  8
BODY_OUTLINE
 10
58.52000045776367
 20
178.74179077148438
 30
0.0
 70
0
  0
VERTEX
  5
2E7
  8
BODY_OUTLINE
 10
59.059112548828125
 20
180.62867736816406
 30
0.0
 70
0
  0
VERTEX
  5
2E8
  8
BODY_OUTLINE
 10
61.21555709838867
 20
182.24600219726562
 30
0.0
 70
0
  0
VERTEX
  5
2E9
  8
BODY_OUTLINE
 10
62.832889556884766
 20
185.21112060546875
 30
0.0
 70
0
  0
VERTEX
  5
2EA
  8
BODY_OUTLINE
 10
63.102447509765625
 20
187.3675537109375
 30
0.0
 70
0
  0
VERTEX
  5
2EB
  8
BODY_OUTLINE
 10
64.45022583007812
 20
187.63711547851562
 30
0.0
 70
0
  0
VERTEX
  5
2EC
  8
BODY_OUTLINE
 10
66.6066665649414
 20
190.0631103515625
 30
0.0
 70
0
  0
VERTEX
  5
2ED
  8
BODY_OUTLINE
 10
66.6066665649414
 20
191.95001220703125
 30
0.0
 70
0
  0
VERTEX
  5
2EE
  8
BODY_OUTLINE
 10
67.68489074707031
 20
193.02822875976562
 30
0.0
 70
0
  0
VERTEX
  5
2EF
  8
BODY_OUTLINE
 10
70.11088562011719
 20
193.02822875976562
 30
0.0
 70
0
  0
VERTEX
  5
2F0
  8
BODY_OUTLINE
 10
76.04110717773438
 20
196.53245544433594
 30
0.0
 70
0
  0
VERTEX
  5
2F1
  8
BODY_OUTLINE
 10
80.89311218261719
 20
198.1497802734375
 30
0.0
 70
0
  0
VERTEX
  5
2F2
  8
BODY_OUTLINE
 10
81.43222045898438
 20
199.22801208496094
 30
0.0
 70
0
  0
VERTEX
  5
2F3
  8
BODY_OUTLINE
 10
87.36244201660156
 20
199.49755859375
 30
0.0
 70
0
  0
VERTEX
  5
2F4
  8
BODY_OUTLINE
 10
90.05799865722656
 20
201.3844451904297
 30
0.0
 70
0
  0
VERTEX
  5
2F5
  8
BODY_OUTLINE
 10
95.71866607666016
 20
201.3844451904297
 30
0.0
 70
0
  0
VERTEX
  5
2F6
  8
BODY_OUTLINE
 10
96.52733612060547
 20
200.57577514648438
 30
0.0
 70
0
  0
VERTEX
  5
2F7
  8
BODY_OUTLINE
 10
100.57067108154297
 20
200.57577514648438
 30
0.0
 70
0
  0
VERTEX
  5
2F8
  8
BODY_OUTLINE
 10
102.45755767822266
 20
199.22801208496094
 30
0.0
 70
0
  0
VERTEX
  5
2F9
  8
BODY_OUTLINE
 10
102.45755767822266
 20
190.33267211914062
 30
0.0
 70
0
  0
VERTEX
  5
2FA
  8
BODY_OUTLINE
 10
103.26622009277344
 20
189.5240020751953
 30
0.0
 70
0
  0
VERTEX
  5
2FB
  8
BODY_OUTLINE
 10
103.26622009277344
 20
180.35911560058594
 30
0.0
 70
0
  0
VERTEX
  5
2FC
  8
BODY_OUTLINE
 10
104.07489013671875
 20
179.82000732421875
 30
0.0
 70
0
  0
VERTEX
  5
2FD
  8
BODY_OUTLINE
 10
111.62244415283203
 20
179.28089904785156
 30
0.0
 70
0
  0
VERTEX
  5
2FE
  8
BODY_OUTLINE
 10
112.70066833496094
 20
178.47222900390625
 30
0.0
 70
0
  0
VERTEX
  5
2FF
  8
BODY_OUTLINE
 10
114.04844665527344
 20
179.55044555664062
 30
0.0
 70
0
  0
VERTEX
  5
300
  8
BODY_OUTLINE
 10
119.70911407470703
 20
179.55044555664062
 30
0.0
 70
0
  0
VERTEX
  5
301
  8
BODY_OUTLINE
 10
121.05689239501953
 20
178.47222900390625
 30
0.0
 70
0
  0
VERTEX
  5
302
  8
BODY_OUTLINE
 10
121.05689239501953
 20
176.04623413085938
 30
0.0
 70
0
  0
VERTEX
  5
303
  8
BODY_OUTLINE
 10
122.1351089477539
 20
175.23756408691406
 30
0.0
 70
0
  0
VERTEX
  5
304
  8
BODY_OUTLINE
 10
123.21333312988281
 20
175.77667236328125
 30
0.0
 70
0
  0
VERTEX
  5
305
  8
BODY_OUTLINE
 10
123.4828872680664
 20
177.66355895996094
 30
0.0
 70
0
  0
VERTEX
  5
306
  8
BODY_OUTLINE
 10
128.87400817871094
 20
177.66355895996094
 30
0.0
 70
0
  0
VERTEX
  5
307
  8
BODY_OUTLINE
 10
129.1435546875
 20
176.04623413085938
 30
0.0
 70
0
  0
VERTEX
  5
308
  8
BODY_OUTLINE
 10
133.7259979248047
 20
173.08111572265625
 30
0.0
 70
0
  0
VERTEX
  5
309
  8
BODY_OUTLINE
 10
134.53466796875
 20
173.62022399902344
 30
0.0
 70
0
  0
VERTEX
  5
30A
  8
BODY_OUTLINE
 10
134.53466796875
 20
174.42889404296875
 30
0.0
 70
0
  0
VERTEX
  5
30B
  8
BODY_OUTLINE
 10
136.15200805664062
 20
175.77667236328125
 30
0.0
 70
0
  0
VERTEX
  5
30C
  8
BODY_OUTLINE
 10
140.19534301757812
 20
175.77667236328125
 30
0.0
 70
0
  0
VERTEX
  5
30D
  8
BODY_OUTLINE
 10
141.54310607910156
 20
176.58534240722656
 30
0.0
 70
0
  0
VERTEX
  5
30E
  8
BODY_OUTLINE
 10
149.8993377685547
 20
184.94155883789062
 30
0.0
 70
0
  0
VERTEX
  5
30F
  8
BODY_OUTLINE
 10
153.9426727294922
 20
187.3675537109375
 30
0.0
 70
0
  0
VERTEX
  5
310
  8
BODY_OUTLINE
 10
160.14244079589844
 20
187.09800720214844
 30
0.0
 70
0
  0
VERTEX
  5
311
  8
BODY_OUTLINE
 10
162.56845092773438
 20
185.75022888183594
 30
0.0
 70
0
  0
VERTEX
  5
312
  8
BODY_OUTLINE
 10
164.45533752441406
 20
183.86334228515625
 30
0.0
 70
0
  0
VERTEX
  5
313
  8
BODY_OUTLINE
 10
166.61178588867188
 20
179.82000732421875
 30
0.0
 70
0
  0
VERTEX
  5
314
  8
BODY_OUTLINE
 10
167.42044067382812
 20
175.77667236328125
 30
0.0
 70
0
  0
VERTEX
  5
315
  8
BODY_OUTLINE
 10
169.03778076171875
 20
174.42889404296875
 30
0.0
 70
0
  0
VERTEX
  5
316
  8
BODY_OUTLINE
 10
168.76821899414062
 20
166.88134765625
 30
0.0
 70
0
  0
VERTEX
  5
317
  8
BODY_OUTLINE
 10
167.42044067382812
 20
165.26400756835938
 30
0.0
 70
0
  0
VERTEX
  5
318
  8
BODY_OUTLINE
 10
166.88133239746094
 20
162.56845092773438
 30
0.0
 70
0
  0
VERTEX
  5
319
  8
BODY_OUTLINE
 10
165.53355407714844
 20
160.95111083984375
 30
0.0
 70
0
  0
VERTEX
  5
31A
  8
BODY_OUTLINE
 10
165.53355407714844
 20
159.06423950195312
 30
0.0
 70
0
  0
VERTEX
  5
31B
  8
BODY_OUTLINE
 10
162.56845092773438
 20
152.5948944091797
 30
0.0
 70
0
  0
VERTEX
  5
31C
  8
BODY_OUTLINE
 10
160.95111083984375
 20
151.2471160888672
 30
0.0
 70
0
  0
VERTEX
  5
31D
  8
BODY_OUTLINE
 10
160.95111083984375
 20
150.43844604492188
 30
0.0
 70
0
  0
VERTEX
  5
31E
  8
BODY_OUTLINE
 10
160.41200256347656
 20
149.8993377685547
 30
0.0
 70
0
  0
VERTEX
  5
31F
  8
BODY_OUTLINE
 10
160.41200256347656
 20
147.2037811279297
 30
0.0
 70
0
  0
VERTEX
  5
320
  8
BODY_OUTLINE
 10
159.33377075195312
 20
143.4300079345703
 30
0.0
 70
0
  0
VERTEX
  5
321
  8
BODY_OUTLINE
 10
159.33377075195312
 20
141.81268310546875
 30
0.0
 70
0
  0
VERTEX
  5
322
  8
BODY_OUTLINE
 10
159.87289428710938
 20
141.2735595703125
 30
0.0
 70
0
  0
VERTEX
  5
323
  8
BODY_OUTLINE
 10
160.41200256347656
 20
137.76934814453125
 30
0.0
 70
0
  0
VERTEX
  5
324
  8
BODY_OUTLINE
 10
160.41200256347656
 20
135.3433380126953
 30
0.0
 70
0
  0
VERTEX
  5
325
  8
BODY_OUTLINE
 10
161.49021911621094
 20
134.26510620117188
 30
0.0
 70
0
  0
VERTEX
  5
326
  8
BODY_OUTLINE
 10
161.75978088378906
 20
131.03045654296875
 30
0.0
 70
0
  0
VERTEX
  5
327
  8
BODY_OUTLINE
 10
167.69000244140625
 20
123.75244903564453
 30
0.0
 70
0
  0
VERTEX
  5
328
  8
BODY_OUTLINE
 10
170.11599731445312
 20
122.94378662109375
 30
0.0
 70
0
  0
VERTEX
  5
329
  8
BODY_OUTLINE
 10
171.73333740234375
 20
121.32645416259766
 30
0.0
 70
0
  0
VERTEX
  5
32A
  8
BODY_OUTLINE
 10
171.73333740234375
 20
118.90045166015625
 30
0.0
 70
0
  0
VERTEX
  5
32B
  8
BODY_OUTLINE
 10
177.93310546875
 20
111.35289764404297
 30
0.0
 70
0
  0
VERTEX
  5
32C
  8
BODY_OUTLINE
 10
182.51556396484375
 20
103.80533599853516
 30
0.0
 70
0
  0
VERTEX
  5
32D
  8
BODY_OUTLINE
 10
183.32421875
 20
103.26622772216797
 30
0.0
 70
0
  0
VERTEX
  5
32E
  8
BODY_OUTLINE
 10
184.1328887939453
 20
103.80533599853516
 30
0.0
 70
0
  0
VERTEX
  5
32F
  8
BODY_OUTLINE
 10
184.1328887939453
 20
104.88356018066406
 30
0.0
 70
0
  0
VERTEX
  5
330
  8
BODY_OUTLINE
 10
201.3844451904297
 20
123.48289489746094
 30
0.0
 70
0
  0
VERTEX
  5
331
  8
BODY_OUTLINE
 10
201.92355346679688
 20
125.63933563232422
 30
0.0
 70
0
  0
VERTEX
  5
332
  8
BODY_OUTLINE
 10
204.0800018310547
 20
128.87400817871094
 30
0.0
 70
0
  0
VERTEX
  5
333
  8
BODY_OUTLINE
 10
204.0800018310547
 20
130.4913330078125
 30
0.0
 70
0
  0
VERTEX
  5
334
  8
BODY_OUTLINE
 10
212.70578002929688
 20
139.3866729736328
 30
0.0
 70
0
  0
VERTEX
  5
335
  8
BODY_OUTLINE
 10
212.975341796875
 20
141.00399780273438
 30
0.0
 70
0
  0
VERTEX
  5
336
  8
BODY_OUTLINE
 10
214.3231201171875
 20
142.621337890625
 30
0.0
 70
0
  0
VERTEX
  5
337
  8
BODY_OUTLINE
 10
214.3231201171875
 20
143.9691162109375
 30
0.0
 70
0
  0
VERTEX
  5
338
  8
BODY_OUTLINE
 10
215.94044494628906
 20
145.8560028076172
 30
0.0
 70
0
  0
VERTEX
  5
339
  8
BODY_OUTLINE
 10
216.20999145507812
 20
147.2037811279297
 30
0.0
 70
0
  0
VERTEX
  5
33A
  8
BODY_OUTLINE
 10
217.55776977539062
 20
148.5515594482422
 30
0.0
 70
0
  0
VERTEX
  5
33B
  8
BODY_OUTLINE
 10
217.82733154296875
 20
159.87289428710938
 30
0.0
 70
0
  0
VERTEX
  5
33C
  8
BODY_OUTLINE
 10
218.63600158691406
 20
160.6815643310547
 30
0.0
 70
0
  0
VERTEX
  5
33D
  8
BODY_OUTLINE
 10
219.17510986328125
 20
177.12445068359375
 30
0.0
 70
0
  0
VERTEX
  5
33E
  8
BODY_OUTLINE
 10
219.7142333984375
 20
177.66355895996094
 30
0.0
 70
0
  0
VERTEX
  5
33F
  8
BODY_OUTLINE
 10
219.44467163085938
 20
215.6708984375
 30
0.0
 70
0
  0
VERTEX
  5
340
  8
BODY_OUTLINE
 10
219.7142333984375
 20
223.21844482421875
 30
0.0
 70
0
  0
VERTEX
  5
341
  8
BODY_OUTLINE
 10
220.25332641601562
 20
223.757568359375
 30
0.0
 70
0
  0
VERTEX
  5
342
  8
BODY_OUTLINE
 10
220.25332641601562
 20
241.81777954101562
 30
0.0
 70
0
  0
VERTEX
  5
343
  8
BODY_OUTLINE
 10
221.06201171875
 20
243.16555786132812
 30
0.0
 70
0
  0
VERTEX
  5
344
  8
BODY_OUTLINE
 10
221.06201171875
 20
245.0524444580078
 30
0.0
 70
0
  0
VERTEX
  5
345
  8
BODY_OUTLINE
 10
220.25332641601562
 20
245.86111450195312
 30
0.0
 70
0
  0
VERTEX
  5
346
  8
BODY_OUTLINE
 10
219.7142333984375
 20
248.287109375
 30
0.0
 70
0
  0
VERTEX
  5
347
  8
BODY_OUTLINE
 10
218.09689331054688
 20
249.90444946289062
 30
0.0
 70
0
  0
VERTEX
  5
348
  8
BODY_OUTLINE
 10
218.09689331054688
 20
253.1391143798828
 30
0.0
 70
0
  0
VERTEX
  5
349
  8
BODY_OUTLINE
 10
215.40133666992188
 20
257.1824645996094
 30
0.0
 70
0
  0
VERTEX
  5
34A
  8
BODY_OUTLINE
 10
215.40133666992188
 20
261.22576904296875
 30
0.0
 70
0
  0
VERTEX
  5
34B
  8
BODY_OUTLINE
 10
214.86221313476562
 20
262.8431091308594
 30
0.0
 70
0
  0
VERTEX
  5
34C
  8
BODY_OUTLINE
 10
214.86221313476562
 20
276.05133056640625
 30
0.0
 70
0
  0
VERTEX
  5
34D
  8
BODY_OUTLINE
 10
213.78399658203125
 20
279.0164489746094
 30
0.0
 70
0
  0
VERTEX
  5
34E
  8
BODY_OUTLINE
 10
210.8188934326172
 20
282.79022216796875
 30
0.0
 70
0
  0
VERTEX
  5
34F
  8
BODY_OUTLINE
 10
207.04510498046875
 20
286.5639953613281
 30
0.0
 70
0
  0
VERTEX
  5
350
  8
BODY_OUTLINE
 10
207.04510498046875
 20
287.3726806640625
 30
0.0
 70
0
  0
VERTEX
  5
351
  8
BODY_OUTLINE
 10
206.2364501953125
 20
288.4508972167969
 30
0.0
 70
0
  0
VERTEX
  5
352
  8
BODY_OUTLINE
 10
205.69732666015625
 20
291.685546875
 30
0.0
 70
0
  0
VERTEX
  5
353
  8
BODY_OUTLINE
 10
203.5408935546875
 20
295.4593505859375
 30
0.0
 70
0
  0
VERTEX
  5
354
  8
BODY_OUTLINE
 10
203.27133178710938
 20
297.3462219238281
 30
0.0
 70
0
  0
VERTEX
  5
355
  8
BODY_OUTLINE
 10
202.46267700195312
 20
298.1549072265625
 30
0.0
 70
0
  0
VERTEX
  5
356
  8
BODY_OUTLINE
 10
202.46267700195312
 20
302.7373352050781
 30
0.0
 70
0
  0
VERTEX
  5
357
  8
BODY_OUTLINE
 10
198.6888885498047
 20
307.05023193359375
 30
0.0
 70
0
  0
VERTEX
  5
358
  8
BODY_OUTLINE
 10
196.53244018554688
 20
314.5977783203125
 30
0.0
 70
0
  0
VERTEX
  5
359
  8
BODY_OUTLINE
 10
190.0631103515625
 20
322.4148864746094
 30
0.0
 70
0
  0
VERTEX
  5
35A
  8
BODY_OUTLINE
 10
190.0631103515625
 20
323.49310302734375
 30
0.0
 70
0
  0
VERTEX
  5
35B
  8
BODY_OUTLINE
 10
188.98489379882812
 20
324.57135009765625
 30
0.0
 70
0
  0
VERTEX
  5
35C
  8
BODY_OUTLINE
 10
188.98489379882812
 20
326.4582214355469
 30
0.0
 70
0
  0
VERTEX
  5
35D
  8
BODY_OUTLINE
 10
188.44577026367188
 20
326.9973449707031
 30
0.0
 70
0
  0
VERTEX
  5
35E
  8
BODY_OUTLINE
 10
188.44577026367188
 20
327.8059997558594
 30
0.0
 70
0
  0
VERTEX
  5
35F
  8
BODY_OUTLINE
 10
162.02932739257812
 20
354.7615661621094
 30
0.0
 70
0
  0
VERTEX
  5
360
  8
BODY_OUTLINE
 10
159.60333251953125
 20
355.5702209472656
 30
0.0
 70
0
  0
VERTEX
  5
361
  8
BODY_OUTLINE
 10
157.4468994140625
 20
357.18756103515625
 30
0.0
 70
0
  0
VERTEX
  5
362
  8
BODY_OUTLINE
 10
151.51666259765625
 20
357.18756103515625
 30
0.0
 70
0
  0
VERTEX
  5
363
  8
BODY_OUTLINE
 10
150.43844604492188
 20
357.7266845703125
 30
0.0
 70
0
  0
VERTEX
  5
364
  8
BODY_OUTLINE
 10
119.97866821289062
 20
357.7266845703125
 30
0.0
 70
0
  0
VERTEX
  5
365
  8
BODY_OUTLINE
 10
119.16999816894531
 20
357.18756103515625
 30
0.0
 70
0
  0
VERTEX
  5
366
  8
BODY_OUTLINE
 10
118.90044403076172
 20
352.8746643066406
 30
0.0
 70
0
  0
VERTEX
  5
367
  8
BODY_OUTLINE
 10
118.09178161621094
 20
351.79644775390625
 30
0.0
 70
0
  0
VERTEX
  5
368
  8
BODY_OUTLINE
 10
118.09178161621094
 20
347.75311279296875
 30
0.0
 70
0
  0
VERTEX
  5
369
  8
BODY_OUTLINE
 10
117.55266571044922
 20
344.5184326171875
 30
0.0
 70
0
  0
VERTEX
  5
36A
  8
BODY_OUTLINE
 10
116.74400329589844
 20
343.170654296875
 30
0.0
 70
0
  0
VERTEX
  5
36B
  8
BODY_OUTLINE
 10
116.74400329589844
 20
338.8577880859375
 30
0.0
 70
0
  0
VERTEX
  5
36C
  8
BODY_OUTLINE
 10
115.66577911376953
 20
331.57977294921875
 30
0.0
 70
0
  0
VERTEX
  5
36D
  8
BODY_OUTLINE
 10
114.31800079345703
 20
330.5015563964844
 30
0.0
 70
0
  0
VERTEX
  5
36E
  8
BODY_OUTLINE
 10
108.92688751220703
 20
330.5015563964844
 30
0.0
 70
0
  0
VERTEX
  5
36F
  8
BODY_OUTLINE
 10
107.30955505371094
 20
332.92755126953125
 30
0.0
 70
0
  0
VERTEX
  5
370
  8
BODY_OUTLINE
 10
106.23133850097656
 20
333.7362365722656
 30
0.0
 70
0
  0
VERTEX
  5
371
  8
BODY_OUTLINE
 10
106.23133850097656
 20
339.1273498535156
 30
0.0
 70
0
  0
VERTEX
  5
372
  8
BODY_OUTLINE
 10
106.77044677734375
 20
339.66644287109375
 30
0.0
 70
0
  0
VERTEX
  5
373
  8
BODY_OUTLINE
 10
106.77044677734375
 20
342.6315612792969
 30
0.0
 70
0
  0
VERTEX
  5
374
  8
BODY_OUTLINE
 10
108.11822509765625
 20
343.9793395996094
 30
0.0
 70
0
  0
VERTEX
  5
375
  8
BODY_OUTLINE
 10
107.57910919189453
 20
345.05755615234375
 30
0.0
 70
0
  0
VERTEX
  5
376
  8
BODY_OUTLINE
 10
107.57910919189453
 20
350.1791076660156
 30
0.0
 70
0
  0
VERTEX
  5
377
  8
BODY_OUTLINE
 10
106.23133850097656
 20
352.0660095214844
 30
0.0
 70
0
  0
VERTEX
  5
378
  8
BODY_OUTLINE
 10
101.10977935791016
 20
352.3355712890625
 30
0.0
 70
0
  0
VERTEX
  5
379
  8
BODY_OUTLINE
 10
99.22289276123047
 20
354.2224426269531
 30
0.0
 70
0
  0
VERTEX
  5
37A
  8
BODY_OUTLINE
 10
99.22289276123047
 20
356.9179992675781
 30
0.0
 70
0
  0
VERTEX
  5
37B
  8
BODY_OUTLINE
 10
98.14466857910156
 20
357.7266845703125
 30
0.0
 70
0
  0
VERTEX
  5
37C
  8
BODY_OUTLINE
 10
76.5802230834961
 20
357.7266845703125
 30
0.0
 70
0
  0
SEQEND
  5
293
  8
BODY_OUTLINE
  0
ENDSEC
  0
EOF
