  0
SECTION
  2
HEADER
  9
$ACADVER
  1
AC1009
  9
$DWGCODEPAGE
  3
ANSI_1252
  9
$INSBASE
 10
0.0
 20
0.0
 30
0.0
  9
$EXTMIN
 10
1e+20
 20
1e+20
 30
1e+20
  9
$EXTMAX
 10
-1e+20
 20
-1e+20
 30
-1e+20
  9
$LIMMIN
 10
0.0
 20
0.0
  9
$LIMMAX
 10
420.0
 20
297.0
  9
$ORTHOMODE
 70
0
  9
$REGENMODE
 70
1
  9
$FILLMODE
 70
1
  9
$DRAGMODE
 70
2
  9
$QTEXTMODE
 70
0
  9
$MIRRTEXT
 70
1
  9
$OSMODE
 70
20583
  9
$LTSCALE
 40
1.0
  9
$ATTMODE
 70
1
  9
$TEXTSIZE
 40
2.5
  9
$TRACEWID
 40
1.0
  9
$TEXTSTYLE
  7
Standard
  9
$CLAYER
  8
0
  9
$CELTYPE
  6
ByLayer
  9
$CECOLOR
 62
256
  9
$DIMSCALE
 40
1.0
  9
$DIMASZ
 40
2.5
  9
$DIMEXO
 40
0.625
  9
$DIMDLI
 40
3.75
  9
$DIMRND
 40
0.0
  9
$DIMDLE
 40
0.0
  9
$DIMEXE
 40
1.25
  9
$DIMTP
 40
0.0
  9
$DIMTM
 40
0.0
  9
$DIMTXT
 40
2.5
  9
$DIMCEN
 40
2.5
  9
$DIMTSZ
 40
0.0
  9
$DIMTOL
 70
0
  9
$DIMLIM
 70
0
  9
$DIMTIH
 70
0
  9
$DIMTOH
 70
0
  9
$DIMSE1
 70
0
  9
$DIMSE2
 70
0
  9
$DIMTAD
 70
1
  9
$DIMZIN
 70
8
  9
$DIMBLK
  1

  9
$DIMASO
 70
1
  9
$DIMSHO
 70
1
  9
$DIMPOST
  1

  9
$DIMAPOST
  1

  9
$DIMALT
 70
0
  9
$DIMALTD
 70
3
  9
$DIMALTF
 40
0.03937007874
  9
$DIMLFAC
 40
1.0
  9
$DIMTOFL
 70
1
  9
$DIMTVP
 40
0.0
  9
$DIMTIX
 70
0
  9
$DIMSOXD
 70
0
  9
$DIMSAH
 70
0
  9
$DIMBLK1
  1

  9
$DIMBLK2
  1

  9
$DIMSTYLE
  2
ISO-25
  9
$DIMCLRD
 70
0
  9
$DIMCLRE
 70
0
  9
$DIMCLRT
 70
0
  9
$DIMTFAC
 40
1.0
  9
$DIMGAP
 40
0.625
  9
$COORDS
 70
1
  9
$ATTDIA
 70
0
  9
$ATTREQ
 70
1
  9
$HANDLING
 70
1
  9
$LUNITS
 70
2
  9
$LUPREC
 70
4
  9
$SKETCHINC
 40
1.0
  9
$FILLETRAD
 40
10.0
  9
$AUNITS
 70
0
  9
$AUPREC
 70
2
  9
$MENU
  1
.
  9
$ELEVATION
 40
0.0
  9
$PELEVATION
 40
0.0
  9
$THICKNESS
 40
0.0
  9
$LIMCHECK
 70
0
  9
$CHAMFERA
 40
0.0
  9
$CHAMFERB
 40
0.0
  9
$SKPOLY
 70
0
  9
$TDCREATE
 40
2461114.9968055557
  9
$TDUPDATE
 40
2461114.9968055557
  9
$TDINDWG
 40
0.0
  9
$TDUSRTIMER
 40
0.0
  9
$USRTIMER
 70
1
  9
$ANGBASE
 50
0.0
  9
$ANGDIR
 70
0
  9
$PDMODE
 70
0
  9
$PDSIZE
 40
0.0
  9
$PLINEWID
 40
0.0
  9
$SPLFRAME
 70
0
  9
$SPLINETYPE
 70
6
  9
$SPLINESEGS
 70
8
  9
$HANDSEED
  5
2CD
  9
$SURFTAB1
 70
6
  9
$SURFTAB2
 70
6
  9
$SURFTYPE
 70
6
  9
$SURFU
 70
6
  9
$SURFV
 70
6
  9
$UCSNAME
  2

  9
$UCSORG
 10
0.0
 20
0.0
 30
0.0
  9
$UCSXDIR
 10
1.0
 20
0.0
 30
0.0
  9
$UCSYDIR
 10
0.0
 20
1.0
 30
0.0
  9
$PUCSNAME
  2

  9
$PUCSORG
 10
0.0
 20
0.0
 30
0.0
  9
$PUCSXDIR
 10
1.0
 20
0.0
 30
0.0
  9
$PUCSYDIR
 10
0.0
 20
1.0
 30
0.0
  9
$USERI1
 70
0
  9
$USERI2
 70
0
  9
$USERI3
 70
0
  9
$USERI4
 70
0
  9
$USERI5
 70
0
  9
$USERR1
 40
0.0
  9
$USERR2
 40
0.0
  9
$USERR3
 40
0.0
  9
$USERR4
 40
0.0
  9
$USERR5
 40
0.0
  9
$WORLDVIEW
 70
1
  9
$SHADEDGE
 70
3
  9
$SHADEDIF
 70
70
  9
$TILEMODE
 70
1
  9
$MAXACTVP
 70
64
  9
$PLIMCHECK
 70
0
  9
$PEXTMIN
 10
1e+20
 20
1e+20
 30
1e+20
  9
$PEXTMAX
 10
-1e+20
 20
-1e+20
 30
-1e+20
  9
$PLIMMIN
 10
0.0
 20
0.0
  9
$PLIMMAX
 10
420.0
 20
297.0
  9
$UNITMODE
 70
0
  9
$VISRETAIN
 70
1
  9
$PLINEGEN
 70
0
  9
$PSLTSCALE
 70
1
  0
ENDSEC
  0
SECTION
  2
TABLES
  0
TABLE
  2
VPORT
 70
1
  0
VPORT
  5
23
  2
*Active
 70
0
 10
0.0
 20
0.0
 11
1.0
 21
1.0
 12
0.0
 22
0.0
 13
0.0
 23
0.0
 14
0.5
 24
0.5
 15
0.5
 25
0.5
 16
0.0
 26
0.0
 36
1.0
 17
0.0
 27
0.0
 37
0.0
 40
1000.0
 41
1.34
 42
50.0
 43
0.0
 44
0.0
 50
0.0
 51
0.0
 71
0
 72
1000
 73
1
 74
3
 75
0
 76
0
 77
0
 78
0
  0
ENDTAB
  0
TABLE
  2
LTYPE
 70
3
  0
LTYPE
  5
24
  2
ByBlock
 70
0
  3

 72
65
 73
0
 40
0.0
  0
LTYPE
  5
25
  2
ByLayer
 70
0
  3

 72
65
 73
0
 40
0.0
  0
LTYPE
  5
26
  2
Continuous
 70
0
  3

 72
65
 73
0
 40
0.0
  0
ENDTAB
  0
TABLE
  2
LAYER
 70
6
  0
LAYER
  5
27
  2
0
 70
0
 62
7
  6
Continuous
  0
LAYER
  5
28
  2
Defpoints
 70
0
 62
7
  6
Continuous
  0
LAYER
  5
2D
  2
BODY_OUTLINE
 70
0
 62
7
  6
Continuous
  0
LAYER
  5
22E
  2
BRIDGE_ROUTE
 70
0
 62
7
  6
Continuous
  0
LAYER
  5
23B
  2
PICKUP_ROUTE
 70
0
 62
7
  6
Continuous
  0
LAYER
  5
279
  2
NECK_POCKET
 70
0
 62
7
  6
Continuous
  0
ENDTAB
  0
TABLE
  2
STYLE
 70
1
  0
STYLE
  5
29
  2
Standard
 70
0
 40
0.0
 41
1.0
 50
0.0
 71
0
 42
2.5
  3
txt
  4

  0
ENDTAB
  0
TABLE
  2
VIEW
 70
0
  0
ENDTAB
  0
TABLE
  2
UCS
 70
0
  0
ENDTAB
  0
TABLE
  2
APPID
 70
3
  0
APPID
  5
2A
  2
ACAD
 70
0
  0
APPID
  5
2CB
  2
HATCHBACKGROUNDCOLOR
 70
0
  0
APPID
  5
2CC
  2
EZDXF
 70
0
  0
ENDTAB
  0
TABLE
  2
DIMSTYLE
 70
1
  0
DIMSTYLE
105
2B
  2
Standard
 70
0
  3

  4

  5

  6

  7

 40
1.0
 41
2.5
 42
0.625
 43
3.75
 44
1.25
 45
0.0
 46
0.0
 47
0.0
 48
0.0
140
2.5
141
2.5
142
0.0
143
0.03937007874
144
1.0
145
0.0
146
1.0
147
0.625
 71
0
 72
0
 73
0
 74
0
 75
0
 76
0
 77
1
 78
8
170
0
171
3
172
1
173
0
174
0
175
0
176
0
177
0
178
0
  0
ENDTAB
  0
ENDSEC
  0
SECTION
  2
BLOCKS
  0
BLOCK
  5
18
  8
0
  2
$Model_Space
 70
0
 10
0.0
 20
0.0
 30
0.0
  3
$Model_Space
  1

1001
EZDXF
1000
CREATED_BY_EZDXF
1000
1.4.3 @ 2026-03-15T04:55:24.244908+00:00
1000
WRITTEN_BY_EZDXF
1000
1.4.3 @ 2026-03-15T04:55:24.265505+00:00
  0
ENDBLK
  5
19
  8
0
  0
BLOCK
  5
1C
  8
0
  2
$Paper_Space
 70
0
 10
0.0
 20
0.0
 30
0.0
  3
$Paper_Space
  1

  0
ENDBLK
  5
1D
  8
0
  0
ENDSEC
  0
SECTION
  2
ENTITIES
  0
POLYLINE
  5
2E
  8
BODY_OUTLINE
 66
1
 10
0.0
 20
0.0
 30
0.0
 70
1
  0
VERTEX
  5
30
  8
BODY_OUTLINE
 10
151.84674072265625
 20
318.2010192871094
 30
0.0
 70
0
  0
VERTEX
  5
31
  8
BODY_OUTLINE
 10
110.25816345214844
 20
318.2010192871094
 30
0.0
 70
0
  0
VERTEX
  5
32
  8
BODY_OUTLINE
 10
107.53510284423828
 20
316.2206115722656
 30
0.0
 70
0
  0
VERTEX
  5
33
  8
BODY_OUTLINE
 10
102.33653259277344
 20
315.9730529785156
 30
0.0
 70
0
  0
VERTEX
  5
34
  8
BODY_OUTLINE
 10
90.20653533935547
 20
303.84307861328125
 30
0.0
 70
0
  0
VERTEX
  5
35
  8
BODY_OUTLINE
 10
88.47367858886719
 20
303.10040283203125
 30
0.0
 70
0
  0
VERTEX
  5
36
  8
BODY_OUTLINE
 10
67.67938995361328
 20
282.3061218261719
 30
0.0
 70
0
  0
VERTEX
  5
37
  8
BODY_OUTLINE
 10
67.67938995361328
 20
281.8110046386719
 30
0.0
 70
0
  0
VERTEX
  5
38
  8
BODY_OUTLINE
 10
62.48081970214844
 20
275.8697814941406
 30
0.0
 70
0
  0
VERTEX
  5
39
  8
BODY_OUTLINE
 10
50.59837341308594
 20
263.73980712890625
 30
0.0
 70
0
  0
VERTEX
  5
3A
  8
BODY_OUTLINE
 10
50.35082244873047
 20
262.2544860839844
 30
0.0
 70
0
  0
VERTEX
  5
3B
  8
BODY_OUTLINE
 10
48.12286376953125
 20
259.03631591796875
 30
0.0
 70
0
  0
VERTEX
  5
3C
  8
BODY_OUTLINE
 10
48.12286376953125
 20
258.0461120605469
 30
0.0
 70
0
  0
VERTEX
  5
3D
  8
BODY_OUTLINE
 10
47.38020324707031
 20
256.808349609375
 30
0.0
 70
0
  0
VERTEX
  5
3E
  8
BODY_OUTLINE
 10
47.38020324707031
 20
253.83775329589844
 30
0.0
 70
0
  0
VERTEX
  5
3F
  8
BODY_OUTLINE
 10
46.38999938964844
 20
251.36224365234375
 30
0.0
 70
0
  0
VERTEX
  5
40
  8
BODY_OUTLINE
 10
41.43898010253906
 20
245.66856384277344
 30
0.0
 70
0
  0
VERTEX
  5
41
  8
BODY_OUTLINE
 10
40.696327209472656
 20
238.98468017578125
 30
0.0
 70
0
  0
VERTEX
  5
42
  8
BODY_OUTLINE
 10
32.774696350097656
 20
231.06304931640625
 30
0.0
 70
0
  0
VERTEX
  5
43
  8
BODY_OUTLINE
 10
31.289390563964844
 20
228.09243774414062
 30
0.0
 70
0
  0
VERTEX
  5
44
  8
BODY_OUTLINE
 10
31.289390563964844
 20
227.10223388671875
 30
0.0
 70
0
  0
VERTEX
  5
45
  8
BODY_OUTLINE
 10
30.0516357421875
 20
225.86448669433594
 30
0.0
 70
0
  0
VERTEX
  5
46
  8
BODY_OUTLINE
 10
29.80408477783203
 20
224.87428283691406
 30
0.0
 70
0
  0
VERTEX
  5
47
  8
BODY_OUTLINE
 10
22.872657775878906
 20
217.94285583496094
 30
0.0
 70
0
  0
VERTEX
  5
48
  8
BODY_OUTLINE
 10
22.625106811523438
 20
216.45755004882812
 30
0.0
 70
0
  0
VERTEX
  5
49
  8
BODY_OUTLINE
 10
21.387351989746094
 20
215.21978759765625
 30
0.0
 70
0
  0
VERTEX
  5
4A
  8
BODY_OUTLINE
 10
20.892250061035156
 20
210.02122497558594
 30
0.0
 70
0
  0
VERTEX
  5
4B
  8
BODY_OUTLINE
 10
20.14959716796875
 20
209.278564453125
 30
0.0
 70
0
  0
VERTEX
  5
4C
  8
BODY_OUTLINE
 10
19.654495239257812
 20
205.81285095214844
 30
0.0
 70
0
  0
VERTEX
  5
4D
  8
BODY_OUTLINE
 10
17.426536560058594
 20
203.58489990234375
 30
0.0
 70
0
  0
VERTEX
  5
4E
  8
BODY_OUTLINE
 10
17.426536560058594
 20
199.62408447265625
 30
0.0
 70
0
  0
VERTEX
  5
4F
  8
BODY_OUTLINE
 10
16.43633270263672
 20
198.38632202148438
 30
0.0
 70
0
  0
VERTEX
  5
50
  8
BODY_OUTLINE
 10
15.941230773925781
 20
195.16815185546875
 30
0.0
 70
0
  0
VERTEX
  5
51
  8
BODY_OUTLINE
 10
14.208366394042969
 20
193.435302734375
 30
0.0
 70
0
  0
VERTEX
  5
52
  8
BODY_OUTLINE
 10
13.713264465332031
 20
192.19754028320312
 30
0.0
 70
0
  0
VERTEX
  5
53
  8
BODY_OUTLINE
 10
13.713264465332031
 20
185.26611328125
 30
0.0
 70
0
  0
VERTEX
  5
54
  8
BODY_OUTLINE
 10
10.990203857421875
 20
182.04795837402344
 30
0.0
 70
0
  0
VERTEX
  5
55
  8
BODY_OUTLINE
 10
10.990203857421875
 20
177.83958435058594
 30
0.0
 70
0
  0
VERTEX
  5
56
  8
BODY_OUTLINE
 10
10.495101928710938
 20
173.3836669921875
 30
0.0
 70
0
  0
VERTEX
  5
57
  8
BODY_OUTLINE
 10
10.0
 20
172.88856506347656
 30
0.0
 70
0
  0
VERTEX
  5
58
  8
BODY_OUTLINE
 10
10.0
 20
129.567138671875
 30
0.0
 70
0
  0
VERTEX
  5
59
  8
BODY_OUTLINE
 10
11.237754821777344
 20
128.0818328857422
 30
0.0
 70
0
  0
VERTEX
  5
5A
  8
BODY_OUTLINE
 10
11.485305786132812
 20
124.61611938476562
 30
0.0
 70
0
  0
VERTEX
  5
5B
  8
BODY_OUTLINE
 10
13.9608154296875
 20
121.89305877685547
 30
0.0
 70
0
  0
VERTEX
  5
5C
  8
BODY_OUTLINE
 10
13.9608154296875
 20
120.40774536132812
 30
0.0
 70
0
  0
VERTEX
  5
5D
  8
BODY_OUTLINE
 10
16.683883666992188
 20
117.6846923828125
 30
0.0
 70
0
  0
VERTEX
  5
5E
  8
BODY_OUTLINE
 10
16.931434631347656
 20
116.44692993164062
 30
0.0
 70
0
  0
VERTEX
  5
5F
  8
BODY_OUTLINE
 10
16.931434631347656
 20
89.46387481689453
 30
0.0
 70
0
  0
VERTEX
  5
60
  8
BODY_OUTLINE
 10
17.426536560058594
 20
88.9687728881836
 30
0.0
 70
0
  0
VERTEX
  5
61
  8
BODY_OUTLINE
 10
17.426536560058594
 20
87.73101806640625
 30
0.0
 70
0
  0
VERTEX
  5
62
  8
BODY_OUTLINE
 10
18.664291381835938
 20
86.4932632446289
 30
0.0
 70
0
  0
VERTEX
  5
63
  8
BODY_OUTLINE
 10
18.911842346191406
 20
84.51285552978516
 30
0.0
 70
0
  0
VERTEX
  5
64
  8
BODY_OUTLINE
 10
19.90204620361328
 20
82.77999877929688
 30
0.0
 70
0
  0
VERTEX
  5
65
  8
BODY_OUTLINE
 10
19.90204620361328
 20
76.34366607666016
 30
0.0
 70
0
  0
VERTEX
  5
66
  8
BODY_OUTLINE
 10
20.644699096679688
 20
75.35346221923828
 30
0.0
 70
0
  0
VERTEX
  5
67
  8
BODY_OUTLINE
 10
20.892250061035156
 20
73.12550354003906
 30
0.0
 70
0
  0
VERTEX
  5
68
  8
BODY_OUTLINE
 10
26.33837127685547
 20
67.43183135986328
 30
0.0
 70
0
  0
VERTEX
  5
69
  8
BODY_OUTLINE
 10
26.33837127685547
 20
64.46121978759766
 30
0.0
 70
0
  0
VERTEX
  5
6A
  8
BODY_OUTLINE
 10
45.39979553222656
 20
45.39978790283203
 30
0.0
 70
0
  0
VERTEX
  5
6B
  8
BODY_OUTLINE
 10
48.12286376953125
 20
44.657135009765625
 30
0.0
 70
0
  0
VERTEX
  5
6C
  8
BODY_OUTLINE
 10
53.32143020629883
 20
44.657135009765625
 30
0.0
 70
0
  0
VERTEX
  5
6D
  8
BODY_OUTLINE
 10
55.05428695678711
 20
43.41938018798828
 30
0.0
 70
0
  0
VERTEX
  5
6E
  8
BODY_OUTLINE
 10
55.05428695678711
 20
10.495101928710938
 30
0.0
 70
0
  0
VERTEX
  5
6F
  8
BODY_OUTLINE
 10
55.796939849853516
 20
10.0
 30
0.0
 70
0
  0
VERTEX
  5
70
  8
BODY_OUTLINE
 10
66.44163513183594
 20
10.0
 30
0.0
 70
0
  0
VERTEX
  5
71
  8
BODY_OUTLINE
 10
114.4665298461914
 20
34.755096435546875
 30
0.0
 70
0
  0
VERTEX
  5
72
  8
BODY_OUTLINE
 10
116.69449615478516
 20
34.50755310058594
 30
0.0
 70
0
  0
VERTEX
  5
73
  8
BODY_OUTLINE
 10
125.60633087158203
 20
30.546737670898438
 30
0.0
 70
0
  0
VERTEX
  5
74
  8
BODY_OUTLINE
 10
127.33918762207031
 20
31.041839599609375
 30
0.0
 70
0
  0
VERTEX
  5
75
  8
BODY_OUTLINE
 10
128.0818328857422
 20
30.794281005859375
 30
0.0
 70
0
  0
VERTEX
  5
76
  8
BODY_OUTLINE
 10
132.04266357421875
 20
32.774688720703125
 30
0.0
 70
0
  0
VERTEX
  5
77
  8
BODY_OUTLINE
 10
134.76571655273438
 20
35.49775695800781
 30
0.0
 70
0
  0
VERTEX
  5
78
  8
BODY_OUTLINE
 10
170.41305541992188
 20
55.79693603515625
 30
0.0
 70
0
  0
VERTEX
  5
79
  8
BODY_OUTLINE
 10
171.40325927734375
 20
55.79693603515625
 30
0.0
 70
0
  0
VERTEX
  5
7A
  8
BODY_OUTLINE
 10
173.3836669921875
 20
54.806732177734375
 30
0.0
 70
0
  0
VERTEX
  5
7B
  8
BODY_OUTLINE
 10
173.6312255859375
 20
57.28224182128906
 30
0.0
 70
0
  0
VERTEX
  5
7C
  8
BODY_OUTLINE
 10
177.09693908691406
 20
57.28224182128906
 30
0.0
 70
0
  0
VERTEX
  5
7D
  8
BODY_OUTLINE
 10
177.09693908691406
 20
58.519996643066406
 30
0.0
 70
0
  0
VERTEX
  5
7E
  8
BODY_OUTLINE
 10
178.33470153808594
 20
58.767547607421875
 30
0.0
 70
0
  0
VERTEX
  5
7F
  8
BODY_OUTLINE
 10
178.33470153808594
 20
60.00530242919922
 30
0.0
 70
0
  0
VERTEX
  5
80
  8
BODY_OUTLINE
 10
182.54306030273438
 20
62.975914001464844
 30
0.0
 70
0
  0
VERTEX
  5
81
  8
BODY_OUTLINE
 10
195.41571044921875
 20
62.975914001464844
 30
0.0
 70
0
  0
VERTEX
  5
82
  8
BODY_OUTLINE
 10
197.3961181640625
 20
64.46121978759766
 30
0.0
 70
0
  0
VERTEX
  5
83
  8
BODY_OUTLINE
 10
199.1289825439453
 20
65.20387268066406
 30
0.0
 70
0
  0
VERTEX
  5
84
  8
BODY_OUTLINE
 10
212.24917602539062
 20
78.3240737915039
 30
0.0
 70
0
  0
VERTEX
  5
85
  8
BODY_OUTLINE
 10
219.1806182861328
 20
86.24571228027344
 30
0.0
 70
0
  0
VERTEX
  5
86
  8
BODY_OUTLINE
 10
219.67572021484375
 20
87.73101806640625
 30
0.0
 70
0
  0
VERTEX
  5
87
  8
BODY_OUTLINE
 10
219.92327880859375
 20
110.50570678710938
 30
0.0
 70
0
  0
VERTEX
  5
88
  8
BODY_OUTLINE
 10
220.41836547851562
 20
118.42733764648438
 30
0.0
 70
0
  0
VERTEX
  5
89
  8
BODY_OUTLINE
 10
220.41836547851562
 20
210.51632690429688
 30
0.0
 70
0
  0
VERTEX
  5
8A
  8
BODY_OUTLINE
 10
219.92327880859375
 20
211.50653076171875
 30
0.0
 70
0
  0
VERTEX
  5
8B
  8
BODY_OUTLINE
 10
219.92327880859375
 20
215.7148895263672
 30
0.0
 70
0
  0
VERTEX
  5
8C
  8
BODY_OUTLINE
 10
216.70510864257812
 20
219.6757049560547
 30
0.0
 70
0
  0
VERTEX
  5
8D
  8
BODY_OUTLINE
 10
216.70510864257812
 20
226.8546905517578
 30
0.0
 70
0
  0
VERTEX
  5
8E
  8
BODY_OUTLINE
 10
216.20999145507812
 20
227.34979248046875
 30
0.0
 70
0
  0
VERTEX
  5
8F
  8
BODY_OUTLINE
 10
216.20999145507812
 20
229.5777587890625
 30
0.0
 70
0
  0
VERTEX
  5
90
  8
BODY_OUTLINE
 10
214.72470092773438
 20
231.31060791015625
 30
0.0
 70
0
  0
VERTEX
  5
91
  8
BODY_OUTLINE
 10
214.72470092773438
 20
238.7371368408203
 30
0.0
 70
0
  0
VERTEX
  5
92
  8
BODY_OUTLINE
 10
213.7344970703125
 20
239.7273406982422
 30
0.0
 70
0
  0
VERTEX
  5
93
  8
BODY_OUTLINE
 10
213.4869384765625
 20
241.460205078125
 30
0.0
 70
0
  0
VERTEX
  5
94
  8
BODY_OUTLINE
 10
212.49673461914062
 20
242.94549560546875
 30
0.0
 70
0
  0
VERTEX
  5
95
  8
BODY_OUTLINE
 10
210.51632690429688
 20
244.9259033203125
 30
0.0
 70
0
  0
VERTEX
  5
96
  8
BODY_OUTLINE
 10
210.51632690429688
 20
246.6587677001953
 30
0.0
 70
0
  0
VERTEX
  5
97
  8
BODY_OUTLINE
 10
209.526123046875
 20
247.6489715576172
 30
0.0
 70
0
  0
VERTEX
  5
98
  8
BODY_OUTLINE
 10
209.526123046875
 20
250.61959838867188
 30
0.0
 70
0
  0
VERTEX
  5
99
  8
BODY_OUTLINE
 10
207.79327392578125
 20
254.08529663085938
 30
0.0
 70
0
  0
VERTEX
  5
9A
  8
BODY_OUTLINE
 10
201.85205078125
 20
260.0265197753906
 30
0.0
 70
0
  0
VERTEX
  5
9B
  8
BODY_OUTLINE
 10
201.85205078125
 20
261.0167236328125
 30
0.0
 70
0
  0
VERTEX
  5
9C
  8
BODY_OUTLINE
 10
196.40591430664062
 20
266.4628601074219
 30
0.0
 70
0
  0
VERTEX
  5
9D
  8
BODY_OUTLINE
 10
195.91082763671875
 20
268.6907958984375
 30
0.0
 70
0
  0
VERTEX
  5
9E
  8
BODY_OUTLINE
 10
171.1557159423828
 20
293.4459228515625
 30
0.0
 70
0
  0
VERTEX
  5
9F
  8
BODY_OUTLINE
 10
171.1557159423828
 20
296.41650390625
 30
0.0
 70
0
  0
VERTEX
  5
A0
  8
BODY_OUTLINE
 10
169.17530822753906
 20
298.39691162109375
 30
0.0
 70
0
  0
VERTEX
  5
A1
  8
BODY_OUTLINE
 10
168.43264770507812
 20
301.8626708984375
 30
0.0
 70
0
  0
SEQEND
  5
2F
  8
BODY_OUTLINE
  0
POLYLINE
  5
A2
  8
BODY_OUTLINE
 66
1
 10
0.0
 20
0.0
 30
0.0
 70
1
  0
VERTEX
  5
A4
  8
BODY_OUTLINE
 10
151.3516387939453
 20
317.9534606933594
 30
0.0
 70
0
  0
VERTEX
  5
A5
  8
BODY_OUTLINE
 10
152.0942840576172
 20
317.7059326171875
 30
0.0
 70
0
  0
VERTEX
  5
A6
  8
BODY_OUTLINE
 10
167.93756103515625
 20
301.8626708984375
 30
0.0
 70
0
  0
VERTEX
  5
A7
  8
BODY_OUTLINE
 10
168.92776489257812
 20
298.1493835449219
 30
0.0
 70
0
  0
VERTEX
  5
A8
  8
BODY_OUTLINE
 10
170.90817260742188
 20
295.9214172363281
 30
0.0
 70
0
  0
VERTEX
  5
A9
  8
BODY_OUTLINE
 10
170.90817260742188
 20
293.1983642578125
 30
0.0
 70
0
  0
VERTEX
  5
AA
  8
BODY_OUTLINE
 10
195.41571044921875
 20
268.6907958984375
 30
0.0
 70
0
  0
VERTEX
  5
AB
  8
BODY_OUTLINE
 10
196.1583709716797
 20
266.2153015136719
 30
0.0
 70
0
  0
VERTEX
  5
AC
  8
BODY_OUTLINE
 10
201.35693359375
 20
261.0167236328125
 30
0.0
 70
0
  0
VERTEX
  5
AD
  8
BODY_OUTLINE
 10
201.6044921875
 20
259.77899169921875
 30
0.0
 70
0
  0
VERTEX
  5
AE
  8
BODY_OUTLINE
 10
207.54571533203125
 20
253.83775329589844
 30
0.0
 70
0
  0
VERTEX
  5
AF
  8
BODY_OUTLINE
 10
209.278564453125
 20
250.37203979492188
 30
0.0
 70
0
  0
VERTEX
  5
B0
  8
BODY_OUTLINE
 10
209.278564453125
 20
247.40142822265625
 30
0.0
 70
0
  0
VERTEX
  5
B1
  8
BODY_OUTLINE
 10
210.26876831054688
 20
246.16366577148438
 30
0.0
 70
0
  0
VERTEX
  5
B2
  8
BODY_OUTLINE
 10
210.26876831054688
 20
244.9259033203125
 30
0.0
 70
0
  0
VERTEX
  5
B3
  8
BODY_OUTLINE
 10
212.99183654785156
 20
241.460205078125
 30
0.0
 70
0
  0
VERTEX
  5
B4
  8
BODY_OUTLINE
 10
213.4869384765625
 20
239.47979736328125
 30
0.0
 70
0
  0
VERTEX
  5
B5
  8
BODY_OUTLINE
 10
214.47714233398438
 20
238.24203491210938
 30
0.0
 70
0
  0
VERTEX
  5
B6
  8
BODY_OUTLINE
 10
214.47714233398438
 20
231.06304931640625
 30
0.0
 70
0
  0
VERTEX
  5
B7
  8
BODY_OUTLINE
 10
215.9624481201172
 20
229.0826416015625
 30
0.0
 70
0
  0
VERTEX
  5
B8
  8
BODY_OUTLINE
 10
215.9624481201172
 20
227.10223388671875
 30
0.0
 70
0
  0
VERTEX
  5
B9
  8
BODY_OUTLINE
 10
216.45755004882812
 20
226.35958862304688
 30
0.0
 70
0
  0
VERTEX
  5
BA
  8
BODY_OUTLINE
 10
216.45755004882812
 20
219.42816162109375
 30
0.0
 70
0
  0
VERTEX
  5
BB
  8
BODY_OUTLINE
 10
219.67572021484375
 20
215.21978759765625
 30
0.0
 70
0
  0
VERTEX
  5
BC
  8
BODY_OUTLINE
 10
219.67572021484375
 20
211.25897216796875
 30
0.0
 70
0
  0
VERTEX
  5
BD
  8
BODY_OUTLINE
 10
220.1708221435547
 20
210.02122497558594
 30
0.0
 70
0
  0
VERTEX
  5
BE
  8
BODY_OUTLINE
 10
220.1708221435547
 20
118.67489624023438
 30
0.0
 70
0
  0
VERTEX
  5
BF
  8
BODY_OUTLINE
 10
219.67572021484375
 20
110.75326538085938
 30
0.0
 70
0
  0
VERTEX
  5
C0
  8
BODY_OUTLINE
 10
219.42816162109375
 20
87.97856903076172
 30
0.0
 70
0
  0
VERTEX
  5
C1
  8
BODY_OUTLINE
 10
217.44775390625
 20
84.51285552978516
 30
0.0
 70
0
  0
VERTEX
  5
C2
  8
BODY_OUTLINE
 10
198.88143920898438
 20
65.45142364501953
 30
0.0
 70
0
  0
VERTEX
  5
C3
  8
BODY_OUTLINE
 10
195.1681671142578
 20
63.22346496582031
 30
0.0
 70
0
  0
VERTEX
  5
C4
  8
BODY_OUTLINE
 10
181.8004150390625
 20
63.47101593017578
 30
0.0
 70
0
  0
VERTEX
  5
C5
  8
BODY_OUTLINE
 10
180.31509399414062
 20
77.33386993408203
 30
0.0
 70
0
  0
VERTEX
  5
C6
  8
BODY_OUTLINE
 10
178.58224487304688
 20
84.01775360107422
 30
0.0
 70
0
  0
VERTEX
  5
C7
  8
BODY_OUTLINE
 10
174.86898803710938
 20
89.95897674560547
 30
0.0
 70
0
  0
VERTEX
  5
C8
  8
BODY_OUTLINE
 10
172.39346313476562
 20
95.65264892578125
 30
0.0
 70
0
  0
VERTEX
  5
C9
  8
BODY_OUTLINE
 10
170.41305541992188
 20
98.3757095336914
 30
0.0
 70
0
  0
VERTEX
  5
CA
  8
BODY_OUTLINE
 10
170.41305541992188
 20
99.36591339111328
 30
0.0
 70
0
  0
VERTEX
  5
CB
  8
BODY_OUTLINE
 10
168.43264770507812
 20
101.84142303466797
 30
0.0
 70
0
  0
VERTEX
  5
CC
  8
BODY_OUTLINE
 10
168.1851043701172
 20
103.32672882080078
 30
0.0
 70
0
  0
VERTEX
  5
CD
  8
BODY_OUTLINE
 10
166.94735717773438
 20
104.56448364257812
 30
0.0
 70
0
  0
VERTEX
  5
CE
  8
BODY_OUTLINE
 10
161.748779296875
 20
114.21897888183594
 30
0.0
 70
0
  0
VERTEX
  5
CF
  8
BODY_OUTLINE
 10
161.501220703125
 20
112.73367309570312
 30
0.0
 70
0
  0
VERTEX
  5
D0
  8
BODY_OUTLINE
 10
159.52081298828125
 20
112.73367309570312
 30
0.0
 70
0
  0
VERTEX
  5
D1
  8
BODY_OUTLINE
 10
159.2732696533203
 20
114.21897888183594
 30
0.0
 70
0
  0
VERTEX
  5
D2
  8
BODY_OUTLINE
 10
158.28306579589844
 20
114.46652221679688
 30
0.0
 70
0
  0
VERTEX
  5
D3
  8
BODY_OUTLINE
 10
158.0355224609375
 20
116.19938659667969
 30
0.0
 70
0
  0
VERTEX
  5
D4
  8
BODY_OUTLINE
 10
157.29286193847656
 20
116.44692993164062
 30
0.0
 70
0
  0
VERTEX
  5
D5
  8
BODY_OUTLINE
 10
157.29286193847656
 20
118.67489624023438
 30
0.0
 70
0
  0
VERTEX
  5
D6
  8
BODY_OUTLINE
 10
159.02572631835938
 20
119.16999816894531
 30
0.0
 70
0
  0
VERTEX
  5
D7
  8
BODY_OUTLINE
 10
157.5404052734375
 20
121.89305877685547
 30
0.0
 70
0
  0
VERTEX
  5
D8
  8
BODY_OUTLINE
 10
157.29286193847656
 20
120.40774536132812
 30
0.0
 70
0
  0
VERTEX
  5
D9
  8
BODY_OUTLINE
 10
155.0648956298828
 20
120.65530395507812
 30
0.0
 70
0
  0
VERTEX
  5
DA
  8
BODY_OUTLINE
 10
155.0648956298828
 20
122.63571166992188
 30
0.0
 70
0
  0
VERTEX
  5
DB
  8
BODY_OUTLINE
 10
157.04530334472656
 20
123.13081359863281
 30
0.0
 70
0
  0
VERTEX
  5
DC
  8
BODY_OUTLINE
 10
155.55999755859375
 20
125.6063232421875
 30
0.0
 70
0
  0
VERTEX
  5
DD
  8
BODY_OUTLINE
 10
155.55999755859375
 20
126.84407806396484
 30
0.0
 70
0
  0
VERTEX
  5
DE
  8
BODY_OUTLINE
 10
153.8271484375
 20
131.0524444580078
 30
0.0
 70
0
  0
VERTEX
  5
DF
  8
BODY_OUTLINE
 10
153.8271484375
 20
135.0132598876953
 30
0.0
 70
0
  0
VERTEX
  5
E0
  8
BODY_OUTLINE
 10
160.2634735107422
 20
160.75856018066406
 30
0.0
 70
0
  0
VERTEX
  5
E1
  8
BODY_OUTLINE
 10
161.00613403320312
 20
165.21449279785156
 30
0.0
 70
0
  0
VERTEX
  5
E2
  8
BODY_OUTLINE
 10
164.2242889404297
 20
176.60183715820312
 30
0.0
 70
0
  0
VERTEX
  5
E3
  8
BODY_OUTLINE
 10
164.2242889404297
 20
179.32489013671875
 30
0.0
 70
0
  0
VERTEX
  5
E4
  8
BODY_OUTLINE
 10
162.98654174804688
 20
179.32489013671875
 30
0.0
 70
0
  0
VERTEX
  5
E5
  8
BODY_OUTLINE
 10
163.2340850830078
 20
176.60183715820312
 30
0.0
 70
0
  0
VERTEX
  5
E6
  8
BODY_OUTLINE
 10
160.75857543945312
 20
168.68020629882812
 30
0.0
 70
0
  0
VERTEX
  5
E7
  8
BODY_OUTLINE
 10
160.2634735107422
 20
164.96693420410156
 30
0.0
 70
0
  0
VERTEX
  5
E8
  8
BODY_OUTLINE
 10
159.2732696533203
 20
162.24386596679688
 30
0.0
 70
0
  0
VERTEX
  5
E9
  8
BODY_OUTLINE
 10
156.79776000976562
 20
151.1040802001953
 30
0.0
 70
0
  0
VERTEX
  5
EA
  8
BODY_OUTLINE
 10
156.0550994873047
 20
149.6187744140625
 30
0.0
 70
0
  0
VERTEX
  5
EB
  8
BODY_OUTLINE
 10
156.0550994873047
 20
148.1334686279297
 30
0.0
 70
0
  0
VERTEX
  5
EC
  8
BODY_OUTLINE
 10
152.83694458007812
 20
135.50836181640625
 30
0.0
 70
0
  0
VERTEX
  5
ED
  8
BODY_OUTLINE
 10
152.83694458007812
 20
133.03285217285156
 30
0.0
 70
0
  0
VERTEX
  5
EE
  8
BODY_OUTLINE
 10
153.33204650878906
 20
132.78530883789062
 30
0.0
 70
0
  0
VERTEX
  5
EF
  8
BODY_OUTLINE
 10
154.56979370117188
 20
127.09162902832031
 30
0.0
 70
0
  0
VERTEX
  5
F0
  8
BODY_OUTLINE
 10
155.80755615234375
 20
125.35877227783203
 30
0.0
 70
0
  0
VERTEX
  5
F1
  8
BODY_OUTLINE
 10
155.80755615234375
 20
123.37836456298828
 30
0.0
 70
0
  0
VERTEX
  5
F2
  8
BODY_OUTLINE
 10
153.57958984375
 20
123.13081359863281
 30
0.0
 70
0
  0
VERTEX
  5
F3
  8
BODY_OUTLINE
 10
151.59918212890625
 20
124.36856842041016
 30
0.0
 70
0
  0
VERTEX
  5
F4
  8
BODY_OUTLINE
 10
150.11387634277344
 20
124.36856842041016
 30
0.0
 70
0
  0
VERTEX
  5
F5
  8
BODY_OUTLINE
 10
138.23143005371094
 20
121.6455078125
 30
0.0
 70
0
  0
VERTEX
  5
F6
  8
BODY_OUTLINE
 10
136.74612426757812
 20
119.41754150390625
 30
0.0
 70
0
  0
VERTEX
  5
F7
  8
BODY_OUTLINE
 10
136.74612426757812
 20
108.52529907226562
 30
0.0
 70
0
  0
VERTEX
  5
F8
  8
BODY_OUTLINE
 10
134.51815795898438
 20
108.27775573730469
 30
0.0
 70
0
  0
VERTEX
  5
F9
  8
BODY_OUTLINE
 10
134.27061462402344
 20
114.21897888183594
 30
0.0
 70
0
  0
VERTEX
  5
FA
  8
BODY_OUTLINE
 10
133.28041076660156
 20
116.19938659667969
 30
0.0
 70
0
  0
VERTEX
  5
FB
  8
BODY_OUTLINE
 10
132.04266357421875
 20
116.69448852539062
 30
0.0
 70
0
  0
VERTEX
  5
FC
  8
BODY_OUTLINE
 10
105.30714416503906
 20
116.69448852539062
 30
0.0
 70
0
  0
VERTEX
  5
FD
  8
BODY_OUTLINE
 10
105.0595932006836
 20
130.80490112304688
 30
0.0
 70
0
  0
VERTEX
  5
FE
  8
BODY_OUTLINE
 10
105.0595932006836
 20
117.18959045410156
 30
0.0
 70
0
  0
VERTEX
  5
FF
  8
BODY_OUTLINE
 10
104.56449127197266
 20
116.69448852539062
 30
0.0
 70
0
  0
VERTEX
  5
100
  8
BODY_OUTLINE
 10
100.60367584228516
 20
116.44692993164062
 30
0.0
 70
0
  0
VERTEX
  5
101
  8
BODY_OUTLINE
 10
99.36592102050781
 20
115.70428466796875
 30
0.0
 70
0
  0
VERTEX
  5
102
  8
BODY_OUTLINE
 10
98.6232681274414
 20
114.21897888183594
 30
0.0
 70
0
  0
VERTEX
  5
103
  8
BODY_OUTLINE
 10
96.64286041259766
 20
114.21897888183594
 30
0.0
 70
0
  0
VERTEX
  5
104
  8
BODY_OUTLINE
 10
96.39530944824219
 20
114.96162414550781
 30
0.0
 70
0
  0
VERTEX
  5
105
  8
BODY_OUTLINE
 10
96.39530944824219
 20
110.50570678710938
 30
0.0
 70
0
  0
VERTEX
  5
106
  8
BODY_OUTLINE
 10
95.65265655517578
 20
109.5155029296875
 30
0.0
 70
0
  0
VERTEX
  5
107
  8
BODY_OUTLINE
 10
95.65265655517578
 20
86.4932632446289
 30
0.0
 70
0
  0
VERTEX
  5
108
  8
BODY_OUTLINE
 10
95.15755462646484
 20
84.76040649414062
 30
0.0
 70
0
  0
VERTEX
  5
109
  8
BODY_OUTLINE
 10
95.40510559082031
 20
69.90734100341797
 30
0.0
 70
0
  0
VERTEX
  5
10A
  8
BODY_OUTLINE
 10
94.91000366210938
 20
63.71856689453125
 30
0.0
 70
0
  0
VERTEX
  5
10B
  8
BODY_OUTLINE
 10
93.1771469116211
 20
61.7381591796875
 30
0.0
 70
0
  0
VERTEX
  5
10C
  8
BODY_OUTLINE
 10
91.69184112548828
 20
61.24305725097656
 30
0.0
 70
0
  0
VERTEX
  5
10D
  8
BODY_OUTLINE
 10
83.77020263671875
 20
60.00530242919922
 30
0.0
 70
0
  0
VERTEX
  5
10E
  8
BODY_OUTLINE
 10
79.31428527832031
 20
58.767547607421875
 30
0.0
 70
0
  0
VERTEX
  5
10F
  8
BODY_OUTLINE
 10
76.34367370605469
 20
58.767547607421875
 30
0.0
 70
0
  0
VERTEX
  5
110
  8
BODY_OUTLINE
 10
73.8681640625
 20
59.75775146484375
 30
0.0
 70
0
  0
VERTEX
  5
111
  8
BODY_OUTLINE
 10
72.38285827636719
 20
61.98571014404297
 30
0.0
 70
0
  0
VERTEX
  5
112
  8
BODY_OUTLINE
 10
72.63040924072266
 20
80.05693817138672
 30
0.0
 70
0
  0
VERTEX
  5
113
  8
BODY_OUTLINE
 10
73.62062072753906
 20
84.26530456542969
 30
0.0
 70
0
  0
VERTEX
  5
114
  8
BODY_OUTLINE
 10
88.47367858886719
 20
115.70428466796875
 30
0.0
 70
0
  0
VERTEX
  5
115
  8
BODY_OUTLINE
 10
90.20653533935547
 20
117.18959045410156
 30
0.0
 70
0
  0
VERTEX
  5
116
  8
BODY_OUTLINE
 10
91.69184112548828
 20
117.6846923828125
 30
0.0
 70
0
  0
VERTEX
  5
117
  8
BODY_OUTLINE
 10
94.41490173339844
 20
117.6846923828125
 30
0.0
 70
0
  0
VERTEX
  5
118
  8
BODY_OUTLINE
 10
95.90020751953125
 20
116.44692993164062
 30
0.0
 70
0
  0
VERTEX
  5
119
  8
BODY_OUTLINE
 10
95.15755462646484
 20
118.42733764648438
 30
0.0
 70
0
  0
VERTEX
  5
11A
  8
BODY_OUTLINE
 10
92.43449401855469
 20
120.90284729003906
 30
0.0
 70
0
  0
VERTEX
  5
11B
  8
BODY_OUTLINE
 10
89.46388244628906
 20
121.15040588378906
 30
0.0
 70
0
  0
VERTEX
  5
11C
  8
BODY_OUTLINE
 10
86.49327087402344
 20
119.91264343261719
 30
0.0
 70
0
  0
VERTEX
  5
11D
  8
BODY_OUTLINE
 10
83.02755737304688
 20
115.20918273925781
 30
0.0
 70
0
  0
VERTEX
  5
11E
  8
BODY_OUTLINE
 10
68.66959381103516
 20
85.0079574584961
 30
0.0
 70
0
  0
VERTEX
  5
11F
  8
BODY_OUTLINE
 10
67.92694091796875
 20
82.03734588623047
 30
0.0
 70
0
  0
VERTEX
  5
120
  8
BODY_OUTLINE
 10
67.67938995361328
 20
74.3632583618164
 30
0.0
 70
0
  0
VERTEX
  5
121
  8
BODY_OUTLINE
 10
67.18428802490234
 20
71.88774871826172
 30
0.0
 70
0
  0
VERTEX
  5
122
  8
BODY_OUTLINE
 10
67.18428802490234
 20
61.98571014404297
 30
0.0
 70
0
  0
VERTEX
  5
123
  8
BODY_OUTLINE
 10
68.17449188232422
 20
59.51020050048828
 30
0.0
 70
0
  0
VERTEX
  5
124
  8
BODY_OUTLINE
 10
69.41224670410156
 20
58.02489471435547
 30
0.0
 70
0
  0
VERTEX
  5
125
  8
BODY_OUTLINE
 10
73.1255111694336
 20
57.034690856933594
 30
0.0
 70
0
  0
VERTEX
  5
126
  8
BODY_OUTLINE
 10
91.44429016113281
 20
60.747955322265625
 30
0.0
 70
0
  0
VERTEX
  5
127
  8
BODY_OUTLINE
 10
93.1771469116211
 20
61.49060821533203
 30
0.0
 70
0
  0
VERTEX
  5
128
  8
BODY_OUTLINE
 10
94.91000366210938
 20
63.47101593017578
 30
0.0
 70
0
  0
VERTEX
  5
129
  8
BODY_OUTLINE
 10
95.65265655517578
 20
66.19407653808594
 30
0.0
 70
0
  0
VERTEX
  5
12A
  8
BODY_OUTLINE
 10
95.65265655517578
 20
94.16734313964844
 30
0.0
 70
0
  0
VERTEX
  5
12B
  8
BODY_OUTLINE
 10
96.14775848388672
 20
94.4148941040039
 30
0.0
 70
0
  0
VERTEX
  5
12C
  8
BODY_OUTLINE
 10
96.39530944824219
 20
105.80224609375
 30
0.0
 70
0
  0
VERTEX
  5
12D
  8
BODY_OUTLINE
 10
98.6232681274414
 20
105.5546875
 30
0.0
 70
0
  0
VERTEX
  5
12E
  8
BODY_OUTLINE
 10
98.6232681274414
 20
101.84142303466797
 30
0.0
 70
0
  0
VERTEX
  5
12F
  8
BODY_OUTLINE
 10
99.11837005615234
 20
100.60366821289062
 30
0.0
 70
0
  0
VERTEX
  5
130
  8
BODY_OUTLINE
 10
99.86102294921875
 20
99.86101531982422
 30
0.0
 70
0
  0
VERTEX
  5
131
  8
BODY_OUTLINE
 10
101.59387969970703
 20
99.36591339111328
 30
0.0
 70
0
  0
VERTEX
  5
132
  8
BODY_OUTLINE
 10
104.31694030761719
 20
99.61346435546875
 30
0.0
 70
0
  0
VERTEX
  5
133
  8
BODY_OUTLINE
 10
104.56449127197266
 20
97.13795471191406
 30
0.0
 70
0
  0
VERTEX
  5
134
  8
BODY_OUTLINE
 10
105.0595932006836
 20
96.8904037475586
 30
0.0
 70
0
  0
VERTEX
  5
135
  8
BODY_OUTLINE
 10
104.81204223632812
 20
94.16734313964844
 30
0.0
 70
0
  0
VERTEX
  5
136
  8
BODY_OUTLINE
 10
100.60367584228516
 20
93.91979217529297
 30
0.0
 70
0
  0
VERTEX
  5
137
  8
BODY_OUTLINE
 10
99.11837005615234
 20
93.17713928222656
 30
0.0
 70
0
  0
VERTEX
  5
138
  8
BODY_OUTLINE
 10
98.6232681274414
 20
91.44428253173828
 30
0.0
 70
0
  0
VERTEX
  5
139
  8
BODY_OUTLINE
 10
98.6232681274414
 20
84.26530456542969
 30
0.0
 70
0
  0
VERTEX
  5
13A
  8
BODY_OUTLINE
 10
99.86102294921875
 20
82.03734588623047
 30
0.0
 70
0
  0
VERTEX
  5
13B
  8
BODY_OUTLINE
 10
132.04266357421875
 20
81.54224395751953
 30
0.0
 70
0
  0
VERTEX
  5
13C
  8
BODY_OUTLINE
 10
133.5279541015625
 20
82.03734588623047
 30
0.0
 70
0
  0
VERTEX
  5
13D
  8
BODY_OUTLINE
 10
134.27061462402344
 20
83.02754974365234
 30
0.0
 70
0
  0
VERTEX
  5
13E
  8
BODY_OUTLINE
 10
136.4985809326172
 20
82.77999877929688
 30
0.0
 70
0
  0
VERTEX
  5
13F
  8
BODY_OUTLINE
 10
136.2510223388672
 20
55.54938507080078
 30
0.0
 70
0
  0
VERTEX
  5
140
  8
BODY_OUTLINE
 10
136.4985809326172
 20
54.31163024902344
 30
0.0
 70
0
  0
VERTEX
  5
141
  8
BODY_OUTLINE
 10
137.98388671875
 20
52.826324462890625
 30
0.0
 70
0
  0
VERTEX
  5
142
  8
BODY_OUTLINE
 10
140.4593963623047
 20
52.578773498535156
 30
0.0
 70
0
  0
VERTEX
  5
143
  8
BODY_OUTLINE
 10
164.2242889404297
 20
63.22346496582031
 30
0.0
 70
0
  0
VERTEX
  5
144
  8
BODY_OUTLINE
 10
167.69000244140625
 20
65.45142364501953
 30
0.0
 70
0
  0
VERTEX
  5
145
  8
BODY_OUTLINE
 10
168.68020629882812
 20
69.16468811035156
 30
0.0
 70
0
  0
VERTEX
  5
146
  8
BODY_OUTLINE
 10
170.66061401367188
 20
93.6722412109375
 30
0.0
 70
0
  0
VERTEX
  5
147
  8
BODY_OUTLINE
 10
172.88858032226562
 20
93.42469024658203
 30
0.0
 70
0
  0
VERTEX
  5
148
  8
BODY_OUTLINE
 10
176.84939575195312
 20
85.99816131591797
 30
0.0
 70
0
  0
VERTEX
  5
149
  8
BODY_OUTLINE
 10
178.58224487304688
 20
81.54224395751953
 30
0.0
 70
0
  0
VERTEX
  5
14A
  8
BODY_OUTLINE
 10
179.3249053955078
 20
78.07652282714844
 30
0.0
 70
0
  0
VERTEX
  5
14B
  8
BODY_OUTLINE
 10
179.57244873046875
 20
72.8779525756836
 30
0.0
 70
0
  0
VERTEX
  5
14C
  8
BODY_OUTLINE
 10
180.31509399414062
 20
72.63040161132812
 30
0.0
 70
0
  0
VERTEX
  5
14D
  8
BODY_OUTLINE
 10
180.56265258789062
 20
70.89754486083984
 30
0.0
 70
0
  0
VERTEX
  5
14E
  8
BODY_OUTLINE
 10
180.31509399414062
 20
67.43183135986328
 30
0.0
 70
0
  0
VERTEX
  5
14F
  8
BODY_OUTLINE
 10
180.81021118164062
 20
67.18428039550781
 30
0.0
 70
0
  0
VERTEX
  5
150
  8
BODY_OUTLINE
 10
180.81021118164062
 20
62.728363037109375
 30
0.0
 70
0
  0
VERTEX
  5
151
  8
BODY_OUTLINE
 10
126.84408569335938
 20
31.78448486328125
 30
0.0
 70
0
  0
VERTEX
  5
152
  8
BODY_OUTLINE
 10
123.62592315673828
 20
32.03204345703125
 30
0.0
 70
0
  0
VERTEX
  5
153
  8
BODY_OUTLINE
 10
116.44694519042969
 20
35.49775695800781
 30
0.0
 70
0
  0
VERTEX
  5
154
  8
BODY_OUTLINE
 10
112.9812240600586
 20
35.49775695800781
 30
0.0
 70
0
  0
VERTEX
  5
155
  8
BODY_OUTLINE
 10
64.46122741699219
 20
10.247543334960938
 30
0.0
 70
0
  0
VERTEX
  5
156
  8
BODY_OUTLINE
 10
56.29204177856445
 20
10.247543334960938
 30
0.0
 70
0
  0
VERTEX
  5
157
  8
BODY_OUTLINE
 10
55.54938888549805
 20
10.742645263671875
 30
0.0
 70
0
  0
VERTEX
  5
158
  8
BODY_OUTLINE
 10
55.30183792114258
 20
12.227951049804688
 30
0.0
 70
0
  0
VERTEX
  5
159
  8
BODY_OUTLINE
 10
55.30183792114258
 20
24.110397338867188
 30
0.0
 70
0
  0
VERTEX
  5
15A
  8
BODY_OUTLINE
 10
55.796939849853516
 20
28.566314697265625
 30
0.0
 70
0
  0
VERTEX
  5
15B
  8
BODY_OUTLINE
 10
55.54938888549805
 20
43.91448211669922
 30
0.0
 70
0
  0
VERTEX
  5
15C
  8
BODY_OUTLINE
 10
56.044490814208984
 20
66.68917846679688
 30
0.0
 70
0
  0
VERTEX
  5
15D
  8
BODY_OUTLINE
 10
56.787147521972656
 20
75.84856414794922
 30
0.0
 70
0
  0
VERTEX
  5
15E
  8
BODY_OUTLINE
 10
58.52000427246094
 20
82.28489685058594
 30
0.0
 70
0
  0
VERTEX
  5
15F
  8
BODY_OUTLINE
 10
61.49061584472656
 20
88.9687728881836
 30
0.0
 70
0
  0
VERTEX
  5
160
  8
BODY_OUTLINE
 10
80.05694580078125
 20
126.10142517089844
 30
0.0
 70
0
  0
VERTEX
  5
161
  8
BODY_OUTLINE
 10
80.30448913574219
 20
130.55734252929688
 30
0.0
 70
0
  0
VERTEX
  5
162
  8
BODY_OUTLINE
 10
75.84857177734375
 20
141.6971435546875
 30
0.0
 70
0
  0
VERTEX
  5
163
  8
BODY_OUTLINE
 10
75.84857177734375
 20
142.68734741210938
 30
0.0
 70
0
  0
VERTEX
  5
164
  8
BODY_OUTLINE
 10
74.11572265625
 20
145.90550231933594
 30
0.0
 70
0
  0
VERTEX
  5
165
  8
BODY_OUTLINE
 10
68.17449188232422
 20
162.24386596679688
 30
0.0
 70
0
  0
VERTEX
  5
166
  8
BODY_OUTLINE
 10
67.92694091796875
 20
164.2242889404297
 30
0.0
 70
0
  0
VERTEX
  5
167
  8
BODY_OUTLINE
 10
67.43183898925781
 20
164.71939086914062
 30
0.0
 70
0
  0
VERTEX
  5
168
  8
BODY_OUTLINE
 10
66.6891860961914
 20
168.1851043701172
 30
0.0
 70
0
  0
VERTEX
  5
169
  8
BODY_OUTLINE
 10
66.93673706054688
 20
175.36407470703125
 30
0.0
 70
0
  0
VERTEX
  5
16A
  8
BODY_OUTLINE
 10
67.92694091796875
 20
177.83958435058594
 30
0.0
 70
0
  0
VERTEX
  5
16B
  8
BODY_OUTLINE
 10
67.18428802490234
 20
175.61163330078125
 30
0.0
 70
0
  0
VERTEX
  5
16C
  8
BODY_OUTLINE
 10
66.6891860961914
 20
175.36407470703125
 30
0.0
 70
0
  0
VERTEX
  5
16D
  8
BODY_OUTLINE
 10
66.6891860961914
 20
173.3836669921875
 30
0.0
 70
0
  0
VERTEX
  5
16E
  8
BODY_OUTLINE
 10
65.946533203125
 20
171.40325927734375
 30
0.0
 70
0
  0
VERTEX
  5
16F
  8
BODY_OUTLINE
 10
66.19408416748047
 20
167.69000244140625
 30
0.0
 70
0
  0
VERTEX
  5
170
  8
BODY_OUTLINE
 10
69.41224670410156
 20
157.04530334472656
 30
0.0
 70
0
  0
VERTEX
  5
171
  8
BODY_OUTLINE
 10
74.36326599121094
 20
144.66775512695312
 30
0.0
 70
0
  0
VERTEX
  5
172
  8
BODY_OUTLINE
 10
74.61082458496094
 20
142.9348907470703
 30
0.0
 70
0
  0
VERTEX
  5
173
  8
BODY_OUTLINE
 10
75.60102844238281
 20
141.4495849609375
 30
0.0
 70
0
  0
VERTEX
  5
174
  8
BODY_OUTLINE
 10
75.60102844238281
 20
140.45938110351562
 30
0.0
 70
0
  0
VERTEX
  5
175
  8
BODY_OUTLINE
 10
76.34367370605469
 20
139.71673583984375
 30
0.0
 70
0
  0
VERTEX
  5
176
  8
BODY_OUTLINE
 10
76.34367370605469
 20
138.47897338867188
 30
0.0
 70
0
  0
VERTEX
  5
177
  8
BODY_OUTLINE
 10
77.33387756347656
 20
137.24122619628906
 30
0.0
 70
0
  0
VERTEX
  5
178
  8
BODY_OUTLINE
 10
79.80938720703125
 20
129.567138671875
 30
0.0
 70
0
  0
VERTEX
  5
179
  8
BODY_OUTLINE
 10
79.80938720703125
 20
127.33917999267578
 30
0.0
 70
0
  0
VERTEX
  5
17A
  8
BODY_OUTLINE
 10
78.81918334960938
 20
123.37836456298828
 30
0.0
 70
0
  0
VERTEX
  5
17B
  8
BODY_OUTLINE
 10
77.33387756347656
 20
121.6455078125
 30
0.0
 70
0
  0
VERTEX
  5
17C
  8
BODY_OUTLINE
 10
76.83877563476562
 20
119.66510009765625
 30
0.0
 70
0
  0
VERTEX
  5
17D
  8
BODY_OUTLINE
 10
75.35346984863281
 20
116.69448852539062
 30
0.0
 70
0
  0
VERTEX
  5
17E
  8
BODY_OUTLINE
 10
74.61082458496094
 20
116.19938659667969
 30
0.0
 70
0
  0
VERTEX
  5
17F
  8
BODY_OUTLINE
 10
74.61082458496094
 20
115.20918273925781
 30
0.0
 70
0
  0
VERTEX
  5
180
  8
BODY_OUTLINE
 10
59.51020812988281
 20
85.25550842285156
 30
0.0
 70
0
  0
VERTEX
  5
181
  8
BODY_OUTLINE
 10
57.52980041503906
 20
79.80938720703125
 30
0.0
 70
0
  0
VERTEX
  5
182
  8
BODY_OUTLINE
 10
56.044490814208984
 20
69.90734100341797
 30
0.0
 70
0
  0
VERTEX
  5
183
  8
BODY_OUTLINE
 10
55.54938888549805
 20
69.6597900390625
 30
0.0
 70
0
  0
VERTEX
  5
184
  8
BODY_OUTLINE
 10
55.54938888549805
 20
45.15223693847656
 30
0.0
 70
0
  0
VERTEX
  5
185
  8
BODY_OUTLINE
 10
48.61796569824219
 20
44.904685974121094
 30
0.0
 70
0
  0
VERTEX
  5
186
  8
BODY_OUTLINE
 10
45.64734649658203
 20
45.6473388671875
 30
0.0
 70
0
  0
VERTEX
  5
187
  8
BODY_OUTLINE
 10
26.833473205566406
 20
64.46121978759766
 30
0.0
 70
0
  0
VERTEX
  5
188
  8
BODY_OUTLINE
 10
26.33837127685547
 20
67.92693328857422
 30
0.0
 70
0
  0
VERTEX
  5
189
  8
BODY_OUTLINE
 10
20.892250061035156
 20
73.86815643310547
 30
0.0
 70
0
  0
VERTEX
  5
18A
  8
BODY_OUTLINE
 10
20.892250061035156
 20
75.60101318359375
 30
0.0
 70
0
  0
VERTEX
  5
18B
  8
BODY_OUTLINE
 10
20.14959716796875
 20
76.8387680053711
 30
0.0
 70
0
  0
VERTEX
  5
18C
  8
BODY_OUTLINE
 10
20.14959716796875
 20
83.02754974365234
 30
0.0
 70
0
  0
VERTEX
  5
18D
  8
BODY_OUTLINE
 10
19.159393310546875
 20
85.0079574584961
 30
0.0
 70
0
  0
VERTEX
  5
18E
  8
BODY_OUTLINE
 10
18.911842346191406
 20
86.74081420898438
 30
0.0
 70
0
  0
VERTEX
  5
18F
  8
BODY_OUTLINE
 10
17.92163848876953
 20
87.73101806640625
 30
0.0
 70
0
  0
VERTEX
  5
190
  8
BODY_OUTLINE
 10
17.178985595703125
 20
89.95897674560547
 30
0.0
 70
0
  0
VERTEX
  5
191
  8
BODY_OUTLINE
 10
17.178985595703125
 20
116.94203186035156
 30
0.0
 70
0
  0
VERTEX
  5
192
  8
BODY_OUTLINE
 10
16.931434631347656
 20
117.93223571777344
 30
0.0
 70
0
  0
VERTEX
  5
193
  8
BODY_OUTLINE
 10
14.455924987792969
 20
120.40774536132812
 30
0.0
 70
0
  0
VERTEX
  5
194
  8
BODY_OUTLINE
 10
14.208366394042969
 20
122.14060974121094
 30
0.0
 70
0
  0
VERTEX
  5
195
  8
BODY_OUTLINE
 10
12.227958679199219
 20
124.12101745605469
 30
0.0
 70
0
  0
VERTEX
  5
196
  8
BODY_OUTLINE
 10
11.732856750488281
 20
125.11122131347656
 30
0.0
 70
0
  0
VERTEX
  5
197
  8
BODY_OUTLINE
 10
11.485305786132812
 20
128.0818328857422
 30
0.0
 70
0
  0
VERTEX
  5
198
  8
BODY_OUTLINE
 10
10.247550964355469
 20
130.06224060058594
 30
0.0
 70
0
  0
VERTEX
  5
199
  8
BODY_OUTLINE
 10
10.247550964355469
 20
172.39346313476562
 30
0.0
 70
0
  0
VERTEX
  5
19A
  8
BODY_OUTLINE
 10
10.742652893066406
 20
173.13612365722656
 30
0.0
 70
0
  0
VERTEX
  5
19B
  8
BODY_OUTLINE
 10
11.237754821777344
 20
177.344482421875
 30
0.0
 70
0
  0
VERTEX
  5
19C
  8
BODY_OUTLINE
 10
11.237754821777344
 20
181.5528564453125
 30
0.0
 70
0
  0
VERTEX
  5
19D
  8
BODY_OUTLINE
 10
11.732856750488281
 20
182.7906036376953
 30
0.0
 70
0
  0
VERTEX
  5
19E
  8
BODY_OUTLINE
 10
13.9608154296875
 20
185.01856994628906
 30
0.0
 70
0
  0
VERTEX
  5
19F
  8
BODY_OUTLINE
 10
13.9608154296875
 20
191.7024383544922
 30
0.0
 70
0
  0
VERTEX
  5
1A0
  8
BODY_OUTLINE
 10
14.455924987792969
 20
193.187744140625
 30
0.0
 70
0
  0
VERTEX
  5
1A1
  8
BODY_OUTLINE
 10
16.18878173828125
 20
194.9206085205078
 30
0.0
 70
0
  0
VERTEX
  5
1A2
  8
BODY_OUTLINE
 10
16.43633270263672
 20
197.3961181640625
 30
0.0
 70
0
  0
VERTEX
  5
1A3
  8
BODY_OUTLINE
 10
17.674087524414062
 20
199.62408447265625
 30
0.0
 70
0
  0
VERTEX
  5
1A4
  8
BODY_OUTLINE
 10
17.674087524414062
 20
203.08978271484375
 30
0.0
 70
0
  0
VERTEX
  5
1A5
  8
BODY_OUTLINE
 10
19.90204620361328
 20
205.5653076171875
 30
0.0
 70
0
  0
VERTEX
  5
1A6
  8
BODY_OUTLINE
 10
20.39714813232422
 20
208.78346252441406
 30
0.0
 70
0
  0
VERTEX
  5
1A7
  8
BODY_OUTLINE
 10
21.139801025390625
 20
209.77366638183594
 30
0.0
 70
0
  0
VERTEX
  5
1A8
  8
BODY_OUTLINE
 10
21.634902954101562
 20
214.9722442626953
 30
0.0
 70
0
  0
VERTEX
  5
1A9
  8
BODY_OUTLINE
 10
22.872657775878906
 20
216.20999145507812
 30
0.0
 70
0
  0
VERTEX
  5
1AA
  8
BODY_OUTLINE
 10
23.367759704589844
 20
217.94285583496094
 30
0.0
 70
0
  0
VERTEX
  5
1AB
  8
BODY_OUTLINE
 10
30.0516357421875
 20
224.62673950195312
 30
0.0
 70
0
  0
VERTEX
  5
1AC
  8
BODY_OUTLINE
 10
30.29918670654297
 20
225.616943359375
 30
0.0
 70
0
  0
VERTEX
  5
1AD
  8
BODY_OUTLINE
 10
31.536941528320312
 20
226.8546905517578
 30
0.0
 70
0
  0
VERTEX
  5
1AE
  8
BODY_OUTLINE
 10
33.022247314453125
 20
230.8155059814453
 30
0.0
 70
0
  0
VERTEX
  5
1AF
  8
BODY_OUTLINE
 10
40.696327209472656
 20
238.48959350585938
 30
0.0
 70
0
  0
VERTEX
  5
1B0
  8
BODY_OUTLINE
 10
41.43898010253906
 20
241.460205078125
 30
0.0
 70
0
  0
VERTEX
  5
1B1
  8
BODY_OUTLINE
 10
41.43898010253906
 20
244.67835998535156
 30
0.0
 70
0
  0
VERTEX
  5
1B2
  8
BODY_OUTLINE
 10
46.637550354003906
 20
251.11468505859375
 30
0.0
 70
0
  0
VERTEX
  5
1B3
  8
BODY_OUTLINE
 10
47.62775421142578
 20
253.5902099609375
 30
0.0
 70
0
  0
VERTEX
  5
1B4
  8
BODY_OUTLINE
 10
47.62775421142578
 20
256.5608215332031
 30
0.0
 70
0
  0
VERTEX
  5
1B5
  8
BODY_OUTLINE
 10
51.093475341796875
 20
263.73980712890625
 30
0.0
 70
0
  0
VERTEX
  5
1B6
  8
BODY_OUTLINE
 10
62.728370666503906
 20
275.62225341796875
 30
0.0
 70
0
  0
VERTEX
  5
1B7
  8
BODY_OUTLINE
 10
67.92694091796875
 20
282.0585632324219
 30
0.0
 70
0
  0
VERTEX
  5
1B8
  8
BODY_OUTLINE
 10
88.72122955322266
 20
302.85284423828125
 30
0.0
 70
0
  0
VERTEX
  5
1B9
  8
BODY_OUTLINE
 10
90.45408630371094
 20
303.59552001953125
 30
0.0
 70
0
  0
VERTEX
  5
1BA
  8
BODY_OUTLINE
 10
102.5840835571289
 20
315.72552490234375
 30
0.0
 70
0
  0
VERTEX
  5
1BB
  8
BODY_OUTLINE
 10
107.78265380859375
 20
315.9730529785156
 30
0.0
 70
0
  0
VERTEX
  5
1BC
  8
BODY_OUTLINE
 10
110.75326538085938
 20
317.9534606933594
 30
0.0
 70
0
  0
SEQEND
  5
A3
  8
BODY_OUTLINE
  0
POLYLINE
  5
1BD
  8
BODY_OUTLINE
 66
1
 10
0.0
 20
0.0
 30
0.0
 70
1
  0
VERTEX
  5
1BF
  8
BODY_OUTLINE
 10
151.84674072265625
 20
318.2010192871094
 30
0.0
 70
0
  0
VERTEX
  5
1C0
  8
BODY_OUTLINE
 10
110.25816345214844
 20
318.2010192871094
 30
0.0
 70
0
  0
VERTEX
  5
1C1
  8
BODY_OUTLINE
 10
107.53510284423828
 20
316.2206115722656
 30
0.0
 70
0
  0
VERTEX
  5
1C2
  8
BODY_OUTLINE
 10
102.33653259277344
 20
315.9730529785156
 30
0.0
 70
0
  0
VERTEX
  5
1C3
  8
BODY_OUTLINE
 10
90.20653533935547
 20
303.84307861328125
 30
0.0
 70
0
  0
VERTEX
  5
1C4
  8
BODY_OUTLINE
 10
88.47367858886719
 20
303.10040283203125
 30
0.0
 70
0
  0
VERTEX
  5
1C5
  8
BODY_OUTLINE
 10
67.67938995361328
 20
282.3061218261719
 30
0.0
 70
0
  0
VERTEX
  5
1C6
  8
BODY_OUTLINE
 10
67.67938995361328
 20
281.8110046386719
 30
0.0
 70
0
  0
VERTEX
  5
1C7
  8
BODY_OUTLINE
 10
62.48081970214844
 20
275.8697814941406
 30
0.0
 70
0
  0
VERTEX
  5
1C8
  8
BODY_OUTLINE
 10
50.59837341308594
 20
263.73980712890625
 30
0.0
 70
0
  0
VERTEX
  5
1C9
  8
BODY_OUTLINE
 10
50.35082244873047
 20
262.2544860839844
 30
0.0
 70
0
  0
VERTEX
  5
1CA
  8
BODY_OUTLINE
 10
48.12286376953125
 20
259.03631591796875
 30
0.0
 70
0
  0
VERTEX
  5
1CB
  8
BODY_OUTLINE
 10
48.12286376953125
 20
258.0461120605469
 30
0.0
 70
0
  0
VERTEX
  5
1CC
  8
BODY_OUTLINE
 10
47.38020324707031
 20
256.808349609375
 30
0.0
 70
0
  0
VERTEX
  5
1CD
  8
BODY_OUTLINE
 10
47.38020324707031
 20
253.83775329589844
 30
0.0
 70
0
  0
VERTEX
  5
1CE
  8
BODY_OUTLINE
 10
46.38999938964844
 20
251.36224365234375
 30
0.0
 70
0
  0
VERTEX
  5
1CF
  8
BODY_OUTLINE
 10
41.43898010253906
 20
245.66856384277344
 30
0.0
 70
0
  0
VERTEX
  5
1D0
  8
BODY_OUTLINE
 10
40.696327209472656
 20
238.98468017578125
 30
0.0
 70
0
  0
VERTEX
  5
1D1
  8
BODY_OUTLINE
 10
32.774696350097656
 20
231.06304931640625
 30
0.0
 70
0
  0
VERTEX
  5
1D2
  8
BODY_OUTLINE
 10
31.289390563964844
 20
228.09243774414062
 30
0.0
 70
0
  0
VERTEX
  5
1D3
  8
BODY_OUTLINE
 10
31.289390563964844
 20
227.10223388671875
 30
0.0
 70
0
  0
VERTEX
  5
1D4
  8
BODY_OUTLINE
 10
30.0516357421875
 20
225.86448669433594
 30
0.0
 70
0
  0
VERTEX
  5
1D5
  8
BODY_OUTLINE
 10
29.80408477783203
 20
224.87428283691406
 30
0.0
 70
0
  0
VERTEX
  5
1D6
  8
BODY_OUTLINE
 10
22.872657775878906
 20
217.94285583496094
 30
0.0
 70
0
  0
VERTEX
  5
1D7
  8
BODY_OUTLINE
 10
22.625106811523438
 20
216.45755004882812
 30
0.0
 70
0
  0
VERTEX
  5
1D8
  8
BODY_OUTLINE
 10
21.387351989746094
 20
215.21978759765625
 30
0.0
 70
0
  0
VERTEX
  5
1D9
  8
BODY_OUTLINE
 10
20.892250061035156
 20
210.02122497558594
 30
0.0
 70
0
  0
VERTEX
  5
1DA
  8
BODY_OUTLINE
 10
20.14959716796875
 20
209.278564453125
 30
0.0
 70
0
  0
VERTEX
  5
1DB
  8
BODY_OUTLINE
 10
19.654495239257812
 20
205.81285095214844
 30
0.0
 70
0
  0
VERTEX
  5
1DC
  8
BODY_OUTLINE
 10
17.426536560058594
 20
203.58489990234375
 30
0.0
 70
0
  0
VERTEX
  5
1DD
  8
BODY_OUTLINE
 10
17.426536560058594
 20
199.62408447265625
 30
0.0
 70
0
  0
VERTEX
  5
1DE
  8
BODY_OUTLINE
 10
16.43633270263672
 20
198.38632202148438
 30
0.0
 70
0
  0
VERTEX
  5
1DF
  8
BODY_OUTLINE
 10
15.941230773925781
 20
195.16815185546875
 30
0.0
 70
0
  0
VERTEX
  5
1E0
  8
BODY_OUTLINE
 10
14.208366394042969
 20
193.435302734375
 30
0.0
 70
0
  0
VERTEX
  5
1E1
  8
BODY_OUTLINE
 10
13.713264465332031
 20
192.19754028320312
 30
0.0
 70
0
  0
VERTEX
  5
1E2
  8
BODY_OUTLINE
 10
13.713264465332031
 20
185.26611328125
 30
0.0
 70
0
  0
VERTEX
  5
1E3
  8
BODY_OUTLINE
 10
10.990203857421875
 20
182.04795837402344
 30
0.0
 70
0
  0
VERTEX
  5
1E4
  8
BODY_OUTLINE
 10
10.990203857421875
 20
177.83958435058594
 30
0.0
 70
0
  0
VERTEX
  5
1E5
  8
BODY_OUTLINE
 10
10.495101928710938
 20
173.3836669921875
 30
0.0
 70
0
  0
VERTEX
  5
1E6
  8
BODY_OUTLINE
 10
10.0
 20
172.88856506347656
 30
0.0
 70
0
  0
VERTEX
  5
1E7
  8
BODY_OUTLINE
 10
10.0
 20
129.567138671875
 30
0.0
 70
0
  0
VERTEX
  5
1E8
  8
BODY_OUTLINE
 10
11.237754821777344
 20
128.0818328857422
 30
0.0
 70
0
  0
VERTEX
  5
1E9
  8
BODY_OUTLINE
 10
11.485305786132812
 20
124.61611938476562
 30
0.0
 70
0
  0
VERTEX
  5
1EA
  8
BODY_OUTLINE
 10
13.9608154296875
 20
121.89305877685547
 30
0.0
 70
0
  0
VERTEX
  5
1EB
  8
BODY_OUTLINE
 10
13.9608154296875
 20
120.40774536132812
 30
0.0
 70
0
  0
VERTEX
  5
1EC
  8
BODY_OUTLINE
 10
16.683883666992188
 20
117.6846923828125
 30
0.0
 70
0
  0
VERTEX
  5
1ED
  8
BODY_OUTLINE
 10
16.931434631347656
 20
116.44692993164062
 30
0.0
 70
0
  0
VERTEX
  5
1EE
  8
BODY_OUTLINE
 10
16.931434631347656
 20
89.46387481689453
 30
0.0
 70
0
  0
VERTEX
  5
1EF
  8
BODY_OUTLINE
 10
17.426536560058594
 20
88.9687728881836
 30
0.0
 70
0
  0
VERTEX
  5
1F0
  8
BODY_OUTLINE
 10
17.426536560058594
 20
87.73101806640625
 30
0.0
 70
0
  0
VERTEX
  5
1F1
  8
BODY_OUTLINE
 10
18.664291381835938
 20
86.4932632446289
 30
0.0
 70
0
  0
VERTEX
  5
1F2
  8
BODY_OUTLINE
 10
18.911842346191406
 20
84.51285552978516
 30
0.0
 70
0
  0
VERTEX
  5
1F3
  8
BODY_OUTLINE
 10
19.90204620361328
 20
82.77999877929688
 30
0.0
 70
0
  0
VERTEX
  5
1F4
  8
BODY_OUTLINE
 10
19.90204620361328
 20
76.34366607666016
 30
0.0
 70
0
  0
VERTEX
  5
1F5
  8
BODY_OUTLINE
 10
20.644699096679688
 20
75.35346221923828
 30
0.0
 70
0
  0
VERTEX
  5
1F6
  8
BODY_OUTLINE
 10
20.892250061035156
 20
73.12550354003906
 30
0.0
 70
0
  0
VERTEX
  5
1F7
  8
BODY_OUTLINE
 10
26.33837127685547
 20
67.43183135986328
 30
0.0
 70
0
  0
VERTEX
  5
1F8
  8
BODY_OUTLINE
 10
26.33837127685547
 20
64.46121978759766
 30
0.0
 70
0
  0
VERTEX
  5
1F9
  8
BODY_OUTLINE
 10
45.39979553222656
 20
45.39978790283203
 30
0.0
 70
0
  0
VERTEX
  5
1FA
  8
BODY_OUTLINE
 10
48.12286376953125
 20
44.657135009765625
 30
0.0
 70
0
  0
VERTEX
  5
1FB
  8
BODY_OUTLINE
 10
53.32143020629883
 20
44.657135009765625
 30
0.0
 70
0
  0
VERTEX
  5
1FC
  8
BODY_OUTLINE
 10
55.05428695678711
 20
43.41938018798828
 30
0.0
 70
0
  0
VERTEX
  5
1FD
  8
BODY_OUTLINE
 10
55.05428695678711
 20
10.495101928710938
 30
0.0
 70
0
  0
VERTEX
  5
1FE
  8
BODY_OUTLINE
 10
55.796939849853516
 20
10.0
 30
0.0
 70
0
  0
VERTEX
  5
1FF
  8
BODY_OUTLINE
 10
66.44163513183594
 20
10.0
 30
0.0
 70
0
  0
VERTEX
  5
200
  8
BODY_OUTLINE
 10
106.04979705810547
 20
30.546737670898438
 30
0.0
 70
0
  0
VERTEX
  5
201
  8
BODY_OUTLINE
 10
126.5965347290039
 20
30.546737670898438
 30
0.0
 70
0
  0
VERTEX
  5
202
  8
BODY_OUTLINE
 10
130.30979919433594
 20
31.78448486328125
 30
0.0
 70
0
  0
VERTEX
  5
203
  8
BODY_OUTLINE
 10
132.04266357421875
 20
32.774688720703125
 30
0.0
 70
0
  0
VERTEX
  5
204
  8
BODY_OUTLINE
 10
134.76571655273438
 20
35.49775695800781
 30
0.0
 70
0
  0
VERTEX
  5
205
  8
BODY_OUTLINE
 10
167.93756103515625
 20
54.559181213378906
 30
0.0
 70
0
  0
VERTEX
  5
206
  8
BODY_OUTLINE
 10
173.3836669921875
 20
54.806732177734375
 30
0.0
 70
0
  0
VERTEX
  5
207
  8
BODY_OUTLINE
 10
173.6312255859375
 20
57.28224182128906
 30
0.0
 70
0
  0
VERTEX
  5
208
  8
BODY_OUTLINE
 10
177.09693908691406
 20
57.28224182128906
 30
0.0
 70
0
  0
VERTEX
  5
209
  8
BODY_OUTLINE
 10
177.09693908691406
 20
58.519996643066406
 30
0.0
 70
0
  0
VERTEX
  5
20A
  8
BODY_OUTLINE
 10
178.33470153808594
 20
58.767547607421875
 30
0.0
 70
0
  0
VERTEX
  5
20B
  8
BODY_OUTLINE
 10
178.33470153808594
 20
60.00530242919922
 30
0.0
 70
0
  0
VERTEX
  5
20C
  8
BODY_OUTLINE
 10
182.54306030273438
 20
62.975914001464844
 30
0.0
 70
0
  0
VERTEX
  5
20D
  8
BODY_OUTLINE
 10
195.41571044921875
 20
62.975914001464844
 30
0.0
 70
0
  0
VERTEX
  5
20E
  8
BODY_OUTLINE
 10
197.3961181640625
 20
64.46121978759766
 30
0.0
 70
0
  0
VERTEX
  5
20F
  8
BODY_OUTLINE
 10
199.1289825439453
 20
65.20387268066406
 30
0.0
 70
0
  0
VERTEX
  5
210
  8
BODY_OUTLINE
 10
212.24917602539062
 20
78.3240737915039
 30
0.0
 70
0
  0
VERTEX
  5
211
  8
BODY_OUTLINE
 10
219.1806182861328
 20
86.24571228027344
 30
0.0
 70
0
  0
VERTEX
  5
212
  8
BODY_OUTLINE
 10
219.67572021484375
 20
87.73101806640625
 30
0.0
 70
0
  0
VERTEX
  5
213
  8
BODY_OUTLINE
 10
219.92327880859375
 20
110.50570678710938
 30
0.0
 70
0
  0
VERTEX
  5
214
  8
BODY_OUTLINE
 10
220.41836547851562
 20
118.42733764648438
 30
0.0
 70
0
  0
VERTEX
  5
215
  8
BODY_OUTLINE
 10
220.41836547851562
 20
210.51632690429688
 30
0.0
 70
0
  0
VERTEX
  5
216
  8
BODY_OUTLINE
 10
219.92327880859375
 20
211.50653076171875
 30
0.0
 70
0
  0
VERTEX
  5
217
  8
BODY_OUTLINE
 10
219.92327880859375
 20
215.7148895263672
 30
0.0
 70
0
  0
VERTEX
  5
218
  8
BODY_OUTLINE
 10
216.70510864257812
 20
219.6757049560547
 30
0.0
 70
0
  0
VERTEX
  5
219
  8
BODY_OUTLINE
 10
216.70510864257812
 20
226.8546905517578
 30
0.0
 70
0
  0
VERTEX
  5
21A
  8
BODY_OUTLINE
 10
216.20999145507812
 20
227.34979248046875
 30
0.0
 70
0
  0
VERTEX
  5
21B
  8
BODY_OUTLINE
 10
216.20999145507812
 20
229.5777587890625
 30
0.0
 70
0
  0
VERTEX
  5
21C
  8
BODY_OUTLINE
 10
214.72470092773438
 20
231.31060791015625
 30
0.0
 70
0
  0
VERTEX
  5
21D
  8
BODY_OUTLINE
 10
214.72470092773438
 20
238.7371368408203
 30
0.0
 70
0
  0
VERTEX
  5
21E
  8
BODY_OUTLINE
 10
213.7344970703125
 20
239.7273406982422
 30
0.0
 70
0
  0
VERTEX
  5
21F
  8
BODY_OUTLINE
 10
213.4869384765625
 20
241.460205078125
 30
0.0
 70
0
  0
VERTEX
  5
220
  8
BODY_OUTLINE
 10
212.49673461914062
 20
242.94549560546875
 30
0.0
 70
0
  0
VERTEX
  5
221
  8
BODY_OUTLINE
 10
210.51632690429688
 20
244.9259033203125
 30
0.0
 70
0
  0
VERTEX
  5
222
  8
BODY_OUTLINE
 10
210.51632690429688
 20
246.6587677001953
 30
0.0
 70
0
  0
VERTEX
  5
223
  8
BODY_OUTLINE
 10
209.526123046875
 20
247.6489715576172
 30
0.0
 70
0
  0
VERTEX
  5
224
  8
BODY_OUTLINE
 10
209.526123046875
 20
250.61959838867188
 30
0.0
 70
0
  0
VERTEX
  5
225
  8
BODY_OUTLINE
 10
207.79327392578125
 20
254.08529663085938
 30
0.0
 70
0
  0
VERTEX
  5
226
  8
BODY_OUTLINE
 10
201.85205078125
 20
260.0265197753906
 30
0.0
 70
0
  0
VERTEX
  5
227
  8
BODY_OUTLINE
 10
201.85205078125
 20
261.0167236328125
 30
0.0
 70
0
  0
VERTEX
  5
228
  8
BODY_OUTLINE
 10
196.40591430664062
 20
266.4628601074219
 30
0.0
 70
0
  0
VERTEX
  5
229
  8
BODY_OUTLINE
 10
195.91082763671875
 20
268.6907958984375
 30
0.0
 70
0
  0
VERTEX
  5
22A
  8
BODY_OUTLINE
 10
171.1557159423828
 20
293.4459228515625
 30
0.0
 70
0
  0
VERTEX
  5
22B
  8
BODY_OUTLINE
 10
171.1557159423828
 20
296.41650390625
 30
0.0
 70
0
  0
VERTEX
  5
22C
  8
BODY_OUTLINE
 10
169.17530822753906
 20
298.39691162109375
 30
0.0
 70
0
  0
VERTEX
  5
22D
  8
BODY_OUTLINE
 10
168.43264770507812
 20
301.8626708984375
 30
0.0
 70
0
  0
SEQEND
  5
1BE
  8
BODY_OUTLINE
  0
POLYLINE
  5
22F
  8
BRIDGE_ROUTE
 66
1
 10
0.0
 20
0.0
 30
0.0
 70
1
  0
VERTEX
  5
231
  8
BRIDGE_ROUTE
 10
136.4985809326172
 20
101.34632110595703
 30
0.0
 70
0
  0
VERTEX
  5
232
  8
BRIDGE_ROUTE
 10
136.2510223388672
 20
92.43448638916016
 30
0.0
 70
0
  0
VERTEX
  5
233
  8
BRIDGE_ROUTE
 10
134.27061462402344
 20
92.43448638916016
 30
0.0
 70
0
  0
VERTEX
  5
234
  8
BRIDGE_ROUTE
 10
132.78530883789062
 20
93.91979217529297
 30
0.0
 70
0
  0
VERTEX
  5
235
  8
BRIDGE_ROUTE
 10
105.80224609375
 20
93.91979217529297
 30
0.0
 70
0
  0
VERTEX
  5
236
  8
BRIDGE_ROUTE
 10
105.0595932006836
 20
94.4148941040039
 30
0.0
 70
0
  0
VERTEX
  5
237
  8
BRIDGE_ROUTE
 10
105.30714416503906
 20
99.61346435546875
 30
0.0
 70
0
  0
VERTEX
  5
238
  8
BRIDGE_ROUTE
 10
132.04266357421875
 20
99.61346435546875
 30
0.0
 70
0
  0
VERTEX
  5
239
  8
BRIDGE_ROUTE
 10
133.28041076660156
 20
100.10856628417969
 30
0.0
 70
0
  0
VERTEX
  5
23A
  8
BRIDGE_ROUTE
 10
134.27061462402344
 20
101.5938720703125
 30
0.0
 70
0
  0
SEQEND
  5
230
  8
BRIDGE_ROUTE
  0
POLYLINE
  5
23C
  8
PICKUP_ROUTE
 66
1
 10
0.0
 20
0.0
 30
0.0
 70
1
  0
VERTEX
  5
23E
  8
PICKUP_ROUTE
 10
150.36143493652344
 20
123.13081359863281
 30
0.0
 70
0
  0
VERTEX
  5
23F
  8
PICKUP_ROUTE
 10
150.85653686523438
 20
120.16020202636719
 30
0.0
 70
0
  0
VERTEX
  5
240
  8
PICKUP_ROUTE
 10
151.84674072265625
 20
119.41754150390625
 30
0.0
 70
0
  0
VERTEX
  5
241
  8
PICKUP_ROUTE
 10
151.84674072265625
 20
118.92243957519531
 30
0.0
 70
0
  0
VERTEX
  5
242
  8
PICKUP_ROUTE
 10
154.81735229492188
 20
119.16999816894531
 30
0.0
 70
0
  0
VERTEX
  5
243
  8
PICKUP_ROUTE
 10
168.1851043701172
 20
94.66244506835938
 30
0.0
 70
0
  0
VERTEX
  5
244
  8
PICKUP_ROUTE
 10
168.1851043701172
 20
92.68203735351562
 30
0.0
 70
0
  0
VERTEX
  5
245
  8
PICKUP_ROUTE
 10
166.20469665527344
 20
92.43448638916016
 30
0.0
 70
0
  0
VERTEX
  5
246
  8
PICKUP_ROUTE
 10
165.4620361328125
 20
91.44428253173828
 30
0.0
 70
0
  0
VERTEX
  5
247
  8
PICKUP_ROUTE
 10
166.94735717773438
 20
88.9687728881836
 30
0.0
 70
0
  0
VERTEX
  5
248
  8
PICKUP_ROUTE
 10
169.17530822753906
 20
88.72122192382812
 30
0.0
 70
0
  0
VERTEX
  5
249
  8
PICKUP_ROUTE
 10
167.69000244140625
 20
68.17448425292969
 30
0.0
 70
0
  0
VERTEX
  5
24A
  8
PICKUP_ROUTE
 10
165.4620361328125
 20
67.92693328857422
 30
0.0
 70
0
  0
VERTEX
  5
24B
  8
PICKUP_ROUTE
 10
165.21449279785156
 20
68.66958618164062
 30
0.0
 70
0
  0
VERTEX
  5
24C
  8
PICKUP_ROUTE
 10
164.71939086914062
 20
68.66958618164062
 30
0.0
 70
0
  0
VERTEX
  5
24D
  8
PICKUP_ROUTE
 10
164.2242889404297
 20
67.43183135986328
 30
0.0
 70
0
  0
VERTEX
  5
24E
  8
PICKUP_ROUTE
 10
165.21449279785156
 20
66.93672943115234
 30
0.0
 70
0
  0
VERTEX
  5
24F
  8
PICKUP_ROUTE
 10
164.96694946289062
 20
64.46121978759766
 30
0.0
 70
0
  0
VERTEX
  5
250
  8
PICKUP_ROUTE
 10
156.55020141601562
 20
60.747955322265625
 30
0.0
 70
0
  0
VERTEX
  5
251
  8
PICKUP_ROUTE
 10
154.32225036621094
 20
60.747955322265625
 30
0.0
 70
0
  0
VERTEX
  5
252
  8
PICKUP_ROUTE
 10
153.08448791503906
 20
62.23326110839844
 30
0.0
 70
0
  0
VERTEX
  5
253
  8
PICKUP_ROUTE
 10
152.83694458007812
 20
63.71856689453125
 30
0.0
 70
0
  0
VERTEX
  5
254
  8
PICKUP_ROUTE
 10
151.84674072265625
 20
63.47101593017578
 30
0.0
 70
0
  0
VERTEX
  5
255
  8
PICKUP_ROUTE
 10
151.3516387939453
 20
62.728363037109375
 30
0.0
 70
0
  0
VERTEX
  5
256
  8
PICKUP_ROUTE
 10
152.3418426513672
 20
61.24305725097656
 30
0.0
 70
0
  0
VERTEX
  5
257
  8
PICKUP_ROUTE
 10
152.0942840576172
 20
58.767547607421875
 30
0.0
 70
0
  0
VERTEX
  5
258
  8
PICKUP_ROUTE
 10
143.4300079345703
 20
54.806732177734375
 30
0.0
 70
0
  0
VERTEX
  5
259
  8
PICKUP_ROUTE
 10
141.20204162597656
 20
54.806732177734375
 30
0.0
 70
0
  0
VERTEX
  5
25A
  8
PICKUP_ROUTE
 10
139.2216339111328
 20
56.539588928222656
 30
0.0
 70
0
  0
VERTEX
  5
25B
  8
PICKUP_ROUTE
 10
136.99368286132812
 20
56.787139892578125
 30
0.0
 70
0
  0
VERTEX
  5
25C
  8
PICKUP_ROUTE
 10
137.24122619628906
 20
94.16734313964844
 30
0.0
 70
0
  0
VERTEX
  5
25D
  8
PICKUP_ROUTE
 10
137.736328125
 20
94.90999603271484
 30
0.0
 70
0
  0
VERTEX
  5
25E
  8
PICKUP_ROUTE
 10
139.71673583984375
 20
94.90999603271484
 30
0.0
 70
0
  0
VERTEX
  5
25F
  8
PICKUP_ROUTE
 10
140.4593963623047
 20
92.18693542480469
 30
0.0
 70
0
  0
VERTEX
  5
260
  8
PICKUP_ROUTE
 10
143.4300079345703
 20
89.71142578125
 30
0.0
 70
0
  0
VERTEX
  5
261
  8
PICKUP_ROUTE
 10
144.91531372070312
 20
89.46387481689453
 30
0.0
 70
0
  0
VERTEX
  5
262
  8
PICKUP_ROUTE
 10
145.16285705566406
 20
89.95897674560547
 30
0.0
 70
0
  0
VERTEX
  5
263
  8
PICKUP_ROUTE
 10
146.89572143554688
 20
90.4540786743164
 30
0.0
 70
0
  0
VERTEX
  5
264
  8
PICKUP_ROUTE
 10
148.87612915039062
 20
92.43448638916016
 30
0.0
 70
0
  0
VERTEX
  5
265
  8
PICKUP_ROUTE
 10
149.37123107910156
 20
93.6722412109375
 30
0.0
 70
0
  0
VERTEX
  5
266
  8
PICKUP_ROUTE
 10
149.37123107910156
 20
95.65264892578125
 30
0.0
 70
0
  0
VERTEX
  5
267
  8
PICKUP_ROUTE
 10
147.63836669921875
 20
98.87081146240234
 30
0.0
 70
0
  0
VERTEX
  5
268
  8
PICKUP_ROUTE
 10
145.657958984375
 20
99.11836242675781
 30
0.0
 70
0
  0
VERTEX
  5
269
  8
PICKUP_ROUTE
 10
144.91531372070312
 20
99.86101531982422
 30
0.0
 70
0
  0
VERTEX
  5
26A
  8
PICKUP_ROUTE
 10
144.66775512695312
 20
99.36591339111328
 30
0.0
 70
0
  0
VERTEX
  5
26B
  8
PICKUP_ROUTE
 10
141.9447021484375
 20
99.36591339111328
 30
0.0
 70
0
  0
VERTEX
  5
26C
  8
PICKUP_ROUTE
 10
141.9447021484375
 20
98.62326049804688
 30
0.0
 70
0
  0
VERTEX
  5
26D
  8
PICKUP_ROUTE
 10
140.4593963623047
 20
97.38550567626953
 30
0.0
 70
0
  0
VERTEX
  5
26E
  8
PICKUP_ROUTE
 10
139.71673583984375
 20
95.15754699707031
 30
0.0
 70
0
  0
VERTEX
  5
26F
  8
PICKUP_ROUTE
 10
137.48878479003906
 20
95.40509796142578
 30
0.0
 70
0
  0
VERTEX
  5
270
  8
PICKUP_ROUTE
 10
137.48878479003906
 20
117.6846923828125
 30
0.0
 70
0
  0
VERTEX
  5
271
  8
PICKUP_ROUTE
 10
139.71673583984375
 20
117.93223571777344
 30
0.0
 70
0
  0
VERTEX
  5
272
  8
PICKUP_ROUTE
 10
140.70693969726562
 20
116.69448852539062
 30
0.0
 70
0
  0
VERTEX
  5
273
  8
PICKUP_ROUTE
 10
140.70693969726562
 20
117.18959045410156
 30
0.0
 70
0
  0
VERTEX
  5
274
  8
PICKUP_ROUTE
 10
141.44960021972656
 20
117.4371337890625
 30
0.0
 70
0
  0
VERTEX
  5
275
  8
PICKUP_ROUTE
 10
140.4593963623047
 20
118.67489624023438
 30
0.0
 70
0
  0
VERTEX
  5
276
  8
PICKUP_ROUTE
 10
140.4593963623047
 20
121.15040588378906
 30
0.0
 70
0
  0
VERTEX
  5
277
  8
PICKUP_ROUTE
 10
141.20204162597656
 20
121.6455078125
 30
0.0
 70
0
  0
VERTEX
  5
278
  8
PICKUP_ROUTE
 10
148.1334686279297
 20
123.13081359863281
 30
0.0
 70
0
  0
SEQEND
  5
23D
  8
PICKUP_ROUTE
  0
POLYLINE
  5
27A
  8
NECK_POCKET
 66
1
 10
0.0
 20
0.0
 30
0.0
 70
1
  0
VERTEX
  5
27C
  8
NECK_POCKET
 10
103.82183837890625
 20
295.67388916015625
 30
0.0
 70
0
  0
VERTEX
  5
27D
  8
NECK_POCKET
 10
103.32673645019531
 20
295.17877197265625
 30
0.0
 70
0
  0
VERTEX
  5
27E
  8
NECK_POCKET
 10
102.83163452148438
 20
186.7514190673828
 30
0.0
 70
0
  0
VERTEX
  5
27F
  8
NECK_POCKET
 10
99.86102294921875
 20
186.50387573242188
 30
0.0
 70
0
  0
VERTEX
  5
280
  8
NECK_POCKET
 10
94.6624526977539
 20
187.9891815185547
 30
0.0
 70
0
  0
VERTEX
  5
281
  8
NECK_POCKET
 10
90.94918823242188
 20
188.48428344726562
 30
0.0
 70
0
  0
VERTEX
  5
282
  8
NECK_POCKET
 10
92.68204498291016
 20
187.7416229248047
 30
0.0
 70
0
  0
VERTEX
  5
283
  8
NECK_POCKET
 10
98.37571716308594
 20
186.9989776611328
 30
0.0
 70
0
  0
VERTEX
  5
284
  8
NECK_POCKET
 10
99.11837005615234
 20
186.25631713867188
 30
0.0
 70
0
  0
VERTEX
  5
285
  8
NECK_POCKET
 10
102.33653259277344
 20
185.76121520996094
 30
0.0
 70
0
  0
VERTEX
  5
286
  8
NECK_POCKET
 10
102.83163452148438
 20
185.01856994628906
 30
0.0
 70
0
  0
VERTEX
  5
287
  8
NECK_POCKET
 10
102.5840835571289
 20
159.0257110595703
 30
0.0
 70
0
  0
VERTEX
  5
288
  8
NECK_POCKET
 10
99.86102294921875
 20
158.53060913085938
 30
0.0
 70
0
  0
VERTEX
  5
289
  8
NECK_POCKET
 10
98.37571716308594
 20
157.04530334472656
 30
0.0
 70
0
  0
VERTEX
  5
28A
  8
NECK_POCKET
 10
97.880615234375
 20
147.39080810546875
 30
0.0
 70
0
  0
VERTEX
  5
28B
  8
NECK_POCKET
 10
95.65265655517578
 20
147.63836669921875
 30
0.0
 70
0
  0
VERTEX
  5
28C
  8
NECK_POCKET
 10
95.40510559082031
 20
156.55020141601562
 30
0.0
 70
0
  0
VERTEX
  5
28D
  8
NECK_POCKET
 10
94.41490173339844
 20
164.2242889404297
 30
0.0
 70
0
  0
VERTEX
  5
28E
  8
NECK_POCKET
 10
95.40510559082031
 20
140.95448303222656
 30
0.0
 70
0
  0
VERTEX
  5
28F
  8
NECK_POCKET
 10
95.40510559082031
 20
144.91529846191406
 30
0.0
 70
0
  0
VERTEX
  5
290
  8
NECK_POCKET
 10
97.880615234375
 20
145.16285705566406
 30
0.0
 70
0
  0
VERTEX
  5
291
  8
NECK_POCKET
 10
98.37571716308594
 20
142.19224548339844
 30
0.0
 70
0
  0
VERTEX
  5
292
  8
NECK_POCKET
 10
99.61347198486328
 20
140.70693969726562
 30
0.0
 70
0
  0
VERTEX
  5
293
  8
NECK_POCKET
 10
104.81204223632812
 20
140.2118377685547
 30
0.0
 70
0
  0
VERTEX
  5
294
  8
NECK_POCKET
 10
104.81204223632812
 20
136.2510223388672
 30
0.0
 70
0
  0
VERTEX
  5
295
  8
NECK_POCKET
 10
105.55469512939453
 20
140.45938110351562
 30
0.0
 70
0
  0
VERTEX
  5
296
  8
NECK_POCKET
 10
108.27775573730469
 20
140.45938110351562
 30
0.0
 70
0
  0
VERTEX
  5
297
  8
NECK_POCKET
 10
108.52530670166016
 20
139.9642791748047
 30
0.0
 70
0
  0
VERTEX
  5
298
  8
NECK_POCKET
 10
108.77285766601562
 20
140.45938110351562
 30
0.0
 70
0
  0
VERTEX
  5
299
  8
NECK_POCKET
 10
131.79510498046875
 20
140.45938110351562
 30
0.0
 70
0
  0
VERTEX
  5
29A
  8
NECK_POCKET
 10
133.28041076660156
 20
141.4495849609375
 30
0.0
 70
0
  0
VERTEX
  5
29B
  8
NECK_POCKET
 10
134.0230712890625
 20
143.42999267578125
 30
0.0
 70
0
  0
VERTEX
  5
29C
  8
NECK_POCKET
 10
136.00347900390625
 20
143.42999267578125
 30
0.0
 70
0
  0
VERTEX
  5
29D
  8
NECK_POCKET
 10
136.4985809326172
 20
131.29998779296875
 30
0.0
 70
0
  0
VERTEX
  5
29E
  8
NECK_POCKET
 10
137.24122619628906
 20
132.29019165039062
 30
0.0
 70
0
  0
VERTEX
  5
29F
  8
NECK_POCKET
 10
136.99368286132812
 20
147.8859100341797
 30
0.0
 70
0
  0
VERTEX
  5
2A0
  8
NECK_POCKET
 10
137.48878479003906
 20
149.12367248535156
 30
0.0
 70
0
  0
VERTEX
  5
2A1
  8
NECK_POCKET
 10
140.4593963623047
 20
151.35162353515625
 30
0.0
 70
0
  0
VERTEX
  5
2A2
  8
NECK_POCKET
 10
145.905517578125
 20
153.33203125
 30
0.0
 70
0
  0
VERTEX
  5
2A3
  8
NECK_POCKET
 10
148.62857055664062
 20
153.33203125
 30
0.0
 70
0
  0
VERTEX
  5
2A4
  8
NECK_POCKET
 10
149.6187744140625
 20
151.35162353515625
 30
0.0
 70
0
  0
VERTEX
  5
2A5
  8
NECK_POCKET
 10
149.6187744140625
 20
148.38101196289062
 30
0.0
 70
0
  0
VERTEX
  5
2A6
  8
NECK_POCKET
 10
148.62857055664062
 20
145.410400390625
 30
0.0
 70
0
  0
VERTEX
  5
2A7
  8
NECK_POCKET
 10
148.62857055664062
 20
143.67755126953125
 30
0.0
 70
0
  0
VERTEX
  5
2A8
  8
NECK_POCKET
 10
147.3908233642578
 20
141.4495849609375
 30
0.0
 70
0
  0
VERTEX
  5
2A9
  8
NECK_POCKET
 10
146.15306091308594
 20
135.0132598876953
 30
0.0
 70
0
  0
VERTEX
  5
2AA
  8
NECK_POCKET
 10
145.16285705566406
 20
132.29019165039062
 30
0.0
 70
0
  0
VERTEX
  5
2AB
  8
NECK_POCKET
 10
146.64816284179688
 20
134.27059936523438
 30
0.0
 70
0
  0
VERTEX
  5
2AC
  8
NECK_POCKET
 10
146.89572143554688
 20
136.74612426757812
 30
0.0
 70
0
  0
VERTEX
  5
2AD
  8
NECK_POCKET
 10
147.88592529296875
 20
139.46917724609375
 30
0.0
 70
0
  0
VERTEX
  5
2AE
  8
NECK_POCKET
 10
147.88592529296875
 20
141.4495849609375
 30
0.0
 70
0
  0
VERTEX
  5
2AF
  8
NECK_POCKET
 10
148.3810272216797
 20
142.9348907470703
 30
0.0
 70
0
  0
VERTEX
  5
2B0
  8
NECK_POCKET
 10
148.87612915039062
 20
143.1824493408203
 30
0.0
 70
0
  0
VERTEX
  5
2B1
  8
NECK_POCKET
 10
148.87612915039062
 20
144.91529846191406
 30
0.0
 70
0
  0
VERTEX
  5
2B2
  8
NECK_POCKET
 10
149.6187744140625
 20
145.657958984375
 30
0.0
 70
0
  0
VERTEX
  5
2B3
  8
NECK_POCKET
 10
152.0942840576172
 20
154.56979370117188
 30
0.0
 70
0
  0
VERTEX
  5
2B4
  8
NECK_POCKET
 10
152.0942840576172
 20
157.04530334472656
 30
0.0
 70
0
  0
VERTEX
  5
2B5
  8
NECK_POCKET
 10
151.3516387939453
 20
158.28305053710938
 30
0.0
 70
0
  0
VERTEX
  5
2B6
  8
NECK_POCKET
 10
150.11387634277344
 20
159.0257110595703
 30
0.0
 70
0
  0
VERTEX
  5
2B7
  8
NECK_POCKET
 10
147.88592529296875
 20
159.0257110595703
 30
0.0
 70
0
  0
VERTEX
  5
2B8
  8
NECK_POCKET
 10
138.23143005371094
 20
155.0648956298828
 30
0.0
 70
0
  0
VERTEX
  5
2B9
  8
NECK_POCKET
 10
137.24122619628906
 20
154.07469177246094
 30
0.0
 70
0
  0
VERTEX
  5
2BA
  8
NECK_POCKET
 10
136.2510223388672
 20
151.8467254638672
 30
0.0
 70
0
  0
VERTEX
  5
2BB
  8
NECK_POCKET
 10
134.27061462402344
 20
151.8467254638672
 30
0.0
 70
0
  0
VERTEX
  5
2BC
  8
NECK_POCKET
 10
133.7755126953125
 20
157.04530334472656
 30
0.0
 70
0
  0
VERTEX
  5
2BD
  8
NECK_POCKET
 10
131.79510498046875
 20
158.53060913085938
 30
0.0
 70
0
  0
VERTEX
  5
2BE
  8
NECK_POCKET
 10
128.3293914794922
 20
158.53060913085938
 30
0.0
 70
0
  0
VERTEX
  5
2BF
  8
NECK_POCKET
 10
127.83428955078125
 20
160.51101684570312
 30
0.0
 70
0
  0
VERTEX
  5
2C0
  8
NECK_POCKET
 10
128.0818328857422
 20
162.7389678955078
 30
0.0
 70
0
  0
VERTEX
  5
2C1
  8
NECK_POCKET
 10
131.05245971679688
 20
162.49142456054688
 30
0.0
 70
0
  0
VERTEX
  5
2C2
  8
NECK_POCKET
 10
128.82449340820312
 20
164.47183227539062
 30
0.0
 70
0
  0
VERTEX
  5
2C3
  8
NECK_POCKET
 10
128.0818328857422
 20
166.20469665527344
 30
0.0
 70
0
  0
VERTEX
  5
2C4
  8
NECK_POCKET
 10
128.0818328857422
 20
169.4228515625
 30
0.0
 70
0
  0
VERTEX
  5
2C5
  8
NECK_POCKET
 10
127.09163665771484
 20
175.36407470703125
 30
0.0
 70
0
  0
VERTEX
  5
2C6
  8
NECK_POCKET
 10
123.62592315673828
 20
280.5732421875
 30
0.0
 70
0
  0
VERTEX
  5
2C7
  8
NECK_POCKET
 10
123.13082122802734
 20
285.2767333984375
 30
0.0
 70
0
  0
VERTEX
  5
2C8
  8
NECK_POCKET
 10
123.13082122802734
 20
294.68365478515625
 30
0.0
 70
0
  0
VERTEX
  5
2C9
  8
NECK_POCKET
 10
122.14061737060547
 20
295.67388916015625
 30
0.0
 70
0
  0
VERTEX
  5
2CA
  8
NECK_POCKET
 10
117.68470001220703
 20
295.9214172363281
 30
0.0
 70
0
  0
SEQEND
  5
27B
  8
NECK_POCKET
  0
ENDSEC
  0
EOF
