  0
SECTION
  2
HEADER
  9
$ACADVER
  1
AC1015
  9
$ACADMAINTVER
 70
6
  9
$DWGCODEPAGE
  3
ANSI_1252
  9
$INSBASE
 10
0.0
 20
0.0
 30
0.0
  9
$EXTMIN
 10
1e+20
 20
1e+20
 30
1e+20
  9
$EXTMAX
 10
-1e+20
 20
-1e+20
 30
-1e+20
  9
$LIMMIN
 10
0.0
 20
0.0
  9
$LIMMAX
 10
420.0
 20
297.0
  9
$ORTHOMODE
 70
0
  9
$REGENMODE
 70
1
  9
$FILLMODE
 70
1
  9
$QTEXTMODE
 70
0
  9
$MIRRTEXT
 70
1
  9
$LTSCALE
 40
1.0
  9
$ATTMODE
 70
1
  9
$TEXTSIZE
 40
2.5
  9
$TRACEWID
 40
1.0
  9
$TEXTSTYLE
  7
Standard
  9
$CLAYER
  8
0
  9
$CELTYPE
  6
ByLayer
  9
$CECOLOR
 62
256
  9
$CELTSCALE
 40
1.0
  9
$DISPSILH
 70
0
  9
$DIMSCALE
 40
1.0
  9
$DIMASZ
 40
2.5
  9
$DIMEXO
 40
0.625
  9
$DIMDLI
 40
3.75
  9
$DIMRND
 40
0.0
  9
$DIMDLE
 40
0.0
  9
$DIMEXE
 40
1.25
  9
$DIMTP
 40
0.0
  9
$DIMTM
 40
0.0
  9
$DIMTXT
 40
2.5
  9
$DIMCEN
 40
2.5
  9
$DIMTSZ
 40
0.0
  9
$DIMTOL
 70
0
  9
$DIMLIM
 70
0
  9
$DIMTIH
 70
0
  9
$DIMTOH
 70
0
  9
$DIMSE1
 70
0
  9
$DIMSE2
 70
0
  9
$DIMTAD
 70
1
  9
$DIMZIN
 70
8
  9
$DIMBLK
  1

  9
$DIMASO
 70
1
  9
$DIMSHO
 70
1
  9
$DIMPOST
  1

  9
$DIMAPOST
  1

  9
$DIMALT
 70
0
  9
$DIMALTD
 70
3
  9
$DIMALTF
 40
0.03937007874
  9
$DIMLFAC
 40
1.0
  9
$DIMTOFL
 70
1
  9
$DIMTVP
 40
0.0
  9
$DIMTIX
 70
0
  9
$DIMSOXD
 70
0
  9
$DIMSAH
 70
0
  9
$DIMBLK1
  1

  9
$DIMBLK2
  1

  9
$DIMSTYLE
  2
ISO-25
  9
$DIMCLRD
 70
0
  9
$DIMCLRE
 70
0
  9
$DIMCLRT
 70
0
  9
$DIMTFAC
 40
1.0
  9
$DIMGAP
 40
0.625
  9
$DIMJUST
 70
0
  9
$DIMSD1
 70
0
  9
$DIMSD2
 70
0
  9
$DIMTOLJ
 70
0
  9
$DIMTZIN
 70
8
  9
$DIMALTZ
 70
0
  9
$DIMALTTZ
 70
0
  9
$DIMUPT
 70
0
  9
$DIMDEC
 70
2
  9
$DIMTDEC
 70
2
  9
$DIMALTU
 70
2
  9
$DIMALTTD
 70
3
  9
$DIMTXSTY
  7
Standard
  9
$DIMAUNIT
 70
0
  9
$DIMADEC
 70
0
  9
$DIMALTRND
 40
0.0
  9
$DIMAZIN
 70
0
  9
$DIMDSEP
 70
44
  9
$DIMATFIT
 70
3
  9
$DIMFRAC
 70
0
  9
$DIMLDRBLK
  1

  9
$DIMLUNIT
 70
2
  9
$DIMLWD
 70
-2
  9
$DIMLWE
 70
-2
  9
$DIMTMOVE
 70
0
  9
$LUNITS
 70
2
  9
$LUPREC
 70
4
  9
$SKETCHINC
 40
1.0
  9
$FILLETRAD
 40
10.0
  9
$AUNITS
 70
0
  9
$AUPREC
 70
2
  9
$MENU
  1
.
  9
$ELEVATION
 40
0.0
  9
$PELEVATION
 40
0.0
  9
$THICKNESS
 40
0.0
  9
$LIMCHECK
 70
0
  9
$CHAMFERA
 40
0.0
  9
$CHAMFERB
 40
0.0
  9
$CHAMFERC
 40
0.0
  9
$CHAMFERD
 40
0.0
  9
$SKPOLY
 70
0
  9
$TDCREATE
 40
2461125.613715278
  9
$TDUCREATE
 40
2458532.153996898
  9
$TDUPDATE
 40
2461125.613715278
  9
$TDUUPDATE
 40
2458532.1544311
  9
$TDINDWG
 40
0.0
  9
$TDUSRTIMER
 40
0.0
  9
$USRTIMER
 70
1
  9
$ANGBASE
 50
0.0
  9
$ANGDIR
 70
0
  9
$PDMODE
 70
0
  9
$PDSIZE
 40
0.0
  9
$PLINEWID
 40
0.0
  9
$SPLFRAME
 70
0
  9
$SPLINETYPE
 70
6
  9
$SPLINESEGS
 70
8
  9
$HANDSEED
  5
5F
  9
$SURFTAB1
 70
6
  9
$SURFTAB2
 70
6
  9
$SURFTYPE
 70
6
  9
$SURFU
 70
6
  9
$SURFV
 70
6
  9
$UCSBASE
  2

  9
$UCSNAME
  2

  9
$UCSORG
 10
0.0
 20
0.0
 30
0.0
  9
$UCSXDIR
 10
1.0
 20
0.0
 30
0.0
  9
$UCSYDIR
 10
0.0
 20
1.0
 30
0.0
  9
$UCSORTHOREF
  2

  9
$UCSORTHOVIEW
 70
0
  9
$UCSORGTOP
 10
0.0
 20
0.0
 30
0.0
  9
$UCSORGBOTTOM
 10
0.0
 20
0.0
 30
0.0
  9
$UCSORGLEFT
 10
0.0
 20
0.0
 30
0.0
  9
$UCSORGRIGHT
 10
0.0
 20
0.0
 30
0.0
  9
$UCSORGFRONT
 10
0.0
 20
0.0
 30
0.0
  9
$UCSORGBACK
 10
0.0
 20
0.0
 30
0.0
  9
$PUCSBASE
  2

  9
$PUCSNAME
  2

  9
$PUCSORG
 10
0.0
 20
0.0
 30
0.0
  9
$PUCSXDIR
 10
1.0
 20
0.0
 30
0.0
  9
$PUCSYDIR
 10
0.0
 20
1.0
 30
0.0
  9
$PUCSORTHOREF
  2

  9
$PUCSORTHOVIEW
 70
0
  9
$PUCSORGTOP
 10
0.0
 20
0.0
 30
0.0
  9
$PUCSORGBOTTOM
 10
0.0
 20
0.0
 30
0.0
  9
$PUCSORGLEFT
 10
0.0
 20
0.0
 30
0.0
  9
$PUCSORGRIGHT
 10
0.0
 20
0.0
 30
0.0
  9
$PUCSORGFRONT
 10
0.0
 20
0.0
 30
0.0
  9
$PUCSORGBACK
 10
0.0
 20
0.0
 30
0.0
  9
$USERI1
 70
0
  9
$USERI2
 70
0
  9
$USERI3
 70
0
  9
$USERI4
 70
0
  9
$USERI5
 70
0
  9
$USERR1
 40
0.0
  9
$USERR2
 40
0.0
  9
$USERR3
 40
0.0
  9
$USERR4
 40
0.0
  9
$USERR5
 40
0.0
  9
$WORLDVIEW
 70
1
  9
$SHADEDGE
 70
3
  9
$SHADEDIF
 70
70
  9
$TILEMODE
 70
1
  9
$MAXACTVP
 70
64
  9
$PINSBASE
 10
0.0
 20
0.0
 30
0.0
  9
$PLIMCHECK
 70
0
  9
$PEXTMIN
 10
1e+20
 20
1e+20
 30
1e+20
  9
$PEXTMAX
 10
-1e+20
 20
-1e+20
 30
-1e+20
  9
$PLIMMIN
 10
0.0
 20
0.0
  9
$PLIMMAX
 10
420.0
 20
297.0
  9
$UNITMODE
 70
0
  9
$VISRETAIN
 70
1
  9
$PLINEGEN
 70
0
  9
$PSLTSCALE
 70
1
  9
$TREEDEPTH
 70
3020
  9
$CMLSTYLE
  2
Standard
  9
$CMLJUST
 70
0
  9
$CMLSCALE
 40
20.0
  9
$PROXYGRAPHICS
 70
1
  9
$MEASUREMENT
 70
1
  9
$CELWEIGHT
370
-1
  9
$ENDCAPS
280
0
  9
$JOINSTYLE
280
0
  9
$LWDISPLAY
290
0
  9
$INSUNITS
 70
4
  9
$HYPERLINKBASE
  1

  9
$STYLESHEET
  1

  9
$XEDIT
290
1
  9
$CEPSNTYPE
380
0
  9
$PSTYLEMODE
290
1
  9
$FINGERPRINTGUID
  2
{8CE9AC43-F350-45DC-8E3D-59F443AE42A2}
  9
$VERSIONGUID
  2
{446E1AEF-906D-49B2-85E9-C2DF3CEEE4E0}
  9
$EXTNAMES
290
1
  9
$PSVPSCALE
 40
0.0
  9
$OLESTARTUP
290
0
  0
ENDSEC
  0
SECTION
  2
CLASSES
  0
CLASS
  1
ACDBDICTIONARYWDFLT
  2
AcDbDictionaryWithDefault
  3
ObjectDBX Classes
 90
0
280
0
281
0
  0
CLASS
  1
SUN
  2
AcDbSun
  3
SCENEOE
 90
1153
280
0
281
0
  0
CLASS
  1
VISUALSTYLE
  2
AcDbVisualStyle
  3
ObjectDBX Classes
 90
4095
280
0
281
0
  0
CLASS
  1
MATERIAL
  2
AcDbMaterial
  3
ObjectDBX Classes
 90
1153
280
0
281
0
  0
CLASS
  1
SCALE
  2
AcDbScale
  3
ObjectDBX Classes
 90
1153
280
0
281
0
  0
CLASS
  1
TABLESTYLE
  2
AcDbTableStyle
  3
ObjectDBX Classes
 90
4095
280
0
281
0
  0
CLASS
  1
MLEADERSTYLE
  2
AcDbMLeaderStyle
  3
ACDB_MLEADERSTYLE_CLASS
 90
4095
280
0
281
0
  0
CLASS
  1
DICTIONARYVAR
  2
AcDbDictionaryVar
  3
ObjectDBX Classes
 90
0
280
0
281
0
  0
CLASS
  1
CELLSTYLEMAP
  2
AcDbCellStyleMap
  3
ObjectDBX Classes
 90
1152
280
0
281
0
  0
CLASS
  1
MENTALRAYRENDERSETTINGS
  2
AcDbMentalRayRenderSettings
  3
SCENEOE
 90
1024
280
0
281
0
  0
CLASS
  1
ACDBDETAILVIEWSTYLE
  2
AcDbDetailViewStyle
  3
ObjectDBX Classes
 90
1025
280
0
281
0
  0
CLASS
  1
ACDBSECTIONVIEWSTYLE
  2
AcDbSectionViewStyle
  3
ObjectDBX Classes
 90
1025
280
0
281
0
  0
CLASS
  1
RASTERVARIABLES
  2
AcDbRasterVariables
  3
ISM
 90
0
280
0
281
0
  0
CLASS
  1
ACDBPLACEHOLDER
  2
AcDbPlaceHolder
  3
ObjectDBX Classes
 90
0
280
0
281
0
  0
CLASS
  1
LAYOUT
  2
AcDbLayout
  3
ObjectDBX Classes
 90
0
280
0
281
0
  0
ENDSEC
  0
SECTION
  2
TABLES
  0
TABLE
  2
VPORT
  5
8
330
0
100
AcDbSymbolTable
 70
1
  0
VPORT
  5
23
330
8
100
AcDbSymbolTableRecord
100
AcDbViewportTableRecord
  2
*Active
 70
0
 10
0.0
 20
0.0
 11
1.0
 21
1.0
 12
0.0
 22
0.0
 13
0.0
 23
0.0
 14
0.5
 24
0.5
 15
0.5
 25
0.5
 16
0.0
 26
0.0
 36
1.0
 17
0.0
 27
0.0
 37
0.0
 40
1000.0
 41
1.34
 42
50.0
 43
0.0
 44
0.0
 50
0.0
 51
0.0
 71
0
 72
1000
 73
1
 74
3
 75
0
 76
0
 77
0
 78
0
281
0
 65
0
146
0.0
  0
ENDTAB
  0
TABLE
  2
LTYPE
  5
2
330
0
100
AcDbSymbolTable
 70
3
  0
LTYPE
  5
24
330
2
100
AcDbSymbolTableRecord
100
AcDbLinetypeTableRecord
  2
ByBlock
 70
0
  3

 72
65
 73
0
 40
0.0
  0
LTYPE
  5
25
330
2
100
AcDbSymbolTableRecord
100
AcDbLinetypeTableRecord
  2
ByLayer
 70
0
  3

 72
65
 73
0
 40
0.0
  0
LTYPE
  5
26
330
2
100
AcDbSymbolTableRecord
100
AcDbLinetypeTableRecord
  2
Continuous
 70
0
  3

 72
65
 73
0
 40
0.0
  0
ENDTAB
  0
TABLE
  2
LAYER
  5
1
330
0
100
AcDbSymbolTable
 70
18
  0
LAYER
  5
27
330
1
100
AcDbSymbolTableRecord
100
AcDbLayerTableRecord
  2
0
 70
0
 62
7
  6
Continuous
370
-3
390
13
  0
LAYER
  5
28
330
1
100
AcDbSymbolTableRecord
100
AcDbLayerTableRecord
  2
Defpoints
 70
0
 62
7
  6
Continuous
290
0
370
-3
390
13
  0
LAYER
  5
2F
330
1
100
AcDbSymbolTableRecord
100
AcDbLayerTableRecord
  2
NECK_POCKET
 70
0
 62
1
  6
CONTINUOUS
370
-3
390
13
  0
LAYER
  5
30
330
1
100
AcDbSymbolTableRecord
100
AcDbLayerTableRecord
  2
PICKUP_NECK
 70
0
 62
3
  6
CONTINUOUS
370
-3
390
13
  0
LAYER
  5
31
330
1
100
AcDbSymbolTableRecord
100
AcDbLayerTableRecord
  2
PICKUP_BRIDGE
 70
0
 62
3
  6
CONTINUOUS
370
-3
390
13
  0
LAYER
  5
32
330
1
100
AcDbSymbolTableRecord
100
AcDbLayerTableRecord
  2
REAR_ELECTRONICS
 70
0
 62
5
  6
CONTINUOUS
370
-3
390
13
  0
LAYER
  5
33
330
1
100
AcDbSymbolTableRecord
100
AcDbLayerTableRecord
  2
ARDUINO_POCKET
 70
0
 62
4
  6
CONTINUOUS
370
-3
390
13
  0
LAYER
  5
34
330
1
100
AcDbSymbolTableRecord
100
AcDbLayerTableRecord
  2
ANTENNA_RECESS
 70
0
 62
6
  6
CONTINUOUS
370
-3
390
13
  0
LAYER
  5
35
330
1
100
AcDbSymbolTableRecord
100
AcDbLayerTableRecord
  2
WIRING_CHANNEL
 70
0
 62
8
  6
CONTINUOUS
370
-3
390
13
  0
LAYER
  5
36
330
1
100
AcDbSymbolTableRecord
100
AcDbLayerTableRecord
  2
BRIDGE_MOUNTING
 70
0
 62
2
  6
CONTINUOUS
370
-3
390
13
  0
LAYER
  5
37
330
1
100
AcDbSymbolTableRecord
100
AcDbLayerTableRecord
  2
CONTROL_PLATE
 70
0
 62
2
  6
CONTINUOUS
370
-3
390
13
  0
LAYER
  5
38
330
1
100
AcDbSymbolTableRecord
100
AcDbLayerTableRecord
  2
USB_PORT
 70
0
 62
30
  6
CONTINUOUS
370
-3
390
13
  0
LAYER
  5
39
330
1
100
AcDbSymbolTableRecord
100
AcDbLayerTableRecord
  2
OUTPUT_JACK
 70
0
 62
30
  6
CONTINUOUS
370
-3
390
13
  0
LAYER
  5
3A
330
1
100
AcDbSymbolTableRecord
100
AcDbLayerTableRecord
  2
BODY_OUTLINE
 70
0
 62
7
  6
CONTINUOUS
370
-3
390
13
  0
LAYER
  5
3B
330
1
100
AcDbSymbolTableRecord
100
AcDbLayerTableRecord
  2
CENTERLINE
 70
0
 62
9
  6
CONTINUOUS
370
-3
390
13
  0
LAYER
  5
3C
330
1
100
AcDbSymbolTableRecord
100
AcDbLayerTableRecord
  2
VOID_UPPER_BASS
 70
0
 62
40
  6
CONTINUOUS
370
-3
390
13
  0
LAYER
  5
3D
330
1
100
AcDbSymbolTableRecord
100
AcDbLayerTableRecord
  2
VOID_UPPER_TREBLE
 70
0
 62
50
  6
CONTINUOUS
370
-3
390
13
  0
LAYER
  5
3E
330
1
100
AcDbSymbolTableRecord
100
AcDbLayerTableRecord
  2
VOID_LOWER_BASS
 70
0
 62
60
  6
CONTINUOUS
370
-3
390
13
  0
ENDTAB
  0
TABLE
  2
STYLE
  5
5
330
0
100
AcDbSymbolTable
 70
1
  0
STYLE
  5
29
330
5
100
AcDbSymbolTableRecord
100
AcDbTextStyleTableRecord
  2
Standard
 70
0
 40
0.0
 41
1.0
 50
0.0
 71
0
 42
2.5
  3
txt
  4

  0
ENDTAB
  0
TABLE
  2
VIEW
  5
7
330
0
100
AcDbSymbolTable
 70
0
  0
ENDTAB
  0
TABLE
  2
UCS
  5
6
330
0
100
AcDbSymbolTable
 70
0
  0
ENDTAB
  0
TABLE
  2
APPID
  5
3
330
0
100
AcDbSymbolTable
 70
3
  0
APPID
  5
2A
330
3
100
AcDbSymbolTableRecord
100
AcDbRegAppTableRecord
  2
ACAD
 70
0
  0
APPID
  5
5C
330
3
100
AcDbSymbolTableRecord
100
AcDbRegAppTableRecord
  2
HATCHBACKGROUNDCOLOR
 70
0
  0
APPID
  5
5D
330
3
100
AcDbSymbolTableRecord
100
AcDbRegAppTableRecord
  2
EZDXF
 70
0
  0
ENDTAB
  0
TABLE
  2
DIMSTYLE
  5
4
330
0
100
AcDbSymbolTable
 70
1
100
AcDbDimStyleTable
  0
DIMSTYLE
105
2B
330
4
100
AcDbSymbolTableRecord
100
AcDbDimStyleTableRecord
  2
Standard
 70
0
  3

  4

 40
1.0
 41
2.5
 42
0.625
 43
3.75
 44
1.25
 45
0.0
 46
0.0
 47
0.0
 48
0.0
140
2.5
141
2.5
142
0.0
143
0.03937007874
144
1.0
145
0.0
146
1.0
147
0.625
148
0.0
 71
0
 72
0
 73
0
 74
0
 75
0
 76
0
 77
1
 78
8
 79
3
170
0
171
3
172
1
173
0
174
0
175
0
176
0
177
0
178
0
179
2
271
2
272
2
273
2
274
3
275
0
276
0
277
2
278
44
279
0
280
0
281
0
282
0
283
0
284
8
285
0
286
0
288
0
289
3
371
-2
372
-2
  0
ENDTAB
  0
TABLE
  2
BLOCK_RECORD
  5
9
330
0
100
AcDbSymbolTable
 70
2
  0
BLOCK_RECORD
  5
17
330
9
100
AcDbSymbolTableRecord
100
AcDbBlockTableRecord
  2
*Model_Space
340
1A
  0
BLOCK_RECORD
  5
1B
330
9
100
AcDbSymbolTableRecord
100
AcDbBlockTableRecord
  2
*Paper_Space
340
1E
  0
ENDTAB
  0
ENDSEC
  0
SECTION
  2
BLOCKS
  0
BLOCK
  5
18
330
17
100
AcDbEntity
  8
0
100
AcDbBlockBegin
  2
*Model_Space
 70
0
 10
0.0
 20
0.0
 30
0.0
  3
*Model_Space
  1

  0
ENDBLK
  5
19
330
17
100
AcDbEntity
  8
0
100
AcDbBlockEnd
  0
BLOCK
  5
1C
330
1B
100
AcDbEntity
  8
0
100
AcDbBlockBegin
  2
*Paper_Space
 70
0
 10
0.0
 20
0.0
 30
0.0
  3
*Paper_Space
  1

  0
ENDBLK
  5
1D
330
1B
100
AcDbEntity
  8
0
100
AcDbBlockEnd
  0
ENDSEC
  0
SECTION
  2
ENTITIES
  0
LWPOLYLINE
  5
3F
330
17
100
AcDbEntity
  8
BODY_OUTLINE
100
AcDbPolyline
 90
60
 70
1
 10
40.8
 20
35.35
 10
48.63
 20
40.05
 10
58.02
 20
43.7
 10
67.42
 20
47.36
 10
76.81
 20
45.79
 10
74.2
 20
33.79
 10
72.11
 20
22.31
 10
70.03
 20
9.79
 10
65.33
 20
-0.65
 10
62.2
 20
-12.13
 10
63.24
 20
-22.57
 10
73.68
 20
-36.66
 10
84.64
 20
-54.4
 10
103.42
 20
-79.44
 10
109.16
 20
-100.32
 10
114.9
 20
-118.58
 10
112.81
 20
-127.45
 10
99.25
 20
-135.28
 10
83.07
 20
-143.11
 10
76.81
 20
-149.89
 10
55.94
 20
-161.37
 10
41.85
 20
-169.2
 10
27.24
 20
-174.94
 10
7.93
 20
-185.89
 10
0.63
 20
-193.72
 10
-13.99
 20
-183.81
 10
-18.68
 20
-180.15
 10
-40.08
 20
-186.42
 10
-56.77
 20
-192.68
 10
-82.86
 20
-199.98
 10
-104.78
 20
-210.42
 10
-116.26
 20
-213.03
 10
-130.35
 20
-218.25
 10
-132.96
 20
-204.68
 10
-126.7
 20
-175.98
 10
-123.04
 20
-153.54
 10
-120.96
 20
-140.5
 10
-113.13
 20
-120.67
 10
-106.87
 20
-99.79
 10
-102.17
 20
-87.27
 10
-94.87
 20
-76.84
 10
-86.52
 20
-61.18
 10
-77.65
 20
-49.7
 10
-75.04
 20
-38.22
 10
-70.34
 20
-30.92
 10
-67.73
 20
-19.96
 10
-73.47
 20
-3.26
 10
-69.82
 20
-12.65
 10
-75.04
 20
7.18
 10
-79.21
 20
32.22
 10
-77.12
 20
47.88
 10
-74.51
 20
55.71
 10
-61.99
 20
65.1
 10
-49.99
 20
71.88
 10
-43.21
 20
73.45
 10
-32.25
 20
75.53
 10
-22.33
 20
76.06
 10
18.89
 20
34.31
 10
27.76
 20
34.31
 10
35.06
 20
32.22
  0
LWPOLYLINE
  5
40
330
17
100
AcDbEntity
  8
VOID_UPPER_BASS
100
AcDbPolyline
 90
11
 70
1
 10
-33.0
 20
44.0
 10
-48.42
 20
54.14
 10
-58.86
 20
43.7
 10
-61.99
 20
30.14
 10
-60.95
 20
15.0
 10
-55.0
 20
0.0
 10
-44.0
 20
-22.0
 10
-33.0
 20
-22.0
 10
-33.0
 20
-11.0
 10
-33.0
 20
11.0
 10
-33.0
 20
33.0
  0
LWPOLYLINE
  5
41
330
17
100
AcDbEntity
  8
VOID_UPPER_TREBLE
100
AcDbPolyline
 90
12
 70
1
 10
44.0
 20
22.0
 10
55.0
 20
22.0
 10
55.0
 20
0.0
 10
55.0
 20
-22.0
 10
49.5
 20
-22.0
 10
44.0
 20
-22.0
 10
38.5
 20
-16.5
 10
33.0
 20
-11.0
 10
33.0
 20
0.0
 10
33.0
 20
11.0
 10
38.5
 20
22.0
 10
44.0
 20
22.0
  0
LWPOLYLINE
  5
42
330
17
100
AcDbEntity
  8
VOID_LOWER_BASS
100
AcDbPolyline
 90
21
 70
1
 10
-64.08
 20
-48.14
 10
-62.51
 20
-48.66
 10
-70.86
 20
-66.4
 10
-78.69
 20
-82.58
 10
-89.13
 20
-100.32
 10
-98.52
 20
-120.67
 10
-100.61
 20
-132.15
 10
-102.69
 20
-144.15
 10
-102.17
 20
-154.59
 10
-90.69
 20
-149.37
 10
-79.21
 20
-148.32
 10
-65.12
 20
-142.58
 10
-49.47
 20
-134.76
 10
-40.08
 20
-127.97
 10
-36.94
 20
-99.27
 10
-40.08
 20
-75.79
 10
-40.08
 20
-58.57
 10
-39.03
 20
-50.74
 10
-37.99
 20
-45.53
 10
-40.08
 20
-39.79
 10
-51.56
 20
-35.09
  0
LINE
  5
43
330
17
100
AcDbEntity
  8
CENTERLINE
100
AcDbLine
 10
0.0
 20
0.0
 30
0.0
 11
0.0
 21
-445.0
 31
0.0
  0
LWPOLYLINE
  5
44
330
17
100
AcDbEntity
  8
NECK_POCKET
100
AcDbPolyline
 90
37
 70
1
 10
-38.1
 20
-113.00000000000001
 10
-37.977986530560514
 20
-114.23882354480243
 10
-37.61663503144667
 20
-115.43003979551834
 10
-37.029832038121164
 20
-116.52787097967449
 10
-36.24012806053458
 20
-117.49012806053459
 10
-35.277870979674475
 20
-118.27983203812117
 10
-34.18003979551832
 20
-118.86663503144669
 10
-32.988823544802415
 20
-119.22798653056053
 10
-31.75
 20
-119.35000000000001
 10
31.75
 20
-119.35000000000001
 10
32.988823544802415
 20
-119.22798653056053
 10
34.18003979551832
 20
-118.86663503144669
 10
35.277870979674475
 20
-118.27983203812117
 10
36.24012806053457
 20
-117.49012806053459
 10
37.029832038121164
 20
-116.52787097967449
 10
37.61663503144667
 20
-115.43003979551833
 10
37.977986530560514
 20
-114.23882354480243
 10
38.1
 20
-113.00000000000001
 10
38.1
 20
-69.8
 10
37.977986530560514
 20
-68.56117645519758
 10
37.61663503144667
 20
-67.36996020448167
 10
37.029832038121164
 20
-66.27212902032552
 10
36.24012806053457
 20
-65.30987193946542
 10
35.277870979674475
 20
-64.52016796187884
 10
34.18003979551832
 20
-63.93336496855333
 10
32.988823544802415
 20
-63.57201346943948
 10
31.75
 20
-63.449999999999996
 10
-31.75
 20
-63.449999999999996
 10
-32.988823544802415
 20
-63.57201346943948
 10
-34.18003979551832
 20
-63.93336496855333
 10
-35.277870979674475
 20
-64.52016796187884
 10
-36.24012806053457
 20
-65.30987193946542
 10
-37.029832038121164
 20
-66.27212902032552
 10
-37.61663503144667
 20
-67.36996020448167
 10
-37.977986530560514
 20
-68.56117645519758
 10
-38.1
 20
-69.8
 10
-38.1
 20
-113.00000000000001
  0
LWPOLYLINE
  5
45
330
17
100
AcDbEntity
  8
PICKUP_NECK
100
AcDbPolyline
 90
37
 70
1
 10
-46.0
 20
-184.6
 10
-45.94235584120969
 20
-185.1852709660484
 10
-45.77163859753386
 20
-185.74805029709526
 10
-45.49440883690764
 20
-186.2667106990588
 10
-45.121320343559645
 20
-186.72132034355963
 10
-44.666710699058804
 20
-187.09440883690763
 10
-44.14805029709527
 20
-187.37163859753386
 10
-43.585270966048384
 20
-187.54235584120968
 10
-43.0
 20
-187.6
 10
43.0
 20
-187.6
 10
43.585270966048384
 20
-187.54235584120968
 10
44.14805029709527
 20
-187.37163859753386
 10
44.666710699058804
 20
-187.09440883690763
 10
45.121320343559645
 20
-186.72132034355963
 10
45.49440883690764
 20
-186.2667106990588
 10
45.77163859753386
 20
-185.74805029709526
 10
45.94235584120969
 20
-185.1852709660484
 10
46.0
 20
-184.6
 10
46.0
 20
-150.6
 10
45.94235584120969
 20
-150.0147290339516
 10
45.77163859753386
 20
-149.45194970290473
 10
45.49440883690764
 20
-148.9332893009412
 10
45.121320343559645
 20
-148.47867965644036
 10
44.666710699058804
 20
-148.10559116309236
 10
44.14805029709527
 20
-147.82836140246613
 10
43.585270966048384
 20
-147.6576441587903
 10
43.0
 20
-147.6
 10
-43.0
 20
-147.6
 10
-43.585270966048384
 20
-147.6576441587903
 10
-44.14805029709527
 20
-147.82836140246613
 10
-44.666710699058804
 20
-148.10559116309236
 10
-45.121320343559645
 20
-148.47867965644036
 10
-45.49440883690764
 20
-148.9332893009412
 10
-45.77163859753386
 20
-149.45194970290473
 10
-45.94235584120969
 20
-150.0147290339516
 10
-46.0
 20
-150.6
 10
-46.0
 20
-184.6
  0
LWPOLYLINE
  5
46
330
17
100
AcDbEntity
  8
PICKUP_BRIDGE
100
AcDbPolyline
 90
37
 70
1
 10
-46.0
 20
-311.6
 10
-45.94235584120969
 20
-312.1852709660484
 10
-45.77163859753386
 20
-312.7480502970953
 10
-45.49440883690764
 20
-313.2667106990588
 10
-45.121320343559645
 20
-313.7213203435597
 10
-44.666710699058804
 20
-314.09440883690763
 10
-44.14805029709527
 20
-314.3716385975339
 10
-43.585270966048384
 20
-314.5423558412097
 10
-43.0
 20
-314.6
 10
43.0
 20
-314.6
 10
43.585270966048384
 20
-314.5423558412097
 10
44.14805029709527
 20
-314.3716385975339
 10
44.666710699058804
 20
-314.09440883690763
 10
45.121320343559645
 20
-313.7213203435597
 10
45.49440883690764
 20
-313.2667106990588
 10
45.77163859753386
 20
-312.7480502970953
 10
45.94235584120969
 20
-312.1852709660484
 10
46.0
 20
-311.6
 10
46.0
 20
-277.6
 10
45.94235584120969
 20
-277.01472903395165
 10
45.77163859753386
 20
-276.45194970290476
 10
45.49440883690764
 20
-275.9332893009412
 10
45.121320343559645
 20
-275.47867965644036
 10
44.666710699058804
 20
-275.1055911630924
 10
44.14805029709527
 20
-274.82836140246616
 10
43.585270966048384
 20
-274.65764415879033
 10
43.0
 20
-274.6
 10
-43.0
 20
-274.6
 10
-43.585270966048384
 20
-274.65764415879033
 10
-44.14805029709527
 20
-274.82836140246616
 10
-44.666710699058804
 20
-275.1055911630924
 10
-45.121320343559645
 20
-275.47867965644036
 10
-45.49440883690764
 20
-275.9332893009412
 10
-45.77163859753386
 20
-276.45194970290476
 10
-45.94235584120969
 20
-277.01472903395165
 10
-46.0
 20
-277.6
 10
-46.0
 20
-311.6
  0
LWPOLYLINE
  5
47
330
17
100
AcDbEntity
  8
REAR_ELECTRONICS
100
AcDbPolyline
 90
37
 70
1
 10
-10.700000000000003
 20
-302.2
 10
-10.584711682419385
 20
-303.3705419320968
 10
-10.243277195067723
 20
-304.4961005941905
 10
-9.688817673815274
 20
-305.5334213981176
 10
-8.942640687119289
 20
-306.44264068711925
 10
-8.033421398117616
 20
-307.18881767381527
 10
-6.99610059419054
 20
-307.7432771950677
 10
-5.870541932096775
 20
-308.08471168241937
 10
-4.700000000000004
 20
-308.2
 10
78.3
 20
-308.2
 10
79.47054193209676
 20
-308.08471168241937
 10
80.59610059419053
 20
-307.7432771950677
 10
81.6334213981176
 20
-307.18881767381527
 10
82.54264068711927
 20
-306.44264068711925
 10
83.28881767381527
 20
-305.5334213981176
 10
83.84327719506771
 20
-304.4961005941905
 10
84.18471168241938
 20
-303.3705419320968
 10
84.3
 20
-302.2
 10
84.3
 20
-249.2
 10
84.18471168241938
 20
-248.02945806790322
 10
83.84327719506771
 20
-246.90389940580945
 10
83.28881767381527
 20
-245.86657860188237
 10
82.54264068711929
 20
-244.9573593128807
 10
81.6334213981176
 20
-244.2111823261847
 10
80.59610059419053
 20
-243.65672280493226
 10
79.47054193209676
 20
-243.3152883175806
 10
78.3
 20
-243.2
 10
-4.700000000000003
 20
-243.2
 10
-5.870541932096772
 20
-243.3152883175806
 10
-6.996100594190541
 20
-243.65672280493226
 10
-8.033421398117618
 20
-244.2111823261847
 10
-8.942640687119287
 20
-244.9573593128807
 10
-9.688817673815276
 20
-245.86657860188237
 10
-10.243277195067723
 20
-246.90389940580945
 10
-10.584711682419385
 20
-248.02945806790322
 10
-10.700000000000003
 20
-249.2
 10
-10.700000000000003
 20
-302.2
  0
CIRCLE
  5
48
330
17
100
AcDbEntity
  8
REAR_ELECTRONICS
100
AcDbCircle
 10
-4.700000000000003
 20
-302.2
 30
0.0
 40
1.4
  0
CIRCLE
  5
49
330
17
100
AcDbEntity
  8
REAR_ELECTRONICS
100
AcDbCircle
 10
78.3
 20
-302.2
 30
0.0
 40
1.4
  0
CIRCLE
  5
4A
330
17
100
AcDbEntity
  8
REAR_ELECTRONICS
100
AcDbCircle
 10
-4.700000000000003
 20
-249.2
 30
0.0
 40
1.4
  0
CIRCLE
  5
4B
330
17
100
AcDbEntity
  8
REAR_ELECTRONICS
100
AcDbCircle
 10
78.3
 20
-249.2
 30
0.0
 40
1.4
  0
LWPOLYLINE
  5
4C
330
17
100
AcDbEntity
  8
ARDUINO_POCKET
100
AcDbPolyline
 90
37
 70
1
 10
-3.200000000000003
 20
-159.5
 10
-3.1231411216129246
 20
-160.2803612880645
 10
-2.8955181300451502
 20
-161.03073372946037
 10
-2.525878449210184
 20
-161.7222809320784
 10
-2.0284271247461936
 20
-162.32842712474618
 10
-1.4222809320784116
 20
-162.8258784492102
 10
-0.7307337294603609
 20
-163.19551813004514
 10
0.0196387119354825
 20
-163.42314112161293
 10
0.7999999999999964
 20
-163.5
 10
72.8
 20
-163.5
 10
73.58036128806451
 20
-163.42314112161293
 10
74.33073372946036
 20
-163.19551813004514
 10
75.0222809320784
 20
-162.8258784492102
 10
75.62842712474618
 20
-162.32842712474618
 10
76.12587844921018
 20
-161.7222809320784
 10
76.49551813004514
 20
-161.03073372946037
 10
76.72314112161291
 20
-160.2803612880645
 10
76.8
 20
-159.5
 10
76.8
 20
-107.5
 10
76.72314112161291
 20
-106.71963871193549
 10
76.49551813004514
 20
-105.96926627053963
 10
76.12587844921018
 20
-105.2777190679216
 10
75.62842712474618
 20
-104.67157287525382
 10
75.0222809320784
 20
-104.17412155078982
 10
74.33073372946036
 20
-103.80448186995486
 10
73.58036128806451
 20
-103.57685887838707
 10
72.8
 20
-103.5
 10
0.7999999999999974
 20
-103.5
 10
0.019638711935484388
 20
-103.57685887838707
 10
-0.7307337294603617
 20
-103.80448186995486
 10
-1.422280932078412
 20
-104.17412155078982
 10
-2.0284271247461927
 20
-104.67157287525382
 10
-2.5258784492101842
 20
-105.2777190679216
 10
-2.89551813004515
 20
-105.96926627053963
 10
-3.1231411216129246
 20
-106.71963871193549
 10
-3.200000000000003
 20
-107.5
 10
-3.200000000000003
 20
-159.5
  0
LWPOLYLINE
  5
4D
330
17
100
AcDbEntity
  8
ANTENNA_RECESS
100
AcDbPolyline
 90
37
 70
1
 10
-2.8000000000000007
 20
-214.6
 10
-2.742355841209692
 20
-215.1852709660484
 10
-2.571638597533861
 20
-215.74805029709526
 10
-2.2944088369076363
 20
-216.2667106990588
 10
-1.9213203435596435
 20
-216.72132034355963
 10
-1.4667106990588072
 20
-217.09440883690763
 10
-0.9480502970952691
 20
-217.37163859753386
 10
-0.38527096604838673
 20
-217.54235584120968
 10
0.19999999999999873
 20
-217.6
 10
44.2
 20
-217.6
 10
44.78527096604839
 20
-217.54235584120968
 10
45.34805029709527
 20
-217.37163859753386
 10
45.86671069905881
 20
-217.09440883690763
 10
46.32132034355965
 20
-216.72132034355963
 10
46.69440883690764
 20
-216.2667106990588
 10
46.97163859753386
 20
-215.74805029709526
 10
47.14235584120969
 20
-215.1852709660484
 10
47.2
 20
-214.6
 10
47.2
 20
-190.6
 10
47.14235584120969
 20
-190.0147290339516
 10
46.97163859753386
 20
-189.45194970290473
 10
46.69440883690764
 20
-188.9332893009412
 10
46.32132034355965
 20
-188.47867965644036
 10
45.86671069905881
 20
-188.10559116309236
 10
45.34805029709527
 20
-187.82836140246613
 10
44.78527096604839
 20
-187.6576441587903
 10
44.2
 20
-187.6
 10
0.19999999999999948
 20
-187.6
 10
-0.3852709660483853
 20
-187.6576441587903
 10
-0.94805029709527
 20
-187.82836140246613
 10
-1.4667106990588077
 20
-188.10559116309236
 10
-1.921320343559643
 20
-188.47867965644036
 10
-2.2944088369076368
 20
-188.9332893009412
 10
-2.5716385975338607
 20
-189.45194970290473
 10
-2.742355841209692
 20
-190.0147290339516
 10
-2.8000000000000007
 20
-190.6
 10
-2.8000000000000007
 20
-214.6
  0
CIRCLE
  5
4E
330
17
100
AcDbEntity
  8
BRIDGE_MOUNTING
100
AcDbCircle
 10
-40.0
 20
-337.5
 30
0.0
 40
1.75
  0
CIRCLE
  5
4F
330
17
100
AcDbEntity
  8
BRIDGE_MOUNTING
100
AcDbCircle
 10
-40.0
 20
-302.5
 30
0.0
 40
1.75
  0
CIRCLE
  5
50
330
17
100
AcDbEntity
  8
BRIDGE_MOUNTING
100
AcDbCircle
 10
40.0
 20
-337.5
 30
0.0
 40
1.75
  0
CIRCLE
  5
51
330
17
100
AcDbEntity
  8
BRIDGE_MOUNTING
100
AcDbCircle
 10
40.0
 20
-302.5
 30
0.0
 40
1.75
  0
LWPOLYLINE
  5
52
330
17
100
AcDbEntity
  8
BRIDGE_MOUNTING
100
AcDbPolyline
 90
37
 70
1
 10
-47.5
 20
-337.825
 10
-47.43899326528026
 20
-338.4444117724012
 10
-47.25831751572334
 20
-339.0400198977591
 10
-46.96491601906058
 20
-339.58893548983724
 10
-46.57006403026729
 20
-340.0700640302673
 10
-46.08893548983724
 20
-340.4649160190606
 10
-45.54001989775916
 20
-340.7583175157233
 10
-44.94441177240121
 20
-340.93899326528026
 10
-44.325
 20
-341.0
 10
44.325
 20
-341.0
 10
44.94441177240121
 20
-340.93899326528026
 10
45.540019897759166
 20
-340.7583175157233
 10
46.08893548983724
 20
-340.4649160190606
 10
46.57006403026729
 20
-340.0700640302673
 10
46.96491601906058
 20
-339.58893548983724
 10
47.25831751572334
 20
-339.0400198977591
 10
47.43899326528026
 20
-338.4444117724012
 10
47.5
 20
-337.825
 10
47.5
 20
-302.175
 10
47.43899326528026
 20
-301.55558822759883
 10
47.25831751572334
 20
-300.9599801022409
 10
46.96491601906058
 20
-300.41106451016276
 10
46.57006403026729
 20
-299.9299359697327
 10
46.08893548983724
 20
-299.5350839809394
 10
45.540019897759166
 20
-299.2416824842767
 10
44.94441177240121
 20
-299.06100673471974
 10
44.325
 20
-299.0
 10
-44.325
 20
-299.0
 10
-44.94441177240121
 20
-299.06100673471974
 10
-45.540019897759166
 20
-299.2416824842767
 10
-46.08893548983724
 20
-299.5350839809394
 10
-46.57006403026729
 20
-299.9299359697327
 10
-46.96491601906058
 20
-300.41106451016276
 10
-47.25831751572334
 20
-300.9599801022409
 10
-47.43899326528026
 20
-301.55558822759883
 10
-47.5
 20
-302.175
 10
-47.5
 20
-337.825
  0
LWPOLYLINE
  5
53
330
17
100
AcDbEntity
  8
CONTROL_PLATE
100
AcDbPolyline
 90
37
 70
1
 10
5.200000000000003
 20
-365.34999999999997
 10
5.322013469439489
 20
-366.5888235448024
 10
5.683364968553331
 20
-367.7800397955183
 10
6.27016796187884
 20
-368.8778709796744
 10
7.059871939465425
 20
-369.84012806053454
 10
8.02212902032553
 20
-370.62983203812115
 10
9.119960204481684
 20
-371.21663503144663
 10
10.311176455197586
 20
-371.57798653056045
 10
11.55
 20
-371.7
 10
98.85000000000001
 20
-371.7
 10
100.08882354480242
 20
-371.57798653056045
 10
101.28003979551833
 20
-371.21663503144663
 10
102.37787097967448
 20
-370.62983203812115
 10
103.34012806053458
 20
-369.84012806053454
 10
104.12983203812117
 20
-368.8778709796744
 10
104.71663503144669
 20
-367.7800397955183
 10
105.07798653056052
 20
-366.5888235448024
 10
105.2
 20
-365.34999999999997
 10
105.2
 20
-328.05
 10
105.07798653056052
 20
-326.8111764551976
 10
104.71663503144669
 20
-325.6199602044817
 10
104.12983203812117
 20
-324.52212902032556
 10
103.34012806053458
 20
-323.55987193946544
 10
102.37787097967448
 20
-322.7701679618788
 10
101.28003979551833
 20
-322.18336496855335
 10
100.08882354480242
 20
-321.8220134694395
 10
98.85000000000001
 20
-321.7
 10
11.550000000000002
 20
-321.7
 10
10.31117645519759
 20
-321.8220134694395
 10
9.119960204481682
 20
-322.18336496855335
 10
8.022129020325528
 20
-322.7701679618788
 10
7.059871939465427
 20
-323.55987193946544
 10
6.2701679618788395
 20
-324.52212902032556
 10
5.683364968553332
 20
-325.6199602044817
 10
5.322013469439489
 20
-326.8111764551976
 10
5.200000000000003
 20
-328.05
 10
5.200000000000003
 20
-365.34999999999997
  0
CIRCLE
  5
54
330
17
100
AcDbEntity
  8
CONTROL_PLATE
100
AcDbCircle
 10
35.2
 20
-361.7
 30
0.0
 40
4.75
  0
CIRCLE
  5
55
330
17
100
AcDbEntity
  8
CONTROL_PLATE
100
AcDbCircle
 10
75.2
 20
-361.7
 30
0.0
 40
4.75
  0
CIRCLE
  5
56
330
17
100
AcDbEntity
  8
CONTROL_PLATE
100
AcDbCircle
 10
55.2
 20
-331.7
 30
0.0
 40
4.75
  0
LWPOLYLINE
  5
57
330
17
100
AcDbEntity
  8
USB_PORT
100
AcDbPolyline
 90
37
 70
1
 10
212.5
 20
-243.9
 10
212.52882207939516
 20
-244.1926354830242
 10
212.61418070123307
 20
-244.47402514854764
 10
212.7527955815462
 20
-244.7333553495294
 10
212.93933982822017
 20
-244.96066017177984
 10
213.1666446504706
 20
-245.1472044184538
 10
213.42597485145237
 20
-245.28581929876694
 10
213.70736451697582
 20
-245.37117792060485
 10
214.0
 20
-245.4
 10
218.0
 20
-245.4
 10
218.29263548302418
 20
-245.37117792060485
 10
218.57402514854763
 20
-245.28581929876694
 10
218.8333553495294
 20
-245.1472044184538
 10
219.06066017177983
 20
-244.96066017177984
 10
219.2472044184538
 20
-244.7333553495294
 10
219.38581929876693
 20
-244.47402514854764
 10
219.47117792060484
 20
-244.1926354830242
 10
219.5
 20
-243.9
 10
219.5
 20
-234.9
 10
219.47117792060484
 20
-234.60736451697582
 10
219.38581929876693
 20
-234.32597485145237
 10
219.2472044184538
 20
-234.0666446504706
 10
219.06066017177983
 20
-233.83933982822018
 10
218.8333553495294
 20
-233.6527955815462
 10
218.57402514854763
 20
-233.51418070123307
 10
218.29263548302418
 20
-233.42882207939516
 10
218.0
 20
-233.4
 10
214.0
 20
-233.4
 10
213.70736451697582
 20
-233.42882207939516
 10
213.42597485145237
 20
-233.51418070123307
 10
213.1666446504706
 20
-233.6527955815462
 10
212.93933982822017
 20
-233.83933982822018
 10
212.7527955815462
 20
-234.0666446504706
 10
212.61418070123307
 20
-234.32597485145237
 10
212.52882207939516
 20
-234.60736451697582
 10
212.5
 20
-234.9
 10
212.5
 20
-243.9
  0
CIRCLE
  5
58
330
17
100
AcDbEntity
  8
OUTPUT_JACK
100
AcDbCircle
 10
110.4
 20
-391.2
 30
0.0
 40
6.35
  0
LINE
  5
59
330
17
100
AcDbEntity
  8
WIRING_CHANNEL
100
AcDbLine
 10
0.0
 20
-167.6
 30
0.0
 11
44.4
 21
-133.3
 31
0.0
  0
LINE
  5
5A
330
17
100
AcDbEntity
  8
WIRING_CHANNEL
100
AcDbLine
 10
44.4
 20
-133.3
 30
0.0
 11
44.4
 21
-275.6
 31
0.0
  0
LINE
  5
5B
330
17
100
AcDbEntity
  8
WIRING_CHANNEL
100
AcDbLine
 10
0.0
 20
-294.6
 30
0.0
 11
44.4
 21
-133.3
 31
0.0
  0
ENDSEC
  0
SECTION
  2
OBJECTS
  0
DICTIONARY
  5
A
330
0
100
AcDbDictionary
281
1
  3
ACAD_COLOR
350
B
  3
ACAD_GROUP
350
C
  3
ACAD_LAYOUT
350
D
  3
ACAD_MATERIAL
350
E
  3
ACAD_MLEADERSTYLE
350
F
  3
ACAD_MLINESTYLE
350
10
  3
ACAD_PLOTSETTINGS
350
11
  3
ACAD_PLOTSTYLENAME
350
12
  3
ACAD_SCALELIST
350
14
  3
ACAD_TABLESTYLE
350
15
  3
ACAD_VISUALSTYLE
350
16
  3
EZDXF_META
350
2D
  0
DICTIONARY
  5
B
330
A
100
AcDbDictionary
281
1
  0
DICTIONARY
  5
C
330
A
100
AcDbDictionary
281
1
  0
DICTIONARY
  5
D
330
A
100
AcDbDictionary
281
1
  3
Model
350
1A
  3
Layout1
350
1E
  0
DICTIONARY
  5
E
330
A
100
AcDbDictionary
281
1
  3
ByBlock
350
1F
  3
ByLayer
350
20
  3
Global
350
21
  0
DICTIONARY
  5
F
330
A
100
AcDbDictionary
281
1
  3
Standard
350
2C
  0
DICTIONARY
  5
10
330
A
100
AcDbDictionary
281
1
  3
Standard
350
22
  0
DICTIONARY
  5
11
330
A
100
AcDbDictionary
281
1
  0
ACDBDICTIONARYWDFLT
  5
12
330
A
100
AcDbDictionary
281
1
  3
Normal
350
13
100
AcDbDictionaryWithDefault
340
13
  0
ACDBPLACEHOLDER
  5
13
330
12
  0
DICTIONARY
  5
14
330
A
100
AcDbDictionary
281
1
  0
DICTIONARY
  5
15
330
A
100
AcDbDictionary
281
1
  0
DICTIONARY
  5
16
330
A
100
AcDbDictionary
281
1
  0
LAYOUT
  5
1A
330
D
100
AcDbPlotSettings
  1

  4
A3
  6

 40
7.5
 41
20.0
 42
7.5
 43
20.0
 44
420.0
 45
297.0
 46
0.0
 47
0.0
 48
0.0
 49
0.0
140
0.0
141
0.0
142
1.0
143
1.0
 70
1024
 72
1
 73
0
 74
5
  7

 75
16
 76
0
 77
2
 78
300
147
1.0
148
0.0
149
0.0
100
AcDbLayout
  1
Model
 70
1
 71
0
 10
0.0
 20
0.0
 11
420.0
 21
297.0
 12
0.0
 22
0.0
 32
0.0
 14
1e+20
 24
1e+20
 34
1e+20
 15
-1e+20
 25
-1e+20
 35
-1e+20
146
0.0
 13
0.0
 23
0.0
 33
0.0
 16
1.0
 26
0.0
 36
0.0
 17
0.0
 27
1.0
 37
0.0
 76
1
330
17
  0
LAYOUT
  5
1E
330
D
100
AcDbPlotSettings
  1

  4
A3
  6

 40
7.5
 41
20.0
 42
7.5
 43
20.0
 44
420.0
 45
297.0
 46
0.0
 47
0.0
 48
0.0
 49
0.0
140
0.0
141
0.0
142
1.0
143
1.0
 70
0
 72
1
 73
0
 74
5
  7

 75
16
 76
0
 77
2
 78
300
147
1.0
148
0.0
149
0.0
100
AcDbLayout
  1
Layout1
 70
1
 71
1
 10
0.0
 20
0.0
 11
420.0
 21
297.0
 12
0.0
 22
0.0
 32
0.0
 14
1e+20
 24
1e+20
 34
1e+20
 15
-1e+20
 25
-1e+20
 35
-1e+20
146
0.0
 13
0.0
 23
0.0
 33
0.0
 16
1.0
 26
0.0
 36
0.0
 17
0.0
 27
1.0
 37
0.0
 76
1
330
1B
  0
MATERIAL
  5
1F
102
{ACAD_REACTORS
330
E
102
}
330
E
100
AcDbMaterial
  1
ByBlock
  2

 70
0
 40
1.0
 71
1
 41
1.0
 91
-1023410177
 42
1.0
 72
1
  3

 73
1
 74
1
 75
1
 44
0.5
 73
0
 45
1.0
 46
1.0
 77
1
  4

 78
1
 79
1
170
1
 48
1.0
171
1
  6

172
1
173
1
174
1
140
1.0
141
1.0
175
1
  7

176
1
177
1
178
1
143
1.0
179
1
  8

270
1
271
1
272
1
145
1.0
146
1.0
273
1
  9

274
1
275
1
276
1
 42
1.0
 72
1
  3

 73
1
 74
1
 75
1
 94
63
  0
MATERIAL
  5
20
102
{ACAD_REACTORS
330
E
102
}
330
E
100
AcDbMaterial
  1
ByLayer
  2

 70
0
 40
1.0
 71
1
 41
1.0
 91
-1023410177
 42
1.0
 72
1
  3

 73
1
 74
1
 75
1
 44
0.5
 73
0
 45
1.0
 46
1.0
 77
1
  4

 78
1
 79
1
170
1
 48
1.0
171
1
  6

172
1
173
1
174
1
140
1.0
141
1.0
175
1
  7

176
1
177
1
178
1
143
1.0
179
1
  8

270
1
271
1
272
1
145
1.0
146
1.0
273
1
  9

274
1
275
1
276
1
 42
1.0
 72
1
  3

 73
1
 74
1
 75
1
 94
63
  0
MATERIAL
  5
21
102
{ACAD_REACTORS
330
E
102
}
330
E
100
AcDbMaterial
  1
Global
  2

 70
0
 40
1.0
 71
1
 41
1.0
 91
-1023410177
 42
1.0
 72
1
  3

 73
1
 74
1
 75
1
 44
0.5
 73
0
 45
1.0
 46
1.0
 77
1
  4

 78
1
 79
1
170
1
 48
1.0
171
1
  6

172
1
173
1
174
1
140
1.0
141
1.0
175
1
  7

176
1
177
1
178
1
143
1.0
179
1
  8

270
1
271
1
272
1
145
1.0
146
1.0
273
1
  9

274
1
275
1
276
1
 42
1.0
 72
1
  3

 73
1
 74
1
 75
1
 94
63
  0
MLINESTYLE
  5
22
102
{ACAD_REACTORS
330
10
102
}
330
10
100
AcDbMlineStyle
  2
Standard
 70
0
  3

 62
256
 51
90.0
 52
90.0
 71
2
 49
0.5
 62
256
  6
BYLAYER
 49
-0.5
 62
256
  6
BYLAYER
  0
MLEADERSTYLE
  5
2C
102
{ACAD_REACTORS
330
F
102
}
330
F
100
AcDbMLeaderStyle
179
2
170
2
171
1
172
0
 90
2
 40
0.0
 41
0.0
173
1
 91
-1056964608
 92
-2
290
1
 42
2.0
291
1
 43
8.0
  3
Standard
 44
4.0
300

342
29
174
1
175
1
176
0
178
1
 93
-1056964608
 45
4.0
292
0
297
0
 46
4.0
 94
-1056964608
 47
1.0
 49
1.0
140
1.0
294
1
141
0.0
177
0
142
1.0
295
0
296
0
143
3.75
271
0
272
9
273
9
  0
DICTIONARY
  5
2D
330
A
100
AcDbDictionary
280
1
281
1
  3
CREATED_BY_EZDXF
350
2E
  3
WRITTEN_BY_EZDXF
350
5E
  0
DICTIONARYVAR
  5
2E
330
2D
100
DictionaryVariables
280
0
  1
1.4.3 @ 2026-03-25T19:43:45.821969+00:00
  0
DICTIONARYVAR
  5
5E
330
2D
100
DictionaryVariables
280
0
  1
1.4.3 @ 2026-03-25T19:43:45.831265+00:00
  0
ENDSEC
  0
EOF
