  0
SECTION
  2
HEADER
  9
$ACADVER
  1
AC1015
  9
$ACADMAINTVER
 70
6
  9
$DWGCODEPAGE
  3
ANSI_1252
  9
$INSBASE
 10
 0.000000
 20
 0.000000
 30
0.0
  9
$EXTMIN
 10
1e+20
 20
1e+20
 30
1e+20
  9
$EXTMAX
 10
-1e+20
 20
-1e+20
 30
-1e+20
  9
$LIMMIN
 10
 0.000000
 20
 0.000000
  9
$LIMMAX
 10
 422.715251
 20
 292.763729
  9
$ORTHOMODE
 70
0
  9
$REGENMODE
 70
1
  9
$FILLMODE
 70
1
  9
$QTEXTMODE
 70
0
  9
$MIRRTEXT
 70
1
  9
$LTSCALE
 40
1.0
  9
$ATTMODE
 70
1
  9
$TEXTSIZE
 40
2.5
  9
$TRACEWID
 40
1.0
  9
$TEXTSTYLE
  7
Standard
  9
$CLAYER
  8
0
  9
$CELTYPE
  6
ByLayer
  9
$CECOLOR
 62
256
  9
$CELTSCALE
 40
1.0
  9
$DISPSILH
 70
0
  9
$DIMSCALE
 40
1.0
  9
$DIMASZ
 40
2.5
  9
$DIMEXO
 40
0.625
  9
$DIMDLI
 40
3.75
  9
$DIMRND
 40
0.0
  9
$DIMDLE
 40
0.0
  9
$DIMEXE
 40
1.25
  9
$DIMTP
 40
0.0
  9
$DIMTM
 40
0.0
  9
$DIMTXT
 40
2.5
  9
$DIMCEN
 40
2.5
  9
$DIMTSZ
 40
0.0
  9
$DIMTOL
 70
0
  9
$DIMLIM
 70
0
  9
$DIMTIH
 70
0
  9
$DIMTOH
 70
0
  9
$DIMSE1
 70
0
  9
$DIMSE2
 70
0
  9
$DIMTAD
 70
1
  9
$DIMZIN
 70
8
  9
$DIMBLK
  1

  9
$DIMASO
 70
1
  9
$DIMSHO
 70
1
  9
$DIMPOST
  1

  9
$DIMAPOST
  1

  9
$DIMALT
 70
0
  9
$DIMALTD
 70
3
  9
$DIMALTF
 40
0.03937007874
  9
$DIMLFAC
 40
1.0
  9
$DIMTOFL
 70
1
  9
$DIMTVP
 40
0.0
  9
$DIMTIX
 70
0
  9
$DIMSOXD
 70
0
  9
$DIMSAH
 70
0
  9
$DIMBLK1
  1

  9
$DIMBLK2
  1

  9
$DIMSTYLE
  2
ISO-25
  9
$DIMCLRD
 70
0
  9
$DIMCLRE
 70
0
  9
$DIMCLRT
 70
0
  9
$DIMTFAC
 40
1.0
  9
$DIMGAP
 40
0.625
  9
$DIMJUST
 70
0
  9
$DIMSD1
 70
0
  9
$DIMSD2
 70
0
  9
$DIMTOLJ
 70
0
  9
$DIMTZIN
 70
8
  9
$DIMALTZ
 70
0
  9
$DIMALTTZ
 70
0
  9
$DIMUPT
 70
0
  9
$DIMDEC
 70
2
  9
$DIMTDEC
 70
2
  9
$DIMALTU
 70
2
  9
$DIMALTTD
 70
3
  9
$DIMTXSTY
  7
Standard
  9
$DIMAUNIT
 70
0
  9
$DIMADEC
 70
0
  9
$DIMALTRND
 40
0.0
  9
$DIMAZIN
 70
0
  9
$DIMDSEP
 70
44
  9
$DIMATFIT
 70
3
  9
$DIMFRAC
 70
0
  9
$DIMLDRBLK
  1

  9
$DIMLUNIT
 70
2
  9
$DIMLWD
 70
-2
  9
$DIMLWE
 70
-2
  9
$DIMTMOVE
 70
0
  9
$LUNITS
 70
2
  9
$LUPREC
 70
4
  9
$SKETCHINC
 40
1.0
  9
$FILLETRAD
 40
10.0
  9
$AUNITS
 70
0
  9
$AUPREC
 70
2
  9
$MENU
  1
.
  9
$ELEVATION
 40
0.0
  9
$PELEVATION
 40
0.0
  9
$THICKNESS
 40
0.0
  9
$LIMCHECK
 70
0
  9
$CHAMFERA
 40
0.0
  9
$CHAMFERB
 40
0.0
  9
$CHAMFERC
 40
0.0
  9
$CHAMFERD
 40
0.0
  9
$SKPOLY
 70
0
  9
$TDCREATE
 40
2461127.4240393518
  9
$TDUCREATE
 40
2458532.153996898
  9
$TDUPDATE
 40
2461127.4240393518
  9
$TDUUPDATE
 40
2458532.1544311
  9
$TDINDWG
 40
0.0
  9
$TDUSRTIMER
 40
0.0
  9
$USRTIMER
 70
1
  9
$ANGBASE
 50
0.0
  9
$ANGDIR
 70
0
  9
$PDMODE
 70
0
  9
$PDSIZE
 40
0.0
  9
$PLINEWID
 40
0.0
  9
$SPLFRAME
 70
0
  9
$SPLINETYPE
 70
6
  9
$SPLINESEGS
 70
8
  9
$HANDSEED
  5
5E
  9
$SURFTAB1
 70
6
  9
$SURFTAB2
 70
6
  9
$SURFTYPE
 70
6
  9
$SURFU
 70
6
  9
$SURFV
 70
6
  9
$UCSBASE
  2

  9
$UCSNAME
  2

  9
$UCSORG
 10
 0.000000
 20
 0.000000
 30
0.0
  9
$UCSXDIR
 10
 1.006465
 20
 0.000000
 30
0.0
  9
$UCSYDIR
 10
 0.000000
 20
 0.985736
 30
0.0
  9
$UCSORTHOREF
  2

  9
$UCSORTHOVIEW
 70
0
  9
$UCSORGTOP
 10
 0.000000
 20
 0.000000
 30
0.0
  9
$UCSORGBOTTOM
 10
 0.000000
 20
 0.000000
 30
0.0
  9
$UCSORGLEFT
 10
 0.000000
 20
 0.000000
 30
0.0
  9
$UCSORGRIGHT
 10
 0.000000
 20
 0.000000
 30
0.0
  9
$UCSORGFRONT
 10
 0.000000
 20
 0.000000
 30
0.0
  9
$UCSORGBACK
 10
 0.000000
 20
 0.000000
 30
0.0
  9
$PUCSBASE
  2

  9
$PUCSNAME
  2

  9
$PUCSORG
 10
 0.000000
 20
 0.000000
 30
0.0
  9
$PUCSXDIR
 10
 1.006465
 20
 0.000000
 30
0.0
  9
$PUCSYDIR
 10
 0.000000
 20
 0.985736
 30
0.0
  9
$PUCSORTHOREF
  2

  9
$PUCSORTHOVIEW
 70
0
  9
$PUCSORGTOP
 10
 0.000000
 20
 0.000000
 30
0.0
  9
$PUCSORGBOTTOM
 10
 0.000000
 20
 0.000000
 30
0.0
  9
$PUCSORGLEFT
 10
 0.000000
 20
 0.000000
 30
0.0
  9
$PUCSORGRIGHT
 10
 0.000000
 20
 0.000000
 30
0.0
  9
$PUCSORGFRONT
 10
 0.000000
 20
 0.000000
 30
0.0
  9
$PUCSORGBACK
 10
 0.000000
 20
 0.000000
 30
0.0
  9
$USERI1
 70
0
  9
$USERI2
 70
0
  9
$USERI3
 70
0
  9
$USERI4
 70
0
  9
$USERI5
 70
0
  9
$USERR1
 40
0.0
  9
$USERR2
 40
0.0
  9
$USERR3
 40
0.0
  9
$USERR4
 40
0.0
  9
$USERR5
 40
0.0
  9
$WORLDVIEW
 70
1
  9
$SHADEDGE
 70
3
  9
$SHADEDIF
 70
70
  9
$TILEMODE
 70
1
  9
$MAXACTVP
 70
64
  9
$PINSBASE
 10
 0.000000
 20
 0.000000
 30
0.0
  9
$PLIMCHECK
 70
0
  9
$PEXTMIN
 10
1e+20
 20
1e+20
 30
1e+20
  9
$PEXTMAX
 10
-1e+20
 20
-1e+20
 30
-1e+20
  9
$PLIMMIN
 10
 0.000000
 20
 0.000000
  9
$PLIMMAX
 10
 422.715251
 20
 292.763729
  9
$UNITMODE
 70
0
  9
$VISRETAIN
 70
1
  9
$PLINEGEN
 70
0
  9
$PSLTSCALE
 70
1
  9
$TREEDEPTH
 70
3020
  9
$CMLSTYLE
  2
Standard
  9
$CMLJUST
 70
0
  9
$CMLSCALE
 40
20.0
  9
$PROXYGRAPHICS
 70
1
  9
$MEASUREMENT
 70
1
  9
$CELWEIGHT
370
-1
  9
$ENDCAPS
280
0
  9
$JOINSTYLE
280
0
  9
$LWDISPLAY
290
0
  9
$INSUNITS
 70
4
  9
$HYPERLINKBASE
  1

  9
$STYLESHEET
  1

  9
$XEDIT
290
1
  9
$CEPSNTYPE
380
0
  9
$PSTYLEMODE
290
1
  9
$FINGERPRINTGUID
  2
{C8FA4BAD-172A-4724-9F1C-7407D9A6A09E}
  9
$VERSIONGUID
  2
{17250453-4F9C-41C6-AF42-307041EE380B}
  9
$EXTNAMES
290
1
  9
$PSVPSCALE
 40
0.0
  9
$OLESTARTUP
290
0
  0
ENDSEC
  0
SECTION
  2
CLASSES
  0
CLASS
  1
ACDBDICTIONARYWDFLT
  2
AcDbDictionaryWithDefault
  3
ObjectDBX Classes
 90
0
280
0
281
0
  0
CLASS
  1
SUN
  2
AcDbSun
  3
SCENEOE
 90
1153
280
0
281
0
  0
CLASS
  1
VISUALSTYLE
  2
AcDbVisualStyle
  3
ObjectDBX Classes
 90
4095
280
0
281
0
  0
CLASS
  1
MATERIAL
  2
AcDbMaterial
  3
ObjectDBX Classes
 90
1153
280
0
281
0
  0
CLASS
  1
SCALE
  2
AcDbScale
  3
ObjectDBX Classes
 90
1153
280
0
281
0
  0
CLASS
  1
TABLESTYLE
  2
AcDbTableStyle
  3
ObjectDBX Classes
 90
4095
280
0
281
0
  0
CLASS
  1
MLEADERSTYLE
  2
AcDbMLeaderStyle
  3
ACDB_MLEADERSTYLE_CLASS
 90
4095
280
0
281
0
  0
CLASS
  1
DICTIONARYVAR
  2
AcDbDictionaryVar
  3
ObjectDBX Classes
 90
0
280
0
281
0
  0
CLASS
  1
CELLSTYLEMAP
  2
AcDbCellStyleMap
  3
ObjectDBX Classes
 90
1152
280
0
281
0
  0
CLASS
  1
MENTALRAYRENDERSETTINGS
  2
AcDbMentalRayRenderSettings
  3
SCENEOE
 90
1024
280
0
281
0
  0
CLASS
  1
ACDBDETAILVIEWSTYLE
  2
AcDbDetailViewStyle
  3
ObjectDBX Classes
 90
1025
280
0
281
0
  0
CLASS
  1
ACDBSECTIONVIEWSTYLE
  2
AcDbSectionViewStyle
  3
ObjectDBX Classes
 90
1025
280
0
281
0
  0
CLASS
  1
RASTERVARIABLES
  2
AcDbRasterVariables
  3
ISM
 90
0
280
0
281
0
  0
CLASS
  1
ACDBPLACEHOLDER
  2
AcDbPlaceHolder
  3
ObjectDBX Classes
 90
0
280
0
281
0
  0
CLASS
  1
LAYOUT
  2
AcDbLayout
  3
ObjectDBX Classes
 90
0
280
0
281
0
  0
ENDSEC
  0
SECTION
  2
TABLES
  0
TABLE
  2
VPORT
  5
8
330
0
100
AcDbSymbolTable
 70
1
  0
VPORT
  5
23
330
8
100
AcDbSymbolTableRecord
100
AcDbViewportTableRecord
  2
*Active
 70
0
 10
 0.000000
 20
 0.000000
 11
1.0
 21
1.0
 12
0.0
 22
0.0
 13
0.0
 23
0.0
 14
0.5
 24
0.5
 15
0.5
 25
0.5
 16
0.0
 26
0.0
 36
1.0
 17
0.0
 27
0.0
 37
0.0
 40
1000.0
 41
1.34
 42
50.0
 43
0.0
 44
0.0
 50
0.0
 51
0.0
 71
0
 72
1000
 73
1
 74
3
 75
0
 76
0
 77
0
 78
0
281
0
 65
0
146
0.0
  0
ENDTAB
  0
TABLE
  2
LTYPE
  5
2
330
0
100
AcDbSymbolTable
 70
3
  0
LTYPE
  5
24
330
2
100
AcDbSymbolTableRecord
100
AcDbLinetypeTableRecord
  2
ByBlock
 70
0
  3

 72
65
 73
0
 40
0.0
  0
LTYPE
  5
25
330
2
100
AcDbSymbolTableRecord
100
AcDbLinetypeTableRecord
  2
ByLayer
 70
0
  3

 72
65
 73
0
 40
0.0
  0
LTYPE
  5
26
330
2
100
AcDbSymbolTableRecord
100
AcDbLinetypeTableRecord
  2
Continuous
 70
0
  3

 72
65
 73
0
 40
0.0
  0
ENDTAB
  0
TABLE
  2
LAYER
  5
1
330
0
100
AcDbSymbolTable
 70
18
  0
LAYER
  5
27
330
1
100
AcDbSymbolTableRecord
100
AcDbLayerTableRecord
  2
0
 70
0
 62
7
  6
Continuous
370
-3
390
13
  0
LAYER
  5
28
330
1
100
AcDbSymbolTableRecord
100
AcDbLayerTableRecord
  2
Defpoints
 70
0
 62
7
  6
Continuous
290
0
370
-3
390
13
  0
LAYER
  5
2F
330
1
100
AcDbSymbolTableRecord
100
AcDbLayerTableRecord
  2
NECK_POCKET
 70
0
 62
1
  6
CONTINUOUS
370
-3
390
13
  0
LAYER
  5
30
330
1
100
AcDbSymbolTableRecord
100
AcDbLayerTableRecord
  2
PICKUP_NECK
 70
0
 62
3
  6
CONTINUOUS
370
-3
390
13
  0
LAYER
  5
31
330
1
100
AcDbSymbolTableRecord
100
AcDbLayerTableRecord
  2
PICKUP_BRIDGE
 70
0
 62
3
  6
CONTINUOUS
370
-3
390
13
  0
LAYER
  5
32
330
1
100
AcDbSymbolTableRecord
100
AcDbLayerTableRecord
  2
REAR_ELECTRONICS
 70
0
 62
5
  6
CONTINUOUS
370
-3
390
13
  0
LAYER
  5
33
330
1
100
AcDbSymbolTableRecord
100
AcDbLayerTableRecord
  2
ARDUINO_POCKET
 70
0
 62
4
  6
CONTINUOUS
370
-3
390
13
  0
LAYER
  5
34
330
1
100
AcDbSymbolTableRecord
100
AcDbLayerTableRecord
  2
ANTENNA_RECESS
 70
0
 62
6
  6
CONTINUOUS
370
-3
390
13
  0
LAYER
  5
35
330
1
100
AcDbSymbolTableRecord
100
AcDbLayerTableRecord
  2
WIRING_CHANNEL
 70
0
 62
8
  6
CONTINUOUS
370
-3
390
13
  0
LAYER
  5
36
330
1
100
AcDbSymbolTableRecord
100
AcDbLayerTableRecord
  2
BRIDGE_MOUNTING
 70
0
 62
2
  6
CONTINUOUS
370
-3
390
13
  0
LAYER
  5
37
330
1
100
AcDbSymbolTableRecord
100
AcDbLayerTableRecord
  2
CONTROL_PLATE
 70
0
 62
2
  6
CONTINUOUS
370
-3
390
13
  0
LAYER
  5
38
330
1
100
AcDbSymbolTableRecord
100
AcDbLayerTableRecord
  2
USB_PORT
 70
0
 62
30
  6
CONTINUOUS
370
-3
390
13
  0
LAYER
  5
39
330
1
100
AcDbSymbolTableRecord
100
AcDbLayerTableRecord
  2
OUTPUT_JACK
 70
0
 62
30
  6
CONTINUOUS
370
-3
390
13
  0
LAYER
  5
3A
330
1
100
AcDbSymbolTableRecord
100
AcDbLayerTableRecord
  2
BODY_OUTLINE
 70
0
 62
7
  6
CONTINUOUS
370
-3
390
13
  0
LAYER
  5
3B
330
1
100
AcDbSymbolTableRecord
100
AcDbLayerTableRecord
  2
CENTERLINE
 70
0
 62
9
  6
CONTINUOUS
370
-3
390
13
  0
LAYER
  5
3C
330
1
100
AcDbSymbolTableRecord
100
AcDbLayerTableRecord
  2
VOID_UPPER_BASS
 70
0
 62
40
  6
CONTINUOUS
370
-3
390
13
  0
LAYER
  5
3D
330
1
100
AcDbSymbolTableRecord
100
AcDbLayerTableRecord
  2
VOID_UPPER_TREBLE
 70
0
 62
50
  6
CONTINUOUS
370
-3
390
13
  0
LAYER
  5
3E
330
1
100
AcDbSymbolTableRecord
100
AcDbLayerTableRecord
  2
VOID_LOWER_BASS
 70
0
 62
60
  6
CONTINUOUS
370
-3
390
13
  0
ENDTAB
  0
TABLE
  2
STYLE
  5
5
330
0
100
AcDbSymbolTable
 70
1
  0
STYLE
  5
29
330
5
100
AcDbSymbolTableRecord
100
AcDbTextStyleTableRecord
  2
Standard
 70
0
 40
0.0
 41
1.0
 50
0.0
 71
0
 42
2.5
  3
txt
  4

  0
ENDTAB
  0
TABLE
  2
VIEW
  5
7
330
0
100
AcDbSymbolTable
 70
0
  0
ENDTAB
  0
TABLE
  2
UCS
  5
6
330
0
100
AcDbSymbolTable
 70
0
  0
ENDTAB
  0
TABLE
  2
APPID
  5
3
330
0
100
AcDbSymbolTable
 70
3
  0
APPID
  5
2A
330
3
100
AcDbSymbolTableRecord
100
AcDbRegAppTableRecord
  2
ACAD
 70
0
  0
APPID
  5
5B
330
3
100
AcDbSymbolTableRecord
100
AcDbRegAppTableRecord
  2
HATCHBACKGROUNDCOLOR
 70
0
  0
APPID
  5
5C
330
3
100
AcDbSymbolTableRecord
100
AcDbRegAppTableRecord
  2
EZDXF
 70
0
  0
ENDTAB
  0
TABLE
  2
DIMSTYLE
  5
4
330
0
100
AcDbSymbolTable
 70
1
100
AcDbDimStyleTable
  0
DIMSTYLE
105
2B
330
4
100
AcDbSymbolTableRecord
100
AcDbDimStyleTableRecord
  2
Standard
 70
0
  3

  4

 40
1.0
 41
2.5
 42
0.625
 43
3.75
 44
1.25
 45
0.0
 46
0.0
 47
0.0
 48
0.0
140
2.5
141
2.5
142
0.0
143
0.03937007874
144
1.0
145
0.0
146
1.0
147
0.625
148
0.0
 71
0
 72
0
 73
0
 74
0
 75
0
 76
0
 77
1
 78
8
 79
3
170
0
171
3
172
1
173
0
174
0
175
0
176
0
177
0
178
0
179
2
271
2
272
2
273
2
274
3
275
0
276
0
277
2
278
44
279
0
280
0
281
0
282
0
283
0
284
8
285
0
286
0
288
0
289
3
371
-2
372
-2
  0
ENDTAB
  0
TABLE
  2
BLOCK_RECORD
  5
9
330
0
100
AcDbSymbolTable
 70
2
  0
BLOCK_RECORD
  5
17
330
9
100
AcDbSymbolTableRecord
100
AcDbBlockTableRecord
  2
*Model_Space
340
1A
  0
BLOCK_RECORD
  5
1B
330
9
100
AcDbSymbolTableRecord
100
AcDbBlockTableRecord
  2
*Paper_Space
340
1E
  0
ENDTAB
  0
ENDSEC
  0
SECTION
  2
BLOCKS
  0
BLOCK
  5
18
330
17
100
AcDbEntity
  8
0
100
AcDbBlockBegin
  2
*Model_Space
 70
0
 10
 0.000000
 20
 0.000000
 30
0.0
  3
*Model_Space
  1

  0
ENDBLK
  5
19
330
17
100
AcDbEntity
  8
0
100
AcDbBlockEnd
  0
BLOCK
  5
1C
330
1B
100
AcDbEntity
  8
0
100
AcDbBlockBegin
  2
*Paper_Space
 70
0
 10
 0.000000
 20
 0.000000
 30
0.0
  3
*Paper_Space
  1

  0
ENDBLK
  5
1D
330
1B
100
AcDbEntity
  8
0
100
AcDbBlockEnd
  0
ENDSEC
  0
SECTION
  2
ENTITIES
  0
LWPOLYLINE
  5
3F
330
17
100
AcDbEntity
  8
BODY_OUTLINE
100
AcDbPolyline
 90
60
 70
1
 10
 62.018366
 20
 52.628470
 10
 73.924846
 20
 59.627199
 10
 88.196518
 20
 65.058606
 10
 102.488319
 20
 70.509729
 10
 116.759991
 20
 68.173534
 10
 112.794520
 20
 50.302132
 10
 109.614091
 20
 33.219319
 10
 106.453791
 20
 14.579042
 10
 99.307890
 20
 -0.966022
 10
 94.547311
 20
 -18.058692
 10
 96.127461
 20
 -33.603756
 10
 111.999412
 20
 -54.580228
 10
 128.656406
 20
 -80.988108
 10
 157.209815
 20
 -118.288375
 10
 165.935865
 20
 -149.358789
 10
 174.651851
 20
 -176.545400
 10
 171.471422
 20
 -189.754269
 10
 150.869086
 20
 -201.415531
 10
 126.271084
 20
 -213.066936
 10
 116.759991
 20
 -223.151020
 10
 85.036218
 20
 -240.243691
 10
 63.618645
 20
 -251.895096
 10
 41.405965
 20
 -260.441431
 10
 12.057449
 20
 -276.735654
 10
 0.956142
 20
 -288.396917
 10
 -21.266603
 20
 -273.640442
 10
 -28.392374
 20
 -268.189319
 10
 -60.921319
 20
 -277.524244
 10
 -86.294299
 20
 -286.849310
 10
 -125.949016
 20
 -297.712126
 10
 -159.273068
 20
 -313.257190
 10
 -176.715104
 20
 -317.140992
 10
 -198.132677
 20
 -324.918453
 10
 -202.098149
 20
 -304.710855
 10
 -192.597120
 20
 -261.989037
 10
 -187.031369
 20
 -228.582428
 10
 -183.871070
 20
 -209.173277
 10
 -171.964590
 20
 -179.660328
 10
 -162.443432
 20
 -148.570200
 10
 -155.307596
 20
 -129.920066
 10
 -144.216353
 20
 -114.404574
 10
 -131.524831
 20
 -91.082049
 10
 -118.038202
 20
 -73.989379
 10
 -114.062665
 20
 -56.896709
 10
 -106.926829
 20
 -46.033893
 10
 -102.951293
 20
 -29.719954
 10
 -111.677344
 20
 -4.849823
 10
 -106.141787
 20
 -18.837424
 10
 -114.062665
 20
 10.685383
 10
 -120.403394
 20
 47.965936
 10
 -117.233030
 20
 71.288461
 10
 -113.257493
 20
 82.939866
 10
 -94.225242
 20
 96.917609
 10
 -75.988099
 20
 107.011550
 10
 -65.681898
 20
 109.347746
 10
 -49.024904
 20
 112.442958
 10
 -33.948061
 20
 113.231547
 10
 28.714443
 20
 51.080863
 10
 42.201073
 20
 51.080863
 10
 53.292316
 20
 47.965936
  0
LWPOLYLINE
  5
40
330
17
100
AcDbEntity
  8
VOID_UPPER_BASS
100
AcDbPolyline
 90
11
 70
1
 10
 -50.162210
 20
 65.502188
 10
 -73.602777
 20
 80.603670
 10
 -89.474728
 20
 65.058606
 10
 -94.225242
 20
 44.870724
 10
 -92.645093
 20
 22.326931
 10
 -83.607038
 20
 0.000000
 10
 -66.879592
 20
 -32.756023
 10
 -50.162210
 20
 -32.756023
 10
 -50.162210
 20
 -16.373083
 10
 -50.162210
 20
 16.373083
 10
 -50.162210
 20
 49.129105
  0
LWPOLYLINE
  5
41
330
17
100
AcDbEntity
  8
VOID_UPPER_TREBLE
100
AcDbPolyline
 90
12
 70
1
 10
 66.879592
 20
 32.756023
 10
 83.607038
 20
 32.756023
 10
 83.607038
 20
 0.000000
 10
 83.607038
 20
 -32.756023
 10
 75.243315
 20
 -32.756023
 10
 66.879592
 20
 -32.756023
 10
 58.525933
 20
 -24.564553
 10
 50.162210
 20
 -16.373083
 10
 50.162210
 20
 0.000000
 10
 50.162210
 20
 16.373083
 10
 58.525933
 20
 32.756023
 10
 66.879592
 20
 32.756023
  0
LWPOLYLINE
  5
42
330
17
100
AcDbEntity
  8
VOID_LOWER_BASS
100
AcDbPolyline
 90
21
 70
1
 10
 -97.405671
 20
 -71.672898
 10
 -95.020350
 20
 -72.441773
 10
 -107.721937
 20
 -98.859510
 10
 -119.618351
 20
 -122.950909
 10
 -135.500367
 20
 -149.358789
 10
 -149.761975
 20
 -179.660328
 10
 -152.932339
 20
 -196.752998
 10
 -156.092639
 20
 -214.614543
 10
 -155.307596
 20
 -230.149749
 10
 -137.865560
 20
 -222.372288
 10
 -120.403394
 20
 -220.804967
 10
 -98.985821
 20
 -212.278347
 10
 -75.203056
 20
 -200.636799
 10
 -60.921319
 20
 -190.533001
 10
 -56.150676
 20
 -147.791468
 10
 -60.921319
 20
 -112.837253
 10
 -60.921319
 20
 -87.198247
 10
 -59.321040
 20
 -75.536985
 10
 -57.740890
 20
 -67.789096
 10
 -60.921319
 20
 -59.232904
 10
 -78.373421
 20
 -52.244032
  0
LINE
  5
43
330
17
100
AcDbEntity
  8
CENTERLINE
100
AcDbLine
 10
 0.000000
 20
 113.231547
 30
0.0
 11
0.0
 21
-330.13
 31
0.0
  0
LWPOLYLINE
  5
44
330
17
100
AcDbEntity
  8
NECK_POCKET
100
AcDbPolyline
 90
37
 70
1
 10
 -38.346312
 20
 1.843327
 10
 -38.223510
 20
 0.622174
 10
 -37.859822
 20
 -0.552052
 10
 -37.269226
 20
 -1.634224
 10
 -36.474416
 20
 -2.582756
 10
 -35.505938
 20
 -3.361196
 10
 -34.401010
 20
 -3.939629
 10
 -33.202092
 20
 -4.295826
 10
 -31.955260
 20
 -4.416099
 10
 31.955260
 20
 -4.416099
 10
 33.202092
 20
 -4.295826
 10
 34.401010
 20
 -3.939629
 10
 35.505938
 20
 -3.361196
 10
 36.474416
 20
 -2.582756
 10
 37.269226
 20
 -1.634224
 10
 37.859822
 20
 -0.552052
 10
 38.223510
 20
 0.622174
 10
 38.346312
 20
 1.843327
 10
 38.346312
 20
 44.427142
 10
 38.223510
 20
 45.648296
 10
 37.859822
 20
 46.822521
 10
 37.269226
 20
 47.904693
 10
 36.474416
 20
 48.853225
 10
 35.505938
 20
 49.631665
 10
 34.401010
 20
 50.210098
 10
 33.202092
 20
 50.566296
 10
 31.955260
 20
 50.686569
 10
 -31.955260
 20
 50.686569
 10
 -33.202092
 20
 50.566296
 10
 -34.401010
 20
 50.210098
 10
 -35.505938
 20
 49.631665
 10
 -36.474416
 20
 48.853225
 10
 -37.269226
 20
 47.904693
 10
 -37.859822
 20
 46.822521
 10
 -38.223510
 20
 45.648296
 10
 -38.346312
 20
 44.427142
 10
 -38.346312
 20
 1.843327
  0
LWPOLYLINE
  5
45
330
17
100
AcDbEntity
  8
PICKUP_NECK
100
AcDbPolyline
 90
37
 70
1
 10
 -46.297385
 20
 -68.735403
 10
 -46.239368
 20
 -69.312326
 10
 -46.067547
 20
 -69.867079
 10
 -45.788525
 20
 -70.378341
 10
 -45.413024
 20
 -70.826466
 10
 -44.955476
 20
 -71.194233
 10
 -44.433462
 20
 -71.467509
 10
 -43.867045
 20
 -71.635791
 10
 -43.277990
 20
 -71.692613
 10
 43.277990
 20
 -71.692613
 10
 43.867045
 20
 -71.635791
 10
 44.433462
 20
 -71.467509
 10
 44.955476
 20
 -71.194233
 10
 45.413024
 20
 -70.826466
 10
 45.788525
 20
 -70.378341
 10
 46.067547
 20
 -69.867079
 10
 46.239368
 20
 -69.312326
 10
 46.297385
 20
 -68.735403
 10
 46.297385
 20
 -35.220364
 10
 46.239368
 20
 -34.643441
 10
 46.067547
 20
 -34.088689
 10
 45.788525
 20
 -33.577426
 10
 45.413024
 20
 -33.129301
 10
 44.955476
 20
 -32.761534
 10
 44.433462
 20
 -32.488259
 10
 43.867045
 20
 -32.319976
 10
 43.277990
 20
 -32.263154
 10
 -43.277990
 20
 -32.263154
 10
 -43.867045
 20
 -32.319976
 10
 -44.433462
 20
 -32.488259
 10
 -44.955476
 20
 -32.761534
 10
 -45.413024
 20
 -33.129301
 10
 -45.788525
 20
 -33.577426
 10
 -46.067547
 20
 -34.088689
 10
 -46.239368
 20
 -34.643441
 10
 -46.297385
 20
 -35.220364
 10
 -46.297385
 20
 -68.735403
  0
LWPOLYLINE
  5
46
330
17
100
AcDbEntity
  8
PICKUP_BRIDGE
100
AcDbPolyline
 90
37
 70
1
 10
 -46.297385
 20
 -193.923934
 10
 -46.239368
 20
 -194.500857
 10
 -46.067547
 20
 -195.055609
 10
 -45.788525
 20
 -195.566872
 10
 -45.413024
 20
 -196.014997
 10
 -44.955476
 20
 -196.382764
 10
 -44.433462
 20
 -196.656039
 10
 -43.867045
 20
 -196.824322
 10
 -43.277990
 20
 -196.881144
 10
 43.277990
 20
 -196.881144
 10
 43.867045
 20
 -196.824322
 10
 44.433462
 20
 -196.656039
 10
 44.955476
 20
 -196.382764
 10
 45.413024
 20
 -196.014997
 10
 45.788525
 20
 -195.566872
 10
 46.067547
 20
 -195.055609
 10
 46.239368
 20
 -194.500857
 10
 46.297385
 20
 -193.923934
 10
 46.297385
 20
 -160.408894
 10
 46.239368
 20
 -159.831972
 10
 46.067547
 20
 -159.277219
 10
 45.788525
 20
 -158.765957
 10
 45.413024
 20
 -158.317832
 10
 44.955476
 20
 -157.950065
 10
 44.433462
 20
 -157.676789
 10
 43.867045
 20
 -157.508507
 10
 43.277990
 20
 -157.451685
 10
 -43.277990
 20
 -157.451685
 10
 -43.867045
 20
 -157.508507
 10
 -44.433462
 20
 -157.676789
 10
 -44.955476
 20
 -157.950065
 10
 -45.413024
 20
 -158.317832
 10
 -45.788525
 20
 -158.765957
 10
 -46.067547
 20
 -159.277219
 10
 -46.239368
 20
 -159.831972
 10
 -46.297385
 20
 -160.408894
 10
 -46.297385
 20
 -193.923934
  0
LWPOLYLINE
  5
47
330
17
100
AcDbEntity
  8
REAR_ELECTRONICS
100
AcDbPolyline
 90
37
 70
1
 10
 -10.769174
 20
 -184.658011
 10
 -10.653141
 20
 -185.811857
 10
 -10.309499
 20
 -186.921362
 10
 -9.751455
 20
 -187.943886
 10
 -9.000454
 20
 -188.840137
 10
 -8.085357
 20
 -189.575671
 10
 -7.041330
 20
 -190.122222
 10
 -5.908494
 20
 -190.458786
 10
 -4.730385
 20
 -190.572430
 10
 78.806200
 20
 -190.572430
 10
 79.984310
 20
 -190.458786
 10
 81.117145
 20
 -190.122222
 10
 82.161172
 20
 -189.575671
 10
 83.076269
 20
 -188.840137
 10
 83.827270
 20
 -187.943886
 10
 84.385314
 20
 -186.921362
 10
 84.728956
 20
 -185.811857
 10
 84.844990
 20
 -184.658011
 10
 84.844990
 20
 -132.413979
 10
 84.728956
 20
 -131.260133
 10
 84.385314
 20
 -130.150629
 10
 83.827270
 20
 -129.128104
 10
 83.076269
 20
 -128.231853
 10
 82.161172
 20
 -127.496319
 10
 81.117145
 20
 -126.949768
 10
 79.984310
 20
 -126.613204
 10
 78.806200
 20
 -126.499560
 10
 -4.730385
 20
 -126.499560
 10
 -5.908494
 20
 -126.613204
 10
 -7.041330
 20
 -126.949768
 10
 -8.085357
 20
 -127.496319
 10
 -9.000454
 20
 -128.231853
 10
 -9.751455
 20
 -129.128104
 10
 -10.309499
 20
 -130.150629
 10
 -10.653141
 20
 -131.260133
 10
 -10.769174
 20
 -132.413979
 10
 -10.769174
 20
 -184.658011
  0
CIRCLE
  5
48
330
17
100
AcDbEntity
  8
REAR_ELECTRONICS
100
AcDbCircle
 10
 -4.730385
 20
 -184.658011
 30
0.0
 40
1.4
  0
CIRCLE
  5
49
330
17
100
AcDbEntity
  8
REAR_ELECTRONICS
100
AcDbCircle
 10
 78.806200
 20
 -184.658011
 30
0.0
 40
1.4
  0
CIRCLE
  5
4A
330
17
100
AcDbEntity
  8
REAR_ELECTRONICS
100
AcDbCircle
 10
 -4.730385
 20
 -132.413979
 30
0.0
 40
1.4
  0
CIRCLE
  5
4B
330
17
100
AcDbEntity
  8
REAR_ELECTRONICS
100
AcDbCircle
 10
 78.806200
 20
 -132.413979
 30
0.0
 40
1.4
  0
LWPOLYLINE
  5
4C
330
17
100
AcDbEntity
  8
ANTENNA_RECESS
100
AcDbPolyline
 90
37
 70
1
 10
 -2.818102
 20
 -98.307497
 10
 -2.760085
 20
 -98.884420
 10
 -2.588264
 20
 -99.439172
 10
 -2.309242
 20
 -99.950435
 10
 -1.933741
 20
 -100.398560
 10
 -1.476193
 20
 -100.766327
 10
 -0.954179
 20
 -101.039603
 10
 -0.387762
 20
 -101.207885
 10
 0.201293
 20
 -101.264707
 10
 44.485748
 20
 -101.264707
 10
 45.074803
 20
 -101.207885
 10
 45.641220
 20
 -101.039603
 10
 46.163234
 20
 -100.766327
 10
 46.620782
 20
 -100.398560
 10
 46.996283
 20
 -99.950435
 10
 47.275305
 20
 -99.439172
 10
 47.447126
 20
 -98.884420
 10
 47.505143
 20
 -98.307497
 10
 47.505143
 20
 -74.649822
 10
 47.447126
 20
 -74.072899
 10
 47.275305
 20
 -73.518147
 10
 46.996283
 20
 -73.006885
 10
 46.620782
 20
 -72.558759
 10
 46.163234
 20
 -72.190993
 10
 45.641220
 20
 -71.917717
 10
 45.074803
 20
 -71.749435
 10
 44.485748
 20
 -71.692613
 10
 0.201293
 20
 -71.692613
 10
 -0.387762
 20
 -71.749435
 10
 -0.954179
 20
 -71.917717
 10
 -1.476193
 20
 -72.190993
 10
 -1.933741
 20
 -72.558759
 10
 -2.309242
 20
 -73.006885
 10
 -2.588264
 20
 -73.518147
 10
 -2.760085
 20
 -74.072899
 10
 -2.818102
 20
 -74.649822
 10
 -2.818102
 20
 -98.307497
  0
CIRCLE
  5
4D
330
17
100
AcDbEntity
  8
BRIDGE_MOUNTING
100
AcDbCircle
 10
 -40.258595
 20
 -219.454509
 30
0.0
 40
1.75
  0
CIRCLE
  5
4E
330
17
100
AcDbEntity
  8
BRIDGE_MOUNTING
100
AcDbCircle
 10
 -40.258595
 20
 -184.953732
 30
0.0
 40
1.75
  0
CIRCLE
  5
4F
330
17
100
AcDbEntity
  8
BRIDGE_MOUNTING
100
AcDbCircle
 10
 40.258595
 20
 -219.454509
 30
0.0
 40
1.75
  0
CIRCLE
  5
50
330
17
100
AcDbEntity
  8
BRIDGE_MOUNTING
100
AcDbCircle
 10
 40.258595
 20
 -184.953732
 30
0.0
 40
1.75
  0
LWPOLYLINE
  5
51
330
17
100
AcDbEntity
  8
BRIDGE_MOUNTING
100
AcDbPolyline
 90
37
 70
1
 10
 -47.807082
 20
 -219.774873
 10
 -47.745681
 20
 -220.385450
 10
 -47.563837
 20
 -220.972562
 10
 -47.268539
 20
 -221.513648
 10
 -46.871134
 20
 -221.987914
 10
 -46.386895
 20
 -222.377134
 10
 -45.834431
 20
 -222.666351
 10
 -45.234972
 20
 -222.844450
 10
 -44.611556
 20
 -222.904586
 10
 44.611556
 20
 -222.904586
 10
 45.234972
 20
 -222.844450
 10
 45.834431
 20
 -222.666351
 10
 46.386895
 20
 -222.377134
 10
 46.871134
 20
 -221.987914
 10
 47.268539
 20
 -221.513648
 10
 47.563837
 20
 -220.972562
 10
 47.745681
 20
 -220.385450
 10
 47.807082
 20
 -219.774873
 10
 47.807082
 20
 -184.633368
 10
 47.745681
 20
 -184.022791
 10
 47.563837
 20
 -183.435679
 10
 47.268539
 20
 -182.894592
 10
 46.871134
 20
 -182.420327
 10
 46.386895
 20
 -182.031107
 10
 45.834431
 20
 -181.741890
 10
 45.234972
 20
 -181.563791
 10
 44.611556
 20
 -181.503655
 10
 -44.611556
 20
 -181.503655
 10
 -45.234972
 20
 -181.563791
 10
 -45.834431
 20
 -181.741890
 10
 -46.386895
 20
 -182.031107
 10
 -46.871134
 20
 -182.420327
 10
 -47.268539
 20
 -182.894592
 10
 -47.563837
 20
 -183.435679
 10
 -47.745681
 20
 -184.022791
 10
 -47.807082
 20
 -184.633368
 10
 -47.807082
 20
 -219.774873
  0
LWPOLYLINE
  5
52
330
17
100
AcDbEntity
  8
CONTROL_PLATE
100
AcDbPolyline
 90
37
 70
1
 10
 -25.161622
 20
 -217.630896
 10
 -25.038820
 20
 -218.852050
 10
 -24.675132
 20
 -220.026275
 10
 -24.084536
 20
 -221.108447
 10
 -23.289726
 20
 -222.056979
 10
 -22.321248
 20
 -222.835419
 10
 -21.216320
 20
 -223.413852
 10
 -20.017402
 20
 -223.770049
 10
 -18.770570
 20
 -223.890323
 10
 69.093814
 20
 -223.890323
 10
 70.340647
 20
 -223.770049
 10
 71.539564
 20
 -223.413852
 10
 72.644493
 20
 -222.835419
 10
 73.612970
 20
 -222.056979
 10
 74.407780
 20
 -221.108447
 10
 74.998376
 20
 -220.026275
 10
 75.362064
 20
 -218.852050
 10
 75.484866
 20
 -217.630896
 10
 75.484866
 20
 -180.862926
 10
 75.362064
 20
 -179.641773
 10
 74.998376
 20
 -178.467547
 10
 74.407780
 20
 -177.385375
 10
 73.612970
 20
 -176.436843
 10
 72.644493
 20
 -175.658403
 10
 71.539564
 20
 -175.079970
 10
 70.340647
 20
 -174.723773
 10
 69.093814
 20
 -174.603500
 10
 -18.770570
 20
 -174.603500
 10
 -20.017402
 20
 -174.723773
 10
 -21.216320
 20
 -175.079970
 10
 -22.321248
 20
 -175.658403
 10
 -23.289726
 20
 -176.436843
 10
 -24.084536
 20
 -177.385375
 10
 -24.675132
 20
 -178.467547
 10
 -25.038820
 20
 -179.641773
 10
 -25.161622
 20
 -180.862926
 10
 -25.161622
 20
 -217.630896
  0
CIRCLE
  5
53
330
17
100
AcDbEntity
  8
CONTROL_PLATE
100
AcDbCircle
 10
 5.032324
 20
 -214.032958
 30
0.0
 40
4.75
  0
CIRCLE
  5
54
330
17
100
AcDbEntity
  8
CONTROL_PLATE
100
AcDbCircle
 10
 45.290920
 20
 -214.032958
 30
0.0
 40
4.75
  0
CIRCLE
  5
55
330
17
100
AcDbEntity
  8
CONTROL_PLATE
100
AcDbCircle
 10
 25.161622
 20
 -184.460864
 30
0.0
 40
4.75
  0
LWPOLYLINE
  5
56
330
17
100
AcDbEntity
  8
USB_PORT
100
AcDbPolyline
 90
37
 70
1
 10
 213.873788
 20
 -127.189576
 10
 213.902796
 20
 -127.478037
 10
 213.988707
 20
 -127.755413
 10
 214.128218
 20
 -128.011044
 10
 214.315968
 20
 -128.235107
 10
 214.544742
 20
 -128.418991
 10
 214.805749
 20
 -128.555628
 10
 215.088958
 20
 -128.639769
 10
 215.383485
 20
 -128.668180
 10
 219.409345
 20
 -128.668180
 10
 219.703872
 20
 -128.639769
 10
 219.987081
 20
 -128.555628
 10
 220.248088
 20
 -128.418991
 10
 220.476862
 20
 -128.235107
 10
 220.664612
 20
 -128.011044
 10
 220.804123
 20
 -127.755413
 10
 220.890034
 20
 -127.478037
 10
 220.919042
 20
 -127.189576
 10
 220.919042
 20
 -118.317948
 10
 220.890034
 20
 -118.029486
 10
 220.804123
 20
 -117.752110
 10
 220.664612
 20
 -117.496479
 10
 220.476862
 20
 -117.272416
 10
 220.248088
 20
 -117.088533
 10
 219.987081
 20
 -116.951895
 10
 219.703872
 20
 -116.867754
 10
 219.409345
 20
 -116.839343
 10
 215.383485
 20
 -116.839343
 10
 215.088958
 20
 -116.867754
 10
 214.805749
 20
 -116.951895
 10
 214.544742
 20
 -117.088533
 10
 214.315968
 20
 -117.272416
 10
 214.128218
 20
 -117.496479
 10
 213.988707
 20
 -117.752110
 10
 213.902796
 20
 -118.029486
 10
 213.873788
 20
 -118.317948
 10
 213.873788
 20
 -127.189576
  0
CIRCLE
  5
57
330
17
100
AcDbEntity
  8
OUTPUT_JACK
100
AcDbCircle
 10
 111.113723
 20
 -272.388557
 30
0.0
 40
6.35
  0
LINE
  5
58
330
17
100
AcDbEntity
  8
WIRING_CHANNEL
100
AcDbLine
 10
 0.000000
 20
 -51.977884
 30
0.0
 11
44.4
 21
-18.430000000000007
 31
0.0
  0
LINE
  5
59
330
17
100
AcDbEntity
  8
WIRING_CHANNEL
100
AcDbLine
 10
 44.687041
 20
 -18.167123
 30
0.0
 11
44.4
 21
-160.73000000000002
 31
0.0
  0
LINE
  5
5A
330
17
100
AcDbEntity
  8
WIRING_CHANNEL
100
AcDbLine
 10
 0.000000
 20
 -177.166414
 30
0.0
 11
44.4
 21
-18.430000000000007
 31
0.0
  0
ENDSEC
  0
SECTION
  2
OBJECTS
  0
DICTIONARY
  5
A
330
0
100
AcDbDictionary
281
1
  3
ACAD_COLOR
350
B
  3
ACAD_GROUP
350
C
  3
ACAD_LAYOUT
350
D
  3
ACAD_MATERIAL
350
E
  3
ACAD_MLEADERSTYLE
350
F
  3
ACAD_MLINESTYLE
350
10
 3.019395
ACAD_PLOTSETTINGS
350
11
  3
ACAD_PLOTSTYLENAME
350
12
  3
ACAD_SCALELIST
350
14
  3
ACAD_TABLESTYLE
350
15
  3
ACAD_VISUALSTYLE
350
16
  3
EZDXF_META
350
2D
  0
DICTIONARY
  5
B
330
A
100
AcDbDictionary
281
1
  0
DICTIONARY
  5
C
330
A
100
AcDbDictionary
281
1
  0
DICTIONARY
  5
D
330
A
100
AcDbDictionary
281
1
  3
Model
350
1A
  3
Layout1
350
1E
  0
DICTIONARY
  5
E
330
A
100
AcDbDictionary
281
1
  3
ByBlock
350
1F
  3
ByLayer
350
20
 2.957209
Global
350
21
  0
DICTIONARY
  5
F
330
A
100
AcDbDictionary
281
1
  3
Standard
350
2C
  0
DICTIONARY
  5
10
 332.133412
A
100
AcDbDictionary
281
1
  3
Standard
350
22
  0
DICTIONARY
  5
11
330
A
100
AcDbDictionary
281
1
  0
ACDBDICTIONARYWDFLT
  5
12
330
A
100
AcDbDictionary
281
1
  3
Normal
350
13
100
AcDbDictionaryWithDefault
340
13
  0
ACDBPLACEHOLDER
  5
13
330
12
  0
DICTIONARY
  5
14
330
A
100
AcDbDictionary
281
1
  0
DICTIONARY
  5
15
330
A
100
AcDbDictionary
281
1
  0
DICTIONARY
  5
16
330
A
100
AcDbDictionary
281
1
  0
LAYOUT
  5
1A
330
D
100
AcDbPlotSettings
  1

  4
A3
  6

 40
7.5
 41
20.0
 42
7.5
 43
20.0
 44
420.0
 45
297.0
 46
0.0
 47
0.0
 48
0.0
 49
0.0
140
0.0
141
0.0
142
1.0
143
1.0
 70
1024
 72
1
 73
0
 74
5
  7

 75
16
 76
0
 77
2
 78
300
147
1.0
148
0.0
149
0.0
100
AcDbLayout
  1
Model
 70
1
 71
0
 10
 0.000000
 20
 0.000000
 11
420.0
 21
297.0
 12
0.0
 22
0.0
 32
0.0
 14
1e+20
 24
1e+20
 34
1e+20
 15
-1e+20
 25
-1e+20
 35
-1e+20
146
0.0
 13
0.0
 23
0.0
 33
0.0
 16
1.0
 26
0.0
 36
0.0
 17
0.0
 27
1.0
 37
0.0
 76
1
330
17
  0
LAYOUT
  5
1E
330
D
100
AcDbPlotSettings
  1

  4
A3
  6

 40
7.5
 41
20.0
 42
7.5
 43
20.0
 44
420.0
 45
297.0
 46
0.0
 47
0.0
 48
0.0
 49
0.0
140
0.0
141
0.0
142
1.0
143
1.0
 70
0
 72
1
 73
0
 74
5
  7

 75
16
 76
0
 77
2
 78
300
147
1.0
148
0.0
149
0.0
100
AcDbLayout
  1
Layout1
 70
1
 71
1
 10
 0.000000
 20
 0.000000
 11
420.0
 21
297.0
 12
0.0
 22
0.0
 32
0.0
 14
1e+20
 24
1e+20
 34
1e+20
 15
-1e+20
 25
-1e+20
 35
-1e+20
146
0.0
 13
0.0
 23
0.0
 33
0.0
 16
1.0
 26
0.0
 36
0.0
 17
0.0
 27
1.0
 37
0.0
 76
1
330
1B
  0
MATERIAL
  5
1F
102
{ACAD_REACTORS
330
E
102
}
330
E
100
AcDbMaterial
  1
ByBlock
  2

 70
0
 40
1.0
 71
1
 41
1.0
 91
-1023410177
 42
1.0
 72
1
  3

 73
1
 74
1
 75
1
 44
0.5
 73
0
 45
1.0
 46
1.0
 77
1
  4

 78
1
 79
1
170
1
 48
1.0
171
1
  6

172
1
173
1
174
1
140
1.0
141
1.0
175
1
  7

176
1
177
1
178
1
143
1.0
179
1
  8

270
1
271
1
272
1
145
1.0
146
1.0
273
1
  9

274
1
275
1
276
1
 42
1.0
 72
1
  3

 73
1
 74
1
 75
1
 94
63
  0
MATERIAL
  5
20
 100.545119
{ACAD_REACTORS
330
E
102
}
330
E
100
AcDbMaterial
  1
ByLayer
  2

 70
0
 40
1.0
 71
1
 41
1.0
 91
-1023410177
 42
1.0
 72
1
  3

 73
1
 74
1
 75
1
 44
0.5
 73
0
 45
1.0
 46
1.0
 77
1
  4

 78
1
 79
1
170
1
 48
1.0
171
1
  6

172
1
173
1
174
1
140
1.0
141
1.0
175
1
  7

176
1
177
1
178
1
143
1.0
179
1
  8

270
1
271
1
272
1
145
1.0
146
1.0
273
1
  9

274
1
275
1
276
1
 42
1.0
 72
1
  3

 73
1
 74
1
 75
1
 94
63
  0
MATERIAL
  5
21
102
{ACAD_REACTORS
330
E
102
}
330
E
100
AcDbMaterial
  1
Global
  2

 70
0
 40
1.0
 71
1
 41
1.0
 91
-1023410177
 42
1.0
 72
1
  3

 73
1
 74
1
 75
1
 44
0.5
 73
0
 45
1.0
 46
1.0
 77
1
  4

 78
1
 79
1
170
1
 48
1.0
171
1
  6

172
1
173
1
174
1
140
1.0
141
1.0
175
1
  7

176
1
177
1
178
1
143
1.0
179
1
  8

270
1
271
1
272
1
145
1.0
146
1.0
273
1
  9

274
1
275
1
276
1
 42
1.0
 72
1
  3

 73
1
 74
1
 75
1
 94
63
  0
MLINESTYLE
  5
22
102
{ACAD_REACTORS
330
10
 102.659418
}
330
10
 100.646488
AcDbMlineStyle
  2
Standard
 70
0
  3

 62
256
 51
90.0
 52
90.0
 71
2
 49
0.5
 62
256
  6
BYLAYER
 49
-0.5
 62
256
  6
BYLAYER
  0
MLEADERSTYLE
  5
2C
102
{ACAD_REACTORS
330
F
102
}
330
F
100
AcDbMLeaderStyle
179
2
170
2
171
1
172
0
 90
2
 40
0.0
 41
0.0
173
1
 91
-1056964608
 92
-2
290
1
 42
2.0
291
1
 43
8.0
  3
Standard
 44
4.0
300

342
29
174
1
175
1
176
0
178
1
 93
-1056964608
 45
4.0
292
0
297
0
 46
4.0
 94
-1056964608
 47
1.0
 49
1.0
140
1.0
294
1
141
0.0
177
0
142
1.0
295
0
296
0
143
3.75
271
0
272
9
273
9
  0
DICTIONARY
  5
2D
330
A
100
AcDbDictionary
280
1
281
1
  3
CREATED_BY_EZDXF
350
2E
  3
WRITTEN_BY_EZDXF
350
5D
  0
DICTIONARYVAR
  5
2E
330
2D
100
DictionaryVariables
280
0
  1
1.4.3 @ 2026-03-27T15:10:37.225214+00:00
  0
DICTIONARYVAR
  5
5D
330
2D
100
DictionaryVariables
280
0
  1
1.4.3 @ 2026-03-27T15:10:37.231186+00:00
  0
ENDSEC
  0
EOF
