  0
SECTION
  2
HEADER
  9
$ACADVER
  1
AC1015
  9
$ACADMAINTVER
 70
6
  9
$DWGCODEPAGE
  3
ANSI_1252
  9
$INSBASE
 10
0.0
 20
0.0
 30
0.0
  9
$EXTMIN
 10
-212.101
 20
-601.947
 30
0.000
  9
$EXTMAX
 10
343.642
 20
123.233
 30
0.000
  9
$LIMMIN
 10
0.0
 20
0.0
  9
$LIMMAX
 10
420.0
 20
297.0
  9
$ORTHOMODE
 70
0
  9
$REGENMODE
 70
1
  9
$FILLMODE
 70
1
  9
$QTEXTMODE
 70
0
  9
$MIRRTEXT
 70
1
  9
$LTSCALE
 40
1.0
  9
$ATTMODE
 70
1
  9
$TEXTSIZE
 40
2.5
  9
$TRACEWID
 40
1.0
  9
$TEXTSTYLE
  7
Standard
  9
$CLAYER
  8
0
  9
$CELTYPE
  6
ByLayer
  9
$CECOLOR
 62
256
  9
$CELTSCALE
 40
1.0
  9
$DISPSILH
 70
0
  9
$DIMSCALE
 40
1.0
  9
$DIMASZ
 40
2.5
  9
$DIMEXO
 40
0.625
  9
$DIMDLI
 40
3.75
  9
$DIMRND
 40
0.0
  9
$DIMDLE
 40
0.0
  9
$DIMEXE
 40
1.25
  9
$DIMTP
 40
0.0
  9
$DIMTM
 40
0.0
  9
$DIMTXT
 40
2.5
  9
$DIMCEN
 40
2.5
  9
$DIMTSZ
 40
0.0
  9
$DIMTOL
 70
0
  9
$DIMLIM
 70
0
  9
$DIMTIH
 70
0
  9
$DIMTOH
 70
0
  9
$DIMSE1
 70
0
  9
$DIMSE2
 70
0
  9
$DIMTAD
 70
1
  9
$DIMZIN
 70
8
  9
$DIMBLK
  1

  9
$DIMASO
 70
1
  9
$DIMSHO
 70
1
  9
$DIMPOST
  1

  9
$DIMAPOST
  1

  9
$DIMALT
 70
0
  9
$DIMALTD
 70
3
  9
$DIMALTF
 40
0.03937007874
  9
$DIMLFAC
 40
1.0
  9
$DIMTOFL
 70
1
  9
$DIMTVP
 40
0.0
  9
$DIMTIX
 70
0
  9
$DIMSOXD
 70
0
  9
$DIMSAH
 70
0
  9
$DIMBLK1
  1

  9
$DIMBLK2
  1

  9
$DIMSTYLE
  2
ISO-25
  9
$DIMCLRD
 70
0
  9
$DIMCLRE
 70
0
  9
$DIMCLRT
 70
0
  9
$DIMTFAC
 40
1.0
  9
$DIMGAP
 40
0.625
  9
$DIMJUST
 70
0
  9
$DIMSD1
 70
0
  9
$DIMSD2
 70
0
  9
$DIMTOLJ
 70
0
  9
$DIMTZIN
 70
8
  9
$DIMALTZ
 70
0
  9
$DIMALTTZ
 70
0
  9
$DIMUPT
 70
0
  9
$DIMDEC
 70
2
  9
$DIMTDEC
 70
2
  9
$DIMALTU
 70
2
  9
$DIMALTTD
 70
3
  9
$DIMTXSTY
  7
Standard
  9
$DIMAUNIT
 70
0
  9
$DIMADEC
 70
0
  9
$DIMALTRND
 40
0.0
  9
$DIMAZIN
 70
0
  9
$DIMDSEP
 70
44
  9
$DIMATFIT
 70
3
  9
$DIMFRAC
 70
0
  9
$DIMLDRBLK
  1

  9
$DIMLUNIT
 70
2
  9
$DIMLWD
 70
-2
  9
$DIMLWE
 70
-2
  9
$DIMTMOVE
 70
0
  9
$LUNITS
 70
2
  9
$LUPREC
 70
4
  9
$SKETCHINC
 40
1.0
  9
$FILLETRAD
 40
10.0
  9
$AUNITS
 70
0
  9
$AUPREC
 70
2
  9
$MENU
  1
.
  9
$ELEVATION
 40
0.0
  9
$PELEVATION
 40
0.0
  9
$THICKNESS
 40
0.0
  9
$LIMCHECK
 70
0
  9
$CHAMFERA
 40
0.0
  9
$CHAMFERB
 40
0.0
  9
$CHAMFERC
 40
0.0
  9
$CHAMFERD
 40
0.0
  9
$SKPOLY
 70
0
  9
$TDCREATE
 40
2461131.8207175927
  9
$TDUCREATE
 40
2458532.153996898
  9
$TDUPDATE
 40
2461131.8207175927
  9
$TDUUPDATE
 40
2458532.1544311
  9
$TDINDWG
 40
0.0
  9
$TDUSRTIMER
 40
0.0
  9
$USRTIMER
 70
1
  9
$ANGBASE
 50
0.0
  9
$ANGDIR
 70
0
  9
$PDMODE
 70
0
  9
$PDSIZE
 40
0.0
  9
$PLINEWID
 40
0.0
  9
$SPLFRAME
 70
0
  9
$SPLINETYPE
 70
6
  9
$SPLINESEGS
 70
8
  9
$HANDSEED
  5
5F
  9
$SURFTAB1
 70
6
  9
$SURFTAB2
 70
6
  9
$SURFTYPE
 70
6
  9
$SURFU
 70
6
  9
$SURFV
 70
6
  9
$UCSBASE
  2

  9
$UCSNAME
  2

  9
$UCSORG
 10
0.0
 20
0.0
 30
0.0
  9
$UCSXDIR
 10
1.0
 20
0.0
 30
0.0
  9
$UCSYDIR
 10
0.0
 20
1.0
 30
0.0
  9
$UCSORTHOREF
  2

  9
$UCSORTHOVIEW
 70
0
  9
$UCSORGTOP
 10
0.0
 20
0.0
 30
0.0
  9
$UCSORGBOTTOM
 10
0.0
 20
0.0
 30
0.0
  9
$UCSORGLEFT
 10
0.0
 20
0.0
 30
0.0
  9
$UCSORGRIGHT
 10
0.0
 20
0.0
 30
0.0
  9
$UCSORGFRONT
 10
0.0
 20
0.0
 30
0.0
  9
$UCSORGBACK
 10
0.0
 20
0.0
 30
0.0
  9
$PUCSBASE
  2

  9
$PUCSNAME
  2

  9
$PUCSORG
 10
0.0
 20
0.0
 30
0.0
  9
$PUCSXDIR
 10
1.0
 20
0.0
 30
0.0
  9
$PUCSYDIR
 10
0.0
 20
1.0
 30
0.0
  9
$PUCSORTHOREF
  2

  9
$PUCSORTHOVIEW
 70
0
  9
$PUCSORGTOP
 10
0.0
 20
0.0
 30
0.0
  9
$PUCSORGBOTTOM
 10
0.0
 20
0.0
 30
0.0
  9
$PUCSORGLEFT
 10
0.0
 20
0.0
 30
0.0
  9
$PUCSORGRIGHT
 10
0.0
 20
0.0
 30
0.0
  9
$PUCSORGFRONT
 10
0.0
 20
0.0
 30
0.0
  9
$PUCSORGBACK
 10
0.0
 20
0.0
 30
0.0
  9
$USERI1
 70
0
  9
$USERI2
 70
0
  9
$USERI3
 70
0
  9
$USERI4
 70
0
  9
$USERI5
 70
0
  9
$USERR1
 40
0.0
  9
$USERR2
 40
0.0
  9
$USERR3
 40
0.0
  9
$USERR4
 40
0.0
  9
$USERR5
 40
0.0
  9
$WORLDVIEW
 70
1
  9
$SHADEDGE
 70
3
  9
$SHADEDIF
 70
70
  9
$TILEMODE
 70
1
  9
$MAXACTVP
 70
64
  9
$PINSBASE
 10
0.0
 20
0.0
 30
0.0
  9
$PLIMCHECK
 70
0
  9
$PEXTMIN
 10
1e+20
 20
1e+20
 30
1e+20
  9
$PEXTMAX
 10
-1e+20
 20
-1e+20
 30
-1e+20
  9
$PLIMMIN
 10
0.0
 20
0.0
  9
$PLIMMAX
 10
420.0
 20
297.0
  9
$UNITMODE
 70
0
  9
$VISRETAIN
 70
1
  9
$PLINEGEN
 70
0
  9
$PSLTSCALE
 70
1
  9
$TREEDEPTH
 70
3020
  9
$CMLSTYLE
  2
Standard
  9
$CMLJUST
 70
0
  9
$CMLSCALE
 40
20.0
  9
$PROXYGRAPHICS
 70
1
  9
$MEASUREMENT
 70
1
  9
$CELWEIGHT
370
-1
  9
$ENDCAPS
280
0
  9
$JOINSTYLE
280
0
  9
$LWDISPLAY
290
0
  9
$INSUNITS
 70
4
  9
$HYPERLINKBASE
  1

  9
$STYLESHEET
  1

  9
$XEDIT
290
1
  9
$CEPSNTYPE
380
0
  9
$PSTYLEMODE
290
1
  9
$FINGERPRINTGUID
  2
{8CE9AC43-F350-45DC-8E3D-59F443AE42A2}
  9
$VERSIONGUID
  2
{6CE9CCEA-6FDD-446C-960D-06403950830B}
  9
$EXTNAMES
290
1
  9
$PSVPSCALE
 40
0.0
  9
$OLESTARTUP
290
0
  0
ENDSEC
  0
SECTION
  2
CLASSES
  0
CLASS
  1
ACDBDICTIONARYWDFLT
  2
AcDbDictionaryWithDefault
  3
ObjectDBX Classes
 90
0
280
0
281
0
  0
CLASS
  1
SUN
  2
AcDbSun
  3
SCENEOE
 90
1153
280
0
281
0
  0
CLASS
  1
VISUALSTYLE
  2
AcDbVisualStyle
  3
ObjectDBX Classes
 90
4095
280
0
281
0
  0
CLASS
  1
MATERIAL
  2
AcDbMaterial
  3
ObjectDBX Classes
 90
1153
280
0
281
0
  0
CLASS
  1
SCALE
  2
AcDbScale
  3
ObjectDBX Classes
 90
1153
280
0
281
0
  0
CLASS
  1
TABLESTYLE
  2
AcDbTableStyle
  3
ObjectDBX Classes
 90
4095
280
0
281
0
  0
CLASS
  1
MLEADERSTYLE
  2
AcDbMLeaderStyle
  3
ACDB_MLEADERSTYLE_CLASS
 90
4095
280
0
281
0
  0
CLASS
  1
DICTIONARYVAR
  2
AcDbDictionaryVar
  3
ObjectDBX Classes
 90
0
280
0
281
0
  0
CLASS
  1
CELLSTYLEMAP
  2
AcDbCellStyleMap
  3
ObjectDBX Classes
 90
1152
280
0
281
0
  0
CLASS
  1
MENTALRAYRENDERSETTINGS
  2
AcDbMentalRayRenderSettings
  3
SCENEOE
 90
1024
280
0
281
0
  0
CLASS
  1
ACDBDETAILVIEWSTYLE
  2
AcDbDetailViewStyle
  3
ObjectDBX Classes
 90
1025
280
0
281
0
  0
CLASS
  1
ACDBSECTIONVIEWSTYLE
  2
AcDbSectionViewStyle
  3
ObjectDBX Classes
 90
1025
280
0
281
0
  0
CLASS
  1
RASTERVARIABLES
  2
AcDbRasterVariables
  3
ISM
 90
0
280
0
281
0
  0
CLASS
  1
ACDBPLACEHOLDER
  2
AcDbPlaceHolder
  3
ObjectDBX Classes
 90
0
280
0
281
0
  0
CLASS
  1
LAYOUT
  2
AcDbLayout
  3
ObjectDBX Classes
 90
0
280
0
281
0
  0
ENDSEC
  0
SECTION
  2
TABLES
  0
TABLE
  2
VPORT
  5
8
330
0
100
AcDbSymbolTable
 70
1
  0
VPORT
  5
23
330
8
100
AcDbSymbolTableRecord
100
AcDbViewportTableRecord
  2
*Active
 70
0
 10
0.0
 20
0.0
 11
1.0
 21
1.0
 12
0.0
 22
0.0
 13
0.0
 23
0.0
 14
0.5
 24
0.5
 15
0.5
 25
0.5
 16
0.0
 26
0.0
 36
1.0
 17
0.0
 27
0.0
 37
0.0
 40
1000.0
 41
1.34
 42
50.0
 43
0.0
 44
0.0
 50
0.0
 51
0.0
 71
0
 72
1000
 73
1
 74
3
 75
0
 76
0
 77
0
 78
0
281
0
 65
0
146
0.0
  0
ENDTAB
  0
TABLE
  2
LTYPE
  5
2
330
0
100
AcDbSymbolTable
 70
3
  0
LTYPE
  5
24
330
2
100
AcDbSymbolTableRecord
100
AcDbLinetypeTableRecord
  2
ByBlock
 70
0
  3

 72
65
 73
0
 40
0.0
  0
LTYPE
  5
25
330
2
100
AcDbSymbolTableRecord
100
AcDbLinetypeTableRecord
  2
ByLayer
 70
0
  3

 72
65
 73
0
 40
0.0
  0
LTYPE
  5
26
330
2
100
AcDbSymbolTableRecord
100
AcDbLinetypeTableRecord
  2
Continuous
 70
0
  3

 72
65
 73
0
 40
0.0
  0
ENDTAB
  0
TABLE
  2
LAYER
  5
1
330
0
100
AcDbSymbolTable
 70
18
  0
LAYER
  5
27
330
1
100
AcDbSymbolTableRecord
100
AcDbLayerTableRecord
  2
0
 70
0
 62
7
  6
Continuous
370
-3
390
13
  0
LAYER
  5
28
330
1
100
AcDbSymbolTableRecord
100
AcDbLayerTableRecord
  2
Defpoints
 70
0
 62
7
  6
Continuous
290
0
370
-3
390
13
  0
LAYER
  5
2F
330
1
100
AcDbSymbolTableRecord
100
AcDbLayerTableRecord
  2
NECK_POCKET
 70
0
 62
1
  6
CONTINUOUS
370
-3
390
13
  0
LAYER
  5
30
330
1
100
AcDbSymbolTableRecord
100
AcDbLayerTableRecord
  2
PICKUP_NECK
 70
0
 62
3
  6
CONTINUOUS
370
-3
390
13
  0
LAYER
  5
31
330
1
100
AcDbSymbolTableRecord
100
AcDbLayerTableRecord
  2
PICKUP_BRIDGE
 70
0
 62
3
  6
CONTINUOUS
370
-3
390
13
  0
LAYER
  5
32
330
1
100
AcDbSymbolTableRecord
100
AcDbLayerTableRecord
  2
REAR_ELECTRONICS
 70
0
 62
5
  6
CONTINUOUS
370
-3
390
13
  0
LAYER
  5
33
330
1
100
AcDbSymbolTableRecord
100
AcDbLayerTableRecord
  2
ARDUINO_POCKET
 70
0
 62
4
  6
CONTINUOUS
370
-3
390
13
  0
LAYER
  5
34
330
1
100
AcDbSymbolTableRecord
100
AcDbLayerTableRecord
  2
ANTENNA_RECESS
 70
0
 62
6
  6
CONTINUOUS
370
-3
390
13
  0
LAYER
  5
35
330
1
100
AcDbSymbolTableRecord
100
AcDbLayerTableRecord
  2
WIRING_CHANNEL
 70
0
 62
8
  6
CONTINUOUS
370
-3
390
13
  0
LAYER
  5
36
330
1
100
AcDbSymbolTableRecord
100
AcDbLayerTableRecord
  2
BRIDGE_MOUNTING
 70
0
 62
2
  6
CONTINUOUS
370
-3
390
13
  0
LAYER
  5
37
330
1
100
AcDbSymbolTableRecord
100
AcDbLayerTableRecord
  2
CONTROL_PLATE
 70
0
 62
2
  6
CONTINUOUS
370
-3
390
13
  0
LAYER
  5
38
330
1
100
AcDbSymbolTableRecord
100
AcDbLayerTableRecord
  2
USB_PORT
 70
0
 62
30
  6
CONTINUOUS
370
-3
390
13
  0
LAYER
  5
39
330
1
100
AcDbSymbolTableRecord
100
AcDbLayerTableRecord
  2
OUTPUT_JACK
 70
0
 62
30
  6
CONTINUOUS
370
-3
390
13
  0
LAYER
  5
3A
330
1
100
AcDbSymbolTableRecord
100
AcDbLayerTableRecord
  2
BODY_OUTLINE
 70
0
 62
7
  6
CONTINUOUS
370
-3
390
13
  0
LAYER
  5
3B
330
1
100
AcDbSymbolTableRecord
100
AcDbLayerTableRecord
  2
CENTERLINE
 70
0
 62
9
  6
CONTINUOUS
370
-3
390
13
  0
LAYER
  5
3C
330
1
100
AcDbSymbolTableRecord
100
AcDbLayerTableRecord
  2
VOID_UPPER_BASS
 70
0
 62
40
  6
CONTINUOUS
370
-3
390
13
  0
LAYER
  5
3D
330
1
100
AcDbSymbolTableRecord
100
AcDbLayerTableRecord
  2
VOID_UPPER_TREBLE
 70
0
 62
50
  6
CONTINUOUS
370
-3
390
13
  0
LAYER
  5
3E
330
1
100
AcDbSymbolTableRecord
100
AcDbLayerTableRecord
  2
VOID_LOWER_BASS
 70
0
 62
60
  6
CONTINUOUS
370
-3
390
13
  0
ENDTAB
  0
TABLE
  2
STYLE
  5
5
330
0
100
AcDbSymbolTable
 70
1
  0
STYLE
  5
29
330
5
100
AcDbSymbolTableRecord
100
AcDbTextStyleTableRecord
  2
Standard
 70
0
 40
0.0
 41
1.0
 50
0.0
 71
0
 42
2.5
  3
txt
  4

  0
ENDTAB
  0
TABLE
  2
VIEW
  5
7
330
0
100
AcDbSymbolTable
 70
0
  0
ENDTAB
  0
TABLE
  2
UCS
  5
6
330
0
100
AcDbSymbolTable
 70
0
  0
ENDTAB
  0
TABLE
  2
APPID
  5
3
330
0
100
AcDbSymbolTable
 70
3
  0
APPID
  5
2A
330
3
100
AcDbSymbolTableRecord
100
AcDbRegAppTableRecord
  2
ACAD
 70
0
  0
APPID
  5
5C
330
3
100
AcDbSymbolTableRecord
100
AcDbRegAppTableRecord
  2
HATCHBACKGROUNDCOLOR
 70
0
  0
APPID
  5
5D
330
3
100
AcDbSymbolTableRecord
100
AcDbRegAppTableRecord
  2
EZDXF
 70
0
  0
ENDTAB
  0
TABLE
  2
DIMSTYLE
  5
4
330
0
100
AcDbSymbolTable
 70
1
100
AcDbDimStyleTable
  0
DIMSTYLE
105
2B
330
4
100
AcDbSymbolTableRecord
100
AcDbDimStyleTableRecord
  2
Standard
 70
0
  3

  4

 40
1.0
 41
2.5
 42
0.625
 43
3.75
 44
1.25
 45
0.0
 46
0.0
 47
0.0
 48
0.0
140
2.5
141
2.5
142
0.0
143
0.03937007874
144
1.0
145
0.0
146
1.0
147
0.625
148
0.0
 71
0
 72
0
 73
0
 74
0
 75
0
 76
0
 77
1
 78
8
 79
3
170
0
171
3
172
1
173
0
174
0
175
0
176
0
177
0
178
0
179
2
271
2
272
2
273
2
274
3
275
0
276
0
277
2
278
44
279
0
280
0
281
0
282
0
283
0
284
8
285
0
286
0
288
0
289
3
371
-2
372
-2
  0
ENDTAB
  0
TABLE
  2
BLOCK_RECORD
  5
9
330
0
100
AcDbSymbolTable
 70
2
  0
BLOCK_RECORD
  5
17
330
9
100
AcDbSymbolTableRecord
100
AcDbBlockTableRecord
  2
*Model_Space
340
1A
  0
BLOCK_RECORD
  5
1B
330
9
100
AcDbSymbolTableRecord
100
AcDbBlockTableRecord
  2
*Paper_Space
340
1E
  0
ENDTAB
  0
ENDSEC
  0
SECTION
  2
BLOCKS
  0
BLOCK
  5
18
330
17
100
AcDbEntity
  8
0
100
AcDbBlockBegin
  2
*Model_Space
 70
0
 10
0.0
 20
0.0
 30
0.0
  3
*Model_Space
  1

  0
ENDBLK
  5
19
330
17
100
AcDbEntity
  8
0
100
AcDbBlockEnd
  0
BLOCK
  5
1C
330
1B
100
AcDbEntity
  8
0
100
AcDbBlockBegin
  2
*Paper_Space
 70
0
 10
0.0
 20
0.0
 30
0.0
  3
*Paper_Space
  1

  0
ENDBLK
  5
1D
330
1B
100
AcDbEntity
  8
0
100
AcDbBlockEnd
  0
ENDSEC
  0
SECTION
  2
ENTITIES
  0
LWPOLYLINE
  5
3F
330
17
100
AcDbEntity
  8
BODY_OUTLINE
100
AcDbPolyline
 90
60
 70
1
 10
62.016
 20
52.627
 10
73.918
 20
59.624
 10
88.191
 20
65.058
 10
102.479
 20
70.507
 10
116.752
 20
68.169
 10
112.785
 20
50.304
 10
109.608
 20
33.214
 10
106.446
 20
14.575
 10
99.302
 20
-0.968
 10
94.545
 20
-18.058
 10
96.126
 20
-33.601
 10
111.994
 20
-54.577
 10
128.654
 20
-80.987
 10
157.2
 20
-118.265
 10
165.924
 20
-149.35
 10
174.649
 20
-176.534
 10
171.472
 20
-189.739
 10
150.861
 20
-201.396
 10
126.267
 20
-213.053
 10
116.752
 20
-223.147
 10
85.029
 20
-240.237
 10
63.612
 20
-251.894
 10
41.405
 20
-260.44
 10
12.054
 20
-276.741
 10
0.958
 20
-288.398
 10
-21.265
 20
-273.645
 10
-28.394
 20
-268.196
 10
-60.922
 20
-277.53
 10
-86.291
 20
-286.85
 10
-125.948
 20
-297.717
 10
-159.267
 20
-313.26
 10
-176.717
 20
-317.146
 10
-198.133
 20
-324.917
 10
-202.101
 20
-304.715
 10
-192.585
 20
-261.988
 10
-187.022
 20
-228.581
 10
-183.861
 20
-209.167
 10
-171.959
 20
-179.646
 10
-162.444
 20
-148.561
 10
-155.3
 20
-129.922
 10
-144.203
 20
-114.395
 10
-131.511
 20
-91.081
 10
-118.029
 20
-73.99
 10
-114.062
 20
-56.9
 10
-106.918
 20
-46.032
 10
-102.95
 20
-29.715
 10
-111.675
 20
-4.853
 10
-106.127
 20
-18.833
 10
-114.062
 20
10.689
 10
-120.4
 20
47.967
 10
-117.223
 20
71.281
 10
-113.256
 20
82.938
 10
-94.226
 20
96.917
 10
-75.985
 20
107.01
 10
-65.68
 20
109.348
 10
-49.02
 20
112.444
 10
-33.942
 20
113.233
 10
28.713
 20
51.079
 10
42.196
 20
51.079
 10
53.292
 20
47.967
  0
LWPOLYLINE
  5
40
330
17
100
AcDbEntity
  8
VOID_UPPER_BASS
100
AcDbPolyline
 90
11
 70
1
 10
-50.16
 20
65.504
 10
-73.599
 20
80.6
 10
-89.468
 20
65.058
 10
-94.226
 20
44.871
 10
-92.645
 20
22.331
 10
-83.601
 20
0.0
 10
-66.88
 20
-32.752
 10
-50.16
 20
-32.752
 10
-50.16
 20
-16.376
 10
-50.16
 20
16.376
 10
-50.16
 20
49.128
  0
LWPOLYLINE
  5
41
330
17
100
AcDbEntity
  8
VOID_UPPER_TREBLE
100
AcDbPolyline
 90
12
 70
1
 10
66.88
 20
32.752
 10
83.601
 20
32.752
 10
83.601
 20
0.0
 10
83.601
 20
-32.752
 10
75.241
 20
-32.752
 10
66.88
 20
-32.752
 10
58.52
 20
-24.564
 10
50.16
 20
-16.376
 10
50.16
 20
0.0
 10
50.16
 20
16.376
 10
58.52
 20
32.752
 10
66.88
 20
32.752
  0
LWPOLYLINE
  5
42
330
17
100
AcDbEntity
  8
VOID_LOWER_BASS
100
AcDbPolyline
 90
21
 70
1
 10
-97.402
 20
-71.668
 10
-95.016
 20
-72.442
 10
-107.708
 20
-98.852
 10
-119.61
 20
-122.94
 10
-135.479
 20
-149.35
 10
-149.752
 20
-179.646
 10
-152.928
 20
-196.737
 10
-156.09
 20
-214.601
 10
-155.3
 20
-230.144
 10
-137.85
 20
-222.373
 10
-120.4
 20
-220.809
 10
-98.983
 20
-212.264
 10
-75.195
 20
-200.622
 10
-60.922
 20
-190.514
 10
-56.149
 20
-147.787
 10
-60.922
 20
-112.831
 10
-60.922
 20
-87.195
 10
-59.326
 20
-75.538
 10
-57.745
 20
-67.782
 10
-60.922
 20
-59.237
 10
-78.372
 20
-52.24
  0
LINE
  5
43
330
17
100
AcDbEntity
  8
CENTERLINE
100
AcDbLine
 10
0.0
 20
0.0
 30
0.0
 11
0.0
 21
-662.488
 31
0.0
  0
LWPOLYLINE
  5
44
330
17
100
AcDbEntity
  8
NECK_POCKET
100
AcDbPolyline
 90
37
 70
1
 10
-57.912
 20
-168.227
 10
-57.727
 20
-170.071
 10
-57.178
 20
-171.845
 10
-56.286
 20
-173.479
 10
-55.085
 20
-174.912
 10
-53.623
 20
-176.087
 10
-51.954
 20
-176.961
 10
-50.143
 20
-177.499
 10
-48.26
 20
-177.681
 10
48.26
 20
-177.681
 10
50.143
 20
-177.499
 10
51.954
 20
-176.961
 10
53.623
 20
-176.087
 10
55.085
 20
-174.912
 10
56.286
 20
-173.479
 10
57.178
 20
-171.845
 10
57.727
 20
-170.071
 10
57.912
 20
-168.227
 10
57.912
 20
-103.914
 10
57.727
 20
-102.07
 10
57.178
 20
-100.296
 10
56.286
 20
-98.662
 10
55.085
 20
-97.229
 10
53.623
 20
-96.054
 10
51.954
 20
-95.18
 10
50.143
 20
-94.642
 10
48.26
 20
-94.46
 10
-48.26
 20
-94.46
 10
-50.143
 20
-94.642
 10
-51.954
 20
-95.18
 10
-53.623
 20
-96.054
 10
-55.085
 20
-97.229
 10
-56.286
 20
-98.662
 10
-57.178
 20
-100.296
 10
-57.727
 20
-102.07
 10
-57.912
 20
-103.914
 10
-57.912
 20
-168.227
  0
LWPOLYLINE
  5
45
330
17
100
AcDbEntity
  8
PICKUP_NECK
100
AcDbPolyline
 90
37
 70
1
 10
-69.921
 20
-274.821
 10
-69.833
 20
-275.692
 10
-69.573
 20
-276.53
 10
-69.152
 20
-277.302
 10
-68.585
 20
-277.979
 10
-67.894
 20
-278.534
 10
-67.106
 20
-278.947
 10
-66.25
 20
-279.201
 10
-65.36
 20
-279.287
 10
65.36
 20
-279.287
 10
66.25
 20
-279.201
 10
67.106
 20
-278.947
 10
67.894
 20
-278.534
 10
68.585
 20
-277.979
 10
69.152
 20
-277.302
 10
69.573
 20
-276.53
 10
69.833
 20
-275.692
 10
69.921
 20
-274.821
 10
69.921
 20
-224.204
 10
69.833
 20
-223.332
 10
69.573
 20
-222.495
 10
69.152
 20
-221.722
 10
68.585
 20
-221.046
 10
67.894
 20
-220.49
 10
67.106
 20
-220.077
 10
66.25
 20
-219.823
 10
65.36
 20
-219.737
 10
-65.36
 20
-219.737
 10
-66.25
 20
-219.823
 10
-67.106
 20
-220.077
 10
-67.894
 20
-220.49
 10
-68.585
 20
-221.046
 10
-69.152
 20
-221.722
 10
-69.573
 20
-222.495
 10
-69.833
 20
-223.332
 10
-69.921
 20
-224.204
 10
-69.921
 20
-274.821
  0
LWPOLYLINE
  5
46
330
17
100
AcDbEntity
  8
PICKUP_BRIDGE
100
AcDbPolyline
 90
37
 70
1
 10
-69.921
 20
-463.89
 10
-69.833
 20
-464.762
 10
-69.573
 20
-465.599
 10
-69.152
 20
-466.372
 10
-68.585
 20
-467.048
 10
-67.894
 20
-467.604
 10
-67.106
 20
-468.016
 10
-66.25
 20
-468.271
 10
-65.36
 20
-468.356
 10
65.36
 20
-468.356
 10
66.25
 20
-468.271
 10
67.106
 20
-468.016
 10
67.894
 20
-467.604
 10
68.585
 20
-467.048
 10
69.152
 20
-466.372
 10
69.573
 20
-465.599
 10
69.833
 20
-464.762
 10
69.921
 20
-463.89
 10
69.921
 20
-413.273
 10
69.833
 20
-412.402
 10
69.573
 20
-411.564
 10
69.152
 20
-410.792
 10
68.585
 20
-410.115
 10
67.894
 20
-409.56
 10
67.106
 20
-409.147
 10
66.25
 20
-408.893
 10
65.36
 20
-408.807
 10
-65.36
 20
-408.807
 10
-66.25
 20
-408.893
 10
-67.106
 20
-409.147
 10
-67.894
 20
-409.56
 10
-68.585
 20
-410.115
 10
-69.152
 20
-410.792
 10
-69.573
 20
-411.564
 10
-69.833
 20
-412.402
 10
-69.921
 20
-413.273
 10
-69.921
 20
-463.89
  0
LWPOLYLINE
  5
47
330
17
100
AcDbEntity
  8
REAR_ELECTRONICS
100
AcDbPolyline
 90
37
 70
1
 10
-16.264
 20
-449.896
 10
-16.089
 20
-451.639
 10
-15.57
 20
-453.314
 10
-14.727
 20
-454.859
 10
-13.593
 20
-456.212
 10
-12.211
 20
-457.323
 10
-10.634
 20
-458.149
 10
-8.923
 20
-458.657
 10
-7.144
 20
-458.829
 10
119.017
 20
-458.829
 10
120.796
 20
-458.657
 10
122.507
 20
-458.149
 10
124.084
 20
-457.323
 10
125.466
 20
-456.212
 10
126.6
 20
-454.859
 10
127.443
 20
-453.314
 10
127.962
 20
-451.639
 10
128.137
 20
-449.896
 10
128.137
 20
-370.993
 10
127.962
 20
-369.25
 10
127.443
 20
-367.575
 10
126.6
 20
-366.031
 10
125.466
 20
-364.677
 10
124.084
 20
-363.566
 10
122.507
 20
-362.741
 10
120.796
 20
-362.232
 10
119.017
 20
-362.061
 10
-7.144
 20
-362.061
 10
-8.923
 20
-362.232
 10
-10.634
 20
-362.741
 10
-12.211
 20
-363.566
 10
-13.593
 20
-364.677
 10
-14.727
 20
-366.031
 10
-15.57
 20
-367.575
 10
-16.089
 20
-369.25
 10
-16.264
 20
-370.993
 10
-16.264
 20
-449.896
  0
CIRCLE
  5
48
330
17
100
AcDbEntity
  8
REAR_ELECTRONICS
100
AcDbCircle
 10
-7.144
 20
-449.896
 30
0.0
 40
2.106
  0
CIRCLE
  5
49
330
17
100
AcDbEntity
  8
REAR_ELECTRONICS
100
AcDbCircle
 10
119.017
 20
-449.896
 30
0.0
 40
2.106
  0
CIRCLE
  5
4A
330
17
100
AcDbEntity
  8
REAR_ELECTRONICS
100
AcDbCircle
 10
-7.144
 20
-370.993
 30
0.0
 40
2.106
  0
CIRCLE
  5
4B
330
17
100
AcDbEntity
  8
REAR_ELECTRONICS
100
AcDbCircle
 10
119.017
 20
-370.993
 30
0.0
 40
2.106
  0
LWPOLYLINE
  5
4C
330
17
100
AcDbEntity
  8
ARDUINO_POCKET
100
AcDbPolyline
 90
37
 70
1
 10
-4.864
 20
-237.453
 10
-4.747
 20
-238.615
 10
-4.401
 20
-239.732
 10
-3.839
 20
-240.762
 10
-3.083
 20
-241.664
 10
-2.162
 20
-242.405
 10
-1.111
 20
-242.955
 10
0.03
 20
-243.294
 10
1.216
 20
-243.408
 10
110.657
 20
-243.408
 10
111.843
 20
-243.294
 10
112.984
 20
-242.955
 10
114.035
 20
-242.405
 10
114.956
 20
-241.664
 10
115.712
 20
-240.762
 10
116.274
 20
-239.732
 10
116.62
 20
-238.615
 10
116.737
 20
-237.453
 10
116.737
 20
-160.039
 10
116.62
 20
-158.877
 10
116.274
 20
-157.76
 10
115.712
 20
-156.731
 10
114.956
 20
-155.828
 10
114.035
 20
-155.088
 10
112.984
 20
-154.538
 10
111.843
 20
-154.199
 10
110.657
 20
-154.084
 10
1.216
 20
-154.084
 10
0.03
 20
-154.199
 10
-1.111
 20
-154.538
 10
-2.162
 20
-155.088
 10
-3.083
 20
-155.828
 10
-3.839
 20
-156.731
 10
-4.401
 20
-157.76
 10
-4.747
 20
-158.877
 10
-4.864
 20
-160.039
 10
-4.864
 20
-237.453
  0
LWPOLYLINE
  5
4D
330
17
100
AcDbEntity
  8
ANTENNA_RECESS
100
AcDbPolyline
 90
37
 70
1
 10
-4.256
 20
-319.483
 10
-4.168
 20
-320.354
 10
-3.909
 20
-321.192
 10
-3.488
 20
-321.964
 10
-2.92
 20
-322.641
 10
-2.229
 20
-323.196
 10
-1.441
 20
-323.609
 10
-0.586
 20
-323.863
 10
0.304
 20
-323.949
 10
67.184
 20
-323.949
 10
68.074
 20
-323.863
 10
68.93
 20
-323.609
 10
69.718
 20
-323.196
 10
70.409
 20
-322.641
 10
70.976
 20
-321.964
 10
71.397
 20
-321.192
 10
71.657
 20
-320.354
 10
71.745
 20
-319.483
 10
71.745
 20
-283.753
 10
71.657
 20
-282.882
 10
71.397
 20
-282.044
 10
70.976
 20
-281.272
 10
70.409
 20
-280.595
 10
69.718
 20
-280.04
 10
68.93
 20
-279.627
 10
68.074
 20
-279.373
 10
67.184
 20
-279.287
 10
0.304
 20
-279.287
 10
-0.586
 20
-279.373
 10
-1.441
 20
-279.627
 10
-2.229
 20
-280.04
 10
-2.92
 20
-280.595
 10
-3.488
 20
-281.272
 10
-3.909
 20
-282.044
 10
-4.168
 20
-282.882
 10
-4.256
 20
-283.753
 10
-4.256
 20
-319.483
  0
CIRCLE
  5
4E
330
17
100
AcDbEntity
  8
BRIDGE_MOUNTING
100
AcDbCircle
 10
-60.8
 20
-502.449
 30
0.0
 40
2.633
  0
CIRCLE
  5
4F
330
17
100
AcDbEntity
  8
BRIDGE_MOUNTING
100
AcDbCircle
 10
-60.8
 20
-450.343
 30
0.0
 40
2.633
  0
CIRCLE
  5
50
330
17
100
AcDbEntity
  8
BRIDGE_MOUNTING
100
AcDbCircle
 10
60.8
 20
-502.449
 30
0.0
 40
2.633
  0
CIRCLE
  5
51
330
17
100
AcDbEntity
  8
BRIDGE_MOUNTING
100
AcDbCircle
 10
60.8
 20
-450.343
 30
0.0
 40
2.633
  0
LWPOLYLINE
  5
52
330
17
100
AcDbEntity
  8
BRIDGE_MOUNTING
100
AcDbPolyline
 90
37
 70
1
 10
-72.201
 20
-502.932
 10
-72.108
 20
-503.855
 10
-71.833
 20
-504.741
 10
-71.387
 20
-505.558
 10
-70.787
 20
-506.275
 10
-70.056
 20
-506.863
 10
-69.221
 20
-507.299
 10
-68.316
 20
-507.568
 10
-67.375
 20
-507.659
 10
67.375
 20
-507.659
 10
68.316
 20
-507.568
 10
69.221
 20
-507.299
 10
70.056
 20
-506.863
 10
70.787
 20
-506.275
 10
71.387
 20
-505.558
 10
71.833
 20
-504.741
 10
72.108
 20
-503.855
 10
72.201
 20
-502.932
 10
72.201
 20
-449.859
 10
72.108
 20
-448.937
 10
71.833
 20
-448.05
 10
71.387
 20
-447.233
 10
70.787
 20
-446.517
 10
70.056
 20
-445.929
 10
69.221
 20
-445.492
 10
68.316
 20
-445.223
 10
67.375
 20
-445.132
 10
-67.375
 20
-445.132
 10
-68.316
 20
-445.223
 10
-69.221
 20
-445.492
 10
-70.056
 20
-445.929
 10
-70.787
 20
-446.517
 10
-71.387
 20
-447.233
 10
-71.833
 20
-448.05
 10
-72.108
 20
-448.937
 10
-72.201
 20
-449.859
 10
-72.201
 20
-502.932
  0
LWPOLYLINE
  5
53
330
17
100
AcDbEntity
  8
CONTROL_PLATE
100
AcDbPolyline
 90
37
 70
1
 10
7.904
 20
-543.91
 10
8.09
 20
-545.754
 10
8.639
 20
-547.528
 10
9.531
 20
-549.162
 10
10.731
 20
-550.594
 10
12.194
 20
-551.77
 10
13.862
 20
-552.644
 10
15.673
 20
-553.182
 10
17.556
 20
-553.363
 10
150.253
 20
-553.363
 10
152.136
 20
-553.182
 10
153.947
 20
-552.644
 10
155.616
 20
-551.77
 10
157.078
 20
-550.594
 10
158.279
 20
-549.162
 10
159.17
 20
-547.528
 10
159.72
 20
-545.754
 10
159.905
 20
-543.91
 10
159.905
 20
-488.38
 10
159.72
 20
-486.536
 10
159.17
 20
-484.762
 10
158.279
 20
-483.128
 10
157.078
 20
-481.695
 10
155.616
 20
-480.52
 10
153.947
 20
-479.646
 10
152.136
 20
-479.108
 10
150.253
 20
-478.926
 10
17.556
 20
-478.926
 10
15.673
 20
-479.108
 10
13.862
 20
-479.646
 10
12.194
 20
-480.52
 10
10.731
 20
-481.695
 10
9.531
 20
-483.128
 10
8.639
 20
-484.762
 10
8.09
 20
-486.536
 10
7.904
 20
-488.38
 10
7.904
 20
-543.91
  0
CIRCLE
  5
54
330
17
100
AcDbEntity
  8
CONTROL_PLATE
100
AcDbCircle
 10
53.504
 20
-538.476
 30
0.0
 40
7.146
  0
CIRCLE
  5
55
330
17
100
AcDbEntity
  8
CONTROL_PLATE
100
AcDbCircle
 10
114.305
 20
-538.476
 30
0.0
 40
7.146
  0
CIRCLE
  5
56
330
17
100
AcDbEntity
  8
CONTROL_PLATE
100
AcDbCircle
 10
83.905
 20
-493.814
 30
0.0
 40
7.146
  0
LWPOLYLINE
  5
57
330
17
100
AcDbEntity
  8
USB_PORT
100
AcDbPolyline
 90
37
 70
1
 10
323.002
 20
-363.103
 10
323.046
 20
-363.538
 10
323.176
 20
-363.957
 10
323.387
 20
-364.343
 10
323.67
 20
-364.682
 10
324.016
 20
-364.96
 10
324.41
 20
-365.166
 10
324.838
 20
-365.293
 10
325.282
 20
-365.336
 10
331.362
 20
-365.336
 10
331.807
 20
-365.293
 10
332.235
 20
-365.166
 10
332.629
 20
-364.96
 10
332.975
 20
-364.682
 10
333.258
 20
-364.343
 10
333.469
 20
-363.957
 10
333.599
 20
-363.538
 10
333.642
 20
-363.103
 10
333.642
 20
-349.704
 10
333.599
 20
-349.269
 10
333.469
 20
-348.85
 10
333.258
 20
-348.464
 10
332.975
 20
-348.125
 10
332.629
 20
-347.847
 10
332.235
 20
-347.641
 10
331.807
 20
-347.514
 10
331.362
 20
-347.471
 10
325.282
 20
-347.471
 10
324.838
 20
-347.514
 10
324.41
 20
-347.641
 10
324.016
 20
-347.847
 10
323.67
 20
-348.125
 10
323.387
 20
-348.464
 10
323.176
 20
-348.85
 10
323.046
 20
-349.269
 10
323.002
 20
-349.704
 10
323.002
 20
-363.103
  0
CIRCLE
  5
58
330
17
100
AcDbEntity
  8
OUTPUT_JACK
100
AcDbCircle
 10
167.809
 20
-582.394
 30
0.0
 40
9.553
  0
LINE
  5
59
330
17
100
AcDbEntity
  8
WIRING_CHANNEL
100
AcDbLine
 10
0.0
 20
-249.512
 30
0.0
 11
67.489
 21
-198.449
 31
0.0
  0
LINE
  5
5A
330
17
100
AcDbEntity
  8
WIRING_CHANNEL
100
AcDbLine
 10
67.489
 20
-198.449
 30
0.0
 11
67.489
 21
-410.296
 31
0.0
  0
LINE
  5
5B
330
17
100
AcDbEntity
  8
WIRING_CHANNEL
100
AcDbLine
 10
0.0
 20
-438.582
 30
0.0
 11
67.489
 21
-198.449
 31
0.0
  0
ENDSEC
  0
SECTION
  2
OBJECTS
  0
DICTIONARY
  5
A
330
0
100
AcDbDictionary
281
1
  3
ACAD_COLOR
350
B
  3
ACAD_GROUP
350
C
  3
ACAD_LAYOUT
350
D
  3
ACAD_MATERIAL
350
E
  3
ACAD_MLEADERSTYLE
350
F
  3
ACAD_MLINESTYLE
350
10
  3
ACAD_PLOTSETTINGS
350
11
  3
ACAD_PLOTSTYLENAME
350
12
  3
ACAD_SCALELIST
350
14
  3
ACAD_TABLESTYLE
350
15
  3
ACAD_VISUALSTYLE
350
16
  3
EZDXF_META
350
2D
  0
DICTIONARY
  5
B
330
A
100
AcDbDictionary
281
1
  0
DICTIONARY
  5
C
330
A
100
AcDbDictionary
281
1
  0
DICTIONARY
  5
D
330
A
100
AcDbDictionary
281
1
  3
Model
350
1A
  3
Layout1
350
1E
  0
DICTIONARY
  5
E
330
A
100
AcDbDictionary
281
1
  3
ByBlock
350
1F
  3
ByLayer
350
20
  3
Global
350
21
  0
DICTIONARY
  5
F
330
A
100
AcDbDictionary
281
1
  3
Standard
350
2C
  0
DICTIONARY
  5
10
330
A
100
AcDbDictionary
281
1
  3
Standard
350
22
  0
DICTIONARY
  5
11
330
A
100
AcDbDictionary
281
1
  0
ACDBDICTIONARYWDFLT
  5
12
330
A
100
AcDbDictionary
281
1
  3
Normal
350
13
100
AcDbDictionaryWithDefault
340
13
  0
ACDBPLACEHOLDER
  5
13
330
12
  0
DICTIONARY
  5
14
330
A
100
AcDbDictionary
281
1
  0
DICTIONARY
  5
15
330
A
100
AcDbDictionary
281
1
  0
DICTIONARY
  5
16
330
A
100
AcDbDictionary
281
1
  0
LAYOUT
  5
1A
330
D
100
AcDbPlotSettings
  1

  4
A3
  6

 40
7.5
 41
20.0
 42
7.5
 43
20.0
 44
420.0
 45
297.0
 46
0.0
 47
0.0
 48
0.0
 49
0.0
140
0.0
141
0.0
142
1.0
143
1.0
 70
1024
 72
1
 73
0
 74
5
  7

 75
16
 76
0
 77
2
 78
300
147
1.0
148
0.0
149
0.0
100
AcDbLayout
  1
Model
 70
1
 71
0
 10
0.0
 20
0.0
 11
420.0
 21
297.0
 12
0.0
 22
0.0
 32
0.0
 14
1e+20
 24
1e+20
 34
1e+20
 15
-1e+20
 25
-1e+20
 35
-1e+20
146
0.0
 13
0.0
 23
0.0
 33
0.0
 16
1.0
 26
0.0
 36
0.0
 17
0.0
 27
1.0
 37
0.0
 76
1
330
17
  0
LAYOUT
  5
1E
330
D
100
AcDbPlotSettings
  1

  4
A3
  6

 40
7.5
 41
20.0
 42
7.5
 43
20.0
 44
420.0
 45
297.0
 46
0.0
 47
0.0
 48
0.0
 49
0.0
140
0.0
141
0.0
142
1.0
143
1.0
 70
0
 72
1
 73
0
 74
5
  7

 75
16
 76
0
 77
2
 78
300
147
1.0
148
0.0
149
0.0
100
AcDbLayout
  1
Layout1
 70
1
 71
1
 10
0.0
 20
0.0
 11
420.0
 21
297.0
 12
0.0
 22
0.0
 32
0.0
 14
1e+20
 24
1e+20
 34
1e+20
 15
-1e+20
 25
-1e+20
 35
-1e+20
146
0.0
 13
0.0
 23
0.0
 33
0.0
 16
1.0
 26
0.0
 36
0.0
 17
0.0
 27
1.0
 37
0.0
 76
1
330
1B
  0
MATERIAL
  5
1F
102
{ACAD_REACTORS
330
E
102
}
330
E
100
AcDbMaterial
  1
ByBlock
  2

 70
0
 40
1.0
 71
1
 41
1.0
 91
-1023410177
 42
1.0
 72
1
  3

 73
1
 74
1
 75
1
 44
0.5
 73
0
 45
1.0
 46
1.0
 77
1
  4

 78
1
 79
1
170
1
 48
1.0
171
1
  6

172
1
173
1
174
1
140
1.0
141
1.0
175
1
  7

176
1
177
1
178
1
143
1.0
179
1
  8

270
1
271
1
272
1
145
1.0
146
1.0
273
1
  9

274
1
275
1
276
1
 42
1.0
 72
1
  3

 73
1
 74
1
 75
1
 94
63
  0
MATERIAL
  5
20
102
{ACAD_REACTORS
330
E
102
}
330
E
100
AcDbMaterial
  1
ByLayer
  2

 70
0
 40
1.0
 71
1
 41
1.0
 91
-1023410177
 42
1.0
 72
1
  3

 73
1
 74
1
 75
1
 44
0.5
 73
0
 45
1.0
 46
1.0
 77
1
  4

 78
1
 79
1
170
1
 48
1.0
171
1
  6

172
1
173
1
174
1
140
1.0
141
1.0
175
1
  7

176
1
177
1
178
1
143
1.0
179
1
  8

270
1
271
1
272
1
145
1.0
146
1.0
273
1
  9

274
1
275
1
276
1
 42
1.0
 72
1
  3

 73
1
 74
1
 75
1
 94
63
  0
MATERIAL
  5
21
102
{ACAD_REACTORS
330
E
102
}
330
E
100
AcDbMaterial
  1
Global
  2

 70
0
 40
1.0
 71
1
 41
1.0
 91
-1023410177
 42
1.0
 72
1
  3

 73
1
 74
1
 75
1
 44
0.5
 73
0
 45
1.0
 46
1.0
 77
1
  4

 78
1
 79
1
170
1
 48
1.0
171
1
  6

172
1
173
1
174
1
140
1.0
141
1.0
175
1
  7

176
1
177
1
178
1
143
1.0
179
1
  8

270
1
271
1
272
1
145
1.0
146
1.0
273
1
  9

274
1
275
1
276
1
 42
1.0
 72
1
  3

 73
1
 74
1
 75
1
 94
63
  0
MLINESTYLE
  5
22
102
{ACAD_REACTORS
330
10
102
}
330
10
100
AcDbMlineStyle
  2
Standard
 70
0
  3

 62
256
 51
90.0
 52
90.0
 71
2
 49
0.5
 62
256
  6
BYLAYER
 49
-0.5
 62
256
  6
BYLAYER
  0
MLEADERSTYLE
  5
2C
102
{ACAD_REACTORS
330
F
102
}
330
F
100
AcDbMLeaderStyle
179
2
170
2
171
1
172
0
 90
2
 40
0.0
 41
0.0
173
1
 91
-1056964608
 92
-2
290
1
 42
2.0
291
1
 43
8.0
  3
Standard
 44
4.0
300

342
29
174
1
175
1
176
0
178
1
 93
-1056964608
 45
4.0
292
0
297
0
 46
4.0
 94
-1056964608
 47
1.0
 49
1.0
140
1.0
294
1
141
0.0
177
0
142
1.0
295
0
296
0
143
3.75
271
0
272
9
273
9
  0
DICTIONARY
  5
2D
330
A
100
AcDbDictionary
280
1
281
1
  3
CREATED_BY_EZDXF
350
2E
  3
WRITTEN_BY_EZDXF
350
5E
  0
DICTIONARYVAR
  5
2E
330
2D
100
DictionaryVariables
280
0
  1
1.4.3 @ 2026-03-25T19:43:45.821969+00:00
  0
DICTIONARYVAR
  5
5E
330
2D
100
DictionaryVariables
280
0
  1
1.4.3 @ 2026-03-31T19:41:50.313159+00:00
  0
ENDSEC
  0
EOF
