<svg xmlns="http://www.w3.org/2000/svg" viewBox="0 0 800 600">
  <rect width="100%" height="100%" fill="#f8fafc"/>
  <path d="M 25.9 20.0 L 25.1 20.7 L 24.4 20.7 L 24.4 21.5 L 24.4 22.2 L 24.4 22.9 L 23.7 23.7 L 23.7 24.4 L 23.7 25.1 L 23.7 25.9 L 23.7 26.6 L 23.7 27.3 L 23.7 28.1 L 23.7 28.8 L 23.7 29.5 L 23.7 30.2 L 23.7 31.0 L 23.7 31.7 L 23.7 32.4 L 23.7 33.2 L 23.7 33.9 L 23.7 34.6 L 23.7 35.4 L 23.7 36.1 L 23.7 36.8 L 23.7 37.6 L 23.7 38.3 L 23.7 39.0 L 23.7 39.8 L 23.7 40.5 L 23.7 41.2 L 23.7 42.0 L 23.7 42.7 L 23.7 43.4 L 23.7 44.2 L 23.7 44.9 L 23.7 45.6 L 23.7 46.4 L 23.7 47.1 L 23.7 47.8 L 23.7 48.5 L 23.7 49.3 L 23.7 50.0 L 23.7 50.7 L 23.7 51.5 L 23.7 52.2 L 23.7 52.9 L 23.7 53.7 L 23.7 54.4 L 23.7 55.1 L 23.7 55.9 L 23.7 56.6 L 23.7 57.3 L 23.7 58.1 L 23.7 58.8 L 23.7 59.5 L 23.7 60.3 L 23.7 61.0 L 23.7 61.7 L 23.7 62.5 L 23.7 63.2 L 23.7 63.9 L 23.7 64.7 L 23.7 65.4 L 23.7 66.1 L 23.7 66.8 L 23.7 67.6 L 23.7 68.3 L 23.7 69.0 L 23.7 69.8 L 23.7 70.5 L 23.7 71.2 L 23.7 72.0 L 23.7 72.7 L 23.7 73.4 L 23.7 74.2 L 23.7 74.9 L 23.7 75.6 L 23.7 76.4 L 23.7 77.1 L 23.7 77.8 L 23.7 78.6 L 23.7 79.3 L 23.7 80.0 L 23.7 80.8 L 23.7 81.5 L 23.7 82.2 L 23.7 83.0 L 23.7 83.7 L 23.7 84.4 L 23.7 85.2 L 23.7 85.9 L 23.7 86.6 L 23.7 87.3 L 23.7 88.1 L 23.7 88.8 L 23.7 89.5 L 23.7 90.3 L 23.7 91.0 L 23.7 91.7 L 23.7 92.5 L 23.7 93.2 L 23.7 93.9 L 23.7 94.7 L 23.7 95.4 L 23.7 96.1 L 23.7 96.9 L 23.7 97.6 L 23.7 98.3 L 23.7 99.1 L 23.7 99.8 L 23.7 100.5 L 23.7 101.3 L 23.7 102.0 L 23.7 102.7 L 23.7 103.5 L 23.7 104.2 L 23.7 104.9 L 23.7 105.6 L 23.7 106.4 L 23.7 107.1 L 23.7 107.8 L 23.7 108.6 L 23.7 109.3 L 23.7 110.0 L 23.7 110.8 L 23.7 111.5 L 23.7 112.2 L 23.7 113.0 L 23.7 113.7 L 23.7 114.4 L 23.7 115.2 L 23.7 115.9 L 23.7 116.6 L 23.7 117.4 L 23.7 118.1 L 23.7 118.8 L 23.7 119.6 L 23.7 120.3 L 23.7 121.0 L 23.7 121.8 L 23.7 122.5 L 23.7 123.2 L 23.7 123.9 L 23.7 124.7 L 23.7 125.4 L 23.7 126.1 L 23.7 126.9 L 22.9 127.6 L 22.9 128.3 L 22.9 129.1 L 22.9 129.8 L 22.9 130.5 L 22.9 131.3 L 22.9 132.0 L 22.9 132.7 L 22.9 133.5 L 22.9 134.2 L 22.9 134.9 L 22.9 135.7 L 22.9 136.4 L 22.9 137.1 L 22.9 137.9 L 22.9 138.6 L 23.7 139.3 L 23.7 140.1 L 23.7 140.8 L 23.7 141.5 L 23.7 142.2 L 23.7 143.0 L 23.7 143.7 L 22.9 144.4 L 22.9 145.2 L 22.9 145.9 L 22.9 146.6 L 22.9 147.4 L 22.9 148.1 L 22.9 148.8 L 22.9 149.6 L 22.9 150.3 L 22.9 151.0 L 22.9 151.8 L 22.9 152.5 L 22.9 153.2 L 22.9 154.0 L 22.9 154.7 L 22.9 155.4 L 22.9 156.2 L 22.9 156.9 L 22.9 157.6 L 22.9 158.4 L 22.9 159.1 L 22.9 159.8 L 22.9 160.5 L 22.9 161.3 L 22.9 162.0 L 22.9 162.7 L 22.9 163.5 L 22.9 164.2 L 22.9 164.9 L 22.9 165.7 L 22.9 166.4 L 22.9 167.1 L 22.9 167.9 L 22.9 168.6 L 22.9 169.3 L 22.9 170.1 L 22.9 170.8 L 22.9 171.5 L 22.9 172.3 L 22.9 173.0 L 22.9 173.7 L 22.9 174.5 L 22.9 175.2 L 22.9 175.9 L 22.9 176.7 L 22.9 177.4 L 22.9 178.1 L 22.9 178.8 L 22.9 179.6 L 22.9 180.3 L 22.9 181.0 L 22.9 181.8 L 22.9 182.5 L 22.9 183.2 L 22.9 184.0 L 22.9 184.7 L 22.9 185.4 L 22.9 186.2 L 22.9 186.9 L 22.9 187.6 L 22.9 188.4 L 22.9 189.1 L 22.9 189.8 L 22.9 190.6 L 22.9 191.3 L 22.9 192.0 L 22.9 192.8 L 22.9 193.5 L 22.9 194.2 L 22.9 195.0 L 22.9 195.7 L 22.9 196.4 L 22.9 197.2 L 22.9 197.9 L 22.9 198.6 L 22.9 199.3 L 22.9 200.1 L 22.9 200.8 L 22.9 201.5 L 22.9 202.3 L 22.9 203.0 L 22.9 203.7 L 22.9 204.5 L 22.9 205.2 L 22.9 205.9 L 22.9 206.7 L 22.9 207.4 L 22.9 208.1 L 22.9 208.9 L 22.9 209.6 L 22.9 210.3 L 22.9 211.1 L 22.9 211.8 L 22.9 212.5 L 22.9 213.3 L 22.9 214.0 L 22.9 214.7 L 22.9 215.5 L 22.9 216.2 L 22.9 216.9 L 22.9 217.6 L 22.9 218.4 L 22.9 219.1 L 22.9 219.8 L 22.9 220.6 L 22.9 221.3 L 22.9 222.0 L 22.9 222.8 L 22.9 223.5 L 22.9 224.2 L 22.9 225.0 L 22.9 225.7 L 22.9 226.4 L 22.9 227.2 L 22.9 227.9 L 22.9 228.6 L 22.2 229.4 L 22.2 230.1 L 22.2 230.8 L 22.2 231.6 L 22.2 232.3 L 22.2 233.0 L 22.2 233.8 L 22.2 234.5 L 22.2 235.2 L 22.2 235.9 L 22.2 236.7 L 22.2 237.4 L 22.2 238.1 L 22.2 238.9 L 22.2 239.6 L 22.2 240.3 L 22.2 241.1 L 22.2 241.8 L 22.2 242.5 L 22.2 243.3 L 22.2 244.0 L 22.2 244.7 L 22.2 245.5 L 22.2 246.2 L 22.2 246.9 L 22.2 247.7 L 22.2 248.4 L 22.2 249.1 L 22.2 249.9 L 22.2 250.6 L 22.2 251.3 L 22.2 252.1 L 22.2 252.8 L 22.2 253.5 L 22.2 254.2 L 22.2 255.0 L 22.2 255.7 L 22.2 256.4 L 22.2 257.2 L 22.2 257.9 L 22.2 258.6 L 22.2 259.4 L 22.2 260.1 L 22.2 260.8 L 22.2 261.6 L 22.2 262.3 L 22.2 263.0 L 22.2 263.8 L 22.2 264.5 L 22.2 265.2 L 22.2 266.0 L 22.2 266.7 L 22.2 267.4 L 22.2 268.2 L 22.2 268.9 L 22.2 269.6 L 22.2 270.4 L 22.2 271.1 L 22.2 271.8 L 22.2 272.5 L 22.2 273.3 L 22.2 274.0 L 22.2 274.7 L 22.2 275.5 L 22.2 276.2 L 22.2 276.9 L 22.2 277.7 L 22.2 278.4 L 22.2 279.1 L 22.2 279.9 L 22.2 280.6 L 22.2 281.3 L 22.2 282.1 L 22.2 282.8 L 22.2 283.5 L 22.2 284.3 L 22.2 285.0 L 22.2 285.7 L 22.2 286.5 L 22.2 287.2 L 22.2 287.9 L 22.2 288.7 L 22.2 289.4 L 22.2 290.1 L 22.2 290.8 L 22.2 291.6 L 22.2 292.3 L 22.2 293.0 L 22.2 293.8 L 22.2 294.5 L 22.2 295.2 L 22.2 296.0 L 22.2 296.7 L 22.2 297.4 L 22.2 298.2 L 22.2 298.9 L 22.2 299.6 L 22.2 300.4 L 22.2 301.1 L 22.2 301.8 L 22.2 302.6 L 22.2 303.3 L 22.2 304.0 L 22.2 304.8 L 22.2 305.5 L 22.2 306.2 L 22.2 307.0 L 22.2 307.7 L 22.2 308.4 L 21.5 309.2 L 21.5 309.9 L 21.5 310.6 L 21.5 311.3 L 21.5 312.1 L 21.5 312.8 L 21.5 313.5 L 21.5 314.3 L 21.5 315.0 L 21.5 315.7 L 21.5 316.5 L 21.5 317.2 L 21.5 317.9 L 21.5 318.7 L 22.2 319.4 L 22.2 320.1 L 22.2 320.9 L 22.2 321.6 L 22.2 322.3 L 22.2 323.1 L 22.2 323.8 L 22.2 324.5 L 22.2 325.3 L 22.2 326.0 L 22.2 326.7 L 21.5 327.5 L 21.5 328.2 L 21.5 328.9 L 21.5 329.6 L 21.5 330.4 L 21.5 331.1 L 21.5 331.8 L 21.5 332.6 L 21.5 333.3 L 21.5 334.0 L 21.5 334.8 L 21.5 335.5 L 21.5 336.2 L 21.5 337.0 L 21.5 337.7 L 21.5 338.4 L 21.5 339.2 L 21.5 339.9 L 21.5 340.6 L 21.5 341.4 L 21.5 342.1 L 21.5 342.8 L 21.5 343.6 L 21.5 344.3 L 21.5 345.0 L 21.5 345.8 L 21.5 346.5 L 21.5 347.2 L 21.5 347.9 L 21.5 348.7 L 21.5 349.4 L 21.5 350.1 L 21.5 350.9 L 21.5 351.6 L 21.5 352.3 L 21.5 353.1 L 21.5 353.8 L 21.5 354.5 L 21.5 355.3 L 21.5 356.0 L 21.5 356.7 L 21.5 357.5 L 21.5 358.2 L 21.5 358.9 L 21.5 359.7 L 21.5 360.4 L 21.5 361.1 L 21.5 361.9 L 21.5 362.6 L 21.5 363.3 L 21.5 364.1 L 21.5 364.8 L 21.5 365.5 L 21.5 366.2 L 21.5 367.0 L 21.5 367.7 L 21.5 368.4 L 21.5 369.2 L 21.5 369.9 L 21.5 370.6 L 21.5 371.4 L 21.5 372.1 L 21.5 372.8 L 21.5 373.6 L 21.5 374.3 L 20.7 375.0 L 20.7 375.8 L 21.5 376.5 L 21.5 377.2 L 21.5 378.0 L 21.5 378.7 L 20.7 379.4 L 21.5 380.2 L 21.5 380.9 L 20.7 381.6 L 20.7 382.4 L 20.7 383.1 L 20.7 383.8 L 20.7 384.5 L 20.7 385.3 L 20.7 386.0 L 20.7 386.7 L 20.7 387.5 L 20.7 388.2 L 20.7 388.9 L 20.7 389.7 L 20.7 390.4 L 21.5 391.1 L 21.5 391.9 L 21.5 392.6 L 21.5 393.3 L 21.5 394.1 L 21.5 394.8 L 21.5 395.5 L 21.5 396.3 L 21.5 397.0 L 21.5 397.7 L 21.5 398.5 L 21.5 399.2 L 21.5 399.9 L 21.5 400.7 L 21.5 401.4 L 21.5 402.1 L 21.5 402.8 L 21.5 403.6 L 21.5 404.3 L 21.5 405.0 L 21.5 405.8 L 21.5 406.5 L 21.5 407.2 L 21.5 408.0 L 20.7 408.7 L 20.7 409.4 L 20.7 410.2 L 20.7 410.9 L 20.7 411.6 L 20.7 412.4 L 20.7 413.1 L 20.7 413.8 L 20.7 414.6 L 20.7 415.3 L 20.7 416.0 L 20.7 416.8 L 20.7 417.5 L 20.7 418.2 L 20.7 419.0 L 20.7 419.7 L 20.7 420.4 L 20.7 421.2 L 20.7 421.9 L 20.7 422.6 L 20.7 423.3 L 20.7 424.1 L 20.7 424.8 L 20.7 425.5 L 20.7 426.3 L 20.7 427.0 L 20.7 427.7 L 20.7 428.5 L 20.7 429.2 L 20.7 429.9 L 20.7 430.7 L 20.7 431.4 L 20.7 432.1 L 20.7 432.9 L 20.7 433.6 L 20.7 434.3 L 20.7 435.1 L 20.7 435.8 L 20.7 436.5 L 20.7 437.3 L 20.7 438.0 L 20.7 438.7 L 20.7 439.5 L 20.7 440.2 L 20.7 440.9 L 20.7 441.6 L 20.7 442.4 L 20.7 443.1 L 20.7 443.8 L 20.7 444.6 L 20.7 445.3 L 20.7 446.0 L 20.7 446.8 L 20.7 447.5 L 20.7 448.2 L 20.7 449.0 L 20.7 449.7 L 20.7 450.4 L 20.7 451.2 L 20.7 451.9 L 20.7 452.6 L 20.7 453.4 L 20.7 454.1 L 20.7 454.8 L 20.7 455.6 L 20.7 456.3 L 20.7 457.0 L 20.7 457.8 L 20.7 458.5 L 20.7 459.2 L 20.7 459.9 L 20.7 460.7 L 20.7 461.4 L 20.7 462.1 L 20.7 462.9 L 20.7 463.6 L 20.7 464.3 L 20.7 465.1 L 20.7 465.8 L 20.7 466.5 L 20.7 467.3 L 20.7 468.0 L 20.7 468.7 L 20.7 469.5 L 20.7 470.2 L 20.7 470.9 L 20.7 471.7 L 20.7 472.4 L 20.7 473.1 L 20.7 473.9 L 20.7 474.6 L 20.7 475.3 L 20.7 476.1 L 20.7 476.8 L 20.7 477.5 L 20.7 478.2 L 20.7 479.0 L 20.7 479.7 L 20.7 480.4 L 20.7 481.2 L 20.7 481.9 L 20.7 482.6 L 20.7 483.4 L 20.7 484.1 L 20.7 484.8 L 20.7 485.6 L 20.7 486.3 L 20.7 487.0 L 20.0 487.8 L 20.7 488.5 L 20.7 489.2 L 20.7 490.0 L 20.7 490.7 L 20.7 491.4 L 20.0 492.2 L 20.7 492.9 L 20.7 493.6 L 20.7 494.4 L 20.0 495.1 L 20.7 495.8 L 20.0 496.5 L 20.0 497.3 L 20.0 498.0 L 20.0 498.7 L 20.0 499.5 L 20.0 500.2 L 20.0 500.9 L 20.0 501.7 L 20.0 502.4 L 20.0 503.1 L 20.7 503.9 L 20.7 504.6 L 20.7 505.3 L 20.7 506.1 L 20.7 506.8 L 20.7 507.5 L 20.0 508.3 L 20.0 509.0 L 20.0 509.7 L 20.0 510.5 L 20.0 511.2 L 20.0 511.9 L 20.0 512.7 L 20.0 513.4 L 20.0 514.1 L 20.0 514.8 L 20.0 515.6 L 20.0 516.3 L 20.0 517.0 L 20.0 517.8 L 20.0 518.5 L 20.0 519.2 L 20.0 520.0 L 20.0 520.7 L 20.0 521.4 L 20.0 522.2 L 20.0 522.9 L 20.0 523.6 L 20.0 524.4 L 20.0 525.1 L 20.0 525.8 L 20.0 526.6 L 20.0 527.3 L 20.0 528.0 L 20.0 528.8 L 20.0 529.5 L 20.0 530.2 L 20.0 531.0 L 20.0 531.7 L 20.0 532.4 L 20.0 533.2 L 20.0 533.9 L 20.0 534.6 L 20.0 535.3 L 20.0 536.1 L 20.0 536.8 L 20.0 537.5 L 20.0 538.3 L 20.0 539.0 L 20.0 539.7 L 20.0 540.5 L 20.0 541.2 L 20.0 541.9 L 20.0 542.7 L 20.0 543.4 L 20.7 544.1 L 20.7 544.9 L 20.7 545.6 L 20.7 546.3 L 20.7 547.1 L 20.7 547.8 L 20.7 548.5 L 20.7 549.3 L 20.7 550.0 L 20.7 550.7 L 20.7 551.5 L 20.7 552.2 L 20.7 552.9 L 20.7 553.6 L 20.7 554.4 L 20.7 555.1 L 20.7 555.8 L 20.7 556.6 L 20.7 557.3 L 20.7 558.0 L 20.7 558.8 L 20.7 559.5 L 20.7 560.2 L 20.7 561.0 L 20.7 561.7 L 20.7 562.4 L 20.7 563.2 L 20.7 563.9 L 20.7 564.6 L 20.7 565.4 L 20.0 566.1 L 20.0 566.8 L 20.0 567.6 L 20.0 568.3 L 20.0 569.0 L 20.7 569.8 L 20.7 570.5 L 20.7 571.2 L 20.7 571.9 L 20.7 572.7 L 20.7 573.4 L 20.7 574.1 L 20.7 574.9 L 20.7 575.6 L 21.5 575.6 L 22.2 575.6 L 22.9 576.3 L 23.7 576.3 L 24.4 576.3 L 25.1 576.3 L 25.9 576.3 L 26.6 576.3 L 27.3 576.3 L 28.1 576.3 L 28.8 576.3 L 29.5 576.3 L 30.2 576.3 L 31.0 576.3 L 31.7 576.3 L 32.4 576.3 L 33.2 576.3 L 33.9 576.3 L 34.6 576.3 L 35.4 576.3 L 36.1 576.3 L 36.8 576.3 L 37.6 576.3 L 38.3 576.3 L 39.0 576.3 L 39.8 576.3 L 40.5 576.3 L 41.2 576.3 L 42.0 576.3 L 42.7 576.3 L 43.4 576.3 L 44.2 576.3 L 44.9 576.3 L 45.6 576.3 L 46.4 576.3 L 47.1 576.3 L 47.8 576.3 L 48.5 576.3 L 49.3 576.3 L 50.0 576.3 L 50.7 576.3 L 51.5 576.3 L 52.2 576.3 L 52.9 576.3 L 53.7 576.3 L 54.4 576.3 L 55.1 576.3 L 55.9 576.3 L 56.6 576.3 L 57.3 576.3 L 58.1 576.3 L 58.8 576.3 L 59.5 576.3 L 60.3 576.3 L 61.0 576.3 L 61.7 576.3 L 62.5 576.3 L 63.2 576.3 L 63.9 576.3 L 64.7 576.3 L 65.4 576.3 L 66.1 576.3 L 66.8 576.3 L 67.6 576.3 L 68.3 576.3 L 69.0 576.3 L 69.8 576.3 L 70.5 576.3 L 71.2 576.3 L 72.0 576.3 L 72.7 577.1 L 73.4 577.1 L 74.2 577.1 L 74.9 577.1 L 75.6 577.1 L 76.4 577.1 L 77.1 577.1 L 77.8 577.1 L 78.6 577.1 L 79.3 577.1 L 80.0 577.1 L 80.8 577.1 L 81.5 577.1 L 82.2 577.1 L 83.0 577.1 L 83.7 577.1 L 84.4 577.1 L 85.2 577.1 L 85.9 577.1 L 86.6 577.1 L 87.3 577.1 L 88.1 577.1 L 88.8 577.1 L 89.5 577.1 L 90.3 577.1 L 91.0 577.1 L 91.7 577.1 L 92.5 577.1 L 93.2 577.1 L 93.9 577.1 L 94.7 577.1 L 95.4 577.1 L 96.1 577.1 L 96.9 577.1 L 97.6 577.1 L 98.3 577.1 L 99.1 577.1 L 99.8 577.1 L 100.5 577.1 L 101.3 577.1 L 102.0 577.1 L 102.7 577.1 L 103.5 577.1 L 104.2 577.1 L 104.9 577.1 L 105.6 577.1 L 106.4 577.1 L 107.1 577.1 L 107.8 577.1 L 108.6 577.1 L 109.3 577.1 L 110.0 577.1 L 110.8 577.1 L 111.5 577.1 L 112.2 577.1 L 113.0 577.1 L 113.7 577.1 L 114.4 577.1 L 115.2 577.1 L 115.9 577.1 L 116.6 577.1 L 117.4 577.1 L 118.1 577.1 L 118.8 577.1 L 119.6 577.1 L 120.3 577.1 L 121.0 577.1 L 121.8 577.1 L 122.5 577.1 L 123.2 577.1 L 123.9 577.1 L 124.7 577.1 L 125.4 577.1 L 126.1 577.1 L 126.9 577.1 L 127.6 577.1 L 128.3 577.1 L 129.1 577.1 L 129.8 577.1 L 130.5 577.1 L 131.3 577.1 L 132.0 577.1 L 132.7 577.1 L 133.5 577.1 L 134.2 577.1 L 134.9 577.1 L 135.7 577.1 L 136.4 577.1 L 137.1 577.1 L 137.9 577.1 L 138.6 577.1 L 139.3 577.1 L 140.1 577.1 L 140.8 577.1 L 141.5 577.1 L 142.2 577.1 L 143.0 577.1 L 143.7 577.1 L 144.4 577.1 L 145.2 577.1 L 145.9 577.1 L 146.6 577.1 L 147.4 577.1 L 148.1 577.1 L 148.8 577.1 L 149.6 577.1 L 150.3 577.1 L 151.0 577.1 L 151.8 577.1 L 152.5 577.1 L 153.2 577.1 L 154.0 577.1 L 154.7 577.1 L 155.4 577.1 L 156.2 577.1 L 156.9 577.1 L 157.6 577.1 L 158.4 577.1 L 159.1 577.1 L 159.8 577.1 L 160.5 577.1 L 161.3 577.1 L 162.0 577.1 L 162.7 577.1 L 163.5 577.1 L 164.2 577.1 L 164.9 577.1 L 165.7 577.1 L 166.4 577.1 L 167.1 577.1 L 167.9 577.1 L 168.6 577.1 L 169.3 577.1 L 170.1 577.1 L 170.8 577.1 L 171.5 577.1 L 172.3 577.8 L 173.0 577.8 L 173.7 577.8 L 174.5 577.1 L 175.2 577.1 L 175.9 577.1 L 176.7 577.1 L 177.4 577.8 L 178.1 577.8 L 178.8 577.8 L 179.6 577.8 L 180.3 577.8 L 181.0 577.8 L 181.8 577.8 L 182.5 577.8 L 183.2 577.8 L 184.0 577.8 L 184.7 577.8 L 185.4 577.8 L 186.2 577.8 L 186.9 577.8 L 187.6 577.8 L 188.4 577.8 L 189.1 577.8 L 189.8 577.8 L 190.6 577.8 L 191.3 577.8 L 192.0 577.8 L 192.8 577.8 L 193.5 577.8 L 194.2 577.8 L 195.0 577.8 L 195.7 577.8 L 196.4 577.8 L 197.2 577.8 L 197.9 577.8 L 198.6 577.8 L 199.3 577.8 L 200.1 577.8 L 200.8 577.8 L 201.5 577.8 L 202.3 577.8 L 203.0 577.8 L 203.7 577.8 L 204.5 577.8 L 205.2 577.8 L 205.9 577.8 L 206.7 577.8 L 207.4 577.8 L 208.1 577.8 L 208.9 577.8 L 209.6 577.8 L 210.3 577.8 L 211.1 577.8 L 211.8 577.8 L 212.5 577.8 L 213.3 577.8 L 214.0 577.8 L 214.7 577.8 L 215.5 577.8 L 216.2 577.8 L 216.9 577.8 L 217.6 577.8 L 218.4 577.8 L 219.1 577.8 L 219.8 577.8 L 220.6 577.8 L 221.3 577.8 L 222.0 577.8 L 222.8 577.8 L 223.5 577.8 L 224.2 577.8 L 225.0 577.8 L 225.7 577.8 L 226.4 577.8 L 227.2 577.8 L 227.9 577.8 L 228.6 577.8 L 229.4 577.8 L 230.1 577.8 L 230.8 577.8 L 231.6 577.8 L 232.3 577.8 L 233.0 577.8 L 233.8 577.8 L 234.5 577.8 L 235.2 577.8 L 235.9 577.8 L 236.7 577.8 L 237.4 577.8 L 238.1 577.8 L 238.9 577.8 L 239.6 577.8 L 240.3 577.8 L 241.1 577.8 L 241.8 577.8 L 242.5 577.8 L 243.3 577.8 L 244.0 577.8 L 244.7 577.8 L 245.5 577.8 L 246.2 577.8 L 246.9 577.8 L 247.7 577.8 L 248.4 577.8 L 249.1 577.8 L 249.9 577.8 L 250.6 577.8 L 251.3 577.8 L 252.1 577.8 L 252.8 577.8 L 253.5 577.8 L 254.2 577.8 L 255.0 577.8 L 255.7 577.8 L 256.4 577.8 L 257.2 577.8 L 257.9 577.8 L 258.6 577.8 L 259.4 577.8 L 260.1 577.8 L 260.8 577.8 L 261.6 577.8 L 262.3 577.8 L 263.0 577.8 L 263.8 577.8 L 264.5 577.8 L 265.2 577.8 L 266.0 577.8 L 266.7 577.8 L 267.4 577.8 L 268.2 578.5 L 268.9 578.5 L 269.6 578.5 L 270.4 578.5 L 271.1 577.8 L 271.8 577.8 L 272.5 577.8 L 273.3 577.8 L 274.0 577.8 L 274.7 577.8 L 275.5 577.8 L 276.2 577.8 L 276.9 578.5 L 277.7 578.5 L 278.4 578.5 L 279.1 578.5 L 279.9 578.5 L 280.6 578.5 L 281.3 578.5 L 282.1 578.5 L 282.8 578.5 L 283.5 578.5 L 284.3 578.5 L 285.0 578.5 L 285.7 578.5 L 286.5 578.5 L 287.2 578.5 L 287.9 578.5 L 288.7 578.5 L 289.4 578.5 L 290.1 578.5 L 290.8 578.5 L 291.6 578.5 L 292.3 578.5 L 293.0 578.5 L 293.8 578.5 L 294.5 578.5 L 295.2 578.5 L 296.0 578.5 L 296.7 578.5 L 297.4 578.5 L 298.2 578.5 L 298.9 578.5 L 299.6 578.5 L 300.4 578.5 L 301.1 578.5 L 301.8 578.5 L 302.6 578.5 L 303.3 578.5 L 304.0 578.5 L 304.8 578.5 L 305.5 578.5 L 306.2 578.5 L 307.0 578.5 L 307.7 578.5 L 308.4 578.5 L 309.2 578.5 L 309.9 578.5 L 310.6 578.5 L 311.3 578.5 L 312.1 578.5 L 312.8 578.5 L 313.5 578.5 L 314.3 578.5 L 315.0 578.5 L 315.7 578.5 L 316.5 578.5 L 317.2 578.5 L 317.9 578.5 L 318.7 578.5 L 319.4 578.5 L 320.1 578.5 L 320.9 578.5 L 321.6 578.5 L 322.3 578.5 L 323.1 578.5 L 323.8 578.5 L 324.5 578.5 L 325.3 578.5 L 326.0 578.5 L 326.7 578.5 L 327.5 578.5 L 328.2 578.5 L 328.9 578.5 L 329.6 578.5 L 330.4 578.5 L 331.1 578.5 L 331.8 579.3 L 332.6 579.3 L 333.3 579.3 L 334.0 579.3 L 334.8 579.3 L 335.5 579.3 L 336.2 579.3 L 337.0 579.3 L 337.7 579.3 L 338.4 579.3 L 339.2 579.3 L 339.9 579.3 L 340.6 579.3 L 341.4 579.3 L 342.1 579.3 L 342.8 579.3 L 343.6 579.3 L 344.3 579.3 L 345.0 579.3 L 345.8 579.3 L 346.5 579.3 L 347.2 579.3 L 347.9 579.3 L 348.7 579.3 L 349.4 579.3 L 350.1 579.3 L 350.9 579.3 L 351.6 579.3 L 352.3 579.3 L 353.1 579.3 L 353.8 579.3 L 354.5 579.3 L 355.3 579.3 L 356.0 579.3 L 356.7 579.3 L 357.5 579.3 L 358.2 579.3 L 358.9 579.3 L 359.7 579.3 L 360.4 579.3 L 361.1 579.3 L 361.9 579.3 L 362.6 579.3 L 363.3 579.3 L 364.1 579.3 L 364.8 579.3 L 365.5 579.3 L 366.2 579.3 L 367.0 579.3 L 367.7 579.3 L 368.4 579.3 L 369.2 579.3 L 369.9 579.3 L 370.6 579.3 L 371.4 579.3 L 372.1 579.3 L 372.8 579.3 L 373.6 579.3 L 374.3 579.3 L 375.0 579.3 L 375.8 579.3 L 376.5 579.3 L 377.2 579.3 L 378.0 579.3 L 378.7 579.3 L 379.4 579.3 L 380.2 579.3 L 380.9 579.3 L 381.6 579.3 L 382.4 579.3 L 383.1 579.3 L 383.8 579.3 L 384.5 579.3 L 385.3 579.3 L 386.0 579.3 L 386.7 579.3 L 387.5 579.3 L 388.2 579.3 L 388.9 580.0 L 389.7 580.0 L 390.4 580.0 L 391.1 580.0 L 391.9 580.0 L 392.6 580.0 L 393.3 580.0 L 394.1 580.0 L 394.8 580.0 L 395.5 580.0 L 396.3 580.0 L 397.0 580.0 L 397.7 580.0 L 398.5 580.0 L 399.2 580.0 L 399.9 580.0 L 400.7 580.0 L 401.4 580.0 L 402.1 580.0 L 402.8 580.0 L 403.6 580.0 L 404.3 580.0 L 405.0 580.0 L 405.8 580.0 L 406.5 580.0 L 407.2 580.0 L 408.0 580.0 L 408.7 580.0 L 409.4 580.0 L 410.2 580.0 L 410.9 580.0 L 411.6 580.0 L 412.4 580.0 L 413.1 580.0 L 413.8 580.0 L 414.6 580.0 L 415.3 580.0 L 416.0 580.0 L 416.8 580.0 L 417.5 580.0 L 418.2 580.0 L 419.0 580.0 L 419.7 580.0 L 420.4 580.0 L 421.2 580.0 L 421.9 580.0 L 422.6 580.0 L 423.3 580.0 L 424.1 580.0 L 424.8 580.0 L 425.5 580.0 L 426.3 580.0 L 427.0 580.0 L 427.7 580.0 L 428.5 580.0 L 429.2 580.0 L 429.9 580.0 L 430.7 580.0 L 431.4 580.0 L 432.1 580.0 L 432.9 580.0 L 433.6 580.0 L 434.3 580.0 L 435.1 580.0 L 435.8 580.0 L 436.5 580.0 L 437.3 580.0 L 438.0 580.0 L 438.7 580.0 L 439.5 580.0 L 440.2 580.0 L 440.9 580.0 L 441.6 580.0 L 442.4 580.0 L 443.1 580.0 L 443.8 580.0 L 444.6 580.0 L 445.3 580.0 L 446.0 580.0 L 446.8 580.0 L 447.5 580.0 L 448.2 580.0 L 449.0 580.0 L 449.7 580.0 L 450.4 580.0 L 451.2 580.0 L 451.9 580.0 L 452.6 580.0 L 453.4 580.0 L 454.1 580.0 L 454.8 580.0 L 455.6 580.0 L 456.3 580.0 L 457.0 580.0 L 457.8 580.0 L 458.5 580.0 L 459.2 580.0 L 459.9 580.0 L 460.7 580.0 L 461.4 580.0 L 462.1 580.0 L 462.9 580.0 L 463.6 579.3 L 463.6 578.5 L 463.6 577.8 L 463.6 577.1 L 463.6 576.3 L 463.6 575.6 L 463.6 574.9 L 463.6 574.1 L 463.6 573.4 L 463.6 572.7 L 463.6 571.9 L 463.6 571.2 L 463.6 570.5 L 463.6 569.8 L 463.6 569.0 L 463.6 568.3 L 463.6 567.6 L 463.6 566.8 L 463.6 566.1 L 463.6 565.4 L 463.6 564.6 L 463.6 563.9 L 463.6 563.2 L 463.6 562.4 L 463.6 561.7 L 463.6 561.0 L 464.3 560.2 L 464.3 559.5 L 464.3 558.8 L 464.3 558.0 L 464.3 557.3 L 464.3 556.6 L 464.3 555.8 L 464.3 555.1 L 464.3 554.4 L 464.3 553.6 L 464.3 552.9 L 464.3 552.2 L 464.3 551.5 L 464.3 550.7 L 464.3 550.0 L 464.3 549.3 L 464.3 548.5 L 464.3 547.8 L 464.3 547.1 L 464.3 546.3 L 464.3 545.6 L 464.3 544.9 L 463.6 544.1 L 463.6 543.4 L 463.6 542.7 L 463.6 541.9 L 462.9 541.2 L 462.9 540.5 L 462.9 539.7 L 462.9 539.0 L 462.9 538.3 L 462.9 537.5 L 462.9 536.8 L 462.9 536.1 L 462.9 535.3 L 462.9 534.6 L 462.9 533.9 L 462.9 533.2 L 462.9 532.4 L 462.9 531.7 L 462.9 531.0 L 462.9 530.2 L 463.6 529.5 L 463.6 528.8 L 463.6 528.0 L 463.6 527.3 L 463.6 526.6 L 463.6 525.8 L 463.6 525.1 L 463.6 524.4 L 463.6 523.6 L 463.6 522.9 L 463.6 522.2 L 463.6 521.4 L 463.6 520.7 L 463.6 520.0 L 463.6 519.2 L 463.6 518.5 L 463.6 517.8 L 463.6 517.0 L 463.6 516.3 L 463.6 515.6 L 463.6 514.8 L 463.6 514.1 L 463.6 513.4 L 463.6 512.7 L 463.6 511.9 L 463.6 511.2 L 463.6 510.5 L 463.6 509.7 L 463.6 509.0 L 463.6 508.3 L 463.6 507.5 L 463.6 506.8 L 463.6 506.1 L 463.6 505.3 L 463.6 504.6 L 463.6 503.9 L 463.6 503.1 L 463.6 502.4 L 463.6 501.7 L 463.6 500.9 L 463.6 500.2 L 463.6 499.5 L 463.6 498.7 L 463.6 498.0 L 463.6 497.3 L 463.6 496.5 L 463.6 495.8 L 463.6 495.1 L 463.6 494.4 L 463.6 493.6 L 463.6 492.9 L 463.6 492.2 L 463.6 491.4 L 463.6 490.7 L 463.6 490.0 L 463.6 489.2 L 463.6 488.5 L 464.3 487.8 L 464.3 487.0 L 464.3 486.3 L 464.3 485.6 L 464.3 484.8 L 464.3 484.1 L 464.3 483.4 L 464.3 482.6 L 464.3 481.9 L 464.3 481.2 L 464.3 480.4 L 464.3 479.7 L 464.3 479.0 L 464.3 478.2 L 464.3 477.5 L 464.3 476.8 L 464.3 476.1 L 464.3 475.3 L 464.3 474.6 L 464.3 473.9 L 464.3 473.1 L 464.3 472.4 L 464.3 471.7 L 464.3 470.9 L 464.3 470.2 L 464.3 469.5 L 464.3 468.7 L 464.3 468.0 L 464.3 467.3 L 464.3 466.5 L 464.3 465.8 L 464.3 465.1 L 464.3 464.3 L 464.3 463.6 L 464.3 462.9 L 464.3 462.1 L 464.3 461.4 L 464.3 460.7 L 464.3 459.9 L 464.3 459.2 L 464.3 458.5 L 464.3 457.8 L 464.3 457.0 L 464.3 456.3 L 464.3 455.6 L 464.3 454.8 L 464.3 454.1 L 464.3 453.4 L 464.3 452.6 L 464.3 451.9 L 464.3 451.2 L 464.3 450.4 L 464.3 449.7 L 464.3 449.0 L 464.3 448.2 L 464.3 447.5 L 464.3 446.8 L 464.3 446.0 L 464.3 445.3 L 464.3 444.6 L 464.3 443.8 L 464.3 443.1 L 464.3 442.4 L 464.3 441.6 L 464.3 440.9 L 464.3 440.2 L 464.3 439.5 L 464.3 438.7 L 464.3 438.0 L 464.3 437.3 L 464.3 436.5 L 464.3 435.8 L 464.3 435.1 L 464.3 434.3 L 464.3 433.6 L 464.3 432.9 L 464.3 432.1 L 464.3 431.4 L 464.3 430.7 L 464.3 429.9 L 464.3 429.2 L 464.3 428.5 L 464.3 427.7 L 464.3 427.0 L 464.3 426.3 L 464.3 425.5 L 464.3 424.8 L 464.3 424.1 L 464.3 423.3 L 464.3 422.6 L 464.3 421.9 L 464.3 421.2 L 464.3 420.4 L 464.3 419.7 L 464.3 419.0 L 464.3 418.2 L 464.3 417.5 L 464.3 416.8 L 464.3 416.0 L 464.3 415.3 L 464.3 414.6 L 464.3 413.8 L 464.3 413.1 L 464.3 412.4 L 464.3 411.6 L 464.3 410.9 L 464.3 410.2 L 464.3 409.4 L 464.3 408.7 L 464.3 408.0 L 464.3 407.2 L 464.3 406.5 L 464.3 405.8 L 464.3 405.0 L 464.3 404.3 L 464.3 403.6 L 464.3 402.8 L 464.3 402.1 L 464.3 401.4 L 464.3 400.7 L 464.3 399.9 L 464.3 399.2 L 464.3 398.5 L 464.3 397.7 L 464.3 397.0 L 464.3 396.3 L 464.3 395.5 L 464.3 394.8 L 464.3 394.1 L 464.3 393.3 L 464.3 392.6 L 464.3 391.9 L 464.3 391.1 L 464.3 390.4 L 464.3 389.7 L 464.3 388.9 L 464.3 388.2 L 464.3 387.5 L 464.3 386.7 L 464.3 386.0 L 464.3 385.3 L 464.3 384.5 L 464.3 383.8 L 464.3 383.1 L 464.3 382.4 L 464.3 381.6 L 464.3 380.9 L 464.3 380.2 L 464.3 379.4 L 464.3 378.7 L 464.3 378.0 L 464.3 377.2 L 464.3 376.5 L 464.3 375.8 L 464.3 375.0 L 464.3 374.3 L 464.3 373.6 L 464.3 372.8 L 464.3 372.1 L 464.3 371.4 L 464.3 370.6 L 464.3 369.9 L 465.1 369.2 L 465.1 368.4 L 465.1 367.7 L 465.1 367.0 L 465.1 366.2 L 465.1 365.5 L 465.1 364.8 L 465.1 364.1 L 465.1 363.3 L 465.1 362.6 L 465.1 361.9 L 465.1 361.1 L 465.1 360.4 L 465.1 359.7 L 465.1 358.9 L 465.1 358.2 L 465.1 357.5 L 465.1 356.7 L 464.3 356.0 L 465.1 355.3 L 464.3 354.5 L 464.3 353.8 L 464.3 353.1 L 465.1 352.3 L 464.3 351.6 L 464.3 350.9 L 464.3 350.1 L 464.3 349.4 L 464.3 348.7 L 464.3 347.9 L 464.3 347.2 L 464.3 346.5 L 465.1 345.8 L 464.3 345.0 L 464.3 344.3 L 465.1 343.6 L 465.1 342.8 L 465.1 342.1 L 465.1 341.4 L 465.1 340.6 L 465.1 339.9 L 465.1 339.2 L 465.1 338.4 L 465.1 337.7 L 465.1 337.0 L 465.1 336.2 L 465.1 335.5 L 465.1 334.8 L 465.1 334.0 L 465.1 333.3 L 465.1 332.6 L 465.1 331.8 L 465.1 331.1 L 465.1 330.4 L 465.1 329.6 L 465.1 328.9 L 465.1 328.2 L 465.1 327.5 L 465.1 326.7 L 465.1 326.0 L 465.1 325.3 L 465.1 324.5 L 465.1 323.8 L 465.1 323.1 L 465.1 322.3 L 465.1 321.6 L 465.1 320.9 L 465.1 320.1 L 465.1 319.4 L 465.1 318.7 L 465.1 317.9 L 465.1 317.2 L 465.1 316.5 L 465.1 315.7 L 465.1 315.0 L 465.1 314.3 L 465.1 313.5 L 465.1 312.8 L 465.1 312.1 L 465.1 311.3 L 465.1 310.6 L 465.1 309.9 L 465.1 309.2 L 465.1 308.4 L 465.1 307.7 L 465.1 307.0 L 465.1 306.2 L 465.1 305.5 L 465.1 304.8 L 465.1 304.0 L 465.1 303.3 L 465.1 302.6 L 465.1 301.8 L 465.1 301.1 L 465.1 300.4 L 465.1 299.6 L 465.1 298.9 L 465.1 298.2 L 465.1 297.4 L 465.1 296.7 L 465.1 296.0 L 465.1 295.2 L 465.1 294.5 L 465.1 293.8 L 465.1 293.0 L 465.1 292.3 L 465.1 291.6 L 465.1 290.8 L 465.1 290.1 L 465.1 289.4 L 465.1 288.7 L 465.1 287.9 L 465.1 287.2 L 465.1 286.5 L 465.1 285.7 L 465.1 285.0 L 465.1 284.3 L 465.1 283.5 L 465.1 282.8 L 465.1 282.1 L 465.1 281.3 L 465.1 280.6 L 465.1 279.9 L 465.1 279.1 L 465.1 278.4 L 465.1 277.7 L 465.1 276.9 L 465.1 276.2 L 465.1 275.5 L 465.1 274.7 L 465.1 274.0 L 465.1 273.3 L 465.1 272.5 L 465.1 271.8 L 465.1 271.1 L 465.1 270.4 L 465.1 269.6 L 465.8 268.9 L 465.8 268.2 L 465.8 267.4 L 465.8 266.7 L 465.8 266.0 L 465.8 265.2 L 465.8 264.5 L 465.1 263.8 L 465.8 263.0 L 465.8 262.3 L 465.8 261.6 L 465.8 260.8 L 465.8 260.1 L 465.8 259.4 L 465.8 258.6 L 465.8 257.9 L 465.8 257.2 L 465.8 256.4 L 465.8 255.7 L 465.8 255.0 L 465.8 254.2 L 465.8 253.5 L 465.8 252.8 L 465.8 252.1 L 465.8 251.3 L 465.8 250.6 L 465.8 249.9 L 465.8 249.1 L 465.8 248.4 L 465.8 247.7 L 465.1 246.9 L 465.1 246.2 L 465.8 245.5 L 465.8 244.7 L 465.8 244.0 L 465.8 243.3 L 465.8 242.5 L 465.8 241.8 L 465.8 241.1 L 465.8 240.3 L 465.8 239.6 L 465.8 238.9 L 465.8 238.1 L 465.8 237.4 L 465.8 236.7 L 465.8 235.9 L 465.8 235.2 L 465.8 234.5 L 465.8 233.8 L 465.8 233.0 L 465.8 232.3 L 465.8 231.6 L 465.8 230.8 L 465.8 230.1 L 465.8 229.4 L 465.8 228.6 L 465.8 227.9 L 465.8 227.2 L 465.8 226.4 L 465.8 225.7 L 465.8 225.0 L 465.8 224.2 L 465.8 223.5 L 465.8 222.8 L 465.8 222.0 L 465.8 221.3 L 466.5 220.6 L 466.5 219.8 L 466.5 219.1 L 466.5 218.4 L 466.5 217.6 L 466.5 216.9 L 465.8 216.2 L 465.8 215.5 L 465.8 214.7 L 465.8 214.0 L 466.5 213.3 L 466.5 212.5 L 465.8 211.8 L 465.8 211.1 L 465.8 210.3 L 465.8 209.6 L 465.8 208.9 L 465.8 208.1 L 465.8 207.4 L 465.8 206.7 L 465.8 205.9 L 465.8 205.2 L 465.8 204.5 L 465.8 203.7 L 465.8 203.0 L 465.8 202.3 L 465.8 201.5 L 465.8 200.8 L 465.8 200.1 L 465.8 199.3 L 465.8 198.6 L 465.8 197.9 L 466.5 197.2 L 466.5 196.4 L 466.5 195.7 L 466.5 195.0 L 466.5 194.2 L 466.5 193.5 L 466.5 192.8 L 466.5 192.0 L 466.5 191.3 L 466.5 190.6 L 466.5 189.8 L 466.5 189.1 L 466.5 188.4 L 466.5 187.6 L 466.5 186.9 L 466.5 186.2 L 466.5 185.4 L 466.5 184.7 L 466.5 184.0 L 466.5 183.2 L 466.5 182.5 L 466.5 181.8 L 466.5 181.0 L 466.5 180.3 L 466.5 179.6 L 466.5 178.8 L 466.5 178.1 L 466.5 177.4 L 466.5 176.7 L 466.5 175.9 L 466.5 175.2 L 466.5 174.5 L 466.5 173.7 L 466.5 173.0 L 466.5 172.3 L 466.5 171.5 L 466.5 170.8 L 466.5 170.1 L 466.5 169.3 L 466.5 168.6 L 466.5 167.9 L 466.5 167.1 L 466.5 166.4 L 466.5 165.7 L 466.5 164.9 L 466.5 164.2 L 466.5 163.5 L 466.5 162.7 L 466.5 162.0 L 466.5 161.3 L 466.5 160.5 L 466.5 159.8 L 466.5 159.1 L 466.5 158.4 L 466.5 157.6 L 466.5 156.9 L 466.5 156.2 L 466.5 155.4 L 466.5 154.7 L 466.5 154.0 L 466.5 153.2 L 466.5 152.5 L 466.5 151.8 L 466.5 151.0 L 466.5 150.3 L 466.5 149.6 L 466.5 148.8 L 466.5 148.1 L 466.5 147.4 L 466.5 146.6 L 466.5 145.9 L 466.5 145.2 L 466.5 144.4 L 466.5 143.7 L 466.5 143.0 L 466.5 142.2 L 466.5 141.5 L 466.5 140.8 L 466.5 140.1 L 466.5 139.3 L 466.5 138.6 L 466.5 137.9 L 466.5 137.1 L 466.5 136.4 L 466.5 135.7 L 466.5 134.9 L 466.5 134.2 L 466.5 133.5 L 466.5 132.7 L 466.5 132.0 L 466.5 131.3 L 466.5 130.5 L 466.5 129.8 L 466.5 129.1 L 466.5 128.3 L 466.5 127.6 L 466.5 126.9 L 466.5 126.1 L 466.5 125.4 L 466.5 124.7 L 466.5 123.9 L 466.5 123.2 L 466.5 122.5 L 466.5 121.8 L 466.5 121.0 L 466.5 120.3 L 466.5 119.6 L 466.5 118.8 L 467.3 118.1 L 467.3 117.4 L 467.3 116.6 L 467.3 115.9 L 467.3 115.2 L 467.3 114.4 L 467.3 113.7 L 467.3 113.0 L 467.3 112.2 L 467.3 111.5 L 467.3 110.8 L 467.3 110.0 L 467.3 109.3 L 467.3 108.6 L 467.3 107.8 L 467.3 107.1 L 467.3 106.4 L 466.5 105.6 L 466.5 104.9 L 466.5 104.2 L 466.5 103.5 L 466.5 102.7 L 466.5 102.0 L 466.5 101.3 L 466.5 100.5 L 466.5 99.8 L 466.5 99.1 L 466.5 98.3 L 466.5 97.6 L 466.5 96.9 L 466.5 96.1 L 466.5 95.4 L 467.3 94.7 L 467.3 93.9 L 467.3 93.2 L 467.3 92.5 L 467.3 91.7 L 466.5 91.0 L 466.5 90.3 L 466.5 89.5 L 467.3 88.8 L 467.3 88.1 L 467.3 87.3 L 467.3 86.6 L 467.3 85.9 L 467.3 85.2 L 467.3 84.4 L 467.3 83.7 L 467.3 83.0 L 467.3 82.2 L 467.3 81.5 L 467.3 80.8 L 467.3 80.0 L 467.3 79.3 L 467.3 78.6 L 467.3 77.8 L 467.3 77.1 L 467.3 76.4 L 467.3 75.6 L 467.3 74.9 L 467.3 74.2 L 467.3 73.4 L 467.3 72.7 L 467.3 72.0 L 467.3 71.2 L 467.3 70.5 L 467.3 69.8 L 467.3 69.0 L 467.3 68.3 L 467.3 67.6 L 467.3 66.8 L 467.3 66.1 L 467.3 65.4 L 467.3 64.7 L 467.3 63.9 L 467.3 63.2 L 467.3 62.5 L 467.3 61.7 L 467.3 61.0 L 467.3 60.3 L 467.3 59.5 L 467.3 58.8 L 467.3 58.1 L 467.3 57.3 L 467.3 56.6 L 467.3 55.9 L 467.3 55.1 L 467.3 54.4 L 467.3 53.7 L 467.3 52.9 L 467.3 52.2 L 467.3 51.5 L 467.3 50.7 L 467.3 50.0 L 467.3 49.3 L 467.3 48.5 L 467.3 47.8 L 467.3 47.1 L 467.3 46.4 L 467.3 45.6 L 467.3 44.9 L 467.3 44.2 L 467.3 43.4 L 467.3 42.7 L 467.3 42.0 L 467.3 41.2 L 467.3 40.5 L 467.3 39.8 L 467.3 39.0 L 467.3 38.3 L 467.3 37.6 L 467.3 36.8 L 467.3 36.1 L 467.3 35.4 L 467.3 34.6 L 467.3 33.9 L 467.3 33.2 L 467.3 32.4 L 467.3 31.7 L 467.3 31.0 L 467.3 30.2 L 467.3 29.5 L 467.3 28.8 L 467.3 28.1 L 467.3 27.3 L 467.3 26.6 L 467.3 25.9 L 467.3 25.1 L 466.5 24.4 L 465.8 24.4 L 465.1 24.4 L 464.3 24.4 L 463.6 24.4 L 462.9 24.4 L 462.1 24.4 L 461.4 24.4 L 460.7 24.4 L 459.9 24.4 L 459.2 24.4 L 458.5 24.4 L 457.8 24.4 L 457.0 24.4 L 456.3 24.4 L 455.6 24.4 L 454.8 24.4 L 454.1 24.4 L 453.4 24.4 L 452.6 24.4 L 451.9 24.4 L 451.2 24.4 L 450.4 24.4 L 449.7 24.4 L 449.0 24.4 L 448.2 24.4 L 447.5 24.4 L 446.8 24.4 L 446.0 24.4 L 445.3 24.4 L 444.6 24.4 L 443.8 24.4 L 443.1 24.4 L 442.4 24.4 L 441.6 24.4 L 440.9 24.4 L 440.2 24.4 L 439.5 24.4 L 438.7 24.4 L 438.0 23.7 L 437.3 23.7 L 436.5 23.7 L 435.8 23.7 L 435.1 23.7 L 434.3 23.7 L 433.6 23.7 L 432.9 23.7 L 432.1 23.7 L 431.4 23.7 L 430.7 23.7 L 429.9 23.7 L 429.2 23.7 L 428.5 23.7 L 427.7 23.7 L 427.0 23.7 L 426.3 23.7 L 425.5 23.7 L 424.8 23.7 L 424.1 23.7 L 423.3 23.7 L 422.6 23.7 L 421.9 23.7 L 421.2 23.7 L 420.4 23.7 L 419.7 23.7 L 419.0 23.7 L 418.2 23.7 L 417.5 23.7 L 416.8 23.7 L 416.0 23.7 L 415.3 23.7 L 414.6 23.7 L 413.8 23.7 L 413.1 23.7 L 412.4 23.7 L 411.6 23.7 L 410.9 23.7 L 410.2 23.7 L 409.4 23.7 L 408.7 23.7 L 408.0 23.7 L 407.2 23.7 L 406.5 23.7 L 405.8 23.7 L 405.0 23.7 L 404.3 23.7 L 403.6 23.7 L 402.8 23.7 L 402.1 23.7 L 401.4 23.7 L 400.7 23.7 L 399.9 23.7 L 399.2 23.7 L 398.5 23.7 L 397.7 23.7 L 397.0 23.7 L 396.3 23.7 L 395.5 23.7 L 394.8 23.7 L 394.1 23.7 L 393.3 23.7 L 392.6 23.7 L 391.9 23.7 L 391.1 23.7 L 390.4 23.7 L 389.7 23.7 L 388.9 23.7 L 388.2 23.7 L 387.5 23.7 L 386.7 23.7 L 386.0 23.7 L 385.3 23.7 L 384.5 23.7 L 383.8 23.7 L 383.1 23.7 L 382.4 23.7 L 381.6 23.7 L 380.9 23.7 L 380.2 23.7 L 379.4 23.7 L 378.7 23.7 L 378.0 23.7 L 377.2 23.7 L 376.5 23.7 L 375.8 23.7 L 375.0 23.7 L 374.3 23.7 L 373.6 23.7 L 372.8 23.7 L 372.1 23.7 L 371.4 23.7 L 370.6 23.7 L 369.9 23.7 L 369.2 23.7 L 368.4 23.7 L 367.7 23.7 L 367.0 22.9 L 366.2 22.9 L 365.5 22.9 L 364.8 22.9 L 364.1 22.9 L 363.3 22.9 L 362.6 22.9 L 361.9 22.9 L 361.1 22.9 L 360.4 22.9 L 359.7 22.9 L 358.9 22.9 L 358.2 22.9 L 357.5 22.9 L 356.7 22.9 L 356.0 22.9 L 355.3 22.9 L 354.5 22.9 L 353.8 22.9 L 353.1 22.9 L 352.3 22.9 L 351.6 22.9 L 350.9 22.9 L 350.1 22.9 L 349.4 22.9 L 348.7 22.9 L 347.9 22.9 L 347.2 22.9 L 346.5 22.9 L 345.8 22.9 L 345.0 22.9 L 344.3 22.9 L 343.6 22.9 L 342.8 22.9 L 342.1 22.9 L 341.4 22.9 L 340.6 22.9 L 339.9 22.9 L 339.2 22.9 L 338.4 22.9 L 337.7 22.9 L 337.0 22.9 L 336.2 22.9 L 335.5 22.9 L 334.8 22.9 L 334.0 22.9 L 333.3 22.9 L 332.6 22.9 L 331.8 22.9 L 331.1 22.9 L 330.4 22.9 L 329.6 22.9 L 328.9 22.9 L 328.2 22.9 L 327.5 22.9 L 326.7 22.9 L 326.0 22.9 L 325.3 22.9 L 324.5 22.9 L 323.8 22.9 L 323.1 22.9 L 322.3 22.9 L 321.6 22.9 L 320.9 22.9 L 320.1 22.9 L 319.4 22.9 L 318.7 22.9 L 317.9 22.9 L 317.2 22.9 L 316.5 22.9 L 315.7 22.9 L 315.0 22.9 L 314.3 22.9 L 313.5 22.9 L 312.8 22.9 L 312.1 22.9 L 311.3 22.2 L 310.6 22.2 L 309.9 22.2 L 309.2 22.2 L 308.4 22.2 L 307.7 22.2 L 307.0 22.2 L 306.2 22.2 L 305.5 22.2 L 304.8 22.2 L 304.0 22.2 L 303.3 22.2 L 302.6 22.2 L 301.8 22.2 L 301.1 22.2 L 300.4 22.2 L 299.6 22.2 L 298.9 22.2 L 298.2 22.2 L 297.4 22.2 L 296.7 22.2 L 296.0 22.2 L 295.2 22.2 L 294.5 22.2 L 293.8 22.2 L 293.0 22.2 L 292.3 22.2 L 291.6 22.2 L 290.8 22.2 L 290.1 22.2 L 289.4 22.2 L 288.7 22.2 L 287.9 22.2 L 287.2 22.2 L 286.5 22.2 L 285.7 22.2 L 285.0 22.2 L 284.3 22.2 L 283.5 22.2 L 282.8 22.2 L 282.1 22.2 L 281.3 22.2 L 280.6 22.2 L 279.9 22.2 L 279.1 22.2 L 278.4 22.2 L 277.7 22.2 L 276.9 22.2 L 276.2 22.2 L 275.5 22.2 L 274.7 22.2 L 274.0 22.2 L 273.3 22.2 L 272.5 22.2 L 271.8 22.2 L 271.1 22.2 L 270.4 22.2 L 269.6 22.2 L 268.9 22.2 L 268.2 22.2 L 267.4 22.2 L 266.7 22.2 L 266.0 22.2 L 265.2 22.2 L 264.5 22.2 L 263.8 22.2 L 263.0 22.2 L 262.3 22.2 L 261.6 22.2 L 260.8 22.2 L 260.1 22.2 L 259.4 22.2 L 258.6 22.2 L 257.9 22.2 L 257.2 22.2 L 256.4 22.2 L 255.7 22.2 L 255.0 22.2 L 254.2 22.2 L 253.5 22.2 L 252.8 22.2 L 252.1 22.2 L 251.3 22.2 L 250.6 22.2 L 249.9 22.2 L 249.1 22.2 L 248.4 22.2 L 247.7 22.2 L 246.9 22.2 L 246.2 22.2 L 245.5 22.2 L 244.7 22.2 L 244.0 22.2 L 243.3 22.2 L 242.5 22.2 L 241.8 22.2 L 241.1 22.2 L 240.3 22.2 L 239.6 22.2 L 238.9 22.2 L 238.1 22.2 L 237.4 22.2 L 236.7 22.2 L 235.9 22.2 L 235.2 22.2 L 234.5 22.2 L 233.8 22.2 L 233.0 22.2 L 232.3 22.2 L 231.6 22.2 L 230.8 22.2 L 230.1 22.2 L 229.4 22.2 L 228.6 22.2 L 227.9 22.2 L 227.2 22.2 L 226.4 22.2 L 225.7 22.2 L 225.0 22.2 L 224.2 22.2 L 223.5 21.5 L 222.8 21.5 L 222.0 21.5 L 221.3 21.5 L 220.6 21.5 L 219.8 21.5 L 219.1 21.5 L 218.4 21.5 L 217.6 21.5 L 216.9 21.5 L 216.2 21.5 L 215.5 21.5 L 214.7 21.5 L 214.0 21.5 L 213.3 21.5 L 212.5 21.5 L 211.8 21.5 L 211.1 21.5 L 210.3 21.5 L 209.6 21.5 L 208.9 21.5 L 208.1 21.5 L 207.4 21.5 L 206.7 21.5 L 205.9 21.5 L 205.2 21.5 L 204.5 21.5 L 203.7 21.5 L 203.0 21.5 L 202.3 21.5 L 201.5 21.5 L 200.8 21.5 L 200.1 21.5 L 199.3 21.5 L 198.6 21.5 L 197.9 21.5 L 197.2 21.5 L 196.4 21.5 L 195.7 21.5 L 195.0 21.5 L 194.2 21.5 L 193.5 21.5 L 192.8 21.5 L 192.0 21.5 L 191.3 21.5 L 190.6 21.5 L 189.8 21.5 L 189.1 21.5 L 188.4 21.5 L 187.6 21.5 L 186.9 21.5 L 186.2 21.5 L 185.4 21.5 L 184.7 21.5 L 184.0 21.5 L 183.2 21.5 L 182.5 21.5 L 181.8 21.5 L 181.0 21.5 L 180.3 21.5 L 179.6 21.5 L 178.8 21.5 L 178.1 21.5 L 177.4 21.5 L 176.7 21.5 L 175.9 21.5 L 175.2 21.5 L 174.5 21.5 L 173.7 21.5 L 173.0 21.5 L 172.3 21.5 L 171.5 21.5 L 170.8 21.5 L 170.1 21.5 L 169.3 21.5 L 168.6 21.5 L 167.9 21.5 L 167.1 21.5 L 166.4 21.5 L 165.7 21.5 L 164.9 21.5 L 164.2 21.5 L 163.5 21.5 L 162.7 21.5 L 162.0 21.5 L 161.3 21.5 L 160.5 21.5 L 159.8 21.5 L 159.1 21.5 L 158.4 21.5 L 157.6 21.5 L 156.9 21.5 L 156.2 21.5 L 155.4 21.5 L 154.7 21.5 L 154.0 21.5 L 153.2 21.5 L 152.5 21.5 L 151.8 21.5 L 151.0 21.5 L 150.3 21.5 L 149.6 21.5 L 148.8 21.5 L 148.1 21.5 L 147.4 21.5 L 146.6 21.5 L 145.9 21.5 L 145.2 21.5 L 144.4 21.5 L 143.7 21.5 L 143.0 21.5 L 142.2 21.5 L 141.5 21.5 L 140.8 21.5 L 140.1 21.5 L 139.3 21.5 L 138.6 21.5 L 137.9 21.5 L 137.1 21.5 L 136.4 21.5 L 135.7 21.5 L 134.9 21.5 L 134.2 21.5 L 133.5 21.5 L 132.7 21.5 L 132.0 21.5 L 131.3 20.7 L 130.5 20.7 L 129.8 20.7 L 129.1 20.7 L 128.3 20.7 L 127.6 20.7 L 126.9 20.7 L 126.1 20.7 L 125.4 20.7 L 124.7 20.7 L 123.9 20.7 L 123.2 20.7 L 122.5 20.7 L 121.8 20.7 L 121.0 20.7 L 120.3 20.7 L 119.6 20.7 L 118.8 20.7 L 118.1 20.7 L 117.4 20.7 L 116.6 20.7 L 115.9 20.7 L 115.2 20.7 L 114.4 20.7 L 113.7 20.7 L 113.0 20.7 L 112.2 20.7 L 111.5 20.7 L 110.8 20.7 L 110.0 20.7 L 109.3 20.7 L 108.6 20.7 L 107.8 20.7 L 107.1 20.7 L 106.4 20.7 L 105.6 20.7 L 104.9 20.7 L 104.2 20.7 L 103.5 20.7 L 102.7 20.7 L 102.0 20.7 L 101.3 20.7 L 100.5 20.7 L 99.8 20.7 L 99.1 20.7 L 98.3 20.7 L 97.6 20.7 L 96.9 20.7 L 96.1 20.7 L 95.4 20.7 L 94.7 20.7 L 93.9 20.7 L 93.2 20.7 L 92.5 20.7 L 91.7 20.7 L 91.0 20.7 L 90.3 20.7 L 89.5 20.7 L 88.8 20.7 L 88.1 20.7 L 87.3 20.7 L 86.6 20.7 L 85.9 20.7 L 85.2 20.7 L 84.4 20.7 L 83.7 20.7 L 83.0 20.7 L 82.2 20.7 L 81.5 20.7 L 80.8 20.7 L 80.0 20.7 L 79.3 20.7 L 78.6 20.7 L 77.8 20.7 L 77.1 20.7 L 76.4 20.7 L 75.6 20.7 L 74.9 20.7 L 74.2 20.7 L 73.4 20.7 L 72.7 20.7 L 72.0 20.7 L 71.2 20.0 L 70.5 20.0 L 69.8 20.0 L 69.0 20.0 L 68.3 20.0 L 67.6 20.0 L 66.8 20.0 L 66.1 20.0 L 65.4 20.0 L 64.7 20.0 L 63.9 20.0 L 63.2 20.0 L 62.5 20.0 L 61.7 20.0 L 61.0 20.0 L 60.3 20.0 L 59.5 20.0 L 58.8 20.0 L 58.1 20.0 L 57.3 20.0 L 56.6 20.0 L 55.9 20.0 L 55.1 20.0 L 54.4 20.0 L 53.7 20.0 L 52.9 20.0 L 52.2 20.0 L 51.5 20.0 L 50.7 20.0 L 50.0 20.0 L 49.3 20.0 L 48.5 20.0 L 47.8 20.0 L 47.1 20.0 L 46.4 20.0 L 45.6 20.0 L 44.9 20.0 L 44.2 20.0 L 43.4 20.0 L 42.7 20.0 L 42.0 20.0 L 41.2 20.0 L 40.5 20.0 L 39.8 20.0 L 39.0 20.0 L 38.3 20.0 L 37.6 20.0 L 36.8 20.0 L 36.1 20.0 L 35.4 20.0 L 34.6 20.0 L 33.9 20.0 L 33.2 20.0 L 32.4 20.0 L 31.7 20.0 L 31.0 20.0 L 30.2 20.0 L 29.5 20.0 L 28.8 20.0 L 28.1 20.0 L 27.3 20.0 L 26.6 20.0 L 25.9 20.0 Z" fill="none" stroke="#2563eb" stroke-width="2"/>
</svg>