  0
SECTION
  2
HEADER
  9
$ACADVER
  1
AC1009
  9
$DWGCODEPAGE
  3
ANSI_1252
  9
$INSBASE
 10
0.0
 20
0.0
 30
0.0
  9
$EXTMIN
 10
1e+20
 20
1e+20
 30
1e+20
  9
$EXTMAX
 10
-1e+20
 20
-1e+20
 30
-1e+20
  9
$LIMMIN
 10
0.0
 20
0.0
  9
$LIMMAX
 10
420.0
 20
297.0
  9
$ORTHOMODE
 70
0
  9
$REGENMODE
 70
1
  9
$FILLMODE
 70
1
  9
$DRAGMODE
 70
2
  9
$QTEXTMODE
 70
0
  9
$MIRRTEXT
 70
1
  9
$OSMODE
 70
20583
  9
$LTSCALE
 40
1.0
  9
$ATTMODE
 70
1
  9
$TEXTSIZE
 40
2.5
  9
$TRACEWID
 40
1.0
  9
$TEXTSTYLE
  7
Standard
  9
$CLAYER
  8
0
  9
$CELTYPE
  6
ByLayer
  9
$CECOLOR
 62
256
  9
$DIMSCALE
 40
1.0
  9
$DIMASZ
 40
2.5
  9
$DIMEXO
 40
0.625
  9
$DIMDLI
 40
3.75
  9
$DIMRND
 40
0.0
  9
$DIMDLE
 40
0.0
  9
$DIMEXE
 40
1.25
  9
$DIMTP
 40
0.0
  9
$DIMTM
 40
0.0
  9
$DIMTXT
 40
2.5
  9
$DIMCEN
 40
2.5
  9
$DIMTSZ
 40
0.0
  9
$DIMTOL
 70
0
  9
$DIMLIM
 70
0
  9
$DIMTIH
 70
0
  9
$DIMTOH
 70
0
  9
$DIMSE1
 70
0
  9
$DIMSE2
 70
0
  9
$DIMTAD
 70
1
  9
$DIMZIN
 70
8
  9
$DIMBLK
  1

  9
$DIMASO
 70
1
  9
$DIMSHO
 70
1
  9
$DIMPOST
  1

  9
$DIMAPOST
  1

  9
$DIMALT
 70
0
  9
$DIMALTD
 70
3
  9
$DIMALTF
 40
0.03937007874
  9
$DIMLFAC
 40
1.0
  9
$DIMTOFL
 70
1
  9
$DIMTVP
 40
0.0
  9
$DIMTIX
 70
0
  9
$DIMSOXD
 70
0
  9
$DIMSAH
 70
0
  9
$DIMBLK1
  1

  9
$DIMBLK2
  1

  9
$DIMSTYLE
  2
ISO-25
  9
$DIMCLRD
 70
0
  9
$DIMCLRE
 70
0
  9
$DIMCLRT
 70
0
  9
$DIMTFAC
 40
1.0
  9
$DIMGAP
 40
0.625
  9
$COORDS
 70
1
  9
$ATTDIA
 70
0
  9
$ATTREQ
 70
1
  9
$HANDLING
 70
1
  9
$LUNITS
 70
2
  9
$LUPREC
 70
4
  9
$SKETCHINC
 40
1.0
  9
$FILLETRAD
 40
10.0
  9
$AUNITS
 70
0
  9
$AUPREC
 70
2
  9
$MENU
  1
.
  9
$ELEVATION
 40
0.0
  9
$PELEVATION
 40
0.0
  9
$THICKNESS
 40
0.0
  9
$LIMCHECK
 70
0
  9
$CHAMFERA
 40
0.0
  9
$CHAMFERB
 40
0.0
  9
$SKPOLY
 70
0
  9
$TDCREATE
 40
2461137.4648958333
  9
$TDUPDATE
 40
2461137.4648958333
  9
$TDINDWG
 40
0.0
  9
$TDUSRTIMER
 40
0.0
  9
$USRTIMER
 70
1
  9
$ANGBASE
 50
0.0
  9
$ANGDIR
 70
0
  9
$PDMODE
 70
0
  9
$PDSIZE
 40
0.0
  9
$PLINEWID
 40
0.0
  9
$SPLFRAME
 70
0
  9
$SPLINETYPE
 70
6
  9
$SPLINESEGS
 70
8
  9
$HANDSEED
  5
54
  9
$SURFTAB1
 70
6
  9
$SURFTAB2
 70
6
  9
$SURFTYPE
 70
6
  9
$SURFU
 70
6
  9
$SURFV
 70
6
  9
$UCSNAME
  2

  9
$UCSORG
 10
0.0
 20
0.0
 30
0.0
  9
$UCSXDIR
 10
1.0
 20
0.0
 30
0.0
  9
$UCSYDIR
 10
0.0
 20
1.0
 30
0.0
  9
$PUCSNAME
  2

  9
$PUCSORG
 10
0.0
 20
0.0
 30
0.0
  9
$PUCSXDIR
 10
1.0
 20
0.0
 30
0.0
  9
$PUCSYDIR
 10
0.0
 20
1.0
 30
0.0
  9
$USERI1
 70
0
  9
$USERI2
 70
0
  9
$USERI3
 70
0
  9
$USERI4
 70
0
  9
$USERI5
 70
0
  9
$USERR1
 40
0.0
  9
$USERR2
 40
0.0
  9
$USERR3
 40
0.0
  9
$USERR4
 40
0.0
  9
$USERR5
 40
0.0
  9
$WORLDVIEW
 70
1
  9
$SHADEDGE
 70
3
  9
$SHADEDIF
 70
70
  9
$TILEMODE
 70
1
  9
$MAXACTVP
 70
64
  9
$PLIMCHECK
 70
0
  9
$PEXTMIN
 10
1e+20
 20
1e+20
 30
1e+20
  9
$PEXTMAX
 10
-1e+20
 20
-1e+20
 30
-1e+20
  9
$PLIMMIN
 10
0.0
 20
0.0
  9
$PLIMMAX
 10
420.0
 20
297.0
  9
$UNITMODE
 70
0
  9
$VISRETAIN
 70
1
  9
$PLINEGEN
 70
0
  9
$PSLTSCALE
 70
1
  0
ENDSEC
  0
SECTION
  2
TABLES
  0
TABLE
  2
VPORT
 70
1
  0
VPORT
  5
23
  2
*Active
 70
0
 10
0.0
 20
0.0
 11
1.0
 21
1.0
 12
0.0
 22
0.0
 13
0.0
 23
0.0
 14
0.5
 24
0.5
 15
0.5
 25
0.5
 16
0.0
 26
0.0
 36
1.0
 17
0.0
 27
0.0
 37
0.0
 40
1000.0
 41
1.34
 42
50.0
 43
0.0
 44
0.0
 50
0.0
 51
0.0
 71
0
 72
1000
 73
1
 74
3
 75
0
 76
0
 77
0
 78
0
  0
ENDTAB
  0
TABLE
  2
LTYPE
 70
3
  0
LTYPE
  5
24
  2
ByBlock
 70
0
  3

 72
65
 73
0
 40
0.0
  0
LTYPE
  5
25
  2
ByLayer
 70
0
  3

 72
65
 73
0
 40
0.0
  0
LTYPE
  5
26
  2
Continuous
 70
0
  3

 72
65
 73
0
 40
0.0
  0
ENDTAB
  0
TABLE
  2
LAYER
 70
3
  0
LAYER
  5
27
  2
0
 70
0
 62
7
  6
Continuous
  0
LAYER
  5
28
  2
Defpoints
 70
0
 62
7
  6
Continuous
  0
LAYER
  5
2D
  2
BODY_OUTLINE
 70
0
 62
7
  6
Continuous
  0
ENDTAB
  0
TABLE
  2
STYLE
 70
1
  0
STYLE
  5
29
  2
Standard
 70
0
 40
0.0
 41
1.0
 50
0.0
 71
0
 42
2.5
  3
txt
  4

  0
ENDTAB
  0
TABLE
  2
VIEW
 70
0
  0
ENDTAB
  0
TABLE
  2
UCS
 70
0
  0
ENDTAB
  0
TABLE
  2
APPID
 70
3
  0
APPID
  5
2A
  2
ACAD
 70
0
  0
APPID
  5
52
  2
HATCHBACKGROUNDCOLOR
 70
0
  0
APPID
  5
53
  2
EZDXF
 70
0
  0
ENDTAB
  0
TABLE
  2
DIMSTYLE
 70
1
  0
DIMSTYLE
105
2B
  2
Standard
 70
0
  3

  4

  5

  6

  7

 40
1.0
 41
2.5
 42
0.625
 43
3.75
 44
1.25
 45
0.0
 46
0.0
 47
0.0
 48
0.0
140
2.5
141
2.5
142
0.0
143
0.03937007874
144
1.0
145
0.0
146
1.0
147
0.625
 71
0
 72
0
 73
0
 74
0
 75
0
 76
0
 77
1
 78
8
170
0
171
3
172
1
173
0
174
0
175
0
176
0
177
0
178
0
  0
ENDTAB
  0
ENDSEC
  0
SECTION
  2
BLOCKS
  0
BLOCK
  5
18
  8
0
  2
$Model_Space
 70
0
 10
0.0
 20
0.0
 30
0.0
  3
$Model_Space
  1

1001
EZDXF
1000
CREATED_BY_EZDXF
1000
1.4.3 @ 2026-04-06T16:09:27.170875+00:00
1000
WRITTEN_BY_EZDXF
1000
1.4.3 @ 2026-04-06T16:09:27.175742+00:00
  0
ENDBLK
  5
19
  8
0
  0
BLOCK
  5
1C
  8
0
  2
$Paper_Space
 70
0
 10
0.0
 20
0.0
 30
0.0
  3
$Paper_Space
  1

  0
ENDBLK
  5
1D
  8
0
  0
ENDSEC
  0
SECTION
  2
ENTITIES
  0
LINE
  5
2E
  8
BODY_OUTLINE
 10
0.0
 20
13.057089805603027
 30
0.0
 11
45.02444839477539
 21
153.98361206054688
 31
0.0
  0
LINE
  5
2F
  8
BODY_OUTLINE
 10
45.02444839477539
 20
153.98361206054688
 30
0.0
 11
29.716136932373047
 21
181.4485321044922
 31
0.0
  0
LINE
  5
30
  8
BODY_OUTLINE
 10
29.716136932373047
 20
181.4485321044922
 30
0.0
 11
36.920047760009766
 21
183.24951171875
 31
0.0
  0
LINE
  5
31
  8
BODY_OUTLINE
 10
36.920047760009766
 20
183.24951171875
 30
0.0
 11
102.65574645996094
 21
299.8628234863281
 31
0.0
  0
LINE
  5
32
  8
BODY_OUTLINE
 10
102.65574645996094
 20
299.8628234863281
 30
0.0
 11
102.20549774169922
 21
309.3179626464844
 31
0.0
  0
LINE
  5
33
  8
BODY_OUTLINE
 10
102.20549774169922
 20
309.3179626464844
 30
0.0
 11
108.05867767333984
 21
309.7682189941406
 31
0.0
  0
LINE
  5
34
  8
BODY_OUTLINE
 10
108.05867767333984
 20
309.7682189941406
 30
0.0
 11
116.61331939697266
 21
323.7257995605469
 31
0.0
  0
LINE
  5
35
  8
BODY_OUTLINE
 10
116.61331939697266
 20
323.7257995605469
 30
0.0
 11
195.40611267089844
 21
303.9150390625
 31
0.0
  0
LINE
  5
36
  8
BODY_OUTLINE
 10
195.40611267089844
 20
303.9150390625
 30
0.0
 11
254.3881378173828
 21
273.7486572265625
 31
0.0
  0
LINE
  5
37
  8
BODY_OUTLINE
 10
254.3881378173828
 20
273.7486572265625
 30
0.0
 11
280.05206298828125
 21
273.7486572265625
 31
0.0
  0
LINE
  5
38
  8
BODY_OUTLINE
 10
280.05206298828125
 20
273.7486572265625
 30
0.0
 11
324.176025390625
 21
283.20379638671875
 31
0.0
  0
LINE
  5
39
  8
BODY_OUTLINE
 10
324.176025390625
 20
283.20379638671875
 30
0.0
 11
341.2853088378906
 21
277.80084228515625
 31
0.0
  0
LINE
  5
3A
  8
BODY_OUTLINE
 10
341.2853088378906
 20
277.80084228515625
 30
0.0
 11
339.0340881347656
 21
253.48764038085938
 31
0.0
  0
LINE
  5
3B
  8
BODY_OUTLINE
 10
339.0340881347656
 20
253.48764038085938
 30
0.0
 11
325.9770202636719
 21
221.07003784179688
 31
0.0
  0
LINE
  5
3C
  8
BODY_OUTLINE
 10
325.9770202636719
 20
221.07003784179688
 30
0.0
 11
327.7779846191406
 21
201.25929260253906
 31
0.0
  0
LINE
  5
3D
  8
BODY_OUTLINE
 10
327.7779846191406
 20
201.25929260253906
 30
0.0
 11
307.5169982910156
 21
201.70953369140625
 31
0.0
  0
LINE
  5
3E
  8
BODY_OUTLINE
 10
307.5169982910156
 20
201.70953369140625
 30
0.0
 11
304.8155212402344
 21
216.1173553466797
 31
0.0
  0
LINE
  5
3F
  8
BODY_OUTLINE
 10
304.8155212402344
 20
216.1173553466797
 30
0.0
 11
271.4974365234375
 21
216.56759643554688
 31
0.0
  0
LINE
  5
40
  8
BODY_OUTLINE
 10
271.4974365234375
 20
216.56759643554688
 30
0.0
 11
266.9949951171875
 21
159.3865509033203
 31
0.0
  0
LINE
  5
41
  8
BODY_OUTLINE
 10
266.9949951171875
 20
159.3865509033203
 30
0.0
 11
268.79595947265625
 21
145.42897033691406
 31
0.0
  0
LINE
  5
42
  8
BODY_OUTLINE
 10
268.79595947265625
 20
145.42897033691406
 30
0.0
 11
275.9998779296875
 21
140.4762725830078
 31
0.0
  0
LINE
  5
43
  8
BODY_OUTLINE
 10
275.9998779296875
 20
140.4762725830078
 30
0.0
 11
302.5643005371094
 21
140.4762725830078
 31
0.0
  0
LINE
  5
44
  8
BODY_OUTLINE
 10
302.5643005371094
 20
140.4762725830078
 30
0.0
 11
307.0667419433594
 21
143.62799072265625
 31
0.0
  0
LINE
  5
45
  8
BODY_OUTLINE
 10
307.0667419433594
 20
143.62799072265625
 30
0.0
 11
307.5169982910156
 21
154.43385314941406
 31
0.0
  0
LINE
  5
46
  8
BODY_OUTLINE
 10
307.5169982910156
 20
154.43385314941406
 30
0.0
 11
367.3995056152344
 21
155.7845916748047
 31
0.0
  0
LINE
  5
47
  8
BODY_OUTLINE
 10
367.3995056152344
 20
155.7845916748047
 30
0.0
 11
367.8497314453125
 21
104.90696716308594
 31
0.0
  0
LINE
  5
48
  8
BODY_OUTLINE
 10
367.8497314453125
 20
104.90696716308594
 30
0.0
 11
363.79754638671875
 21
93.20060729980469
 31
0.0
  0
LINE
  5
49
  8
BODY_OUTLINE
 10
363.79754638671875
 20
93.20060729980469
 30
0.0
 11
346.2380065917969
 21
72.03911590576172
 31
0.0
  0
LINE
  5
4A
  8
BODY_OUTLINE
 10
346.2380065917969
 20
72.03911590576172
 30
0.0
 11
326.42724609375
 21
62.13373947143555
 31
0.0
  0
LINE
  5
4B
  8
BODY_OUTLINE
 10
326.42724609375
 20
62.13373947143555
 30
0.0
 11
267.4452209472656
 21
67.08642578125
 31
0.0
  0
LINE
  5
4C
  8
BODY_OUTLINE
 10
267.4452209472656
 20
67.08642578125
 30
0.0
 11
204.41099548339844
 21
53.128849029541016
 31
0.0
  0
LINE
  5
4D
  8
BODY_OUTLINE
 10
204.41099548339844
 20
53.128849029541016
 30
0.0
 11
162.0880126953125
 21
32.4176025390625
 31
0.0
  0
LINE
  5
4E
  8
BODY_OUTLINE
 10
162.0880126953125
 20
32.4176025390625
 30
0.0
 11
136.87432861328125
 21
13.957578659057617
 31
0.0
  0
LINE
  5
4F
  8
BODY_OUTLINE
 10
136.87432861328125
 20
13.957578659057617
 30
0.0
 11
98.60354614257812
 21
0.0
 31
0.0
  0
LINE
  5
50
  8
BODY_OUTLINE
 10
98.60354614257812
 20
0.0
 30
0.0
 11
14.858068466186523
 21
4.0522003173828125
 31
0.0
  0
LINE
  5
51
  8
BODY_OUTLINE
 10
14.858068466186523
 20
4.0522003173828125
 30
0.0
 11
0.0
 21
13.057089805603027
 31
0.0
  0
ENDSEC
  0
EOF
