<?xml version="1.0" encoding="UTF-8"?>
<svg xmlns="http://www.w3.org/2000/svg" viewBox="-10.0 -10.0 397.8 353.7">
  <path d="M 0.00,13.06 L 45.02,153.98 L 29.72,181.45 L 36.92,183.25 L 102.66,299.86 L 102.21,309.32 L 108.06,309.77 L 116.61,323.73 L 195.41,303.92 L 254.39,273.75 L 280.05,273.75 L 324.18,283.20 L 341.29,277.80 L 339.03,253.49 L 325.98,221.07 L 327.78,201.26 L 307.52,201.71 L 304.82,216.12 L 271.50,216.57 L 266.99,159.39 L 268.80,145.43 L 276.00,140.48 L 302.56,140.48 L 307.07,143.63 L 307.52,154.43 L 367.40,155.78 L 367.85,104.91 L 363.80,93.20 L 346.24,72.04 L 326.43,62.13 L 267.45,67.09 L 204.41,53.13 L 162.09,32.42 L 136.87,13.96 L 98.60,0.00 L 14.86,4.05 Z" fill="none" stroke="black" stroke-width="0.5"/>
</svg>