  0
SECTION
  2
HEADER
  9
$ACADVER
  1
AC1024
  9
$ACADMAINTVER
 70
6
  9
$DWGCODEPAGE
  3
ANSI_1252
  9
$LASTSAVEDBY
  1
ezdxf
  9
$INSBASE
 10
0.0
 20
0.0
 30
0.0
  9
$EXTMIN
 10
1e+20
 20
1e+20
 30
1e+20
  9
$EXTMAX
 10
-1e+20
 20
-1e+20
 30
-1e+20
  9
$LIMMIN
 10
0.0
 20
0.0
  9
$LIMMAX
 10
420.0
 20
297.0
  9
$ORTHOMODE
 70
0
  9
$REGENMODE
 70
1
  9
$FILLMODE
 70
1
  9
$QTEXTMODE
 70
0
  9
$MIRRTEXT
 70
1
  9
$LTSCALE
 40
1.0
  9
$ATTMODE
 70
1
  9
$TEXTSIZE
 40
2.5
  9
$TRACEWID
 40
1.0
  9
$TEXTSTYLE
  7
Standard
  9
$CLAYER
  8
0
  9
$CELTYPE
  6
ByLayer
  9
$CECOLOR
 62
256
  9
$CELTSCALE
 40
1.0
  9
$DISPSILH
 70
0
  9
$DIMSCALE
 40
1.0
  9
$DIMASZ
 40
2.5
  9
$DIMEXO
 40
0.625
  9
$DIMDLI
 40
3.75
  9
$DIMRND
 40
0.0
  9
$DIMDLE
 40
0.0
  9
$DIMEXE
 40
1.25
  9
$DIMTP
 40
0.0
  9
$DIMTM
 40
0.0
  9
$DIMTXT
 40
2.5
  9
$DIMCEN
 40
2.5
  9
$DIMTSZ
 40
0.0
  9
$DIMTOL
 70
0
  9
$DIMLIM
 70
0
  9
$DIMTIH
 70
0
  9
$DIMTOH
 70
0
  9
$DIMSE1
 70
0
  9
$DIMSE2
 70
0
  9
$DIMTAD
 70
1
  9
$DIMZIN
 70
8
  9
$DIMBLK
  1

  9
$DIMASO
 70
1
  9
$DIMSHO
 70
1
  9
$DIMPOST
  1

  9
$DIMAPOST
  1

  9
$DIMALT
 70
0
  9
$DIMALTD
 70
3
  9
$DIMALTF
 40
0.03937007874
  9
$DIMLFAC
 40
1.0
  9
$DIMTOFL
 70
1
  9
$DIMTVP
 40
0.0
  9
$DIMTIX
 70
0
  9
$DIMSOXD
 70
0
  9
$DIMSAH
 70
0
  9
$DIMBLK1
  1

  9
$DIMBLK2
  1

  9
$DIMSTYLE
  2
ISO-25
  9
$DIMCLRD
 70
0
  9
$DIMCLRE
 70
0
  9
$DIMCLRT
 70
0
  9
$DIMTFAC
 40
1.0
  9
$DIMGAP
 40
0.625
  9
$DIMJUST
 70
0
  9
$DIMSD1
 70
0
  9
$DIMSD2
 70
0
  9
$DIMTOLJ
 70
0
  9
$DIMTZIN
 70
8
  9
$DIMALTZ
 70
0
  9
$DIMALTTZ
 70
0
  9
$DIMUPT
 70
0
  9
$DIMDEC
 70
2
  9
$DIMTDEC
 70
2
  9
$DIMALTU
 70
2
  9
$DIMALTTD
 70
3
  9
$DIMTXSTY
  7
Standard
  9
$DIMAUNIT
 70
0
  9
$DIMADEC
 70
0
  9
$DIMALTRND
 40
0.0
  9
$DIMAZIN
 70
0
  9
$DIMDSEP
 70
44
  9
$DIMATFIT
 70
3
  9
$DIMFRAC
 70
0
  9
$DIMLDRBLK
  1

  9
$DIMLUNIT
 70
2
  9
$DIMLWD
 70
-2
  9
$DIMLWE
 70
-2
  9
$DIMTMOVE
 70
0
  9
$DIMFXL
 40
1.0
  9
$DIMFXLON
 70
0
  9
$DIMJOGANG
 40
0.785398163397
  9
$DIMTFILL
 70
0
  9
$DIMTFILLCLR
 70
0
  9
$DIMARCSYM
 70
0
  9
$DIMLTYPE
  6

  9
$DIMLTEX1
  6

  9
$DIMLTEX2
  6

  9
$DIMTXTDIRECTION
 70
0
  9
$LUNITS
 70
2
  9
$LUPREC
 70
4
  9
$SKETCHINC
 40
1.0
  9
$FILLETRAD
 40
10.0
  9
$AUNITS
 70
0
  9
$AUPREC
 70
2
  9
$MENU
  1
.
  9
$ELEVATION
 40
0.0
  9
$PELEVATION
 40
0.0
  9
$THICKNESS
 40
0.0
  9
$LIMCHECK
 70
0
  9
$CHAMFERA
 40
0.0
  9
$CHAMFERB
 40
0.0
  9
$CHAMFERC
 40
0.0
  9
$CHAMFERD
 40
0.0
  9
$SKPOLY
 70
0
  9
$TDCREATE
 40
2461021.792337963
  9
$TDUCREATE
 40
2458532.153996898
  9
$TDUPDATE
 40
2461021.792337963
  9
$TDUUPDATE
 40
2458532.1544311
  9
$TDINDWG
 40
0.0
  9
$TDUSRTIMER
 40
0.0
  9
$USRTIMER
 70
1
  9
$ANGBASE
 50
0.0
  9
$ANGDIR
 70
0
  9
$PDMODE
 70
0
  9
$PDSIZE
 40
0.0
  9
$PLINEWID
 40
0.0
  9
$SPLFRAME
 70
0
  9
$SPLINETYPE
 70
6
  9
$SPLINESEGS
 70
8
  9
$HANDSEED
  5
10F
  9
$SURFTAB1
 70
6
  9
$SURFTAB2
 70
6
  9
$SURFTYPE
 70
6
  9
$SURFU
 70
6
  9
$SURFV
 70
6
  9
$UCSBASE
  2

  9
$UCSNAME
  2

  9
$UCSORG
 10
0.0
 20
0.0
 30
0.0
  9
$UCSXDIR
 10
1.0
 20
0.0
 30
0.0
  9
$UCSYDIR
 10
0.0
 20
1.0
 30
0.0
  9
$UCSORTHOREF
  2

  9
$UCSORTHOVIEW
 70
0
  9
$UCSORGTOP
 10
0.0
 20
0.0
 30
0.0
  9
$UCSORGBOTTOM
 10
0.0
 20
0.0
 30
0.0
  9
$UCSORGLEFT
 10
0.0
 20
0.0
 30
0.0
  9
$UCSORGRIGHT
 10
0.0
 20
0.0
 30
0.0
  9
$UCSORGFRONT
 10
0.0
 20
0.0
 30
0.0
  9
$UCSORGBACK
 10
0.0
 20
0.0
 30
0.0
  9
$PUCSBASE
  2

  9
$PUCSNAME
  2

  9
$PUCSORG
 10
0.0
 20
0.0
 30
0.0
  9
$PUCSXDIR
 10
1.0
 20
0.0
 30
0.0
  9
$PUCSYDIR
 10
0.0
 20
1.0
 30
0.0
  9
$PUCSORTHOREF
  2

  9
$PUCSORTHOVIEW
 70
0
  9
$PUCSORGTOP
 10
0.0
 20
0.0
 30
0.0
  9
$PUCSORGBOTTOM
 10
0.0
 20
0.0
 30
0.0
  9
$PUCSORGLEFT
 10
0.0
 20
0.0
 30
0.0
  9
$PUCSORGRIGHT
 10
0.0
 20
0.0
 30
0.0
  9
$PUCSORGFRONT
 10
0.0
 20
0.0
 30
0.0
  9
$PUCSORGBACK
 10
0.0
 20
0.0
 30
0.0
  9
$USERI1
 70
0
  9
$USERI2
 70
0
  9
$USERI3
 70
0
  9
$USERI4
 70
0
  9
$USERI5
 70
0
  9
$USERR1
 40
0.0
  9
$USERR2
 40
0.0
  9
$USERR3
 40
0.0
  9
$USERR4
 40
0.0
  9
$USERR5
 40
0.0
  9
$WORLDVIEW
 70
1
  9
$SHADEDGE
 70
3
  9
$SHADEDIF
 70
70
  9
$TILEMODE
 70
1
  9
$MAXACTVP
 70
64
  9
$PINSBASE
 10
0.0
 20
0.0
 30
0.0
  9
$PLIMCHECK
 70
0
  9
$PEXTMIN
 10
1e+20
 20
1e+20
 30
1e+20
  9
$PEXTMAX
 10
-1e+20
 20
-1e+20
 30
-1e+20
  9
$PLIMMIN
 10
0.0
 20
0.0
  9
$PLIMMAX
 10
420.0
 20
297.0
  9
$UNITMODE
 70
0
  9
$VISRETAIN
 70
1
  9
$PLINEGEN
 70
0
  9
$PSLTSCALE
 70
1
  9
$TREEDEPTH
 70
3020
  9
$CMLSTYLE
  2
Standard
  9
$CMLJUST
 70
0
  9
$CMLSCALE
 40
20.0
  9
$PROXYGRAPHICS
 70
1
  9
$MEASUREMENT
 70
1
  9
$CELWEIGHT
370
-1
  9
$ENDCAPS
280
0
  9
$JOINSTYLE
280
0
  9
$LWDISPLAY
290
0
  9
$INSUNITS
 70
6
  9
$HYPERLINKBASE
  1

  9
$STYLESHEET
  1

  9
$XEDIT
290
1
  9
$CEPSNTYPE
380
0
  9
$PSTYLEMODE
290
1
  9
$FINGERPRINTGUID
  2
{03B95AE2-72C3-4912-914B-00846F4D8554}
  9
$VERSIONGUID
  2
{3A30CFDF-99FD-4A13-895A-DD590A1824AB}
  9
$EXTNAMES
290
1
  9
$PSVPSCALE
 40
0.0
  9
$OLESTARTUP
290
0
  9
$SORTENTS
280
127
  9
$INDEXCTL
280
0
  9
$HIDETEXT
280
1
  9
$XCLIPFRAME
280
1
  9
$HALOGAP
280
0
  9
$OBSCOLOR
 70
257
  9
$OBSLTYPE
280
0
  9
$INTERSECTIONDISPLAY
280
0
  9
$INTERSECTIONCOLOR
 70
257
  9
$DIMASSOC
280
2
  9
$PROJECTNAME
  1

  9
$CAMERADISPLAY
290
0
  9
$LENSLENGTH
 40
50.0
  9
$CAMERAHEIGHT
 40
0.0
  9
$STEPSPERSEC
 40
24.0
  9
$STEPSIZE
 40
100.0
  9
$3DDWFPREC
 40
2.0
  9
$PSOLWIDTH
 40
0.005
  9
$PSOLHEIGHT
 40
0.08
  9
$LOFTANG1
 40
1.570796326795
  9
$LOFTANG2
 40
1.570796326795
  9
$LOFTMAG1
 40
0.0
  9
$LOFTMAG2
 40
0.0
  9
$LOFTPARAM
 70
7
  9
$LOFTNORMALS
280
1
  9
$LATITUDE
 40
37.795
  9
$LONGITUDE
 40
-122.394
  9
$NORTHDIRECTION
 40
0.0
  9
$TIMEZONE
 70
-8000
  9
$LIGHTGLYPHDISPLAY
280
1
  9
$TILEMODELIGHTSYNCH
280
1
  9
$CMATERIAL
347
20
  9
$SOLIDHIST
280
0
  9
$SHOWHIST
280
1
  9
$DWFFRAME
280
2
  9
$DGNFRAME
280
2
  9
$REALWORLDSCALE
290
1
  9
$INTERFERECOLOR
 62
256
  9
$CSHADOW
280
0
  9
$SHADOWPLANELOCATION
 40
0.0
  0
ENDSEC
  0
SECTION
  2
CLASSES
  0
CLASS
  1
ACDBDICTIONARYWDFLT
  2
AcDbDictionaryWithDefault
  3
ObjectDBX Classes
 90
0
 91
0
280
0
281
0
  0
CLASS
  1
SUN
  2
AcDbSun
  3
SCENEOE
 90
1153
 91
0
280
0
281
0
  0
CLASS
  1
VISUALSTYLE
  2
AcDbVisualStyle
  3
ObjectDBX Classes
 90
4095
 91
0
280
0
281
0
  0
CLASS
  1
MATERIAL
  2
AcDbMaterial
  3
ObjectDBX Classes
 90
1153
 91
0
280
0
281
0
  0
CLASS
  1
SCALE
  2
AcDbScale
  3
ObjectDBX Classes
 90
1153
 91
0
280
0
281
0
  0
CLASS
  1
TABLESTYLE
  2
AcDbTableStyle
  3
ObjectDBX Classes
 90
4095
 91
0
280
0
281
0
  0
CLASS
  1
MLEADERSTYLE
  2
AcDbMLeaderStyle
  3
ACDB_MLEADERSTYLE_CLASS
 90
4095
 91
0
280
0
281
0
  0
CLASS
  1
DICTIONARYVAR
  2
AcDbDictionaryVar
  3
ObjectDBX Classes
 90
0
 91
0
280
0
281
0
  0
CLASS
  1
CELLSTYLEMAP
  2
AcDbCellStyleMap
  3
ObjectDBX Classes
 90
1152
 91
0
280
0
281
0
  0
CLASS
  1
MENTALRAYRENDERSETTINGS
  2
AcDbMentalRayRenderSettings
  3
SCENEOE
 90
1024
 91
0
280
0
281
0
  0
CLASS
  1
ACDBDETAILVIEWSTYLE
  2
AcDbDetailViewStyle
  3
ObjectDBX Classes
 90
1025
 91
0
280
0
281
0
  0
CLASS
  1
ACDBSECTIONVIEWSTYLE
  2
AcDbSectionViewStyle
  3
ObjectDBX Classes
 90
1025
 91
0
280
0
281
0
  0
CLASS
  1
RASTERVARIABLES
  2
AcDbRasterVariables
  3
ISM
 90
0
 91
0
280
0
281
0
  0
CLASS
  1
LAYOUT
  2
AcDbLayout
  3
ObjectDBX Classes
 90
0
 91
0
280
0
281
0
  0
CLASS
  1
ACDBPLACEHOLDER
  2
AcDbPlaceHolder
  3
ObjectDBX Classes
 90
0
 91
0
280
0
281
0
  0
ENDSEC
  0
SECTION
  2
TABLES
  0
TABLE
  2
VPORT
  5
8
330
0
100
AcDbSymbolTable
 70
1
  0
VPORT
  5
23
330
8
100
AcDbSymbolTableRecord
100
AcDbViewportTableRecord
  2
*Active
 70
0
 10
0.0
 20
0.0
 11
1.0
 21
1.0
 12
0.0
 22
0.0
 13
0.0
 23
0.0
 14
0.5
 24
0.5
 15
0.5
 25
0.5
 16
0.0
 26
0.0
 36
1.0
 17
0.0
 27
0.0
 37
0.0
 40
1000.0
 41
1.34
 42
50.0
 43
0.0
 44
0.0
 50
0.0
 51
0.0
 71
0
 72
1000
 73
1
 74
3
 75
0
 76
0
 77
0
 78
0
281
0
 65
0
146
0.0
  0
ENDTAB
  0
TABLE
  2
LTYPE
  5
2
330
0
100
AcDbSymbolTable
 70
3
  0
LTYPE
  5
24
330
2
100
AcDbSymbolTableRecord
100
AcDbLinetypeTableRecord
  2
ByBlock
 70
0
  3

 72
65
 73
0
 40
0.0
  0
LTYPE
  5
25
330
2
100
AcDbSymbolTableRecord
100
AcDbLinetypeTableRecord
  2
ByLayer
 70
0
  3

 72
65
 73
0
 40
0.0
  0
LTYPE
  5
26
330
2
100
AcDbSymbolTableRecord
100
AcDbLinetypeTableRecord
  2
Continuous
 70
0
  3

 72
65
 73
0
 40
0.0
  0
ENDTAB
  0
TABLE
  2
LAYER
  5
1
330
0
100
AcDbSymbolTable
 70
6
  0
LAYER
  5
27
330
1
100
AcDbSymbolTableRecord
100
AcDbLayerTableRecord
  2
0
 70
0
 62
7
  6
Continuous
370
-3
390
13
347
21
  0
LAYER
  5
28
330
1
100
AcDbSymbolTableRecord
100
AcDbLayerTableRecord
  2
Defpoints
 70
0
 62
7
  6
Continuous
290
0
370
-3
390
13
347
21
  0
LAYER
  5
2F
330
1
100
AcDbSymbolTableRecord
100
AcDbLayerTableRecord
  2
BODY
 70
0
 62
1
  6
Continuous
370
-3
390
13
347
21
  0
LAYER
  5
30
330
1
100
AcDbSymbolTableRecord
100
AcDbLayerTableRecord
  2
NECK
 70
0
 62
3
  6
Continuous
370
-3
390
13
347
21
  0
LAYER
  5
31
330
1
100
AcDbSymbolTableRecord
100
AcDbLayerTableRecord
  2
HEADSTOCK
 70
0
 62
5
  6
Continuous
370
-3
390
13
347
21
  0
LAYER
  5
32
330
1
100
AcDbSymbolTableRecord
100
AcDbLayerTableRecord
  2
HARDWARE
 70
0
 62
6
  6
Continuous
370
-3
390
13
347
21
  0
ENDTAB
  0
TABLE
  2
STYLE
  5
5
330
0
100
AcDbSymbolTable
 70
1
  0
STYLE
  5
29
330
5
100
AcDbSymbolTableRecord
100
AcDbTextStyleTableRecord
  2
Standard
 70
0
 40
0.0
 41
1.0
 50
0.0
 71
0
 42
2.5
  3
txt
  4

  0
ENDTAB
  0
TABLE
  2
VIEW
  5
7
330
0
100
AcDbSymbolTable
 70
0
  0
ENDTAB
  0
TABLE
  2
UCS
  5
6
330
0
100
AcDbSymbolTable
 70
0
  0
ENDTAB
  0
TABLE
  2
APPID
  5
3
330
0
100
AcDbSymbolTable
 70
3
  0
APPID
  5
2A
330
3
100
AcDbSymbolTableRecord
100
AcDbRegAppTableRecord
  2
ACAD
 70
0
  0
APPID
  5
10C
330
3
100
AcDbSymbolTableRecord
100
AcDbRegAppTableRecord
  2
HATCHBACKGROUNDCOLOR
 70
0
  0
APPID
  5
10D
330
3
100
AcDbSymbolTableRecord
100
AcDbRegAppTableRecord
  2
EZDXF
 70
0
  0
ENDTAB
  0
TABLE
  2
DIMSTYLE
  5
4
330
0
100
AcDbSymbolTable
 70
1
100
AcDbDimStyleTable
  0
DIMSTYLE
105
2B
330
4
100
AcDbSymbolTableRecord
100
AcDbDimStyleTableRecord
  2
Standard
 70
0
 40
1.0
 41
2.5
 42
0.625
 43
3.75
 44
1.25
 45
0.0
 46
0.0
 47
0.0
 48
0.0
 49
2.5
140
2.5
141
2.5
142
0.0
143
0.03937007874
144
1.0
145
0.0
146
1.0
147
0.625
148
0.0
 69
0
 70
0
 71
0
 72
0
 73
0
 74
0
 75
0
 76
0
 77
1
 78
8
 79
3
170
0
171
3
172
1
173
0
174
0
175
0
176
0
177
0
178
0
179
2
271
2
272
2
273
2
274
3
275
0
276
0
277
2
278
44
279
0
280
0
281
0
282
0
283
0
284
8
285
0
286
0
288
0
289
3
290
0
371
-2
372
-2
  0
ENDTAB
  0
TABLE
  2
BLOCK_RECORD
  5
9
330
0
100
AcDbSymbolTable
 70
2
  0
BLOCK_RECORD
  5
17
330
9
100
AcDbSymbolTableRecord
100
AcDbBlockTableRecord
  2
*Model_Space
340
1A
 70
0
280
1
281
0
  0
BLOCK_RECORD
  5
1B
330
9
100
AcDbSymbolTableRecord
100
AcDbBlockTableRecord
  2
*Paper_Space
340
1E
 70
0
280
1
281
0
  0
ENDTAB
  0
ENDSEC
  0
SECTION
  2
BLOCKS
  0
BLOCK
  5
18
330
17
100
AcDbEntity
  8
0
100
AcDbBlockBegin
  2
*Model_Space
 70
0
 10
0.0
 20
0.0
 30
0.0
  3
*Model_Space
  1

  0
ENDBLK
  5
19
330
17
100
AcDbEntity
  8
0
100
AcDbBlockEnd
  0
BLOCK
  5
1C
330
1B
100
AcDbEntity
  8
0
100
AcDbBlockBegin
  2
*Paper_Space
 70
0
 10
0.0
 20
0.0
 30
0.0
  3
*Paper_Space
  1

  0
ENDBLK
  5
1D
330
1B
100
AcDbEntity
  8
0
100
AcDbBlockEnd
  0
ENDSEC
  0
SECTION
  2
ENTITIES
  0
LINE
  5
33
330
17
100
AcDbEntity
  8
NECK
100
AcDbLine
 10
2780.522367635477
 20
490.6120136050595
 30
0.0
 11
2917.623141171864
 21
530.1106462748176
 31
0.0
  0
LINE
  5
34
330
17
100
AcDbEntity
  8
NECK
100
AcDbLine
 10
2780.563290824579
 20
592.452365697576
 30
0.0
 11
2917.626749112973
 21
552.9542636411179
 31
0.0
  0
LINE
  5
35
330
17
100
AcDbEntity
  8
NECK
100
AcDbLine
 10
2745.599448730078
 20
520.2280355915117
 30
0.0
 11
2258.802448730077
 21
513.3059065617126
 31
0.0
  0
LINE
  5
36
330
17
100
AcDbEntity
  8
NECK
100
AcDbLine
 10
2258.802448730077
 20
569.7589445617122
 30
0.0
 11
2745.599448730076
 21
562.8368155319122
 31
0.0
  0
LINE
  5
37
330
17
100
AcDbEntity
  8
NECK
100
AcDbLine
 10
2258.802448730077
 20
513.3059065617126
 30
0.0
 11
2258.802448730077
 21
541.5324255617124
 31
0.0
  0
LINE
  5
38
330
17
100
AcDbEntity
  8
NECK
100
AcDbLine
 10
2258.802448730077
 20
541.5324255617124
 30
0.0
 11
2258.802448730077
 21
569.7589445617122
 31
0.0
  0
LINE
  5
39
330
17
100
AcDbEntity
  8
NECK
100
AcDbLine
 10
2258.802448730077
 20
569.7589445617122
 30
0.0
 11
1990.504893453312
 21
569.7589445617122
 31
0.0
  0
LINE
  5
3A
330
17
100
AcDbEntity
  8
NECK
100
AcDbLine
 10
2258.802448730077
 20
513.3059065617126
 30
0.0
 11
1990.504893453312
 21
513.3059065617126
 31
0.0
  0
LINE
  5
3B
330
17
100
AcDbEntity
  8
NECK
100
AcDbLine
 10
2258.802448730077
 20
194.6773921523054
 30
0.0
 11
2745.599448730078
 21
194.6773921523054
 31
0.0
  0
LINE
  5
3C
330
17
100
AcDbEntity
  8
NECK
100
AcDbLine
 10
2329.824899494877
 20
172.6662806765525
 30
0.0
 11
2759.118033936804
 21
174.6201095872984
 31
0.0
  0
LINE
  5
3D
330
17
100
AcDbEntity
  8
NECK
100
AcDbLine
 10
2008.50975278304
 20
175.1505764731628
 30
0.0
 11
2258.802448730077
 21
183.8909970671157
 31
0.0
  0
LINE
  5
3E
330
17
100
AcDbEntity
  8
NECK
100
AcDbLine
 10
2009.174048730077
 20
156.127644830065
 30
0.0
 11
2294.702436747399
 21
166.0985238976391
 31
0.0
  0
SPLINE
  5
3F
330
17
100
AcDbEntity
  8
NECK
100
AcDbSpline
 70
0
 71
3
 72
0
 73
0
 74
4
 11
2329.824899494877
 21
172.6662806765525
 31
0.0
 11
2317.8813224635
 21
172.0161507801276
 31
0.0
 11
2306.073889452759
 21
169.8082091344804
 31
0.0
 11
2294.702436747399
 21
166.0985238976391
 31
0.0
  0
LINE
  5
40
330
17
100
AcDbEntity
  8
NECK
100
AcDbLine
 10
2258.802448730077
 20
194.6773921523054
 30
0.0
 11
2258.802448730077
 21
183.8909970671157
 31
0.0
  0
LINE
  5
41
330
17
100
AcDbEntity
  8
NECK
100
AcDbLine
 10
2009.174048730077
 20
156.1276448300668
 30
0.0
 11
2008.50975278304
 21
175.1505764731628
 31
0.0
  0
LINE
  5
42
330
17
100
AcDbEntity
  8
NECK
100
AcDbLine
 10
2736.678048730077
 20
541.5324255617124
 30
0.0
 11
2736.678048730077
 21
520.1011755617128
 31
0.0
  0
LINE
  5
43
330
17
100
AcDbEntity
  8
NECK
100
AcDbLine
 10
2736.678048730077
 20
562.963675561712
 30
0.0
 11
2736.678048730077
 21
541.5324255617124
 31
0.0
  0
LINE
  5
44
330
17
100
AcDbEntity
  8
NECK
100
AcDbLine
 10
2745.599448730076
 20
562.8368195203384
 30
0.0
 11
2745.599448730078
 21
541.5324255617124
 31
0.0
  0
LINE
  5
45
330
17
100
AcDbEntity
  8
NECK
100
AcDbLine
 10
2745.599448730078
 20
541.5324255617124
 30
0.0
 11
2745.599448730078
 21
520.2280355915117
 31
0.0
  0
LINE
  5
46
330
17
100
AcDbEntity
  8
NECK
100
AcDbLine
 10
2736.678048730077
 20
204.0273921523058
 30
0.0
 11
2736.678048730075
 21
194.6773921523054
 31
0.0
  0
LINE
  5
47
330
17
100
AcDbEntity
  8
NECK
100
AcDbLine
 10
2745.599448730078
 20
204.0273921523058
 30
0.0
 11
2745.599448730078
 21
194.6773921523054
 31
0.0
  0
LINE
  5
48
330
17
100
AcDbEntity
  8
NECK
100
AcDbLine
 10
2736.678048730077
 20
204.0273921523058
 30
0.0
 11
2745.599448730078
 21
204.0273921523058
 31
0.0
  0
LINE
  5
49
330
17
100
AcDbEntity
  8
NECK
100
AcDbLine
 10
2736.678048730077
 20
562.963675561712
 30
0.0
 11
2745.597645177517
 21
562.8368411779693
 31
0.0
  0
LINE
  5
4A
330
17
100
AcDbEntity
  8
NECK
100
AcDbLine
 10
2736.678048730077
 20
520.1011755617128
 30
0.0
 11
2745.599448730078
 21
520.2280355915117
 31
0.0
  0
SPLINE
  5
4B
330
17
100
AcDbEntity
  8
HEADSTOCK
100
AcDbSpline
 70
0
 71
3
 72
0
 73
0
 74
7
 11
2776.638010184174
 21
493.1241547826576
 31
0.0
 11
2776.845131842911
 21
491.4689226402678
 31
0.0
 11
2778.354867895249
 21
490.2949971468351
 31
0.0
 11
2780.010100037638
 21
490.5021188055725
 31
0.0
 11
2780.183716625356
 21
490.5238437073021
 31
0.0
 11
2780.355117133702
 21
490.5606135997877
 31
0.0
 11
2780.522367635477
 21
490.6120136050595
 31
0.0
  0
SPLINE
  5
4C
330
17
100
AcDbEntity
  8
HEADSTOCK
100
AcDbSpline
 70
0
 71
3
 72
0
 73
0
 74
4
 11
2776.638010184174
 21
493.1241547826576
 31
0.0
 11
2774.682626284321
 21
508.7507884310761
 31
0.0
 11
2761.304079641739
 21
520.4170963372688
 31
0.0
 11
2745.556721988414
 21
520.2275381246671
 31
0.0
  0
SPLINE
  5
4D
330
17
100
AcDbEntity
  8
HEADSTOCK
100
AcDbSpline
 70
0
 71
3
 72
0
 73
0
 74
7
 11
2780.563290824579
 21
592.452365697576
 31
0.0
 11
2778.968751904031
 21
592.9424049384334
 31
0.0
 11
2777.278867413621
 21
592.0470310383644
 31
0.0
 11
2776.788828172763
 21
590.4524921178181
 31
0.0
 11
2776.737428167491
 21
590.285241616043
 31
0.0
 11
2776.700658275004
 21
590.1138411076963
 31
0.0
 11
2776.678933373276
 21
589.9402245199789
 31
0.0
  0
SPLINE
  5
4E
330
17
100
AcDbEntity
  8
HEADSTOCK
100
AcDbSpline
 70
0
 71
3
 72
0
 73
0
 74
4
 11
2745.597645177517
 21
562.8368411779693
 31
0.0
 11
2761.345002830842
 21
562.6472829653676
 31
0.0
 11
2774.723549473423
 21
574.3135908715612
 31
0.0
 11
2776.678933373276
 21
589.9402245199789
 31
0.0
  0
LINE
  5
4F
330
17
100
AcDbEntity
  8
HEADSTOCK
100
AcDbLine
 10
2745.599448730078
 20
194.6773921523054
 30
0.0
 11
2926.159313440861
 21
146.2967351523057
 31
0.0
  0
LINE
  5
50
330
17
100
AcDbEntity
  8
HEADSTOCK
100
AcDbLine
 10
2926.159313440861
 20
146.2967351523057
 30
0.0
 11
2922.050577972014
 21
130.9626581390967
 31
0.0
  0
LINE
  5
51
330
17
100
AcDbEntity
  8
HEADSTOCK
100
AcDbLine
 10
2684.262906888742
 20
194.6773921523054
 30
0.0
 11
2922.050577972014
 21
130.9626581390967
 31
0.0
  0
SPLINE
  5
52
330
17
100
AcDbEntity
  8
HEADSTOCK
100
AcDbSpline
 70
0
 71
3
 72
0
 73
0
 74
7
 11
2917.623141171864
 21
530.1106462748176
 31
0.0
 11
2923.931526396835
 21
531.9741056841485
 31
0.0
 11
2927.53485072209
 21
538.598694659151
 31
0.0
 11
2925.671391312757
 21
544.907079884123
 31
0.0
 11
2924.527418253585
 21
548.7797817568425
 31
0.0
 11
2921.499089432258
 21
551.8090673231372
 31
0.0
 11
2917.626749112973
 21
552.9542636411179
 31
0.0
  0
LINE
  5
53
330
17
100
AcDbEntity
  8
HEADSTOCK
100
AcDbLine
 10
2780.563290824579
 20
592.452365697576
 30
0.0
 11
2917.626749112973
 21
552.9542636411179
 31
0.0
  0
LINE
  5
54
330
17
100
AcDbEntity
  8
HEADSTOCK
100
AcDbLine
 10
2780.522367635477
 20
490.6120136050595
 30
0.0
 11
2917.623141171864
 21
530.1106462748176
 31
0.0
  0
LWPOLYLINE
  5
55
330
17
100
AcDbEntity
  8
HARDWARE
100
AcDbPolyline
 90
4
 70
1
 10
2099.03410596169
 20
518.8859105742831
 10
2108.778166525126
 20
519.2261806671321
 10
2109.039912750395
 20
511.7307494644901
 10
2099.295852186958
 20
511.3904793716392
  0
LINE
  5
56
330
17
100
AcDbEntity
  8
HARDWARE
100
AcDbLine
 10
2111.291715755526
 20
504.5549649620061
 30
0.0
 11
2108.709152999542
 21
578.5098861614186
 31
0.0
  0
LINE
  5
57
330
17
100
AcDbEntity
  8
HARDWARE
100
AcDbLine
 10
2094.717681421275
 20
578.0212932075847
 30
0.0
 11
2097.300244177259
 21
504.0663720081702
 31
0.0
  0
LINE
  5
58
330
17
100
AcDbEntity
  8
HARDWARE
100
AcDbLine
 10
2094.76675722413
 20
576.6159460869239
 30
0.0
 11
2094.416348649236
 21
576.5327335411456
 31
0.0
  0
LINE
  5
59
330
17
100
AcDbEntity
  8
HARDWARE
100
AcDbLine
 10
2094.788019045856
 20
576.0070871747394
 30
0.0
 11
2094.583010332485
 21
575.9402299800093
 31
0.0
  0
LINE
  5
5A
330
17
100
AcDbEntity
  8
HARDWARE
100
AcDbLine
 10
2094.80669600516
 20
575.4722490375424
 30
0.0
 11
2094.760533194083
 21
575.4535790416448
 31
0.0
  0
LINE
  5
5B
330
17
100
AcDbEntity
  8
HARDWARE
100
AcDbLine
 10
2094.466187047066
 20
580.1963032726725
 30
0.0
 11
2094.949335724621
 21
580.0675890334605
 31
0.0
  0
LINE
  5
5C
330
17
100
AcDbEntity
  8
HARDWARE
100
AcDbLine
 10
2094.665095968696
 20
580.8290185744153
 30
0.0
 11
2095.134984051478
 21
580.6581233150882
 31
0.0
  0
SPLINE
  5
5D
330
17
100
AcDbEntity
  8
HARDWARE
100
AcDbSpline
 70
0
 71
3
 72
0
 73
0
 74
7
 11
2108.709152999542
 21
578.5098861614186
 31
0.0
 11
2108.574231780902
 21
582.373524351603
 31
0.0
 11
2105.332758923672
 21
585.3962466922738
 31
0.0
 11
2101.469120733489
 21
585.2613254736352
 31
0.0
 11
2097.605482543306
 21
585.1264042549956
 31
0.0
 11
2094.582760202635
 21
581.8849313977671
 31
0.0
 11
2094.717681421275
 21
578.0212932075827
 31
0.0
  0
LINE
  5
5E
330
17
100
AcDbEntity
  8
HARDWARE
100
AcDbLine
 10
2094.769907285758
 20
577.3780819795774
 30
0.0
 11
2094.27394229114
 21
577.3146885720816
 31
0.0
  0
LINE
  5
5F
330
17
100
AcDbEntity
  8
HARDWARE
100
AcDbLine
 10
2094.319988130997
 20
579.5254335032841
 30
0.0
 11
2094.812883402958
 21
579.4414439153642
 31
0.0
  0
SPLINE
  5
60
330
17
100
AcDbEntity
  8
HARDWARE
100
AcDbSpline
 70
0
 71
3
 72
0
 73
0
 74
10
 11
2108.803122770256
 21
575.8189440062978
 31
0.0
 11
2110.154367866566
 21
579.7344802677925
 31
0.0
 11
2108.075599150105
 21
584.004050148038
 31
0.0
 11
2104.16006288861
 21
585.3552952443488
 31
0.0
 11
2100.244526627117
 21
586.7065403406594
 31
0.0
 11
2095.974956746871
 21
584.6277716241984
 31
0.0
 11
2094.62371165056
 21
580.7122353627046
 31
0.0
 11
2094.017937388409
 21
578.9568683340212
 31
0.0
 11
2094.084904351447
 21
577.0391854188773
 31
0.0
 11
2094.811651191989
 21
575.3303510524638
 31
0.0
  0
LINE
  5
61
330
17
100
AcDbEntity
  8
HARDWARE
100
AcDbLine
 10
2094.217986007765
 20
578.0038434592333
 30
0.0
 11
2094.717681421275
 21
578.0212932075847
 31
0.0
  0
LINE
  5
62
330
17
100
AcDbEntity
  8
HARDWARE
100
AcDbLine
 10
2094.229063822142
 20
578.7497945580362
 30
0.0
 11
2094.728020714692
 21
578.7175142331344
 31
0.0
  0
LINE
  5
63
330
17
100
AcDbEntity
  8
HARDWARE
100
AcDbLine
 10
2101.886323763845
 20
581.5236087333687
 30
0.0
 11
2102.113170492412
 21
575.0275683577438
 31
0.0
  0
LINE
  5
64
330
17
100
AcDbEntity
  8
HARDWARE
100
AcDbLine
 10
2101.313663928402
 20
581.5036110112578
 30
0.0
 11
2101.540510656969
 21
575.0075706356347
 31
0.0
  0
CIRCLE
  5
65
330
17
100
AcDbEntity
  8
HARDWARE
100
AcDbCircle
 10
2101.713417210407
 20
578.2655896845008
 30
0.0
 40
3.249999999999999
  0
LINE
  5
66
330
17
100
AcDbEntity
  8
HARDWARE
100
AcDbLine
 10
2106.424345039764
 20
584.101440863773
 30
0.0
 11
2106.110283184473
 21
583.7123841184875
 31
0.0
  0
LINE
  5
67
330
17
100
AcDbEntity
  8
HARDWARE
100
AcDbLine
 10
2097.932753385505
 20
584.742979671455
 30
0.0
 11
2098.184797640499
 21
584.3111536723244
 31
0.0
  0
LINE
  5
68
330
17
100
AcDbEntity
  8
HARDWARE
100
AcDbLine
 10
2098.586037361775
 20
585.0824434516253
 30
0.0
 11
2098.794529351682
 21
584.6279865338183
 31
0.0
  0
LINE
  5
69
330
17
100
AcDbEntity
  8
HARDWARE
100
AcDbLine
 10
2099.251115189367
 20
585.3498729056319
 30
0.0
 11
2099.415268657436
 21
584.877587357556
 31
0.0
  0
LINE
  5
6A
330
17
100
AcDbEntity
  8
HARDWARE
100
AcDbLine
 10
2099.991906609254
 20
585.5653431906212
 30
0.0
 11
2100.106673982664
 21
585.0786929568803
 31
0.0
  0
LINE
  5
6B
330
17
100
AcDbEntity
  8
HARDWARE
100
AcDbLine
 10
2094.95108263994
 20
581.5091727583657
 30
0.0
 11
2095.401904944638
 21
581.2929338867743
 31
0.0
  0
LINE
  5
6C
330
17
100
AcDbEntity
  8
HARDWARE
100
AcDbLine
 10
2095.274616783362
 20
582.1116069830423
 30
0.0
 11
2095.703870145164
 21
581.8552058298064
 31
0.0
  0
LINE
  5
6D
330
17
100
AcDbEntity
  8
HARDWARE
100
AcDbLine
 10
2096.587398585199
 20
583.7404351667064
 30
0.0
 11
2096.929133160214
 21
583.3754454678929
 31
0.0
  0
LINE
  5
6E
330
17
100
AcDbEntity
  8
HARDWARE
100
AcDbLine
 10
2096.0109556109
 20
583.1371327363631
 30
0.0
 11
2096.391119717533
 21
582.8123631995732
 31
0.0
  0
LINE
  5
6F
330
17
100
AcDbEntity
  8
HARDWARE
100
AcDbLine
 10
2095.585883636139
 20
582.5903246239176
 30
0.0
 11
2095.994385874423
 21
582.3020089612891
 31
0.0
  0
LINE
  5
70
330
17
100
AcDbEntity
  8
HARDWARE
100
AcDbLine
 10
2097.241236157291
 20
584.2863534755961
 30
0.0
 11
2097.539381560833
 21
583.884969222856
 31
0.0
  0
LINE
  5
71
330
17
100
AcDbEntity
  8
HARDWARE
100
AcDbLine
 10
2105.580072848228
 20
584.6920174774914
 30
0.0
 11
2105.322295805707
 21
584.2635889579578
 31
0.0
  0
LINE
  5
72
330
17
100
AcDbEntity
  8
HARDWARE
100
AcDbLine
 10
2105.936582812314
 20
584.4635629257209
 30
0.0
 11
2105.655038438852
 21
584.0503647096411
 31
0.0
  0
LINE
  5
73
330
17
100
AcDbEntity
  8
HARDWARE
100
AcDbLine
 10
2105.149860628864
 20
584.9319872597844
 30
0.0
 11
2104.920764400968
 21
584.4875607547655
 31
0.0
  0
LINE
  5
74
330
17
100
AcDbEntity
  8
HARDWARE
100
AcDbLine
 10
2104.374937371957
 20
585.2774589381079
 30
0.0
 11
2104.19750269452
 21
584.810000987867
 31
0.0
  0
LINE
  5
75
330
17
100
AcDbEntity
  8
HARDWARE
100
AcDbLine
 10
2103.820078686915
 20
585.4636434091826
 30
0.0
 11
2103.679634588481
 21
584.9837731608714
 31
0.0
  0
LINE
  5
76
330
17
100
AcDbEntity
  8
HARDWARE
100
AcDbLine
 10
2104.763250616116
 20
585.1174884138636
 30
0.0
 11
2104.559928389068
 21
584.6606951652392
 31
0.0
  0
LINE
  5
77
330
17
100
AcDbEntity
  8
HARDWARE
100
AcDbLine
 10
2101.45167098514
 20
585.7610208871447
 30
0.0
 11
2101.469120733491
 21
585.2613254736352
 31
0.0
  0
LINE
  5
78
330
17
100
AcDbEntity
  8
HARDWARE
100
AcDbLine
 10
2102.167051883427
 20
585.7518581530658
 30
0.0
 11
2102.136809571891
 21
585.252773588496
 31
0.0
  0
LINE
  5
79
330
17
100
AcDbEntity
  8
HARDWARE
100
AcDbLine
 10
2100.770451495411
 20
585.7060745921098
 30
0.0
 11
2100.833315876411
 21
585.2100422649345
 31
0.0
  0
LINE
  5
7A
330
17
100
AcDbEntity
  8
HARDWARE
100
AcDbLine
 10
2103.436127374842
 20
585.565060191966
 30
0.0
 11
2103.321280030546
 21
585.0784288248014
 31
0.0
  0
LINE
  5
7B
330
17
100
AcDbEntity
  8
HARDWARE
100
AcDbLine
 10
2102.584004382837
 20
585.7148901869114
 30
0.0
 11
2102.52596523801
 21
585.2182701534165
 31
0.0
  0
LINE
  5
7C
330
17
100
AcDbEntity
  8
HARDWARE
100
AcDbLine
 10
2103.012303869437
 20
585.6522596681261
 30
0.0
 11
2102.925711425501
 21
585.1598150025511
 31
0.0
  0
LINE
  5
7D
330
17
100
AcDbEntity
  8
HARDWARE
100
AcDbLine
 10
2108.144143919059
 20
582.1250914656448
 30
0.0
 11
2107.715428805148
 21
581.8677913469018
 31
0.0
  0
LINE
  5
7E
330
17
100
AcDbEntity
  8
HARDWARE
100
AcDbLine
 10
2106.809142655586
 20
583.7686417637887
 30
0.0
 11
2106.469427625909
 21
583.4017716251691
 31
0.0
  0
LINE
  5
7F
330
17
100
AcDbEntity
  8
HARDWARE
100
AcDbLine
 10
2107.13354598668
 20
583.4494303503214
 30
0.0
 11
2106.772204068262
 21
583.1038409726006
 31
0.0
  0
LINE
  5
80
330
17
100
AcDbEntity
  8
HARDWARE
100
AcDbLine
 10
2107.462431798258
 20
583.0821061921724
 30
0.0
 11
2107.07916415907
 21
582.761005091661
 31
0.0
  0
LINE
  5
81
330
17
100
AcDbEntity
  8
HARDWARE
100
AcDbLine
 10
2107.82747893389
 20
582.6093494892593
 30
0.0
 11
2107.419874818992
 21
582.3197655022759
 31
0.0
  0
LINE
  5
82
330
17
100
AcDbEntity
  8
HARDWARE
100
AcDbLine
 10
2108.666301226733
 20
581.0776003273567
 30
0.0
 11
2108.202775625645
 21
580.8901329511663
 31
0.0
  0
LINE
  5
83
330
17
100
AcDbEntity
  8
HARDWARE
100
AcDbLine
 10
2108.399231249372
 20
581.6641026882116
 30
0.0
 11
2107.953510313441
 21
581.4375351546313
 31
0.0
  0
LINE
  5
84
330
17
100
AcDbEntity
  8
HARDWARE
100
AcDbLine
 10
2108.84382408833
 20
580.590949388992
 30
0.0
 11
2108.368463629802
 21
580.435925408694
 31
0.0
  0
LWPOLYLINE
  5
85
330
17
100
AcDbEntity
  8
HARDWARE
100
AcDbPolyline
 90
4
 70
1
 10
2097.945241664573
 20
550.0669043772795
 10
2107.689302228008
 20
550.4071744701287
 10
2107.951048453276
 20
542.9117432674847
 10
2098.20698788984
 20
542.5714731746356
  0
LINE
  5
86
330
17
100
AcDbEntity
  8
HARDWARE
100
AcDbLine
 10
2106.449421179073
 20
564.4224409672205
 30
0.0
 11
2107.225138921865
 21
563.6990724694824
 31
0.0
  0
LWPOLYLINE
  5
87
330
17
100
AcDbEntity
  8
HARDWARE
100
AcDbPolyline
 90
4
 70
1
 10
2097.21933213316
 20
570.8542335792754
 10
2106.963392696596
 20
571.1945036721263
 10
2107.225138921865
 20
563.6990724694824
 10
2097.481078358429
 20
563.3588023766333
  0
LINE
  5
88
330
17
100
AcDbEntity
  8
HARDWARE
100
AcDbLine
 10
2106.449421179073
 20
564.4224409672205
 30
0.0
 11
2097.454903735901
 21
564.1083454968975
 31
0.0
  0
LINE
  5
89
330
17
100
AcDbEntity
  8
HARDWARE
100
AcDbLine
 10
2106.240024198858
 20
570.4187859293341
 30
0.0
 11
2106.963392696596
 21
571.1945036721263
 31
0.0
  0
CIRCLE
  5
8A
330
17
100
AcDbEntity
  8
HARDWARE
100
AcDbCircle
 10
2101.713417210408
 20
578.2655896845017
 30
0.0
 40
1.987223294643854
  0
CIRCLE
  5
8B
330
17
100
AcDbEntity
  8
HARDWARE
100
AcDbCircle
 10
2101.713417210408
 20
578.265589684501
 30
0.0
 40
1.987223294644195
  0
LINE
  5
8C
330
17
100
AcDbEntity
  8
HARDWARE
100
AcDbLine
 10
2097.245506755688
 20
570.1046904590111
 30
0.0
 11
2106.240024198858
 21
570.4187859293341
 31
0.0
  0
LINE
  5
8D
330
17
100
AcDbEntity
  8
HARDWARE
100
AcDbLine
 10
2108.698813706121
 20
577.8136651358691
 30
0.0
 11
2109.197770598674
 21
577.7813848109672
 31
0.0
  0
LINE
  5
8E
330
17
100
AcDbEntity
  8
HARDWARE
100
AcDbLine
 10
2108.759612516078
 20
577.064914665314
 30
0.0
 11
2109.106846289819
 21
577.0057458657192
 31
0.0
  0
LINE
  5
8F
330
17
100
AcDbEntity
  8
HARDWARE
100
AcDbLine
 10
2108.783457603246
 20
576.3820807096635
 30
0.0
 11
2108.960647373749
 21
576.3348760963308
 31
0.0
  0
LINE
  5
90
330
17
100
AcDbEntity
  8
HARDWARE
100
AcDbLine
 10
2108.709152999542
 20
578.5098861614186
 30
0.0
 11
2109.208848413051
 21
578.52733590977
 31
0.0
  0
LINE
  5
91
330
17
100
AcDbEntity
  8
HARDWARE
100
AcDbLine
 10
2109.152892129674
 20
579.2164907969217
 30
0.0
 11
2108.656927135056
 21
579.153097389426
 31
0.0
  0
LINE
  5
92
330
17
100
AcDbEntity
  8
HARDWARE
100
AcDbLine
 10
2109.01048577158
 20
579.9984458278559
 30
0.0
 11
2108.524014534167
 21
579.8829220849657
 31
0.0
  0
LINE
  5
93
330
17
100
AcDbEntity
  8
HARDWARE
100
AcDbLine
 10
2097.971416287099
 20
549.3173612570152
 30
0.0
 11
2106.965933730271
 21
549.6314567273365
 31
0.0
  0
LWPOLYLINE
  5
94
330
17
100
AcDbEntity
  8
HARDWARE
100
AcDbPolyline
 90
4
 70
1
 10
2097.582286898866
 20
560.4605689782765
 10
2107.326347462302
 20
560.8008390711274
 10
2107.588093687571
 20
553.3054078684836
 10
2097.844033124134
 20
552.9651377756344
  0
LINE
  5
95
330
17
100
AcDbEntity
  8
HARDWARE
100
AcDbLine
 10
2106.812375944779
 20
554.0287763662218
 30
0.0
 11
2097.817858501608
 21
553.7146808958986
 31
0.0
  0
LINE
  5
96
330
17
100
AcDbEntity
  8
HARDWARE
100
AcDbLine
 10
2097.608461521393
 20
559.7110258580122
 30
0.0
 11
2106.602978964565
 21
560.0251213283354
 31
0.0
  0
LINE
  5
97
330
17
100
AcDbEntity
  8
HARDWARE
100
AcDbLine
 10
2106.602978964565
 20
560.0251213283354
 30
0.0
 11
2107.326347462302
 21
560.8008390711274
 31
0.0
  0
LINE
  5
98
330
17
100
AcDbEntity
  8
HARDWARE
100
AcDbLine
 10
2106.812375944779
 20
554.0287763662218
 30
0.0
 11
2107.588093687571
 21
553.3054078684836
 31
0.0
  0
LINE
  5
99
330
17
100
AcDbEntity
  8
HARDWARE
100
AcDbLine
 10
2106.965933730271
 20
549.6314567273365
 30
0.0
 11
2107.689302228008
 21
550.4071744701287
 31
0.0
  0
LINE
  5
9A
330
17
100
AcDbEntity
  8
HARDWARE
100
AcDbLine
 10
2107.538285476192
 20
533.2414471642242
 30
0.0
 11
2098.54376803302
 21
532.927351693901
 31
0.0
  0
LINE
  5
9B
330
17
100
AcDbEntity
  8
HARDWARE
100
AcDbLine
 10
2098.334371052804
 20
538.9236966560165
 30
0.0
 11
2107.328888495977
 21
539.2377921263378
 31
0.0
  0
LINE
  5
9C
330
17
100
AcDbEntity
  8
HARDWARE
100
AcDbLine
 10
2107.175330710486
 20
543.6351117652229
 30
0.0
 11
2098.180813267314
 21
543.3210162948999
 31
0.0
  0
LWPOLYLINE
  5
9D
330
17
100
AcDbEntity
  8
HARDWARE
100
AcDbPolyline
 90
4
 70
1
 10
2098.308196430278
 20
539.6732397762808
 10
2108.052256993715
 20
540.0135098691298
 10
2108.314003218982
 20
532.5180786664858
 10
2098.569942655547
 20
532.1778085736368
  0
LINE
  5
9E
330
17
100
AcDbEntity
  8
HARDWARE
100
AcDbLine
 10
2107.328888495977
 20
539.2377921263378
 30
0.0
 11
2108.052256993715
 21
540.0135098691298
 31
0.0
  0
LINE
  5
9F
330
17
100
AcDbEntity
  8
HARDWARE
100
AcDbLine
 10
2107.175330710486
 20
543.6351117652229
 30
0.0
 11
2107.951048453276
 21
542.9117432674847
 31
0.0
  0
LINE
  5
A0
330
17
100
AcDbEntity
  8
HARDWARE
100
AcDbLine
 10
2107.538285476192
 20
533.2414471642242
 30
0.0
 11
2108.314003218982
 21
532.5180786664858
 31
0.0
  0
LINE
  5
A1
330
17
100
AcDbEntity
  8
HARDWARE
100
AcDbLine
 10
2099.060280584217
 20
518.1363674540189
 30
0.0
 11
2108.05479802739
 21
518.4504629243419
 31
0.0
  0
LINE
  5
A2
330
17
100
AcDbEntity
  8
HARDWARE
100
AcDbLine
 10
2107.901240241897
 20
522.8477825632253
 30
0.0
 11
2098.906722798725
 21
522.5336870929023
 31
0.0
  0
LINE
  5
A3
330
17
100
AcDbEntity
  8
HARDWARE
100
AcDbLine
 10
2098.697325818512
 20
528.5300320550176
 30
0.0
 11
2107.691843261682
 21
528.8441275253408
 31
0.0
  0
LWPOLYLINE
  5
A4
330
17
100
AcDbEntity
  8
HARDWARE
100
AcDbPolyline
 90
4
 70
1
 10
2098.671151195984
 20
529.2795751752819
 10
2108.415211759421
 20
529.619845268131
 10
2108.67695798469
 20
522.1244140654888
 10
2098.932897421253
 20
521.784143972638
  0
LINE
  5
A5
330
17
100
AcDbEntity
  8
HARDWARE
100
AcDbLine
 10
2107.691843261682
 20
528.8441275253408
 30
0.0
 11
2108.415211759421
 21
529.619845268131
 31
0.0
  0
LINE
  5
A6
330
17
100
AcDbEntity
  8
HARDWARE
100
AcDbLine
 10
2108.05479802739
 20
518.4504629243419
 30
0.0
 11
2108.778166525126
 21
519.2261806671321
 31
0.0
  0
LINE
  5
A7
330
17
100
AcDbEntity
  8
HARDWARE
100
AcDbLine
 10
2107.901240241897
 20
522.8477825632253
 30
0.0
 11
2108.67695798469
 21
522.1244140654888
 31
0.0
  0
LINE
  5
A8
330
17
100
AcDbEntity
  8
HARDWARE
100
AcDbLine
 10
2100.254680172864
 20
497.9926073917758
 30
0.0
 11
2100.5241001591
 21
498.413811464663
 31
0.0
  0
LINE
  5
A9
330
17
100
AcDbEntity
  8
HARDWARE
100
AcDbLine
 10
2108.189076768826
 20
497.9002240943391
 30
0.0
 11
2107.929536981997
 21
498.3275870537218
 31
0.0
  0
LINE
  5
AA
330
17
100
AcDbEntity
  8
HARDWARE
100
AcDbLine
 10
2108.601501567028
 20
498.1696194096875
 30
0.0
 11
2108.31446679365
 21
498.5790226813805
 31
0.0
  0
SPLINE
  5
AB
330
17
100
AcDbEntity
  8
HARDWARE
100
AcDbSpline
 70
0
 71
3
 72
0
 73
0
 74
7
 11
2097.300244177259
 21
504.0663720081702
 31
0.0
 11
2097.435165395898
 21
500.2027338179868
 31
0.0
 11
2100.676638253128
 21
497.1800114773158
 31
0.0
 11
2104.540276443311
 21
497.3149326959555
 31
0.0
 11
2108.403914633495
 21
497.4498539145933
 31
0.0
 11
2111.426636974165
 21
500.6913267718227
 31
0.0
 11
2111.291715755526
 21
504.5549649620061
 31
0.0
  0
SPLINE
  5
AC
330
17
100
AcDbEntity
  8
HARDWARE
100
AcDbSpline
 70
0
 71
3
 72
0
 73
0
 74
7
 11
2097.300244177259
 21
504.0663720081702
 31
0.0
 11
2097.435165395898
 21
500.2027338179868
 31
0.0
 11
2100.676638253128
 21
497.1800114773158
 31
0.0
 11
2104.540276443311
 21
497.3149326959555
 31
0.0
 11
2108.403914633495
 21
497.4498539145933
 31
0.0
 11
2111.426636974165
 21
500.6913267718227
 31
0.0
 11
2111.291715755526
 21
504.5549649620061
 31
0.0
  0
SPLINE
  5
AD
330
17
100
AcDbEntity
  8
HARDWARE
100
AcDbSpline
 70
0
 71
3
 72
0
 73
0
 74
10
 11
2097.206274406544
 21
506.7573141632911
 31
0.0
 11
2095.855029310234
 21
502.8417779017981
 31
0.0
 11
2097.933798026696
 21
498.5722080215528
 31
0.0
 11
2101.84933428819
 21
497.2209629252411
 31
0.0
 11
2105.764870549683
 21
495.8697178289294
 31
0.0
 11
2110.034440429929
 21
497.9484865453905
 31
0.0
 11
2111.38568552624
 21
501.8640228068853
 31
0.0
 11
2111.991459788391
 21
503.6193898355686
 31
0.0
 11
2111.924492825354
 21
505.5370727507124
 31
0.0
 11
2111.197745984811
 21
507.2459071171251
 31
0.0
  0
LINE
  5
AE
330
17
100
AcDbEntity
  8
HARDWARE
100
AcDbLine
 10
2108.264195007603
 20
512.4541179622265
 30
0.0
 11
2099.269677564433
 21
512.1400224919034
 31
0.0
  0
CIRCLE
  5
AF
330
17
100
AcDbEntity
  8
HARDWARE
100
AcDbCircle
 10
2104.295979966393
 20
504.3106684850881
 30
0.0
 40
3.249999999999999
  0
LINE
  5
B0
330
17
100
AcDbEntity
  8
HARDWARE
100
AcDbLine
 10
2104.123073412955
 20
501.0526494362202
 30
0.0
 11
2103.896226684388
 21
507.5486898118452
 31
0.0
  0
LINE
  5
B1
330
17
100
AcDbEntity
  8
HARDWARE
100
AcDbLine
 10
2104.695733248398
 20
501.0726471583311
 30
0.0
 11
2104.468886519831
 21
507.568687533956
 31
0.0
  0
LINE
  5
B2
330
17
100
AcDbEntity
  8
HARDWARE
100
AcDbLine
 10
2097.211229593373
 20
506.6154161782123
 30
0.0
 11
2097.163876879504
 21
506.6308205400182
 31
0.0
  0
LINE
  5
B3
330
17
100
AcDbEntity
  8
HARDWARE
100
AcDbLine
 10
2097.008443170893
 20
502.5381540410726
 30
0.0
 11
2097.49427895726
 21
502.6563216706726
 31
0.0
  0
LINE
  5
B4
330
17
100
AcDbEntity
  8
HARDWARE
100
AcDbLine
 10
2097.229906552677
 20
506.0805780410155
 30
0.0
 11
2097.02073350808
 21
506.1329716900472
 31
0.0
  0
LINE
  5
B5
330
17
100
AcDbEntity
  8
HARDWARE
100
AcDbLine
 10
2097.251168374404
 20
505.4717191288309
 30
0.0
 11
2096.89580876342
 21
505.5302857064743
 31
0.0
  0
LINE
  5
B6
330
17
100
AcDbEntity
  8
HARDWARE
100
AcDbLine
 10
2096.863634511366
 20
503.3055610096689
 30
0.0
 11
2097.359124208368
 21
503.3725681746964
 31
0.0
  0
LINE
  5
B7
330
17
100
AcDbEntity
  8
HARDWARE
100
AcDbLine
 10
2096.800548763749
 20
504.0489222598189
 30
0.0
 11
2097.300244177259
 21
504.0663720081702
 31
0.0
  0
LINE
  5
B8
330
17
100
AcDbEntity
  8
HARDWARE
100
AcDbLine
 10
2097.307474675025
 20
504.7116594980979
 30
0.0
 11
2096.808295725641
 21
504.7403017133147
 31
0.0
  0
LINE
  5
B9
330
17
100
AcDbEntity
  8
HARDWARE
100
AcDbLine
 10
2099.564353980057
 20
498.4915864676714
 30
0.0
 11
2099.879795712479
 21
498.8795252688324
 31
0.0
  0
LINE
  5
BA
330
17
100
AcDbEntity
  8
HARDWARE
100
AcDbLine
 10
2098.141148738279
 20
500.0248718784532
 30
0.0
 11
2098.551470820154
 21
500.310591652229
 31
0.0
  0
LINE
  5
BB
330
17
100
AcDbEntity
  8
HARDWARE
100
AcDbLine
 10
2097.443643841034
 20
501.2618179434757
 30
0.0
 11
2097.90046624939
 21
501.4650746462502
 31
0.0
  0
LINE
  5
BC
330
17
100
AcDbEntity
  8
HARDWARE
100
AcDbLine
 10
2098.485051015194
 20
499.5690332477352
 30
0.0
 11
2098.872446278607
 21
499.885142263558
 31
0.0
  0
LINE
  5
BD
330
17
100
AcDbEntity
  8
HARDWARE
100
AcDbLine
 10
2098.947230941727
 20
499.0532086544154
 30
0.0
 11
2099.303814210038
 21
499.4037059764596
 31
0.0
  0
LINE
  5
BE
330
17
100
AcDbEntity
  8
HARDWARE
100
AcDbLine
 10
2097.776379020594
 20
500.6032700026572
 30
0.0
 11
2098.211019083647
 21
500.8504299014857
 31
0.0
  0
LINE
  5
BF
330
17
100
AcDbEntity
  8
HARDWARE
100
AcDbLine
 10
2097.201083463206
 20
501.8791167975741
 30
0.0
 11
2097.674076563417
 21
502.041220243409
 31
0.0
  0
CIRCLE
  5
C0
330
17
100
AcDbEntity
  8
HARDWARE
100
AcDbCircle
 10
2104.295979966393
 20
504.3106684850881
 30
0.0
 40
1.987223294643626
  0
CIRCLE
  5
C1
330
17
100
AcDbEntity
  8
HARDWARE
100
AcDbCircle
 10
2104.295979966392
 20
504.3106684850886
 30
0.0
 40
1.98722329464499
  0
LINE
  5
C2
330
17
100
AcDbEntity
  8
HARDWARE
100
AcDbLine
 10
2108.264195007603
 20
512.4541179622265
 30
0.0
 11
2109.039912750395
 21
511.7307494644901
 31
0.0
  0
LINE
  5
C3
330
17
100
AcDbEntity
  8
HARDWARE
100
AcDbLine
 10
2111.217411151821
 20
506.6827704137613
 30
0.0
 11
2111.390876469581
 21
506.7422201726022
 31
0.0
  0
LINE
  5
C4
330
17
100
AcDbEntity
  8
HARDWARE
100
AcDbLine
 10
2111.571226424705
 20
502.4883652801291
 30
0.0
 11
2111.086209994152
 21
502.6098521604599
 31
0.0
  0
LINE
  5
C5
330
17
100
AcDbEntity
  8
HARDWARE
100
AcDbLine
 10
2111.696151169365
 20
503.0910512637019
 30
0.0
 11
2111.2028064225
 21
503.1723590784604
 31
0.0
  0
LINE
  5
C6
330
17
100
AcDbEntity
  8
HARDWARE
100
AcDbLine
 10
2111.783664207145
 20
503.8810352568616
 30
0.0
 11
2111.284485257762
 21
503.9096774720783
 31
0.0
  0
LINE
  5
C7
330
17
100
AcDbEntity
  8
HARDWARE
100
AcDbLine
 10
2111.241256238989
 20
505.9999364581108
 30
0.0
 11
2111.583516761891
 21
506.0831829291037
 31
0.0
  0
LINE
  5
C8
330
17
100
AcDbEntity
  8
HARDWARE
100
AcDbLine
 10
2111.232835724417
 20
505.2487687954799
 30
0.0
 11
2111.72832542142
 21
505.3157759605073
 31
0.0
  0
LINE
  5
C9
330
17
100
AcDbEntity
  8
HARDWARE
100
AcDbLine
 10
2111.291715755526
 20
504.5549649620061
 30
0.0
 11
2111.791411169035
 21
504.5724147103574
 31
0.0
  0
LINE
  5
CA
330
17
100
AcDbEntity
  8
HARDWARE
100
AcDbLine
 10
2111.428083053281
 20
501.990516430158
 30
0.0
 11
2110.952609514155
 21
502.1451932338204
 31
0.0
  0
LINE
  5
CB
330
17
100
AcDbEntity
  8
HARDWARE
100
AcDbLine
 10
2110.69815350958
 20
500.4039852469814
 30
0.0
 11
2110.271341940035
 21
500.6644307961887
 31
0.0
  0
LINE
  5
CC
330
17
100
AcDbEntity
  8
HARDWARE
100
AcDbLine
 10
2110.366973450959
 20
499.9069157547037
 30
0.0
 11
2109.962240551988
 21
500.200499270064
 31
0.0
  0
LINE
  5
CD
330
17
100
AcDbEntity
  8
HARDWARE
100
AcDbLine
 10
2109.763165988379
 20
499.1764814023063
 30
0.0
 11
2109.398686920247
 21
499.5187605411593
 31
0.0
  0
LINE
  5
CE
330
17
100
AcDbEntity
  8
HARDWARE
100
AcDbLine
 10
2109.402520611888
 20
498.8176508594206
 30
0.0
 11
2109.062084568856
 21
499.1838520344645
 31
0.0
  0
LINE
  5
CF
330
17
100
AcDbEntity
  8
HARDWARE
100
AcDbLine
 10
2108.941206906815
 20
498.4223863356019
 30
0.0
 11
2108.631525110788
 21
498.8149384788994
 31
0.0
  0
LINE
  5
D0
330
17
100
AcDbEntity
  8
HARDWARE
100
AcDbLine
 10
2110.064512026682
 20
499.5175444652631
 30
0.0
 11
2109.679943222662
 21
499.8370860665836
 31
0.0
  0
LINE
  5
D1
330
17
100
AcDbEntity
  8
HARDWARE
100
AcDbLine
 10
2111.202575981499
 20
501.3868128997128
 30
0.0
 11
2110.742136247158
 21
501.5817366054052
 31
0.0
  0
LINE
  5
D2
330
17
100
AcDbEntity
  8
HARDWARE
100
AcDbLine
 10
2110.98026698265
 20
500.9091530751138
 30
0.0
 11
2110.534647848234
 21
501.1359207691111
 31
0.0
  0
LINE
  5
D3
330
17
100
AcDbEntity
  8
HARDWARE
100
AcDbLine
 10
2102.333850605832
 20
497.0718807155499
 30
0.0
 11
2102.464659229869
 21
497.5544665668531
 31
0.0
  0
LINE
  5
D4
330
17
100
AcDbEntity
  8
HARDWARE
100
AcDbLine
 10
2103.087867942328
 20
496.9086103025747
 30
0.0
 11
2103.168408743932
 21
497.4020808480763
 31
0.0
  0
LINE
  5
D5
330
17
100
AcDbEntity
  8
HARDWARE
100
AcDbLine
 10
2100.976365533108
 20
497.585331317754
 30
0.0
 11
2101.197673161994
 21
498.0336871289091
 31
0.0
  0
LINE
  5
D6
330
17
100
AcDbEntity
  8
HARDWARE
100
AcDbLine
 10
2101.651737938711
 20
497.292265240827
 30
0.0
 11
2101.828020740557
 21
497.7601587904445
 31
0.0
  0
LINE
  5
D7
330
17
100
AcDbEntity
  8
HARDWARE
100
AcDbLine
 10
2106.106970653573
 20
497.0325978114178
 30
0.0
 11
2105.986237941094
 21
497.5178025229961
 31
0.0
  0
LINE
  5
D8
330
17
100
AcDbEntity
  8
HARDWARE
100
AcDbLine
 10
2105.684083367136
 20
496.9402431955368
 30
0.0
 11
2105.591543140419
 21
497.4316048815071
 31
0.0
  0
LINE
  5
D9
330
17
100
AcDbEntity
  8
HARDWARE
100
AcDbLine
 10
2103.874333258586
 20
496.8225302616174
 30
0.0
 11
2103.902443039106
 21
497.3217394765161
 31
0.0
  0
LINE
  5
DA
330
17
100
AcDbEntity
  8
HARDWARE
100
AcDbLine
 10
2105.270725298018
 20
496.8742801454118
 30
0.0
 11
2105.20574227591
 21
497.3700393680574
 31
0.0
  0
LINE
  5
DB
330
17
100
AcDbEntity
  8
HARDWARE
100
AcDbLine
 10
2104.557726191661
 20
496.8152372824443
 30
0.0
 11
2104.540276443309
 21
497.3149326959537
 31
0.0
  0
LINE
  5
DC
330
17
100
AcDbEntity
  8
HARDWARE
100
AcDbLine
 10
2107.81634842502
 20
497.6882062605454
 30
0.0
 11
2107.581657194445
 21
498.1297037421809
 31
0.0
  0
LINE
  5
DD
330
17
100
AcDbEntity
  8
HARDWARE
100
AcDbLine
 10
2106.899620567079
 20
497.2771021334811
 30
0.0
 11
2106.726044527033
 21
497.7460065569212
 31
0.0
  0
LINE
  5
DE
330
17
100
AcDbEntity
  8
HARDWARE
100
AcDbLine
 10
2107.440140072082
 20
497.501538053837
 30
0.0
 11
2107.23052939837
 21
497.9554800825881
 31
0.0
  0
LINE
  5
DF
330
17
100
AcDbEntity
  8
HARDWARE
100
AcDbLine
 10
2106.52367901825
 20
497.1491493072626
 30
0.0
 11
2106.375165748126
 21
497.6265839191182
 31
0.0
  0
LINE
  5
E0
330
17
100
AcDbEntity
  8
HARDWARE
100
AcDbLine
 10
2119.525434377534
 20
577.0324255617143
 30
0.0
 11
2119.525434377534
 21
506.0324255617143
 31
0.0
  0
LINE
  5
E1
330
17
100
AcDbEntity
  8
HARDWARE
100
AcDbLine
 10
2159.397848296858
 20
506.0324255617143
 30
0.0
 11
2159.39784829686
 21
577.0324255617143
 31
0.0
  0
LINE
  5
E2
330
17
100
AcDbEntity
  8
HARDWARE
100
AcDbLine
 10
2119.525434377534
 20
506.0324255617143
 30
0.0
 11
2131.961641337197
 21
506.0324255617143
 31
0.0
  0
LINE
  5
E3
330
17
100
AcDbEntity
  8
HARDWARE
100
AcDbLine
 10
2146.961641337197
 20
506.0324255617143
 30
0.0
 11
2159.397848296858
 21
506.0324255617143
 31
0.0
  0
LINE
  5
E4
330
17
100
AcDbEntity
  8
HARDWARE
100
AcDbLine
 10
2131.961641337197
 20
506.0324255617143
 30
0.0
 11
2131.961641337197
 21
497.5324255617143
 31
0.0
  0
LINE
  5
E5
330
17
100
AcDbEntity
  8
HARDWARE
100
AcDbLine
 10
2146.961641337197
 20
497.5324255617143
 30
0.0
 11
2146.961641337197
 21
506.0324255617143
 31
0.0
  0
LINE
  5
E6
330
17
100
AcDbEntity
  8
HARDWARE
100
AcDbLine
 10
2131.961641337197
 20
497.5324255617143
 30
0.0
 11
2146.961641337197
 21
497.5324255617143
 31
0.0
  0
LINE
  5
E7
330
17
100
AcDbEntity
  8
HARDWARE
100
AcDbLine
 10
2131.961641337197
 20
577.0324255617143
 30
0.0
 11
2119.525434377534
 21
577.0324255617143
 31
0.0
  0
LINE
  5
E8
330
17
100
AcDbEntity
  8
HARDWARE
100
AcDbLine
 10
2159.39784829686
 20
577.0324255617143
 30
0.0
 11
2146.961641337197
 21
577.0324255617143
 31
0.0
  0
LINE
  5
E9
330
17
100
AcDbEntity
  8
HARDWARE
100
AcDbLine
 10
2146.961641337197
 20
585.5324255617141
 30
0.0
 11
2131.961641337197
 21
585.5324255617141
 31
0.0
  0
LINE
  5
EA
330
17
100
AcDbEntity
  8
HARDWARE
100
AcDbLine
 10
2131.961641337197
 20
585.5324255617141
 30
0.0
 11
2131.961641337197
 21
577.0324255617143
 31
0.0
  0
LINE
  5
EB
330
17
100
AcDbEntity
  8
HARDWARE
100
AcDbLine
 10
2146.961641337197
 20
577.0324255617143
 30
0.0
 11
2146.961641337197
 21
585.5324255617141
 31
0.0
  0
LINE
  5
EC
330
17
100
AcDbEntity
  8
HARDWARE
100
AcDbLine
 10
2212.580034810753
 20
577.0324255617143
 30
0.0
 11
2212.580034810753
 21
506.0324255617143
 31
0.0
  0
LINE
  5
ED
330
17
100
AcDbEntity
  8
HARDWARE
100
AcDbLine
 10
2252.452448730077
 20
506.0324255617143
 30
0.0
 11
2252.452448730077
 21
577.0324255617143
 31
0.0
  0
LINE
  5
EE
330
17
100
AcDbEntity
  8
HARDWARE
100
AcDbLine
 10
2212.580034810753
 20
506.0324255617143
 30
0.0
 11
2225.016241770414
 21
506.0324255617143
 31
0.0
  0
LINE
  5
EF
330
17
100
AcDbEntity
  8
HARDWARE
100
AcDbLine
 10
2240.016241770414
 20
506.0324255617143
 30
0.0
 11
2252.452448730077
 21
506.0324255617143
 31
0.0
  0
LINE
  5
F0
330
17
100
AcDbEntity
  8
HARDWARE
100
AcDbLine
 10
2225.016241770414
 20
506.0324255617143
 30
0.0
 11
2225.016241770414
 21
497.5324255617143
 31
0.0
  0
LINE
  5
F1
330
17
100
AcDbEntity
  8
HARDWARE
100
AcDbLine
 10
2240.016241770414
 20
497.5324255617143
 30
0.0
 11
2240.016241770414
 21
506.0324255617143
 31
0.0
  0
LINE
  5
F2
330
17
100
AcDbEntity
  8
HARDWARE
100
AcDbLine
 10
2225.016241770414
 20
497.5324255617143
 30
0.0
 11
2240.016241770414
 21
497.5324255617143
 31
0.0
  0
LINE
  5
F3
330
17
100
AcDbEntity
  8
HARDWARE
100
AcDbLine
 10
2225.016241770416
 20
577.0324255617143
 30
0.0
 11
2212.580034810753
 21
577.0324255617143
 31
0.0
  0
LINE
  5
F4
330
17
100
AcDbEntity
  8
HARDWARE
100
AcDbLine
 10
2252.452448730077
 20
577.0324255617143
 30
0.0
 11
2240.016241770416
 21
577.0324255617143
 31
0.0
  0
LINE
  5
F5
330
17
100
AcDbEntity
  8
HARDWARE
100
AcDbLine
 10
2240.016241770416
 20
585.5324255617141
 30
0.0
 11
2225.016241770416
 21
585.5324255617141
 31
0.0
  0
LINE
  5
F6
330
17
100
AcDbEntity
  8
HARDWARE
100
AcDbLine
 10
2225.016241770416
 20
585.5324255617141
 30
0.0
 11
2225.016241770416
 21
577.0324255617143
 31
0.0
  0
LINE
  5
F7
330
17
100
AcDbEntity
  8
HARDWARE
100
AcDbLine
 10
2240.016241770416
 20
577.0324255617143
 30
0.0
 11
2240.016241770416
 21
585.5324255617141
 31
0.0
  0
LINE
  5
F8
330
17
100
AcDbEntity
  8
BODY
100
AcDbLine
 10
2294.924048730078
 20
166.1706118958664
 30
0.0
 11
2294.924048730078
 21
159.7523921523061
 31
0.0
  0
LINE
  5
F9
330
17
100
AcDbEntity
  8
BODY
100
AcDbLine
 10
2002.824048730078
 20
184.4770271523066
 30
0.0
 11
2294.924048730078
 21
194.6773921523054
 31
0.0
  0
LINE
  5
FA
330
17
100
AcDbEntity
  8
BODY
100
AcDbLine
 10
1808.431250646689
 20
177.6886755815358
 30
0.0
 11
2294.924048730078
 21
194.6773921523054
 31
0.0
  0
LINE
  5
FB
330
17
100
AcDbEntity
  8
BODY
100
AcDbLine
 10
1809.649374050048
 20
142.8062134224437
 30
0.0
 11
2294.924048730078
 21
159.7523921523061
 31
0.0
  0
LINE
  5
FC
330
17
100
AcDbEntity
  8
BODY
100
AcDbLine
 10
2008.50975278304
 20
175.1505764731628
 30
0.0
 11
2001.938140800361
 21
174.9210905407362
 31
0.0
  0
LINE
  5
FD
330
17
100
AcDbEntity
  8
BODY
100
AcDbLine
 10
2002.824048730078
 20
149.5520271523055
 30
0.0
 11
2001.605925326717
 21
184.4344893113975
 31
0.0
  0
LINE
  5
FE
330
17
100
AcDbEntity
  8
BODY
100
AcDbLine
 10
2294.924048730078
 20
166.1706118958664
 30
0.0
 11
2294.924048730079
 21
194.6773921523054
 31
0.0
  0
LINE
  5
FF
330
17
100
AcDbEntity
  8
BODY
100
AcDbLine
 10
2271.502448730077
 20
481.9297444428302
 30
0.0
 11
1838.231033537813
 21
333.4661126636638
 31
0.0
  0
LINE
  5
100
330
17
100
AcDbEntity
  8
BODY
100
AcDbLine
 10
2271.502448730077
 20
601.1351066805928
 30
0.0
 11
1838.23103353779
 21
749.5987384597674
 31
0.0
  0
SPLINE
  5
101
330
17
100
AcDbEntity
  8
BODY
100
AcDbSpline
 70
0
 71
3
 72
0
 73
0
 74
7
 11
1990.124048730076
 21
512.9574255617117
 31
0.0
 11
2005.905585456492
 21
527.204646217504
 31
0.0
 11
2007.149394385868
 21
551.5477638352977
 31
0.0
 11
1992.902173730075
 21
567.3293005617124
 31
0.0
 11
1992.02402083316
 21
568.302023770605
 31
0.0
 11
1991.09677193897
 21
569.2292726647956
 31
0.0
 11
1990.124048730076
 21
570.1074255617121
 31
0.0
  0
LINE
  5
102
330
17
100
AcDbEntity
  8
BODY
100
AcDbLine
 10
2271.502448730077
 20
481.9297444428302
 30
0.0
 11
2271.502448730077
 21
497.7081208807139
 31
0.0
  0
LINE
  5
103
330
17
100
AcDbEntity
  8
BODY
100
AcDbLine
 10
2271.502448730077
 20
585.1902056572225
 30
0.0
 11
2271.502448730077
 21
601.1351066805928
 31
0.0
  0
SPLINE
  5
104
330
17
100
AcDbEntity
  8
BODY
100
AcDbSpline
 70
0
 71
3
 72
0
 73
0
 74
4
 11
2271.502448730077
 21
585.1902056572217
 31
0.0
 11
2276.138124317213
 21
576.2806030404435
 31
0.0
 11
2284.935276703833
 21
570.2916986064101
 31
0.0
 11
2294.924048730078
 21
569.2453046338514
 31
0.0
  0
SPLINE
  5
105
330
17
100
AcDbEntity
  8
BODY
100
AcDbSpline
 70
0
 71
3
 72
0
 73
0
 74
4
 11
2294.924048730078
 21
513.8195464895725
 31
0.0
 11
2284.870927494884
 21
512.8198410569383
 31
0.0
 11
2276.031033788142
 21
506.7389887733042
 31
0.0
 11
2271.502448730077
 21
497.7081208807121
 31
0.0
  0
LINE
  5
106
330
17
100
AcDbEntity
  8
BODY
100
AcDbLine
 10
1813.247639851235
 20
707.2883001578894
 30
0.0
 11
1990.124048730076
 21
570.1074255617132
 31
0.0
  0
LINE
  5
107
330
17
100
AcDbEntity
  8
BODY
100
AcDbLine
 10
1813.247639851262
 20
375.7765509655437
 30
0.0
 11
1825.133088528309
 21
384.9272946372512
 31
0.0
  0
LINE
  5
108
330
17
100
AcDbEntity
  8
BODY
100
AcDbLine
 10
1813.247639851262
 20
375.7765509655437
 30
0.0
 11
1990.124048730076
 21
512.9574255617117
 31
0.0
  0
SPLINE
  5
109
330
17
100
AcDbEntity
  8
BODY
100
AcDbSpline
 70
0
 71
3
 72
0
 73
0
 74
7
 11
1838.23103353779
 21
749.5987384597674
 31
0.0
 11
1823.371800442575
 21
751.1198202840878
 31
0.0
 11
1810.092931536099
 21
740.307112283599
 31
0.0
 11
1808.571849711779
 21
725.4478791883848
 31
0.0
 11
1807.91495532294
 21
719.030770860194
 31
0.0
 11
1809.573298689009
 21
712.5901872330741
 31
0.0
 11
1813.247639851195
 21
707.2883001579202
 31
0.0
  0
SPLINE
  5
10A
330
17
100
AcDbEntity
  8
BODY
100
AcDbSpline
 70
0
 71
3
 72
0
 73
0
 74
7
 11
1813.247639851264
 21
375.7765509655437
 31
0.0
 11
1804.739463113672
 21
363.4996854577857
 31
0.0
 11
1807.794588999481
 21
346.650079540721
 31
0.0
 11
1820.071454507239
 21
338.1419028031305
 31
0.0
 11
1825.373341582415
 21
334.4675616408967
 31
0.0
 11
1831.813925209579
 21
332.8092182748096
 31
0.0
 11
1838.231033537813
 21
333.4661126636638
 31
0.0
  0
LINE
  5
10B
330
17
100
AcDbEntity
  8
BODY
100
AcDbLine
 10
1808.43125064669
 20
177.6886755815358
 30
0.0
 11
1809.64937405005
 21
142.8062134224437
 31
0.0
  0
ENDSEC
  0
SECTION
  2
OBJECTS
  0
DICTIONARY
  5
A
330
0
100
AcDbDictionary
281
1
  3
ACAD_COLOR
350
B
  3
ACAD_GROUP
350
C
  3
ACAD_LAYOUT
350
D
  3
ACAD_MATERIAL
350
E
  3
ACAD_MLEADERSTYLE
350
F
  3
ACAD_MLINESTYLE
350
10
  3
ACAD_PLOTSETTINGS
350
11
  3
ACAD_PLOTSTYLENAME
350
12
  3
ACAD_SCALELIST
350
14
  3
ACAD_TABLESTYLE
350
15
  3
ACAD_VISUALSTYLE
350
16
  3
EZDXF_META
350
2D
  0
DICTIONARY
  5
B
330
A
100
AcDbDictionary
281
1
  0
DICTIONARY
  5
C
330
A
100
AcDbDictionary
281
1
  0
DICTIONARY
  5
D
330
A
100
AcDbDictionary
281
1
  3
Model
350
1A
  3
Layout1
350
1E
  0
DICTIONARY
  5
E
330
A
100
AcDbDictionary
281
1
  3
ByBlock
350
1F
  3
ByLayer
350
20
  3
Global
350
21
  0
DICTIONARY
  5
F
330
A
100
AcDbDictionary
281
1
  3
Standard
350
2C
  0
DICTIONARY
  5
10
330
A
100
AcDbDictionary
281
1
  3
Standard
350
22
  0
DICTIONARY
  5
11
330
A
100
AcDbDictionary
281
1
  0
ACDBDICTIONARYWDFLT
  5
12
330
A
100
AcDbDictionary
281
1
  3
Normal
350
13
100
AcDbDictionaryWithDefault
340
13
  0
ACDBPLACEHOLDER
  5
13
330
12
  0
DICTIONARY
  5
14
330
A
100
AcDbDictionary
281
1
  0
DICTIONARY
  5
15
330
A
100
AcDbDictionary
281
1
  0
DICTIONARY
  5
16
330
A
100
AcDbDictionary
281
1
  0
LAYOUT
  5
1A
330
D
100
AcDbPlotSettings
  1

  4
A3
  6

 40
7.5
 41
20.0
 42
7.5
 43
20.0
 44
420.0
 45
297.0
 46
0.0
 47
0.0
 48
0.0
 49
0.0
140
0.0
141
0.0
142
1.0
143
1.0
 70
1024
 72
1
 73
0
 74
5
  7

 75
16
 76
0
 77
2
 78
300
147
1.0
148
0.0
149
0.0
100
AcDbLayout
  1
Model
 70
1
 71
0
 10
0.0
 20
0.0
 11
420.0
 21
297.0
 12
0.0
 22
0.0
 32
0.0
 14
1e+20
 24
1e+20
 34
1e+20
 15
-1e+20
 25
-1e+20
 35
-1e+20
146
0.0
 13
0.0
 23
0.0
 33
0.0
 16
1.0
 26
0.0
 36
0.0
 17
0.0
 27
1.0
 37
0.0
 76
1
330
17
  0
LAYOUT
  5
1E
330
D
100
AcDbPlotSettings
  1

  4
A3
  6

 40
7.5
 41
20.0
 42
7.5
 43
20.0
 44
420.0
 45
297.0
 46
0.0
 47
0.0
 48
0.0
 49
0.0
140
0.0
141
0.0
142
1.0
143
1.0
 70
0
 72
1
 73
0
 74
5
  7

 75
16
 76
0
 77
2
 78
300
147
1.0
148
0.0
149
0.0
100
AcDbLayout
  1
Layout1
 70
1
 71
1
 10
0.0
 20
0.0
 11
420.0
 21
297.0
 12
0.0
 22
0.0
 32
0.0
 14
1e+20
 24
1e+20
 34
1e+20
 15
-1e+20
 25
-1e+20
 35
-1e+20
146
0.0
 13
0.0
 23
0.0
 33
0.0
 16
1.0
 26
0.0
 36
0.0
 17
0.0
 27
1.0
 37
0.0
 76
1
330
1B
  0
MATERIAL
  5
1F
102
{ACAD_REACTORS
330
E
102
}
330
E
100
AcDbMaterial
  1
ByBlock
  2

 70
0
 40
1.0
 71
1
 41
1.0
 91
-1023410177
 42
1.0
 72
1
  3

 73
1
 74
1
 75
1
 44
0.5
 73
0
 45
1.0
 46
1.0
 77
1
  4

 78
1
 79
1
170
1
 48
1.0
171
1
  6

172
1
173
1
174
1
140
1.0
141
1.0
175
1
  7

176
1
177
1
178
1
143
1.0
179
1
  8

270
1
271
1
272
1
145
1.0
146
1.0
273
1
  9

274
1
275
1
276
1
 42
1.0
 72
1
  3

 73
1
 74
1
 75
1
 94
63
  0
MATERIAL
  5
20
102
{ACAD_REACTORS
330
E
102
}
330
E
100
AcDbMaterial
  1
ByLayer
  2

 70
0
 40
1.0
 71
1
 41
1.0
 91
-1023410177
 42
1.0
 72
1
  3

 73
1
 74
1
 75
1
 44
0.5
 73
0
 45
1.0
 46
1.0
 77
1
  4

 78
1
 79
1
170
1
 48
1.0
171
1
  6

172
1
173
1
174
1
140
1.0
141
1.0
175
1
  7

176
1
177
1
178
1
143
1.0
179
1
  8

270
1
271
1
272
1
145
1.0
146
1.0
273
1
  9

274
1
275
1
276
1
 42
1.0
 72
1
  3

 73
1
 74
1
 75
1
 94
63
  0
MATERIAL
  5
21
102
{ACAD_REACTORS
330
E
102
}
330
E
100
AcDbMaterial
  1
Global
  2

 70
0
 40
1.0
 71
1
 41
1.0
 91
-1023410177
 42
1.0
 72
1
  3

 73
1
 74
1
 75
1
 44
0.5
 73
0
 45
1.0
 46
1.0
 77
1
  4

 78
1
 79
1
170
1
 48
1.0
171
1
  6

172
1
173
1
174
1
140
1.0
141
1.0
175
1
  7

176
1
177
1
178
1
143
1.0
179
1
  8

270
1
271
1
272
1
145
1.0
146
1.0
273
1
  9

274
1
275
1
276
1
 42
1.0
 72
1
  3

 73
1
 74
1
 75
1
 94
63
  0
MLINESTYLE
  5
22
102
{ACAD_REACTORS
330
10
102
}
330
10
100
AcDbMlineStyle
  2
Standard
 70
0
  3

 62
256
 51
90.0
 52
90.0
 71
2
 49
0.5
 62
256
  6
BYLAYER
 49
-0.5
 62
256
  6
BYLAYER
  0
MLEADERSTYLE
  5
2C
102
{ACAD_REACTORS
330
F
102
}
330
F
100
AcDbMLeaderStyle
179
2
170
2
171
1
172
0
 90
2
 40
0.0
 41
0.0
173
1
 91
-1056964608
 92
-2
290
1
 42
2.0
291
1
 43
8.0
  3
Standard
 44
4.0
300

342
29
174
1
175
1
176
0
178
1
 93
-1056964608
 45
4.0
292
0
297
0
 46
4.0
 94
-1056964608
 47
1.0
 49
1.0
140
1.0
294
1
141
0.0
177
0
142
1.0
295
0
296
0
143
3.75
271
0
272
9
273
9
  0
DICTIONARY
  5
2D
330
A
100
AcDbDictionary
280
1
281
1
  3
CREATED_BY_EZDXF
350
2E
  3
WRITTEN_BY_EZDXF
350
10E
  0
DICTIONARYVAR
  5
2E
330
2D
100
DictionaryVariables
280
0
  1
1.4.3 @ 2025-12-11T19:00:58.313149+00:00
  0
DICTIONARYVAR
  5
10E
330
2D
100
DictionaryVariables
280
0
  1
1.4.3 @ 2025-12-11T19:00:58.320208+00:00
  0
ENDSEC
  0
EOF
