  0
SECTION
  2
HEADER
  9
$ACADVER
  1
AC1024
  9
$ACADMAINTVER
 70
6
  9
$DWGCODEPAGE
  3
ANSI_1252
  9
$LASTSAVEDBY
  1
ezdxf
  9
$INSBASE
 10
0.0
 20
0.0
 30
0.0
  9
$EXTMIN
 10
1e+20
 20
1e+20
 30
1e+20
  9
$EXTMAX
 10
-1e+20
 20
-1e+20
 30
-1e+20
  9
$LIMMIN
 10
0.0
 20
0.0
  9
$LIMMAX
 10
420.0
 20
297.0
  9
$ORTHOMODE
 70
0
  9
$REGENMODE
 70
1
  9
$FILLMODE
 70
1
  9
$QTEXTMODE
 70
0
  9
$MIRRTEXT
 70
1
  9
$LTSCALE
 40
1.0
  9
$ATTMODE
 70
1
  9
$TEXTSIZE
 40
2.5
  9
$TRACEWID
 40
1.0
  9
$TEXTSTYLE
  7
Standard
  9
$CLAYER
  8
0
  9
$CELTYPE
  6
ByLayer
  9
$CECOLOR
 62
256
  9
$CELTSCALE
 40
1.0
  9
$DISPSILH
 70
0
  9
$DIMSCALE
 40
1.0
  9
$DIMASZ
 40
2.5
  9
$DIMEXO
 40
0.625
  9
$DIMDLI
 40
3.75
  9
$DIMRND
 40
0.0
  9
$DIMDLE
 40
0.0
  9
$DIMEXE
 40
1.25
  9
$DIMTP
 40
0.0
  9
$DIMTM
 40
0.0
  9
$DIMTXT
 40
2.5
  9
$DIMCEN
 40
2.5
  9
$DIMTSZ
 40
0.0
  9
$DIMTOL
 70
0
  9
$DIMLIM
 70
0
  9
$DIMTIH
 70
0
  9
$DIMTOH
 70
0
  9
$DIMSE1
 70
0
  9
$DIMSE2
 70
0
  9
$DIMTAD
 70
1
  9
$DIMZIN
 70
8
  9
$DIMBLK
  1

  9
$DIMASO
 70
1
  9
$DIMSHO
 70
1
  9
$DIMPOST
  1

  9
$DIMAPOST
  1

  9
$DIMALT
 70
0
  9
$DIMALTD
 70
3
  9
$DIMALTF
 40
0.03937007874
  9
$DIMLFAC
 40
1.0
  9
$DIMTOFL
 70
1
  9
$DIMTVP
 40
0.0
  9
$DIMTIX
 70
0
  9
$DIMSOXD
 70
0
  9
$DIMSAH
 70
0
  9
$DIMBLK1
  1

  9
$DIMBLK2
  1

  9
$DIMSTYLE
  2
ISO-25
  9
$DIMCLRD
 70
0
  9
$DIMCLRE
 70
0
  9
$DIMCLRT
 70
0
  9
$DIMTFAC
 40
1.0
  9
$DIMGAP
 40
0.625
  9
$DIMJUST
 70
0
  9
$DIMSD1
 70
0
  9
$DIMSD2
 70
0
  9
$DIMTOLJ
 70
0
  9
$DIMTZIN
 70
8
  9
$DIMALTZ
 70
0
  9
$DIMALTTZ
 70
0
  9
$DIMUPT
 70
0
  9
$DIMDEC
 70
2
  9
$DIMTDEC
 70
2
  9
$DIMALTU
 70
2
  9
$DIMALTTD
 70
3
  9
$DIMTXSTY
  7
Standard
  9
$DIMAUNIT
 70
0
  9
$DIMADEC
 70
0
  9
$DIMALTRND
 40
0.0
  9
$DIMAZIN
 70
0
  9
$DIMDSEP
 70
44
  9
$DIMATFIT
 70
3
  9
$DIMFRAC
 70
0
  9
$DIMLDRBLK
  1

  9
$DIMLUNIT
 70
2
  9
$DIMLWD
 70
-2
  9
$DIMLWE
 70
-2
  9
$DIMTMOVE
 70
0
  9
$DIMFXL
 40
1.0
  9
$DIMFXLON
 70
0
  9
$DIMJOGANG
 40
0.785398163397
  9
$DIMTFILL
 70
0
  9
$DIMTFILLCLR
 70
0
  9
$DIMARCSYM
 70
0
  9
$DIMLTYPE
  6

  9
$DIMLTEX1
  6

  9
$DIMLTEX2
  6

  9
$DIMTXTDIRECTION
 70
0
  9
$LUNITS
 70
2
  9
$LUPREC
 70
4
  9
$SKETCHINC
 40
1.0
  9
$FILLETRAD
 40
10.0
  9
$AUNITS
 70
0
  9
$AUPREC
 70
2
  9
$MENU
  1
.
  9
$ELEVATION
 40
0.0
  9
$PELEVATION
 40
0.0
  9
$THICKNESS
 40
0.0
  9
$LIMCHECK
 70
0
  9
$CHAMFERA
 40
0.0
  9
$CHAMFERB
 40
0.0
  9
$CHAMFERC
 40
0.0
  9
$CHAMFERD
 40
0.0
  9
$SKPOLY
 70
0
  9
$TDCREATE
 40
2461131.960023148
  9
$TDUCREATE
 40
2458532.153996898
  9
$TDUPDATE
 40
2461131.960023148
  9
$TDUUPDATE
 40
2458532.1544311
  9
$TDINDWG
 40
0.0
  9
$TDUSRTIMER
 40
0.0
  9
$USRTIMER
 70
1
  9
$ANGBASE
 50
0.0
  9
$ANGDIR
 70
0
  9
$PDMODE
 70
0
  9
$PDSIZE
 40
0.0
  9
$PLINEWID
 40
0.0
  9
$SPLFRAME
 70
0
  9
$SPLINETYPE
 70
6
  9
$SPLINESEGS
 70
8
  9
$HANDSEED
  5
34
  9
$SURFTAB1
 70
6
  9
$SURFTAB2
 70
6
  9
$SURFTYPE
 70
6
  9
$SURFU
 70
6
  9
$SURFV
 70
6
  9
$UCSBASE
  2

  9
$UCSNAME
  2

  9
$UCSORG
 10
0.0
 20
0.0
 30
0.0
  9
$UCSXDIR
 10
1.0
 20
0.0
 30
0.0
  9
$UCSYDIR
 10
0.0
 20
1.0
 30
0.0
  9
$UCSORTHOREF
  2

  9
$UCSORTHOVIEW
 70
0
  9
$UCSORGTOP
 10
0.0
 20
0.0
 30
0.0
  9
$UCSORGBOTTOM
 10
0.0
 20
0.0
 30
0.0
  9
$UCSORGLEFT
 10
0.0
 20
0.0
 30
0.0
  9
$UCSORGRIGHT
 10
0.0
 20
0.0
 30
0.0
  9
$UCSORGFRONT
 10
0.0
 20
0.0
 30
0.0
  9
$UCSORGBACK
 10
0.0
 20
0.0
 30
0.0
  9
$PUCSBASE
  2

  9
$PUCSNAME
  2

  9
$PUCSORG
 10
0.0
 20
0.0
 30
0.0
  9
$PUCSXDIR
 10
1.0
 20
0.0
 30
0.0
  9
$PUCSYDIR
 10
0.0
 20
1.0
 30
0.0
  9
$PUCSORTHOREF
  2

  9
$PUCSORTHOVIEW
 70
0
  9
$PUCSORGTOP
 10
0.0
 20
0.0
 30
0.0
  9
$PUCSORGBOTTOM
 10
0.0
 20
0.0
 30
0.0
  9
$PUCSORGLEFT
 10
0.0
 20
0.0
 30
0.0
  9
$PUCSORGRIGHT
 10
0.0
 20
0.0
 30
0.0
  9
$PUCSORGFRONT
 10
0.0
 20
0.0
 30
0.0
  9
$PUCSORGBACK
 10
0.0
 20
0.0
 30
0.0
  9
$USERI1
 70
0
  9
$USERI2
 70
0
  9
$USERI3
 70
0
  9
$USERI4
 70
0
  9
$USERI5
 70
0
  9
$USERR1
 40
0.0
  9
$USERR2
 40
0.0
  9
$USERR3
 40
0.0
  9
$USERR4
 40
0.0
  9
$USERR5
 40
0.0
  9
$WORLDVIEW
 70
1
  9
$SHADEDGE
 70
3
  9
$SHADEDIF
 70
70
  9
$TILEMODE
 70
1
  9
$MAXACTVP
 70
64
  9
$PINSBASE
 10
0.0
 20
0.0
 30
0.0
  9
$PLIMCHECK
 70
0
  9
$PEXTMIN
 10
1e+20
 20
1e+20
 30
1e+20
  9
$PEXTMAX
 10
-1e+20
 20
-1e+20
 30
-1e+20
  9
$PLIMMIN
 10
0.0
 20
0.0
  9
$PLIMMAX
 10
420.0
 20
297.0
  9
$UNITMODE
 70
0
  9
$VISRETAIN
 70
1
  9
$PLINEGEN
 70
0
  9
$PSLTSCALE
 70
1
  9
$TREEDEPTH
 70
3020
  9
$CMLSTYLE
  2
Standard
  9
$CMLJUST
 70
0
  9
$CMLSCALE
 40
20.0
  9
$PROXYGRAPHICS
 70
1
  9
$MEASUREMENT
 70
1
  9
$CELWEIGHT
370
-1
  9
$ENDCAPS
280
0
  9
$JOINSTYLE
280
0
  9
$LWDISPLAY
290
0
  9
$INSUNITS
 70
4
  9
$HYPERLINKBASE
  1

  9
$STYLESHEET
  1

  9
$XEDIT
290
1
  9
$CEPSNTYPE
380
0
  9
$PSTYLEMODE
290
1
  9
$FINGERPRINTGUID
  2
{30A8C281-0A89-439A-A96F-1DCC8CF216C6}
  9
$VERSIONGUID
  2
{2236C897-B613-40D3-97DE-332E5161C679}
  9
$EXTNAMES
290
1
  9
$PSVPSCALE
 40
0.0
  9
$OLESTARTUP
290
0
  9
$SORTENTS
280
127
  9
$INDEXCTL
280
0
  9
$HIDETEXT
280
1
  9
$XCLIPFRAME
280
1
  9
$HALOGAP
280
0
  9
$OBSCOLOR
 70
257
  9
$OBSLTYPE
280
0
  9
$INTERSECTIONDISPLAY
280
0
  9
$INTERSECTIONCOLOR
 70
257
  9
$DIMASSOC
280
2
  9
$PROJECTNAME
  1

  9
$CAMERADISPLAY
290
0
  9
$LENSLENGTH
 40
50.0
  9
$CAMERAHEIGHT
 40
0.0
  9
$STEPSPERSEC
 40
24.0
  9
$STEPSIZE
 40
100.0
  9
$3DDWFPREC
 40
2.0
  9
$PSOLWIDTH
 40
0.005
  9
$PSOLHEIGHT
 40
0.08
  9
$LOFTANG1
 40
1.570796326795
  9
$LOFTANG2
 40
1.570796326795
  9
$LOFTMAG1
 40
0.0
  9
$LOFTMAG2
 40
0.0
  9
$LOFTPARAM
 70
7
  9
$LOFTNORMALS
280
1
  9
$LATITUDE
 40
37.795
  9
$LONGITUDE
 40
-122.394
  9
$NORTHDIRECTION
 40
0.0
  9
$TIMEZONE
 70
-8000
  9
$LIGHTGLYPHDISPLAY
280
1
  9
$TILEMODELIGHTSYNCH
280
1
  9
$CMATERIAL
347
20
  9
$SOLIDHIST
280
0
  9
$SHOWHIST
280
1
  9
$DWFFRAME
280
2
  9
$DGNFRAME
280
2
  9
$REALWORLDSCALE
290
1
  9
$INTERFERECOLOR
 62
256
  9
$CSHADOW
280
0
  9
$SHADOWPLANELOCATION
 40
0.0
  0
ENDSEC
  0
SECTION
  2
CLASSES
  0
CLASS
  1
ACDBDICTIONARYWDFLT
  2
AcDbDictionaryWithDefault
  3
ObjectDBX Classes
 90
0
 91
0
280
0
281
0
  0
CLASS
  1
SUN
  2
AcDbSun
  3
SCENEOE
 90
1153
 91
0
280
0
281
0
  0
CLASS
  1
VISUALSTYLE
  2
AcDbVisualStyle
  3
ObjectDBX Classes
 90
4095
 91
0
280
0
281
0
  0
CLASS
  1
MATERIAL
  2
AcDbMaterial
  3
ObjectDBX Classes
 90
1153
 91
0
280
0
281
0
  0
CLASS
  1
SCALE
  2
AcDbScale
  3
ObjectDBX Classes
 90
1153
 91
0
280
0
281
0
  0
CLASS
  1
TABLESTYLE
  2
AcDbTableStyle
  3
ObjectDBX Classes
 90
4095
 91
0
280
0
281
0
  0
CLASS
  1
MLEADERSTYLE
  2
AcDbMLeaderStyle
  3
ACDB_MLEADERSTYLE_CLASS
 90
4095
 91
0
280
0
281
0
  0
CLASS
  1
DICTIONARYVAR
  2
AcDbDictionaryVar
  3
ObjectDBX Classes
 90
0
 91
0
280
0
281
0
  0
CLASS
  1
CELLSTYLEMAP
  2
AcDbCellStyleMap
  3
ObjectDBX Classes
 90
1152
 91
0
280
0
281
0
  0
CLASS
  1
MENTALRAYRENDERSETTINGS
  2
AcDbMentalRayRenderSettings
  3
SCENEOE
 90
1024
 91
0
280
0
281
0
  0
CLASS
  1
ACDBDETAILVIEWSTYLE
  2
AcDbDetailViewStyle
  3
ObjectDBX Classes
 90
1025
 91
0
280
0
281
0
  0
CLASS
  1
ACDBSECTIONVIEWSTYLE
  2
AcDbSectionViewStyle
  3
ObjectDBX Classes
 90
1025
 91
0
280
0
281
0
  0
CLASS
  1
RASTERVARIABLES
  2
AcDbRasterVariables
  3
ISM
 90
0
 91
0
280
0
281
0
  0
CLASS
  1
LAYOUT
  2
AcDbLayout
  3
ObjectDBX Classes
 90
0
 91
0
280
0
281
0
  0
CLASS
  1
ACDBPLACEHOLDER
  2
AcDbPlaceHolder
  3
ObjectDBX Classes
 90
0
 91
0
280
0
281
0
  0
ENDSEC
  0
SECTION
  2
TABLES
  0
TABLE
  2
VPORT
  5
8
330
0
100
AcDbSymbolTable
 70
1
  0
VPORT
  5
23
330
8
100
AcDbSymbolTableRecord
100
AcDbViewportTableRecord
  2
*Active
 70
0
 10
0.0
 20
0.0
 11
1.0
 21
1.0
 12
0.0
 22
0.0
 13
0.0
 23
0.0
 14
0.5
 24
0.5
 15
0.5
 25
0.5
 16
0.0
 26
0.0
 36
1.0
 17
0.0
 27
0.0
 37
0.0
 40
1000.0
 41
1.34
 42
50.0
 43
0.0
 44
0.0
 50
0.0
 51
0.0
 71
0
 72
1000
 73
1
 74
3
 75
0
 76
0
 77
0
 78
0
281
0
 65
0
146
0.0
  0
ENDTAB
  0
TABLE
  2
LTYPE
  5
2
330
0
100
AcDbSymbolTable
 70
3
  0
LTYPE
  5
24
330
2
100
AcDbSymbolTableRecord
100
AcDbLinetypeTableRecord
  2
ByBlock
 70
0
  3

 72
65
 73
0
 40
0.0
  0
LTYPE
  5
25
330
2
100
AcDbSymbolTableRecord
100
AcDbLinetypeTableRecord
  2
ByLayer
 70
0
  3

 72
65
 73
0
 40
0.0
  0
LTYPE
  5
26
330
2
100
AcDbSymbolTableRecord
100
AcDbLinetypeTableRecord
  2
Continuous
 70
0
  3

 72
65
 73
0
 40
0.0
  0
ENDTAB
  0
TABLE
  2
LAYER
  5
1
330
0
100
AcDbSymbolTable
 70
3
  0
LAYER
  5
27
330
1
100
AcDbSymbolTableRecord
100
AcDbLayerTableRecord
  2
0
 70
0
 62
7
  6
Continuous
370
-3
390
13
347
21
  0
LAYER
  5
28
330
1
100
AcDbSymbolTableRecord
100
AcDbLayerTableRecord
  2
Defpoints
 70
0
 62
7
  6
Continuous
290
0
370
-3
390
13
347
21
  0
LAYER
  5
2F
330
1
100
AcDbSymbolTableRecord
100
AcDbLayerTableRecord
  2
BODY_OUTLINE
 70
0
 62
7
  6
Continuous
370
-3
390
13
347
21
  0
ENDTAB
  0
TABLE
  2
STYLE
  5
5
330
0
100
AcDbSymbolTable
 70
1
  0
STYLE
  5
29
330
5
100
AcDbSymbolTableRecord
100
AcDbTextStyleTableRecord
  2
Standard
 70
0
 40
0.0
 41
1.0
 50
0.0
 71
0
 42
2.5
  3
txt
  4

  0
ENDTAB
  0
TABLE
  2
VIEW
  5
7
330
0
100
AcDbSymbolTable
 70
0
  0
ENDTAB
  0
TABLE
  2
UCS
  5
6
330
0
100
AcDbSymbolTable
 70
0
  0
ENDTAB
  0
TABLE
  2
APPID
  5
3
330
0
100
AcDbSymbolTable
 70
3
  0
APPID
  5
2A
330
3
100
AcDbSymbolTableRecord
100
AcDbRegAppTableRecord
  2
ACAD
 70
0
  0
APPID
  5
31
330
3
100
AcDbSymbolTableRecord
100
AcDbRegAppTableRecord
  2
HATCHBACKGROUNDCOLOR
 70
0
  0
APPID
  5
32
330
3
100
AcDbSymbolTableRecord
100
AcDbRegAppTableRecord
  2
EZDXF
 70
0
  0
ENDTAB
  0
TABLE
  2
DIMSTYLE
  5
4
330
0
100
AcDbSymbolTable
 70
1
100
AcDbDimStyleTable
  0
DIMSTYLE
105
2B
330
4
100
AcDbSymbolTableRecord
100
AcDbDimStyleTableRecord
  2
Standard
 70
0
 40
1.0
 41
2.5
 42
0.625
 43
3.75
 44
1.25
 45
0.0
 46
0.0
 47
0.0
 48
0.0
 49
2.5
140
2.5
141
2.5
142
0.0
143
0.03937007874
144
1.0
145
0.0
146
1.0
147
0.625
148
0.0
 69
0
 70
0
 71
0
 72
0
 73
0
 74
0
 75
0
 76
0
 77
1
 78
8
 79
3
170
0
171
3
172
1
173
0
174
0
175
0
176
0
177
0
178
0
179
2
271
2
272
2
273
2
274
3
275
0
276
0
277
2
278
44
279
0
280
0
281
0
282
0
283
0
284
8
285
0
286
0
288
0
289
3
290
0
371
-2
372
-2
  0
ENDTAB
  0
TABLE
  2
BLOCK_RECORD
  5
9
330
0
100
AcDbSymbolTable
 70
2
  0
BLOCK_RECORD
  5
17
330
9
100
AcDbSymbolTableRecord
100
AcDbBlockTableRecord
  2
*Model_Space
340
1A
 70
0
280
1
281
0
  0
BLOCK_RECORD
  5
1B
330
9
100
AcDbSymbolTableRecord
100
AcDbBlockTableRecord
  2
*Paper_Space
340
1E
 70
0
280
1
281
0
  0
ENDTAB
  0
ENDSEC
  0
SECTION
  2
BLOCKS
  0
BLOCK
  5
18
330
17
100
AcDbEntity
  8
0
100
AcDbBlockBegin
  2
*Model_Space
 70
0
 10
0.0
 20
0.0
 30
0.0
  3
*Model_Space
  1

  0
ENDBLK
  5
19
330
17
100
AcDbEntity
  8
0
100
AcDbBlockEnd
  0
BLOCK
  5
1C
330
1B
100
AcDbEntity
  8
0
100
AcDbBlockBegin
  2
*Paper_Space
 70
0
 10
0.0
 20
0.0
 30
0.0
  3
*Paper_Space
  1

  0
ENDBLK
  5
1D
330
1B
100
AcDbEntity
  8
0
100
AcDbBlockEnd
  0
ENDSEC
  0
SECTION
  2
ENTITIES
  0
LWPOLYLINE
  5
30
330
17
100
AcDbEntity
  8
BODY_OUTLINE
100
AcDbPolyline
 90
333
 70
1
 10
272.89
 20
-189.98000000000002
 10
269.18000000000006
 20
-186.27
 10
265.47
 20
-182.56
 10
261.76
 20
-178.86
 10
258.05000000000007
 20
-175.15
 10
254.35000000000002
 20
-171.44
 10
250.64
 20
-167.74
 10
246.93000000000006
 20
-164.03000000000003
 10
243.22000000000003
 20
-160.33
 10
239.51
 20
-156.62
 10
235.81000000000006
 20
-152.91000000000003
 10
232.10000000000002
 20
-149.21
 10
228.39000000000004
 20
-145.5
 10
224.68
 20
-141.79000000000002
 10
220.97000000000003
 20
-138.09000000000003
 10
217.27000000000004
 20
-134.38
 10
213.56
 20
-130.67000000000002
 10
209.85000000000002
 20
-126.97000000000001
 10
206.14000000000004
 20
-123.26000000000002
 10
202.43
 20
-119.56000000000002
 10
200.8
 20
-114.75000000000001
 10
199.16000000000003
 20
-109.95000000000002
 10
197.52000000000004
 20
-105.15
 10
195.89000000000004
 20
-100.34000000000002
 10
194.25
 20
-95.54
 10
192.62
 20
-90.74000000000001
 10
190.98000000000002
 20
-85.93
 10
189.34000000000003
 20
-81.13000000000002
 10
193.52000000000004
 20
-78.05000000000001
 10
197.70000000000005
 20
-74.98000000000002
 10
201.88
 20
-71.9
 10
206.06
 20
-68.83000000000001
 10
210.24
 20
-65.75
 10
214.41000000000003
 20
-62.68000000000001
 10
214.94
 20
-62.660000000000025
 10
214.94
 20
-57.52000000000001
 10
214.94
 20
-52.370000000000005
 10
214.94
 20
-47.23000000000002
 10
214.94
 20
-42.09
 10
214.94
 20
-36.95000000000002
 10
214.94
 20
-31.810000000000002
 10
214.94
 20
-26.670000000000016
 10
214.94
 20
-21.53
 10
214.94
 20
-16.390000000000015
 10
214.94
 20
-11.25
 10
214.94
 20
-6.110000000000014
 10
210.20000000000005
 20
-6.0400000000000205
 10
206.04000000000002
 20
-2.680000000000007
 10
201.88
 20
0.6799999999999784
 10
197.72000000000003
 20
4.039999999999992
 10
193.56
 20
7.389999999999986
 10
189.39000000000004
 20
10.75
 10
185.23000000000002
 20
14.109999999999985
 10
183.5
 20
18.859999999999985
 10
181.77000000000004
 20
23.619999999999976
 10
180.03000000000003
 20
28.369999999999976
 10
178.3
 20
33.119999999999976
 10
176.56
 20
37.869999999999976
 10
174.83000000000004
 20
42.619999999999976
 10
170.01
 20
45.41999999999999
 10
165.19
 20
48.22
 10
160.37
 20
51.02000000000001
 10
155.55
 20
53.809999999999974
 10
150.74
 20
56.609999999999985
 10
145.92000000000002
 20
59.41
 10
140.88
 20
58.619999999999976
 10
135.84000000000003
 20
57.83000000000001
 10
130.8
 20
57.04999999999998
 10
125.75999999999999
 20
56.25999999999996
 10
120.72000000000003
 20
55.47
 10
115.68
 20
54.68999999999997
 10
110.64000000000004
 20
53.900000000000006
 10
105.60000000000002
 20
53.109999999999985
 10
100.56
 20
52.33000000000001
 10
95.52000000000004
 20
51.53999999999999
 10
90.48000000000002
 20
50.75999999999996
 10
85.44
 20
49.97
 10
80.40000000000003
 20
49.17999999999998
 10
75.37
 20
48.400000000000006
 10
70.33000000000004
 20
47.609999999999985
 10
65.29000000000002
 20
46.819999999999965
 10
60.25
 20
46.03999999999999
 10
55.10000000000002
 20
46.84
 10
49.950000000000045
 20
47.640000000000015
 10
44.80000000000001
 20
48.42999999999998
 10
39.660000000000025
 20
49.22999999999999
 10
34.50999999999999
 20
50.03
 10
29.360000000000014
 20
50.83000000000001
 10
24.210000000000036
 20
51.62999999999997
 10
19.060000000000002
 20
52.42999999999998
 10
14.730000000000018
 20
55.02000000000001
 10
10.400000000000034
 20
57.609999999999985
 10
6.069999999999993
 20
60.19999999999996
 10
1.7300000000000182
 20
62.78999999999999
 10
-2.599999999999966
 20
65.37999999999997
 10
-6.930000000000007
 20
67.97
 10
-11.259999999999991
 20
70.55999999999997
 10
-15.589999999999975
 20
73.15
 10
-19.930000000000007
 20
75.72999999999999
 10
-24.25999999999999
 20
78.31999999999996
 10
-28.589999999999975
 20
80.91
 10
-32.91999999999999
 20
83.49999999999997
 10
-37.25999999999999
 20
86.09
 10
-41.589999999999975
 20
88.67999999999998
 10
-45.91999999999999
 20
91.27000000000001
 10
-50.24999999999997
 20
93.85999999999999
 10
-54.579999999999984
 20
96.44999999999996
 10
-58.91999999999999
 20
99.03999999999999
 10
-63.24999999999997
 20
101.62999999999997
 10
-67.57999999999998
 20
104.21000000000001
 10
-71.90999999999997
 20
106.79999999999998
 10
-76.24999999999997
 20
109.39000000000001
 10
-80.57999999999998
 20
111.97999999999999
 10
-84.90999999999997
 20
114.56999999999996
 10
-89.23999999999998
 20
117.16
 10
-93.57
 20
119.74999999999997
 10
-97.90999999999997
 20
122.34
 10
-102.23999999999998
 20
124.92999999999998
 10
-106.57
 20
127.52000000000001
 10
-110.89999999999998
 20
130.10999999999999
 10
-115.23999999999998
 20
132.69999999999996
 10
-119.57
 20
135.28
 10
-123.89999999999998
 20
137.86999999999998
 10
-128.23
 20
140.46
 10
-132.55999999999997
 20
143.04999999999998
 10
-136.89999999999998
 20
145.64000000000001
 10
-141.23
 20
148.23
 10
-145.55999999999997
 20
150.81999999999996
 10
-149.89
 20
153.41
 10
-154.22999999999996
 20
155.99999999999997
 10
-158.56
 20
158.59
 10
-162.89
 20
161.17999999999998
 10
-167.21999999999997
 20
163.75999999999996
 10
-171.54999999999998
 20
166.35
 10
-175.89
 20
168.93999999999997
 10
-180.21999999999997
 20
171.53
 10
-184.54999999999998
 20
174.11999999999998
 10
-188.88
 20
176.71
 10
-193.21999999999997
 20
179.29999999999998
 10
-197.54999999999998
 20
181.89000000000001
 10
-201.88
 20
184.48
 10
-206.20999999999998
 20
187.06999999999996
 10
-210.53999999999996
 20
189.66
 10
-214.88
 20
192.24999999999997
 10
-219.20999999999998
 20
194.83
 10
-223.54
 20
197.42
 10
-227.86999999999998
 20
200.00999999999996
 10
-232.20999999999998
 20
202.6
 10
-236.54
 20
205.18999999999997
 10
-240.86999999999998
 20
207.78
 10
-245.2
 20
210.36999999999998
 10
-249.52999999999997
 20
212.96
 10
-253.86999999999998
 20
215.54999999999998
 10
-260.2
 20
216.14000000000001
 10
-266.53
 20
216.73999999999998
 10
-272.84999999999997
 20
217.33
 10
-274.65999999999997
 20
211.80999999999997
 10
-276.46
 20
206.29
 10
-278.27
 20
200.75999999999996
 10
-277.12
 20
195.85999999999999
 10
-275.96999999999997
 20
190.94999999999996
 10
-274.82
 20
186.04999999999998
 10
-273.66999999999996
 20
181.15
 10
-272.52
 20
176.23999999999998
 10
-271.37
 20
171.34
 10
-270.21999999999997
 20
166.43999999999997
 10
-269.07
 20
161.53
 10
-267.91999999999996
 20
156.62999999999997
 10
-266.77
 20
151.72
 10
-265.62
 20
146.81999999999996
 10
-264.46999999999997
 20
141.92
 10
-263.32
 20
137.00999999999996
 10
-262.16999999999996
 20
132.10999999999999
 10
-261.02
 20
127.21000000000001
 10
-259.87
 20
122.29999999999998
 10
-258.71999999999997
 20
117.4
 10
-257.56
 20
112.48999999999998
 10
-256.40999999999997
 20
107.59
 10
-255.26
 20
102.68999999999997
 10
-254.10999999999999
 20
97.78
 10
-252.95999999999998
 20
92.87999999999997
 10
-251.80999999999997
 20
87.97
 10
-250.65999999999997
 20
83.06999999999996
 10
-249.51
 20
78.16999999999999
 10
-248.35999999999999
 20
73.25999999999996
 10
-247.20999999999998
 20
68.35999999999999
 10
-246.05999999999997
 20
63.46000000000001
 10
-244.90999999999997
 20
58.54999999999998
 10
-243.76
 20
53.650000000000006
 10
-242.60999999999999
 20
48.73999999999998
 10
-241.45999999999998
 20
43.84
 10
-240.30999999999997
 20
38.93999999999997
 10
-239.15999999999997
 20
34.03
 10
-238.01
 20
29.129999999999995
 10
-236.85999999999999
 20
24.22
 10
-235.70999999999998
 20
19.319999999999993
 10
-234.55999999999997
 20
14.419999999999987
 10
-233.40999999999997
 20
9.509999999999991
 10
-232.26
 20
4.609999999999985
 10
-231.10999999999999
 20
-0.29000000000002046
 10
-229.95999999999998
 20
-5.200000000000017
 10
-227.92999999999998
 20
-9.860000000000014
 10
-225.89999999999998
 20
-14.52000000000001
 10
-223.86999999999998
 20
-19.190000000000026
 10
-221.83999999999997
 20
-23.850000000000023
 10
-219.80999999999997
 20
-28.51000000000002
 10
-217.77999999999997
 20
-33.170000000000016
 10
-215.74999999999997
 20
-37.84
 10
-213.71999999999997
 20
-42.5
 10
-211.69
 20
-47.160000000000025
 10
-209.65999999999997
 20
-51.82000000000002
 10
-207.63
 20
-56.49000000000001
 10
-205.59999999999997
 20
-61.150000000000006
 10
-203.57
 20
-65.81
 10
-201.53999999999996
 20
-70.47
 10
-199.51
 20
-75.13000000000002
 10
-197.47999999999996
 20
-79.80000000000001
 10
-195.45
 20
-84.46000000000001
 10
-193.42999999999998
 20
-89.12
 10
-191.39999999999998
 20
-93.78000000000002
 10
-189.36999999999998
 20
-98.45000000000002
 10
-187.33999999999997
 20
-103.11000000000001
 10
-185.31
 20
-107.77000000000001
 10
-183.27999999999997
 20
-112.43
 10
-181.25
 20
-117.10000000000001
 10
-179.21999999999997
 20
-121.76000000000002
 10
-177.19
 20
-126.42000000000002
 10
-175.15999999999997
 20
-131.08
 10
-173.13
 20
-135.75
 10
-171.09999999999997
 20
-140.41000000000003
 10
-169.07
 20
-145.07
 10
-167.03999999999996
 20
-149.73000000000002
 10
-165.01
 20
-154.4
 10
-162.97999999999996
 20
-159.06
 10
-160.95
 20
-163.72000000000003
 10
-158.92
 20
-168.38
 10
-156.89
 20
-173.05
 10
-154.85999999999999
 20
-177.71
 10
-152.82999999999998
 20
-182.37
 10
-150.79999999999998
 20
-187.03
 10
-148.76999999999998
 20
-191.70000000000002
 10
-142.95
 20
-193.3
 10
-137.13
 20
-194.91000000000003
 10
-131.30999999999997
 20
-196.52
 10
-125.47999999999999
 20
-198.13000000000002
 10
-120.66999999999999
 20
-196.48000000000002
 10
-115.85999999999999
 20
-194.82000000000002
 10
-111.03999999999999
 20
-193.17000000000002
 10
-106.22999999999999
 20
-191.52
 10
-101.41999999999999
 20
-189.86
 10
-96.6
 20
-188.21
 10
-91.78999999999999
 20
-186.56
 10
-86.96999999999997
 20
-184.91000000000003
 10
-82.15999999999997
 20
-183.25
 10
-77.35
 20
-181.60000000000002
 10
-72.52999999999997
 20
-179.95000000000002
 10
-67.71999999999997
 20
-178.29000000000002
 10
-62.90999999999997
 20
-176.64000000000001
 10
-58.089999999999975
 20
-174.99
 10
-53.27999999999997
 20
-173.34
 10
-48.46999999999997
 20
-171.68
 10
-43.64999999999998
 20
-170.03000000000003
 10
-38.839999999999975
 20
-168.38
 10
-34.01999999999998
 20
-166.72000000000003
 10
-29.20999999999998
 20
-165.07000000000002
 10
-24.399999999999977
 20
-163.42000000000002
 10
-19.579999999999984
 20
-161.76000000000002
 10
-14.769999999999982
 20
-160.11
 10
-9.95999999999998
 20
-158.46
 10
-5.139999999999986
 20
-156.81
 10
-0.3299999999999841
 20
-155.15
 10
4.480000000000018
 20
-153.5
 10
9.300000000000011
 20
-151.85000000000002
 10
14.379999999999995
 20
-151.74
 10
19.460000000000036
 20
-151.63
 10
24.54000000000002
 20
-151.52
 10
29.620000000000005
 20
-151.42000000000002
 10
34.700000000000045
 20
-151.31
 10
39.78000000000003
 20
-151.20000000000002
 10
44.860000000000014
 20
-151.09000000000003
 10
49.94
 20
-150.99
 10
55.03000000000003
 20
-150.88
 10
59.85000000000002
 20
-152.54000000000002
 10
64.68
 20
-154.20000000000002
 10
69.50999999999999
 20
-155.86
 10
74.34000000000003
 20
-157.53000000000003
 10
79.17000000000002
 20
-159.19
 10
83.99000000000001
 20
-160.85000000000002
 10
88.82
 20
-162.51000000000002
 10
93.65000000000003
 20
-164.17000000000002
 10
98.48000000000002
 20
-165.83
 10
103.31
 20
-167.49
 10
108.14000000000004
 20
-169.15
 10
112.96000000000004
 20
-170.82000000000002
 10
117.79000000000002
 20
-172.48000000000002
 10
122.62
 20
-174.14000000000001
 10
127.45000000000005
 20
-175.8
 10
132.28000000000003
 20
-177.46
 10
137.11
 20
-179.12
 10
141.93
 20
-180.78000000000003
 10
146.76
 20
-182.44
 10
151.59000000000003
 20
-184.11
 10
156.42000000000002
 20
-185.77
 10
161.25
 20
-187.43
 10
166.08000000000004
 20
-189.09
 10
170.90000000000003
 20
-190.75
 10
175.73000000000002
 20
-192.41000000000003
 10
180.56
 20
-194.07000000000002
 10
185.39000000000004
 20
-195.73000000000002
 10
190.22000000000003
 20
-197.4
 10
195.05
 20
-199.06
 10
199.87
 20
-200.72000000000003
 10
204.70000000000005
 20
-202.38000000000002
 10
209.53000000000003
 20
-204.04000000000002
 10
214.36
 20
-205.70000000000002
 10
219.19
 20
-207.36
 10
224.02000000000004
 20
-209.02
 10
228.84000000000003
 20
-210.69000000000003
 10
233.67000000000002
 20
-212.35000000000002
 10
238.5
 20
-214.01000000000002
 10
243.33000000000004
 20
-215.67000000000002
 10
248.15999999999997
 20
-217.33
 10
253.18000000000006
 20
-216.75
 10
258.20000000000005
 20
-216.18
 10
263.22
 20
-215.60000000000002
 10
268.23
 20
-215.03
 10
273.25
 20
-214.45000000000002
 10
278.27
 20
-213.88000000000002
 10
276.93000000000006
 20
-207.9
 10
275.58000000000004
 20
-201.93
 10
274.23
 20
-195.95000000000002
 10
272.89
 20
-189.98000000000002
 10
272.89
 20
-189.98000000000002
  0
ENDSEC
  0
SECTION
  2
OBJECTS
  0
DICTIONARY
  5
A
330
0
100
AcDbDictionary
281
1
  3
ACAD_COLOR
350
B
  3
ACAD_GROUP
350
C
  3
ACAD_LAYOUT
350
D
  3
ACAD_MATERIAL
350
E
  3
ACAD_MLEADERSTYLE
350
F
  3
ACAD_MLINESTYLE
350
10
  3
ACAD_PLOTSETTINGS
350
11
  3
ACAD_PLOTSTYLENAME
350
12
  3
ACAD_SCALELIST
350
14
  3
ACAD_TABLESTYLE
350
15
  3
ACAD_VISUALSTYLE
350
16
  3
EZDXF_META
350
2D
  0
DICTIONARY
  5
B
330
A
100
AcDbDictionary
281
1
  0
DICTIONARY
  5
C
330
A
100
AcDbDictionary
281
1
  0
DICTIONARY
  5
D
330
A
100
AcDbDictionary
281
1
  3
Model
350
1A
  3
Layout1
350
1E
  0
DICTIONARY
  5
E
330
A
100
AcDbDictionary
281
1
  3
ByBlock
350
1F
  3
ByLayer
350
20
  3
Global
350
21
  0
DICTIONARY
  5
F
330
A
100
AcDbDictionary
281
1
  3
Standard
350
2C
  0
DICTIONARY
  5
10
330
A
100
AcDbDictionary
281
1
  3
Standard
350
22
  0
DICTIONARY
  5
11
330
A
100
AcDbDictionary
281
1
  0
ACDBDICTIONARYWDFLT
  5
12
330
A
100
AcDbDictionary
281
1
  3
Normal
350
13
100
AcDbDictionaryWithDefault
340
13
  0
ACDBPLACEHOLDER
  5
13
330
12
  0
DICTIONARY
  5
14
330
A
100
AcDbDictionary
281
1
  0
DICTIONARY
  5
15
330
A
100
AcDbDictionary
281
1
  0
DICTIONARY
  5
16
330
A
100
AcDbDictionary
281
1
  0
LAYOUT
  5
1A
330
D
100
AcDbPlotSettings
  1

  4
A3
  6

 40
7.5
 41
20.0
 42
7.5
 43
20.0
 44
420.0
 45
297.0
 46
0.0
 47
0.0
 48
0.0
 49
0.0
140
0.0
141
0.0
142
1.0
143
1.0
 70
1024
 72
1
 73
0
 74
5
  7

 75
16
 76
0
 77
2
 78
300
147
1.0
148
0.0
149
0.0
100
AcDbLayout
  1
Model
 70
1
 71
0
 10
0.0
 20
0.0
 11
420.0
 21
297.0
 12
0.0
 22
0.0
 32
0.0
 14
1e+20
 24
1e+20
 34
1e+20
 15
-1e+20
 25
-1e+20
 35
-1e+20
146
0.0
 13
0.0
 23
0.0
 33
0.0
 16
1.0
 26
0.0
 36
0.0
 17
0.0
 27
1.0
 37
0.0
 76
1
330
17
  0
LAYOUT
  5
1E
330
D
100
AcDbPlotSettings
  1

  4
A3
  6

 40
7.5
 41
20.0
 42
7.5
 43
20.0
 44
420.0
 45
297.0
 46
0.0
 47
0.0
 48
0.0
 49
0.0
140
0.0
141
0.0
142
1.0
143
1.0
 70
0
 72
1
 73
0
 74
5
  7

 75
16
 76
0
 77
2
 78
300
147
1.0
148
0.0
149
0.0
100
AcDbLayout
  1
Layout1
 70
1
 71
1
 10
0.0
 20
0.0
 11
420.0
 21
297.0
 12
0.0
 22
0.0
 32
0.0
 14
1e+20
 24
1e+20
 34
1e+20
 15
-1e+20
 25
-1e+20
 35
-1e+20
146
0.0
 13
0.0
 23
0.0
 33
0.0
 16
1.0
 26
0.0
 36
0.0
 17
0.0
 27
1.0
 37
0.0
 76
1
330
1B
  0
MATERIAL
  5
1F
102
{ACAD_REACTORS
330
E
102
}
330
E
100
AcDbMaterial
  1
ByBlock
  2

 70
0
 40
1.0
 71
1
 41
1.0
 91
-1023410177
 42
1.0
 72
1
  3

 73
1
 74
1
 75
1
 44
0.5
 73
0
 45
1.0
 46
1.0
 77
1
  4

 78
1
 79
1
170
1
 48
1.0
171
1
  6

172
1
173
1
174
1
140
1.0
141
1.0
175
1
  7

176
1
177
1
178
1
143
1.0
179
1
  8

270
1
271
1
272
1
145
1.0
146
1.0
273
1
  9

274
1
275
1
276
1
 42
1.0
 72
1
  3

 73
1
 74
1
 75
1
 94
63
  0
MATERIAL
  5
20
102
{ACAD_REACTORS
330
E
102
}
330
E
100
AcDbMaterial
  1
ByLayer
  2

 70
0
 40
1.0
 71
1
 41
1.0
 91
-1023410177
 42
1.0
 72
1
  3

 73
1
 74
1
 75
1
 44
0.5
 73
0
 45
1.0
 46
1.0
 77
1
  4

 78
1
 79
1
170
1
 48
1.0
171
1
  6

172
1
173
1
174
1
140
1.0
141
1.0
175
1
  7

176
1
177
1
178
1
143
1.0
179
1
  8

270
1
271
1
272
1
145
1.0
146
1.0
273
1
  9

274
1
275
1
276
1
 42
1.0
 72
1
  3

 73
1
 74
1
 75
1
 94
63
  0
MATERIAL
  5
21
102
{ACAD_REACTORS
330
E
102
}
330
E
100
AcDbMaterial
  1
Global
  2

 70
0
 40
1.0
 71
1
 41
1.0
 91
-1023410177
 42
1.0
 72
1
  3

 73
1
 74
1
 75
1
 44
0.5
 73
0
 45
1.0
 46
1.0
 77
1
  4

 78
1
 79
1
170
1
 48
1.0
171
1
  6

172
1
173
1
174
1
140
1.0
141
1.0
175
1
  7

176
1
177
1
178
1
143
1.0
179
1
  8

270
1
271
1
272
1
145
1.0
146
1.0
273
1
  9

274
1
275
1
276
1
 42
1.0
 72
1
  3

 73
1
 74
1
 75
1
 94
63
  0
MLINESTYLE
  5
22
102
{ACAD_REACTORS
330
10
102
}
330
10
100
AcDbMlineStyle
  2
Standard
 70
0
  3

 62
256
 51
90.0
 52
90.0
 71
2
 49
0.5
 62
256
  6
BYLAYER
 49
-0.5
 62
256
  6
BYLAYER
  0
MLEADERSTYLE
  5
2C
102
{ACAD_REACTORS
330
F
102
}
330
F
100
AcDbMLeaderStyle
179
2
170
2
171
1
172
0
 90
2
 40
0.0
 41
0.0
173
1
 91
-1056964608
 92
-2
290
1
 42
2.0
291
1
 43
8.0
  3
Standard
 44
4.0
300

342
29
174
1
175
1
176
0
178
1
 93
-1056964608
 45
4.0
292
0
297
0
 46
4.0
 94
-1056964608
 47
1.0
 49
1.0
140
1.0
294
1
141
0.0
177
0
142
1.0
295
0
296
0
143
3.75
271
0
272
9
273
9
  0
DICTIONARY
  5
2D
330
A
100
AcDbDictionary
280
1
281
1
  3
CREATED_BY_EZDXF
350
2E
  3
WRITTEN_BY_EZDXF
350
33
  0
DICTIONARYVAR
  5
2E
330
2D
100
DictionaryVariables
280
0
  1
1.4.3 @ 2026-04-01T04:02:26.967116+00:00
  0
DICTIONARYVAR
  5
33
330
2D
100
DictionaryVariables
280
0
  1
1.4.3 @ 2026-04-01T04:02:26.971825+00:00
  0
ENDSEC
  0
EOF
