  0
SECTION
  2
HEADER
  9
$ACADVER
  1
AC1024
  9
$ACADMAINTVER
 70
6
  9
$DWGCODEPAGE
  3
ANSI_1252
  9
$LASTSAVEDBY
  1
ezdxf
  9
$INSBASE
 10
0.0
 20
0.0
 30
0.0
  9
$EXTMIN
 10
1e+20
 20
1e+20
 30
1e+20
  9
$EXTMAX
 10
-1e+20
 20
-1e+20
 30
-1e+20
  9
$LIMMIN
 10
0.0
 20
0.0
  9
$LIMMAX
 10
420.0
 20
297.0
  9
$ORTHOMODE
 70
0
  9
$REGENMODE
 70
1
  9
$FILLMODE
 70
1
  9
$QTEXTMODE
 70
0
  9
$MIRRTEXT
 70
1
  9
$LTSCALE
 40
1.0
  9
$ATTMODE
 70
1
  9
$TEXTSIZE
 40
2.5
  9
$TRACEWID
 40
1.0
  9
$TEXTSTYLE
  7
Standard
  9
$CLAYER
  8
0
  9
$CELTYPE
  6
ByLayer
  9
$CECOLOR
 62
256
  9
$CELTSCALE
 40
1.0
  9
$DISPSILH
 70
0
  9
$DIMSCALE
 40
1.0
  9
$DIMASZ
 40
2.5
  9
$DIMEXO
 40
0.625
  9
$DIMDLI
 40
3.75
  9
$DIMRND
 40
0.0
  9
$DIMDLE
 40
0.0
  9
$DIMEXE
 40
1.25
  9
$DIMTP
 40
0.0
  9
$DIMTM
 40
0.0
  9
$DIMTXT
 40
2.5
  9
$DIMCEN
 40
2.5
  9
$DIMTSZ
 40
0.0
  9
$DIMTOL
 70
0
  9
$DIMLIM
 70
0
  9
$DIMTIH
 70
0
  9
$DIMTOH
 70
0
  9
$DIMSE1
 70
0
  9
$DIMSE2
 70
0
  9
$DIMTAD
 70
1
  9
$DIMZIN
 70
8
  9
$DIMBLK
  1

  9
$DIMASO
 70
1
  9
$DIMSHO
 70
1
  9
$DIMPOST
  1

  9
$DIMAPOST
  1

  9
$DIMALT
 70
0
  9
$DIMALTD
 70
3
  9
$DIMALTF
 40
0.03937007874
  9
$DIMLFAC
 40
1.0
  9
$DIMTOFL
 70
1
  9
$DIMTVP
 40
0.0
  9
$DIMTIX
 70
0
  9
$DIMSOXD
 70
0
  9
$DIMSAH
 70
0
  9
$DIMBLK1
  1

  9
$DIMBLK2
  1

  9
$DIMSTYLE
  2
ISO-25
  9
$DIMCLRD
 70
0
  9
$DIMCLRE
 70
0
  9
$DIMCLRT
 70
0
  9
$DIMTFAC
 40
1.0
  9
$DIMGAP
 40
0.625
  9
$DIMJUST
 70
0
  9
$DIMSD1
 70
0
  9
$DIMSD2
 70
0
  9
$DIMTOLJ
 70
0
  9
$DIMTZIN
 70
8
  9
$DIMALTZ
 70
0
  9
$DIMALTTZ
 70
0
  9
$DIMUPT
 70
0
  9
$DIMDEC
 70
2
  9
$DIMTDEC
 70
2
  9
$DIMALTU
 70
2
  9
$DIMALTTD
 70
3
  9
$DIMTXSTY
  7
Standard
  9
$DIMAUNIT
 70
0
  9
$DIMADEC
 70
0
  9
$DIMALTRND
 40
0.0
  9
$DIMAZIN
 70
0
  9
$DIMDSEP
 70
44
  9
$DIMATFIT
 70
3
  9
$DIMFRAC
 70
0
  9
$DIMLDRBLK
  1

  9
$DIMLUNIT
 70
2
  9
$DIMLWD
 70
-2
  9
$DIMLWE
 70
-2
  9
$DIMTMOVE
 70
0
  9
$DIMFXL
 40
1.0
  9
$DIMFXLON
 70
0
  9
$DIMJOGANG
 40
0.785398163397
  9
$DIMTFILL
 70
0
  9
$DIMTFILLCLR
 70
0
  9
$DIMARCSYM
 70
0
  9
$DIMLTYPE
  6

  9
$DIMLTEX1
  6

  9
$DIMLTEX2
  6

  9
$DIMTXTDIRECTION
 70
0
  9
$LUNITS
 70
2
  9
$LUPREC
 70
4
  9
$SKETCHINC
 40
1.0
  9
$FILLETRAD
 40
10.0
  9
$AUNITS
 70
0
  9
$AUPREC
 70
2
  9
$MENU
  1
.
  9
$ELEVATION
 40
0.0
  9
$PELEVATION
 40
0.0
  9
$THICKNESS
 40
0.0
  9
$LIMCHECK
 70
0
  9
$CHAMFERA
 40
0.0
  9
$CHAMFERB
 40
0.0
  9
$CHAMFERC
 40
0.0
  9
$CHAMFERD
 40
0.0
  9
$SKPOLY
 70
0
  9
$TDCREATE
 40
2461021.7369907405
  9
$TDUCREATE
 40
2458532.153996898
  9
$TDUPDATE
 40
2461021.7369907405
  9
$TDUUPDATE
 40
2458532.1544311
  9
$TDINDWG
 40
0.0
  9
$TDUSRTIMER
 40
0.0
  9
$USRTIMER
 70
1
  9
$ANGBASE
 50
0.0
  9
$ANGDIR
 70
0
  9
$PDMODE
 70
0
  9
$PDSIZE
 40
0.0
  9
$PLINEWID
 40
0.0
  9
$SPLFRAME
 70
0
  9
$SPLINETYPE
 70
6
  9
$SPLINESEGS
 70
8
  9
$HANDSEED
  5
33
  9
$SURFTAB1
 70
6
  9
$SURFTAB2
 70
6
  9
$SURFTYPE
 70
6
  9
$SURFU
 70
6
  9
$SURFV
 70
6
  9
$UCSBASE
  2

  9
$UCSNAME
  2

  9
$UCSORG
 10
0.0
 20
0.0
 30
0.0
  9
$UCSXDIR
 10
1.0
 20
0.0
 30
0.0
  9
$UCSYDIR
 10
0.0
 20
1.0
 30
0.0
  9
$UCSORTHOREF
  2

  9
$UCSORTHOVIEW
 70
0
  9
$UCSORGTOP
 10
0.0
 20
0.0
 30
0.0
  9
$UCSORGBOTTOM
 10
0.0
 20
0.0
 30
0.0
  9
$UCSORGLEFT
 10
0.0
 20
0.0
 30
0.0
  9
$UCSORGRIGHT
 10
0.0
 20
0.0
 30
0.0
  9
$UCSORGFRONT
 10
0.0
 20
0.0
 30
0.0
  9
$UCSORGBACK
 10
0.0
 20
0.0
 30
0.0
  9
$PUCSBASE
  2

  9
$PUCSNAME
  2

  9
$PUCSORG
 10
0.0
 20
0.0
 30
0.0
  9
$PUCSXDIR
 10
1.0
 20
0.0
 30
0.0
  9
$PUCSYDIR
 10
0.0
 20
1.0
 30
0.0
  9
$PUCSORTHOREF
  2

  9
$PUCSORTHOVIEW
 70
0
  9
$PUCSORGTOP
 10
0.0
 20
0.0
 30
0.0
  9
$PUCSORGBOTTOM
 10
0.0
 20
0.0
 30
0.0
  9
$PUCSORGLEFT
 10
0.0
 20
0.0
 30
0.0
  9
$PUCSORGRIGHT
 10
0.0
 20
0.0
 30
0.0
  9
$PUCSORGFRONT
 10
0.0
 20
0.0
 30
0.0
  9
$PUCSORGBACK
 10
0.0
 20
0.0
 30
0.0
  9
$USERI1
 70
0
  9
$USERI2
 70
0
  9
$USERI3
 70
0
  9
$USERI4
 70
0
  9
$USERI5
 70
0
  9
$USERR1
 40
0.0
  9
$USERR2
 40
0.0
  9
$USERR3
 40
0.0
  9
$USERR4
 40
0.0
  9
$USERR5
 40
0.0
  9
$WORLDVIEW
 70
1
  9
$SHADEDGE
 70
3
  9
$SHADEDIF
 70
70
  9
$TILEMODE
 70
1
  9
$MAXACTVP
 70
64
  9
$PINSBASE
 10
0.0
 20
0.0
 30
0.0
  9
$PLIMCHECK
 70
0
  9
$PEXTMIN
 10
1e+20
 20
1e+20
 30
1e+20
  9
$PEXTMAX
 10
-1e+20
 20
-1e+20
 30
-1e+20
  9
$PLIMMIN
 10
0.0
 20
0.0
  9
$PLIMMAX
 10
420.0
 20
297.0
  9
$UNITMODE
 70
0
  9
$VISRETAIN
 70
1
  9
$PLINEGEN
 70
0
  9
$PSLTSCALE
 70
1
  9
$TREEDEPTH
 70
3020
  9
$CMLSTYLE
  2
Standard
  9
$CMLJUST
 70
0
  9
$CMLSCALE
 40
20.0
  9
$PROXYGRAPHICS
 70
1
  9
$MEASUREMENT
 70
1
  9
$CELWEIGHT
370
-1
  9
$ENDCAPS
280
0
  9
$JOINSTYLE
280
0
  9
$LWDISPLAY
290
0
  9
$INSUNITS
 70
6
  9
$HYPERLINKBASE
  1

  9
$STYLESHEET
  1

  9
$XEDIT
290
1
  9
$CEPSNTYPE
380
0
  9
$PSTYLEMODE
290
1
  9
$FINGERPRINTGUID
  2
{DD8DC218-B04E-419A-9C6F-1D4E815A4EDD}
  9
$VERSIONGUID
  2
{06B0AC58-ADA6-4DD8-809A-369FD96397EC}
  9
$EXTNAMES
290
1
  9
$PSVPSCALE
 40
0.0
  9
$OLESTARTUP
290
0
  9
$SORTENTS
280
127
  9
$INDEXCTL
280
0
  9
$HIDETEXT
280
1
  9
$XCLIPFRAME
280
1
  9
$HALOGAP
280
0
  9
$OBSCOLOR
 70
257
  9
$OBSLTYPE
280
0
  9
$INTERSECTIONDISPLAY
280
0
  9
$INTERSECTIONCOLOR
 70
257
  9
$DIMASSOC
280
2
  9
$PROJECTNAME
  1

  9
$CAMERADISPLAY
290
0
  9
$LENSLENGTH
 40
50.0
  9
$CAMERAHEIGHT
 40
0.0
  9
$STEPSPERSEC
 40
24.0
  9
$STEPSIZE
 40
100.0
  9
$3DDWFPREC
 40
2.0
  9
$PSOLWIDTH
 40
0.005
  9
$PSOLHEIGHT
 40
0.08
  9
$LOFTANG1
 40
1.570796326795
  9
$LOFTANG2
 40
1.570796326795
  9
$LOFTMAG1
 40
0.0
  9
$LOFTMAG2
 40
0.0
  9
$LOFTPARAM
 70
7
  9
$LOFTNORMALS
280
1
  9
$LATITUDE
 40
37.795
  9
$LONGITUDE
 40
-122.394
  9
$NORTHDIRECTION
 40
0.0
  9
$TIMEZONE
 70
-8000
  9
$LIGHTGLYPHDISPLAY
280
1
  9
$TILEMODELIGHTSYNCH
280
1
  9
$CMATERIAL
347
20
  9
$SOLIDHIST
280
0
  9
$SHOWHIST
280
1
  9
$DWFFRAME
280
2
  9
$DGNFRAME
280
2
  9
$REALWORLDSCALE
290
1
  9
$INTERFERECOLOR
 62
256
  9
$CSHADOW
280
0
  9
$SHADOWPLANELOCATION
 40
0.0
  0
ENDSEC
  0
SECTION
  2
CLASSES
  0
CLASS
  1
ACDBDICTIONARYWDFLT
  2
AcDbDictionaryWithDefault
  3
ObjectDBX Classes
 90
0
 91
0
280
0
281
0
  0
CLASS
  1
SUN
  2
AcDbSun
  3
SCENEOE
 90
1153
 91
0
280
0
281
0
  0
CLASS
  1
VISUALSTYLE
  2
AcDbVisualStyle
  3
ObjectDBX Classes
 90
4095
 91
0
280
0
281
0
  0
CLASS
  1
MATERIAL
  2
AcDbMaterial
  3
ObjectDBX Classes
 90
1153
 91
0
280
0
281
0
  0
CLASS
  1
SCALE
  2
AcDbScale
  3
ObjectDBX Classes
 90
1153
 91
0
280
0
281
0
  0
CLASS
  1
TABLESTYLE
  2
AcDbTableStyle
  3
ObjectDBX Classes
 90
4095
 91
0
280
0
281
0
  0
CLASS
  1
MLEADERSTYLE
  2
AcDbMLeaderStyle
  3
ACDB_MLEADERSTYLE_CLASS
 90
4095
 91
0
280
0
281
0
  0
CLASS
  1
DICTIONARYVAR
  2
AcDbDictionaryVar
  3
ObjectDBX Classes
 90
0
 91
0
280
0
281
0
  0
CLASS
  1
CELLSTYLEMAP
  2
AcDbCellStyleMap
  3
ObjectDBX Classes
 90
1152
 91
0
280
0
281
0
  0
CLASS
  1
MENTALRAYRENDERSETTINGS
  2
AcDbMentalRayRenderSettings
  3
SCENEOE
 90
1024
 91
0
280
0
281
0
  0
CLASS
  1
ACDBDETAILVIEWSTYLE
  2
AcDbDetailViewStyle
  3
ObjectDBX Classes
 90
1025
 91
0
280
0
281
0
  0
CLASS
  1
ACDBSECTIONVIEWSTYLE
  2
AcDbSectionViewStyle
  3
ObjectDBX Classes
 90
1025
 91
0
280
0
281
0
  0
CLASS
  1
RASTERVARIABLES
  2
AcDbRasterVariables
  3
ISM
 90
0
 91
0
280
0
281
0
  0
CLASS
  1
ACDBPLACEHOLDER
  2
AcDbPlaceHolder
  3
ObjectDBX Classes
 90
0
 91
0
280
0
281
0
  0
CLASS
  1
LAYOUT
  2
AcDbLayout
  3
ObjectDBX Classes
 90
0
 91
0
280
0
281
0
  0
ENDSEC
  0
SECTION
  2
TABLES
  0
TABLE
  2
VPORT
  5
8
330
0
100
AcDbSymbolTable
 70
1
  0
VPORT
  5
23
330
8
100
AcDbSymbolTableRecord
100
AcDbViewportTableRecord
  2
*Active
 70
0
 10
0.0
 20
0.0
 11
1.0
 21
1.0
 12
0.0
 22
0.0
 13
0.0
 23
0.0
 14
0.5
 24
0.5
 15
0.5
 25
0.5
 16
0.0
 26
0.0
 36
1.0
 17
0.0
 27
0.0
 37
0.0
 40
1000.0
 41
1.34
 42
50.0
 43
0.0
 44
0.0
 50
0.0
 51
0.0
 71
0
 72
1000
 73
1
 74
3
 75
0
 76
0
 77
0
 78
0
281
0
 65
0
146
0.0
  0
ENDTAB
  0
TABLE
  2
LTYPE
  5
2
330
0
100
AcDbSymbolTable
 70
3
  0
LTYPE
  5
24
330
2
100
AcDbSymbolTableRecord
100
AcDbLinetypeTableRecord
  2
ByBlock
 70
0
  3

 72
65
 73
0
 40
0.0
  0
LTYPE
  5
25
330
2
100
AcDbSymbolTableRecord
100
AcDbLinetypeTableRecord
  2
ByLayer
 70
0
  3

 72
65
 73
0
 40
0.0
  0
LTYPE
  5
26
330
2
100
AcDbSymbolTableRecord
100
AcDbLinetypeTableRecord
  2
Continuous
 70
0
  3

 72
65
 73
0
 40
0.0
  0
ENDTAB
  0
TABLE
  2
LAYER
  5
1
330
0
100
AcDbSymbolTable
 70
2
  0
LAYER
  5
27
330
1
100
AcDbSymbolTableRecord
100
AcDbLayerTableRecord
  2
0
 70
0
 62
7
  6
Continuous
370
-3
390
13
347
21
  0
LAYER
  5
28
330
1
100
AcDbSymbolTableRecord
100
AcDbLayerTableRecord
  2
Defpoints
 70
0
 62
7
  6
Continuous
290
0
370
-3
390
13
347
21
  0
ENDTAB
  0
TABLE
  2
STYLE
  5
5
330
0
100
AcDbSymbolTable
 70
1
  0
STYLE
  5
29
330
5
100
AcDbSymbolTableRecord
100
AcDbTextStyleTableRecord
  2
Standard
 70
0
 40
0.0
 41
1.0
 50
0.0
 71
0
 42
2.5
  3
txt
  4

  0
ENDTAB
  0
TABLE
  2
VIEW
  5
7
330
0
100
AcDbSymbolTable
 70
0
  0
ENDTAB
  0
TABLE
  2
UCS
  5
6
330
0
100
AcDbSymbolTable
 70
0
  0
ENDTAB
  0
TABLE
  2
APPID
  5
3
330
0
100
AcDbSymbolTable
 70
3
  0
APPID
  5
2A
330
3
100
AcDbSymbolTableRecord
100
AcDbRegAppTableRecord
  2
ACAD
 70
0
  0
APPID
  5
30
330
3
100
AcDbSymbolTableRecord
100
AcDbRegAppTableRecord
  2
HATCHBACKGROUNDCOLOR
 70
0
  0
APPID
  5
31
330
3
100
AcDbSymbolTableRecord
100
AcDbRegAppTableRecord
  2
EZDXF
 70
0
  0
ENDTAB
  0
TABLE
  2
DIMSTYLE
  5
4
330
0
100
AcDbSymbolTable
 70
1
100
AcDbDimStyleTable
  0
DIMSTYLE
105
2B
330
4
100
AcDbSymbolTableRecord
100
AcDbDimStyleTableRecord
  2
Standard
 70
0
 40
1.0
 41
2.5
 42
0.625
 43
3.75
 44
1.25
 45
0.0
 46
0.0
 47
0.0
 48
0.0
 49
2.5
140
2.5
141
2.5
142
0.0
143
0.03937007874
144
1.0
145
0.0
146
1.0
147
0.625
148
0.0
 69
0
 70
0
 71
0
 72
0
 73
0
 74
0
 75
0
 76
0
 77
1
 78
8
 79
3
170
0
171
3
172
1
173
0
174
0
175
0
176
0
177
0
178
0
179
2
271
2
272
2
273
2
274
3
275
0
276
0
277
2
278
44
279
0
280
0
281
0
282
0
283
0
284
8
285
0
286
0
288
0
289
3
290
0
371
-2
372
-2
  0
ENDTAB
  0
TABLE
  2
BLOCK_RECORD
  5
9
330
0
100
AcDbSymbolTable
 70
2
  0
BLOCK_RECORD
  5
17
330
9
100
AcDbSymbolTableRecord
100
AcDbBlockTableRecord
  2
*Model_Space
340
1A
 70
0
280
1
281
0
  0
BLOCK_RECORD
  5
1B
330
9
100
AcDbSymbolTableRecord
100
AcDbBlockTableRecord
  2
*Paper_Space
340
1E
 70
0
280
1
281
0
  0
ENDTAB
  0
ENDSEC
  0
SECTION
  2
BLOCKS
  0
BLOCK
  5
18
330
17
100
AcDbEntity
  8
0
100
AcDbBlockBegin
  2
*Model_Space
 70
0
 10
0.0
 20
0.0
 30
0.0
  3
*Model_Space
  1

  0
ENDBLK
  5
19
330
17
100
AcDbEntity
  8
0
100
AcDbBlockEnd
  0
BLOCK
  5
1C
330
1B
100
AcDbEntity
  8
0
100
AcDbBlockBegin
  2
*Paper_Space
 70
0
 10
0.0
 20
0.0
 30
0.0
  3
*Paper_Space
  1

  0
ENDBLK
  5
1D
330
1B
100
AcDbEntity
  8
0
100
AcDbBlockEnd
  0
ENDSEC
  0
SECTION
  2
ENTITIES
  0
LWPOLYLINE
  5
2F
330
17
100
AcDbEntity
  8
BODY_OUTLINE
100
AcDbPolyline
 90
389
 70
0
 10
0.0
 20
106.59533333333337
 10
0.2751666666666779
 20
103.86483333333337
 10
0.5503333333333558
 20
101.13433333333336
 10
0.8255000000000337
 20
98.42500000000007
 10
1.1218333333333703
 20
95.6945
 10
1.4393333333333658
 20
92.98516666666671
 10
1.7568333333333612
 20
90.27583333333337
 10
2.0955000000000155
 20
87.56650000000002
 10
2.4764999999999873
 20
84.87833333333339
 10
2.8786666666667315
 20
82.16899999999998
 10
3.302000000000021
 20
79.4808333333333
 10
3.7676666666667415
 20
76.81383333333332
 10
4.275666666666666
 20
74.12566666666669
 10
4.804833333333363
 20
71.47983333333337
 10
5.397500000000036
 20
68.8128333333334
 10
5.778500000000008
 20
67.24650000000003
 10
6.15949999999998
 20
65.65900000000005
 10
6.582833333333383
 20
64.09266666666667
 10
7.006166666666672
 20
62.5263333333333
 10
7.471833333333393
 20
60.95999999999998
 10
7.9375
 20
59.39366666666672
 10
8.42433333333338
 20
57.82733333333334
 10
8.953500000000076
 20
56.28216666666674
 10
9.503833333333318
 20
54.75816666666668
 10
10.096499999999992
 20
53.23416666666668
 10
10.710333333333324
 20
51.73133333333334
 10
11.366499999999974
 20
50.2285
 10
12.043833333333396
 20
48.74683333333337
 10
12.78466666666668
 20
47.2863333333334
 10
13.419666666666672
 20
46.07983333333334
 10
14.075833333333435
 20
44.873333333333335
 10
14.774333333333402
 20
43.688000000000045
 10
15.515166666666687
 20
42.523833333333414
 10
16.255999999999972
 20
41.38083333333333
 10
17.039166666666688
 20
40.259000000000015
 10
17.84349999999995
 20
39.1371666666667
 10
18.69016666666664
 20
38.03649999999999
 10
19.536833333333334
 20
36.956999999999994
 10
20.425833333333344
 20
35.89866666666666
 10
21.314833333333354
 20
34.86149999999998
 10
22.24616666666668
 20
33.82433333333336
 10
23.198666666666668
 20
32.82950000000005
 10
24.172333333333313
 20
31.855833333333294
 10
24.91316666666671
 20
31.136166666666668
 10
25.653999999999996
 20
30.45883333333336
 10
26.39483333333328
 20
29.760333333333392
 10
27.15683333333334
 20
29.104166666666742
 10
27.940000000000055
 20
28.448000000000036
 10
28.723166666666657
 20
27.79183333333333
 10
29.506333333333373
 20
27.178000000000054
 10
30.310666666666748
 20
26.564166666666665
 10
31.136166666666668
 20
25.95033333333339
 10
31.940500000000043
 20
25.357666666666717
 10
32.787166666666735
 20
24.786166666666645
 10
33.633833333333314
 20
24.235833333333346
 10
34.480500000000006
 20
23.685500000000047
 10
35.3271666666667
 20
23.15633333333335
 10
36.533666666666704
 20
22.457833333333326
 10
37.71900000000005
 20
21.780500000000018
 10
38.946666666666715
 20
21.145500000000027
 10
40.174333333333266
 20
20.531666666666695
 10
41.40199999999993
 20
19.960166666666737
 10
42.672000000000025
 20
19.40983333333338
 10
43.94200000000001
 20
18.88066666666674
 10
45.21199999999999
 20
18.372666666666703
 10
46.50316666666663
 20
17.92816666666664
 10
47.794333333333384
 20
17.483666666666693
 10
49.10666666666668
 20
17.081500000000005
 10
50.419000000000096
 20
16.721666666666692
 10
51.752500000000055
 20
16.38299999999998
 10
53.064833333333354
 20
16.065500000000043
 10
54.22900000000004
 20
15.832666666666682
 10
55.37200000000007
 20
15.599833333333322
 10
56.514999999999986
 20
15.409333333333336
 10
57.679166666666674
 20
15.240000000000009
 10
58.84333333333336
 20
15.113000000000056
 10
60.007499999999936
 20
14.98599999999999
 10
61.17166666666674
 20
14.880166666666696
 10
62.33583333333331
 20
14.816666666666663
 10
63.5
 20
14.753166666666687
 10
64.68533333333335
 20
14.710833333333312
 10
65.84950000000003
 20
14.710833333333312
 10
67.01366666666672
 20
14.710833333333312
 10
68.19899999999996
 20
14.731999999999971
 10
69.36316666666676
 20
14.795500000000004
 10
70.92949999999996
 20
14.880166666666696
 10
72.47466666666674
 20
15.007166666666706
 10
74.04099999999994
 20
15.155333333333317
 10
75.58616666666671
 20
15.345833333333303
 10
77.13133333333337
 20
15.557500000000061
 10
78.67650000000003
 20
15.811500000000024
 10
80.22166666666669
 20
16.0866666666667
 10
81.7456666666667
 20
16.38299999999998
 10
83.2696666666667
 20
16.700500000000034
 10
84.7936666666667
 20
17.060333333333347
 10
86.3176666666667
 20
17.44133333333332
 10
87.82050000000004
 20
17.843500000000063
 10
89.32333333333338
 20
18.288000000000068
 10
90.80499999999995
 20
18.753666666666675
 10
94.00116666666668
 20
19.85433333333333
 10
97.15499999999997
 20
21.060833333333335
 10
100.22416666666675
 20
22.415500000000065
 10
103.22983333333343
 20
23.876000000000033
 10
106.19316666666668
 20
25.44233333333335
 10
109.11416666666662
 20
27.093333333333305
 10
111.99283333333335
 20
28.80783333333335
 10
114.87150000000008
 20
30.56466666666671
 10
117.77133333333336
 20
32.321500000000015
 10
120.67116666666664
 20
34.05716666666672
 10
123.59216666666669
 20
35.771666666666704
 10
126.57666666666671
 20
37.422666666666714
 10
129.6246666666667
 20
39.01016666666669
 10
132.71500000000003
 20
40.47066666666666
 10
133.70983333333334
 20
40.894000000000005
 10
134.68349999999998
 20
41.29616666666669
 10
135.6783333333334
 20
41.677166666666665
 10
136.6731666666667
 20
42.05816666666664
 10
137.668
 20
42.39683333333335
 10
138.68400000000008
 20
42.7143333333334
 10
139.70000000000005
 20
43.03183333333334
 10
140.716
 20
43.30699999999996
 10
141.73199999999997
 20
43.56099999999998
 10
142.74800000000005
 20
43.77266666666668
 10
143.78516666666667
 20
43.96316666666672
 10
144.8223333333333
 20
44.13250000000005
 10
145.85950000000003
 20
44.2595
 10
146.89666666666665
 20
44.3653333333333
 10
147.80683333333332
 20
44.40766666666667
 10
148.69583333333333
 20
44.450000000000045
 10
149.606
 20
44.450000000000045
 10
150.51616666666666
 20
44.42883333333333
 10
151.42633333333333
 20
44.386499999999955
 10
152.3365
 20
44.323000000000036
 10
153.2255
 20
44.238333333333344
 10
154.13566666666668
 20
44.13250000000005
 10
155.04583333333335
 20
44.005499999999984
 10
155.95600000000002
 20
43.857333333333315
 10
156.84500000000003
 20
43.688000000000045
 10
157.7551666666667
 20
43.51866666666672
 10
158.6441666666667
 20
43.30699999999996
 10
159.55433333333337
 20
43.07416666666671
 10
160.61266666666666
 20
42.77783333333332
 10
161.67100000000005
 20
42.46033333333338
 10
162.70816666666667
 20
42.12166666666667
 10
163.7453333333334
 20
41.76183333333336
 10
164.78250000000003
 20
41.38083333333333
 10
165.79849999999988
 20
40.9786666666667
 10
166.81449999999995
 20
40.55533333333335
 10
167.80933333333337
 20
40.110833333333346
 10
168.8041666666668
 20
39.64516666666668
 10
169.77783333333332
 20
39.15833333333342
 10
170.75149999999996
 20
38.67150000000004
 10
171.70400000000006
 20
38.1635
 10
172.65649999999994
 20
37.63433333333336
 10
173.58783333333338
 20
37.10516666666666
 10
175.7256666666667
 20
35.81400000000008
 10
177.82116666666673
 20
34.480500000000006
 10
179.91666666666674
 20
33.10466666666673
 10
181.96983333333333
 20
31.707666666666682
 10
184.02300000000002
 20
30.289500000000032
 10
186.07616666666672
 20
28.871333333333382
 10
188.1293333333333
 20
27.45316666666662
 10
190.20366666666666
 20
26.077333333333343
 10
192.29916666666668
 20
24.722666666666726
 10
194.41583333333335
 20
23.431500000000028
 10
196.5536666666667
 20
22.16149999999999
 10
198.73383333333334
 20
20.95500000000004
 10
200.93516666666676
 20
19.76966666666675
 10
203.15766666666661
 20
18.626666666666665
 10
205.4225
 20
17.52600000000001
 10
207.70849999999996
 20
16.425333333333356
 10
210.01566666666668
 20
15.388166666666677
 10
212.32283333333328
 20
14.372166666666658
 10
214.6723333333332
 20
13.377333333333354
 10
217.0006666666667
 20
12.403666666666709
 10
219.37133333333327
 20
11.472333333333381
 10
221.72083333333342
 20
10.562166666666656
 10
224.0915
 20
9.673166666666702
 10
226.48333333333346
 20
8.805333333333351
 10
228.8751666666667
 20
7.979833333333374
 10
231.26699999999994
 20
7.175500000000056
 10
233.67999999999995
 20
6.39233333333334
 10
236.09299999999996
 20
5.672666666666714
 10
237.8075
 20
5.185833333333335
 10
239.50083333333328
 20
4.699000000000069
 10
241.21533333333332
 20
4.254500000000064
 10
242.92983333333336
 20
3.831166666666718
 10
244.66550000000007
 20
3.4078333333333717
 10
246.38
 20
3.0268333333334
 10
248.1156666666667
 20
2.66700000000003
 10
249.8513333333333
 20
2.307166666666717
 10
251.587
 20
1.9896666666666647
 10
253.34383333333335
 20
1.693333333333328
 10
255.1006666666667
 20
1.418166666666707
 10
256.8363333333334
 20
1.164166666666631
 10
258.59316666666655
 20
0.9313333333333844
 10
260.35
 20
0.7196666666667397
 10
262.42433333333327
 20
0.4868333333333794
 10
264.47749999999996
 20
0.2963333333333935
 10
266.55183333333343
 20
0.12700000000000955
 10
268.6261666666668
 20
0.0
 10
312.9068333333332
 20
2.8151666666666415
 10
314.68483333333324
 20
3.217333333333386
 10
316.3993333333333
 20
3.6194999999999595
 10
318.11383333333333
 20
4.0639999999999645
 10
319.82833333333326
 20
4.529666666666628
 10
321.52166666666665
 20
5.016500000000008
 10
323.2149999999998
 20
5.545666666666648
 10
324.9083333333332
 20
6.074833333333345
 10
326.58050000000003
 20
6.667499999999961
 10
328.2526666666665
 20
7.2601666666666915
 10
329.9036666666665
 20
7.895166666666626
 10
331.55466666666666
 20
8.551333333333332
 10
333.18449999999996
 20
9.249833333333356
 10
334.81433333333325
 20
9.969499999999982
 10
336.4229999999999
 20
10.73150000000004
 10
338.01049999999987
 20
11.514666666666699
 10
339.23816666666653
 20
12.128499999999974
 10
340.44466666666654
 20
12.763500000000022
 10
341.65116666666654
 20
13.419666666666672
 10
342.85766666666666
 20
14.09699999999998
 10
344.043
 20
14.795500000000004
 10
345.2071666666666
 20
15.494000000000028
 10
346.37133333333327
 20
16.234833333333313
 10
347.5143333333332
 20
16.97566666666671
 10
348.6573333333333
 20
17.737666666666655
 10
349.7791666666666
 20
18.520833333333314
 10
350.90099999999984
 20
19.325166666666632
 10
352.00166666666667
 20
20.129500000000064
 10
353.0811666666666
 20
20.976166666666643
 10
354.16066666666654
 20
21.82283333333328
 10
355.1978333333333
 20
22.648333333333312
 10
356.19266666666647
 20
23.516166666666663
 10
357.20866666666655
 20
24.384000000000015
 10
358.1823333333333
 20
25.273000000000025
 10
359.15599999999984
 20
26.183166666666693
 10
360.10849999999994
 20
27.114499999999964
 10
361.03983333333326
 20
28.04583333333335
 10
361.9711666666666
 20
28.998333333333335
 10
362.88133333333315
 20
29.97199999999998
 10
363.77033333333316
 20
30.966833333333284
 10
364.65933333333317
 20
31.9616666666667
 10
365.50599999999986
 20
32.977666666666664
 10
366.35266666666655
 20
33.99366666666663
 10
367.1781666666666
 20
35.030833333333305
 10
368.02483333333316
 20
36.13150000000002
 10
368.8503333333332
 20
37.232166666666615
 10
369.65466666666657
 20
38.332833333333326
 10
370.4378333333332
 20
39.45466666666664
 10
371.221
 20
40.597666666666726
 10
371.9618333333333
 20
41.7618333333333
 10
372.7026666666666
 20
42.92599999999999
 10
373.4223333333332
 20
44.090166666666676
 10
374.1208333333333
 20
45.275499999999965
 10
374.7981666666666
 20
46.46083333333331
 10
375.4755
 20
47.667333333333374
 10
376.1104999999999
 20
48.89500000000004
 10
376.7454999999999
 20
50.10149999999999
 10
377.3593333333332
 20
51.32916666666665
 10
378.0366666666665
 20
52.76850000000002
 10
378.6716666666666
 20
54.186666666666724
 10
379.3066666666665
 20
55.62600000000003
 10
379.8993333333333
 20
57.086499999999944
 10
380.49199999999985
 20
58.547000000000025
 10
381.0423333333332
 20
60.00750000000005
 10
381.5714999999999
 20
61.48916666666662
 10
382.0583333333333
 20
62.9708333333333
 10
382.54516666666666
 20
64.45249999999999
 10
382.9896666666665
 20
65.93416666666661
 10
383.43416666666656
 20
67.43700000000001
 10
383.8363333333332
 20
68.93983333333335
 10
384.21733333333316
 20
70.4638333333333
 10
384.59833333333313
 20
71.98783333333336
 10
385.2121666666666
 20
74.69716666666665
 10
385.76249999999993
 20
77.42766666666665
 10
386.27049999999997
 20
80.15816666666666
 10
386.7149999999998
 20
82.90983333333332
 10
387.1383333333333
 20
85.68266666666659
 10
387.49816666666663
 20
88.43433333333331
 10
387.8368333333333
 20
91.20716666666664
 10
388.1543333333333
 20
93.98000000000002
 10
388.42949999999985
 20
96.77399999999994
 10
388.6835
 20
99.54683333333332
 10
388.9163333333332
 20
102.31966666666665
 10
389.12799999999993
 20
105.09250000000003
 10
389.31849999999986
 20
107.8653333333333
 10
389.4666666666666
 20
110.63816666666668
 10
389.55133333333333
 20
112.39500000000004
 10
389.6148333333333
 20
114.173
 10
389.67833333333317
 20
115.92983333333336
 10
389.7206666666665
 20
117.70783333333333
 10
389.74183333333326
 20
119.46466666666669
 10
389.7629999999999
 20
121.24266666666665
 10
389.7629999999999
 20
123.02066666666667
 10
389.7629999999999
 20
124.77749999999997
 10
389.74183333333326
 20
126.5555
 10
389.7206666666665
 20
128.33349999999996
 10
389.69949999999983
 20
130.09033333333332
 10
389.6571666666665
 20
131.86833333333328
 10
389.63599999999997
 20
133.6463333333333
 10
389.59366666666665
 20
135.4031666666666
 10
389.23383333333334
 20
150.11400000000003
 10
389.10683333333327
 20
153.77583333333337
 10
388.95866666666655
 20
157.45883333333336
 10
388.78933333333316
 20
161.12066666666664
 10
388.59883333333323
 20
164.8036666666667
 10
388.38716666666664
 20
168.46550000000002
 10
388.1331666666666
 20
172.14849999999996
 10
387.8368333333333
 20
175.81033333333335
 10
387.5193333333333
 20
179.4933333333334
 10
387.1383333333333
 20
183.15516666666667
 10
386.71500000000003
 20
186.83816666666667
 10
386.48216666666656
 20
188.63733333333334
 10
386.2493333333333
 20
190.45766666666668
 10
385.97416666666675
 20
192.2568333333333
 10
385.69899999999996
 20
194.05600000000004
 10
385.38149999999996
 20
195.85516666666666
 10
385.06399999999985
 20
197.65433333333328
 10
384.70416666666654
 20
199.43233333333336
 10
384.3443333333332
 20
201.21033333333332
 10
383.9421666666666
 20
202.98833333333334
 10
383.5188333333333
 20
204.7663333333333
 10
383.0531666666666
 20
206.52316666666667
 10
382.58749999999986
 20
208.28000000000003
 10
382.0583333333333
 20
210.01566666666668
 10
381.5291666666666
 20
211.75133333333332
 10
381.0635
 20
213.1483333333333
 10
380.55549999999994
 20
214.54533333333336
 10
380.0475
 20
215.9211666666667
 10
379.5183333333333
 20
217.29699999999997
 10
378.96799999999996
 20
218.67283333333336
 10
378.3753333333332
 20
220.02749999999997
 10
377.76149999999996
 20
221.3821666666667
 10
377.12649999999985
 20
222.71566666666672
 10
376.4703333333333
 20
224.04916666666668
 10
375.77183333333335
 20
225.36150000000004
 10
375.0733333333334
 20
226.67383333333336
 10
374.3325
 20
227.96499999999997
 10
373.5916666666666
 20
229.25616666666667
 10
372.8085
 20
230.52616666666665
 10
372.0676666666667
 20
231.6903333333333
 10
371.3056666666665
 20
232.85450000000003
 10
370.5224999999999
 20
233.97633333333332
 10
369.71816666666655
 20
235.11933333333332
 10
368.8926666666666
 20
236.22000000000003
 10
368.04599999999994
 20
237.32066666666665
 10
367.19933333333324
 20
238.40016666666662
 10
366.31033333333323
 20
239.45849999999996
 10
365.42133333333334
 20
240.5168333333333
 10
364.51116666666667
 20
241.53283333333334
 10
363.57983333333334
 20
242.54883333333336
 10
362.62733333333324
 20
243.54366666666667
 10
361.67483333333337
 20
244.51733333333334
 10
360.67999999999995
 20
245.491
 10
359.62166666666656
 20
246.48583333333332
 10
358.52099999999996
 20
247.4595
 10
357.42033333333336
 20
248.43316666666664
 10
356.2773333333332
 20
249.36450000000002
 10
355.1343333333333
 20
250.27466666666666
 10
353.9701666666666
 20
251.1425
 10
352.78483333333327
 20
252.01033333333334
 10
351.59950000000003
 20
252.8358333333333
 10
350.37183333333337
 20
253.64016666666663
 10
349.1441666666667
 20
254.42333333333332
 10
347.8953333333334
 20
255.16416666666663
 10
346.6253333333332
 20
255.905
 10
345.3553333333333
 20
256.62466666666666
 10
344.06416666666667
 20
257.302
 10
342.45550000000003
 20
258.1275
 10
340.80449999999985
 20
258.9318333333333
 10
339.1534999999999
 20
259.6938333333334
 10
337.4813333333334
 20
260.43466666666666
 10
335.788
 20
261.1331666666666
 10
334.0946666666665
 20
261.83166666666665
 10
332.3801666666667
 20
262.48783333333336
 10
330.66566666666665
 20
263.10166666666663
 10
328.92999999999995
 20
263.7155
 10
327.19433333333325
 20
264.30816666666664
 10
325.4374999999999
 20
264.85849999999994
 10
323.7018333333334
 20
265.40883333333335
 10
321.9238333333333
 20
265.938
 10
320.1669999999999
 20
266.44599999999997
 10
318.0926666666667
 20
267.01750000000004
 10
316.0183333333333
 20
267.5678333333333
 10
313.94399999999996
 20
268.097
 10
311.8696666666666
 20
268.58383333333336
 10
309.7741666666666
 20
269.04949999999997
 10
307.6786666666667
 20
269.494
 10
305.60433333333333
 20
269.9173333333333
  0
ENDSEC
  0
SECTION
  2
OBJECTS
  0
DICTIONARY
  5
A
330
0
100
AcDbDictionary
281
1
  3
ACAD_COLOR
350
B
  3
ACAD_GROUP
350
C
  3
ACAD_LAYOUT
350
D
  3
ACAD_MATERIAL
350
E
  3
ACAD_MLEADERSTYLE
350
F
  3
ACAD_MLINESTYLE
350
10
  3
ACAD_PLOTSETTINGS
350
11
  3
ACAD_PLOTSTYLENAME
350
12
  3
ACAD_SCALELIST
350
14
  3
ACAD_TABLESTYLE
350
15
  3
ACAD_VISUALSTYLE
350
16
  3
EZDXF_META
350
2D
  0
DICTIONARY
  5
B
330
A
100
AcDbDictionary
281
1
  0
DICTIONARY
  5
C
330
A
100
AcDbDictionary
281
1
  0
DICTIONARY
  5
D
330
A
100
AcDbDictionary
281
1
  3
Model
350
1A
  3
Layout1
350
1E
  0
DICTIONARY
  5
E
330
A
100
AcDbDictionary
281
1
  3
ByBlock
350
1F
  3
ByLayer
350
20
  3
Global
350
21
  0
DICTIONARY
  5
F
330
A
100
AcDbDictionary
281
1
  3
Standard
350
2C
  0
DICTIONARY
  5
10
330
A
100
AcDbDictionary
281
1
  3
Standard
350
22
  0
DICTIONARY
  5
11
330
A
100
AcDbDictionary
281
1
  0
ACDBDICTIONARYWDFLT
  5
12
330
A
100
AcDbDictionary
281
1
  3
Normal
350
13
100
AcDbDictionaryWithDefault
340
13
  0
ACDBPLACEHOLDER
  5
13
330
12
  0
DICTIONARY
  5
14
330
A
100
AcDbDictionary
281
1
  0
DICTIONARY
  5
15
330
A
100
AcDbDictionary
281
1
  0
DICTIONARY
  5
16
330
A
100
AcDbDictionary
281
1
  0
LAYOUT
  5
1A
330
D
100
AcDbPlotSettings
  1

  4
A3
  6

 40
7.5
 41
20.0
 42
7.5
 43
20.0
 44
420.0
 45
297.0
 46
0.0
 47
0.0
 48
0.0
 49
0.0
140
0.0
141
0.0
142
1.0
143
1.0
 70
1024
 72
1
 73
0
 74
5
  7

 75
16
 76
0
 77
2
 78
300
147
1.0
148
0.0
149
0.0
100
AcDbLayout
  1
Model
 70
1
 71
0
 10
0.0
 20
0.0
 11
420.0
 21
297.0
 12
0.0
 22
0.0
 32
0.0
 14
1e+20
 24
1e+20
 34
1e+20
 15
-1e+20
 25
-1e+20
 35
-1e+20
146
0.0
 13
0.0
 23
0.0
 33
0.0
 16
1.0
 26
0.0
 36
0.0
 17
0.0
 27
1.0
 37
0.0
 76
1
330
17
  0
LAYOUT
  5
1E
330
D
100
AcDbPlotSettings
  1

  4
A3
  6

 40
7.5
 41
20.0
 42
7.5
 43
20.0
 44
420.0
 45
297.0
 46
0.0
 47
0.0
 48
0.0
 49
0.0
140
0.0
141
0.0
142
1.0
143
1.0
 70
0
 72
1
 73
0
 74
5
  7

 75
16
 76
0
 77
2
 78
300
147
1.0
148
0.0
149
0.0
100
AcDbLayout
  1
Layout1
 70
1
 71
1
 10
0.0
 20
0.0
 11
420.0
 21
297.0
 12
0.0
 22
0.0
 32
0.0
 14
1e+20
 24
1e+20
 34
1e+20
 15
-1e+20
 25
-1e+20
 35
-1e+20
146
0.0
 13
0.0
 23
0.0
 33
0.0
 16
1.0
 26
0.0
 36
0.0
 17
0.0
 27
1.0
 37
0.0
 76
1
330
1B
  0
MATERIAL
  5
1F
102
{ACAD_REACTORS
330
E
102
}
330
E
100
AcDbMaterial
  1
ByBlock
  2

 70
0
 40
1.0
 71
1
 41
1.0
 91
-1023410177
 42
1.0
 72
1
  3

 73
1
 74
1
 75
1
 44
0.5
 73
0
 45
1.0
 46
1.0
 77
1
  4

 78
1
 79
1
170
1
 48
1.0
171
1
  6

172
1
173
1
174
1
140
1.0
141
1.0
175
1
  7

176
1
177
1
178
1
143
1.0
179
1
  8

270
1
271
1
272
1
145
1.0
146
1.0
273
1
  9

274
1
275
1
276
1
 42
1.0
 72
1
  3

 73
1
 74
1
 75
1
 94
63
  0
MATERIAL
  5
20
102
{ACAD_REACTORS
330
E
102
}
330
E
100
AcDbMaterial
  1
ByLayer
  2

 70
0
 40
1.0
 71
1
 41
1.0
 91
-1023410177
 42
1.0
 72
1
  3

 73
1
 74
1
 75
1
 44
0.5
 73
0
 45
1.0
 46
1.0
 77
1
  4

 78
1
 79
1
170
1
 48
1.0
171
1
  6

172
1
173
1
174
1
140
1.0
141
1.0
175
1
  7

176
1
177
1
178
1
143
1.0
179
1
  8

270
1
271
1
272
1
145
1.0
146
1.0
273
1
  9

274
1
275
1
276
1
 42
1.0
 72
1
  3

 73
1
 74
1
 75
1
 94
63
  0
MATERIAL
  5
21
102
{ACAD_REACTORS
330
E
102
}
330
E
100
AcDbMaterial
  1
Global
  2

 70
0
 40
1.0
 71
1
 41
1.0
 91
-1023410177
 42
1.0
 72
1
  3

 73
1
 74
1
 75
1
 44
0.5
 73
0
 45
1.0
 46
1.0
 77
1
  4

 78
1
 79
1
170
1
 48
1.0
171
1
  6

172
1
173
1
174
1
140
1.0
141
1.0
175
1
  7

176
1
177
1
178
1
143
1.0
179
1
  8

270
1
271
1
272
1
145
1.0
146
1.0
273
1
  9

274
1
275
1
276
1
 42
1.0
 72
1
  3

 73
1
 74
1
 75
1
 94
63
  0
MLINESTYLE
  5
22
102
{ACAD_REACTORS
330
10
102
}
330
10
100
AcDbMlineStyle
  2
Standard
 70
0
  3

 62
256
 51
90.0
 52
90.0
 71
2
 49
0.5
 62
256
  6
BYLAYER
 49
-0.5
 62
256
  6
BYLAYER
  0
MLEADERSTYLE
  5
2C
102
{ACAD_REACTORS
330
F
102
}
330
F
100
AcDbMLeaderStyle
179
2
170
2
171
1
172
0
 90
2
 40
0.0
 41
0.0
173
1
 91
-1056964608
 92
-2
290
1
 42
2.0
291
1
 43
8.0
  3
Standard
 44
4.0
300

342
29
174
1
175
1
176
0
178
1
 93
-1056964608
 45
4.0
292
0
297
0
 46
4.0
 94
-1056964608
 47
1.0
 49
1.0
140
1.0
294
1
141
0.0
177
0
142
1.0
295
0
296
0
143
3.75
271
0
272
9
273
9
  0
DICTIONARY
  5
2D
330
A
100
AcDbDictionary
280
1
281
1
  3
CREATED_BY_EZDXF
350
2E
  3
WRITTEN_BY_EZDXF
350
32
  0
DICTIONARYVAR
  5
2E
330
2D
100
DictionaryVariables
280
0
  1
1.4.3 @ 2025-12-11T17:41:16.905062+00:00
  0
DICTIONARYVAR
  5
32
330
2D
100
DictionaryVariables
280
0
  1
1.4.3 @ 2025-12-11T17:41:16.910569+00:00
  0
ENDSEC
  0
EOF
