  0
SECTION
  2
HEADER
  9
$ACADVER
  1
AC1009
  9
$DWGCODEPAGE
  3
ANSI_1252
  9
$INSBASE
 10
0.0
 20
0.0
 30
0.0
  9
$EXTMIN
 10
1e+20
 20
1e+20
 30
1e+20
  9
$EXTMAX
 10
-1e+20
 20
-1e+20
 30
-1e+20
  9
$LIMMIN
 10
0.0
 20
0.0
  9
$LIMMAX
 10
420.0
 20
297.0
  9
$ORTHOMODE
 70
0
  9
$REGENMODE
 70
1
  9
$FILLMODE
 70
1
  9
$DRAGMODE
 70
2
  9
$QTEXTMODE
 70
0
  9
$MIRRTEXT
 70
1
  9
$OSMODE
 70
20583
  9
$LTSCALE
 40
1.0
  9
$ATTMODE
 70
1
  9
$TEXTSIZE
 40
2.5
  9
$TRACEWID
 40
1.0
  9
$TEXTSTYLE
  7
Standard
  9
$CLAYER
  8
0
  9
$CELTYPE
  6
ByLayer
  9
$CECOLOR
 62
256
  9
$DIMSCALE
 40
1.0
  9
$DIMASZ
 40
2.5
  9
$DIMEXO
 40
0.625
  9
$DIMDLI
 40
3.75
  9
$DIMRND
 40
0.0
  9
$DIMDLE
 40
0.0
  9
$DIMEXE
 40
1.25
  9
$DIMTP
 40
0.0
  9
$DIMTM
 40
0.0
  9
$DIMTXT
 40
2.5
  9
$DIMCEN
 40
2.5
  9
$DIMTSZ
 40
0.0
  9
$DIMTOL
 70
0
  9
$DIMLIM
 70
0
  9
$DIMTIH
 70
0
  9
$DIMTOH
 70
0
  9
$DIMSE1
 70
0
  9
$DIMSE2
 70
0
  9
$DIMTAD
 70
1
  9
$DIMZIN
 70
8
  9
$DIMBLK
  1

  9
$DIMASO
 70
1
  9
$DIMSHO
 70
1
  9
$DIMPOST
  1

  9
$DIMAPOST
  1

  9
$DIMALT
 70
0
  9
$DIMALTD
 70
3
  9
$DIMALTF
 40
0.03937007874
  9
$DIMLFAC
 40
1.0
  9
$DIMTOFL
 70
1
  9
$DIMTVP
 40
0.0
  9
$DIMTIX
 70
0
  9
$DIMSOXD
 70
0
  9
$DIMSAH
 70
0
  9
$DIMBLK1
  1

  9
$DIMBLK2
  1

  9
$DIMSTYLE
  2
ISO-25
  9
$DIMCLRD
 70
0
  9
$DIMCLRE
 70
0
  9
$DIMCLRT
 70
0
  9
$DIMTFAC
 40
1.0
  9
$DIMGAP
 40
0.625
  9
$COORDS
 70
1
  9
$ATTDIA
 70
0
  9
$ATTREQ
 70
1
  9
$HANDLING
 70
1
  9
$LUNITS
 70
2
  9
$LUPREC
 70
4
  9
$SKETCHINC
 40
1.0
  9
$FILLETRAD
 40
10.0
  9
$AUNITS
 70
0
  9
$AUPREC
 70
2
  9
$MENU
  1
.
  9
$ELEVATION
 40
0.0
  9
$PELEVATION
 40
0.0
  9
$THICKNESS
 40
0.0
  9
$LIMCHECK
 70
0
  9
$CHAMFERA
 40
0.0
  9
$CHAMFERB
 40
0.0
  9
$SKPOLY
 70
0
  9
$TDCREATE
 40
2461104.407800926
  9
$TDUPDATE
 40
2461104.407800926
  9
$TDINDWG
 40
0.0
  9
$TDUSRTIMER
 40
0.0
  9
$USRTIMER
 70
1
  9
$ANGBASE
 50
0.0
  9
$ANGDIR
 70
0
  9
$PDMODE
 70
0
  9
$PDSIZE
 40
0.0
  9
$PLINEWID
 40
0.0
  9
$SPLFRAME
 70
0
  9
$SPLINETYPE
 70
6
  9
$SPLINESEGS
 70
8
  9
$HANDSEED
  5
58
  9
$SURFTAB1
 70
6
  9
$SURFTAB2
 70
6
  9
$SURFTYPE
 70
6
  9
$SURFU
 70
6
  9
$SURFV
 70
6
  9
$UCSNAME
  2

  9
$UCSORG
 10
0.0
 20
0.0
 30
0.0
  9
$UCSXDIR
 10
1.0
 20
0.0
 30
0.0
  9
$UCSYDIR
 10
0.0
 20
1.0
 30
0.0
  9
$PUCSNAME
  2

  9
$PUCSORG
 10
0.0
 20
0.0
 30
0.0
  9
$PUCSXDIR
 10
1.0
 20
0.0
 30
0.0
  9
$PUCSYDIR
 10
0.0
 20
1.0
 30
0.0
  9
$USERI1
 70
0
  9
$USERI2
 70
0
  9
$USERI3
 70
0
  9
$USERI4
 70
0
  9
$USERI5
 70
0
  9
$USERR1
 40
0.0
  9
$USERR2
 40
0.0
  9
$USERR3
 40
0.0
  9
$USERR4
 40
0.0
  9
$USERR5
 40
0.0
  9
$WORLDVIEW
 70
1
  9
$SHADEDGE
 70
3
  9
$SHADEDIF
 70
70
  9
$TILEMODE
 70
1
  9
$MAXACTVP
 70
64
  9
$PLIMCHECK
 70
0
  9
$PEXTMIN
 10
1e+20
 20
1e+20
 30
1e+20
  9
$PEXTMAX
 10
-1e+20
 20
-1e+20
 30
-1e+20
  9
$PLIMMIN
 10
0.0
 20
0.0
  9
$PLIMMAX
 10
420.0
 20
297.0
  9
$UNITMODE
 70
0
  9
$VISRETAIN
 70
1
  9
$PLINEGEN
 70
0
  9
$PSLTSCALE
 70
1
  0
ENDSEC
  0
SECTION
  2
TABLES
  0
TABLE
  2
VPORT
 70
1
  0
VPORT
  5
23
  2
*Active
 70
0
 10
0.0
 20
0.0
 11
1.0
 21
1.0
 12
0.0
 22
0.0
 13
0.0
 23
0.0
 14
0.5
 24
0.5
 15
0.5
 25
0.5
 16
0.0
 26
0.0
 36
1.0
 17
0.0
 27
0.0
 37
0.0
 40
1000.0
 41
1.34
 42
50.0
 43
0.0
 44
0.0
 50
0.0
 51
0.0
 71
0
 72
1000
 73
1
 74
3
 75
0
 76
0
 77
0
 78
0
  0
ENDTAB
  0
TABLE
  2
LTYPE
 70
3
  0
LTYPE
  5
24
  2
ByBlock
 70
0
  3

 72
65
 73
0
 40
0.0
  0
LTYPE
  5
25
  2
ByLayer
 70
0
  3

 72
65
 73
0
 40
0.0
  0
LTYPE
  5
26
  2
Continuous
 70
0
  3

 72
65
 73
0
 40
0.0
  0
ENDTAB
  0
TABLE
  2
LAYER
 70
2
  0
LAYER
  5
27
  2
0
 70
0
 62
7
  6
Continuous
  0
LAYER
  5
28
  2
Defpoints
 70
0
 62
7
  6
Continuous
  0
ENDTAB
  0
TABLE
  2
STYLE
 70
1
  0
STYLE
  5
29
  2
Standard
 70
0
 40
0.0
 41
1.0
 50
0.0
 71
0
 42
2.5
  3
txt
  4

  0
ENDTAB
  0
TABLE
  2
VIEW
 70
0
  0
ENDTAB
  0
TABLE
  2
UCS
 70
0
  0
ENDTAB
  0
TABLE
  2
APPID
 70
3
  0
APPID
  5
2A
  2
ACAD
 70
0
  0
APPID
  5
56
  2
HATCHBACKGROUNDCOLOR
 70
0
  0
APPID
  5
57
  2
EZDXF
 70
0
  0
ENDTAB
  0
TABLE
  2
DIMSTYLE
 70
1
  0
DIMSTYLE
105
2B
  2
Standard
 70
0
  3

  4

  5

  6

  7

 40
1.0
 41
2.5
 42
0.625
 43
3.75
 44
1.25
 45
0.0
 46
0.0
 47
0.0
 48
0.0
140
2.5
141
2.5
142
0.0
143
0.03937007874
144
1.0
145
0.0
146
1.0
147
0.625
 71
0
 72
0
 73
0
 74
0
 75
0
 76
0
 77
1
 78
8
170
0
171
3
172
1
173
0
174
0
175
0
176
0
177
0
178
0
  0
ENDTAB
  0
ENDSEC
  0
SECTION
  2
BLOCKS
  0
BLOCK
  5
18
  8
0
  2
$Model_Space
 70
0
 10
0.0
 20
0.0
 30
0.0
  3
$Model_Space
  1

1001
EZDXF
1000
CREATED_BY_EZDXF
1000
1.4.3 @ 2026-03-04T15:47:14.338673+00:00
1000
WRITTEN_BY_EZDXF
1000
1.4.3 @ 2026-03-04T15:47:14.341748+00:00
  0
ENDBLK
  5
19
  8
0
  0
BLOCK
  5
1C
  8
0
  2
$Paper_Space
 70
0
 10
0.0
 20
0.0
 30
0.0
  3
$Paper_Space
  1

  0
ENDBLK
  5
1D
  8
0
  0
ENDSEC
  0
SECTION
  2
ENTITIES
  0
LINE
  5
2D
  8
BODY_OUTLINE
 10
40.06510416666666
 20
52.068239258635224
 30
0.0
 11
48.03385416666666
 21
51.27632687447347
 31
0.0
  0
LINE
  5
2E
  8
BODY_OUTLINE
 10
48.03385416666666
 20
51.27632687447347
 30
0.0
 11
56.00260416666666
 21
46.92080876158383
 31
0.0
  0
LINE
  5
2F
  8
BODY_OUTLINE
 10
56.00260416666666
 20
46.92080876158383
 30
0.0
 11
63.97135416666666
 21
38.605728727885435
 31
0.0
  0
LINE
  5
30
  8
BODY_OUTLINE
 10
63.97135416666666
 20
38.605728727885435
 30
0.0
 11
71.0546875
 21
29.498736310025286
 31
0.0
  0
LINE
  5
31
  8
BODY_OUTLINE
 10
71.0546875
 20
29.498736310025286
 30
0.0
 11
75.48177083333331
 21
19.203875315922502
 31
0.0
  0
LINE
  5
32
  8
BODY_OUTLINE
 10
75.48177083333331
 20
19.203875315922502
 30
0.0
 11
78.13802083333331
 21
8.909014321819726
 31
0.0
  0
LINE
  5
33
  8
BODY_OUTLINE
 10
78.13802083333331
 20
8.909014321819726
 30
0.0
 11
79.0234375
 21
-0.9898904802021917
 31
0.0
  0
LINE
  5
34
  8
BODY_OUTLINE
 10
79.0234375
 20
-0.9898904802021917
 30
0.0
 11
77.6953125
 21
-10.88879528222408
 31
0.0
  0
LINE
  5
35
  8
BODY_OUTLINE
 10
77.6953125
 20
-10.88879528222408
 30
0.0
 11
74.15364583333331
 21
-20.787700084245984
 31
0.0
  0
LINE
  5
36
  8
BODY_OUTLINE
 10
74.15364583333331
 20
-20.787700084245984
 30
0.0
 11
68.3984375
 21
-29.102780117944377
 31
0.0
  0
LINE
  5
37
  8
BODY_OUTLINE
 10
68.3984375
 20
-29.102780117944377
 30
0.0
 11
60.4296875
 21
-35.4380791912384
 31
0.0
  0
LINE
  5
38
  8
BODY_OUTLINE
 10
60.4296875
 20
-35.4380791912384
 30
0.0
 11
51.1328125
 21
-40.98146588037066
 31
0.0
  0
LINE
  5
39
  8
BODY_OUTLINE
 10
51.1328125
 20
-40.98146588037066
 30
0.0
 11
40.950520833333314
 21
-44.54507160909854
 31
0.0
  0
LINE
  5
3A
  8
BODY_OUTLINE
 10
40.950520833333314
 20
-44.54507160909854
 30
0.0
 11
30.325520833333343
 21
-47.71272114574556
 31
0.0
  0
LINE
  5
3B
  8
BODY_OUTLINE
 10
30.325520833333343
 20
-47.71272114574556
 30
0.0
 11
19.25781249999997
 21
-49.692502106149945
 31
0.0
  0
LINE
  5
3C
  8
BODY_OUTLINE
 10
19.25781249999997
 20
-49.692502106149945
 30
0.0
 11
8.190104166666657
 21
-51.27632687447344
 31
0.0
  0
LINE
  5
3D
  8
BODY_OUTLINE
 10
8.190104166666657
 20
-51.27632687447344
 30
0.0
 11
-2.877604166666657
 21
-52.06823925863522
 31
0.0
  0
LINE
  5
3E
  8
BODY_OUTLINE
 10
-2.877604166666657
 20
-52.06823925863522
 30
0.0
 11
-13.945312500000014
 21
-51.67228306655433
 31
0.0
  0
LINE
  5
3F
  8
BODY_OUTLINE
 10
-13.945312500000014
 20
-51.67228306655433
 30
0.0
 11
-24.570312500000014
 21
-50.48441449031169
 31
0.0
  0
LINE
  5
40
  8
BODY_OUTLINE
 10
-24.570312500000014
 20
-50.48441449031169
 30
0.0
 11
-35.195312500000014
 21
-49.29654591406906
 31
0.0
  0
LINE
  5
41
  8
BODY_OUTLINE
 10
-35.195312500000014
 20
-49.29654591406906
 30
0.0
 11
-45.37760416666667
 21
-45.73294018534118
 31
0.0
  0
LINE
  5
42
  8
BODY_OUTLINE
 10
-45.37760416666667
 20
-45.73294018534118
 30
0.0
 11
-55.55989583333334
 21
-41.37742207245155
 31
0.0
  0
LINE
  5
43
  8
BODY_OUTLINE
 10
-55.55989583333334
 20
-41.37742207245155
 30
0.0
 11
-63.971354166666686
 21
-35.04212299915753
 31
0.0
  0
LINE
  5
44
  8
BODY_OUTLINE
 10
-63.971354166666686
 20
-35.04212299915753
 30
0.0
 11
-70.16927083333334
 21
-27.518955349620867
 31
0.0
  0
LINE
  5
45
  8
BODY_OUTLINE
 10
-70.16927083333334
 20
-27.518955349620867
 30
0.0
 11
-75.0390625
 21
-18.807919123841614
 31
0.0
  0
LINE
  5
46
  8
BODY_OUTLINE
 10
-75.0390625
 20
-18.807919123841614
 30
0.0
 11
-77.6953125
 21
-9.304970513900571
 31
0.0
  0
LINE
  5
47
  8
BODY_OUTLINE
 10
-77.6953125
 20
-9.304970513900571
 30
0.0
 11
-79.0234375
 21
0.19797809604044403
 31
0.0
  0
LINE
  5
48
  8
BODY_OUTLINE
 10
-79.0234375
 20
0.19797809604044403
 30
0.0
 11
-78.58072916666669
 21
10.096882898062347
 31
0.0
  0
LINE
  5
49
  8
BODY_OUTLINE
 10
-78.58072916666669
 20
10.096882898062347
 30
0.0
 11
-75.48177083333334
 21
19.99578770008425
 31
0.0
  0
LINE
  5
4A
  8
BODY_OUTLINE
 10
-75.48177083333334
 20
19.99578770008425
 30
0.0
 11
-69.7265625
 21
28.310867733782658
 31
0.0
  0
LINE
  5
4B
  8
BODY_OUTLINE
 10
-69.7265625
 20
28.310867733782658
 30
0.0
 11
-62.20052083333334
 21
35.04212299915755
 31
0.0
  0
LINE
  5
4C
  8
BODY_OUTLINE
 10
-62.20052083333334
 20
35.04212299915755
 30
0.0
 11
-52.460937500000014
 21
40.18955349620894
 31
0.0
  0
LINE
  5
4D
  8
BODY_OUTLINE
 10
-52.460937500000014
 20
40.18955349620894
 30
0.0
 11
-41.835937500000014
 21
44.1491154170177
 31
0.0
  0
LINE
  5
4E
  8
BODY_OUTLINE
 10
-41.835937500000014
 20
44.1491154170177
 30
0.0
 11
-30.325520833333343
 21
47.71272114574558
 31
0.0
  0
LINE
  5
4F
  8
BODY_OUTLINE
 10
-30.325520833333343
 20
47.71272114574558
 30
0.0
 11
-18.372395833333343
 21
48.90058972198821
 31
0.0
  0
LINE
  5
50
  8
BODY_OUTLINE
 10
-18.372395833333343
 20
48.90058972198821
 30
0.0
 11
-6.419270833333343
 21
49.692502106149966
 31
0.0
  0
LINE
  5
51
  8
BODY_OUTLINE
 10
-6.419270833333343
 20
49.692502106149966
 30
0.0
 11
5.976562499999972
 21
49.692502106149966
 31
0.0
  0
LINE
  5
52
  8
BODY_OUTLINE
 10
5.976562499999972
 20
49.692502106149966
 30
0.0
 11
17.044270833333343
 21
50.08845829823084
 31
0.0
  0
LINE
  5
53
  8
BODY_OUTLINE
 10
17.044270833333343
 20
50.08845829823084
 30
0.0
 11
28.55468749999997
 21
51.27632687447347
 31
0.0
  0
LINE
  5
54
  8
BODY_OUTLINE
 10
28.55468749999997
 20
51.27632687447347
 30
0.0
 11
40.06510416666666
 21
52.068239258635224
 31
0.0
  0
LINE
  5
55
  8
BODY_OUTLINE
 10
40.06510416666666
 20
52.068239258635224
 30
0.0
 11
40.06510416666666
 21
52.068239258635224
 31
0.0
  0
ENDSEC
  0
EOF
