  0
SECTION
  2
HEADER
  9
$ACADVER
  1
AC1015
  9
$ACADMAINTVER
 70
6
  9
$DWGCODEPAGE
  3
ANSI_1252
  9
$INSBASE
 10
0.0
 20
0.0
 30
0.0
  9
$EXTMIN
 10
1e+20
 20
1e+20
 30
1e+20
  9
$EXTMAX
 10
-1e+20
 20
-1e+20
 30
-1e+20
  9
$LIMMIN
 10
0.0
 20
0.0
  9
$LIMMAX
 10
420.0
 20
297.0
  9
$ORTHOMODE
 70
0
  9
$REGENMODE
 70
1
  9
$FILLMODE
 70
1
  9
$QTEXTMODE
 70
0
  9
$MIRRTEXT
 70
1
  9
$LTSCALE
 40
1.0
  9
$ATTMODE
 70
1
  9
$TEXTSIZE
 40
2.5
  9
$TRACEWID
 40
1.0
  9
$TEXTSTYLE
  7
Standard
  9
$CLAYER
  8
0
  9
$CELTYPE
  6
ByLayer
  9
$CECOLOR
 62
256
  9
$CELTSCALE
 40
1.0
  9
$DISPSILH
 70
0
  9
$DIMSCALE
 40
1.0
  9
$DIMASZ
 40
2.5
  9
$DIMEXO
 40
0.625
  9
$DIMDLI
 40
3.75
  9
$DIMRND
 40
0.0
  9
$DIMDLE
 40
0.0
  9
$DIMEXE
 40
1.25
  9
$DIMTP
 40
0.0
  9
$DIMTM
 40
0.0
  9
$DIMTXT
 40
2.5
  9
$DIMCEN
 40
2.5
  9
$DIMTSZ
 40
0.0
  9
$DIMTOL
 70
0
  9
$DIMLIM
 70
0
  9
$DIMTIH
 70
0
  9
$DIMTOH
 70
0
  9
$DIMSE1
 70
0
  9
$DIMSE2
 70
0
  9
$DIMTAD
 70
1
  9
$DIMZIN
 70
8
  9
$DIMBLK
  1

  9
$DIMASO
 70
1
  9
$DIMSHO
 70
1
  9
$DIMPOST
  1

  9
$DIMAPOST
  1

  9
$DIMALT
 70
0
  9
$DIMALTD
 70
3
  9
$DIMALTF
 40
0.03937007874
  9
$DIMLFAC
 40
1.0
  9
$DIMTOFL
 70
1
  9
$DIMTVP
 40
0.0
  9
$DIMTIX
 70
0
  9
$DIMSOXD
 70
0
  9
$DIMSAH
 70
0
  9
$DIMBLK1
  1

  9
$DIMBLK2
  1

  9
$DIMSTYLE
  2
ISO-25
  9
$DIMCLRD
 70
0
  9
$DIMCLRE
 70
0
  9
$DIMCLRT
 70
0
  9
$DIMTFAC
 40
1.0
  9
$DIMGAP
 40
0.625
  9
$DIMJUST
 70
0
  9
$DIMSD1
 70
0
  9
$DIMSD2
 70
0
  9
$DIMTOLJ
 70
0
  9
$DIMTZIN
 70
8
  9
$DIMALTZ
 70
0
  9
$DIMALTTZ
 70
0
  9
$DIMUPT
 70
0
  9
$DIMDEC
 70
2
  9
$DIMTDEC
 70
2
  9
$DIMALTU
 70
2
  9
$DIMALTTD
 70
3
  9
$DIMTXSTY
  7
Standard
  9
$DIMAUNIT
 70
0
  9
$DIMADEC
 70
0
  9
$DIMALTRND
 40
0.0
  9
$DIMAZIN
 70
0
  9
$DIMDSEP
 70
44
  9
$DIMATFIT
 70
3
  9
$DIMFRAC
 70
0
  9
$DIMLDRBLK
  1

  9
$DIMLUNIT
 70
2
  9
$DIMLWD
 70
-2
  9
$DIMLWE
 70
-2
  9
$DIMTMOVE
 70
0
  9
$LUNITS
 70
2
  9
$LUPREC
 70
4
  9
$SKETCHINC
 40
1.0
  9
$FILLETRAD
 40
10.0
  9
$AUNITS
 70
0
  9
$AUPREC
 70
2
  9
$MENU
  1
.
  9
$ELEVATION
 40
0.0
  9
$PELEVATION
 40
0.0
  9
$THICKNESS
 40
0.0
  9
$LIMCHECK
 70
0
  9
$CHAMFERA
 40
0.0
  9
$CHAMFERB
 40
0.0
  9
$CHAMFERC
 40
0.0
  9
$CHAMFERD
 40
0.0
  9
$SKPOLY
 70
0
  9
$TDCREATE
 40
2461021.434039352
  9
$TDUCREATE
 40
2458532.153996898
  9
$TDUPDATE
 40
2461021.434039352
  9
$TDUUPDATE
 40
2458532.1544311
  9
$TDINDWG
 40
0.0
  9
$TDUSRTIMER
 40
0.0
  9
$USRTIMER
 70
1
  9
$ANGBASE
 50
0.0
  9
$ANGDIR
 70
0
  9
$PDMODE
 70
0
  9
$PDSIZE
 40
0.0
  9
$PLINEWID
 40
0.0
  9
$SPLFRAME
 70
0
  9
$SPLINETYPE
 70
6
  9
$SPLINESEGS
 70
8
  9
$HANDSEED
  5
33
  9
$SURFTAB1
 70
6
  9
$SURFTAB2
 70
6
  9
$SURFTYPE
 70
6
  9
$SURFU
 70
6
  9
$SURFV
 70
6
  9
$UCSBASE
  2

  9
$UCSNAME
  2

  9
$UCSORG
 10
0.0
 20
0.0
 30
0.0
  9
$UCSXDIR
 10
1.0
 20
0.0
 30
0.0
  9
$UCSYDIR
 10
0.0
 20
1.0
 30
0.0
  9
$UCSORTHOREF
  2

  9
$UCSORTHOVIEW
 70
0
  9
$UCSORGTOP
 10
0.0
 20
0.0
 30
0.0
  9
$UCSORGBOTTOM
 10
0.0
 20
0.0
 30
0.0
  9
$UCSORGLEFT
 10
0.0
 20
0.0
 30
0.0
  9
$UCSORGRIGHT
 10
0.0
 20
0.0
 30
0.0
  9
$UCSORGFRONT
 10
0.0
 20
0.0
 30
0.0
  9
$UCSORGBACK
 10
0.0
 20
0.0
 30
0.0
  9
$PUCSBASE
  2

  9
$PUCSNAME
  2

  9
$PUCSORG
 10
0.0
 20
0.0
 30
0.0
  9
$PUCSXDIR
 10
1.0
 20
0.0
 30
0.0
  9
$PUCSYDIR
 10
0.0
 20
1.0
 30
0.0
  9
$PUCSORTHOREF
  2

  9
$PUCSORTHOVIEW
 70
0
  9
$PUCSORGTOP
 10
0.0
 20
0.0
 30
0.0
  9
$PUCSORGBOTTOM
 10
0.0
 20
0.0
 30
0.0
  9
$PUCSORGLEFT
 10
0.0
 20
0.0
 30
0.0
  9
$PUCSORGRIGHT
 10
0.0
 20
0.0
 30
0.0
  9
$PUCSORGFRONT
 10
0.0
 20
0.0
 30
0.0
  9
$PUCSORGBACK
 10
0.0
 20
0.0
 30
0.0
  9
$USERI1
 70
0
  9
$USERI2
 70
0
  9
$USERI3
 70
0
  9
$USERI4
 70
0
  9
$USERI5
 70
0
  9
$USERR1
 40
0.0
  9
$USERR2
 40
0.0
  9
$USERR3
 40
0.0
  9
$USERR4
 40
0.0
  9
$USERR5
 40
0.0
  9
$WORLDVIEW
 70
1
  9
$SHADEDGE
 70
3
  9
$SHADEDIF
 70
70
  9
$TILEMODE
 70
1
  9
$MAXACTVP
 70
64
  9
$PINSBASE
 10
0.0
 20
0.0
 30
0.0
  9
$PLIMCHECK
 70
0
  9
$PEXTMIN
 10
1e+20
 20
1e+20
 30
1e+20
  9
$PEXTMAX
 10
-1e+20
 20
-1e+20
 30
-1e+20
  9
$PLIMMIN
 10
0.0
 20
0.0
  9
$PLIMMAX
 10
420.0
 20
297.0
  9
$UNITMODE
 70
0
  9
$VISRETAIN
 70
1
  9
$PLINEGEN
 70
0
  9
$PSLTSCALE
 70
1
  9
$TREEDEPTH
 70
3020
  9
$CMLSTYLE
  2
Standard
  9
$CMLJUST
 70
0
  9
$CMLSCALE
 40
20.0
  9
$PROXYGRAPHICS
 70
1
  9
$MEASUREMENT
 70
1
  9
$CELWEIGHT
370
-1
  9
$ENDCAPS
280
0
  9
$JOINSTYLE
280
0
  9
$LWDISPLAY
290
0
  9
$INSUNITS
 70
6
  9
$HYPERLINKBASE
  1

  9
$STYLESHEET
  1

  9
$XEDIT
290
1
  9
$CEPSNTYPE
380
0
  9
$PSTYLEMODE
290
1
  9
$FINGERPRINTGUID
  2
{DF0B00B4-B0A8-486E-9ABD-B04B00DDA720}
  9
$VERSIONGUID
  2
{DCE975B5-EE46-49EF-B033-E424227CFC20}
  9
$EXTNAMES
290
1
  9
$PSVPSCALE
 40
0.0
  9
$OLESTARTUP
290
0
  0
ENDSEC
  0
SECTION
  2
CLASSES
  0
CLASS
  1
ACDBDICTIONARYWDFLT
  2
AcDbDictionaryWithDefault
  3
ObjectDBX Classes
 90
0
280
0
281
0
  0
CLASS
  1
SUN
  2
AcDbSun
  3
SCENEOE
 90
1153
280
0
281
0
  0
CLASS
  1
VISUALSTYLE
  2
AcDbVisualStyle
  3
ObjectDBX Classes
 90
4095
280
0
281
0
  0
CLASS
  1
MATERIAL
  2
AcDbMaterial
  3
ObjectDBX Classes
 90
1153
280
0
281
0
  0
CLASS
  1
SCALE
  2
AcDbScale
  3
ObjectDBX Classes
 90
1153
280
0
281
0
  0
CLASS
  1
TABLESTYLE
  2
AcDbTableStyle
  3
ObjectDBX Classes
 90
4095
280
0
281
0
  0
CLASS
  1
MLEADERSTYLE
  2
AcDbMLeaderStyle
  3
ACDB_MLEADERSTYLE_CLASS
 90
4095
280
0
281
0
  0
CLASS
  1
DICTIONARYVAR
  2
AcDbDictionaryVar
  3
ObjectDBX Classes
 90
0
280
0
281
0
  0
CLASS
  1
CELLSTYLEMAP
  2
AcDbCellStyleMap
  3
ObjectDBX Classes
 90
1152
280
0
281
0
  0
CLASS
  1
MENTALRAYRENDERSETTINGS
  2
AcDbMentalRayRenderSettings
  3
SCENEOE
 90
1024
280
0
281
0
  0
CLASS
  1
ACDBDETAILVIEWSTYLE
  2
AcDbDetailViewStyle
  3
ObjectDBX Classes
 90
1025
280
0
281
0
  0
CLASS
  1
ACDBSECTIONVIEWSTYLE
  2
AcDbSectionViewStyle
  3
ObjectDBX Classes
 90
1025
280
0
281
0
  0
CLASS
  1
RASTERVARIABLES
  2
AcDbRasterVariables
  3
ISM
 90
0
280
0
281
0
  0
CLASS
  1
ACDBPLACEHOLDER
  2
AcDbPlaceHolder
  3
ObjectDBX Classes
 90
0
280
0
281
0
  0
CLASS
  1
LAYOUT
  2
AcDbLayout
  3
ObjectDBX Classes
 90
0
280
0
281
0
  0
ENDSEC
  0
SECTION
  2
TABLES
  0
TABLE
  2
VPORT
  5
8
330
0
100
AcDbSymbolTable
 70
1
  0
VPORT
  5
23
330
8
100
AcDbSymbolTableRecord
100
AcDbViewportTableRecord
  2
*Active
 70
0
 10
0.0
 20
0.0
 11
1.0
 21
1.0
 12
0.0
 22
0.0
 13
0.0
 23
0.0
 14
0.5
 24
0.5
 15
0.5
 25
0.5
 16
0.0
 26
0.0
 36
1.0
 17
0.0
 27
0.0
 37
0.0
 40
1000.0
 41
1.34
 42
50.0
 43
0.0
 44
0.0
 50
0.0
 51
0.0
 71
0
 72
1000
 73
1
 74
3
 75
0
 76
0
 77
0
 78
0
281
0
 65
0
146
0.0
  0
ENDTAB
  0
TABLE
  2
LTYPE
  5
2
330
0
100
AcDbSymbolTable
 70
3
  0
LTYPE
  5
24
330
2
100
AcDbSymbolTableRecord
100
AcDbLinetypeTableRecord
  2
ByBlock
 70
0
  3

 72
65
 73
0
 40
0.0
  0
LTYPE
  5
25
330
2
100
AcDbSymbolTableRecord
100
AcDbLinetypeTableRecord
  2
ByLayer
 70
0
  3

 72
65
 73
0
 40
0.0
  0
LTYPE
  5
26
330
2
100
AcDbSymbolTableRecord
100
AcDbLinetypeTableRecord
  2
Continuous
 70
0
  3

 72
65
 73
0
 40
0.0
  0
ENDTAB
  0
TABLE
  2
LAYER
  5
1
330
0
100
AcDbSymbolTable
 70
2
  0
LAYER
  5
27
330
1
100
AcDbSymbolTableRecord
100
AcDbLayerTableRecord
  2
0
 70
0
 62
7
  6
Continuous
370
-3
390
13
  0
LAYER
  5
28
330
1
100
AcDbSymbolTableRecord
100
AcDbLayerTableRecord
  2
Defpoints
 70
0
 62
7
  6
Continuous
290
0
370
-3
390
13
  0
ENDTAB
  0
TABLE
  2
STYLE
  5
5
330
0
100
AcDbSymbolTable
 70
1
  0
STYLE
  5
29
330
5
100
AcDbSymbolTableRecord
100
AcDbTextStyleTableRecord
  2
Standard
 70
0
 40
0.0
 41
1.0
 50
0.0
 71
0
 42
2.5
  3
txt
  4

  0
ENDTAB
  0
TABLE
  2
VIEW
  5
7
330
0
100
AcDbSymbolTable
 70
0
  0
ENDTAB
  0
TABLE
  2
UCS
  5
6
330
0
100
AcDbSymbolTable
 70
0
  0
ENDTAB
  0
TABLE
  2
APPID
  5
3
330
0
100
AcDbSymbolTable
 70
3
  0
APPID
  5
2A
330
3
100
AcDbSymbolTableRecord
100
AcDbRegAppTableRecord
  2
ACAD
 70
0
  0
APPID
  5
30
330
3
100
AcDbSymbolTableRecord
100
AcDbRegAppTableRecord
  2
HATCHBACKGROUNDCOLOR
 70
0
  0
APPID
  5
31
330
3
100
AcDbSymbolTableRecord
100
AcDbRegAppTableRecord
  2
EZDXF
 70
0
  0
ENDTAB
  0
TABLE
  2
DIMSTYLE
  5
4
330
0
100
AcDbSymbolTable
 70
1
100
AcDbDimStyleTable
  0
DIMSTYLE
105
2B
330
4
100
AcDbSymbolTableRecord
100
AcDbDimStyleTableRecord
  2
Standard
 70
0
  3

  4

 40
1.0
 41
2.5
 42
0.625
 43
3.75
 44
1.25
 45
0.0
 46
0.0
 47
0.0
 48
0.0
140
2.5
141
2.5
142
0.0
143
0.03937007874
144
1.0
145
0.0
146
1.0
147
0.625
148
0.0
 71
0
 72
0
 73
0
 74
0
 75
0
 76
0
 77
1
 78
8
 79
3
170
0
171
3
172
1
173
0
174
0
175
0
176
0
177
0
178
0
179
2
271
2
272
2
273
2
274
3
275
0
276
0
277
2
278
44
279
0
280
0
281
0
282
0
283
0
284
8
285
0
286
0
288
0
289
3
371
-2
372
-2
  0
ENDTAB
  0
TABLE
  2
BLOCK_RECORD
  5
9
330
0
100
AcDbSymbolTable
 70
2
  0
BLOCK_RECORD
  5
17
330
9
100
AcDbSymbolTableRecord
100
AcDbBlockTableRecord
  2
*Model_Space
340
1A
  0
BLOCK_RECORD
  5
1B
330
9
100
AcDbSymbolTableRecord
100
AcDbBlockTableRecord
  2
*Paper_Space
340
1E
  0
ENDTAB
  0
ENDSEC
  0
SECTION
  2
BLOCKS
  0
BLOCK
  5
18
330
17
100
AcDbEntity
  8
0
100
AcDbBlockBegin
  2
*Model_Space
 70
0
 10
0.0
 20
0.0
 30
0.0
  3
*Model_Space
  1

  0
ENDBLK
  5
19
330
17
100
AcDbEntity
  8
0
100
AcDbBlockEnd
  0
BLOCK
  5
1C
330
1B
100
AcDbEntity
  8
0
100
AcDbBlockBegin
  2
*Paper_Space
 70
0
 10
0.0
 20
0.0
 30
0.0
  3
*Paper_Space
  1

  0
ENDBLK
  5
1D
330
1B
100
AcDbEntity
  8
0
100
AcDbBlockEnd
  0
ENDSEC
  0
SECTION
  2
ENTITIES
  0
LWPOLYLINE
  5
2F
330
17
100
AcDbEntity
  8
BODY_OUTLINE
100
AcDbPolyline
 90
345
 70
1
 10
346.00518977744696
 20
130.58237201194467
 10
343.933430566648
 20
129.99762758682579
 10
341.8851294259821
 20
129.35064061794017
 10
339.8670482265268
 20
128.6234694735122
 10
337.8859488393597
 20
127.79817252176618
 10
335.0467028483117
 20
126.37580702934967
 10
332.32887191482575
 20
124.71431054564995
 10
329.75872263354523
 20
122.827014551103
 10
327.3625215991135
 20
120.72725052614487
 10
325.44256866580554
 20
118.74295779307158
 10
323.68196702962814
 20
116.61857319362319
 10
322.08922377943156
 20
114.36403667223735
 10
320.6728460040663
 20
111.98928817335177
 10
319.2905930160079
 20
109.15722315825252
 10
318.1793735650299
 20
106.20785999472248
 10
317.3711677955156
 20
103.16649012738996
 10
316.8979558518482
 20
100.05840500088327
 10
316.77888856292316
 20
97.35605791466655
 10
316.92468319476274
 20
94.65271325399671
 10
317.3292718014312
 20
91.97795585479197
 10
317.9865864369928
 20
89.36137055297066
 10
319.00488026264463
 20
86.53777033839016
 10
320.28310796605626
 20
83.81764538149378
 10
321.7738624803095
 20
81.19512403164786
 10
323.4297367384859
 20
78.66433463821875
 10
324.7093471457788
 20
76.8907232648927
 10
326.064226888991
 20
75.18277423106616
 10
327.5080089587243
 20
73.56119197033605
 10
329.05432634558053
 20
72.0466809162993
 10
331.0634132816291
 20
70.38307200900604
 10
333.2072307641797
 20
68.87893011919725
 10
335.4518565516627
 20
67.50821798694504
 10
337.7633684025082
 20
66.24489835232163
 10
341.11701025409906
 20
64.59360118903706
 10
344.53482569290975
 20
63.10666751226433
 10
348.0142422354398
 20
61.783730441896076
 10
351.55268739818837
 20
60.62442309782499
 10
354.2022564644028
 20
59.87177354114531
 10
356.87481122335333
 20
59.20200358134012
 10
359.5625200501256
 20
58.60887366395554
 10
362.2575513198052
 20
58.08614423453763
 10
363.6224438619057
 20
57.84331833313962
 10
364.9879964205061
 20
57.59776881900293
 10
366.35499949736953
 20
57.33032991095043
 10
367.72424359425963
 20
57.021835827805
 10
369.2773417130222
 20
56.59566511994435
 10
370.7913708958539
 20
56.05617452621069
 10
372.2233436560623
 20
55.3678858819463
 10
373.530272506955
 20
54.49532102249351
 10
374.5283539112551
 20
53.577500089658656
 10
375.40626572358383
 20
52.52643899977411
 10
376.16854001575473
 20
51.371984598825875
 10
376.8197088595817
 20
50.143983732799974
 10
377.39397374986504
 20
48.78156657178526
 10
377.83276939470454
 20
47.37980452139987
 10
378.1220259217714
 20
45.94913160081257
 10
378.2476734587366
 20
44.499981829192116
 10
378.1933250156354
 20
42.968984085777386
 10
377.95868528909466
 20
41.447344443920336
 10
377.55985139863515
 20
39.95331074526083
 10
377.0129204637785
 20
38.50513083143871
 10
376.3256231011348
 20
37.10664472491077
 10
375.5123495507906
 20
35.78249830355252
 10
374.58164319844116
 20
34.54170603772175
 10
373.5420474297818
 20
33.39328239777625
 10
371.5597010614113
 20
31.67402659540586
 10
369.34791644617025
 20
30.22822797499339
 10
366.9651105241611
 20
29.038513578567112
 10
364.46970023548636
 20
28.087510448155292
 10
360.73444897793104
 20
27.088770987572293
 10
356.9233663339925
 20
26.471224015916977
 10
353.07533489140167
 20
26.147492124084092
 10
349.2292372378896
 20
26.030197902968354
 10
345.3626112847442
 20
26.050640431135566
 10
341.52910239498624
 20
26.211721111531617
 10
337.7198535588891
 20
26.531640866125475
 10
333.92600776672623
 20
27.02860061688613
 10
331.0883391973171
 20
27.52580838291411
 10
328.2602983226318
 20
28.12610022233494
 10
325.4478341208519
 20
28.822839426088954
 10
322.6568955701594
 20
29.609389285116464
 10
319.00141333924836
 20
30.778733056610836
 10
315.39403874981525
 20
32.082616295055665
 10
311.83468465454865
 20
33.50967838149495
 10
308.3232639061371
 20
35.048558696972684
 10
304.8926886863842
 20
36.66632597657283
 10
301.4922984431661
 20
38.34716922233395
 10
298.10542166497135
 20
40.05578478299942
 10
294.7153868402886
 20
41.75686900731254
 10
291.7993298131054
 20
43.182791566632815
 10
288.8645340290009
 20
44.56970652921434
 10
285.90679167990754
 20
45.90999545051901
 10
282.9218949577579
 20
47.1960398860087
 10
280.2564188383186
 20
48.27942859941885
 10
277.56340242815384
 20
49.2939793352414
 10
274.8398287745828
 20
50.21922720408346
 10
272.08268092492466
 20
51.03470731655216
 10
269.57262828990713
 20
51.66186171670406
 10
267.0386981146107
 20
52.19435283991998
 10
264.4866221872102
 20
52.64290085071682
 10
261.9221322958805
 20
53.01822591361156
 10
259.3863573513056
 20
53.32151730032608
 10
256.84623857791877
 20
53.54107344841965
 10
254.3039288501941
 20
53.65392705671217
 10
251.76158104260583
 20
53.63711082402352
 10
248.34276726283423
 20
53.383967697517306
 10
244.94042770616358
 20
52.88722873576206
 10
241.56720120468475
 20
52.18012078877653
 10
238.23572659048853
 20
51.29587070657948
 10
233.68500916696848
 20
49.8275372326081
 10
229.2210881470805
 20
48.135030367405555
 10
224.8254701303374
 20
46.272768589130756
 10
220.47966171625194
 20
44.295170375942625
 10
218.01109886038716
 20
43.13144903647657
 10
215.5542890671881
 20
41.944791258164315
 10
213.11074875011815
 20
40.7321734814426
 10
210.68199432264083
 20
39.490572146748185
 10
208.9104933250185
 20
38.561446850549
 10
207.1437339843192
 20
37.62298375524467
 10
205.3776917417695
 20
36.68305620638724
 10
203.60834203859605
 20
35.749537549528746
 10
199.9501925296723
 20
33.86690883519803
 10
196.2759804732844
 20
32.01541128096933
 10
192.60065706724316
 20
30.165763539369973
 10
188.93917350935953
 20
28.288684262927273
 10
184.99197475119897
 20
26.199729852328943
 10
181.05771023190496
 20
24.085947726534965
 10
177.11540587534128
 20
21.98930309897027
 10
173.14408760537168
 20
19.95176118305979
 10
169.42392914812103
 20
18.144745363431458
 10
165.66872535885025
 20
16.408707772558238
 10
161.8863561272914
 20
14.727838529975989
 10
158.08470134317653
 20
13.086327755220553
 10
154.50363151864397
 20
11.57370040545371
 10
150.90493173929457
 20
10.10691032625658
 10
147.28101989247392
 20
8.711049611647663
 10
143.62431386552765
 20
7.411210355645464
 10
139.32891379990724
 20
6.044689229258818
 10
134.9880726739207
 20
4.818751556407641
 10
130.61083111527378
 20
3.7105564061417584
 10
126.2062297516722
 20
2.6972628475110025
 10
122.73363023618333
 20
1.9605348525538608
 10
119.24847749098689
 20
1.30057075150931
 10
115.7495119568704
 20
0.7497094433038707
 10
112.2354740746214
 20
0.3402898268640637
 10
107.98542576478818
 20
0.0646541286143818
 10
103.72040961114661
 20
0.0
 10
99.44912365752135
 20
0.10549078481764962
 10
95.18026594773713
 20
0.3402898268640637
 10
90.61243102977211
 20
0.702774499358132
 10
86.06246852564033
 20
1.1966889676368906
 10
81.53544636666504
 20
1.8516471206911311
 10
77.03643248416947
 20
2.697262847511644
 10
72.51709428271867
 20
3.775484767161133
 10
68.05911137199583
 20
5.092981294909224
 10
63.689908162495655
 20
6.6630638732427965
 10
59.43690906471289
 20
8.499043944648724
 10
55.29866438158456
 20
10.615480334571055
 10
51.295911609288595
 20
12.959202645234113
 10
47.418897831527545
 20
15.47514582033165
 10
43.65787013200389
 20
18.108244803557422
 10
39.99453086732524
 20
20.83035442642261
 10
36.44858186357112
 20
23.667108094881762
 10
33.03047598384927
 20
26.670647493617533
 10
29.75066609126739
 20
29.893114307312583
 10
25.985274757035427
 20
34.12969362626779
 10
22.465165169273178
 20
38.68861847510278
 10
19.21804791507435
 20
43.49574850712161
 10
16.271633581532484
 20
48.47694337562829
 10
13.798134561585101
 20
53.252045083779585
 10
11.59334709816136
 20
58.11039072759939
 10
9.636896655312398
 20
63.04726567949839
 10
7.908408697089186
 20
68.05795531188724
 10
5.533879406153261
 20
76.36339252257916
 10
3.6582246931826035
 20
84.81043057523345
 10
2.229357590163062
 20
93.35727107204004
 10
1.1951911290804844
 20
101.96211561518876
 10
0.2764341298757813
 20
114.93298698792923
 10
0.0
 20
127.92455946954384
 10
0.23430530540559857
 20
140.9209283516148
 10
0.847766612044893
 20
153.90618892572428
 10
1.2980406894240843
 20
160.92460144670247
 10
1.8393907959229239
 20
167.93365577304724
 10
2.490361778317265
 20
174.93190769687655
 10
3.269498483383103
 20
181.9179130103083
 10
4.419898893889922
 20
190.4342682691778
 10
5.806811323128159
 20
198.917254561843
 10
7.447672185007036
 20
207.35394674088113
 10
9.359917893435806
 20
215.73141965886947
 10
11.539717234233962
 20
223.96513893375322
 10
14.015018203458197
 20
232.1158243933575
 10
16.79748935127438
 20
240.1713406372336
 10
19.898799227848485
 20
248.11955226493268
 10
22.834184537021855
 20
254.85101505696227
 10
26.05391105892673
 20
261.44725382186357
 10
29.598050931754756
 20
267.8613194486288
 10
33.50667629369761
 20
274.04626282625026
 10
36.63058051585588
 20
278.4187951088951
 10
39.969652003373966
 20
282.63509991954476
 10
43.52070120537451
 20
286.6879571443359
 10
47.280538570980184
 20
290.57014666940506
 10
52.728941537442324
 20
295.5534705567044
 10
58.54543293279646
 20
300.09769363713457
 10
64.7169433973659
 20
304.0935000412827
 10
71.2304035714741
 20
307.43157389973584
 10
78.78278836847616
 20
310.2637767528931
 10
86.63135844770174
 20
312.2786321378551
 10
94.67202086294044
 20
313.59236244200247
 10
102.80068266798177
 20
314.32119005271613
 10
110.52494187080677
 20
314.5594824525852
 10
118.21999176813935
 20
314.3649479798063
 10
125.87115841357635
 20
313.7280618817783
 10
133.46376786071454
 20
312.6392994059004
 10
139.397343058204
 20
311.4617215657816
 10
145.27984683943967
 20
310.02408768142425
 10
151.10569855829308
 20
308.3529614637004
 10
156.86931756863578
 20
306.47490662348173
 10
163.06742069296706
 20
304.22293106426065
 10
169.1854129220604
 20
301.77094105032097
 10
175.22354206525003
 20
299.1326542262541
 10
181.18205593187002
 20
296.3217882366512
 10
185.44621918612643
 20
294.18905217293843
 10
189.67546384655205
 20
291.9877253879418
 10
193.87644741101522
 20
289.7324356552131
 10
198.05582737738425
 20
287.43781074830434
 10
203.0915411701278
 20
284.6299899064182
 10
208.11818967066375
 20
281.8067448999707
 10
213.1485715126817
 20
278.98879482373167
 10
218.1954853298712
 20
276.1968587724709
 10
222.175239185925
 20
274.0416397386439
 10
226.18511216132384
 20
271.9441349185931
 10
230.23717593283146
 20
269.933303129325
 10
234.3435021772116
 20
268.0381031878463
 10
237.99130623202612
 20
266.49438491273696
 10
241.68812499561346
 20
265.0685763181295
 10
245.43211908914853
 20
263.7677388054164
 10
249.22144913380626
 20
262.5989337759901
 10
252.75802186709572
 20
261.6456488273256
 10
256.32815656088843
 20
260.83100728606837
 10
259.9283441450302
 20
260.17510635262977
 10
263.55507554936696
 20
259.6980432274212
 10
268.44955780313717
 20
259.36186336211546
 10
273.36233701934
 20
259.3575238909915
 10
278.2703218215926
 20
259.6594231033527
 10
283.1504208335121
 20
260.2419592885025
 10
287.32198525260264
 20
260.9472261521597
 10
291.46084987132315
 20
261.8088586910658
 10
295.57222317971605
 20
262.793570008473
 10
299.6613136678237
 20
263.86807320763364
 10
306.2874970182907
 20
265.74485317640926
 10
312.8759302152865
 20
267.74680640743776
 10
319.434196507647
 20
269.8490819347204
 10
325.96987914420833
 20
272.02682879225824
 10
332.9257328896381
 20
274.39683865794115
 10
339.8865717792668
 20
276.74840195495517
 10
346.874441533834
 20
279.0054995033676
 10
353.9113878740791
 20
281.09211212324544
 10
359.48929511478156
 20
282.57275554228784
 10
365.1034576907269
 20
283.9211391080364
 10
370.7461743093851
 20
285.15735305096524
 10
376.4097436782261
 20
286.30148760154844
 10
380.65356855409294
 20
287.10238475246877
 10
384.90832389859884
 20
287.8339417282087
 10
389.17759116463947
 20
288.4670457943725
 10
393.46495180511056
 20
288.9725842165644
 10
397.7481701186895
 20
289.322970230449
 10
402.0431676692132
 20
289.507474950827
 10
406.34028518318115
 20
289.51518722539396
 10
410.62986338709266
 20
289.3351959018457
 10
414.8991658857094
 20
288.9577292842307
 10
419.1467207830673
 20
288.3753115948168
 10
423.3679474355119
 20
287.5812412855958
 10
427.558265199389
 20
286.56881680855935
 10
430.7613825757093
 20
285.6259632493186
 10
433.8976057902634
 20
284.49896004089413
 10
436.92118529543905
 20
283.1377454179484
 10
439.7863715436241
 20
281.49225761514407
 10
442.1947707817756
 20
279.73346422279076
 10
444.4081536411932
 20
277.71751293365264
 10
446.39718631325763
 20
275.4585925344938
 10
448.1325349893495
 20
272.97089181207826
 10
449.0554045719503
 20
271.33152569475396
 10
449.8180846616022
 20
269.62462828674126
 10
450.36790762244726
 20
267.86419419482297
 10
450.6522058186275
 20
266.0642180257818
 10
450.6566194488865
 20
264.54778872308935
 10
450.45921790216903
 20
263.0294760066095
 10
450.078467269231
 20
261.5250827088155
 10
449.53283364082847
 20
260.05041166218064
 10
448.72912565785055
 20
258.4333914565013
 10
447.7360664331452
 20
256.94188930638336
 10
446.5544666336743
 20
255.64229664663358
 10
445.1851369263995
 20
254.6010049120587
 10
443.80988218153624
 20
253.92564607006008
 10
442.32626460096066
 20
253.45192540709763
 10
440.77521678458805
 20
253.12214403711943
 10
439.197671332334
 20
252.87860307407348
 10
436.62152759830144
 20
252.54935366160606
 10
434.0743811909238
 20
252.2578216330898
 10
431.5461806789166
 20
251.96451524764134
 10
429.0268746309953
 20
251.62994276437738
 10
426.38622564929625
 20
251.20048616744302
 10
423.74898459686193
 20
250.68972070308973
 10
421.11983175143274
 20
250.10514910816863
 10
418.5034473907492
 20
249.454274119531
 10
415.3313287834337
 20
248.57567370630835
 10
412.1937050195217
 20
247.59640931128467
 10
409.09903077357586
 20
246.50356982533097
 10
406.0557607201589
 20
245.2842441393184
 10
403.5602556933934
 20
244.16481833730532
 10
401.09985198255407
 20
242.96482497670704
 10
398.66798447999895
 20
241.70072785972067
 10
396.25808807808653
 20
240.38899078854348
 10
393.50278255025717
 20
238.8269376055102
 10
390.7983055870029
 20
237.1841400127249
 10
388.1749731067003
 20
235.42136376960374
 10
385.6631010277261
 20
233.49937463556287
 10
383.67903902869574
 20
231.75241670689198
 10
381.8203510671882
 20
229.86953618726554
 10
380.114014041147
 20
227.85253891695194
 10
378.587004848516
 20
225.7032307362195
 10
377.4010794225368
 20
223.69069524532884
 10
376.37336750799443
 20
221.5900054135482
 10
375.4999225017111
 20
219.41558679233677
 10
374.7767978005091
 20
217.1818649331537
 10
374.35586498379985
 20
215.57039533360697
 10
374.02386563338905
 20
213.94179201183894
 10
373.7961747202519
 20
212.30147403380352
 10
373.6881672153638
 20
210.6548604654546
 10
373.7413314142353
 20
208.50963478534322
 10
373.9918163438882
 20
206.3697683029079
 10
374.4079941819654
 20
204.24210608426947
 10
374.9582371061099
 20
202.1334931955488
 10
375.6001263914203
 20
200.1164607927738
 10
376.36856257654034
 20
198.15450732662057
 10
377.2936681356463
 20
196.27833728075564
 10
378.4055655429145
 20
194.5186551388458
 10
379.35610518644097
 20
193.31293667885083
 10
380.4042806061447
 20
192.18630569399988
 10
381.53007762286165
 20
191.13801547585862
 10
382.71348205742765
 20
190.16731931599278
 10
383.4687212508654
 20
189.60297475799584
 10
384.2634688282358
 20
189.04516521487048
 10
385.1229192632993
 20
188.47116549137942
 10
386.07226702981666
 20
187.85825039228547
  0
ENDSEC
  0
SECTION
  2
OBJECTS
  0
DICTIONARY
  5
A
330
0
100
AcDbDictionary
281
1
  3
ACAD_COLOR
350
B
  3
ACAD_GROUP
350
C
  3
ACAD_LAYOUT
350
D
  3
ACAD_MATERIAL
350
E
  3
ACAD_MLEADERSTYLE
350
F
  3
ACAD_MLINESTYLE
350
10
  3
ACAD_PLOTSETTINGS
350
11
  3
ACAD_PLOTSTYLENAME
350
12
  3
ACAD_SCALELIST
350
14
  3
ACAD_TABLESTYLE
350
15
  3
ACAD_VISUALSTYLE
350
16
  3
EZDXF_META
350
2D
  0
DICTIONARY
  5
B
330
A
100
AcDbDictionary
281
1
  0
DICTIONARY
  5
C
330
A
100
AcDbDictionary
281
1
  0
DICTIONARY
  5
D
330
A
100
AcDbDictionary
281
1
  3
Model
350
1A
  3
Layout1
350
1E
  0
DICTIONARY
  5
E
330
A
100
AcDbDictionary
281
1
  3
ByBlock
350
1F
  3
ByLayer
350
20
  3
Global
350
21
  0
DICTIONARY
  5
F
330
A
100
AcDbDictionary
281
1
  3
Standard
350
2C
  0
DICTIONARY
  5
10
330
A
100
AcDbDictionary
281
1
  3
Standard
350
22
  0
DICTIONARY
  5
11
330
A
100
AcDbDictionary
281
1
  0
ACDBDICTIONARYWDFLT
  5
12
330
A
100
AcDbDictionary
281
1
  3
Normal
350
13
100
AcDbDictionaryWithDefault
340
13
  0
ACDBPLACEHOLDER
  5
13
330
12
  0
DICTIONARY
  5
14
330
A
100
AcDbDictionary
281
1
  0
DICTIONARY
  5
15
330
A
100
AcDbDictionary
281
1
  0
DICTIONARY
  5
16
330
A
100
AcDbDictionary
281
1
  0
LAYOUT
  5
1A
330
D
100
AcDbPlotSettings
  1

  4
A3
  6

 40
7.5
 41
20.0
 42
7.5
 43
20.0
 44
420.0
 45
297.0
 46
0.0
 47
0.0
 48
0.0
 49
0.0
140
0.0
141
0.0
142
1.0
143
1.0
 70
1024
 72
1
 73
0
 74
5
  7

 75
16
 76
0
 77
2
 78
300
147
1.0
148
0.0
149
0.0
100
AcDbLayout
  1
Model
 70
1
 71
0
 10
0.0
 20
0.0
 11
420.0
 21
297.0
 12
0.0
 22
0.0
 32
0.0
 14
1e+20
 24
1e+20
 34
1e+20
 15
-1e+20
 25
-1e+20
 35
-1e+20
146
0.0
 13
0.0
 23
0.0
 33
0.0
 16
1.0
 26
0.0
 36
0.0
 17
0.0
 27
1.0
 37
0.0
 76
1
330
17
  0
LAYOUT
  5
1E
330
D
100
AcDbPlotSettings
  1

  4
A3
  6

 40
7.5
 41
20.0
 42
7.5
 43
20.0
 44
420.0
 45
297.0
 46
0.0
 47
0.0
 48
0.0
 49
0.0
140
0.0
141
0.0
142
1.0
143
1.0
 70
0
 72
1
 73
0
 74
5
  7

 75
16
 76
0
 77
2
 78
300
147
1.0
148
0.0
149
0.0
100
AcDbLayout
  1
Layout1
 70
1
 71
1
 10
0.0
 20
0.0
 11
420.0
 21
297.0
 12
0.0
 22
0.0
 32
0.0
 14
1e+20
 24
1e+20
 34
1e+20
 15
-1e+20
 25
-1e+20
 35
-1e+20
146
0.0
 13
0.0
 23
0.0
 33
0.0
 16
1.0
 26
0.0
 36
0.0
 17
0.0
 27
1.0
 37
0.0
 76
1
330
1B
  0
MATERIAL
  5
1F
102
{ACAD_REACTORS
330
E
102
}
330
E
100
AcDbMaterial
  1
ByBlock
  2

 70
0
 40
1.0
 71
1
 41
1.0
 91
-1023410177
 42
1.0
 72
1
  3

 73
1
 74
1
 75
1
 44
0.5
 73
0
 45
1.0
 46
1.0
 77
1
  4

 78
1
 79
1
170
1
 48
1.0
171
1
  6

172
1
173
1
174
1
140
1.0
141
1.0
175
1
  7

176
1
177
1
178
1
143
1.0
179
1
  8

270
1
271
1
272
1
145
1.0
146
1.0
273
1
  9

274
1
275
1
276
1
 42
1.0
 72
1
  3

 73
1
 74
1
 75
1
 94
63
  0
MATERIAL
  5
20
102
{ACAD_REACTORS
330
E
102
}
330
E
100
AcDbMaterial
  1
ByLayer
  2

 70
0
 40
1.0
 71
1
 41
1.0
 91
-1023410177
 42
1.0
 72
1
  3

 73
1
 74
1
 75
1
 44
0.5
 73
0
 45
1.0
 46
1.0
 77
1
  4

 78
1
 79
1
170
1
 48
1.0
171
1
  6

172
1
173
1
174
1
140
1.0
141
1.0
175
1
  7

176
1
177
1
178
1
143
1.0
179
1
  8

270
1
271
1
272
1
145
1.0
146
1.0
273
1
  9

274
1
275
1
276
1
 42
1.0
 72
1
  3

 73
1
 74
1
 75
1
 94
63
  0
MATERIAL
  5
21
102
{ACAD_REACTORS
330
E
102
}
330
E
100
AcDbMaterial
  1
Global
  2

 70
0
 40
1.0
 71
1
 41
1.0
 91
-1023410177
 42
1.0
 72
1
  3

 73
1
 74
1
 75
1
 44
0.5
 73
0
 45
1.0
 46
1.0
 77
1
  4

 78
1
 79
1
170
1
 48
1.0
171
1
  6

172
1
173
1
174
1
140
1.0
141
1.0
175
1
  7

176
1
177
1
178
1
143
1.0
179
1
  8

270
1
271
1
272
1
145
1.0
146
1.0
273
1
  9

274
1
275
1
276
1
 42
1.0
 72
1
  3

 73
1
 74
1
 75
1
 94
63
  0
MLINESTYLE
  5
22
102
{ACAD_REACTORS
330
10
102
}
330
10
100
AcDbMlineStyle
  2
Standard
 70
0
  3

 62
256
 51
90.0
 52
90.0
 71
2
 49
0.5
 62
256
  6
BYLAYER
 49
-0.5
 62
256
  6
BYLAYER
  0
MLEADERSTYLE
  5
2C
102
{ACAD_REACTORS
330
F
102
}
330
F
100
AcDbMLeaderStyle
179
2
170
2
171
1
172
0
 90
2
 40
0.0
 41
0.0
173
1
 91
-1056964608
 92
-2
290
1
 42
2.0
291
1
 43
8.0
  3
Standard
 44
4.0
300

342
29
174
1
175
1
176
0
178
1
 93
-1056964608
 45
4.0
292
0
297
0
 46
4.0
 94
-1056964608
 47
1.0
 49
1.0
140
1.0
294
1
141
0.0
177
0
142
1.0
295
0
296
0
143
3.75
271
0
272
9
273
9
  0
DICTIONARY
  5
2D
330
A
100
AcDbDictionary
280
1
281
1
  3
CREATED_BY_EZDXF
350
2E
  3
WRITTEN_BY_EZDXF
350
32
  0
DICTIONARYVAR
  5
2E
330
2D
100
DictionaryVariables
280
0
  1
1.4.3 @ 2025-12-11T10:25:01.636177+00:00
  0
DICTIONARYVAR
  5
32
330
2D
100
DictionaryVariables
280
0
  1
1.4.3 @ 2025-12-11T10:25:01.640156+00:00
  0
ENDSEC
  0
EOF
