  0
SECTION
  2
HEADER
  9
$ACADVER
  1
AC1015
  9
$ACADMAINTVER
 70
6
  9
$DWGCODEPAGE
  3
ANSI_1252
  9
$INSBASE
 10
0.0
 20
0.0
 30
0.0
  9
$EXTMIN
 10
1e+20
 20
1e+20
 30
1e+20
  9
$EXTMAX
 10
-1e+20
 20
-1e+20
 30
-1e+20
  9
$LIMMIN
 10
0.0
 20
0.0
  9
$LIMMAX
 10
420.0
 20
297.0
  9
$ORTHOMODE
 70
0
  9
$REGENMODE
 70
1
  9
$FILLMODE
 70
1
  9
$QTEXTMODE
 70
0
  9
$MIRRTEXT
 70
1
  9
$LTSCALE
 40
1.0
  9
$ATTMODE
 70
1
  9
$TEXTSIZE
 40
2.5
  9
$TRACEWID
 40
1.0
  9
$TEXTSTYLE
  7
Standard
  9
$CLAYER
  8
0
  9
$CELTYPE
  6
ByLayer
  9
$CECOLOR
 62
256
  9
$CELTSCALE
 40
1.0
  9
$DISPSILH
 70
0
  9
$DIMSCALE
 40
1.0
  9
$DIMASZ
 40
2.5
  9
$DIMEXO
 40
0.625
  9
$DIMDLI
 40
3.75
  9
$DIMRND
 40
0.0
  9
$DIMDLE
 40
0.0
  9
$DIMEXE
 40
1.25
  9
$DIMTP
 40
0.0
  9
$DIMTM
 40
0.0
  9
$DIMTXT
 40
2.5
  9
$DIMCEN
 40
2.5
  9
$DIMTSZ
 40
0.0
  9
$DIMTOL
 70
0
  9
$DIMLIM
 70
0
  9
$DIMTIH
 70
0
  9
$DIMTOH
 70
0
  9
$DIMSE1
 70
0
  9
$DIMSE2
 70
0
  9
$DIMTAD
 70
1
  9
$DIMZIN
 70
8
  9
$DIMBLK
  1

  9
$DIMASO
 70
1
  9
$DIMSHO
 70
1
  9
$DIMPOST
  1

  9
$DIMAPOST
  1

  9
$DIMALT
 70
0
  9
$DIMALTD
 70
3
  9
$DIMALTF
 40
0.03937007874
  9
$DIMLFAC
 40
1.0
  9
$DIMTOFL
 70
1
  9
$DIMTVP
 40
0.0
  9
$DIMTIX
 70
0
  9
$DIMSOXD
 70
0
  9
$DIMSAH
 70
0
  9
$DIMBLK1
  1

  9
$DIMBLK2
  1

  9
$DIMSTYLE
  2
ISO-25
  9
$DIMCLRD
 70
0
  9
$DIMCLRE
 70
0
  9
$DIMCLRT
 70
0
  9
$DIMTFAC
 40
1.0
  9
$DIMGAP
 40
0.625
  9
$DIMJUST
 70
0
  9
$DIMSD1
 70
0
  9
$DIMSD2
 70
0
  9
$DIMTOLJ
 70
0
  9
$DIMTZIN
 70
8
  9
$DIMALTZ
 70
0
  9
$DIMALTTZ
 70
0
  9
$DIMUPT
 70
0
  9
$DIMDEC
 70
2
  9
$DIMTDEC
 70
2
  9
$DIMALTU
 70
2
  9
$DIMALTTD
 70
3
  9
$DIMTXSTY
  7
Standard
  9
$DIMAUNIT
 70
0
  9
$DIMADEC
 70
0
  9
$DIMALTRND
 40
0.0
  9
$DIMAZIN
 70
0
  9
$DIMDSEP
 70
44
  9
$DIMATFIT
 70
3
  9
$DIMFRAC
 70
0
  9
$DIMLDRBLK
  1

  9
$DIMLUNIT
 70
2
  9
$DIMLWD
 70
-2
  9
$DIMLWE
 70
-2
  9
$DIMTMOVE
 70
0
  9
$LUNITS
 70
2
  9
$LUPREC
 70
4
  9
$SKETCHINC
 40
1.0
  9
$FILLETRAD
 40
10.0
  9
$AUNITS
 70
0
  9
$AUPREC
 70
2
  9
$MENU
  1
.
  9
$ELEVATION
 40
0.0
  9
$PELEVATION
 40
0.0
  9
$THICKNESS
 40
0.0
  9
$LIMCHECK
 70
0
  9
$CHAMFERA
 40
0.0
  9
$CHAMFERB
 40
0.0
  9
$CHAMFERC
 40
0.0
  9
$CHAMFERD
 40
0.0
  9
$SKPOLY
 70
0
  9
$TDCREATE
 40
2461021.43369213
  9
$TDUCREATE
 40
2458532.153996898
  9
$TDUPDATE
 40
2461021.43369213
  9
$TDUUPDATE
 40
2458532.1544311
  9
$TDINDWG
 40
0.0
  9
$TDUSRTIMER
 40
0.0
  9
$USRTIMER
 70
1
  9
$ANGBASE
 50
0.0
  9
$ANGDIR
 70
0
  9
$PDMODE
 70
0
  9
$PDSIZE
 40
0.0
  9
$PLINEWID
 40
0.0
  9
$SPLFRAME
 70
0
  9
$SPLINETYPE
 70
6
  9
$SPLINESEGS
 70
8
  9
$HANDSEED
  5
33
  9
$SURFTAB1
 70
6
  9
$SURFTAB2
 70
6
  9
$SURFTYPE
 70
6
  9
$SURFU
 70
6
  9
$SURFV
 70
6
  9
$UCSBASE
  2

  9
$UCSNAME
  2

  9
$UCSORG
 10
0.0
 20
0.0
 30
0.0
  9
$UCSXDIR
 10
1.0
 20
0.0
 30
0.0
  9
$UCSYDIR
 10
0.0
 20
1.0
 30
0.0
  9
$UCSORTHOREF
  2

  9
$UCSORTHOVIEW
 70
0
  9
$UCSORGTOP
 10
0.0
 20
0.0
 30
0.0
  9
$UCSORGBOTTOM
 10
0.0
 20
0.0
 30
0.0
  9
$UCSORGLEFT
 10
0.0
 20
0.0
 30
0.0
  9
$UCSORGRIGHT
 10
0.0
 20
0.0
 30
0.0
  9
$UCSORGFRONT
 10
0.0
 20
0.0
 30
0.0
  9
$UCSORGBACK
 10
0.0
 20
0.0
 30
0.0
  9
$PUCSBASE
  2

  9
$PUCSNAME
  2

  9
$PUCSORG
 10
0.0
 20
0.0
 30
0.0
  9
$PUCSXDIR
 10
1.0
 20
0.0
 30
0.0
  9
$PUCSYDIR
 10
0.0
 20
1.0
 30
0.0
  9
$PUCSORTHOREF
  2

  9
$PUCSORTHOVIEW
 70
0
  9
$PUCSORGTOP
 10
0.0
 20
0.0
 30
0.0
  9
$PUCSORGBOTTOM
 10
0.0
 20
0.0
 30
0.0
  9
$PUCSORGLEFT
 10
0.0
 20
0.0
 30
0.0
  9
$PUCSORGRIGHT
 10
0.0
 20
0.0
 30
0.0
  9
$PUCSORGFRONT
 10
0.0
 20
0.0
 30
0.0
  9
$PUCSORGBACK
 10
0.0
 20
0.0
 30
0.0
  9
$USERI1
 70
0
  9
$USERI2
 70
0
  9
$USERI3
 70
0
  9
$USERI4
 70
0
  9
$USERI5
 70
0
  9
$USERR1
 40
0.0
  9
$USERR2
 40
0.0
  9
$USERR3
 40
0.0
  9
$USERR4
 40
0.0
  9
$USERR5
 40
0.0
  9
$WORLDVIEW
 70
1
  9
$SHADEDGE
 70
3
  9
$SHADEDIF
 70
70
  9
$TILEMODE
 70
1
  9
$MAXACTVP
 70
64
  9
$PINSBASE
 10
0.0
 20
0.0
 30
0.0
  9
$PLIMCHECK
 70
0
  9
$PEXTMIN
 10
1e+20
 20
1e+20
 30
1e+20
  9
$PEXTMAX
 10
-1e+20
 20
-1e+20
 30
-1e+20
  9
$PLIMMIN
 10
0.0
 20
0.0
  9
$PLIMMAX
 10
420.0
 20
297.0
  9
$UNITMODE
 70
0
  9
$VISRETAIN
 70
1
  9
$PLINEGEN
 70
0
  9
$PSLTSCALE
 70
1
  9
$TREEDEPTH
 70
3020
  9
$CMLSTYLE
  2
Standard
  9
$CMLJUST
 70
0
  9
$CMLSCALE
 40
20.0
  9
$PROXYGRAPHICS
 70
1
  9
$MEASUREMENT
 70
1
  9
$CELWEIGHT
370
-1
  9
$ENDCAPS
280
0
  9
$JOINSTYLE
280
0
  9
$LWDISPLAY
290
0
  9
$INSUNITS
 70
6
  9
$HYPERLINKBASE
  1

  9
$STYLESHEET
  1

  9
$XEDIT
290
1
  9
$CEPSNTYPE
380
0
  9
$PSTYLEMODE
290
1
  9
$FINGERPRINTGUID
  2
{81124488-3565-45D2-936A-B12562157556}
  9
$VERSIONGUID
  2
{4D207079-D874-463E-9C7F-2B50979A73A4}
  9
$EXTNAMES
290
1
  9
$PSVPSCALE
 40
0.0
  9
$OLESTARTUP
290
0
  0
ENDSEC
  0
SECTION
  2
CLASSES
  0
CLASS
  1
ACDBDICTIONARYWDFLT
  2
AcDbDictionaryWithDefault
  3
ObjectDBX Classes
 90
0
280
0
281
0
  0
CLASS
  1
SUN
  2
AcDbSun
  3
SCENEOE
 90
1153
280
0
281
0
  0
CLASS
  1
VISUALSTYLE
  2
AcDbVisualStyle
  3
ObjectDBX Classes
 90
4095
280
0
281
0
  0
CLASS
  1
MATERIAL
  2
AcDbMaterial
  3
ObjectDBX Classes
 90
1153
280
0
281
0
  0
CLASS
  1
SCALE
  2
AcDbScale
  3
ObjectDBX Classes
 90
1153
280
0
281
0
  0
CLASS
  1
TABLESTYLE
  2
AcDbTableStyle
  3
ObjectDBX Classes
 90
4095
280
0
281
0
  0
CLASS
  1
MLEADERSTYLE
  2
AcDbMLeaderStyle
  3
ACDB_MLEADERSTYLE_CLASS
 90
4095
280
0
281
0
  0
CLASS
  1
DICTIONARYVAR
  2
AcDbDictionaryVar
  3
ObjectDBX Classes
 90
0
280
0
281
0
  0
CLASS
  1
CELLSTYLEMAP
  2
AcDbCellStyleMap
  3
ObjectDBX Classes
 90
1152
280
0
281
0
  0
CLASS
  1
MENTALRAYRENDERSETTINGS
  2
AcDbMentalRayRenderSettings
  3
SCENEOE
 90
1024
280
0
281
0
  0
CLASS
  1
ACDBDETAILVIEWSTYLE
  2
AcDbDetailViewStyle
  3
ObjectDBX Classes
 90
1025
280
0
281
0
  0
CLASS
  1
ACDBSECTIONVIEWSTYLE
  2
AcDbSectionViewStyle
  3
ObjectDBX Classes
 90
1025
280
0
281
0
  0
CLASS
  1
RASTERVARIABLES
  2
AcDbRasterVariables
  3
ISM
 90
0
280
0
281
0
  0
CLASS
  1
ACDBPLACEHOLDER
  2
AcDbPlaceHolder
  3
ObjectDBX Classes
 90
0
280
0
281
0
  0
CLASS
  1
LAYOUT
  2
AcDbLayout
  3
ObjectDBX Classes
 90
0
280
0
281
0
  0
ENDSEC
  0
SECTION
  2
TABLES
  0
TABLE
  2
VPORT
  5
8
330
0
100
AcDbSymbolTable
 70
1
  0
VPORT
  5
23
330
8
100
AcDbSymbolTableRecord
100
AcDbViewportTableRecord
  2
*Active
 70
0
 10
0.0
 20
0.0
 11
1.0
 21
1.0
 12
0.0
 22
0.0
 13
0.0
 23
0.0
 14
0.5
 24
0.5
 15
0.5
 25
0.5
 16
0.0
 26
0.0
 36
1.0
 17
0.0
 27
0.0
 37
0.0
 40
1000.0
 41
1.34
 42
50.0
 43
0.0
 44
0.0
 50
0.0
 51
0.0
 71
0
 72
1000
 73
1
 74
3
 75
0
 76
0
 77
0
 78
0
281
0
 65
0
146
0.0
  0
ENDTAB
  0
TABLE
  2
LTYPE
  5
2
330
0
100
AcDbSymbolTable
 70
3
  0
LTYPE
  5
24
330
2
100
AcDbSymbolTableRecord
100
AcDbLinetypeTableRecord
  2
ByBlock
 70
0
  3

 72
65
 73
0
 40
0.0
  0
LTYPE
  5
25
330
2
100
AcDbSymbolTableRecord
100
AcDbLinetypeTableRecord
  2
ByLayer
 70
0
  3

 72
65
 73
0
 40
0.0
  0
LTYPE
  5
26
330
2
100
AcDbSymbolTableRecord
100
AcDbLinetypeTableRecord
  2
Continuous
 70
0
  3

 72
65
 73
0
 40
0.0
  0
ENDTAB
  0
TABLE
  2
LAYER
  5
1
330
0
100
AcDbSymbolTable
 70
2
  0
LAYER
  5
27
330
1
100
AcDbSymbolTableRecord
100
AcDbLayerTableRecord
  2
0
 70
0
 62
7
  6
Continuous
370
-3
390
13
  0
LAYER
  5
28
330
1
100
AcDbSymbolTableRecord
100
AcDbLayerTableRecord
  2
Defpoints
 70
0
 62
7
  6
Continuous
290
0
370
-3
390
13
  0
ENDTAB
  0
TABLE
  2
STYLE
  5
5
330
0
100
AcDbSymbolTable
 70
1
  0
STYLE
  5
29
330
5
100
AcDbSymbolTableRecord
100
AcDbTextStyleTableRecord
  2
Standard
 70
0
 40
0.0
 41
1.0
 50
0.0
 71
0
 42
2.5
  3
txt
  4

  0
ENDTAB
  0
TABLE
  2
VIEW
  5
7
330
0
100
AcDbSymbolTable
 70
0
  0
ENDTAB
  0
TABLE
  2
UCS
  5
6
330
0
100
AcDbSymbolTable
 70
0
  0
ENDTAB
  0
TABLE
  2
APPID
  5
3
330
0
100
AcDbSymbolTable
 70
3
  0
APPID
  5
2A
330
3
100
AcDbSymbolTableRecord
100
AcDbRegAppTableRecord
  2
ACAD
 70
0
  0
APPID
  5
30
330
3
100
AcDbSymbolTableRecord
100
AcDbRegAppTableRecord
  2
HATCHBACKGROUNDCOLOR
 70
0
  0
APPID
  5
31
330
3
100
AcDbSymbolTableRecord
100
AcDbRegAppTableRecord
  2
EZDXF
 70
0
  0
ENDTAB
  0
TABLE
  2
DIMSTYLE
  5
4
330
0
100
AcDbSymbolTable
 70
1
100
AcDbDimStyleTable
  0
DIMSTYLE
105
2B
330
4
100
AcDbSymbolTableRecord
100
AcDbDimStyleTableRecord
  2
Standard
 70
0
  3

  4

 40
1.0
 41
2.5
 42
0.625
 43
3.75
 44
1.25
 45
0.0
 46
0.0
 47
0.0
 48
0.0
140
2.5
141
2.5
142
0.0
143
0.03937007874
144
1.0
145
0.0
146
1.0
147
0.625
148
0.0
 71
0
 72
0
 73
0
 74
0
 75
0
 76
0
 77
1
 78
8
 79
3
170
0
171
3
172
1
173
0
174
0
175
0
176
0
177
0
178
0
179
2
271
2
272
2
273
2
274
3
275
0
276
0
277
2
278
44
279
0
280
0
281
0
282
0
283
0
284
8
285
0
286
0
288
0
289
3
371
-2
372
-2
  0
ENDTAB
  0
TABLE
  2
BLOCK_RECORD
  5
9
330
0
100
AcDbSymbolTable
 70
2
  0
BLOCK_RECORD
  5
17
330
9
100
AcDbSymbolTableRecord
100
AcDbBlockTableRecord
  2
*Model_Space
340
1A
  0
BLOCK_RECORD
  5
1B
330
9
100
AcDbSymbolTableRecord
100
AcDbBlockTableRecord
  2
*Paper_Space
340
1E
  0
ENDTAB
  0
ENDSEC
  0
SECTION
  2
BLOCKS
  0
BLOCK
  5
18
330
17
100
AcDbEntity
  8
0
100
AcDbBlockBegin
  2
*Model_Space
 70
0
 10
0.0
 20
0.0
 30
0.0
  3
*Model_Space
  1

  0
ENDBLK
  5
19
330
17
100
AcDbEntity
  8
0
100
AcDbBlockEnd
  0
BLOCK
  5
1C
330
1B
100
AcDbEntity
  8
0
100
AcDbBlockBegin
  2
*Paper_Space
 70
0
 10
0.0
 20
0.0
 30
0.0
  3
*Paper_Space
  1

  0
ENDBLK
  5
1D
330
1B
100
AcDbEntity
  8
0
100
AcDbBlockEnd
  0
ENDSEC
  0
SECTION
  2
ENTITIES
  0
LWPOLYLINE
  5
2F
330
17
100
AcDbEntity
  8
BODY_OUTLINE
100
AcDbPolyline
 90
669
 70
1
 10
2.540000000008149
 20
162.55999999999767
 10
10.160000000003492
 20
162.55999999999767
 10
35.84222222222161
 20
178.36444444443623
 10
35.56000000000495
 20
177.8000000000029
 10
33.020000000004075
 20
175.25999999999476
 10
30.480000000010477
 20
172.72000000000116
 10
30.480000000010477
 20
167.63999999999942
 10
27.940000000009604
 20
165.10000000000582
 10
27.940000000009604
 20
160.02000000000407
 10
27.940000000009604
 20
157.47999999999593
 10
27.940000000009604
 20
154.94000000000233
 10
25.400000000001455
 20
149.86000000000058
 10
25.400000000001455
 20
147.32000000000698
 10
25.400000000001455
 20
144.77999999999884
 10
25.400000000001455
 20
142.2399999999907
 10
25.400000000001455
 20
139.6999999999971
 10
25.400000000001455
 20
137.1600000000035
 10
25.400000000001455
 20
134.6200000000099
 10
25.400000000001455
 20
132.08000000000175
 10
25.400000000001455
 20
129.5399999999936
 10
25.400000000001455
 20
127.0
 10
25.400000000001455
 20
124.4600000000064
 10
25.400000000001455
 20
121.91999999999825
 10
25.400000000001455
 20
119.3799999999901
 10
27.940000000009604
 20
114.30000000000291
 10
27.940000000009604
 20
111.75999999999476
 10
27.940000000009604
 20
109.22000000000116
 10
27.940000000009604
 20
104.13999999999942
 10
30.480000000010477
 20
101.60000000000582
 10
30.480000000010477
 20
96.52000000000407
 10
33.020000000004075
 20
93.97999999999593
 10
35.56000000000495
 20
91.44000000000233
 10
38.10000000000582
 20
86.36000000000058
 10
38.10000000000582
 20
83.82000000000698
 10
40.64000000001397
 20
83.82000000000698
 10
40.64000000001397
 20
81.27999999999884
 10
43.18000000000757
 20
78.73999999999069
 10
45.72000000000844
 20
78.73999999999069
 10
45.72000000000844
 20
76.19999999999709
 10
48.26000000000204
 20
76.19999999999709
 10
50.80000000000291
 20
73.66000000000349
 10
53.34000000001106
 20
73.66000000000349
 10
53.34000000001106
 20
71.1200000000099
 10
55.88000000001193
 20
71.1200000000099
 10
58.42000000000553
 20
68.58000000000175
 10
60.9600000000064
 20
68.58000000000175
 10
63.5
 20
68.58000000000175
 10
63.5
 20
66.0399999999936
 10
66.04000000000815
 20
66.0399999999936
 10
68.58000000000902
 20
66.0399999999936
 10
71.1200000000099
 20
66.0399999999936
 10
73.66000000000349
 20
66.0399999999936
 10
76.20000000000437
 20
63.5
 10
78.74000000001251
 20
63.5
 10
81.28000000000611
 20
63.5
 10
83.82000000000698
 20
63.5
 10
86.36000000000786
 20
63.5
 10
88.90000000000146
 20
63.5
 10
91.4400000000096
 20
63.5
 10
93.98000000001048
 20
63.5
 10
96.52000000000407
 20
66.0399999999936
 10
99.06000000000495
 20
66.0399999999936
 10
101.60000000000582
 20
66.0399999999936
 10
104.14000000001397
 20
66.0399999999936
 10
106.68000000000757
 20
66.0399999999936
 10
109.22000000000844
 20
66.0399999999936
 10
111.76000000000204
 20
66.0399999999936
 10
114.30000000000291
 20
66.0399999999936
 10
116.84000000001106
 20
66.0399999999936
 10
119.38000000001193
 20
66.0399999999936
 10
124.4600000000064
 20
66.0399999999936
 10
127.0
 20
66.0399999999936
 10
129.54000000000815
 20
63.5
 10
132.08000000000902
 20
63.5
 10
137.1600000000035
 20
63.5
 10
139.70000000000437
 20
63.5
 10
142.24000000001251
 20
60.9600000000064
 10
144.7800000000061
 20
60.9600000000064
 10
147.32000000000698
 20
60.9600000000064
 10
152.40000000000146
 20
58.419999999998254
 10
154.9400000000096
 20
58.419999999998254
 10
157.48000000001048
 20
58.419999999998254
 10
160.02000000000407
 20
55.879999999990105
 10
162.56000000000495
 20
55.879999999990105
 10
165.10000000000582
 20
53.33999999999651
 10
170.18000000000757
 20
53.33999999999651
 10
172.72000000000844
 20
50.80000000000291
 10
175.26000000000204
 20
50.80000000000291
 10
177.8000000000029
 20
48.25999999999476
 10
180.34000000001106
 20
48.25999999999476
 10
182.88000000001193
 20
48.25999999999476
 10
185.42000000000553
 20
45.720000000001164
 10
187.9600000000064
 20
45.720000000001164
 10
190.5
 20
43.179999999993015
 10
193.04000000000815
 20
43.179999999993015
 10
195.58000000000902
 20
40.63999999999942
 10
198.1200000000099
 20
40.63999999999942
 10
200.6600000000035
 20
38.10000000000582
 10
203.20000000000437
 20
38.10000000000582
 10
205.74000000001251
 20
38.10000000000582
 10
205.74000000001251
 20
35.55999999999767
 10
208.2800000000061
 20
35.55999999999767
 10
210.82000000000698
 20
35.55999999999767
 10
215.90000000000146
 20
33.020000000004075
 10
218.4400000000096
 20
33.020000000004075
 10
220.98000000001048
 20
30.479999999995925
 10
226.06000000000495
 20
27.94000000000233
 10
228.60000000000582
 20
27.94000000000233
 10
231.14000000001397
 20
27.94000000000233
 10
236.22000000000844
 20
25.39999999999418
 10
238.76000000000204
 20
25.39999999999418
 10
243.84000000001106
 20
22.860000000000582
 10
246.38000000001193
 20
22.860000000000582
 10
251.4600000000064
 20
22.860000000000582
 10
254.0
 20
20.320000000006985
 10
256.54000000000815
 20
20.320000000006985
 10
261.6200000000099
 20
20.320000000006985
 10
264.1600000000035
 20
20.320000000006985
 10
269.2400000000125
 20
17.779999999998836
 10
271.7800000000061
 20
17.779999999998836
 10
276.86000000000786
 20
17.779999999998836
 10
279.40000000000146
 20
17.779999999998836
 10
281.9400000000096
 20
17.779999999998836
 10
284.4800000000105
 20
17.779999999998836
 10
287.0200000000041
 20
17.779999999998836
 10
287.0200000000041
 20
20.320000000006985
 10
289.56000000000495
 20
20.320000000006985
 10
292.1000000000058
 20
20.320000000006985
 10
294.64000000001397
 20
20.320000000006985
 10
297.18000000000757
 20
20.320000000006985
 10
299.72000000000844
 20
20.320000000006985
 10
302.26000000000204
 20
22.860000000000582
 10
304.8000000000029
 20
22.860000000000582
 10
307.34000000001106
 20
22.860000000000582
 10
309.88000000001193
 20
25.39999999999418
 10
312.42000000000553
 20
25.39999999999418
 10
314.9600000000064
 20
25.39999999999418
 10
317.5
 20
27.94000000000233
 10
320.04000000000815
 20
27.94000000000233
 10
322.580000000009
 20
30.479999999995925
 10
325.1200000000099
 20
33.020000000004075
 10
327.6600000000035
 20
33.020000000004075
 10
330.20000000000437
 20
35.55999999999767
 10
332.7400000000125
 20
38.10000000000582
 10
335.2800000000061
 20
38.10000000000582
 10
335.2800000000061
 20
40.63999999999942
 10
337.820000000007
 20
40.63999999999942
 10
337.820000000007
 20
43.179999999993015
 10
340.36000000000786
 20
43.179999999993015
 10
342.90000000000146
 20
45.720000000001164
 10
345.4400000000096
 20
48.25999999999476
 10
345.4400000000096
 20
50.80000000000291
 10
347.9800000000105
 20
50.80000000000291
 10
347.9800000000105
 20
53.33999999999651
 10
350.5200000000041
 20
53.33999999999651
 10
350.5200000000041
 20
55.879999999990105
 10
350.5200000000041
 20
58.419999999998254
 10
353.06000000000495
 20
58.419999999998254
 10
353.06000000000495
 20
60.9600000000064
 10
355.6000000000058
 20
63.5
 10
355.6000000000058
 20
66.0399999999936
 10
358.14000000001397
 20
66.0399999999936
 10
358.14000000001397
 20
68.58000000000175
 10
358.14000000001397
 20
71.1200000000099
 10
360.68000000000757
 20
73.66000000000349
 10
360.68000000000757
 20
76.19999999999709
 10
360.68000000000757
 20
78.73999999999069
 10
363.22000000000844
 20
78.73999999999069
 10
363.22000000000844
 20
81.27999999999884
 10
363.22000000000844
 20
83.82000000000698
 10
365.76000000000204
 20
86.36000000000058
 10
365.76000000000204
 20
88.89999999999418
 10
365.76000000000204
 20
91.44000000000233
 10
365.76000000000204
 20
96.52000000000407
 10
368.3000000000029
 20
99.05999999999767
 10
368.3000000000029
 20
101.60000000000582
 10
368.3000000000029
 20
106.67999999999302
 10
368.3000000000029
 20
109.22000000000116
 10
368.3000000000029
 20
111.75999999999476
 10
370.84000000001106
 20
116.83999999999651
 10
370.84000000001106
 20
119.3799999999901
 10
370.84000000001106
 20
121.91999999999825
 10
370.84000000001106
 20
124.4600000000064
 10
370.84000000001106
 20
127.0
 10
370.84000000001106
 20
129.5399999999936
 10
370.84000000001106
 20
132.08000000000175
 10
370.84000000001106
 20
134.6200000000099
 10
370.84000000001106
 20
137.1600000000035
 10
370.84000000001106
 20
139.6999999999971
 10
370.84000000001106
 20
142.2399999999907
 10
370.84000000001106
 20
144.77999999999884
 10
370.84000000001106
 20
147.32000000000698
 10
370.84000000001106
 20
149.86000000000058
 10
370.84000000001106
 20
152.39999999999418
 10
368.3000000000029
 20
157.47999999999593
 10
368.3000000000029
 20
160.02000000000407
 10
368.3000000000029
 20
162.55999999999767
 10
368.3000000000029
 20
167.63999999999942
 10
368.3000000000029
 20
170.17999999999302
 10
365.76000000000204
 20
172.72000000000116
 10
365.76000000000204
 20
177.8000000000029
 10
365.76000000000204
 20
180.3399999999965
 10
365.76000000000204
 20
182.8799999999901
 10
363.22000000000844
 20
185.41999999999825
 10
363.22000000000844
 20
187.9600000000064
 10
363.22000000000844
 20
190.5
 10
360.68000000000757
 20
190.5
 10
360.68000000000757
 20
193.0399999999936
 10
360.68000000000757
 20
195.58000000000175
 10
358.14000000001397
 20
198.1200000000099
 10
358.14000000001397
 20
200.6600000000035
 10
358.14000000001397
 20
203.1999999999971
 10
355.6000000000058
 20
203.1999999999971
 10
355.6000000000058
 20
205.7399999999907
 10
353.06000000000495
 20
208.27999999999884
 10
353.06000000000495
 20
210.82000000000698
 10
350.5200000000041
 20
210.82000000000698
 10
350.5200000000041
 20
213.36000000000058
 10
350.5200000000041
 20
215.89999999999418
 10
347.9800000000105
 20
215.89999999999418
 10
347.9800000000105
 20
218.44000000000233
 10
345.4400000000096
 20
218.44000000000233
 10
345.4400000000096
 20
220.97999999999593
 10
342.90000000000146
 20
223.52000000000407
 10
340.36000000000786
 20
226.05999999999767
 10
337.820000000007
 20
226.05999999999767
 10
337.820000000007
 20
228.60000000000582
 10
335.2800000000061
 20
228.60000000000582
 10
335.2800000000061
 20
231.13999999999942
 10
332.7400000000125
 20
231.13999999999942
 10
330.20000000000437
 20
233.67999999999302
 10
327.6600000000035
 20
236.22000000000116
 10
325.1200000000099
 20
238.75999999999476
 10
322.580000000009
 20
238.75999999999476
 10
320.04000000000815
 20
241.3000000000029
 10
317.5
 20
241.3000000000029
 10
314.9600000000064
 20
243.8399999999965
 10
312.42000000000553
 20
243.8399999999965
 10
309.88000000001193
 20
243.8399999999965
 10
307.34000000001106
 20
246.3799999999901
 10
304.8000000000029
 20
246.3799999999901
 10
302.26000000000204
 20
246.3799999999901
 10
299.72000000000844
 20
248.91999999999825
 10
297.18000000000757
 20
248.91999999999825
 10
294.64000000001397
 20
248.91999999999825
 10
292.1000000000058
 20
248.91999999999825
 10
289.56000000000495
 20
248.91999999999825
 10
287.0200000000041
 20
248.91999999999825
 10
287.0200000000041
 20
251.4600000000064
 10
284.4800000000105
 20
251.4600000000064
 10
281.9400000000096
 20
251.4600000000064
 10
279.40000000000146
 20
251.4600000000064
 10
276.86000000000786
 20
251.4600000000064
 10
271.7800000000061
 20
251.4600000000064
 10
269.2400000000125
 20
251.4600000000064
 10
264.1600000000035
 20
248.91999999999825
 10
261.6200000000099
 20
248.91999999999825
 10
256.54000000000815
 20
248.91999999999825
 10
254.0
 20
248.91999999999825
 10
251.4600000000064
 20
246.3799999999901
 10
246.38000000001193
 20
246.3799999999901
 10
243.84000000001106
 20
246.3799999999901
 10
238.76000000000204
 20
243.8399999999965
 10
236.22000000000844
 20
243.8399999999965
 10
231.14000000001397
 20
241.3000000000029
 10
228.60000000000582
 20
241.3000000000029
 10
226.06000000000495
 20
241.3000000000029
 10
220.98000000001048
 20
238.75999999999476
 10
218.4400000000096
 20
236.22000000000116
 10
215.90000000000146
 20
236.22000000000116
 10
210.82000000000698
 20
233.67999999999302
 10
208.2800000000061
 20
233.67999999999302
 10
205.74000000001251
 20
233.67999999999302
 10
205.74000000001251
 20
231.13999999999942
 10
203.20000000000437
 20
231.13999999999942
 10
200.6600000000035
 20
231.13999999999942
 10
198.1200000000099
 20
228.60000000000582
 10
195.58000000000902
 20
228.60000000000582
 10
193.04000000000815
 20
226.05999999999767
 10
190.5
 20
226.05999999999767
 10
187.9600000000064
 20
223.52000000000407
 10
185.42000000000553
 20
223.52000000000407
 10
182.88000000001193
 20
220.97999999999593
 10
180.34000000001106
 20
220.97999999999593
 10
177.8000000000029
 20
220.97999999999593
 10
175.26000000000204
 20
218.44000000000233
 10
172.72000000000844
 20
218.44000000000233
 10
170.18000000000757
 20
215.89999999999418
 10
165.10000000000582
 20
215.89999999999418
 10
162.56000000000495
 20
213.36000000000058
 10
160.02000000000407
 20
213.36000000000058
 10
157.48000000001048
 20
210.82000000000698
 10
154.9400000000096
 20
210.82000000000698
 10
152.40000000000146
 20
210.82000000000698
 10
147.32000000000698
 20
208.27999999999884
 10
144.7800000000061
 20
208.27999999999884
 10
142.24000000001251
 20
208.27999999999884
 10
139.70000000000437
 20
205.7399999999907
 10
137.1600000000035
 20
205.7399999999907
 10
132.08000000000902
 20
205.7399999999907
 10
129.54000000000815
 20
205.7399999999907
 10
127.0
 20
205.7399999999907
 10
124.4600000000064
 20
203.1999999999971
 10
119.38000000001193
 20
203.1999999999971
 10
116.84000000001106
 20
203.1999999999971
 10
114.30000000000291
 20
203.1999999999971
 10
111.76000000000204
 20
203.1999999999971
 10
109.22000000000844
 20
203.1999999999971
 10
106.68000000000757
 20
203.1999999999971
 10
104.14000000001397
 20
203.1999999999971
 10
101.60000000000582
 20
203.1999999999971
 10
99.06000000000495
 20
203.1999999999971
 10
96.52000000000407
 20
203.1999999999971
 10
93.98000000001048
 20
205.7399999999907
 10
91.4400000000096
 20
205.7399999999907
 10
88.90000000000146
 20
205.7399999999907
 10
86.36000000000786
 20
205.7399999999907
 10
83.82000000000698
 20
205.7399999999907
 10
81.28000000000611
 20
205.7399999999907
 10
78.74000000001251
 20
205.7399999999907
 10
76.20000000000437
 20
205.7399999999907
 10
73.66000000000349
 20
203.1999999999971
 10
71.1200000000099
 20
203.1999999999971
 10
68.58000000000902
 20
203.1999999999971
 10
66.04000000000815
 20
203.1999999999971
 10
63.5
 20
203.1999999999971
 10
63.5
 20
200.6600000000035
 10
60.9600000000064
 20
200.6600000000035
 10
58.42000000000553
 20
200.6600000000035
 10
55.88000000001193
 20
198.1200000000099
 10
53.34000000001106
 20
198.1200000000099
 10
53.34000000001106
 20
195.58000000000175
 10
50.80000000000291
 20
195.58000000000175
 10
48.26000000000204
 20
193.0399999999936
 10
45.72000000000844
 20
193.0399999999936
 10
45.72000000000844
 20
190.5
 10
43.18000000000757
 20
190.5
 10
41.27500000001601
 20
188.59500000000116
 10
33.020000000004075
 20
213.36000000000058
 10
35.56000000000495
 20
213.36000000000058
 10
35.56000000000495
 20
215.89999999999418
 10
38.10000000000582
 20
215.89999999999418
 10
40.64000000001397
 20
215.89999999999418
 10
43.18000000000757
 20
218.44000000000233
 10
45.72000000000844
 20
218.44000000000233
 10
48.26000000000204
 20
218.44000000000233
 10
50.80000000000291
 20
218.44000000000233
 10
53.34000000001106
 20
218.44000000000233
 10
55.88000000001193
 20
218.44000000000233
 10
55.88000000001193
 20
220.97999999999593
 10
58.42000000000553
 20
220.97999999999593
 10
60.9600000000064
 20
220.97999999999593
 10
63.5
 20
220.97999999999593
 10
66.04000000000815
 20
220.97999999999593
 10
68.58000000000902
 20
220.97999999999593
 10
71.1200000000099
 20
218.44000000000233
 10
73.66000000000349
 20
218.44000000000233
 10
76.20000000000437
 20
218.44000000000233
 10
78.74000000001251
 20
218.44000000000233
 10
81.28000000000611
 20
218.44000000000233
 10
83.82000000000698
 20
218.44000000000233
 10
86.36000000000786
 20
218.44000000000233
 10
86.36000000000786
 20
215.89999999999418
 10
88.90000000000146
 20
215.89999999999418
 10
91.4400000000096
 20
215.89999999999418
 10
93.98000000001048
 20
215.89999999999418
 10
96.52000000000407
 20
215.89999999999418
 10
99.06000000000495
 20
215.89999999999418
 10
99.06000000000495
 20
213.36000000000058
 10
101.60000000000582
 20
213.36000000000058
 10
104.14000000001397
 20
213.36000000000058
 10
106.68000000000757
 20
213.36000000000058
 10
111.76000000000204
 20
213.36000000000058
 10
114.30000000000291
 20
213.36000000000058
 10
116.84000000001106
 20
213.36000000000058
 10
121.92000000000553
 20
213.36000000000058
 10
124.4600000000064
 20
213.36000000000058
 10
127.0
 20
213.36000000000058
 10
129.54000000000815
 20
215.89999999999418
 10
134.6200000000099
 20
215.89999999999418
 10
137.1600000000035
 20
215.89999999999418
 10
139.70000000000437
 20
215.89999999999418
 10
142.24000000001251
 20
218.44000000000233
 10
147.32000000000698
 20
218.44000000000233
 10
149.86000000000786
 20
218.44000000000233
 10
152.40000000000146
 20
220.97999999999593
 10
154.9400000000096
 20
220.97999999999593
 10
160.02000000000407
 20
223.52000000000407
 10
162.56000000000495
 20
223.52000000000407
 10
165.10000000000582
 20
226.05999999999767
 10
167.64000000001397
 20
226.05999999999767
 10
170.18000000000757
 20
228.60000000000582
 10
172.72000000000844
 20
228.60000000000582
 10
175.26000000000204
 20
231.13999999999942
 10
177.8000000000029
 20
231.13999999999942
 10
177.8000000000029
 20
233.67999999999302
 10
180.34000000001106
 20
233.67999999999302
 10
182.88000000001193
 20
233.67999999999302
 10
185.42000000000553
 20
236.22000000000116
 10
187.9600000000064
 20
236.22000000000116
 10
187.9600000000064
 20
238.75999999999476
 10
190.5
 20
238.75999999999476
 10
193.04000000000815
 20
241.3000000000029
 10
195.58000000000902
 20
241.3000000000029
 10
198.1200000000099
 20
243.8399999999965
 10
203.20000000000437
 20
246.3799999999901
 10
205.74000000001251
 20
246.3799999999901
 10
208.2800000000061
 20
248.91999999999825
 10
210.82000000000698
 20
251.4600000000064
 10
213.36000000000786
 20
251.4600000000064
 10
218.4400000000096
 20
254.0
 10
220.98000000001048
 20
254.0
 10
223.52000000000407
 20
256.5399999999936
 10
226.06000000000495
 20
256.5399999999936
 10
228.60000000000582
 20
259.08000000000175
 10
233.68000000000757
 20
259.08000000000175
 10
236.22000000000844
 20
261.6200000000099
 10
238.76000000000204
 20
261.6200000000099
 10
241.3000000000029
 20
264.1600000000035
 10
246.38000000001193
 20
264.1600000000035
 10
248.92000000000553
 20
264.1600000000035
 10
251.4600000000064
 20
266.6999999999971
 10
256.54000000000815
 20
266.6999999999971
 10
259.080000000009
 20
266.6999999999971
 10
261.6200000000099
 20
269.2399999999907
 10
266.70000000000437
 20
269.2399999999907
 10
269.2400000000125
 20
269.2399999999907
 10
274.320000000007
 20
269.2399999999907
 10
276.86000000000786
 20
269.2399999999907
 10
279.40000000000146
 20
269.2399999999907
 10
284.4800000000105
 20
269.2399999999907
 10
287.0200000000041
 20
269.2399999999907
 10
289.56000000000495
 20
269.2399999999907
 10
294.64000000001397
 20
269.2399999999907
 10
297.18000000000757
 20
269.2399999999907
 10
299.72000000000844
 20
266.6999999999971
 10
304.8000000000029
 20
266.6999999999971
 10
307.34000000001106
 20
266.6999999999971
 10
309.88000000001193
 20
264.1600000000035
 10
314.9600000000064
 20
264.1600000000035
 10
317.5
 20
261.6200000000099
 10
320.04000000000815
 20
261.6200000000099
 10
325.1200000000099
 20
259.08000000000175
 10
330.20000000000437
 20
256.5399999999936
 10
332.7400000000125
 20
254.0
 10
337.820000000007
 20
251.4600000000064
 10
340.36000000000786
 20
248.91999999999825
 10
342.90000000000146
 20
246.3799999999901
 10
345.4400000000096
 20
241.3000000000029
 10
350.5200000000041
 20
238.75999999999476
 10
353.06000000000495
 20
236.22000000000116
 10
355.6000000000058
 20
231.13999999999942
 10
358.14000000001397
 20
228.60000000000582
 10
360.68000000000757
 20
223.52000000000407
 10
363.22000000000844
 20
220.97999999999593
 10
365.76000000000204
 20
215.89999999999418
 10
368.3000000000029
 20
213.36000000000058
 10
370.84000000001106
 20
208.27999999999884
 10
370.84000000001106
 20
203.1999999999971
 10
373.38000000001193
 20
200.6600000000035
 10
373.38000000001193
 20
198.1200000000099
 10
375.92000000000553
 20
195.58000000000175
 10
375.92000000000553
 20
193.0399999999936
 10
375.92000000000553
 20
190.5
 10
375.92000000000553
 20
187.9600000000064
 10
378.4600000000064
 20
187.9600000000064
 10
378.4600000000064
 20
185.41999999999825
 10
378.4600000000064
 20
182.8799999999901
 10
378.4600000000064
 20
180.3399999999965
 10
381.0
 20
177.8000000000029
 10
381.0
 20
175.25999999999476
 10
381.0
 20
172.72000000000116
 10
381.0
 20
170.17999999999302
 10
381.0
 20
167.63999999999942
 10
381.0
 20
165.10000000000582
 10
381.0
 20
162.55999999999767
 10
383.54000000000815
 20
160.02000000000407
 10
383.54000000000815
 20
157.47999999999593
 10
383.54000000000815
 20
154.94000000000233
 10
383.54000000000815
 20
152.39999999999418
 10
383.54000000000815
 20
149.86000000000058
 10
383.54000000000815
 20
147.32000000000698
 10
383.54000000000815
 20
144.77999999999884
 10
383.54000000000815
 20
142.2399999999907
 10
383.54000000000815
 20
139.6999999999971
 10
383.54000000000815
 20
137.1600000000035
 10
383.54000000000815
 20
134.6200000000099
 10
383.54000000000815
 20
132.08000000000175
 10
383.54000000000815
 20
129.5399999999936
 10
383.54000000000815
 20
127.0
 10
383.54000000000815
 20
124.4600000000064
 10
383.54000000000815
 20
121.91999999999825
 10
383.54000000000815
 20
119.3799999999901
 10
383.54000000000815
 20
116.83999999999651
 10
383.54000000000815
 20
114.30000000000291
 10
383.54000000000815
 20
111.75999999999476
 10
383.54000000000815
 20
109.22000000000116
 10
381.0
 20
106.67999999999302
 10
381.0
 20
104.13999999999942
 10
381.0
 20
101.60000000000582
 10
381.0
 20
99.05999999999767
 10
381.0
 20
96.52000000000407
 10
381.0
 20
93.97999999999593
 10
381.0
 20
91.44000000000233
 10
378.4600000000064
 20
88.89999999999418
 10
378.4600000000064
 20
86.36000000000058
 10
378.4600000000064
 20
83.82000000000698
 10
378.4600000000064
 20
81.27999999999884
 10
375.92000000000553
 20
81.27999999999884
 10
375.92000000000553
 20
78.73999999999069
 10
375.92000000000553
 20
76.19999999999709
 10
375.92000000000553
 20
73.66000000000349
 10
373.38000000001193
 20
71.1200000000099
 10
373.38000000001193
 20
68.58000000000175
 10
370.84000000001106
 20
66.0399999999936
 10
370.84000000001106
 20
60.9600000000064
 10
368.3000000000029
 20
55.879999999990105
 10
365.76000000000204
 20
53.33999999999651
 10
363.22000000000844
 20
48.25999999999476
 10
360.68000000000757
 20
45.720000000001164
 10
358.14000000001397
 20
40.63999999999942
 10
355.6000000000058
 20
38.10000000000582
 10
353.06000000000495
 20
33.020000000004075
 10
350.5200000000041
 20
30.479999999995925
 10
345.4400000000096
 20
27.94000000000233
 10
342.90000000000146
 20
22.860000000000582
 10
340.36000000000786
 20
20.320000000006985
 10
337.820000000007
 20
17.779999999998836
 10
332.7400000000125
 20
15.239999999990687
 10
330.20000000000437
 20
12.69999999999709
 10
325.1200000000099
 20
10.160000000003492
 10
320.04000000000815
 20
7.620000000009895
 10
317.5
 20
7.620000000009895
 10
314.9600000000064
 20
5.080000000001746
 10
309.88000000001193
 20
5.080000000001746
 10
307.34000000001106
 20
2.539999999993597
 10
304.8000000000029
 20
2.539999999993597
 10
299.72000000000844
 20
2.539999999993597
 10
297.18000000000757
 20
0.0
 10
294.64000000001397
 20
0.0
 10
289.56000000000495
 20
0.0
 10
287.0200000000041
 20
0.0
 10
284.4800000000105
 20
0.0
 10
279.40000000000146
 20
0.0
 10
276.86000000000786
 20
0.0
 10
274.320000000007
 20
0.0
 10
269.2400000000125
 20
0.0
 10
266.70000000000437
 20
0.0
 10
261.6200000000099
 20
0.0
 10
259.080000000009
 20
2.539999999993597
 10
256.54000000000815
 20
2.539999999993597
 10
251.4600000000064
 20
2.539999999993597
 10
248.92000000000553
 20
5.080000000001746
 10
246.38000000001193
 20
5.080000000001746
 10
241.3000000000029
 20
5.080000000001746
 10
238.76000000000204
 20
7.620000000009895
 10
236.22000000000844
 20
7.620000000009895
 10
233.68000000000757
 20
10.160000000003492
 10
228.60000000000582
 20
10.160000000003492
 10
226.06000000000495
 20
12.69999999999709
 10
223.52000000000407
 20
12.69999999999709
 10
220.98000000001048
 20
15.239999999990687
 10
218.4400000000096
 20
15.239999999990687
 10
213.36000000000786
 20
17.779999999998836
 10
210.82000000000698
 20
17.779999999998836
 10
208.2800000000061
 20
20.320000000006985
 10
205.74000000001251
 20
22.860000000000582
 10
203.20000000000437
 20
22.860000000000582
 10
198.1200000000099
 20
25.39999999999418
 10
195.58000000000902
 20
27.94000000000233
 10
193.04000000000815
 20
27.94000000000233
 10
190.5
 20
30.479999999995925
 10
187.9600000000064
 20
30.479999999995925
 10
187.9600000000064
 20
33.020000000004075
 10
185.42000000000553
 20
33.020000000004075
 10
182.88000000001193
 20
35.55999999999767
 10
180.34000000001106
 20
35.55999999999767
 10
177.8000000000029
 20
38.10000000000582
 10
175.26000000000204
 20
38.10000000000582
 10
172.72000000000844
 20
40.63999999999942
 10
170.18000000000757
 20
40.63999999999942
 10
167.64000000001397
 20
43.179999999993015
 10
165.10000000000582
 20
43.179999999993015
 10
162.56000000000495
 20
45.720000000001164
 10
160.02000000000407
 20
45.720000000001164
 10
154.9400000000096
 20
48.25999999999476
 10
152.40000000000146
 20
48.25999999999476
 10
149.86000000000786
 20
50.80000000000291
 10
147.32000000000698
 20
50.80000000000291
 10
142.24000000001251
 20
50.80000000000291
 10
139.70000000000437
 20
53.33999999999651
 10
137.1600000000035
 20
53.33999999999651
 10
134.6200000000099
 20
53.33999999999651
 10
129.54000000000815
 20
55.879999999990105
 10
127.0
 20
55.879999999990105
 10
124.4600000000064
 20
55.879999999990105
 10
121.92000000000553
 20
55.879999999990105
 10
116.84000000001106
 20
55.879999999990105
 10
114.30000000000291
 20
55.879999999990105
 10
111.76000000000204
 20
55.879999999990105
 10
106.68000000000757
 20
55.879999999990105
 10
104.14000000001397
 20
55.879999999990105
 10
101.60000000000582
 20
55.879999999990105
 10
99.06000000000495
 20
55.879999999990105
 10
99.06000000000495
 20
53.33999999999651
 10
96.52000000000407
 20
53.33999999999651
 10
93.98000000001048
 20
53.33999999999651
 10
91.4400000000096
 20
53.33999999999651
 10
88.90000000000146
 20
53.33999999999651
 10
86.36000000000786
 20
53.33999999999651
 10
83.82000000000698
 20
50.80000000000291
 10
81.28000000000611
 20
50.80000000000291
 10
78.74000000001251
 20
50.80000000000291
 10
76.20000000000437
 20
50.80000000000291
 10
73.66000000000349
 20
50.80000000000291
 10
71.1200000000099
 20
50.80000000000291
 10
68.58000000000902
 20
50.80000000000291
 10
66.04000000000815
 20
48.25999999999476
 10
63.5
 20
48.25999999999476
 10
60.9600000000064
 20
48.25999999999476
 10
58.42000000000553
 20
48.25999999999476
 10
55.88000000001193
 20
48.25999999999476
 10
55.88000000001193
 20
50.80000000000291
 10
53.34000000001106
 20
50.80000000000291
 10
50.80000000000291
 20
50.80000000000291
 10
48.26000000000204
 20
50.80000000000291
 10
45.72000000000844
 20
50.80000000000291
 10
43.18000000000757
 20
50.80000000000291
 10
40.64000000001397
 20
53.33999999999651
 10
38.10000000000582
 20
53.33999999999651
 10
35.56000000000495
 20
53.33999999999651
 10
35.56000000000495
 20
55.879999999990105
 10
33.020000000004075
 20
55.879999999990105
 10
30.480000000010477
 20
55.879999999990105
 10
30.480000000010477
 20
58.419999999998254
 10
27.940000000009604
 20
58.419999999998254
 10
25.400000000001455
 20
60.9600000000064
 10
22.860000000007858
 20
63.5
 10
20.320000000006985
 20
66.0399999999936
 10
17.780000000006112
 20
68.58000000000175
 10
17.780000000006112
 20
71.1200000000099
 10
15.240000000012515
 20
71.1200000000099
 10
15.240000000012515
 20
73.66000000000349
 10
12.700000000004366
 20
73.66000000000349
 10
12.700000000004366
 20
76.19999999999709
 10
10.160000000003492
 20
81.27999999999884
 10
7.620000000009895
 20
83.82000000000698
 10
5.080000000009022
 20
88.89999999999418
 10
5.080000000009022
 20
93.97999999999593
 10
2.540000000008149
 20
99.05999999999767
 10
2.540000000008149
 20
101.60000000000582
 10
2.540000000008149
 20
106.67999999999302
 10
0.0
 20
111.75999999999476
 10
0.0
 20
114.30000000000291
 10
0.0
 20
119.3799999999901
 10
0.0
 20
121.91999999999825
 10
0.0
 20
124.4600000000064
 10
0.0
 20
127.0
 10
0.0
 20
129.5399999999936
 10
0.0
 20
132.08000000000175
 10
0.0
 20
134.6200000000099
 10
0.0
 20
137.1600000000035
 10
0.0
 20
139.6999999999971
 10
0.0
 20
142.2399999999907
 10
0.0
 20
144.77999999999884
 10
0.0
 20
147.32000000000698
 10
0.0
 20
149.86000000000058
 10
0.0
 20
154.94000000000233
 10
0.0
 20
157.47999999999593
  0
ENDSEC
  0
SECTION
  2
OBJECTS
  0
DICTIONARY
  5
A
330
0
100
AcDbDictionary
281
1
  3
ACAD_COLOR
350
B
  3
ACAD_GROUP
350
C
  3
ACAD_LAYOUT
350
D
  3
ACAD_MATERIAL
350
E
  3
ACAD_MLEADERSTYLE
350
F
  3
ACAD_MLINESTYLE
350
10
  3
ACAD_PLOTSETTINGS
350
11
  3
ACAD_PLOTSTYLENAME
350
12
  3
ACAD_SCALELIST
350
14
  3
ACAD_TABLESTYLE
350
15
  3
ACAD_VISUALSTYLE
350
16
  3
EZDXF_META
350
2D
  0
DICTIONARY
  5
B
330
A
100
AcDbDictionary
281
1
  0
DICTIONARY
  5
C
330
A
100
AcDbDictionary
281
1
  0
DICTIONARY
  5
D
330
A
100
AcDbDictionary
281
1
  3
Model
350
1A
  3
Layout1
350
1E
  0
DICTIONARY
  5
E
330
A
100
AcDbDictionary
281
1
  3
ByBlock
350
1F
  3
ByLayer
350
20
  3
Global
350
21
  0
DICTIONARY
  5
F
330
A
100
AcDbDictionary
281
1
  3
Standard
350
2C
  0
DICTIONARY
  5
10
330
A
100
AcDbDictionary
281
1
  3
Standard
350
22
  0
DICTIONARY
  5
11
330
A
100
AcDbDictionary
281
1
  0
ACDBDICTIONARYWDFLT
  5
12
330
A
100
AcDbDictionary
281
1
  3
Normal
350
13
100
AcDbDictionaryWithDefault
340
13
  0
ACDBPLACEHOLDER
  5
13
330
12
  0
DICTIONARY
  5
14
330
A
100
AcDbDictionary
281
1
  0
DICTIONARY
  5
15
330
A
100
AcDbDictionary
281
1
  0
DICTIONARY
  5
16
330
A
100
AcDbDictionary
281
1
  0
LAYOUT
  5
1A
330
D
100
AcDbPlotSettings
  1

  4
A3
  6

 40
7.5
 41
20.0
 42
7.5
 43
20.0
 44
420.0
 45
297.0
 46
0.0
 47
0.0
 48
0.0
 49
0.0
140
0.0
141
0.0
142
1.0
143
1.0
 70
1024
 72
1
 73
0
 74
5
  7

 75
16
 76
0
 77
2
 78
300
147
1.0
148
0.0
149
0.0
100
AcDbLayout
  1
Model
 70
1
 71
0
 10
0.0
 20
0.0
 11
420.0
 21
297.0
 12
0.0
 22
0.0
 32
0.0
 14
1e+20
 24
1e+20
 34
1e+20
 15
-1e+20
 25
-1e+20
 35
-1e+20
146
0.0
 13
0.0
 23
0.0
 33
0.0
 16
1.0
 26
0.0
 36
0.0
 17
0.0
 27
1.0
 37
0.0
 76
1
330
17
  0
LAYOUT
  5
1E
330
D
100
AcDbPlotSettings
  1

  4
A3
  6

 40
7.5
 41
20.0
 42
7.5
 43
20.0
 44
420.0
 45
297.0
 46
0.0
 47
0.0
 48
0.0
 49
0.0
140
0.0
141
0.0
142
1.0
143
1.0
 70
0
 72
1
 73
0
 74
5
  7

 75
16
 76
0
 77
2
 78
300
147
1.0
148
0.0
149
0.0
100
AcDbLayout
  1
Layout1
 70
1
 71
1
 10
0.0
 20
0.0
 11
420.0
 21
297.0
 12
0.0
 22
0.0
 32
0.0
 14
1e+20
 24
1e+20
 34
1e+20
 15
-1e+20
 25
-1e+20
 35
-1e+20
146
0.0
 13
0.0
 23
0.0
 33
0.0
 16
1.0
 26
0.0
 36
0.0
 17
0.0
 27
1.0
 37
0.0
 76
1
330
1B
  0
MATERIAL
  5
1F
102
{ACAD_REACTORS
330
E
102
}
330
E
100
AcDbMaterial
  1
ByBlock
  2

 70
0
 40
1.0
 71
1
 41
1.0
 91
-1023410177
 42
1.0
 72
1
  3

 73
1
 74
1
 75
1
 44
0.5
 73
0
 45
1.0
 46
1.0
 77
1
  4

 78
1
 79
1
170
1
 48
1.0
171
1
  6

172
1
173
1
174
1
140
1.0
141
1.0
175
1
  7

176
1
177
1
178
1
143
1.0
179
1
  8

270
1
271
1
272
1
145
1.0
146
1.0
273
1
  9

274
1
275
1
276
1
 42
1.0
 72
1
  3

 73
1
 74
1
 75
1
 94
63
  0
MATERIAL
  5
20
102
{ACAD_REACTORS
330
E
102
}
330
E
100
AcDbMaterial
  1
ByLayer
  2

 70
0
 40
1.0
 71
1
 41
1.0
 91
-1023410177
 42
1.0
 72
1
  3

 73
1
 74
1
 75
1
 44
0.5
 73
0
 45
1.0
 46
1.0
 77
1
  4

 78
1
 79
1
170
1
 48
1.0
171
1
  6

172
1
173
1
174
1
140
1.0
141
1.0
175
1
  7

176
1
177
1
178
1
143
1.0
179
1
  8

270
1
271
1
272
1
145
1.0
146
1.0
273
1
  9

274
1
275
1
276
1
 42
1.0
 72
1
  3

 73
1
 74
1
 75
1
 94
63
  0
MATERIAL
  5
21
102
{ACAD_REACTORS
330
E
102
}
330
E
100
AcDbMaterial
  1
Global
  2

 70
0
 40
1.0
 71
1
 41
1.0
 91
-1023410177
 42
1.0
 72
1
  3

 73
1
 74
1
 75
1
 44
0.5
 73
0
 45
1.0
 46
1.0
 77
1
  4

 78
1
 79
1
170
1
 48
1.0
171
1
  6

172
1
173
1
174
1
140
1.0
141
1.0
175
1
  7

176
1
177
1
178
1
143
1.0
179
1
  8

270
1
271
1
272
1
145
1.0
146
1.0
273
1
  9

274
1
275
1
276
1
 42
1.0
 72
1
  3

 73
1
 74
1
 75
1
 94
63
  0
MLINESTYLE
  5
22
102
{ACAD_REACTORS
330
10
102
}
330
10
100
AcDbMlineStyle
  2
Standard
 70
0
  3

 62
256
 51
90.0
 52
90.0
 71
2
 49
0.5
 62
256
  6
BYLAYER
 49
-0.5
 62
256
  6
BYLAYER
  0
MLEADERSTYLE
  5
2C
102
{ACAD_REACTORS
330
F
102
}
330
F
100
AcDbMLeaderStyle
179
2
170
2
171
1
172
0
 90
2
 40
0.0
 41
0.0
173
1
 91
-1056964608
 92
-2
290
1
 42
2.0
291
1
 43
8.0
  3
Standard
 44
4.0
300

342
29
174
1
175
1
176
0
178
1
 93
-1056964608
 45
4.0
292
0
297
0
 46
4.0
 94
-1056964608
 47
1.0
 49
1.0
140
1.0
294
1
141
0.0
177
0
142
1.0
295
0
296
0
143
3.75
271
0
272
9
273
9
  0
DICTIONARY
  5
2D
330
A
100
AcDbDictionary
280
1
281
1
  3
CREATED_BY_EZDXF
350
2E
  3
WRITTEN_BY_EZDXF
350
32
  0
DICTIONARYVAR
  5
2E
330
2D
100
DictionaryVariables
280
0
  1
1.4.3 @ 2025-12-11T10:24:31.132215+00:00
  0
DICTIONARYVAR
  5
32
330
2D
100
DictionaryVariables
280
0
  1
1.4.3 @ 2025-12-11T10:24:31.137402+00:00
  0
ENDSEC
  0
EOF
