  0
SECTION
  2
HEADER
  9
$ACADVER
  1
AC1024
  9
$ACADMAINTVER
 70
6
  9
$DWGCODEPAGE
  3
ANSI_1252
  9
$LASTSAVEDBY
  1
ezdxf
  9
$INSBASE
 10
0.0
 20
0.0
 30
0.0
  9
$EXTMIN
 10
1e+20
 20
1e+20
 30
1e+20
  9
$EXTMAX
 10
-1e+20
 20
-1e+20
 30
-1e+20
  9
$LIMMIN
 10
0.0
 20
0.0
  9
$LIMMAX
 10
420.0
 20
297.0
  9
$ORTHOMODE
 70
0
  9
$REGENMODE
 70
1
  9
$FILLMODE
 70
1
  9
$QTEXTMODE
 70
0
  9
$MIRRTEXT
 70
1
  9
$LTSCALE
 40
1.0
  9
$ATTMODE
 70
1
  9
$TEXTSIZE
 40
2.5
  9
$TRACEWID
 40
1.0
  9
$TEXTSTYLE
  7
Standard
  9
$CLAYER
  8
0
  9
$CELTYPE
  6
ByLayer
  9
$CECOLOR
 62
256
  9
$CELTSCALE
 40
1.0
  9
$DISPSILH
 70
0
  9
$DIMSCALE
 40
1.0
  9
$DIMASZ
 40
2.5
  9
$DIMEXO
 40
0.625
  9
$DIMDLI
 40
3.75
  9
$DIMRND
 40
0.0
  9
$DIMDLE
 40
0.0
  9
$DIMEXE
 40
1.25
  9
$DIMTP
 40
0.0
  9
$DIMTM
 40
0.0
  9
$DIMTXT
 40
2.5
  9
$DIMCEN
 40
2.5
  9
$DIMTSZ
 40
0.0
  9
$DIMTOL
 70
0
  9
$DIMLIM
 70
0
  9
$DIMTIH
 70
0
  9
$DIMTOH
 70
0
  9
$DIMSE1
 70
0
  9
$DIMSE2
 70
0
  9
$DIMTAD
 70
1
  9
$DIMZIN
 70
8
  9
$DIMBLK
  1

  9
$DIMASO
 70
1
  9
$DIMSHO
 70
1
  9
$DIMPOST
  1

  9
$DIMAPOST
  1

  9
$DIMALT
 70
0
  9
$DIMALTD
 70
3
  9
$DIMALTF
 40
0.03937007874
  9
$DIMLFAC
 40
1.0
  9
$DIMTOFL
 70
1
  9
$DIMTVP
 40
0.0
  9
$DIMTIX
 70
0
  9
$DIMSOXD
 70
0
  9
$DIMSAH
 70
0
  9
$DIMBLK1
  1

  9
$DIMBLK2
  1

  9
$DIMSTYLE
  2
ISO-25
  9
$DIMCLRD
 70
0
  9
$DIMCLRE
 70
0
  9
$DIMCLRT
 70
0
  9
$DIMTFAC
 40
1.0
  9
$DIMGAP
 40
0.625
  9
$DIMJUST
 70
0
  9
$DIMSD1
 70
0
  9
$DIMSD2
 70
0
  9
$DIMTOLJ
 70
0
  9
$DIMTZIN
 70
8
  9
$DIMALTZ
 70
0
  9
$DIMALTTZ
 70
0
  9
$DIMUPT
 70
0
  9
$DIMDEC
 70
2
  9
$DIMTDEC
 70
2
  9
$DIMALTU
 70
2
  9
$DIMALTTD
 70
3
  9
$DIMTXSTY
  7
Standard
  9
$DIMAUNIT
 70
0
  9
$DIMADEC
 70
0
  9
$DIMALTRND
 40
0.0
  9
$DIMAZIN
 70
0
  9
$DIMDSEP
 70
44
  9
$DIMATFIT
 70
3
  9
$DIMFRAC
 70
0
  9
$DIMLDRBLK
  1

  9
$DIMLUNIT
 70
2
  9
$DIMLWD
 70
-2
  9
$DIMLWE
 70
-2
  9
$DIMTMOVE
 70
0
  9
$DIMFXL
 40
1.0
  9
$DIMFXLON
 70
0
  9
$DIMJOGANG
 40
0.785398163397
  9
$DIMTFILL
 70
0
  9
$DIMTFILLCLR
 70
0
  9
$DIMARCSYM
 70
0
  9
$DIMLTYPE
  6

  9
$DIMLTEX1
  6

  9
$DIMLTEX2
  6

  9
$DIMTXTDIRECTION
 70
0
  9
$LUNITS
 70
2
  9
$LUPREC
 70
4
  9
$SKETCHINC
 40
1.0
  9
$FILLETRAD
 40
10.0
  9
$AUNITS
 70
0
  9
$AUPREC
 70
2
  9
$MENU
  1
.
  9
$ELEVATION
 40
0.0
  9
$PELEVATION
 40
0.0
  9
$THICKNESS
 40
0.0
  9
$LIMCHECK
 70
0
  9
$CHAMFERA
 40
0.0
  9
$CHAMFERB
 40
0.0
  9
$CHAMFERC
 40
0.0
  9
$CHAMFERD
 40
0.0
  9
$SKPOLY
 70
0
  9
$TDCREATE
 40
2461132.089236111
  9
$TDUCREATE
 40
2458532.153996898
  9
$TDUPDATE
 40
2461132.089236111
  9
$TDUUPDATE
 40
2458532.1544311
  9
$TDINDWG
 40
0.0
  9
$TDUSRTIMER
 40
0.0
  9
$USRTIMER
 70
1
  9
$ANGBASE
 50
0.0
  9
$ANGDIR
 70
0
  9
$PDMODE
 70
0
  9
$PDSIZE
 40
0.0
  9
$PLINEWID
 40
0.0
  9
$SPLFRAME
 70
0
  9
$SPLINETYPE
 70
6
  9
$SPLINESEGS
 70
8
  9
$HANDSEED
  5
41
  9
$SURFTAB1
 70
6
  9
$SURFTAB2
 70
6
  9
$SURFTYPE
 70
6
  9
$SURFU
 70
6
  9
$SURFV
 70
6
  9
$UCSBASE
  2

  9
$UCSNAME
  2

  9
$UCSORG
 10
0.0
 20
0.0
 30
0.0
  9
$UCSXDIR
 10
1.0
 20
0.0
 30
0.0
  9
$UCSYDIR
 10
0.0
 20
1.0
 30
0.0
  9
$UCSORTHOREF
  2

  9
$UCSORTHOVIEW
 70
0
  9
$UCSORGTOP
 10
0.0
 20
0.0
 30
0.0
  9
$UCSORGBOTTOM
 10
0.0
 20
0.0
 30
0.0
  9
$UCSORGLEFT
 10
0.0
 20
0.0
 30
0.0
  9
$UCSORGRIGHT
 10
0.0
 20
0.0
 30
0.0
  9
$UCSORGFRONT
 10
0.0
 20
0.0
 30
0.0
  9
$UCSORGBACK
 10
0.0
 20
0.0
 30
0.0
  9
$PUCSBASE
  2

  9
$PUCSNAME
  2

  9
$PUCSORG
 10
0.0
 20
0.0
 30
0.0
  9
$PUCSXDIR
 10
1.0
 20
0.0
 30
0.0
  9
$PUCSYDIR
 10
0.0
 20
1.0
 30
0.0
  9
$PUCSORTHOREF
  2

  9
$PUCSORTHOVIEW
 70
0
  9
$PUCSORGTOP
 10
0.0
 20
0.0
 30
0.0
  9
$PUCSORGBOTTOM
 10
0.0
 20
0.0
 30
0.0
  9
$PUCSORGLEFT
 10
0.0
 20
0.0
 30
0.0
  9
$PUCSORGRIGHT
 10
0.0
 20
0.0
 30
0.0
  9
$PUCSORGFRONT
 10
0.0
 20
0.0
 30
0.0
  9
$PUCSORGBACK
 10
0.0
 20
0.0
 30
0.0
  9
$USERI1
 70
0
  9
$USERI2
 70
0
  9
$USERI3
 70
0
  9
$USERI4
 70
0
  9
$USERI5
 70
0
  9
$USERR1
 40
0.0
  9
$USERR2
 40
0.0
  9
$USERR3
 40
0.0
  9
$USERR4
 40
0.0
  9
$USERR5
 40
0.0
  9
$WORLDVIEW
 70
1
  9
$SHADEDGE
 70
3
  9
$SHADEDIF
 70
70
  9
$TILEMODE
 70
1
  9
$MAXACTVP
 70
64
  9
$PINSBASE
 10
0.0
 20
0.0
 30
0.0
  9
$PLIMCHECK
 70
0
  9
$PEXTMIN
 10
1e+20
 20
1e+20
 30
1e+20
  9
$PEXTMAX
 10
-1e+20
 20
-1e+20
 30
-1e+20
  9
$PLIMMIN
 10
0.0
 20
0.0
  9
$PLIMMAX
 10
420.0
 20
297.0
  9
$UNITMODE
 70
0
  9
$VISRETAIN
 70
1
  9
$PLINEGEN
 70
0
  9
$PSLTSCALE
 70
1
  9
$TREEDEPTH
 70
3020
  9
$CMLSTYLE
  2
Standard
  9
$CMLJUST
 70
0
  9
$CMLSCALE
 40
20.0
  9
$PROXYGRAPHICS
 70
1
  9
$MEASUREMENT
 70
1
  9
$CELWEIGHT
370
-1
  9
$ENDCAPS
280
0
  9
$JOINSTYLE
280
0
  9
$LWDISPLAY
290
0
  9
$INSUNITS
 70
4
  9
$HYPERLINKBASE
  1

  9
$STYLESHEET
  1

  9
$XEDIT
290
1
  9
$CEPSNTYPE
380
0
  9
$PSTYLEMODE
290
1
  9
$FINGERPRINTGUID
  2
{FCEE2A38-7DA7-4956-9AAC-A243734354C5}
  9
$VERSIONGUID
  2
{CB8421F9-F2E5-4E9E-AC97-20D16E251833}
  9
$EXTNAMES
290
1
  9
$PSVPSCALE
 40
0.0
  9
$OLESTARTUP
290
0
  9
$SORTENTS
280
127
  9
$INDEXCTL
280
0
  9
$HIDETEXT
280
1
  9
$XCLIPFRAME
280
1
  9
$HALOGAP
280
0
  9
$OBSCOLOR
 70
257
  9
$OBSLTYPE
280
0
  9
$INTERSECTIONDISPLAY
280
0
  9
$INTERSECTIONCOLOR
 70
257
  9
$DIMASSOC
280
2
  9
$PROJECTNAME
  1

  9
$CAMERADISPLAY
290
0
  9
$LENSLENGTH
 40
50.0
  9
$CAMERAHEIGHT
 40
0.0
  9
$STEPSPERSEC
 40
24.0
  9
$STEPSIZE
 40
100.0
  9
$3DDWFPREC
 40
2.0
  9
$PSOLWIDTH
 40
0.005
  9
$PSOLHEIGHT
 40
0.08
  9
$LOFTANG1
 40
1.570796326795
  9
$LOFTANG2
 40
1.570796326795
  9
$LOFTMAG1
 40
0.0
  9
$LOFTMAG2
 40
0.0
  9
$LOFTPARAM
 70
7
  9
$LOFTNORMALS
280
1
  9
$LATITUDE
 40
37.795
  9
$LONGITUDE
 40
-122.394
  9
$NORTHDIRECTION
 40
0.0
  9
$TIMEZONE
 70
-8000
  9
$LIGHTGLYPHDISPLAY
280
1
  9
$TILEMODELIGHTSYNCH
280
1
  9
$CMATERIAL
347
20
  9
$SOLIDHIST
280
0
  9
$SHOWHIST
280
1
  9
$DWFFRAME
280
2
  9
$DGNFRAME
280
2
  9
$REALWORLDSCALE
290
1
  9
$INTERFERECOLOR
 62
256
  9
$CSHADOW
280
0
  9
$SHADOWPLANELOCATION
 40
0.0
  0
ENDSEC
  0
SECTION
  2
CLASSES
  0
CLASS
  1
ACDBDICTIONARYWDFLT
  2
AcDbDictionaryWithDefault
  3
ObjectDBX Classes
 90
0
 91
0
280
0
281
0
  0
CLASS
  1
SUN
  2
AcDbSun
  3
SCENEOE
 90
1153
 91
0
280
0
281
0
  0
CLASS
  1
VISUALSTYLE
  2
AcDbVisualStyle
  3
ObjectDBX Classes
 90
4095
 91
0
280
0
281
0
  0
CLASS
  1
MATERIAL
  2
AcDbMaterial
  3
ObjectDBX Classes
 90
1153
 91
0
280
0
281
0
  0
CLASS
  1
SCALE
  2
AcDbScale
  3
ObjectDBX Classes
 90
1153
 91
0
280
0
281
0
  0
CLASS
  1
TABLESTYLE
  2
AcDbTableStyle
  3
ObjectDBX Classes
 90
4095
 91
0
280
0
281
0
  0
CLASS
  1
MLEADERSTYLE
  2
AcDbMLeaderStyle
  3
ACDB_MLEADERSTYLE_CLASS
 90
4095
 91
0
280
0
281
0
  0
CLASS
  1
DICTIONARYVAR
  2
AcDbDictionaryVar
  3
ObjectDBX Classes
 90
0
 91
0
280
0
281
0
  0
CLASS
  1
CELLSTYLEMAP
  2
AcDbCellStyleMap
  3
ObjectDBX Classes
 90
1152
 91
0
280
0
281
0
  0
CLASS
  1
MENTALRAYRENDERSETTINGS
  2
AcDbMentalRayRenderSettings
  3
SCENEOE
 90
1024
 91
0
280
0
281
0
  0
CLASS
  1
ACDBDETAILVIEWSTYLE
  2
AcDbDetailViewStyle
  3
ObjectDBX Classes
 90
1025
 91
0
280
0
281
0
  0
CLASS
  1
ACDBSECTIONVIEWSTYLE
  2
AcDbSectionViewStyle
  3
ObjectDBX Classes
 90
1025
 91
0
280
0
281
0
  0
CLASS
  1
RASTERVARIABLES
  2
AcDbRasterVariables
  3
ISM
 90
0
 91
0
280
0
281
0
  0
CLASS
  1
ACDBPLACEHOLDER
  2
AcDbPlaceHolder
  3
ObjectDBX Classes
 90
0
 91
0
280
0
281
0
  0
CLASS
  1
LAYOUT
  2
AcDbLayout
  3
ObjectDBX Classes
 90
0
 91
0
280
0
281
0
  0
ENDSEC
  0
SECTION
  2
TABLES
  0
TABLE
  2
VPORT
  5
8
330
0
100
AcDbSymbolTable
 70
1
  0
VPORT
  5
23
330
8
100
AcDbSymbolTableRecord
100
AcDbViewportTableRecord
  2
*Active
 70
0
 10
0.0
 20
0.0
 11
1.0
 21
1.0
 12
0.0
 22
0.0
 13
0.0
 23
0.0
 14
0.5
 24
0.5
 15
0.5
 25
0.5
 16
0.0
 26
0.0
 36
1.0
 17
0.0
 27
0.0
 37
0.0
 40
1000.0
 41
1.34
 42
50.0
 43
0.0
 44
0.0
 50
0.0
 51
0.0
 71
0
 72
1000
 73
1
 74
3
 75
0
 76
0
 77
0
 78
0
281
0
 65
0
146
0.0
  0
ENDTAB
  0
TABLE
  2
LTYPE
  5
2
330
0
100
AcDbSymbolTable
 70
3
  0
LTYPE
  5
24
330
2
100
AcDbSymbolTableRecord
100
AcDbLinetypeTableRecord
  2
ByBlock
 70
0
  3

 72
65
 73
0
 40
0.0
  0
LTYPE
  5
25
330
2
100
AcDbSymbolTableRecord
100
AcDbLinetypeTableRecord
  2
ByLayer
 70
0
  3

 72
65
 73
0
 40
0.0
  0
LTYPE
  5
26
330
2
100
AcDbSymbolTableRecord
100
AcDbLinetypeTableRecord
  2
Continuous
 70
0
  3

 72
65
 73
0
 40
0.0
  0
ENDTAB
  0
TABLE
  2
LAYER
  5
1
330
0
100
AcDbSymbolTable
 70
8
  0
LAYER
  5
27
330
1
100
AcDbSymbolTableRecord
100
AcDbLayerTableRecord
  2
0
 70
0
 62
7
  6
Continuous
370
-3
390
13
347
21
  0
LAYER
  5
28
330
1
100
AcDbSymbolTableRecord
100
AcDbLayerTableRecord
  2
Defpoints
 70
0
 62
7
  6
Continuous
290
0
370
-3
390
13
347
21
  0
LAYER
  5
2F
330
1
100
AcDbSymbolTableRecord
100
AcDbLayerTableRecord
  2
BODY_OUTLINE
 70
0
 62
7
  6
Continuous
370
-3
390
13
347
21
  0
LAYER
  5
30
330
1
100
AcDbSymbolTableRecord
100
AcDbLayerTableRecord
  2
VOID_CHAMBERS
 70
0
 62
5
  6
Continuous
370
-3
390
13
347
21
  0
LAYER
  5
31
330
1
100
AcDbSymbolTableRecord
100
AcDbLayerTableRecord
  2
CONTROL_CAVITY
 70
0
 62
2
  6
Continuous
370
-3
390
13
347
21
  0
LAYER
  5
32
330
1
100
AcDbSymbolTableRecord
100
AcDbLayerTableRecord
  2
HARDWARE_REFS
 70
0
 62
3
  6
Continuous
370
-3
390
13
347
21
  0
LAYER
  5
33
330
1
100
AcDbSymbolTableRecord
100
AcDbLayerTableRecord
  2
CENTERLINE
 70
0
 62
8
  6
Continuous
370
-3
390
13
347
21
  0
LAYER
  5
34
330
1
100
AcDbSymbolTableRecord
100
AcDbLayerTableRecord
  2
ANNOTATIONS
 70
0
 62
7
  6
Continuous
370
-3
390
13
347
21
  0
ENDTAB
  0
TABLE
  2
STYLE
  5
5
330
0
100
AcDbSymbolTable
 70
1
  0
STYLE
  5
29
330
5
100
AcDbSymbolTableRecord
100
AcDbTextStyleTableRecord
  2
Standard
 70
0
 40
0.0
 41
1.0
 50
0.0
 71
0
 42
2.5
  3
txt
  4

  0
ENDTAB
  0
TABLE
  2
VIEW
  5
7
330
0
100
AcDbSymbolTable
 70
0
  0
ENDTAB
  0
TABLE
  2
UCS
  5
6
330
0
100
AcDbSymbolTable
 70
0
  0
ENDTAB
  0
TABLE
  2
APPID
  5
3
330
0
100
AcDbSymbolTable
 70
3
  0
APPID
  5
2A
330
3
100
AcDbSymbolTableRecord
100
AcDbRegAppTableRecord
  2
ACAD
 70
0
  0
APPID
  5
3E
330
3
100
AcDbSymbolTableRecord
100
AcDbRegAppTableRecord
  2
HATCHBACKGROUNDCOLOR
 70
0
  0
APPID
  5
3F
330
3
100
AcDbSymbolTableRecord
100
AcDbRegAppTableRecord
  2
EZDXF
 70
0
  0
ENDTAB
  0
TABLE
  2
DIMSTYLE
  5
4
330
0
100
AcDbSymbolTable
 70
1
100
AcDbDimStyleTable
  0
DIMSTYLE
105
2B
330
4
100
AcDbSymbolTableRecord
100
AcDbDimStyleTableRecord
  2
Standard
 70
0
 40
1.0
 41
2.5
 42
0.625
 43
3.75
 44
1.25
 45
0.0
 46
0.0
 47
0.0
 48
0.0
 49
2.5
140
2.5
141
2.5
142
0.0
143
0.03937007874
144
1.0
145
0.0
146
1.0
147
0.625
148
0.0
 69
0
 70
0
 71
0
 72
0
 73
0
 74
0
 75
0
 76
0
 77
1
 78
8
 79
3
170
0
171
3
172
1
173
0
174
0
175
0
176
0
177
0
178
0
179
2
271
2
272
2
273
2
274
3
275
0
276
0
277
2
278
44
279
0
280
0
281
0
282
0
283
0
284
8
285
0
286
0
288
0
289
3
290
0
371
-2
372
-2
  0
ENDTAB
  0
TABLE
  2
BLOCK_RECORD
  5
9
330
0
100
AcDbSymbolTable
 70
2
  0
BLOCK_RECORD
  5
17
330
9
100
AcDbSymbolTableRecord
100
AcDbBlockTableRecord
  2
*Model_Space
340
1A
 70
0
280
1
281
0
  0
BLOCK_RECORD
  5
1B
330
9
100
AcDbSymbolTableRecord
100
AcDbBlockTableRecord
  2
*Paper_Space
340
1E
 70
0
280
1
281
0
  0
ENDTAB
  0
ENDSEC
  0
SECTION
  2
BLOCKS
  0
BLOCK
  5
18
330
17
100
AcDbEntity
  8
0
100
AcDbBlockBegin
  2
*Model_Space
 70
0
 10
0.0
 20
0.0
 30
0.0
  3
*Model_Space
  1

  0
ENDBLK
  5
19
330
17
100
AcDbEntity
  8
0
100
AcDbBlockEnd
  0
BLOCK
  5
1C
330
1B
100
AcDbEntity
  8
0
100
AcDbBlockBegin
  2
*Paper_Space
 70
0
 10
0.0
 20
0.0
 30
0.0
  3
*Paper_Space
  1

  0
ENDBLK
  5
1D
330
1B
100
AcDbEntity
  8
0
100
AcDbBlockEnd
  0
ENDSEC
  0
SECTION
  2
ENTITIES
  0
LWPOLYLINE
  5
35
330
17
100
AcDbEntity
  8
BODY_OUTLINE
100
AcDbPolyline
 90
300
 70
1
 10
-35.834176635791096
 20
141.9205865719833
 10
-31.387407305252204
 20
142.91987363136113
 10
-27.22930194118328
 20
144.57613319706255
 10
-23.318549997107638
 20
146.80292550059326
 10
-19.613840926548594
 20
149.51381077345872
 10
-16.073864183029443
 20
152.62234924716466
 10
-12.657309220073486
 20
156.0421011532165
 10
-9.32286549120405
 20
159.68662672311993
 10
-6.029222449944433
 20
163.4694861883805
 10
-2.735069549817939
 20
167.3042397805038
 10
0.6009037556521166
 20
171.1044477309954
 10
4.020008012942433
 20
174.78367027136085
 10
7.5635537685297045
 20
178.25546763310584
 10
11.272851568890612
 20
181.4334000477358
 10
15.18921196050186
 20
184.23102774675647
 10
19.35394548984014
 20
186.56191096167333
 10
23.805509287601605
 20
188.33742447314265
 10
28.47768467229211
 20
189.38877113447032
 10
33.171784902289986
 20
189.44569559700918
 10
37.74806221815004
 20
188.4502914865802
 10
42.37085957541978
 20
187.33141877247883
 10
47.26524472942602
 20
187.20722766096642
 10
52.300532552669466
 20
187.93074630854647
 10
57.08078879470066
 20
188.4117297963177
 10
61.20374949678508
 20
187.53740518530918
 10
64.47110907460085
 20
184.64962492789076
 10
67.40273249557218
 20
180.69105129401066
 10
70.67573225817024
 20
176.9552926417233
 10
74.67040298602994
 20
174.25043221131793
 10
79.01774212885329
 20
172.15887706433145
 10
83.23233349590224
 20
170.07260857949709
 10
86.83393259386666
 20
167.38934283791127
 10
89.64731319939321
 20
163.84501930245136
 10
91.96701412104716
 20
159.69648235674043
 10
94.1276339190359
 20
155.24499714869094
 10
96.45174940933795
 20
150.78608674281563
 10
98.90288185089653
 20
146.44377438509287
 10
101.03258861520236
 20
142.1453122910677
 10
102.36976094737099
 20
137.8071263947138
 10
102.4745050261161
 20
133.3505800387406
 10
101.4372077429942
 20
128.78091349020738
 10
99.79142381569112
 20
124.1734648970245
 10
98.06999601842749
 20
119.60261748234791
 10
96.53176545678852
 20
115.08330663005856
 10
95.18928223656158
 20
110.57703203569376
 10
94.04633013511551
 20
106.04339143818784
 10
93.09897780551846
 20
101.44516987694352
 10
92.20389514427661
 20
96.80274131731628
 10
91.10825849202344
 20
92.18435037158248
 10
89.84585137932694
 20
87.60610170512683
 10
88.75550699946723
 20
83.02762852084868
 10
88.11314666252484
 20
78.41870179526632
 10
87.06216857738215
 20
73.93330903194645
 10
85.21765787829183
 20
69.61071363598802
 10
83.09467449477495
 20
65.31859158555172
 10
81.22189773863738
 20
60.9220334113184
 10
80.07535766131492
 20
56.31167589996109
 10
79.75033830556808
 20
51.5628998390615
 10
80.17469136161918
 20
46.83232684863196
 10
81.27062553014382
 20
42.262745263818765
 10
82.91712002369258
 20
37.872309212265364
 10
84.97072089338869
 20
33.614496152574304
 10
87.2877835188692
 20
29.44223382160497
 10
89.72466327977126
 20
25.30844995621677
 10
92.13771555573193
 20
21.16607229326906
 10
94.38329572638833
 20
16.968028569621236
 10
96.33257202742702
 20
12.67109111221286
 10
98.01808681420938
 20
8.273915956137209
 10
99.57157484266696
 20
3.800903943430073
 10
101.12613748641411
 20
-0.7189351551762369
 10
102.81392807367949
 20
-5.20576379193192
 10
104.76647371685902
 20
-9.546170964509354
 10
107.11529041668489
 20
-13.626149938371434
 10
109.98217465760936
 20
-17.339198254016075
 10
113.19264651790617
 20
-20.807563481705504
 10
116.24797720743135
 20
-24.404196963307367
 10
118.9815580652735
 20
-28.25217310149558
 10
121.53485373733628
 20
-32.24244943165164
 10
124.0596191014221
 20
-36.258226807199456
 10
126.64998289412495
 20
-40.22477389763721
 10
129.2558070132537
 20
-44.172675999819084
 10
131.804743208337
 20
-48.1487321013524
 10
134.22544468957634
 20
-52.19909912994661
 10
136.49080586090037
 20
-56.341569947620066
 10
138.63446739572146
 20
-60.55499155998444
 10
140.69447681267758
 20
-64.8153856409431
 10
142.7088816304062
 20
-69.09877386439932
 10
144.7153265814676
 20
-73.38144492187347
 10
146.73230986699815
 20
-77.6523802504428
 10
148.75122740160708
 20
-81.91852811466279
 10
150.76142068631611
 20
-86.18819870456593
 10
152.75223122214658
 20
-90.46970221018437
 10
154.7130005101201
 20
-94.77134882155043
 10
156.63304371249498
 20
-99.10143692722744
 10
158.4969886300122
 20
-103.46616467471704
 10
160.27941423895828
 20
-107.86722768837195
 10
161.95360109657935
 20
-112.30573981685433
 10
163.49282976012168
 20
-116.78281490882631
 10
164.87038078683142
 20
-121.29956681295008
 10
166.05953473395482
 20
-125.85710937788781
 10
167.03357215873808
 20
-130.4565564523016
 10
167.7657736184274
 20
-135.09902188485376
 10
168.229419670269
 20
-139.78561952420628
 10
168.40182711295492
 20
-144.51693463815548
 10
168.34597452877676
 20
-149.28233434009317
 10
168.20669781431084
 20
-154.06046581729942
 10
168.1321077214115
 20
-158.82954738631864
 10
168.2703150019331
 20
-163.56779736369523
 10
168.76942547957157
 20
-168.25343478526835
 10
169.68599907352174
 20
-172.8780403736327
 10
170.7510110668727
 20
-177.48071592776066
 10
171.6230870438582
 20
-182.11112312932184
 10
172.00885195532604
 20
-186.81278665419262
 10
172.16663092327954
 20
-191.55869301523876
 10
172.69889079766878
 20
-196.27734162110247
 10
173.8122415496785
 20
-200.92571257043326
 10
175.15504256058145
 20
-205.50139732814372
 10
176.3344270640623
 20
-210.00498646064187
 10
176.99665256469467
 20
-214.44167109100772
 10
177.1960431406477
 20
-218.8646261987602
 10
177.22956785265998
 20
-223.35555897547067
 10
177.3974066461725
 20
-227.99655417519799
 10
177.99973946662644
 20
-232.86969655200085
 10
179.33674625946287
 20
-238.05707085993805
 10
181.46879039666283
 20
-243.4666915923013
 10
182.71994154267605
 20
-247.74628879215516
 10
180.86657074171654
 20
-249.17529206099334
 10
176.14312939897766
 20
-248.14964673464934
 10
170.34556473442981
 20
-246.40953050036714
 10
164.99888369785901
 20
-245.38688325673573
 10
160.25435909834687
 20
-244.98275992257774
 10
155.86476720784188
 20
-244.6541321366185
 10
151.58759928271692
 20
-243.87293619797936
 10
147.2934990435391
 20
-242.46816493304138
 10
142.96837721775165
 20
-240.63254020825443
 10
138.60332478262123
 20
-238.57513034814573
 10
134.18943271541457
 20
-236.50500367724257
 10
129.71890846702382
 20
-234.62627441026143
 10
125.22562710807323
 20
-232.95816572732426
 10
120.79660839172601
 20
-231.2840827944464
 10
116.52232663355436
 20
-229.3721019054404
 10
112.4837084574142
 20
-227.01195402709678
 10
108.41768613918397
 20
-224.77342169124236
 10
103.95919496388166
 20
-223.4474939100124
 10
99.26819389107193
 20
-222.61783478768433
 10
94.55569549426417
 20
-221.7507895201248
 10
89.99840913154844
 20
-220.41341546227864
 10
85.51441713700116
 20
-218.93208321905908
 10
80.92746427919879
 20
-217.89416989789046
 10
76.24834290353661
 20
-217.2110106993444
 10
71.57670112122109
 20
-216.47337560148077
 10
66.97039000024719
 20
-215.44685889693272
 10
62.42122271096432
 20
-214.1727791479937
 10
57.91528531499677
 20
-212.7163669875531
 10
53.43866387396883
 20
-211.14285304850037
 10
48.97946719727517
 20
-209.51243202306637
 10
44.5974974973029
 20
-207.70680688624788
 10
40.44143194005167
 20
-205.38643482577996
 10
36.564414646604035
 20
-202.45480238293365
 10
32.78881870109593
 20
-199.40176802696698
 10
28.904980942258295
 20
-196.79859192828772
 10
24.703250469805802
 20
-195.21644171720422
 10
20.046030803928108
 20
-194.68265237754179
 10
15.0489044705377
 20
-193.4972118764985
 10
10.108663325820796
 20
-191.57767128158483
 10
5.837252626902838
 20
-190.70845144252155
 10
2.7935905084771906
 20
-192.6024495389273
 10
0.6968183664250931
 20
-197.0126550201925
 10
-1.328735187232052
 20
-202.2864728409099
 10
-3.763293301987357
 20
-207.20218389077377
 10
-6.630215534377036
 20
-211.054852104584
 10
-9.928820655995896
 20
-213.16673524532126
 10
-13.641504393938396
 20
-213.07973520330322
 10
-17.68157701812154
 20
-211.23241374308725
 10
-21.944721974947964
 20
-208.29211110159505
 10
-26.326622705410742
 20
-204.92616758595892
 10
-30.72315394566442
 20
-201.800615671468
 10
-35.067313135604444
 20
-199.32769022721857
 10
-39.373298276089045
 20
-197.36448045894986
 10
-43.66604680975102
 20
-195.6946529943138
 10
-47.97046414006822
 20
-194.1020175120683
 10
-52.299474660326624
 20
-192.42387750994052
 10
-56.63611394234715
 20
-190.63098660206168
 10
-60.95883390802993
 20
-188.71456386708942
 10
-65.24608647927515
 20
-186.66582838368188
 10
-69.47632357798295
 20
-184.47599923049668
 10
-73.62799712605353
 20
-182.13629548619187
 10
-77.67955904538702
 20
-179.63793622942518
 10
-81.6094612619449
 20
-176.97214054288054
 10
-85.40675501688527
 20
-174.1406344101637
 10
-89.10196843296046
 20
-171.18625906406268
 10
-92.73577373204125
 20
-168.16191139118882
 10
-96.34884313599842
 20
-165.12048827815337
 10
-99.98184886670279
 20
-162.1148866115677
 10
-103.67546314602514
 20
-159.19800327804305
 10
-107.4703581958363
 20
-156.42273516419078
 10
-111.40101614570963
 20
-153.83430409412244
 10
-115.46249273003819
 20
-151.42904731436744
 10
-119.63437511638843
 20
-149.18412267776074
 10
-123.89621398887851
 20
-147.0766428015041
 10
-128.22683484034113
 20
-145.08248548447256
 10
-132.5652844981908
 20
-143.1097954652481
 10
-136.79100849724944
 20
-140.96523147471785
 10
-140.77855833094955
 20
-138.44711892245132
 10
-144.40931206294465
 20
-135.3665244939325
 10
-147.80850839698724
 20
-131.98966227655697
 10
-151.40593954548663
 20
-129.15088714314243
 10
-155.53019098355296
 20
-127.38582803052036
 10
-160.20789318602078
 20
-126.39114666256538
 10
-165.41817450673912
 20
-125.73494832495984
 10
-171.03523267499816
 20
-125.07785880665101
 10
-176.7338048491258
 20
-124.2563743108194
 10
-182.1663044436611
 20
-123.12667456029259
 10
-186.98514487314335
 20
-121.54493927789818
 10
-190.84273955211168
 20
-119.36734818646372
 10
-193.3915018951053
 20
-116.45008100881684
 10
-194.2990436725663
 20
-112.65765391433992
 10
-193.68690425220348
 20
-108.10356679003195
 10
-192.19743621732073
 20
-103.18699065499229
 10
-190.45949423520503
 20
-98.29513960116064
 10
-188.70315116979225
 20
-93.55341695537439
 10
-186.9387962546184
 20
-88.94299795063064
 10
-185.17452807308857
 20
-84.44355394773808
 10
-183.41844520860784
 20
-80.03475630750529
 10
-181.67864624458124
 20
-75.69627639074098
 10
-179.963229764414
 20
-71.40778555825374
 10
-178.28029435151103
 20
-67.1489551708522
 10
-176.63793858927764
 20
-62.899456589345064
 10
-175.04426106111876
 20
-58.63896117454094
 10
-173.50736035043957
 20
-54.347140287248486
 10
-172.03533504064518
 20
-50.00366528827633
 10
-170.63149420507872
 20
-45.59178180074393
 10
-169.27139084480626
 20
-41.11544894075139
 10
-167.92060346776273
 20
-36.586069478218526
 10
-166.54469754505854
 20
-32.01505591204183
 10
-165.10923914107585
 20
-27.413823373023114
 10
-163.58108409782736
 20
-22.799508776628212
 10
-161.93110975674875
 20
-18.207089442106874
 10
-160.13097504111246
 20
-13.675009986374329
 10
-158.15233887419095
 20
-9.241715026345817
 10
-155.96686017925666
 20
-4.945649178936569
 10
-153.54619787958217
 20
-0.8252570610618344
 10
-150.86201089843982
 20
3.081016710363159
 10
-147.88595815910222
 20
6.7347275184231705
 10
-144.5896985848417
 20
10.097430746202964
 10
-140.94542642077792
 20
13.13119185362526
 10
-137.02271860338791
 20
15.890866564178218
 10
-133.10100348502584
 20
18.631265725996148
 10
-129.48698788522066
 20
21.63319224107357
 10
-126.48263196346657
 20
25.17327243929616
 10
-124.06641975424199
 20
29.243506966020867
 10
-121.76291979995274
 20
33.42773903572491
 10
-119.52746173820499
 20
37.62983497860682
 10
-117.51304313011697
 20
41.903229886884084
 10
-115.87328345415185
 20
46.30182948203814
 10
-114.71836677862248
 20
50.86040825783265
 10
-113.99241851698744
 20
55.54059978615387
 10
-113.59988595161954
 20
60.28656131349844
 10
-113.44555670210906
 20
65.04269716280322
 10
-113.46400484420217
 20
69.77503589077646
 10
-113.64235871946909
 20
74.487759157131
 10
-113.97310602231964
 20
79.18893937978412
 10
-114.44873444716377
 20
83.88664897665316
 10
-115.06173168841144
 20
88.58896036565551
 10
-115.80458544047252
 20
93.30394596470843
 10
-116.66563966610904
 20
98.0344203490277
 10
-117.61074793493019
 20
102.75466078505974
 10
-118.59816956550726
 20
107.42930844773097
 10
-119.5861579739985
 20
112.02299702259316
 10
-120.53296657656226
 20
116.50036019519803
 10
-121.41202167078507
 20
120.84590801519194
 10
-122.2989902678817
 20
125.17808512196832
 10
-123.3117590497366
 20
129.67064361581086
 10
-124.56834773763669
 20
134.49750987765108
 10
-126.17971335489378
 20
139.823430062264
 10
-127.94974159372765
 20
145.41401329839124
 10
-129.2635242374081
 20
150.4905126046003
 10
-129.4760692425619
 20
154.23507748219018
 10
-127.98495996168089
 20
155.88462875966002
 10
-124.79689538816655
 20
155.4596870745769
 10
-120.37358245629855
 20
153.56612026568018
 10
-115.18765753255352
 20
150.8238563934596
 10
-109.71175698340787
 20
147.85282351840456
 10
-104.41831707477021
 20
145.27256148965787
 10
-99.6349405640332
 20
143.42162139201494
 10
-95.28917943738142
 20
141.86242333733472
 10
-91.24009598776755
 20
140.02451187249824
 10
-87.34750313358379
 20
137.37447920194876
 10
-83.48630898553063
 20
134.12395158579338
 10
-79.54540186593294
 20
131.17455866753463
 10
-75.4141973147362
 20
129.45395129491297
 10
-71.01556624437195
 20
129.758479704762
 10
-66.5618418156505
 20
131.74845626548105
 10
-62.39128673624999
 20
134.51387408561635
 10
-58.475560373904045
 20
137.33330272101895
 10
-54.485377685449336
 20
139.64347409557902
 10
-50.11683999898939
 20
140.95186930522325
 10
-45.402583784554416
 20
141.41584791683917
 10
-40.56637477957277
 20
141.5618566462564
 10
-35.8341766357911
 20
141.92058657198325
  0
LWPOLYLINE
  5
36
330
17
100
AcDbEntity
  8
VOID_CHAMBERS
100
AcDbPolyline
 90
56
 70
1
 10
-94.218
 20
123.268
 10
-97.82650000000001
 20
120.40875
 10
-101.435
 20
117.5495
 10
-105.0435
 20
114.69025
 10
-108.652
 20
111.831
 10
-107.29975
 20
107.921
 10
-105.94749999999999
 20
104.011
 10
-104.59525
 20
100.101
 10
-103.243
 20
96.191
 10
-101.887
 20
87.16175
 10
-100.531
 20
78.1325
 10
-99.175
 20
69.10325
 10
-97.819
 20
60.074
 10
-97.819
 20
55.711999999999996
 10
-97.819
 20
51.349999999999994
 10
-97.819
 20
46.988
 10
-97.819
 20
42.626
 10
-92.937
 20
43.39825
 10
-88.055
 20
44.170500000000004
 10
-83.173
 20
44.942750000000004
 10
-78.291
 20
45.715
 10
-77.90675
 20
47.048500000000004
 10
-77.52250000000001
 20
48.382000000000005
 10
-77.13825
 20
49.7155
 10
-76.754
 20
51.049
 10
-76.00450000000001
 20
54.6615
 10
-75.255
 20
58.274
 10
-74.5055
 20
61.8865
 10
-73.756
 20
65.499
 10
-73.756
 20
65.94725
 10
-73.756
 20
66.3955
 10
-73.756
 20
66.84375
 10
-73.756
 20
67.292
 10
-73.15325
 20
69.699
 10
-72.5505
 20
72.106
 10
-71.94775
 20
74.513
 10
-71.345
 20
76.92
 10
-70.441
 20
80.83375000000001
 10
-69.537
 20
84.7475
 10
-68.633
 20
88.66125
 10
-67.729
 20
92.575
 10
-68.03025
 20
96.1875
 10
-68.3315
 20
99.80000000000001
 10
-68.63275
 20
103.41250000000001
 10
-68.934
 20
107.025
 10
-70.1395
 20
111.839
 10
-71.345
 20
116.653
 10
-72.5505
 20
121.46700000000001
 10
-73.756
 20
126.281
 10
-76.01225
 20
126.13050000000001
 10
-78.2685
 20
125.98
 10
-80.52475000000001
 20
125.8295
 10
-82.781
 20
125.679
 10
-85.64025000000001
 20
125.07625
 10
-88.49950000000001
 20
124.4735
 10
-91.35875
 20
123.87075
  0
LWPOLYLINE
  5
37
330
17
100
AcDbEntity
  8
VOID_CHAMBERS
100
AcDbPolyline
 90
76
 70
1
 10
74.298
 20
101.601
 10
72.343
 20
96.78675
 10
70.388
 20
91.9725
 10
68.43299999999999
 20
87.15825
 10
66.478
 20
82.344
 10
65.87525
 20
78.43025
 10
65.2725
 20
74.5165
 10
64.66975
 20
70.60274999999999
 10
64.067
 20
66.689
 10
63.16674999999999
 20
64.43275
 10
62.26649999999999
 20
62.1765
 10
61.36625
 20
59.920249999999996
 10
60.466
 20
57.664
 10
59.86325
 20
55.25675
 10
59.2605
 20
52.8495
 10
58.65775
 20
50.44225
 10
58.055
 20
48.035
 10
54.442750000000004
 20
48.035
 10
50.8305
 20
48.035
 10
47.21825
 20
48.035
 10
43.606
 20
48.035
 10
43.007000000000005
 20
50.592749999999995
 10
42.408
 20
53.150499999999994
 10
41.809
 20
55.70825
 10
41.21
 20
58.266
 10
41.05925
 20
62.7825
 10
40.908500000000004
 20
67.29899999999999
 10
40.75775
 20
71.8155
 10
40.607
 20
76.332
 10
40.75775
 20
78.88974999999999
 10
40.908500000000004
 20
81.44749999999999
 10
41.05925
 20
84.00525
 10
41.21
 20
86.563
 10
40.60725
 20
89.71975
 10
40.0045
 20
92.8765
 10
39.40175
 20
96.03325
 10
38.799
 20
99.19
 10
38.347
 20
103.55575
 10
37.894999999999996
 20
107.92150000000001
 10
37.443
 20
112.28725
 10
36.991
 20
116.653
 10
38.192499999999995
 20
121.16575
 10
39.394
 20
125.67850000000001
 10
40.5955
 20
130.19125
 10
41.797
 20
134.704
 10
42.0985
 20
137.41250000000002
 10
42.4
 20
140.121
 10
42.701499999999996
 20
142.8295
 10
43.003
 20
145.538
 10
44.2085
 20
147.945
 10
45.414
 20
150.352
 10
46.6195
 20
152.75900000000001
 10
47.825
 20
155.166
 10
50.83475
 20
156.07
 10
53.8445
 20
156.974
 10
56.85425
 20
157.87800000000001
 10
59.864
 20
158.782
 10
62.271
 20
157.87800000000001
 10
64.678
 20
156.974
 10
67.08500000000001
 20
156.07
 10
69.492
 20
155.166
 10
71.899
 20
152.60825
 10
74.30600000000001
 20
150.0505
 10
76.71300000000001
 20
147.49275
 10
79.12
 20
144.935
 10
79.87325
 20
140.42225
 10
80.6265
 20
135.9095
 10
81.37975
 20
131.39675
 10
82.133
 20
126.884
 10
81.681
 20
123.42225
 10
81.229
 20
119.9605
 10
80.777
 20
116.49875
 10
80.325
 20
113.037
 10
78.81825
 20
110.178
 10
77.3115
 20
107.319
 10
75.80475
 20
104.46000000000001
  0
LWPOLYLINE
  5
38
330
17
100
AcDbEntity
  8
VOID_CHAMBERS
100
AcDbPolyline
 90
84
 70
1
 10
90.556
 20
-10.939
 10
86.341
 20
-4.9232499999999995
 10
82.126
 20
1.0925000000000011
 10
77.911
 20
7.108250000000002
 10
73.696
 20
13.124
 10
67.83075
 20
15.384
 10
61.9655
 20
17.644000000000002
 10
56.10025
 20
19.904000000000003
 10
50.235
 20
22.164
 10
48.72825
 20
19.75325
 10
47.2215
 20
17.3425
 10
45.714749999999995
 20
14.931750000000001
 10
44.208
 20
12.521
 10
44.81075
 20
14.78125
 10
45.4135
 20
17.0415
 10
46.01625
 20
19.301750000000002
 10
46.619
 20
21.562
 10
46.167
 20
21.562
 10
45.715
 20
21.562
 10
45.263
 20
21.562
 10
44.811
 20
21.562
 10
43.76
 20
10.879000000000001
 10
42.709
 20
0.1960000000000015
 10
41.658
 20
-10.486999999999998
 10
40.607
 20
-21.17
 10
40.607
 20
-24.933
 10
40.607
 20
-28.696
 10
40.607
 20
-32.459
 10
40.607
 20
-36.222
 10
41.35675
 20
-49.6135
 10
42.1065
 20
-63.004999999999995
 10
42.85625
 20
-76.3965
 10
43.606
 20
-89.788
 10
44.058
 20
-86.92875
 10
44.510000000000005
 20
-84.0695
 10
44.962
 20
-81.21025
 10
45.414
 20
-78.351
 10
45.5645
 20
-85.4215
 10
45.715
 20
-92.49199999999999
 10
45.8655
 20
-99.5625
 10
46.016
 20
-106.633
 10
49.6285
 20
-111.451
 10
53.241
 20
-116.269
 10
56.8535
 20
-121.087
 10
60.466
 20
-125.905
 10
64.2255
 20
-126.80525
 10
67.985
 20
-127.7055
 10
71.7445
 20
-128.60575
 10
75.504
 20
-129.506
 10
80.32175000000001
 20
-131.01274999999998
 10
85.1395
 20
-132.5195
 10
89.95725
 20
-134.02625
 10
94.775
 20
-135.533
 10
93.87100000000001
 20
-135.533
 10
92.96700000000001
 20
-135.533
 10
92.063
 20
-135.533
 10
91.159
 20
-135.533
 10
96.57575
 20
-138.09074999999999
 10
101.9925
 20
-140.6485
 10
107.40925
 20
-143.20625
 10
112.826
 20
-145.764
 10
117.63999999999999
 20
-147.56825
 10
122.454
 20
-149.3725
 10
127.268
 20
-151.17675
 10
132.082
 20
-152.981
 10
134.3385
 20
-147.11225
 10
136.595
 20
-141.24349999999998
 10
138.8515
 20
-135.37475
 10
141.108
 20
-129.506
 10
141.56
 20
-125.44525
 10
142.012
 20
-121.3845
 10
142.464
 20
-117.32375
 10
142.916
 20
-113.263
 10
139.605
 20
-102.8815
 10
136.29399999999998
 20
-92.5
 10
132.983
 20
-82.1185
 10
129.672
 20
-71.737
 10
123.20425
 20
-62.70775
 10
116.7365
 20
-53.6785
 10
110.26875
 20
-44.649249999999995
 10
103.801
 20
-35.62
 10
100.48975
 20
-29.449749999999998
 10
97.1785
 20
-23.2795
 10
93.86725
 20
-17.10925
  0
LWPOLYLINE
  5
39
330
17
100
AcDbEntity
  8
VOID_CHAMBERS
100
AcDbPolyline
 90
48
 70
1
 10
-158.014
 20
-41.044
 10
-155.90825
 20
-35.32575
 10
-153.8025
 20
-29.607499999999998
 10
-151.69675
 20
-23.889249999999997
 10
-149.591
 20
-18.171
 10
-147.63225
 20
-16.06175
 10
-145.6735
 20
-13.9525
 10
-143.71475
 20
-11.84325
 10
-141.756
 20
-9.734
 10
-130.77175
 20
-5.6732499999999995
 10
-119.7875
 20
-1.612499999999999
 10
-108.80325
 20
2.4482500000000016
 10
-97.819
 20
6.509
 10
-92.40225000000001
 20
8.464
 10
-86.9855
 20
10.419
 10
-81.56875
 20
12.374
 10
-76.152
 20
14.329
 10
-76.30250000000001
 20
10.117750000000001
 10
-76.453
 20
5.906500000000001
 10
-76.6035
 20
1.6952500000000015
 10
-76.754
 20
-2.516
 10
-77.0555
 20
-12.8975
 10
-77.357
 20
-23.279000000000003
 10
-77.6585
 20
-33.6605
 10
-77.96
 20
-44.042
 10
-78.1105
 20
-51.71525
 10
-78.261
 20
-59.3885
 10
-78.41149999999999
 20
-67.06175
 10
-78.562
 20
-74.735
 10
-78.26075
 20
-94.59775
 10
-77.95949999999999
 20
-114.4605
 10
-77.65825
 20
-134.32325
 10
-77.357
 20
-154.186
 10
-84.7325
 20
-149.97475
 10
-92.108
 20
-145.76350000000002
 10
-99.48349999999999
 20
-141.55225000000002
 10
-106.859
 20
-137.341
 10
-119.949
 20
-130.86950000000002
 10
-133.039
 20
-124.398
 10
-146.129
 20
-117.9265
 10
-159.219
 20
-111.455
 10
-158.61624999999998
 20
-103.0285
 10
-158.0135
 20
-94.602
 10
-157.41075
 20
-86.1755
 10
-156.808
 20
-77.749
 10
-157.1095
 20
-68.57275
 10
-157.411
 20
-59.396499999999996
 10
-157.7125
 20
-50.22024999999999
  0
LWPOLYLINE
  5
3A
330
17
100
AcDbEntity
  8
CONTROL_CAVITY
100
AcDbPolyline
 90
12
 70
1
 10
-42.596
 20
-1.19
 10
-23.374666666666666
 20
-0.7933333333333333
 10
-4.153333333333336
 20
-0.3966666666666667
 10
15.068
 20
0.0
 10
15.068
 20
-40.18
 10
15.068
 20
-80.36
 10
15.068
 20
-120.54
 10
-5.022333333333334
 20
-120.54
 10
-25.11266666666667
 20
-120.54
 10
-45.203
 20
-120.54
 10
-44.334
 20
-80.75666666666667
 10
-43.464999999999996
 20
-40.97333333333334
  0
LWPOLYLINE
  5
3B
330
17
100
AcDbEntity
  8
HARDWARE_REFS
100
AcDbPolyline
 90
4
 70
1
 10
9.312
 20
50.446
 10
10.502
 20
93.178
 10
-34.625
 20
91.37
 10
-35.831
 20
49.241
  0
LWPOLYLINE
  5
3C
330
17
100
AcDbEntity
  8
HARDWARE_REFS
100
AcDbPolyline
 90
4
 70
1
 10
-57.257
 20
305.871
 10
57.257
 20
305.871
 10
57.257
 20
191.358
 10
-57.257
 20
191.358
  0
LINE
  5
3D
330
17
100
AcDbEntity
  8
CENTERLINE
100
AcDbLine
 10
0.0
 20
-263.743
 30
0.0
 11
0.0
 21
212.076
 31
0.0
  0
ENDSEC
  0
SECTION
  2
OBJECTS
  0
DICTIONARY
  5
A
330
0
100
AcDbDictionary
281
1
  3
ACAD_COLOR
350
B
  3
ACAD_GROUP
350
C
  3
ACAD_LAYOUT
350
D
  3
ACAD_MATERIAL
350
E
  3
ACAD_MLEADERSTYLE
350
F
  3
ACAD_MLINESTYLE
350
10
  3
ACAD_PLOTSETTINGS
350
11
  3
ACAD_PLOTSTYLENAME
350
12
  3
ACAD_SCALELIST
350
14
  3
ACAD_TABLESTYLE
350
15
  3
ACAD_VISUALSTYLE
350
16
  3
EZDXF_META
350
2D
  0
DICTIONARY
  5
B
330
A
100
AcDbDictionary
281
1
  0
DICTIONARY
  5
C
330
A
100
AcDbDictionary
281
1
  0
DICTIONARY
  5
D
330
A
100
AcDbDictionary
281
1
  3
Model
350
1A
  3
Layout1
350
1E
  0
DICTIONARY
  5
E
330
A
100
AcDbDictionary
281
1
  3
ByBlock
350
1F
  3
ByLayer
350
20
  3
Global
350
21
  0
DICTIONARY
  5
F
330
A
100
AcDbDictionary
281
1
  3
Standard
350
2C
  0
DICTIONARY
  5
10
330
A
100
AcDbDictionary
281
1
  3
Standard
350
22
  0
DICTIONARY
  5
11
330
A
100
AcDbDictionary
281
1
  0
ACDBDICTIONARYWDFLT
  5
12
330
A
100
AcDbDictionary
281
1
  3
Normal
350
13
100
AcDbDictionaryWithDefault
340
13
  0
ACDBPLACEHOLDER
  5
13
330
12
  0
DICTIONARY
  5
14
330
A
100
AcDbDictionary
281
1
  0
DICTIONARY
  5
15
330
A
100
AcDbDictionary
281
1
  0
DICTIONARY
  5
16
330
A
100
AcDbDictionary
281
1
  0
LAYOUT
  5
1A
330
D
100
AcDbPlotSettings
  1

  4
A3
  6

 40
7.5
 41
20.0
 42
7.5
 43
20.0
 44
420.0
 45
297.0
 46
0.0
 47
0.0
 48
0.0
 49
0.0
140
0.0
141
0.0
142
1.0
143
1.0
 70
1024
 72
1
 73
0
 74
5
  7

 75
16
 76
0
 77
2
 78
300
147
1.0
148
0.0
149
0.0
100
AcDbLayout
  1
Model
 70
1
 71
0
 10
0.0
 20
0.0
 11
420.0
 21
297.0
 12
0.0
 22
0.0
 32
0.0
 14
1e+20
 24
1e+20
 34
1e+20
 15
-1e+20
 25
-1e+20
 35
-1e+20
146
0.0
 13
0.0
 23
0.0
 33
0.0
 16
1.0
 26
0.0
 36
0.0
 17
0.0
 27
1.0
 37
0.0
 76
1
330
17
  0
LAYOUT
  5
1E
330
D
100
AcDbPlotSettings
  1

  4
A3
  6

 40
7.5
 41
20.0
 42
7.5
 43
20.0
 44
420.0
 45
297.0
 46
0.0
 47
0.0
 48
0.0
 49
0.0
140
0.0
141
0.0
142
1.0
143
1.0
 70
0
 72
1
 73
0
 74
5
  7

 75
16
 76
0
 77
2
 78
300
147
1.0
148
0.0
149
0.0
100
AcDbLayout
  1
Layout1
 70
1
 71
1
 10
0.0
 20
0.0
 11
420.0
 21
297.0
 12
0.0
 22
0.0
 32
0.0
 14
1e+20
 24
1e+20
 34
1e+20
 15
-1e+20
 25
-1e+20
 35
-1e+20
146
0.0
 13
0.0
 23
0.0
 33
0.0
 16
1.0
 26
0.0
 36
0.0
 17
0.0
 27
1.0
 37
0.0
 76
1
330
1B
  0
MATERIAL
  5
1F
102
{ACAD_REACTORS
330
E
102
}
330
E
100
AcDbMaterial
  1
ByBlock
  2

 70
0
 40
1.0
 71
1
 41
1.0
 91
-1023410177
 42
1.0
 72
1
  3

 73
1
 74
1
 75
1
 44
0.5
 73
0
 45
1.0
 46
1.0
 77
1
  4

 78
1
 79
1
170
1
 48
1.0
171
1
  6

172
1
173
1
174
1
140
1.0
141
1.0
175
1
  7

176
1
177
1
178
1
143
1.0
179
1
  8

270
1
271
1
272
1
145
1.0
146
1.0
273
1
  9

274
1
275
1
276
1
 42
1.0
 72
1
  3

 73
1
 74
1
 75
1
 94
63
  0
MATERIAL
  5
20
102
{ACAD_REACTORS
330
E
102
}
330
E
100
AcDbMaterial
  1
ByLayer
  2

 70
0
 40
1.0
 71
1
 41
1.0
 91
-1023410177
 42
1.0
 72
1
  3

 73
1
 74
1
 75
1
 44
0.5
 73
0
 45
1.0
 46
1.0
 77
1
  4

 78
1
 79
1
170
1
 48
1.0
171
1
  6

172
1
173
1
174
1
140
1.0
141
1.0
175
1
  7

176
1
177
1
178
1
143
1.0
179
1
  8

270
1
271
1
272
1
145
1.0
146
1.0
273
1
  9

274
1
275
1
276
1
 42
1.0
 72
1
  3

 73
1
 74
1
 75
1
 94
63
  0
MATERIAL
  5
21
102
{ACAD_REACTORS
330
E
102
}
330
E
100
AcDbMaterial
  1
Global
  2

 70
0
 40
1.0
 71
1
 41
1.0
 91
-1023410177
 42
1.0
 72
1
  3

 73
1
 74
1
 75
1
 44
0.5
 73
0
 45
1.0
 46
1.0
 77
1
  4

 78
1
 79
1
170
1
 48
1.0
171
1
  6

172
1
173
1
174
1
140
1.0
141
1.0
175
1
  7

176
1
177
1
178
1
143
1.0
179
1
  8

270
1
271
1
272
1
145
1.0
146
1.0
273
1
  9

274
1
275
1
276
1
 42
1.0
 72
1
  3

 73
1
 74
1
 75
1
 94
63
  0
MLINESTYLE
  5
22
102
{ACAD_REACTORS
330
10
102
}
330
10
100
AcDbMlineStyle
  2
Standard
 70
0
  3

 62
256
 51
90.0
 52
90.0
 71
2
 49
0.5
 62
256
  6
BYLAYER
 49
-0.5
 62
256
  6
BYLAYER
  0
MLEADERSTYLE
  5
2C
102
{ACAD_REACTORS
330
F
102
}
330
F
100
AcDbMLeaderStyle
179
2
170
2
171
1
172
0
 90
2
 40
0.0
 41
0.0
173
1
 91
-1056964608
 92
-2
290
1
 42
2.0
291
1
 43
8.0
  3
Standard
 44
4.0
300

342
29
174
1
175
1
176
0
178
1
 93
-1056964608
 45
4.0
292
0
297
0
 46
4.0
 94
-1056964608
 47
1.0
 49
1.0
140
1.0
294
1
141
0.0
177
0
142
1.0
295
0
296
0
143
3.75
271
0
272
9
273
9
  0
DICTIONARY
  5
2D
330
A
100
AcDbDictionary
280
1
281
1
  3
CREATED_BY_EZDXF
350
2E
  3
WRITTEN_BY_EZDXF
350
40
  0
DICTIONARYVAR
  5
2E
330
2D
100
DictionaryVariables
280
0
  1
1.4.3 @ 2026-04-01T07:08:30.374696+00:00
  0
DICTIONARYVAR
  5
40
330
2D
100
DictionaryVariables
280
0
  1
1.4.3 @ 2026-04-01T07:08:30.991015+00:00
  0
ENDSEC
  0
EOF
