  0
SECTION
  2
HEADER
  9
$ACADVER
  1
AC1024
  9
$ACADMAINTVER
 70
6
  9
$DWGCODEPAGE
  3
ANSI_1252
  9
$LASTSAVEDBY
  1
ezdxf
  9
$INSBASE
 10
0.0
 20
0.0
 30
0.0
  9
$EXTMIN
 10
1e+20
 20
1e+20
 30
1e+20
  9
$EXTMAX
 10
-1e+20
 20
-1e+20
 30
-1e+20
  9
$LIMMIN
 10
0.0
 20
0.0
  9
$LIMMAX
 10
420.0
 20
297.0
  9
$ORTHOMODE
 70
0
  9
$REGENMODE
 70
1
  9
$FILLMODE
 70
1
  9
$QTEXTMODE
 70
0
  9
$MIRRTEXT
 70
1
  9
$LTSCALE
 40
1.0
  9
$ATTMODE
 70
1
  9
$TEXTSIZE
 40
2.5
  9
$TRACEWID
 40
1.0
  9
$TEXTSTYLE
  7
Standard
  9
$CLAYER
  8
0
  9
$CELTYPE
  6
ByLayer
  9
$CECOLOR
 62
256
  9
$CELTSCALE
 40
1.0
  9
$DISPSILH
 70
0
  9
$DIMSCALE
 40
1.0
  9
$DIMASZ
 40
2.5
  9
$DIMEXO
 40
0.625
  9
$DIMDLI
 40
3.75
  9
$DIMRND
 40
0.0
  9
$DIMDLE
 40
0.0
  9
$DIMEXE
 40
1.25
  9
$DIMTP
 40
0.0
  9
$DIMTM
 40
0.0
  9
$DIMTXT
 40
2.5
  9
$DIMCEN
 40
2.5
  9
$DIMTSZ
 40
0.0
  9
$DIMTOL
 70
0
  9
$DIMLIM
 70
0
  9
$DIMTIH
 70
0
  9
$DIMTOH
 70
0
  9
$DIMSE1
 70
0
  9
$DIMSE2
 70
0
  9
$DIMTAD
 70
1
  9
$DIMZIN
 70
8
  9
$DIMBLK
  1

  9
$DIMASO
 70
1
  9
$DIMSHO
 70
1
  9
$DIMPOST
  1

  9
$DIMAPOST
  1

  9
$DIMALT
 70
0
  9
$DIMALTD
 70
3
  9
$DIMALTF
 40
0.03937007874
  9
$DIMLFAC
 40
1.0
  9
$DIMTOFL
 70
1
  9
$DIMTVP
 40
0.0
  9
$DIMTIX
 70
0
  9
$DIMSOXD
 70
0
  9
$DIMSAH
 70
0
  9
$DIMBLK1
  1

  9
$DIMBLK2
  1

  9
$DIMSTYLE
  2
ISO-25
  9
$DIMCLRD
 70
0
  9
$DIMCLRE
 70
0
  9
$DIMCLRT
 70
0
  9
$DIMTFAC
 40
1.0
  9
$DIMGAP
 40
0.625
  9
$DIMJUST
 70
0
  9
$DIMSD1
 70
0
  9
$DIMSD2
 70
0
  9
$DIMTOLJ
 70
0
  9
$DIMTZIN
 70
8
  9
$DIMALTZ
 70
0
  9
$DIMALTTZ
 70
0
  9
$DIMUPT
 70
0
  9
$DIMDEC
 70
2
  9
$DIMTDEC
 70
2
  9
$DIMALTU
 70
2
  9
$DIMALTTD
 70
3
  9
$DIMTXSTY
  7
Standard
  9
$DIMAUNIT
 70
0
  9
$DIMADEC
 70
0
  9
$DIMALTRND
 40
0.0
  9
$DIMAZIN
 70
0
  9
$DIMDSEP
 70
44
  9
$DIMATFIT
 70
3
  9
$DIMFRAC
 70
0
  9
$DIMLDRBLK
  1

  9
$DIMLUNIT
 70
2
  9
$DIMLWD
 70
-2
  9
$DIMLWE
 70
-2
  9
$DIMTMOVE
 70
0
  9
$DIMFXL
 40
1.0
  9
$DIMFXLON
 70
0
  9
$DIMJOGANG
 40
0.785398163397
  9
$DIMTFILL
 70
0
  9
$DIMTFILLCLR
 70
0
  9
$DIMARCSYM
 70
0
  9
$DIMLTYPE
  6

  9
$DIMLTEX1
  6

  9
$DIMLTEX2
  6

  9
$DIMTXTDIRECTION
 70
0
  9
$LUNITS
 70
2
  9
$LUPREC
 70
4
  9
$SKETCHINC
 40
1.0
  9
$FILLETRAD
 40
10.0
  9
$AUNITS
 70
0
  9
$AUPREC
 70
2
  9
$MENU
  1
.
  9
$ELEVATION
 40
0.0
  9
$PELEVATION
 40
0.0
  9
$THICKNESS
 40
0.0
  9
$LIMCHECK
 70
0
  9
$CHAMFERA
 40
0.0
  9
$CHAMFERB
 40
0.0
  9
$CHAMFERC
 40
0.0
  9
$CHAMFERD
 40
0.0
  9
$SKPOLY
 70
0
  9
$TDCREATE
 40
2461132.080011574
  9
$TDUCREATE
 40
2458532.153996898
  9
$TDUPDATE
 40
2461132.080011574
  9
$TDUUPDATE
 40
2458532.1544311
  9
$TDINDWG
 40
0.0
  9
$TDUSRTIMER
 40
0.0
  9
$USRTIMER
 70
1
  9
$ANGBASE
 50
0.0
  9
$ANGDIR
 70
0
  9
$PDMODE
 70
0
  9
$PDSIZE
 40
0.0
  9
$PLINEWID
 40
0.0
  9
$SPLFRAME
 70
0
  9
$SPLINETYPE
 70
6
  9
$SPLINESEGS
 70
8
  9
$HANDSEED
  5
5F
  9
$SURFTAB1
 70
6
  9
$SURFTAB2
 70
6
  9
$SURFTYPE
 70
6
  9
$SURFU
 70
6
  9
$SURFV
 70
6
  9
$UCSBASE
  2

  9
$UCSNAME
  2

  9
$UCSORG
 10
0.0
 20
0.0
 30
0.0
  9
$UCSXDIR
 10
1.0
 20
0.0
 30
0.0
  9
$UCSYDIR
 10
0.0
 20
1.0
 30
0.0
  9
$UCSORTHOREF
  2

  9
$UCSORTHOVIEW
 70
0
  9
$UCSORGTOP
 10
0.0
 20
0.0
 30
0.0
  9
$UCSORGBOTTOM
 10
0.0
 20
0.0
 30
0.0
  9
$UCSORGLEFT
 10
0.0
 20
0.0
 30
0.0
  9
$UCSORGRIGHT
 10
0.0
 20
0.0
 30
0.0
  9
$UCSORGFRONT
 10
0.0
 20
0.0
 30
0.0
  9
$UCSORGBACK
 10
0.0
 20
0.0
 30
0.0
  9
$PUCSBASE
  2

  9
$PUCSNAME
  2

  9
$PUCSORG
 10
0.0
 20
0.0
 30
0.0
  9
$PUCSXDIR
 10
1.0
 20
0.0
 30
0.0
  9
$PUCSYDIR
 10
0.0
 20
1.0
 30
0.0
  9
$PUCSORTHOREF
  2

  9
$PUCSORTHOVIEW
 70
0
  9
$PUCSORGTOP
 10
0.0
 20
0.0
 30
0.0
  9
$PUCSORGBOTTOM
 10
0.0
 20
0.0
 30
0.0
  9
$PUCSORGLEFT
 10
0.0
 20
0.0
 30
0.0
  9
$PUCSORGRIGHT
 10
0.0
 20
0.0
 30
0.0
  9
$PUCSORGFRONT
 10
0.0
 20
0.0
 30
0.0
  9
$PUCSORGBACK
 10
0.0
 20
0.0
 30
0.0
  9
$USERI1
 70
0
  9
$USERI2
 70
0
  9
$USERI3
 70
0
  9
$USERI4
 70
0
  9
$USERI5
 70
0
  9
$USERR1
 40
0.0
  9
$USERR2
 40
0.0
  9
$USERR3
 40
0.0
  9
$USERR4
 40
0.0
  9
$USERR5
 40
0.0
  9
$WORLDVIEW
 70
1
  9
$SHADEDGE
 70
3
  9
$SHADEDIF
 70
70
  9
$TILEMODE
 70
1
  9
$MAXACTVP
 70
64
  9
$PINSBASE
 10
0.0
 20
0.0
 30
0.0
  9
$PLIMCHECK
 70
0
  9
$PEXTMIN
 10
1e+20
 20
1e+20
 30
1e+20
  9
$PEXTMAX
 10
-1e+20
 20
-1e+20
 30
-1e+20
  9
$PLIMMIN
 10
0.0
 20
0.0
  9
$PLIMMAX
 10
420.0
 20
297.0
  9
$UNITMODE
 70
0
  9
$VISRETAIN
 70
1
  9
$PLINEGEN
 70
0
  9
$PSLTSCALE
 70
1
  9
$TREEDEPTH
 70
3020
  9
$CMLSTYLE
  2
Standard
  9
$CMLJUST
 70
0
  9
$CMLSCALE
 40
20.0
  9
$PROXYGRAPHICS
 70
1
  9
$MEASUREMENT
 70
1
  9
$CELWEIGHT
370
-1
  9
$ENDCAPS
280
0
  9
$JOINSTYLE
280
0
  9
$LWDISPLAY
290
0
  9
$INSUNITS
 70
4
  9
$HYPERLINKBASE
  1

  9
$STYLESHEET
  1

  9
$XEDIT
290
1
  9
$CEPSNTYPE
380
0
  9
$PSTYLEMODE
290
1
  9
$FINGERPRINTGUID
  2
{72744DA1-4EFD-4EBD-A9B0-8DEDD58DDE01}
  9
$VERSIONGUID
  2
{4DE2E600-9025-4B26-85B1-905C03CEC966}
  9
$EXTNAMES
290
1
  9
$PSVPSCALE
 40
0.0
  9
$OLESTARTUP
290
0
  9
$SORTENTS
280
127
  9
$INDEXCTL
280
0
  9
$HIDETEXT
280
1
  9
$XCLIPFRAME
280
1
  9
$HALOGAP
280
0
  9
$OBSCOLOR
 70
257
  9
$OBSLTYPE
280
0
  9
$INTERSECTIONDISPLAY
280
0
  9
$INTERSECTIONCOLOR
 70
257
  9
$DIMASSOC
280
2
  9
$PROJECTNAME
  1

  9
$CAMERADISPLAY
290
0
  9
$LENSLENGTH
 40
50.0
  9
$CAMERAHEIGHT
 40
0.0
  9
$STEPSPERSEC
 40
24.0
  9
$STEPSIZE
 40
100.0
  9
$3DDWFPREC
 40
2.0
  9
$PSOLWIDTH
 40
0.005
  9
$PSOLHEIGHT
 40
0.08
  9
$LOFTANG1
 40
1.570796326795
  9
$LOFTANG2
 40
1.570796326795
  9
$LOFTMAG1
 40
0.0
  9
$LOFTMAG2
 40
0.0
  9
$LOFTPARAM
 70
7
  9
$LOFTNORMALS
280
1
  9
$LATITUDE
 40
37.795
  9
$LONGITUDE
 40
-122.394
  9
$NORTHDIRECTION
 40
0.0
  9
$TIMEZONE
 70
-8000
  9
$LIGHTGLYPHDISPLAY
280
1
  9
$TILEMODELIGHTSYNCH
280
1
  9
$CMATERIAL
347
20
  9
$SOLIDHIST
280
0
  9
$SHOWHIST
280
1
  9
$DWFFRAME
280
2
  9
$DGNFRAME
280
2
  9
$REALWORLDSCALE
290
1
  9
$INTERFERECOLOR
 62
256
  9
$CSHADOW
280
0
  9
$SHADOWPLANELOCATION
 40
0.0
  0
ENDSEC
  0
SECTION
  2
CLASSES
  0
CLASS
  1
ACDBDICTIONARYWDFLT
  2
AcDbDictionaryWithDefault
  3
ObjectDBX Classes
 90
0
 91
0
280
0
281
0
  0
CLASS
  1
SUN
  2
AcDbSun
  3
SCENEOE
 90
1153
 91
0
280
0
281
0
  0
CLASS
  1
VISUALSTYLE
  2
AcDbVisualStyle
  3
ObjectDBX Classes
 90
4095
 91
0
280
0
281
0
  0
CLASS
  1
MATERIAL
  2
AcDbMaterial
  3
ObjectDBX Classes
 90
1153
 91
0
280
0
281
0
  0
CLASS
  1
SCALE
  2
AcDbScale
  3
ObjectDBX Classes
 90
1153
 91
0
280
0
281
0
  0
CLASS
  1
TABLESTYLE
  2
AcDbTableStyle
  3
ObjectDBX Classes
 90
4095
 91
0
280
0
281
0
  0
CLASS
  1
MLEADERSTYLE
  2
AcDbMLeaderStyle
  3
ACDB_MLEADERSTYLE_CLASS
 90
4095
 91
0
280
0
281
0
  0
CLASS
  1
DICTIONARYVAR
  2
AcDbDictionaryVar
  3
ObjectDBX Classes
 90
0
 91
0
280
0
281
0
  0
CLASS
  1
CELLSTYLEMAP
  2
AcDbCellStyleMap
  3
ObjectDBX Classes
 90
1152
 91
0
280
0
281
0
  0
CLASS
  1
MENTALRAYRENDERSETTINGS
  2
AcDbMentalRayRenderSettings
  3
SCENEOE
 90
1024
 91
0
280
0
281
0
  0
CLASS
  1
ACDBDETAILVIEWSTYLE
  2
AcDbDetailViewStyle
  3
ObjectDBX Classes
 90
1025
 91
0
280
0
281
0
  0
CLASS
  1
ACDBSECTIONVIEWSTYLE
  2
AcDbSectionViewStyle
  3
ObjectDBX Classes
 90
1025
 91
0
280
0
281
0
  0
CLASS
  1
RASTERVARIABLES
  2
AcDbRasterVariables
  3
ISM
 90
0
 91
0
280
0
281
0
  0
CLASS
  1
LAYOUT
  2
AcDbLayout
  3
ObjectDBX Classes
 90
0
 91
0
280
0
281
0
  0
CLASS
  1
ACDBPLACEHOLDER
  2
AcDbPlaceHolder
  3
ObjectDBX Classes
 90
0
 91
0
280
0
281
0
  0
ENDSEC
  0
SECTION
  2
TABLES
  0
TABLE
  2
VPORT
  5
8
330
0
100
AcDbSymbolTable
 70
1
  0
VPORT
  5
23
330
8
100
AcDbSymbolTableRecord
100
AcDbViewportTableRecord
  2
*Active
 70
0
 10
0.0
 20
0.0
 11
1.0
 21
1.0
 12
0.0
 22
0.0
 13
0.0
 23
0.0
 14
0.5
 24
0.5
 15
0.5
 25
0.5
 16
0.0
 26
0.0
 36
1.0
 17
0.0
 27
0.0
 37
0.0
 40
1000.0
 41
1.34
 42
50.0
 43
0.0
 44
0.0
 50
0.0
 51
0.0
 71
0
 72
1000
 73
1
 74
3
 75
0
 76
0
 77
0
 78
0
281
0
 65
0
146
0.0
  0
ENDTAB
  0
TABLE
  2
LTYPE
  5
2
330
0
100
AcDbSymbolTable
 70
3
  0
LTYPE
  5
24
330
2
100
AcDbSymbolTableRecord
100
AcDbLinetypeTableRecord
  2
ByBlock
 70
0
  3

 72
65
 73
0
 40
0.0
  0
LTYPE
  5
25
330
2
100
AcDbSymbolTableRecord
100
AcDbLinetypeTableRecord
  2
ByLayer
 70
0
  3

 72
65
 73
0
 40
0.0
  0
LTYPE
  5
26
330
2
100
AcDbSymbolTableRecord
100
AcDbLinetypeTableRecord
  2
Continuous
 70
0
  3

 72
65
 73
0
 40
0.0
  0
ENDTAB
  0
TABLE
  2
LAYER
  5
1
330
0
100
AcDbSymbolTable
 70
18
  0
LAYER
  5
27
330
1
100
AcDbSymbolTableRecord
100
AcDbLayerTableRecord
  2
0
 70
0
 62
7
  6
Continuous
370
-3
390
13
347
21
  0
LAYER
  5
28
330
1
100
AcDbSymbolTableRecord
100
AcDbLayerTableRecord
  2
Defpoints
 70
0
 62
7
  6
Continuous
290
0
370
-3
390
13
347
21
  0
LAYER
  5
2F
330
1
100
AcDbSymbolTableRecord
100
AcDbLayerTableRecord
  2
BODY_OUTLINE
 70
0
 62
7
  6
Continuous
370
-3
390
13
347
21
  0
LAYER
  5
31
330
1
100
AcDbSymbolTableRecord
100
AcDbLayerTableRecord
  2
VOID_UPPER_BASS
 70
0
 62
7
  6
Continuous
370
-3
390
13
347
21
  0
LAYER
  5
33
330
1
100
AcDbSymbolTableRecord
100
AcDbLayerTableRecord
  2
VOID_UPPER_TREBLE
 70
0
 62
7
  6
Continuous
370
-3
390
13
347
21
  0
LAYER
  5
35
330
1
100
AcDbSymbolTableRecord
100
AcDbLayerTableRecord
  2
VOID_LOWER_BASS
 70
0
 62
7
  6
Continuous
370
-3
390
13
347
21
  0
LAYER
  5
37
330
1
100
AcDbSymbolTableRecord
100
AcDbLayerTableRecord
  2
CENTERLINE
 70
0
 62
7
  6
Continuous
370
-3
390
13
347
21
  0
LAYER
  5
39
330
1
100
AcDbSymbolTableRecord
100
AcDbLayerTableRecord
  2
NECK_POCKET
 70
0
 62
7
  6
Continuous
370
-3
390
13
347
21
  0
LAYER
  5
3B
330
1
100
AcDbSymbolTableRecord
100
AcDbLayerTableRecord
  2
PICKUP_NECK
 70
0
 62
7
  6
Continuous
370
-3
390
13
347
21
  0
LAYER
  5
3D
330
1
100
AcDbSymbolTableRecord
100
AcDbLayerTableRecord
  2
PICKUP_BRIDGE
 70
0
 62
7
  6
Continuous
370
-3
390
13
347
21
  0
LAYER
  5
3F
330
1
100
AcDbSymbolTableRecord
100
AcDbLayerTableRecord
  2
REAR_ELECTRONICS
 70
0
 62
7
  6
Continuous
370
-3
390
13
347
21
  0
LAYER
  5
45
330
1
100
AcDbSymbolTableRecord
100
AcDbLayerTableRecord
  2
ARDUINO_POCKET
 70
0
 62
7
  6
Continuous
370
-3
390
13
347
21
  0
LAYER
  5
47
330
1
100
AcDbSymbolTableRecord
100
AcDbLayerTableRecord
  2
ANTENNA_RECESS
 70
0
 62
7
  6
Continuous
370
-3
390
13
347
21
  0
LAYER
  5
49
330
1
100
AcDbSymbolTableRecord
100
AcDbLayerTableRecord
  2
BRIDGE_MOUNTING
 70
0
 62
7
  6
Continuous
370
-3
390
13
347
21
  0
LAYER
  5
4F
330
1
100
AcDbSymbolTableRecord
100
AcDbLayerTableRecord
  2
CONTROL_PLATE
 70
0
 62
7
  6
Continuous
370
-3
390
13
347
21
  0
LAYER
  5
54
330
1
100
AcDbSymbolTableRecord
100
AcDbLayerTableRecord
  2
USB_PORT
 70
0
 62
7
  6
Continuous
370
-3
390
13
347
21
  0
LAYER
  5
56
330
1
100
AcDbSymbolTableRecord
100
AcDbLayerTableRecord
  2
OUTPUT_JACK
 70
0
 62
7
  6
Continuous
370
-3
390
13
347
21
  0
LAYER
  5
58
330
1
100
AcDbSymbolTableRecord
100
AcDbLayerTableRecord
  2
WIRING_CHANNEL
 70
0
 62
7
  6
Continuous
370
-3
390
13
347
21
  0
ENDTAB
  0
TABLE
  2
STYLE
  5
5
330
0
100
AcDbSymbolTable
 70
1
  0
STYLE
  5
29
330
5
100
AcDbSymbolTableRecord
100
AcDbTextStyleTableRecord
  2
Standard
 70
0
 40
0.0
 41
1.0
 50
0.0
 71
0
 42
2.5
  3
txt
  4

  0
ENDTAB
  0
TABLE
  2
VIEW
  5
7
330
0
100
AcDbSymbolTable
 70
0
  0
ENDTAB
  0
TABLE
  2
UCS
  5
6
330
0
100
AcDbSymbolTable
 70
0
  0
ENDTAB
  0
TABLE
  2
APPID
  5
3
330
0
100
AcDbSymbolTable
 70
3
  0
APPID
  5
2A
330
3
100
AcDbSymbolTableRecord
100
AcDbRegAppTableRecord
  2
ACAD
 70
0
  0
APPID
  5
5C
330
3
100
AcDbSymbolTableRecord
100
AcDbRegAppTableRecord
  2
HATCHBACKGROUNDCOLOR
 70
0
  0
APPID
  5
5D
330
3
100
AcDbSymbolTableRecord
100
AcDbRegAppTableRecord
  2
EZDXF
 70
0
  0
ENDTAB
  0
TABLE
  2
DIMSTYLE
  5
4
330
0
100
AcDbSymbolTable
 70
1
100
AcDbDimStyleTable
  0
DIMSTYLE
105
2B
330
4
100
AcDbSymbolTableRecord
100
AcDbDimStyleTableRecord
  2
Standard
 70
0
 40
1.0
 41
2.5
 42
0.625
 43
3.75
 44
1.25
 45
0.0
 46
0.0
 47
0.0
 48
0.0
 49
2.5
140
2.5
141
2.5
142
0.0
143
0.03937007874
144
1.0
145
0.0
146
1.0
147
0.625
148
0.0
 69
0
 70
0
 71
0
 72
0
 73
0
 74
0
 75
0
 76
0
 77
1
 78
8
 79
3
170
0
171
3
172
1
173
0
174
0
175
0
176
0
177
0
178
0
179
2
271
2
272
2
273
2
274
3
275
0
276
0
277
2
278
44
279
0
280
0
281
0
282
0
283
0
284
8
285
0
286
0
288
0
289
3
290
0
371
-2
372
-2
  0
ENDTAB
  0
TABLE
  2
BLOCK_RECORD
  5
9
330
0
100
AcDbSymbolTable
 70
2
  0
BLOCK_RECORD
  5
17
330
9
100
AcDbSymbolTableRecord
100
AcDbBlockTableRecord
  2
*Model_Space
340
1A
 70
0
280
1
281
0
  0
BLOCK_RECORD
  5
1B
330
9
100
AcDbSymbolTableRecord
100
AcDbBlockTableRecord
  2
*Paper_Space
340
1E
 70
0
280
1
281
0
  0
ENDTAB
  0
ENDSEC
  0
SECTION
  2
BLOCKS
  0
BLOCK
  5
18
330
17
100
AcDbEntity
  8
0
100
AcDbBlockBegin
  2
*Model_Space
 70
0
 10
0.0
 20
0.0
 30
0.0
  3
*Model_Space
  1

  0
ENDBLK
  5
19
330
17
100
AcDbEntity
  8
0
100
AcDbBlockEnd
  0
BLOCK
  5
1C
330
1B
100
AcDbEntity
  8
0
100
AcDbBlockBegin
  2
*Paper_Space
 70
0
 10
0.0
 20
0.0
 30
0.0
  3
*Paper_Space
  1

  0
ENDBLK
  5
1D
330
1B
100
AcDbEntity
  8
0
100
AcDbBlockEnd
  0
ENDSEC
  0
SECTION
  2
ENTITIES
  0
LWPOLYLINE
  5
30
330
17
100
AcDbEntity
  8
BODY_OUTLINE
100
AcDbPolyline
 90
300
 70
1
 10
61.84830720434054
 20
52.698325302067765
 10
65.99962203125739
 20
55.31452496429321
 10
70.26630106758431
 20
57.58226908868046
 10
74.60698875371789
 20
59.5973895672875
 10
78.9803295300547
 20
61.455718292172385
 10
83.3449678369913
 20
63.253087155393104
 10
87.6595481149243
 20
65.08532804900767
 10
91.92190244894714
 20
66.9991693245373
 10
96.33125975456254
 20
68.788981798303
 10
101.15136750161587
 20
70.16829219729497
 10
106.55654019988502
 20
70.85017145797516
 10
111.85275104387621
 20
70.54362283622709
 10
115.85777429934866
 20
68.95536265621077
 10
117.50177070630473
 20
65.83890749781288
 10
116.96539913758554
 20
61.44475000366781
 10
115.18287558744706
 20
56.32286335254302
 10
113.09878725028092
 20
51.027342471231194
 10
111.53313246508128
 20
46.033564803935924
 10
110.55269060883697
 20
41.34101048977547
 10
109.94262158294268
 20
36.771227411438915
 10
109.48776501133273
 20
32.14604590710915
 10
108.99878642601826
 20
27.377959421580236
 10
108.3397447023933
 20
22.566901328925123
 10
107.38131034414772
 20
17.83601544597351
 10
105.99532060882515
 20
13.307506220338238
 10
104.16786054016951
 20
9.011595670666484
 10
102.0937173853363
 20
4.810476865210411
 10
99.9899139604597
 20
0.5484407166345804
 10
98.06576087433575
 20
-3.917003041515714
 10
96.44920746342683
 20
-8.588890426286211
 10
95.21939904528364
 20
-13.386606749291907
 10
94.45481822660388
 20
-18.228401427367345
 10
94.23394761408522
 20
-23.03252387734705
 10
94.63526981442541
 20
-27.717223516065555
 10
95.7372674343221
 20
-32.20074976035738
 10
97.60112067999842
 20
-36.41139588730594
 10
100.11809290864115
 20
-40.37609010549806
 10
103.08303207874631
 20
-44.17772874145376
 10
106.28968051480466
 20
-47.89984993052501
 10
109.53178054130686
 20
-51.62599180806369
 10
112.60354794012602
 20
-55.43948879149456
 10
115.3856519474331
 20
-59.38647634610151
 10
117.9452258469178
 20
-63.432858704813846
 10
120.37366609091676
 20
-67.5341002117605
 10
122.76236913176656
 20
-71.64566521107032
 10
125.20273142180382
 20
-75.72301804687226
 10
127.78614941336517
 20
-79.72162306329511
 10
130.59547467296682
 20
-83.60112995088026
 10
133.6188071825226
 20
-87.36759840645985
 10
136.78522482720936
 20
-91.0559975735248
 10
140.02291230276046
 20
-94.7017340861668
 10
143.26005430490954
 20
-98.3402145784775
 10
146.42483552938995
 20
-102.00684568454862
 10
149.44544067193536
 20
-105.73703403847186
 10
152.2500544282792
 20
-109.56618627433893
 10
154.76686149415508
 20
-113.52970902624148
 10
156.9240465652964
 20
-117.66300892827121
 10
158.66967515930128
 20
-121.99268136113041
 10
160.0743798475401
 20
-126.49099953638073
 10
161.25545945112742
 20
-131.10955401201798
 10
162.33030410369085
 20
-135.79989487599624
 10
163.41630393885808
 20
-140.51357221626938
 10
164.63084909025676
 20
-145.20213612079166
 10
166.0912718229856
 20
-149.8171557705641
 10
167.84466454756284
 20
-154.33337516848155
 10
169.73142721520836
 20
-158.79373408691472
 10
171.55413078636624
 20
-163.25365353312407
 10
173.1153462214808
 20
-167.76855451437007
 10
174.21764448099623
 20
-172.39385803791322
 10
174.66364106229787
 20
-177.18481773485934
 10
174.2845765472249
 20
-182.08911010057977
 10
172.98946973144302
 20
-186.7621100486093
 10
170.70167164106172
 20
-190.8123180277375
 10
167.44982223187992
 20
-194.04226089239148
 10
163.44618184996526
 20
-196.59284109289948
 10
158.92146047694342
 20
-198.63896006203933
 10
154.1063680944402
 20
-200.35551923258896
 10
149.2304926529432
 20
-201.91702811520497
 10
144.4573149971248
 20
-203.47490520615744
 10
139.8485424086339
 20
-205.1450198004785
 10
135.45720788845847
 20
-207.04021129290317
 10
131.3363444375863
 20
-209.27331907816657
 10
127.53898505700525
 20
-211.95718255100377
 10
124.10408373438088
 20
-215.18247848667824
 10
120.89149350904016
 20
-218.75795011339562
 10
117.63774159238646
 20
-222.29820607530235
 10
114.09959405608147
 20
-225.44721764253038
 10
110.23769685462202
 20
-228.14744665735515
 10
106.12050818897822
 20
-230.49919760295626
 10
101.81746546480515
 20
-232.6042085682353
 10
97.39800608775782
 20
-234.5642176420939
 10
92.93156746349126
 20
-236.48096291343342
 10
88.48758699766049
 20
-238.45618247115553
 10
84.13532965454044
 20
-240.5913277896275
 10
79.90848384098847
 20
-242.92871860562315
 10
75.7618384079479
 20
-245.37953583374832
 10
71.63958003098097
 20
-247.8373385303384
 10
67.48589538565005
 20
-250.1956857517294
 10
63.24498662897132
 20
-252.34816805084594
 10
58.88099290420958
 20
-254.22893722716768
 10
54.4171025630918
 20
-255.89227905997484
 10
49.88738456080059
 20
-257.41461561504155
 10
45.325907852518476
 20
-258.8723689581419
 10
40.766741393428006
 20
-260.3419611550499
 10
36.243954138711715
 20
-261.89981427153947
 10
31.791615043552163
 20
-263.6223503733849
 10
27.4437930631319
 20
-265.5859915263601
 10
23.234557152633474
 20
-267.8671597962393
 10
19.19797626723942
 20
-270.54227724879627
 10
15.368119362132294
 20
-273.6877659498054
 10
11.779022948405373
 20
-277.3798934033906
 10
8.421383701453948
 20
-281.4884587964466
 10
5.1570285652819035
 20
-285.2693338250582
 10
1.8239408399758688
 20
-287.86480052912157
 10
-1.7252594178051006
 20
-288.5062273814589
 10
-5.503066337006246
 20
-287.24596365056175
 10
-9.449213239207133
 20
-284.5792163345671
 10
-13.502726026423517
 20
-281.00549813179884
 10
-17.602630600671347
 20
-277.02432174058066
 10
-21.68805695409876
 20
-273.1352204900675
 10
-25.742399882810677
 20
-269.8465010646232
 10
-29.86146016971864
 20
-267.68606350497487
 10
-34.11384968388988
 20
-266.92109596334103
 10
-38.48685542459094
 20
-267.3404303672678
 10
-42.95919686999386
 20
-268.68250413330327
 10
-47.509593498270746
 20
-270.6857546779957
 10
-52.11676478759365
 20
-273.0886194178934
 10
-56.75943021613464
 20
-275.6295357695447
 10
-61.416333718347865
 20
-278.0473250728443
 10
-66.07165629319327
 20
-280.16616162502214
 10
-70.72183607244926
 20
-282.00263651979475
 10
-75.364989414465
 20
-283.5996862438288
 10
-79.99923267758977
 20
-285.00024728379145
 10
-84.62268222017279
 20
-286.24725612634944
 10
-89.23345440056328
 20
-287.3836492581697
 10
-93.82966557711049
 20
-288.4523631659192
 10
-98.40943210816363
 20
-289.4963343362649
 10
-102.97087035207196
 20
-290.5584992558735
 10
-107.51209666718474
 20
-291.6817944114123
 10
-112.03122741185112
 20
-292.9091562895478
 10
-116.52637894442039
 20
-294.2835213769472
 10
-120.99566762324186
 20
-295.84782616027724
 10
-125.43720980666461
 20
-297.645007126205
 10
-129.85037973359044
 20
-299.6979243953389
 10
-134.24057076838918
 20
-301.9333700109147
 10
-138.6149745801097
 20
-304.249434226516
 10
-142.98078315831268
 20
-306.54420218021005
 10
-147.34518849255883
 20
-308.71575901006446
 10
-151.71538257240869
 20
-310.6621898541465
 10
-156.0985573874229
 20
-312.2815798505236
 10
-160.50206200688197
 20
-313.47330747893454
 10
-164.9524376225871
 20
-314.29477271186846
 10
-169.51359956080552
 20
-315.11110159599883
 10
-174.25377121142623
 20
-316.3228913273573
 10
-179.23297383183117
 20
-318.3060607874808
 10
-184.33040586543376
 20
-320.8924749466996
 10
-189.24868685410004
 20
-323.38271381237337
 10
-193.68308313975763
 20
-325.055233318585
 10
-197.32886106433443
 20
-325.1884893994175
 10
-199.91563144285774
 20
-323.15608997228
 10
-201.47890824304216
 20
-319.17915316676323
 10
-202.2147210929733
 20
-313.9235086500296
 10
-202.32051863983725
 20
-308.05891750730115
 10
-201.99177070601954
 20
-302.2450160751563
 10
-201.3612127500661
 20
-296.82045741515105
 10
-200.4874603030455
 20
-291.7446565507081
 10
-199.42485308584745
 20
-286.95515112464835
 10
-198.22773081936168
 20
-282.3894787797925
 10
-196.95043322447816
 20
-277.9851771589619
 10
-195.64730002208654
 20
-273.67978390497706
 10
-194.37267093307665
 20
-269.410836660659
 10
-193.18088567833829
 20
-265.1158730688286
 10
-192.12595572050026
 20
-260.7327320813989
 10
-191.2315188014391
 20
-256.22713276576184
 10
-190.46668004627625
 20
-251.61484981683316
 10
-189.79485946240166
 20
-246.9168763135444
 10
-189.17947705720525
 20
-242.1542053348271
 10
-188.58395283807687
 20
-237.34782995961265
 10
-187.97170681240655
 20
-232.51874326683262
 10
-187.30615898758407
 20
-227.68793833541838
 10
-186.55072937099948
 20
-222.8764082443014
 10
-185.66883797004257
 20
-218.10514607241328
 10
-184.6239047921034
 20
-213.39514489868554
 10
-183.37935732249838
 20
-208.7673941106423
 10
-181.91762755571827
 20
-204.2335017009102
 10
-180.2812062438836
 20
-199.77542822859252
 10
-178.52441949633993
 20
-195.36929184145376
 10
-176.70159342243295
 20
-190.99121068725867
 10
-174.8670541315082
 20
-186.6173029137718
 10
-173.07512773291154
 20
-182.2236866687579
 10
-171.37919353402623
 20
-177.7868758479832
 10
-169.7998780250215
 20
-173.29707449835908
 10
-168.31746782424406
 20
-168.76134808481754
 10
-166.9097646581348
 20
-164.1878007171664
 10
-165.55457025313493
 20
-159.58453650521346
 10
-164.2296863356854
 20
-154.95965955876653
 10
-162.91291463222723
 20
-150.32127398763333
 10
-161.57847949788552
 20
-145.6797323824418
 10
-160.15101229255473
 20
-141.07655795848538
 10
-158.51888511806084
 20
-136.5760639182051
 10
-156.56964170230657
 20
-132.24308412089147
 10
-154.19577995111578
 20
-128.13964441597813
 10
-151.44062610861724
 20
-124.24228170450863
 10
-148.52221061880462
 20
-120.4285111884632
 10
-145.6683256247864
 20
-116.57031517460373
 10
-143.10059951608054
 20
-112.54317125530171
 10
-140.86025559851956
 20
-108.32485950528073
 10
-138.78361229097465
 20
-104.0093556083572
 10
-136.69589937665447
 20
-99.69692329151688
 10
-134.42234663876758
 20
-95.48782628174538
 10
-131.78818386052276
 20
-91.48232830602848
 10
-128.68302230251754
 20
-87.74644426751047
 10
-125.34672175255957
 20
-84.15986839768287
 10
-122.13767291324396
 20
-80.53924038836296
 10
-119.41436051966357
 20
-76.70114990917858
 10
-117.528734644306
 20
-72.46529300112472
 10
-116.46965456716559
 20
-67.82396755314771
 10
-115.67925329663697
 20
-63.029367785229795
 10
-114.55446234044175
 20
-58.35517527728523
 10
-112.55500484496667
 20
-54.050202520823476
 10
-109.85158959097424
 20
-50.081670939312964
 10
-107.06477714681859
 20
-46.238634860849686
 10
-104.76335505874907
 20
-42.29341534175354
 10
-103.24500989214486
 20
-37.954256815835265
 10
-102.72945733744956
 20
-32.91097475252527
 10
-103.42510825926517
 20
-26.871559710553147
 10
-105.1899484929777
 20
-20.107789744917508
 10
-107.47233263051974
 20
-13.55048537016061
 10
-109.69738563894457
 20
-8.16784049301451
 10
-111.29023248530547
 20
-4.9280490202112635
 10
-111.67599813665564
 20
-4.799304858482931
 10
-110.49080079242326
 20
-8.283319483833345
 10
-108.41833845425626
 20
-13.56572263343054
 10
-106.46681918045854
 20
-18.114688615561178
 10
-105.5433057541709
 20
-19.658653660240713
 10
-105.7610585297109
 20
-17.968348676578223
 10
-106.85891210304422
 20
-13.777827065818704
 10
-108.5734965416471
 20
-7.826814039522217
 10
-110.64144191299573
 20
-0.8550348092488127
 10
-112.79937828456634
 20
6.397785413441461
 10
-114.78662644105673
 20
13.200520499053306
 10
-116.45590051551554
 20
19.184430487944017
 10
-117.81251472265485
 20
24.468459750436747
 10
-118.87253274609303
 20
29.205906161020764
 10
-119.65201826944863
 20
33.55006759418541
 10
-120.16703497634009
 20
37.654241924419935
 10
-120.43364655038602
 20
41.6717270262137
 10
-120.46791667520475
 20
45.75582077405595
 10
-120.28587771035811
 20
50.05569746508675
 10
-119.90275422239472
 20
54.61419149939889
 10
-119.33291125997775
 20
59.36098818817839
 10
-118.5906721902451
 20
64.22028578215257
 10
-117.69036038033474
 20
69.11628253204879
 10
-116.63708048439925
 20
73.96866628310964
 10
-115.2692785964355
 20
78.61558446544626
 10
-113.28062248311718
 20
82.82434935434226
 10
-110.44315293676537
 20
86.42061631788268
 10
-106.88442807490009
 20
89.48944673068324
 10
-102.82696015434576
 20
92.18518600032975
 10
-98.49326238554748
 20
94.66218023022483
 10
-94.10584521779467
 20
97.07477300196126
 10
-89.83205051579074
 20
99.52692150259459
 10
-85.64243866894839
 20
101.94285909399957
 10
-81.46371358382454
 20
104.20676427594475
 10
-77.22257916697602
 20
106.20281554819867
 10
-72.85072550424803
 20
107.82567630386437
 10
-68.33566737969247
 20
109.08739761352162
 10
-63.69994489254815
 20
110.07368146812678
 10
-58.9666389625111
 20
110.8713670910699
 10
-54.15883050927733
 20
111.56729370574112
 10
-49.29960045254287
 20
112.24830053553048
 10
-44.423940424054095
 20
112.948491850601
 10
-39.62716345775247
 20
113.43489751700689
 10
-35.02363340895807
 20
113.39019944829593
 10
-30.716525749579038
 20
112.5280878805006
 10
-26.71569526561806
 20
110.82099008502874
 10
-22.984640039944157
 20
108.36985999189726
 10
-19.486522805104972
 20
105.27658130941522
 10
-16.18450629364816
 20
101.64303774589192
 10
-13.041753238121352
 20
97.5711130096364
 10
-10.021426371072206
 20
93.16269080895795
 10
-7.086688425048358
 20
88.51965485216566
 10
-4.200702132597355
 20
83.74388884756853
 10
-1.3266302262670333
 20
78.9372765034761
 10
1.572364561395056
 20
74.20170152819733
 10
4.533119497841273
 20
69.63904763004142
 10
7.592471850523972
 20
65.35119851731753
 10
10.787258886895508
 20
61.44003789833479
 10
14.154317874408243
 20
58.00744948140242
 10
17.730486080514527
 20
55.155316974829546
 10
21.552600772666718
 20
52.98552408692538
 10
25.657499218317167
 20
51.599954525999024
 10
30.08115940970617
 20
51.096145279281956
 10
34.7933539746525
 20
51.23672753322412
 10
39.65178918114795
 20
51.217434696331615
 10
44.503971910544685
 20
50.22695451055135
 10
49.21352424193748
 20
48.66367561531055
 10
53.66107135370267
 20
48.20061518287952
 10
57.8041970135062
 20
49.908261133322284
 10
61.848307204340536
 20
52.698325302067765
  0
LWPOLYLINE
  5
32
330
17
100
AcDbEntity
  8
VOID_UPPER_BASS
100
AcDbPolyline
 90
44
 70
1
 10
-50.16
 20
65.504
 10
-56.01975
 20
69.278
 10
-61.8795
 20
73.05199999999999
 10
-67.73925
 20
76.826
 10
-73.599
 20
80.6
 10
-77.56625
 20
76.7145
 10
-81.5335
 20
72.82900000000001
 10
-85.50075000000001
 20
68.9435
 10
-89.468
 20
65.058
 10
-90.6575
 20
60.011250000000004
 10
-91.84700000000001
 20
54.9645
 10
-93.0365
 20
49.917750000000005
 10
-94.226
 20
44.871
 10
-93.83075
 20
39.236000000000004
 10
-93.43549999999999
 20
33.601
 10
-93.04025
 20
27.966
 10
-92.645
 20
22.331
 10
-90.384
 20
16.74825
 10
-88.12299999999999
 20
11.1655
 10
-85.862
 20
5.582750000000001
 10
-83.601
 20
0.0
 10
-79.42075
 20
-8.188
 10
-75.2405
 20
-16.376
 10
-71.06025
 20
-24.564
 10
-66.88
 20
-32.752
 10
-62.699999999999996
 20
-32.752
 10
-58.519999999999996
 20
-32.752
 10
-54.339999999999996
 20
-32.752
 10
-50.16
 20
-32.752
 10
-50.16
 20
-28.658
 10
-50.16
 20
-24.564
 10
-50.16
 20
-20.470000000000002
 10
-50.16
 20
-16.376
 10
-50.16
 20
-8.188
 10
-50.16
 20
0.0
 10
-50.16
 20
8.187999999999999
 10
-50.16
 20
16.376
 10
-50.16
 20
24.564
 10
-50.16
 20
32.751999999999995
 10
-50.16
 20
40.94
 10
-50.16
 20
49.128
 10
-50.16
 20
53.222
 10
-50.16
 20
57.316
 10
-50.16
 20
61.410000000000004
  0
LWPOLYLINE
  5
34
330
17
100
AcDbEntity
  8
VOID_UPPER_TREBLE
100
AcDbPolyline
 90
44
 70
1
 10
66.88
 20
32.752
 10
71.06025
 20
32.752
 10
75.2405
 20
32.752
 10
79.42075
 20
32.752
 10
83.601
 20
32.752
 10
83.601
 20
24.564
 10
83.601
 20
16.376
 10
83.601
 20
8.188000000000002
 10
83.601
 20
0.0
 10
83.601
 20
-8.188
 10
83.601
 20
-16.376
 10
83.601
 20
-24.564
 10
83.601
 20
-32.752
 10
81.511
 20
-32.752
 10
79.42099999999999
 20
-32.752
 10
77.331
 20
-32.752
 10
75.241
 20
-32.752
 10
73.15075
 20
-32.752
 10
71.06049999999999
 20
-32.752
 10
68.97025
 20
-32.752
 10
66.88
 20
-32.752
 10
64.78999999999999
 20
-30.705000000000002
 10
62.7
 20
-28.658
 10
60.61
 20
-26.611
 10
58.52
 20
-24.564
 10
56.43
 20
-22.517
 10
54.34
 20
-20.47
 10
52.25
 20
-18.423000000000002
 10
50.16
 20
-16.376
 10
50.16
 20
-12.282
 10
50.16
 20
-8.188
 10
50.16
 20
-4.094000000000001
 10
50.16
 20
0.0
 10
50.16
 20
4.094
 10
50.16
 20
8.188
 10
50.16
 20
12.282
 10
50.16
 20
16.376
 10
52.25
 20
20.470000000000002
 10
54.34
 20
24.564
 10
56.43
 20
28.658
 10
58.52
 20
32.752
 10
60.61
 20
32.752
 10
62.7
 20
32.752
 10
64.78999999999999
 20
32.752
  0
LWPOLYLINE
  5
36
330
17
100
AcDbEntity
  8
VOID_LOWER_BASS
100
AcDbPolyline
 90
84
 70
1
 10
-97.402
 20
-71.668
 10
-96.8055
 20
-71.8615
 10
-96.209
 20
-72.055
 10
-95.61250000000001
 20
-72.24849999999999
 10
-95.016
 20
-72.442
 10
-98.18900000000001
 20
-79.0445
 10
-101.362
 20
-85.64699999999999
 10
-104.535
 20
-92.2495
 10
-107.708
 20
-98.852
 10
-110.6835
 20
-104.874
 10
-113.65899999999999
 20
-110.896
 10
-116.6345
 20
-116.918
 10
-119.61
 20
-122.94
 10
-123.57725
 20
-129.5425
 10
-127.5445
 20
-136.14499999999998
 10
-131.51175
 20
-142.7475
 10
-135.479
 20
-149.35
 10
-139.04725000000002
 20
-156.92399999999998
 10
-142.6155
 20
-164.498
 10
-146.18375
 20
-172.072
 10
-149.752
 20
-179.646
 10
-150.546
 20
-183.91875
 10
-151.34
 20
-188.1915
 10
-152.13400000000001
 20
-192.46425
 10
-152.928
 20
-196.737
 10
-153.7185
 20
-201.203
 10
-154.50900000000001
 20
-205.66899999999998
 10
-155.2995
 20
-210.135
 10
-156.09
 20
-214.601
 10
-155.8925
 20
-218.48675
 10
-155.695
 20
-222.3725
 10
-155.4975
 20
-226.25825
 10
-155.3
 20
-230.144
 10
-150.9375
 20
-228.20125000000002
 10
-146.575
 20
-226.2585
 10
-142.2125
 20
-224.31574999999998
 10
-137.85
 20
-222.373
 10
-133.4875
 20
-221.982
 10
-129.125
 20
-221.591
 10
-124.7625
 20
-221.2
 10
-120.4
 20
-220.809
 10
-115.04575
 20
-218.67275
 10
-109.6915
 20
-216.5365
 10
-104.33725000000001
 20
-214.40025
 10
-98.983
 20
-212.264
 10
-93.036
 20
-209.3535
 10
-87.089
 20
-206.443
 10
-81.142
 20
-203.53250000000003
 10
-75.195
 20
-200.622
 10
-71.62674999999999
 20
-198.09500000000003
 10
-68.0585
 20
-195.568
 10
-64.49025
 20
-193.041
 10
-60.922
 20
-190.514
 10
-59.72875
 20
-179.83225000000002
 10
-58.5355
 20
-169.15050000000002
 10
-57.34225
 20
-158.46875
 10
-56.149
 20
-147.787
 10
-57.34225
 20
-139.048
 10
-58.5355
 20
-130.309
 10
-59.72875
 20
-121.57000000000001
 10
-60.922
 20
-112.831
 10
-60.922
 20
-106.422
 10
-60.922
 20
-100.013
 10
-60.922
 20
-93.604
 10
-60.922
 20
-87.195
 10
-60.522999999999996
 20
-84.28075
 10
-60.123999999999995
 20
-81.3665
 10
-59.725
 20
-78.45224999999999
 10
-59.326
 20
-75.538
 10
-58.93075
 20
-73.59899999999999
 10
-58.5355
 20
-71.66
 10
-58.140249999999995
 20
-69.721
 10
-57.745
 20
-67.782
 10
-58.539249999999996
 20
-65.64574999999999
 10
-59.3335
 20
-63.5095
 10
-60.12775
 20
-61.37325
 10
-60.922
 20
-59.237
 10
-65.2845
 20
-57.487750000000005
 10
-69.64699999999999
 20
-55.7385
 10
-74.0095
 20
-53.98925
 10
-78.372
 20
-52.24
 10
-83.12950000000001
 20
-57.097
 10
-87.887
 20
-61.95400000000001
 10
-92.6445
 20
-66.811
  0
LINE
  5
38
330
17
100
AcDbEntity
  8
CENTERLINE
100
AcDbLine
 10
0.0
 20
0.0
 30
0.0
 11
0.0
 21
-662.488
 31
0.0
  0
LWPOLYLINE
  5
3A
330
17
100
AcDbEntity
  8
NECK_POCKET
100
AcDbPolyline
 90
37
 70
1
 10
-57.912
 20
-168.227
 10
-57.727
 20
-170.071
 10
-57.178
 20
-171.845
 10
-56.286
 20
-173.479
 10
-55.085
 20
-174.912
 10
-53.623
 20
-176.087
 10
-51.954
 20
-176.961
 10
-50.143
 20
-177.499
 10
-48.26
 20
-177.681
 10
48.26
 20
-177.681
 10
50.143
 20
-177.499
 10
51.954
 20
-176.961
 10
53.623
 20
-176.087
 10
55.085
 20
-174.912
 10
56.286
 20
-173.479
 10
57.178
 20
-171.845
 10
57.727
 20
-170.071
 10
57.912
 20
-168.227
 10
57.912
 20
-103.914
 10
57.727
 20
-102.07
 10
57.178
 20
-100.296
 10
56.286
 20
-98.662
 10
55.085
 20
-97.229
 10
53.623
 20
-96.054
 10
51.954
 20
-95.18
 10
50.143
 20
-94.642
 10
48.26
 20
-94.46
 10
-48.26
 20
-94.46
 10
-50.143
 20
-94.642
 10
-51.954
 20
-95.18
 10
-53.623
 20
-96.054
 10
-55.085
 20
-97.229
 10
-56.286
 20
-98.662
 10
-57.178
 20
-100.296
 10
-57.727
 20
-102.07
 10
-57.912
 20
-103.914
 10
-57.912
 20
-168.227
  0
LWPOLYLINE
  5
3C
330
17
100
AcDbEntity
  8
PICKUP_NECK
100
AcDbPolyline
 90
37
 70
1
 10
-69.921
 20
-274.821
 10
-69.833
 20
-275.692
 10
-69.573
 20
-276.53
 10
-69.152
 20
-277.302
 10
-68.585
 20
-277.979
 10
-67.894
 20
-278.534
 10
-67.106
 20
-278.947
 10
-66.25
 20
-279.201
 10
-65.36
 20
-279.287
 10
65.36
 20
-279.287
 10
66.25
 20
-279.201
 10
67.106
 20
-278.947
 10
67.894
 20
-278.534
 10
68.585
 20
-277.979
 10
69.152
 20
-277.302
 10
69.573
 20
-276.53
 10
69.833
 20
-275.692
 10
69.921
 20
-274.821
 10
69.921
 20
-224.204
 10
69.833
 20
-223.332
 10
69.573
 20
-222.495
 10
69.152
 20
-221.722
 10
68.585
 20
-221.046
 10
67.894
 20
-220.49
 10
67.106
 20
-220.077
 10
66.25
 20
-219.823
 10
65.36
 20
-219.737
 10
-65.36
 20
-219.737
 10
-66.25
 20
-219.823
 10
-67.106
 20
-220.077
 10
-67.894
 20
-220.49
 10
-68.585
 20
-221.046
 10
-69.152
 20
-221.722
 10
-69.573
 20
-222.495
 10
-69.833
 20
-223.332
 10
-69.921
 20
-224.204
 10
-69.921
 20
-274.821
  0
LWPOLYLINE
  5
3E
330
17
100
AcDbEntity
  8
PICKUP_BRIDGE
100
AcDbPolyline
 90
37
 70
1
 10
-69.921
 20
-463.89
 10
-69.833
 20
-464.762
 10
-69.573
 20
-465.599
 10
-69.152
 20
-466.372
 10
-68.585
 20
-467.048
 10
-67.894
 20
-467.604
 10
-67.106
 20
-468.016
 10
-66.25
 20
-468.271
 10
-65.36
 20
-468.356
 10
65.36
 20
-468.356
 10
66.25
 20
-468.271
 10
67.106
 20
-468.016
 10
67.894
 20
-467.604
 10
68.585
 20
-467.048
 10
69.152
 20
-466.372
 10
69.573
 20
-465.599
 10
69.833
 20
-464.762
 10
69.921
 20
-463.89
 10
69.921
 20
-413.273
 10
69.833
 20
-412.402
 10
69.573
 20
-411.564
 10
69.152
 20
-410.792
 10
68.585
 20
-410.115
 10
67.894
 20
-409.56
 10
67.106
 20
-409.147
 10
66.25
 20
-408.893
 10
65.36
 20
-408.807
 10
-65.36
 20
-408.807
 10
-66.25
 20
-408.893
 10
-67.106
 20
-409.147
 10
-67.894
 20
-409.56
 10
-68.585
 20
-410.115
 10
-69.152
 20
-410.792
 10
-69.573
 20
-411.564
 10
-69.833
 20
-412.402
 10
-69.921
 20
-413.273
 10
-69.921
 20
-463.89
  0
LWPOLYLINE
  5
40
330
17
100
AcDbEntity
  8
REAR_ELECTRONICS
100
AcDbPolyline
 90
37
 70
1
 10
-16.264
 20
-449.896
 10
-16.089
 20
-451.639
 10
-15.57
 20
-453.314
 10
-14.727
 20
-454.859
 10
-13.593
 20
-456.212
 10
-12.211
 20
-457.323
 10
-10.634
 20
-458.149
 10
-8.923
 20
-458.657
 10
-7.144
 20
-458.829
 10
119.017
 20
-458.829
 10
120.796
 20
-458.657
 10
122.507
 20
-458.149
 10
124.084
 20
-457.323
 10
125.466
 20
-456.212
 10
126.6
 20
-454.859
 10
127.443
 20
-453.314
 10
127.962
 20
-451.639
 10
128.137
 20
-449.896
 10
128.137
 20
-370.993
 10
127.962
 20
-369.25
 10
127.443
 20
-367.575
 10
126.6
 20
-366.031
 10
125.466
 20
-364.677
 10
124.084
 20
-363.566
 10
122.507
 20
-362.741
 10
120.796
 20
-362.232
 10
119.017
 20
-362.061
 10
-7.144
 20
-362.061
 10
-8.923
 20
-362.232
 10
-10.634
 20
-362.741
 10
-12.211
 20
-363.566
 10
-13.593
 20
-364.677
 10
-14.727
 20
-366.031
 10
-15.57
 20
-367.575
 10
-16.089
 20
-369.25
 10
-16.264
 20
-370.993
 10
-16.264
 20
-449.896
  0
CIRCLE
  5
41
330
17
100
AcDbEntity
  8
REAR_ELECTRONICS
100
AcDbCircle
 10
-7.144
 20
-449.896
 30
0.0
 40
2.106
  0
CIRCLE
  5
42
330
17
100
AcDbEntity
  8
REAR_ELECTRONICS
100
AcDbCircle
 10
119.017
 20
-449.896
 30
0.0
 40
2.106
  0
CIRCLE
  5
43
330
17
100
AcDbEntity
  8
REAR_ELECTRONICS
100
AcDbCircle
 10
-7.144
 20
-370.993
 30
0.0
 40
2.106
  0
CIRCLE
  5
44
330
17
100
AcDbEntity
  8
REAR_ELECTRONICS
100
AcDbCircle
 10
119.017
 20
-370.993
 30
0.0
 40
2.106
  0
LWPOLYLINE
  5
46
330
17
100
AcDbEntity
  8
ARDUINO_POCKET
100
AcDbPolyline
 90
37
 70
1
 10
-4.864
 20
-237.453
 10
-4.747
 20
-238.615
 10
-4.401
 20
-239.732
 10
-3.839
 20
-240.762
 10
-3.083
 20
-241.664
 10
-2.162
 20
-242.405
 10
-1.111
 20
-242.955
 10
0.03
 20
-243.294
 10
1.216
 20
-243.408
 10
110.657
 20
-243.408
 10
111.843
 20
-243.294
 10
112.984
 20
-242.955
 10
114.035
 20
-242.405
 10
114.956
 20
-241.664
 10
115.712
 20
-240.762
 10
116.274
 20
-239.732
 10
116.62
 20
-238.615
 10
116.737
 20
-237.453
 10
116.737
 20
-160.039
 10
116.62
 20
-158.877
 10
116.274
 20
-157.76
 10
115.712
 20
-156.731
 10
114.956
 20
-155.828
 10
114.035
 20
-155.088
 10
112.984
 20
-154.538
 10
111.843
 20
-154.199
 10
110.657
 20
-154.084
 10
1.216
 20
-154.084
 10
0.03
 20
-154.199
 10
-1.111
 20
-154.538
 10
-2.162
 20
-155.088
 10
-3.083
 20
-155.828
 10
-3.839
 20
-156.731
 10
-4.401
 20
-157.76
 10
-4.747
 20
-158.877
 10
-4.864
 20
-160.039
 10
-4.864
 20
-237.453
  0
LWPOLYLINE
  5
48
330
17
100
AcDbEntity
  8
ANTENNA_RECESS
100
AcDbPolyline
 90
37
 70
1
 10
-4.256
 20
-319.483
 10
-4.168
 20
-320.354
 10
-3.909
 20
-321.192
 10
-3.488
 20
-321.964
 10
-2.92
 20
-322.641
 10
-2.229
 20
-323.196
 10
-1.441
 20
-323.609
 10
-0.586
 20
-323.863
 10
0.304
 20
-323.949
 10
67.184
 20
-323.949
 10
68.074
 20
-323.863
 10
68.93
 20
-323.609
 10
69.718
 20
-323.196
 10
70.409
 20
-322.641
 10
70.976
 20
-321.964
 10
71.397
 20
-321.192
 10
71.657
 20
-320.354
 10
71.745
 20
-319.483
 10
71.745
 20
-283.753
 10
71.657
 20
-282.882
 10
71.397
 20
-282.044
 10
70.976
 20
-281.272
 10
70.409
 20
-280.595
 10
69.718
 20
-280.04
 10
68.93
 20
-279.627
 10
68.074
 20
-279.373
 10
67.184
 20
-279.287
 10
0.304
 20
-279.287
 10
-0.586
 20
-279.373
 10
-1.441
 20
-279.627
 10
-2.229
 20
-280.04
 10
-2.92
 20
-280.595
 10
-3.488
 20
-281.272
 10
-3.909
 20
-282.044
 10
-4.168
 20
-282.882
 10
-4.256
 20
-283.753
 10
-4.256
 20
-319.483
  0
CIRCLE
  5
4A
330
17
100
AcDbEntity
  8
BRIDGE_MOUNTING
100
AcDbCircle
 10
-60.8
 20
-502.449
 30
0.0
 40
2.633
  0
CIRCLE
  5
4B
330
17
100
AcDbEntity
  8
BRIDGE_MOUNTING
100
AcDbCircle
 10
-60.8
 20
-450.343
 30
0.0
 40
2.633
  0
CIRCLE
  5
4C
330
17
100
AcDbEntity
  8
BRIDGE_MOUNTING
100
AcDbCircle
 10
60.8
 20
-502.449
 30
0.0
 40
2.633
  0
CIRCLE
  5
4D
330
17
100
AcDbEntity
  8
BRIDGE_MOUNTING
100
AcDbCircle
 10
60.8
 20
-450.343
 30
0.0
 40
2.633
  0
LWPOLYLINE
  5
4E
330
17
100
AcDbEntity
  8
BRIDGE_MOUNTING
100
AcDbPolyline
 90
37
 70
1
 10
-72.201
 20
-502.932
 10
-72.108
 20
-503.855
 10
-71.833
 20
-504.741
 10
-71.387
 20
-505.558
 10
-70.787
 20
-506.275
 10
-70.056
 20
-506.863
 10
-69.221
 20
-507.299
 10
-68.316
 20
-507.568
 10
-67.375
 20
-507.659
 10
67.375
 20
-507.659
 10
68.316
 20
-507.568
 10
69.221
 20
-507.299
 10
70.056
 20
-506.863
 10
70.787
 20
-506.275
 10
71.387
 20
-505.558
 10
71.833
 20
-504.741
 10
72.108
 20
-503.855
 10
72.201
 20
-502.932
 10
72.201
 20
-449.859
 10
72.108
 20
-448.937
 10
71.833
 20
-448.05
 10
71.387
 20
-447.233
 10
70.787
 20
-446.517
 10
70.056
 20
-445.929
 10
69.221
 20
-445.492
 10
68.316
 20
-445.223
 10
67.375
 20
-445.132
 10
-67.375
 20
-445.132
 10
-68.316
 20
-445.223
 10
-69.221
 20
-445.492
 10
-70.056
 20
-445.929
 10
-70.787
 20
-446.517
 10
-71.387
 20
-447.233
 10
-71.833
 20
-448.05
 10
-72.108
 20
-448.937
 10
-72.201
 20
-449.859
 10
-72.201
 20
-502.932
  0
LWPOLYLINE
  5
50
330
17
100
AcDbEntity
  8
CONTROL_PLATE
100
AcDbPolyline
 90
37
 70
1
 10
7.904
 20
-543.91
 10
8.09
 20
-545.754
 10
8.639
 20
-547.528
 10
9.531
 20
-549.162
 10
10.731
 20
-550.594
 10
12.194
 20
-551.77
 10
13.862
 20
-552.644
 10
15.673
 20
-553.182
 10
17.556
 20
-553.363
 10
150.253
 20
-553.363
 10
152.136
 20
-553.182
 10
153.947
 20
-552.644
 10
155.616
 20
-551.77
 10
157.078
 20
-550.594
 10
158.279
 20
-549.162
 10
159.17
 20
-547.528
 10
159.72
 20
-545.754
 10
159.905
 20
-543.91
 10
159.905
 20
-488.38
 10
159.72
 20
-486.536
 10
159.17
 20
-484.762
 10
158.279
 20
-483.128
 10
157.078
 20
-481.695
 10
155.616
 20
-480.52
 10
153.947
 20
-479.646
 10
152.136
 20
-479.108
 10
150.253
 20
-478.926
 10
17.556
 20
-478.926
 10
15.673
 20
-479.108
 10
13.862
 20
-479.646
 10
12.194
 20
-480.52
 10
10.731
 20
-481.695
 10
9.531
 20
-483.128
 10
8.639
 20
-484.762
 10
8.09
 20
-486.536
 10
7.904
 20
-488.38
 10
7.904
 20
-543.91
  0
CIRCLE
  5
51
330
17
100
AcDbEntity
  8
CONTROL_PLATE
100
AcDbCircle
 10
53.504
 20
-538.476
 30
0.0
 40
7.146
  0
CIRCLE
  5
52
330
17
100
AcDbEntity
  8
CONTROL_PLATE
100
AcDbCircle
 10
114.305
 20
-538.476
 30
0.0
 40
7.146
  0
CIRCLE
  5
53
330
17
100
AcDbEntity
  8
CONTROL_PLATE
100
AcDbCircle
 10
83.905
 20
-493.814
 30
0.0
 40
7.146
  0
LWPOLYLINE
  5
55
330
17
100
AcDbEntity
  8
USB_PORT
100
AcDbPolyline
 90
37
 70
1
 10
323.002
 20
-363.103
 10
323.046
 20
-363.538
 10
323.176
 20
-363.957
 10
323.387
 20
-364.343
 10
323.67
 20
-364.682
 10
324.016
 20
-364.96
 10
324.41
 20
-365.166
 10
324.838
 20
-365.293
 10
325.282
 20
-365.336
 10
331.362
 20
-365.336
 10
331.807
 20
-365.293
 10
332.235
 20
-365.166
 10
332.629
 20
-364.96
 10
332.975
 20
-364.682
 10
333.258
 20
-364.343
 10
333.469
 20
-363.957
 10
333.599
 20
-363.538
 10
333.642
 20
-363.103
 10
333.642
 20
-349.704
 10
333.599
 20
-349.269
 10
333.469
 20
-348.85
 10
333.258
 20
-348.464
 10
332.975
 20
-348.125
 10
332.629
 20
-347.847
 10
332.235
 20
-347.641
 10
331.807
 20
-347.514
 10
331.362
 20
-347.471
 10
325.282
 20
-347.471
 10
324.838
 20
-347.514
 10
324.41
 20
-347.641
 10
324.016
 20
-347.847
 10
323.67
 20
-348.125
 10
323.387
 20
-348.464
 10
323.176
 20
-348.85
 10
323.046
 20
-349.269
 10
323.002
 20
-349.704
 10
323.002
 20
-363.103
  0
CIRCLE
  5
57
330
17
100
AcDbEntity
  8
OUTPUT_JACK
100
AcDbCircle
 10
167.809
 20
-582.394
 30
0.0
 40
9.553
  0
LINE
  5
59
330
17
100
AcDbEntity
  8
WIRING_CHANNEL
100
AcDbLine
 10
0.0
 20
-249.512
 30
0.0
 11
67.489
 21
-198.449
 31
0.0
  0
LINE
  5
5A
330
17
100
AcDbEntity
  8
WIRING_CHANNEL
100
AcDbLine
 10
67.489
 20
-198.449
 30
0.0
 11
67.489
 21
-410.296
 31
0.0
  0
LINE
  5
5B
330
17
100
AcDbEntity
  8
WIRING_CHANNEL
100
AcDbLine
 10
0.0
 20
-438.582
 30
0.0
 11
67.489
 21
-198.449
 31
0.0
  0
ENDSEC
  0
SECTION
  2
OBJECTS
  0
DICTIONARY
  5
A
330
0
100
AcDbDictionary
281
1
  3
ACAD_COLOR
350
B
  3
ACAD_GROUP
350
C
  3
ACAD_LAYOUT
350
D
  3
ACAD_MATERIAL
350
E
  3
ACAD_MLEADERSTYLE
350
F
  3
ACAD_MLINESTYLE
350
10
  3
ACAD_PLOTSETTINGS
350
11
  3
ACAD_PLOTSTYLENAME
350
12
  3
ACAD_SCALELIST
350
14
  3
ACAD_TABLESTYLE
350
15
  3
ACAD_VISUALSTYLE
350
16
  3
EZDXF_META
350
2D
  0
DICTIONARY
  5
B
330
A
100
AcDbDictionary
281
1
  0
DICTIONARY
  5
C
330
A
100
AcDbDictionary
281
1
  0
DICTIONARY
  5
D
330
A
100
AcDbDictionary
281
1
  3
Model
350
1A
  3
Layout1
350
1E
  0
DICTIONARY
  5
E
330
A
100
AcDbDictionary
281
1
  3
ByBlock
350
1F
  3
ByLayer
350
20
  3
Global
350
21
  0
DICTIONARY
  5
F
330
A
100
AcDbDictionary
281
1
  3
Standard
350
2C
  0
DICTIONARY
  5
10
330
A
100
AcDbDictionary
281
1
  3
Standard
350
22
  0
DICTIONARY
  5
11
330
A
100
AcDbDictionary
281
1
  0
ACDBDICTIONARYWDFLT
  5
12
330
A
100
AcDbDictionary
281
1
  3
Normal
350
13
100
AcDbDictionaryWithDefault
340
13
  0
ACDBPLACEHOLDER
  5
13
330
12
  0
DICTIONARY
  5
14
330
A
100
AcDbDictionary
281
1
  0
DICTIONARY
  5
15
330
A
100
AcDbDictionary
281
1
  0
DICTIONARY
  5
16
330
A
100
AcDbDictionary
281
1
  0
LAYOUT
  5
1A
330
D
100
AcDbPlotSettings
  1

  4
A3
  6

 40
7.5
 41
20.0
 42
7.5
 43
20.0
 44
420.0
 45
297.0
 46
0.0
 47
0.0
 48
0.0
 49
0.0
140
0.0
141
0.0
142
1.0
143
1.0
 70
1024
 72
1
 73
0
 74
5
  7

 75
16
 76
0
 77
2
 78
300
147
1.0
148
0.0
149
0.0
100
AcDbLayout
  1
Model
 70
1
 71
0
 10
0.0
 20
0.0
 11
420.0
 21
297.0
 12
0.0
 22
0.0
 32
0.0
 14
1e+20
 24
1e+20
 34
1e+20
 15
-1e+20
 25
-1e+20
 35
-1e+20
146
0.0
 13
0.0
 23
0.0
 33
0.0
 16
1.0
 26
0.0
 36
0.0
 17
0.0
 27
1.0
 37
0.0
 76
1
330
17
  0
LAYOUT
  5
1E
330
D
100
AcDbPlotSettings
  1

  4
A3
  6

 40
7.5
 41
20.0
 42
7.5
 43
20.0
 44
420.0
 45
297.0
 46
0.0
 47
0.0
 48
0.0
 49
0.0
140
0.0
141
0.0
142
1.0
143
1.0
 70
0
 72
1
 73
0
 74
5
  7

 75
16
 76
0
 77
2
 78
300
147
1.0
148
0.0
149
0.0
100
AcDbLayout
  1
Layout1
 70
1
 71
1
 10
0.0
 20
0.0
 11
420.0
 21
297.0
 12
0.0
 22
0.0
 32
0.0
 14
1e+20
 24
1e+20
 34
1e+20
 15
-1e+20
 25
-1e+20
 35
-1e+20
146
0.0
 13
0.0
 23
0.0
 33
0.0
 16
1.0
 26
0.0
 36
0.0
 17
0.0
 27
1.0
 37
0.0
 76
1
330
1B
  0
MATERIAL
  5
1F
102
{ACAD_REACTORS
330
E
102
}
330
E
100
AcDbMaterial
  1
ByBlock
  2

 70
0
 40
1.0
 71
1
 41
1.0
 91
-1023410177
 42
1.0
 72
1
  3

 73
1
 74
1
 75
1
 44
0.5
 73
0
 45
1.0
 46
1.0
 77
1
  4

 78
1
 79
1
170
1
 48
1.0
171
1
  6

172
1
173
1
174
1
140
1.0
141
1.0
175
1
  7

176
1
177
1
178
1
143
1.0
179
1
  8

270
1
271
1
272
1
145
1.0
146
1.0
273
1
  9

274
1
275
1
276
1
 42
1.0
 72
1
  3

 73
1
 74
1
 75
1
 94
63
  0
MATERIAL
  5
20
102
{ACAD_REACTORS
330
E
102
}
330
E
100
AcDbMaterial
  1
ByLayer
  2

 70
0
 40
1.0
 71
1
 41
1.0
 91
-1023410177
 42
1.0
 72
1
  3

 73
1
 74
1
 75
1
 44
0.5
 73
0
 45
1.0
 46
1.0
 77
1
  4

 78
1
 79
1
170
1
 48
1.0
171
1
  6

172
1
173
1
174
1
140
1.0
141
1.0
175
1
  7

176
1
177
1
178
1
143
1.0
179
1
  8

270
1
271
1
272
1
145
1.0
146
1.0
273
1
  9

274
1
275
1
276
1
 42
1.0
 72
1
  3

 73
1
 74
1
 75
1
 94
63
  0
MATERIAL
  5
21
102
{ACAD_REACTORS
330
E
102
}
330
E
100
AcDbMaterial
  1
Global
  2

 70
0
 40
1.0
 71
1
 41
1.0
 91
-1023410177
 42
1.0
 72
1
  3

 73
1
 74
1
 75
1
 44
0.5
 73
0
 45
1.0
 46
1.0
 77
1
  4

 78
1
 79
1
170
1
 48
1.0
171
1
  6

172
1
173
1
174
1
140
1.0
141
1.0
175
1
  7

176
1
177
1
178
1
143
1.0
179
1
  8

270
1
271
1
272
1
145
1.0
146
1.0
273
1
  9

274
1
275
1
276
1
 42
1.0
 72
1
  3

 73
1
 74
1
 75
1
 94
63
  0
MLINESTYLE
  5
22
102
{ACAD_REACTORS
330
10
102
}
330
10
100
AcDbMlineStyle
  2
Standard
 70
0
  3

 62
256
 51
90.0
 52
90.0
 71
2
 49
0.5
 62
256
  6
BYLAYER
 49
-0.5
 62
256
  6
BYLAYER
  0
MLEADERSTYLE
  5
2C
102
{ACAD_REACTORS
330
F
102
}
330
F
100
AcDbMLeaderStyle
179
2
170
2
171
1
172
0
 90
2
 40
0.0
 41
0.0
173
1
 91
-1056964608
 92
-2
290
1
 42
2.0
291
1
 43
8.0
  3
Standard
 44
4.0
300

342
29
174
1
175
1
176
0
178
1
 93
-1056964608
 45
4.0
292
0
297
0
 46
4.0
 94
-1056964608
 47
1.0
 49
1.0
140
1.0
294
1
141
0.0
177
0
142
1.0
295
0
296
0
143
3.75
271
0
272
9
273
9
  0
DICTIONARY
  5
2D
330
A
100
AcDbDictionary
280
1
281
1
  3
CREATED_BY_EZDXF
350
2E
  3
WRITTEN_BY_EZDXF
350
5E
  0
DICTIONARYVAR
  5
2E
330
2D
100
DictionaryVariables
280
0
  1
1.4.3 @ 2026-04-01T06:55:13.317789+00:00
  0
DICTIONARYVAR
  5
5E
330
2D
100
DictionaryVariables
280
0
  1
1.4.3 @ 2026-04-01T06:55:13.343217+00:00
  0
ENDSEC
  0
EOF
