  0
SECTION
  2
HEADER
  9
$ACADVER
  1
AC1015
  9
$ACADMAINTVER
 70
6
  9
$DWGCODEPAGE
  3
ANSI_1252
  9
$INSBASE
 10
0.0
 20
0.0
 30
0.0
  9
$EXTMIN
 10
1e+20
 20
1e+20
 30
1e+20
  9
$EXTMAX
 10
-1e+20
 20
-1e+20
 30
-1e+20
  9
$LIMMIN
 10
0.0
 20
0.0
  9
$LIMMAX
 10
420.0
 20
297.0
  9
$ORTHOMODE
 70
0
  9
$REGENMODE
 70
1
  9
$FILLMODE
 70
1
  9
$QTEXTMODE
 70
0
  9
$MIRRTEXT
 70
1
  9
$LTSCALE
 40
1.0
  9
$ATTMODE
 70
1
  9
$TEXTSIZE
 40
2.5
  9
$TRACEWID
 40
1.0
  9
$TEXTSTYLE
  7
Standard
  9
$CLAYER
  8
0
  9
$CELTYPE
  6
ByLayer
  9
$CECOLOR
 62
256
  9
$CELTSCALE
 40
1.0
  9
$DISPSILH
 70
0
  9
$DIMSCALE
 40
1.0
  9
$DIMASZ
 40
2.5
  9
$DIMEXO
 40
0.625
  9
$DIMDLI
 40
3.75
  9
$DIMRND
 40
0.0
  9
$DIMDLE
 40
0.0
  9
$DIMEXE
 40
1.25
  9
$DIMTP
 40
0.0
  9
$DIMTM
 40
0.0
  9
$DIMTXT
 40
2.5
  9
$DIMCEN
 40
2.5
  9
$DIMTSZ
 40
0.0
  9
$DIMTOL
 70
0
  9
$DIMLIM
 70
0
  9
$DIMTIH
 70
0
  9
$DIMTOH
 70
0
  9
$DIMSE1
 70
0
  9
$DIMSE2
 70
0
  9
$DIMTAD
 70
1
  9
$DIMZIN
 70
8
  9
$DIMBLK
  1

  9
$DIMASO
 70
1
  9
$DIMSHO
 70
1
  9
$DIMPOST
  1

  9
$DIMAPOST
  1

  9
$DIMALT
 70
0
  9
$DIMALTD
 70
3
  9
$DIMALTF
 40
0.03937007874
  9
$DIMLFAC
 40
1.0
  9
$DIMTOFL
 70
1
  9
$DIMTVP
 40
0.0
  9
$DIMTIX
 70
0
  9
$DIMSOXD
 70
0
  9
$DIMSAH
 70
0
  9
$DIMBLK1
  1

  9
$DIMBLK2
  1

  9
$DIMSTYLE
  2
ISO-25
  9
$DIMCLRD
 70
0
  9
$DIMCLRE
 70
0
  9
$DIMCLRT
 70
0
  9
$DIMTFAC
 40
1.0
  9
$DIMGAP
 40
0.625
  9
$DIMJUST
 70
0
  9
$DIMSD1
 70
0
  9
$DIMSD2
 70
0
  9
$DIMTOLJ
 70
0
  9
$DIMTZIN
 70
8
  9
$DIMALTZ
 70
0
  9
$DIMALTTZ
 70
0
  9
$DIMUPT
 70
0
  9
$DIMDEC
 70
2
  9
$DIMTDEC
 70
2
  9
$DIMALTU
 70
2
  9
$DIMALTTD
 70
3
  9
$DIMTXSTY
  7
Standard
  9
$DIMAUNIT
 70
0
  9
$DIMADEC
 70
0
  9
$DIMALTRND
 40
0.0
  9
$DIMAZIN
 70
0
  9
$DIMDSEP
 70
44
  9
$DIMATFIT
 70
3
  9
$DIMFRAC
 70
0
  9
$DIMLDRBLK
  1

  9
$DIMLUNIT
 70
2
  9
$DIMLWD
 70
-2
  9
$DIMLWE
 70
-2
  9
$DIMTMOVE
 70
0
  9
$LUNITS
 70
2
  9
$LUPREC
 70
4
  9
$SKETCHINC
 40
1.0
  9
$FILLETRAD
 40
10.0
  9
$AUNITS
 70
0
  9
$AUPREC
 70
2
  9
$MENU
  1
.
  9
$ELEVATION
 40
0.0
  9
$PELEVATION
 40
0.0
  9
$THICKNESS
 40
0.0
  9
$LIMCHECK
 70
0
  9
$CHAMFERA
 40
0.0
  9
$CHAMFERB
 40
0.0
  9
$CHAMFERC
 40
0.0
  9
$CHAMFERD
 40
0.0
  9
$SKPOLY
 70
0
  9
$TDCREATE
 40
2461021.43369213
  9
$TDUCREATE
 40
2458532.153996898
  9
$TDUPDATE
 40
2461021.43369213
  9
$TDUUPDATE
 40
2458532.1544311
  9
$TDINDWG
 40
0.0
  9
$TDUSRTIMER
 40
0.0
  9
$USRTIMER
 70
1
  9
$ANGBASE
 50
0.0
  9
$ANGDIR
 70
0
  9
$PDMODE
 70
0
  9
$PDSIZE
 40
0.0
  9
$PLINEWID
 40
0.0
  9
$SPLFRAME
 70
0
  9
$SPLINETYPE
 70
6
  9
$SPLINESEGS
 70
8
  9
$HANDSEED
  5
33
  9
$SURFTAB1
 70
6
  9
$SURFTAB2
 70
6
  9
$SURFTYPE
 70
6
  9
$SURFU
 70
6
  9
$SURFV
 70
6
  9
$UCSBASE
  2

  9
$UCSNAME
  2

  9
$UCSORG
 10
0.0
 20
0.0
 30
0.0
  9
$UCSXDIR
 10
1.0
 20
0.0
 30
0.0
  9
$UCSYDIR
 10
0.0
 20
1.0
 30
0.0
  9
$UCSORTHOREF
  2

  9
$UCSORTHOVIEW
 70
0
  9
$UCSORGTOP
 10
0.0
 20
0.0
 30
0.0
  9
$UCSORGBOTTOM
 10
0.0
 20
0.0
 30
0.0
  9
$UCSORGLEFT
 10
0.0
 20
0.0
 30
0.0
  9
$UCSORGRIGHT
 10
0.0
 20
0.0
 30
0.0
  9
$UCSORGFRONT
 10
0.0
 20
0.0
 30
0.0
  9
$UCSORGBACK
 10
0.0
 20
0.0
 30
0.0
  9
$PUCSBASE
  2

  9
$PUCSNAME
  2

  9
$PUCSORG
 10
0.0
 20
0.0
 30
0.0
  9
$PUCSXDIR
 10
1.0
 20
0.0
 30
0.0
  9
$PUCSYDIR
 10
0.0
 20
1.0
 30
0.0
  9
$PUCSORTHOREF
  2

  9
$PUCSORTHOVIEW
 70
0
  9
$PUCSORGTOP
 10
0.0
 20
0.0
 30
0.0
  9
$PUCSORGBOTTOM
 10
0.0
 20
0.0
 30
0.0
  9
$PUCSORGLEFT
 10
0.0
 20
0.0
 30
0.0
  9
$PUCSORGRIGHT
 10
0.0
 20
0.0
 30
0.0
  9
$PUCSORGFRONT
 10
0.0
 20
0.0
 30
0.0
  9
$PUCSORGBACK
 10
0.0
 20
0.0
 30
0.0
  9
$USERI1
 70
0
  9
$USERI2
 70
0
  9
$USERI3
 70
0
  9
$USERI4
 70
0
  9
$USERI5
 70
0
  9
$USERR1
 40
0.0
  9
$USERR2
 40
0.0
  9
$USERR3
 40
0.0
  9
$USERR4
 40
0.0
  9
$USERR5
 40
0.0
  9
$WORLDVIEW
 70
1
  9
$SHADEDGE
 70
3
  9
$SHADEDIF
 70
70
  9
$TILEMODE
 70
1
  9
$MAXACTVP
 70
64
  9
$PINSBASE
 10
0.0
 20
0.0
 30
0.0
  9
$PLIMCHECK
 70
0
  9
$PEXTMIN
 10
1e+20
 20
1e+20
 30
1e+20
  9
$PEXTMAX
 10
-1e+20
 20
-1e+20
 30
-1e+20
  9
$PLIMMIN
 10
0.0
 20
0.0
  9
$PLIMMAX
 10
420.0
 20
297.0
  9
$UNITMODE
 70
0
  9
$VISRETAIN
 70
1
  9
$PLINEGEN
 70
0
  9
$PSLTSCALE
 70
1
  9
$TREEDEPTH
 70
3020
  9
$CMLSTYLE
  2
Standard
  9
$CMLJUST
 70
0
  9
$CMLSCALE
 40
20.0
  9
$PROXYGRAPHICS
 70
1
  9
$MEASUREMENT
 70
1
  9
$CELWEIGHT
370
-1
  9
$ENDCAPS
280
0
  9
$JOINSTYLE
280
0
  9
$LWDISPLAY
290
0
  9
$INSUNITS
 70
6
  9
$HYPERLINKBASE
  1

  9
$STYLESHEET
  1

  9
$XEDIT
290
1
  9
$CEPSNTYPE
380
0
  9
$PSTYLEMODE
290
1
  9
$FINGERPRINTGUID
  2
{8D52B09C-8597-429F-819F-7C0BD70B0097}
  9
$VERSIONGUID
  2
{B8A261BF-055F-4D04-84BE-9E90C6FAEA48}
  9
$EXTNAMES
290
1
  9
$PSVPSCALE
 40
0.0
  9
$OLESTARTUP
290
0
  0
ENDSEC
  0
SECTION
  2
CLASSES
  0
CLASS
  1
ACDBDICTIONARYWDFLT
  2
AcDbDictionaryWithDefault
  3
ObjectDBX Classes
 90
0
280
0
281
0
  0
CLASS
  1
SUN
  2
AcDbSun
  3
SCENEOE
 90
1153
280
0
281
0
  0
CLASS
  1
VISUALSTYLE
  2
AcDbVisualStyle
  3
ObjectDBX Classes
 90
4095
280
0
281
0
  0
CLASS
  1
MATERIAL
  2
AcDbMaterial
  3
ObjectDBX Classes
 90
1153
280
0
281
0
  0
CLASS
  1
SCALE
  2
AcDbScale
  3
ObjectDBX Classes
 90
1153
280
0
281
0
  0
CLASS
  1
TABLESTYLE
  2
AcDbTableStyle
  3
ObjectDBX Classes
 90
4095
280
0
281
0
  0
CLASS
  1
MLEADERSTYLE
  2
AcDbMLeaderStyle
  3
ACDB_MLEADERSTYLE_CLASS
 90
4095
280
0
281
0
  0
CLASS
  1
DICTIONARYVAR
  2
AcDbDictionaryVar
  3
ObjectDBX Classes
 90
0
280
0
281
0
  0
CLASS
  1
CELLSTYLEMAP
  2
AcDbCellStyleMap
  3
ObjectDBX Classes
 90
1152
280
0
281
0
  0
CLASS
  1
MENTALRAYRENDERSETTINGS
  2
AcDbMentalRayRenderSettings
  3
SCENEOE
 90
1024
280
0
281
0
  0
CLASS
  1
ACDBDETAILVIEWSTYLE
  2
AcDbDetailViewStyle
  3
ObjectDBX Classes
 90
1025
280
0
281
0
  0
CLASS
  1
ACDBSECTIONVIEWSTYLE
  2
AcDbSectionViewStyle
  3
ObjectDBX Classes
 90
1025
280
0
281
0
  0
CLASS
  1
RASTERVARIABLES
  2
AcDbRasterVariables
  3
ISM
 90
0
280
0
281
0
  0
CLASS
  1
ACDBPLACEHOLDER
  2
AcDbPlaceHolder
  3
ObjectDBX Classes
 90
0
280
0
281
0
  0
CLASS
  1
LAYOUT
  2
AcDbLayout
  3
ObjectDBX Classes
 90
0
280
0
281
0
  0
ENDSEC
  0
SECTION
  2
TABLES
  0
TABLE
  2
VPORT
  5
8
330
0
100
AcDbSymbolTable
 70
1
  0
VPORT
  5
23
330
8
100
AcDbSymbolTableRecord
100
AcDbViewportTableRecord
  2
*Active
 70
0
 10
0.0
 20
0.0
 11
1.0
 21
1.0
 12
0.0
 22
0.0
 13
0.0
 23
0.0
 14
0.5
 24
0.5
 15
0.5
 25
0.5
 16
0.0
 26
0.0
 36
1.0
 17
0.0
 27
0.0
 37
0.0
 40
1000.0
 41
1.34
 42
50.0
 43
0.0
 44
0.0
 50
0.0
 51
0.0
 71
0
 72
1000
 73
1
 74
3
 75
0
 76
0
 77
0
 78
0
281
0
 65
0
146
0.0
  0
ENDTAB
  0
TABLE
  2
LTYPE
  5
2
330
0
100
AcDbSymbolTable
 70
3
  0
LTYPE
  5
24
330
2
100
AcDbSymbolTableRecord
100
AcDbLinetypeTableRecord
  2
ByBlock
 70
0
  3

 72
65
 73
0
 40
0.0
  0
LTYPE
  5
25
330
2
100
AcDbSymbolTableRecord
100
AcDbLinetypeTableRecord
  2
ByLayer
 70
0
  3

 72
65
 73
0
 40
0.0
  0
LTYPE
  5
26
330
2
100
AcDbSymbolTableRecord
100
AcDbLinetypeTableRecord
  2
Continuous
 70
0
  3

 72
65
 73
0
 40
0.0
  0
ENDTAB
  0
TABLE
  2
LAYER
  5
1
330
0
100
AcDbSymbolTable
 70
2
  0
LAYER
  5
27
330
1
100
AcDbSymbolTableRecord
100
AcDbLayerTableRecord
  2
0
 70
0
 62
7
  6
Continuous
370
-3
390
13
  0
LAYER
  5
28
330
1
100
AcDbSymbolTableRecord
100
AcDbLayerTableRecord
  2
Defpoints
 70
0
 62
7
  6
Continuous
290
0
370
-3
390
13
  0
ENDTAB
  0
TABLE
  2
STYLE
  5
5
330
0
100
AcDbSymbolTable
 70
1
  0
STYLE
  5
29
330
5
100
AcDbSymbolTableRecord
100
AcDbTextStyleTableRecord
  2
Standard
 70
0
 40
0.0
 41
1.0
 50
0.0
 71
0
 42
2.5
  3
txt
  4

  0
ENDTAB
  0
TABLE
  2
VIEW
  5
7
330
0
100
AcDbSymbolTable
 70
0
  0
ENDTAB
  0
TABLE
  2
UCS
  5
6
330
0
100
AcDbSymbolTable
 70
0
  0
ENDTAB
  0
TABLE
  2
APPID
  5
3
330
0
100
AcDbSymbolTable
 70
3
  0
APPID
  5
2A
330
3
100
AcDbSymbolTableRecord
100
AcDbRegAppTableRecord
  2
ACAD
 70
0
  0
APPID
  5
30
330
3
100
AcDbSymbolTableRecord
100
AcDbRegAppTableRecord
  2
HATCHBACKGROUNDCOLOR
 70
0
  0
APPID
  5
31
330
3
100
AcDbSymbolTableRecord
100
AcDbRegAppTableRecord
  2
EZDXF
 70
0
  0
ENDTAB
  0
TABLE
  2
DIMSTYLE
  5
4
330
0
100
AcDbSymbolTable
 70
1
100
AcDbDimStyleTable
  0
DIMSTYLE
105
2B
330
4
100
AcDbSymbolTableRecord
100
AcDbDimStyleTableRecord
  2
Standard
 70
0
  3

  4

 40
1.0
 41
2.5
 42
0.625
 43
3.75
 44
1.25
 45
0.0
 46
0.0
 47
0.0
 48
0.0
140
2.5
141
2.5
142
0.0
143
0.03937007874
144
1.0
145
0.0
146
1.0
147
0.625
148
0.0
 71
0
 72
0
 73
0
 74
0
 75
0
 76
0
 77
1
 78
8
 79
3
170
0
171
3
172
1
173
0
174
0
175
0
176
0
177
0
178
0
179
2
271
2
272
2
273
2
274
3
275
0
276
0
277
2
278
44
279
0
280
0
281
0
282
0
283
0
284
8
285
0
286
0
288
0
289
3
371
-2
372
-2
  0
ENDTAB
  0
TABLE
  2
BLOCK_RECORD
  5
9
330
0
100
AcDbSymbolTable
 70
2
  0
BLOCK_RECORD
  5
17
330
9
100
AcDbSymbolTableRecord
100
AcDbBlockTableRecord
  2
*Model_Space
340
1A
  0
BLOCK_RECORD
  5
1B
330
9
100
AcDbSymbolTableRecord
100
AcDbBlockTableRecord
  2
*Paper_Space
340
1E
  0
ENDTAB
  0
ENDSEC
  0
SECTION
  2
BLOCKS
  0
BLOCK
  5
18
330
17
100
AcDbEntity
  8
0
100
AcDbBlockBegin
  2
*Model_Space
 70
0
 10
0.0
 20
0.0
 30
0.0
  3
*Model_Space
  1

  0
ENDBLK
  5
19
330
17
100
AcDbEntity
  8
0
100
AcDbBlockEnd
  0
BLOCK
  5
1C
330
1B
100
AcDbEntity
  8
0
100
AcDbBlockBegin
  2
*Paper_Space
 70
0
 10
0.0
 20
0.0
 30
0.0
  3
*Paper_Space
  1

  0
ENDBLK
  5
1D
330
1B
100
AcDbEntity
  8
0
100
AcDbBlockEnd
  0
ENDSEC
  0
SECTION
  2
ENTITIES
  0
LWPOLYLINE
  5
2F
330
17
100
AcDbEntity
  8
BODY_OUTLINE
100
AcDbPolyline
 90
1417
 70
1
 10
204.7874877533142
 20
131.79121261222002
 10
204.76579928390655
 20
132.31559145596935
 10
204.70088202992147
 20
132.8363882605027
 10
204.59317944202894
 20
133.3500454555641
 10
204.44342723811323
 20
133.85305424166978
 10
204.2526483775738
 20
134.34197855876639
 10
204.0221460734754
 20
134.81347855800544
 10
203.75349489028125
 20
135.26433341629743
 10
203.4485299879813
 20
135.6914633377994
 10
203.10933458608858
 20
136.09195059204347
 10
202.73822573313765
 20
136.46305944499443
 10
202.33773847889358
 20
136.80225484688714
 10
201.9106085573916
 20
137.1072197491871
 10
201.45975369909962
 20
137.37587093238122
 10
200.98825369986054
 20
137.6063732364796
 10
200.49932938276393
 20
137.79715209701905
 10
199.99632059665828
 20
137.94690430093476
 10
199.48266340159685
 20
138.0546068888273
 10
198.9618665970635
 20
138.11952414281237
 10
198.4374877533142
 20
138.14121261222
 10
125.4124877533142
 20
119.09121261222106
 10
125.43417622272185
 20
118.56683376847175
 10
125.4990934767069
 20
118.04603696393839
 10
125.60679606459945
 20
117.53237976887698
 10
125.75654826851516
 20
117.02937098277131
 10
125.94732712905457
 20
116.54044666567471
 10
126.177829433153
 20
116.06894666643564
 10
126.44648061634713
 20
115.61809180814365
 10
126.75144551864709
 20
115.19096188664166
 10
127.0906409205398
 20
114.7904746323976
 10
127.46174977349074
 20
114.41936577944666
 10
127.86223702773479
 20
114.08017037755396
 10
128.28936694923678
 20
113.775205475254
 10
128.74022180752877
 20
113.50655429205985
 10
129.21172180676783
 20
113.27605198796144
 10
129.70064612386443
 20
113.08527312742201
 10
130.2036549099701
 20
112.9355209235063
 10
130.7173121050315
 20
112.82781833561376
 10
131.23810890956486
 20
112.76290108162868
 10
131.7624877533142
 20
112.74121261222103
 10
131.7624877533142
 20
138.141212612221
 10
131.2381089095649
 20
138.1195241428134
 10
130.71731210503154
 20
138.05460688882832
 10
130.2036549099701
 20
137.94690430093578
 10
129.70064612386446
 20
137.79715209702005
 10
129.21172180676783
 20
137.60637323648064
 10
128.74022180752877
 20
137.37587093238224
 10
128.28936694923678
 20
137.1072197491881
 10
127.8622370277348
 20
136.80225484688813
 10
127.46174977349074
 20
136.46305944499542
 10
127.09064092053981
 20
136.0919505920445
 10
126.7514455186471
 20
135.69146333780043
 10
126.44648061634715
 20
135.26433341629843
 10
126.177829433153
 20
134.81347855800647
 10
125.94732712905457
 20
134.34197855876738
 10
125.75654826851516
 20
133.85305424167078
 10
125.60679606459945
 20
133.35004545556512
 10
125.4990934767069
 20
132.83638826050367
 10
125.43417622272185
 20
132.31559145597035
 10
125.4124877533142
 20
131.79121261222105
 10
132.64887459740098
 20
350.274992713645
 10
132.60122103299653
 20
349.3887266860351
 10
132.48382864902982
 20
348.5538116792332
 10
132.2966688468671
 20
347.7582894528067
 10
132.03971302787474
 20
346.9902017663229
 10
131.71176777488438
 20
346.24011434489097
 10
131.3117890458236
 20
345.5060067000301
 10
130.83997230470243
 20
344.78704127092317
 10
130.2965130155309
 20
344.0823804967529
 10
129.68196991350823
 20
343.3921853698521
 10
129.0011704975083
 20
342.7196794564354
 10
128.2607133770532
 20
342.0686190565084
 10
127.46719716166518
 20
341.4427604700766
 10
126.62684508501391
 20
340.8450465631168
 10
125.74327555935255
 20
340.27600283685706
 10
124.81917996207842
 20
339.73575954417987
 10
123.85724967058877
 20
339.2244469379678
 10
122.8590020553734
 20
338.74145914635307
 10
121.82213648547125
 20
338.28213625717837
 10
120.7436173361034
 20
337.84052746289234
 10
119.62040898249086
 20
337.41068195594346
 10
118.45308783293356
 20
336.9868992352767
 10
117.25471763395616
 20
336.5698017827317
 10
116.04099376811678
 20
336.1629232650988
 10
114.82761161797353
 20
335.76979734916836
 10
113.62786983288998
 20
335.39463300864156
 10
112.44599825760102
 20
335.0422690026231
 10
111.2840890677218
 20
334.7171836760083
 10
110.14423443886747
 20
334.42385537369245
 10
109.02731474817563
 20
334.16647971252235
 10
107.92993612738312
 20
333.9466049308197
 10
106.84777938400416
 20
333.76473830569256
 10
105.77652532555291
 20
333.62138711424893
 10
104.71178204652855
 20
333.51674702418
 10
103.64869854684707
 20
333.4504457043433
 10
102.5822669921477
 20
333.4221384335965
 10
101.50747954806975
 20
333.4314804907974
 10
100.42019586414304
 20
333.4777917929887
 10
99.3197982215277
 20
333.5593226373719
 10
98.20656273330842
 20
333.6741238730427
 10
97.08076551256974
 20
333.8202463490969
 10
95.94400080001824
 20
333.995955091623
 10
94.80298286708314
 20
334.1997228679031
 10
93.66566787293323
 20
334.42991213882397
 10
92.54001197673725
 20
334.6848853652721
 10
91.4328924896107
 20
334.96337196805365
 10
90.34700181701102
 20
335.26581440256354
 10
89.28401875961988
 20
335.5931446815723
 10
88.24562211811896
 20
335.9462948178501
 10
87.23275588124581
 20
336.3262682782135
 10
86.24331124367669
 20
336.7343062734623
 10
85.27438781500108
 20
337.1716974323426
 10
84.32308520480842
 20
337.63973038360024
 10
83.38715519354227
 20
338.13945876922537
 10
82.46679338111086
 20
338.67050251452486
 10
81.56276510630026
 20
339.2319996732201
 10
80.67583570789641
 20
339.8230882990324
 10
78.95619989654746
 20
341.08993085488197
 10
77.31484790223915
 20
342.46307914605705
 10
75.75936380094939
 20
343.9350463716639
 10
74.29733166865613
 20
345.49834573080875
 10
73.37710188073561
 20
346.58871111716684
 10
72.49706647317521
 20
347.72106003433595
 10
71.65265013533845
 20
348.90021127069065
 10
70.83927755658875
 20
350.1309836146054
 10
70.05270240185409
 20
351.415665917892
 10
69.2924329370367
 20
352.7478749488506
 10
68.55952575296168
 20
354.1194213705875
 10
67.8550374404543
 20
355.52211584620915
 10
67.5140279303942
 20
356.2324107440318
 10
67.18160937393617
 20
356.9462409657001
 10
66.85880671199084
 20
357.6613328889139
 10
66.54664488546877
 20
358.375412891373
 10
66.24577171909985
 20
359.0870784496549
 10
65.95539470866373
 20
359.7983993939317
 10
65.67437830164556
 20
360.5123106322954
 10
65.40158694553041
 20
361.23174707283806
 10
64.87762791846399
 20
362.695029200278
 10
64.38100397302077
 20
364.1921360842207
 10
63.91025072382334
 20
365.7230225430771
 10
63.46390378549445
 20
367.28764339525827
 10
63.04164363535415
 20
368.8862257484048
 10
62.64192209561868
 20
370.51842406685046
 10
62.26143179825503
 20
372.1833342040468
 10
61.896865375230064
 20
373.8800520134454
 10
61.71894178226418
 20
374.7402521230321
 10
61.541551306796904
 20
375.60946677301047
 10
61.36270399117387
 20
376.48909784018304
 10
61.180409877740686
 20
377.38054720135267
 10
60.992615475996615
 20
378.2873734222346
 10
60.793170381115345
 20
379.22089385995844
 10
60.573939263953804
 20
380.1941485784487
 10
60.326786795369
 20
381.2201776416298
 10
60.142043204313936
 20
381.9418722005369
 10
59.931346092424334
 20
382.7069278131753
 10
59.682346110258976
 20
383.5288282304224
 10
59.38269390837658
 20
384.42105720315544
 10
59.209363427947835
 20
384.89801866318015
 10
59.014861781835506
 20
385.39930475295614
 10
58.793781520468286
 20
385.9283497881896
 10
58.54071519427487
 20
386.4885880845869
 10
58.40026188730634
 20
386.7815438045127
 10
58.248601568742416
 20
387.0840581178643
 10
58.08399087939944
 20
387.39707130332636
 10
57.904686460093814
 20
387.7215236395832
 10
57.70883036608906
 20
388.0583734847212
 10
57.49362922142447
 20
388.4083919887835
 10
57.25593652008081
 20
388.772238618388
 10
56.9926057560389
 20
389.15057284015234
 10
56.80119350618669
 20
389.41093627657256
 10
56.59605382351893
 20
389.67711889845384
 10
56.37643504690584
 20
389.94835485483054
 10
56.141585515217685
 20
390.223878294737
 10
55.891022495226096
 20
390.502328613106
 10
55.626238371103554
 20
390.7807893667425
 10
55.34944415782313
 20
391.0561609474879
 10
55.06285087035792
 20
391.3253437471833
 10
54.46768147361398
 20
391.83621849359156
 10
53.85236547953582
 20
392.30628750392844
 10
53.22765626495183
 20
392.7320491735693
 10
52.60430720669021
 20
393.11000189788956
 10
51.99269877131189
 20
393.4392091277913
 10
51.398669528040614
 20
393.7238842488916
 10
50.826160007701574
 20
393.9682505586364
 10
50.27911074111998
 20
394.1765313544717
 10
49.760689172924245
 20
394.35323595490763
 10
49.27041455998069
 20
394.50274314289373
 10
48.80675515146936
 20
394.62908041253604
 10
48.368179196570395
 20
394.73627525794063
 10
47.55923582220426
 20
394.90779135234027
 10
46.82466167610001
 20
395.0341234109201
 10
46.14357185355409
 20
395.12674388467667
 10
45.49508144986302
 20
395.19712522460674
 10
45.01803503345707
 20
395.2401603165766
 10
44.54203767200207
 20
395.27471557737346
 10
44.06170945652134
 20
395.30090931186345
 10
43.57167047803813
 20
395.31885982491275
 10
43.32127540069547
 20
395.3246828510774
 10
43.06618755498897
 20
395.328108643173
 10
42.805521525935035
 20
395.32887477752865
 10
42.538391898550145
 20
395.3267188304734
 10
42.26320828357582
 20
395.3214505843507
 10
41.97556308762951
 20
395.3122009121374
 10
41.67034508954319
 20
395.2976890261127
 10
41.34244306814881
 20
395.2766341385559
 10
41.16781491079408
 20
395.26319294114893
 10
40.98218788052452
 20
395.2469212587622
 10
40.78152647987537
 20
395.2267669798023
 10
40.561795211381906
 20
395.20167799267557
 10
40.44319221644329
 20
395.1868910926444
 10
40.31637167340706
 20
395.16997185360793
 10
40.17889919258542
 20
395.15022189954004
 10
40.028340384290615
 20
395.1269428544143
 10
39.94725202720548
 20
395.1137219004478
 10
39.86113714284373
 20
395.09910204897733
 10
39.76885085865533
 20
395.0827332416519
 10
39.66924830209014
 20
395.0642654201206
 10
39.616351178499684
 20
395.0541265373431
 10
39.561223684056245
 20
395.04330300126867
 10
39.50374815784846
 20
395.031733458158
 10
39.44380693896508
 20
395.0193565542716
 10
39.38117793051967
 20
395.006092461507
 10
39.31523505411583
 20
394.9917411335404
 10
39.245254676576764
 20
394.97606088930047
 10
39.17051316472599
 20
394.95881004771616
 10
39.004596021973626
 20
394.9187786541694
 10
38.81549854361295
 20
394.869868311764
 10
38.60202191408803
 20
394.8101545741687
 10
38.3629673178432
 20
394.737712995052
 10
38.23410335814121
 20
394.6961745851413
 10
38.101962766458755
 20
394.6517489692134
 10
37.96985769674018
 20
394.60555009499046
 10
37.841100302930045
 20
394.55869191019474
 10
37.71837116549489
 20
394.51224795617713
 10
37.602033995177706
 20
394.4666575153799
 10
37.49192564134688
 20
394.4220831471665
 10
37.38788295337059
 20
394.37868741090057
 10
37.026882755177496
 20
394.2197556456347
 10
36.7394993057418
 20
394.0821011238985
 10
36.50638745965142
 20
393.96140820072435
 10
36.30820207149415
 20
393.85336123114473
 10
35.96551352222329
 20
393.6582545630432
 10
35.67753277870462
 20
393.4830474642704
 10
35.43136395141431
 20
393.3239340464968
 10
35.2141111508286
 20
393.1771084213926
 10
35.015166404167175
 20
393.0383921911399
 10
34.83106130182907
 20
392.90563947073144
 10
34.65960929905964
 20
392.77809314105366
 10
34.498623851104185
 20
392.65499608299285
 10
34.34616648609723
 20
392.53557775841705
 10
34.201095423509
 20
392.4192632043424
 10
34.06241915558793
 20
392.30558866437786
 10
33.9291461745826
 20
392.194090382132
 10
33.67576296250414
 20
391.9762236481512
 10
33.437658728525435
 20
391.76421828683465
 10
33.212490535242495
 20
391.5570781260193
 10
32.99791544525144
 20
391.3538069935415
 10
32.59364664672222
 20
390.9559374312189
 10
32.21816178649266
 20
390.5680574577359
 10
31.86708606272194
 20
390.18874808913984
 10
31.536044673569307
 20
389.8165903414787
 10
31.221374735405334
 20
389.4501119739785
 10
30.921379243696293
 20
389.0885075763563
 10
30.63463221524478
 20
388.7313584103962
 10
30.359707666853325
 20
388.37824573788214
 10
29.84027802791519
 20
387.6825325474528
 10
29.355842648445474
 20
386.99744074978014
 10
28.90025001789806
 20
386.31863797410915
 10
28.467348625726743
 20
385.6417918496852
 10
28.052299418516697
 20
384.96301131367875
 10
27.653689872659385
 20
384.281521655632
 10
27.270508272318494
 20
383.5976650333488
 10
26.901742901657627
 20
382.91178360463266
 10
25.872297834571867
 20
380.8479491849636
 10
24.946935144914505
 20
378.7887855111409
 10
24.113063150188367
 20
376.75178394695536
 10
23.35809016789625
 20
374.7544358561986
 10
22.67068200559561
 20
372.80824083807215
 10
22.042372148399636
 20
370.9014971717483
 10
21.4648704301446
 20
369.0168942409738
 10
20.929886684666826
 20
367.1371214294952
 10
20.676346905771283
 20
366.19363524299536
 10
20.432358762565997
 20
365.2452692596059
 10
20.198136823557633
 20
364.29047040761964
 10
19.973895657252626
 20
363.3276856153295
 10
19.759968509340382
 20
362.35524244182676
 10
19.556992507088808
 20
361.37108854068595
 10
19.36563804137245
 20
360.37310098192506
 10
19.18657550306574
 20
359.35915683556215
 10
18.870271638953568
 20
357.2797661656837
 10
18.617587345739906
 20
355.1404462217216
 10
18.436704906247
 20
352.9536946012369
 10
18.33580660329693
 20
350.73200890179055
 10
18.322629185761258
 20
348.489867058665
 10
18.393095913383263
 20
346.2513533169736
 10
18.53766883529252
 20
344.0433747390236
 10
18.746810000618638
 20
341.8928383871221
 10
19.004848071387357
 20
339.81931882777343
 10
19.297164061196014
 20
337.8165225939049
 10
19.615798546531607
 20
335.872554697459
 10
19.95279210388108
 20
333.97552015037814
 10
20.26216683447109
 20
332.32076202880313
 10
20.585135975152156
 20
330.67445716562065
 10
20.927266091799737
 20
329.0218580274111
 10
21.294123750289458
 20
327.3482170807546
 10
21.343373898440376
 20
327.13092417550797
 10
21.39330023985397
 20
326.9127144755115
 10
21.44394882969175
 20
326.6934970361963
 10
21.49536572311527
 20
326.4731809129935
 10
21.730602223314577
 20
325.4955413394628
 10
21.98044384305362
 20
324.5080643335215
 10
22.244180694628
 20
323.51685886244223
 10
22.521102890333225
 20
322.5280338934979
 10
22.809888807132467
 20
321.5466528985281
 10
23.108707024831517
 20
320.5743889636012
 10
23.41608295998944
 20
319.6122654773338
 10
23.730542029165292
 20
318.6613058283423
 10
24.050656345079148
 20
317.7220964617822
 10
24.37574027201913
 20
316.7935009156206
 10
24.70543260389624
 20
315.87395821769087
 10
25.039372134621658
 20
314.9619073958262
 10
25.37723991454041
 20
314.05598685741586
 10
25.71869712903259
 20
313.15564215455555
 10
26.06335277456165
 20
312.2605230321386
 10
26.41081584759104
 20
311.3702792350583
 10
27.556830359131993
 20
308.50255819890754
 10
28.722178505154744
 20
305.67338918143736
 10
29.89975164864876
 20
302.8820492025542
 10
31.082441152603707
 20
300.12781528216414
 10
31.354859116395858
 20
299.49867641547115
 10
31.62771727516275
 20
298.87032496927134
 10
31.90108575697448
 20
298.2424674266807
 10
32.17503468990108
 20
297.61481027081527
 10
33.64262743226702
 20
294.2754906663936
 10
35.10252443694546
 20
290.9696183605094
 10
36.538435861534666
 20
287.700346863486
 10
37.93407186363302
 20
284.47082968564644
 10
39.268199605409194
 20
281.2824347500632
 10
40.51335549201758
 20
278.13498306092004
 10
41.64390354553507
 20
275.0293077502062
 10
42.63420778803858
 20
271.966241949911
 10
43.069951584769456
 20
270.4499319764661
 10
43.466048437973214
 20
268.93826046457673
 10
43.82325205869968
 20
267.42489002527765
 10
44.14231615799852
 20
265.9034832696037
 10
44.42418652913382
 20
264.3686308730486
 10
44.67057484791354
 20
262.8182122801532
 10
44.883383649203395
 20
261.2508232555228
 10
45.064515467869086
 20
259.66505956376255
 10
45.215840029939216
 20
258.0604092386557
 10
45.33835490924497
 20
256.4401423875963
 10
45.43265441235593
 20
254.80852788560537
 10
45.49933284584165
 20
253.16983460770396
 10
45.53875969140185
 20
251.52863867127917
 10
45.549993375306045
 20
249.89050783951456
 10
45.53166162097831
 20
248.26119845612658
 10
45.482392151842646
 20
246.6464668648317
 10
45.400113252012716
 20
245.05152692182284
 10
45.28240320486938
 20
243.47949081804416
 10
45.127364732737675
 20
241.93296239933798
 10
44.933100557942595
 20
240.41454551154675
 10
44.69791251577527
 20
238.92545951514325
 10
44.42004972306013
 20
237.46137531334648
 10
44.09753582442244
 20
236.01657406611872
 10
43.72839446448745
 20
234.58533693342218
 10
43.31044435448122
 20
233.1610424140209
 10
42.84265281791416
 20
231.73295978786166
 10
42.32476641783782
 20
230.28920638668004
 10
41.75653171730366
 20
228.81789954221165
 10
41.139566567384264
 20
227.3098217960013
 10
40.48118891602007
 20
225.76724783667643
 10
39.78969547156457
 20
224.19553321659686
 10
39.073382942371325
 20
222.6000334881224
 10
38.34030479637852
 20
220.98603360637279
 10
37.595799526459416
 20
219.35928106455904
 10
36.84409137837034
 20
217.725825222178
 10
36.08940459786757
 20
216.09171543872654
 10
35.33427183296489
 20
214.46217655961019
 10
34.577906737983824
 20
212.83753736441506
 10
33.819555068142336
 20
211.21650311390871
 10
33.05846257865832
 20
209.59777906885878
 10
32.293940364860816
 20
207.9798389044549
 10
31.525659303893406
 20
206.36019480686363
 10
30.753404823696343
 20
204.73610980331824
 10
29.97696235220974
 20
203.10484692105203
 10
29.19662911114935
 20
201.46403885585823
 10
28.41418863949704
 20
199.8130610296816
 10
27.63165584109197
 20
198.15179055898176
 10
26.85104561977323
 20
196.48010456021854
 10
26.07440168435693
 20
194.79815315207784
 10
25.303313109450443
 20
193.10744300166593
 10
24.539112847580014
 20
191.409886048073
 10
23.78313385127177
 20
189.70739423038918
 10
23.036322004339468
 20
188.0017485858904
 10
22.298690413315768
 20
186.2939476481333
 10
21.570172864805357
 20
184.58472960063023
 10
20.85070314541281
 20
182.87483262689346
 10
19.437540217016192
 20
179.45486783525288
 10
18.055698566240522
 20
176.0334414169547
 10
16.70184163891372
 20
172.60831305283614
 10
15.372632880863705
 20
169.17724242373436
 10
14.065259902574184
 20
165.73718218320798
 10
12.780154301531724
 20
162.281414877427
 10
11.518845504068878
 20
158.8021950261468
 10
10.282862936518228
 20
155.29177714912265
 10
9.675270273809645
 20
153.52248539918259
 10
9.076051915210911
 20
151.74305843031928
 10
8.486332839286973
 20
149.953270589002
 10
7.907238024602833
 20
148.15289622169988
 10
7.339937860065788
 20
146.34179723032375
 10
6.785735950862033
 20
144.52025002674
 10
6.245957099974447
 20
142.6886507223504
 10
5.721926110385851
 20
140.8473954285568
 10
4.726622493478089
 20
137.1373694648312
 10
3.809217887927815
 20
133.39277938186817
 10
2.9781789138256443
 20
129.6161493838193
 10
2.2419721912620787
 20
125.81000367483622
 10
1.6101353370360698
 20
121.9772441670222
 10
1.0861212932781257
 20
118.12458589315867
 10
0.6692696680761685
 20
114.26027273841483
 10
0.35892006951817734
 20
110.39254858795982
 10
0.1500484701001028
 20
106.52860515728898
 10
0.032962665815830405
 20
102.67135735902758
 10
0.0
 20
98.82263387403904
 10
0.043497815987308286
 20
94.9842633831866
 10
0.15405122163673468
 20
91.1568154888896
 10
0.3301577766224
 20
87.33563938299278
 10
0.5760085020016561
 20
83.51473313049857
 10
0.8957944188316844
 20
79.68809479640939
 10
1.0859157732707274
 20
77.76964190407222
 10
1.3022147893772456
 20
75.84069840948456
 10
1.5508196756972268
 20
73.89362955645399
 10
1.8378586407766875
 20
71.92080058878801
 10
2.1705940890770705
 20
69.9159006294249
 10
2.560768752372013
 20
67.87793664087431
 10
3.021231330175823
 20
65.80725062630026
 10
3.5648305220028362
 20
63.70418458886681
 10
3.8719693919908593
 20
62.64159936605276
 10
4.203321304099063
 20
61.57622416670782
 10
4.55796480955874
 20
60.512916622765005
 10
4.934978459601297
 20
59.456534366157285
 10
5.3331251966425555
 20
58.41119448685214
 10
5.750789282022964
 20
57.37857062977079
 10
6.186481245361136
 20
56.359855259277055
 10
6.638711616275657
 20
55.3562408397344
 10
7.5864544282091515
 20
53.39673179773533
 10
8.583533795417992
 20
51.49902526193637
 10
9.62074462246781
 20
49.66035338196062
 10
10.688881813924183
 20
47.87794830743135
 10
11.779528549413783
 20
46.1480119083603
 10
12.889632564926359
 20
44.46396709933893
 10
14.018035599572897
 20
42.81887759685887
 10
15.163579392464271
 20
41.205807117411865
 10
16.326164362499668
 20
39.618509216497245
 10
17.508846210359167
 20
38.05275287236492
 10
18.715199597824636
 20
36.504624935632734
 10
19.94879918667806
 20
34.97021225691847
 10
21.213499963519098
 20
33.446815685766666
 10
22.513386920789713
 20
31.935501896028
 10
23.852379729034595
 20
30.43800647477977
 10
25.23439805879832
 20
28.956065009099376
 10
26.662957760800964
 20
27.49352498495972
 10
28.134249331696196
 20
26.05781036466996
 10
29.641204410929987
 20
24.656021449811334
 10
31.176754637948278
 20
23.29525854196507
 10
33.51907369925276
 20
21.337154376206797
 10
35.90389151039486
 20
19.470459539305267
 10
38.331711575484036
 20
17.68612640466199
 10
40.803037398629556
 20
15.975107345678367
 10
43.31918336766127
 20
14.330079273055446
 10
45.88592156788785
 20
12.750539967912317
 10
48.51044204963799
 20
11.237673109277438
 10
51.19993486324023
 20
9.792662376179095
 10
53.960951035920644
 20
8.421576911845307
 10
56.79090745079196
 20
7.136894916604689
 10
59.68329294201216
 20
5.9494136551363965
 10
62.6315963437394
 20
4.869930392119812
 10
65.6281647590382
 20
3.908800543544345
 10
68.6579317931529
 20
3.0693094683221886
 10
71.7032660335108
 20
2.3516493455169893
 10
74.74653606753937
 20
1.7560123541922223
 10
77.77177703304027
 20
1.27785687917401
 10
80.77101008212499
 20
0.9026967149464156
 10
83.73858282368593
 20
0.6158071550600255
 10
86.66884286661534
 20
0.40246349306528373
 10
89.55803063195026
 20
0.24768967973344047
 10
92.41059516908933
 20
0.14002256104129174
 10
95.23319702946696
 20
0.0700067733482399
 10
98.03249676451739
 20
0.028186953013403127
 10
100.81388904690778
 20
0.006501305193353346
 10
103.57768710885185
 20
0.0
 10
106.32292934110498
 20
0.003895621225836976
 10
109.04865413442252
 20
0.013400752663102367
 10
110.45585548127626
 20
0.01910185024436828
 10
111.83970302202682
 20
0.02474549211351018
 10
113.22051850096288
 20
0.030016148973800227
 10
114.61862366237312
 20
0.03459829152842531
 10
115.91419921808276
 20
0.03776647455646298
 10
117.23056412781676
 20
0.039875181136807214
 10
118.54923331337268
 20
0.04104902308608871
 10
119.85172169654822
 20
0.04141261222102344
 10
133.27911796242518
 20
395.39547138403714
 10
133.2818219945421
 20
395.5026128811327
 10
133.28693620735586
 20
395.60966641244977
 10
133.2944574018468
 20
395.7165778025286
 10
133.30438237899543
 20
395.82329287590983
 10
133.31695645727493
 20
395.93171447908446
 10
133.33201179975947
 20
396.03981947361467
 10
133.34953984997276
 20
396.1475511802803
 10
133.36953205143845
 20
396.25485291986126
 10
133.39155675177335
 20
396.35976570359867
 10
133.41593712118123
 20
396.46415621474296
 10
133.44266021456184
 20
396.5679717122865
 10
133.47171308681487
 20
396.6711594552215
 10
133.50308123388726
 20
396.7736644863778
 10
133.53674843952166
 20
396.8754375814426
 10
133.57269707006455
 20
396.97642738069254
 10
133.6109094918623
 20
397.0765825244041
 10
133.65136638540974
 20
397.1758497426315
 10
133.69404711675548
 20
397.27418131222055
 10
133.73892950720685
 20
397.37152767029124
 10
133.7859913780712
 20
397.4678392539631
 10
133.8352087792202
 20
397.56306489860947
 10
133.88655679848478
 20
397.6571587798221
 10
133.94000889228698
 20
397.7500735323987
 10
133.99553851704894
 20
397.8417617911367
 10
134.0531173139752
 20
397.93217489729165
 10
134.11271626688506
 20
398.0212693079311
 10
134.1743046828084
 20
398.1090002387268
 10
134.2378518687751
 20
398.19532290535074
 10
134.30332531313263
 20
398.2801915318793
 10
134.37069210478805
 20
398.3635652246187
 10
134.43991765040104
 20
398.44540214236997
 10
134.51096735663126
 20
398.5256604439337
 10
134.58380484590626
 20
398.6042975866276
 10
134.65839355488316
 20
398.6812756752671
 10
134.73469527015274
 20
398.7565561499604
 10
134.81267177830574
 20
398.8301004508152
 10
134.89504021042802
 20
398.904297427276
 10
134.97911326197195
 20
398.9765571934804
 10
135.06484493303947
 20
399.04684113450924
 10
135.15218922373256
 20
399.11511063544356
 10
135.23813835286202
 20
399.1791738587657
 10
135.32550754551937
 20
399.24128645934434
 10
135.4142521917331
 20
399.3014174726369
 10
135.5043276815318
 20
399.3595359341007
 10
135.5956849946652
 20
399.41560918772564
 10
135.68828112489285
 20
399.4696122124084
 10
135.78206886489556
 20
399.52151818351103
 10
135.87700100735415
 20
399.5713002763955
 10
135.97302641247774
 20
399.61893067320943
 10
136.07009940585812
 20
399.6643880011503
 10
136.16817056494895
 20
399.70764979106
 10
136.267190467204
 20
399.74869357378054
 10
136.3671063202994
 20
399.78749648320456
 10
136.4678700932554
 20
399.8240410740498
 10
136.56943054820408
 20
399.8583094131995
 10
136.67173644727742
 20
399.89028356753715
 10
136.77474411652233
 20
399.9199485333329
 10
136.8783933303944
 20
399.9472877388762
 10
136.9826314340269
 20
399.97228792735393
 10
137.08740577255315
 20
399.99493584195307
 10
137.19265615162794
 20
400.01521768713195
 10
137.29833630656893
 20
400.0331258395032
 10
137.40439261532353
 20
400.04865183190265
 10
137.5107714558391
 20
400.0617871971658
 10
137.61742058445358
 20
400.0725244071804
 10
137.7242843451105
 20
400.08085882900144
 10
137.83130856902307
 20
400.0867868505532
 10
137.93843908740436
 20
400.0903048597602
 10
137.96411491257172
 20
400.09078948938475
 10
137.98979297752902
 20
400.0911356633703
 10
138.01547253569507
 20
400.0913433736657
 10
138.04115284048868
 20
400.09141261222
 10
183.05830194073607
 20
400.0914126122209
 10
183.52739282602974
 20
400.06799133837325
 10
183.99183245111803
 20
399.9983843963397
 10
184.44723393731013
 20
399.88357710538435
 10
184.88921040591518
 20
399.7245547847715
 10
185.31362295935205
 20
399.5224575302017
 10
185.7161235850994
 20
399.2796703130322
 10
186.0926854720159
 20
398.99876496228467
 10
186.43928180896003
 20
398.68231330698086
 10
186.89566301617256
 20
398.14676153797666
 10
187.26908298772713
 20
397.549189676507
 10
187.5517925485853
 20
396.9034571170507
 10
187.73604252370865
 20
396.2234232540865
 10
299.8599530951532
 20
392.527138877816
 10
299.8983036192393
 20
393.52525214887316
 10
299.9322925457735
 20
394.5232242045668
 10
299.9620054770364
 20
395.52078972727156
 10
299.98752801530816
 20
396.517683399362
 10
300.00893246848807
 20
397.5137608247701
 10
300.0262379666239
 20
398.5093612779249
 10
300.03945034540396
 20
399.5049449548178
 10
300.0485754405164
 20
400.5009720514398
 10
300.0535769719623
 20
401.49799570958
 10
300.05425019706286
 20
402.4969408699662
 10
300.05034825743064
 20
403.4988254191287
 10
300.0416242946782
 20
404.50466724359774
 10
300.0276517132388
 20
405.5158108725137
 10
300.007284969059
 20
406.5349073894794
 10
299.97919878093285
 20
407.56493452068105
 10
299.9420678676545
 20
408.6088699923055
 10
299.91970985480174
 20
409.1366785511906
 10
299.8946738767812
 20
409.66724877838817
 10
299.8668744700147
 20
410.19912082555845
 10
299.836226170924
 20
410.7308348443616
 10
299.8026712079045
 20
411.2612441023793
 10
299.7662625761701
 20
411.79045434762656
 10
299.72708096287704
 20
412.3188844440226
 10
299.685207055182
 20
412.84695325548705
 10
299.5934564328959
 20
413.90345816027263
 10
299.49041284793407
 20
414.96219834483884
 10
299.37522976671266
 20
416.02517877301307
 10
299.24706065564834
 20
417.0944044086224
 10
299.1049591129787
 20
418.17158799632796
 10
298.94757926194916
 20
419.25727342116295
 10
298.77347535755393
 20
420.35171234903794
 10
298.581201654787
 20
421.4551564458636
 10
298.3695328841022
 20
422.56726142545574
 10
298.1381256811887
 20
423.6852991756509
 10
297.8868571572986
 20
424.8059456321423
 10
297.6156044236843
 20
425.925876730623
 10
297.32440874801864
 20
427.04207350861884
 10
297.01396801900137
 20
428.1527374286127
 10
296.6851442816471
 20
429.2563750548983
 10
296.33879958097043
 20
430.35149295176984
 10
295.9757003334222
 20
431.43683177817536
 10
295.59623044697935
 20
432.51206855455985
 10
295.20067820114286
 20
433.57711439607505
 10
294.78933187541384
 20
434.6318804178727
 10
294.3624034181836
 20
435.6763720089102
 10
293.91979945340495
 20
436.710971653369
 10
293.46135027392097
 20
437.7361561092358
 10
292.986886172575
 20
438.7524021344981
 10
292.49584339064774
 20
439.76053623527207
 10
291.9860819553777
 20
440.7627839260877
 10
291.4550678423558
 20
441.76172046955963
 10
290.90026702717284
 20
442.7599211283026
 10
290.51581601522
 20
443.42627230700634
 10
290.1182105002621
 20
444.0943310011047
 10
289.7059940800224
 20
444.7649872247074
 10
289.2777103522243
 20
445.43913099192423
 10
288.83173036558685
 20
446.1176100735702
 10
288.3657349728095
 20
446.8011032672803
 10
287.8772324775874
 20
447.4902471273948
 10
287.3637311836155
 20
448.18567820825365
 10
286.8226824291043
 20
448.8877364260891
 10
286.25130969032557
 20
449.5955751446994
 10
285.6467794780668
 20
450.3080510897754
 10
285.00625830311515
 20
451.0240209870072
 10
284.3262882511196
 20
451.74214857095683
 10
283.60091370717515
 20
452.46032561167203
 10
282.8235546312386
 20
453.17625088807216
 10
281.9876309832665
 20
453.8876231790763
 10
281.08703368380986
 20
454.5906768602498
 10
280.11753749579736
 20
455.27578869374213
 10
279.07538814275176
 20
455.9318710383488
 10
277.9568313481961
 20
456.5478362528654
 10
276.7607032501695
 20
457.11244050199275
 10
275.496201644777
 20
457.6138151740535
 10
274.1751147426397
 20
458.03993546327564
 10
272.80923075437875
 20
458.3787765638871
 10
271.41254761562504
 20
458.62110462444264
 10
270.0079021620471
 20
458.76884961080503
 10
268.6203409543229
 20
458.82673244316373
 10
267.27491055313067
 20
458.7994740417081
 10
266.6247164570562
 20
458.7554557733861
 10
265.9878175493574
 20
458.6923041879692
 10
265.3607146764747
 20
458.61099104692767
 10
264.73990868484844
 20
458.5124881117316
 10
264.58524703188425
 20
458.4852643359037
 10
264.4305016411231
 20
458.45688602557084
 10
264.2754139167899
 20
458.4272122732553
 10
264.11972526310933
 20
458.39610217147896
 10
264.0415780327912
 20
458.3799686780492
 10
263.9632031339629
 20
458.3634485895081
 10
263.8845877793947
 20
458.3465496249792
 10
263.8057191818571
 20
458.329279503586
 10
263.7265799012237
 20
458.31164075653965
 10
263.64713388578144
 20
458.29361516340236
 10
263.56734043092024
 20
458.2751793158239
 10
263.48715883203016
 20
458.25630980545424
 10
263.4065495018682
 20
458.2369847886031
 10
263.3254773226581
 20
458.21718868021946
 10
263.2439082939908
 20
458.1969074599122
 10
263.16180841545685
 20
458.1761271072901
 10
263.07914229813656
 20
458.1548318233594
 10
262.99586899906836
 20
458.13299869471655
 10
262.9119461867802
 20
458.11060302935516
 10
262.82733152980006
 20
458.08762013526893
 10
262.7419825005044
 20
458.06402479282895
 10
262.6558557866639
 20
458.03978967191586
 10
262.56890787989806
 20
458.0148869147872
 10
262.481095271826
 20
457.98928866370113
 10
262.39237379301443
 20
457.96296575005783
 10
262.3026966298188
 20
457.93588376182856
 10
262.21201630754183
 20
457.9080069761269
 10
262.12028535148613
 20
457.8792996700666
 10
262.02745571869895
 20
457.849724646676
 10
261.9334770932044
 20
457.81923881264214
 10
261.83829859077093
 20
457.7877976005666
 10
261.7418693271672
 20
457.75535644305097
 10
261.6931696616654
 20
457.73874674519686
 10
261.64413766113523
 20
457.72186908105493
 10
261.5947664019399
 20
457.70471661258034
 10
261.54504896044244
 20
457.68728250172785
 10
261.4949783895257
 20
457.66955985465586
 10
261.4445476101407
 20
457.6515415408628
 10
261.39374951966886
 20
457.63322037397745
 10
261.3425770154916
 20
457.61458916762865
 10
261.23907898281834
 20
457.5763653696844
 10
261.1339898668635
 20
457.5368000637691
 10
261.0272446498345
 20
457.49582064540994
 10
260.9187783139389
 20
457.45335451013455
 10
260.80852216583605
 20
457.40932384638677
 10
260.6963928518994
 20
457.36363003106095
 10
260.5823033431799
 20
457.31616923416493
 10
260.46616661072846
 20
457.26683762570656
 10
260.45150122652853
 20
457.2605344454894
 10
260.4368022257529
 20
457.2542001001294
 10
260.42206933950695
 20
457.24783427824264
 10
260.4073022988963
 20
457.2414366684448
 10
260.39250084664593
 20
457.2350069723109
 10
260.3776647719591
 20
457.2285449432517
 10
260.36279387565844
 20
457.22205034763726
 10
260.3478879585666
 20
457.2155229518374
 10
260.31797022319523
 20
457.2023687931119
 10
260.28790980730355
 20
457.1890804577679
 10
260.2577049103163
 20
457.17565590451585
 10
260.2273537316582
 20
457.16209309206596
 10
260.16620446862737
 20
457.1345433170491
 10
260.10444332160705
 20
457.1064087655759
 10
260.04205073559297
 20
457.07766586314
 10
259.97900715558086
 20
457.04829103523525
 10
259.9710799613203
 20
457.04457357630247
 10
259.9631422406386
 20
457.04084582911355
 10
259.9551939444375
 20
457.03710774759406
 10
259.9472350236186
 20
457.0333592856699
 10
259.9392654306796
 20
457.02960039762513
 10
259.9312851245028
 20
457.0258310391781
 10
259.9232940655662
 20
457.0220511664056
 10
259.91529221434814
 20
457.0182607353845
 10
259.8992559711569
 20
457.0106480214129
 10
259.8831760496374
 20
457.0029925384248
 10
259.8670520986748
 20
456.99529392609116
 10
259.85088376715385
 20
456.9875518240828
 10
259.8184123895343
 20
456.97193542025747
 10
259.78575831492833
 20
456.95613902069715
 10
259.7529177731334
 20
456.9401580297707
 10
259.7198869939464
 20
456.9239878518464
 10
259.7115991357806
 20
456.9199152144171
 10
259.70329909892405
 20
456.91583042401214
 10
259.6949868301547
 20
456.9117334390643
 10
259.6866622762503
 20
456.90762421800594
 10
259.6783253823088
 20
456.90350271394163
 10
259.66997608670897
 20
456.89936885866337
 10
259.66161432614956
 20
456.89522257863473
 10
259.6532400373293
 20
456.89106380031933
 10
259.6448531479683
 20
456.88689244694336
 10
259.63645360075867
 20
456.8827084540984
 10
259.62804132943927
 20
456.8785117541636
 10
259.61961626774877
 20
456.87430227951836
 10
259.61117835974017
 20
456.8700799699663
 10
259.6027275395259
 20
456.8658447693823
 10
259.59426375150645
 20
456.86159662904004
 10
259.5857869400822
 20
456.85733550021246
 10
259.55174807166856
 20
456.84015967082365
 10
259.5174947724146
 20
456.8227694254681
 10
259.4830218756539
 20
456.80515894367267
 10
259.4483242147202
 20
456.7873224049638
 10
259.41339644543586
 20
456.7692538260819
 10
259.3782324605554
 20
456.75094654516516
 10
259.34282597520587
 20
456.7323937374484
 10
259.3071707045142
 20
456.7135885781662
 10
259.2892477855511
 20
456.7040892276522
 10
259.271260217269
 20
456.6945242210228
 10
259.2532071179671
 20
456.6848926963107
 10
259.2350876059447
 20
456.6751937915486
 10
259.216900782421
 20
456.66542659977574
 10
259.19864562510196
 20
456.6555900044004
 10
259.1803210945455
 20
456.64568284376804
 10
259.1619261513097
 20
456.63570395622463
 10
259.1527019484018
 20
456.63068725469225
 10
259.1434597422765
 20
456.6256522028997
 10
259.1341993927467
 20
456.62059867272836
 10
259.1249207596254
 20
456.6155265360594
 10
259.11562369883325
 20
456.6104356643673
 10
259.10630810713525
 20
456.6053259583984
 10
259.0969738774414
 20
456.6001973185305
 10
259.08762090266174
 20
456.59504964514093
 10
259.06885820271896
 20
456.5846966797724
 10
259.0500186028697
 20
456.57426560476347
 10
259.0311006117583
 20
456.56375484289543
 10
259.0121027380293
 20
456.55316281694957
 10
258.99302355394263
 20
456.54248801038943
 10
258.9738618862203
 20
456.5317291494076
 10
258.95461662519995
 20
456.5208850208793
 10
258.9352866612192
 20
456.50995441167925
 10
258.9158707325004
 20
456.49893602663985
 10
258.8963670277353
 20
456.4878282758842
 10
258.8767735835871
 20
456.47662948758125
 10
258.8570884367188
 20
456.46533798990004
 10
258.7773916525124
 20
456.4192066193799
 10
258.69607095924937
 20
456.3714289505171
 10
258.613001103646
 20
456.3218687831725
 10
258.52805683241877
 20
456.27038991720724
 10
258.484837200027
 20
456.2438834836663
 10
258.44106933096737
 20
456.21681676438214
 10
258.39670490592505
 20
456.18914319843134
 10
258.3516956055854
 20
456.1608162248905
 10
258.30600309881015
 20
456.1317982708104
 10
258.2596290071673
 20
456.1020877151398
 10
258.212584940401
 20
456.0716919248016
 10
258.1648825082556
 20
456.0406182667185
 10
258.067381322705
 20
455.97630517778884
 10
257.9663799338274
 20
455.90839914863636
 10
257.8609651601811
 20
455.8359892416479
 10
257.75022382032404
 20
455.7581645192096
 10
257.63325191278454
 20
455.67399416318597
 10
257.50918224534416
 20
455.58246789784357
 10
257.3771568073317
 20
455.4825555685256
 10
257.23631758807574
 20
455.3732270205752
 10
257.0844685918466
 20
455.25196101944255
 10
256.9140617674428
 20
455.11027191899586
 10
256.7162110761596
 20
454.9381829905701
 10
256.4820304792925
 20
454.72571750550026
 10
256.3474890509871
 20
454.59960996869563
 10
256.19422981518017
 20
454.44997196838597
 10
256.01483895329915
 20
454.26586136557484
 10
255.80190264677168
 20
454.0363360212661
 10
255.74264038594725
 20
453.9706323859374
 10
255.68119483002988
 20
453.9015715902136
 10
255.61794263658385
 20
453.82931877695034
 10
255.5532604631734
 20
453.75403908900296
 10
255.48763818090032
 20
453.676100372781
 10
255.42201891520955
 20
453.59668176597154
 10
255.35745900721292
 20
453.5171651156019
 10
255.29501479802215
 20
453.4389322686989
 10
255.17916381586872
 20
453.29003094683367
 10
255.07524088530477
 20
453.15195955113046
 10
254.98248592390226
 20
453.02488542733306
 10
254.90013884923326
 20
452.90897592118574
 10
254.82732878629588
 20
452.8041030307831
 10
254.76274168979432
 20
452.70895736362536
 10
254.70495272185929
 20
452.6219341795639
 10
254.6525370446215
 20
452.54142873845024
 10
254.6042411278602
 20
452.46602842542114
 10
254.55949681623153
 20
452.3950893527282
 10
254.5179072580484
 20
452.32815975294136
 10
254.47907560162372
 20
452.26478785863054
 10
254.4083832600682
 20
452.14720412842615
 10
254.34566813300995
 20
452.0401937318091
 10
254.2894632442081
 20
451.94190626274224
 10
254.23830161742154
 20
451.8504913151879
 10
254.14680845589686
 20
451.6828204366426
 10
254.06729402788463
 20
451.532093477147
 10
253.99743191656938
 20
451.3951658836967
 10
253.93489570513566
 20
451.2688931032869
 10
253.82498749496182
 20
451.0390426777039
 10
253.73141892422242
 20
450.8339302321214
 10
253.65053170261547
 20
450.64825271019345
 10
253.57866753983905
 20
450.4767070555738
 10
253.57439268221026
 20
450.4663344187511
 10
253.570141285494
 20
450.45599975151936
 10
253.56591585448368
 20
450.44570653594
 10
253.5617188939727
 20
450.4354582540743
 10
253.5575521880959
 20
450.42525738088295
 10
253.5534146383544
 20
450.4151023629263
 10
253.5493044255906
 20
450.4049906396639
 10
253.54521973064712
 20
450.39491965055544
 10
253.53712194492357
 20
450.3748928538019
 10
253.5291183890996
 20
450.35501765482024
 10
253.5212084983278
 20
450.3352929567734
 10
253.5133917077608
 20
450.3157176628242
 10
253.50566704370837
 20
450.2962901147298
 10
253.49803187372828
 20
450.2770063497775
 10
253.4904831566289
 20
450.2578618439988
 10
253.4830178512188
 20
450.23885207342516
 10
253.4811642122043
 20
450.2341201682798
 10
253.47931561273464
 20
450.22939642229784
 10
253.4774720691986
 20
450.22468085644044
 10
253.47563359798488
 20
450.219973491669
 10
253.47380020453764
 20
450.21527433348666
 10
253.47197185052312
 20
450.21058332556584
 10
253.47014848666294
 20
450.20590039612114
 10
253.4683300636788
 20
450.2012254733671
 10
253.46651653762638
 20
450.19655849285624
 10
253.46470788589778
 20
450.19189941949264
 10
253.46290409121912
 20
450.1872482255184
 10
253.46110513631658
 20
450.1826048831754
 10
253.4593109990276
 20
450.1779693539051
 10
253.4575216593915
 20
450.1733416121675
 10
253.45573709253938
 20
450.16872162159046
 10
253.45395727360227
 20
450.1641093458014
 10
253.44688498691357
 20
450.14573666794206
 10
253.43988663543198
 20
450.12748432343824
 10
253.43296058593126
 20
450.1093497914891
 10
253.42610520518525
 20
450.09133055129405
 10
253.41931891296952
 20
450.07342416682513
 10
253.41260034106648
 20
450.0556285411467
 10
253.40594817426046
 20
450.0379416620957
 10
253.39936109733577
 20
450.02036151750974
 10
253.3928378138835
 20
450.00288611854916
 10
253.3863771224741
 20
449.98551362261605
 10
253.37997784042062
 20
449.96824221033
 10
253.37363878503595
 20
449.9510700623107
 10
253.36735879310862
 20
449.9339953909951
 10
253.36113676031295
 20
449.91701648435253
 10
253.35497160185864
 20
449.9001316622686
 10
253.34886223295527
 20
449.8833392446286
 10
253.34582813472596
 20
449.8749771691387
 10
253.34280760191479
 20
449.866637604914
 10
253.33980052374966
 20
449.8583203821373
 10
253.3368067894586
 20
449.8500253309917
 10
253.33382628942488
 20
449.84175228358333
 10
253.33085891865312
 20
449.8335010797133
 10
253.32790457330339
 20
449.82527156110564
 10
253.32496314953562
 20
449.8170635694849
 10
253.31911863338422
 20
449.8007114964671
 10
253.31332446717022
 20
449.78444345583387
 10
253.3075797298115
 20
449.7682580050391
 10
253.3018835002258
 20
449.75215370153643
 10
253.2990532947499
 20
449.7441315421663
 10
253.29623490267537
 20
449.73612918199876
 10
253.29342824074268
 20
449.7281464940699
 10
253.2906332256926
 20
449.720183351416
 10
253.28784977322186
 20
449.7122396250881
 10
253.28507779485295
 20
449.70431517819793
 10
253.28231720106436
 20
449.6964098718721
 10
253.2795679023348
 20
449.6885235672372
 10
253.27410283229682
 20
449.67280740402896
 10
253.26868188676858
 20
449.65716560762576
 10
253.2633043680639
 20
449.6415970934862
 10
253.25796957849676
 20
449.6261007770689
 10
253.24742553095126
 20
449.5953206079229
 10
253.23704480535568
 20
449.56481737408654
 10
253.22682259802417
 20
449.5345835584335
 10
253.2167541052711
 20
449.5046116438374
 10
253.20683467067363
 20
449.47489433735973
 10
253.19706024186445
 20
449.4454252878131
 10
253.18742691366398
 20
449.4161983680698
 10
253.1779307808925
 20
449.3872074510016
 10
253.16856803891298
 20
449.35844656067763
 10
253.15933528525863
 20
449.329910325955
 10
253.15022921800542
 20
449.3015935268876
 10
253.14124653522907
 20
449.2734909435294
 10
253.13238400818904
 20
449.2455974693514
 10
253.1236387008783
 20
449.2179084514919
 10
253.11500775047347
 20
449.19041935050524
 10
253.10648829415106
 20
449.1631256269468
 10
253.08977313658974
 20
449.1091072356162
 10
253.07347393363978
 20
449.0558223274935
 10
253.0575721149865
 20
449.0032410340476
 10
253.04204911031516
 20
448.95133348674756
 10
253.02688717880395
 20
448.90007108153713
 10
253.01207190905205
 20
448.84943031104575
 10
252.99758971906073
 20
448.79938893221544
 10
252.98342702683104
 20
448.7499247019879
 10
252.96957062415024
 20
448.70101594629625
 10
252.95600878748368
 20
448.65264323002646
 10
252.94273016716016
 20
448.6047876871959
 10
252.92972341350844
 20
448.55743045182203
 10
252.90448461504297
 20
448.46414242278547
 10
252.8802241417542
 20
448.3726631666527
 10
252.85687825068482
 20
448.28288369018884
 10
252.8343831988776
 20
448.19469500015873
 10
252.82343527867513
 20
448.1511638831139
 10
252.81267893272866
 20
448.107994067354
 10
252.80210896119317
 20
448.0651764058175
 10
252.79172016422348
 20
448.0227017514429
 10
252.78150734977405
 20
447.98056098318585
 10
252.7714653492758
 20
447.9387450521611
 10
252.76158900200352
 20
447.8972449355849
 10
252.75187314723215
 20
447.8560516106737
 10
252.73290417268484
 20
447.7745524223511
 10
252.7145266489498
 20
447.69419122394027
 10
252.69671069965776
 20
447.6149149296773
 10
252.67942644843964
 20
447.53667045379814
 10
252.66264538187716
 20
447.4594070376046
 10
252.64634444468538
 20
447.38308325988856
 10
252.63050194446674
 20
447.3076600263837
 10
252.61509618882383
 20
447.23309824282404
 10
252.60010635471417
 20
447.1593603115016
 10
252.58551509085993
 20
447.0864145930401
 10
252.57130591539052
 20
447.01423094472534
 10
252.5574623464355
 20
446.9427792238433
 10
252.54396850461978
 20
446.87203033820094
 10
252.5308109205493
 20
446.80195939768873
 10
252.51797672732542
 20
446.7325425627183
 10
252.50545305804945
 20
446.66375599370116
 10
252.49322752695846
 20
446.5955766818014
 10
252.48128967283225
 20
446.52798494119304
 10
252.46962951558626
 20
446.46096191680283
 10
252.45823707513603
 20
446.3944887535572
 10
252.4471025956227
 20
446.3285470167441
 10
252.4362172180904
 20
446.26311995309635
 10
252.42557230780872
 20
446.1981912297078
 10
252.41515923004744
 20
446.1337445136725
 10
252.3949974105173
 20
446.0062375227965
 10
252.3756795684205
 20
445.88049707101493
 10
252.35715689003024
 20
445.75642699963373
 10
252.3393805616194
 20
445.63393114995836
 10
252.32230400921125
 20
445.5129177661196
 10
252.3058896178291
 20
445.39331270354785
 10
252.29010201224642
 20
445.2750462204984
 10
252.27490581723666
 20
445.15804857522664
 10
252.24616190881454
 20
444.927607708476
 10
252.2194536446745
 20
444.7015665565307
 10
252.19459252771316
 20
444.4795284500641
 10
252.17139006082718
 20
444.2610967197494
 10
252.11653573593662
 20
443.6939665932649
 10
252.07062220877197
 20
443.1465788097082
 10
252.03213585580147
 20
442.6158511298697
 10
251.99956305349338
 20
442.09870131453965
 10
251.94756612690702
 20
441.09592701135995
 10
251.90983504074535
 20
440.1292014227794
 10
251.88303592701482
 20
439.19259076245
 10
251.8638349177217
 20
438.2801612440237
 10
251.84765656808833
 20
437.27629135719724
 10
251.83507868560048
 20
436.2936524592184
 10
251.82430481312957
 20
435.3303812294537
 10
251.813538493547
 20
434.3846143472698
 10
251.801122464475
 20
433.4545562022707
 10
251.78595624234111
 20
432.53868201036335
 10
251.76707853831434
 20
431.63553469777435
 10
251.74352806356373
 20
430.7436571907304
 10
251.71442839247229
 20
429.8617541192634
 10
251.67924255275267
 20
428.9891769425307
 10
251.63751843536113
 20
428.1254388234429
 10
251.58880393125412
 20
427.27005292491083
 10
251.5326717750204
 20
426.42255328068904
 10
251.46879407487364
 20
425.5825573945409
 10
251.39686778262072
 20
424.74970364111516
 10
251.31658985006862
 20
423.9236303950603
 10
251.22767524773624
 20
423.1039957333685
 10
251.12991102241676
 20
422.2905365553367
 10
251.02310223966106
 20
421.4830094625713
 10
250.90705396501977
 20
420.681171056679
 10
250.78158238775399
 20
419.88478911862455
 10
250.64654819196568
 20
419.09367614680633
 10
250.50182318546706
 20
418.3076558189807
 10
250.34727917607051
 20
417.5265518129046
 10
250.18278358772676
 20
416.750148560129
 10
250.00818630631716
 20
415.9780734951323
 10
249.8233328338091
 20
415.2099148062129
 10
249.62806867217006
 20
414.44526068166874
 10
249.4222679385229
 20
413.68378270093797
 10
249.20591921389092
 20
412.92548602004
 10
248.97903969450843
 20
412.17045918611797
 10
248.7416465766098
 20
411.41879074631504
 10
248.49377251042856
 20
410.6706602965162
 10
248.23551195825166
 20
409.92661161576416
 10
247.96697483631
 20
409.1872795318614
 10
247.6882710608345
 20
408.45329887261073
 10
247.39950370962626
 20
407.725297397804
 10
247.10074851135596
 20
407.00387460667616
 10
246.79207435631736
 20
406.2896229304196
 10
246.47355013480416
 20
405.5831348002271
 10
246.1452392815602
 20
404.88499739221976
 10
245.80718340391707
 20
404.19577685122545
 10
245.45941865360476
 20
403.51603406704476
 10
245.10198118235337
 20
402.84632992947815
 10
244.7348908333359
 20
402.18716370450716
 10
244.35810222132102
 20
401.5387881732229
 10
243.97155365257117
 20
400.90139449284146
 10
243.5751834333487
 20
400.2751738205792
 10
243.1688376733478
 20
399.66015290766074
 10
242.75199368954628
 20
399.0557008716613
 10
242.32403660230142
 20
398.4610224242242
 10
241.88435153197082
 20
397.8753222769928
 10
241.432323686855
 20
397.2977747762537
 10
240.9673386341986
 20
396.7274328159655
 10
240.48878202925437
 20
396.1633189246871
 10
239.99603952727506
 20
395.604455630977
 10
239.48866887435855
 20
395.05003224698237
 10
238.9669161719287
 20
394.4999052104574
 10
238.43119961217644
 20
393.95409774276703
 10
237.88193738729285
 20
393.4126330652763
 10
237.31964243660855
 20
392.8756213040846
 10
236.74520669693203
 20
392.3435202127023
 10
236.15961685228046
 20
391.8168744493513
 10
235.56385958667107
 20
391.2962286722536
 10
234.9589724101191
 20
390.78219717639973
 10
234.3461961270492
 20
390.2756727957512
 10
233.72682236783578
 20
389.77761800107237
 10
233.10214276285322
 20
389.28899526312813
 10
232.4734041036358
 20
388.81077890755853
 10
231.8416738363025
 20
388.3439906870361
 10
231.20797456815336
 20
387.889664209054
 10
230.57332890648843
 20
387.44883308110553
 10
229.93849163152123
 20
387.0223400832898
 10
229.30314621511883
 20
386.61026468612897
 10
228.6667083020618
 20
386.21249553275106
 10
228.0285935371307
 20
385.82892126628394
 10
227.3881889721377
 20
385.45942086989373
 10
226.7447672769024
 20
385.1038346811008
 10
226.09757252826404
 20
384.7619933775376
 10
225.4458488030618
 20
384.4337276368366
 10
224.78886342092878
 20
384.11885874530947
 10
224.12597668306228
 20
383.8171704289223
 10
223.45657213348125
 20
383.52843702224936
 10
222.78003331620454
 20
383.2524328598654
 10
222.09538419937616
 20
382.9887929346402
 10
221.40021043681264
 20
382.7365948684966
 10
220.69173810641487
 20
382.4947769417187
 10
219.9671932860836
 20
382.2622774345907
 10
219.22468387770007
 20
382.0382265798677
 10
218.46584509085164
 20
381.82252242370555
 10
217.69319395920533
 20
381.615254964688
 10
216.90924751642802
 20
381.41651420139857
 10
216.1170550738746
 20
381.22659877261697
 10
215.3217950410993
 20
381.04664187492745
 10
214.52917810529794
 20
380.8779853451557
 10
213.74491495366647
 20
380.7219710201276
 10
212.97404442424596
 20
380.57982965184226
 10
212.2189179706031
 20
380.45234765520195
 10
211.48121519707578
 20
380.34020036020877
 10
210.76261570800187
 20
380.24406309686475
 10
210.0638641884926
 20
380.16449848996376
 10
209.38196563577952
 20
380.1016183422548
 10
208.7129901279768
 20
380.05542175136645
 10
208.05300774319886
 20
380.02590781492734
 10
207.39839994500852
 20
380.0131195005476
 10
206.7467937490853
 20
380.01727525592196
 10
206.0961275565306
 20
380.03863739863857
 10
205.4443397684459
 20
380.07746824628583
 10
204.78978362525368
 20
380.13405266267233
 10
204.13247171431115
 20
380.20876569742825
 10
203.4728314622798
 20
380.30200494649716
 10
202.81129029582115
 20
380.4141680058233
 10
202.14849283080719
 20
380.5456064255126
 10
201.48595245043037
 20
380.6964875701947
 10
200.8253997271014
 20
380.8669327585595
 10
200.168565233231
 20
381.0570633092975
 10
199.51716608524697
 20
381.2670547614608
 10
198.87286556536512
 20
381.49729953891904
 10
198.23731349984712
 20
381.74824428600823
 10
197.6121597149545
 20
382.02033564706454
 10
196.99892682784403
 20
382.31409348221746
 10
196.39862862891079
 20
382.63033051007596
 10
195.81215169938153
 20
382.9699326649286
 10
195.240382620483
 20
383.33378588106405
 10
194.68421708186162
 20
383.722783069602
 10
194.14458719809556
 20
384.1378450551939
 10
193.62243419226468
 20
384.57989963945477
 10
193.11869928744886
 20
385.0498746239997
 10
192.63410214261745
 20
385.54882113229166
 10
192.16847616789985
 20
386.07828356723417
 10
191.72143320921307
 20
386.63992965342715
 10
191.29258511247406
 20
387.23542711547043
 10
190.8817181794137
 20
387.86567231718175
 10
190.48931653501933
 20
388.52847617924976
 10
190.11603876009212
 20
389.2208782615812
 10
189.76254343543334
 20
389.9399181240826
 10
189.42946970106735
 20
390.68258665274004
 10
189.1173789287016
 20
391.4456800496596
 10
188.8268130493744
 20
392.22594584315186
 10
188.5583139941239
 20
393.02013156152697
 10
188.31675640960586
 20
393.8106727982265
 10
188.0983172983363
 20
394.6094422878522
 10
187.9043085399096
 20
395.4143793127113
 10
187.73604201392018
 20
396.22342315511105
 10
284.4947989679812
 20
227.62654485208995
 10
284.181649513929
 20
228.30427645674803
 10
283.87258569294977
 20
228.98096361271445
 10
283.56773026796157
 20
229.65689104081244
 10
283.2672060018824
 20
230.33234346186532
 10
282.3925948771854
 20
232.35806923874222
 10
281.5598661931541
 20
234.38599798838843
 10
280.77081709401057
 20
236.4200452595698
 10
280.0272447239769
 20
238.46412660105236
 10
279.1082706099809
 20
241.21090537103734
 10
278.2692465839681
 20
243.98552965206764
 10
277.50608029257677
 20
246.79104563244215
 10
276.8146793824452
 20
249.63049950045985
 10
276.1914849087277
 20
252.50466625775468
 10
275.6350715635662
 20
255.40523614552353
 10
275.1445474475108
 20
258.3216282182394
 10
274.7190206611115
 20
261.2432615303754
 10
274.57620746104624
 20
262.3380003794874
 10
274.44346760466294
 20
263.4310384920614
 10
274.3218596095591
 20
264.52142602772744
 10
274.2124419933324
 20
265.60821314611565
 10
274.1788540881579
 20
265.96951493126534
 10
274.14673372832357
 20
266.3302979984895
 10
274.1160763595549
 20
266.69054921404813
 10
274.0868774275774
 20
267.05025544420073
 10
273.98494834110795
 20
268.4834986762908
 10
273.9082300554471
 20
269.907756484727
 10
273.8586712511357
 20
271.322973352193
 10
273.8382206087144
 20
272.729093761373
 10
273.8485487520267
 20
274.12665235598377
 10
273.8902140781278
 20
275.518544423873
 10
273.9634969273755
 20
276.9082554139211
 10
274.0686776401278
 20
278.2992707750088
 10
274.1163860456511
 20
278.82192513333644
 10
274.168542809074
 20
279.34529243825057
 10
274.2250712283778
 20
279.8694120679114
 10
274.28589460154404
 20
280.39432340047915
 10
274.39660430486384
 20
281.27101756126007
 10
274.51868466978146
 20
282.1500564823568
 10
274.65178899172156
 20
283.03147636557696
 10
274.7955705661089
 20
283.9153134127284
 10
275.3231006490123
 20
286.7592607263448
 10
275.943352658099
 20
289.6235391771306
 10
276.64326370880434
 20
292.5033574369605
 10
277.4097709165637
 20
295.3939241777092
 10
278.2312766694978
 20
298.29067485562274
 10
279.10204445044155
 20
301.1899520782875
 10
280.01780301500037
 20
304.0883252376708
 10
280.9742811187798
 20
306.98236372574
 10
281.9670574437255
 20
309.87167885035467
 10
282.9911103723655
 20
312.76804956915004
 10
284.0412682135101
 20
315.68629675566604
 10
285.1123592759696
 20
318.6412412834425
 10
285.4503845201816
 20
319.57447749270744
 10
285.7887944808902
 20
320.51288102754665
 10
286.1264346626734
 20
321.4565881378958
 10
286.46215057010926
 20
322.4057350736907
 10
286.662202286695
 20
322.97785325947007
 10
286.8610528355332
 20
323.5517816223063
 10
287.05860940599905
 20
324.1273229521087
 10
287.25477918746776
 20
324.7042800387867
 10
287.77052080634525
 20
326.24845380298575
 10
288.27462813159184
 20
327.79875205451765
 10
288.7659884668896
 20
329.35263405913463
 10
289.2434891159205
 20
330.9075590825886
 10
289.70641951001465
 20
332.46136138786864
 10
290.15567759109507
 20
334.01337522691074
 10
290.5925634287327
 20
335.56330984888757
 10
291.0183770924988
 20
337.110874502972
 10
291.1232503977282
 20
337.49736410658073
 10
291.22751864734107
 20
337.8836997918879
 10
291.3311875422393
 20
338.2698939355119
 10
291.4342627833252
 20
338.6559589140711
 10
291.73999113393677
 20
339.81355269924546
 10
292.04062708384026
 20
340.97073001405977
 10
292.3363698084976
 20
342.12812548416656
 10
292.6274184833703
 20
343.28637373521855
 10
293.3809595784736
 20
346.3814922211009
 10
294.0993856673148
 20
349.48398842108475
 10
294.7795452945069
 20
352.5906629356417
 10
295.4182870046635
 20
355.6983163652439
 10
296.0132642849626
 20
358.8040204339538
 10
296.56535039564903
 20
361.9059313750421
 10
297.0762235394611
 20
365.00247654536656
 10
297.5475619191375
 20
368.09208330178507
 10
297.76885705146844
 20
369.63387270110184
 10
297.9804600618697
 20
371.1738140122211
 10
298.1821429687757
 20
372.71218691121055
 10
298.37367779062095
 20
374.24927107413816
 10
298.88608882625556
 20
378.8529562982595
 10
299.30480913827523
 20
383.4393215971255
 10
299.6295326026009
 20
388.0001285854172
 10
299.8599530951532
 20
392.527138877816
 10
318.35847588028236
 20
133.78397608349715
 10
318.4670712152514
 20
133.1735973282299
 10
318.5745647497097
 20
132.5636106881114
 10
318.68099763075986
 20
131.954015615294
 10
318.78641100550516
 20
131.34481156193016
 10
319.30399020059326
 20
128.27115548115967
 10
319.7957875597408
 20
125.20154527195267
 10
320.2610069170507
 20
122.13005480919972
 10
320.69885210662574
 20
119.05075796779144
 10
320.8385521025739
 20
118.02141016999288
 10
320.97492671284374
 20
116.98937807448489
 10
321.1077805888376
 20
115.95350321731476
 10
321.2369183819575
 20
114.91262713452963
 10
321.4823915869059
 20
112.81209892363849
 10
321.7054198492989
 20
110.68283315148504
 10
321.8992039524302
 20
108.52073101501801
 10
322.05694467959313
 20
106.3216937111863
 10
322.1202407221877
 20
105.20789169534928
 10
322.17237641630766
 20
104.08840802713112
 10
322.21290206162075
 20
102.96781954672977
 10
322.2413679577951
 20
101.850703094343
 10
322.2576143086902
 20
100.74085994567287
 10
322.2626409347287
 20
99.63898913464516
 10
322.25773756058595
 20
98.54501413065066
 10
322.2441939109373
 20
97.45885840308011
 10
322.19511299386227
 20
95.30871030930533
 10
322.1195575307037
 20
93.18299086543024
 10
322.0204551786287
 20
91.07515773817113
 10
321.90073359480493
 20
88.9786685942442
 10
321.76257950542254
 20
86.88737736528097
 10
321.60521591276313
 20
84.79672304257411
 10
321.4271248881314
 20
82.7025408823317
 10
321.2267885028317
 20
80.60066614076158
 10
321.0020382946908
 20
78.48688359547896
 10
320.748103667623
 20
76.35677610972769
 10
320.4595634920647
 20
74.20587606815897
 10
320.13099663845253
 20
72.0297158554238
 10
319.755766474174
 20
69.82403085287669
 10
319.32237435442096
 20
67.58536842868585
 10
318.8181061313369
 20
65.31047894772271
 10
318.23024765706475
 20
62.99611277485886
 10
318.01347557307486
 20
62.21539224390099
 10
317.7852552626116
 20
61.43021873329607
 10
317.5448389880105
 20
60.64088663307882
 10
317.29147901160695
 20
59.84769033328374
 10
317.0246702653263
 20
59.05133219316795
 10
316.74487835354967
 20
58.254146431390865
 10
316.45281155014777
 20
57.458875235808364
 10
316.1491781289917
 20
56.668260794276165
 10
315.8442593104481
 20
55.90796783007033
 10
315.5298781343996
 20
55.154959155898524
 10
315.20679092445505
 20
54.40955599001049
 10
314.87575400422327
 20
53.672079550656065
 10
200.82325381008025
 20
0.04141261222102344
 10
203.64843244758367
 20
0.05136069168210611
 10
206.46614267711942
 20
0.08030486155462313
 10
209.27870600003706
 20
0.12689501907195222
 10
212.08844391768613
 20
0.18978106146772689
 10
214.897574406993
 20
0.26810022486174034
 10
217.7079207662319
 20
0.3627559936095395
 10
220.52121247877344
 20
0.4750476372985588
 10
223.3391790279882
 20
0.6062744255161476
 10
226.1643660108062
 20
0.7579052800930981
 10
229.0023623105776
 20
0.9345494499697224
 10
231.85946234030342
 20
1.142216695397309
 10
234.74196051298463
 20
1.3869167766270891
 10
237.65504366096698
 20
1.6763206557214971
 10
240.6001632805628
 20
2.0238595450738046
 10
243.57801078072282
 20
2.444183580431769
 10
246.58927757039777
 20
2.951942897543205
 10
248.6138222496964
 20
3.3470243207775354
 10
250.6431288539382
 20
3.7903298501584857
 10
252.6671200408081
 20
4.281672048344632
 10
254.67571846799086
 20
4.82086347799455
 10
256.6618091105546
 20
5.4053294422415945
 10
258.6274846198488
 20
6.032723877529776
 10
260.57647916798084
 20
6.703202296483397
 10
262.5125269270577
 20
7.416920211726904
 10
264.43651348649735
 20
8.175514168972967
 10
266.3418872395628
 20
8.976673111969916
 10
268.2212265641293
 20
9.814631150395684
 10
270.0671098380722
 20
10.68362239392792
 10
271.87565663146387
 20
11.57643015875442
 10
273.65195000269307
 20
12.489635266897608
 10
275.40201356210935
 20
13.423168086787427
 10
277.1318709200625
 20
14.376958986853793
 10
278.8468353262259
 20
15.351810694387552
 10
280.55033014252945
 20
16.351091970828264
 10
282.2455441477068
 20
17.37858223582873
 10
283.93566612049176
 20
18.438060909041752
 10
285.6227186756472
 20
19.53381250269095
 10
287.3050105675796
 20
20.670356429948924
 10
288.9801597844888
 20
21.851824461892278
 10
290.6457843145748
 20
23.08234836959761
 10
291.8307903417252
 20
23.995613893600876
 10
293.00763985556875
 20
24.93688098139299
 10
294.17438596810103
 20
25.90677118180176
 10
295.3290817913179
 20
26.90590604365471
 10
125.4124877533142
 20
119.09121261222097
 10
125.43417622272185
 20
118.56683376847167
 10
125.4990934767069
 20
118.04603696393832
 10
125.60679606459945
 20
117.53237976887691
 10
125.75654826851516
 20
117.02937098277124
 10
125.94732712905457
 20
116.54044666567462
 10
126.177829433153
 20
116.06894666643556
 10
126.44648061634713
 20
115.61809180814357
 10
126.75144551864709
 20
115.19096188664159
 10
127.0906409205398
 20
114.79047463239753
 10
127.46174977349074
 20
114.4193657794466
 10
127.86223702773479
 20
114.08017037755388
 10
128.28936694923678
 20
113.77520547525393
 10
128.74022180752877
 20
113.50655429205977
 10
129.21172180676783
 20
113.27605198796138
 10
129.70064612386443
 20
113.08527312742196
 10
130.2036549099701
 20
112.93552092350625
 10
130.7173121050315
 20
112.8278183356137
 10
131.23810890956486
 20
112.76290108162864
 10
131.76248775331416
 20
112.74121261222099
 10
295.3290817913179
 20
26.90590604365471
 10
296.5755095375623
 20
28.035244331804904
 10
297.78904811039456
 20
29.19192322063583
 10
298.97046563549213
 20
30.37522219117747
 10
300.1208428105797
 20
31.584109917095105
 10
301.24141431279605
 20
32.81737894502095
 10
302.3334297564846
 20
34.07376394292962
 10
303.39806427898657
 20
35.3520182366197
 10
304.43634867685864
 20
36.650973914237966
 10
305.4491008579947
 20
37.96960085456283
 10
306.4368719568373
 20
39.307054204992966
 10
307.3999296712768
 20
40.66269253955468
 10
308.33825626263956
 20
42.036084466614454
 10
309.25154766715207
 20
43.42701441872805
 10
310.1392268426844
 20
44.835478728341144
 10
311.000493251203
 20
46.261657044497696
 10
311.83438657650277
 20
47.70587403539989
 10
312.6398516971313
 20
49.168560275305026
 10
313.41582205901443
 20
50.650201638331396
 10
314.16134975501996
 20
52.15125951749508
 10
314.87575400422327
 20
53.672079550656065
 10
284.4947989679812
 20
227.62654485208995
 10
286.5967875448146
 20
223.0756662018574
 10
288.6776416107461
 20
218.5167532953636
 10
290.7365415973837
 20
213.94957338501473
 10
292.7720523868328
 20
209.37370872002194
 10
294.7820669413388
 20
204.7885323841223
 10
296.76375961609267
 20
200.19318798718032
 10
298.71356405237674
 20
195.58657913971658
 10
300.62716075387397
 20
190.9673627813166
 10
302.4994657915185
 20
186.3339429210726
 10
304.3246391672646
 20
181.68447123699042
 10
306.0961430812617
 20
177.0168650866174
 10
307.80681985794723
 20
172.3288323766356
 10
309.44897228590503
 20
167.61789724804632
 10
311.0144870566961
 20
162.88144010776028
 10
312.49506760877705
 20
158.11677407798663
 10
313.8825100703908
 20
153.32123579202744
 10
315.16898365750353
 20
148.49227766468772
 10
316.3473838039553
 20
143.62758415627806
 10
317.41186991953725
 20
138.72524894342874
 10
318.35847588028236
 20
133.78397608349715
  0
ENDSEC
  0
SECTION
  2
OBJECTS
  0
DICTIONARY
  5
A
330
0
100
AcDbDictionary
281
1
  3
ACAD_COLOR
350
B
  3
ACAD_GROUP
350
C
  3
ACAD_LAYOUT
350
D
  3
ACAD_MATERIAL
350
E
  3
ACAD_MLEADERSTYLE
350
F
  3
ACAD_MLINESTYLE
350
10
  3
ACAD_PLOTSETTINGS
350
11
  3
ACAD_PLOTSTYLENAME
350
12
  3
ACAD_SCALELIST
350
14
  3
ACAD_TABLESTYLE
350
15
  3
ACAD_VISUALSTYLE
350
16
  3
EZDXF_META
350
2D
  0
DICTIONARY
  5
B
330
A
100
AcDbDictionary
281
1
  0
DICTIONARY
  5
C
330
A
100
AcDbDictionary
281
1
  0
DICTIONARY
  5
D
330
A
100
AcDbDictionary
281
1
  3
Model
350
1A
  3
Layout1
350
1E
  0
DICTIONARY
  5
E
330
A
100
AcDbDictionary
281
1
  3
ByBlock
350
1F
  3
ByLayer
350
20
  3
Global
350
21
  0
DICTIONARY
  5
F
330
A
100
AcDbDictionary
281
1
  3
Standard
350
2C
  0
DICTIONARY
  5
10
330
A
100
AcDbDictionary
281
1
  3
Standard
350
22
  0
DICTIONARY
  5
11
330
A
100
AcDbDictionary
281
1
  0
ACDBDICTIONARYWDFLT
  5
12
330
A
100
AcDbDictionary
281
1
  3
Normal
350
13
100
AcDbDictionaryWithDefault
340
13
  0
ACDBPLACEHOLDER
  5
13
330
12
  0
DICTIONARY
  5
14
330
A
100
AcDbDictionary
281
1
  0
DICTIONARY
  5
15
330
A
100
AcDbDictionary
281
1
  0
DICTIONARY
  5
16
330
A
100
AcDbDictionary
281
1
  0
LAYOUT
  5
1A
330
D
100
AcDbPlotSettings
  1

  4
A3
  6

 40
7.5
 41
20.0
 42
7.5
 43
20.0
 44
420.0
 45
297.0
 46
0.0
 47
0.0
 48
0.0
 49
0.0
140
0.0
141
0.0
142
1.0
143
1.0
 70
1024
 72
1
 73
0
 74
5
  7

 75
16
 76
0
 77
2
 78
300
147
1.0
148
0.0
149
0.0
100
AcDbLayout
  1
Model
 70
1
 71
0
 10
0.0
 20
0.0
 11
420.0
 21
297.0
 12
0.0
 22
0.0
 32
0.0
 14
1e+20
 24
1e+20
 34
1e+20
 15
-1e+20
 25
-1e+20
 35
-1e+20
146
0.0
 13
0.0
 23
0.0
 33
0.0
 16
1.0
 26
0.0
 36
0.0
 17
0.0
 27
1.0
 37
0.0
 76
1
330
17
  0
LAYOUT
  5
1E
330
D
100
AcDbPlotSettings
  1

  4
A3
  6

 40
7.5
 41
20.0
 42
7.5
 43
20.0
 44
420.0
 45
297.0
 46
0.0
 47
0.0
 48
0.0
 49
0.0
140
0.0
141
0.0
142
1.0
143
1.0
 70
0
 72
1
 73
0
 74
5
  7

 75
16
 76
0
 77
2
 78
300
147
1.0
148
0.0
149
0.0
100
AcDbLayout
  1
Layout1
 70
1
 71
1
 10
0.0
 20
0.0
 11
420.0
 21
297.0
 12
0.0
 22
0.0
 32
0.0
 14
1e+20
 24
1e+20
 34
1e+20
 15
-1e+20
 25
-1e+20
 35
-1e+20
146
0.0
 13
0.0
 23
0.0
 33
0.0
 16
1.0
 26
0.0
 36
0.0
 17
0.0
 27
1.0
 37
0.0
 76
1
330
1B
  0
MATERIAL
  5
1F
102
{ACAD_REACTORS
330
E
102
}
330
E
100
AcDbMaterial
  1
ByBlock
  2

 70
0
 40
1.0
 71
1
 41
1.0
 91
-1023410177
 42
1.0
 72
1
  3

 73
1
 74
1
 75
1
 44
0.5
 73
0
 45
1.0
 46
1.0
 77
1
  4

 78
1
 79
1
170
1
 48
1.0
171
1
  6

172
1
173
1
174
1
140
1.0
141
1.0
175
1
  7

176
1
177
1
178
1
143
1.0
179
1
  8

270
1
271
1
272
1
145
1.0
146
1.0
273
1
  9

274
1
275
1
276
1
 42
1.0
 72
1
  3

 73
1
 74
1
 75
1
 94
63
  0
MATERIAL
  5
20
102
{ACAD_REACTORS
330
E
102
}
330
E
100
AcDbMaterial
  1
ByLayer
  2

 70
0
 40
1.0
 71
1
 41
1.0
 91
-1023410177
 42
1.0
 72
1
  3

 73
1
 74
1
 75
1
 44
0.5
 73
0
 45
1.0
 46
1.0
 77
1
  4

 78
1
 79
1
170
1
 48
1.0
171
1
  6

172
1
173
1
174
1
140
1.0
141
1.0
175
1
  7

176
1
177
1
178
1
143
1.0
179
1
  8

270
1
271
1
272
1
145
1.0
146
1.0
273
1
  9

274
1
275
1
276
1
 42
1.0
 72
1
  3

 73
1
 74
1
 75
1
 94
63
  0
MATERIAL
  5
21
102
{ACAD_REACTORS
330
E
102
}
330
E
100
AcDbMaterial
  1
Global
  2

 70
0
 40
1.0
 71
1
 41
1.0
 91
-1023410177
 42
1.0
 72
1
  3

 73
1
 74
1
 75
1
 44
0.5
 73
0
 45
1.0
 46
1.0
 77
1
  4

 78
1
 79
1
170
1
 48
1.0
171
1
  6

172
1
173
1
174
1
140
1.0
141
1.0
175
1
  7

176
1
177
1
178
1
143
1.0
179
1
  8

270
1
271
1
272
1
145
1.0
146
1.0
273
1
  9

274
1
275
1
276
1
 42
1.0
 72
1
  3

 73
1
 74
1
 75
1
 94
63
  0
MLINESTYLE
  5
22
102
{ACAD_REACTORS
330
10
102
}
330
10
100
AcDbMlineStyle
  2
Standard
 70
0
  3

 62
256
 51
90.0
 52
90.0
 71
2
 49
0.5
 62
256
  6
BYLAYER
 49
-0.5
 62
256
  6
BYLAYER
  0
MLEADERSTYLE
  5
2C
102
{ACAD_REACTORS
330
F
102
}
330
F
100
AcDbMLeaderStyle
179
2
170
2
171
1
172
0
 90
2
 40
0.0
 41
0.0
173
1
 91
-1056964608
 92
-2
290
1
 42
2.0
291
1
 43
8.0
  3
Standard
 44
4.0
300

342
29
174
1
175
1
176
0
178
1
 93
-1056964608
 45
4.0
292
0
297
0
 46
4.0
 94
-1056964608
 47
1.0
 49
1.0
140
1.0
294
1
141
0.0
177
0
142
1.0
295
0
296
0
143
3.75
271
0
272
9
273
9
  0
DICTIONARY
  5
2D
330
A
100
AcDbDictionary
280
1
281
1
  3
CREATED_BY_EZDXF
350
2E
  3
WRITTEN_BY_EZDXF
350
32
  0
DICTIONARYVAR
  5
2E
330
2D
100
DictionaryVariables
280
0
  1
1.4.3 @ 2025-12-11T10:24:31.085486+00:00
  0
DICTIONARYVAR
  5
32
330
2D
100
DictionaryVariables
280
0
  1
1.4.3 @ 2025-12-11T10:24:31.094819+00:00
  0
ENDSEC
  0
EOF
