  0
SECTION
  2
HEADER
  9
$ACADVER
  1
AC1009
  9
$DWGCODEPAGE
  3
ANSI_1252
  9
$INSBASE
 10
0.0
 20
0.0
 30
0.0
  9
$EXTMIN
 10
1e+20
 20
1e+20
 30
1e+20
  9
$EXTMAX
 10
-1e+20
 20
-1e+20
 30
-1e+20
  9
$LIMMIN
 10
0.0
 20
0.0
  9
$LIMMAX
 10
420.0
 20
297.0
  9
$ORTHOMODE
 70
0
  9
$REGENMODE
 70
1
  9
$FILLMODE
 70
1
  9
$DRAGMODE
 70
2
  9
$QTEXTMODE
 70
0
  9
$MIRRTEXT
 70
1
  9
$OSMODE
 70
20583
  9
$LTSCALE
 40
1.0
  9
$ATTMODE
 70
1
  9
$TEXTSIZE
 40
2.5
  9
$TRACEWID
 40
1.0
  9
$TEXTSTYLE
  7
Standard
  9
$CLAYER
  8
0
  9
$CELTYPE
  6
ByLayer
  9
$CECOLOR
 62
256
  9
$DIMSCALE
 40
1.0
  9
$DIMASZ
 40
2.5
  9
$DIMEXO
 40
0.625
  9
$DIMDLI
 40
3.75
  9
$DIMRND
 40
0.0
  9
$DIMDLE
 40
0.0
  9
$DIMEXE
 40
1.25
  9
$DIMTP
 40
0.0
  9
$DIMTM
 40
0.0
  9
$DIMTXT
 40
2.5
  9
$DIMCEN
 40
2.5
  9
$DIMTSZ
 40
0.0
  9
$DIMTOL
 70
0
  9
$DIMLIM
 70
0
  9
$DIMTIH
 70
0
  9
$DIMTOH
 70
0
  9
$DIMSE1
 70
0
  9
$DIMSE2
 70
0
  9
$DIMTAD
 70
1
  9
$DIMZIN
 70
8
  9
$DIMBLK
  1

  9
$DIMASO
 70
1
  9
$DIMSHO
 70
1
  9
$DIMPOST
  1

  9
$DIMAPOST
  1

  9
$DIMALT
 70
0
  9
$DIMALTD
 70
3
  9
$DIMALTF
 40
0.03937007874
  9
$DIMLFAC
 40
1.0
  9
$DIMTOFL
 70
1
  9
$DIMTVP
 40
0.0
  9
$DIMTIX
 70
0
  9
$DIMSOXD
 70
0
  9
$DIMSAH
 70
0
  9
$DIMBLK1
  1

  9
$DIMBLK2
  1

  9
$DIMSTYLE
  2
ISO-25
  9
$DIMCLRD
 70
0
  9
$DIMCLRE
 70
0
  9
$DIMCLRT
 70
0
  9
$DIMTFAC
 40
1.0
  9
$DIMGAP
 40
0.625
  9
$COORDS
 70
1
  9
$ATTDIA
 70
0
  9
$ATTREQ
 70
1
  9
$HANDLING
 70
1
  9
$LUNITS
 70
2
  9
$LUPREC
 70
4
  9
$SKETCHINC
 40
1.0
  9
$FILLETRAD
 40
10.0
  9
$AUNITS
 70
0
  9
$AUPREC
 70
2
  9
$MENU
  1
.
  9
$ELEVATION
 40
0.0
  9
$PELEVATION
 40
0.0
  9
$THICKNESS
 40
0.0
  9
$LIMCHECK
 70
0
  9
$CHAMFERA
 40
0.0
  9
$CHAMFERB
 40
0.0
  9
$SKPOLY
 70
0
  9
$TDCREATE
 40
2461145.749386574
  9
$TDUPDATE
 40
2461145.749386574
  9
$TDINDWG
 40
0.0
  9
$TDUSRTIMER
 40
0.0
  9
$USRTIMER
 70
1
  9
$ANGBASE
 50
0.0
  9
$ANGDIR
 70
0
  9
$PDMODE
 70
0
  9
$PDSIZE
 40
0.0
  9
$PLINEWID
 40
0.0
  9
$SPLFRAME
 70
0
  9
$SPLINETYPE
 70
6
  9
$SPLINESEGS
 70
8
  9
$HANDSEED
  5
347
  9
$SURFTAB1
 70
6
  9
$SURFTAB2
 70
6
  9
$SURFTYPE
 70
6
  9
$SURFU
 70
6
  9
$SURFV
 70
6
  9
$UCSNAME
  2

  9
$UCSORG
 10
0.0
 20
0.0
 30
0.0
  9
$UCSXDIR
 10
1.0
 20
0.0
 30
0.0
  9
$UCSYDIR
 10
0.0
 20
1.0
 30
0.0
  9
$PUCSNAME
  2

  9
$PUCSORG
 10
0.0
 20
0.0
 30
0.0
  9
$PUCSXDIR
 10
1.0
 20
0.0
 30
0.0
  9
$PUCSYDIR
 10
0.0
 20
1.0
 30
0.0
  9
$USERI1
 70
0
  9
$USERI2
 70
0
  9
$USERI3
 70
0
  9
$USERI4
 70
0
  9
$USERI5
 70
0
  9
$USERR1
 40
0.0
  9
$USERR2
 40
0.0
  9
$USERR3
 40
0.0
  9
$USERR4
 40
0.0
  9
$USERR5
 40
0.0
  9
$WORLDVIEW
 70
1
  9
$SHADEDGE
 70
3
  9
$SHADEDIF
 70
70
  9
$TILEMODE
 70
1
  9
$MAXACTVP
 70
64
  9
$PLIMCHECK
 70
0
  9
$PEXTMIN
 10
1e+20
 20
1e+20
 30
1e+20
  9
$PEXTMAX
 10
-1e+20
 20
-1e+20
 30
-1e+20
  9
$PLIMMIN
 10
0.0
 20
0.0
  9
$PLIMMAX
 10
420.0
 20
297.0
  9
$UNITMODE
 70
0
  9
$VISRETAIN
 70
1
  9
$PLINEGEN
 70
0
  9
$PSLTSCALE
 70
1
  0
ENDSEC
  0
SECTION
  2
TABLES
  0
TABLE
  2
VPORT
 70
1
  0
VPORT
  5
23
  2
*Active
 70
0
 10
0.0
 20
0.0
 11
1.0
 21
1.0
 12
0.0
 22
0.0
 13
0.0
 23
0.0
 14
0.5
 24
0.5
 15
0.5
 25
0.5
 16
0.0
 26
0.0
 36
1.0
 17
0.0
 27
0.0
 37
0.0
 40
1000.0
 41
1.34
 42
50.0
 43
0.0
 44
0.0
 50
0.0
 51
0.0
 71
0
 72
1000
 73
1
 74
3
 75
0
 76
0
 77
0
 78
0
  0
ENDTAB
  0
TABLE
  2
LTYPE
 70
3
  0
LTYPE
  5
24
  2
ByBlock
 70
0
  3

 72
65
 73
0
 40
0.0
  0
LTYPE
  5
25
  2
ByLayer
 70
0
  3

 72
65
 73
0
 40
0.0
  0
LTYPE
  5
26
  2
Continuous
 70
0
  3

 72
65
 73
0
 40
0.0
  0
ENDTAB
  0
TABLE
  2
LAYER
 70
7
  0
LAYER
  5
27
  2
0
 70
0
 62
7
  6
Continuous
  0
LAYER
  5
28
  2
Defpoints
 70
0
 62
7
  6
Continuous
  0
LAYER
  5
2D
  2
BODY
 70
0
 62
7
  6
Continuous
  0
LAYER
  5
2E
  2
AUX_VIEWS
 70
0
 62
8
  6
Continuous
  0
LAYER
  5
2F
  2
ANNOTATION
 70
0
 62
7
  6
Continuous
  0
LAYER
  5
30
  2
TITLE_BLOCK
 70
0
 62
8
  6
Continuous
  0
LAYER
  5
31
  2
PAGE_FRAME
 70
0
 62
9
  6
Continuous
  0
ENDTAB
  0
TABLE
  2
STYLE
 70
1
  0
STYLE
  5
29
  2
Standard
 70
0
 40
0.0
 41
1.0
 50
0.0
 71
0
 42
2.5
  3
txt
  4

  0
ENDTAB
  0
TABLE
  2
VIEW
 70
0
  0
ENDTAB
  0
TABLE
  2
UCS
 70
0
  0
ENDTAB
  0
TABLE
  2
APPID
 70
3
  0
APPID
  5
2A
  2
ACAD
 70
0
  0
APPID
  5
345
  2
HATCHBACKGROUNDCOLOR
 70
0
  0
APPID
  5
346
  2
EZDXF
 70
0
  0
ENDTAB
  0
TABLE
  2
DIMSTYLE
 70
1
  0
DIMSTYLE
105
2B
  2
Standard
 70
0
  3

  4

  5

  6

  7

 40
1.0
 41
2.5
 42
0.625
 43
3.75
 44
1.25
 45
0.0
 46
0.0
 47
0.0
 48
0.0
140
2.5
141
2.5
142
0.0
143
0.03937007874
144
1.0
145
0.0
146
1.0
147
0.625
 71
0
 72
0
 73
0
 74
0
 75
0
 76
0
 77
1
 78
8
170
0
171
3
172
1
173
0
174
0
175
0
176
0
177
0
178
0
  0
ENDTAB
  0
ENDSEC
  0
SECTION
  2
BLOCKS
  0
BLOCK
  5
18
  8
0
  2
$Model_Space
 70
0
 10
0.0
 20
0.0
 30
0.0
  3
$Model_Space
  1

1001
EZDXF
1000
CREATED_BY_EZDXF
1000
1.4.3 @ 2026-04-14T22:59:07.090500+00:00
1000
WRITTEN_BY_EZDXF
1000
1.4.3 @ 2026-04-14T22:59:07.146477+00:00
  0
ENDBLK
  5
19
  8
0
  0
BLOCK
  5
1C
  8
0
  2
$Paper_Space
 70
0
 10
0.0
 20
0.0
 30
0.0
  3
$Paper_Space
  1

  0
ENDBLK
  5
1D
  8
0
  0
ENDSEC
  0
SECTION
  2
ENTITIES
  0
LINE
  5
32
  8
BODY
 10
233.80643213045445
 20
131.20942171221503
 30
0.0
 11
233.8819266193568
 21
131.2849162011173
 31
0.0
  0
LINE
  5
33
  8
BODY
 10
233.8819266193568
 20
131.2849162011173
 30
0.0
 11
257.51170164577985
 21
131.2849162011173
 31
0.0
  0
LINE
  5
34
  8
BODY
 10
257.51170164577985
 20
131.2849162011173
 30
0.0
 11
257.58719613468213
 21
131.20942171221503
 31
0.0
  0
LINE
  5
35
  8
BODY
 10
257.58719613468213
 20
131.20942171221503
 30
0.0
 11
257.58719613468213
 21
126.60425788917411
 31
0.0
  0
LINE
  5
36
  8
BODY
 10
257.58719613468213
 20
126.60425788917411
 30
0.0
 11
256.83225124565905
 21
126.52876340027177
 31
0.0
  0
LINE
  5
37
  8
BODY
 10
256.83225124565905
 20
126.52876340027177
 30
0.0
 11
257.58719613468213
 21
126.45326891136949
 31
0.0
  0
LINE
  5
38
  8
BODY
 10
257.58719613468213
 20
126.45326891136949
 30
0.0
 11
257.58719613468213
 21
121.9235995772309
 31
0.0
  0
LINE
  5
39
  8
BODY
 10
257.58719613468213
 20
121.9235995772309
 30
0.0
 11
257.51170164577985
 21
121.84810508832857
 31
0.0
  0
LINE
  5
3A
  8
BODY
 10
257.51170164577985
 20
121.84810508832857
 30
0.0
 11
233.8819266193568
 21
121.84810508832857
 31
0.0
  0
LINE
  5
3B
  8
BODY
 10
233.8819266193568
 20
121.84810508832857
 30
0.0
 11
233.80643213045445
 21
121.9235995772309
 31
0.0
  0
LINE
  5
3C
  8
BODY
 10
233.80643213045445
 20
121.9235995772309
 30
0.0
 11
233.80643213045445
 21
126.45326891136949
 31
0.0
  0
LINE
  5
3D
  8
BODY
 10
233.80643213045445
 20
126.45326891136949
 30
0.0
 11
234.71236599728218
 21
126.52876340027177
 31
0.0
  0
LINE
  5
3E
  8
BODY
 10
234.71236599728218
 20
126.52876340027177
 30
0.0
 11
233.80643213045445
 21
126.60425788917411
 31
0.0
  0
LINE
  5
3F
  8
BODY
 10
233.80643213045445
 20
126.60425788917411
 30
0.0
 11
233.80643213045445
 21
131.20942171221503
 31
0.0
  0
LINE
  5
40
  8
BODY
 10
470.7081383059037
 20
140.19326589158993
 30
0.0
 11
488.07187075343495
 21
139.96678242488298
 31
0.0
  0
LINE
  5
41
  8
BODY
 10
488.07187075343495
 20
139.96678242488298
 30
0.0
 11
488.2228597312396
 21
139.81579344707836
 31
0.0
  0
LINE
  5
42
  8
BODY
 10
488.2228597312396
 20
139.81579344707836
 30
0.0
 11
488.2228597312396
 21
113.31722784236752
 31
0.0
  0
LINE
  5
43
  8
BODY
 10
488.2228597312396
 20
113.31722784236752
 30
0.0
 11
488.07187075343495
 21
113.1662388645629
 31
0.0
  0
LINE
  5
44
  8
BODY
 10
488.07187075343495
 20
113.1662388645629
 30
0.0
 11
470.63264381700134
 21
113.01524988675828
 31
0.0
  0
LINE
  5
45
  8
BODY
 10
470.63264381700134
 20
113.01524988675828
 30
0.0
 11
470.7081383059037
 21
140.19326589158993
 31
0.0
  0
LINE
  5
46
  8
BODY
 10
451.8345160803261
 20
140.49524384719916
 30
0.0
 11
470.557149328099
 21
140.1177714026876
 31
0.0
  0
LINE
  5
47
  8
BODY
 10
470.557149328099
 20
140.1177714026876
 30
0.0
 11
470.557149328099
 21
139.8912879359807
 31
0.0
  0
LINE
  5
48
  8
BODY
 10
470.557149328099
 20
139.8912879359807
 30
0.0
 11
470.4061603502944
 21
139.8912879359807
 31
0.0
  0
LINE
  5
49
  8
BODY
 10
470.4061603502944
 20
139.8912879359807
 30
0.0
 11
470.557149328099
 21
139.74029895817608
 31
0.0
  0
LINE
  5
4A
  8
BODY
 10
470.557149328099
 20
139.74029895817608
 30
0.0
 11
470.557149328099
 21
113.46821682017213
 31
0.0
  0
LINE
  5
4B
  8
BODY
 10
470.557149328099
 20
113.46821682017213
 30
0.0
 11
470.3306658613921
 21
113.31722784236752
 31
0.0
  0
LINE
  5
4C
  8
BODY
 10
470.3306658613921
 20
113.31722784236752
 30
0.0
 11
470.3306658613921
 21
113.46821682017213
 31
0.0
  0
LINE
  5
4D
  8
BODY
 10
470.3306658613921
 20
113.46821682017213
 30
0.0
 11
470.10418239468515
 21
113.46821682017213
 31
0.0
  0
LINE
  5
4E
  8
BODY
 10
470.10418239468515
 20
113.46821682017213
 30
0.0
 11
470.1796768835875
 21
113.54371130907447
 31
0.0
  0
LINE
  5
4F
  8
BODY
 10
470.1796768835875
 20
113.54371130907447
 30
0.0
 11
469.8022044390759
 21
113.54371130907447
 31
0.0
  0
LINE
  5
50
  8
BODY
 10
469.8022044390759
 20
113.54371130907447
 30
0.0
 11
469.42473199456435
 21
113.1662388645629
 31
0.0
  0
LINE
  5
51
  8
BODY
 10
469.42473199456435
 20
113.1662388645629
 30
0.0
 11
469.57572097236897
 21
113.1662388645629
 31
0.0
  0
LINE
  5
52
  8
BODY
 10
469.57572097236897
 20
113.1662388645629
 30
0.0
 11
469.57572097236897
 21
113.39272233126985
 31
0.0
  0
LINE
  5
53
  8
BODY
 10
469.57572097236897
 20
113.39272233126985
 30
0.0
 11
470.25517137248977
 21
113.39272233126985
 31
0.0
  0
LINE
  5
54
  8
BODY
 10
470.25517137248977
 20
113.39272233126985
 30
0.0
 11
470.557149328099
 21
113.24173335346524
 31
0.0
  0
LINE
  5
55
  8
BODY
 10
470.557149328099
 20
113.24173335346524
 30
0.0
 11
470.4816548391967
 21
112.93975539785595
 31
0.0
  0
LINE
  5
56
  8
BODY
 10
470.4816548391967
 20
112.93975539785595
 30
0.0
 11
451.7590215914238
 21
112.71327193114905
 31
0.0
  0
LINE
  5
57
  8
BODY
 10
451.7590215914238
 20
112.71327193114905
 30
0.0
 11
451.9100105692284
 21
113.1662388645629
 31
0.0
  0
LINE
  5
58
  8
BODY
 10
451.9100105692284
 20
113.1662388645629
 30
0.0
 11
452.66495545825154
 21
113.1662388645629
 31
0.0
  0
LINE
  5
59
  8
BODY
 10
452.66495545825154
 20
113.1662388645629
 30
0.0
 11
452.5139664804469
 21
113.09074437566062
 31
0.0
  0
LINE
  5
5A
  8
BODY
 10
452.5139664804469
 20
113.09074437566062
 30
0.0
 11
452.5139664804469
 21
113.24173335346524
 31
0.0
  0
LINE
  5
5B
  8
BODY
 10
452.5139664804469
 20
113.24173335346524
 30
0.0
 11
452.28748301374
 21
113.24173335346524
 31
0.0
  0
LINE
  5
5C
  8
BODY
 10
452.28748301374
 20
113.24173335346524
 30
0.0
 11
452.3629775026423
 21
113.31722784236752
 31
0.0
  0
LINE
  5
5D
  8
BODY
 10
452.3629775026423
 20
113.31722784236752
 30
0.0
 11
451.7590215914238
 21
113.1662388645629
 31
0.0
  0
LINE
  5
5E
  8
BODY
 10
451.7590215914238
 20
113.1662388645629
 30
0.0
 11
451.8345160803261
 21
140.49524384719916
 31
0.0
  0
LINE
  5
5F
  8
BODY
 10
436.28265136645024
 20
140.72172731390611
 30
0.0
 11
451.6835271025215
 21
140.41974935829688
 31
0.0
  0
LINE
  5
60
  8
BODY
 10
451.6835271025215
 20
140.41974935829688
 30
0.0
 11
451.6835271025215
 21
112.78876642005133
 31
0.0
  0
LINE
  5
61
  8
BODY
 10
451.6835271025215
 20
112.78876642005133
 30
0.0
 11
451.5325381247169
 21
112.63777744224672
 31
0.0
  0
LINE
  5
62
  8
BODY
 10
451.5325381247169
 20
112.63777744224672
 30
0.0
 11
436.2071568775479
 21
112.4867884644421
 31
0.0
  0
LINE
  5
63
  8
BODY
 10
436.2071568775479
 20
112.4867884644421
 30
0.0
 11
436.28265136645024
 21
140.72172731390611
 31
0.0
  0
LINE
  5
64
  8
BODY
 10
435.07473954401325
 20
140.72172731390611
 30
0.0
 11
436.0561678997433
 21
140.72172731390611
 31
0.0
  0
LINE
  5
65
  8
BODY
 10
436.0561678997433
 20
140.72172731390611
 30
0.0
 11
436.1316623886456
 21
140.64623282500378
 31
0.0
  0
LINE
  5
66
  8
BODY
 10
436.1316623886456
 20
140.64623282500378
 30
0.0
 11
436.1316623886456
 21
140.49524384719916
 31
0.0
  0
LINE
  5
67
  8
BODY
 10
436.1316623886456
 20
140.49524384719916
 30
0.0
 11
435.980673410841
 21
140.41974935829688
 31
0.0
  0
LINE
  5
68
  8
BODY
 10
435.980673410841
 20
140.41974935829688
 30
0.0
 11
436.1316623886456
 21
140.26876038049227
 31
0.0
  0
LINE
  5
69
  8
BODY
 10
436.1316623886456
 20
140.26876038049227
 30
0.0
 11
436.1316623886456
 21
126.60425788917411
 31
0.0
  0
LINE
  5
6A
  8
BODY
 10
436.1316623886456
 20
126.60425788917411
 30
0.0
 11
436.0561678997433
 21
126.52876340027177
 31
0.0
  0
LINE
  5
6B
  8
BODY
 10
436.0561678997433
 20
126.52876340027177
 30
0.0
 11
436.1316623886456
 21
126.45326891136949
 31
0.0
  0
LINE
  5
6C
  8
BODY
 10
436.1316623886456
 20
126.45326891136949
 30
0.0
 11
436.1316623886456
 21
112.86426090895367
 31
0.0
  0
LINE
  5
6D
  8
BODY
 10
436.1316623886456
 20
112.86426090895367
 30
0.0
 11
435.980673410841
 21
112.71327193114905
 31
0.0
  0
LINE
  5
6E
  8
BODY
 10
435.980673410841
 20
112.71327193114905
 30
0.0
 11
436.1316623886456
 21
112.56228295334444
 31
0.0
  0
LINE
  5
6F
  8
BODY
 10
436.1316623886456
 20
112.56228295334444
 30
0.0
 11
435.980673410841
 21
112.41129397553982
 31
0.0
  0
LINE
  5
70
  8
BODY
 10
435.980673410841
 20
112.41129397553982
 30
0.0
 11
435.07473954401325
 21
112.41129397553982
 31
0.0
  0
LINE
  5
71
  8
BODY
 10
435.07473954401325
 20
112.41129397553982
 30
0.0
 11
434.999245055111
 21
112.4867884644421
 31
0.0
  0
LINE
  5
72
  8
BODY
 10
434.999245055111
 20
112.4867884644421
 30
0.0
 11
434.999245055111
 21
112.71327193114905
 31
0.0
  0
LINE
  5
73
  8
BODY
 10
434.999245055111
 20
112.71327193114905
 30
0.0
 11
435.07473954401325
 21
112.78876642005133
 31
0.0
  0
LINE
  5
74
  8
BODY
 10
435.07473954401325
 20
112.78876642005133
 30
0.0
 11
435.1502340329156
 21
112.71327193114905
 31
0.0
  0
LINE
  5
75
  8
BODY
 10
435.1502340329156
 20
112.71327193114905
 30
0.0
 11
434.999245055111
 21
112.93975539785595
 31
0.0
  0
LINE
  5
76
  8
BODY
 10
434.999245055111
 20
112.93975539785595
 30
0.0
 11
434.999245055111
 21
126.45326891136949
 31
0.0
  0
LINE
  5
77
  8
BODY
 10
434.999245055111
 20
126.45326891136949
 30
0.0
 11
435.07473954401325
 21
126.52876340027177
 31
0.0
  0
LINE
  5
78
  8
BODY
 10
435.07473954401325
 20
126.52876340027177
 30
0.0
 11
435.8296844330364
 21
126.52876340027177
 31
0.0
  0
LINE
  5
79
  8
BODY
 10
435.8296844330364
 20
126.52876340027177
 30
0.0
 11
435.07473954401325
 21
126.52876340027177
 31
0.0
  0
LINE
  5
7A
  8
BODY
 10
435.07473954401325
 20
126.52876340027177
 30
0.0
 11
434.999245055111
 21
126.60425788917411
 31
0.0
  0
LINE
  5
7B
  8
BODY
 10
434.999245055111
 20
126.60425788917411
 30
0.0
 11
434.999245055111
 21
140.26876038049227
 31
0.0
  0
LINE
  5
7C
  8
BODY
 10
434.999245055111
 20
140.26876038049227
 30
0.0
 11
435.07473954401325
 21
140.34425486939455
 31
0.0
  0
LINE
  5
7D
  8
BODY
 10
435.07473954401325
 20
140.34425486939455
 30
0.0
 11
435.3767174996225
 21
140.1177714026876
 31
0.0
  0
LINE
  5
7E
  8
BODY
 10
435.3767174996225
 20
140.1177714026876
 30
0.0
 11
435.60320096632944
 21
140.19326589158993
 31
0.0
  0
LINE
  5
7F
  8
BODY
 10
435.60320096632944
 20
140.19326589158993
 30
0.0
 11
435.75418994413405
 21
140.1177714026876
 31
0.0
  0
LINE
  5
80
  8
BODY
 10
435.75418994413405
 20
140.1177714026876
 30
0.0
 11
435.6786954552318
 21
140.19326589158993
 31
0.0
  0
LINE
  5
81
  8
BODY
 10
435.6786954552318
 20
140.19326589158993
 30
0.0
 11
435.75418994413405
 21
140.26876038049227
 31
0.0
  0
LINE
  5
82
  8
BODY
 10
435.75418994413405
 20
140.26876038049227
 30
0.0
 11
435.90517892193867
 21
140.19326589158993
 31
0.0
  0
LINE
  5
83
  8
BODY
 10
435.90517892193867
 20
140.19326589158993
 30
0.0
 11
435.8296844330364
 21
140.34425486939455
 31
0.0
  0
LINE
  5
84
  8
BODY
 10
435.8296844330364
 20
140.34425486939455
 30
0.0
 11
435.75418994413405
 21
140.26876038049227
 31
0.0
  0
LINE
  5
85
  8
BODY
 10
435.75418994413405
 20
140.26876038049227
 30
0.0
 11
435.1502340329156
 21
140.26876038049227
 31
0.0
  0
LINE
  5
86
  8
BODY
 10
435.1502340329156
 20
140.26876038049227
 30
0.0
 11
435.07473954401325
 21
140.34425486939455
 31
0.0
  0
LINE
  5
87
  8
BODY
 10
435.07473954401325
 20
140.34425486939455
 30
0.0
 11
435.1502340329156
 21
140.41974935829688
 31
0.0
  0
LINE
  5
88
  8
BODY
 10
435.1502340329156
 20
140.41974935829688
 30
0.0
 11
435.07473954401325
 21
140.34425486939455
 31
0.0
  0
LINE
  5
89
  8
BODY
 10
435.07473954401325
 20
140.34425486939455
 30
0.0
 11
434.999245055111
 21
140.41974935829688
 31
0.0
  0
LINE
  5
8A
  8
BODY
 10
434.999245055111
 20
140.41974935829688
 30
0.0
 11
435.07473954401325
 21
140.72172731390611
 31
0.0
  0
LINE
  5
8B
  8
BODY
 10
420.4288086969651
 20
140.948210780613
 30
0.0
 11
432.2814434546278
 21
140.7972218028084
 31
0.0
  0
LINE
  5
8C
  8
BODY
 10
432.2814434546278
 20
140.7972218028084
 30
0.0
 11
434.92375056620864
 21
140.64623282500378
 31
0.0
  0
LINE
  5
8D
  8
BODY
 10
434.92375056620864
 20
140.64623282500378
 30
0.0
 11
434.92375056620864
 21
126.60425788917411
 31
0.0
  0
LINE
  5
8E
  8
BODY
 10
434.92375056620864
 20
126.60425788917411
 30
0.0
 11
434.54627812169707
 21
126.52876340027177
 31
0.0
  0
LINE
  5
8F
  8
BODY
 10
434.54627812169707
 20
126.52876340027177
 30
0.0
 11
434.92375056620864
 21
126.45326891136949
 31
0.0
  0
LINE
  5
90
  8
BODY
 10
434.92375056620864
 20
126.45326891136949
 30
0.0
 11
434.84825607730636
 21
112.41129397553982
 31
0.0
  0
LINE
  5
91
  8
BODY
 10
434.84825607730636
 20
112.41129397553982
 30
0.0
 11
421.7122150083044
 21
112.18481050883287
 31
0.0
  0
LINE
  5
92
  8
BODY
 10
421.7122150083044
 20
112.18481050883287
 30
0.0
 11
420.3533142080628
 21
112.2603049977352
 31
0.0
  0
LINE
  5
93
  8
BODY
 10
420.3533142080628
 20
112.2603049977352
 30
0.0
 11
420.4288086969651
 21
140.948210780613
 31
0.0
  0
LINE
  5
94
  8
BODY
 10
391.438924958478
 20
141.40117771402691
 30
0.0
 11
405.3299109165031
 21
141.09919975841763
 31
0.0
  0
LINE
  5
95
  8
BODY
 10
405.3299109165031
 20
141.09919975841763
 30
0.0
 11
405.02793296089385
 21
140.72172731390611
 31
0.0
  0
LINE
  5
96
  8
BODY
 10
405.02793296089385
 20
140.72172731390611
 30
0.0
 11
404.34848256077305
 21
140.7972218028084
 31
0.0
  0
LINE
  5
97
  8
BODY
 10
404.34848256077305
 20
140.7972218028084
 30
0.0
 11
404.34848256077305
 21
141.02370526951535
 31
0.0
  0
LINE
  5
98
  8
BODY
 10
404.34848256077305
 20
141.02370526951535
 30
0.0
 11
404.19749358296843
 21
141.02370526951535
 31
0.0
  0
LINE
  5
99
  8
BODY
 10
404.19749358296843
 20
141.02370526951535
 30
0.0
 11
404.6504605163823
 21
140.5707383361015
 31
0.0
  0
LINE
  5
9A
  8
BODY
 10
404.6504605163823
 20
140.5707383361015
 30
0.0
 11
405.25441642760075
 21
140.72172731390611
 31
0.0
  0
LINE
  5
9B
  8
BODY
 10
405.25441642760075
 20
140.72172731390611
 30
0.0
 11
405.17892193869847
 21
140.87271629171073
 31
0.0
  0
LINE
  5
9C
  8
BODY
 10
405.17892193869847
 20
140.87271629171073
 30
0.0
 11
405.40540540540536
 21
140.87271629171073
 31
0.0
  0
LINE
  5
9D
  8
BODY
 10
405.40540540540536
 20
140.87271629171073
 30
0.0
 11
405.55639438321003
 21
141.17469424731996
 31
0.0
  0
LINE
  5
9E
  8
BODY
 10
405.55639438321003
 20
141.17469424731996
 30
0.0
 11
420.2778197191605
 21
140.87271629171073
 31
0.0
  0
LINE
  5
9F
  8
BODY
 10
420.2778197191605
 20
140.87271629171073
 30
0.0
 11
420.2778197191605
 21
140.64623282500378
 31
0.0
  0
LINE
  5
A0
  8
BODY
 10
420.2778197191605
 20
140.64623282500378
 30
0.0
 11
420.1268307413559
 21
140.64623282500378
 31
0.0
  0
LINE
  5
A1
  8
BODY
 10
420.1268307413559
 20
140.64623282500378
 30
0.0
 11
420.2778197191605
 21
140.49524384719916
 31
0.0
  0
LINE
  5
A2
  8
BODY
 10
420.2778197191605
 20
140.49524384719916
 30
0.0
 11
420.2778197191605
 21
112.71327193114905
 31
0.0
  0
LINE
  5
A3
  8
BODY
 10
420.2778197191605
 20
112.71327193114905
 30
0.0
 11
420.05133625245355
 21
112.56228295334444
 31
0.0
  0
LINE
  5
A4
  8
BODY
 10
420.05133625245355
 20
112.56228295334444
 30
0.0
 11
419.90034727464894
 21
112.78876642005133
 31
0.0
  0
LINE
  5
A5
  8
BODY
 10
419.90034727464894
 20
112.78876642005133
 30
0.0
 11
419.52287483013737
 21
112.78876642005133
 31
0.0
  0
LINE
  5
A6
  8
BODY
 10
419.52287483013737
 20
112.78876642005133
 30
0.0
 11
419.14540238562586
 21
112.41129397553982
 31
0.0
  0
LINE
  5
A7
  8
BODY
 10
419.14540238562586
 20
112.41129397553982
 30
0.0
 11
419.2963913634305
 21
112.41129397553982
 31
0.0
  0
LINE
  5
A8
  8
BODY
 10
419.2963913634305
 20
112.41129397553982
 30
0.0
 11
419.2963913634305
 21
112.63777744224672
 31
0.0
  0
LINE
  5
A9
  8
BODY
 10
419.2963913634305
 20
112.63777744224672
 30
0.0
 11
419.9758417635512
 21
112.63777744224672
 31
0.0
  0
LINE
  5
AA
  8
BODY
 10
419.9758417635512
 20
112.63777744224672
 30
0.0
 11
420.2778197191605
 21
112.4867884644421
 31
0.0
  0
LINE
  5
AB
  8
BODY
 10
420.2778197191605
 20
112.4867884644421
 30
0.0
 11
420.20232523025817
 21
112.18481050883287
 31
0.0
  0
LINE
  5
AC
  8
BODY
 10
420.20232523025817
 20
112.18481050883287
 30
0.0
 11
405.55639438321003
 21
111.95832704212592
 31
0.0
  0
LINE
  5
AD
  8
BODY
 10
405.55639438321003
 20
111.95832704212592
 30
0.0
 11
405.40540540540536
 21
112.2603049977352
 31
0.0
  0
LINE
  5
AE
  8
BODY
 10
405.40540540540536
 20
112.2603049977352
 30
0.0
 11
405.25441642760075
 21
111.95832704212592
 31
0.0
  0
LINE
  5
AF
  8
BODY
 10
405.25441642760075
 20
111.95832704212592
 30
0.0
 11
391.5144194473803
 21
111.73184357541902
 31
0.0
  0
LINE
  5
B0
  8
BODY
 10
391.5144194473803
 20
111.73184357541902
 30
0.0
 11
391.3634304695757
 21
111.88283255322364
 31
0.0
  0
LINE
  5
B1
  8
BODY
 10
391.3634304695757
 20
111.88283255322364
 30
0.0
 11
391.438924958478
 21
141.40117771402691
 31
0.0
  0
LINE
  5
B2
  8
BODY
 10
378.2273894005737
 20
141.6276611807338
 30
0.0
 11
391.2879359806734
 21
141.32568322512458
 31
0.0
  0
LINE
  5
B3
  8
BODY
 10
391.2879359806734
 20
141.32568322512458
 30
0.0
 11
391.2879359806734
 21
141.09919975841763
 31
0.0
  0
LINE
  5
B4
  8
BODY
 10
391.2879359806734
 20
141.09919975841763
 30
0.0
 11
391.1369470028688
 21
141.09919975841763
 31
0.0
  0
LINE
  5
B5
  8
BODY
 10
391.1369470028688
 20
141.09919975841763
 30
0.0
 11
391.2879359806734
 21
140.87271629171073
 31
0.0
  0
LINE
  5
B6
  8
BODY
 10
391.2879359806734
 20
140.87271629171073
 30
0.0
 11
391.2124414917711
 21
111.73184357541902
 31
0.0
  0
LINE
  5
B7
  8
BODY
 10
391.2124414917711
 20
111.73184357541902
 30
0.0
 11
390.0800241582364
 21
111.8073380643213
 31
0.0
  0
LINE
  5
B8
  8
BODY
 10
390.0800241582364
 20
111.8073380643213
 30
0.0
 11
381.3226634455685
 21
111.5808545976144
 31
0.0
  0
LINE
  5
B9
  8
BODY
 10
381.3226634455685
 20
111.5808545976144
 30
0.0
 11
378.0764004227691
 21
111.65634908651668
 31
0.0
  0
LINE
  5
BA
  8
BODY
 10
378.0764004227691
 20
111.65634908651668
 30
0.0
 11
378.0764004227691
 21
141.4766722029292
 31
0.0
  0
LINE
  5
BB
  8
BODY
 10
378.0764004227691
 20
141.4766722029292
 30
0.0
 11
378.2273894005737
 21
141.6276611807338
 31
0.0
  0
LINE
  5
BC
  8
BODY
 10
365.6198097538879
 20
141.77865015853843
 30
0.0
 11
378.0009059338668
 21
141.55216669183153
 31
0.0
  0
LINE
  5
BD
  8
BODY
 10
378.0009059338668
 20
141.55216669183153
 30
0.0
 11
378.0009059338668
 21
141.2501887362223
 31
0.0
  0
LINE
  5
BE
  8
BODY
 10
378.0009059338668
 20
141.2501887362223
 30
0.0
 11
377.8499169560622
 21
141.2501887362223
 31
0.0
  0
LINE
  5
BF
  8
BODY
 10
377.8499169560622
 20
141.2501887362223
 30
0.0
 11
378.0009059338668
 21
141.09919975841763
 31
0.0
  0
LINE
  5
C0
  8
BODY
 10
378.0009059338668
 20
141.09919975841763
 30
0.0
 11
377.9254114449645
 21
111.5808545976144
 31
0.0
  0
LINE
  5
C1
  8
BODY
 10
377.9254114449645
 20
111.5808545976144
 30
0.0
 11
365.54431526498564
 21
111.42986561980979
 31
0.0
  0
LINE
  5
C2
  8
BODY
 10
365.54431526498564
 20
111.42986561980979
 30
0.0
 11
365.54431526498564
 21
126.45326891136949
 31
0.0
  0
LINE
  5
C3
  8
BODY
 10
365.54431526498564
 20
126.45326891136949
 30
0.0
 11
366.0727766873018
 21
126.52876340027177
 31
0.0
  0
LINE
  5
C4
  8
BODY
 10
366.0727766873018
 20
126.52876340027177
 30
0.0
 11
365.54431526498564
 21
126.60425788917411
 31
0.0
  0
LINE
  5
C5
  8
BODY
 10
365.54431526498564
 20
126.60425788917411
 30
0.0
 11
365.6198097538879
 21
141.77865015853843
 31
0.0
  0
LINE
  5
C6
  8
BODY
 10
364.4873924203533
 20
141.77865015853843
 30
0.0
 11
365.393326287181
 21
141.77865015853843
 31
0.0
  0
LINE
  5
C7
  8
BODY
 10
365.393326287181
 20
141.77865015853843
 30
0.0
 11
365.4688207760833
 21
141.70315566963615
 31
0.0
  0
LINE
  5
C8
  8
BODY
 10
365.4688207760833
 20
141.70315566963615
 30
0.0
 11
365.4688207760833
 21
141.4766722029292
 31
0.0
  0
LINE
  5
C9
  8
BODY
 10
365.4688207760833
 20
141.4766722029292
 30
0.0
 11
365.393326287181
 21
141.40117771402691
 31
0.0
  0
LINE
  5
CA
  8
BODY
 10
365.393326287181
 20
141.40117771402691
 30
0.0
 11
365.3178317982787
 21
141.4766722029292
 31
0.0
  0
LINE
  5
CB
  8
BODY
 10
365.3178317982787
 20
141.4766722029292
 30
0.0
 11
365.4688207760833
 21
141.32568322512458
 31
0.0
  0
LINE
  5
CC
  8
BODY
 10
365.4688207760833
 20
141.32568322512458
 30
0.0
 11
365.4688207760833
 21
126.60425788917411
 31
0.0
  0
LINE
  5
CD
  8
BODY
 10
365.4688207760833
 20
126.60425788917411
 30
0.0
 11
365.01585384266946
 21
126.52876340027177
 31
0.0
  0
LINE
  5
CE
  8
BODY
 10
365.01585384266946
 20
126.52876340027177
 30
0.0
 11
365.4688207760833
 21
126.45326891136949
 31
0.0
  0
LINE
  5
CF
  8
BODY
 10
365.4688207760833
 20
126.45326891136949
 30
0.0
 11
365.4688207760833
 21
111.88283255322364
 31
0.0
  0
LINE
  5
D0
  8
BODY
 10
365.4688207760833
 20
111.88283255322364
 30
0.0
 11
365.3178317982787
 21
111.65634908651668
 31
0.0
  0
LINE
  5
D1
  8
BODY
 10
365.3178317982787
 20
111.65634908651668
 30
0.0
 11
365.393326287181
 21
111.73184357541902
 31
0.0
  0
LINE
  5
D2
  8
BODY
 10
365.393326287181
 20
111.73184357541902
 30
0.0
 11
365.4688207760833
 21
111.65634908651668
 31
0.0
  0
LINE
  5
D3
  8
BODY
 10
365.4688207760833
 20
111.65634908651668
 30
0.0
 11
365.393326287181
 21
111.35437113090745
 31
0.0
  0
LINE
  5
D4
  8
BODY
 10
365.393326287181
 20
111.35437113090745
 30
0.0
 11
364.4873924203533
 21
111.35437113090745
 31
0.0
  0
LINE
  5
D5
  8
BODY
 10
364.4873924203533
 20
111.35437113090745
 30
0.0
 11
364.33640344254866
 21
111.50536010871207
 31
0.0
  0
LINE
  5
D6
  8
BODY
 10
364.33640344254866
 20
111.50536010871207
 30
0.0
 11
364.411897931451
 21
111.65634908651668
 31
0.0
  0
LINE
  5
D7
  8
BODY
 10
364.411897931451
 20
111.65634908651668
 30
0.0
 11
364.4873924203533
 21
111.5808545976144
 31
0.0
  0
LINE
  5
D8
  8
BODY
 10
364.4873924203533
 20
111.5808545976144
 30
0.0
 11
364.411897931451
 21
111.73184357541902
 31
0.0
  0
LINE
  5
D9
  8
BODY
 10
364.411897931451
 20
111.73184357541902
 30
0.0
 11
364.4873924203533
 21
111.8073380643213
 31
0.0
  0
LINE
  5
DA
  8
BODY
 10
364.4873924203533
 20
111.8073380643213
 30
0.0
 11
365.2423373093764
 21
111.88283255322364
 31
0.0
  0
LINE
  5
DB
  8
BODY
 10
365.2423373093764
 20
111.88283255322364
 30
0.0
 11
365.0913483315718
 21
111.8073380643213
 31
0.0
  0
LINE
  5
DC
  8
BODY
 10
365.0913483315718
 20
111.8073380643213
 30
0.0
 11
365.01585384266946
 21
111.88283255322364
 31
0.0
  0
LINE
  5
DD
  8
BODY
 10
365.01585384266946
 20
111.88283255322364
 30
0.0
 11
365.0913483315718
 21
111.95832704212592
 31
0.0
  0
LINE
  5
DE
  8
BODY
 10
365.0913483315718
 20
111.95832704212592
 30
0.0
 11
365.01585384266946
 21
111.88283255322364
 31
0.0
  0
LINE
  5
DF
  8
BODY
 10
365.01585384266946
 20
111.88283255322364
 30
0.0
 11
364.7138758870602
 21
111.95832704212592
 31
0.0
  0
LINE
  5
E0
  8
BODY
 10
364.7138758870602
 20
111.95832704212592
 30
0.0
 11
364.411897931451
 21
111.73184357541902
 31
0.0
  0
LINE
  5
E1
  8
BODY
 10
364.411897931451
 20
111.73184357541902
 30
0.0
 11
364.33640344254866
 21
111.8073380643213
 31
0.0
  0
LINE
  5
E2
  8
BODY
 10
364.33640344254866
 20
111.8073380643213
 30
0.0
 11
364.33640344254866
 21
141.32568322512458
 31
0.0
  0
LINE
  5
E3
  8
BODY
 10
364.33640344254866
 20
141.32568322512458
 30
0.0
 11
364.411897931451
 21
141.40117771402691
 31
0.0
  0
LINE
  5
E4
  8
BODY
 10
364.411897931451
 20
141.40117771402691
 30
0.0
 11
364.7138758870602
 21
141.17469424731996
 31
0.0
  0
LINE
  5
E5
  8
BODY
 10
364.7138758870602
 20
141.17469424731996
 30
0.0
 11
364.9403593537672
 21
141.2501887362223
 31
0.0
  0
LINE
  5
E6
  8
BODY
 10
364.9403593537672
 20
141.2501887362223
 30
0.0
 11
365.0913483315718
 21
141.17469424731996
 31
0.0
  0
LINE
  5
E7
  8
BODY
 10
365.0913483315718
 20
141.17469424731996
 30
0.0
 11
365.01585384266946
 21
141.2501887362223
 31
0.0
  0
LINE
  5
E8
  8
BODY
 10
365.01585384266946
 20
141.2501887362223
 30
0.0
 11
365.0913483315718
 21
141.32568322512458
 31
0.0
  0
LINE
  5
E9
  8
BODY
 10
365.0913483315718
 20
141.32568322512458
 30
0.0
 11
365.2423373093764
 21
141.2501887362223
 31
0.0
  0
LINE
  5
EA
  8
BODY
 10
365.2423373093764
 20
141.2501887362223
 30
0.0
 11
364.6383813981579
 21
141.40117771402691
 31
0.0
  0
LINE
  5
EB
  8
BODY
 10
364.6383813981579
 20
141.40117771402691
 30
0.0
 11
364.4873924203533
 21
141.32568322512458
 31
0.0
  0
LINE
  5
EC
  8
BODY
 10
364.4873924203533
 20
141.32568322512458
 30
0.0
 11
364.411897931451
 21
141.40117771402691
 31
0.0
  0
LINE
  5
ED
  8
BODY
 10
364.411897931451
 20
141.40117771402691
 30
0.0
 11
364.4873924203533
 21
141.55216669183153
 31
0.0
  0
LINE
  5
EE
  8
BODY
 10
364.4873924203533
 20
141.55216669183153
 30
0.0
 11
364.411897931451
 21
141.4766722029292
 31
0.0
  0
LINE
  5
EF
  8
BODY
 10
364.411897931451
 20
141.4766722029292
 30
0.0
 11
364.33640344254866
 21
141.55216669183153
 31
0.0
  0
LINE
  5
F0
  8
BODY
 10
364.33640344254866
 20
141.55216669183153
 30
0.0
 11
364.4873924203533
 21
141.77865015853843
 31
0.0
  0
LINE
  5
F1
  8
BODY
 10
352.6347576626906
 20
142.00513362524538
 30
0.0
 11
362.07156877547936
 21
141.85414464744076
 31
0.0
  0
LINE
  5
F2
  8
BODY
 10
362.07156877547936
 20
141.85414464744076
 30
0.0
 11
364.2609089536464
 21
141.70315566963615
 31
0.0
  0
LINE
  5
F3
  8
BODY
 10
364.2609089536464
 20
141.70315566963615
 30
0.0
 11
364.18541446474404
 21
111.35437113090745
 31
0.0
  0
LINE
  5
F4
  8
BODY
 10
364.18541446474404
 20
111.35437113090745
 30
0.0
 11
356.03200966329456
 21
111.20338215310284
 31
0.0
  0
LINE
  5
F5
  8
BODY
 10
356.03200966329456
 20
111.20338215310284
 30
0.0
 11
352.5592631737883
 21
111.27887664200517
 31
0.0
  0
LINE
  5
F6
  8
BODY
 10
352.5592631737883
 20
111.27887664200517
 30
0.0
 11
352.7102521515929
 21
111.65634908651668
 31
0.0
  0
LINE
  5
F7
  8
BODY
 10
352.7102521515929
 20
111.65634908651668
 30
0.0
 11
353.5406915295183
 21
111.65634908651668
 31
0.0
  0
LINE
  5
F8
  8
BODY
 10
353.5406915295183
 20
111.65634908651668
 30
0.0
 11
353.3142080628114
 21
111.5808545976144
 31
0.0
  0
LINE
  5
F9
  8
BODY
 10
353.3142080628114
 20
111.5808545976144
 30
0.0
 11
353.3142080628114
 21
111.73184357541902
 31
0.0
  0
LINE
  5
FA
  8
BODY
 10
353.3142080628114
 20
111.73184357541902
 30
0.0
 11
353.08772459610447
 21
111.8073380643213
 31
0.0
  0
LINE
  5
FB
  8
BODY
 10
353.08772459610447
 20
111.8073380643213
 30
0.0
 11
352.6347576626906
 21
111.5808545976144
 31
0.0
  0
LINE
  5
FC
  8
BODY
 10
352.6347576626906
 20
111.5808545976144
 30
0.0
 11
352.5592631737883
 21
111.65634908651668
 31
0.0
  0
LINE
  5
FD
  8
BODY
 10
352.5592631737883
 20
111.65634908651668
 30
0.0
 11
352.5592631737883
 21
126.45326891136949
 31
0.0
  0
LINE
  5
FE
  8
BODY
 10
352.5592631737883
 20
126.45326891136949
 30
0.0
 11
352.78574664049523
 21
126.52876340027177
 31
0.0
  0
LINE
  5
FF
  8
BODY
 10
352.78574664049523
 20
126.52876340027177
 30
0.0
 11
352.5592631737883
 21
126.60425788917411
 31
0.0
  0
LINE
  5
100
  8
BODY
 10
352.5592631737883
 20
126.60425788917411
 30
0.0
 11
352.5592631737883
 21
141.4766722029292
 31
0.0
  0
LINE
  5
101
  8
BODY
 10
352.5592631737883
 20
141.4766722029292
 30
0.0
 11
352.6347576626906
 21
141.55216669183153
 31
0.0
  0
LINE
  5
102
  8
BODY
 10
352.6347576626906
 20
141.55216669183153
 30
0.0
 11
353.1632190850068
 21
141.32568322512458
 31
0.0
  0
LINE
  5
103
  8
BODY
 10
353.1632190850068
 20
141.32568322512458
 30
0.0
 11
353.3142080628114
 21
141.55216669183153
 31
0.0
  0
LINE
  5
104
  8
BODY
 10
353.3142080628114
 20
141.55216669183153
 30
0.0
 11
353.46519704061603
 21
141.4766722029292
 31
0.0
  0
LINE
  5
105
  8
BODY
 10
353.46519704061603
 20
141.4766722029292
 30
0.0
 11
352.7102521515929
 21
141.4766722029292
 31
0.0
  0
LINE
  5
106
  8
BODY
 10
352.7102521515929
 20
141.4766722029292
 30
0.0
 11
352.7102521515929
 21
141.6276611807338
 31
0.0
  0
LINE
  5
107
  8
BODY
 10
352.7102521515929
 20
141.6276611807338
 30
0.0
 11
352.5592631737883
 21
141.6276611807338
 31
0.0
  0
LINE
  5
108
  8
BODY
 10
352.5592631737883
 20
141.6276611807338
 30
0.0
 11
352.6347576626906
 21
142.00513362524538
 31
0.0
  0
LINE
  5
109
  8
BODY
 10
341.91454023856255
 20
142.15612260305
 30
0.0
 11
352.3327797070814
 21
142.00513362524538
 31
0.0
  0
LINE
  5
10A
  8
BODY
 10
352.3327797070814
 20
142.00513362524538
 30
0.0
 11
352.483768684886
 21
141.85414464744076
 31
0.0
  0
LINE
  5
10B
  8
BODY
 10
352.483768684886
 20
141.85414464744076
 30
0.0
 11
352.483768684886
 21
126.60425788917411
 31
0.0
  0
LINE
  5
10C
  8
BODY
 10
352.483768684886
 20
126.60425788917411
 30
0.0
 11
351.50234032915597
 21
126.52876340027177
 31
0.0
  0
LINE
  5
10D
  8
BODY
 10
351.50234032915597
 20
126.52876340027177
 30
0.0
 11
352.483768684886
 21
126.45326891136949
 31
0.0
  0
LINE
  5
10E
  8
BODY
 10
352.483768684886
 20
126.45326891136949
 30
0.0
 11
352.40827419598367
 21
111.20338215310284
 31
0.0
  0
LINE
  5
10F
  8
BODY
 10
352.40827419598367
 20
111.20338215310284
 30
0.0
 11
342.1410237052695
 21
110.97689868639588
 31
0.0
  0
LINE
  5
110
  8
BODY
 10
342.1410237052695
 20
110.97689868639588
 30
0.0
 11
341.8390457496603
 21
111.12788766420056
 31
0.0
  0
LINE
  5
111
  8
BODY
 10
341.8390457496603
 20
111.12788766420056
 30
0.0
 11
341.9900347274649
 21
111.50536010871207
 31
0.0
  0
LINE
  5
112
  8
BODY
 10
341.9900347274649
 20
111.50536010871207
 30
0.0
 11
342.2920126830741
 21
111.50536010871207
 31
0.0
  0
LINE
  5
113
  8
BODY
 10
342.2920126830741
 20
111.50536010871207
 30
0.0
 11
342.1410237052695
 21
111.42986561980979
 31
0.0
  0
LINE
  5
114
  8
BODY
 10
342.1410237052695
 20
111.42986561980979
 30
0.0
 11
342.1410237052695
 21
111.5808545976144
 31
0.0
  0
LINE
  5
115
  8
BODY
 10
342.1410237052695
 20
111.5808545976144
 30
0.0
 11
341.9900347274649
 21
111.5808545976144
 31
0.0
  0
LINE
  5
116
  8
BODY
 10
341.9900347274649
 20
111.5808545976144
 30
0.0
 11
341.9900347274649
 21
112.03382153102825
 31
0.0
  0
LINE
  5
117
  8
BODY
 10
341.9900347274649
 20
112.03382153102825
 30
0.0
 11
342.36750717197646
 21
113.8456892646837
 31
0.0
  0
LINE
  5
118
  8
BODY
 10
342.36750717197646
 20
113.8456892646837
 30
0.0
 11
342.2920126830741
 21
113.92118375358598
 31
0.0
  0
LINE
  5
119
  8
BODY
 10
342.2920126830741
 20
113.92118375358598
 30
0.0
 11
342.1410237052695
 21
113.31722784236752
 31
0.0
  0
LINE
  5
11A
  8
BODY
 10
342.1410237052695
 20
113.31722784236752
 30
0.0
 11
342.06552921636717
 21
113.92118375358598
 31
0.0
  0
LINE
  5
11B
  8
BODY
 10
342.06552921636717
 20
113.92118375358598
 30
0.0
 11
341.8390457496603
 21
113.99667824248831
 31
0.0
  0
LINE
  5
11C
  8
BODY
 10
341.8390457496603
 20
113.99667824248831
 30
0.0
 11
341.8390457496603
 21
126.45326891136949
 31
0.0
  0
LINE
  5
11D
  8
BODY
 10
341.8390457496603
 20
126.45326891136949
 30
0.0
 11
343.12245206099954
 21
126.52876340027177
 31
0.0
  0
LINE
  5
11E
  8
BODY
 10
343.12245206099954
 20
126.52876340027177
 30
0.0
 11
341.8390457496603
 21
126.60425788917411
 31
0.0
  0
LINE
  5
11F
  8
BODY
 10
341.8390457496603
 20
126.60425788917411
 30
0.0
 11
341.8390457496603
 21
139.13634304695756
 31
0.0
  0
LINE
  5
120
  8
BODY
 10
341.8390457496603
 20
139.13634304695756
 30
0.0
 11
342.06552921636717
 21
139.2118375358599
 31
0.0
  0
LINE
  5
121
  8
BODY
 10
342.06552921636717
 20
139.2118375358599
 30
0.0
 11
342.1410237052695
 21
139.81579344707836
 31
0.0
  0
LINE
  5
122
  8
BODY
 10
342.1410237052695
 20
139.81579344707836
 30
0.0
 11
342.36750717197646
 21
139.2118375358599
 31
0.0
  0
LINE
  5
123
  8
BODY
 10
342.36750717197646
 20
139.2118375358599
 30
0.0
 11
341.91454023856255
 21
141.4766722029292
 31
0.0
  0
LINE
  5
124
  8
BODY
 10
341.91454023856255
 20
141.4766722029292
 30
0.0
 11
342.2920126830741
 21
141.70315566963615
 31
0.0
  0
LINE
  5
125
  8
BODY
 10
342.2920126830741
 20
141.70315566963615
 30
0.0
 11
341.91454023856255
 21
141.70315566963615
 31
0.0
  0
LINE
  5
126
  8
BODY
 10
341.91454023856255
 20
141.70315566963615
 30
0.0
 11
341.91454023856255
 21
142.15612260305
 31
0.0
  0
LINE
  5
127
  8
BODY
 10
332.10025668126224
 20
142.3071115808546
 30
0.0
 11
341.1595953495395
 21
142.15612260305
 31
0.0
  0
LINE
  5
128
  8
BODY
 10
341.1595953495395
 20
142.15612260305
 30
0.0
 11
341.3105843273441
 21
142.00513362524538
 31
0.0
  0
LINE
  5
129
  8
BODY
 10
341.3105843273441
 20
142.00513362524538
 30
0.0
 11
341.3105843273441
 21
111.12788766420056
 31
0.0
  0
LINE
  5
12A
  8
BODY
 10
341.3105843273441
 20
111.12788766420056
 30
0.0
 11
341.1595953495395
 21
110.97689868639588
 31
0.0
  0
LINE
  5
12B
  8
BODY
 10
341.1595953495395
 20
110.97689868639588
 30
0.0
 11
332.02476219235996
 21
110.97689868639588
 31
0.0
  0
LINE
  5
12C
  8
BODY
 10
332.02476219235996
 20
110.97689868639588
 30
0.0
 11
332.10025668126224
 21
142.3071115808546
 31
0.0
  0
LINE
  5
12D
  8
BODY
 10
330.8923448588253
 20
142.3071115808546
 30
0.0
 11
331.798278725653
 21
142.3071115808546
 31
0.0
  0
LINE
  5
12E
  8
BODY
 10
331.798278725653
 20
142.3071115808546
 30
0.0
 11
331.9492677034576
 21
142.15612260305
 31
0.0
  0
LINE
  5
12F
  8
BODY
 10
331.9492677034576
 20
142.15612260305
 30
0.0
 11
331.87377321455534
 21
142.00513362524538
 31
0.0
  0
LINE
  5
130
  8
BODY
 10
331.87377321455534
 20
142.00513362524538
 30
0.0
 11
331.798278725653
 21
142.08062811414766
 31
0.0
  0
LINE
  5
131
  8
BODY
 10
331.798278725653
 20
142.08062811414766
 30
0.0
 11
331.9492677034576
 21
141.85414464744076
 31
0.0
  0
LINE
  5
132
  8
BODY
 10
331.9492677034576
 20
141.85414464744076
 30
0.0
 11
331.9492677034576
 21
111.27887664200517
 31
0.0
  0
LINE
  5
133
  8
BODY
 10
331.9492677034576
 20
111.27887664200517
 30
0.0
 11
331.798278725653
 21
111.12788766420056
 31
0.0
  0
LINE
  5
134
  8
BODY
 10
331.798278725653
 20
111.12788766420056
 30
0.0
 11
331.87377321455534
 21
111.20338215310284
 31
0.0
  0
LINE
  5
135
  8
BODY
 10
331.87377321455534
 20
111.20338215310284
 30
0.0
 11
331.9492677034576
 21
110.97689868639588
 31
0.0
  0
LINE
  5
136
  8
BODY
 10
331.9492677034576
 20
110.97689868639588
 30
0.0
 11
331.798278725653
 21
110.82590970859127
 31
0.0
  0
LINE
  5
137
  8
BODY
 10
331.798278725653
 20
110.82590970859127
 30
0.0
 11
331.6472897478484
 21
110.9014041974936
 31
0.0
  0
LINE
  5
138
  8
BODY
 10
331.6472897478484
 20
110.9014041974936
 30
0.0
 11
330.9678393477276
 21
110.82590970859127
 31
0.0
  0
LINE
  5
139
  8
BODY
 10
330.9678393477276
 20
110.82590970859127
 30
0.0
 11
330.816850369923
 21
110.97689868639588
 31
0.0
  0
LINE
  5
13A
  8
BODY
 10
330.816850369923
 20
110.97689868639588
 30
0.0
 11
330.9678393477276
 21
111.12788766420056
 31
0.0
  0
LINE
  5
13B
  8
BODY
 10
330.9678393477276
 20
111.12788766420056
 30
0.0
 11
330.8923448588253
 21
111.27887664200517
 31
0.0
  0
LINE
  5
13C
  8
BODY
 10
330.8923448588253
 20
111.27887664200517
 30
0.0
 11
330.9678393477276
 21
111.35437113090745
 31
0.0
  0
LINE
  5
13D
  8
BODY
 10
330.9678393477276
 20
111.35437113090745
 30
0.0
 11
331.1188283255322
 21
111.27887664200517
 31
0.0
  0
LINE
  5
13E
  8
BODY
 10
331.1188283255322
 20
111.27887664200517
 30
0.0
 11
331.7227842367507
 21
111.35437113090745
 31
0.0
  0
LINE
  5
13F
  8
BODY
 10
331.7227842367507
 20
111.35437113090745
 30
0.0
 11
331.57179525894605
 21
111.27887664200517
 31
0.0
  0
LINE
  5
140
  8
BODY
 10
331.57179525894605
 20
111.27887664200517
 30
0.0
 11
331.4963007700438
 21
111.35437113090745
 31
0.0
  0
LINE
  5
141
  8
BODY
 10
331.4963007700438
 20
111.35437113090745
 30
0.0
 11
331.57179525894605
 21
111.42986561980979
 31
0.0
  0
LINE
  5
142
  8
BODY
 10
331.57179525894605
 20
111.42986561980979
 30
0.0
 11
331.4963007700438
 21
111.35437113090745
 31
0.0
  0
LINE
  5
143
  8
BODY
 10
331.4963007700438
 20
111.35437113090745
 30
0.0
 11
331.34531179223916
 21
111.42986561980979
 31
0.0
  0
LINE
  5
144
  8
BODY
 10
331.34531179223916
 20
111.42986561980979
 30
0.0
 11
331.42080628114144
 21
111.50536010871207
 31
0.0
  0
LINE
  5
145
  8
BODY
 10
331.42080628114144
 20
111.50536010871207
 30
0.0
 11
330.8923448588253
 21
111.27887664200517
 31
0.0
  0
LINE
  5
146
  8
BODY
 10
330.8923448588253
 20
111.27887664200517
 30
0.0
 11
330.816850369923
 21
111.35437113090745
 31
0.0
  0
LINE
  5
147
  8
BODY
 10
330.816850369923
 20
111.35437113090745
 30
0.0
 11
330.816850369923
 21
126.45326891136949
 31
0.0
  0
LINE
  5
148
  8
BODY
 10
330.816850369923
 20
126.45326891136949
 30
0.0
 11
331.4963007700438
 21
126.52876340027177
 31
0.0
  0
LINE
  5
149
  8
BODY
 10
331.4963007700438
 20
126.52876340027177
 30
0.0
 11
330.816850369923
 21
126.60425788917411
 31
0.0
  0
LINE
  5
14A
  8
BODY
 10
330.816850369923
 20
126.60425788917411
 30
0.0
 11
330.816850369923
 21
141.77865015853843
 31
0.0
  0
LINE
  5
14B
  8
BODY
 10
330.816850369923
 20
141.77865015853843
 30
0.0
 11
330.9678393477276
 21
142.00513362524538
 31
0.0
  0
LINE
  5
14C
  8
BODY
 10
330.9678393477276
 20
142.00513362524538
 30
0.0
 11
330.8923448588253
 21
141.92963913634304
 31
0.0
  0
LINE
  5
14D
  8
BODY
 10
330.8923448588253
 20
141.92963913634304
 30
0.0
 11
330.816850369923
 21
142.00513362524538
 31
0.0
  0
LINE
  5
14E
  8
BODY
 10
330.816850369923
 20
142.00513362524538
 30
0.0
 11
330.8923448588253
 21
142.3071115808546
 31
0.0
  0
LINE
  5
14F
  8
BODY
 10
322.1349841461573
 20
142.45810055865923
 30
0.0
 11
330.7413558810207
 21
142.23161709195233
 31
0.0
  0
LINE
  5
150
  8
BODY
 10
330.7413558810207
 20
142.23161709195233
 30
0.0
 11
330.7413558810207
 21
126.60425788917411
 31
0.0
  0
LINE
  5
151
  8
BODY
 10
330.7413558810207
 20
126.60425788917411
 30
0.0
 11
330.2128944587045
 21
126.52876340027177
 31
0.0
  0
LINE
  5
152
  8
BODY
 10
330.2128944587045
 20
126.52876340027177
 30
0.0
 11
330.7413558810207
 21
126.45326891136949
 31
0.0
  0
LINE
  5
153
  8
BODY
 10
330.7413558810207
 20
126.45326891136949
 30
0.0
 11
330.66586139211836
 21
110.82590970859127
 31
0.0
  0
LINE
  5
154
  8
BODY
 10
330.66586139211836
 20
110.82590970859127
 30
0.0
 11
322.059489657255
 21
110.82590970859127
 31
0.0
  0
LINE
  5
155
  8
BODY
 10
322.059489657255
 20
110.82590970859127
 30
0.0
 11
322.1349841461573
 21
142.45810055865923
 31
0.0
  0
LINE
  5
156
  8
BODY
 10
320.9270723237204
 20
142.45810055865923
 30
0.0
 11
321.8330061905481
 21
142.45810055865923
 31
0.0
  0
LINE
  5
157
  8
BODY
 10
321.8330061905481
 20
142.45810055865923
 30
0.0
 11
321.9839951683527
 21
142.23161709195233
 31
0.0
  0
LINE
  5
158
  8
BODY
 10
321.9839951683527
 20
142.23161709195233
 30
0.0
 11
321.9085006794504
 21
142.08062811414766
 31
0.0
  0
LINE
  5
159
  8
BODY
 10
321.9085006794504
 20
142.08062811414766
 30
0.0
 11
321.8330061905481
 21
142.15612260305
 31
0.0
  0
LINE
  5
15A
  8
BODY
 10
321.8330061905481
 20
142.15612260305
 30
0.0
 11
321.9839951683527
 21
142.00513362524538
 31
0.0
  0
LINE
  5
15B
  8
BODY
 10
321.9839951683527
 20
142.00513362524538
 30
0.0
 11
321.9839951683527
 21
111.12788766420056
 31
0.0
  0
LINE
  5
15C
  8
BODY
 10
321.9839951683527
 20
111.12788766420056
 30
0.0
 11
321.8330061905481
 21
110.97689868639588
 31
0.0
  0
LINE
  5
15D
  8
BODY
 10
321.8330061905481
 20
110.97689868639588
 30
0.0
 11
321.9085006794504
 21
111.05239317529822
 31
0.0
  0
LINE
  5
15E
  8
BODY
 10
321.9085006794504
 20
111.05239317529822
 30
0.0
 11
321.9839951683527
 21
110.9014041974936
 31
0.0
  0
LINE
  5
15F
  8
BODY
 10
321.9839951683527
 20
110.9014041974936
 30
0.0
 11
321.8330061905481
 21
110.67492073078665
 31
0.0
  0
LINE
  5
160
  8
BODY
 10
321.8330061905481
 20
110.67492073078665
 30
0.0
 11
321.68201721274346
 21
110.75041521968899
 31
0.0
  0
LINE
  5
161
  8
BODY
 10
321.68201721274346
 20
110.75041521968899
 30
0.0
 11
321.00256681262266
 21
110.67492073078665
 31
0.0
  0
LINE
  5
162
  8
BODY
 10
321.00256681262266
 20
110.67492073078665
 30
0.0
 11
320.85157783481804
 21
110.82590970859127
 31
0.0
  0
LINE
  5
163
  8
BODY
 10
320.85157783481804
 20
110.82590970859127
 30
0.0
 11
320.9270723237204
 21
111.05239317529822
 31
0.0
  0
LINE
  5
164
  8
BODY
 10
320.9270723237204
 20
111.05239317529822
 30
0.0
 11
321.00256681262266
 21
110.97689868639588
 31
0.0
  0
LINE
  5
165
  8
BODY
 10
321.00256681262266
 20
110.97689868639588
 30
0.0
 11
320.9270723237204
 21
111.12788766420056
 31
0.0
  0
LINE
  5
166
  8
BODY
 10
320.9270723237204
 20
111.12788766420056
 30
0.0
 11
321.00256681262266
 21
111.20338215310284
 31
0.0
  0
LINE
  5
167
  8
BODY
 10
321.00256681262266
 20
111.20338215310284
 30
0.0
 11
321.1535557904273
 21
111.12788766420056
 31
0.0
  0
LINE
  5
168
  8
BODY
 10
321.1535557904273
 20
111.12788766420056
 30
0.0
 11
321.75751170164574
 21
111.20338215310284
 31
0.0
  0
LINE
  5
169
  8
BODY
 10
321.75751170164574
 20
111.20338215310284
 30
0.0
 11
321.6065227238411
 21
111.12788766420056
 31
0.0
  0
LINE
  5
16A
  8
BODY
 10
321.6065227238411
 20
111.12788766420056
 30
0.0
 11
321.53102823493884
 21
111.20338215310284
 31
0.0
  0
LINE
  5
16B
  8
BODY
 10
321.53102823493884
 20
111.20338215310284
 30
0.0
 11
321.6065227238411
 21
111.27887664200517
 31
0.0
  0
LINE
  5
16C
  8
BODY
 10
321.6065227238411
 20
111.27887664200517
 30
0.0
 11
321.38003925713423
 21
111.35437113090745
 31
0.0
  0
LINE
  5
16D
  8
BODY
 10
321.38003925713423
 20
111.35437113090745
 30
0.0
 11
320.9270723237204
 21
111.12788766420056
 31
0.0
  0
LINE
  5
16E
  8
BODY
 10
320.9270723237204
 20
111.12788766420056
 30
0.0
 11
320.85157783481804
 21
111.20338215310284
 31
0.0
  0
LINE
  5
16F
  8
BODY
 10
320.85157783481804
 20
111.20338215310284
 30
0.0
 11
320.85157783481804
 21
126.45326891136949
 31
0.0
  0
LINE
  5
170
  8
BODY
 10
320.85157783481804
 20
126.45326891136949
 30
0.0
 11
321.75751170164574
 21
126.52876340027177
 31
0.0
  0
LINE
  5
171
  8
BODY
 10
321.75751170164574
 20
126.52876340027177
 30
0.0
 11
320.85157783481804
 21
126.60425788917411
 31
0.0
  0
LINE
  5
172
  8
BODY
 10
320.85157783481804
 20
126.60425788917411
 30
0.0
 11
320.85157783481804
 21
142.00513362524538
 31
0.0
  0
LINE
  5
173
  8
BODY
 10
320.85157783481804
 20
142.00513362524538
 30
0.0
 11
321.00256681262266
 21
142.15612260305
 31
0.0
  0
LINE
  5
174
  8
BODY
 10
321.00256681262266
 20
142.15612260305
 30
0.0
 11
320.9270723237204
 21
142.08062811414766
 31
0.0
  0
LINE
  5
175
  8
BODY
 10
320.9270723237204
 20
142.08062811414766
 30
0.0
 11
320.85157783481804
 21
142.15612260305
 31
0.0
  0
LINE
  5
176
  8
BODY
 10
320.85157783481804
 20
142.15612260305
 30
0.0
 11
320.9270723237204
 21
142.45810055865923
 31
0.0
  0
LINE
  5
177
  8
BODY
 10
311.5657556998339
 20
142.60908953646384
 30
0.0
 11
320.7760833459157
 21
142.38260606975695
 31
0.0
  0
LINE
  5
178
  8
BODY
 10
320.7760833459157
 20
142.38260606975695
 30
0.0
 11
320.7760833459157
 21
126.60425788917411
 31
0.0
  0
LINE
  5
179
  8
BODY
 10
320.7760833459157
 20
126.60425788917411
 30
0.0
 11
320.5495998792088
 21
126.52876340027177
 31
0.0
  0
LINE
  5
17A
  8
BODY
 10
320.5495998792088
 20
126.52876340027177
 30
0.0
 11
320.7760833459157
 21
126.45326891136949
 31
0.0
  0
LINE
  5
17B
  8
BODY
 10
320.7760833459157
 20
126.45326891136949
 30
0.0
 11
320.70058885701343
 21
110.67492073078665
 31
0.0
  0
LINE
  5
17C
  8
BODY
 10
320.70058885701343
 20
110.67492073078665
 30
0.0
 11
311.4902612109316
 21
110.59942624188437
 31
0.0
  0
LINE
  5
17D
  8
BODY
 10
311.4902612109316
 20
110.59942624188437
 30
0.0
 11
311.4902612109316
 21
110.9014041974936
 31
0.0
  0
LINE
  5
17E
  8
BODY
 10
311.4902612109316
 20
110.9014041974936
 30
0.0
 11
311.6412501887362
 21
110.9014041974936
 31
0.0
  0
LINE
  5
17F
  8
BODY
 10
311.6412501887362
 20
110.9014041974936
 30
0.0
 11
311.6412501887362
 21
111.05239317529822
 31
0.0
  0
LINE
  5
180
  8
BODY
 10
311.6412501887362
 20
111.05239317529822
 30
0.0
 11
312.39619507775933
 21
111.05239317529822
 31
0.0
  0
LINE
  5
181
  8
BODY
 10
312.39619507775933
 20
111.05239317529822
 30
0.0
 11
311.4902612109316
 21
111.05239317529822
 31
0.0
  0
LINE
  5
182
  8
BODY
 10
311.4902612109316
 20
111.05239317529822
 30
0.0
 11
311.4902612109316
 21
126.45326891136949
 31
0.0
  0
LINE
  5
183
  8
BODY
 10
311.4902612109316
 20
126.45326891136949
 30
0.0
 11
312.01872263324776
 21
126.52876340027177
 31
0.0
  0
LINE
  5
184
  8
BODY
 10
312.01872263324776
 20
126.52876340027177
 30
0.0
 11
311.4902612109316
 21
126.60425788917411
 31
0.0
  0
LINE
  5
185
  8
BODY
 10
311.4902612109316
 20
126.60425788917411
 30
0.0
 11
311.4902612109316
 21
142.08062811414766
 31
0.0
  0
LINE
  5
186
  8
BODY
 10
311.4902612109316
 20
142.08062811414766
 30
0.0
 11
312.39619507775933
 21
142.08062811414766
 31
0.0
  0
LINE
  5
187
  8
BODY
 10
312.39619507775933
 20
142.08062811414766
 30
0.0
 11
312.320700588857
 21
142.23161709195233
 31
0.0
  0
LINE
  5
188
  8
BODY
 10
312.320700588857
 20
142.23161709195233
 30
0.0
 11
312.09421712215004
 21
142.08062811414766
 31
0.0
  0
LINE
  5
189
  8
BODY
 10
312.09421712215004
 20
142.08062811414766
 30
0.0
 11
311.6412501887362
 21
142.08062811414766
 31
0.0
  0
LINE
  5
18A
  8
BODY
 10
311.6412501887362
 20
142.08062811414766
 30
0.0
 11
311.6412501887362
 21
142.23161709195233
 31
0.0
  0
LINE
  5
18B
  8
BODY
 10
311.6412501887362
 20
142.23161709195233
 30
0.0
 11
311.4902612109316
 21
142.23161709195233
 31
0.0
  0
LINE
  5
18C
  8
BODY
 10
311.4902612109316
 20
142.23161709195233
 30
0.0
 11
311.5657556998339
 21
142.60908953646384
 31
0.0
  0
LINE
  5
18D
  8
BODY
 10
303.8653178317983
 20
142.68458402536618
 30
0.0
 11
307.56454778801145
 21
142.68458402536618
 31
0.0
  0
LINE
  5
18E
  8
BODY
 10
307.56454778801145
 20
142.68458402536618
 30
0.0
 11
307.71553676581607
 21
142.53359504756156
 31
0.0
  0
LINE
  5
18F
  8
BODY
 10
307.71553676581607
 20
142.53359504756156
 30
0.0
 11
307.942020232523
 21
141.17469424731996
 31
0.0
  0
LINE
  5
190
  8
BODY
 10
307.942020232523
 20
141.17469424731996
 30
0.0
 11
307.4890532991092
 21
141.02370526951535
 31
0.0
  0
LINE
  5
191
  8
BODY
 10
307.4890532991092
 20
141.02370526951535
 30
0.0
 11
307.4890532991092
 21
140.7972218028084
 31
0.0
  0
LINE
  5
192
  8
BODY
 10
307.4890532991092
 20
140.7972218028084
 30
0.0
 11
308.39498716593687
 21
138.15491469122753
 31
0.0
  0
LINE
  5
193
  8
BODY
 10
308.39498716593687
 20
138.15491469122753
 30
0.0
 11
308.4704816548392
 21
141.17469424731996
 31
0.0
  0
LINE
  5
194
  8
BODY
 10
308.4704816548392
 20
141.17469424731996
 30
0.0
 11
308.3194926770346
 21
139.06084855805528
 31
0.0
  0
LINE
  5
195
  8
BODY
 10
308.3194926770346
 20
139.06084855805528
 30
0.0
 11
308.24399818813225
 21
141.17469424731996
 31
0.0
  0
LINE
  5
196
  8
BODY
 10
308.24399818813225
 20
141.17469424731996
 30
0.0
 11
307.942020232523
 21
141.17469424731996
 31
0.0
  0
LINE
  5
197
  8
BODY
 10
307.942020232523
 20
141.17469424731996
 30
0.0
 11
307.7910312547184
 21
142.60908953646384
 31
0.0
  0
LINE
  5
198
  8
BODY
 10
307.7910312547184
 20
142.60908953646384
 30
0.0
 11
311.2637777442247
 21
142.60908953646384
 31
0.0
  0
LINE
  5
199
  8
BODY
 10
311.2637777442247
 20
142.60908953646384
 30
0.0
 11
311.4147667220293
 21
142.45810055865923
 31
0.0
  0
LINE
  5
19A
  8
BODY
 10
311.4147667220293
 20
142.45810055865923
 30
0.0
 11
311.4147667220293
 21
126.60425788917411
 31
0.0
  0
LINE
  5
19B
  8
BODY
 10
311.4147667220293
 20
126.60425788917411
 30
0.0
 11
310.8863052997131
 21
126.52876340027177
 31
0.0
  0
LINE
  5
19C
  8
BODY
 10
310.8863052997131
 20
126.52876340027177
 30
0.0
 11
311.4147667220293
 21
126.45326891136949
 31
0.0
  0
LINE
  5
19D
  8
BODY
 10
311.4147667220293
 20
126.45326891136949
 30
0.0
 11
311.4147667220293
 21
110.67492073078665
 31
0.0
  0
LINE
  5
19E
  8
BODY
 10
311.4147667220293
 20
110.67492073078665
 30
0.0
 11
311.2637777442247
 21
110.52393175298204
 31
0.0
  0
LINE
  5
19F
  8
BODY
 10
311.2637777442247
 20
110.52393175298204
 30
0.0
 11
303.78982334289594
 21
110.52393175298204
 31
0.0
  0
LINE
  5
1A0
  8
BODY
 10
303.78982334289594
 20
110.52393175298204
 30
0.0
 11
303.78982334289594
 21
126.45326891136949
 31
0.0
  0
LINE
  5
1A1
  8
BODY
 10
303.78982334289594
 20
126.45326891136949
 30
0.0
 11
304.46927374301674
 21
126.52876340027177
 31
0.0
  0
LINE
  5
1A2
  8
BODY
 10
304.46927374301674
 20
126.52876340027177
 30
0.0
 11
303.78982334289594
 21
126.60425788917411
 31
0.0
  0
LINE
  5
1A3
  8
BODY
 10
303.78982334289594
 20
126.60425788917411
 30
0.0
 11
303.8653178317983
 21
142.68458402536618
 31
0.0
  0
LINE
  5
1A4
  8
BODY
 10
302.73290049826363
 20
142.76007851426846
 30
0.0
 11
303.56333987618905
 21
142.68458402536618
 31
0.0
  0
LINE
  5
1A5
  8
BODY
 10
303.56333987618905
 20
142.68458402536618
 30
0.0
 11
303.71432885399366
 21
142.53359504756156
 31
0.0
  0
LINE
  5
1A6
  8
BODY
 10
303.71432885399366
 20
142.53359504756156
 30
0.0
 11
303.6388343650913
 21
142.38260606975695
 31
0.0
  0
LINE
  5
1A7
  8
BODY
 10
303.6388343650913
 20
142.38260606975695
 30
0.0
 11
303.56333987618905
 21
142.45810055865923
 31
0.0
  0
LINE
  5
1A8
  8
BODY
 10
303.56333987618905
 20
142.45810055865923
 30
0.0
 11
303.71432885399366
 21
142.23161709195233
 31
0.0
  0
LINE
  5
1A9
  8
BODY
 10
303.71432885399366
 20
142.23161709195233
 30
0.0
 11
303.71432885399366
 21
126.60425788917411
 31
0.0
  0
LINE
  5
1AA
  8
BODY
 10
303.71432885399366
 20
126.60425788917411
 30
0.0
 11
303.1858674316775
 21
126.52876340027177
 31
0.0
  0
LINE
  5
1AB
  8
BODY
 10
303.1858674316775
 20
126.52876340027177
 30
0.0
 11
303.71432885399366
 21
126.45326891136949
 31
0.0
  0
LINE
  5
1AC
  8
BODY
 10
303.71432885399366
 20
126.45326891136949
 30
0.0
 11
303.71432885399366
 21
110.9014041974936
 31
0.0
  0
LINE
  5
1AD
  8
BODY
 10
303.71432885399366
 20
110.9014041974936
 30
0.0
 11
303.56333987618905
 21
110.75041521968899
 31
0.0
  0
LINE
  5
1AE
  8
BODY
 10
303.56333987618905
 20
110.75041521968899
 30
0.0
 11
303.71432885399366
 21
110.59942624188437
 31
0.0
  0
LINE
  5
1AF
  8
BODY
 10
303.71432885399366
 20
110.59942624188437
 30
0.0
 11
303.56333987618905
 21
110.44843726407976
 31
0.0
  0
LINE
  5
1B0
  8
BODY
 10
303.56333987618905
 20
110.44843726407976
 30
0.0
 11
302.581911520459
 21
110.52393175298204
 31
0.0
  0
LINE
  5
1B1
  8
BODY
 10
302.581911520459
 20
110.52393175298204
 30
0.0
 11
302.73290049826363
 21
110.9014041974936
 31
0.0
  0
LINE
  5
1B2
  8
BODY
 10
302.73290049826363
 20
110.9014041974936
 30
0.0
 11
302.88388947606825
 21
110.82590970859127
 31
0.0
  0
LINE
  5
1B3
  8
BODY
 10
302.88388947606825
 20
110.82590970859127
 30
0.0
 11
303.4878453872867
 21
110.9014041974936
 31
0.0
  0
LINE
  5
1B4
  8
BODY
 10
303.4878453872867
 20
110.9014041974936
 30
0.0
 11
303.11037294277514
 21
111.05239317529822
 31
0.0
  0
LINE
  5
1B5
  8
BODY
 10
303.11037294277514
 20
111.05239317529822
 30
0.0
 11
302.6574060093613
 21
110.82590970859127
 31
0.0
  0
LINE
  5
1B6
  8
BODY
 10
302.6574060093613
 20
110.82590970859127
 30
0.0
 11
302.581911520459
 21
110.9014041974936
 31
0.0
  0
LINE
  5
1B7
  8
BODY
 10
302.581911520459
 20
110.9014041974936
 30
0.0
 11
302.581911520459
 21
142.23161709195233
 31
0.0
  0
LINE
  5
1B8
  8
BODY
 10
302.581911520459
 20
142.23161709195233
 30
0.0
 11
302.6574060093613
 21
142.3071115808546
 31
0.0
  0
LINE
  5
1B9
  8
BODY
 10
302.6574060093613
 20
142.3071115808546
 30
0.0
 11
303.03487845387286
 21
142.08062811414766
 31
0.0
  0
LINE
  5
1BA
  8
BODY
 10
303.03487845387286
 20
142.08062811414766
 30
0.0
 11
303.4878453872867
 21
142.23161709195233
 31
0.0
  0
LINE
  5
1BB
  8
BODY
 10
303.4878453872867
 20
142.23161709195233
 30
0.0
 11
303.41235089838443
 21
142.3071115808546
 31
0.0
  0
LINE
  5
1BC
  8
BODY
 10
303.41235089838443
 20
142.3071115808546
 30
0.0
 11
302.73290049826363
 21
142.23161709195233
 31
0.0
  0
LINE
  5
1BD
  8
BODY
 10
302.73290049826363
 20
142.23161709195233
 30
0.0
 11
302.6574060093613
 21
142.3071115808546
 31
0.0
  0
LINE
  5
1BE
  8
BODY
 10
302.6574060093613
 20
142.3071115808546
 30
0.0
 11
302.73290049826363
 21
142.38260606975695
 31
0.0
  0
LINE
  5
1BF
  8
BODY
 10
302.73290049826363
 20
142.38260606975695
 30
0.0
 11
302.581911520459
 21
142.45810055865923
 31
0.0
  0
LINE
  5
1C0
  8
BODY
 10
302.581911520459
 20
142.45810055865923
 30
0.0
 11
302.73290049826363
 21
142.76007851426846
 31
0.0
  0
LINE
  5
1C1
  8
BODY
 10
287.6340027178016
 20
142.9865619809754
 30
0.0
 11
294.05103427449797
 21
142.8355730031708
 31
0.0
  0
LINE
  5
1C2
  8
BODY
 10
294.05103427449797
 20
142.8355730031708
 30
0.0
 11
294.2020232523026
 21
142.53359504756156
 31
0.0
  0
LINE
  5
1C3
  8
BODY
 10
294.2020232523026
 20
142.53359504756156
 30
0.0
 11
294.3530122301072
 21
142.8355730031708
 31
0.0
  0
LINE
  5
1C4
  8
BODY
 10
294.3530122301072
 20
142.8355730031708
 30
0.0
 11
295.1834516080326
 21
142.8355730031708
 31
0.0
  0
LINE
  5
1C5
  8
BODY
 10
295.1834516080326
 20
142.8355730031708
 30
0.0
 11
295.3344405858372
 21
142.53359504756156
 31
0.0
  0
LINE
  5
1C6
  8
BODY
 10
295.3344405858372
 20
142.53359504756156
 30
0.0
 11
295.4099350747395
 21
142.8355730031708
 31
0.0
  0
LINE
  5
1C7
  8
BODY
 10
295.4099350747395
 20
142.8355730031708
 30
0.0
 11
302.5064170315567
 21
142.68458402536618
 31
0.0
  0
LINE
  5
1C8
  8
BODY
 10
302.5064170315567
 20
142.68458402536618
 30
0.0
 11
302.4309225426544
 21
110.44843726407976
 31
0.0
  0
LINE
  5
1C9
  8
BODY
 10
302.4309225426544
 20
110.44843726407976
 30
0.0
 11
295.48542956364184
 21
110.37294277517742
 31
0.0
  0
LINE
  5
1CA
  8
BODY
 10
295.48542956364184
 20
110.37294277517742
 30
0.0
 11
295.3344405858372
 21
110.59942624188437
 31
0.0
  0
LINE
  5
1CB
  8
BODY
 10
295.3344405858372
 20
110.59942624188437
 30
0.0
 11
295.1834516080326
 21
110.29744828627514
 31
0.0
  0
LINE
  5
1CC
  8
BODY
 10
295.1834516080326
 20
110.29744828627514
 30
0.0
 11
294.3530122301072
 21
110.29744828627514
 31
0.0
  0
LINE
  5
1CD
  8
BODY
 10
294.3530122301072
 20
110.29744828627514
 30
0.0
 11
294.2020232523026
 21
110.59942624188437
 31
0.0
  0
LINE
  5
1CE
  8
BODY
 10
294.2020232523026
 20
110.59942624188437
 30
0.0
 11
294.05103427449797
 21
110.29744828627514
 31
0.0
  0
LINE
  5
1CF
  8
BODY
 10
294.05103427449797
 20
110.29744828627514
 30
0.0
 11
287.483013739997
 21
110.29744828627514
 31
0.0
  0
LINE
  5
1D0
  8
BODY
 10
287.483013739997
 20
110.29744828627514
 30
0.0
 11
287.483013739997
 21
142.8355730031708
 31
0.0
  0
LINE
  5
1D1
  8
BODY
 10
287.483013739997
 20
142.8355730031708
 30
0.0
 11
287.6340027178016
 21
142.9865619809754
 31
0.0
  0
LINE
  5
1D2
  8
BODY
 10
278.9521364940359
 20
143.0620564698777
 30
0.0
 11
287.40751925109464
 21
142.91106749207307
 31
0.0
  0
LINE
  5
1D3
  8
BODY
 10
287.40751925109464
 20
142.91106749207307
 30
0.0
 11
287.40751925109464
 21
142.60908953646384
 31
0.0
  0
LINE
  5
1D4
  8
BODY
 10
287.40751925109464
 20
142.60908953646384
 30
0.0
 11
287.25653027329
 21
142.60908953646384
 31
0.0
  0
LINE
  5
1D5
  8
BODY
 10
287.25653027329
 20
142.60908953646384
 30
0.0
 11
287.40751925109464
 21
142.45810055865923
 31
0.0
  0
LINE
  5
1D6
  8
BODY
 10
287.40751925109464
 20
142.45810055865923
 30
0.0
 11
287.33202476219236
 21
110.2219537973728
 31
0.0
  0
LINE
  5
1D7
  8
BODY
 10
287.33202476219236
 20
110.2219537973728
 30
0.0
 11
278.8766420051336
 21
110.14645930847053
 31
0.0
  0
LINE
  5
1D8
  8
BODY
 10
278.8766420051336
 20
110.14645930847053
 30
0.0
 11
278.8766420051336
 21
110.37294277517742
 31
0.0
  0
LINE
  5
1D9
  8
BODY
 10
278.8766420051336
 20
110.37294277517742
 30
0.0
 11
279.25411444964516
 21
110.59942624188437
 31
0.0
  0
LINE
  5
1DA
  8
BODY
 10
279.25411444964516
 20
110.59942624188437
 30
0.0
 11
279.93356484976596
 21
110.29744828627514
 31
0.0
  0
LINE
  5
1DB
  8
BODY
 10
279.93356484976596
 20
110.29744828627514
 30
0.0
 11
279.93356484976596
 21
110.44843726407976
 31
0.0
  0
LINE
  5
1DC
  8
BODY
 10
279.93356484976596
 20
110.44843726407976
 30
0.0
 11
279.707081383059
 21
110.44843726407976
 31
0.0
  0
LINE
  5
1DD
  8
BODY
 10
279.707081383059
 20
110.44843726407976
 30
0.0
 11
279.78257587196134
 21
110.59942624188437
 31
0.0
  0
LINE
  5
1DE
  8
BODY
 10
279.78257587196134
 20
110.59942624188437
 30
0.0
 11
279.5560924052544
 21
110.59942624188437
 31
0.0
  0
LINE
  5
1DF
  8
BODY
 10
279.5560924052544
 20
110.59942624188437
 30
0.0
 11
279.6315868941567
 21
110.67492073078665
 31
0.0
  0
LINE
  5
1E0
  8
BODY
 10
279.6315868941567
 20
110.67492073078665
 30
0.0
 11
279.25411444964516
 21
110.67492073078665
 31
0.0
  0
LINE
  5
1E1
  8
BODY
 10
279.25411444964516
 20
110.67492073078665
 30
0.0
 11
279.0276309829382
 21
110.52393175298204
 31
0.0
  0
LINE
  5
1E2
  8
BODY
 10
279.0276309829382
 20
110.52393175298204
 30
0.0
 11
278.8766420051336
 21
110.59942624188437
 31
0.0
  0
LINE
  5
1E3
  8
BODY
 10
278.8766420051336
 20
110.59942624188437
 30
0.0
 11
278.8766420051336
 21
126.45326891136949
 31
0.0
  0
LINE
  5
1E4
  8
BODY
 10
278.8766420051336
 20
126.45326891136949
 30
0.0
 11
279.10312547184054
 21
126.52876340027177
 31
0.0
  0
LINE
  5
1E5
  8
BODY
 10
279.10312547184054
 20
126.52876340027177
 30
0.0
 11
278.8766420051336
 21
126.60425788917411
 31
0.0
  0
LINE
  5
1E6
  8
BODY
 10
278.8766420051336
 20
126.60425788917411
 30
0.0
 11
278.8766420051336
 21
142.60908953646384
 31
0.0
  0
LINE
  5
1E7
  8
BODY
 10
278.8766420051336
 20
142.60908953646384
 30
0.0
 11
278.9521364940359
 21
142.68458402536618
 31
0.0
  0
LINE
  5
1E8
  8
BODY
 10
278.9521364940359
 20
142.68458402536618
 30
0.0
 11
279.25411444964516
 21
142.45810055865923
 31
0.0
  0
LINE
  5
1E9
  8
BODY
 10
279.25411444964516
 20
142.45810055865923
 30
0.0
 11
279.6315868941567
 21
142.60908953646384
 31
0.0
  0
LINE
  5
1EA
  8
BODY
 10
279.6315868941567
 20
142.60908953646384
 30
0.0
 11
279.78257587196134
 21
142.53359504756156
 31
0.0
  0
LINE
  5
1EB
  8
BODY
 10
279.78257587196134
 20
142.53359504756156
 30
0.0
 11
279.707081383059
 21
142.68458402536618
 31
0.0
  0
LINE
  5
1EC
  8
BODY
 10
279.707081383059
 20
142.68458402536618
 30
0.0
 11
279.0276309829382
 21
142.60908953646384
 31
0.0
  0
LINE
  5
1ED
  8
BODY
 10
279.0276309829382
 20
142.60908953646384
 30
0.0
 11
279.0276309829382
 21
142.76007851426846
 31
0.0
  0
LINE
  5
1EE
  8
BODY
 10
279.0276309829382
 20
142.76007851426846
 30
0.0
 11
278.8766420051336
 21
142.76007851426846
 31
0.0
  0
LINE
  5
1EF
  8
BODY
 10
278.8766420051336
 20
142.76007851426846
 30
0.0
 11
278.9521364940359
 21
143.0620564698777
 31
0.0
  0
LINE
  5
1F0
  8
BODY
 10
273.06356635965574
 20
143.13755095878003
 30
0.0
 11
276.7627963158689
 21
143.13755095878003
 31
0.0
  0
LINE
  5
1F1
  8
BODY
 10
276.7627963158689
 20
143.13755095878003
 30
0.0
 11
278.8011475162313
 21
142.9865619809754
 31
0.0
  0
LINE
  5
1F2
  8
BODY
 10
278.8011475162313
 20
142.9865619809754
 30
0.0
 11
278.8011475162313
 21
126.60425788917411
 31
0.0
  0
LINE
  5
1F3
  8
BODY
 10
278.8011475162313
 20
126.60425788917411
 30
0.0
 11
278.0462026272082
 21
126.52876340027177
 31
0.0
  0
LINE
  5
1F4
  8
BODY
 10
278.0462026272082
 20
126.52876340027177
 30
0.0
 11
278.8011475162313
 21
126.45326891136949
 31
0.0
  0
LINE
  5
1F5
  8
BODY
 10
278.8011475162313
 20
126.45326891136949
 30
0.0
 11
278.725653027329
 21
110.07096481956819
 31
0.0
  0
LINE
  5
1F6
  8
BODY
 10
278.725653027329
 20
110.07096481956819
 30
0.0
 11
272.9880718707534
 21
110.07096481956819
 31
0.0
  0
LINE
  5
1F7
  8
BODY
 10
272.9880718707534
 20
110.07096481956819
 30
0.0
 11
272.9880718707534
 21
126.45326891136949
 31
0.0
  0
LINE
  5
1F8
  8
BODY
 10
272.9880718707534
 20
126.45326891136949
 30
0.0
 11
273.36554431526497
 21
126.52876340027177
 31
0.0
  0
LINE
  5
1F9
  8
BODY
 10
273.36554431526497
 20
126.52876340027177
 30
0.0
 11
272.9880718707534
 21
126.60425788917411
 31
0.0
  0
LINE
  5
1FA
  8
BODY
 10
272.9880718707534
 20
126.60425788917411
 30
0.0
 11
273.06356635965574
 21
143.13755095878003
 31
0.0
  0
LINE
  5
1FB
  8
BODY
 10
271.9311490261211
 20
143.21304544768236
 30
0.0
 11
272.9125773818511
 21
143.13755095878003
 31
0.0
  0
LINE
  5
1FC
  8
BODY
 10
272.9125773818511
 20
143.13755095878003
 30
0.0
 11
272.9125773818511
 21
142.91106749207307
 31
0.0
  0
LINE
  5
1FD
  8
BODY
 10
272.9125773818511
 20
142.91106749207307
 30
0.0
 11
272.7615884040465
 21
142.8355730031708
 31
0.0
  0
LINE
  5
1FE
  8
BODY
 10
272.7615884040465
 20
142.8355730031708
 30
0.0
 11
272.9125773818511
 21
142.68458402536618
 31
0.0
  0
LINE
  5
1FF
  8
BODY
 10
272.9125773818511
 20
142.68458402536618
 30
0.0
 11
272.9125773818511
 21
126.60425788917411
 31
0.0
  0
LINE
  5
200
  8
BODY
 10
272.9125773818511
 20
126.60425788917411
 30
0.0
 11
272.30862147063266
 21
126.52876340027177
 31
0.0
  0
LINE
  5
201
  8
BODY
 10
272.30862147063266
 20
126.52876340027177
 30
0.0
 11
272.9125773818511
 21
126.45326891136949
 31
0.0
  0
LINE
  5
202
  8
BODY
 10
272.9125773818511
 20
126.45326891136949
 30
0.0
 11
272.9125773818511
 21
110.44843726407976
 31
0.0
  0
LINE
  5
203
  8
BODY
 10
272.9125773818511
 20
110.44843726407976
 30
0.0
 11
272.7615884040465
 21
110.29744828627514
 31
0.0
  0
LINE
  5
204
  8
BODY
 10
272.7615884040465
 20
110.29744828627514
 30
0.0
 11
272.8370828929488
 21
110.37294277517742
 31
0.0
  0
LINE
  5
205
  8
BODY
 10
272.8370828929488
 20
110.37294277517742
 30
0.0
 11
272.9125773818511
 21
110.29744828627514
 31
0.0
  0
LINE
  5
206
  8
BODY
 10
272.9125773818511
 20
110.29744828627514
 30
0.0
 11
272.8370828929488
 21
109.99547033066585
 31
0.0
  0
LINE
  5
207
  8
BODY
 10
272.8370828929488
 20
109.99547033066585
 30
0.0
 11
271.7801600483165
 21
110.07096481956819
 31
0.0
  0
LINE
  5
208
  8
BODY
 10
271.7801600483165
 20
110.07096481956819
 30
0.0
 11
271.85565453721875
 21
110.29744828627514
 31
0.0
  0
LINE
  5
209
  8
BODY
 10
271.85565453721875
 20
110.29744828627514
 30
0.0
 11
271.9311490261211
 21
110.2219537973728
 31
0.0
  0
LINE
  5
20A
  8
BODY
 10
271.9311490261211
 20
110.2219537973728
 30
0.0
 11
271.7801600483165
 21
110.37294277517742
 31
0.0
  0
LINE
  5
20B
  8
BODY
 10
271.7801600483165
 20
110.37294277517742
 30
0.0
 11
271.7801600483165
 21
126.45326891136949
 31
0.0
  0
LINE
  5
20C
  8
BODY
 10
271.7801600483165
 20
126.45326891136949
 30
0.0
 11
271.85565453721875
 21
126.52876340027177
 31
0.0
  0
LINE
  5
20D
  8
BODY
 10
271.85565453721875
 20
126.52876340027177
 30
0.0
 11
271.7801600483165
 21
126.60425788917411
 31
0.0
  0
LINE
  5
20E
  8
BODY
 10
271.7801600483165
 20
126.60425788917411
 30
0.0
 11
271.7801600483165
 21
142.76007851426846
 31
0.0
  0
LINE
  5
20F
  8
BODY
 10
271.7801600483165
 20
142.76007851426846
 30
0.0
 11
271.9311490261211
 21
142.91106749207307
 31
0.0
  0
LINE
  5
210
  8
BODY
 10
271.9311490261211
 20
142.91106749207307
 30
0.0
 11
271.85565453721875
 21
142.8355730031708
 31
0.0
  0
LINE
  5
211
  8
BODY
 10
271.85565453721875
 20
142.8355730031708
 30
0.0
 11
271.7801600483165
 21
143.0620564698777
 31
0.0
  0
LINE
  5
212
  8
BODY
 10
271.7801600483165
 20
143.0620564698777
 30
0.0
 11
271.9311490261211
 21
143.21304544768236
 31
0.0
  0
LINE
  5
213
  8
BODY
 10
267.32598520308017
 20
143.21304544768236
 30
0.0
 11
271.70466555941414
 21
143.13755095878003
 31
0.0
  0
LINE
  5
214
  8
BODY
 10
271.70466555941414
 20
143.13755095878003
 30
0.0
 11
271.62917107051186
 21
109.99547033066585
 31
0.0
  0
LINE
  5
215
  8
BODY
 10
271.62917107051186
 20
109.99547033066585
 30
0.0
 11
267.25049071417783
 21
109.99547033066585
 31
0.0
  0
LINE
  5
216
  8
BODY
 10
267.25049071417783
 20
109.99547033066585
 30
0.0
 11
267.25049071417783
 21
126.45326891136949
 31
0.0
  0
LINE
  5
217
  8
BODY
 10
267.25049071417783
 20
126.45326891136949
 30
0.0
 11
267.778952136494
 21
126.52876340027177
 31
0.0
  0
LINE
  5
218
  8
BODY
 10
267.778952136494
 20
126.52876340027177
 30
0.0
 11
267.25049071417783
 21
126.60425788917411
 31
0.0
  0
LINE
  5
219
  8
BODY
 10
267.25049071417783
 20
126.60425788917411
 30
0.0
 11
267.32598520308017
 21
143.21304544768236
 31
0.0
  0
LINE
  5
21A
  8
BODY
 10
537.5962554733504
 20
145.2513966480447
 30
0.0
 11
537.5962554733504
 21
142.38260606975695
 31
0.0
  0
LINE
  5
21B
  8
BODY
 10
537.5962554733504
 20
142.38260606975695
 30
0.0
 11
537.0677940510343
 21
142.3071115808546
 31
0.0
  0
LINE
  5
21C
  8
BODY
 10
537.0677940510343
 20
142.3071115808546
 30
0.0
 11
537.5207609844481
 21
139.36282651366452
 31
0.0
  0
LINE
  5
21D
  8
BODY
 10
537.5207609844481
 20
139.36282651366452
 30
0.0
 11
533.8970255171372
 21
139.36282651366452
 31
0.0
  0
LINE
  5
21E
  8
BODY
 10
533.8970255171372
 20
139.36282651366452
 30
0.0
 11
533.3685640948211
 21
138.83436509134833
 31
0.0
  0
LINE
  5
21F
  8
BODY
 10
533.3685640948211
 20
138.83436509134833
 30
0.0
 11
533.7460365393326
 21
138.00392571342292
 31
0.0
  0
LINE
  5
220
  8
BODY
 10
533.7460365393326
 20
138.00392571342292
 30
0.0
 11
537.5207609844481
 21
137.92843122452064
 31
0.0
  0
LINE
  5
221
  8
BODY
 10
537.5207609844481
 20
137.92843122452064
 30
0.0
 11
537.0677940510343
 21
134.98414615733054
 31
0.0
  0
LINE
  5
222
  8
BODY
 10
537.0677940510343
 20
134.98414615733054
 30
0.0
 11
537.5962554733504
 21
134.9086516684282
 31
0.0
  0
LINE
  5
223
  8
BODY
 10
537.5962554733504
 20
134.9086516684282
 30
0.0
 11
537.5962554733504
 21
132.03986109014045
 31
0.0
  0
LINE
  5
224
  8
BODY
 10
537.5962554733504
 20
132.03986109014045
 30
0.0
 11
537.5962554733504
 21
134.9086516684282
 31
0.0
  0
LINE
  5
225
  8
BODY
 10
537.5962554733504
 20
134.9086516684282
 30
0.0
 11
538.0492224067643
 21
135.05964064623282
 31
0.0
  0
LINE
  5
226
  8
BODY
 10
538.0492224067643
 20
135.05964064623282
 30
0.0
 11
537.5962554733504
 21
137.92843122452064
 31
0.0
  0
LINE
  5
227
  8
BODY
 10
537.5962554733504
 20
137.92843122452064
 30
0.0
 11
540.3140570738336
 21
138.00392571342292
 31
0.0
  0
LINE
  5
228
  8
BODY
 10
540.3140570738336
 20
138.00392571342292
 30
0.0
 11
537.6717499622528
 21
138.00392571342292
 31
0.0
  0
LINE
  5
229
  8
BODY
 10
537.6717499622528
 20
138.00392571342292
 30
0.0
 11
537.5962554733504
 21
139.2118375358599
 31
0.0
  0
LINE
  5
22A
  8
BODY
 10
537.5962554733504
 20
139.2118375358599
 30
0.0
 11
542.8808696965121
 21
139.2118375358599
 31
0.0
  0
LINE
  5
22B
  8
BODY
 10
542.8808696965121
 20
139.2118375358599
 30
0.0
 11
542.4279027630982
 21
136.34304695757214
 31
0.0
  0
LINE
  5
22C
  8
BODY
 10
542.4279027630982
 20
136.34304695757214
 30
0.0
 11
542.8808696965121
 21
136.2675524686698
 31
0.0
  0
LINE
  5
22D
  8
BODY
 10
542.8808696965121
 20
136.2675524686698
 30
0.0
 11
542.8808696965121
 21
116.86546882077607
 31
0.0
  0
LINE
  5
22E
  8
BODY
 10
542.8808696965121
 20
116.86546882077607
 30
0.0
 11
542.4279027630982
 21
116.7899743318738
 31
0.0
  0
LINE
  5
22F
  8
BODY
 10
542.4279027630982
 20
116.7899743318738
 30
0.0
 11
542.8808696965121
 21
113.92118375358598
 31
0.0
  0
LINE
  5
230
  8
BODY
 10
542.8808696965121
 20
113.92118375358598
 30
0.0
 11
537.5962554733504
 21
113.92118375358598
 31
0.0
  0
LINE
  5
231
  8
BODY
 10
537.5962554733504
 20
113.92118375358598
 30
0.0
 11
537.6717499622528
 21
115.2045900649253
 31
0.0
  0
LINE
  5
232
  8
BODY
 10
537.6717499622528
 20
115.2045900649253
 30
0.0
 11
540.3140570738336
 21
115.2045900649253
 31
0.0
  0
LINE
  5
233
  8
BODY
 10
540.3140570738336
 20
115.2045900649253
 30
0.0
 11
537.5962554733504
 21
115.28008455382758
 31
0.0
  0
LINE
  5
234
  8
BODY
 10
537.5962554733504
 20
115.28008455382758
 30
0.0
 11
538.0492224067643
 21
118.14887513211539
 31
0.0
  0
LINE
  5
235
  8
BODY
 10
538.0492224067643
 20
118.14887513211539
 30
0.0
 11
537.5962554733504
 21
118.22436962101767
 31
0.0
  0
LINE
  5
236
  8
BODY
 10
537.5962554733504
 20
118.22436962101767
 30
0.0
 11
537.5962554733504
 21
121.16865468820777
 31
0.0
  0
LINE
  5
237
  8
BODY
 10
537.5962554733504
 20
121.16865468820777
 30
0.0
 11
537.5962554733504
 21
118.22436962101767
 31
0.0
  0
LINE
  5
238
  8
BODY
 10
537.5962554733504
 20
118.22436962101767
 30
0.0
 11
537.0677940510343
 21
118.14887513211539
 31
0.0
  0
LINE
  5
239
  8
BODY
 10
537.0677940510343
 20
118.14887513211539
 30
0.0
 11
537.5207609844481
 21
115.28008455382758
 31
0.0
  0
LINE
  5
23A
  8
BODY
 10
537.5207609844481
 20
115.28008455382758
 30
0.0
 11
533.7460365393326
 21
115.2045900649253
 31
0.0
  0
LINE
  5
23B
  8
BODY
 10
533.7460365393326
 20
115.2045900649253
 30
0.0
 11
533.3685640948211
 21
114.67612864260911
 31
0.0
  0
LINE
  5
23C
  8
BODY
 10
533.3685640948211
 20
114.67612864260911
 30
0.0
 11
533.7460365393326
 21
113.8456892646837
 31
0.0
  0
LINE
  5
23D
  8
BODY
 10
533.7460365393326
 20
113.8456892646837
 30
0.0
 11
537.5207609844481
 21
113.77019477578136
 31
0.0
  0
LINE
  5
23E
  8
BODY
 10
537.5207609844481
 20
113.77019477578136
 30
0.0
 11
537.0677940510343
 21
110.82590970859127
 31
0.0
  0
LINE
  5
23F
  8
BODY
 10
537.0677940510343
 20
110.82590970859127
 30
0.0
 11
537.5962554733504
 21
110.75041521968899
 31
0.0
  0
LINE
  5
240
  8
BODY
 10
537.5962554733504
 20
110.75041521968899
 30
0.0
 11
537.5962554733504
 21
107.88162464140117
 31
0.0
  0
LINE
  5
241
  8
BODY
 10
537.5962554733504
 20
107.88162464140117
 30
0.0
 11
537.5962554733504
 21
110.75041521968899
 31
0.0
  0
LINE
  5
242
  8
BODY
 10
537.5962554733504
 20
110.75041521968899
 30
0.0
 11
538.0492224067643
 21
110.9014041974936
 31
0.0
  0
LINE
  5
243
  8
BODY
 10
538.0492224067643
 20
110.9014041974936
 30
0.0
 11
537.6717499622528
 21
113.8456892646837
 31
0.0
  0
LINE
  5
244
  8
BODY
 10
537.6717499622528
 20
113.8456892646837
 30
0.0
 11
545.9006492526046
 21
113.8456892646837
 31
0.0
  0
LINE
  5
245
  8
BODY
 10
545.9006492526046
 20
113.8456892646837
 30
0.0
 11
543.0318586743167
 21
113.8456892646837
 31
0.0
  0
LINE
  5
246
  8
BODY
 10
543.0318586743167
 20
113.8456892646837
 30
0.0
 11
543.4093311188283
 21
116.7899743318738
 31
0.0
  0
LINE
  5
247
  8
BODY
 10
543.4093311188283
 20
116.7899743318738
 30
0.0
 11
543.2583421410237
 21
116.48799637626456
 31
0.0
  0
LINE
  5
248
  8
BODY
 10
543.2583421410237
 20
116.48799637626456
 30
0.0
 11
542.8808696965121
 21
116.86546882077607
 31
0.0
  0
LINE
  5
249
  8
BODY
 10
542.8808696965121
 20
116.86546882077607
 30
0.0
 11
542.8808696965121
 21
136.2675524686698
 31
0.0
  0
LINE
  5
24A
  8
BODY
 10
542.8808696965121
 20
136.2675524686698
 30
0.0
 11
543.2583421410237
 21
136.64502491318137
 31
0.0
  0
LINE
  5
24B
  8
BODY
 10
543.2583421410237
 20
136.64502491318137
 30
0.0
 11
543.4093311188283
 21
136.34304695757214
 31
0.0
  0
LINE
  5
24C
  8
BODY
 10
543.4093311188283
 20
136.34304695757214
 30
0.0
 11
542.9563641854145
 21
139.2118375358599
 31
0.0
  0
LINE
  5
24D
  8
BODY
 10
542.9563641854145
 20
139.2118375358599
 30
0.0
 11
545.9006492526046
 21
139.28733202476224
 31
0.0
  0
LINE
  5
24E
  8
BODY
 10
545.9006492526046
 20
139.28733202476224
 30
0.0
 11
537.6717499622528
 21
139.28733202476224
 31
0.0
  0
LINE
  5
24F
  8
BODY
 10
537.6717499622528
 20
139.28733202476224
 30
0.0
 11
538.0492224067643
 21
142.23161709195233
 31
0.0
  0
LINE
  5
250
  8
BODY
 10
538.0492224067643
 20
142.23161709195233
 30
0.0
 11
537.5962554733504
 21
142.38260606975695
 31
0.0
  0
LINE
  5
251
  8
BODY
 10
537.5962554733504
 20
142.38260606975695
 30
0.0
 11
537.5962554733504
 21
145.2513966480447
 31
0.0
  0
LINE
  5
252
  8
BODY
 10
267.17499622527555
 20
143.36403442548698
 30
0.0
 11
267.17499622527555
 21
109.76898686395896
 31
0.0
  0
LINE
  5
253
  8
BODY
 10
267.17499622527555
 20
109.76898686395896
 30
0.0
 11
319.34168805677183
 21
110.59942624188437
 31
0.0
  0
LINE
  5
254
  8
BODY
 10
319.34168805677183
 20
110.59942624188437
 30
0.0
 11
319.49267703457645
 21
109.61799788615434
 31
0.0
  0
LINE
  5
255
  8
BODY
 10
319.49267703457645
 20
109.61799788615434
 30
0.0
 11
319.64366601238106
 21
110.59942624188437
 31
0.0
  0
LINE
  5
256
  8
BODY
 10
319.64366601238106
 20
110.59942624188437
 30
0.0
 11
319.7946549901857
 21
109.61799788615434
 31
0.0
  0
LINE
  5
257
  8
BODY
 10
319.7946549901857
 20
109.61799788615434
 30
0.0
 11
319.94564396799035
 21
110.59942624188437
 31
0.0
  0
LINE
  5
258
  8
BODY
 10
319.94564396799035
 20
110.59942624188437
 30
0.0
 11
320.09663294579497
 21
109.542503397252
 31
0.0
  0
LINE
  5
259
  8
BODY
 10
320.09663294579497
 20
109.542503397252
 30
0.0
 11
320.17212743469725
 21
110.59942624188437
 31
0.0
  0
LINE
  5
25A
  8
BODY
 10
320.17212743469725
 20
110.59942624188437
 30
0.0
 11
532.6136192057979
 21
113.77019477578136
 31
0.0
  0
LINE
  5
25B
  8
BODY
 10
532.6136192057979
 20
113.77019477578136
 30
0.0
 11
488.2983542201419
 21
113.24173335346524
 31
0.0
  0
LINE
  5
25C
  8
BODY
 10
488.2983542201419
 20
113.24173335346524
 30
0.0
 11
489.27978257587193
 21
113.69470028687908
 31
0.0
  0
LINE
  5
25D
  8
BODY
 10
489.27978257587193
 20
113.69470028687908
 30
0.0
 11
488.2983542201419
 21
113.69470028687908
 31
0.0
  0
LINE
  5
25E
  8
BODY
 10
488.2983542201419
 20
113.69470028687908
 30
0.0
 11
488.2983542201419
 21
139.43832100256685
 31
0.0
  0
LINE
  5
25F
  8
BODY
 10
488.2983542201419
 20
139.43832100256685
 30
0.0
 11
489.20428808696965
 21
139.43832100256685
 31
0.0
  0
LINE
  5
260
  8
BODY
 10
489.20428808696965
 20
139.43832100256685
 30
0.0
 11
488.37384870904424
 21
139.96678242488298
 31
0.0
  0
LINE
  5
261
  8
BODY
 10
488.37384870904424
 20
139.96678242488298
 30
0.0
 11
532.3116412501887
 21
139.36282651366452
 31
0.0
  0
LINE
  5
262
  8
BODY
 10
532.3116412501887
 20
139.36282651366452
 30
0.0
 11
320.17212743469725
 21
142.53359504756156
 31
0.0
  0
LINE
  5
263
  8
BODY
 10
320.17212743469725
 20
142.53359504756156
 30
0.0
 11
320.09663294579497
 21
143.59051789219387
 31
0.0
  0
LINE
  5
264
  8
BODY
 10
320.09663294579497
 20
143.59051789219387
 30
0.0
 11
319.94564396799035
 21
142.53359504756156
 31
0.0
  0
LINE
  5
265
  8
BODY
 10
319.94564396799035
 20
142.53359504756156
 30
0.0
 11
319.7946549901857
 21
143.5150234032916
 31
0.0
  0
LINE
  5
266
  8
BODY
 10
319.7946549901857
 20
143.5150234032916
 30
0.0
 11
319.64366601238106
 21
142.53359504756156
 31
0.0
  0
LINE
  5
267
  8
BODY
 10
319.64366601238106
 20
142.53359504756156
 30
0.0
 11
319.49267703457645
 21
143.5150234032916
 31
0.0
  0
LINE
  5
268
  8
BODY
 10
319.49267703457645
 20
143.5150234032916
 30
0.0
 11
319.26619356786955
 21
142.53359504756156
 31
0.0
  0
LINE
  5
269
  8
BODY
 10
319.26619356786955
 20
142.53359504756156
 30
0.0
 11
307.7910312547184
 21
142.76007851426846
 31
0.0
  0
LINE
  5
26A
  8
BODY
 10
307.7910312547184
 20
142.76007851426846
 30
0.0
 11
303.94081232070056
 21
167.37128189642158
 31
0.0
  0
LINE
  5
26B
  8
BODY
 10
303.94081232070056
 20
167.37128189642158
 30
0.0
 11
307.56454778801145
 21
142.76007851426846
 31
0.0
  0
LINE
  5
26C
  8
BODY
 10
307.56454778801145
 20
142.76007851426846
 30
0.0
 11
267.17499622527555
 21
143.36403442548698
 31
0.0
  0
LINE
  5
26D
  8
BODY
 10
585.3842669485127
 20
178.0160048316473
 30
0.0
 11
585.4597614374151
 21
178.0914993205496
 31
0.0
  0
LINE
  5
26E
  8
BODY
 10
585.4597614374151
 20
178.0914993205496
 30
0.0
 11
585.4597614374151
 21
178.24248829835426
 31
0.0
  0
LINE
  5
26F
  8
BODY
 10
585.4597614374151
 20
178.24248829835426
 30
0.0
 11
585.686244904122
 21
178.61996074286577
 31
0.0
  0
LINE
  5
270
  8
BODY
 10
585.686244904122
 20
178.61996074286577
 30
0.0
 11
585.686244904122
 21
178.7709497206704
 31
0.0
  0
LINE
  5
271
  8
BODY
 10
585.686244904122
 20
178.7709497206704
 30
0.0
 11
585.9127283708289
 21
179.14842216518196
 31
0.0
  0
LINE
  5
272
  8
BODY
 10
585.9127283708289
 20
179.14842216518196
 30
0.0
 11
585.9127283708289
 21
179.29941114298657
 31
0.0
  0
LINE
  5
273
  8
BODY
 10
585.9127283708289
 20
179.29941114298657
 30
0.0
 11
586.0637173486335
 21
179.52589460969352
 31
0.0
  0
LINE
  5
274
  8
BODY
 10
586.0637173486335
 20
179.52589460969352
 30
0.0
 11
586.0637173486335
 21
179.67688358749814
 31
0.0
  0
LINE
  5
275
  8
BODY
 10
586.0637173486335
 20
179.67688358749814
 30
0.0
 11
586.2147063264381
 21
179.90336705420503
 31
0.0
  0
LINE
  5
276
  8
BODY
 10
586.2147063264381
 20
179.90336705420503
 30
0.0
 11
586.2147063264381
 21
180.05435603200965
 31
0.0
  0
LINE
  5
277
  8
BODY
 10
586.2147063264381
 20
180.05435603200965
 30
0.0
 11
586.3656953042428
 21
180.2808394987166
 31
0.0
  0
LINE
  5
278
  8
BODY
 10
586.3656953042428
 20
180.2808394987166
 30
0.0
 11
586.3656953042428
 21
180.43182847652122
 31
0.0
  0
LINE
  5
279
  8
BODY
 10
586.3656953042428
 20
180.43182847652122
 30
0.0
 11
586.5166842820474
 21
180.65831194322817
 31
0.0
  0
LINE
  5
27A
  8
BODY
 10
586.5166842820474
 20
180.65831194322817
 30
0.0
 11
586.5166842820474
 21
180.8093009210328
 31
0.0
  0
LINE
  5
27B
  8
BODY
 10
586.5166842820474
 20
180.8093009210328
 30
0.0
 11
586.5921787709497
 21
180.88479540993507
 31
0.0
  0
LINE
  5
27C
  8
BODY
 10
586.5921787709497
 20
180.88479540993507
 30
0.0
 11
586.5921787709497
 21
180.9602898988374
 31
0.0
  0
LINE
  5
27D
  8
BODY
 10
586.5921787709497
 20
180.9602898988374
 30
0.0
 11
586.667673259852
 21
181.03578438773968
 31
0.0
  0
LINE
  5
27E
  8
BODY
 10
586.667673259852
 20
181.03578438773968
 30
0.0
 11
586.667673259852
 21
181.18677336554435
 31
0.0
  0
LINE
  5
27F
  8
BODY
 10
586.667673259852
 20
181.18677336554435
 30
0.0
 11
586.8941567265589
 21
181.56424581005587
 31
0.0
  0
LINE
  5
280
  8
BODY
 10
586.8941567265589
 20
181.56424581005587
 30
0.0
 11
586.8941567265589
 21
181.71523478786048
 31
0.0
  0
LINE
  5
281
  8
BODY
 10
586.8941567265589
 20
181.71523478786048
 30
0.0
 11
586.9696512154612
 21
181.79072927676282
 31
0.0
  0
LINE
  5
282
  8
BODY
 10
586.9696512154612
 20
181.79072927676282
 30
0.0
 11
586.9696512154612
 21
181.94171825456743
 31
0.0
  0
LINE
  5
283
  8
BODY
 10
586.9696512154612
 20
181.94171825456743
 30
0.0
 11
587.0451457043636
 21
182.0172127434697
 31
0.0
  0
LINE
  5
284
  8
BODY
 10
587.0451457043636
 20
182.0172127434697
 30
0.0
 11
587.0451457043636
 21
182.1682017212744
 31
0.0
  0
LINE
  5
285
  8
BODY
 10
587.0451457043636
 20
182.1682017212744
 30
0.0
 11
587.1206401932659
 21
182.24369621017667
 31
0.0
  0
LINE
  5
286
  8
BODY
 10
587.1206401932659
 20
182.24369621017667
 30
0.0
 11
587.1961346821681
 21
182.24369621017667
 31
0.0
  0
LINE
  5
287
  8
BODY
 10
587.1961346821681
 20
182.24369621017667
 30
0.0
 11
587.2716291710705
 21
182.1682017212744
 31
0.0
  0
LINE
  5
288
  8
BODY
 10
587.2716291710705
 20
182.1682017212744
 30
0.0
 11
587.4226181488751
 21
182.1682017212744
 31
0.0
  0
LINE
  5
289
  8
BODY
 10
587.4226181488751
 20
182.1682017212744
 30
0.0
 11
587.649101615582
 21
182.0172127434697
 31
0.0
  0
LINE
  5
28A
  8
BODY
 10
587.649101615582
 20
182.0172127434697
 30
0.0
 11
587.8000905933867
 21
182.0172127434697
 31
0.0
  0
LINE
  5
28B
  8
BODY
 10
587.8000905933867
 20
182.0172127434697
 30
0.0
 11
587.8755850822889
 21
181.94171825456743
 31
0.0
  0
LINE
  5
28C
  8
BODY
 10
587.8755850822889
 20
181.94171825456743
 30
0.0
 11
588.0265740600936
 21
181.94171825456743
 31
0.0
  0
LINE
  5
28D
  8
BODY
 10
588.0265740600936
 20
181.94171825456743
 30
0.0
 11
588.2530575268005
 21
181.79072927676282
 31
0.0
  0
LINE
  5
28E
  8
BODY
 10
588.2530575268005
 20
181.79072927676282
 30
0.0
 11
588.4040465046052
 21
181.79072927676282
 31
0.0
  0
LINE
  5
28F
  8
BODY
 10
588.4040465046052
 20
181.79072927676282
 30
0.0
 11
588.4795409935075
 21
181.71523478786048
 31
0.0
  0
LINE
  5
290
  8
BODY
 10
588.4795409935075
 20
181.71523478786048
 30
0.0
 11
588.6305299713121
 21
181.71523478786048
 31
0.0
  0
LINE
  5
291
  8
BODY
 10
588.6305299713121
 20
181.71523478786048
 30
0.0
 11
588.7060244602144
 21
181.6397402989582
 31
0.0
  0
LINE
  5
292
  8
BODY
 10
588.7060244602144
 20
181.6397402989582
 30
0.0
 11
588.857013438019
 21
181.6397402989582
 31
0.0
  0
LINE
  5
293
  8
BODY
 10
588.857013438019
 20
181.6397402989582
 30
0.0
 11
589.083496904726
 21
181.4887513211536
 31
0.0
  0
LINE
  5
294
  8
BODY
 10
589.083496904726
 20
181.4887513211536
 30
0.0
 11
589.2344858825305
 21
181.4887513211536
 31
0.0
  0
LINE
  5
295
  8
BODY
 10
589.2344858825305
 20
181.4887513211536
 30
0.0
 11
589.3099803714329
 21
181.41325683225125
 31
0.0
  0
LINE
  5
296
  8
BODY
 10
589.3099803714329
 20
181.41325683225125
 30
0.0
 11
589.4609693492375
 21
181.41325683225125
 31
0.0
  0
LINE
  5
297
  8
BODY
 10
589.4609693492375
 20
181.41325683225125
 30
0.0
 11
589.5364638381398
 21
181.33776234334897
 31
0.0
  0
LINE
  5
298
  8
BODY
 10
589.5364638381398
 20
181.33776234334897
 30
0.0
 11
589.6874528159444
 21
181.33776234334897
 31
0.0
  0
LINE
  5
299
  8
BODY
 10
589.6874528159444
 20
181.33776234334897
 30
0.0
 11
589.9139362826513
 21
181.18677336554435
 31
0.0
  0
LINE
  5
29A
  8
BODY
 10
589.9139362826513
 20
181.18677336554435
 30
0.0
 11
590.064925260456
 21
181.18677336554435
 31
0.0
  0
LINE
  5
29B
  8
BODY
 10
590.064925260456
 20
181.18677336554435
 30
0.0
 11
590.1404197493582
 21
181.11127887664202
 31
0.0
  0
LINE
  5
29C
  8
BODY
 10
590.1404197493582
 20
181.11127887664202
 30
0.0
 11
590.2914087271629
 21
181.11127887664202
 31
0.0
  0
LINE
  5
29D
  8
BODY
 10
590.2914087271629
 20
181.11127887664202
 30
0.0
 11
590.3669032160652
 21
181.03578438773968
 31
0.0
  0
LINE
  5
29E
  8
BODY
 10
590.3669032160652
 20
181.03578438773968
 30
0.0
 11
590.5178921938698
 21
181.03578438773968
 31
0.0
  0
LINE
  5
29F
  8
BODY
 10
590.5178921938698
 20
181.03578438773968
 30
0.0
 11
590.7443756605768
 21
180.88479540993507
 31
0.0
  0
LINE
  5
2A0
  8
BODY
 10
590.7443756605768
 20
180.88479540993507
 30
0.0
 11
590.8953646383814
 21
180.88479540993507
 31
0.0
  0
LINE
  5
2A1
  8
BODY
 10
590.8953646383814
 20
180.88479540993507
 30
0.0
 11
590.9708591272837
 21
180.8093009210328
 31
0.0
  0
LINE
  5
2A2
  8
BODY
 10
590.9708591272837
 20
180.8093009210328
 30
0.0
 11
591.1218481050882
 21
180.8093009210328
 31
0.0
  0
LINE
  5
2A3
  8
BODY
 10
591.1218481050882
 20
180.8093009210328
 30
0.0
 11
591.1973425939906
 21
180.73380643213045
 31
0.0
  0
LINE
  5
2A4
  8
BODY
 10
591.1973425939906
 20
180.73380643213045
 30
0.0
 11
591.3483315717953
 21
180.73380643213045
 31
0.0
  0
LINE
  5
2A5
  8
BODY
 10
591.3483315717953
 20
180.73380643213045
 30
0.0
 11
591.5748150385022
 21
180.58281745432583
 31
0.0
  0
LINE
  5
2A6
  8
BODY
 10
591.5748150385022
 20
180.58281745432583
 30
0.0
 11
591.7258040163068
 21
180.58281745432583
 31
0.0
  0
LINE
  5
2A7
  8
BODY
 10
591.7258040163068
 20
180.58281745432583
 30
0.0
 11
591.801298505209
 21
180.50732296542355
 31
0.0
  0
LINE
  5
2A8
  8
BODY
 10
591.801298505209
 20
180.50732296542355
 30
0.0
 11
591.9522874830137
 21
180.50732296542355
 31
0.0
  0
LINE
  5
2A9
  8
BODY
 10
591.9522874830137
 20
180.50732296542355
 30
0.0
 11
592.027781971916
 21
180.43182847652122
 31
0.0
  0
LINE
  5
2AA
  8
BODY
 10
592.027781971916
 20
180.43182847652122
 30
0.0
 11
592.1787709497206
 21
180.43182847652122
 31
0.0
  0
LINE
  5
2AB
  8
BODY
 10
592.1787709497206
 20
180.43182847652122
 30
0.0
 11
592.4052544164276
 21
180.2808394987166
 31
0.0
  0
LINE
  5
2AC
  8
BODY
 10
592.4052544164276
 20
180.2808394987166
 30
0.0
 11
592.5562433942322
 21
180.2808394987166
 31
0.0
  0
LINE
  5
2AD
  8
BODY
 10
592.5562433942322
 20
180.2808394987166
 30
0.0
 11
592.6317378831345
 21
180.20534500981432
 31
0.0
  0
LINE
  5
2AE
  8
BODY
 10
592.6317378831345
 20
180.20534500981432
 30
0.0
 11
592.7827268609391
 21
180.20534500981432
 31
0.0
  0
LINE
  5
2AF
  8
BODY
 10
592.7827268609391
 20
180.20534500981432
 30
0.0
 11
593.0092103276461
 21
180.05435603200965
 31
0.0
  0
LINE
  5
2B0
  8
BODY
 10
593.0092103276461
 20
180.05435603200965
 30
0.0
 11
593.1601993054506
 21
180.05435603200965
 31
0.0
  0
LINE
  5
2B1
  8
BODY
 10
593.1601993054506
 20
180.05435603200965
 30
0.0
 11
593.235693794353
 21
179.97886154310737
 31
0.0
  0
LINE
  5
2B2
  8
BODY
 10
593.235693794353
 20
179.97886154310737
 30
0.0
 11
593.3866827721577
 21
179.97886154310737
 31
0.0
  0
LINE
  5
2B3
  8
BODY
 10
593.3866827721577
 20
179.97886154310737
 30
0.0
 11
593.4621772610599
 21
179.90336705420503
 31
0.0
  0
LINE
  5
2B4
  8
BODY
 10
593.4621772610599
 20
179.90336705420503
 30
0.0
 11
593.5376717499622
 21
179.97886154310737
 31
0.0
  0
LINE
  5
2B5
  8
BODY
 10
593.5376717499622
 20
179.97886154310737
 30
0.0
 11
593.7641552166691
 21
179.82787256530275
 31
0.0
  0
LINE
  5
2B6
  8
BODY
 10
593.7641552166691
 20
179.82787256530275
 30
0.0
 11
593.9151441944738
 21
179.82787256530275
 31
0.0
  0
LINE
  5
2B7
  8
BODY
 10
593.9151441944738
 20
179.82787256530275
 30
0.0
 11
593.9906386833761
 21
179.75237807640042
 31
0.0
  0
LINE
  5
2B8
  8
BODY
 10
593.9906386833761
 20
179.75237807640042
 30
0.0
 11
594.1416276611807
 21
179.75237807640042
 31
0.0
  0
LINE
  5
2B9
  8
BODY
 10
594.1416276611807
 20
179.75237807640042
 30
0.0
 11
594.3681111278877
 21
179.6013890985958
 31
0.0
  0
LINE
  5
2BA
  8
BODY
 10
594.3681111278877
 20
179.6013890985958
 30
0.0
 11
594.4436056167899
 21
179.67688358749814
 31
0.0
  0
LINE
  5
2BB
  8
BODY
 10
594.4436056167899
 20
179.67688358749814
 30
0.0
 11
594.8210780613015
 21
179.4504001207912
 31
0.0
  0
LINE
  5
2BC
  8
BODY
 10
594.8210780613015
 20
179.4504001207912
 30
0.0
 11
594.9720670391062
 21
179.4504001207912
 31
0.0
  0
LINE
  5
2BD
  8
BODY
 10
594.9720670391062
 20
179.4504001207912
 30
0.0
 11
595.0475615280084
 21
179.3749056318889
 31
0.0
  0
LINE
  5
2BE
  8
BODY
 10
595.0475615280084
 20
179.3749056318889
 30
0.0
 11
595.198550505813
 21
179.3749056318889
 31
0.0
  0
LINE
  5
2BF
  8
BODY
 10
595.198550505813
 20
179.3749056318889
 30
0.0
 11
595.2740449947154
 21
179.29941114298657
 31
0.0
  0
LINE
  5
2C0
  8
BODY
 10
595.2740449947154
 20
179.29941114298657
 30
0.0
 11
595.4250339725199
 21
179.29941114298657
 31
0.0
  0
LINE
  5
2C1
  8
BODY
 10
595.4250339725199
 20
179.29941114298657
 30
0.0
 11
595.651517439227
 21
179.14842216518196
 31
0.0
  0
LINE
  5
2C2
  8
BODY
 10
595.651517439227
 20
179.14842216518196
 30
0.0
 11
591.9522874830137
 21
175.44919220896878
 31
0.0
  0
LINE
  5
2C3
  8
BODY
 10
591.9522874830137
 20
175.44919220896878
 30
0.0
 11
591.8767929941114
 21
175.52468669787106
 31
0.0
  0
LINE
  5
2C4
  8
BODY
 10
591.8767929941114
 20
175.52468669787106
 30
0.0
 11
591.8767929941114
 21
175.6001811867734
 31
0.0
  0
LINE
  5
2C5
  8
BODY
 10
591.8767929941114
 20
175.6001811867734
 30
0.0
 11
591.801298505209
 21
175.52468669787106
 31
0.0
  0
LINE
  5
2C6
  8
BODY
 10
591.801298505209
 20
175.52468669787106
 30
0.0
 11
591.4238260606976
 21
175.751170164578
 31
0.0
  0
LINE
  5
2C7
  8
BODY
 10
591.4238260606976
 20
175.751170164578
 30
0.0
 11
591.1973425939906
 21
175.751170164578
 31
0.0
  0
LINE
  5
2C8
  8
BODY
 10
591.1973425939906
 20
175.751170164578
 30
0.0
 11
590.819870149479
 21
175.9776536312849
 31
0.0
  0
LINE
  5
2C9
  8
BODY
 10
590.819870149479
 20
175.9776536312849
 30
0.0
 11
590.7443756605768
 21
175.90215914238263
 31
0.0
  0
LINE
  5
2CA
  8
BODY
 10
590.7443756605768
 20
175.90215914238263
 30
0.0
 11
590.6688811716745
 21
175.9776536312849
 31
0.0
  0
LINE
  5
2CB
  8
BODY
 10
590.6688811716745
 20
175.9776536312849
 30
0.0
 11
590.5933866827721
 21
175.9776536312849
 31
0.0
  0
LINE
  5
2CC
  8
BODY
 10
590.5933866827721
 20
175.9776536312849
 30
0.0
 11
590.2159142382606
 21
176.20413709799186
 31
0.0
  0
LINE
  5
2CD
  8
BODY
 10
590.2159142382606
 20
176.20413709799186
 30
0.0
 11
590.1404197493582
 21
176.12864260908952
 31
0.0
  0
LINE
  5
2CE
  8
BODY
 10
590.1404197493582
 20
176.12864260908952
 30
0.0
 11
589.7629473048468
 21
176.35512607579648
 31
0.0
  0
LINE
  5
2CF
  8
BODY
 10
589.7629473048468
 20
176.35512607579648
 30
0.0
 11
589.5364638381398
 21
176.35512607579648
 31
0.0
  0
LINE
  5
2D0
  8
BODY
 10
589.5364638381398
 20
176.35512607579648
 30
0.0
 11
589.1589913936282
 21
176.58160954250343
 31
0.0
  0
LINE
  5
2D1
  8
BODY
 10
589.1589913936282
 20
176.58160954250343
 30
0.0
 11
588.9325079269213
 21
176.58160954250343
 31
0.0
  0
LINE
  5
2D2
  8
BODY
 10
588.9325079269213
 20
176.58160954250343
 30
0.0
 11
588.5550354824097
 21
176.80809300921032
 31
0.0
  0
LINE
  5
2D3
  8
BODY
 10
588.5550354824097
 20
176.80809300921032
 30
0.0
 11
588.3285520157028
 21
176.80809300921032
 31
0.0
  0
LINE
  5
2D4
  8
BODY
 10
588.3285520157028
 20
176.80809300921032
 30
0.0
 11
587.9510795711913
 21
177.03457647591728
 31
0.0
  0
LINE
  5
2D5
  8
BODY
 10
587.9510795711913
 20
177.03457647591728
 30
0.0
 11
587.8755850822889
 21
176.95908198701494
 31
0.0
  0
LINE
  5
2D6
  8
BODY
 10
587.8755850822889
 20
176.95908198701494
 30
0.0
 11
587.4981126377775
 21
177.1855654537219
 31
0.0
  0
LINE
  5
2D7
  8
BODY
 10
587.4981126377775
 20
177.1855654537219
 30
0.0
 11
587.2716291710705
 21
177.1855654537219
 31
0.0
  0
LINE
  5
2D8
  8
BODY
 10
587.2716291710705
 20
177.1855654537219
 30
0.0
 11
587.1206401932659
 21
177.3365544315265
 31
0.0
  0
LINE
  5
2D9
  8
BODY
 10
587.1206401932659
 20
177.3365544315265
 30
0.0
 11
586.9696512154612
 21
177.3365544315265
 31
0.0
  0
LINE
  5
2DA
  8
BODY
 10
586.9696512154612
 20
177.3365544315265
 30
0.0
 11
586.8941567265589
 21
177.41204892042884
 31
0.0
  0
LINE
  5
2DB
  8
BODY
 10
586.8941567265589
 20
177.41204892042884
 30
0.0
 11
586.667673259852
 21
177.41204892042884
 31
0.0
  0
LINE
  5
2DC
  8
BODY
 10
586.667673259852
 20
177.41204892042884
 30
0.0
 11
586.2902008153404
 21
177.63853238713574
 31
0.0
  0
LINE
  5
2DD
  8
BODY
 10
586.2902008153404
 20
177.63853238713574
 30
0.0
 11
586.0637173486335
 21
177.63853238713574
 31
0.0
  0
LINE
  5
2DE
  8
BODY
 10
586.0637173486335
 20
177.63853238713574
 30
0.0
 11
585.686244904122
 21
177.8650158538427
 31
0.0
  0
LINE
  5
2DF
  8
BODY
 10
585.686244904122
 20
177.8650158538427
 30
0.0
 11
585.5352559263174
 21
177.8650158538427
 31
0.0
  0
LINE
  5
2E0
  8
BODY
 10
585.5352559263174
 20
177.8650158538427
 30
0.0
 11
585.3842669485127
 21
178.0160048316473
 31
0.0
  0
LINE
  5
2E1
  8
BODY
 10
285.8976294730485
 20
206.25094368111127
 30
0.0
 11
230.78665257436205
 21
207.2323720368413
 31
0.0
  0
LINE
  5
2E2
  8
BODY
 10
230.78665257436205
 20
207.2323720368413
 30
0.0
 11
233.80643213045445
 21
207.15687754793902
 31
0.0
  0
LINE
  5
2E3
  8
BODY
 10
233.80643213045445
 20
207.15687754793902
 30
0.0
 11
233.80643213045445
 21
194.17182545674166
 31
0.0
  0
LINE
  5
2E4
  8
BODY
 10
233.80643213045445
 20
194.17182545674166
 30
0.0
 11
228.9747848407066
 21
192.8884191454024
 31
0.0
  0
LINE
  5
2E5
  8
BODY
 10
228.9747848407066
 20
192.8884191454024
 30
0.0
 11
233.80643213045445
 21
192.43545221198855
 31
0.0
  0
LINE
  5
2E6
  8
BODY
 10
233.80643213045445
 20
192.43545221198855
 30
0.0
 11
226.634455684735
 21
191.00105692284467
 31
0.0
  0
LINE
  5
2E7
  8
BODY
 10
226.634455684735
 20
191.00105692284467
 30
0.0
 11
233.80643213045445
 21
192.28446323418393
 31
0.0
  0
LINE
  5
2E8
  8
BODY
 10
233.80643213045445
 20
192.28446323418393
 30
0.0
 11
233.80643213045445
 21
158.46293220594896
 31
0.0
  0
LINE
  5
2E9
  8
BODY
 10
233.80643213045445
 20
158.46293220594896
 30
0.0
 11
219.00951230560167
 21
152.6498565604711
 31
0.0
  0
LINE
  5
2EA
  8
BODY
 10
219.00951230560167
 20
152.6498565604711
 30
0.0
 11
233.80643213045445
 21
158.0099652725351
 31
0.0
  0
LINE
  5
2EB
  8
BODY
 10
233.80643213045445
 20
158.0099652725351
 30
0.0
 11
217.0466555941416
 21
150.53601087120643
 31
0.0
  0
LINE
  5
2EC
  8
BODY
 10
217.0466555941416
 20
150.53601087120643
 30
0.0
 11
233.80643213045445
 21
157.70798731692588
 31
0.0
  0
LINE
  5
2ED
  8
BODY
 10
233.80643213045445
 20
157.70798731692588
 30
0.0
 11
219.00951230560167
 21
149.85656047108563
 31
0.0
  0
LINE
  5
2EE
  8
BODY
 10
219.00951230560167
 20
149.85656047108563
 30
0.0
 11
233.80643213045445
 21
155.97161407217277
 31
0.0
  0
LINE
  5
2EF
  8
BODY
 10
233.80643213045445
 20
155.97161407217277
 30
0.0
 11
221.274346972671
 21
149.32809904876945
 31
0.0
  0
LINE
  5
2F0
  8
BODY
 10
221.274346972671
 20
149.32809904876945
 30
0.0
 11
233.80643213045445
 21
154.15974633851732
 31
0.0
  0
LINE
  5
2F1
  8
BODY
 10
233.80643213045445
 20
154.15974633851732
 30
0.0
 11
233.80643213045445
 21
131.43590517892193
 31
0.0
  0
LINE
  5
2F2
  8
BODY
 10
233.80643213045445
 20
131.43590517892193
 30
0.0
 11
225.57753284010266
 21
131.36041069001965
 31
0.0
  0
LINE
  5
2F3
  8
BODY
 10
225.57753284010266
 20
131.36041069001965
 30
0.0
 11
233.80643213045445
 21
131.20942171221503
 31
0.0
  0
LINE
  5
2F4
  8
BODY
 10
233.80643213045445
 20
131.20942171221503
 30
0.0
 11
233.80643213045445
 21
121.9235995772309
 31
0.0
  0
LINE
  5
2F5
  8
BODY
 10
233.80643213045445
 20
121.9235995772309
 30
0.0
 11
225.57753284010266
 21
121.84810508832857
 31
0.0
  0
LINE
  5
2F6
  8
BODY
 10
225.57753284010266
 20
121.84810508832857
 30
0.0
 11
233.80643213045445
 21
121.69711611052395
 31
0.0
  0
LINE
  5
2F7
  8
BODY
 10
233.80643213045445
 20
121.69711611052395
 30
0.0
 11
233.80643213045445
 21
98.97327495092861
 31
0.0
  0
LINE
  5
2F8
  8
BODY
 10
233.80643213045445
 20
98.97327495092861
 30
0.0
 11
221.274346972671
 21
103.80492224067643
 31
0.0
  0
LINE
  5
2F9
  8
BODY
 10
221.274346972671
 20
103.80492224067643
 30
0.0
 11
233.80643213045445
 21
97.16140721727317
 31
0.0
  0
LINE
  5
2FA
  8
BODY
 10
233.80643213045445
 20
97.16140721727317
 30
0.0
 11
219.9154461724294
 21
102.5970104182395
 31
0.0
  0
LINE
  5
2FB
  8
BODY
 10
219.9154461724294
 20
102.5970104182395
 30
0.0
 11
233.80643213045445
 21
95.42503397252
 31
0.0
  0
LINE
  5
2FC
  8
BODY
 10
233.80643213045445
 20
95.42503397252
 30
0.0
 11
219.1605012834063
 21
100.93613166238868
 31
0.0
  0
LINE
  5
2FD
  8
BODY
 10
219.1605012834063
 20
100.93613166238868
 30
0.0
 11
233.80643213045445
 21
95.12305601691077
 31
0.0
  0
LINE
  5
2FE
  8
BODY
 10
233.80643213045445
 20
95.12305601691077
 30
0.0
 11
219.46247923901555
 21
100.18118677336554
 31
0.0
  0
LINE
  5
2FF
  8
BODY
 10
219.46247923901555
 20
100.18118677336554
 30
0.0
 11
233.80643213045445
 21
94.67008908349692
 31
0.0
  0
LINE
  5
300
  8
BODY
 10
233.80643213045445
 20
94.67008908349692
 30
0.0
 11
233.80643213045445
 21
60.848558055262004
 31
0.0
  0
LINE
  5
301
  8
BODY
 10
233.80643213045445
 20
60.848558055262004
 30
0.0
 11
226.634455684735
 21
62.207458855503546
 31
0.0
  0
LINE
  5
302
  8
BODY
 10
226.634455684735
 20
62.207458855503546
 30
0.0
 11
233.80643213045445
 21
60.69756907745739
 31
0.0
  0
LINE
  5
303
  8
BODY
 10
233.80643213045445
 20
60.69756907745739
 30
0.0
 11
228.9747848407066
 21
60.24460214404348
 31
0.0
  0
LINE
  5
304
  8
BODY
 10
228.9747848407066
 20
60.24460214404348
 30
0.0
 11
233.80643213045445
 21
58.96119583270422
 31
0.0
  0
LINE
  5
305
  8
BODY
 10
233.80643213045445
 20
58.96119583270422
 30
0.0
 11
233.80643213045445
 21
45.97614374150692
 31
0.0
  0
LINE
  5
306
  8
BODY
 10
233.80643213045445
 20
45.97614374150692
 30
0.0
 11
230.78665257436205
 21
45.90064925260458
 31
0.0
  0
LINE
  5
307
  8
BODY
 10
230.78665257436205
 20
45.90064925260458
 30
0.0
 11
285.8976294730485
 21
46.95757209723695
 31
0.0
  0
LINE
  5
308
  8
BODY
 10
285.8976294730485
 20
46.95757209723695
 30
0.0
 11
233.9574211082591
 21
45.90064925260458
 31
0.0
  0
LINE
  5
309
  8
BODY
 10
233.9574211082591
 20
45.90064925260458
 30
0.0
 11
233.8819266193568
 21
59.03669032160656
 31
0.0
  0
LINE
  5
30A
  8
BODY
 10
233.8819266193568
 20
59.03669032160656
 30
0.0
 11
250.49071417786502
 21
52.31768080930095
 31
0.0
  0
LINE
  5
30B
  8
BODY
 10
250.49071417786502
 20
52.31768080930095
 30
0.0
 11
233.80643213045445
 21
59.18767929941117
 31
0.0
  0
LINE
  5
30C
  8
BODY
 10
233.80643213045445
 20
59.18767929941117
 30
0.0
 11
236.75071719764455
 21
59.94262418843425
 31
0.0
  0
LINE
  5
30D
  8
BODY
 10
236.75071719764455
 20
59.94262418843425
 30
0.0
 11
233.80643213045445
 21
60.848558055262004
 31
0.0
  0
LINE
  5
30E
  8
BODY
 10
233.80643213045445
 20
60.848558055262004
 30
0.0
 11
233.80643213045445
 21
94.67008908349692
 31
0.0
  0
LINE
  5
30F
  8
BODY
 10
233.80643213045445
 20
94.67008908349692
 30
0.0
 11
246.7159897327495
 21
95.80250641703157
 31
0.0
  0
LINE
  5
310
  8
BODY
 10
246.7159897327495
 20
95.80250641703157
 30
0.0
 11
257.2852181790729
 21
101.2381096179979
 31
0.0
  0
LINE
  5
311
  8
BODY
 10
257.2852181790729
 20
101.2381096179979
 30
0.0
 11
246.26302279933563
 21
95.80250641703157
 31
0.0
  0
LINE
  5
312
  8
BODY
 10
246.26302279933563
 20
95.80250641703157
 30
0.0
 11
233.8819266193568
 21
94.82107806130153
 31
0.0
  0
LINE
  5
313
  8
BODY
 10
233.8819266193568
 20
94.82107806130153
 30
0.0
 11
255.6243394232221
 21
100.5586592178771
 31
0.0
  0
LINE
  5
314
  8
BODY
 10
255.6243394232221
 20
100.5586592178771
 30
0.0
 11
244.75313302128944
 21
95.8780009059339
 31
0.0
  0
LINE
  5
315
  8
BODY
 10
244.75313302128944
 20
95.8780009059339
 30
0.0
 11
233.8819266193568
 21
95.27404499471538
 31
0.0
  0
LINE
  5
316
  8
BODY
 10
233.8819266193568
 20
95.27404499471538
 30
0.0
 11
253.66148271176203
 21
101.38909859580252
 31
0.0
  0
LINE
  5
317
  8
BODY
 10
253.66148271176203
 20
101.38909859580252
 30
0.0
 11
233.80643213045445
 21
97.16140721727317
 31
0.0
  0
LINE
  5
318
  8
BODY
 10
233.80643213045445
 20
97.16140721727317
 30
0.0
 11
253.51049373395742
 21
103.42744979616492
 31
0.0
  0
LINE
  5
319
  8
BODY
 10
253.51049373395742
 20
103.42744979616492
 30
0.0
 11
233.8819266193568
 21
98.89778046202628
 31
0.0
  0
LINE
  5
31A
  8
BODY
 10
233.8819266193568
 20
98.89778046202628
 30
0.0
 11
233.80643213045445
 21
121.69711611052395
 31
0.0
  0
LINE
  5
31B
  8
BODY
 10
233.80643213045445
 20
121.69711611052395
 30
0.0
 11
257.51170164577985
 21
121.77261059942629
 31
0.0
  0
LINE
  5
31C
  8
BODY
 10
257.51170164577985
 20
121.77261059942629
 30
0.0
 11
257.51170164577985
 21
109.91997584176357
 31
0.0
  0
LINE
  5
31D
  8
BODY
 10
257.51170164577985
 20
109.91997584176357
 30
0.0
 11
254.56741657858976
 21
109.84448135286124
 31
0.0
  0
LINE
  5
31E
  8
BODY
 10
254.56741657858976
 20
109.84448135286124
 30
0.0
 11
265.81609542503395
 21
109.84448135286124
 31
0.0
  0
LINE
  5
31F
  8
BODY
 10
265.81609542503395
 20
109.84448135286124
 30
0.0
 11
257.58719613468213
 21
109.91997584176357
 31
0.0
  0
LINE
  5
320
  8
BODY
 10
257.58719613468213
 20
109.91997584176357
 30
0.0
 11
257.58719613468213
 21
121.69711611052395
 31
0.0
  0
LINE
  5
321
  8
BODY
 10
257.58719613468213
 20
121.69711611052395
 30
0.0
 11
265.3631284916201
 21
122.22557753284013
 31
0.0
  0
LINE
  5
322
  8
BODY
 10
265.3631284916201
 20
122.22557753284013
 30
0.0
 11
257.58719613468213
 21
121.9235995772309
 31
0.0
  0
LINE
  5
323
  8
BODY
 10
257.58719613468213
 20
121.9235995772309
 30
0.0
 11
257.58719613468213
 21
131.20942171221503
 31
0.0
  0
LINE
  5
324
  8
BODY
 10
257.58719613468213
 20
131.20942171221503
 30
0.0
 11
265.3631284916201
 21
130.75645477880119
 31
0.0
  0
LINE
  5
325
  8
BODY
 10
265.3631284916201
 20
130.75645477880119
 30
0.0
 11
257.58719613468213
 21
131.43590517892193
 31
0.0
  0
LINE
  5
326
  8
BODY
 10
257.58719613468213
 20
131.43590517892193
 30
0.0
 11
257.58719613468213
 21
143.21304544768236
 31
0.0
  0
LINE
  5
327
  8
BODY
 10
257.58719613468213
 20
143.21304544768236
 30
0.0
 11
265.81609542503395
 21
143.28853993658464
 31
0.0
  0
LINE
  5
328
  8
BODY
 10
265.81609542503395
 20
143.28853993658464
 30
0.0
 11
254.56741657858976
 21
143.28853993658464
 31
0.0
  0
LINE
  5
329
  8
BODY
 10
254.56741657858976
 20
143.28853993658464
 30
0.0
 11
257.51170164577985
 21
143.21304544768236
 31
0.0
  0
LINE
  5
32A
  8
BODY
 10
257.51170164577985
 20
143.21304544768236
 30
0.0
 11
257.51170164577985
 21
131.36041069001965
 31
0.0
  0
LINE
  5
32B
  8
BODY
 10
257.51170164577985
 20
131.36041069001965
 30
0.0
 11
233.80643213045445
 21
131.43590517892193
 31
0.0
  0
LINE
  5
32C
  8
BODY
 10
233.80643213045445
 20
131.43590517892193
 30
0.0
 11
233.8819266193568
 21
154.2352408274196
 31
0.0
  0
LINE
  5
32D
  8
BODY
 10
233.8819266193568
 20
154.2352408274196
 30
0.0
 11
253.51049373395742
 21
149.705571493281
 31
0.0
  0
LINE
  5
32E
  8
BODY
 10
253.51049373395742
 20
149.705571493281
 30
0.0
 11
233.8819266193568
 21
156.04710856107505
 31
0.0
  0
LINE
  5
32F
  8
BODY
 10
233.8819266193568
 20
156.04710856107505
 30
0.0
 11
245.8855503548241
 21
155.14117469424735
 31
0.0
  0
LINE
  5
330
  8
BODY
 10
245.8855503548241
 20
155.14117469424735
 30
0.0
 11
256.3792843122452
 21
149.7810659821833
 31
0.0
  0
LINE
  5
331
  8
BODY
 10
256.3792843122452
 20
149.7810659821833
 30
0.0
 11
245.50807791031252
 21
155.36765816095425
 31
0.0
  0
LINE
  5
332
  8
BODY
 10
245.50807791031252
 20
155.36765816095425
 30
0.0
 11
233.80643213045445
 21
156.19809753887967
 31
0.0
  0
LINE
  5
333
  8
BODY
 10
233.80643213045445
 20
156.19809753887967
 30
0.0
 11
245.3570889325079
 21
155.74513060546582
 31
0.0
  0
LINE
  5
334
  8
BODY
 10
245.3570889325079
 20
155.74513060546582
 30
0.0
 11
256.2282953344406
 21
150.4605163823041
 31
0.0
  0
LINE
  5
335
  8
BODY
 10
256.2282953344406
 20
150.4605163823041
 30
0.0
 11
245.81005586592178
 21
155.74513060546582
 31
0.0
  0
LINE
  5
336
  8
BODY
 10
245.81005586592178
 20
155.74513060546582
 30
0.0
 11
233.80643213045445
 21
156.6510644722935
 31
0.0
  0
LINE
  5
337
  8
BODY
 10
233.80643213045445
 20
156.6510644722935
 30
0.0
 11
243.39423222104784
 21
157.55699833912126
 31
0.0
  0
LINE
  5
338
  8
BODY
 10
243.39423222104784
 20
157.55699833912126
 30
0.0
 11
254.869394534199
 21
153.10282349388496
 31
0.0
  0
LINE
  5
339
  8
BODY
 10
254.869394534199
 20
153.10282349388496
 30
0.0
 11
233.80643213045445
 21
158.23644873924206
 31
0.0
  0
LINE
  5
33A
  8
BODY
 10
233.80643213045445
 20
158.23644873924206
 30
0.0
 11
243.0167597765363
 21
158.08545976143745
 31
0.0
  0
LINE
  5
33B
  8
BODY
 10
243.0167597765363
 20
158.08545976143745
 30
0.0
 11
255.7753284010267
 21
153.02732900498268
 31
0.0
  0
LINE
  5
33C
  8
BODY
 10
255.7753284010267
 20
153.02732900498268
 30
0.0
 11
244.75313302128944
 21
157.8589762947305
 31
0.0
  0
LINE
  5
33D
  8
BODY
 10
244.75313302128944
 20
157.8589762947305
 30
0.0
 11
233.80643213045445
 21
158.46293220594896
 31
0.0
  0
LINE
  5
33E
  8
BODY
 10
233.80643213045445
 20
158.46293220594896
 30
0.0
 11
233.80643213045445
 21
192.28446323418393
 31
0.0
  0
LINE
  5
33F
  8
BODY
 10
233.80643213045445
 20
192.28446323418393
 30
0.0
 11
236.75071719764455
 21
193.19039710101163
 31
0.0
  0
LINE
  5
340
  8
BODY
 10
236.75071719764455
 20
193.19039710101163
 30
0.0
 11
233.80643213045445
 21
193.94534199003476
 31
0.0
  0
LINE
  5
341
  8
BODY
 10
233.80643213045445
 20
193.94534199003476
 30
0.0
 11
252.7555488449343
 21
201.8722633247773
 31
0.0
  0
LINE
  5
342
  8
BODY
 10
252.7555488449343
 20
201.8722633247773
 30
0.0
 11
233.8819266193568
 21
194.09633096783938
 31
0.0
  0
LINE
  5
343
  8
BODY
 10
233.8819266193568
 20
194.09633096783938
 30
0.0
 11
233.8819266193568
 21
207.15687754793902
 31
0.0
  0
LINE
  5
344
  8
BODY
 10
233.8819266193568
 20
207.15687754793902
 30
0.0
 11
285.8976294730485
 21
206.25094368111127
 31
0.0
  0
ENDSEC
  0
EOF
