  0
SECTION
  2
HEADER
  9
$ACADVER
  1
AC1009
  9
$DWGCODEPAGE
  3
ANSI_1252
  9
$INSBASE
 10
0.0
 20
0.0
 30
0.0
  9
$EXTMIN
 10
1e+20
 20
1e+20
 30
1e+20
  9
$EXTMAX
 10
-1e+20
 20
-1e+20
 30
-1e+20
  9
$LIMMIN
 10
0.0
 20
0.0
  9
$LIMMAX
 10
420.0
 20
297.0
  9
$ORTHOMODE
 70
0
  9
$REGENMODE
 70
1
  9
$FILLMODE
 70
1
  9
$DRAGMODE
 70
2
  9
$QTEXTMODE
 70
0
  9
$MIRRTEXT
 70
1
  9
$OSMODE
 70
20583
  9
$LTSCALE
 40
1.0
  9
$ATTMODE
 70
1
  9
$TEXTSIZE
 40
2.5
  9
$TRACEWID
 40
1.0
  9
$TEXTSTYLE
  7
Standard
  9
$CLAYER
  8
0
  9
$CELTYPE
  6
ByLayer
  9
$CECOLOR
 62
256
  9
$DIMSCALE
 40
1.0
  9
$DIMASZ
 40
2.5
  9
$DIMEXO
 40
0.625
  9
$DIMDLI
 40
3.75
  9
$DIMRND
 40
0.0
  9
$DIMDLE
 40
0.0
  9
$DIMEXE
 40
1.25
  9
$DIMTP
 40
0.0
  9
$DIMTM
 40
0.0
  9
$DIMTXT
 40
2.5
  9
$DIMCEN
 40
2.5
  9
$DIMTSZ
 40
0.0
  9
$DIMTOL
 70
0
  9
$DIMLIM
 70
0
  9
$DIMTIH
 70
0
  9
$DIMTOH
 70
0
  9
$DIMSE1
 70
0
  9
$DIMSE2
 70
0
  9
$DIMTAD
 70
1
  9
$DIMZIN
 70
8
  9
$DIMBLK
  1

  9
$DIMASO
 70
1
  9
$DIMSHO
 70
1
  9
$DIMPOST
  1

  9
$DIMAPOST
  1

  9
$DIMALT
 70
0
  9
$DIMALTD
 70
3
  9
$DIMALTF
 40
0.03937007874
  9
$DIMLFAC
 40
1.0
  9
$DIMTOFL
 70
1
  9
$DIMTVP
 40
0.0
  9
$DIMTIX
 70
0
  9
$DIMSOXD
 70
0
  9
$DIMSAH
 70
0
  9
$DIMBLK1
  1

  9
$DIMBLK2
  1

  9
$DIMSTYLE
  2
ISO-25
  9
$DIMCLRD
 70
0
  9
$DIMCLRE
 70
0
  9
$DIMCLRT
 70
0
  9
$DIMTFAC
 40
1.0
  9
$DIMGAP
 40
0.625
  9
$COORDS
 70
1
  9
$ATTDIA
 70
0
  9
$ATTREQ
 70
1
  9
$HANDLING
 70
1
  9
$LUNITS
 70
2
  9
$LUPREC
 70
4
  9
$SKETCHINC
 40
1.0
  9
$FILLETRAD
 40
10.0
  9
$AUNITS
 70
0
  9
$AUPREC
 70
2
  9
$MENU
  1
.
  9
$ELEVATION
 40
0.0
  9
$PELEVATION
 40
0.0
  9
$THICKNESS
 40
0.0
  9
$LIMCHECK
 70
0
  9
$CHAMFERA
 40
0.0
  9
$CHAMFERB
 40
0.0
  9
$SKPOLY
 70
0
  9
$TDCREATE
 40
2461144.993298611
  9
$TDUPDATE
 40
2461144.993298611
  9
$TDINDWG
 40
0.0
  9
$TDUSRTIMER
 40
0.0
  9
$USRTIMER
 70
1
  9
$ANGBASE
 50
0.0
  9
$ANGDIR
 70
0
  9
$PDMODE
 70
0
  9
$PDSIZE
 40
0.0
  9
$PLINEWID
 40
0.0
  9
$SPLFRAME
 70
0
  9
$SPLINETYPE
 70
6
  9
$SPLINESEGS
 70
8
  9
$HANDSEED
  5
31F
  9
$SURFTAB1
 70
6
  9
$SURFTAB2
 70
6
  9
$SURFTYPE
 70
6
  9
$SURFU
 70
6
  9
$SURFV
 70
6
  9
$UCSNAME
  2

  9
$UCSORG
 10
0.0
 20
0.0
 30
0.0
  9
$UCSXDIR
 10
1.0
 20
0.0
 30
0.0
  9
$UCSYDIR
 10
0.0
 20
1.0
 30
0.0
  9
$PUCSNAME
  2

  9
$PUCSORG
 10
0.0
 20
0.0
 30
0.0
  9
$PUCSXDIR
 10
1.0
 20
0.0
 30
0.0
  9
$PUCSYDIR
 10
0.0
 20
1.0
 30
0.0
  9
$USERI1
 70
0
  9
$USERI2
 70
0
  9
$USERI3
 70
0
  9
$USERI4
 70
0
  9
$USERI5
 70
0
  9
$USERR1
 40
0.0
  9
$USERR2
 40
0.0
  9
$USERR3
 40
0.0
  9
$USERR4
 40
0.0
  9
$USERR5
 40
0.0
  9
$WORLDVIEW
 70
1
  9
$SHADEDGE
 70
3
  9
$SHADEDIF
 70
70
  9
$TILEMODE
 70
1
  9
$MAXACTVP
 70
64
  9
$PLIMCHECK
 70
0
  9
$PEXTMIN
 10
1e+20
 20
1e+20
 30
1e+20
  9
$PEXTMAX
 10
-1e+20
 20
-1e+20
 30
-1e+20
  9
$PLIMMIN
 10
0.0
 20
0.0
  9
$PLIMMAX
 10
420.0
 20
297.0
  9
$UNITMODE
 70
0
  9
$VISRETAIN
 70
1
  9
$PLINEGEN
 70
0
  9
$PSLTSCALE
 70
1
  0
ENDSEC
  0
SECTION
  2
TABLES
  0
TABLE
  2
VPORT
 70
1
  0
VPORT
  5
23
  2
*Active
 70
0
 10
0.0
 20
0.0
 11
1.0
 21
1.0
 12
0.0
 22
0.0
 13
0.0
 23
0.0
 14
0.5
 24
0.5
 15
0.5
 25
0.5
 16
0.0
 26
0.0
 36
1.0
 17
0.0
 27
0.0
 37
0.0
 40
1000.0
 41
1.34
 42
50.0
 43
0.0
 44
0.0
 50
0.0
 51
0.0
 71
0
 72
1000
 73
1
 74
3
 75
0
 76
0
 77
0
 78
0
  0
ENDTAB
  0
TABLE
  2
LTYPE
 70
3
  0
LTYPE
  5
24
  2
ByBlock
 70
0
  3

 72
65
 73
0
 40
0.0
  0
LTYPE
  5
25
  2
ByLayer
 70
0
  3

 72
65
 73
0
 40
0.0
  0
LTYPE
  5
26
  2
Continuous
 70
0
  3

 72
65
 73
0
 40
0.0
  0
ENDTAB
  0
TABLE
  2
LAYER
 70
7
  0
LAYER
  5
27
  2
0
 70
0
 62
7
  6
Continuous
  0
LAYER
  5
28
  2
Defpoints
 70
0
 62
7
  6
Continuous
  0
LAYER
  5
2D
  2
BODY
 70
0
 62
7
  6
Continuous
  0
LAYER
  5
2E
  2
AUX_VIEWS
 70
0
 62
8
  6
Continuous
  0
LAYER
  5
2F
  2
ANNOTATION
 70
0
 62
7
  6
Continuous
  0
LAYER
  5
30
  2
TITLE_BLOCK
 70
0
 62
8
  6
Continuous
  0
LAYER
  5
31
  2
PAGE_FRAME
 70
0
 62
9
  6
Continuous
  0
ENDTAB
  0
TABLE
  2
STYLE
 70
1
  0
STYLE
  5
29
  2
Standard
 70
0
 40
0.0
 41
1.0
 50
0.0
 71
0
 42
2.5
  3
txt
  4

  0
ENDTAB
  0
TABLE
  2
VIEW
 70
0
  0
ENDTAB
  0
TABLE
  2
UCS
 70
0
  0
ENDTAB
  0
TABLE
  2
APPID
 70
3
  0
APPID
  5
2A
  2
ACAD
 70
0
  0
APPID
  5
31D
  2
HATCHBACKGROUNDCOLOR
 70
0
  0
APPID
  5
31E
  2
EZDXF
 70
0
  0
ENDTAB
  0
TABLE
  2
DIMSTYLE
 70
1
  0
DIMSTYLE
105
2B
  2
Standard
 70
0
  3

  4

  5

  6

  7

 40
1.0
 41
2.5
 42
0.625
 43
3.75
 44
1.25
 45
0.0
 46
0.0
 47
0.0
 48
0.0
140
2.5
141
2.5
142
0.0
143
0.03937007874
144
1.0
145
0.0
146
1.0
147
0.625
 71
0
 72
0
 73
0
 74
0
 75
0
 76
0
 77
1
 78
8
170
0
171
3
172
1
173
0
174
0
175
0
176
0
177
0
178
0
  0
ENDTAB
  0
ENDSEC
  0
SECTION
  2
BLOCKS
  0
BLOCK
  5
18
  8
0
  2
$Model_Space
 70
0
 10
0.0
 20
0.0
 30
0.0
  3
$Model_Space
  1

1001
EZDXF
1000
CREATED_BY_EZDXF
1000
1.4.3 @ 2026-04-14T04:50:21.114527+00:00
1000
WRITTEN_BY_EZDXF
1000
1.4.3 @ 2026-04-14T04:50:21.220163+00:00
  0
ENDBLK
  5
19
  8
0
  0
BLOCK
  5
1C
  8
0
  2
$Paper_Space
 70
0
 10
0.0
 20
0.0
 30
0.0
  3
$Paper_Space
  1

  0
ENDBLK
  5
1D
  8
0
  0
ENDSEC
  0
SECTION
  2
ENTITIES
  0
LINE
  5
32
  8
BODY
 10
493.4568149788605
 20
379.7060599959734
 30
0.0
 11
493.5574793638011
 21
379.6053956110328
 31
0.0
  0
LINE
  5
33
  8
BODY
 10
493.5574793638011
 20
379.6053956110328
 30
0.0
 11
493.5574793638011
 21
379.5047312260922
 31
0.0
  0
LINE
  5
34
  8
BODY
 10
493.5574793638011
 20
379.5047312260922
 30
0.0
 11
493.3561505939199
 21
379.20273807127035
 31
0.0
  0
LINE
  5
35
  8
BODY
 10
493.3561505939199
 20
379.20273807127035
 30
0.0
 11
493.3561505939199
 21
379.0014093013892
 31
0.0
  0
LINE
  5
36
  8
BODY
 10
493.3561505939199
 20
379.0014093013892
 30
0.0
 11
493.15482182403866
 21
378.69941614656733
 31
0.0
  0
LINE
  5
37
  8
BODY
 10
493.15482182403866
 20
378.69941614656733
 30
0.0
 11
493.15482182403866
 21
378.49808737668616
 31
0.0
  0
LINE
  5
38
  8
BODY
 10
493.15482182403866
 20
378.49808737668616
 30
0.0
 11
493.05415743909805
 21
378.39742299174554
 31
0.0
  0
LINE
  5
39
  8
BODY
 10
493.05415743909805
 20
378.39742299174554
 30
0.0
 11
493.05415743909805
 21
378.29675860680493
 31
0.0
  0
LINE
  5
3A
  8
BODY
 10
493.05415743909805
 20
378.29675860680493
 30
0.0
 11
492.9534930541575
 21
378.1960942218643
 31
0.0
  0
LINE
  5
3B
  8
BODY
 10
492.9534930541575
 20
378.1960942218643
 30
0.0
 11
492.9534930541575
 21
377.9947654519831
 31
0.0
  0
LINE
  5
3C
  8
BODY
 10
492.9534930541575
 20
377.9947654519831
 30
0.0
 11
492.75216428427626
 21
377.69277229716124
 31
0.0
  0
LINE
  5
3D
  8
BODY
 10
492.75216428427626
 20
377.69277229716124
 30
0.0
 11
492.75216428427626
 21
377.49144352728
 31
0.0
  0
LINE
  5
3E
  8
BODY
 10
492.75216428427626
 20
377.49144352728
 30
0.0
 11
492.65149989933565
 21
377.39077914233945
 31
0.0
  0
LINE
  5
3F
  8
BODY
 10
492.65149989933565
 20
377.39077914233945
 30
0.0
 11
492.65149989933565
 21
377.1894503724582
 31
0.0
  0
LINE
  5
40
  8
BODY
 10
492.65149989933565
 20
377.1894503724582
 30
0.0
 11
492.4501711294544
 21
376.8874572176364
 31
0.0
  0
LINE
  5
41
  8
BODY
 10
492.4501711294544
 20
376.8874572176364
 30
0.0
 11
492.4501711294544
 21
376.6861284477552
 31
0.0
  0
LINE
  5
42
  8
BODY
 10
492.4501711294544
 20
376.6861284477552
 30
0.0
 11
492.2488423595732
 21
376.38413529293337
 31
0.0
  0
LINE
  5
43
  8
BODY
 10
492.2488423595732
 20
376.38413529293337
 30
0.0
 11
492.2488423595732
 21
376.18280652305214
 31
0.0
  0
LINE
  5
44
  8
BODY
 10
492.2488423595732
 20
376.18280652305214
 30
0.0
 11
492.1481779746326
 21
376.0821421381115
 31
0.0
  0
LINE
  5
45
  8
BODY
 10
492.1481779746326
 20
376.0821421381115
 30
0.0
 11
492.1481779746326
 21
375.9814777531709
 31
0.0
  0
LINE
  5
46
  8
BODY
 10
492.1481779746326
 20
375.9814777531709
 30
0.0
 11
492.047513589692
 21
375.8808133682303
 31
0.0
  0
LINE
  5
47
  8
BODY
 10
492.047513589692
 20
375.8808133682303
 30
0.0
 11
492.047513589692
 21
375.67948459834906
 31
0.0
  0
LINE
  5
48
  8
BODY
 10
492.047513589692
 20
375.67948459834906
 30
0.0
 11
491.8461848198108
 21
375.3774914435273
 31
0.0
  0
LINE
  5
49
  8
BODY
 10
491.8461848198108
 20
375.3774914435273
 30
0.0
 11
491.8461848198108
 21
375.17616267364605
 31
0.0
  0
LINE
  5
4A
  8
BODY
 10
491.8461848198108
 20
375.17616267364605
 30
0.0
 11
491.7455204348702
 21
375.07549828870543
 31
0.0
  0
LINE
  5
4B
  8
BODY
 10
491.7455204348702
 20
375.07549828870543
 30
0.0
 11
491.7455204348702
 21
374.87416951882426
 31
0.0
  0
LINE
  5
4C
  8
BODY
 10
491.7455204348702
 20
374.87416951882426
 30
0.0
 11
491.54419166498894
 21
374.5721763640024
 31
0.0
  0
LINE
  5
4D
  8
BODY
 10
491.54419166498894
 20
374.5721763640024
 30
0.0
 11
491.54419166498894
 21
374.3708475941212
 31
0.0
  0
LINE
  5
4E
  8
BODY
 10
491.54419166498894
 20
374.3708475941212
 30
0.0
 11
491.3428628951077
 21
374.06885443929934
 31
0.0
  0
LINE
  5
4F
  8
BODY
 10
491.3428628951077
 20
374.06885443929934
 30
0.0
 11
491.3428628951077
 21
373.86752566941817
 31
0.0
  0
LINE
  5
50
  8
BODY
 10
491.3428628951077
 20
373.86752566941817
 30
0.0
 11
491.2421985101671
 21
373.76686128447756
 31
0.0
  0
LINE
  5
51
  8
BODY
 10
491.2421985101671
 20
373.76686128447756
 30
0.0
 11
491.2421985101671
 21
373.66619689953694
 31
0.0
  0
LINE
  5
52
  8
BODY
 10
491.2421985101671
 20
373.66619689953694
 30
0.0
 11
491.14153412522654
 21
373.5655325145963
 31
0.0
  0
LINE
  5
53
  8
BODY
 10
491.14153412522654
 20
373.5655325145963
 30
0.0
 11
491.14153412522654
 21
373.3642037447151
 31
0.0
  0
LINE
  5
54
  8
BODY
 10
491.14153412522654
 20
373.3642037447151
 30
0.0
 11
490.9402053553453
 21
373.0622105898933
 31
0.0
  0
LINE
  5
55
  8
BODY
 10
490.9402053553453
 20
373.0622105898933
 30
0.0
 11
490.9402053553453
 21
372.8608818200121
 31
0.0
  0
LINE
  5
56
  8
BODY
 10
490.9402053553453
 20
372.8608818200121
 30
0.0
 11
490.8395409704047
 21
372.76021743507147
 31
0.0
  0
LINE
  5
57
  8
BODY
 10
490.8395409704047
 20
372.76021743507147
 30
0.0
 11
490.8395409704047
 21
372.55888866519024
 31
0.0
  0
LINE
  5
58
  8
BODY
 10
490.8395409704047
 20
372.55888866519024
 30
0.0
 11
490.63821220052347
 21
372.2568955103684
 31
0.0
  0
LINE
  5
59
  8
BODY
 10
490.63821220052347
 20
372.2568955103684
 30
0.0
 11
490.63821220052347
 21
372.0555667404872
 31
0.0
  0
LINE
  5
5A
  8
BODY
 10
490.63821220052347
 20
372.0555667404872
 30
0.0
 11
490.43688343064224
 21
371.7535735856654
 31
0.0
  0
LINE
  5
5B
  8
BODY
 10
490.43688343064224
 20
371.7535735856654
 30
0.0
 11
490.43688343064224
 21
371.5522448157842
 31
0.0
  0
LINE
  5
5C
  8
BODY
 10
490.43688343064224
 20
371.5522448157842
 30
0.0
 11
490.3362190457017
 21
371.4515804308436
 31
0.0
  0
LINE
  5
5D
  8
BODY
 10
490.3362190457017
 20
371.4515804308436
 30
0.0
 11
490.3362190457017
 21
371.350916045903
 31
0.0
  0
LINE
  5
5E
  8
BODY
 10
490.3362190457017
 20
371.350916045903
 30
0.0
 11
490.23555466076107
 21
371.25025166096236
 31
0.0
  0
LINE
  5
5F
  8
BODY
 10
490.23555466076107
 20
371.25025166096236
 30
0.0
 11
490.23555466076107
 21
371.04892289108113
 31
0.0
  0
LINE
  5
60
  8
BODY
 10
490.23555466076107
 20
371.04892289108113
 30
0.0
 11
490.03422589087984
 21
370.7469297362593
 31
0.0
  0
LINE
  5
61
  8
BODY
 10
490.03422589087984
 20
370.7469297362593
 30
0.0
 11
490.03422589087984
 21
370.54560096637806
 31
0.0
  0
LINE
  5
62
  8
BODY
 10
490.03422589087984
 20
370.54560096637806
 30
0.0
 11
489.9335615059392
 21
370.44493658143745
 31
0.0
  0
LINE
  5
63
  8
BODY
 10
489.9335615059392
 20
370.44493658143745
 30
0.0
 11
489.9335615059392
 21
370.2436078115563
 31
0.0
  0
LINE
  5
64
  8
BODY
 10
489.9335615059392
 20
370.2436078115563
 30
0.0
 11
489.732232736058
 21
369.94161465673443
 31
0.0
  0
LINE
  5
65
  8
BODY
 10
489.732232736058
 20
369.94161465673443
 30
0.0
 11
489.732232736058
 21
369.74028588685326
 31
0.0
  0
LINE
  5
66
  8
BODY
 10
489.732232736058
 20
369.74028588685326
 30
0.0
 11
489.53090396617677
 21
369.4382927320314
 31
0.0
  0
LINE
  5
67
  8
BODY
 10
489.53090396617677
 20
369.4382927320314
 30
0.0
 11
489.53090396617677
 21
369.2369639621502
 31
0.0
  0
LINE
  5
68
  8
BODY
 10
489.53090396617677
 20
369.2369639621502
 30
0.0
 11
489.3295751962956
 21
368.93497080732834
 31
0.0
  0
LINE
  5
69
  8
BODY
 10
489.3295751962956
 20
368.93497080732834
 30
0.0
 11
489.3295751962956
 21
368.7336420374471
 31
0.0
  0
LINE
  5
6A
  8
BODY
 10
489.3295751962956
 20
368.7336420374471
 30
0.0
 11
489.228910811355
 21
368.6329776525065
 31
0.0
  0
LINE
  5
6B
  8
BODY
 10
489.228910811355
 20
368.6329776525065
 30
0.0
 11
489.228910811355
 21
368.4316488826253
 31
0.0
  0
LINE
  5
6C
  8
BODY
 10
489.228910811355
 20
368.4316488826253
 30
0.0
 11
489.12824642641436
 21
368.3309844976847
 31
0.0
  0
LINE
  5
6D
  8
BODY
 10
489.12824642641436
 20
368.3309844976847
 30
0.0
 11
489.12824642641436
 21
368.2303201127441
 31
0.0
  0
LINE
  5
6E
  8
BODY
 10
489.12824642641436
 20
368.2303201127441
 30
0.0
 11
488.92691765653313
 21
368.0289913428629
 31
0.0
  0
LINE
  5
6F
  8
BODY
 10
488.92691765653313
 20
368.0289913428629
 30
0.0
 11
488.4235957318301
 21
368.3309844976847
 31
0.0
  0
LINE
  5
70
  8
BODY
 10
488.4235957318301
 20
368.3309844976847
 30
0.0
 11
488.3229313468895
 21
368.2303201127441
 31
0.0
  0
LINE
  5
71
  8
BODY
 10
488.3229313468895
 20
368.2303201127441
 30
0.0
 11
488.1216025770083
 21
368.4316488826253
 31
0.0
  0
LINE
  5
72
  8
BODY
 10
488.1216025770083
 20
368.4316488826253
 30
0.0
 11
487.92027380712705
 21
368.4316488826253
 31
0.0
  0
LINE
  5
73
  8
BODY
 10
487.92027380712705
 20
368.4316488826253
 30
0.0
 11
487.81960942218643
 21
368.53231326756594
 31
0.0
  0
LINE
  5
74
  8
BODY
 10
487.81960942218643
 20
368.53231326756594
 30
0.0
 11
487.7189450372459
 21
368.53231326756594
 31
0.0
  0
LINE
  5
75
  8
BODY
 10
487.7189450372459
 20
368.53231326756594
 30
0.0
 11
487.2156231125428
 21
368.8343064223877
 31
0.0
  0
LINE
  5
76
  8
BODY
 10
487.2156231125428
 20
368.8343064223877
 30
0.0
 11
486.91362995772096
 21
368.8343064223877
 31
0.0
  0
LINE
  5
77
  8
BODY
 10
486.91362995772096
 20
368.8343064223877
 30
0.0
 11
486.8129655727804
 21
368.93497080732834
 31
0.0
  0
LINE
  5
78
  8
BODY
 10
486.8129655727804
 20
368.93497080732834
 30
0.0
 11
486.7123011878398
 21
368.93497080732834
 31
0.0
  0
LINE
  5
79
  8
BODY
 10
486.7123011878398
 20
368.93497080732834
 30
0.0
 11
486.51097241795856
 21
369.13629957720957
 31
0.0
  0
LINE
  5
7A
  8
BODY
 10
486.51097241795856
 20
369.13629957720957
 30
0.0
 11
486.3096436480773
 21
369.13629957720957
 31
0.0
  0
LINE
  5
7B
  8
BODY
 10
486.3096436480773
 20
369.13629957720957
 30
0.0
 11
485.8063217233743
 21
369.4382927320314
 31
0.0
  0
LINE
  5
7C
  8
BODY
 10
485.8063217233743
 20
369.4382927320314
 30
0.0
 11
485.7056573384337
 21
369.3376283470908
 31
0.0
  0
LINE
  5
7D
  8
BODY
 10
485.7056573384337
 20
369.3376283470908
 30
0.0
 11
485.50432856855247
 21
369.538957116972
 31
0.0
  0
LINE
  5
7E
  8
BODY
 10
485.50432856855247
 20
369.538957116972
 30
0.0
 11
485.30299979867124
 21
369.538957116972
 31
0.0
  0
LINE
  5
7F
  8
BODY
 10
485.30299979867124
 20
369.538957116972
 30
0.0
 11
485.2023354137306
 21
369.63962150191264
 31
0.0
  0
LINE
  5
80
  8
BODY
 10
485.2023354137306
 20
369.63962150191264
 30
0.0
 11
484.90034225890884
 21
369.74028588685326
 31
0.0
  0
LINE
  5
81
  8
BODY
 10
484.90034225890884
 20
369.74028588685326
 30
0.0
 11
484.6990134890276
 21
369.94161465673443
 31
0.0
  0
LINE
  5
82
  8
BODY
 10
484.6990134890276
 20
369.94161465673443
 30
0.0
 11
484.7996778739682
 21
370.04227904167504
 31
0.0
  0
LINE
  5
83
  8
BODY
 10
484.7996778739682
 20
370.04227904167504
 30
0.0
 11
484.7996778739682
 21
370.2436078115563
 31
0.0
  0
LINE
  5
84
  8
BODY
 10
484.7996778739682
 20
370.2436078115563
 30
0.0
 11
484.90034225890884
 21
370.34427219649683
 31
0.0
  0
LINE
  5
85
  8
BODY
 10
484.90034225890884
 20
370.34427219649683
 30
0.0
 11
484.90034225890884
 21
370.44493658143745
 31
0.0
  0
LINE
  5
86
  8
BODY
 10
484.90034225890884
 20
370.44493658143745
 30
0.0
 11
485.00100664384945
 21
370.54560096637806
 31
0.0
  0
LINE
  5
87
  8
BODY
 10
485.00100664384945
 20
370.54560096637806
 30
0.0
 11
485.00100664384945
 21
370.7469297362593
 31
0.0
  0
LINE
  5
88
  8
BODY
 10
485.00100664384945
 20
370.7469297362593
 30
0.0
 11
485.2023354137306
 21
371.04892289108113
 31
0.0
  0
LINE
  5
89
  8
BODY
 10
485.2023354137306
 20
371.04892289108113
 30
0.0
 11
485.2023354137306
 21
371.25025166096236
 31
0.0
  0
LINE
  5
8A
  8
BODY
 10
485.2023354137306
 20
371.25025166096236
 30
0.0
 11
485.30299979867124
 21
371.350916045903
 31
0.0
  0
LINE
  5
8B
  8
BODY
 10
485.30299979867124
 20
371.350916045903
 30
0.0
 11
485.30299979867124
 21
371.5522448157842
 31
0.0
  0
LINE
  5
8C
  8
BODY
 10
485.30299979867124
 20
371.5522448157842
 30
0.0
 11
485.50432856855247
 21
371.854237970606
 31
0.0
  0
LINE
  5
8D
  8
BODY
 10
485.50432856855247
 20
371.854237970606
 30
0.0
 11
485.50432856855247
 21
372.0555667404872
 31
0.0
  0
LINE
  5
8E
  8
BODY
 10
485.50432856855247
 20
372.0555667404872
 30
0.0
 11
485.7056573384337
 21
372.357559895309
 31
0.0
  0
LINE
  5
8F
  8
BODY
 10
485.7056573384337
 20
372.357559895309
 30
0.0
 11
485.7056573384337
 21
372.55888866519024
 31
0.0
  0
LINE
  5
90
  8
BODY
 10
485.7056573384337
 20
372.55888866519024
 30
0.0
 11
485.8063217233743
 21
372.65955305013085
 31
0.0
  0
LINE
  5
91
  8
BODY
 10
485.8063217233743
 20
372.65955305013085
 30
0.0
 11
485.8063217233743
 21
372.76021743507147
 31
0.0
  0
LINE
  5
92
  8
BODY
 10
485.8063217233743
 20
372.76021743507147
 30
0.0
 11
485.9069861083149
 21
372.8608818200121
 31
0.0
  0
LINE
  5
93
  8
BODY
 10
485.9069861083149
 20
372.8608818200121
 30
0.0
 11
485.9069861083149
 21
373.0622105898933
 31
0.0
  0
LINE
  5
94
  8
BODY
 10
485.9069861083149
 20
373.0622105898933
 30
0.0
 11
486.1083148781961
 21
373.3642037447151
 31
0.0
  0
LINE
  5
95
  8
BODY
 10
486.1083148781961
 20
373.3642037447151
 30
0.0
 11
486.1083148781961
 21
373.5655325145963
 31
0.0
  0
LINE
  5
96
  8
BODY
 10
486.1083148781961
 20
373.5655325145963
 30
0.0
 11
486.2089792631367
 21
373.66619689953694
 31
0.0
  0
LINE
  5
97
  8
BODY
 10
486.2089792631367
 20
373.66619689953694
 30
0.0
 11
486.2089792631367
 21
373.86752566941817
 31
0.0
  0
LINE
  5
98
  8
BODY
 10
486.2089792631367
 20
373.86752566941817
 30
0.0
 11
486.41030803301794
 21
374.16951882423996
 31
0.0
  0
LINE
  5
99
  8
BODY
 10
486.41030803301794
 20
374.16951882423996
 30
0.0
 11
486.41030803301794
 21
374.3708475941212
 31
0.0
  0
LINE
  5
9A
  8
BODY
 10
486.41030803301794
 20
374.3708475941212
 30
0.0
 11
486.51097241795856
 21
374.4715119790618
 31
0.0
  0
LINE
  5
9B
  8
BODY
 10
486.51097241795856
 20
374.4715119790618
 30
0.0
 11
486.51097241795856
 21
374.5721763640024
 31
0.0
  0
LINE
  5
9C
  8
BODY
 10
486.51097241795856
 20
374.5721763640024
 30
0.0
 11
486.61163680289917
 21
374.67284074894303
 31
0.0
  0
LINE
  5
9D
  8
BODY
 10
486.61163680289917
 20
374.67284074894303
 30
0.0
 11
486.61163680289917
 21
374.87416951882426
 31
0.0
  0
LINE
  5
9E
  8
BODY
 10
486.61163680289917
 20
374.87416951882426
 30
0.0
 11
486.8129655727804
 21
375.17616267364605
 31
0.0
  0
LINE
  5
9F
  8
BODY
 10
486.8129655727804
 20
375.17616267364605
 30
0.0
 11
486.8129655727804
 21
375.3774914435273
 31
0.0
  0
LINE
  5
A0
  8
BODY
 10
486.8129655727804
 20
375.3774914435273
 30
0.0
 11
486.91362995772096
 21
375.4781558284679
 31
0.0
  0
LINE
  5
A1
  8
BODY
 10
486.91362995772096
 20
375.4781558284679
 30
0.0
 11
486.91362995772096
 21
375.67948459834906
 31
0.0
  0
LINE
  5
A2
  8
BODY
 10
486.91362995772096
 20
375.67948459834906
 30
0.0
 11
487.1149587276022
 21
375.9814777531709
 31
0.0
  0
LINE
  5
A3
  8
BODY
 10
487.1149587276022
 20
375.9814777531709
 30
0.0
 11
487.1149587276022
 21
376.18280652305214
 31
0.0
  0
LINE
  5
A4
  8
BODY
 10
487.1149587276022
 20
376.18280652305214
 30
0.0
 11
487.3162874974834
 21
376.484799677874
 31
0.0
  0
LINE
  5
A5
  8
BODY
 10
487.3162874974834
 20
376.484799677874
 30
0.0
 11
487.3162874974834
 21
376.6861284477552
 31
0.0
  0
LINE
  5
A6
  8
BODY
 10
487.3162874974834
 20
376.6861284477552
 30
0.0
 11
487.41695188242403
 21
376.78679283269577
 31
0.0
  0
LINE
  5
A7
  8
BODY
 10
487.41695188242403
 20
376.78679283269577
 30
0.0
 11
487.41695188242403
 21
376.8874572176364
 31
0.0
  0
LINE
  5
A8
  8
BODY
 10
487.41695188242403
 20
376.8874572176364
 30
0.0
 11
487.51761626736464
 21
376.988121602577
 31
0.0
  0
LINE
  5
A9
  8
BODY
 10
487.51761626736464
 20
376.988121602577
 30
0.0
 11
487.51761626736464
 21
377.1894503724582
 31
0.0
  0
LINE
  5
AA
  8
BODY
 10
487.51761626736464
 20
377.1894503724582
 30
0.0
 11
487.7189450372459
 21
377.49144352728
 31
0.0
  0
LINE
  5
AB
  8
BODY
 10
487.7189450372459
 20
377.49144352728
 30
0.0
 11
487.7189450372459
 21
377.69277229716124
 31
0.0
  0
LINE
  5
AC
  8
BODY
 10
487.7189450372459
 20
377.69277229716124
 30
0.0
 11
487.81960942218643
 21
377.79343668210186
 31
0.0
  0
LINE
  5
AD
  8
BODY
 10
487.81960942218643
 20
377.79343668210186
 30
0.0
 11
487.81960942218643
 21
377.9947654519831
 31
0.0
  0
LINE
  5
AE
  8
BODY
 10
487.81960942218643
 20
377.9947654519831
 30
0.0
 11
488.02093819206766
 21
378.29675860680493
 31
0.0
  0
LINE
  5
AF
  8
BODY
 10
488.02093819206766
 20
378.29675860680493
 30
0.0
 11
488.02093819206766
 21
378.49808737668616
 31
0.0
  0
LINE
  5
B0
  8
BODY
 10
488.02093819206766
 20
378.49808737668616
 30
0.0
 11
488.2222669619489
 21
378.80008053150794
 31
0.0
  0
LINE
  5
B1
  8
BODY
 10
488.2222669619489
 20
378.80008053150794
 30
0.0
 11
488.2222669619489
 21
379.0014093013892
 31
0.0
  0
LINE
  5
B2
  8
BODY
 10
488.2222669619489
 20
379.0014093013892
 30
0.0
 11
488.4235957318301
 21
379.30340245621096
 31
0.0
  0
LINE
  5
B3
  8
BODY
 10
488.4235957318301
 20
379.30340245621096
 30
0.0
 11
488.4235957318301
 21
379.5047312260922
 31
0.0
  0
LINE
  5
B4
  8
BODY
 10
488.4235957318301
 20
379.5047312260922
 30
0.0
 11
488.6249245017113
 21
379.7060599959734
 31
0.0
  0
LINE
  5
B5
  8
BODY
 10
488.6249245017113
 20
379.7060599959734
 30
0.0
 11
493.4568149788605
 21
379.7060599959734
 31
0.0
  0
LINE
  5
B6
  8
BODY
 10
513.1870344272197
 20
384.8399436279444
 30
0.0
 11
514.5963358163882
 21
384.94060801288504
 31
0.0
  0
LINE
  5
B7
  8
BODY
 10
514.5963358163882
 20
384.94060801288504
 30
0.0
 11
514.6970002013288
 21
384.03462854841956
 31
0.0
  0
LINE
  5
B8
  8
BODY
 10
514.6970002013288
 20
384.03462854841956
 30
0.0
 11
514.7976645862694
 21
384.94060801288504
 31
0.0
  0
LINE
  5
B9
  8
BODY
 10
514.7976645862694
 20
384.94060801288504
 30
0.0
 11
555.8687336420375
 21
384.94060801288504
 31
0.0
  0
LINE
  5
BA
  8
BODY
 10
555.8687336420375
 20
384.94060801288504
 30
0.0
 11
555.9693980269781
 21
379.90738876585465
 31
0.0
  0
LINE
  5
BB
  8
BODY
 10
555.9693980269781
 20
379.90738876585465
 30
0.0
 11
555.8687336420375
 21
379.80672438091403
 31
0.0
  0
LINE
  5
BC
  8
BODY
 10
555.8687336420375
 20
379.80672438091403
 30
0.0
 11
513.2876988121603
 21
379.80672438091403
 31
0.0
  0
LINE
  5
BD
  8
BODY
 10
513.2876988121603
 20
379.80672438091403
 30
0.0
 11
513.1870344272197
 21
380.00805315079526
 31
0.0
  0
LINE
  5
BE
  8
BODY
 10
513.1870344272197
 20
380.00805315079526
 30
0.0
 11
513.4890275820414
 21
381.7193476947856
 31
0.0
  0
LINE
  5
BF
  8
BODY
 10
513.4890275820414
 20
381.7193476947856
 30
0.0
 11
513.388363197101
 21
381.618683309845
 31
0.0
  0
LINE
  5
C0
  8
BODY
 10
513.388363197101
 20
381.618683309845
 30
0.0
 11
513.2876988121603
 21
381.7193476947856
 31
0.0
  0
LINE
  5
C1
  8
BODY
 10
513.2876988121603
 20
381.7193476947856
 30
0.0
 11
513.2876988121603
 21
382.62532715925107
 31
0.0
  0
LINE
  5
C2
  8
BODY
 10
513.2876988121603
 20
382.62532715925107
 30
0.0
 11
513.388363197101
 21
382.72599154419163
 31
0.0
  0
LINE
  5
C3
  8
BODY
 10
513.388363197101
 20
382.72599154419163
 30
0.0
 11
513.5896919669821
 21
382.62532715925107
 31
0.0
  0
LINE
  5
C4
  8
BODY
 10
513.5896919669821
 20
382.62532715925107
 30
0.0
 11
513.5896919669821
 21
381.9206764646668
 31
0.0
  0
LINE
  5
C5
  8
BODY
 10
513.5896919669821
 20
381.9206764646668
 30
0.0
 11
513.6903563519227
 21
382.72599154419163
 31
0.0
  0
LINE
  5
C6
  8
BODY
 10
513.6903563519227
 20
382.72599154419163
 30
0.0
 11
513.1870344272197
 21
382.82665592913224
 31
0.0
  0
LINE
  5
C7
  8
BODY
 10
513.1870344272197
 20
382.82665592913224
 30
0.0
 11
513.1870344272197
 21
384.8399436279444
 31
0.0
  0
LINE
  5
C8
  8
BODY
 10
534.0245621099256
 20
388.06120394604386
 30
0.0
 11
534.1252264948662
 21
388.1618683309845
 31
0.0
  0
LINE
  5
C9
  8
BODY
 10
534.1252264948662
 20
388.1618683309845
 30
0.0
 11
555.8687336420375
 21
388.1618683309845
 31
0.0
  0
LINE
  5
CA
  8
BODY
 10
555.8687336420375
 20
388.1618683309845
 30
0.0
 11
555.9693980269781
 21
388.06120394604386
 31
0.0
  0
LINE
  5
CB
  8
BODY
 10
555.9693980269781
 20
388.06120394604386
 30
0.0
 11
555.8687336420375
 21
387.96053956110325
 31
0.0
  0
LINE
  5
CC
  8
BODY
 10
555.8687336420375
 20
387.96053956110325
 30
0.0
 11
555.466076102275
 21
387.96053956110325
 31
0.0
  0
LINE
  5
CD
  8
BODY
 10
555.466076102275
 20
387.96053956110325
 30
0.0
 11
555.466076102275
 21
387.7592107912221
 31
0.0
  0
LINE
  5
CE
  8
BODY
 10
555.466076102275
 20
387.7592107912221
 30
0.0
 11
555.5667404872156
 21
387.65854640628146
 31
0.0
  0
LINE
  5
CF
  8
BODY
 10
555.5667404872156
 20
387.65854640628146
 30
0.0
 11
555.5667404872156
 21
387.15522448157844
 31
0.0
  0
LINE
  5
D0
  8
BODY
 10
555.5667404872156
 20
387.15522448157844
 30
0.0
 11
555.6674048721562
 21
387.05456009663783
 31
0.0
  0
LINE
  5
D1
  8
BODY
 10
555.6674048721562
 20
387.05456009663783
 30
0.0
 11
555.7680692570968
 21
385.8465874773505
 31
0.0
  0
LINE
  5
D2
  8
BODY
 10
555.7680692570968
 20
385.8465874773505
 30
0.0
 11
555.8687336420375
 21
385.7459230924099
 31
0.0
  0
LINE
  5
D3
  8
BODY
 10
555.8687336420375
 20
385.7459230924099
 30
0.0
 11
555.8687336420375
 21
385.2426011677069
 31
0.0
  0
LINE
  5
D4
  8
BODY
 10
555.8687336420375
 20
385.2426011677069
 30
0.0
 11
555.9693980269781
 21
385.04127239782565
 31
0.0
  0
LINE
  5
D5
  8
BODY
 10
555.9693980269781
 20
385.04127239782565
 30
0.0
 11
555.8687336420375
 21
384.94060801288504
 31
0.0
  0
LINE
  5
D6
  8
BODY
 10
555.8687336420375
 20
384.94060801288504
 30
0.0
 11
534.1252264948662
 21
384.94060801288504
 31
0.0
  0
LINE
  5
D7
  8
BODY
 10
534.1252264948662
 20
384.94060801288504
 30
0.0
 11
534.0245621099256
 21
385.04127239782565
 31
0.0
  0
LINE
  5
D8
  8
BODY
 10
534.0245621099256
 20
385.04127239782565
 30
0.0
 11
534.0245621099256
 21
388.06120394604386
 31
0.0
  0
LINE
  5
D9
  8
BODY
 10
513.1870344272197
 20
387.96053956110325
 30
0.0
 11
513.2876988121603
 21
388.06120394604386
 31
0.0
  0
LINE
  5
DA
  8
BODY
 10
513.2876988121603
 20
388.06120394604386
 30
0.0
 11
513.7910207368633
 21
388.06120394604386
 31
0.0
  0
LINE
  5
DB
  8
BODY
 10
513.7910207368633
 20
388.06120394604386
 30
0.0
 11
513.8916851218039
 21
387.96053956110325
 31
0.0
  0
LINE
  5
DC
  8
BODY
 10
513.8916851218039
 20
387.96053956110325
 30
0.0
 11
514.4956714314476
 21
387.96053956110325
 31
0.0
  0
LINE
  5
DD
  8
BODY
 10
514.4956714314476
 20
387.96053956110325
 30
0.0
 11
514.5963358163882
 21
387.8598751761627
 31
0.0
  0
LINE
  5
DE
  8
BODY
 10
514.5963358163882
 20
387.8598751761627
 30
0.0
 11
515.0996577410913
 21
387.8598751761627
 31
0.0
  0
LINE
  5
DF
  8
BODY
 10
515.0996577410913
 20
387.8598751761627
 30
0.0
 11
515.2003221260318
 21
387.7592107912221
 31
0.0
  0
LINE
  5
E0
  8
BODY
 10
515.2003221260318
 20
387.7592107912221
 30
0.0
 11
515.7036440507349
 21
387.7592107912221
 31
0.0
  0
LINE
  5
E1
  8
BODY
 10
515.7036440507349
 20
387.7592107912221
 30
0.0
 11
515.8043084356755
 21
387.65854640628146
 31
0.0
  0
LINE
  5
E2
  8
BODY
 10
515.8043084356755
 20
387.65854640628146
 30
0.0
 11
515.9049728206161
 21
387.65854640628146
 31
0.0
  0
LINE
  5
E3
  8
BODY
 10
515.9049728206161
 20
387.65854640628146
 30
0.0
 11
515.9049728206161
 21
388.06120394604386
 31
0.0
  0
LINE
  5
E4
  8
BODY
 10
515.9049728206161
 20
388.06120394604386
 30
0.0
 11
516.0056372055567
 21
388.1618683309845
 31
0.0
  0
LINE
  5
E5
  8
BODY
 10
516.0056372055567
 20
388.1618683309845
 30
0.0
 11
516.1063015904973
 21
388.1618683309845
 31
0.0
  0
LINE
  5
E6
  8
BODY
 10
516.1063015904973
 20
388.1618683309845
 30
0.0
 11
516.2069659754379
 21
388.06120394604386
 31
0.0
  0
LINE
  5
E7
  8
BODY
 10
516.2069659754379
 20
388.06120394604386
 30
0.0
 11
516.2069659754379
 21
387.3565532514596
 31
0.0
  0
LINE
  5
E8
  8
BODY
 10
516.2069659754379
 20
387.3565532514596
 30
0.0
 11
516.2069659754379
 21
388.06120394604386
 31
0.0
  0
LINE
  5
E9
  8
BODY
 10
516.2069659754379
 20
388.06120394604386
 30
0.0
 11
516.3076303603785
 21
388.1618683309845
 31
0.0
  0
LINE
  5
EA
  8
BODY
 10
516.3076303603785
 20
388.1618683309845
 30
0.0
 11
527.984699013489
 21
388.1618683309845
 31
0.0
  0
LINE
  5
EB
  8
BODY
 10
527.984699013489
 20
388.1618683309845
 30
0.0
 11
528.0853633984296
 21
388.06120394604386
 31
0.0
  0
LINE
  5
EC
  8
BODY
 10
528.0853633984296
 20
388.06120394604386
 30
0.0
 11
528.0853633984296
 21
385.04127239782565
 31
0.0
  0
LINE
  5
ED
  8
BODY
 10
528.0853633984296
 20
385.04127239782565
 30
0.0
 11
527.984699013489
 21
384.94060801288504
 31
0.0
  0
LINE
  5
EE
  8
BODY
 10
527.984699013489
 20
384.94060801288504
 30
0.0
 11
516.3076303603785
 21
384.94060801288504
 31
0.0
  0
LINE
  5
EF
  8
BODY
 10
516.3076303603785
 20
384.94060801288504
 30
0.0
 11
516.2069659754379
 21
385.04127239782565
 31
0.0
  0
LINE
  5
F0
  8
BODY
 10
516.2069659754379
 20
385.04127239782565
 30
0.0
 11
516.2069659754379
 21
385.14193678276627
 31
0.0
  0
LINE
  5
F1
  8
BODY
 10
516.2069659754379
 20
385.14193678276627
 30
0.0
 11
516.2069659754379
 21
385.04127239782565
 31
0.0
  0
LINE
  5
F2
  8
BODY
 10
516.2069659754379
 20
385.04127239782565
 30
0.0
 11
516.1063015904973
 21
384.94060801288504
 31
0.0
  0
LINE
  5
F3
  8
BODY
 10
516.1063015904973
 20
384.94060801288504
 30
0.0
 11
514.7976645862694
 21
384.94060801288504
 31
0.0
  0
LINE
  5
F4
  8
BODY
 10
514.7976645862694
 20
384.94060801288504
 30
0.0
 11
514.6970002013288
 21
385.04127239782565
 31
0.0
  0
LINE
  5
F5
  8
BODY
 10
514.6970002013288
 20
385.04127239782565
 30
0.0
 11
514.5963358163882
 21
384.94060801288504
 31
0.0
  0
LINE
  5
F6
  8
BODY
 10
514.5963358163882
 20
384.94060801288504
 30
0.0
 11
513.2876988121603
 21
384.94060801288504
 31
0.0
  0
LINE
  5
F7
  8
BODY
 10
513.2876988121603
 20
384.94060801288504
 30
0.0
 11
513.1870344272197
 21
385.04127239782565
 31
0.0
  0
LINE
  5
F8
  8
BODY
 10
513.1870344272197
 20
385.04127239782565
 30
0.0
 11
513.1870344272197
 21
387.96053956110325
 31
0.0
  0
LINE
  5
F9
  8
BODY
 10
393.0944231930743
 20
407.1874370847594
 30
0.0
 11
393.1950875780149
 21
407.08677269981877
 31
0.0
  0
LINE
  5
FA
  8
BODY
 10
393.1950875780149
 20
407.08677269981877
 30
0.0
 11
393.1950875780149
 21
384.8399436279444
 31
0.0
  0
LINE
  5
FB
  8
BODY
 10
393.1950875780149
 20
384.8399436279444
 30
0.0
 11
393.0944231930743
 21
384.7392792430038
 31
0.0
  0
LINE
  5
FC
  8
BODY
 10
393.0944231930743
 20
384.7392792430038
 30
0.0
 11
393.0944231930743
 21
383.1286490839541
 31
0.0
  0
LINE
  5
FD
  8
BODY
 10
393.0944231930743
 20
383.1286490839541
 30
0.0
 11
392.9937588081337
 21
383.0279846990135
 31
0.0
  0
LINE
  5
FE
  8
BODY
 10
392.9937588081337
 20
383.0279846990135
 30
0.0
 11
393.0944231930743
 21
382.52466277431046
 31
0.0
  0
LINE
  5
FF
  8
BODY
 10
393.0944231930743
 20
382.52466277431046
 30
0.0
 11
392.8930944231931
 21
381.9206764646668
 31
0.0
  0
LINE
  5
100
  8
BODY
 10
392.8930944231931
 20
381.9206764646668
 30
0.0
 11
392.79243003825246
 21
380.41071069055766
 31
0.0
  0
LINE
  5
101
  8
BODY
 10
392.79243003825246
 20
380.41071069055766
 30
0.0
 11
391.9871149587276
 21
376.18280652305214
 31
0.0
  0
LINE
  5
102
  8
BODY
 10
391.9871149587276
 20
376.18280652305214
 30
0.0
 11
391.78578618884643
 21
375.7801489832897
 31
0.0
  0
LINE
  5
103
  8
BODY
 10
391.78578618884643
 20
375.7801489832897
 30
0.0
 11
391.5844574189652
 21
374.67284074894303
 31
0.0
  0
LINE
  5
104
  8
BODY
 10
391.5844574189652
 20
374.67284074894303
 30
0.0
 11
390.9804711093215
 21
372.9615462049527
 31
0.0
  0
LINE
  5
105
  8
BODY
 10
390.9804711093215
 20
372.9615462049527
 30
0.0
 11
390.9804711093215
 21
372.65955305013085
 31
0.0
  0
LINE
  5
106
  8
BODY
 10
390.9804711093215
 20
372.65955305013085
 30
0.0
 11
389.571169720153
 21
369.13629957720957
 31
0.0
  0
LINE
  5
107
  8
BODY
 10
389.571169720153
 20
369.13629957720957
 30
0.0
 11
389.4705053352124
 21
369.2369639621502
 31
0.0
  0
LINE
  5
108
  8
BODY
 10
389.4705053352124
 20
369.2369639621502
 30
0.0
 11
389.4705053352124
 21
407.08677269981877
 31
0.0
  0
LINE
  5
109
  8
BODY
 10
389.4705053352124
 20
407.08677269981877
 30
0.0
 11
389.571169720153
 21
407.1874370847594
 31
0.0
  0
LINE
  5
10A
  8
BODY
 10
389.571169720153
 20
407.1874370847594
 30
0.0
 11
393.0944231930743
 21
407.1874370847594
 31
0.0
  0
LINE
  5
10B
  8
BODY
 10
379.50473122609225
 20
407.1874370847594
 30
0.0
 11
379.60539561103286
 21
407.08677269981877
 31
0.0
  0
LINE
  5
10C
  8
BODY
 10
379.60539561103286
 20
407.08677269981877
 30
0.0
 11
379.60539561103286
 21
397.42299174552045
 31
0.0
  0
LINE
  5
10D
  8
BODY
 10
379.60539561103286
 20
397.42299174552045
 30
0.0
 11
379.50473122609225
 21
397.32232736057983
 31
0.0
  0
LINE
  5
10E
  8
BODY
 10
379.50473122609225
 20
397.32232736057983
 30
0.0
 11
379.60539561103286
 21
397.2216629756392
 31
0.0
  0
LINE
  5
10F
  8
BODY
 10
379.60539561103286
 20
397.2216629756392
 30
0.0
 11
379.60539561103286
 21
396.1143547412925
 31
0.0
  0
LINE
  5
110
  8
BODY
 10
379.60539561103286
 20
396.1143547412925
 30
0.0
 11
379.50473122609225
 21
396.0136903563519
 31
0.0
  0
LINE
  5
111
  8
BODY
 10
379.50473122609225
 20
396.0136903563519
 30
0.0
 11
379.50473122609225
 21
393.0944231930743
 31
0.0
  0
LINE
  5
112
  8
BODY
 10
379.50473122609225
 20
393.0944231930743
 30
0.0
 11
379.40406684115163
 21
392.9937588081337
 31
0.0
  0
LINE
  5
113
  8
BODY
 10
379.40406684115163
 20
392.9937588081337
 30
0.0
 11
379.40406684115163
 21
391.0811354942621
 31
0.0
  0
LINE
  5
114
  8
BODY
 10
379.40406684115163
 20
391.0811354942621
 30
0.0
 11
379.303402456211
 21
390.9804711093215
 31
0.0
  0
LINE
  5
115
  8
BODY
 10
379.303402456211
 20
390.9804711093215
 30
0.0
 11
379.2027380712704
 21
388.56452587074693
 31
0.0
  0
LINE
  5
116
  8
BODY
 10
379.2027380712704
 20
388.56452587074693
 30
0.0
 11
379.1020736863298
 21
388.4638614858063
 31
0.0
  0
LINE
  5
117
  8
BODY
 10
379.1020736863298
 20
388.4638614858063
 30
0.0
 11
379.1020736863298
 21
387.65854640628146
 31
0.0
  0
LINE
  5
118
  8
BODY
 10
379.1020736863298
 20
387.65854640628146
 30
0.0
 11
379.0014093013892
 21
387.55788202134084
 31
0.0
  0
LINE
  5
119
  8
BODY
 10
379.0014093013892
 20
387.55788202134084
 30
0.0
 11
379.0014093013892
 21
386.752566941816
 31
0.0
  0
LINE
  5
11A
  8
BODY
 10
379.0014093013892
 20
386.752566941816
 30
0.0
 11
378.90074491644856
 21
386.65190255687537
 31
0.0
  0
LINE
  5
11B
  8
BODY
 10
378.90074491644856
 20
386.65190255687537
 30
0.0
 11
378.90074491644856
 21
385.9472518622911
 31
0.0
  0
LINE
  5
11C
  8
BODY
 10
378.90074491644856
 20
385.9472518622911
 30
0.0
 11
378.80008053150794
 21
385.8465874773505
 31
0.0
  0
LINE
  5
11D
  8
BODY
 10
378.80008053150794
 20
385.8465874773505
 30
0.0
 11
378.80008053150794
 21
385.2426011677069
 31
0.0
  0
LINE
  5
11E
  8
BODY
 10
378.80008053150794
 20
385.2426011677069
 30
0.0
 11
378.5987517616268
 21
384.5379504731226
 31
0.0
  0
LINE
  5
11F
  8
BODY
 10
378.5987517616268
 20
384.5379504731226
 30
0.0
 11
378.5987517616268
 21
383.93396416347895
 31
0.0
  0
LINE
  5
120
  8
BODY
 10
378.5987517616268
 20
383.93396416347895
 30
0.0
 11
378.49808737668616
 21
383.83329977853833
 31
0.0
  0
LINE
  5
121
  8
BODY
 10
378.49808737668616
 20
383.83329977853833
 30
0.0
 11
378.49808737668616
 21
383.3299778538353
 31
0.0
  0
LINE
  5
122
  8
BODY
 10
378.49808737668616
 20
383.3299778538353
 30
0.0
 11
378.39742299174554
 21
383.2293134688947
 31
0.0
  0
LINE
  5
123
  8
BODY
 10
378.39742299174554
 20
383.2293134688947
 30
0.0
 11
378.39742299174554
 21
382.72599154419163
 31
0.0
  0
LINE
  5
124
  8
BODY
 10
378.39742299174554
 20
382.72599154419163
 30
0.0
 11
378.29675860680493
 21
382.62532715925107
 31
0.0
  0
LINE
  5
125
  8
BODY
 10
378.29675860680493
 20
382.62532715925107
 30
0.0
 11
378.29675860680493
 21
382.122005234548
 31
0.0
  0
LINE
  5
126
  8
BODY
 10
378.29675860680493
 20
382.122005234548
 30
0.0
 11
378.1960942218643
 21
382.0213408496074
 31
0.0
  0
LINE
  5
127
  8
BODY
 10
378.1960942218643
 20
382.0213408496074
 30
0.0
 11
377.7934366821019
 21
379.6053956110328
 31
0.0
  0
LINE
  5
128
  8
BODY
 10
377.7934366821019
 20
379.6053956110328
 30
0.0
 11
377.49144352728007
 21
378.69941614656733
 31
0.0
  0
LINE
  5
129
  8
BODY
 10
377.49144352728007
 20
378.69941614656733
 30
0.0
 11
377.49144352728007
 21
378.29675860680493
 31
0.0
  0
LINE
  5
12A
  8
BODY
 10
377.49144352728007
 20
378.29675860680493
 30
0.0
 11
376.88745721763644
 21
375.8808133682303
 31
0.0
  0
LINE
  5
12B
  8
BODY
 10
376.88745721763644
 20
375.8808133682303
 30
0.0
 11
376.5854640628146
 21
375.17616267364605
 31
0.0
  0
LINE
  5
12C
  8
BODY
 10
376.5854640628146
 20
375.17616267364605
 30
0.0
 11
376.484799677874
 21
374.4715119790618
 31
0.0
  0
LINE
  5
12D
  8
BODY
 10
376.484799677874
 20
374.4715119790618
 30
0.0
 11
375.88081336823035
 21
372.55888866519024
 31
0.0
  0
LINE
  5
12E
  8
BODY
 10
375.88081336823035
 20
372.55888866519024
 30
0.0
 11
375.78014898328973
 21
372.65955305013085
 31
0.0
  0
LINE
  5
12F
  8
BODY
 10
375.78014898328973
 20
372.65955305013085
 30
0.0
 11
375.78014898328973
 21
407.08677269981877
 31
0.0
  0
LINE
  5
130
  8
BODY
 10
375.78014898328973
 20
407.08677269981877
 30
0.0
 11
375.88081336823035
 21
407.1874370847594
 31
0.0
  0
LINE
  5
131
  8
BODY
 10
375.88081336823035
 20
407.1874370847594
 30
0.0
 11
379.50473122609225
 21
407.1874370847594
 31
0.0
  0
LINE
  5
132
  8
BODY
 10
528.1860277833703
 20
407.9927521642843
 30
0.0
 11
533.923897724985
 21
407.9927521642843
 31
0.0
  0
LINE
  5
133
  8
BODY
 10
533.923897724985
 20
407.9927521642843
 30
0.0
 11
534.0245621099256
 21
407.8920877793437
 31
0.0
  0
LINE
  5
134
  8
BODY
 10
534.0245621099256
 20
407.8920877793437
 30
0.0
 11
534.0245621099256
 21
388.2625327159251
 31
0.0
  0
LINE
  5
135
  8
BODY
 10
534.0245621099256
 20
388.2625327159251
 30
0.0
 11
533.923897724985
 21
388.1618683309845
 31
0.0
  0
LINE
  5
136
  8
BODY
 10
533.923897724985
 20
388.1618683309845
 30
0.0
 11
528.1860277833703
 21
388.1618683309845
 31
0.0
  0
LINE
  5
137
  8
BODY
 10
528.1860277833703
 20
388.1618683309845
 30
0.0
 11
528.0853633984296
 21
388.2625327159251
 31
0.0
  0
LINE
  5
138
  8
BODY
 10
528.0853633984296
 20
388.2625327159251
 30
0.0
 11
528.0853633984296
 21
407.8920877793437
 31
0.0
  0
LINE
  5
139
  8
BODY
 10
528.0853633984296
 20
407.8920877793437
 30
0.0
 11
528.1860277833703
 21
407.9927521642843
 31
0.0
  0
LINE
  5
13A
  8
BODY
 10
528.0853633984296
 20
407.8920877793437
 30
0.0
 11
528.0853633984296
 21
388.2625327159251
 31
0.0
  0
LINE
  5
13B
  8
BODY
 10
528.0853633984296
 20
388.2625327159251
 30
0.0
 11
516.3076303603785
 21
388.1618683309845
 31
0.0
  0
LINE
  5
13C
  8
BODY
 10
516.3076303603785
 20
388.1618683309845
 30
0.0
 11
516.2069659754379
 21
388.56452587074693
 31
0.0
  0
LINE
  5
13D
  8
BODY
 10
516.2069659754379
 20
388.56452587074693
 30
0.0
 11
516.0056372055567
 21
388.1618683309845
 31
0.0
  0
LINE
  5
13E
  8
BODY
 10
516.0056372055567
 20
388.1618683309845
 30
0.0
 11
515.6029796657942
 21
388.56452587074693
 31
0.0
  0
LINE
  5
13F
  8
BODY
 10
515.6029796657942
 20
388.56452587074693
 30
0.0
 11
513.2876988121603
 21
388.1618683309845
 31
0.0
  0
LINE
  5
140
  8
BODY
 10
513.2876988121603
 20
388.1618683309845
 30
0.0
 11
513.1870344272197
 21
392.28910811354945
 31
0.0
  0
LINE
  5
141
  8
BODY
 10
513.1870344272197
 20
392.28910811354945
 30
0.0
 11
513.1870344272197
 21
382.82665592913224
 31
0.0
  0
LINE
  5
142
  8
BODY
 10
513.1870344272197
 20
382.82665592913224
 30
0.0
 11
512.6837125025166
 21
382.72599154419163
 31
0.0
  0
LINE
  5
143
  8
BODY
 10
512.6837125025166
 20
382.72599154419163
 30
0.0
 11
513.0863700422791
 21
379.80672438091403
 31
0.0
  0
LINE
  5
144
  8
BODY
 10
513.0863700422791
 20
379.80672438091403
 30
0.0
 11
434.1654922488424
 21
379.90738876585465
 31
0.0
  0
LINE
  5
145
  8
BODY
 10
434.1654922488424
 20
379.90738876585465
 30
0.0
 11
433.96416347896115
 21
384.94060801288504
 31
0.0
  0
LINE
  5
146
  8
BODY
 10
433.96416347896115
 20
384.94060801288504
 30
0.0
 11
511.57640426816994
 21
384.94060801288504
 31
0.0
  0
LINE
  5
147
  8
BODY
 10
511.57640426816994
 20
384.94060801288504
 30
0.0
 11
511.77773303805117
 21
384.03462854841956
 31
0.0
  0
LINE
  5
148
  8
BODY
 10
511.77773303805117
 20
384.03462854841956
 30
0.0
 11
511.8783974229918
 21
384.94060801288504
 31
0.0
  0
LINE
  5
149
  8
BODY
 10
511.8783974229918
 20
384.94060801288504
 30
0.0
 11
512.8850412723979
 21
384.94060801288504
 31
0.0
  0
LINE
  5
14A
  8
BODY
 10
512.8850412723979
 20
384.94060801288504
 30
0.0
 11
492.4501711294544
 21
385.04127239782565
 31
0.0
  0
LINE
  5
14B
  8
BODY
 10
492.4501711294544
 20
385.04127239782565
 30
0.0
 11
492.4501711294544
 21
407.8920877793437
 31
0.0
  0
LINE
  5
14C
  8
BODY
 10
492.4501711294544
 20
407.8920877793437
 30
0.0
 11
510.16710287900145
 21
407.9927521642843
 31
0.0
  0
LINE
  5
14D
  8
BODY
 10
510.16710287900145
 20
407.9927521642843
 30
0.0
 11
510.26776726394206
 21
407.59009462452184
 31
0.0
  0
LINE
  5
14E
  8
BODY
 10
510.26776726394206
 20
407.59009462452184
 30
0.0
 11
510.3684316488827
 21
407.9927521642843
 31
0.0
  0
LINE
  5
14F
  8
BODY
 10
510.3684316488827
 20
407.9927521642843
 30
0.0
 11
516.1063015904973
 21
407.9927521642843
 31
0.0
  0
LINE
  5
150
  8
BODY
 10
516.1063015904973
 20
407.9927521642843
 30
0.0
 11
516.2069659754379
 21
407.59009462452184
 31
0.0
  0
LINE
  5
151
  8
BODY
 10
516.2069659754379
 20
407.59009462452184
 30
0.0
 11
516.3076303603785
 21
407.9927521642843
 31
0.0
  0
LINE
  5
152
  8
BODY
 10
516.3076303603785
 20
407.9927521642843
 30
0.0
 11
528.0853633984296
 21
407.8920877793437
 31
0.0
  0
LINE
  5
153
  8
BODY
 10
375.78014898328973
 20
410.20736863297765
 30
0.0
 11
375.5788202134085
 21
407.1874370847594
 31
0.0
  0
LINE
  5
154
  8
BODY
 10
375.5788202134085
 20
407.1874370847594
 30
0.0
 11
373.0622105898933
 21
407.69075900946245
 31
0.0
  0
LINE
  5
155
  8
BODY
 10
373.0622105898933
 20
407.69075900946245
 30
0.0
 11
372.76021743507147
 21
407.1874370847594
 31
0.0
  0
LINE
  5
156
  8
BODY
 10
372.76021743507147
 20
407.1874370847594
 30
0.0
 11
369.8409502717939
 21
407.1874370847594
 31
0.0
  0
LINE
  5
157
  8
BODY
 10
369.8409502717939
 20
407.1874370847594
 30
0.0
 11
372.76021743507147
 21
407.1874370847594
 31
0.0
  0
LINE
  5
158
  8
BODY
 10
372.76021743507147
 20
407.1874370847594
 30
0.0
 11
372.8608818200121
 21
406.68411516005636
 31
0.0
  0
LINE
  5
159
  8
BODY
 10
372.8608818200121
 20
406.68411516005636
 30
0.0
 11
375.78014898328973
 21
407.08677269981877
 31
0.0
  0
LINE
  5
15A
  8
BODY
 10
375.78014898328973
 20
407.08677269981877
 30
0.0
 11
375.78014898328973
 21
370.14294342661566
 31
0.0
  0
LINE
  5
15B
  8
BODY
 10
375.78014898328973
 20
370.14294342661566
 30
0.0
 11
377.39077914233945
 21
359.9758405476142
 31
0.0
  0
LINE
  5
15C
  8
BODY
 10
377.39077914233945
 20
359.9758405476142
 30
0.0
 11
377.6927722971613
 21
347.9967787396819
 31
0.0
  0
LINE
  5
15D
  8
BODY
 10
377.6927722971613
 20
347.9967787396819
 30
0.0
 11
379.60539561103286
 21
347.9967787396819
 31
0.0
  0
LINE
  5
15E
  8
BODY
 10
379.60539561103286
 20
347.9967787396819
 30
0.0
 11
377.7934366821019
 21
348.0974431246225
 31
0.0
  0
LINE
  5
15F
  8
BODY
 10
377.7934366821019
 20
348.0974431246225
 30
0.0
 11
377.5921079122207
 21
358.86853231326756
 31
0.0
  0
LINE
  5
160
  8
BODY
 10
377.5921079122207
 20
358.86853231326756
 30
0.0
 11
375.78014898328973
 21
371.854237970606
 31
0.0
  0
LINE
  5
161
  8
BODY
 10
375.78014898328973
 20
371.854237970606
 30
0.0
 11
378.29675860680493
 21
381.51801892490437
 31
0.0
  0
LINE
  5
162
  8
BODY
 10
378.29675860680493
 20
381.51801892490437
 30
0.0
 11
379.50473122609225
 21
391.0811354942621
 31
0.0
  0
LINE
  5
163
  8
BODY
 10
379.50473122609225
 20
391.0811354942621
 30
0.0
 11
379.60539561103286
 21
372.2568955103684
 31
0.0
  0
LINE
  5
164
  8
BODY
 10
379.60539561103286
 20
372.2568955103684
 30
0.0
 11
379.7060599959734
 21
407.1874370847594
 31
0.0
  0
LINE
  5
165
  8
BODY
 10
379.7060599959734
 20
407.1874370847594
 30
0.0
 11
381.8200120797262
 21
406.784779544997
 31
0.0
  0
LINE
  5
166
  8
BODY
 10
381.8200120797262
 20
406.784779544997
 30
0.0
 11
382.42399838936984
 21
407.1874370847594
 31
0.0
  0
LINE
  5
167
  8
BODY
 10
382.42399838936984
 20
407.1874370847594
 30
0.0
 11
382.42399838936984
 21
406.68411516005636
 31
0.0
  0
LINE
  5
168
  8
BODY
 10
382.42399838936984
 20
406.68411516005636
 30
0.0
 11
382.62532715925107
 21
407.1874370847594
 31
0.0
  0
LINE
  5
169
  8
BODY
 10
382.62532715925107
 20
407.1874370847594
 30
0.0
 11
386.3499094020536
 21
407.1874370847594
 31
0.0
  0
LINE
  5
16A
  8
BODY
 10
386.3499094020536
 20
407.1874370847594
 30
0.0
 11
386.4505737869942
 21
406.68411516005636
 31
0.0
  0
LINE
  5
16B
  8
BODY
 10
386.4505737869942
 20
406.68411516005636
 30
0.0
 11
389.4705053352124
 21
407.08677269981877
 31
0.0
  0
LINE
  5
16C
  8
BODY
 10
389.4705053352124
 20
407.08677269981877
 30
0.0
 11
389.3698409502718
 21
367.3243406482786
 31
0.0
  0
LINE
  5
16D
  8
BODY
 10
389.3698409502718
 20
367.3243406482786
 30
0.0
 11
390.87980672438096
 21
358.5665391584457
 31
0.0
  0
LINE
  5
16E
  8
BODY
 10
390.87980672438096
 20
358.5665391584457
 30
0.0
 11
391.4837930340246
 21
348.50010066438495
 31
0.0
  0
LINE
  5
16F
  8
BODY
 10
391.4837930340246
 20
348.50010066438495
 30
0.0
 11
391.18179987920274
 21
356.65391584457416
 31
0.0
  0
LINE
  5
170
  8
BODY
 10
391.18179987920274
 20
356.65391584457416
 30
0.0
 11
389.4705053352124
 21
368.6329776525065
 31
0.0
  0
LINE
  5
171
  8
BODY
 10
389.4705053352124
 20
368.6329776525065
 30
0.0
 11
391.6851218039058
 21
374.5721763640024
 31
0.0
  0
LINE
  5
172
  8
BODY
 10
391.6851218039058
 20
374.5721763640024
 30
0.0
 11
393.0944231930743
 21
382.0213408496074
 31
0.0
  0
LINE
  5
173
  8
BODY
 10
393.0944231930743
 20
382.0213408496074
 30
0.0
 11
393.1950875780149
 21
369.2369639621502
 31
0.0
  0
LINE
  5
174
  8
BODY
 10
393.1950875780149
 20
369.2369639621502
 30
0.0
 11
393.1950875780149
 21
407.08677269981877
 31
0.0
  0
LINE
  5
175
  8
BODY
 10
393.1950875780149
 20
407.08677269981877
 30
0.0
 11
395.91302597141134
 21
406.784779544997
 31
0.0
  0
LINE
  5
176
  8
BODY
 10
395.91302597141134
 20
406.784779544997
 30
0.0
 11
396.1143547412926
 21
407.1874370847594
 31
0.0
  0
LINE
  5
177
  8
BODY
 10
396.1143547412926
 20
407.1874370847594
 30
0.0
 11
396.21501912623313
 21
406.68411516005636
 31
0.0
  0
LINE
  5
178
  8
BODY
 10
396.21501912623313
 20
406.68411516005636
 30
0.0
 11
396.31568351117375
 21
407.1874370847594
 31
0.0
  0
LINE
  5
179
  8
BODY
 10
396.31568351117375
 20
407.1874370847594
 30
0.0
 11
398.93295751962955
 21
407.1874370847594
 31
0.0
  0
LINE
  5
17A
  8
BODY
 10
398.93295751962955
 20
407.1874370847594
 30
0.0
 11
396.31568351117375
 21
407.1874370847594
 31
0.0
  0
LINE
  5
17B
  8
BODY
 10
396.31568351117375
 20
407.1874370847594
 30
0.0
 11
396.21501912623313
 21
407.69075900946245
 31
0.0
  0
LINE
  5
17C
  8
BODY
 10
396.21501912623313
 20
407.69075900946245
 30
0.0
 11
396.1143547412926
 21
407.1874370847594
 31
0.0
  0
LINE
  5
17D
  8
BODY
 10
396.1143547412926
 20
407.1874370847594
 30
0.0
 11
395.91302597141134
 21
407.69075900946245
 31
0.0
  0
LINE
  5
17E
  8
BODY
 10
395.91302597141134
 20
407.69075900946245
 30
0.0
 11
393.29575196295553
 21
407.1874370847594
 31
0.0
  0
LINE
  5
17F
  8
BODY
 10
393.29575196295553
 20
407.1874370847594
 30
0.0
 11
393.1950875780149
 21
410.20736863297765
 31
0.0
  0
LINE
  5
180
  8
BODY
 10
393.1950875780149
 20
410.20736863297765
 30
0.0
 11
393.0944231930743
 21
407.1874370847594
 31
0.0
  0
LINE
  5
181
  8
BODY
 10
393.0944231930743
 20
407.1874370847594
 30
0.0
 11
389.571169720153
 21
407.1874370847594
 31
0.0
  0
LINE
  5
182
  8
BODY
 10
389.571169720153
 20
407.1874370847594
 30
0.0
 11
389.4705053352124
 21
410.20736863297765
 31
0.0
  0
LINE
  5
183
  8
BODY
 10
389.4705053352124
 20
410.20736863297765
 30
0.0
 11
389.2691765653312
 21
407.1874370847594
 31
0.0
  0
LINE
  5
184
  8
BODY
 10
389.2691765653312
 20
407.1874370847594
 30
0.0
 11
386.65190255687537
 21
407.69075900946245
 31
0.0
  0
LINE
  5
185
  8
BODY
 10
386.65190255687537
 20
407.69075900946245
 30
0.0
 11
386.3499094020536
 21
407.1874370847594
 31
0.0
  0
LINE
  5
186
  8
BODY
 10
386.3499094020536
 20
407.1874370847594
 30
0.0
 11
382.62532715925107
 21
407.1874370847594
 31
0.0
  0
LINE
  5
187
  8
BODY
 10
382.62532715925107
 20
407.1874370847594
 30
0.0
 11
382.52466277431046
 21
407.69075900946245
 31
0.0
  0
LINE
  5
188
  8
BODY
 10
382.52466277431046
 20
407.69075900946245
 30
0.0
 11
382.42399838936984
 21
407.1874370847594
 31
0.0
  0
LINE
  5
189
  8
BODY
 10
382.42399838936984
 20
407.1874370847594
 30
0.0
 11
382.22266961948867
 21
407.69075900946245
 31
0.0
  0
LINE
  5
18A
  8
BODY
 10
382.22266961948867
 20
407.69075900946245
 30
0.0
 11
379.7060599959734
 21
407.2881014697
 31
0.0
  0
LINE
  5
18B
  8
BODY
 10
379.7060599959734
 20
407.2881014697
 30
0.0
 11
379.60539561103286
 21
410.20736863297765
 31
0.0
  0
LINE
  5
18C
  8
BODY
 10
379.60539561103286
 20
410.20736863297765
 30
0.0
 11
379.50473122609225
 21
407.1874370847594
 31
0.0
  0
LINE
  5
18D
  8
BODY
 10
379.50473122609225
 20
407.1874370847594
 30
0.0
 11
375.88081336823035
 21
407.1874370847594
 31
0.0
  0
LINE
  5
18E
  8
BODY
 10
375.88081336823035
 20
407.1874370847594
 30
0.0
 11
375.78014898328973
 21
410.20736863297765
 31
0.0
  0
LINE
  5
18F
  8
BODY
 10
588.6853231326756
 20
403.56351922689754
 30
0.0
 11
592.4099053754782
 21
384.94060801288504
 31
0.0
  0
LINE
  5
190
  8
BODY
 10
592.4099053754782
 20
384.94060801288504
 30
0.0
 11
562.6132474330582
 21
384.94060801288504
 31
0.0
  0
LINE
  5
191
  8
BODY
 10
562.6132474330582
 20
384.94060801288504
 30
0.0
 11
562.5125830481176
 21
391.0811354942621
 31
0.0
  0
LINE
  5
192
  8
BODY
 10
562.5125830481176
 20
391.0811354942621
 30
0.0
 11
562.411918663177
 21
384.94060801288504
 31
0.0
  0
LINE
  5
193
  8
BODY
 10
562.411918663177
 20
384.94060801288504
 30
0.0
 11
556.0700624119187
 21
384.94060801288504
 31
0.0
  0
LINE
  5
194
  8
BODY
 10
556.0700624119187
 20
384.94060801288504
 30
0.0
 11
556.0700624119187
 21
388.1618683309845
 31
0.0
  0
LINE
  5
195
  8
BODY
 10
556.0700624119187
 20
388.1618683309845
 30
0.0
 11
562.2105898932958
 21
388.1618683309845
 31
0.0
  0
LINE
  5
196
  8
BODY
 10
562.2105898932958
 20
388.1618683309845
 30
0.0
 11
556.0700624119187
 21
388.1618683309845
 31
0.0
  0
LINE
  5
197
  8
BODY
 10
556.0700624119187
 20
388.1618683309845
 30
0.0
 11
555.9693980269781
 21
390.8798067243809
 31
0.0
  0
LINE
  5
198
  8
BODY
 10
555.9693980269781
 20
390.8798067243809
 30
0.0
 11
555.8687336420375
 21
388.1618683309845
 31
0.0
  0
LINE
  5
199
  8
BODY
 10
555.8687336420375
 20
388.1618683309845
 30
0.0
 11
534.1252264948662
 21
388.1618683309845
 31
0.0
  0
LINE
  5
19A
  8
BODY
 10
534.1252264948662
 20
388.1618683309845
 30
0.0
 11
534.0245621099256
 21
408.0934165492249
 31
0.0
  0
LINE
  5
19B
  8
BODY
 10
534.0245621099256
 20
408.0934165492249
 30
0.0
 11
514.9989933561507
 21
408.2947453191061
 31
0.0
  0
LINE
  5
19C
  8
BODY
 10
514.9989933561507
 20
408.2947453191061
 30
0.0
 11
492.3495067445138
 21
408.0934165492249
 31
0.0
  0
LINE
  5
19D
  8
BODY
 10
492.3495067445138
 20
408.0934165492249
 30
0.0
 11
492.2488423595732
 21
384.94060801288504
 31
0.0
  0
LINE
  5
19E
  8
BODY
 10
492.2488423595732
 20
384.94060801288504
 30
0.0
 11
433.96416347896115
 21
384.94060801288504
 31
0.0
  0
LINE
  5
19F
  8
BODY
 10
433.96416347896115
 20
384.94060801288504
 30
0.0
 11
437.58808133682305
 21
403.2615260720757
 31
0.0
  0
LINE
  5
1A0
  8
BODY
 10
437.58808133682305
 20
403.2615260720757
 30
0.0
 11
433.7628347090799
 21
385.6452587074693
 31
0.0
  0
LINE
  5
1A1
  8
BODY
 10
433.7628347090799
 20
385.6452587074693
 30
0.0
 11
437.3867525669418
 21
366.11636802899136
 31
0.0
  0
LINE
  5
1A2
  8
BODY
 10
437.3867525669418
 20
366.11636802899136
 30
0.0
 11
434.266156633783
 21
379.7060599959734
 31
0.0
  0
LINE
  5
1A3
  8
BODY
 10
434.266156633783
 20
379.7060599959734
 30
0.0
 11
488.52426011677073
 21
379.6053956110328
 31
0.0
  0
LINE
  5
1A4
  8
BODY
 10
488.52426011677073
 20
379.6053956110328
 30
0.0
 11
484.598349104087
 21
369.8409502717939
 31
0.0
  0
LINE
  5
1A5
  8
BODY
 10
484.598349104087
 20
369.8409502717939
 30
0.0
 11
485.7056573384337
 21
373.96819005435873
 31
0.0
  0
LINE
  5
1A6
  8
BODY
 10
485.7056573384337
 20
373.96819005435873
 30
0.0
 11
483.99436279444336
 21
370.14294342661566
 31
0.0
  0
LINE
  5
1A7
  8
BODY
 10
483.99436279444336
 20
370.14294342661566
 30
0.0
 11
478.65915039259113
 21
372.357559895309
 31
0.0
  0
LINE
  5
1A8
  8
BODY
 10
478.65915039259113
 20
372.357559895309
 30
0.0
 11
484.095027179384
 21
369.94161465673443
 31
0.0
  0
LINE
  5
1A9
  8
BODY
 10
484.095027179384
 20
369.94161465673443
 30
0.0
 11
474.9345681497886
 21
346.8894705053352
 31
0.0
  0
LINE
  5
1AA
  8
BODY
 10
474.9345681497886
 20
346.8894705053352
 30
0.0
 11
444.6345882826656
 21
346.8894705053352
 31
0.0
  0
LINE
  5
1AB
  8
BODY
 10
444.6345882826656
 20
346.8894705053352
 30
0.0
 11
442.1179786591504
 21
352.92933360177165
 31
0.0
  0
LINE
  5
1AC
  8
BODY
 10
442.1179786591504
 20
352.92933360177165
 30
0.0
 11
444.23193074290316
 21
346.8894705053352
 31
0.0
  0
LINE
  5
1AD
  8
BODY
 10
444.23193074290316
 20
346.8894705053352
 30
0.0
 11
427.0183209180592
 21
346.8894705053352
 31
0.0
  0
LINE
  5
1AE
  8
BODY
 10
427.0183209180592
 20
346.8894705053352
 30
0.0
 11
427.0183209180592
 21
430.5415743909805
 31
0.0
  0
LINE
  5
1AF
  8
BODY
 10
427.0183209180592
 20
430.5415743909805
 30
0.0
 11
511.4757398832293
 21
430.138916851218
 31
0.0
  0
LINE
  5
1B0
  8
BODY
 10
511.4757398832293
 20
430.138916851218
 30
0.0
 11
492.55083551439503
 21
430.5415743909805
 31
0.0
  0
LINE
  5
1B1
  8
BODY
 10
492.55083551439503
 20
430.5415743909805
 30
0.0
 11
492.4501711294544
 21
435.5747936380109
 31
0.0
  0
LINE
  5
1B2
  8
BODY
 10
492.4501711294544
 20
435.5747936380109
 30
0.0
 11
533.923897724985
 21
435.6754580229515
 31
0.0
  0
LINE
  5
1B3
  8
BODY
 10
533.923897724985
 20
435.6754580229515
 30
0.0
 11
534.0245621099256
 21
430.34024562109926
 31
0.0
  0
LINE
  5
1B4
  8
BODY
 10
534.0245621099256
 20
430.34024562109926
 30
0.0
 11
530.8033017918261
 21
430.34024562109926
 31
0.0
  0
LINE
  5
1B5
  8
BODY
 10
530.8033017918261
 20
430.34024562109926
 30
0.0
 11
535.0312059593316
 21
430.23958123615864
 31
0.0
  0
LINE
  5
1B6
  8
BODY
 10
535.0312059593316
 20
430.23958123615864
 30
0.0
 11
534.0245621099256
 21
438.6953895711697
 31
0.0
  0
LINE
  5
1B7
  8
BODY
 10
534.0245621099256
 20
438.6953895711697
 30
0.0
 11
533.923897724985
 21
435.6754580229515
 31
0.0
  0
LINE
  5
1B8
  8
BODY
 10
533.923897724985
 20
435.6754580229515
 30
0.0
 11
492.55083551439503
 21
435.6754580229515
 31
0.0
  0
LINE
  5
1B9
  8
BODY
 10
492.55083551439503
 20
435.6754580229515
 30
0.0
 11
492.4501711294544
 21
438.6953895711697
 31
0.0
  0
LINE
  5
1BA
  8
BODY
 10
492.4501711294544
 20
438.6953895711697
 30
0.0
 11
492.3495067445138
 21
430.5415743909805
 31
0.0
  0
LINE
  5
1BB
  8
BODY
 10
492.3495067445138
 20
430.5415743909805
 30
0.0
 11
423.8977249849004
 21
430.5415743909805
 31
0.0
  0
LINE
  5
1BC
  8
BODY
 10
423.8977249849004
 20
430.5415743909805
 30
0.0
 11
426.9176565331186
 21
427.5216428427622
 31
0.0
  0
LINE
  5
1BD
  8
BODY
 10
426.9176565331186
 20
427.5216428427622
 30
0.0
 11
426.9176565331186
 21
346.99013489027584
 31
0.0
  0
LINE
  5
1BE
  8
BODY
 10
426.9176565331186
 20
346.99013489027584
 30
0.0
 11
423.8977249849004
 21
346.8894705053352
 31
0.0
  0
LINE
  5
1BF
  8
BODY
 10
423.8977249849004
 20
346.8894705053352
 30
0.0
 11
444.533923897725
 21
346.688141735454
 31
0.0
  0
LINE
  5
1C0
  8
BODY
 10
444.533923897725
 20
346.688141735454
 30
0.0
 11
447.0505335212402
 21
330.38051137507546
 31
0.0
  0
LINE
  5
1C1
  8
BODY
 10
447.0505335212402
 20
330.38051137507546
 30
0.0
 11
441.31266357962556
 21
315.07952486410306
 31
0.0
  0
LINE
  5
1C2
  8
BODY
 10
441.31266357962556
 20
315.07952486410306
 30
0.0
 11
447.1511979061808
 21
330.27984699013484
 31
0.0
  0
LINE
  5
1C3
  8
BODY
 10
447.1511979061808
 20
330.27984699013484
 30
0.0
 11
444.6345882826656
 21
346.8894705053352
 31
0.0
  0
LINE
  5
1C4
  8
BODY
 10
444.6345882826656
 20
346.8894705053352
 30
0.0
 11
448.45983491040874
 21
335.9170525468089
 31
0.0
  0
LINE
  5
1C5
  8
BODY
 10
448.45983491040874
 20
335.9170525468089
 30
0.0
 11
445.7418965170123
 21
321.32071673042077
 31
0.0
  0
LINE
  5
1C6
  8
BODY
 10
445.7418965170123
 20
321.32071673042077
 30
0.0
 11
448.6611636802899
 21
333.4004429232937
 31
0.0
  0
LINE
  5
1C7
  8
BODY
 10
448.6611636802899
 20
333.4004429232937
 30
0.0
 11
446.0438896718341
 21
346.8894705053352
 31
0.0
  0
LINE
  5
1C8
  8
BODY
 10
446.0438896718341
 20
346.8894705053352
 30
0.0
 11
474.833903764848
 21
346.8894705053352
 31
0.0
  0
LINE
  5
1C9
  8
BODY
 10
474.833903764848
 20
346.8894705053352
 30
0.0
 11
470.8073283672237
 21
336.21904570163076
 31
0.0
  0
LINE
  5
1CA
  8
BODY
 10
470.8073283672237
 20
336.21904570163076
 30
0.0
 11
468.7940406684115
 21
337.427018320918
 31
0.0
  0
LINE
  5
1CB
  8
BODY
 10
468.7940406684115
 20
337.427018320918
 30
0.0
 11
470.7066639822831
 21
335.8163881618683
 31
0.0
  0
LINE
  5
1CC
  8
BODY
 10
470.7066639822831
 20
335.8163881618683
 30
0.0
 11
475.53855445943225
 21
346.8894705053352
 31
0.0
  0
LINE
  5
1CD
  8
BODY
 10
475.53855445943225
 20
346.8894705053352
 30
0.0
 11
471.00865713710493
 21
335.6150593919871
 31
0.0
  0
LINE
  5
1CE
  8
BODY
 10
471.00865713710493
 20
335.6150593919871
 30
0.0
 11
473.02194483591705
 21
333.90376484799674
 31
0.0
  0
LINE
  5
1CF
  8
BODY
 10
473.02194483591705
 20
333.90376484799674
 30
0.0
 11
475.63921884437286
 21
346.7888061203946
 31
0.0
  0
LINE
  5
1D0
  8
BODY
 10
475.63921884437286
 20
346.7888061203946
 30
0.0
 11
480.6724380914033
 21
346.8894705053352
 31
0.0
  0
LINE
  5
1D1
  8
BODY
 10
480.6724380914033
 20
346.8894705053352
 30
0.0
 11
475.13589691966985
 21
332.49446345882825
 31
0.0
  0
LINE
  5
1D2
  8
BODY
 10
475.13589691966985
 20
332.49446345882825
 30
0.0
 11
473.2232736057983
 21
333.8031004630561
 31
0.0
  0
LINE
  5
1D3
  8
BODY
 10
473.2232736057983
 20
333.8031004630561
 30
0.0
 11
475.03523253472923
 21
332.293134688947
 31
0.0
  0
LINE
  5
1D4
  8
BODY
 10
475.03523253472923
 20
332.293134688947
 30
0.0
 11
480.6724380914033
 21
346.688141735454
 31
0.0
  0
LINE
  5
1D5
  8
BODY
 10
480.6724380914033
 20
346.688141735454
 30
0.0
 11
479.76645862693783
 21
342.86289510771087
 31
0.0
  0
LINE
  5
1D6
  8
BODY
 10
479.76645862693783
 20
342.86289510771087
 30
0.0
 11
481.5784175558688
 21
346.8894705053352
 31
0.0
  0
LINE
  5
1D7
  8
BODY
 10
481.5784175558688
 20
346.8894705053352
 30
0.0
 11
485.10167102879007
 21
346.8894705053352
 31
0.0
  0
LINE
  5
1D8
  8
BODY
 10
485.10167102879007
 20
346.8894705053352
 30
0.0
 11
487.7189450372459
 21
335.6150593919871
 31
0.0
  0
LINE
  5
1D9
  8
BODY
 10
487.7189450372459
 20
335.6150593919871
 30
0.0
 11
485.40366418361185
 21
346.8894705053352
 31
0.0
  0
LINE
  5
1DA
  8
BODY
 10
485.40366418361185
 20
346.8894705053352
 30
0.0
 11
511.67706865311055
 21
346.8894705053352
 31
0.0
  0
LINE
  5
1DB
  8
BODY
 10
511.67706865311055
 20
346.8894705053352
 30
0.0
 11
485.40366418361185
 21
346.8894705053352
 31
0.0
  0
LINE
  5
1DC
  8
BODY
 10
485.40366418361185
 20
346.8894705053352
 30
0.0
 11
488.1216025770083
 21
359.1705254680894
 31
0.0
  0
LINE
  5
1DD
  8
BODY
 10
488.1216025770083
 20
359.1705254680894
 30
0.0
 11
485.2023354137306
 21
346.99013489027584
 31
0.0
  0
LINE
  5
1DE
  8
BODY
 10
485.2023354137306
 20
346.99013489027584
 30
0.0
 11
481.47775317092817
 21
346.99013489027584
 31
0.0
  0
LINE
  5
1DF
  8
BODY
 10
481.47775317092817
 20
346.99013489027584
 30
0.0
 11
484.6990134890276
 21
355.04328568552444
 31
0.0
  0
LINE
  5
1E0
  8
BODY
 10
484.6990134890276
 20
355.04328568552444
 30
0.0
 11
480.77310247634387
 21
346.99013489027584
 31
0.0
  0
LINE
  5
1E1
  8
BODY
 10
480.77310247634387
 20
346.99013489027584
 30
0.0
 11
493.65814374874174
 21
379.7060599959734
 31
0.0
  0
LINE
  5
1E2
  8
BODY
 10
493.65814374874174
 20
379.7060599959734
 30
0.0
 11
513.0863700422791
 21
379.7060599959734
 31
0.0
  0
LINE
  5
1E3
  8
BODY
 10
513.0863700422791
 20
379.7060599959734
 30
0.0
 11
513.0863700422791
 21
374.9748339037649
 31
0.0
  0
LINE
  5
1E4
  8
BODY
 10
513.0863700422791
 20
374.9748339037649
 30
0.0
 11
497.78538353130665
 21
370.34427219649683
 31
0.0
  0
LINE
  5
1E5
  8
BODY
 10
497.78538353130665
 20
370.34427219649683
 30
0.0
 11
513.0863700422791
 21
374.87416951882426
 31
0.0
  0
LINE
  5
1E6
  8
BODY
 10
513.0863700422791
 20
374.87416951882426
 30
0.0
 11
513.1870344272197
 21
367.8276625729817
 31
0.0
  0
LINE
  5
1E7
  8
BODY
 10
513.1870344272197
 20
367.8276625729817
 30
0.0
 11
513.2876988121603
 21
374.87416951882426
 31
0.0
  0
LINE
  5
1E8
  8
BODY
 10
513.2876988121603
 20
374.87416951882426
 30
0.0
 11
529.0920072478358
 21
370.04227904167504
 31
0.0
  0
LINE
  5
1E9
  8
BODY
 10
529.0920072478358
 20
370.04227904167504
 30
0.0
 11
513.2876988121603
 21
374.9748339037649
 31
0.0
  0
LINE
  5
1EA
  8
BODY
 10
513.2876988121603
 20
374.9748339037649
 30
0.0
 11
513.2876988121603
 21
379.7060599959734
 31
0.0
  0
LINE
  5
1EB
  8
BODY
 10
513.2876988121603
 20
379.7060599959734
 30
0.0
 11
532.7159251056976
 21
379.7060599959734
 31
0.0
  0
LINE
  5
1EC
  8
BODY
 10
532.7159251056976
 20
379.7060599959734
 30
0.0
 11
550.6341856251258
 21
331.6891483793034
 31
0.0
  0
LINE
  5
1ED
  8
BODY
 10
550.6341856251258
 20
331.6891483793034
 30
0.0
 11
552.4461445540568
 21
333.19911415341255
 31
0.0
  0
LINE
  5
1EE
  8
BODY
 10
552.4461445540568
 20
333.19911415341255
 30
0.0
 11
532.8165894906382
 21
379.6053956110328
 31
0.0
  0
LINE
  5
1EF
  8
BODY
 10
532.8165894906382
 20
379.6053956110328
 30
0.0
 11
537.9504731226092
 21
379.6053956110328
 31
0.0
  0
LINE
  5
1F0
  8
BODY
 10
537.9504731226092
 20
379.6053956110328
 30
0.0
 11
555.0634185625127
 21
335.3130662371653
 31
0.0
  0
LINE
  5
1F1
  8
BODY
 10
555.0634185625127
 20
335.3130662371653
 30
0.0
 11
556.8753774914436
 21
336.8230320112744
 31
0.0
  0
LINE
  5
1F2
  8
BODY
 10
556.8753774914436
 20
336.8230320112744
 30
0.0
 11
553.8554459432253
 21
340.2456210992551
 31
0.0
  0
LINE
  5
1F3
  8
BODY
 10
553.8554459432253
 20
340.2456210992551
 30
0.0
 11
555.0634185625127
 21
335.7157237769277
 31
0.0
  0
LINE
  5
1F4
  8
BODY
 10
555.0634185625127
 20
335.7157237769277
 30
0.0
 11
537.9504731226092
 21
379.6053956110328
 31
0.0
  0
LINE
  5
1F5
  8
BODY
 10
537.9504731226092
 20
379.6053956110328
 30
0.0
 11
540.4670827461244
 21
374.9748339037649
 31
0.0
  0
LINE
  5
1F6
  8
BODY
 10
540.4670827461244
 20
374.9748339037649
 30
0.0
 11
538.7557882021341
 21
379.7060599959734
 31
0.0
  0
LINE
  5
1F7
  8
BODY
 10
538.7557882021341
 20
379.7060599959734
 30
0.0
 11
555.8687336420375
 21
379.7060599959734
 31
0.0
  0
LINE
  5
1F8
  8
BODY
 10
555.8687336420375
 20
379.7060599959734
 30
0.0
 11
555.9693980269781
 21
373.76686128447756
 31
0.0
  0
LINE
  5
1F9
  8
BODY
 10
555.9693980269781
 20
373.76686128447756
 30
0.0
 11
556.0700624119187
 21
379.7060599959734
 31
0.0
  0
LINE
  5
1FA
  8
BODY
 10
556.0700624119187
 20
379.7060599959734
 30
0.0
 11
592.0072478357157
 21
379.7060599959734
 31
0.0
  0
LINE
  5
1FB
  8
BODY
 10
592.0072478357157
 20
379.7060599959734
 30
0.0
 11
556.0700624119187
 21
379.80672438091403
 31
0.0
  0
LINE
  5
1FC
  8
BODY
 10
556.0700624119187
 20
379.80672438091403
 30
0.0
 11
556.0700624119187
 21
384.94060801288504
 31
0.0
  0
LINE
  5
1FD
  8
BODY
 10
556.0700624119187
 20
384.94060801288504
 30
0.0
 11
592.4099053754782
 21
384.94060801288504
 31
0.0
  0
LINE
  5
1FE
  8
BODY
 10
592.4099053754782
 20
384.94060801288504
 30
0.0
 11
588.8866519025569
 21
365.8143748741695
 31
0.0
  0
LINE
  5
1FF
  8
BODY
 10
588.8866519025569
 20
365.8143748741695
 30
0.0
 11
592.6112341453594
 21
386.45057378699414
 31
0.0
  0
LINE
  5
200
  8
BODY
 10
592.6112341453594
 20
386.45057378699414
 30
0.0
 11
588.6853231326756
 21
403.56351922689754
 31
0.0
  0
LINE
  5
201
  8
BODY
 10
563.0159049728206
 20
451.47976645862695
 30
0.0
 11
595.7318300785182
 21
441.9166498892692
 31
0.0
  0
LINE
  5
202
  8
BODY
 10
595.7318300785182
 20
441.9166498892692
 30
0.0
 11
596.1344876182807
 21
441.51399234950674
 31
0.0
  0
LINE
  5
203
  8
BODY
 10
596.1344876182807
 20
441.51399234950674
 30
0.0
 11
596.4364807731025
 21
441.71532111938797
 31
0.0
  0
LINE
  5
204
  8
BODY
 10
596.4364807731025
 20
441.71532111938797
 30
0.0
 11
615.7640426816993
 21
435.97745117777333
 31
0.0
  0
LINE
  5
205
  8
BODY
 10
615.7640426816993
 20
435.97745117777333
 30
0.0
 11
616.0660358365211
 21
435.5747936380109
 31
0.0
  0
LINE
  5
206
  8
BODY
 10
616.0660358365211
 20
435.5747936380109
 30
0.0
 11
616.4686933762835
 21
435.7761224078921
 31
0.0
  0
LINE
  5
207
  8
BODY
 10
616.4686933762835
 20
435.7761224078921
 30
0.0
 11
637.8095429836924
 21
429.33360177169317
 31
0.0
  0
LINE
  5
208
  8
BODY
 10
637.8095429836924
 20
429.33360177169317
 30
0.0
 11
637.6082142138112
 21
428.72961546204954
 31
0.0
  0
LINE
  5
209
  8
BODY
 10
637.6082142138112
 20
428.72961546204954
 30
0.0
 11
637.910207368633
 21
429.4342661566338
 31
0.0
  0
LINE
  5
20A
  8
BODY
 10
637.910207368633
 20
429.4342661566338
 30
0.0
 11
638.6148580632173
 21
429.23293738675255
 31
0.0
  0
LINE
  5
20B
  8
BODY
 10
638.6148580632173
 20
429.23293738675255
 30
0.0
 11
638.8161868330985
 21
428.72961546204954
 31
0.0
  0
LINE
  5
20C
  8
BODY
 10
638.8161868330985
 20
428.72961546204954
 30
0.0
 11
636.8028991342863
 21
421.9851016710288
 31
0.0
  0
LINE
  5
20D
  8
BODY
 10
636.8028991342863
 20
421.9851016710288
 30
0.0
 11
636.5009059794645
 21
421.7837729011476
 31
0.0
  0
LINE
  5
20E
  8
BODY
 10
636.5009059794645
 20
421.7837729011476
 30
0.0
 11
635.6955908999396
 21
422.18643044091
 31
0.0
  0
LINE
  5
20F
  8
BODY
 10
635.6955908999396
 20
422.18643044091
 30
0.0
 11
635.8969196698208
 21
422.99174552043485
 31
0.0
  0
LINE
  5
210
  8
BODY
 10
635.8969196698208
 20
422.99174552043485
 30
0.0
 11
635.6955908999396
 21
422.18643044091
 31
0.0
  0
LINE
  5
211
  8
BODY
 10
635.6955908999396
 20
422.18643044091
 30
0.0
 11
635.3935977451179
 21
422.08576605596943
 31
0.0
  0
LINE
  5
212
  8
BODY
 10
635.3935977451179
 20
422.08576605596943
 30
0.0
 11
616.9720153009865
 21
427.62230722770283
 31
0.0
  0
LINE
  5
213
  8
BODY
 10
616.9720153009865
 20
427.62230722770283
 30
0.0
 11
616.9720153009865
 21
428.12562915240585
 31
0.0
  0
LINE
  5
214
  8
BODY
 10
616.9720153009865
 20
428.12562915240585
 30
0.0
 11
616.7706865311053
 21
427.72297161264345
 31
0.0
  0
LINE
  5
215
  8
BODY
 10
616.7706865311053
 20
427.72297161264345
 30
0.0
 11
614.8580632172337
 21
428.12562915240585
 31
0.0
  0
LINE
  5
216
  8
BODY
 10
614.8580632172337
 20
428.12562915240585
 30
0.0
 11
613.9520837527683
 21
428.6289510771089
 31
0.0
  0
LINE
  5
217
  8
BODY
 10
613.9520837527683
 20
428.6289510771089
 30
0.0
 11
614.3547412925308
 21
429.8369236963962
 31
0.0
  0
LINE
  5
218
  8
BODY
 10
614.3547412925308
 20
429.8369236963962
 30
0.0
 11
613.9520837527683
 21
428.6289510771089
 31
0.0
  0
LINE
  5
219
  8
BODY
 10
613.9520837527683
 20
428.6289510771089
 30
0.0
 11
613.247433058184
 21
428.6289510771089
 31
0.0
  0
LINE
  5
21A
  8
BODY
 10
613.247433058184
 20
428.6289510771089
 30
0.0
 11
611.3348097443125
 21
429.23293738675255
 31
0.0
  0
LINE
  5
21B
  8
BODY
 10
611.3348097443125
 20
429.23293738675255
 30
0.0
 11
611.2341453593718
 21
429.8369236963962
 31
0.0
  0
LINE
  5
21C
  8
BODY
 10
611.2341453593718
 20
429.8369236963962
 30
0.0
 11
611.0328165894907
 21
429.33360177169317
 31
0.0
  0
LINE
  5
21D
  8
BODY
 10
611.0328165894907
 20
429.33360177169317
 30
0.0
 11
596.9398026978056
 21
433.5615059391987
 31
0.0
  0
LINE
  5
21E
  8
BODY
 10
596.9398026978056
 20
433.5615059391987
 30
0.0
 11
597.0404670827462
 21
433.96416347896115
 31
0.0
  0
LINE
  5
21F
  8
BODY
 10
597.0404670827462
 20
433.96416347896115
 30
0.0
 11
596.4364807731025
 21
433.6621703241393
 31
0.0
  0
LINE
  5
220
  8
BODY
 10
596.4364807731025
 20
433.6621703241393
 30
0.0
 11
594.3225286893497
 21
434.266156633783
 31
0.0
  0
LINE
  5
221
  8
BODY
 10
594.3225286893497
 20
434.266156633783
 30
0.0
 11
594.1211999194685
 21
434.769478558486
 31
0.0
  0
LINE
  5
222
  8
BODY
 10
594.1211999194685
 20
434.769478558486
 30
0.0
 11
594.4231930742903
 21
435.7761224078921
 31
0.0
  0
LINE
  5
223
  8
BODY
 10
594.4231930742903
 20
435.7761224078921
 30
0.0
 11
594.0205355345279
 21
434.5681497886048
 31
0.0
  0
LINE
  5
224
  8
BODY
 10
594.0205355345279
 20
434.5681497886048
 30
0.0
 11
593.718542379706
 21
434.46748540366417
 31
0.0
  0
LINE
  5
225
  8
BODY
 10
593.718542379706
 20
434.46748540366417
 30
0.0
 11
591.4032615260721
 21
435.1721360982484
 31
0.0
  0
LINE
  5
226
  8
BODY
 10
591.4032615260721
 20
435.1721360982484
 30
0.0
 11
591.3025971411315
 21
435.6754580229515
 31
0.0
  0
LINE
  5
227
  8
BODY
 10
591.3025971411315
 20
435.6754580229515
 30
0.0
 11
591.0006039863097
 21
435.27280048318903
 31
0.0
  0
LINE
  5
228
  8
BODY
 10
591.0006039863097
 20
435.27280048318903
 30
0.0
 11
578.6188846386149
 21
438.8967183410509
 31
0.0
  0
LINE
  5
229
  8
BODY
 10
578.6188846386149
 20
438.8967183410509
 30
0.0
 11
577.1089188645058
 21
439.400040265754
 31
0.0
  0
LINE
  5
22A
  8
BODY
 10
577.1089188645058
 20
439.400040265754
 30
0.0
 11
577.0082544795652
 21
439.903362190457
 31
0.0
  0
LINE
  5
22B
  8
BODY
 10
577.0082544795652
 20
439.903362190457
 30
0.0
 11
576.7062613247433
 21
439.50070465069456
 31
0.0
  0
LINE
  5
22C
  8
BODY
 10
576.7062613247433
 20
439.50070465069456
 30
0.0
 11
574.2903160861688
 21
440.20535534527886
 31
0.0
  0
LINE
  5
22D
  8
BODY
 10
574.2903160861688
 20
440.20535534527886
 30
0.0
 11
574.0889873162876
 21
440.50734850010065
 31
0.0
  0
LINE
  5
22E
  8
BODY
 10
574.0889873162876
 20
440.50734850010065
 30
0.0
 11
574.4916448560499
 21
441.61465673444735
 31
0.0
  0
LINE
  5
22F
  8
BODY
 10
574.4916448560499
 20
441.61465673444735
 30
0.0
 11
574.0889873162876
 21
440.50734850010065
 31
0.0
  0
LINE
  5
230
  8
BODY
 10
574.0889873162876
 20
440.50734850010065
 30
0.0
 11
573.6863297765251
 21
440.40668411516003
 31
0.0
  0
LINE
  5
231
  8
BODY
 10
573.6863297765251
 20
440.40668411516003
 30
0.0
 11
571.4717133078317
 21
441.11133480974433
 31
0.0
  0
LINE
  5
232
  8
BODY
 10
571.4717133078317
 20
441.11133480974433
 30
0.0
 11
571.3710489228911
 21
441.61465673444735
 31
0.0
  0
LINE
  5
233
  8
BODY
 10
571.3710489228911
 20
441.61465673444735
 30
0.0
 11
570.9683913831287
 21
441.21199919468495
 31
0.0
  0
LINE
  5
234
  8
BODY
 10
570.9683913831287
 20
441.21199919468495
 30
0.0
 11
563.0159049728206
 21
443.5272800483189
 31
0.0
  0
LINE
  5
235
  8
BODY
 10
563.0159049728206
 20
443.5272800483189
 30
0.0
 11
563.0159049728206
 21
451.47976645862695
 31
0.0
  0
LINE
  5
236
  8
BODY
 10
563.1165693577613
 20
453.2917253875579
 30
0.0
 11
573.8876585464063
 21
450.171129454399
 31
0.0
  0
LINE
  5
237
  8
BODY
 10
573.8876585464063
 20
450.171129454399
 30
0.0
 11
573.7869941614657
 21
449.7684719146366
 31
0.0
  0
LINE
  5
238
  8
BODY
 10
573.7869941614657
 20
449.7684719146366
 30
0.0
 11
574.1896517012282
 21
450.171129454399
 31
0.0
  0
LINE
  5
239
  8
BODY
 10
574.1896517012282
 20
450.171129454399
 30
0.0
 11
579.3235353331992
 21
448.6611636802899
 31
0.0
  0
LINE
  5
23A
  8
BODY
 10
579.3235353331992
 20
448.6611636802899
 30
0.0
 11
579.4241997181398
 21
448.1578417555869
 31
0.0
  0
LINE
  5
23B
  8
BODY
 10
579.4241997181398
 20
448.1578417555869
 30
0.0
 11
579.9275216428427
 21
448.4598349104087
 31
0.0
  0
LINE
  5
23C
  8
BODY
 10
579.9275216428427
 20
448.4598349104087
 30
0.0
 11
593.8192067646467
 21
444.23193074290316
 31
0.0
  0
LINE
  5
23D
  8
BODY
 10
593.8192067646467
 20
444.23193074290316
 30
0.0
 11
593.718542379706
 21
443.9299375880813
 31
0.0
  0
LINE
  5
23E
  8
BODY
 10
593.718542379706
 20
443.9299375880813
 30
0.0
 11
593.9198711495873
 21
444.3325951278438
 31
0.0
  0
LINE
  5
23F
  8
BODY
 10
593.9198711495873
 20
444.3325951278438
 30
0.0
 11
599.3557479363801
 21
442.72196496879405
 31
0.0
  0
LINE
  5
240
  8
BODY
 10
599.3557479363801
 20
442.72196496879405
 30
0.0
 11
599.3557479363801
 21
442.218643044091
 31
0.0
  0
LINE
  5
241
  8
BODY
 10
599.3557479363801
 20
442.218643044091
 30
0.0
 11
599.657741091202
 21
442.62130058385344
 31
0.0
  0
LINE
  5
242
  8
BODY
 10
599.657741091202
 20
442.62130058385344
 30
0.0
 11
613.7507549828871
 21
438.2927320314073
 31
0.0
  0
LINE
  5
243
  8
BODY
 10
613.7507549828871
 20
438.2927320314073
 30
0.0
 11
613.6500905979465
 21
437.99073887658545
 31
0.0
  0
LINE
  5
244
  8
BODY
 10
613.6500905979465
 20
437.99073887658545
 30
0.0
 11
613.9520837527683
 21
438.3933964163479
 31
0.0
  0
LINE
  5
245
  8
BODY
 10
613.9520837527683
 20
438.3933964163479
 30
0.0
 11
619.2872961546205
 21
436.78276625729814
 31
0.0
  0
LINE
  5
246
  8
BODY
 10
619.2872961546205
 20
436.78276625729814
 30
0.0
 11
619.3879605395612
 21
436.2794443325951
 31
0.0
  0
LINE
  5
247
  8
BODY
 10
619.3879605395612
 20
436.2794443325951
 30
0.0
 11
619.689953694383
 21
436.6821018723576
 31
0.0
  0
LINE
  5
248
  8
BODY
 10
619.689953694383
 20
436.6821018723576
 30
0.0
 11
639.3195087578015
 21
430.7429031608617
 31
0.0
  0
LINE
  5
249
  8
BODY
 10
639.3195087578015
 20
430.7429031608617
 30
0.0
 11
639.0175156029796
 21
429.4342661566338
 31
0.0
  0
LINE
  5
24A
  8
BODY
 10
639.0175156029796
 20
429.4342661566338
 30
0.0
 11
638.0108717535736
 21
429.33360177169317
 31
0.0
  0
LINE
  5
24B
  8
BODY
 10
638.0108717535736
 20
429.33360177169317
 30
0.0
 11
637.910207368633
 21
429.635594926515
 31
0.0
  0
LINE
  5
24C
  8
BODY
 10
637.910207368633
 20
429.635594926515
 30
0.0
 11
637.5075498288705
 21
429.5349305415744
 31
0.0
  0
LINE
  5
24D
  8
BODY
 10
637.5075498288705
 20
429.5349305415744
 30
0.0
 11
635.4942621300584
 21
430.34024562109926
 31
0.0
  0
LINE
  5
24E
  8
BODY
 10
635.4942621300584
 20
430.34024562109926
 30
0.0
 11
627.1391181799879
 21
432.5548620897926
 31
0.0
  0
LINE
  5
24F
  8
BODY
 10
627.1391181799879
 20
432.5548620897926
 30
0.0
 11
619.1866317696799
 21
434.9708073283672
 31
0.0
  0
LINE
  5
250
  8
BODY
 10
619.1866317696799
 20
434.9708073283672
 30
0.0
 11
619.0859673847393
 21
435.47412925307026
 31
0.0
  0
LINE
  5
251
  8
BODY
 10
619.0859673847393
 20
435.47412925307026
 30
0.0
 11
618.8846386148581
 21
435.0714717133078
 31
0.0
  0
LINE
  5
252
  8
BODY
 10
618.8846386148581
 20
435.0714717133078
 30
0.0
 11
616.1667002214617
 21
435.8767867928327
 31
0.0
  0
LINE
  5
253
  8
BODY
 10
616.1667002214617
 20
435.8767867928327
 30
0.0
 11
616.5693577612241
 21
437.1854237970606
 31
0.0
  0
LINE
  5
254
  8
BODY
 10
616.5693577612241
 20
437.1854237970606
 30
0.0
 11
616.1667002214617
 21
436.0781155627139
 31
0.0
  0
LINE
  5
255
  8
BODY
 10
616.1667002214617
 20
436.0781155627139
 30
0.0
 11
615.7640426816993
 21
435.97745117777333
 31
0.0
  0
LINE
  5
256
  8
BODY
 10
615.7640426816993
 20
435.97745117777333
 30
0.0
 11
613.4487618280652
 21
436.6821018723576
 31
0.0
  0
LINE
  5
257
  8
BODY
 10
613.4487618280652
 20
436.6821018723576
 30
0.0
 11
613.4487618280652
 21
437.08475941212
 31
0.0
  0
LINE
  5
258
  8
BODY
 10
613.4487618280652
 20
437.08475941212
 30
0.0
 11
613.247433058184
 21
436.78276625729814
 31
0.0
  0
LINE
  5
259
  8
BODY
 10
613.247433058184
 20
436.78276625729814
 30
0.0
 11
599.3557479363801
 21
440.8093416549225
 31
0.0
  0
LINE
  5
25A
  8
BODY
 10
599.3557479363801
 20
440.8093416549225
 30
0.0
 11
599.1544191664989
 21
441.3126635796255
 31
0.0
  0
LINE
  5
25B
  8
BODY
 10
599.1544191664989
 20
441.3126635796255
 30
0.0
 11
598.7517616267365
 21
441.0106704248037
 31
0.0
  0
LINE
  5
25C
  8
BODY
 10
598.7517616267365
 20
441.0106704248037
 30
0.0
 11
596.4364807731025
 21
441.71532111938797
 31
0.0
  0
LINE
  5
25D
  8
BODY
 10
596.4364807731025
 20
441.71532111938797
 30
0.0
 11
596.2351520032213
 21
442.01731427420975
 31
0.0
  0
LINE
  5
25E
  8
BODY
 10
596.2351520032213
 20
442.01731427420975
 30
0.0
 11
596.6378095429837
 21
443.12462250855646
 31
0.0
  0
LINE
  5
25F
  8
BODY
 10
596.6378095429837
 20
443.12462250855646
 30
0.0
 11
596.2351520032213
 21
442.01731427420975
 31
0.0
  0
LINE
  5
260
  8
BODY
 10
596.2351520032213
 20
442.01731427420975
 30
0.0
 11
595.530501308637
 21
441.9166498892692
 31
0.0
  0
LINE
  5
261
  8
BODY
 10
595.530501308637
 20
441.9166498892692
 30
0.0
 11
593.5172136098249
 21
442.62130058385344
 31
0.0
  0
LINE
  5
262
  8
BODY
 10
593.5172136098249
 20
442.62130058385344
 30
0.0
 11
593.5172136098249
 21
443.02395812361584
 31
0.0
  0
LINE
  5
263
  8
BODY
 10
593.5172136098249
 20
443.02395812361584
 30
0.0
 11
593.0138916851218
 21
442.72196496879405
 31
0.0
  0
LINE
  5
264
  8
BODY
 10
593.0138916851218
 20
442.72196496879405
 30
0.0
 11
579.2228709482586
 21
446.84920475135897
 31
0.0
  0
LINE
  5
265
  8
BODY
 10
579.2228709482586
 20
446.84920475135897
 30
0.0
 11
579.2228709482586
 21
447.25186229112137
 31
0.0
  0
LINE
  5
266
  8
BODY
 10
579.2228709482586
 20
447.25186229112137
 30
0.0
 11
578.7195490235555
 21
446.9498691362996
 31
0.0
  0
LINE
  5
267
  8
BODY
 10
578.7195490235555
 20
446.9498691362996
 30
0.0
 11
576.3036037849809
 21
447.75518421582444
 31
0.0
  0
LINE
  5
268
  8
BODY
 10
576.3036037849809
 20
447.75518421582444
 30
0.0
 11
576.6055969398027
 21
449.0638212200523
 31
0.0
  0
LINE
  5
269
  8
BODY
 10
576.6055969398027
 20
449.0638212200523
 30
0.0
 11
576.1022750150997
 21
447.75518421582444
 31
0.0
  0
LINE
  5
26A
  8
BODY
 10
576.1022750150997
 20
447.75518421582444
 30
0.0
 11
573.6863297765251
 21
448.4598349104087
 31
0.0
  0
LINE
  5
26B
  8
BODY
 10
573.6863297765251
 20
448.4598349104087
 30
0.0
 11
573.4850010066439
 21
448.9631568351117
 31
0.0
  0
LINE
  5
26C
  8
BODY
 10
573.4850010066439
 20
448.9631568351117
 30
0.0
 11
573.183007851822
 21
448.5604992953493
 31
0.0
  0
LINE
  5
26D
  8
BODY
 10
573.183007851822
 20
448.5604992953493
 30
0.0
 11
563.9218844372862
 21
451.2784376887457
 31
0.0
  0
LINE
  5
26E
  8
BODY
 10
563.9218844372862
 20
451.2784376887457
 30
0.0
 11
563.1165693577613
 21
451.6810952285081
 31
0.0
  0
LINE
  5
26F
  8
BODY
 10
563.1165693577613
 20
451.6810952285081
 30
0.0
 11
563.1165693577613
 21
453.2917253875579
 31
0.0
  0
LINE
  5
270
  8
BODY
 10
377.7934366821019
 20
461.14354741292533
 30
0.0
 11
521.6428427622308
 21
457.3183007851822
 31
0.0
  0
LINE
  5
271
  8
BODY
 10
521.6428427622308
 20
457.3183007851822
 30
0.0
 11
521.6428427622308
 21
451.98308838332997
 31
0.0
  0
LINE
  5
272
  8
BODY
 10
521.6428427622308
 20
451.98308838332997
 30
0.0
 11
521.1395208375277
 21
451.88242399838936
 31
0.0
  0
LINE
  5
273
  8
BODY
 10
521.1395208375277
 20
451.88242399838936
 30
0.0
 11
521.5421783772902
 21
448.9631568351117
 31
0.0
  0
LINE
  5
274
  8
BODY
 10
521.5421783772902
 20
448.9631568351117
 30
0.0
 11
401.44956714314475
 21
450.0704650694584
 31
0.0
  0
LINE
  5
275
  8
BODY
 10
401.44956714314475
 20
450.0704650694584
 30
0.0
 11
400.2415945238575
 21
451.78175961344874
 31
0.0
  0
LINE
  5
276
  8
BODY
 10
400.2415945238575
 20
451.78175961344874
 30
0.0
 11
400.54358767867933
 21
452.2850815381518
 31
0.0
  0
LINE
  5
277
  8
BODY
 10
400.54358767867933
 20
452.2850815381518
 30
0.0
 11
398.53029997986715
 21
454.49969800684516
 31
0.0
  0
LINE
  5
278
  8
BODY
 10
398.53029997986715
 20
454.49969800684516
 30
0.0
 11
399.63760821421386
 21
451.78175961344874
 31
0.0
  0
LINE
  5
279
  8
BODY
 10
399.63760821421386
 20
451.78175961344874
 30
0.0
 11
400.2415945238575
 21
451.78175961344874
 31
0.0
  0
LINE
  5
27A
  8
BODY
 10
400.2415945238575
 20
451.78175961344874
 30
0.0
 11
401.14757398832296
 21
450.0704650694584
 31
0.0
  0
LINE
  5
27B
  8
BODY
 10
401.14757398832296
 20
450.0704650694584
 30
0.0
 11
378.0954298369237
 21
450.27179383933964
 31
0.0
  0
LINE
  5
27C
  8
BODY
 10
378.0954298369237
 20
450.27179383933964
 30
0.0
 11
377.7934366821019
 21
461.14354741292533
 31
0.0
  0
LINE
  5
27D
  8
BODY
 10
317.19347694785586
 20
462.4521844171532
 30
0.0
 11
333.09844976847194
 21
462.4521844171532
 31
0.0
  0
LINE
  5
27E
  8
BODY
 10
333.09844976847194
 20
462.4521844171532
 30
0.0
 11
334.20575800281864
 21
462.250855647272
 31
0.0
  0
LINE
  5
27F
  8
BODY
 10
334.20575800281864
 20
462.250855647272
 30
0.0
 11
334.20575800281864
 21
415.03925911012686
 31
0.0
  0
LINE
  5
280
  8
BODY
 10
334.20575800281864
 20
415.03925911012686
 30
0.0
 11
333.8031004630562
 21
414.93859472518625
 31
0.0
  0
LINE
  5
281
  8
BODY
 10
333.8031004630562
 20
414.93859472518625
 30
0.0
 11
334.20575800281864
 21
414.737265955305
 31
0.0
  0
LINE
  5
282
  8
BODY
 10
334.20575800281864
 20
414.737265955305
 30
0.0
 11
334.105093617878
 21
411.31467686732435
 31
0.0
  0
LINE
  5
283
  8
BODY
 10
334.105093617878
 20
411.31467686732435
 30
0.0
 11
317.09281256291524
 21
411.41534125226497
 31
0.0
  0
LINE
  5
284
  8
BODY
 10
317.09281256291524
 20
411.41534125226497
 30
0.0
 11
317.29414133279647
 21
414.33460841554256
 31
0.0
  0
LINE
  5
285
  8
BODY
 10
317.29414133279647
 20
414.33460841554256
 30
0.0
 11
317.4954701026777
 21
413.93195087578016
 31
0.0
  0
LINE
  5
286
  8
BODY
 10
317.4954701026777
 20
413.93195087578016
 30
0.0
 11
317.5961344876183
 21
414.33460841554256
 31
0.0
  0
LINE
  5
287
  8
BODY
 10
317.5961344876183
 20
414.33460841554256
 30
0.0
 11
322.0253674250051
 21
414.5359371854238
 31
0.0
  0
LINE
  5
288
  8
BODY
 10
322.0253674250051
 20
414.5359371854238
 30
0.0
 11
317.09281256291524
 21
414.4352728004832
 31
0.0
  0
LINE
  5
289
  8
BODY
 10
317.09281256291524
 20
414.4352728004832
 30
0.0
 11
317.09281256291524
 21
459.13025971411315
 31
0.0
  0
LINE
  5
28A
  8
BODY
 10
317.09281256291524
 20
459.13025971411315
 30
0.0
 11
333.9037648479968
 21
458.8282665592913
 31
0.0
  0
LINE
  5
28B
  8
BODY
 10
333.9037648479968
 20
458.8282665592913
 30
0.0
 11
317.5961344876183
 21
459.3315884839944
 31
0.0
  0
LINE
  5
28C
  8
BODY
 10
317.5961344876183
 20
459.3315884839944
 30
0.0
 11
317.4954701026777
 21
459.8349104086974
 31
0.0
  0
LINE
  5
28D
  8
BODY
 10
317.4954701026777
 20
459.8349104086974
 30
0.0
 11
317.29414133279647
 21
459.3315884839944
 31
0.0
  0
LINE
  5
28E
  8
BODY
 10
317.29414133279647
 20
459.3315884839944
 30
0.0
 11
317.19347694785586
 21
462.4521844171532
 31
0.0
  0
LINE
  5
28F
  8
BODY
 10
275.3170928125629
 20
460.53956110328164
 30
0.0
 11
275.3170928125629
 21
460.9422186430441
 31
0.0
  0
LINE
  5
290
  8
BODY
 10
275.3170928125629
 20
460.9422186430441
 30
0.0
 11
275.51842158244415
 21
461.0428830279847
 31
0.0
  0
LINE
  5
291
  8
BODY
 10
275.51842158244415
 20
461.0428830279847
 30
0.0
 11
275.61908596738476
 21
461.4455405677471
 31
0.0
  0
LINE
  5
292
  8
BODY
 10
275.61908596738476
 20
461.4455405677471
 30
0.0
 11
275.820414737266
 21
461.0428830279847
 31
0.0
  0
LINE
  5
293
  8
BODY
 10
275.820414737266
 20
461.0428830279847
 30
0.0
 11
275.41775719750353
 21
463.5594926514999
 31
0.0
  0
LINE
  5
294
  8
BODY
 10
275.41775719750353
 20
463.5594926514999
 30
0.0
 11
275.51842158244415
 21
463.9621501912623
 31
0.0
  0
LINE
  5
295
  8
BODY
 10
275.51842158244415
 20
463.9621501912623
 30
0.0
 11
325.54862089792636
 21
462.5528488020938
 31
0.0
  0
LINE
  5
296
  8
BODY
 10
325.54862089792636
 20
462.5528488020938
 30
0.0
 11
314.07288101469703
 21
462.4521844171532
 31
0.0
  0
LINE
  5
297
  8
BODY
 10
314.07288101469703
 20
462.4521844171532
 30
0.0
 11
316.9921481779746
 21
462.3515200322126
 31
0.0
  0
LINE
  5
298
  8
BODY
 10
316.9921481779746
 20
462.3515200322126
 30
0.0
 11
316.4888262532716
 21
459.3315884839944
 31
0.0
  0
LINE
  5
299
  8
BODY
 10
316.4888262532716
 20
459.3315884839944
 30
0.0
 11
278.03503120595934
 21
460.33823233340047
 31
0.0
  0
LINE
  5
29A
  8
BODY
 10
278.03503120595934
 20
460.33823233340047
 30
0.0
 11
275.3170928125629
 21
460.53956110328164
 31
0.0
  0
LINE
  5
29B
  8
BODY
 10
377.7934366821019
 20
461.8481981075096
 30
0.0
 11
378.29675860680493
 21
461.9488624924502
 31
0.0
  0
LINE
  5
29C
  8
BODY
 10
378.29675860680493
 20
461.9488624924502
 30
0.0
 11
377.89410106704247
 21
463.76082142138114
 31
0.0
  0
LINE
  5
29D
  8
BODY
 10
377.89410106704247
 20
463.76082142138114
 30
0.0
 11
378.29675860680493
 21
464.26414334608415
 31
0.0
  0
LINE
  5
29E
  8
BODY
 10
378.29675860680493
 20
464.26414334608415
 30
0.0
 11
521.5421783772902
 21
460.53956110328164
 31
0.0
  0
LINE
  5
29F
  8
BODY
 10
521.5421783772902
 20
460.53956110328164
 30
0.0
 11
521.0388564525871
 21
458.12361586470706
 31
0.0
  0
LINE
  5
2A0
  8
BODY
 10
521.0388564525871
 20
458.12361586470706
 30
0.0
 11
521.5421783772902
 21
458.12361586470706
 31
0.0
  0
LINE
  5
2A1
  8
BODY
 10
521.5421783772902
 20
458.12361586470706
 30
0.0
 11
521.6428427622308
 21
457.62029394000405
 31
0.0
  0
LINE
  5
2A2
  8
BODY
 10
521.6428427622308
 20
457.62029394000405
 30
0.0
 11
377.89410106704247
 21
461.3448761828065
 31
0.0
  0
LINE
  5
2A3
  8
BODY
 10
377.89410106704247
 20
461.3448761828065
 30
0.0
 11
377.7934366821019
 21
461.8481981075096
 31
0.0
  0
LINE
  5
2A4
  8
BODY
 10
49.52687739077914
 20
465.27078719549024
 30
0.0
 11
217.3344070867727
 21
465.5727803503121
 31
0.0
  0
LINE
  5
2A5
  8
BODY
 10
217.3344070867727
 20
465.5727803503121
 30
0.0
 11
275.2164284276223
 21
463.9621501912623
 31
0.0
  0
LINE
  5
2A6
  8
BODY
 10
275.2164284276223
 20
463.9621501912623
 30
0.0
 11
275.2164284276223
 21
460.438896718341
 31
0.0
  0
LINE
  5
2A7
  8
BODY
 10
275.2164284276223
 20
460.438896718341
 30
0.0
 11
225.08556472719954
 21
461.8481981075096
 31
0.0
  0
LINE
  5
2A8
  8
BODY
 10
225.08556472719954
 20
461.8481981075096
 30
0.0
 11
274.31044896315683
 21
460.438896718341
 31
0.0
  0
LINE
  5
2A9
  8
BODY
 10
274.31044896315683
 20
460.438896718341
 30
0.0
 11
275.2164284276223
 21
458.02295147976645
 31
0.0
  0
LINE
  5
2AA
  8
BODY
 10
275.2164284276223
 20
458.02295147976645
 30
0.0
 11
275.41775719750353
 21
460.33823233340047
 31
0.0
  0
LINE
  5
2AB
  8
BODY
 10
275.41775719750353
 20
460.33823233340047
 30
0.0
 11
316.9921481779746
 21
459.3315884839944
 31
0.0
  0
LINE
  5
2AC
  8
BODY
 10
316.9921481779746
 20
459.3315884839944
 30
0.0
 11
317.09281256291524
 21
414.4352728004832
 31
0.0
  0
LINE
  5
2AD
  8
BODY
 10
317.09281256291524
 20
414.4352728004832
 30
0.0
 11
314.47553855445943
 21
414.23394403060195
 31
0.0
  0
LINE
  5
2AE
  8
BODY
 10
314.47553855445943
 20
414.23394403060195
 30
0.0
 11
316.5894906382122
 21
414.13327964566133
 31
0.0
  0
LINE
  5
2AF
  8
BODY
 10
316.5894906382122
 20
414.13327964566133
 30
0.0
 11
316.9921481779746
 21
411.41534125226497
 31
0.0
  0
LINE
  5
2B0
  8
BODY
 10
316.9921481779746
 20
411.41534125226497
 30
0.0
 11
314.07288101469703
 21
411.31467686732435
 31
0.0
  0
LINE
  5
2B1
  8
BODY
 10
314.07288101469703
 20
411.31467686732435
 30
0.0
 11
332.19247030400646
 21
411.21401248238374
 31
0.0
  0
LINE
  5
2B2
  8
BODY
 10
332.19247030400646
 20
411.21401248238374
 30
0.0
 11
190.25568753774914
 21
403.3621904570163
 31
0.0
  0
LINE
  5
2B3
  8
BODY
 10
190.25568753774914
 20
403.3621904570163
 30
0.0
 11
49.627541775719756
 21
403.06019730219447
 31
0.0
  0
LINE
  5
2B4
  8
BODY
 10
49.627541775719756
 20
403.06019730219447
 30
0.0
 11
49.627541775719756
 21
461.8481981075096
 31
0.0
  0
LINE
  5
2B5
  8
BODY
 10
49.627541775719756
 20
461.8481981075096
 30
0.0
 11
217.1330783168915
 21
461.8481981075096
 31
0.0
  0
LINE
  5
2B6
  8
BODY
 10
217.1330783168915
 20
461.8481981075096
 30
0.0
 11
49.627541775719756
 21
461.8481981075096
 31
0.0
  0
LINE
  5
2B7
  8
BODY
 10
49.627541775719756
 20
461.8481981075096
 30
0.0
 11
49.52687739077914
 21
465.27078719549024
 31
0.0
  0
LINE
  5
2B8
  8
BODY
 10
280.0483189047715
 20
464.66680088584656
 30
0.0
 11
280.14898328971213
 21
466.5794241997181
 31
0.0
  0
LINE
  5
2B9
  8
BODY
 10
280.14898328971213
 20
466.5794241997181
 30
0.0
 11
377.6927722971613
 21
464.26414334608415
 31
0.0
  0
LINE
  5
2BA
  8
BODY
 10
377.6927722971613
 20
464.26414334608415
 30
0.0
 11
377.7934366821019
 21
463.5594926514999
 31
0.0
  0
LINE
  5
2BB
  8
BODY
 10
377.7934366821019
 20
463.5594926514999
 30
0.0
 11
377.5921079122207
 21
464.0628145762029
 31
0.0
  0
LINE
  5
2BC
  8
BODY
 10
377.5921079122207
 20
464.0628145762029
 30
0.0
 11
377.29011475739884
 21
461.8481981075096
 31
0.0
  0
LINE
  5
2BD
  8
BODY
 10
377.29011475739884
 20
461.8481981075096
 30
0.0
 11
377.6927722971613
 21
461.9488624924502
 31
0.0
  0
LINE
  5
2BE
  8
BODY
 10
377.6927722971613
 20
461.9488624924502
 30
0.0
 11
377.7934366821019
 21
461.4455405677471
 31
0.0
  0
LINE
  5
2BF
  8
BODY
 10
377.7934366821019
 20
461.4455405677471
 30
0.0
 11
280.14898328971213
 21
463.86148580632175
 31
0.0
  0
LINE
  5
2C0
  8
BODY
 10
280.14898328971213
 20
463.86148580632175
 30
0.0
 11
280.0483189047715
 21
464.66680088584656
 31
0.0
  0
LINE
  5
2C1
  8
BODY
 10
543.0843567545802
 20
461.74753372256896
 30
0.0
 11
544.9969800684518
 21
460.8415542581035
 31
0.0
  0
LINE
  5
2C2
  8
BODY
 10
544.9969800684518
 20
460.8415542581035
 30
0.0
 11
545.2989732232736
 21
456.8149788604792
 31
0.0
  0
LINE
  5
2C3
  8
BODY
 10
545.2989732232736
 20
456.8149788604792
 30
0.0
 11
562.8145762029394
 21
451.6810952285081
 31
0.0
  0
LINE
  5
2C4
  8
BODY
 10
562.8145762029394
 20
451.6810952285081
 30
0.0
 11
562.8145762029394
 21
443.8292732031407
 31
0.0
  0
LINE
  5
2C5
  8
BODY
 10
562.8145762029394
 20
443.8292732031407
 30
0.0
 11
561.8079323535334
 21
443.8292732031407
 31
0.0
  0
LINE
  5
2C6
  8
BODY
 10
561.8079323535334
 20
443.8292732031407
 30
0.0
 11
638.5141936782767
 21
421.0791222065633
 31
0.0
  0
LINE
  5
2C7
  8
BODY
 10
638.5141936782767
 20
421.0791222065633
 30
0.0
 11
636.8028991342863
 21
421.8844372860882
 31
0.0
  0
LINE
  5
2C8
  8
BODY
 10
636.8028991342863
 20
421.8844372860882
 30
0.0
 11
638.9168512180391
 21
428.93094423193077
 31
0.0
  0
LINE
  5
2C9
  8
BODY
 10
638.9168512180391
 20
428.93094423193077
 30
0.0
 11
640.6281457620295
 21
428.6289510771089
 31
0.0
  0
LINE
  5
2CA
  8
BODY
 10
640.6281457620295
 20
428.6289510771089
 30
0.0
 11
638.8161868330985
 21
421.0791222065633
 31
0.0
  0
LINE
  5
2CB
  8
BODY
 10
638.8161868330985
 20
421.0791222065633
 30
0.0
 11
641.5341252264949
 21
430.23958123615864
 31
0.0
  0
LINE
  5
2CC
  8
BODY
 10
641.5341252264949
 20
430.23958123615864
 30
0.0
 11
640.8294745319106
 21
428.6289510771089
 31
0.0
  0
LINE
  5
2CD
  8
BODY
 10
640.8294745319106
 20
428.6289510771089
 30
0.0
 11
639.0175156029796
 21
429.23293738675255
 31
0.0
  0
LINE
  5
2CE
  8
BODY
 10
639.0175156029796
 20
429.23293738675255
 30
0.0
 11
639.4201731427421
 21
430.6422387759211
 31
0.0
  0
LINE
  5
2CF
  8
BODY
 10
639.4201731427421
 20
430.6422387759211
 30
0.0
 11
641.232132071673
 21
430.44091000603987
 31
0.0
  0
LINE
  5
2D0
  8
BODY
 10
641.232132071673
 20
430.44091000603987
 30
0.0
 11
626.9377894101067
 21
434.6688141735454
 31
0.0
  0
LINE
  5
2D1
  8
BODY
 10
626.9377894101067
 20
434.6688141735454
 30
0.0
 11
626.4344674854037
 21
440.00402657539763
 31
0.0
  0
LINE
  5
2D2
  8
BODY
 10
626.4344674854037
 20
440.00402657539763
 30
0.0
 11
639.6215019126233
 21
436.0781155627139
 31
0.0
  0
LINE
  5
2D3
  8
BODY
 10
639.6215019126233
 20
436.0781155627139
 30
0.0
 11
626.3338031004631
 21
440.10469096033825
 31
0.0
  0
LINE
  5
2D4
  8
BODY
 10
626.3338031004631
 20
440.10469096033825
 30
0.0
 11
623.4145359371854
 21
466.88141735453996
 31
0.0
  0
LINE
  5
2D5
  8
BODY
 10
623.4145359371854
 20
466.88141735453996
 30
0.0
 11
625.327159251057
 21
447.25186229112137
 31
0.0
  0
LINE
  5
2D6
  8
BODY
 10
625.327159251057
 20
447.25186229112137
 30
0.0
 11
548.8222266961949
 21
470.0020132876988
 31
0.0
  0
LINE
  5
2D7
  8
BODY
 10
548.8222266961949
 20
470.0020132876988
 30
0.0
 11
549.6275417757198
 21
472.7199516810952
 31
0.0
  0
LINE
  5
2D8
  8
BODY
 10
549.6275417757198
 20
472.7199516810952
 30
0.0
 11
545.7016307630361
 21
459.8349104086974
 31
0.0
  0
LINE
  5
2D9
  8
BODY
 10
545.7016307630361
 20
459.8349104086974
 30
0.0
 11
546.9096033823233
 21
463.5594926514999
 31
0.0
  0
LINE
  5
2DA
  8
BODY
 10
546.9096033823233
 20
463.5594926514999
 30
0.0
 11
549.828870545601
 21
462.75417757197505
 31
0.0
  0
LINE
  5
2DB
  8
BODY
 10
549.828870545601
 20
462.75417757197505
 30
0.0
 11
546.9096033823233
 21
463.6601570364405
 31
0.0
  0
LINE
  5
2DC
  8
BODY
 10
546.9096033823233
 20
463.6601570364405
 30
0.0
 11
549.0235554660761
 21
469.8006845178176
 31
0.0
  0
LINE
  5
2DD
  8
BODY
 10
549.0235554660761
 20
469.8006845178176
 30
0.0
 11
625.1258304811757
 21
447.352526676062
 31
0.0
  0
LINE
  5
2DE
  8
BODY
 10
625.1258304811757
 20
447.352526676062
 30
0.0
 11
626.1324743305819
 21
440.10469096033825
 31
0.0
  0
LINE
  5
2DF
  8
BODY
 10
626.1324743305819
 20
440.10469096033825
 30
0.0
 11
618.2806523052144
 21
442.4199718139722
 31
0.0
  0
LINE
  5
2E0
  8
BODY
 10
618.2806523052144
 20
442.4199718139722
 30
0.0
 11
618.9853029997987
 21
445.33923897724986
 31
0.0
  0
LINE
  5
2E1
  8
BODY
 10
618.9853029997987
 20
445.33923897724986
 30
0.0
 11
617.9786591503927
 21
442.5206361989128
 31
0.0
  0
LINE
  5
2E2
  8
BODY
 10
617.9786591503927
 20
442.5206361989128
 30
0.0
 11
615.562713911818
 21
443.7286088182001
 31
0.0
  0
LINE
  5
2E3
  8
BODY
 10
615.562713911818
 20
443.7286088182001
 30
0.0
 11
615.1600563720556
 21
442.82262935373467
 31
0.0
  0
LINE
  5
2E4
  8
BODY
 10
615.1600563720556
 20
442.82262935373467
 30
0.0
 11
618.0793235353332
 21
442.4199718139722
 31
0.0
  0
LINE
  5
2E5
  8
BODY
 10
618.0793235353332
 20
442.4199718139722
 30
0.0
 11
616.7706865311053
 21
437.89007449164484
 31
0.0
  0
LINE
  5
2E6
  8
BODY
 10
616.7706865311053
 20
437.89007449164484
 30
0.0
 11
618.1799879202738
 21
442.4199718139722
 31
0.0
  0
LINE
  5
2E7
  8
BODY
 10
618.1799879202738
 20
442.4199718139722
 30
0.0
 11
626.1324743305819
 21
440.10469096033825
 31
0.0
  0
LINE
  5
2E8
  8
BODY
 10
626.1324743305819
 20
440.10469096033825
 30
0.0
 11
626.7364606402256
 21
434.6688141735454
 31
0.0
  0
LINE
  5
2E9
  8
BODY
 10
626.7364606402256
 20
434.6688141735454
 30
0.0
 11
545.5003019931548
 21
458.7276021743507
 31
0.0
  0
LINE
  5
2EA
  8
BODY
 10
545.5003019931548
 20
458.7276021743507
 30
0.0
 11
544.4936581437488
 21
461.3448761828065
 31
0.0
  0
LINE
  5
2EB
  8
BODY
 10
544.4936581437488
 20
461.3448761828065
 30
0.0
 11
543.0843567545802
 21
461.74753372256896
 31
0.0
  0
LINE
  5
2EC
  8
BODY
 10
542.7823635997585
 20
480.26978055164085
 30
0.0
 11
542.5810348298772
 21
457.01630763036036
 31
0.0
  0
LINE
  5
2ED
  8
BODY
 10
542.5810348298772
 20
457.01630763036036
 30
0.0
 11
521.7435071471714
 21
457.51962955506343
 31
0.0
  0
LINE
  5
2EE
  8
BODY
 10
521.7435071471714
 20
457.51962955506343
 30
0.0
 11
521.7435071471714
 21
460.64022548822226
 31
0.0
  0
LINE
  5
2EF
  8
BODY
 10
521.7435071471714
 20
460.64022548822226
 30
0.0
 11
542.4803704449366
 21
460.13690356351924
 31
0.0
  0
LINE
  5
2F0
  8
BODY
 10
542.4803704449366
 20
460.13690356351924
 30
0.0
 11
325.1459633581639
 21
466.88141735453996
 31
0.0
  0
LINE
  5
2F1
  8
BODY
 10
325.1459633581639
 20
466.88141735453996
 30
0.0
 11
280.0483189047715
 21
467.4854036641836
 31
0.0
  0
LINE
  5
2F2
  8
BODY
 10
280.0483189047715
 20
467.4854036641836
 30
0.0
 11
279.8469901348903
 21
463.86148580632175
 31
0.0
  0
LINE
  5
2F3
  8
BODY
 10
279.8469901348903
 20
463.86148580632175
 30
0.0
 11
275.61908596738476
 21
463.9621501912623
 31
0.0
  0
LINE
  5
2F4
  8
BODY
 10
275.61908596738476
 20
463.9621501912623
 30
0.0
 11
275.51842158244415
 21
467.384739279243
 31
0.0
  0
LINE
  5
2F5
  8
BODY
 10
275.51842158244415
 20
467.384739279243
 30
0.0
 11
278.9410106704248
 21
467.384739279243
 31
0.0
  0
LINE
  5
2F6
  8
BODY
 10
278.9410106704248
 20
467.384739279243
 30
0.0
 11
275.51842158244415
 21
467.6867324340648
 31
0.0
  0
LINE
  5
2F7
  8
BODY
 10
275.51842158244415
 20
467.6867324340648
 30
0.0
 11
275.61908596738476
 21
473.52526676062007
 31
0.0
  0
LINE
  5
2F8
  8
BODY
 10
275.61908596738476
 20
473.52526676062007
 30
0.0
 11
275.41775719750353
 21
467.6867324340648
 31
0.0
  0
LINE
  5
2F9
  8
BODY
 10
275.41775719750353
 20
467.6867324340648
 30
0.0
 11
272.4984900342259
 21
467.5860680491242
 31
0.0
  0
LINE
  5
2FA
  8
BODY
 10
272.4984900342259
 20
467.5860680491242
 30
0.0
 11
275.41775719750353
 21
467.384739279243
 31
0.0
  0
LINE
  5
2FB
  8
BODY
 10
275.41775719750353
 20
467.384739279243
 30
0.0
 11
275.2164284276223
 21
464.0628145762029
 31
0.0
  0
LINE
  5
2FC
  8
BODY
 10
275.2164284276223
 20
464.0628145762029
 30
0.0
 11
169.61948862492451
 21
466.1767666599557
 31
0.0
  0
LINE
  5
2FD
  8
BODY
 10
169.61948862492451
 20
466.1767666599557
 30
0.0
 11
169.3174954701027
 21
471.1093215220455
 31
0.0
  0
LINE
  5
2FE
  8
BODY
 10
169.3174954701027
 20
471.1093215220455
 30
0.0
 11
169.41815985504329
 21
466.1767666599557
 31
0.0
  0
LINE
  5
2FF
  8
BODY
 10
169.41815985504329
 20
466.1767666599557
 30
0.0
 11
115.3613851419368
 21
466.1767666599557
 31
0.0
  0
LINE
  5
300
  8
BODY
 10
115.3613851419368
 20
466.1767666599557
 30
0.0
 11
113.24743305818401
 21
468.4920475135897
 31
0.0
  0
LINE
  5
301
  8
BODY
 10
113.24743305818401
 20
468.4920475135897
 30
0.0
 11
114.75739883229313
 21
466.1767666599557
 31
0.0
  0
LINE
  5
302
  8
BODY
 10
114.75739883229313
 20
466.1767666599557
 30
0.0
 11
49.52687739077914
 21
465.4721159653715
 31
0.0
  0
LINE
  5
303
  8
BODY
 10
49.52687739077914
 20
465.4721159653715
 30
0.0
 11
49.52687739077914
 21
402.95953291725385
 31
0.0
  0
LINE
  5
304
  8
BODY
 10
49.52687739077914
 20
402.95953291725385
 30
0.0
 11
137.20555667404872
 21
402.3555466076102
 31
0.0
  0
LINE
  5
305
  8
BODY
 10
137.20555667404872
 20
402.3555466076102
 30
0.0
 11
159.35172136098248
 21
393.2957519629555
 31
0.0
  0
LINE
  5
306
  8
BODY
 10
159.35172136098248
 20
393.2957519629555
 30
0.0
 11
138.1115361385142
 21
402.2548822226696
 31
0.0
  0
LINE
  5
307
  8
BODY
 10
138.1115361385142
 20
402.2548822226696
 30
0.0
 11
334.20575800281864
 21
411.21401248238374
 31
0.0
  0
LINE
  5
308
  8
BODY
 10
334.20575800281864
 20
411.21401248238374
 30
0.0
 11
334.3064223877592
 21
413.93195087578016
 31
0.0
  0
LINE
  5
309
  8
BODY
 10
334.3064223877592
 20
413.93195087578016
 30
0.0
 11
343.7688745721764
 21
414.737265955305
 31
0.0
  0
LINE
  5
30A
  8
BODY
 10
343.7688745721764
 20
414.737265955305
 30
0.0
 11
334.20575800281864
 21
414.13327964566133
 31
0.0
  0
LINE
  5
30B
  8
BODY
 10
334.20575800281864
 20
414.13327964566133
 30
0.0
 11
343.36621703241394
 21
416.2472317294141
 31
0.0
  0
LINE
  5
30C
  8
BODY
 10
343.36621703241394
 20
416.2472317294141
 30
0.0
 11
334.20575800281864
 21
415.6432454197705
 31
0.0
  0
LINE
  5
30D
  8
BODY
 10
334.20575800281864
 20
415.6432454197705
 30
0.0
 11
334.3064223877592
 21
462.3515200322126
 31
0.0
  0
LINE
  5
30E
  8
BODY
 10
334.3064223877592
 20
462.3515200322126
 30
0.0
 11
377.6927722971613
 21
461.2442117978659
 31
0.0
  0
LINE
  5
30F
  8
BODY
 10
377.6927722971613
 20
461.2442117978659
 30
0.0
 11
377.5921079122207
 21
450.37245822428025
 31
0.0
  0
LINE
  5
310
  8
BODY
 10
377.5921079122207
 20
450.37245822428025
 30
0.0
 11
355.6472719951681
 21
445.9432252868935
 31
0.0
  0
LINE
  5
311
  8
BODY
 10
355.6472719951681
 20
445.9432252868935
 30
0.0
 11
368.4316488826253
 21
450.27179383933964
 31
0.0
  0
LINE
  5
312
  8
BODY
 10
368.4316488826253
 20
450.27179383933964
 30
0.0
 11
401.3489027582042
 21
449.9698006845178
 31
0.0
  0
LINE
  5
313
  8
BODY
 10
401.3489027582042
 20
449.9698006845178
 30
0.0
 11
406.5834507751158
 21
441.8159855043286
 31
0.0
  0
LINE
  5
314
  8
BODY
 10
406.5834507751158
 20
441.8159855043286
 30
0.0
 11
418.66317696798876
 21
441.8159855043286
 31
0.0
  0
LINE
  5
315
  8
BODY
 10
418.66317696798876
 20
441.8159855043286
 30
0.0
 11
406.68411516005636
 21
441.8159855043286
 31
0.0
  0
LINE
  5
316
  8
BODY
 10
406.68411516005636
 20
441.8159855043286
 30
0.0
 11
401.650895913026
 21
449.9698006845178
 31
0.0
  0
LINE
  5
317
  8
BODY
 10
401.650895913026
 20
449.9698006845178
 30
0.0
 11
528.9913428628952
 21
448.76182806523053
 31
0.0
  0
LINE
  5
318
  8
BODY
 10
528.9913428628952
 20
448.76182806523053
 30
0.0
 11
521.6428427622308
 21
448.9631568351117
 31
0.0
  0
LINE
  5
319
  8
BODY
 10
521.6428427622308
 20
448.9631568351117
 30
0.0
 11
521.7435071471714
 21
457.4189651701228
 31
0.0
  0
LINE
  5
31A
  8
BODY
 10
521.7435071471714
 20
457.4189651701228
 30
0.0
 11
545.0976444533924
 21
456.8149788604792
 31
0.0
  0
LINE
  5
31B
  8
BODY
 10
545.0976444533924
 20
456.8149788604792
 30
0.0
 11
542.7823635997585
 21
457.116972015301
 31
0.0
  0
LINE
  5
31C
  8
BODY
 10
542.7823635997585
 20
457.116972015301
 30
0.0
 11
542.7823635997585
 21
480.26978055164085
 31
0.0
  0
ENDSEC
  0
EOF
