  0
SECTION
  2
HEADER
  9
$ACADVER
  1
AC1009
  9
$DWGCODEPAGE
  3
ANSI_1252
  9
$INSBASE
 10
0.0
 20
0.0
 30
0.0
  9
$EXTMIN
 10
1e+20
 20
1e+20
 30
1e+20
  9
$EXTMAX
 10
-1e+20
 20
-1e+20
 30
-1e+20
  9
$LIMMIN
 10
0.0
 20
0.0
  9
$LIMMAX
 10
420.0
 20
297.0
  9
$ORTHOMODE
 70
0
  9
$REGENMODE
 70
1
  9
$FILLMODE
 70
1
  9
$DRAGMODE
 70
2
  9
$QTEXTMODE
 70
0
  9
$MIRRTEXT
 70
1
  9
$OSMODE
 70
20583
  9
$LTSCALE
 40
1.0
  9
$ATTMODE
 70
1
  9
$TEXTSIZE
 40
2.5
  9
$TRACEWID
 40
1.0
  9
$TEXTSTYLE
  7
Standard
  9
$CLAYER
  8
0
  9
$CELTYPE
  6
ByLayer
  9
$CECOLOR
 62
256
  9
$DIMSCALE
 40
1.0
  9
$DIMASZ
 40
2.5
  9
$DIMEXO
 40
0.625
  9
$DIMDLI
 40
3.75
  9
$DIMRND
 40
0.0
  9
$DIMDLE
 40
0.0
  9
$DIMEXE
 40
1.25
  9
$DIMTP
 40
0.0
  9
$DIMTM
 40
0.0
  9
$DIMTXT
 40
2.5
  9
$DIMCEN
 40
2.5
  9
$DIMTSZ
 40
0.0
  9
$DIMTOL
 70
0
  9
$DIMLIM
 70
0
  9
$DIMTIH
 70
0
  9
$DIMTOH
 70
0
  9
$DIMSE1
 70
0
  9
$DIMSE2
 70
0
  9
$DIMTAD
 70
1
  9
$DIMZIN
 70
8
  9
$DIMBLK
  1

  9
$DIMASO
 70
1
  9
$DIMSHO
 70
1
  9
$DIMPOST
  1

  9
$DIMAPOST
  1

  9
$DIMALT
 70
0
  9
$DIMALTD
 70
3
  9
$DIMALTF
 40
0.03937007874
  9
$DIMLFAC
 40
1.0
  9
$DIMTOFL
 70
1
  9
$DIMTVP
 40
0.0
  9
$DIMTIX
 70
0
  9
$DIMSOXD
 70
0
  9
$DIMSAH
 70
0
  9
$DIMBLK1
  1

  9
$DIMBLK2
  1

  9
$DIMSTYLE
  2
ISO-25
  9
$DIMCLRD
 70
0
  9
$DIMCLRE
 70
0
  9
$DIMCLRT
 70
0
  9
$DIMTFAC
 40
1.0
  9
$DIMGAP
 40
0.625
  9
$COORDS
 70
1
  9
$ATTDIA
 70
0
  9
$ATTREQ
 70
1
  9
$HANDLING
 70
1
  9
$LUNITS
 70
2
  9
$LUPREC
 70
4
  9
$SKETCHINC
 40
1.0
  9
$FILLETRAD
 40
10.0
  9
$AUNITS
 70
0
  9
$AUPREC
 70
2
  9
$MENU
  1
.
  9
$ELEVATION
 40
0.0
  9
$PELEVATION
 40
0.0
  9
$THICKNESS
 40
0.0
  9
$LIMCHECK
 70
0
  9
$CHAMFERA
 40
0.0
  9
$CHAMFERB
 40
0.0
  9
$SKPOLY
 70
0
  9
$TDCREATE
 40
2461145.7499189815
  9
$TDUPDATE
 40
2461145.7499189815
  9
$TDINDWG
 40
0.0
  9
$TDUSRTIMER
 40
0.0
  9
$USRTIMER
 70
1
  9
$ANGBASE
 50
0.0
  9
$ANGDIR
 70
0
  9
$PDMODE
 70
0
  9
$PDSIZE
 40
0.0
  9
$PLINEWID
 40
0.0
  9
$SPLFRAME
 70
0
  9
$SPLINETYPE
 70
6
  9
$SPLINESEGS
 70
8
  9
$HANDSEED
  5
370
  9
$SURFTAB1
 70
6
  9
$SURFTAB2
 70
6
  9
$SURFTYPE
 70
6
  9
$SURFU
 70
6
  9
$SURFV
 70
6
  9
$UCSNAME
  2

  9
$UCSORG
 10
0.0
 20
0.0
 30
0.0
  9
$UCSXDIR
 10
1.0
 20
0.0
 30
0.0
  9
$UCSYDIR
 10
0.0
 20
1.0
 30
0.0
  9
$PUCSNAME
  2

  9
$PUCSORG
 10
0.0
 20
0.0
 30
0.0
  9
$PUCSXDIR
 10
1.0
 20
0.0
 30
0.0
  9
$PUCSYDIR
 10
0.0
 20
1.0
 30
0.0
  9
$USERI1
 70
0
  9
$USERI2
 70
0
  9
$USERI3
 70
0
  9
$USERI4
 70
0
  9
$USERI5
 70
0
  9
$USERR1
 40
0.0
  9
$USERR2
 40
0.0
  9
$USERR3
 40
0.0
  9
$USERR4
 40
0.0
  9
$USERR5
 40
0.0
  9
$WORLDVIEW
 70
1
  9
$SHADEDGE
 70
3
  9
$SHADEDIF
 70
70
  9
$TILEMODE
 70
1
  9
$MAXACTVP
 70
64
  9
$PLIMCHECK
 70
0
  9
$PEXTMIN
 10
1e+20
 20
1e+20
 30
1e+20
  9
$PEXTMAX
 10
-1e+20
 20
-1e+20
 30
-1e+20
  9
$PLIMMIN
 10
0.0
 20
0.0
  9
$PLIMMAX
 10
420.0
 20
297.0
  9
$UNITMODE
 70
0
  9
$VISRETAIN
 70
1
  9
$PLINEGEN
 70
0
  9
$PSLTSCALE
 70
1
  0
ENDSEC
  0
SECTION
  2
TABLES
  0
TABLE
  2
VPORT
 70
1
  0
VPORT
  5
23
  2
*Active
 70
0
 10
0.0
 20
0.0
 11
1.0
 21
1.0
 12
0.0
 22
0.0
 13
0.0
 23
0.0
 14
0.5
 24
0.5
 15
0.5
 25
0.5
 16
0.0
 26
0.0
 36
1.0
 17
0.0
 27
0.0
 37
0.0
 40
1000.0
 41
1.34
 42
50.0
 43
0.0
 44
0.0
 50
0.0
 51
0.0
 71
0
 72
1000
 73
1
 74
3
 75
0
 76
0
 77
0
 78
0
  0
ENDTAB
  0
TABLE
  2
LTYPE
 70
3
  0
LTYPE
  5
24
  2
ByBlock
 70
0
  3

 72
65
 73
0
 40
0.0
  0
LTYPE
  5
25
  2
ByLayer
 70
0
  3

 72
65
 73
0
 40
0.0
  0
LTYPE
  5
26
  2
Continuous
 70
0
  3

 72
65
 73
0
 40
0.0
  0
ENDTAB
  0
TABLE
  2
LAYER
 70
7
  0
LAYER
  5
27
  2
0
 70
0
 62
7
  6
Continuous
  0
LAYER
  5
28
  2
Defpoints
 70
0
 62
7
  6
Continuous
  0
LAYER
  5
2D
  2
BODY
 70
0
 62
7
  6
Continuous
  0
LAYER
  5
2E
  2
AUX_VIEWS
 70
0
 62
8
  6
Continuous
  0
LAYER
  5
2F
  2
ANNOTATION
 70
0
 62
7
  6
Continuous
  0
LAYER
  5
30
  2
TITLE_BLOCK
 70
0
 62
8
  6
Continuous
  0
LAYER
  5
31
  2
PAGE_FRAME
 70
0
 62
9
  6
Continuous
  0
ENDTAB
  0
TABLE
  2
STYLE
 70
1
  0
STYLE
  5
29
  2
Standard
 70
0
 40
0.0
 41
1.0
 50
0.0
 71
0
 42
2.5
  3
txt
  4

  0
ENDTAB
  0
TABLE
  2
VIEW
 70
0
  0
ENDTAB
  0
TABLE
  2
UCS
 70
0
  0
ENDTAB
  0
TABLE
  2
APPID
 70
3
  0
APPID
  5
2A
  2
ACAD
 70
0
  0
APPID
  5
36E
  2
HATCHBACKGROUNDCOLOR
 70
0
  0
APPID
  5
36F
  2
EZDXF
 70
0
  0
ENDTAB
  0
TABLE
  2
DIMSTYLE
 70
1
  0
DIMSTYLE
105
2B
  2
Standard
 70
0
  3

  4

  5

  6

  7

 40
1.0
 41
2.5
 42
0.625
 43
3.75
 44
1.25
 45
0.0
 46
0.0
 47
0.0
 48
0.0
140
2.5
141
2.5
142
0.0
143
0.03937007874
144
1.0
145
0.0
146
1.0
147
0.625
 71
0
 72
0
 73
0
 74
0
 75
0
 76
0
 77
1
 78
8
170
0
171
3
172
1
173
0
174
0
175
0
176
0
177
0
178
0
  0
ENDTAB
  0
ENDSEC
  0
SECTION
  2
BLOCKS
  0
BLOCK
  5
18
  8
0
  2
$Model_Space
 70
0
 10
0.0
 20
0.0
 30
0.0
  3
$Model_Space
  1

1001
EZDXF
1000
CREATED_BY_EZDXF
1000
1.4.3 @ 2026-04-14T22:59:53.442060+00:00
1000
WRITTEN_BY_EZDXF
1000
1.4.3 @ 2026-04-14T22:59:53.494678+00:00
  0
ENDBLK
  5
19
  8
0
  0
BLOCK
  5
1C
  8
0
  2
$Paper_Space
 70
0
 10
0.0
 20
0.0
 30
0.0
  3
$Paper_Space
  1

  0
ENDBLK
  5
1D
  8
0
  0
ENDSEC
  0
SECTION
  2
ENTITIES
  0
LINE
  5
32
  8
BODY
 10
253.73851741080966
 20
150.8224738303781
 30
0.0
 11
257.7440717795343
 21
150.8224738303781
 31
0.0
  0
LINE
  5
33
  8
BODY
 10
257.7440717795343
 20
150.8224738303781
 30
0.0
 11
257.7974791711173
 21
150.7690664387951
 31
0.0
  0
LINE
  5
34
  8
BODY
 10
257.7974791711173
 20
150.7690664387951
 30
0.0
 11
257.7974791711173
 21
145.2146977141636
 31
0.0
  0
LINE
  5
35
  8
BODY
 10
257.7974791711173
 20
145.2146977141636
 30
0.0
 11
257.7440717795343
 21
145.1612903225806
 31
0.0
  0
LINE
  5
36
  8
BODY
 10
257.7440717795343
 20
145.1612903225806
 30
0.0
 11
257.4770348216193
 21
145.1612903225806
 31
0.0
  0
LINE
  5
37
  8
BODY
 10
257.4770348216193
 20
145.1612903225806
 30
0.0
 11
257.42362743003633
 21
145.10788293099762
 31
0.0
  0
LINE
  5
38
  8
BODY
 10
257.42362743003633
 20
145.10788293099762
 30
0.0
 11
257.20999786370436
 21
145.10788293099762
 31
0.0
  0
LINE
  5
39
  8
BODY
 10
257.20999786370436
 20
145.10788293099762
 30
0.0
 11
257.15659047212137
 21
145.05447553941463
 31
0.0
  0
LINE
  5
3A
  8
BODY
 10
257.15659047212137
 20
145.05447553941463
 30
0.0
 11
256.8895535142064
 21
145.05447553941463
 31
0.0
  0
LINE
  5
3B
  8
BODY
 10
256.8895535142064
 20
145.05447553941463
 30
0.0
 11
256.8361461226234
 21
145.00106814783163
 31
0.0
  0
LINE
  5
3C
  8
BODY
 10
256.8361461226234
 20
145.00106814783163
 30
0.0
 11
256.5157017731254
 21
145.00106814783163
 31
0.0
  0
LINE
  5
3D
  8
BODY
 10
256.5157017731254
 20
145.00106814783163
 30
0.0
 11
256.4622943815424
 21
144.94766075624864
 31
0.0
  0
LINE
  5
3E
  8
BODY
 10
256.4622943815424
 20
144.94766075624864
 30
0.0
 11
256.08844264046144
 21
144.94766075624864
 31
0.0
  0
LINE
  5
3F
  8
BODY
 10
256.08844264046144
 20
144.94766075624864
 30
0.0
 11
256.03503524887844
 21
144.89425336466564
 31
0.0
  0
LINE
  5
40
  8
BODY
 10
256.03503524887844
 20
144.89425336466564
 30
0.0
 11
255.6077761162145
 21
144.89425336466564
 31
0.0
  0
LINE
  5
41
  8
BODY
 10
255.6077761162145
 20
144.89425336466564
 30
0.0
 11
255.5543687246315
 21
144.84084597308265
 31
0.0
  0
LINE
  5
42
  8
BODY
 10
255.5543687246315
 20
144.84084597308265
 30
0.0
 11
254.96688741721854
 21
144.84084597308265
 31
0.0
  0
LINE
  5
43
  8
BODY
 10
254.96688741721854
 20
144.84084597308265
 30
0.0
 11
254.91348002563555
 21
144.78743858149966
 31
0.0
  0
LINE
  5
44
  8
BODY
 10
254.91348002563555
 20
144.78743858149966
 30
0.0
 11
253.73851741080966
 21
144.78743858149966
 31
0.0
  0
LINE
  5
45
  8
BODY
 10
253.73851741080966
 20
144.78743858149966
 30
0.0
 11
253.68511001922667
 21
144.84084597308265
 31
0.0
  0
LINE
  5
46
  8
BODY
 10
253.68511001922667
 20
144.84084597308265
 30
0.0
 11
253.68511001922667
 21
150.7690664387951
 31
0.0
  0
LINE
  5
47
  8
BODY
 10
253.68511001922667
 20
150.7690664387951
 30
0.0
 11
253.73851741080966
 21
150.8224738303781
 31
0.0
  0
LINE
  5
48
  8
BODY
 10
303.99487289040803
 20
165.29587694936976
 30
0.0
 11
304.101687673574
 21
164.1209143345439
 31
0.0
  0
LINE
  5
49
  8
BODY
 10
304.101687673574
 20
164.1209143345439
 30
0.0
 11
303.6210211493271
 21
164.28113650929288
 31
0.0
  0
LINE
  5
4A
  8
BODY
 10
303.6210211493271
 20
164.28113650929288
 30
0.0
 11
303.88805810724205
 21
163.48002563554797
 31
0.0
  0
LINE
  5
4B
  8
BODY
 10
303.88805810724205
 20
163.48002563554797
 30
0.0
 11
303.5142063661611
 21
163.85387737662893
 31
0.0
  0
LINE
  5
4C
  8
BODY
 10
303.5142063661611
 20
163.85387737662893
 30
0.0
 11
303.6210211493271
 21
162.67891476180301
 31
0.0
  0
LINE
  5
4D
  8
BODY
 10
303.6210211493271
 20
162.67891476180301
 30
0.0
 11
303.2471694082461
 21
163.15958128604996
 31
0.0
  0
LINE
  5
4E
  8
BODY
 10
303.2471694082461
 20
163.15958128604996
 30
0.0
 11
303.4073915829951
 21
161.9312112796411
 31
0.0
  0
LINE
  5
4F
  8
BODY
 10
303.4073915829951
 20
161.9312112796411
 30
0.0
 11
303.03353984191415
 21
162.41187780388805
 31
0.0
  0
LINE
  5
50
  8
BODY
 10
303.03353984191415
 20
162.41187780388805
 30
0.0
 11
303.2471694082461
 21
161.34372997222812
 31
0.0
  0
LINE
  5
51
  8
BODY
 10
303.2471694082461
 20
161.34372997222812
 30
0.0
 11
302.7665028839992
 21
161.50395214697716
 31
0.0
  0
LINE
  5
52
  8
BODY
 10
302.7665028839992
 20
161.50395214697716
 30
0.0
 11
303.08694723349714
 21
160.6494338816492
 31
0.0
  0
LINE
  5
53
  8
BODY
 10
303.08694723349714
 20
160.6494338816492
 30
0.0
 11
302.60628070925014
 21
160.80965605639818
 31
0.0
  0
LINE
  5
54
  8
BODY
 10
302.60628070925014
 20
160.80965605639818
 30
0.0
 11
302.92672505874816
 21
159.8483230079043
 31
0.0
  0
LINE
  5
55
  8
BODY
 10
302.92672505874816
 20
159.8483230079043
 30
0.0
 11
302.44605853450116
 21
160.06195257423627
 31
0.0
  0
LINE
  5
56
  8
BODY
 10
302.44605853450116
 20
160.06195257423627
 30
0.0
 11
302.8199102755822
 21
159.10061952574233
 31
0.0
  0
LINE
  5
57
  8
BODY
 10
302.8199102755822
 20
159.10061952574233
 30
0.0
 11
302.3392437513352
 21
159.47447126682334
 31
0.0
  0
LINE
  5
58
  8
BODY
 10
302.3392437513352
 20
159.47447126682334
 30
0.0
 11
302.7665028839992
 21
158.5665456099124
 31
0.0
  0
LINE
  5
59
  8
BODY
 10
302.7665028839992
 20
158.5665456099124
 30
0.0
 11
302.2858363597522
 21
158.78017517624437
 31
0.0
  0
LINE
  5
5A
  8
BODY
 10
302.2858363597522
 20
158.78017517624437
 30
0.0
 11
302.7130954924162
 21
157.6586199530015
 31
0.0
  0
LINE
  5
5B
  8
BODY
 10
302.7130954924162
 20
157.6586199530015
 30
0.0
 11
302.2324289681692
 21
158.03247169408246
 31
0.0
  0
LINE
  5
5C
  8
BODY
 10
302.2324289681692
 20
158.03247169408246
 30
0.0
 11
302.7130954924162
 21
156.91091647083954
 31
0.0
  0
LINE
  5
5D
  8
BODY
 10
302.7130954924162
 20
156.91091647083954
 30
0.0
 11
302.2324289681692
 21
157.2847682119205
 31
0.0
  0
LINE
  5
5E
  8
BODY
 10
302.2324289681692
 20
157.2847682119205
 30
0.0
 11
302.7130954924162
 21
156.16321298867763
 31
0.0
  0
LINE
  5
5F
  8
BODY
 10
302.7130954924162
 20
156.16321298867763
 30
0.0
 11
302.2324289681692
 21
156.53706472975858
 31
0.0
  0
LINE
  5
60
  8
BODY
 10
302.2324289681692
 20
156.53706472975858
 30
0.0
 11
302.7130954924162
 21
155.41550950651572
 31
0.0
  0
LINE
  5
61
  8
BODY
 10
302.7130954924162
 20
155.41550950651572
 30
0.0
 11
302.2324289681692
 21
155.78936124759667
 31
0.0
  0
LINE
  5
62
  8
BODY
 10
302.2324289681692
 20
155.78936124759667
 30
0.0
 11
302.7665028839992
 21
154.9882503738517
 31
0.0
  0
LINE
  5
63
  8
BODY
 10
302.7665028839992
 20
154.9882503738517
 30
0.0
 11
302.2858363597522
 21
154.82802819910273
 31
0.0
  0
LINE
  5
64
  8
BODY
 10
302.2858363597522
 20
154.82802819910273
 30
0.0
 11
302.87331766716517
 21
153.97350993377484
 31
0.0
  0
LINE
  5
65
  8
BODY
 10
302.87331766716517
 20
153.97350993377484
 30
0.0
 11
302.3392437513352
 21
154.2405468916898
 31
0.0
  0
LINE
  5
66
  8
BODY
 10
302.3392437513352
 20
154.2405468916898
 30
0.0
 11
302.98013245033115
 21
153.33262123477886
 31
0.0
  0
LINE
  5
67
  8
BODY
 10
302.98013245033115
 20
153.33262123477886
 30
0.0
 11
302.44605853450116
 21
153.5462508011109
 31
0.0
  0
LINE
  5
68
  8
BODY
 10
302.44605853450116
 20
153.5462508011109
 30
0.0
 11
303.08694723349714
 21
152.74513992736593
 31
0.0
  0
LINE
  5
69
  8
BODY
 10
303.08694723349714
 20
152.74513992736593
 30
0.0
 11
302.60628070925014
 21
152.53151036103395
 31
0.0
  0
LINE
  5
6A
  8
BODY
 10
302.60628070925014
 20
152.53151036103395
 30
0.0
 11
303.2471694082461
 21
151.94402905362102
 31
0.0
  0
LINE
  5
6B
  8
BODY
 10
303.2471694082461
 20
151.94402905362102
 30
0.0
 11
302.7130954924162
 21
152.050843836787
 31
0.0
  0
LINE
  5
6C
  8
BODY
 10
302.7130954924162
 20
152.050843836787
 30
0.0
 11
303.4073915829951
 21
151.24973296304205
 31
0.0
  0
LINE
  5
6D
  8
BODY
 10
303.4073915829951
 20
151.24973296304205
 30
0.0
 11
302.92672505874816
 21
151.03610339671008
 31
0.0
  0
LINE
  5
6E
  8
BODY
 10
302.92672505874816
 20
151.03610339671008
 30
0.0
 11
303.6210211493271
 21
150.34180730613116
 31
0.0
  0
LINE
  5
6F
  8
BODY
 10
303.6210211493271
 20
150.34180730613116
 30
0.0
 11
303.03353984191415
 21
150.60884426404613
 31
0.0
  0
LINE
  5
70
  8
BODY
 10
303.03353984191415
 20
150.60884426404613
 30
0.0
 11
303.83465071565905
 21
149.64751121555224
 31
0.0
  0
LINE
  5
71
  8
BODY
 10
303.83465071565905
 20
149.64751121555224
 30
0.0
 11
303.2471694082461
 21
149.86114078188422
 31
0.0
  0
LINE
  5
72
  8
BODY
 10
303.2471694082461
 20
149.86114078188422
 30
0.0
 11
304.315317239906
 21
148.25891903439435
 31
0.0
  0
LINE
  5
73
  8
BODY
 10
304.315317239906
 20
148.25891903439435
 30
0.0
 11
303.78124332407606
 21
148.20551164281136
 31
0.0
  0
LINE
  5
74
  8
BODY
 10
303.78124332407606
 20
148.20551164281136
 30
0.0
 11
304.58235419782096
 21
147.56462294381544
 31
0.0
  0
LINE
  5
75
  8
BODY
 10
304.58235419782096
 20
147.56462294381544
 30
0.0
 11
303.99487289040803
 21
147.72484511856442
 31
0.0
  0
LINE
  5
76
  8
BODY
 10
303.99487289040803
 20
147.72484511856442
 30
0.0
 11
304.849391155736
 21
146.87032685323646
 31
0.0
  0
LINE
  5
77
  8
BODY
 10
304.849391155736
 20
146.87032685323646
 30
0.0
 11
304.315317239906
 21
146.81691946165347
 31
0.0
  0
LINE
  5
78
  8
BODY
 10
304.315317239906
 20
146.81691946165347
 30
0.0
 11
305.11642811365095
 21
146.22943815424054
 31
0.0
  0
LINE
  5
79
  8
BODY
 10
305.11642811365095
 20
146.22943815424054
 30
0.0
 11
304.52894680623797
 21
146.33625293740653
 31
0.0
  0
LINE
  5
7A
  8
BODY
 10
304.52894680623797
 20
146.33625293740653
 30
0.0
 11
305.4368724631489
 21
145.48173467207863
 31
0.0
  0
LINE
  5
7B
  8
BODY
 10
305.4368724631489
 20
145.48173467207863
 30
0.0
 11
304.956205938902
 21
145.3749198889126
 31
0.0
  0
LINE
  5
7C
  8
BODY
 10
304.956205938902
 20
145.3749198889126
 30
0.0
 11
305.6505020294809
 21
145.05447553941463
 31
0.0
  0
LINE
  5
7D
  8
BODY
 10
305.6505020294809
 20
145.05447553941463
 30
0.0
 11
305.27665028839994
 21
144.68062379833367
 31
0.0
  0
LINE
  5
7E
  8
BODY
 10
305.27665028839994
 20
144.68062379833367
 30
0.0
 11
306.07776116214484
 21
144.14654988250373
 31
0.0
  0
LINE
  5
7F
  8
BODY
 10
306.07776116214484
 20
144.14654988250373
 30
0.0
 11
305.4368724631489
 21
144.30677205725272
 31
0.0
  0
LINE
  5
80
  8
BODY
 10
305.4368724631489
 20
144.30677205725272
 30
0.0
 11
306.3982055116428
 21
143.5056611835078
 31
0.0
  0
LINE
  5
81
  8
BODY
 10
306.3982055116428
 20
143.5056611835078
 30
0.0
 11
305.91753898739586
 21
143.34543900875877
 31
0.0
  0
LINE
  5
82
  8
BODY
 10
305.91753898739586
 20
143.34543900875877
 30
0.0
 11
306.7186498611408
 21
142.91817987609483
 31
0.0
  0
LINE
  5
83
  8
BODY
 10
306.7186498611408
 20
142.91817987609483
 30
0.0
 11
306.13116855372783
 21
142.97158726767782
 31
0.0
  0
LINE
  5
84
  8
BODY
 10
306.13116855372783
 20
142.97158726767782
 30
0.0
 11
307.0925016022218
 21
142.2238837855159
 31
0.0
  0
LINE
  5
85
  8
BODY
 10
307.0925016022218
 20
142.2238837855159
 30
0.0
 11
306.6118350779748
 21
142.06366161076693
 31
0.0
  0
LINE
  5
86
  8
BODY
 10
306.6118350779748
 20
142.06366161076693
 30
0.0
 11
307.4663533433027
 21
141.529587694937
 31
0.0
  0
LINE
  5
87
  8
BODY
 10
307.4663533433027
 20
141.529587694937
 30
0.0
 11
306.9856868190558
 21
141.36936552018796
 31
0.0
  0
LINE
  5
88
  8
BODY
 10
306.9856868190558
 20
141.36936552018796
 30
0.0
 11
307.8402050843837
 21
140.888698995941
 31
0.0
  0
LINE
  5
89
  8
BODY
 10
307.8402050843837
 20
140.888698995941
 30
0.0
 11
307.19931638538776
 21
140.995513779107
 31
0.0
  0
LINE
  5
8A
  8
BODY
 10
307.19931638538776
 20
140.995513779107
 30
0.0
 11
308.10724204229865
 21
140.46143986327706
 31
0.0
  0
LINE
  5
8B
  8
BODY
 10
308.10724204229865
 20
140.46143986327706
 30
0.0
 11
307.6265755180517
 21
140.30121768852808
 31
0.0
  0
LINE
  5
8C
  8
BODY
 10
307.6265755180517
 20
140.30121768852808
 30
0.0
 11
309.0151676992096
 21
138.9660328989532
 31
0.0
  0
LINE
  5
8D
  8
BODY
 10
309.0151676992096
 20
138.9660328989532
 30
0.0
 11
308.5345011749626
 21
138.8058107242042
 31
0.0
  0
LINE
  5
8E
  8
BODY
 10
308.5345011749626
 20
138.8058107242042
 30
0.0
 11
309.28220465712457
 21
138.59218115787223
 31
0.0
  0
LINE
  5
8F
  8
BODY
 10
309.28220465712457
 20
138.59218115787223
 30
0.0
 11
308.8015381328776
 21
138.43195898312325
 31
0.0
  0
LINE
  5
90
  8
BODY
 10
308.8015381328776
 20
138.43195898312325
 30
0.0
 11
309.8162785729545
 21
137.73766289254434
 31
0.0
  0
LINE
  5
91
  8
BODY
 10
309.8162785729545
 20
137.73766289254434
 30
0.0
 11
309.2287972655416
 21
137.73766289254434
 31
0.0
  0
LINE
  5
92
  8
BODY
 10
309.2287972655416
 20
137.73766289254434
 30
0.0
 11
310.67079683828246
 21
136.45588549455243
 31
0.0
  0
LINE
  5
93
  8
BODY
 10
310.67079683828246
 20
136.45588549455243
 30
0.0
 11
310.0299081392865
 21
136.50929288613543
 31
0.0
  0
LINE
  5
94
  8
BODY
 10
310.0299081392865
 20
136.50929288613543
 30
0.0
 11
310.9912411877804
 21
135.9752189703055
 31
0.0
  0
LINE
  5
95
  8
BODY
 10
310.9912411877804
 20
135.9752189703055
 30
0.0
 11
310.4571672719504
 21
135.9218115787225
 31
0.0
  0
LINE
  5
96
  8
BODY
 10
310.4571672719504
 20
135.9218115787225
 30
0.0
 11
311.8991668446913
 21
134.5866267891476
 31
0.0
  0
LINE
  5
97
  8
BODY
 10
311.8991668446913
 20
134.5866267891476
 30
0.0
 11
311.41850032044437
 21
134.42640461439862
 31
0.0
  0
LINE
  5
98
  8
BODY
 10
311.41850032044437
 20
134.42640461439862
 30
0.0
 11
312.32642597735526
 21
133.99914548173467
 31
0.0
  0
LINE
  5
99
  8
BODY
 10
312.32642597735526
 20
133.99914548173467
 30
0.0
 11
311.7389446699423
 21
133.94573809015168
 31
0.0
  0
LINE
  5
9A
  8
BODY
 10
311.7389446699423
 20
133.94573809015168
 30
0.0
 11
312.75368511001926
 21
133.3582567827387
 31
0.0
  0
LINE
  5
9B
  8
BODY
 10
312.75368511001926
 20
133.3582567827387
 30
0.0
 11
312.27301858577226
 21
133.1980346079897
 31
0.0
  0
LINE
  5
9C
  8
BODY
 10
312.27301858577226
 20
133.1980346079897
 30
0.0
 11
313.1809442426832
 21
132.71736808374277
 31
0.0
  0
LINE
  5
9D
  8
BODY
 10
313.1809442426832
 20
132.71736808374277
 30
0.0
 11
312.6468703268532
 21
132.61055330057678
 31
0.0
  0
LINE
  5
9E
  8
BODY
 10
312.6468703268532
 20
132.61055330057678
 30
0.0
 11
313.60820337534716
 21
132.07647938474685
 31
0.0
  0
LINE
  5
9F
  8
BODY
 10
313.60820337534716
 20
132.07647938474685
 30
0.0
 11
313.1275368511002
 21
131.91625720999787
 31
0.0
  0
LINE
  5
A0
  8
BODY
 10
313.1275368511002
 20
131.91625720999787
 30
0.0
 11
313.9820551164281
 21
131.5424054689169
 31
0.0
  0
LINE
  5
A1
  8
BODY
 10
313.9820551164281
 20
131.5424054689169
 30
0.0
 11
313.4479812005982
 21
131.43559068575092
 31
0.0
  0
LINE
  5
A2
  8
BODY
 10
313.4479812005982
 20
131.43559068575092
 30
0.0
 11
314.46272164067506
 21
130.84810937833794
 31
0.0
  0
LINE
  5
A3
  8
BODY
 10
314.46272164067506
 20
130.84810937833794
 30
0.0
 11
313.82183294167913
 21
130.90151676992093
 31
0.0
  0
LINE
  5
A4
  8
BODY
 10
313.82183294167913
 20
130.90151676992093
 30
0.0
 11
314.7831659901731
 21
130.367442854091
 31
0.0
  0
LINE
  5
A5
  8
BODY
 10
314.7831659901731
 20
130.367442854091
 30
0.0
 11
314.2490920743431
 21
130.260628070925
 31
0.0
  0
LINE
  5
A6
  8
BODY
 10
314.2490920743431
 20
130.260628070925
 30
0.0
 11
315.15701773125403
 21
129.77996154667807
 31
0.0
  0
LINE
  5
A7
  8
BODY
 10
315.15701773125403
 20
129.77996154667807
 30
0.0
 11
314.62294381542404
 21
129.67314676351208
 31
0.0
  0
LINE
  5
A8
  8
BODY
 10
314.62294381542404
 20
129.67314676351208
 30
0.0
 11
316.1183507797479
 21
128.33796197393718
 31
0.0
  0
LINE
  5
A9
  8
BODY
 10
316.1183507797479
 20
128.33796197393718
 30
0.0
 11
315.584276863918
 21
128.2311471907712
 31
0.0
  0
LINE
  5
AA
  8
BODY
 10
315.584276863918
 20
128.2311471907712
 30
0.0
 11
316.54560991241186
 21
127.69707327494126
 31
0.0
  0
LINE
  5
AB
  8
BODY
 10
316.54560991241186
 20
127.69707327494126
 30
0.0
 11
316.0649433881649
 21
127.53685110019228
 31
0.0
  0
LINE
  5
AC
  8
BODY
 10
316.0649433881649
 20
127.53685110019228
 30
0.0
 11
316.9194616534929
 21
127.16299935911127
 31
0.0
  0
LINE
  5
AD
  8
BODY
 10
316.9194616534929
 20
127.16299935911127
 30
0.0
 11
316.49220252082887
 21
126.8959624011963
 31
0.0
  0
LINE
  5
AE
  8
BODY
 10
316.49220252082887
 20
126.8959624011963
 30
0.0
 11
317.3467207861568
 21
126.52211066011535
 31
0.0
  0
LINE
  5
AF
  8
BODY
 10
317.3467207861568
 20
126.52211066011535
 30
0.0
 11
316.9194616534929
 21
126.25507370220038
 31
0.0
  0
LINE
  5
B0
  8
BODY
 10
316.9194616534929
 20
126.25507370220038
 30
0.0
 11
317.77397991882077
 21
125.88122196111942
 31
0.0
  0
LINE
  5
B1
  8
BODY
 10
317.77397991882077
 20
125.88122196111942
 30
0.0
 11
317.18649861140784
 21
125.82781456953643
 31
0.0
  0
LINE
  5
B2
  8
BODY
 10
317.18649861140784
 20
125.82781456953643
 30
0.0
 11
318.1478316599017
 21
125.13351847895746
 31
0.0
  0
LINE
  5
B3
  8
BODY
 10
318.1478316599017
 20
125.13351847895746
 30
0.0
 11
317.5603503524888
 21
125.29374065370644
 31
0.0
  0
LINE
  5
B4
  8
BODY
 10
317.5603503524888
 20
125.29374065370644
 30
0.0
 11
318.62849818414867
 21
124.54603717154453
 31
0.0
  0
LINE
  5
B5
  8
BODY
 10
318.62849818414867
 20
124.54603717154453
 30
0.0
 11
318.09442426831873
 21
124.43922238837854
 31
0.0
  0
LINE
  5
B6
  8
BODY
 10
318.09442426831873
 20
124.43922238837854
 30
0.0
 11
319.42960905789363
 21
123.31766716513562
 31
0.0
  0
LINE
  5
B7
  8
BODY
 10
319.42960905789363
 20
123.31766716513562
 30
0.0
 11
318.7887203588977
 21
123.37107455671861
 31
0.0
  0
LINE
  5
B8
  8
BODY
 10
318.7887203588977
 20
123.37107455671861
 30
0.0
 11
319.8034607989746
 21
122.6767784661397
 31
0.0
  0
LINE
  5
B9
  8
BODY
 10
319.8034607989746
 20
122.6767784661397
 30
0.0
 11
319.32279427472764
 21
122.51655629139071
 31
0.0
  0
LINE
  5
BA
  8
BODY
 10
319.32279427472764
 20
122.51655629139071
 30
0.0
 11
320.23071993163853
 21
122.03588976714377
 31
0.0
  0
LINE
  5
BB
  8
BODY
 10
320.23071993163853
 20
122.03588976714377
 30
0.0
 11
319.5898312326426
 21
122.08929715872677
 31
0.0
  0
LINE
  5
BC
  8
BODY
 10
319.5898312326426
 20
122.08929715872677
 30
0.0
 11
320.5511642811365
 21
121.50181585131384
 31
0.0
  0
LINE
  5
BD
  8
BODY
 10
320.5511642811365
 20
121.50181585131384
 30
0.0
 11
320.01709036530656
 21
121.44840845973084
 31
0.0
  0
LINE
  5
BE
  8
BODY
 10
320.01709036530656
 20
121.44840845973084
 30
0.0
 11
320.9784234138005
 21
120.80751976073486
 31
0.0
  0
LINE
  5
BF
  8
BODY
 10
320.9784234138005
 20
120.80751976073486
 30
0.0
 11
320.5511642811365
 21
120.5404828028199
 31
0.0
  0
LINE
  5
C0
  8
BODY
 10
320.5511642811365
 20
120.5404828028199
 30
0.0
 11
321.40568254646445
 21
120.11322367015595
 31
0.0
  0
LINE
  5
C1
  8
BODY
 10
321.40568254646445
 20
120.11322367015595
 30
0.0
 11
320.8182012390515
 21
120.16663106173894
 31
0.0
  0
LINE
  5
C2
  8
BODY
 10
320.8182012390515
 20
120.16663106173894
 30
0.0
 11
322.20679342020935
 21
118.77803888058105
 31
0.0
  0
LINE
  5
C3
  8
BODY
 10
322.20679342020935
 20
118.77803888058105
 30
0.0
 11
321.5659047212134
 21
118.88485366374704
 31
0.0
  0
LINE
  5
C4
  8
BODY
 10
321.5659047212134
 20
118.88485366374704
 30
0.0
 11
322.5806451612903
 21
118.13715018158513
 31
0.0
  0
LINE
  5
C5
  8
BODY
 10
322.5806451612903
 20
118.13715018158513
 30
0.0
 11
321.9397564622944
 21
118.24396496475111
 31
0.0
  0
LINE
  5
C6
  8
BODY
 10
321.9397564622944
 20
118.24396496475111
 30
0.0
 11
322.84768211920533
 21
117.65648365733819
 31
0.0
  0
LINE
  5
C7
  8
BODY
 10
322.84768211920533
 20
117.65648365733819
 30
0.0
 11
322.31360820337534
 21
117.60307626575519
 31
0.0
  0
LINE
  5
C8
  8
BODY
 10
322.31360820337534
 20
117.60307626575519
 30
0.0
 11
323.2749412518693
 21
116.90878017517622
 31
0.0
  0
LINE
  5
C9
  8
BODY
 10
323.2749412518693
 20
116.90878017517622
 30
0.0
 11
322.68745994445635
 21
116.90878017517622
 31
0.0
  0
LINE
  5
CA
  8
BODY
 10
322.68745994445635
 20
116.90878017517622
 30
0.0
 11
323.59538560136724
 21
116.32129886776329
 31
0.0
  0
LINE
  5
CB
  8
BODY
 10
323.59538560136724
 20
116.32129886776329
 30
0.0
 11
323.0613116855373
 21
116.2678914761803
 31
0.0
  0
LINE
  5
CC
  8
BODY
 10
323.0613116855373
 20
116.2678914761803
 30
0.0
 11
323.9692373424482
 21
115.41337321085234
 31
0.0
  0
LINE
  5
CD
  8
BODY
 10
323.9692373424482
 20
115.41337321085234
 30
0.0
 11
323.43516342661826
 21
115.57359538560138
 31
0.0
  0
LINE
  5
CE
  8
BODY
 10
323.43516342661826
 20
115.57359538560138
 30
0.0
 11
324.28968169194616
 21
115.03952146977139
 31
0.0
  0
LINE
  5
CF
  8
BODY
 10
324.28968169194616
 20
115.03952146977139
 30
0.0
 11
323.8090151676992
 21
114.8792992950224
 31
0.0
  0
LINE
  5
D0
  8
BODY
 10
323.8090151676992
 20
114.8792992950224
 30
0.0
 11
324.66353343302717
 21
114.34522537919247
 31
0.0
  0
LINE
  5
D1
  8
BODY
 10
324.66353343302717
 20
114.34522537919247
 30
0.0
 11
324.1294595171972
 21
114.23841059602648
 31
0.0
  0
LINE
  5
D2
  8
BODY
 10
324.1294595171972
 20
114.23841059602648
 30
0.0
 11
324.98397778252513
 21
113.70433668019655
 31
0.0
  0
LINE
  5
D3
  8
BODY
 10
324.98397778252513
 20
113.70433668019655
 30
0.0
 11
324.50331125827813
 21
113.54411450544757
 31
0.0
  0
LINE
  5
D4
  8
BODY
 10
324.50331125827813
 20
113.54411450544757
 30
0.0
 11
325.3578295236061
 21
112.7430036317026
 31
0.0
  0
LINE
  5
D5
  8
BODY
 10
325.3578295236061
 20
112.7430036317026
 30
0.0
 11
324.82375560777615
 21
112.90322580645159
 31
0.0
  0
LINE
  5
D6
  8
BODY
 10
324.82375560777615
 20
112.90322580645159
 30
0.0
 11
325.67827387310405
 21
112.31574449903866
 31
0.0
  0
LINE
  5
D7
  8
BODY
 10
325.67827387310405
 20
112.31574449903866
 30
0.0
 11
325.1441999572741
 21
112.26233710745566
 31
0.0
  0
LINE
  5
D8
  8
BODY
 10
325.1441999572741
 20
112.26233710745566
 30
0.0
 11
326.37256996368296
 21
110.82033753471478
 31
0.0
  0
LINE
  5
D9
  8
BODY
 10
326.37256996368296
 20
110.82033753471478
 30
0.0
 11
321.35227515488145
 21
120.5404828028199
 31
0.0
  0
LINE
  5
DA
  8
BODY
 10
321.35227515488145
 20
120.5404828028199
 30
0.0
 11
308.74813074129463
 21
139.39329203161714
 31
0.0
  0
LINE
  5
DB
  8
BODY
 10
308.74813074129463
 20
139.39329203161714
 30
0.0
 11
305.00961333048497
 21
146.38966032898952
 31
0.0
  0
LINE
  5
DC
  8
BODY
 10
305.00961333048497
 20
146.38966032898952
 30
0.0
 11
303.3005767998291
 21
151.51676992095707
 31
0.0
  0
LINE
  5
DD
  8
BODY
 10
303.3005767998291
 20
151.51676992095707
 30
0.0
 11
302.92672505874816
 21
155.5223242896817
 31
0.0
  0
LINE
  5
DE
  8
BODY
 10
302.92672505874816
 20
155.5223242896817
 30
0.0
 11
302.7130954924162
 21
154.66780602435375
 31
0.0
  0
LINE
  5
DF
  8
BODY
 10
302.7130954924162
 20
154.66780602435375
 30
0.0
 11
302.87331766716517
 21
159.7949156163213
 31
0.0
  0
LINE
  5
E0
  8
BODY
 10
302.87331766716517
 20
159.7949156163213
 30
0.0
 11
303.03353984191415
 21
159.3676564836573
 31
0.0
  0
LINE
  5
E1
  8
BODY
 10
303.03353984191415
 20
159.3676564836573
 30
0.0
 11
303.3005767998291
 21
161.71758171330913
 31
0.0
  0
LINE
  5
E2
  8
BODY
 10
303.3005767998291
 20
161.71758171330913
 30
0.0
 11
304.475539414655
 21
164.70839564195683
 31
0.0
  0
LINE
  5
E3
  8
BODY
 10
304.475539414655
 20
164.70839564195683
 30
0.0
 11
303.99487289040803
 21
165.29587694936976
 31
0.0
  0
LINE
  5
E4
  8
BODY
 10
253.73851741080966
 20
186.12475966673787
 30
0.0
 11
255.92822046571246
 21
186.0179448835719
 31
0.0
  0
LINE
  5
E5
  8
BODY
 10
255.92822046571246
 20
186.0179448835719
 30
0.0
 11
257.7974791711173
 21
185.64409314249093
 31
0.0
  0
LINE
  5
E6
  8
BODY
 10
257.7974791711173
 20
185.64409314249093
 30
0.0
 11
257.7440717795343
 21
153.59965819269388
 31
0.0
  0
LINE
  5
E7
  8
BODY
 10
257.7440717795343
 20
153.59965819269388
 30
0.0
 11
253.68511001922667
 21
153.65306558427687
 31
0.0
  0
LINE
  5
E8
  8
BODY
 10
253.68511001922667
 20
153.65306558427687
 30
0.0
 11
253.68511001922667
 21
172.50587481307412
 31
0.0
  0
LINE
  5
E9
  8
BODY
 10
253.68511001922667
 20
172.50587481307412
 30
0.0
 11
256.9429609057894
 21
172.5592822046571
 31
0.0
  0
LINE
  5
EA
  8
BODY
 10
256.9429609057894
 20
172.5592822046571
 30
0.0
 11
257.0497756889554
 21
172.45246742149112
 31
0.0
  0
LINE
  5
EB
  8
BODY
 10
257.0497756889554
 20
172.45246742149112
 30
0.0
 11
257.6906643879513
 21
172.5592822046571
 31
0.0
  0
LINE
  5
EC
  8
BODY
 10
257.6906643879513
 20
172.5592822046571
 30
0.0
 11
257.0497756889554
 21
172.7195043794061
 31
0.0
  0
LINE
  5
ED
  8
BODY
 10
257.0497756889554
 20
172.7195043794061
 30
0.0
 11
256.9429609057894
 21
172.5592822046571
 31
0.0
  0
LINE
  5
EE
  8
BODY
 10
256.9429609057894
 20
172.5592822046571
 30
0.0
 11
253.68511001922667
 21
172.6126895962401
 31
0.0
  0
LINE
  5
EF
  8
BODY
 10
253.68511001922667
 20
172.6126895962401
 30
0.0
 11
253.73851741080966
 21
186.12475966673787
 31
0.0
  0
LINE
  5
F0
  8
BODY
 10
264.0995513779107
 20
187.45994445631277
 30
0.0
 11
267.99829096346934
 21
185.11001922666094
 31
0.0
  0
LINE
  5
F1
  8
BODY
 10
267.99829096346934
 20
185.11001922666094
 30
0.0
 11
271.46977141636404
 21
182.01239051484725
 31
0.0
  0
LINE
  5
F2
  8
BODY
 10
271.46977141636404
 20
182.01239051484725
 30
0.0
 11
273.65947447126683
 21
179.28861354411447
 31
0.0
  0
LINE
  5
F3
  8
BODY
 10
273.65947447126683
 20
179.28861354411447
 30
0.0
 11
275.74236274300364
 21
175.65691091647085
 31
0.0
  0
LINE
  5
F4
  8
BODY
 10
275.74236274300364
 20
175.65691091647085
 30
0.0
 11
277.1843623157445
 21
171.65135654774622
 31
0.0
  0
LINE
  5
F5
  8
BODY
 10
277.1843623157445
 20
171.65135654774622
 30
0.0
 11
277.82525101474045
 21
168.2866908780175
 31
0.0
  0
LINE
  5
F6
  8
BODY
 10
277.82525101474045
 20
168.2866908780175
 30
0.0
 11
277.93206579790643
 21
163.74706259346294
 31
0.0
  0
LINE
  5
F7
  8
BODY
 10
277.93206579790643
 20
163.74706259346294
 30
0.0
 11
277.3445844904935
 21
159.9017303994873
 31
0.0
  0
LINE
  5
F8
  8
BODY
 10
277.3445844904935
 20
159.9017303994873
 30
0.0
 11
276.0093997009186
 21
155.84276863917967
 31
0.0
  0
LINE
  5
F9
  8
BODY
 10
276.0093997009186
 20
155.84276863917967
 30
0.0
 11
274.1401409955138
 21
152.31788079470198
 31
0.0
  0
LINE
  5
FA
  8
BODY
 10
274.1401409955138
 20
152.31788079470198
 30
0.0
 11
271.629993591113
 21
149.06002990813926
 31
0.0
  0
LINE
  5
FB
  8
BODY
 10
271.629993591113
 20
149.06002990813926
 30
0.0
 11
268.63917966246527
 21
146.28284554582353
 31
0.0
  0
LINE
  5
FC
  8
BODY
 10
268.63917966246527
 20
146.28284554582353
 30
0.0
 11
265.5415509506516
 21
144.19995727408673
 31
0.0
  0
LINE
  5
FD
  8
BODY
 10
265.5415509506516
 20
144.19995727408673
 30
0.0
 11
261.9098483230079
 21
142.54432813501387
 31
0.0
  0
LINE
  5
FE
  8
BODY
 10
261.9098483230079
 20
142.54432813501387
 30
0.0
 11
257.95770134586627
 21
141.476180303354
 31
0.0
  0
LINE
  5
FF
  8
BODY
 10
257.95770134586627
 20
141.476180303354
 30
0.0
 11
253.73851741080966
 21
141.102328562273
 31
0.0
  0
LINE
  5
100
  8
BODY
 10
253.73851741080966
 20
141.102328562273
 30
0.0
 11
253.73851741080966
 21
141.36936552018796
 31
0.0
  0
LINE
  5
101
  8
BODY
 10
253.73851741080966
 20
141.36936552018796
 30
0.0
 11
258.9190343943602
 21
141.95684682760094
 31
0.0
  0
LINE
  5
102
  8
BODY
 10
258.9190343943602
 20
141.95684682760094
 30
0.0
 11
262.76436658833586
 21
143.1318094424268
 31
0.0
  0
LINE
  5
103
  8
BODY
 10
262.76436658833586
 20
143.1318094424268
 30
0.0
 11
265.96881008331553
 21
144.73403118991666
 31
0.0
  0
LINE
  5
104
  8
BODY
 10
265.96881008331553
 20
144.73403118991666
 30
0.0
 11
269.0664387951293
 21
146.92373424481946
 31
0.0
  0
LINE
  5
105
  8
BODY
 10
269.0664387951293
 20
146.92373424481946
 30
0.0
 11
271.843623157445
 21
149.64751121555224
 31
0.0
  0
LINE
  5
106
  8
BODY
 10
271.843623157445
 20
149.64751121555224
 30
0.0
 11
274.19354838709677
 21
152.8519547105319
 31
0.0
  0
LINE
  5
107
  8
BODY
 10
274.19354838709677
 20
152.8519547105319
 30
0.0
 11
275.79577013458663
 21
155.94958342234565
 31
0.0
  0
LINE
  5
108
  8
BODY
 10
275.79577013458663
 20
155.94958342234565
 30
0.0
 11
276.65028839991453
 21
158.83358256782736
 31
0.0
  0
LINE
  5
109
  8
BODY
 10
276.65028839991453
 20
158.83358256782736
 30
0.0
 11
276.7571031830806
 21
158.6199530014954
 31
0.0
  0
LINE
  5
10A
  8
BODY
 10
276.7571031830806
 20
158.6199530014954
 30
0.0
 11
277.07754753257854
 21
160.54261909848321
 31
0.0
  0
LINE
  5
10B
  8
BODY
 10
277.07754753257854
 20
160.54261909848321
 30
0.0
 11
277.1843623157445
 21
160.27558214056825
 31
0.0
  0
LINE
  5
10C
  8
BODY
 10
277.1843623157445
 20
160.27558214056825
 30
0.0
 11
277.66502883999146
 21
163.58684041871396
 31
0.0
  0
LINE
  5
10D
  8
BODY
 10
277.66502883999146
 20
163.58684041871396
 30
0.0
 11
277.61162144840847
 21
168.01965392010254
 31
0.0
  0
LINE
  5
10E
  8
BODY
 10
277.61162144840847
 20
168.01965392010254
 30
0.0
 11
277.5048066652425
 21
167.32535782952357
 31
0.0
  0
LINE
  5
10F
  8
BODY
 10
277.5048066652425
 20
167.32535782952357
 30
0.0
 11
277.13095492416153
 21
170.85024567400126
 31
0.0
  0
LINE
  5
110
  8
BODY
 10
277.13095492416153
 20
170.85024567400126
 30
0.0
 11
275.52873317667166
 21
175.55009613330486
 31
0.0
  0
LINE
  5
111
  8
BODY
 10
275.52873317667166
 20
175.55009613330486
 30
0.0
 11
273.60606707968384
 21
178.9681691946165
 31
0.0
  0
LINE
  5
112
  8
BODY
 10
273.60606707968384
 20
178.9681691946165
 30
0.0
 11
271.2027344584491
 21
181.95898312326426
 31
0.0
  0
LINE
  5
113
  8
BODY
 10
271.2027344584491
 20
181.95898312326426
 30
0.0
 11
267.89147618030336
 21
184.89638966032896
 31
0.0
  0
LINE
  5
114
  8
BODY
 10
267.89147618030336
 20
184.89638966032896
 30
0.0
 11
263.4586626789148
 21
187.40653706472978
 31
0.0
  0
LINE
  5
115
  8
BODY
 10
263.4586626789148
 20
187.40653706472978
 30
0.0
 11
264.0995513779107
 21
187.45994445631277
 31
0.0
  0
LINE
  5
116
  8
BODY
 10
263.0848109378338
 20
187.45994445631277
 30
0.0
 11
270.13458662678914
 21
182.76009399700916
 31
0.0
  0
LINE
  5
117
  8
BODY
 10
270.13458662678914
 20
182.76009399700916
 30
0.0
 11
274.99465926084173
 21
176.24439222388378
 31
0.0
  0
LINE
  5
118
  8
BODY
 10
274.99465926084173
 20
176.24439222388378
 30
0.0
 11
277.3979918820765
 21
168.3400982696005
 31
0.0
  0
LINE
  5
119
  8
BODY
 10
277.3979918820765
 20
168.3400982696005
 30
0.0
 11
277.02414014099554
 21
160.38239692373423
 31
0.0
  0
LINE
  5
11A
  8
BODY
 10
277.02414014099554
 20
160.38239692373423
 30
0.0
 11
273.9799188207648
 21
152.8519547105319
 31
0.0
  0
LINE
  5
11B
  8
BODY
 10
273.9799188207648
 20
152.8519547105319
 30
0.0
 11
268.63917966246527
 21
146.81691946165347
 31
0.0
  0
LINE
  5
11C
  8
BODY
 10
268.63917966246527
 20
146.81691946165347
 30
0.0
 11
262.0166631061739
 21
143.0249946592608
 31
0.0
  0
LINE
  5
11D
  8
BODY
 10
262.0166631061739
 20
143.0249946592608
 30
0.0
 11
253.73851741080966
 21
141.529587694937
 31
0.0
  0
LINE
  5
11E
  8
BODY
 10
253.73851741080966
 20
141.529587694937
 30
0.0
 11
260.41444135868403
 21
142.65114291817986
 31
0.0
  0
LINE
  5
11F
  8
BODY
 10
260.41444135868403
 20
142.65114291817986
 30
0.0
 11
267.09036530655845
 21
145.90899380474258
 31
0.0
  0
LINE
  5
120
  8
BODY
 10
267.09036530655845
 20
145.90899380474258
 30
0.0
 11
260.73488570818205
 21
142.81136509292884
 31
0.0
  0
LINE
  5
121
  8
BODY
 10
260.73488570818205
 20
142.81136509292884
 30
0.0
 11
253.73851741080966
 21
141.74321726126897
 31
0.0
  0
LINE
  5
122
  8
BODY
 10
253.73851741080966
 20
141.74321726126897
 30
0.0
 11
253.73851741080966
 21
143.1852168340098
 31
0.0
  0
LINE
  5
123
  8
BODY
 10
253.73851741080966
 20
143.1852168340098
 30
0.0
 11
261.58940397350995
 21
144.57380901516768
 31
0.0
  0
LINE
  5
124
  8
BODY
 10
261.58940397350995
 20
144.57380901516768
 30
0.0
 11
267.78466139713737
 21
148.47254860072633
 31
0.0
  0
LINE
  5
125
  8
BODY
 10
267.78466139713737
 20
148.47254860072633
 30
0.0
 11
261.322367015595
 21
144.57380901516768
 31
0.0
  0
LINE
  5
126
  8
BODY
 10
261.322367015595
 20
144.57380901516768
 30
0.0
 11
253.73851741080966
 21
143.2386242255928
 31
0.0
  0
LINE
  5
127
  8
BODY
 10
253.73851741080966
 20
143.2386242255928
 30
0.0
 11
259.7735526596881
 21
144.19995727408673
 31
0.0
  0
LINE
  5
128
  8
BODY
 10
259.7735526596881
 20
144.19995727408673
 30
0.0
 11
265.2211066011536
 21
146.6032898953215
 31
0.0
  0
LINE
  5
129
  8
BODY
 10
265.2211066011536
 20
146.6032898953215
 30
0.0
 11
259.29288613544117
 21
144.14654988250373
 31
0.0
  0
LINE
  5
12A
  8
BODY
 10
259.29288613544117
 20
144.14654988250373
 30
0.0
 11
253.73851741080966
 21
143.45225379192482
 31
0.0
  0
LINE
  5
12B
  8
BODY
 10
253.73851741080966
 20
143.45225379192482
 30
0.0
 11
253.73851741080966
 21
144.68062379833367
 31
0.0
  0
LINE
  5
12C
  8
BODY
 10
253.73851741080966
 20
144.68062379833367
 30
0.0
 11
260.41444135868403
 21
145.8021790215766
 31
0.0
  0
LINE
  5
12D
  8
BODY
 10
260.41444135868403
 20
145.8021790215766
 30
0.0
 11
265.75518051698356
 21
148.57936338389231
 31
0.0
  0
LINE
  5
12E
  8
BODY
 10
265.75518051698356
 20
148.57936338389231
 30
0.0
 11
257.9042939542833
 21
145.2146977141636
 31
0.0
  0
LINE
  5
12F
  8
BODY
 10
257.9042939542833
 20
145.2146977141636
 30
0.0
 11
257.9042939542833
 21
150.8224738303781
 31
0.0
  0
LINE
  5
130
  8
BODY
 10
257.9042939542833
 20
150.8224738303781
 30
0.0
 11
268.2119205298013
 21
150.66225165562912
 31
0.0
  0
LINE
  5
131
  8
BODY
 10
268.2119205298013
 20
150.66225165562912
 30
0.0
 11
268.9062166203803
 21
151.35654774620804
 31
0.0
  0
LINE
  5
132
  8
BODY
 10
268.9062166203803
 20
151.35654774620804
 30
0.0
 11
268.2119205298013
 21
150.8224738303781
 31
0.0
  0
LINE
  5
133
  8
BODY
 10
268.2119205298013
 20
150.8224738303781
 30
0.0
 11
253.73851741080966
 21
150.8758812219611
 31
0.0
  0
LINE
  5
134
  8
BODY
 10
253.73851741080966
 20
150.8758812219611
 30
0.0
 11
253.73851741080966
 21
153.5462508011109
 31
0.0
  0
LINE
  5
135
  8
BODY
 10
253.73851741080966
 20
153.5462508011109
 30
0.0
 11
270.5618457594531
 21
153.4394360179449
 31
0.0
  0
LINE
  5
136
  8
BODY
 10
270.5618457594531
 20
153.4394360179449
 30
0.0
 11
271.25614185003207
 21
154.45417645802178
 31
0.0
  0
LINE
  5
137
  8
BODY
 10
271.25614185003207
 20
154.45417645802178
 30
0.0
 11
270.5618457594531
 21
153.59965819269388
 31
0.0
  0
LINE
  5
138
  8
BODY
 10
270.5618457594531
 20
153.59965819269388
 30
0.0
 11
257.8508865627003
 21
153.65306558427687
 31
0.0
  0
LINE
  5
139
  8
BODY
 10
257.8508865627003
 20
153.65306558427687
 30
0.0
 11
257.8508865627003
 21
185.64409314249093
 31
0.0
  0
LINE
  5
13A
  8
BODY
 10
257.8508865627003
 20
185.64409314249093
 30
0.0
 11
261.64281136509294
 21
184.522537919248
 31
0.0
  0
LINE
  5
13B
  8
BODY
 10
261.64281136509294
 20
184.522537919248
 30
0.0
 11
265.64836573381757
 21
182.3862422559282
 31
0.0
  0
LINE
  5
13C
  8
BODY
 10
265.64836573381757
 20
182.3862422559282
 30
0.0
 11
260.52125614185
 21
185.05661183507794
 31
0.0
  0
LINE
  5
13D
  8
BODY
 10
260.52125614185
 20
185.05661183507794
 30
0.0
 11
253.73851741080966
 21
186.17816705832087
 31
0.0
  0
LINE
  5
13E
  8
BODY
 10
253.73851741080966
 20
186.17816705832087
 30
0.0
 11
253.68511001922667
 21
187.40653706472978
 31
0.0
  0
LINE
  5
13F
  8
BODY
 10
253.68511001922667
 20
187.40653706472978
 30
0.0
 11
258.5985900448622
 21
186.92587054048278
 31
0.0
  0
LINE
  5
140
  8
BODY
 10
258.5985900448622
 20
186.92587054048278
 30
0.0
 11
262.81777397991885
 21
185.48387096774195
 31
0.0
  0
LINE
  5
141
  8
BODY
 10
262.81777397991885
 20
185.48387096774195
 30
0.0
 11
268.2653279213843
 21
181.85216834009827
 31
0.0
  0
LINE
  5
142
  8
BODY
 10
268.2653279213843
 20
181.85216834009827
 30
0.0
 11
268.2653279213843
 21
182.33283486434522
 31
0.0
  0
LINE
  5
143
  8
BODY
 10
268.2653279213843
 20
182.33283486434522
 30
0.0
 11
269.6539201025422
 21
180.51698355052338
 31
0.0
  0
LINE
  5
144
  8
BODY
 10
269.6539201025422
 20
180.51698355052338
 30
0.0
 11
267.3574022644734
 21
183.08053834650713
 31
0.0
  0
LINE
  5
145
  8
BODY
 10
267.3574022644734
 20
183.08053834650713
 30
0.0
 11
267.4108096560564
 21
182.65327921384318
 31
0.0
  0
LINE
  5
146
  8
BODY
 10
267.4108096560564
 20
182.65327921384318
 30
0.0
 11
264.36658833582567
 21
184.78957487716298
 31
0.0
  0
LINE
  5
147
  8
BODY
 10
264.36658833582567
 20
184.78957487716298
 30
0.0
 11
256.2486648152104
 21
187.40653706472978
 31
0.0
  0
LINE
  5
148
  8
BODY
 10
256.2486648152104
 20
187.40653706472978
 30
0.0
 11
261.001922666097
 21
186.44520401623583
 31
0.0
  0
LINE
  5
149
  8
BODY
 10
261.001922666097
 20
186.44520401623583
 30
0.0
 11
266.0222174748985
 21
183.8816492202521
 31
0.0
  0
LINE
  5
14A
  8
BODY
 10
266.0222174748985
 20
183.8816492202521
 30
0.0
 11
261.8030335398419
 21
186.23157444990386
 31
0.0
  0
LINE
  5
14B
  8
BODY
 10
261.8030335398419
 20
186.23157444990386
 30
0.0
 11
257.5304422132023
 21
187.40653706472978
 31
0.0
  0
LINE
  5
14C
  8
BODY
 10
257.5304422132023
 20
187.40653706472978
 30
0.0
 11
262.49732963042084
 21
187.45994445631277
 31
0.0
  0
LINE
  5
14D
  8
BODY
 10
262.49732963042084
 20
187.45994445631277
 30
0.0
 11
265.4881435590686
 21
185.9645374919889
 31
0.0
  0
LINE
  5
14E
  8
BODY
 10
265.4881435590686
 20
185.9645374919889
 30
0.0
 11
263.0848109378338
 21
187.45994445631277
 31
0.0
  0
LINE
  5
14F
  8
BODY
 10
244.07177953428754
 20
187.45994445631277
 30
0.0
 11
240.3866695150609
 21
185.16342661824393
 31
0.0
  0
LINE
  5
150
  8
BODY
 10
240.3866695150609
 20
185.16342661824393
 30
0.0
 11
244.6058534501175
 21
187.45994445631277
 31
0.0
  0
LINE
  5
151
  8
BODY
 10
244.6058534501175
 20
187.45994445631277
 30
0.0
 11
249.62614825891905
 21
187.40653706472978
 31
0.0
  0
LINE
  5
152
  8
BODY
 10
249.62614825891905
 20
187.40653706472978
 30
0.0
 11
243.5377056184576
 21
185.37705618457596
 31
0.0
  0
LINE
  5
153
  8
BODY
 10
243.5377056184576
 20
185.37705618457596
 30
0.0
 11
239.85259559923094
 21
183.02713095492413
 31
0.0
  0
LINE
  5
154
  8
BODY
 10
239.85259559923094
 20
183.02713095492413
 30
0.0
 11
238.51741080965607
 21
181.42490920743433
 31
0.0
  0
LINE
  5
155
  8
BODY
 10
238.51741080965607
 20
181.42490920743433
 30
0.0
 11
240.65370647297587
 21
183.61461226233712
 31
0.0
  0
LINE
  5
156
  8
BODY
 10
240.65370647297587
 20
183.61461226233712
 30
0.0
 11
240.4400769066439
 21
183.08053834650713
 31
0.0
  0
LINE
  5
157
  8
BODY
 10
240.4400769066439
 20
183.08053834650713
 30
0.0
 11
245.03311258278146
 21
185.8043153172399
 31
0.0
  0
LINE
  5
158
  8
BODY
 10
245.03311258278146
 20
185.8043153172399
 30
0.0
 11
249.35911130100408
 21
187.08609271523176
 31
0.0
  0
LINE
  5
159
  8
BODY
 10
249.35911130100408
 20
187.08609271523176
 30
0.0
 11
253.68511001922667
 21
187.40653706472978
 31
0.0
  0
LINE
  5
15A
  8
BODY
 10
253.68511001922667
 20
187.40653706472978
 30
0.0
 11
253.63170262764368
 21
186.17816705832087
 31
0.0
  0
LINE
  5
15B
  8
BODY
 10
253.63170262764368
 20
186.17816705832087
 30
0.0
 11
246.9023712881863
 21
185.11001922666094
 31
0.0
  0
LINE
  5
15C
  8
BODY
 10
246.9023712881863
 20
185.11001922666094
 30
0.0
 11
241.34800256355481
 21
182.17261268959624
 31
0.0
  0
LINE
  5
15D
  8
BODY
 10
241.34800256355481
 20
182.17261268959624
 30
0.0
 11
247.16940824610126
 21
185.16342661824393
 31
0.0
  0
LINE
  5
15E
  8
BODY
 10
247.16940824610126
 20
185.16342661824393
 30
0.0
 11
253.68511001922667
 21
186.07135227515488
 31
0.0
  0
LINE
  5
15F
  8
BODY
 10
253.68511001922667
 20
186.07135227515488
 30
0.0
 11
253.68511001922667
 21
172.6126895962401
 31
0.0
  0
LINE
  5
160
  8
BODY
 10
253.68511001922667
 20
172.6126895962401
 30
0.0
 11
249.51933347575306
 21
172.6126895962401
 31
0.0
  0
LINE
  5
161
  8
BODY
 10
249.51933347575306
 20
172.6126895962401
 30
0.0
 11
249.46592608417006
 21
173.68083742790003
 31
0.0
  0
LINE
  5
162
  8
BODY
 10
249.46592608417006
 20
173.68083742790003
 30
0.0
 11
249.41251869258707
 21
172.5592822046571
 31
0.0
  0
LINE
  5
163
  8
BODY
 10
249.41251869258707
 20
172.5592822046571
 30
0.0
 11
253.68511001922667
 21
172.50587481307412
 31
0.0
  0
LINE
  5
164
  8
BODY
 10
253.68511001922667
 20
172.50587481307412
 30
0.0
 11
253.68511001922667
 21
144.84084597308265
 31
0.0
  0
LINE
  5
165
  8
BODY
 10
253.68511001922667
 20
144.84084597308265
 30
0.0
 11
250.0
 21
145.05447553941463
 31
0.0
  0
LINE
  5
166
  8
BODY
 10
250.0
 20
145.05447553941463
 30
0.0
 11
245.6740012817774
 21
146.28284554582353
 31
0.0
  0
LINE
  5
167
  8
BODY
 10
245.6740012817774
 20
146.28284554582353
 30
0.0
 11
239.63896603289896
 21
150.12817773979918
 31
0.0
  0
LINE
  5
168
  8
BODY
 10
239.63896603289896
 20
150.12817773979918
 30
0.0
 11
246.26148258919036
 21
146.01580858790857
 31
0.0
  0
LINE
  5
169
  8
BODY
 10
246.26148258919036
 20
146.01580858790857
 30
0.0
 11
253.63170262764368
 21
144.68062379833367
 31
0.0
  0
LINE
  5
16A
  8
BODY
 10
253.63170262764368
 20
144.68062379833367
 30
0.0
 11
253.68511001922667
 21
143.5056611835078
 31
0.0
  0
LINE
  5
16B
  8
BODY
 10
253.68511001922667
 20
143.5056611835078
 30
0.0
 11
249.51933347575306
 21
143.77269814142278
 31
0.0
  0
LINE
  5
16C
  8
BODY
 10
249.51933347575306
 20
143.77269814142278
 30
0.0
 11
245.13992736594744
 21
145.05447553941463
 31
0.0
  0
LINE
  5
16D
  8
BODY
 10
245.13992736594744
 20
145.05447553941463
 30
0.0
 11
241.08096560563982
 21
146.97714163640245
 31
0.0
  0
LINE
  5
16E
  8
BODY
 10
241.08096560563982
 20
146.97714163640245
 30
0.0
 11
237.12881862849818
 21
150.39521469771415
 31
0.0
  0
LINE
  5
16F
  8
BODY
 10
237.12881862849818
 20
150.39521469771415
 30
0.0
 11
243.00363170262764
 21
145.8021790215766
 31
0.0
  0
LINE
  5
170
  8
BODY
 10
243.00363170262764
 20
145.8021790215766
 30
0.0
 11
248.71822260200813
 21
143.6658833582568
 31
0.0
  0
LINE
  5
171
  8
BODY
 10
248.71822260200813
 20
143.6658833582568
 30
0.0
 11
253.63170262764368
 21
143.1852168340098
 31
0.0
  0
LINE
  5
172
  8
BODY
 10
253.63170262764368
 20
143.1852168340098
 30
0.0
 11
253.68511001922667
 21
141.79662465285196
 31
0.0
  0
LINE
  5
173
  8
BODY
 10
253.68511001922667
 20
141.79662465285196
 30
0.0
 11
246.7421491134373
 21
142.70455030976285
 31
0.0
  0
LINE
  5
174
  8
BODY
 10
246.7421491134373
 20
142.70455030976285
 30
0.0
 11
240.3866695150609
 21
145.7487716299936
 31
0.0
  0
LINE
  5
175
  8
BODY
 10
240.3866695150609
 20
145.7487716299936
 30
0.0
 11
247.38303781243326
 21
142.49092074343088
 31
0.0
  0
LINE
  5
176
  8
BODY
 10
247.38303781243326
 20
142.49092074343088
 30
0.0
 11
253.63170262764368
 21
141.529587694937
 31
0.0
  0
LINE
  5
177
  8
BODY
 10
253.63170262764368
 20
141.529587694937
 30
0.0
 11
245.24674214911346
 21
142.97158726767782
 31
0.0
  0
LINE
  5
178
  8
BODY
 10
245.24674214911346
 20
142.97158726767782
 30
0.0
 11
238.51741080965607
 21
146.76351207007048
 31
0.0
  0
LINE
  5
179
  8
BODY
 10
238.51741080965607
 20
146.76351207007048
 30
0.0
 11
233.01644947660756
 21
153.0121768852809
 31
0.0
  0
LINE
  5
17A
  8
BODY
 10
233.01644947660756
 20
153.0121768852809
 30
0.0
 11
230.02563554795984
 21
160.6494338816492
 31
0.0
  0
LINE
  5
17B
  8
BODY
 10
230.02563554795984
 20
160.6494338816492
 30
0.0
 11
229.70519119846188
 21
168.3400982696005
 31
0.0
  0
LINE
  5
17C
  8
BODY
 10
229.70519119846188
 20
168.3400982696005
 30
0.0
 11
229.86541337321086
 21
167.75261696218757
 31
0.0
  0
LINE
  5
17D
  8
BODY
 10
229.86541337321086
 20
167.75261696218757
 30
0.0
 11
230.34607989745783
 21
171.59794915616322
 31
0.0
  0
LINE
  5
17E
  8
BODY
 10
230.34607989745783
 20
171.59794915616322
 30
0.0
 11
232.26874599444565
 21
176.56483657338174
 31
0.0
  0
LINE
  5
17F
  8
BODY
 10
232.26874599444565
 20
176.56483657338174
 30
0.0
 11
237.23563341166417
 21
183.02713095492413
 31
0.0
  0
LINE
  5
180
  8
BODY
 10
237.23563341166417
 20
183.02713095492413
 30
0.0
 11
244.07177953428754
 21
187.45994445631277
 31
0.0
  0
LINE
  5
181
  8
BODY
 10
243.00363170262764
 20
187.45994445631277
 30
0.0
 11
243.6979277932066
 21
187.40653706472978
 31
0.0
  0
LINE
  5
182
  8
BODY
 10
243.6979277932066
 20
187.40653706472978
 30
0.0
 11
239.74578081606495
 21
185.16342661824393
 31
0.0
  0
LINE
  5
183
  8
BODY
 10
239.74578081606495
 20
185.16342661824393
 30
0.0
 11
236.0072634052553
 21
181.90557573168127
 31
0.0
  0
LINE
  5
184
  8
BODY
 10
236.0072634052553
 20
181.90557573168127
 30
0.0
 11
233.92437513351848
 21
179.34202093569746
 31
0.0
  0
LINE
  5
185
  8
BODY
 10
233.92437513351848
 20
179.34202093569746
 30
0.0
 11
231.7346720786157
 21
175.55009613330486
 31
0.0
  0
LINE
  5
186
  8
BODY
 10
231.7346720786157
 20
175.55009613330486
 30
0.0
 11
230.34607989745783
 21
171.7047639393292
 31
0.0
  0
LINE
  5
187
  8
BODY
 10
230.34607989745783
 20
171.7047639393292
 30
0.0
 11
229.65178380687888
 21
168.01965392010254
 31
0.0
  0
LINE
  5
188
  8
BODY
 10
229.65178380687888
 20
168.01965392010254
 30
0.0
 11
229.5449690237129
 21
164.1743217261269
 31
0.0
  0
LINE
  5
189
  8
BODY
 10
229.5449690237129
 20
164.1743217261269
 30
0.0
 11
230.07904293954283
 21
160.27558214056825
 31
0.0
  0
LINE
  5
18A
  8
BODY
 10
230.07904293954283
 20
160.27558214056825
 30
0.0
 11
231.36082033753473
 21
156.21662038026062
 31
0.0
  0
LINE
  5
18B
  8
BODY
 10
231.36082033753473
 20
156.21662038026062
 30
0.0
 11
233.06985686819056
 21
152.8519547105319
 31
0.0
  0
LINE
  5
18C
  8
BODY
 10
233.06985686819056
 20
152.8519547105319
 30
0.0
 11
235.41978209784236
 21
149.64751121555224
 31
0.0
  0
LINE
  5
18D
  8
BODY
 10
235.41978209784236
 20
149.64751121555224
 30
0.0
 11
238.19696646015808
 21
146.92373424481946
 31
0.0
  0
LINE
  5
18E
  8
BODY
 10
238.19696646015808
 20
146.92373424481946
 30
0.0
 11
241.29459517197182
 21
144.73403118991666
 31
0.0
  0
LINE
  5
18F
  8
BODY
 10
241.29459517197182
 20
144.73403118991666
 30
0.0
 11
244.92629779961547
 21
142.97158726767782
 31
0.0
  0
LINE
  5
190
  8
BODY
 10
244.92629779961547
 20
142.97158726767782
 30
0.0
 11
248.71822260200813
 21
141.85003204443495
 31
0.0
  0
LINE
  5
191
  8
BODY
 10
248.71822260200813
 20
141.85003204443495
 30
0.0
 11
253.63170262764368
 21
141.36936552018796
 31
0.0
  0
LINE
  5
192
  8
BODY
 10
253.63170262764368
 20
141.36936552018796
 30
0.0
 11
253.63170262764368
 21
141.102328562273
 31
0.0
  0
LINE
  5
193
  8
BODY
 10
253.63170262764368
 20
141.102328562273
 30
0.0
 11
250.21362956633197
 21
141.31595812860496
 31
0.0
  0
LINE
  5
194
  8
BODY
 10
250.21362956633197
 20
141.31595812860496
 30
0.0
 11
246.63533433027132
 21
142.06366161076693
 31
0.0
  0
LINE
  5
195
  8
BODY
 10
246.63533433027132
 20
142.06366161076693
 30
0.0
 11
242.14911343729972
 21
143.87951292458877
 31
0.0
  0
LINE
  5
196
  8
BODY
 10
242.14911343729972
 20
143.87951292458877
 30
0.0
 11
238.73104037598804
 21
146.06921597949156
 31
0.0
  0
LINE
  5
197
  8
BODY
 10
238.73104037598804
 20
146.06921597949156
 30
0.0
 11
235.36637470625936
 21
149.16684469130524
 31
0.0
  0
LINE
  5
198
  8
BODY
 10
235.36637470625936
 20
149.16684469130524
 30
0.0
 11
232.6960051271096
 21
152.74513992736593
 31
0.0
  0
LINE
  5
199
  8
BODY
 10
232.6960051271096
 20
152.74513992736593
 30
0.0
 11
231.09378337961974
 21
155.84276863917967
 31
0.0
  0
LINE
  5
19A
  8
BODY
 10
231.09378337961974
 20
155.84276863917967
 30
0.0
 11
230.07904293954283
 21
159.42106387524035
 31
0.0
  0
LINE
  5
19B
  8
BODY
 10
230.07904293954283
 20
159.42106387524035
 30
0.0
 11
229.91882076479385
 21
159.2608417004913
 31
0.0
  0
LINE
  5
19C
  8
BODY
 10
229.91882076479385
 20
159.2608417004913
 30
0.0
 11
229.97222815637684
 21
159.8483230079043
 31
0.0
  0
LINE
  5
19D
  8
BODY
 10
229.97222815637684
 20
159.8483230079043
 30
0.0
 11
229.81200598162786
 21
159.63469344157232
 31
0.0
  0
LINE
  5
19E
  8
BODY
 10
229.81200598162786
 20
159.63469344157232
 30
0.0
 11
229.4381542405469
 21
163.15958128604996
 31
0.0
  0
LINE
  5
19F
  8
BODY
 10
229.4381542405469
 20
163.15958128604996
 30
0.0
 11
229.27793206579793
 21
162.57209997863703
 31
0.0
  0
LINE
  5
1A0
  8
BODY
 10
229.27793206579793
 20
162.57209997863703
 30
0.0
 11
229.27793206579793
 21
168.2866908780175
 31
0.0
  0
LINE
  5
1A1
  8
BODY
 10
229.27793206579793
 20
168.2866908780175
 30
0.0
 11
229.4381542405469
 21
167.69920957060458
 31
0.0
  0
LINE
  5
1A2
  8
BODY
 10
229.4381542405469
 20
167.69920957060458
 30
0.0
 11
229.70519119846188
 21
170.79683828241826
 31
0.0
  0
LINE
  5
1A3
  8
BODY
 10
229.70519119846188
 20
170.79683828241826
 30
0.0
 11
229.86541337321086
 21
170.5832087160863
 31
0.0
  0
LINE
  5
1A4
  8
BODY
 10
229.86541337321086
 20
170.5832087160863
 30
0.0
 11
230.13245033112582
 21
172.39906002990813
 31
0.0
  0
LINE
  5
1A5
  8
BODY
 10
230.13245033112582
 20
172.39906002990813
 30
0.0
 11
230.29267250587483
 21
172.23883785515915
 31
0.0
  0
LINE
  5
1A6
  8
BODY
 10
230.29267250587483
 20
172.23883785515915
 30
0.0
 11
230.34607989745783
 21
173.09335612048704
 31
0.0
  0
LINE
  5
1A7
  8
BODY
 10
230.34607989745783
 20
173.09335612048704
 30
0.0
 11
230.5063020722068
 21
172.93313394573806
 31
0.0
  0
LINE
  5
1A8
  8
BODY
 10
230.5063020722068
 20
172.93313394573806
 30
0.0
 11
231.41422772911773
 21
175.76372569963684
 31
0.0
  0
LINE
  5
1A9
  8
BODY
 10
231.41422772911773
 20
175.76372569963684
 30
0.0
 11
233.55052339243753
 21
179.4488357188635
 31
0.0
  0
LINE
  5
1AA
  8
BODY
 10
233.55052339243753
 20
179.4488357188635
 30
0.0
 11
235.58000427259134
 21
181.95898312326426
 31
0.0
  0
LINE
  5
1AB
  8
BODY
 10
235.58000427259134
 20
181.95898312326426
 30
0.0
 11
239.47874385814998
 21
185.37705618457596
 31
0.0
  0
LINE
  5
1AC
  8
BODY
 10
239.47874385814998
 20
185.37705618457596
 30
0.0
 11
243.00363170262764
 21
187.45994445631277
 31
0.0
  0
LINE
  5
1AD
  8
BODY
 10
241.61503952146978
 20
197.39371929074986
 30
0.0
 11
241.66844691305278
 21
197.44712668233285
 31
0.0
  0
LINE
  5
1AE
  8
BODY
 10
241.66844691305278
 20
197.44712668233285
 30
0.0
 11
253.63170262764368
 21
197.44712668233285
 31
0.0
  0
LINE
  5
1AF
  8
BODY
 10
253.63170262764368
 20
197.44712668233285
 30
0.0
 11
253.68511001922667
 21
197.39371929074986
 31
0.0
  0
LINE
  5
1B0
  8
BODY
 10
253.68511001922667
 20
197.39371929074986
 30
0.0
 11
253.68511001922667
 21
193.33475753044218
 31
0.0
  0
LINE
  5
1B1
  8
BODY
 10
253.68511001922667
 20
193.33475753044218
 30
0.0
 11
253.63170262764368
 21
193.28135013885918
 31
0.0
  0
LINE
  5
1B2
  8
BODY
 10
253.63170262764368
 20
193.28135013885918
 30
0.0
 11
241.61503952146978
 21
193.28135013885918
 31
0.0
  0
LINE
  5
1B3
  8
BODY
 10
241.61503952146978
 20
193.28135013885918
 30
0.0
 11
241.5616321298868
 21
193.33475753044218
 31
0.0
  0
LINE
  5
1B4
  8
BODY
 10
241.5616321298868
 20
193.33475753044218
 30
0.0
 11
241.61503952146978
 21
193.44157231360822
 31
0.0
  0
LINE
  5
1B5
  8
BODY
 10
241.61503952146978
 20
193.44157231360822
 30
0.0
 11
241.61503952146978
 21
196.75283059175388
 31
0.0
  0
LINE
  5
1B6
  8
BODY
 10
241.61503952146978
 20
196.75283059175388
 30
0.0
 11
241.66844691305278
 21
196.80623798333687
 31
0.0
  0
LINE
  5
1B7
  8
BODY
 10
241.66844691305278
 20
196.80623798333687
 30
0.0
 11
241.66844691305278
 21
197.2869045075838
 31
0.0
  0
LINE
  5
1B8
  8
BODY
 10
241.66844691305278
 20
197.2869045075838
 30
0.0
 11
241.61503952146978
 21
197.39371929074986
 31
0.0
  0
LINE
  5
1B9
  8
BODY
 10
241.77526169621876
 20
226.60756248664813
 30
0.0
 11
240.76052125614186
 21
226.1268959624012
 31
0.0
  0
LINE
  5
1BA
  8
BODY
 10
240.76052125614186
 20
226.1268959624012
 30
0.0
 11
241.1877803888058
 21
226.55415509506514
 31
0.0
  0
LINE
  5
1BB
  8
BODY
 10
241.1877803888058
 20
226.55415509506514
 30
0.0
 11
240.3332621234779
 21
226.0734885708182
 31
0.0
  0
LINE
  5
1BC
  8
BODY
 10
240.3332621234779
 20
226.0734885708182
 30
0.0
 11
239.95941038239692
 21
226.23371074556718
 31
0.0
  0
LINE
  5
1BD
  8
BODY
 10
239.95941038239692
 20
226.23371074556718
 30
0.0
 11
240.4934842982269
 21
226.55415509506514
 31
0.0
  0
LINE
  5
1BE
  8
BODY
 10
240.4934842982269
 20
226.55415509506514
 30
0.0
 11
239.63896603289896
 21
226.0734885708182
 31
0.0
  0
LINE
  5
1BF
  8
BODY
 10
239.63896603289896
 20
226.0734885708182
 30
0.0
 11
239.211706900235
 21
226.1803033539842
 31
0.0
  0
LINE
  5
1C0
  8
BODY
 10
239.211706900235
 20
226.1803033539842
 30
0.0
 11
239.371929074984
 21
226.55415509506514
 31
0.0
  0
LINE
  5
1C1
  8
BODY
 10
239.371929074984
 20
226.55415509506514
 30
0.0
 11
238.67763298440505
 21
226.0200811792352
 31
0.0
  0
LINE
  5
1C2
  8
BODY
 10
238.67763298440505
 20
226.0200811792352
 30
0.0
 11
238.998077333903
 21
226.55415509506514
 31
0.0
  0
LINE
  5
1C3
  8
BODY
 10
238.998077333903
 20
226.55415509506514
 30
0.0
 11
238.1435590685751
 21
226.0200811792352
 31
0.0
  0
LINE
  5
1C4
  8
BODY
 10
238.1435590685751
 20
226.0200811792352
 30
0.0
 11
237.71629993591114
 21
226.1803033539842
 31
0.0
  0
LINE
  5
1C5
  8
BODY
 10
237.71629993591114
 20
226.1803033539842
 30
0.0
 11
238.19696646015808
 21
226.50074770348215
 31
0.0
  0
LINE
  5
1C6
  8
BODY
 10
238.19696646015808
 20
226.50074770348215
 30
0.0
 11
237.34244819483018
 21
225.9666737876522
 31
0.0
  0
LINE
  5
1C7
  8
BODY
 10
237.34244819483018
 20
225.9666737876522
 30
0.0
 11
236.9685964537492
 21
226.1268959624012
 31
0.0
  0
LINE
  5
1C8
  8
BODY
 10
236.9685964537492
 20
226.1268959624012
 30
0.0
 11
237.44926297799617
 21
226.50074770348215
 31
0.0
  0
LINE
  5
1C9
  8
BODY
 10
237.44926297799617
 20
226.50074770348215
 30
0.0
 11
236.64815210425124
 21
225.9666737876522
 31
0.0
  0
LINE
  5
1CA
  8
BODY
 10
236.64815210425124
 20
225.9666737876522
 30
0.0
 11
236.32770775475328
 21
226.23371074556718
 31
0.0
  0
LINE
  5
1CB
  8
BODY
 10
236.32770775475328
 20
226.23371074556718
 30
0.0
 11
236.70155949583423
 21
226.44734031189915
 31
0.0
  0
LINE
  5
1CC
  8
BODY
 10
236.70155949583423
 20
226.44734031189915
 30
0.0
 11
235.58000427259134
 21
225.91326639606922
 31
0.0
  0
LINE
  5
1CD
  8
BODY
 10
235.58000427259134
 20
225.91326639606922
 30
0.0
 11
235.9538560136723
 21
226.44734031189915
 31
0.0
  0
LINE
  5
1CE
  8
BODY
 10
235.9538560136723
 20
226.44734031189915
 30
0.0
 11
234.8323007904294
 21
225.85985900448622
 31
0.0
  0
LINE
  5
1CF
  8
BODY
 10
234.8323007904294
 20
225.85985900448622
 30
0.0
 11
235.20615253151036
 21
226.39393292031616
 31
0.0
  0
LINE
  5
1D0
  8
BODY
 10
235.20615253151036
 20
226.39393292031616
 30
0.0
 11
234.08459730826746
 21
225.80645161290323
 31
0.0
  0
LINE
  5
1D1
  8
BODY
 10
234.08459730826746
 20
225.80645161290323
 30
0.0
 11
234.19141209143345
 21
226.34052552873317
 31
0.0
  0
LINE
  5
1D2
  8
BODY
 10
234.19141209143345
 20
226.34052552873317
 30
0.0
 11
233.55052339243753
 21
225.75304422132024
 31
0.0
  0
LINE
  5
1D3
  8
BODY
 10
233.55052339243753
 20
225.75304422132024
 30
0.0
 11
233.23007904293954
 21
225.9666737876522
 31
0.0
  0
LINE
  5
1D4
  8
BODY
 10
233.23007904293954
 20
225.9666737876522
 30
0.0
 11
233.7107455671865
 21
226.28711813715017
 31
0.0
  0
LINE
  5
1D5
  8
BODY
 10
233.7107455671865
 20
226.28711813715017
 30
0.0
 11
232.5891903439436
 21
225.69963682973724
 31
0.0
  0
LINE
  5
1D6
  8
BODY
 10
232.5891903439436
 20
225.69963682973724
 30
0.0
 11
232.6960051271096
 21
226.23371074556718
 31
0.0
  0
LINE
  5
1D7
  8
BODY
 10
232.6960051271096
 20
226.23371074556718
 30
0.0
 11
231.89489425336467
 21
225.64622943815425
 31
0.0
  0
LINE
  5
1D8
  8
BODY
 10
231.89489425336467
 20
225.64622943815425
 30
0.0
 11
232.05511642811365
 21
226.1803033539842
 31
0.0
  0
LINE
  5
1D9
  8
BODY
 10
232.05511642811365
 20
226.1803033539842
 30
0.0
 11
230.34607989745783
 21
225.53941465498826
 31
0.0
  0
LINE
  5
1DA
  8
BODY
 10
230.34607989745783
 20
225.53941465498826
 30
0.0
 11
230.71993163853878
 21
226.0734885708182
 31
0.0
  0
LINE
  5
1DB
  8
BODY
 10
230.71993163853878
 20
226.0734885708182
 30
0.0
 11
228.85067293313395
 21
225.37919248023928
 31
0.0
  0
LINE
  5
1DC
  8
BODY
 10
228.85067293313395
 20
225.37919248023928
 30
0.0
 11
229.06430249946592
 21
225.91326639606922
 31
0.0
  0
LINE
  5
1DD
  8
BODY
 10
229.06430249946592
 20
225.91326639606922
 30
0.0
 11
228.42341380047
 21
225.3257850886563
 31
0.0
  0
LINE
  5
1DE
  8
BODY
 10
228.42341380047
 20
225.3257850886563
 30
0.0
 11
227.99615466780602
 21
225.37919248023928
 31
0.0
  0
LINE
  5
1DF
  8
BODY
 10
227.99615466780602
 20
225.37919248023928
 30
0.0
 11
228.476821192053
 21
225.80645161290323
 31
0.0
  0
LINE
  5
1E0
  8
BODY
 10
228.476821192053
 20
225.80645161290323
 30
0.0
 11
227.62230292672507
 21
225.21897030549025
 31
0.0
  0
LINE
  5
1E1
  8
BODY
 10
227.62230292672507
 20
225.21897030549025
 30
0.0
 11
227.24845118564411
 21
225.37919248023928
 31
0.0
  0
LINE
  5
1E2
  8
BODY
 10
227.24845118564411
 20
225.37919248023928
 30
0.0
 11
227.72911770989106
 21
225.75304422132024
 31
0.0
  0
LINE
  5
1E3
  8
BODY
 10
227.72911770989106
 20
225.75304422132024
 30
0.0
 11
226.66096987823116
 21
225.11215552232426
 31
0.0
  0
LINE
  5
1E4
  8
BODY
 10
226.66096987823116
 20
225.11215552232426
 30
0.0
 11
226.71437726981415
 21
225.64622943815425
 31
0.0
  0
LINE
  5
1E5
  8
BODY
 10
226.71437726981415
 20
225.64622943815425
 30
0.0
 11
225.91326639606922
 21
225.00534073915827
 31
0.0
  0
LINE
  5
1E6
  8
BODY
 10
225.91326639606922
 20
225.00534073915827
 30
0.0
 11
226.23371074556718
 21
225.53941465498826
 31
0.0
  0
LINE
  5
1E7
  8
BODY
 10
226.23371074556718
 20
225.53941465498826
 30
0.0
 11
225.43259987182228
 21
224.95193334757528
 31
0.0
  0
LINE
  5
1E8
  8
BODY
 10
225.43259987182228
 20
224.95193334757528
 30
0.0
 11
225.0053407391583
 21
225.00534073915827
 31
0.0
  0
LINE
  5
1E9
  8
BODY
 10
225.0053407391583
 20
225.00534073915827
 30
0.0
 11
225.21897030549027
 21
225.43259987182228
 31
0.0
  0
LINE
  5
1EA
  8
BODY
 10
225.21897030549027
 20
225.43259987182228
 30
0.0
 11
224.41785943174537
 21
224.7917111728263
 31
0.0
  0
LINE
  5
1EB
  8
BODY
 10
224.41785943174537
 20
224.7917111728263
 30
0.0
 11
224.73830378124333
 21
225.3257850886563
 31
0.0
  0
LINE
  5
1EC
  8
BODY
 10
224.73830378124333
 20
225.3257850886563
 30
0.0
 11
223.9371929074984
 21
224.7383037812433
 31
0.0
  0
LINE
  5
1ED
  8
BODY
 10
223.9371929074984
 20
224.7383037812433
 30
0.0
 11
223.50993377483445
 21
224.7383037812433
 31
0.0
  0
LINE
  5
1EE
  8
BODY
 10
223.50993377483445
 20
224.7383037812433
 30
0.0
 11
223.72356334116643
 21
225.21897030549025
 31
0.0
  0
LINE
  5
1EF
  8
BODY
 10
223.72356334116643
 20
225.21897030549025
 30
0.0
 11
223.24289681691945
 21
224.63148899807732
 31
0.0
  0
LINE
  5
1F0
  8
BODY
 10
223.24289681691945
 20
224.63148899807732
 30
0.0
 11
222.9224524674215
 21
225.05874813074126
 31
0.0
  0
LINE
  5
1F1
  8
BODY
 10
222.9224524674215
 20
225.05874813074126
 30
0.0
 11
222.22815637684255
 21
224.47126682332834
 31
0.0
  0
LINE
  5
1F2
  8
BODY
 10
222.22815637684255
 20
224.47126682332834
 30
0.0
 11
222.44178594317455
 21
225.00534073915827
 31
0.0
  0
LINE
  5
1F3
  8
BODY
 10
222.44178594317455
 20
225.00534073915827
 30
0.0
 11
221.7474898525956
 21
224.36445204016235
 31
0.0
  0
LINE
  5
1F4
  8
BODY
 10
221.7474898525956
 20
224.36445204016235
 30
0.0
 11
221.37363811151465
 21
224.47126682332834
 31
0.0
  0
LINE
  5
1F5
  8
BODY
 10
221.37363811151465
 20
224.47126682332834
 30
0.0
 11
221.53386028626363
 21
224.8451185644093
 31
0.0
  0
LINE
  5
1F6
  8
BODY
 10
221.53386028626363
 20
224.8451185644093
 30
0.0
 11
220.7327494125187
 21
224.15082247383037
 31
0.0
  0
LINE
  5
1F7
  8
BODY
 10
220.7327494125187
 20
224.15082247383037
 30
0.0
 11
220.6793420209357
 21
224.6848963896603
 31
0.0
  0
LINE
  5
1F8
  8
BODY
 10
220.6793420209357
 20
224.6848963896603
 30
0.0
 11
220.30549027985475
 21
224.09741508224738
 31
0.0
  0
LINE
  5
1F9
  8
BODY
 10
220.30549027985475
 20
224.09741508224738
 30
0.0
 11
219.93163853877377
 21
224.52467421491133
 31
0.0
  0
LINE
  5
1FA
  8
BODY
 10
219.93163853877377
 20
224.52467421491133
 30
0.0
 11
219.5577867976928
 21
223.9371929074984
 31
0.0
  0
LINE
  5
1FB
  8
BODY
 10
219.5577867976928
 20
223.9371929074984
 30
0.0
 11
219.18393505661183
 21
224.36445204016235
 31
0.0
  0
LINE
  5
1FC
  8
BODY
 10
219.18393505661183
 20
224.36445204016235
 30
0.0
 11
218.43623157444992
 21
223.72356334116643
 31
0.0
  0
LINE
  5
1FD
  8
BODY
 10
218.43623157444992
 20
223.72356334116643
 30
0.0
 11
218.6498611407819
 21
224.25763725699636
 31
0.0
  0
LINE
  5
1FE
  8
BODY
 10
218.6498611407819
 20
224.25763725699636
 30
0.0
 11
217.95556505020295
 21
223.56334116641744
 31
0.0
  0
LINE
  5
1FF
  8
BODY
 10
217.95556505020295
 20
223.56334116641744
 30
0.0
 11
217.90215765861996
 21
224.09741508224738
 31
0.0
  0
LINE
  5
200
  8
BODY
 10
217.90215765861996
 20
224.09741508224738
 30
0.0
 11
217.10104678487502
 21
223.40311899166846
 31
0.0
  0
LINE
  5
201
  8
BODY
 10
217.10104678487502
 20
223.40311899166846
 30
0.0
 11
217.207861568041
 21
223.9371929074984
 31
0.0
  0
LINE
  5
202
  8
BODY
 10
217.207861568041
 20
223.9371929074984
 30
0.0
 11
216.4067506942961
 21
223.18948942533643
 31
0.0
  0
LINE
  5
203
  8
BODY
 10
216.4067506942961
 20
223.18948942533643
 30
0.0
 11
216.3533433027131
 21
223.72356334116643
 31
0.0
  0
LINE
  5
204
  8
BODY
 10
216.3533433027131
 20
223.72356334116643
 30
0.0
 11
215.65904721213417
 21
222.97585985900446
 31
0.0
  0
LINE
  5
205
  8
BODY
 10
215.65904721213417
 20
222.97585985900446
 30
0.0
 11
215.60563982055118
 21
223.50993377483445
 31
0.0
  0
LINE
  5
206
  8
BODY
 10
215.60563982055118
 20
223.50993377483445
 30
0.0
 11
215.1249732963042
 21
222.81563768425548
 31
0.0
  0
LINE
  5
207
  8
BODY
 10
215.1249732963042
 20
222.81563768425548
 30
0.0
 11
214.91134372997223
 21
223.29630420850242
 31
0.0
  0
LINE
  5
208
  8
BODY
 10
214.91134372997223
 20
223.29630420850242
 30
0.0
 11
214.2704550309763
 21
222.5486007263405
 31
0.0
  0
LINE
  5
209
  8
BODY
 10
214.2704550309763
 20
222.5486007263405
 30
0.0
 11
214.48408459730828
 21
223.13608203375344
 31
0.0
  0
LINE
  5
20A
  8
BODY
 10
214.48408459730828
 20
223.13608203375344
 30
0.0
 11
213.62956633198036
 21
222.28156376842554
 31
0.0
  0
LINE
  5
20B
  8
BODY
 10
213.62956633198036
 20
222.28156376842554
 30
0.0
 11
213.78978850672934
 21
222.86904507583847
 31
0.0
  0
LINE
  5
20C
  8
BODY
 10
213.78978850672934
 20
222.86904507583847
 30
0.0
 11
212.9352702414014
 21
222.01452681051057
 31
0.0
  0
LINE
  5
20D
  8
BODY
 10
212.9352702414014
 20
222.01452681051057
 30
0.0
 11
212.77504806665243
 21
222.49519333475752
 31
0.0
  0
LINE
  5
20E
  8
BODY
 10
212.77504806665243
 20
222.49519333475752
 30
0.0
 11
212.18756675923947
 21
221.6940824610126
 31
0.0
  0
LINE
  5
20F
  8
BODY
 10
212.18756675923947
 20
221.6940824610126
 30
0.0
 11
212.34778893398848
 21
222.33497116000854
 31
0.0
  0
LINE
  5
210
  8
BODY
 10
212.34778893398848
 20
222.33497116000854
 30
0.0
 11
211.60008545182654
 21
221.42704550309764
 31
0.0
  0
LINE
  5
211
  8
BODY
 10
211.60008545182654
 20
221.42704550309764
 30
0.0
 11
211.70690023499253
 21
222.01452681051057
 31
0.0
  0
LINE
  5
212
  8
BODY
 10
211.70690023499253
 20
222.01452681051057
 30
0.0
 11
210.9057893612476
 21
221.10660115359963
 31
0.0
  0
LINE
  5
213
  8
BODY
 10
210.9057893612476
 20
221.10660115359963
 30
0.0
 11
210.74556718649862
 21
221.58726767784663
 31
0.0
  0
LINE
  5
214
  8
BODY
 10
210.74556718649862
 20
221.58726767784663
 30
0.0
 11
210.21149327066865
 21
220.73274941251867
 31
0.0
  0
LINE
  5
215
  8
BODY
 10
210.21149327066865
 20
220.73274941251867
 30
0.0
 11
210.10467848750267
 21
221.2668233283486
 31
0.0
  0
LINE
  5
216
  8
BODY
 10
210.10467848750267
 20
221.2668233283486
 30
0.0
 11
209.7842341380047
 21
220.5191198461867
 31
0.0
  0
LINE
  5
217
  8
BODY
 10
209.7842341380047
 20
220.5191198461867
 30
0.0
 11
209.41038239692375
 21
220.4657124546037
 31
0.0
  0
LINE
  5
218
  8
BODY
 10
209.41038239692375
 20
220.4657124546037
 30
0.0
 11
209.62401196325573
 21
220.99978637043364
 31
0.0
  0
LINE
  5
219
  8
BODY
 10
209.62401196325573
 20
220.99978637043364
 30
0.0
 11
208.92971587267678
 21
220.03845332193976
 31
0.0
  0
LINE
  5
21A
  8
BODY
 10
208.92971587267678
 20
220.03845332193976
 30
0.0
 11
208.7694936979278
 21
220.5191198461867
 31
0.0
  0
LINE
  5
21B
  8
BODY
 10
208.7694936979278
 20
220.5191198461867
 30
0.0
 11
208.23541978209784
 21
219.6111941892758
 31
0.0
  0
LINE
  5
21C
  8
BODY
 10
208.23541978209784
 20
219.6111941892758
 30
0.0
 11
208.12860499893185
 21
220.14526810510574
 31
0.0
  0
LINE
  5
21D
  8
BODY
 10
208.12860499893185
 20
220.14526810510574
 30
0.0
 11
207.54112369151892
 21
219.1839350566118
 31
0.0
  0
LINE
  5
21E
  8
BODY
 10
207.54112369151892
 20
219.1839350566118
 30
0.0
 11
207.48771629993593
 21
219.7180089724418
 31
0.0
  0
LINE
  5
21F
  8
BODY
 10
207.48771629993593
 20
219.7180089724418
 30
0.0
 11
207.06045716727195
 21
218.81008331553085
 31
0.0
  0
LINE
  5
220
  8
BODY
 10
207.06045716727195
 20
218.81008331553085
 30
0.0
 11
207.00704977568896
 21
219.39756462294383
 31
0.0
  0
LINE
  5
221
  8
BODY
 10
207.00704977568896
 20
219.39756462294383
 30
0.0
 11
206.47297585985902
 21
218.3828241828669
 31
0.0
  0
LINE
  5
222
  8
BODY
 10
206.47297585985902
 20
218.3828241828669
 30
0.0
 11
206.41956846827603
 21
218.97030549027983
 31
0.0
  0
LINE
  5
223
  8
BODY
 10
206.41956846827603
 20
218.97030549027983
 30
0.0
 11
205.88549455244606
 21
217.95556505020295
 31
0.0
  0
LINE
  5
224
  8
BODY
 10
205.88549455244606
 20
217.95556505020295
 30
0.0
 11
205.83208716086307
 21
218.54304635761588
 31
0.0
  0
LINE
  5
225
  8
BODY
 10
205.83208716086307
 20
218.54304635761588
 30
0.0
 11
205.29801324503313
 21
217.474898525956
 31
0.0
  0
LINE
  5
226
  8
BODY
 10
205.29801324503313
 20
217.474898525956
 30
0.0
 11
205.08438367870113
 21
217.95556505020295
 31
0.0
  0
LINE
  5
227
  8
BODY
 10
205.08438367870113
 20
217.95556505020295
 30
0.0
 11
204.97756889553514
 21
217.20786156804098
 31
0.0
  0
LINE
  5
228
  8
BODY
 10
204.97756889553514
 20
217.20786156804098
 30
0.0
 11
204.65712454603718
 21
217.047639393292
 31
0.0
  0
LINE
  5
229
  8
BODY
 10
204.65712454603718
 20
217.047639393292
 30
0.0
 11
204.71053193762017
 21
217.635120700705
 31
0.0
  0
LINE
  5
22A
  8
BODY
 10
204.71053193762017
 20
217.635120700705
 30
0.0
 11
204.1764580217902
 21
216.51356547746207
 31
0.0
  0
LINE
  5
22B
  8
BODY
 10
204.1764580217902
 20
216.51356547746207
 30
0.0
 11
204.01623584704123
 21
217.047639393292
 31
0.0
  0
LINE
  5
22C
  8
BODY
 10
204.01623584704123
 20
217.047639393292
 30
0.0
 11
203.1617175817133
 21
215.55223242896818
 31
0.0
  0
LINE
  5
22D
  8
BODY
 10
203.1617175817133
 20
215.55223242896818
 30
0.0
 11
203.1083101901303
 21
216.08630634479812
 31
0.0
  0
LINE
  5
22E
  8
BODY
 10
203.1083101901303
 20
216.08630634479812
 30
0.0
 11
202.62764366588337
 21
215.0181585131382
 31
0.0
  0
LINE
  5
22F
  8
BODY
 10
202.62764366588337
 20
215.0181585131382
 30
0.0
 11
202.3071993163854
 21
215.3920102542192
 31
0.0
  0
LINE
  5
230
  8
BODY
 10
202.3071993163854
 20
215.3920102542192
 30
0.0
 11
202.0935697500534
 21
214.43067720572526
 31
0.0
  0
LINE
  5
231
  8
BODY
 10
202.0935697500534
 20
214.43067720572526
 30
0.0
 11
201.98675496688742
 21
215.0181585131382
 31
0.0
  0
LINE
  5
232
  8
BODY
 10
201.98675496688742
 20
215.0181585131382
 30
0.0
 11
201.50608844264048
 21
213.78978850672934
 31
0.0
  0
LINE
  5
233
  8
BODY
 10
201.50608844264048
 20
213.78978850672934
 30
0.0
 11
201.3992736594745
 21
214.37726981414227
 31
0.0
  0
LINE
  5
234
  8
BODY
 10
201.3992736594745
 20
214.37726981414227
 30
0.0
 11
201.0788293099765
 21
213.25571459089934
 31
0.0
  0
LINE
  5
235
  8
BODY
 10
201.0788293099765
 20
213.25571459089934
 30
0.0
 11
200.86519974364452
 21
213.73638111514634
 31
0.0
  0
LINE
  5
236
  8
BODY
 10
200.86519974364452
 20
213.73638111514634
 30
0.0
 11
200.70497756889554
 21
212.7216406750694
 31
0.0
  0
LINE
  5
237
  8
BODY
 10
200.70497756889554
 20
212.7216406750694
 30
0.0
 11
200.43794061098058
 21
213.20230719931635
 31
0.0
  0
LINE
  5
238
  8
BODY
 10
200.43794061098058
 20
213.20230719931635
 30
0.0
 11
200.43794061098058
 21
212.40119632557145
 31
0.0
  0
LINE
  5
239
  8
BODY
 10
200.43794061098058
 20
212.40119632557145
 30
0.0
 11
200.0640888698996
 21
212.0807519760735
 31
0.0
  0
LINE
  5
23A
  8
BODY
 10
200.0640888698996
 20
212.0807519760735
 30
0.0
 11
199.9572740867336
 21
212.56141850032043
 31
0.0
  0
LINE
  5
23B
  8
BODY
 10
199.9572740867336
 20
212.56141850032043
 30
0.0
 11
199.69023712881864
 21
211.43986327707756
 31
0.0
  0
LINE
  5
23C
  8
BODY
 10
199.69023712881864
 20
211.43986327707756
 30
0.0
 11
199.63682973723564
 21
212.13415936765648
 31
0.0
  0
LINE
  5
23D
  8
BODY
 10
199.63682973723564
 20
212.13415936765648
 30
0.0
 11
199.58342234565265
 21
211.11941892757955
 31
0.0
  0
LINE
  5
23E
  8
BODY
 10
199.58342234565265
 20
211.11941892757955
 30
0.0
 11
199.15616321298867
 21
210.95919675283056
 31
0.0
  0
LINE
  5
23F
  8
BODY
 10
199.15616321298867
 20
210.95919675283056
 30
0.0
 11
199.26297799615466
 21
211.49327066866056
 31
0.0
  0
LINE
  5
240
  8
BODY
 10
199.26297799615466
 20
211.49327066866056
 30
0.0
 11
199.20957060457167
 21
210.53193762016662
 31
0.0
  0
LINE
  5
241
  8
BODY
 10
199.20957060457167
 20
210.53193762016662
 30
0.0
 11
198.8891262550737
 21
210.21149327066865
 31
0.0
  0
LINE
  5
242
  8
BODY
 10
198.8891262550737
 20
210.21149327066865
 30
0.0
 11
198.8357188634907
 21
210.85238196966458
 31
0.0
  0
LINE
  5
243
  8
BODY
 10
198.8357188634907
 20
210.85238196966458
 30
0.0
 11
198.72890408032472
 21
209.7308267464217
 31
0.0
  0
LINE
  5
244
  8
BODY
 10
198.72890408032472
 20
209.7308267464217
 30
0.0
 11
198.30164494766078
 21
209.99786370433668
 31
0.0
  0
LINE
  5
245
  8
BODY
 10
198.30164494766078
 20
209.99786370433668
 30
0.0
 11
198.35505233924377
 21
209.03653065584274
 31
0.0
  0
LINE
  5
246
  8
BODY
 10
198.35505233924377
 20
209.03653065584274
 30
0.0
 11
198.08801538132877
 21
209.57060457167273
 31
0.0
  0
LINE
  5
247
  8
BODY
 10
198.08801538132877
 20
209.57060457167273
 30
0.0
 11
198.14142277291177
 21
208.6092715231788
 31
0.0
  0
LINE
  5
248
  8
BODY
 10
198.14142277291177
 20
208.6092715231788
 30
0.0
 11
197.8743858149968
 21
208.28882717368083
 31
0.0
  0
LINE
  5
249
  8
BODY
 10
197.8743858149968
 20
208.28882717368083
 30
0.0
 11
197.71416364024782
 21
208.92971587267675
 31
0.0
  0
LINE
  5
24A
  8
BODY
 10
197.71416364024782
 20
208.92971587267675
 30
0.0
 11
197.55394146549884
 21
208.6092715231788
 31
0.0
  0
LINE
  5
24B
  8
BODY
 10
197.55394146549884
 20
208.6092715231788
 30
0.0
 11
197.71416364024782
 21
207.7547532578509
 31
0.0
  0
LINE
  5
24C
  8
BODY
 10
197.71416364024782
 20
207.7547532578509
 30
0.0
 11
197.39371929074986
 21
208.23541978209784
 31
0.0
  0
LINE
  5
24D
  8
BODY
 10
197.39371929074986
 20
208.23541978209784
 30
0.0
 11
197.44712668233285
 21
207.1138645588549
 31
0.0
  0
LINE
  5
24E
  8
BODY
 10
197.44712668233285
 20
207.1138645588549
 30
0.0
 11
196.96646015808588
 21
207.32749412518694
 31
0.0
  0
LINE
  5
24F
  8
BODY
 10
196.96646015808588
 20
207.32749412518694
 30
0.0
 11
197.18008972441785
 21
206.472975859859
 31
0.0
  0
LINE
  5
250
  8
BODY
 10
197.18008972441785
 20
206.472975859859
 30
0.0
 11
196.96646015808588
 21
206.25934629352702
 31
0.0
  0
LINE
  5
251
  8
BODY
 10
196.96646015808588
 20
206.25934629352702
 30
0.0
 11
196.8062379833369
 21
206.84682760093995
 31
0.0
  0
LINE
  5
252
  8
BODY
 10
196.8062379833369
 20
206.84682760093995
 30
0.0
 11
196.9130527665029
 21
205.77867976928007
 31
0.0
  0
LINE
  5
253
  8
BODY
 10
196.9130527665029
 20
205.77867976928007
 30
0.0
 11
196.43238624225594
 21
205.93890194402906
 31
0.0
  0
LINE
  5
254
  8
BODY
 10
196.43238624225594
 20
205.93890194402906
 30
0.0
 11
196.64601580858792
 21
204.97756889553511
 31
0.0
  0
LINE
  5
255
  8
BODY
 10
196.64601580858792
 20
204.97756889553511
 30
0.0
 11
196.21875667592394
 21
205.35142063661613
 31
0.0
  0
LINE
  5
256
  8
BODY
 10
196.21875667592394
 20
205.35142063661613
 30
0.0
 11
196.43238624225594
 21
204.2832728049562
 31
0.0
  0
LINE
  5
257
  8
BODY
 10
196.43238624225594
 20
204.2832728049562
 30
0.0
 11
196.05853450117496
 21
204.76393932920314
 31
0.0
  0
LINE
  5
258
  8
BODY
 10
196.05853450117496
 20
204.76393932920314
 30
0.0
 11
196.27216406750694
 21
203.69579149754327
 31
0.0
  0
LINE
  5
259
  8
BODY
 10
196.27216406750694
 20
203.69579149754327
 30
0.0
 11
196.00512710959197
 21
203.4821619312113
 31
0.0
  0
LINE
  5
25A
  8
BODY
 10
196.00512710959197
 20
203.4821619312113
 30
0.0
 11
195.844904934843
 21
204.01623584704123
 31
0.0
  0
LINE
  5
25B
  8
BODY
 10
195.844904934843
 20
204.01623584704123
 30
0.0
 11
196.05853450117496
 21
202.84127323221531
 31
0.0
  0
LINE
  5
25C
  8
BODY
 10
196.05853450117496
 20
202.84127323221531
 30
0.0
 11
195.57786797692802
 21
203.0549027985473
 31
0.0
  0
LINE
  5
25D
  8
BODY
 10
195.57786797692802
 20
203.0549027985473
 30
0.0
 11
196.00512710959197
 21
201.77312540055544
 31
0.0
  0
LINE
  5
25E
  8
BODY
 10
196.00512710959197
 20
201.77312540055544
 30
0.0
 11
196.16534928434095
 21
203.4821619312113
 31
0.0
  0
LINE
  5
25F
  8
BODY
 10
196.16534928434095
 20
203.4821619312113
 30
0.0
 11
196.32557145908996
 21
203.21512497329627
 31
0.0
  0
LINE
  5
260
  8
BODY
 10
196.32557145908996
 20
203.21512497329627
 30
0.0
 11
197.55394146549884
 21
207.43430890835293
 31
0.0
  0
LINE
  5
261
  8
BODY
 10
197.55394146549884
 20
207.43430890835293
 30
0.0
 11
200.54475539414656
 21
212.50801110873743
 31
0.0
  0
LINE
  5
262
  8
BODY
 10
200.54475539414656
 20
212.50801110873743
 30
0.0
 11
205.08438367870113
 21
217.26126895962398
 31
0.0
  0
LINE
  5
263
  8
BODY
 10
205.08438367870113
 20
217.26126895962398
 30
0.0
 11
209.8910489211707
 21
220.5191198461867
 31
0.0
  0
LINE
  5
264
  8
BODY
 10
209.8910489211707
 20
220.5191198461867
 30
0.0
 11
214.80452894680624
 21
222.6554155095065
 31
0.0
  0
LINE
  5
265
  8
BODY
 10
214.80452894680624
 20
222.6554155095065
 30
0.0
 11
221.64067506942962
 21
224.25763725699636
 31
0.0
  0
LINE
  5
266
  8
BODY
 10
221.64067506942962
 20
224.25763725699636
 30
0.0
 11
229.86541337321086
 21
225.37919248023928
 31
0.0
  0
LINE
  5
267
  8
BODY
 10
229.86541337321086
 20
225.37919248023928
 30
0.0
 11
241.66844691305278
 21
225.9666737876522
 31
0.0
  0
LINE
  5
268
  8
BODY
 10
241.66844691305278
 20
225.9666737876522
 30
0.0
 11
241.77526169621876
 21
226.60756248664813
 31
0.0
  0
LINE
  5
269
  8
BODY
 10
300.95065157017734
 20
219.93163853877377
 30
0.0
 11
288.0794701986755
 21
225.21897030549025
 31
0.0
  0
LINE
  5
26A
  8
BODY
 10
288.0794701986755
 20
225.21897030549025
 30
0.0
 11
265.2745139927366
 21
227.4620807519761
 31
0.0
  0
LINE
  5
26B
  8
BODY
 10
265.2745139927366
 20
227.4620807519761
 30
0.0
 11
265.2211066011536
 21
231.2540055543687
 31
0.0
  0
LINE
  5
26C
  8
BODY
 10
265.2211066011536
 20
231.2540055543687
 30
0.0
 11
265.11429181798763
 21
228.69045075838494
 31
0.0
  0
LINE
  5
26D
  8
BODY
 10
265.11429181798763
 20
228.69045075838494
 30
0.0
 11
253.73851741080966
 21
228.69045075838494
 31
0.0
  0
LINE
  5
26E
  8
BODY
 10
253.73851741080966
 20
228.69045075838494
 30
0.0
 11
253.68511001922667
 21
233.39030121768855
 31
0.0
  0
LINE
  5
26F
  8
BODY
 10
253.68511001922667
 20
233.39030121768855
 30
0.0
 11
253.63170262764368
 21
228.69045075838494
 31
0.0
  0
LINE
  5
270
  8
BODY
 10
253.63170262764368
 20
228.69045075838494
 30
0.0
 11
242.04229865413373
 21
228.69045075838494
 31
0.0
  0
LINE
  5
271
  8
BODY
 10
242.04229865413373
 20
228.69045075838494
 30
0.0
 11
253.68511001922667
 21
227.72911770989106
 31
0.0
  0
LINE
  5
272
  8
BODY
 10
253.68511001922667
 20
227.72911770989106
 30
0.0
 11
250.64088869899595
 21
224.8451185644093
 31
0.0
  0
LINE
  5
273
  8
BODY
 10
250.64088869899595
 20
224.8451185644093
 30
0.0
 11
253.63170262764368
 21
221.9077120273446
 31
0.0
  0
LINE
  5
274
  8
BODY
 10
253.63170262764368
 20
221.9077120273446
 30
0.0
 11
241.93548387096774
 21
221.9077120273446
 31
0.0
  0
LINE
  5
275
  8
BODY
 10
241.93548387096774
 20
221.9077120273446
 30
0.0
 11
253.63170262764368
 21
220.99978637043364
 31
0.0
  0
LINE
  5
276
  8
BODY
 10
253.63170262764368
 20
220.99978637043364
 30
0.0
 11
253.63170262764368
 21
215.4988250373852
 31
0.0
  0
LINE
  5
277
  8
BODY
 10
253.63170262764368
 20
215.4988250373852
 30
0.0
 11
241.93548387096774
 21
215.4988250373852
 31
0.0
  0
LINE
  5
278
  8
BODY
 10
241.93548387096774
 20
215.4988250373852
 30
0.0
 11
241.98889126255074
 21
220.30549027985472
 31
0.0
  0
LINE
  5
279
  8
BODY
 10
241.98889126255074
 20
220.30549027985472
 30
0.0
 11
241.82866908780176
 21
216.67378765221105
 31
0.0
  0
LINE
  5
27A
  8
BODY
 10
241.82866908780176
 20
216.67378765221105
 30
0.0
 11
253.63170262764368
 21
214.59089938047424
 31
0.0
  0
LINE
  5
27B
  8
BODY
 10
253.63170262764368
 20
214.59089938047424
 30
0.0
 11
253.68511001922667
 21
209.51719718008974
 31
0.0
  0
LINE
  5
27C
  8
BODY
 10
253.68511001922667
 20
209.51719718008974
 30
0.0
 11
241.88207647938475
 21
209.46378978850674
 31
0.0
  0
LINE
  5
27D
  8
BODY
 10
241.88207647938475
 20
209.46378978850674
 30
0.0
 11
241.77526169621876
 21
213.95001068147832
 31
0.0
  0
LINE
  5
27E
  8
BODY
 10
241.77526169621876
 20
213.95001068147832
 30
0.0
 11
241.72185430463577
 21
209.46378978850674
 31
0.0
  0
LINE
  5
27F
  8
BODY
 10
241.72185430463577
 20
209.46378978850674
 30
0.0
 11
253.63170262764368
 21
208.5558641315958
 31
0.0
  0
LINE
  5
280
  8
BODY
 10
253.63170262764368
 20
208.5558641315958
 30
0.0
 11
253.68511001922667
 21
203.80260628070926
 31
0.0
  0
LINE
  5
281
  8
BODY
 10
253.68511001922667
 20
203.80260628070926
 30
0.0
 11
241.66844691305278
 21
205.83208716086307
 31
0.0
  0
LINE
  5
282
  8
BODY
 10
241.66844691305278
 20
205.83208716086307
 30
0.0
 11
241.72185430463577
 21
199.53001495406966
 31
0.0
  0
LINE
  5
283
  8
BODY
 10
241.72185430463577
 20
199.53001495406966
 30
0.0
 11
241.77526169621876
 21
202.84127323221531
 31
0.0
  0
LINE
  5
284
  8
BODY
 10
241.77526169621876
 20
202.84127323221531
 30
0.0
 11
253.63170262764368
 21
202.84127323221531
 31
0.0
  0
LINE
  5
285
  8
BODY
 10
253.63170262764368
 20
202.84127323221531
 30
0.0
 11
253.68511001922667
 21
198.40845973082673
 31
0.0
  0
LINE
  5
286
  8
BODY
 10
253.68511001922667
 20
198.40845973082673
 30
0.0
 11
241.5616321298868
 21
198.6220892971587
 31
0.0
  0
LINE
  5
287
  8
BODY
 10
241.5616321298868
 20
198.6220892971587
 30
0.0
 11
241.5082247383038
 21
192.3734244819483
 31
0.0
  0
LINE
  5
288
  8
BODY
 10
241.5082247383038
 20
192.3734244819483
 30
0.0
 11
253.63170262764368
 21
192.3734244819483
 31
0.0
  0
LINE
  5
289
  8
BODY
 10
253.63170262764368
 20
192.3734244819483
 30
0.0
 11
253.68511001922667
 21
187.56675923947876
 31
0.0
  0
LINE
  5
28A
  8
BODY
 10
253.68511001922667
 20
187.56675923947876
 30
0.0
 11
241.5616321298868
 21
187.51335184789576
 31
0.0
  0
LINE
  5
28B
  8
BODY
 10
241.5616321298868
 20
187.51335184789576
 30
0.0
 11
241.4548173467208
 21
192.2132023071993
 31
0.0
  0
LINE
  5
28C
  8
BODY
 10
241.4548173467208
 20
192.2132023071993
 30
0.0
 11
241.4548173467208
 21
188.47468489638965
 31
0.0
  0
LINE
  5
28D
  8
BODY
 10
241.4548173467208
 20
188.47468489638965
 30
0.0
 11
236.32770775475328
 21
185.21683400982693
 31
0.0
  0
LINE
  5
28E
  8
BODY
 10
236.32770775475328
 20
185.21683400982693
 30
0.0
 11
242.73659474471268
 21
187.40653706472978
 31
0.0
  0
LINE
  5
28F
  8
BODY
 10
242.73659474471268
 20
187.40653706472978
 30
0.0
 11
232.21533860286263
 21
177.4193548387097
 31
0.0
  0
LINE
  5
290
  8
BODY
 10
232.21533860286263
 20
177.4193548387097
 30
0.0
 11
229.2245246742149
 21
162.99935911130098
 31
0.0
  0
LINE
  5
291
  8
BODY
 10
229.2245246742149
 20
162.99935911130098
 30
0.0
 11
237.12881862849818
 21
147.2975859859004
 31
0.0
  0
LINE
  5
292
  8
BODY
 10
237.12881862849818
 20
147.2975859859004
 30
0.0
 11
253.68511001922667
 21
140.888698995941
 31
0.0
  0
LINE
  5
293
  8
BODY
 10
253.68511001922667
 20
140.888698995941
 30
0.0
 11
237.50267036957916
 21
144.68062379833367
 31
0.0
  0
LINE
  5
294
  8
BODY
 10
237.50267036957916
 20
144.68062379833367
 30
0.0
 11
253.68511001922667
 21
139.12625507370217
 31
0.0
  0
LINE
  5
295
  8
BODY
 10
253.68511001922667
 20
139.12625507370217
 30
0.0
 11
253.68511001922667
 21
118.3507797479171
 31
0.0
  0
LINE
  5
296
  8
BODY
 10
253.68511001922667
 20
118.3507797479171
 30
0.0
 11
221.05319376201666
 21
118.72463148899806
 31
0.0
  0
LINE
  5
297
  8
BODY
 10
221.05319376201666
 20
118.72463148899806
 30
0.0
 11
221.05319376201666
 21
103.93078402050844
 31
0.0
  0
LINE
  5
298
  8
BODY
 10
221.05319376201666
 20
103.93078402050844
 30
0.0
 11
221.10660115359966
 21
118.29737235633411
 31
0.0
  0
LINE
  5
299
  8
BODY
 10
221.10660115359966
 20
118.29737235633411
 30
0.0
 11
253.68511001922667
 21
118.24396496475111
 31
0.0
  0
LINE
  5
29A
  8
BODY
 10
253.68511001922667
 20
118.24396496475111
 30
0.0
 11
253.63170262764368
 21
113.27707754753254
 31
0.0
  0
LINE
  5
29B
  8
BODY
 10
253.63170262764368
 20
113.27707754753254
 30
0.0
 11
238.78444776757104
 21
113.70433668019655
 31
0.0
  0
LINE
  5
29C
  8
BODY
 10
238.78444776757104
 20
113.70433668019655
 30
0.0
 11
238.73104037598804
 21
109.3249305703909
 31
0.0
  0
LINE
  5
29D
  8
BODY
 10
238.73104037598804
 20
109.3249305703909
 30
0.0
 11
221.64067506942962
 21
108.68404187139498
 31
0.0
  0
LINE
  5
29E
  8
BODY
 10
221.64067506942962
 20
108.68404187139498
 30
0.0
 11
238.73104037598804
 21
109.27152317880791
 31
0.0
  0
LINE
  5
29F
  8
BODY
 10
238.73104037598804
 20
109.27152317880791
 30
0.0
 11
238.78444776757104
 21
106.70796838282416
 31
0.0
  0
LINE
  5
2A0
  8
BODY
 10
238.78444776757104
 20
106.70796838282416
 30
0.0
 11
238.83785515915403
 21
109.27152317880791
 31
0.0
  0
LINE
  5
2A1
  8
BODY
 10
238.83785515915403
 20
109.27152317880791
 30
0.0
 11
253.68511001922667
 21
109.21811578722492
 31
0.0
  0
LINE
  5
2A2
  8
BODY
 10
253.68511001922667
 20
109.21811578722492
 30
0.0
 11
239.265114291818
 21
106.4409314249092
 31
0.0
  0
LINE
  5
2A3
  8
BODY
 10
239.265114291818
 20
106.4409314249092
 30
0.0
 11
283.7534714804529
 21
109.21811578722492
 31
0.0
  0
LINE
  5
2A4
  8
BODY
 10
283.7534714804529
 20
109.21811578722492
 30
0.0
 11
268.4789574877163
 21
109.3249305703909
 31
0.0
  0
LINE
  5
2A5
  8
BODY
 10
268.4789574877163
 20
109.3249305703909
 30
0.0
 11
268.4255500961333
 21
113.70433668019655
 31
0.0
  0
LINE
  5
2A6
  8
BODY
 10
268.4255500961333
 20
113.70433668019655
 30
0.0
 11
268.3721427045503
 21
109.3249305703909
 31
0.0
  0
LINE
  5
2A7
  8
BODY
 10
268.3721427045503
 20
109.3249305703909
 30
0.0
 11
253.73851741080966
 21
109.3249305703909
 31
0.0
  0
LINE
  5
2A8
  8
BODY
 10
253.73851741080966
 20
109.3249305703909
 30
0.0
 11
253.73851741080966
 21
113.27707754753254
 31
0.0
  0
LINE
  5
2A9
  8
BODY
 10
253.73851741080966
 20
113.27707754753254
 30
0.0
 11
268.2653279213843
 21
113.27707754753254
 31
0.0
  0
LINE
  5
2AA
  8
BODY
 10
268.2653279213843
 20
113.27707754753254
 30
0.0
 11
253.73851741080966
 21
113.27707754753254
 31
0.0
  0
LINE
  5
2AB
  8
BODY
 10
253.73851741080966
 20
113.27707754753254
 30
0.0
 11
253.68511001922667
 21
118.24396496475111
 31
0.0
  0
LINE
  5
2AC
  8
BODY
 10
253.68511001922667
 20
118.24396496475111
 30
0.0
 11
286.15680410168767
 21
118.29737235633411
 31
0.0
  0
LINE
  5
2AD
  8
BODY
 10
286.15680410168767
 20
118.29737235633411
 30
0.0
 11
286.21021149327066
 21
106.06707968382824
 31
0.0
  0
LINE
  5
2AE
  8
BODY
 10
286.21021149327066
 20
106.06707968382824
 30
0.0
 11
286.21021149327066
 21
118.72463148899806
 31
0.0
  0
LINE
  5
2AF
  8
BODY
 10
286.21021149327066
 20
118.72463148899806
 30
0.0
 11
253.68511001922667
 21
118.3507797479171
 31
0.0
  0
LINE
  5
2B0
  8
BODY
 10
253.68511001922667
 20
118.3507797479171
 30
0.0
 11
253.68511001922667
 21
139.12625507370217
 31
0.0
  0
LINE
  5
2B1
  8
BODY
 10
253.68511001922667
 20
139.12625507370217
 30
0.0
 11
269.92095706045717
 21
144.78743858149966
 31
0.0
  0
LINE
  5
2B2
  8
BODY
 10
269.92095706045717
 20
144.78743858149966
 30
0.0
 11
253.68511001922667
 21
140.67506942960904
 31
0.0
  0
LINE
  5
2B3
  8
BODY
 10
253.68511001922667
 20
140.67506942960904
 30
0.0
 11
270.13458662678914
 21
147.2975859859004
 31
0.0
  0
LINE
  5
2B4
  8
BODY
 10
270.13458662678914
 20
147.2975859859004
 30
0.0
 11
278.0922879726554
 21
163.69365520187995
 31
0.0
  0
LINE
  5
2B5
  8
BODY
 10
278.0922879726554
 20
163.69365520187995
 30
0.0
 11
275.4219183935057
 21
176.72505874813072
 31
0.0
  0
LINE
  5
2B6
  8
BODY
 10
275.4219183935057
 20
176.72505874813072
 30
0.0
 11
265.86199530014954
 21
187.83379619739372
 31
0.0
  0
LINE
  5
2B7
  8
BODY
 10
265.86199530014954
 20
187.83379619739372
 30
0.0
 11
253.68511001922667
 21
187.56675923947876
 31
0.0
  0
LINE
  5
2B8
  8
BODY
 10
253.68511001922667
 20
187.56675923947876
 30
0.0
 11
253.73851741080966
 21
192.3734244819483
 31
0.0
  0
LINE
  5
2B9
  8
BODY
 10
253.73851741080966
 20
192.3734244819483
 30
0.0
 11
265.64836573381757
 21
192.3734244819483
 31
0.0
  0
LINE
  5
2BA
  8
BODY
 10
265.64836573381757
 20
192.3734244819483
 30
0.0
 11
269.0664387951293
 21
186.7122409741508
 31
0.0
  0
LINE
  5
2BB
  8
BODY
 10
269.0664387951293
 20
186.7122409741508
 30
0.0
 11
265.70177312540056
 21
188.7951292458876
 31
0.0
  0
LINE
  5
2BC
  8
BODY
 10
265.70177312540056
 20
188.7951292458876
 30
0.0
 11
265.75518051698356
 21
195.04379406109803
 31
0.0
  0
LINE
  5
2BD
  8
BODY
 10
265.75518051698356
 20
195.04379406109803
 30
0.0
 11
253.68511001922667
 21
193.33475753044218
 31
0.0
  0
LINE
  5
2BE
  8
BODY
 10
253.68511001922667
 20
193.33475753044218
 30
0.0
 11
253.73851741080966
 21
197.44712668233285
 31
0.0
  0
LINE
  5
2BF
  8
BODY
 10
253.73851741080966
 20
197.44712668233285
 30
0.0
 11
265.70177312540056
 21
196.91305276650286
 31
0.0
  0
LINE
  5
2C0
  8
BODY
 10
265.70177312540056
 20
196.91305276650286
 30
0.0
 11
265.64836573381757
 21
202.68105105746633
 31
0.0
  0
LINE
  5
2C1
  8
BODY
 10
265.64836573381757
 20
202.68105105746633
 30
0.0
 11
265.5415509506516
 21
198.35505233924374
 31
0.0
  0
LINE
  5
2C2
  8
BODY
 10
265.5415509506516
 20
198.35505233924374
 30
0.0
 11
253.68511001922667
 21
198.40845973082673
 31
0.0
  0
LINE
  5
2C3
  8
BODY
 10
253.68511001922667
 20
198.40845973082673
 30
0.0
 11
253.73851741080966
 21
202.84127323221531
 31
0.0
  0
LINE
  5
2C4
  8
BODY
 10
253.73851741080966
 20
202.84127323221531
 30
0.0
 11
265.64836573381757
 21
202.84127323221531
 31
0.0
  0
LINE
  5
2C5
  8
BODY
 10
265.64836573381757
 20
202.84127323221531
 30
0.0
 11
253.68511001922667
 21
203.80260628070926
 31
0.0
  0
LINE
  5
2C6
  8
BODY
 10
253.68511001922667
 20
203.80260628070926
 30
0.0
 11
253.73851741080966
 21
208.5558641315958
 31
0.0
  0
LINE
  5
2C7
  8
BODY
 10
253.73851741080966
 20
208.5558641315958
 30
0.0
 11
265.3813287759026
 21
208.5558641315958
 31
0.0
  0
LINE
  5
2C8
  8
BODY
 10
265.3813287759026
 20
208.5558641315958
 30
0.0
 11
265.5949583422346
 21
204.12305063020722
 31
0.0
  0
LINE
  5
2C9
  8
BODY
 10
265.5949583422346
 20
204.12305063020722
 30
0.0
 11
265.5415509506516
 21
209.51719718008974
 31
0.0
  0
LINE
  5
2CA
  8
BODY
 10
265.5415509506516
 20
209.51719718008974
 30
0.0
 11
253.68511001922667
 21
209.51719718008974
 31
0.0
  0
LINE
  5
2CB
  8
BODY
 10
253.68511001922667
 20
209.51719718008974
 30
0.0
 11
253.73851741080966
 21
214.59089938047424
 31
0.0
  0
LINE
  5
2CC
  8
BODY
 10
253.73851741080966
 20
214.59089938047424
 30
0.0
 11
265.3279213843196
 21
214.59089938047424
 31
0.0
  0
LINE
  5
2CD
  8
BODY
 10
265.3279213843196
 20
214.59089938047424
 30
0.0
 11
265.3813287759026
 21
210.47853022858362
 31
0.0
  0
LINE
  5
2CE
  8
BODY
 10
265.3813287759026
 20
210.47853022858362
 30
0.0
 11
265.4347361674856
 21
217.635120700705
 31
0.0
  0
LINE
  5
2CF
  8
BODY
 10
265.4347361674856
 20
217.635120700705
 30
0.0
 11
253.68511001922667
 21
215.55223242896818
 31
0.0
  0
LINE
  5
2D0
  8
BODY
 10
253.68511001922667
 20
215.55223242896818
 30
0.0
 11
253.73851741080966
 21
220.99978637043364
 31
0.0
  0
LINE
  5
2D1
  8
BODY
 10
253.73851741080966
 20
220.99978637043364
 30
0.0
 11
265.2211066011536
 21
220.99978637043364
 31
0.0
  0
LINE
  5
2D2
  8
BODY
 10
265.2211066011536
 20
220.99978637043364
 30
0.0
 11
265.3813287759026
 21
218.59645374919887
 31
0.0
  0
LINE
  5
2D3
  8
BODY
 10
265.3813287759026
 20
218.59645374919887
 30
0.0
 11
265.3279213843196
 21
223.9906002990814
 31
0.0
  0
LINE
  5
2D4
  8
BODY
 10
265.3279213843196
 20
223.9906002990814
 30
0.0
 11
253.73851741080966
 21
221.9077120273446
 31
0.0
  0
LINE
  5
2D5
  8
BODY
 10
253.73851741080966
 20
221.9077120273446
 30
0.0
 11
256.5691091647084
 21
224.8451185644093
 31
0.0
  0
LINE
  5
2D6
  8
BODY
 10
256.5691091647084
 20
224.8451185644093
 30
0.0
 11
253.68511001922667
 21
227.72911770989106
 31
0.0
  0
LINE
  5
2D7
  8
BODY
 10
253.68511001922667
 20
227.72911770989106
 30
0.0
 11
291.92480239265115
 21
222.76223029267248
 31
0.0
  0
LINE
  5
2D8
  8
BODY
 10
291.92480239265115
 20
222.76223029267248
 30
0.0
 11
306.9322794274728
 21
211.9739371929075
 31
0.0
  0
LINE
  5
2D9
  8
BODY
 10
306.9322794274728
 20
211.9739371929075
 30
0.0
 11
312.0059816278573
 21
193.2279427472762
 31
0.0
  0
LINE
  5
2DA
  8
BODY
 10
312.0059816278573
 20
193.2279427472762
 30
0.0
 11
301.85857722708823
 21
160.43580431531723
 31
0.0
  0
LINE
  5
2DB
  8
BODY
 10
301.85857722708823
 20
160.43580431531723
 30
0.0
 11
312.32642597735526
 21
191.25186925870537
 31
0.0
  0
LINE
  5
2DC
  8
BODY
 10
312.32642597735526
 20
191.25186925870537
 30
0.0
 11
309.0151676992096
 21
209.9444563127537
 31
0.0
  0
LINE
  5
2DD
  8
BODY
 10
309.0151676992096
 20
209.9444563127537
 30
0.0
 11
294.2747276223029
 21
222.6020081179235
 31
0.0
  0
LINE
  5
2DE
  8
BODY
 10
294.2747276223029
 20
222.6020081179235
 30
0.0
 11
265.2211066011536
 21
226.76778466139712
 31
0.0
  0
LINE
  5
2DF
  8
BODY
 10
265.2211066011536
 20
226.76778466139712
 30
0.0
 11
295.0224311044649
 21
223.02926725058745
 31
0.0
  0
LINE
  5
2E0
  8
BODY
 10
295.0224311044649
 20
223.02926725058745
 30
0.0
 11
310.77761162144844
 21
207.86156804101688
 31
0.0
  0
LINE
  5
2E1
  8
BODY
 10
310.77761162144844
 20
207.86156804101688
 30
0.0
 11
300.95065157017734
 21
219.93163853877377
 31
0.0
  0
LINE
  5
2E2
  8
BODY
 10
242.6297799615467
 20
235.04593035676135
 30
0.0
 11
242.84340952787866
 21
235.25955992309332
 31
0.0
  0
LINE
  5
2E3
  8
BODY
 10
242.84340952787866
 20
235.25955992309332
 30
0.0
 11
242.84340952787866
 21
235.52659688100835
 31
0.0
  0
LINE
  5
2E4
  8
BODY
 10
242.84340952787866
 20
235.52659688100835
 30
0.0
 11
242.68318735312968
 21
235.74022644734032
 31
0.0
  0
LINE
  5
2E5
  8
BODY
 10
242.68318735312968
 20
235.74022644734032
 30
0.0
 11
242.73659474471268
 21
235.7936338389233
 31
0.0
  0
LINE
  5
2E6
  8
BODY
 10
242.73659474471268
 20
235.7936338389233
 30
0.0
 11
253.63170262764368
 21
235.7936338389233
 31
0.0
  0
LINE
  5
2E7
  8
BODY
 10
253.63170262764368
 20
235.7936338389233
 30
0.0
 11
253.68511001922667
 21
235.74022644734032
 31
0.0
  0
LINE
  5
2E8
  8
BODY
 10
253.68511001922667
 20
235.74022644734032
 30
0.0
 11
253.73851741080966
 21
235.7936338389233
 31
0.0
  0
LINE
  5
2E9
  8
BODY
 10
253.73851741080966
 20
235.7936338389233
 30
0.0
 11
264.52681051057465
 21
235.7936338389233
 31
0.0
  0
LINE
  5
2EA
  8
BODY
 10
264.52681051057465
 20
235.7936338389233
 30
0.0
 11
264.58021790215764
 21
235.74022644734032
 31
0.0
  0
LINE
  5
2EB
  8
BODY
 10
264.58021790215764
 20
235.74022644734032
 30
0.0
 11
264.41999572740866
 21
235.52659688100835
 31
0.0
  0
LINE
  5
2EC
  8
BODY
 10
264.41999572740866
 20
235.52659688100835
 30
0.0
 11
264.41999572740866
 21
235.31296731467637
 31
0.0
  0
LINE
  5
2ED
  8
BODY
 10
264.41999572740866
 20
235.31296731467637
 30
0.0
 11
264.63362529374064
 21
235.04593035676135
 31
0.0
  0
LINE
  5
2EE
  8
BODY
 10
264.63362529374064
 20
235.04593035676135
 30
0.0
 11
264.58021790215764
 21
234.99252296517835
 31
0.0
  0
LINE
  5
2EF
  8
BODY
 10
264.58021790215764
 20
234.99252296517835
 30
0.0
 11
253.73851741080966
 21
234.99252296517835
 31
0.0
  0
LINE
  5
2F0
  8
BODY
 10
253.73851741080966
 20
234.99252296517835
 30
0.0
 11
253.68511001922667
 21
235.04593035676135
 31
0.0
  0
LINE
  5
2F1
  8
BODY
 10
253.68511001922667
 20
235.04593035676135
 30
0.0
 11
253.68511001922667
 21
235.47318948942535
 31
0.0
  0
LINE
  5
2F2
  8
BODY
 10
253.68511001922667
 20
235.47318948942535
 30
0.0
 11
253.68511001922667
 21
235.04593035676135
 31
0.0
  0
LINE
  5
2F3
  8
BODY
 10
253.68511001922667
 20
235.04593035676135
 30
0.0
 11
253.63170262764368
 21
234.99252296517835
 31
0.0
  0
LINE
  5
2F4
  8
BODY
 10
253.63170262764368
 20
234.99252296517835
 30
0.0
 11
242.68318735312968
 21
234.99252296517835
 31
0.0
  0
LINE
  5
2F5
  8
BODY
 10
242.68318735312968
 20
234.99252296517835
 30
0.0
 11
242.6297799615467
 21
235.04593035676135
 31
0.0
  0
LINE
  5
2F6
  8
BODY
 10
265.11429181798763
 20
239.371929074984
 30
0.0
 11
265.11429181798763
 21
238.51741080965604
 31
0.0
  0
LINE
  5
2F7
  8
BODY
 10
265.11429181798763
 20
238.51741080965604
 30
0.0
 11
265.00747703482165
 21
238.46400341807305
 31
0.0
  0
LINE
  5
2F8
  8
BODY
 10
265.00747703482165
 20
238.46400341807305
 30
0.0
 11
265.00747703482165
 21
235.8470412305063
 31
0.0
  0
LINE
  5
2F9
  8
BODY
 10
265.00747703482165
 20
235.8470412305063
 30
0.0
 11
253.73851741080966
 21
235.8470412305063
 31
0.0
  0
LINE
  5
2FA
  8
BODY
 10
253.73851741080966
 20
235.8470412305063
 30
0.0
 11
253.68511001922667
 21
236.0072634052553
 31
0.0
  0
LINE
  5
2FB
  8
BODY
 10
253.68511001922667
 20
236.0072634052553
 30
0.0
 11
253.63170262764368
 21
235.8470412305063
 31
0.0
  0
LINE
  5
2FC
  8
BODY
 10
253.63170262764368
 20
235.8470412305063
 30
0.0
 11
242.14911343729972
 21
235.8470412305063
 31
0.0
  0
LINE
  5
2FD
  8
BODY
 10
242.14911343729972
 20
235.8470412305063
 30
0.0
 11
242.25592822046573
 21
235.74022644734032
 31
0.0
  0
LINE
  5
2FE
  8
BODY
 10
242.25592822046573
 20
235.74022644734032
 30
0.0
 11
242.30933561204873
 21
235.7936338389233
 31
0.0
  0
LINE
  5
2FF
  8
BODY
 10
242.30933561204873
 20
235.7936338389233
 30
0.0
 11
242.5763725699637
 21
235.68681905575733
 31
0.0
  0
LINE
  5
300
  8
BODY
 10
242.5763725699637
 20
235.68681905575733
 30
0.0
 11
242.73659474471268
 21
235.52659688100835
 31
0.0
  0
LINE
  5
301
  8
BODY
 10
242.73659474471268
 20
235.52659688100835
 30
0.0
 11
242.73659474471268
 21
235.31296731467637
 31
0.0
  0
LINE
  5
302
  8
BODY
 10
242.73659474471268
 20
235.31296731467637
 30
0.0
 11
242.5229651783807
 21
235.09933774834434
 31
0.0
  0
LINE
  5
303
  8
BODY
 10
242.5229651783807
 20
235.09933774834434
 30
0.0
 11
242.2025208288827
 21
235.04593035676135
 31
0.0
  0
LINE
  5
304
  8
BODY
 10
242.2025208288827
 20
235.04593035676135
 30
0.0
 11
242.09570604571672
 21
234.93911557359536
 31
0.0
  0
LINE
  5
305
  8
BODY
 10
242.09570604571672
 20
234.93911557359536
 30
0.0
 11
253.63170262764368
 21
234.93911557359536
 31
0.0
  0
LINE
  5
306
  8
BODY
 10
253.63170262764368
 20
234.93911557359536
 30
0.0
 11
253.68511001922667
 21
234.13800469985046
 31
0.0
  0
LINE
  5
307
  8
BODY
 10
253.68511001922667
 20
234.13800469985046
 30
0.0
 11
253.73851741080966
 21
234.93911557359536
 31
0.0
  0
LINE
  5
308
  8
BODY
 10
253.73851741080966
 20
234.93911557359536
 30
0.0
 11
265.00747703482165
 21
234.93911557359536
 31
0.0
  0
LINE
  5
309
  8
BODY
 10
265.00747703482165
 20
234.93911557359536
 30
0.0
 11
265.06088442640464
 21
233.06985686819053
 31
0.0
  0
LINE
  5
30A
  8
BODY
 10
265.06088442640464
 20
233.06985686819053
 30
0.0
 11
265.1676992095706
 21
233.06985686819053
 31
0.0
  0
LINE
  5
30B
  8
BODY
 10
265.1676992095706
 20
233.06985686819053
 30
0.0
 11
265.11429181798763
 21
239.371929074984
 31
0.0
  0
LINE
  5
30C
  8
BODY
 10
265.00747703482165
 20
245.72740867336037
 30
0.0
 11
264.90066225165566
 21
243.4842982268746
 31
0.0
  0
LINE
  5
30D
  8
BODY
 10
264.90066225165566
 20
243.4842982268746
 30
0.0
 11
253.73851741080966
 21
243.4842982268746
 31
0.0
  0
LINE
  5
30E
  8
BODY
 10
253.73851741080966
 20
243.4842982268746
 30
0.0
 11
253.68511001922667
 21
243.91155735953856
 31
0.0
  0
LINE
  5
30F
  8
BODY
 10
253.68511001922667
 20
243.91155735953856
 30
0.0
 11
253.63170262764368
 21
243.4842982268746
 31
0.0
  0
LINE
  5
310
  8
BODY
 10
253.63170262764368
 20
243.4842982268746
 30
0.0
 11
242.25592822046573
 21
243.4842982268746
 31
0.0
  0
LINE
  5
311
  8
BODY
 10
242.25592822046573
 20
243.4842982268746
 30
0.0
 11
242.84340952787866
 21
243.1104464857936
 31
0.0
  0
LINE
  5
312
  8
BODY
 10
242.84340952787866
 20
243.1104464857936
 30
0.0
 11
242.68318735312968
 21
242.73659474471265
 31
0.0
  0
LINE
  5
313
  8
BODY
 10
242.68318735312968
 20
242.73659474471265
 30
0.0
 11
242.25592822046573
 21
242.57637256996367
 31
0.0
  0
LINE
  5
314
  8
BODY
 10
242.25592822046573
 20
242.57637256996367
 30
0.0
 11
264.95406964323865
 21
242.52296517838067
 31
0.0
  0
LINE
  5
315
  8
BODY
 10
264.95406964323865
 20
242.52296517838067
 30
0.0
 11
264.90066225165566
 21
241.0809656056398
 31
0.0
  0
LINE
  5
316
  8
BODY
 10
264.90066225165566
 20
241.0809656056398
 30
0.0
 11
253.73851741080966
 21
241.0809656056398
 31
0.0
  0
LINE
  5
317
  8
BODY
 10
253.73851741080966
 20
241.0809656056398
 30
0.0
 11
253.68511001922667
 21
241.77526169621876
 31
0.0
  0
LINE
  5
318
  8
BODY
 10
253.68511001922667
 20
241.77526169621876
 30
0.0
 11
253.63170262764368
 21
241.0809656056398
 31
0.0
  0
LINE
  5
319
  8
BODY
 10
253.63170262764368
 20
241.0809656056398
 30
0.0
 11
242.36274300363172
 21
241.0809656056398
 31
0.0
  0
LINE
  5
31A
  8
BODY
 10
242.36274300363172
 20
241.0809656056398
 30
0.0
 11
242.2025208288827
 21
242.04229865413373
 31
0.0
  0
LINE
  5
31B
  8
BODY
 10
242.2025208288827
 20
242.04229865413373
 30
0.0
 11
242.25592822046573
 21
236.11407818842127
 31
0.0
  0
LINE
  5
31C
  8
BODY
 10
242.25592822046573
 20
236.11407818842127
 30
0.0
 11
242.36274300363172
 21
241.0809656056398
 31
0.0
  0
LINE
  5
31D
  8
BODY
 10
242.36274300363172
 20
241.0809656056398
 30
0.0
 11
253.63170262764368
 21
241.0809656056398
 31
0.0
  0
LINE
  5
31E
  8
BODY
 10
253.63170262764368
 20
241.0809656056398
 30
0.0
 11
253.68511001922667
 21
240.44007690664387
 31
0.0
  0
LINE
  5
31F
  8
BODY
 10
253.68511001922667
 20
240.44007690664387
 30
0.0
 11
253.73851741080966
 21
241.0809656056398
 31
0.0
  0
LINE
  5
320
  8
BODY
 10
253.73851741080966
 20
241.0809656056398
 30
0.0
 11
264.90066225165566
 21
241.0809656056398
 31
0.0
  0
LINE
  5
321
  8
BODY
 10
264.90066225165566
 20
241.0809656056398
 30
0.0
 11
264.95406964323865
 21
239.425336466567
 31
0.0
  0
LINE
  5
322
  8
BODY
 10
264.95406964323865
 20
239.425336466567
 30
0.0
 11
265.00747703482165
 21
245.72740867336037
 31
0.0
  0
LINE
  5
323
  8
BODY
 10
242.84340952787866
 20
251.44199957274085
 30
0.0
 11
242.89681691946166
 21
251.49540696432385
 31
0.0
  0
LINE
  5
324
  8
BODY
 10
242.89681691946166
 20
251.49540696432385
 30
0.0
 11
253.63170262764368
 21
251.49540696432385
 31
0.0
  0
LINE
  5
325
  8
BODY
 10
253.63170262764368
 20
251.49540696432385
 30
0.0
 11
253.68511001922667
 21
251.44199957274085
 31
0.0
  0
LINE
  5
326
  8
BODY
 10
253.68511001922667
 20
251.44199957274085
 30
0.0
 11
253.68511001922667
 21
250.9613330484939
 31
0.0
  0
LINE
  5
327
  8
BODY
 10
253.68511001922667
 20
250.9613330484939
 30
0.0
 11
253.68511001922667
 21
251.44199957274085
 31
0.0
  0
LINE
  5
328
  8
BODY
 10
253.68511001922667
 20
251.44199957274085
 30
0.0
 11
253.73851741080966
 21
251.49540696432385
 31
0.0
  0
LINE
  5
329
  8
BODY
 10
253.73851741080966
 20
251.49540696432385
 30
0.0
 11
264.36658833582567
 21
251.49540696432385
 31
0.0
  0
LINE
  5
32A
  8
BODY
 10
264.36658833582567
 20
251.49540696432385
 30
0.0
 11
264.41999572740866
 21
251.44199957274085
 31
0.0
  0
LINE
  5
32B
  8
BODY
 10
264.41999572740866
 20
251.44199957274085
 30
0.0
 11
264.2063661610767
 21
251.22837000640888
 31
0.0
  0
LINE
  5
32C
  8
BODY
 10
264.2063661610767
 20
251.22837000640888
 30
0.0
 11
264.2063661610767
 21
250.90792565691092
 31
0.0
  0
LINE
  5
32D
  8
BODY
 10
264.2063661610767
 20
250.90792565691092
 30
0.0
 11
264.36658833582567
 21
250.7477034821619
 31
0.0
  0
LINE
  5
32E
  8
BODY
 10
264.36658833582567
 20
250.7477034821619
 30
0.0
 11
264.3131809442427
 21
250.69429609057892
 31
0.0
  0
LINE
  5
32F
  8
BODY
 10
264.3131809442427
 20
250.69429609057892
 30
0.0
 11
242.95022431104465
 21
250.69429609057892
 31
0.0
  0
LINE
  5
330
  8
BODY
 10
242.95022431104465
 20
250.69429609057892
 30
0.0
 11
242.89681691946166
 21
250.7477034821619
 31
0.0
  0
LINE
  5
331
  8
BODY
 10
242.89681691946166
 20
250.7477034821619
 30
0.0
 11
243.05703909421064
 21
250.90792565691092
 31
0.0
  0
LINE
  5
332
  8
BODY
 10
243.05703909421064
 20
250.90792565691092
 30
0.0
 11
243.05703909421064
 21
251.22837000640888
 31
0.0
  0
LINE
  5
333
  8
BODY
 10
243.05703909421064
 20
251.22837000640888
 30
0.0
 11
242.84340952787866
 21
251.44199957274085
 31
0.0
  0
LINE
  5
334
  8
BODY
 10
242.41615039521471
 20
256.5157017731254
 30
0.0
 11
242.36274300363172
 21
251.1215552232429
 31
0.0
  0
LINE
  5
335
  8
BODY
 10
242.36274300363172
 20
251.1215552232429
 30
0.0
 11
242.4695577867977
 21
251.1215552232429
 31
0.0
  0
LINE
  5
336
  8
BODY
 10
242.4695577867977
 20
251.1215552232429
 30
0.0
 11
242.4695577867977
 21
251.44199957274085
 31
0.0
  0
LINE
  5
337
  8
BODY
 10
242.4695577867977
 20
251.44199957274085
 30
0.0
 11
242.68318735312968
 21
251.44199957274085
 31
0.0
  0
LINE
  5
338
  8
BODY
 10
242.68318735312968
 20
251.44199957274085
 30
0.0
 11
243.00363170262764
 21
251.1215552232429
 31
0.0
  0
LINE
  5
339
  8
BODY
 10
243.00363170262764
 20
251.1215552232429
 30
0.0
 11
242.79000213629567
 21
250.80111087374493
 31
0.0
  0
LINE
  5
33A
  8
BODY
 10
242.79000213629567
 20
250.80111087374493
 30
0.0
 11
242.36274300363172
 21
250.69429609057892
 31
0.0
  0
LINE
  5
33B
  8
BODY
 10
242.36274300363172
 20
250.69429609057892
 30
0.0
 11
242.4695577867977
 21
250.58748130741293
 31
0.0
  0
LINE
  5
33C
  8
BODY
 10
242.4695577867977
 20
250.58748130741293
 30
0.0
 11
253.63170262764368
 21
250.64088869899592
 31
0.0
  0
LINE
  5
33D
  8
BODY
 10
253.63170262764368
 20
250.64088869899592
 30
0.0
 11
253.68511001922667
 21
250.48066652424694
 31
0.0
  0
LINE
  5
33E
  8
BODY
 10
253.68511001922667
 20
250.48066652424694
 30
0.0
 11
253.73851741080966
 21
250.64088869899592
 31
0.0
  0
LINE
  5
33F
  8
BODY
 10
253.73851741080966
 20
250.64088869899592
 30
0.0
 11
264.7938474684897
 21
250.64088869899592
 31
0.0
  0
LINE
  5
340
  8
BODY
 10
264.7938474684897
 20
250.64088869899592
 30
0.0
 11
264.84725486007267
 21
246.68874172185429
 31
0.0
  0
LINE
  5
341
  8
BODY
 10
264.84725486007267
 20
246.68874172185429
 30
0.0
 11
264.84725486007267
 21
247.5432599871822
 31
0.0
  0
LINE
  5
342
  8
BODY
 10
264.84725486007267
 20
247.5432599871822
 30
0.0
 11
264.95406964323865
 21
247.5966673787652
 31
0.0
  0
LINE
  5
343
  8
BODY
 10
264.95406964323865
 20
247.5966673787652
 30
0.0
 11
264.90066225165566
 21
253.84533219397565
 31
0.0
  0
LINE
  5
344
  8
BODY
 10
264.90066225165566
 20
253.84533219397565
 30
0.0
 11
264.7938474684897
 21
251.54881435590684
 31
0.0
  0
LINE
  5
345
  8
BODY
 10
264.7938474684897
 20
251.54881435590684
 30
0.0
 11
253.73851741080966
 21
251.54881435590684
 31
0.0
  0
LINE
  5
346
  8
BODY
 10
253.73851741080966
 20
251.54881435590684
 30
0.0
 11
253.68511001922667
 21
252.29651783806878
 31
0.0
  0
LINE
  5
347
  8
BODY
 10
253.68511001922667
 20
252.29651783806878
 30
0.0
 11
253.63170262764368
 21
251.54881435590684
 31
0.0
  0
LINE
  5
348
  8
BODY
 10
253.63170262764368
 20
251.54881435590684
 30
0.0
 11
242.4695577867977
 21
251.54881435590684
 31
0.0
  0
LINE
  5
349
  8
BODY
 10
242.4695577867977
 20
251.54881435590684
 30
0.0
 11
242.5229651783807
 21
256.5157017731254
 31
0.0
  0
LINE
  5
34A
  8
BODY
 10
242.5229651783807
 20
256.5157017731254
 30
0.0
 11
242.41615039521471
 21
256.5157017731254
 31
0.0
  0
LINE
  5
34B
  8
BODY
 10
243.00363170262764
 20
259.9871822260201
 30
0.0
 11
243.05703909421064
 21
260.0405896176031
 31
0.0
  0
LINE
  5
34C
  8
BODY
 10
243.05703909421064
 20
260.0405896176031
 30
0.0
 11
253.63170262764368
 21
260.0405896176031
 31
0.0
  0
LINE
  5
34D
  8
BODY
 10
253.63170262764368
 20
260.0405896176031
 30
0.0
 11
253.68511001922667
 21
259.9871822260201
 31
0.0
  0
LINE
  5
34E
  8
BODY
 10
253.68511001922667
 20
259.9871822260201
 30
0.0
 11
253.68511001922667
 21
259.3997009186071
 31
0.0
  0
LINE
  5
34F
  8
BODY
 10
253.68511001922667
 20
259.3997009186071
 30
0.0
 11
253.68511001922667
 21
259.9871822260201
 31
0.0
  0
LINE
  5
350
  8
BODY
 10
253.68511001922667
 20
259.9871822260201
 30
0.0
 11
253.73851741080966
 21
260.0405896176031
 31
0.0
  0
LINE
  5
351
  8
BODY
 10
253.73851741080966
 20
260.0405896176031
 30
0.0
 11
264.2063661610767
 21
260.0405896176031
 31
0.0
  0
LINE
  5
352
  8
BODY
 10
264.2063661610767
 20
260.0405896176031
 30
0.0
 11
264.2597735526597
 21
259.9871822260201
 31
0.0
  0
LINE
  5
353
  8
BODY
 10
264.2597735526597
 20
259.9871822260201
 30
0.0
 11
264.0995513779107
 21
259.8269600512711
 31
0.0
  0
LINE
  5
354
  8
BODY
 10
264.0995513779107
 20
259.8269600512711
 30
0.0
 11
264.0461439863277
 21
259.55992309335613
 31
0.0
  0
LINE
  5
355
  8
BODY
 10
264.0461439863277
 20
259.55992309335613
 30
0.0
 11
264.2597735526597
 21
259.2928861354411
 31
0.0
  0
LINE
  5
356
  8
BODY
 10
264.2597735526597
 20
259.2928861354411
 30
0.0
 11
264.2063661610767
 21
259.2394787438582
 31
0.0
  0
LINE
  5
357
  8
BODY
 10
264.2063661610767
 20
259.2394787438582
 30
0.0
 11
243.05703909421064
 21
259.2394787438582
 31
0.0
  0
LINE
  5
358
  8
BODY
 10
243.05703909421064
 20
259.2394787438582
 30
0.0
 11
243.00363170262764
 21
259.2928861354411
 31
0.0
  0
LINE
  5
359
  8
BODY
 10
243.00363170262764
 20
259.2928861354411
 30
0.0
 11
243.16385387737662
 21
259.45310831019015
 31
0.0
  0
LINE
  5
35A
  8
BODY
 10
243.16385387737662
 20
259.45310831019015
 30
0.0
 11
243.21726126895962
 21
259.72014526810506
 31
0.0
  0
LINE
  5
35B
  8
BODY
 10
243.21726126895962
 20
259.72014526810506
 30
0.0
 11
243.00363170262764
 21
259.9871822260201
 31
0.0
  0
LINE
  5
35C
  8
BODY
 10
242.5229651783807
 20
264.63362529374064
 30
0.0
 11
242.4695577867977
 21
258.3849604785302
 31
0.0
  0
LINE
  5
35D
  8
BODY
 10
242.4695577867977
 20
258.3849604785302
 30
0.0
 11
242.5763725699637
 21
258.3315530869472
 31
0.0
  0
LINE
  5
35E
  8
BODY
 10
242.5763725699637
 20
258.3315530869472
 30
0.0
 11
242.5763725699637
 21
257.4770348216193
 31
0.0
  0
LINE
  5
35F
  8
BODY
 10
242.5763725699637
 20
257.4770348216193
 30
0.0
 11
242.5229651783807
 21
259.07925656910913
 31
0.0
  0
LINE
  5
360
  8
BODY
 10
242.5229651783807
 20
259.07925656910913
 30
0.0
 11
242.6297799615467
 21
259.1860713522751
 31
0.0
  0
LINE
  5
361
  8
BODY
 10
242.6297799615467
 20
259.1860713522751
 30
0.0
 11
264.63362529374064
 21
259.1860713522751
 31
0.0
  0
LINE
  5
362
  8
BODY
 10
264.63362529374064
 20
259.1860713522751
 30
0.0
 11
264.7404400769067
 21
259.07925656910913
 31
0.0
  0
LINE
  5
363
  8
BODY
 10
264.7404400769067
 20
259.07925656910913
 30
0.0
 11
264.7404400769067
 21
254.80666524246956
 31
0.0
  0
LINE
  5
364
  8
BODY
 10
264.7404400769067
 20
254.80666524246956
 30
0.0
 11
264.84725486007267
 21
254.80666524246956
 31
0.0
  0
LINE
  5
365
  8
BODY
 10
264.84725486007267
 20
254.80666524246956
 30
0.0
 11
264.7938474684897
 21
260.20081179235206
 31
0.0
  0
LINE
  5
366
  8
BODY
 10
264.7938474684897
 20
260.20081179235206
 30
0.0
 11
264.63362529374064
 21
260.09399700918607
 31
0.0
  0
LINE
  5
367
  8
BODY
 10
264.63362529374064
 20
260.09399700918607
 30
0.0
 11
253.73851741080966
 21
260.09399700918607
 31
0.0
  0
LINE
  5
368
  8
BODY
 10
253.73851741080966
 20
260.09399700918607
 30
0.0
 11
253.68511001922667
 21
260.681478316599
 31
0.0
  0
LINE
  5
369
  8
BODY
 10
253.68511001922667
 20
260.681478316599
 30
0.0
 11
253.63170262764368
 21
260.09399700918607
 31
0.0
  0
LINE
  5
36A
  8
BODY
 10
253.63170262764368
 20
260.09399700918607
 30
0.0
 11
242.6297799615467
 21
260.09399700918607
 31
0.0
  0
LINE
  5
36B
  8
BODY
 10
242.6297799615467
 20
260.09399700918607
 30
0.0
 11
242.6297799615467
 21
263.72569963682975
 31
0.0
  0
LINE
  5
36C
  8
BODY
 10
242.6297799615467
 20
263.72569963682975
 30
0.0
 11
242.5229651783807
 21
263.77910702841274
 31
0.0
  0
LINE
  5
36D
  8
BODY
 10
242.5229651783807
 20
263.77910702841274
 30
0.0
 11
242.5229651783807
 21
264.63362529374064
 31
0.0
  0
ENDSEC
  0
EOF
