  0
SECTION
  2
HEADER
  9
$ACADVER
  1
AC1009
  9
$DWGCODEPAGE
  3
ANSI_1252
  9
$INSBASE
 10
0.0
 20
0.0
 30
0.0
  9
$EXTMIN
 10
1e+20
 20
1e+20
 30
1e+20
  9
$EXTMAX
 10
-1e+20
 20
-1e+20
 30
-1e+20
  9
$LIMMIN
 10
0.0
 20
0.0
  9
$LIMMAX
 10
420.0
 20
297.0
  9
$ORTHOMODE
 70
0
  9
$REGENMODE
 70
1
  9
$FILLMODE
 70
1
  9
$DRAGMODE
 70
2
  9
$QTEXTMODE
 70
0
  9
$MIRRTEXT
 70
1
  9
$OSMODE
 70
20583
  9
$LTSCALE
 40
1.0
  9
$ATTMODE
 70
1
  9
$TEXTSIZE
 40
2.5
  9
$TRACEWID
 40
1.0
  9
$TEXTSTYLE
  7
Standard
  9
$CLAYER
  8
0
  9
$CELTYPE
  6
ByLayer
  9
$CECOLOR
 62
256
  9
$DIMSCALE
 40
1.0
  9
$DIMASZ
 40
2.5
  9
$DIMEXO
 40
0.625
  9
$DIMDLI
 40
3.75
  9
$DIMRND
 40
0.0
  9
$DIMDLE
 40
0.0
  9
$DIMEXE
 40
1.25
  9
$DIMTP
 40
0.0
  9
$DIMTM
 40
0.0
  9
$DIMTXT
 40
2.5
  9
$DIMCEN
 40
2.5
  9
$DIMTSZ
 40
0.0
  9
$DIMTOL
 70
0
  9
$DIMLIM
 70
0
  9
$DIMTIH
 70
0
  9
$DIMTOH
 70
0
  9
$DIMSE1
 70
0
  9
$DIMSE2
 70
0
  9
$DIMTAD
 70
1
  9
$DIMZIN
 70
8
  9
$DIMBLK
  1

  9
$DIMASO
 70
1
  9
$DIMSHO
 70
1
  9
$DIMPOST
  1

  9
$DIMAPOST
  1

  9
$DIMALT
 70
0
  9
$DIMALTD
 70
3
  9
$DIMALTF
 40
0.03937007874
  9
$DIMLFAC
 40
1.0
  9
$DIMTOFL
 70
1
  9
$DIMTVP
 40
0.0
  9
$DIMTIX
 70
0
  9
$DIMSOXD
 70
0
  9
$DIMSAH
 70
0
  9
$DIMBLK1
  1

  9
$DIMBLK2
  1

  9
$DIMSTYLE
  2
ISO-25
  9
$DIMCLRD
 70
0
  9
$DIMCLRE
 70
0
  9
$DIMCLRT
 70
0
  9
$DIMTFAC
 40
1.0
  9
$DIMGAP
 40
0.625
  9
$COORDS
 70
1
  9
$ATTDIA
 70
0
  9
$ATTREQ
 70
1
  9
$HANDLING
 70
1
  9
$LUNITS
 70
2
  9
$LUPREC
 70
4
  9
$SKETCHINC
 40
1.0
  9
$FILLETRAD
 40
10.0
  9
$AUNITS
 70
0
  9
$AUPREC
 70
2
  9
$MENU
  1
.
  9
$ELEVATION
 40
0.0
  9
$PELEVATION
 40
0.0
  9
$THICKNESS
 40
0.0
  9
$LIMCHECK
 70
0
  9
$CHAMFERA
 40
0.0
  9
$CHAMFERB
 40
0.0
  9
$SKPOLY
 70
0
  9
$TDCREATE
 40
2461144.993090278
  9
$TDUPDATE
 40
2461144.993090278
  9
$TDINDWG
 40
0.0
  9
$TDUSRTIMER
 40
0.0
  9
$USRTIMER
 70
1
  9
$ANGBASE
 50
0.0
  9
$ANGDIR
 70
0
  9
$PDMODE
 70
0
  9
$PDSIZE
 40
0.0
  9
$PLINEWID
 40
0.0
  9
$SPLFRAME
 70
0
  9
$SPLINETYPE
 70
6
  9
$SPLINESEGS
 70
8
  9
$HANDSEED
  5
30E
  9
$SURFTAB1
 70
6
  9
$SURFTAB2
 70
6
  9
$SURFTYPE
 70
6
  9
$SURFU
 70
6
  9
$SURFV
 70
6
  9
$UCSNAME
  2

  9
$UCSORG
 10
0.0
 20
0.0
 30
0.0
  9
$UCSXDIR
 10
1.0
 20
0.0
 30
0.0
  9
$UCSYDIR
 10
0.0
 20
1.0
 30
0.0
  9
$PUCSNAME
  2

  9
$PUCSORG
 10
0.0
 20
0.0
 30
0.0
  9
$PUCSXDIR
 10
1.0
 20
0.0
 30
0.0
  9
$PUCSYDIR
 10
0.0
 20
1.0
 30
0.0
  9
$USERI1
 70
0
  9
$USERI2
 70
0
  9
$USERI3
 70
0
  9
$USERI4
 70
0
  9
$USERI5
 70
0
  9
$USERR1
 40
0.0
  9
$USERR2
 40
0.0
  9
$USERR3
 40
0.0
  9
$USERR4
 40
0.0
  9
$USERR5
 40
0.0
  9
$WORLDVIEW
 70
1
  9
$SHADEDGE
 70
3
  9
$SHADEDIF
 70
70
  9
$TILEMODE
 70
1
  9
$MAXACTVP
 70
64
  9
$PLIMCHECK
 70
0
  9
$PEXTMIN
 10
1e+20
 20
1e+20
 30
1e+20
  9
$PEXTMAX
 10
-1e+20
 20
-1e+20
 30
-1e+20
  9
$PLIMMIN
 10
0.0
 20
0.0
  9
$PLIMMAX
 10
420.0
 20
297.0
  9
$UNITMODE
 70
0
  9
$VISRETAIN
 70
1
  9
$PLINEGEN
 70
0
  9
$PSLTSCALE
 70
1
  0
ENDSEC
  0
SECTION
  2
TABLES
  0
TABLE
  2
VPORT
 70
1
  0
VPORT
  5
23
  2
*Active
 70
0
 10
0.0
 20
0.0
 11
1.0
 21
1.0
 12
0.0
 22
0.0
 13
0.0
 23
0.0
 14
0.5
 24
0.5
 15
0.5
 25
0.5
 16
0.0
 26
0.0
 36
1.0
 17
0.0
 27
0.0
 37
0.0
 40
1000.0
 41
1.34
 42
50.0
 43
0.0
 44
0.0
 50
0.0
 51
0.0
 71
0
 72
1000
 73
1
 74
3
 75
0
 76
0
 77
0
 78
0
  0
ENDTAB
  0
TABLE
  2
LTYPE
 70
3
  0
LTYPE
  5
24
  2
ByBlock
 70
0
  3

 72
65
 73
0
 40
0.0
  0
LTYPE
  5
25
  2
ByLayer
 70
0
  3

 72
65
 73
0
 40
0.0
  0
LTYPE
  5
26
  2
Continuous
 70
0
  3

 72
65
 73
0
 40
0.0
  0
ENDTAB
  0
TABLE
  2
LAYER
 70
7
  0
LAYER
  5
27
  2
0
 70
0
 62
7
  6
Continuous
  0
LAYER
  5
28
  2
Defpoints
 70
0
 62
7
  6
Continuous
  0
LAYER
  5
2D
  2
BODY
 70
0
 62
7
  6
Continuous
  0
LAYER
  5
2E
  2
AUX_VIEWS
 70
0
 62
8
  6
Continuous
  0
LAYER
  5
2F
  2
ANNOTATION
 70
0
 62
7
  6
Continuous
  0
LAYER
  5
30
  2
TITLE_BLOCK
 70
0
 62
8
  6
Continuous
  0
LAYER
  5
31
  2
PAGE_FRAME
 70
0
 62
9
  6
Continuous
  0
ENDTAB
  0
TABLE
  2
STYLE
 70
1
  0
STYLE
  5
29
  2
Standard
 70
0
 40
0.0
 41
1.0
 50
0.0
 71
0
 42
2.5
  3
txt
  4

  0
ENDTAB
  0
TABLE
  2
VIEW
 70
0
  0
ENDTAB
  0
TABLE
  2
UCS
 70
0
  0
ENDTAB
  0
TABLE
  2
APPID
 70
3
  0
APPID
  5
2A
  2
ACAD
 70
0
  0
APPID
  5
30C
  2
HATCHBACKGROUNDCOLOR
 70
0
  0
APPID
  5
30D
  2
EZDXF
 70
0
  0
ENDTAB
  0
TABLE
  2
DIMSTYLE
 70
1
  0
DIMSTYLE
105
2B
  2
Standard
 70
0
  3

  4

  5

  6

  7

 40
1.0
 41
2.5
 42
0.625
 43
3.75
 44
1.25
 45
0.0
 46
0.0
 47
0.0
 48
0.0
140
2.5
141
2.5
142
0.0
143
0.03937007874
144
1.0
145
0.0
146
1.0
147
0.625
 71
0
 72
0
 73
0
 74
0
 75
0
 76
0
 77
1
 78
8
170
0
171
3
172
1
173
0
174
0
175
0
176
0
177
0
178
0
  0
ENDTAB
  0
ENDSEC
  0
SECTION
  2
BLOCKS
  0
BLOCK
  5
18
  8
0
  2
$Model_Space
 70
0
 10
0.0
 20
0.0
 30
0.0
  3
$Model_Space
  1

1001
EZDXF
1000
CREATED_BY_EZDXF
1000
1.4.3 @ 2026-04-14T04:50:03.737316+00:00
1000
WRITTEN_BY_EZDXF
1000
1.4.3 @ 2026-04-14T04:50:03.766955+00:00
  0
ENDBLK
  5
19
  8
0
  0
BLOCK
  5
1C
  8
0
  2
$Paper_Space
 70
0
 10
0.0
 20
0.0
 30
0.0
  3
$Paper_Space
  1

  0
ENDBLK
  5
1D
  8
0
  0
ENDSEC
  0
SECTION
  2
ENTITIES
  0
LINE
  5
32
  8
BODY
 10
156.81362725450902
 20
8.684034736138983
 30
0.0
 11
156.9806279225117
 21
9.018036072144298
 31
0.0
  0
LINE
  5
33
  8
BODY
 10
156.9806279225117
 20
9.018036072144298
 30
0.0
 11
156.81362725450902
 21
10.020040080160356
 31
0.0
  0
LINE
  5
34
  8
BODY
 10
156.81362725450902
 20
10.020040080160356
 30
0.0
 11
157.6486305945224
 21
10.354041416165671
 31
0.0
  0
LINE
  5
35
  8
BODY
 10
157.6486305945224
 20
10.354041416165671
 30
0.0
 11
159.9866399465598
 21
10.187040748163042
 31
0.0
  0
LINE
  5
36
  8
BODY
 10
159.9866399465598
 20
10.187040748163042
 30
0.0
 11
160.82164328657316
 21
9.686038744154985
 31
0.0
  0
LINE
  5
37
  8
BODY
 10
160.82164328657316
 20
9.686038744154985
 30
0.0
 11
161.32264529058116
 21
9.686038744154985
 31
0.0
  0
LINE
  5
38
  8
BODY
 10
161.32264529058116
 20
9.686038744154985
 30
0.0
 11
161.48964595858385
 21
9.85303941215767
 31
0.0
  0
LINE
  5
39
  8
BODY
 10
161.48964595858385
 20
9.85303941215767
 30
0.0
 11
159.9866399465598
 21
10.521042084168357
 31
0.0
  0
LINE
  5
3A
  8
BODY
 10
159.9866399465598
 20
10.521042084168357
 30
0.0
 11
160.65464261857048
 21
11.022044088176358
 31
0.0
  0
LINE
  5
3B
  8
BODY
 10
160.65464261857048
 20
11.022044088176358
 30
0.0
 11
161.8236472945892
 21
10.855043420173729
 31
0.0
  0
LINE
  5
3C
  8
BODY
 10
161.8236472945892
 20
10.855043420173729
 30
0.0
 11
169.33867735470943
 21
10.855043420173729
 31
0.0
  0
LINE
  5
3D
  8
BODY
 10
169.33867735470943
 20
10.855043420173729
 30
0.0
 11
169.5056780227121
 21
11.022044088176358
 31
0.0
  0
LINE
  5
3E
  8
BODY
 10
169.5056780227121
 20
11.022044088176358
 30
0.0
 11
169.83967935871743
 21
10.855043420173729
 31
0.0
  0
LINE
  5
3F
  8
BODY
 10
169.83967935871743
 20
10.855043420173729
 30
0.0
 11
170.6746826987308
 21
11.022044088176358
 31
0.0
  0
LINE
  5
40
  8
BODY
 10
170.6746826987308
 20
11.022044088176358
 30
0.0
 11
170.84168336673346
 21
10.855043420173729
 31
0.0
  0
LINE
  5
41
  8
BODY
 10
170.84168336673346
 20
10.855043420173729
 30
0.0
 11
174.18169672678692
 21
10.855043420173729
 31
0.0
  0
LINE
  5
42
  8
BODY
 10
174.18169672678692
 20
10.855043420173729
 30
0.0
 11
174.34869739478958
 21
11.022044088176358
 31
0.0
  0
LINE
  5
43
  8
BODY
 10
174.34869739478958
 20
11.022044088176358
 30
0.0
 11
174.68269873079493
 21
10.855043420173729
 31
0.0
  0
LINE
  5
44
  8
BODY
 10
174.68269873079493
 20
10.855043420173729
 30
0.0
 11
178.69071476285907
 21
10.855043420173729
 31
0.0
  0
LINE
  5
45
  8
BODY
 10
178.69071476285907
 20
10.855043420173729
 30
0.0
 11
178.85771543086173
 21
11.022044088176358
 31
0.0
  0
LINE
  5
46
  8
BODY
 10
178.85771543086173
 20
11.022044088176358
 30
0.0
 11
185.53774215096863
 21
10.855043420173729
 31
0.0
  0
LINE
  5
47
  8
BODY
 10
185.53774215096863
 20
10.855043420173729
 30
0.0
 11
186.7067468269873
 21
11.022044088176358
 31
0.0
  0
LINE
  5
48
  8
BODY
 10
186.7067468269873
 20
11.022044088176358
 30
0.0
 11
187.04074816299266
 21
10.855043420173729
 31
0.0
  0
LINE
  5
49
  8
BODY
 10
187.04074816299266
 20
10.855043420173729
 30
0.0
 11
187.54175016700069
 21
11.189044756179044
 31
0.0
  0
LINE
  5
4A
  8
BODY
 10
187.54175016700069
 20
11.189044756179044
 30
0.0
 11
188.0427521710087
 21
11.022044088176358
 31
0.0
  0
LINE
  5
4B
  8
BODY
 10
188.0427521710087
 20
11.022044088176358
 30
0.0
 11
188.37675350701403
 21
11.189044756179044
 31
0.0
  0
LINE
  5
4C
  8
BODY
 10
188.37675350701403
 20
11.189044756179044
 30
0.0
 11
188.71075484301937
 21
11.022044088176358
 31
0.0
  0
LINE
  5
4D
  8
BODY
 10
188.71075484301937
 20
11.022044088176358
 30
0.0
 11
193.3867735470942
 21
11.189044756179044
 31
0.0
  0
LINE
  5
4E
  8
BODY
 10
193.3867735470942
 20
11.189044756179044
 30
0.0
 11
194.38877755511024
 21
10.855043420173729
 31
0.0
  0
LINE
  5
4F
  8
BODY
 10
194.38877755511024
 20
10.855043420173729
 30
0.0
 11
194.5557782231129
 21
11.022044088176358
 31
0.0
  0
LINE
  5
50
  8
BODY
 10
194.5557782231129
 20
11.022044088176358
 30
0.0
 11
195.89178356713427
 21
10.855043420173729
 31
0.0
  0
LINE
  5
51
  8
BODY
 10
195.89178356713427
 20
10.855043420173729
 30
0.0
 11
220.94188376753507
 21
11.022044088176358
 31
0.0
  0
LINE
  5
52
  8
BODY
 10
220.94188376753507
 20
11.022044088176358
 30
0.0
 11
221.10888443553776
 21
10.688042752171043
 31
0.0
  0
LINE
  5
53
  8
BODY
 10
221.10888443553776
 20
10.688042752171043
 30
0.0
 11
225.28390113560457
 21
10.855043420173729
 31
0.0
  0
LINE
  5
54
  8
BODY
 10
225.28390113560457
 20
10.855043420173729
 30
0.0
 11
225.45090180360722
 21
11.022044088176358
 31
0.0
  0
LINE
  5
55
  8
BODY
 10
225.45090180360722
 20
11.022044088176358
 30
0.0
 11
226.2859051436206
 21
10.855043420173729
 31
0.0
  0
LINE
  5
56
  8
BODY
 10
226.2859051436206
 20
10.855043420173729
 30
0.0
 11
225.95190380761525
 21
8.684034736138983
 31
0.0
  0
LINE
  5
57
  8
BODY
 10
225.95190380761525
 20
8.684034736138983
 30
0.0
 11
222.27788911155645
 21
8.684034736138983
 31
0.0
  0
LINE
  5
58
  8
BODY
 10
222.27788911155645
 20
8.684034736138983
 30
0.0
 11
222.1108884435538
 21
8.517034068136297
 31
0.0
  0
LINE
  5
59
  8
BODY
 10
222.1108884435538
 20
8.517034068136297
 30
0.0
 11
221.60988643954576
 21
8.684034736138983
 31
0.0
  0
LINE
  5
5A
  8
BODY
 10
221.60988643954576
 20
8.684034736138983
 30
0.0
 11
220.44088176352707
 21
8.517034068136297
 31
0.0
  0
LINE
  5
5B
  8
BODY
 10
220.44088176352707
 20
8.517034068136297
 30
0.0
 11
219.7728790915164
 21
8.851035404141669
 31
0.0
  0
LINE
  5
5C
  8
BODY
 10
219.7728790915164
 20
8.851035404141669
 30
0.0
 11
216.26586506346027
 21
8.851035404141669
 31
0.0
  0
LINE
  5
5D
  8
BODY
 10
216.26586506346027
 20
8.851035404141669
 30
0.0
 11
216.09886439545758
 21
8.684034736138983
 31
0.0
  0
LINE
  5
5E
  8
BODY
 10
216.09886439545758
 20
8.684034736138983
 30
0.0
 11
214.59585838343355
 21
8.851035404141669
 31
0.0
  0
LINE
  5
5F
  8
BODY
 10
214.59585838343355
 20
8.851035404141669
 30
0.0
 11
212.09084836339346
 21
8.517034068136297
 31
0.0
  0
LINE
  5
60
  8
BODY
 10
212.09084836339346
 20
8.517034068136297
 30
0.0
 11
210.92184368737477
 21
8.684034736138983
 31
0.0
  0
LINE
  5
61
  8
BODY
 10
210.92184368737477
 20
8.684034736138983
 30
0.0
 11
210.7548430193721
 21
8.517034068136297
 31
0.0
  0
LINE
  5
62
  8
BODY
 10
210.7548430193721
 20
8.517034068136297
 30
0.0
 11
157.14762859051436
 21
8.350033400133611
 31
0.0
  0
LINE
  5
63
  8
BODY
 10
157.14762859051436
 20
8.350033400133611
 30
0.0
 11
156.81362725450902
 21
8.684034736138983
 31
0.0
  0
LINE
  5
64
  8
BODY
 10
228.95791583166334
 20
18.87107548430197
 30
0.0
 11
228.623914495658
 21
18.036072144288596
 31
0.0
  0
LINE
  5
65
  8
BODY
 10
228.623914495658
 20
18.036072144288596
 30
0.0
 11
157.31462925851704
 21
18.036072144288596
 31
0.0
  0
LINE
  5
66
  8
BODY
 10
157.31462925851704
 20
18.036072144288596
 30
0.0
 11
156.81362725450902
 21
18.704074816299283
 31
0.0
  0
LINE
  5
67
  8
BODY
 10
156.81362725450902
 20
18.704074816299283
 30
0.0
 11
156.47962591850367
 21
18.036072144288596
 31
0.0
  0
LINE
  5
68
  8
BODY
 10
156.47962591850367
 20
18.036072144288596
 30
0.0
 11
45.59118236472946
 21
18.036072144288596
 31
0.0
  0
LINE
  5
69
  8
BODY
 10
45.59118236472946
 20
18.036072144288596
 30
0.0
 11
45.758183032732134
 21
19.038076152304654
 31
0.0
  0
LINE
  5
6A
  8
BODY
 10
45.758183032732134
 20
19.038076152304654
 30
0.0
 11
228.95791583166334
 21
18.87107548430197
 31
0.0
  0
LINE
  5
6B
  8
BODY
 10
2.50501002004008
 20
23.046092184368774
 30
0.0
 11
2.6720106880427523
 21
7.014028056112238
 31
0.0
  0
LINE
  5
6C
  8
BODY
 10
2.6720106880427523
 20
7.014028056112238
 30
0.0
 11
628.4235136940548
 21
9.018036072144298
 31
0.0
  0
LINE
  5
6D
  8
BODY
 10
628.4235136940548
 20
9.018036072144298
 30
0.0
 11
228.28991315965266
 21
8.517034068136297
 31
0.0
  0
LINE
  5
6E
  8
BODY
 10
228.28991315965266
 20
8.517034068136297
 30
0.0
 11
226.2859051436206
 21
9.018036072144298
 31
0.0
  0
LINE
  5
6F
  8
BODY
 10
226.2859051436206
 20
9.018036072144298
 30
0.0
 11
226.61990647962594
 21
11.189044756179044
 31
0.0
  0
LINE
  5
70
  8
BODY
 10
226.61990647962594
 20
11.189044756179044
 30
0.0
 11
228.95791583166334
 21
11.189044756179044
 31
0.0
  0
LINE
  5
71
  8
BODY
 10
228.95791583166334
 20
11.189044756179044
 30
0.0
 11
226.45290581162325
 21
11.523046092184416
 31
0.0
  0
LINE
  5
72
  8
BODY
 10
226.45290581162325
 20
11.523046092184416
 30
0.0
 11
226.2859051436206
 21
17.36806947227791
 31
0.0
  0
LINE
  5
73
  8
BODY
 10
226.2859051436206
 20
17.36806947227791
 30
0.0
 11
225.95190380761525
 21
11.523046092184416
 31
0.0
  0
LINE
  5
74
  8
BODY
 10
225.95190380761525
 20
11.523046092184416
 30
0.0
 11
153.13961255845024
 21
11.189044756179044
 31
0.0
  0
LINE
  5
75
  8
BODY
 10
153.13961255845024
 20
11.189044756179044
 30
0.0
 11
156.47962591850367
 21
11.022044088176358
 31
0.0
  0
LINE
  5
76
  8
BODY
 10
156.47962591850367
 20
11.022044088176358
 30
0.0
 11
156.64662658650636
 21
8.350033400133611
 31
0.0
  0
LINE
  5
77
  8
BODY
 10
156.64662658650636
 20
8.350033400133611
 30
0.0
 11
3.0060120240480965
 21
7.849031396125611
 31
0.0
  0
LINE
  5
78
  8
BODY
 10
3.0060120240480965
 20
7.849031396125611
 30
0.0
 11
2.50501002004008
 21
23.046092184368774
 31
0.0
  0
LINE
  5
79
  8
BODY
 10
353.70741482965934
 20
54.10821643286579
 30
0.0
 11
353.874415497662
 21
53.9412157648631
 31
0.0
  0
LINE
  5
7A
  8
BODY
 10
353.874415497662
 20
53.9412157648631
 30
0.0
 11
361.38944555778227
 21
53.9412157648631
 31
0.0
  0
LINE
  5
7B
  8
BODY
 10
361.38944555778227
 20
53.9412157648631
 30
0.0
 11
361.5564462257849
 21
54.10821643286579
 31
0.0
  0
LINE
  5
7C
  8
BODY
 10
361.5564462257849
 20
54.10821643286579
 30
0.0
 11
361.89044756179027
 21
53.9412157648631
 31
0.0
  0
LINE
  5
7D
  8
BODY
 10
361.89044756179027
 20
53.9412157648631
 30
0.0
 11
368.4034736138945
 21
53.9412157648631
 31
0.0
  0
LINE
  5
7E
  8
BODY
 10
368.4034736138945
 20
53.9412157648631
 30
0.0
 11
368.57047428189713
 21
54.10821643286579
 31
0.0
  0
LINE
  5
7F
  8
BODY
 10
368.57047428189713
 20
54.10821643286579
 30
0.0
 11
369.2384769539078
 21
54.10821643286579
 31
0.0
  0
LINE
  5
80
  8
BODY
 10
369.2384769539078
 20
54.10821643286579
 30
0.0
 11
369.4054776219105
 21
53.9412157648631
 31
0.0
  0
LINE
  5
81
  8
BODY
 10
369.4054776219105
 20
53.9412157648631
 30
0.0
 11
371.2424849699399
 21
53.9412157648631
 31
0.0
  0
LINE
  5
82
  8
BODY
 10
371.2424849699399
 20
53.9412157648631
 30
0.0
 11
371.40948563794257
 21
54.10821643286579
 31
0.0
  0
LINE
  5
83
  8
BODY
 10
371.40948563794257
 20
54.10821643286579
 30
0.0
 11
371.91048764195057
 21
54.10821643286579
 31
0.0
  0
LINE
  5
84
  8
BODY
 10
371.91048764195057
 20
54.10821643286579
 30
0.0
 11
372.07748830995325
 21
53.9412157648631
 31
0.0
  0
LINE
  5
85
  8
BODY
 10
372.07748830995325
 20
53.9412157648631
 30
0.0
 11
372.07748830995325
 21
43.420173680694745
 31
0.0
  0
LINE
  5
86
  8
BODY
 10
372.07748830995325
 20
43.420173680694745
 30
0.0
 11
372.24448897795594
 21
43.25317301269206
 31
0.0
  0
LINE
  5
87
  8
BODY
 10
372.24448897795594
 20
43.25317301269206
 30
0.0
 11
372.24448897795594
 21
42.58517034068137
 31
0.0
  0
LINE
  5
88
  8
BODY
 10
372.24448897795594
 20
42.58517034068137
 30
0.0
 11
372.07748830995325
 21
42.418169672678744
 31
0.0
  0
LINE
  5
89
  8
BODY
 10
372.07748830995325
 20
42.418169672678744
 30
0.0
 11
372.07748830995325
 21
41.917167668670686
 31
0.0
  0
LINE
  5
8A
  8
BODY
 10
372.07748830995325
 20
41.917167668670686
 30
0.0
 11
372.24448897795594
 21
41.75016700066806
 31
0.0
  0
LINE
  5
8B
  8
BODY
 10
372.24448897795594
 20
41.75016700066806
 30
0.0
 11
372.24448897795594
 21
35.23714094856382
 31
0.0
  0
LINE
  5
8C
  8
BODY
 10
372.24448897795594
 20
35.23714094856382
 30
0.0
 11
371.74348697394794
 21
34.903139612558505
 31
0.0
  0
LINE
  5
8D
  8
BODY
 10
371.74348697394794
 20
34.903139612558505
 30
0.0
 11
359.55243820975284
 21
34.903139612558505
 31
0.0
  0
LINE
  5
8E
  8
BODY
 10
359.55243820975284
 20
34.903139612558505
 30
0.0
 11
359.3854375417502
 21
34.73613894455582
 31
0.0
  0
LINE
  5
8F
  8
BODY
 10
359.3854375417502
 20
34.73613894455582
 30
0.0
 11
356.3794255177021
 21
34.73613894455582
 31
0.0
  0
LINE
  5
90
  8
BODY
 10
356.3794255177021
 20
34.73613894455582
 30
0.0
 11
356.2124248496994
 21
34.56913827655313
 31
0.0
  0
LINE
  5
91
  8
BODY
 10
356.2124248496994
 20
34.56913827655313
 30
0.0
 11
356.0454241816968
 21
34.73613894455582
 31
0.0
  0
LINE
  5
92
  8
BODY
 10
356.0454241816968
 20
34.73613894455582
 30
0.0
 11
355.2104208416834
 21
34.903139612558505
 31
0.0
  0
LINE
  5
93
  8
BODY
 10
355.2104208416834
 20
34.903139612558505
 30
0.0
 11
354.20841683366734
 21
35.57114228456919
 31
0.0
  0
LINE
  5
94
  8
BODY
 10
354.20841683366734
 20
35.57114228456919
 30
0.0
 11
354.20841683366734
 21
35.73814295257182
 31
0.0
  0
LINE
  5
95
  8
BODY
 10
354.20841683366734
 20
35.73814295257182
 30
0.0
 11
353.70741482965934
 21
36.23914495657988
 31
0.0
  0
LINE
  5
96
  8
BODY
 10
353.70741482965934
 20
36.23914495657988
 30
0.0
 11
353.70741482965934
 21
36.907147628590565
 31
0.0
  0
LINE
  5
97
  8
BODY
 10
353.70741482965934
 20
36.907147628590565
 30
0.0
 11
353.54041416165666
 21
37.074148296593194
 31
0.0
  0
LINE
  5
98
  8
BODY
 10
353.54041416165666
 20
37.074148296593194
 30
0.0
 11
353.54041416165666
 21
47.428189712758865
 31
0.0
  0
LINE
  5
99
  8
BODY
 10
353.54041416165666
 20
47.428189712758865
 30
0.0
 11
353.37341349365397
 21
47.59519038076155
 31
0.0
  0
LINE
  5
9A
  8
BODY
 10
353.37341349365397
 20
47.59519038076155
 30
0.0
 11
353.37341349365397
 21
48.931195724782924
 31
0.0
  0
LINE
  5
9B
  8
BODY
 10
353.37341349365397
 20
48.931195724782924
 30
0.0
 11
353.54041416165666
 21
49.09819639278561
 31
0.0
  0
LINE
  5
9C
  8
BODY
 10
353.54041416165666
 20
49.09819639278561
 30
0.0
 11
353.54041416165666
 21
49.59919839679361
 31
0.0
  0
LINE
  5
9D
  8
BODY
 10
353.54041416165666
 20
49.59919839679361
 30
0.0
 11
353.37341349365397
 21
49.7661990647963
 31
0.0
  0
LINE
  5
9E
  8
BODY
 10
353.37341349365397
 20
49.7661990647963
 30
0.0
 11
353.37341349365397
 21
53.77421509686042
 31
0.0
  0
LINE
  5
9F
  8
BODY
 10
353.37341349365397
 20
53.77421509686042
 30
0.0
 11
353.70741482965934
 21
54.10821643286579
 31
0.0
  0
LINE
  5
A0
  8
BODY
 10
229.7929191716767
 20
68.13627254509021
 30
0.0
 11
229.95991983967937
 21
67.96927187708752
 31
0.0
  0
LINE
  5
A1
  8
BODY
 10
229.95991983967937
 20
67.96927187708752
 30
0.0
 11
229.95991983967937
 21
66.29926519706083
 31
0.0
  0
LINE
  5
A2
  8
BODY
 10
229.95991983967937
 20
66.29926519706083
 30
0.0
 11
229.7929191716767
 21
66.13226452905815
 31
0.0
  0
LINE
  5
A3
  8
BODY
 10
229.7929191716767
 20
66.13226452905815
 30
0.0
 11
229.7929191716767
 21
55.778223112892476
 31
0.0
  0
LINE
  5
A4
  8
BODY
 10
229.7929191716767
 20
55.778223112892476
 30
0.0
 11
229.62591850367403
 21
55.61122244488979
 31
0.0
  0
LINE
  5
A5
  8
BODY
 10
229.62591850367403
 20
55.61122244488979
 30
0.0
 11
229.62591850367403
 21
47.09418837675355
 31
0.0
  0
LINE
  5
A6
  8
BODY
 10
229.62591850367403
 20
47.09418837675355
 30
0.0
 11
229.45891783567134
 21
46.927187708750864
 31
0.0
  0
LINE
  5
A7
  8
BODY
 10
229.45891783567134
 20
46.927187708750864
 30
0.0
 11
229.45891783567134
 21
39.412157648630625
 31
0.0
  0
LINE
  5
A8
  8
BODY
 10
229.45891783567134
 20
39.412157648630625
 30
0.0
 11
229.2919171676687
 21
39.24515698062794
 31
0.0
  0
LINE
  5
A9
  8
BODY
 10
229.2919171676687
 20
39.24515698062794
 30
0.0
 11
229.2919171676687
 21
31.563126252505015
 31
0.0
  0
LINE
  5
AA
  8
BODY
 10
229.2919171676687
 20
31.563126252505015
 30
0.0
 11
229.124916499666
 21
31.396125584502386
 31
0.0
  0
LINE
  5
AB
  8
BODY
 10
229.124916499666
 20
31.396125584502386
 30
0.0
 11
229.124916499666
 21
24.048096192384776
 31
0.0
  0
LINE
  5
AC
  8
BODY
 10
229.124916499666
 20
24.048096192384776
 30
0.0
 11
228.95791583166334
 21
23.881095524382147
 31
0.0
  0
LINE
  5
AD
  8
BODY
 10
228.95791583166334
 20
23.881095524382147
 30
0.0
 11
228.95791583166334
 21
19.539078156312655
 31
0.0
  0
LINE
  5
AE
  8
BODY
 10
228.95791583166334
 20
19.539078156312655
 30
0.0
 11
228.79091516366066
 21
19.37207748830997
 31
0.0
  0
LINE
  5
AF
  8
BODY
 10
228.79091516366066
 20
19.37207748830997
 30
0.0
 11
227.28790915163663
 21
19.37207748830997
 31
0.0
  0
LINE
  5
B0
  8
BODY
 10
227.28790915163663
 20
19.37207748830997
 30
0.0
 11
227.12090848363394
 21
19.539078156312655
 31
0.0
  0
LINE
  5
B1
  8
BODY
 10
227.12090848363394
 20
19.539078156312655
 30
0.0
 11
227.12090848363394
 21
22.044088176352716
 31
0.0
  0
LINE
  5
B2
  8
BODY
 10
227.12090848363394
 20
22.044088176352716
 30
0.0
 11
227.28790915163663
 21
22.378089512358088
 31
0.0
  0
LINE
  5
B3
  8
BODY
 10
227.28790915163663
 20
22.378089512358088
 30
0.0
 11
227.12090848363394
 21
22.545090180360774
 31
0.0
  0
LINE
  5
B4
  8
BODY
 10
227.12090848363394
 20
22.545090180360774
 30
0.0
 11
226.95390781563128
 21
23.38009352037409
 31
0.0
  0
LINE
  5
B5
  8
BODY
 10
226.95390781563128
 20
23.38009352037409
 30
0.0
 11
227.12090848363394
 21
23.547094188376775
 31
0.0
  0
LINE
  5
B6
  8
BODY
 10
227.12090848363394
 20
23.547094188376775
 30
0.0
 11
227.12090848363394
 21
28.390113560454267
 31
0.0
  0
LINE
  5
B7
  8
BODY
 10
227.12090848363394
 20
28.390113560454267
 30
0.0
 11
227.28790915163663
 21
28.557114228456953
 31
0.0
  0
LINE
  5
B8
  8
BODY
 10
227.28790915163663
 20
28.557114228456953
 30
0.0
 11
227.12090848363394
 21
29.392117568470326
 31
0.0
  0
LINE
  5
B9
  8
BODY
 10
227.12090848363394
 20
29.392117568470326
 30
0.0
 11
227.28790915163663
 21
29.559118236472955
 31
0.0
  0
LINE
  5
BA
  8
BODY
 10
227.28790915163663
 20
29.559118236472955
 30
0.0
 11
227.28790915163663
 21
36.74014696058788
 31
0.0
  0
LINE
  5
BB
  8
BODY
 10
227.28790915163663
 20
36.74014696058788
 30
0.0
 11
227.45490981963928
 21
36.907147628590565
 31
0.0
  0
LINE
  5
BC
  8
BODY
 10
227.45490981963928
 20
36.907147628590565
 30
0.0
 11
227.45490981963928
 21
45.25718102872412
 31
0.0
  0
LINE
  5
BD
  8
BODY
 10
227.45490981963928
 20
45.25718102872412
 30
0.0
 11
227.62191048764197
 21
45.424181696726805
 31
0.0
  0
LINE
  5
BE
  8
BODY
 10
227.62191048764197
 20
45.424181696726805
 30
0.0
 11
227.62191048764197
 21
52.772211088844415
 31
0.0
  0
LINE
  5
BF
  8
BODY
 10
227.62191048764197
 20
52.772211088844415
 30
0.0
 11
227.78891115564463
 21
52.939211756847044
 31
0.0
  0
LINE
  5
C0
  8
BODY
 10
227.78891115564463
 20
52.939211756847044
 30
0.0
 11
227.9559118236473
 21
67.96927187708752
 31
0.0
  0
LINE
  5
C1
  8
BODY
 10
227.9559118236473
 20
67.96927187708752
 30
0.0
 11
228.12291249164997
 21
68.13627254509021
 31
0.0
  0
LINE
  5
C2
  8
BODY
 10
228.12291249164997
 20
68.13627254509021
 30
0.0
 11
228.79091516366066
 21
68.13627254509021
 31
0.0
  0
LINE
  5
C3
  8
BODY
 10
228.79091516366066
 20
68.13627254509021
 30
0.0
 11
228.95791583166334
 21
67.96927187708752
 31
0.0
  0
LINE
  5
C4
  8
BODY
 10
228.95791583166334
 20
67.96927187708752
 30
0.0
 11
229.7929191716767
 21
68.13627254509021
 31
0.0
  0
LINE
  5
C5
  8
BODY
 10
156.9806279225117
 20
20.708082832331343
 30
0.0
 11
157.98263193052773
 21
27.555110220440895
 31
0.0
  0
LINE
  5
C6
  8
BODY
 10
157.98263193052773
 20
27.555110220440895
 30
0.0
 11
158.48363393453576
 21
27.889111556446267
 31
0.0
  0
LINE
  5
C7
  8
BODY
 10
158.48363393453576
 20
27.889111556446267
 30
0.0
 11
158.8176352705411
 21
27.22110888443558
 31
0.0
  0
LINE
  5
C8
  8
BODY
 10
158.8176352705411
 20
27.22110888443558
 30
0.0
 11
158.48363393453576
 21
28.056112224448952
 31
0.0
  0
LINE
  5
C9
  8
BODY
 10
158.48363393453576
 20
28.056112224448952
 30
0.0
 11
160.15364061456248
 21
29.22511690046764
 31
0.0
  0
LINE
  5
CA
  8
BODY
 10
160.15364061456248
 20
29.22511690046764
 30
0.0
 11
164.66265865063463
 21
29.893119572478327
 31
0.0
  0
LINE
  5
CB
  8
BODY
 10
164.66265865063463
 20
29.893119572478327
 30
0.0
 11
164.66265865063463
 21
28.390113560454267
 31
0.0
  0
LINE
  5
CC
  8
BODY
 10
164.66265865063463
 20
28.390113560454267
 30
0.0
 11
166.66666666666669
 21
24.716098864395462
 31
0.0
  0
LINE
  5
CD
  8
BODY
 10
166.66666666666669
 20
24.716098864395462
 30
0.0
 11
170.84168336673346
 21
20.541082164328714
 31
0.0
  0
LINE
  5
CE
  8
BODY
 10
170.84168336673346
 20
20.541082164328714
 30
0.0
 11
166.83366733466934
 21
25.050100200400834
 31
0.0
  0
LINE
  5
CF
  8
BODY
 10
166.83366733466934
 20
25.050100200400834
 30
0.0
 11
164.82965931863728
 21
28.891115564462268
 31
0.0
  0
LINE
  5
D0
  8
BODY
 10
164.82965931863728
 20
28.891115564462268
 30
0.0
 11
164.99665998663997
 21
29.893119572478327
 31
0.0
  0
LINE
  5
D1
  8
BODY
 10
164.99665998663997
 20
29.893119572478327
 30
0.0
 11
170.00668002672012
 21
30.22712090848364
 31
0.0
  0
LINE
  5
D2
  8
BODY
 10
170.00668002672012
 20
30.22712090848364
 30
0.0
 11
170.6746826987308
 21
27.72211088844358
 31
0.0
  0
LINE
  5
D3
  8
BODY
 10
170.6746826987308
 20
27.72211088844358
 30
0.0
 11
173.6806947227789
 21
23.38009352037409
 31
0.0
  0
LINE
  5
D4
  8
BODY
 10
173.6806947227789
 20
23.38009352037409
 30
0.0
 11
177.68871075484304
 21
21.2090848363394
 31
0.0
  0
LINE
  5
D5
  8
BODY
 10
177.68871075484304
 20
21.2090848363394
 30
0.0
 11
173.1796927187709
 21
24.549098196392833
 31
0.0
  0
LINE
  5
D6
  8
BODY
 10
173.1796927187709
 20
24.549098196392833
 30
0.0
 11
170.34068136272546
 21
28.891115564462268
 31
0.0
  0
LINE
  5
D7
  8
BODY
 10
170.34068136272546
 20
28.891115564462268
 30
0.0
 11
170.34068136272546
 21
30.561122244489013
 31
0.0
  0
LINE
  5
D8
  8
BODY
 10
170.34068136272546
 20
30.561122244489013
 30
0.0
 11
172.84569138276555
 21
30.7281229124917
 31
0.0
  0
LINE
  5
D9
  8
BODY
 10
172.84569138276555
 20
30.7281229124917
 30
0.0
 11
178.5237140948564
 21
23.881095524382147
 31
0.0
  0
LINE
  5
DA
  8
BODY
 10
178.5237140948564
 20
23.881095524382147
 30
0.0
 11
181.69672678690716
 21
21.543086172344715
 31
0.0
  0
LINE
  5
DB
  8
BODY
 10
181.69672678690716
 20
21.543086172344715
 30
0.0
 11
173.6806947227789
 21
30.394121576486327
 31
0.0
  0
LINE
  5
DC
  8
BODY
 10
173.6806947227789
 20
30.394121576486327
 30
0.0
 11
176.68670674682699
 21
32.89913159652639
 31
0.0
  0
LINE
  5
DD
  8
BODY
 10
176.68670674682699
 20
32.89913159652639
 30
0.0
 11
180.1937207748831
 21
29.058116232464954
 31
0.0
  0
LINE
  5
DE
  8
BODY
 10
180.1937207748831
 20
29.058116232464954
 30
0.0
 11
176.51970607882433
 21
33.066132264529074
 31
0.0
  0
LINE
  5
DF
  8
BODY
 10
176.51970607882433
 20
33.066132264529074
 30
0.0
 11
177.35470941883767
 21
35.57114228456919
 31
0.0
  0
LINE
  5
E0
  8
BODY
 10
177.35470941883767
 20
35.57114228456919
 30
0.0
 11
178.0227120908484
 21
67.30126920507684
 31
0.0
  0
LINE
  5
E1
  8
BODY
 10
178.0227120908484
 20
67.30126920507684
 30
0.0
 11
180.1937207748831
 21
64.12825651302609
 31
0.0
  0
LINE
  5
E2
  8
BODY
 10
180.1937207748831
 20
64.12825651302609
 30
0.0
 11
202.23780895123582
 21
44.923179692718804
 31
0.0
  0
LINE
  5
E3
  8
BODY
 10
202.23780895123582
 20
44.923179692718804
 30
0.0
 11
215.59786239144958
 21
37.24114896459588
 31
0.0
  0
LINE
  5
E4
  8
BODY
 10
215.59786239144958
 20
37.24114896459588
 30
0.0
 11
220.44088176352707
 21
35.73814295257182
 31
0.0
  0
LINE
  5
E5
  8
BODY
 10
220.44088176352707
 20
35.73814295257182
 30
0.0
 11
222.27788911155645
 21
35.905143620574506
 31
0.0
  0
LINE
  5
E6
  8
BODY
 10
222.27788911155645
 20
35.905143620574506
 30
0.0
 11
219.93987975951904
 21
36.07214428857719
 31
0.0
  0
LINE
  5
E7
  8
BODY
 10
219.93987975951904
 20
36.07214428857719
 30
0.0
 11
212.75885103540415
 21
38.911155644622625
 31
0.0
  0
LINE
  5
E8
  8
BODY
 10
212.75885103540415
 20
38.911155644622625
 30
0.0
 11
202.40480961923848
 21
45.25718102872412
 31
0.0
  0
LINE
  5
E9
  8
BODY
 10
202.40480961923848
 20
45.25718102872412
 30
0.0
 11
179.6927187708751
 21
65.13026052104209
 31
0.0
  0
LINE
  5
EA
  8
BODY
 10
179.6927187708751
 20
65.13026052104209
 30
0.0
 11
177.8557114228457
 21
67.6352705410822
 31
0.0
  0
LINE
  5
EB
  8
BODY
 10
177.8557114228457
 20
67.6352705410822
 30
0.0
 11
178.0227120908484
 21
69.13827655310627
 31
0.0
  0
LINE
  5
EC
  8
BODY
 10
178.0227120908484
 20
69.13827655310627
 30
0.0
 11
181.19572478289913
 21
68.47027388109558
 31
0.0
  0
LINE
  5
ED
  8
BODY
 10
181.19572478289913
 20
68.47027388109558
 30
0.0
 11
181.86372745490982
 21
68.97127588510358
 31
0.0
  0
LINE
  5
EE
  8
BODY
 10
181.86372745490982
 20
68.97127588510358
 30
0.0
 11
209.75283901135606
 21
68.47027388109558
 31
0.0
  0
LINE
  5
EF
  8
BODY
 10
209.75283901135606
 20
68.47027388109558
 30
0.0
 11
221.60988643954576
 21
62.291249164996714
 31
0.0
  0
LINE
  5
F0
  8
BODY
 10
221.60988643954576
 20
62.291249164996714
 30
0.0
 11
222.94589178356713
 21
62.291249164996714
 31
0.0
  0
LINE
  5
F1
  8
BODY
 10
222.94589178356713
 20
62.291249164996714
 30
0.0
 11
223.11289245156982
 21
62.9592518370074
 31
0.0
  0
LINE
  5
F2
  8
BODY
 10
223.11289245156982
 20
62.9592518370074
 30
0.0
 11
220.2738810955244
 21
63.12625250501003
 31
0.0
  0
LINE
  5
F3
  8
BODY
 10
220.2738810955244
 20
63.12625250501003
 30
0.0
 11
210.7548430193721
 21
68.13627254509021
 31
0.0
  0
LINE
  5
F4
  8
BODY
 10
210.7548430193721
 20
68.13627254509021
 30
0.0
 11
227.62191048764197
 21
67.6352705410822
 31
0.0
  0
LINE
  5
F5
  8
BODY
 10
227.62191048764197
 20
67.6352705410822
 30
0.0
 11
226.45290581162325
 21
20.207080828323342
 31
0.0
  0
LINE
  5
F6
  8
BODY
 10
226.45290581162325
 20
20.207080828323342
 30
0.0
 11
159.65263861055445
 21
20.040080160320656
 31
0.0
  0
LINE
  5
F7
  8
BODY
 10
159.65263861055445
 20
20.040080160320656
 30
0.0
 11
156.9806279225117
 21
20.708082832331343
 31
0.0
  0
LINE
  5
F8
  8
BODY
 10
354.70941883767534
 20
74.31529726118907
 30
0.0
 11
355.7114228456914
 21
74.81629926519707
 31
0.0
  0
LINE
  5
F9
  8
BODY
 10
355.7114228456914
 20
74.81629926519707
 30
0.0
 11
358.88443553774215
 21
74.81629926519707
 31
0.0
  0
LINE
  5
FA
  8
BODY
 10
358.88443553774215
 20
74.81629926519707
 30
0.0
 11
359.05143620574484
 21
74.64929859719444
 31
0.0
  0
LINE
  5
FB
  8
BODY
 10
359.05143620574484
 20
74.64929859719444
 30
0.0
 11
365.7314629258517
 21
74.64929859719444
 31
0.0
  0
LINE
  5
FC
  8
BODY
 10
365.7314629258517
 20
74.64929859719444
 30
0.0
 11
365.8984635938544
 21
74.48229792919176
 31
0.0
  0
LINE
  5
FD
  8
BODY
 10
365.8984635938544
 20
74.48229792919176
 30
0.0
 11
367.40146960587845
 21
74.48229792919176
 31
0.0
  0
LINE
  5
FE
  8
BODY
 10
367.40146960587845
 20
74.48229792919176
 30
0.0
 11
367.56847027388113
 21
74.64929859719444
 31
0.0
  0
LINE
  5
FF
  8
BODY
 10
367.56847027388113
 20
74.64929859719444
 30
0.0
 11
368.7374749498998
 21
74.64929859719444
 31
0.0
  0
LINE
  5
100
  8
BODY
 10
368.7374749498998
 20
74.64929859719444
 30
0.0
 11
368.9044756179025
 21
74.48229792919176
 31
0.0
  0
LINE
  5
101
  8
BODY
 10
368.9044756179025
 20
74.48229792919176
 30
0.0
 11
370.7414829659319
 21
74.48229792919176
 31
0.0
  0
LINE
  5
102
  8
BODY
 10
370.7414829659319
 20
74.48229792919176
 30
0.0
 11
370.90848363393457
 21
74.64929859719444
 31
0.0
  0
LINE
  5
103
  8
BODY
 10
370.90848363393457
 20
74.64929859719444
 30
0.0
 11
371.07548430193725
 21
74.48229792919176
 31
0.0
  0
LINE
  5
104
  8
BODY
 10
371.07548430193725
 20
74.48229792919176
 30
0.0
 11
371.2424849699399
 21
74.64929859719444
 31
0.0
  0
LINE
  5
105
  8
BODY
 10
371.2424849699399
 20
74.64929859719444
 30
0.0
 11
371.57648630594525
 21
74.64929859719444
 31
0.0
  0
LINE
  5
106
  8
BODY
 10
371.57648630594525
 20
74.64929859719444
 30
0.0
 11
372.07748830995325
 21
74.31529726118907
 31
0.0
  0
LINE
  5
107
  8
BODY
 10
372.07748830995325
 20
74.31529726118907
 30
0.0
 11
372.07748830995325
 21
54.60921843687379
 31
0.0
  0
LINE
  5
108
  8
BODY
 10
372.07748830995325
 20
54.60921843687379
 30
0.0
 11
371.91048764195057
 21
54.4422177688711
 31
0.0
  0
LINE
  5
109
  8
BODY
 10
371.91048764195057
 20
54.4422177688711
 30
0.0
 11
358.21643286573146
 21
54.4422177688711
 31
0.0
  0
LINE
  5
10A
  8
BODY
 10
358.21643286573146
 20
54.4422177688711
 30
0.0
 11
358.04943219772883
 21
54.27521710086842
 31
0.0
  0
LINE
  5
10B
  8
BODY
 10
358.04943219772883
 20
54.27521710086842
 30
0.0
 11
353.874415497662
 21
54.27521710086842
 31
0.0
  0
LINE
  5
10C
  8
BODY
 10
353.874415497662
 20
54.27521710086842
 30
0.0
 11
353.70741482965934
 21
54.10821643286579
 31
0.0
  0
LINE
  5
10D
  8
BODY
 10
353.70741482965934
 20
54.10821643286579
 30
0.0
 11
353.37341349365397
 21
54.27521710086842
 31
0.0
  0
LINE
  5
10E
  8
BODY
 10
353.37341349365397
 20
54.27521710086842
 30
0.0
 11
353.37341349365397
 21
68.63727454909821
 31
0.0
  0
LINE
  5
10F
  8
BODY
 10
353.37341349365397
 20
68.63727454909821
 30
0.0
 11
353.20641282565134
 21
68.8042752171009
 31
0.0
  0
LINE
  5
110
  8
BODY
 10
353.20641282565134
 20
68.8042752171009
 30
0.0
 11
353.20641282565134
 21
69.47227788911158
 31
0.0
  0
LINE
  5
111
  8
BODY
 10
353.20641282565134
 20
69.47227788911158
 30
0.0
 11
353.37341349365397
 21
69.80627922511695
 31
0.0
  0
LINE
  5
112
  8
BODY
 10
353.37341349365397
 20
69.80627922511695
 30
0.0
 11
353.20641282565134
 21
69.97327989311958
 31
0.0
  0
LINE
  5
113
  8
BODY
 10
353.20641282565134
 20
69.97327989311958
 30
0.0
 11
353.20641282565134
 21
72.31128924515701
 31
0.0
  0
LINE
  5
114
  8
BODY
 10
353.20641282565134
 20
72.31128924515701
 30
0.0
 11
353.70741482965934
 21
73.31329325317307
 31
0.0
  0
LINE
  5
115
  8
BODY
 10
353.70741482965934
 20
73.31329325317307
 30
0.0
 11
354.70941883767534
 21
74.31529726118907
 31
0.0
  0
LINE
  5
116
  8
BODY
 10
479.124916499666
 20
54.943219772879104
 30
0.0
 11
464.9298597194389
 21
54.943219772879104
 31
0.0
  0
LINE
  5
117
  8
BODY
 10
464.9298597194389
 20
54.943219772879104
 30
0.0
 11
460.58784235136943
 21
63.62725450901809
 31
0.0
  0
LINE
  5
118
  8
BODY
 10
460.58784235136943
 20
63.62725450901809
 30
0.0
 11
460.08684034736143
 21
68.47027388109558
 31
0.0
  0
LINE
  5
119
  8
BODY
 10
460.08684034736143
 20
68.47027388109558
 30
0.0
 11
460.9218436873748
 21
72.9792919171677
 31
0.0
  0
LINE
  5
11A
  8
BODY
 10
460.9218436873748
 20
72.9792919171677
 30
0.0
 11
467.434869739479
 21
86.1723446893788
 31
0.0
  0
LINE
  5
11B
  8
BODY
 10
467.434869739479
 20
86.1723446893788
 30
0.0
 11
420.5076820307281
 21
87.00734802939218
 31
0.0
  0
LINE
  5
11C
  8
BODY
 10
420.5076820307281
 20
87.00734802939218
 30
0.0
 11
421.5096860387442
 21
74.48229792919176
 31
0.0
  0
LINE
  5
11D
  8
BODY
 10
421.5096860387442
 20
74.48229792919176
 30
0.0
 11
419.6726786907148
 21
74.81629926519707
 31
0.0
  0
LINE
  5
11E
  8
BODY
 10
419.6726786907148
 20
74.81629926519707
 30
0.0
 11
418.50367401469606
 21
85.17034068136275
 31
0.0
  0
LINE
  5
11F
  8
BODY
 10
418.50367401469606
 20
85.17034068136275
 30
0.0
 11
419.33867735470943
 21
86.6733466933868
 31
0.0
  0
LINE
  5
120
  8
BODY
 10
419.33867735470943
 20
86.6733466933868
 30
0.0
 11
375.5845023380094
 21
87.00734802939218
 31
0.0
  0
LINE
  5
121
  8
BODY
 10
375.5845023380094
 20
87.00734802939218
 30
0.0
 11
372.07748830995325
 21
84.50233800935206
 31
0.0
  0
LINE
  5
122
  8
BODY
 10
372.07748830995325
 20
84.50233800935206
 30
0.0
 11
371.91048764195057
 21
93.18637274549104
 31
0.0
  0
LINE
  5
123
  8
BODY
 10
371.91048764195057
 20
93.18637274549104
 30
0.0
 11
376.75350701402806
 21
93.85437541750173
 31
0.0
  0
LINE
  5
124
  8
BODY
 10
376.75350701402806
 20
93.85437541750173
 30
0.0
 11
418.33667334669343
 21
94.02137608550436
 31
0.0
  0
LINE
  5
125
  8
BODY
 10
418.33667334669343
 20
94.02137608550436
 30
0.0
 11
418.50367401469606
 21
87.50835003340018
 31
0.0
  0
LINE
  5
126
  8
BODY
 10
418.50367401469606
 20
87.50835003340018
 30
0.0
 11
418.50367401469606
 21
93.85437541750173
 31
0.0
  0
LINE
  5
127
  8
BODY
 10
418.50367401469606
 20
93.85437541750173
 30
0.0
 11
420.1736806947228
 21
94.18837675350704
 31
0.0
  0
LINE
  5
128
  8
BODY
 10
420.1736806947228
 20
94.18837675350704
 30
0.0
 11
418.50367401469606
 21
94.68937875751504
 31
0.0
  0
LINE
  5
129
  8
BODY
 10
418.50367401469606
 20
94.68937875751504
 30
0.0
 11
418.50367401469606
 21
97.86239144956585
 31
0.0
  0
LINE
  5
12A
  8
BODY
 10
418.50367401469606
 20
97.86239144956585
 30
0.0
 11
418.33667334669343
 21
94.52237808951242
 31
0.0
  0
LINE
  5
12B
  8
BODY
 10
418.33667334669343
 20
94.52237808951242
 30
0.0
 11
375.4175016700067
 21
93.85437541750173
 31
0.0
  0
LINE
  5
12C
  8
BODY
 10
375.4175016700067
 20
93.85437541750173
 30
0.0
 11
376.0855043420174
 21
95.02338009352042
 31
0.0
  0
LINE
  5
12D
  8
BODY
 10
376.0855043420174
 20
95.02338009352042
 30
0.0
 11
372.24448897795594
 21
93.85437541750173
 31
0.0
  0
LINE
  5
12E
  8
BODY
 10
372.24448897795594
 20
93.85437541750173
 30
0.0
 11
371.74348697394794
 21
96.86038744154979
 31
0.0
  0
LINE
  5
12F
  8
BODY
 10
371.74348697394794
 20
96.86038744154979
 30
0.0
 11
371.74348697394794
 21
94.18837675350704
 31
0.0
  0
LINE
  5
130
  8
BODY
 10
371.74348697394794
 20
94.18837675350704
 30
0.0
 11
369.9064796259185
 21
93.85437541750173
 31
0.0
  0
LINE
  5
131
  8
BODY
 10
369.9064796259185
 20
93.85437541750173
 30
0.0
 11
371.74348697394794
 21
93.18637274549104
 31
0.0
  0
LINE
  5
132
  8
BODY
 10
371.74348697394794
 20
93.18637274549104
 30
0.0
 11
372.07748830995325
 21
75.15030060120245
 31
0.0
  0
LINE
  5
133
  8
BODY
 10
372.07748830995325
 20
75.15030060120245
 30
0.0
 11
355.5444221776887
 21
75.15030060120245
 31
0.0
  0
LINE
  5
134
  8
BODY
 10
355.5444221776887
 20
75.15030060120245
 30
0.0
 11
354.20841683366734
 21
74.48229792919176
 31
0.0
  0
LINE
  5
135
  8
BODY
 10
354.20841683366734
 20
74.48229792919176
 30
0.0
 11
352.87241148964597
 21
72.4782899131597
 31
0.0
  0
LINE
  5
136
  8
BODY
 10
352.87241148964597
 20
72.4782899131597
 30
0.0
 11
353.03941215764866
 21
54.27521710086842
 31
0.0
  0
LINE
  5
137
  8
BODY
 10
353.03941215764866
 20
54.27521710086842
 30
0.0
 11
347.5283901135605
 21
53.9412157648631
 31
0.0
  0
LINE
  5
138
  8
BODY
 10
347.5283901135605
 20
53.9412157648631
 30
0.0
 11
353.03941215764866
 21
53.9412157648631
 31
0.0
  0
LINE
  5
139
  8
BODY
 10
353.03941215764866
 20
53.9412157648631
 30
0.0
 11
353.03941215764866
 21
36.74014696058788
 31
0.0
  0
LINE
  5
13A
  8
BODY
 10
353.03941215764866
 20
36.74014696058788
 30
0.0
 11
354.20841683366734
 21
34.903139612558505
 31
0.0
  0
LINE
  5
13B
  8
BODY
 10
354.20841683366734
 20
34.903139612558505
 30
0.0
 11
355.7114228456914
 21
34.23513694054782
 31
0.0
  0
LINE
  5
13C
  8
BODY
 10
355.7114228456914
 20
34.23513694054782
 30
0.0
 11
372.07748830995325
 21
34.56913827655313
 31
0.0
  0
LINE
  5
13D
  8
BODY
 10
372.07748830995325
 20
34.56913827655313
 30
0.0
 11
372.74549098196394
 21
24.716098864395462
 31
0.0
  0
LINE
  5
13E
  8
BODY
 10
372.74549098196394
 20
24.716098864395462
 30
0.0
 11
375.08350033400137
 21
22.712090848363403
 31
0.0
  0
LINE
  5
13F
  8
BODY
 10
375.08350033400137
 20
22.712090848363403
 30
0.0
 11
379.5925183700735
 21
22.378089512358088
 31
0.0
  0
LINE
  5
140
  8
BODY
 10
379.5925183700735
 20
22.378089512358088
 30
0.0
 11
419.17167668670675
 21
23.71409485637946
 31
0.0
  0
LINE
  5
141
  8
BODY
 10
419.17167668670675
 20
23.71409485637946
 30
0.0
 11
420.1736806947228
 21
36.57314629258519
 31
0.0
  0
LINE
  5
142
  8
BODY
 10
420.1736806947228
 20
36.57314629258519
 30
0.0
 11
422.0106880427522
 21
36.23914495657988
 31
0.0
  0
LINE
  5
143
  8
BODY
 10
422.0106880427522
 20
36.23914495657988
 30
0.0
 11
421.17568470273886
 21
23.71409485637946
 31
0.0
  0
LINE
  5
144
  8
BODY
 10
421.17568470273886
 20
23.71409485637946
 30
0.0
 11
470.10688042752173
 21
24.716098864395462
 31
0.0
  0
LINE
  5
145
  8
BODY
 10
470.10688042752173
 20
24.716098864395462
 30
0.0
 11
467.60187040748167
 21
30.22712090848364
 31
0.0
  0
LINE
  5
146
  8
BODY
 10
467.60187040748167
 20
30.22712090848364
 30
0.0
 11
467.935871743487
 21
45.424181696726805
 31
0.0
  0
LINE
  5
147
  8
BODY
 10
467.935871743487
 20
45.424181696726805
 30
0.0
 11
465.09686038744155
 21
54.60921843687379
 31
0.0
  0
LINE
  5
148
  8
BODY
 10
465.09686038744155
 20
54.60921843687379
 30
0.0
 11
479.124916499666
 21
54.943219772879104
 31
0.0
  0
LINE
  5
149
  8
BODY
 10
178.5237140948564
 20
104.20841683366734
 30
0.0
 11
191.38276553106215
 21
104.20841683366734
 31
0.0
  0
LINE
  5
14A
  8
BODY
 10
191.38276553106215
 20
104.20841683366734
 30
0.0
 11
227.78891115564463
 21
103.37341349365403
 31
0.0
  0
LINE
  5
14B
  8
BODY
 10
227.78891115564463
 20
103.37341349365403
 30
0.0
 11
227.78891115564463
 21
97.02738810955248
 31
0.0
  0
LINE
  5
14C
  8
BODY
 10
227.78891115564463
 20
97.02738810955248
 30
0.0
 11
224.11489645958585
 21
100.36740146960591
 31
0.0
  0
LINE
  5
14D
  8
BODY
 10
224.11489645958585
 20
100.36740146960591
 30
0.0
 11
223.9478957915832
 21
100.20040080160322
 31
0.0
  0
LINE
  5
14E
  8
BODY
 10
223.9478957915832
 20
100.20040080160322
 30
0.0
 11
227.12090848363394
 21
97.02738810955248
 31
0.0
  0
LINE
  5
14F
  8
BODY
 10
227.12090848363394
 20
97.02738810955248
 30
0.0
 11
227.9559118236473
 21
96.6933867735471
 31
0.0
  0
LINE
  5
150
  8
BODY
 10
227.9559118236473
 20
96.6933867735471
 30
0.0
 11
227.62191048764197
 21
68.8042752171009
 31
0.0
  0
LINE
  5
151
  8
BODY
 10
227.62191048764197
 20
68.8042752171009
 30
0.0
 11
227.12090848363394
 21
68.47027388109558
 31
0.0
  0
LINE
  5
152
  8
BODY
 10
227.12090848363394
 20
68.47027388109558
 30
0.0
 11
224.11489645958585
 21
69.47227788911158
 31
0.0
  0
LINE
  5
153
  8
BODY
 10
224.11489645958585
 20
69.47227788911158
 30
0.0
 11
223.61389445557782
 21
68.8042752171009
 31
0.0
  0
LINE
  5
154
  8
BODY
 10
223.61389445557782
 20
68.8042752171009
 30
0.0
 11
222.6118904475618
 21
69.47227788911158
 31
0.0
  0
LINE
  5
155
  8
BODY
 10
222.6118904475618
 20
69.47227788911158
 30
0.0
 11
222.6118904475618
 21
68.63727454909821
 31
0.0
  0
LINE
  5
156
  8
BODY
 10
222.6118904475618
 20
68.63727454909821
 30
0.0
 11
222.27788911155645
 21
68.3032732130929
 31
0.0
  0
LINE
  5
157
  8
BODY
 10
222.27788911155645
 20
68.3032732130929
 30
0.0
 11
209.91983967935872
 21
68.63727454909821
 31
0.0
  0
LINE
  5
158
  8
BODY
 10
209.91983967935872
 20
68.63727454909821
 30
0.0
 11
206.57982631930528
 21
70.97528390113564
 31
0.0
  0
LINE
  5
159
  8
BODY
 10
206.57982631930528
 20
70.97528390113564
 30
0.0
 11
200.90180360721445
 21
76.15230460921845
 31
0.0
  0
LINE
  5
15A
  8
BODY
 10
200.90180360721445
 20
76.15230460921845
 30
0.0
 11
200.5678022712091
 21
75.98530394121582
 31
0.0
  0
LINE
  5
15B
  8
BODY
 10
200.5678022712091
 20
75.98530394121582
 30
0.0
 11
204.24181696726788
 21
72.4782899131597
 31
0.0
  0
LINE
  5
15C
  8
BODY
 10
204.24181696726788
 20
72.4782899131597
 30
0.0
 11
209.25183700734803
 21
68.8042752171009
 31
0.0
  0
LINE
  5
15D
  8
BODY
 10
209.25183700734803
 20
68.8042752171009
 30
0.0
 11
189.2117568470274
 21
68.97127588510358
 31
0.0
  0
LINE
  5
15E
  8
BODY
 10
189.2117568470274
 20
68.97127588510358
 30
0.0
 11
187.04074816299266
 21
69.3052772211089
 31
0.0
  0
LINE
  5
15F
  8
BODY
 10
187.04074816299266
 20
69.3052772211089
 30
0.0
 11
181.19572478289913
 21
69.13827655310627
 31
0.0
  0
LINE
  5
160
  8
BODY
 10
181.19572478289913
 20
69.13827655310627
 30
0.0
 11
180.8617234468938
 21
69.47227788911158
 31
0.0
  0
LINE
  5
161
  8
BODY
 10
180.8617234468938
 20
69.47227788911158
 30
0.0
 11
181.19572478289913
 21
69.80627922511695
 31
0.0
  0
LINE
  5
162
  8
BODY
 10
181.19572478289913
 20
69.80627922511695
 30
0.0
 11
181.69672678690716
 21
69.63927855711427
 31
0.0
  0
LINE
  5
163
  8
BODY
 10
181.69672678690716
 20
69.63927855711427
 30
0.0
 11
181.86372745490982
 21
70.47428189712764
 31
0.0
  0
LINE
  5
164
  8
BODY
 10
181.86372745490982
 20
70.47428189712764
 30
0.0
 11
178.0227120908484
 21
69.63927855711427
 31
0.0
  0
LINE
  5
165
  8
BODY
 10
178.0227120908484
 20
69.63927855711427
 30
0.0
 11
178.0227120908484
 21
77.98931195724788
 31
0.0
  0
LINE
  5
166
  8
BODY
 10
178.0227120908484
 20
77.98931195724788
 30
0.0
 11
178.35671342685373
 21
78.15631262525051
 31
0.0
  0
LINE
  5
167
  8
BODY
 10
178.35671342685373
 20
78.15631262525051
 30
0.0
 11
178.0227120908484
 21
79.15831663326657
 31
0.0
  0
LINE
  5
168
  8
BODY
 10
178.0227120908484
 20
79.15831663326657
 30
0.0
 11
178.18971275885104
 21
88.17635270541086
 31
0.0
  0
LINE
  5
169
  8
BODY
 10
178.18971275885104
 20
88.17635270541086
 30
0.0
 11
178.35671342685373
 21
88.34335337341355
 31
0.0
  0
LINE
  5
16A
  8
BODY
 10
178.35671342685373
 20
88.34335337341355
 30
0.0
 11
178.85771543086173
 21
87.67535070140286
 31
0.0
  0
LINE
  5
16B
  8
BODY
 10
178.85771543086173
 20
87.67535070140286
 30
0.0
 11
178.35671342685373
 21
88.51035404141618
 31
0.0
  0
LINE
  5
16C
  8
BODY
 10
178.35671342685373
 20
88.51035404141618
 30
0.0
 11
178.5237140948564
 21
104.20841683366734
 31
0.0
  0
LINE
  5
16D
  8
BODY
 10
292.75217100868406
 20
104.54241816967271
 30
0.0
 11
293.0861723446894
 21
104.87641950567803
 31
0.0
  0
LINE
  5
16E
  8
BODY
 10
293.0861723446894
 20
104.87641950567803
 30
0.0
 11
294.2551770207081
 21
104.87641950567803
 31
0.0
  0
LINE
  5
16F
  8
BODY
 10
294.2551770207081
 20
104.87641950567803
 30
0.0
 11
294.42217768871075
 21
104.7094188376754
 31
0.0
  0
LINE
  5
170
  8
BODY
 10
294.42217768871075
 20
104.7094188376754
 30
0.0
 11
296.0921843687375
 21
104.7094188376754
 31
0.0
  0
LINE
  5
171
  8
BODY
 10
296.0921843687375
 20
104.7094188376754
 30
0.0
 11
296.2591850367402
 21
104.54241816967271
 31
0.0
  0
LINE
  5
172
  8
BODY
 10
296.2591850367402
 20
104.54241816967271
 30
0.0
 11
296.42618570474286
 21
104.7094188376754
 31
0.0
  0
LINE
  5
173
  8
BODY
 10
296.42618570474286
 20
104.7094188376754
 30
0.0
 11
298.26319305277224
 21
104.7094188376754
 31
0.0
  0
LINE
  5
174
  8
BODY
 10
298.26319305277224
 20
104.7094188376754
 30
0.0
 11
298.4301937207749
 21
104.54241816967271
 31
0.0
  0
LINE
  5
175
  8
BODY
 10
298.4301937207749
 20
104.54241816967271
 30
0.0
 11
310.62124248496997
 21
104.54241816967271
 31
0.0
  0
LINE
  5
176
  8
BODY
 10
310.62124248496997
 20
104.54241816967271
 30
0.0
 11
310.78824315297265
 21
104.37541750167003
 31
0.0
  0
LINE
  5
177
  8
BODY
 10
310.78824315297265
 20
104.37541750167003
 30
0.0
 11
311.95724782899134
 21
104.54241816967271
 31
0.0
  0
LINE
  5
178
  8
BODY
 10
311.95724782899134
 20
104.54241816967271
 30
0.0
 11
312.124248496994
 21
104.37541750167003
 31
0.0
  0
LINE
  5
179
  8
BODY
 10
312.124248496994
 20
104.37541750167003
 30
0.0
 11
320.80828323313295
 21
104.37541750167003
 31
0.0
  0
LINE
  5
17A
  8
BODY
 10
320.80828323313295
 20
104.37541750167003
 30
0.0
 11
320.97528390113564
 21
104.20841683366734
 31
0.0
  0
LINE
  5
17B
  8
BODY
 10
320.97528390113564
 20
104.20841683366734
 30
0.0
 11
320.80828323313295
 21
102.53841015364065
 31
0.0
  0
LINE
  5
17C
  8
BODY
 10
320.80828323313295
 20
102.53841015364065
 30
0.0
 11
320.97528390113564
 21
102.37140948563797
 31
0.0
  0
LINE
  5
17D
  8
BODY
 10
320.97528390113564
 20
102.37140948563797
 30
0.0
 11
320.97528390113564
 21
101.87040748162997
 31
0.0
  0
LINE
  5
17E
  8
BODY
 10
320.97528390113564
 20
101.87040748162997
 30
0.0
 11
321.97728790915164
 21
100.20040080160322
 31
0.0
  0
LINE
  5
17F
  8
BODY
 10
321.97728790915164
 20
100.20040080160322
 30
0.0
 11
322.1442885771543
 21
99.03139612558454
 31
0.0
  0
LINE
  5
180
  8
BODY
 10
322.1442885771543
 20
99.03139612558454
 30
0.0
 11
322.311289245157
 21
98.86439545758185
 31
0.0
  0
LINE
  5
181
  8
BODY
 10
322.311289245157
 20
98.86439545758185
 30
0.0
 11
322.4782899131597
 21
97.86239144956585
 31
0.0
  0
LINE
  5
182
  8
BODY
 10
322.4782899131597
 20
97.86239144956585
 30
0.0
 11
322.6452905811623
 21
97.69539078156316
 31
0.0
  0
LINE
  5
183
  8
BODY
 10
322.6452905811623
 20
97.69539078156316
 30
0.0
 11
322.6452905811623
 21
96.1923847695391
 31
0.0
  0
LINE
  5
184
  8
BODY
 10
322.6452905811623
 20
96.1923847695391
 30
0.0
 11
322.1442885771543
 21
95.1903807615231
 31
0.0
  0
LINE
  5
185
  8
BODY
 10
322.1442885771543
 20
95.1903807615231
 30
0.0
 11
322.1442885771543
 21
94.85637942551773
 31
0.0
  0
LINE
  5
186
  8
BODY
 10
322.1442885771543
 20
94.85637942551773
 30
0.0
 11
321.6432865731463
 21
94.18837675350704
 31
0.0
  0
LINE
  5
187
  8
BODY
 10
321.6432865731463
 20
94.18837675350704
 30
0.0
 11
321.47628590514364
 21
93.52037408149636
 31
0.0
  0
LINE
  5
188
  8
BODY
 10
321.47628590514364
 20
93.52037408149636
 30
0.0
 11
321.14228456913827
 21
93.18637274549104
 31
0.0
  0
LINE
  5
189
  8
BODY
 10
321.14228456913827
 20
93.18637274549104
 30
0.0
 11
320.97528390113564
 21
92.51837007348036
 31
0.0
  0
LINE
  5
18A
  8
BODY
 10
320.97528390113564
 20
92.51837007348036
 30
0.0
 11
320.64128256513027
 21
92.18436873747498
 31
0.0
  0
LINE
  5
18B
  8
BODY
 10
320.64128256513027
 20
92.18436873747498
 30
0.0
 11
320.64128256513027
 21
91.85036740146961
 31
0.0
  0
LINE
  5
18C
  8
BODY
 10
320.64128256513027
 20
91.85036740146961
 30
0.0
 11
320.4742818971276
 21
91.68336673346698
 31
0.0
  0
LINE
  5
18D
  8
BODY
 10
320.4742818971276
 20
91.68336673346698
 30
0.0
 11
320.4742818971276
 21
91.0153640614563
 31
0.0
  0
LINE
  5
18E
  8
BODY
 10
320.4742818971276
 20
91.0153640614563
 30
0.0
 11
320.30728122912495
 21
90.84836339345361
 31
0.0
  0
LINE
  5
18F
  8
BODY
 10
320.30728122912495
 20
90.84836339345361
 30
0.0
 11
320.30728122912495
 21
88.00935203740818
 31
0.0
  0
LINE
  5
190
  8
BODY
 10
320.30728122912495
 20
88.00935203740818
 30
0.0
 11
320.4742818971276
 21
87.84235136940549
 31
0.0
  0
LINE
  5
191
  8
BODY
 10
320.4742818971276
 20
87.84235136940549
 30
0.0
 11
320.4742818971276
 21
86.84034736138949
 31
0.0
  0
LINE
  5
192
  8
BODY
 10
320.4742818971276
 20
86.84034736138949
 30
0.0
 11
319.9732798931196
 21
86.1723446893788
 31
0.0
  0
LINE
  5
193
  8
BODY
 10
319.9732798931196
 20
86.1723446893788
 30
0.0
 11
319.63927855711427
 21
86.1723446893788
 31
0.0
  0
LINE
  5
194
  8
BODY
 10
319.63927855711427
 20
86.1723446893788
 30
0.0
 11
319.4722778891116
 21
86.33934535738149
 31
0.0
  0
LINE
  5
195
  8
BODY
 10
319.4722778891116
 20
86.33934535738149
 30
0.0
 11
314.4622578490314
 21
86.33934535738149
 31
0.0
  0
LINE
  5
196
  8
BODY
 10
314.4622578490314
 20
86.33934535738149
 30
0.0
 11
314.2952571810287
 21
86.50634602538412
 31
0.0
  0
LINE
  5
197
  8
BODY
 10
314.2952571810287
 20
86.50634602538412
 30
0.0
 11
296.7601870407482
 21
86.50634602538412
 31
0.0
  0
LINE
  5
198
  8
BODY
 10
296.7601870407482
 20
86.50634602538412
 30
0.0
 11
296.5931863727455
 21
86.6733466933868
 31
0.0
  0
LINE
  5
199
  8
BODY
 10
296.5931863727455
 20
86.6733466933868
 30
0.0
 11
296.2591850367402
 21
86.50634602538412
 31
0.0
  0
LINE
  5
19A
  8
BODY
 10
296.2591850367402
 20
86.50634602538412
 30
0.0
 11
295.5911823647295
 21
86.50634602538412
 31
0.0
  0
LINE
  5
19B
  8
BODY
 10
295.5911823647295
 20
86.50634602538412
 30
0.0
 11
295.4241816967268
 21
86.6733466933868
 31
0.0
  0
LINE
  5
19C
  8
BODY
 10
295.4241816967268
 20
86.6733466933868
 30
0.0
 11
295.09018036072143
 21
86.50634602538412
 31
0.0
  0
LINE
  5
19D
  8
BODY
 10
295.09018036072143
 20
86.50634602538412
 30
0.0
 11
294.42217768871075
 21
86.50634602538412
 31
0.0
  0
LINE
  5
19E
  8
BODY
 10
294.42217768871075
 20
86.50634602538412
 30
0.0
 11
294.2551770207081
 21
86.6733466933868
 31
0.0
  0
LINE
  5
19F
  8
BODY
 10
294.2551770207081
 20
86.6733466933868
 30
0.0
 11
293.92117568470275
 21
86.50634602538412
 31
0.0
  0
LINE
  5
1A0
  8
BODY
 10
293.92117568470275
 20
86.50634602538412
 30
0.0
 11
292.75217100868406
 21
86.50634602538412
 31
0.0
  0
LINE
  5
1A1
  8
BODY
 10
292.75217100868406
 20
86.50634602538412
 30
0.0
 11
292.5851703406814
 21
86.6733466933868
 31
0.0
  0
LINE
  5
1A2
  8
BODY
 10
292.5851703406814
 20
86.6733466933868
 30
0.0
 11
292.75217100868406
 21
86.84034736138949
 31
0.0
  0
LINE
  5
1A3
  8
BODY
 10
292.75217100868406
 20
86.84034736138949
 30
0.0
 11
292.75217100868406
 21
88.00935203740818
 31
0.0
  0
LINE
  5
1A4
  8
BODY
 10
292.75217100868406
 20
88.00935203740818
 30
0.0
 11
293.0861723446894
 21
88.84435537742155
 31
0.0
  0
LINE
  5
1A5
  8
BODY
 10
293.0861723446894
 20
88.84435537742155
 30
0.0
 11
293.0861723446894
 21
89.67935871743492
 31
0.0
  0
LINE
  5
1A6
  8
BODY
 10
293.0861723446894
 20
89.67935871743492
 30
0.0
 11
292.75217100868406
 21
89.51235804943224
 31
0.0
  0
LINE
  5
1A7
  8
BODY
 10
292.75217100868406
 20
89.51235804943224
 30
0.0
 11
292.5851703406814
 21
89.67935871743492
 31
0.0
  0
LINE
  5
1A8
  8
BODY
 10
292.5851703406814
 20
89.67935871743492
 30
0.0
 11
292.5851703406814
 21
94.18837675350704
 31
0.0
  0
LINE
  5
1A9
  8
BODY
 10
292.5851703406814
 20
94.18837675350704
 30
0.0
 11
292.75217100868406
 21
94.35537742150973
 31
0.0
  0
LINE
  5
1AA
  8
BODY
 10
292.75217100868406
 20
94.35537742150973
 30
0.0
 11
292.75217100868406
 21
97.36138944555779
 31
0.0
  0
LINE
  5
1AB
  8
BODY
 10
292.75217100868406
 20
97.36138944555779
 30
0.0
 11
292.91917167668674
 21
97.52839011356048
 31
0.0
  0
LINE
  5
1AC
  8
BODY
 10
292.91917167668674
 20
97.52839011356048
 30
0.0
 11
292.91917167668674
 21
104.37541750167003
 31
0.0
  0
LINE
  5
1AD
  8
BODY
 10
292.91917167668674
 20
104.37541750167003
 30
0.0
 11
292.75217100868406
 21
104.54241816967271
 31
0.0
  0
LINE
  5
1AE
  8
BODY
 10
46.927187708750836
 20
105.37742150968609
 30
0.0
 11
47.59519038076152
 21
104.04141616566471
 31
0.0
  0
LINE
  5
1AF
  8
BODY
 10
47.59519038076152
 20
104.04141616566471
 30
0.0
 11
47.7621910487642
 21
105.54442217768877
 31
0.0
  0
LINE
  5
1B0
  8
BODY
 10
47.7621910487642
 20
105.54442217768877
 30
0.0
 11
128.25651302605212
 21
104.20841683366734
 31
0.0
  0
LINE
  5
1B1
  8
BODY
 10
128.25651302605212
 20
104.20841683366734
 30
0.0
 11
128.25651302605212
 21
90.51436205744824
 31
0.0
  0
LINE
  5
1B2
  8
BODY
 10
128.25651302605212
 20
90.51436205744824
 30
0.0
 11
129.09151636606546
 21
89.17835671342687
 31
0.0
  0
LINE
  5
1B3
  8
BODY
 10
129.09151636606546
 20
89.17835671342687
 30
0.0
 11
132.26452905811624
 21
88.84435537742155
 31
0.0
  0
LINE
  5
1B4
  8
BODY
 10
132.26452905811624
 20
88.84435537742155
 30
0.0
 11
133.7675350701403
 21
89.51235804943224
 31
0.0
  0
LINE
  5
1B5
  8
BODY
 10
133.7675350701403
 20
89.51235804943224
 30
0.0
 11
134.43553774215098
 21
105.54442217768877
 31
0.0
  0
LINE
  5
1B6
  8
BODY
 10
134.43553774215098
 20
105.54442217768877
 30
0.0
 11
177.68871075484304
 21
104.87641950567803
 31
0.0
  0
LINE
  5
1B7
  8
BODY
 10
177.68871075484304
 20
104.87641950567803
 30
0.0
 11
177.52171008684036
 21
69.63927855711427
 31
0.0
  0
LINE
  5
1B8
  8
BODY
 10
177.52171008684036
 20
69.63927855711427
 30
0.0
 11
173.6806947227789
 21
69.3052772211089
 31
0.0
  0
LINE
  5
1B9
  8
BODY
 10
173.6806947227789
 20
69.3052772211089
 30
0.0
 11
177.35470941883767
 21
68.8042752171009
 31
0.0
  0
LINE
  5
1BA
  8
BODY
 10
177.35470941883767
 20
68.8042752171009
 30
0.0
 11
176.85370741482967
 21
38.41015364061457
 31
0.0
  0
LINE
  5
1BB
  8
BODY
 10
176.85370741482967
 20
38.41015364061457
 30
0.0
 11
176.0187040748163
 21
33.56713426853713
 31
0.0
  0
LINE
  5
1BC
  8
BODY
 10
176.0187040748163
 20
33.56713426853713
 30
0.0
 11
173.34669338677355
 21
31.2291249164997
 31
0.0
  0
LINE
  5
1BD
  8
BODY
 10
173.34669338677355
 20
31.2291249164997
 30
0.0
 11
160.98864395457582
 21
30.394121576486327
 31
0.0
  0
LINE
  5
1BE
  8
BODY
 10
160.98864395457582
 20
30.394121576486327
 30
0.0
 11
158.65063460253842
 21
29.22511690046764
 31
0.0
  0
LINE
  5
1BF
  8
BODY
 10
158.65063460253842
 20
29.22511690046764
 30
0.0
 11
156.47962591850367
 21
25.71810287241152
 31
0.0
  0
LINE
  5
1C0
  8
BODY
 10
156.47962591850367
 20
25.71810287241152
 30
0.0
 11
156.64662658650636
 21
19.37207748830997
 31
0.0
  0
LINE
  5
1C1
  8
BODY
 10
156.64662658650636
 20
19.37207748830997
 30
0.0
 11
46.09218436873748
 21
19.37207748830997
 31
0.0
  0
LINE
  5
1C2
  8
BODY
 10
46.09218436873748
 20
19.37207748830997
 30
0.0
 11
46.25918503674015
 21
22.044088176352716
 31
0.0
  0
LINE
  5
1C3
  8
BODY
 10
46.25918503674015
 20
22.044088176352716
 30
0.0
 11
45.25718102872412
 21
19.37207748830997
 31
0.0
  0
LINE
  5
1C4
  8
BODY
 10
45.25718102872412
 20
19.37207748830997
 30
0.0
 11
46.927187708750836
 21
105.37742150968609
 31
0.0
  0
LINE
  5
1C5
  8
BODY
 10
228.95791583166334
 20
105.87842351369409
 30
0.0
 11
230.12692050768203
 21
105.87842351369409
 31
0.0
  0
LINE
  5
1C6
  8
BODY
 10
230.12692050768203
 20
105.87842351369409
 30
0.0
 11
230.4609218436874
 21
105.54442217768877
 31
0.0
  0
LINE
  5
1C7
  8
BODY
 10
230.4609218436874
 20
105.54442217768877
 30
0.0
 11
230.4609218436874
 21
99.03139612558454
 31
0.0
  0
LINE
  5
1C8
  8
BODY
 10
230.4609218436874
 20
99.03139612558454
 30
0.0
 11
230.29392117568472
 21
98.86439545758185
 31
0.0
  0
LINE
  5
1C9
  8
BODY
 10
230.29392117568472
 20
98.86439545758185
 30
0.0
 11
230.29392117568472
 21
87.50835003340018
 31
0.0
  0
LINE
  5
1CA
  8
BODY
 10
230.29392117568472
 20
87.50835003340018
 30
0.0
 11
230.12692050768203
 21
87.34134936539749
 31
0.0
  0
LINE
  5
1CB
  8
BODY
 10
230.12692050768203
 20
87.34134936539749
 30
0.0
 11
230.12692050768203
 21
86.50634602538412
 31
0.0
  0
LINE
  5
1CC
  8
BODY
 10
230.12692050768203
 20
86.50634602538412
 30
0.0
 11
230.29392117568472
 21
86.33934535738149
 31
0.0
  0
LINE
  5
1CD
  8
BODY
 10
230.29392117568472
 20
86.33934535738149
 30
0.0
 11
230.29392117568472
 21
86.00534402137612
 31
0.0
  0
LINE
  5
1CE
  8
BODY
 10
230.29392117568472
 20
86.00534402137612
 30
0.0
 11
230.12692050768203
 21
85.83834335337343
 31
0.0
  0
LINE
  5
1CF
  8
BODY
 10
230.12692050768203
 20
85.83834335337343
 30
0.0
 11
230.12692050768203
 21
75.98530394121582
 31
0.0
  0
LINE
  5
1D0
  8
BODY
 10
230.12692050768203
 20
75.98530394121582
 30
0.0
 11
229.95991983967937
 21
75.81830327321313
 31
0.0
  0
LINE
  5
1D1
  8
BODY
 10
229.95991983967937
 20
75.81830327321313
 30
0.0
 11
229.95991983967937
 21
68.63727454909821
 31
0.0
  0
LINE
  5
1D2
  8
BODY
 10
229.95991983967937
 20
68.63727454909821
 30
0.0
 11
229.7929191716767
 21
68.47027388109558
 31
0.0
  0
LINE
  5
1D3
  8
BODY
 10
229.7929191716767
 20
68.47027388109558
 30
0.0
 11
228.12291249164997
 21
68.47027388109558
 31
0.0
  0
LINE
  5
1D4
  8
BODY
 10
228.12291249164997
 20
68.47027388109558
 30
0.0
 11
227.9559118236473
 21
68.63727454909821
 31
0.0
  0
LINE
  5
1D5
  8
BODY
 10
227.9559118236473
 20
68.63727454909821
 30
0.0
 11
227.9559118236473
 21
72.81229124916501
 31
0.0
  0
LINE
  5
1D6
  8
BODY
 10
227.9559118236473
 20
72.81229124916501
 30
0.0
 11
228.12291249164997
 21
72.9792919171677
 31
0.0
  0
LINE
  5
1D7
  8
BODY
 10
228.12291249164997
 20
72.9792919171677
 30
0.0
 11
228.12291249164997
 21
73.31329325317307
 31
0.0
  0
LINE
  5
1D8
  8
BODY
 10
228.12291249164997
 20
73.31329325317307
 30
0.0
 11
227.9559118236473
 21
73.4802939211757
 31
0.0
  0
LINE
  5
1D9
  8
BODY
 10
227.9559118236473
 20
73.4802939211757
 30
0.0
 11
227.9559118236473
 21
74.14829659318639
 31
0.0
  0
LINE
  5
1DA
  8
BODY
 10
227.9559118236473
 20
74.14829659318639
 30
0.0
 11
228.12291249164997
 21
74.31529726118907
 31
0.0
  0
LINE
  5
1DB
  8
BODY
 10
228.12291249164997
 20
74.31529726118907
 30
0.0
 11
228.12291249164997
 21
81.32932531730131
 31
0.0
  0
LINE
  5
1DC
  8
BODY
 10
228.12291249164997
 20
81.32932531730131
 30
0.0
 11
228.28991315965266
 21
81.496325985304
 31
0.0
  0
LINE
  5
1DD
  8
BODY
 10
228.28991315965266
 20
81.496325985304
 30
0.0
 11
228.12291249164997
 21
81.83032732130931
 31
0.0
  0
LINE
  5
1DE
  8
BODY
 10
228.12291249164997
 20
81.83032732130931
 30
0.0
 11
228.12291249164997
 21
82.49832999332
 31
0.0
  0
LINE
  5
1DF
  8
BODY
 10
228.12291249164997
 20
82.49832999332
 30
0.0
 11
228.28991315965266
 21
82.66533066132268
 31
0.0
  0
LINE
  5
1E0
  8
BODY
 10
228.28991315965266
 20
82.66533066132268
 30
0.0
 11
228.28991315965266
 21
92.0173680694723
 31
0.0
  0
LINE
  5
1E1
  8
BODY
 10
228.28991315965266
 20
92.0173680694723
 30
0.0
 11
228.4569138276553
 21
92.18436873747498
 31
0.0
  0
LINE
  5
1E2
  8
BODY
 10
228.4569138276553
 20
92.18436873747498
 30
0.0
 11
228.4569138276553
 21
92.51837007348036
 31
0.0
  0
LINE
  5
1E3
  8
BODY
 10
228.4569138276553
 20
92.51837007348036
 30
0.0
 11
228.28991315965266
 21
92.68537074148298
 31
0.0
  0
LINE
  5
1E4
  8
BODY
 10
228.28991315965266
 20
92.68537074148298
 30
0.0
 11
228.4569138276553
 21
93.01937207748836
 31
0.0
  0
LINE
  5
1E5
  8
BODY
 10
228.4569138276553
 20
93.01937207748836
 30
0.0
 11
228.4569138276553
 21
93.52037408149636
 31
0.0
  0
LINE
  5
1E6
  8
BODY
 10
228.4569138276553
 20
93.52037408149636
 30
0.0
 11
228.28991315965266
 21
93.68737474949904
 31
0.0
  0
LINE
  5
1E7
  8
BODY
 10
228.28991315965266
 20
93.68737474949904
 30
0.0
 11
228.28991315965266
 21
94.02137608550436
 31
0.0
  0
LINE
  5
1E8
  8
BODY
 10
228.28991315965266
 20
94.02137608550436
 30
0.0
 11
228.4569138276553
 21
94.18837675350704
 31
0.0
  0
LINE
  5
1E9
  8
BODY
 10
228.4569138276553
 20
94.18837675350704
 30
0.0
 11
228.4569138276553
 21
101.5364061456246
 31
0.0
  0
LINE
  5
1EA
  8
BODY
 10
228.4569138276553
 20
101.5364061456246
 30
0.0
 11
228.623914495658
 21
101.70340681362728
 31
0.0
  0
LINE
  5
1EB
  8
BODY
 10
228.623914495658
 20
101.70340681362728
 30
0.0
 11
228.623914495658
 21
102.20440881763528
 31
0.0
  0
LINE
  5
1EC
  8
BODY
 10
228.623914495658
 20
102.20440881763528
 30
0.0
 11
228.4569138276553
 21
102.37140948563797
 31
0.0
  0
LINE
  5
1ED
  8
BODY
 10
228.4569138276553
 20
102.37140948563797
 30
0.0
 11
228.4569138276553
 21
103.37341349365403
 31
0.0
  0
LINE
  5
1EE
  8
BODY
 10
228.4569138276553
 20
103.37341349365403
 30
0.0
 11
228.79091516366066
 21
103.87441549766203
 31
0.0
  0
LINE
  5
1EF
  8
BODY
 10
228.79091516366066
 20
103.87441549766203
 30
0.0
 11
229.124916499666
 21
103.87441549766203
 31
0.0
  0
LINE
  5
1F0
  8
BODY
 10
229.124916499666
 20
103.87441549766203
 30
0.0
 11
229.124916499666
 21
104.20841683366734
 31
0.0
  0
LINE
  5
1F1
  8
BODY
 10
229.124916499666
 20
104.20841683366734
 30
0.0
 11
229.2919171676687
 21
104.37541750167003
 31
0.0
  0
LINE
  5
1F2
  8
BODY
 10
229.2919171676687
 20
104.37541750167003
 30
0.0
 11
229.7929191716767
 21
104.37541750167003
 31
0.0
  0
LINE
  5
1F3
  8
BODY
 10
229.7929191716767
 20
104.37541750167003
 30
0.0
 11
229.7929191716767
 21
104.54241816967271
 31
0.0
  0
LINE
  5
1F4
  8
BODY
 10
229.7929191716767
 20
104.54241816967271
 30
0.0
 11
228.79091516366066
 21
104.54241816967271
 31
0.0
  0
LINE
  5
1F5
  8
BODY
 10
228.79091516366066
 20
104.54241816967271
 30
0.0
 11
228.623914495658
 21
104.7094188376754
 31
0.0
  0
LINE
  5
1F6
  8
BODY
 10
228.623914495658
 20
104.7094188376754
 30
0.0
 11
228.623914495658
 21
105.54442217768877
 31
0.0
  0
LINE
  5
1F7
  8
BODY
 10
228.623914495658
 20
105.54442217768877
 30
0.0
 11
228.95791583166334
 21
105.87842351369409
 31
0.0
  0
LINE
  5
1F8
  8
BODY
 10
231.1289245156981
 20
106.04542418169677
 30
0.0
 11
244.48897795591185
 21
105.87842351369409
 31
0.0
  0
LINE
  5
1F9
  8
BODY
 10
244.48897795591185
 20
105.87842351369409
 30
0.0
 11
244.32197728790916
 21
102.03740814963265
 31
0.0
  0
LINE
  5
1FA
  8
BODY
 10
244.32197728790916
 20
102.03740814963265
 30
0.0
 11
245.3239812959252
 21
103.20641282565134
 31
0.0
  0
LINE
  5
1FB
  8
BODY
 10
245.3239812959252
 20
103.20641282565134
 30
0.0
 11
245.65798263193054
 21
101.5364061456246
 31
0.0
  0
LINE
  5
1FC
  8
BODY
 10
245.65798263193054
 20
101.5364061456246
 30
0.0
 11
245.82498329993322
 21
105.87842351369409
 31
0.0
  0
LINE
  5
1FD
  8
BODY
 10
245.82498329993322
 20
105.87842351369409
 30
0.0
 11
292.75217100868406
 21
104.7094188376754
 31
0.0
  0
LINE
  5
1FE
  8
BODY
 10
292.75217100868406
 20
104.7094188376754
 30
0.0
 11
292.75217100868406
 21
89.34535738142955
 31
0.0
  0
LINE
  5
1FF
  8
BODY
 10
292.75217100868406
 20
89.34535738142955
 30
0.0
 11
292.25116900467606
 21
89.01135604542424
 31
0.0
  0
LINE
  5
200
  8
BODY
 10
292.25116900467606
 20
89.01135604542424
 30
0.0
 11
291.58316633266537
 21
90.01336005344024
 31
0.0
  0
LINE
  5
201
  8
BODY
 10
291.58316633266537
 20
90.01336005344024
 30
0.0
 11
292.25116900467606
 21
86.6733466933868
 31
0.0
  0
LINE
  5
202
  8
BODY
 10
292.25116900467606
 20
86.6733466933868
 30
0.0
 11
278.55711422845695
 21
84.50233800935206
 31
0.0
  0
LINE
  5
203
  8
BODY
 10
278.55711422845695
 20
84.50233800935206
 30
0.0
 11
273.8810955243821
 21
82.999331997328
 31
0.0
  0
LINE
  5
204
  8
BODY
 10
273.8810955243821
 20
82.999331997328
 30
0.0
 11
267.7020708082832
 21
79.65931863727457
 31
0.0
  0
LINE
  5
205
  8
BODY
 10
267.7020708082832
 20
79.65931863727457
 30
0.0
 11
260.8550434201737
 21
72.64529058116239
 31
0.0
  0
LINE
  5
206
  8
BODY
 10
260.8550434201737
 20
72.64529058116239
 30
0.0
 11
256.34602538410155
 21
64.12825651302609
 31
0.0
  0
LINE
  5
207
  8
BODY
 10
256.34602538410155
 20
64.12825651302609
 30
0.0
 11
254.3420173680695
 21
54.4422177688711
 31
0.0
  0
LINE
  5
208
  8
BODY
 10
254.3420173680695
 20
54.4422177688711
 30
0.0
 11
254.50901803607215
 21
46.25918503674018
 31
0.0
  0
LINE
  5
209
  8
BODY
 10
254.50901803607215
 20
46.25918503674018
 30
0.0
 11
257.51503006012024
 21
32.89913159652639
 31
0.0
  0
LINE
  5
20A
  8
BODY
 10
257.51503006012024
 20
32.89913159652639
 30
0.0
 11
262.0240480961924
 21
19.37207748830997
 31
0.0
  0
LINE
  5
20B
  8
BODY
 10
262.0240480961924
 20
19.37207748830997
 30
0.0
 11
244.1549766199065
 21
19.37207748830997
 31
0.0
  0
LINE
  5
20C
  8
BODY
 10
244.1549766199065
 20
19.37207748830997
 30
0.0
 11
244.48897795591185
 21
22.2110888443554
 31
0.0
  0
LINE
  5
20D
  8
BODY
 10
244.48897795591185
 20
22.2110888443554
 30
0.0
 11
243.48697394789582
 21
20.541082164328714
 31
0.0
  0
LINE
  5
20E
  8
BODY
 10
243.48697394789582
 20
20.541082164328714
 30
0.0
 11
245.15698062792254
 21
102.20440881763528
 31
0.0
  0
LINE
  5
20F
  8
BODY
 10
245.15698062792254
 20
102.20440881763528
 30
0.0
 11
243.65397461589848
 21
21.543086172344715
 31
0.0
  0
LINE
  5
210
  8
BODY
 10
243.65397461589848
 20
21.543086172344715
 30
0.0
 11
242.65197060788245
 21
21.877087508350087
 31
0.0
  0
LINE
  5
211
  8
BODY
 10
242.65197060788245
 20
21.877087508350087
 30
0.0
 11
242.8189712758851
 21
19.37207748830997
 31
0.0
  0
LINE
  5
212
  8
BODY
 10
242.8189712758851
 20
19.37207748830997
 30
0.0
 11
229.2919171676687
 21
19.539078156312655
 31
0.0
  0
LINE
  5
213
  8
BODY
 10
229.2919171676687
 20
19.539078156312655
 30
0.0
 11
231.1289245156981
 21
106.04542418169677
 31
0.0
  0
LINE
  5
214
  8
BODY
 10
47.09418837675351
 20
106.71342685370746
 30
0.0
 11
52.605210420841686
 21
106.88042752171015
 31
0.0
  0
LINE
  5
215
  8
BODY
 10
52.605210420841686
 20
106.88042752171015
 30
0.0
 11
56.27922511690047
 21
106.54642618570477
 31
0.0
  0
LINE
  5
216
  8
BODY
 10
56.27922511690047
 20
106.54642618570477
 30
0.0
 11
83.33333333333334
 21
106.37942551770209
 31
0.0
  0
LINE
  5
217
  8
BODY
 10
83.33333333333334
 20
106.37942551770209
 30
0.0
 11
88.17635270541082
 21
106.04542418169677
 31
0.0
  0
LINE
  5
218
  8
BODY
 10
88.17635270541082
 20
106.04542418169677
 30
0.0
 11
116.90046760187042
 21
105.7114228456914
 31
0.0
  0
LINE
  5
219
  8
BODY
 10
116.90046760187042
 20
105.7114228456914
 30
0.0
 11
119.40547762191049
 21
105.87842351369409
 31
0.0
  0
LINE
  5
21A
  8
BODY
 10
119.40547762191049
 20
105.87842351369409
 30
0.0
 11
121.91048764195058
 21
105.54442217768877
 31
0.0
  0
LINE
  5
21B
  8
BODY
 10
121.91048764195058
 20
105.54442217768877
 30
0.0
 11
123.91449565798264
 21
105.7114228456914
 31
0.0
  0
LINE
  5
21C
  8
BODY
 10
123.91449565798264
 20
105.7114228456914
 30
0.0
 11
124.24849699398798
 21
105.04342017368072
 31
0.0
  0
LINE
  5
21D
  8
BODY
 10
124.24849699398798
 20
105.04342017368072
 30
0.0
 11
124.58249832999333
 21
105.7114228456914
 31
0.0
  0
LINE
  5
21E
  8
BODY
 10
124.58249832999333
 20
105.7114228456914
 30
0.0
 11
128.25651302605212
 21
105.7114228456914
 31
0.0
  0
LINE
  5
21F
  8
BODY
 10
128.25651302605212
 20
105.7114228456914
 30
0.0
 11
128.59051436205746
 21
105.37742150968609
 31
0.0
  0
LINE
  5
220
  8
BODY
 10
128.59051436205746
 20
105.37742150968609
 30
0.0
 11
128.59051436205746
 21
104.87641950567803
 31
0.0
  0
LINE
  5
221
  8
BODY
 10
128.59051436205746
 20
104.87641950567803
 30
0.0
 11
128.25651302605212
 21
104.54241816967271
 31
0.0
  0
LINE
  5
222
  8
BODY
 10
128.25651302605212
 20
104.54241816967271
 30
0.0
 11
107.54843019372078
 21
105.04342017368072
 31
0.0
  0
LINE
  5
223
  8
BODY
 10
107.54843019372078
 20
105.04342017368072
 30
0.0
 11
47.59519038076152
 21
105.87842351369409
 31
0.0
  0
LINE
  5
224
  8
BODY
 10
47.59519038076152
 20
105.87842351369409
 30
0.0
 11
47.09418837675351
 21
106.71342685370746
 31
0.0
  0
LINE
  5
225
  8
BODY
 10
124.58249832999333
 20
107.04742818971278
 30
0.0
 11
124.91649966599867
 21
107.38142952571815
 31
0.0
  0
LINE
  5
226
  8
BODY
 10
124.91649966599867
 20
107.38142952571815
 30
0.0
 11
173.0126920507682
 21
106.88042752171015
 31
0.0
  0
LINE
  5
227
  8
BODY
 10
173.0126920507682
 20
106.88042752171015
 30
0.0
 11
178.18971275885104
 21
106.54642618570477
 31
0.0
  0
LINE
  5
228
  8
BODY
 10
178.18971275885104
 20
106.54642618570477
 30
0.0
 11
204.90981963927857
 21
106.37942551770209
 31
0.0
  0
LINE
  5
229
  8
BODY
 10
204.90981963927857
 20
106.37942551770209
 30
0.0
 11
209.58583834335337
 21
106.04542418169677
 31
0.0
  0
LINE
  5
22A
  8
BODY
 10
209.58583834335337
 20
106.04542418169677
 30
0.0
 11
226.61990647962594
 21
106.04542418169677
 31
0.0
  0
LINE
  5
22B
  8
BODY
 10
226.61990647962594
 20
106.04542418169677
 30
0.0
 11
228.12291249164997
 21
105.87842351369409
 31
0.0
  0
LINE
  5
22C
  8
BODY
 10
228.12291249164997
 20
105.87842351369409
 30
0.0
 11
228.4569138276553
 21
104.7094188376754
 31
0.0
  0
LINE
  5
22D
  8
BODY
 10
228.4569138276553
 20
104.7094188376754
 30
0.0
 11
227.78891115564463
 21
104.37541750167003
 31
0.0
  0
LINE
  5
22E
  8
BODY
 10
227.78891115564463
 20
104.37541750167003
 30
0.0
 11
168.8376753507014
 21
105.54442217768877
 31
0.0
  0
LINE
  5
22F
  8
BODY
 10
168.8376753507014
 20
105.54442217768877
 30
0.0
 11
124.91649966599867
 21
106.04542418169677
 31
0.0
  0
LINE
  5
230
  8
BODY
 10
124.91649966599867
 20
106.04542418169677
 30
0.0
 11
124.58249832999333
 21
107.04742818971278
 31
0.0
  0
LINE
  5
231
  8
BODY
 10
14.86305945223781
 20
107.38142952571815
 30
0.0
 11
29.559118236472948
 21
107.21442885771546
 31
0.0
  0
LINE
  5
232
  8
BODY
 10
29.559118236472948
 20
107.21442885771546
 30
0.0
 11
29.89311957247829
 21
106.88042752171015
 31
0.0
  0
LINE
  5
233
  8
BODY
 10
29.89311957247829
 20
106.88042752171015
 30
0.0
 11
29.559118236472948
 21
92.35136940547767
 31
0.0
  0
LINE
  5
234
  8
BODY
 10
29.559118236472948
 20
92.35136940547767
 30
0.0
 11
30.56112224448898
 21
90.68136272545092
 31
0.0
  0
LINE
  5
235
  8
BODY
 10
30.56112224448898
 20
90.68136272545092
 30
0.0
 11
34.06813627254509
 21
90.84836339345361
 31
0.0
  0
LINE
  5
236
  8
BODY
 10
34.06813627254509
 20
90.84836339345361
 30
0.0
 11
35.2371409485638
 21
92.85237140948567
 31
0.0
  0
LINE
  5
237
  8
BODY
 10
35.2371409485638
 20
92.85237140948567
 30
0.0
 11
35.07014028056113
 21
105.37742150968609
 31
0.0
  0
LINE
  5
238
  8
BODY
 10
35.07014028056113
 20
105.37742150968609
 30
0.0
 11
35.57114228456914
 21
105.87842351369409
 31
0.0
  0
LINE
  5
239
  8
BODY
 10
35.57114228456914
 20
105.87842351369409
 30
0.0
 11
45.758183032732134
 21
105.54442217768877
 31
0.0
  0
LINE
  5
23A
  8
BODY
 10
45.758183032732134
 20
105.54442217768877
 30
0.0
 11
45.925183700734806
 21
104.54241816967271
 31
0.0
  0
LINE
  5
23B
  8
BODY
 10
45.925183700734806
 20
104.54241816967271
 30
0.0
 11
46.760187040748164
 21
105.54442217768877
 31
0.0
  0
LINE
  5
23C
  8
BODY
 10
46.760187040748164
 20
105.54442217768877
 30
0.0
 11
45.25718102872412
 21
20.541082164328714
 31
0.0
  0
LINE
  5
23D
  8
BODY
 10
45.25718102872412
 20
20.541082164328714
 30
0.0
 11
44.25517702070808
 21
21.877087508350087
 31
0.0
  0
LINE
  5
23E
  8
BODY
 10
44.25517702070808
 20
21.877087508350087
 30
0.0
 11
44.923179692718776
 21
19.539078156312655
 31
0.0
  0
LINE
  5
23F
  8
BODY
 10
44.923179692718776
 20
19.539078156312655
 30
0.0
 11
44.58917835671343
 21
19.205076820307283
 31
0.0
  0
LINE
  5
240
  8
BODY
 10
44.58917835671343
 20
19.205076820307283
 30
0.0
 11
16.867067468269873
 21
19.038076152304654
 31
0.0
  0
LINE
  5
241
  8
BODY
 10
16.867067468269873
 20
19.038076152304654
 30
0.0
 11
16.53306613226453
 21
19.37207748830997
 31
0.0
  0
LINE
  5
242
  8
BODY
 10
16.53306613226453
 20
19.37207748830997
 30
0.0
 11
18.20307281229125
 21
24.716098864395462
 31
0.0
  0
LINE
  5
243
  8
BODY
 10
18.20307281229125
 20
24.716098864395462
 30
0.0
 11
18.871075484301937
 21
32.89913159652639
 31
0.0
  0
LINE
  5
244
  8
BODY
 10
18.871075484301937
 20
32.89913159652639
 30
0.0
 11
18.37007348029392
 21
36.07214428857719
 31
0.0
  0
LINE
  5
245
  8
BODY
 10
18.37007348029392
 20
36.07214428857719
 30
0.0
 11
14.86305945223781
 21
44.08817635270543
 31
0.0
  0
LINE
  5
246
  8
BODY
 10
14.86305945223781
 20
44.08817635270543
 30
0.0
 11
14.02805611222445
 21
50.43420173680698
 31
0.0
  0
LINE
  5
247
  8
BODY
 10
14.02805611222445
 20
50.43420173680698
 30
0.0
 11
14.362057448229793
 21
53.9412157648631
 31
0.0
  0
LINE
  5
248
  8
BODY
 10
14.362057448229793
 20
53.9412157648631
 30
0.0
 11
17.702070808283235
 21
67.96927187708752
 31
0.0
  0
LINE
  5
249
  8
BODY
 10
17.702070808283235
 20
67.96927187708752
 30
0.0
 11
18.03607214428858
 21
73.4802939211757
 31
0.0
  0
LINE
  5
24A
  8
BODY
 10
18.03607214428858
 20
73.4802939211757
 30
0.0
 11
17.535070140280563
 21
77.48830995323982
 31
0.0
  0
LINE
  5
24B
  8
BODY
 10
17.535070140280563
 20
77.48830995323982
 30
0.0
 11
14.362057448229793
 21
86.1723446893788
 31
0.0
  0
LINE
  5
24C
  8
BODY
 10
14.362057448229793
 20
86.1723446893788
 30
0.0
 11
12.35804943219773
 21
94.68937875751504
 31
0.0
  0
LINE
  5
24D
  8
BODY
 10
12.35804943219773
 20
94.68937875751504
 30
0.0
 11
12.525050100200401
 21
100.5344021376086
 31
0.0
  0
LINE
  5
24E
  8
BODY
 10
12.525050100200401
 20
100.5344021376086
 30
0.0
 11
13.360053440213761
 21
103.87441549766203
 31
0.0
  0
LINE
  5
24F
  8
BODY
 10
13.360053440213761
 20
103.87441549766203
 30
0.0
 11
14.86305945223781
 21
107.38142952571815
 31
0.0
  0
LINE
  5
250
  8
BODY
 10
47.09418837675351
 20
108.8844355377422
 30
0.0
 11
47.26118904475618
 21
109.05143620574484
 31
0.0
  0
LINE
  5
251
  8
BODY
 10
47.26118904475618
 20
109.05143620574484
 30
0.0
 11
54.9432197728791
 21
108.71743486973952
 31
0.0
  0
LINE
  5
252
  8
BODY
 10
54.9432197728791
 20
108.71743486973952
 30
0.0
 11
55.94522378089513
 21
108.8844355377422
 31
0.0
  0
LINE
  5
253
  8
BODY
 10
55.94522378089513
 20
108.8844355377422
 30
0.0
 11
59.45223780895124
 21
108.55043420173683
 31
0.0
  0
LINE
  5
254
  8
BODY
 10
59.45223780895124
 20
108.55043420173683
 30
0.0
 11
61.12224448897796
 21
108.71743486973952
 31
0.0
  0
LINE
  5
255
  8
BODY
 10
61.12224448897796
 20
108.71743486973952
 30
0.0
 11
61.289245156980634
 21
108.55043420173683
 31
0.0
  0
LINE
  5
256
  8
BODY
 10
61.289245156980634
 20
108.55043420173683
 30
0.0
 11
70.64128256513027
 21
108.55043420173683
 31
0.0
  0
LINE
  5
257
  8
BODY
 10
70.64128256513027
 20
108.55043420173683
 30
0.0
 11
70.80828323313294
 21
108.38343353373415
 31
0.0
  0
LINE
  5
258
  8
BODY
 10
70.80828323313294
 20
108.38343353373415
 30
0.0
 11
71.6432865731463
 21
108.55043420173683
 31
0.0
  0
LINE
  5
259
  8
BODY
 10
71.6432865731463
 20
108.55043420173683
 30
0.0
 11
84.00133600534403
 21
108.38343353373415
 31
0.0
  0
LINE
  5
25A
  8
BODY
 10
84.00133600534403
 20
108.38343353373415
 30
0.0
 11
84.1683366733467
 21
108.21643286573152
 31
0.0
  0
LINE
  5
25B
  8
BODY
 10
84.1683366733467
 20
108.21643286573152
 30
0.0
 11
92.18436873747495
 21
108.21643286573152
 31
0.0
  0
LINE
  5
25C
  8
BODY
 10
92.18436873747495
 20
108.21643286573152
 30
0.0
 11
92.35136940547763
 21
108.04943219772883
 31
0.0
  0
LINE
  5
25D
  8
BODY
 10
92.35136940547763
 20
108.04943219772883
 30
0.0
 11
105.87842351369406
 21
108.04943219772883
 31
0.0
  0
LINE
  5
25E
  8
BODY
 10
105.87842351369406
 20
108.04943219772883
 30
0.0
 11
106.04542418169673
 21
107.88243152972615
 31
0.0
  0
LINE
  5
25F
  8
BODY
 10
106.04542418169673
 20
107.88243152972615
 30
0.0
 11
119.23847695390782
 21
107.88243152972615
 31
0.0
  0
LINE
  5
260
  8
BODY
 10
119.23847695390782
 20
107.88243152972615
 30
0.0
 11
119.40547762191049
 21
107.71543086172346
 31
0.0
  0
LINE
  5
261
  8
BODY
 10
119.40547762191049
 20
107.71543086172346
 30
0.0
 11
123.74749498997997
 21
107.71543086172346
 31
0.0
  0
LINE
  5
262
  8
BODY
 10
123.74749498997997
 20
107.71543086172346
 30
0.0
 11
123.91449565798264
 21
107.88243152972615
 31
0.0
  0
LINE
  5
263
  8
BODY
 10
123.91449565798264
 20
107.88243152972615
 30
0.0
 11
124.24849699398798
 21
107.38142952571815
 31
0.0
  0
LINE
  5
264
  8
BODY
 10
124.24849699398798
 20
107.38142952571815
 30
0.0
 11
124.24849699398798
 21
106.21242484969946
 31
0.0
  0
LINE
  5
265
  8
BODY
 10
124.24849699398798
 20
106.21242484969946
 30
0.0
 11
123.91449565798264
 21
105.87842351369409
 31
0.0
  0
LINE
  5
266
  8
BODY
 10
123.91449565798264
 20
105.87842351369409
 30
0.0
 11
123.41349365397463
 21
105.87842351369409
 31
0.0
  0
LINE
  5
267
  8
BODY
 10
123.41349365397463
 20
105.87842351369409
 30
0.0
 11
123.24649298597195
 21
106.04542418169677
 31
0.0
  0
LINE
  5
268
  8
BODY
 10
123.24649298597195
 20
106.04542418169677
 30
0.0
 11
110.22044088176354
 21
106.04542418169677
 31
0.0
  0
LINE
  5
269
  8
BODY
 10
110.22044088176354
 20
106.04542418169677
 30
0.0
 11
110.05344021376087
 21
106.21242484969946
 31
0.0
  0
LINE
  5
26A
  8
BODY
 10
110.05344021376087
 20
106.21242484969946
 30
0.0
 11
96.02538410153642
 21
106.21242484969946
 31
0.0
  0
LINE
  5
26B
  8
BODY
 10
96.02538410153642
 20
106.21242484969946
 30
0.0
 11
91.85036740146961
 21
106.54642618570477
 31
0.0
  0
LINE
  5
26C
  8
BODY
 10
91.85036740146961
 20
106.54642618570477
 30
0.0
 11
81.32932531730127
 21
106.54642618570477
 31
0.0
  0
LINE
  5
26D
  8
BODY
 10
81.32932531730127
 20
106.54642618570477
 30
0.0
 11
81.1623246492986
 21
106.71342685370746
 31
0.0
  0
LINE
  5
26E
  8
BODY
 10
81.1623246492986
 20
106.71342685370746
 30
0.0
 11
67.96927187708751
 21
106.71342685370746
 31
0.0
  0
LINE
  5
26F
  8
BODY
 10
67.96927187708751
 20
106.71342685370746
 30
0.0
 11
67.80227120908484
 21
106.88042752171015
 31
0.0
  0
LINE
  5
270
  8
BODY
 10
67.80227120908484
 20
106.88042752171015
 30
0.0
 11
66.13226452905812
 21
106.71342685370746
 31
0.0
  0
LINE
  5
271
  8
BODY
 10
66.13226452905812
 20
106.71342685370746
 30
0.0
 11
62.62525050100201
 21
107.04742818971278
 31
0.0
  0
LINE
  5
272
  8
BODY
 10
62.62525050100201
 20
107.04742818971278
 30
0.0
 11
61.79024716098865
 21
106.88042752171015
 31
0.0
  0
LINE
  5
273
  8
BODY
 10
61.79024716098865
 20
106.88042752171015
 30
0.0
 11
61.62324649298598
 21
107.04742818971278
 31
0.0
  0
LINE
  5
274
  8
BODY
 10
61.62324649298598
 20
107.04742818971278
 30
0.0
 11
52.93921175684703
 21
107.04742818971278
 31
0.0
  0
LINE
  5
275
  8
BODY
 10
52.93921175684703
 20
107.04742818971278
 30
0.0
 11
52.77221108884436
 21
107.21442885771546
 31
0.0
  0
LINE
  5
276
  8
BODY
 10
52.77221108884436
 20
107.21442885771546
 30
0.0
 11
47.59519038076152
 21
107.21442885771546
 31
0.0
  0
LINE
  5
277
  8
BODY
 10
47.59519038076152
 20
107.21442885771546
 30
0.0
 11
47.42818971275885
 21
107.04742818971278
 31
0.0
  0
LINE
  5
278
  8
BODY
 10
47.42818971275885
 20
107.04742818971278
 30
0.0
 11
47.09418837675351
 21
107.38142952571815
 31
0.0
  0
LINE
  5
279
  8
BODY
 10
47.09418837675351
 20
107.38142952571815
 30
0.0
 11
47.09418837675351
 21
108.8844355377422
 31
0.0
  0
LINE
  5
27A
  8
BODY
 10
15.030060120240481
 20
108.21643286573152
 30
0.0
 11
15.197060788243153
 21
108.38343353373415
 31
0.0
  0
LINE
  5
27B
  8
BODY
 10
15.197060788243153
 20
108.38343353373415
 30
0.0
 11
15.197060788243153
 21
108.55043420173683
 31
0.0
  0
LINE
  5
27C
  8
BODY
 10
15.197060788243153
 20
108.55043420173683
 30
0.0
 11
15.69806279225117
 21
109.05143620574484
 31
0.0
  0
LINE
  5
27D
  8
BODY
 10
15.69806279225117
 20
109.05143620574484
 30
0.0
 11
15.865063460253841
 21
109.05143620574484
 31
0.0
  0
LINE
  5
27E
  8
BODY
 10
15.865063460253841
 20
109.05143620574484
 30
0.0
 11
16.032064128256515
 21
109.21843687374752
 31
0.0
  0
LINE
  5
27F
  8
BODY
 10
16.032064128256515
 20
109.21843687374752
 30
0.0
 11
17.201068804275216
 21
109.21843687374752
 31
0.0
  0
LINE
  5
280
  8
BODY
 10
17.201068804275216
 20
109.21843687374752
 30
0.0
 11
17.36806947227789
 21
109.05143620574484
 31
0.0
  0
LINE
  5
281
  8
BODY
 10
17.36806947227789
 20
109.05143620574484
 30
0.0
 11
17.535070140280563
 21
109.05143620574484
 31
0.0
  0
LINE
  5
282
  8
BODY
 10
17.535070140280563
 20
109.05143620574484
 30
0.0
 11
17.702070808283235
 21
109.21843687374752
 31
0.0
  0
LINE
  5
283
  8
BODY
 10
17.702070808283235
 20
109.21843687374752
 30
0.0
 11
22.712090848363395
 21
109.21843687374752
 31
0.0
  0
LINE
  5
284
  8
BODY
 10
22.712090848363395
 20
109.21843687374752
 30
0.0
 11
22.879091516366067
 21
109.05143620574484
 31
0.0
  0
LINE
  5
285
  8
BODY
 10
22.879091516366067
 20
109.05143620574484
 30
0.0
 11
23.8810955243821
 21
109.05143620574484
 31
0.0
  0
LINE
  5
286
  8
BODY
 10
23.8810955243821
 20
109.05143620574484
 30
0.0
 11
24.048096192384772
 21
109.21843687374752
 31
0.0
  0
LINE
  5
287
  8
BODY
 10
24.048096192384772
 20
109.21843687374752
 30
0.0
 11
24.382097528390116
 21
109.21843687374752
 31
0.0
  0
LINE
  5
288
  8
BODY
 10
24.382097528390116
 20
109.21843687374752
 30
0.0
 11
24.549098196392787
 21
109.05143620574484
 31
0.0
  0
LINE
  5
289
  8
BODY
 10
24.549098196392787
 20
109.05143620574484
 30
0.0
 11
33.90113560454242
 21
109.05143620574484
 31
0.0
  0
LINE
  5
28A
  8
BODY
 10
33.90113560454242
 20
109.05143620574484
 30
0.0
 11
34.06813627254509
 21
108.8844355377422
 31
0.0
  0
LINE
  5
28B
  8
BODY
 10
34.06813627254509
 20
108.8844355377422
 30
0.0
 11
35.905143620574485
 21
108.8844355377422
 31
0.0
  0
LINE
  5
28C
  8
BODY
 10
35.905143620574485
 20
108.8844355377422
 30
0.0
 11
36.07214428857716
 21
109.05143620574484
 31
0.0
  0
LINE
  5
28D
  8
BODY
 10
36.07214428857716
 20
109.05143620574484
 30
0.0
 11
36.23914495657983
 21
108.8844355377422
 31
0.0
  0
LINE
  5
28E
  8
BODY
 10
36.23914495657983
 20
108.8844355377422
 30
0.0
 11
40.74816299265197
 21
108.8844355377422
 31
0.0
  0
LINE
  5
28F
  8
BODY
 10
40.74816299265197
 20
108.8844355377422
 30
0.0
 11
40.91516366065464
 21
108.71743486973952
 31
0.0
  0
LINE
  5
290
  8
BODY
 10
40.91516366065464
 20
108.71743486973952
 30
0.0
 11
40.91516366065464
 21
108.55043420173683
 31
0.0
  0
LINE
  5
291
  8
BODY
 10
40.91516366065464
 20
108.55043420173683
 30
0.0
 11
40.74816299265197
 21
108.38343353373415
 31
0.0
  0
LINE
  5
292
  8
BODY
 10
40.74816299265197
 20
108.38343353373415
 30
0.0
 11
40.74816299265197
 21
108.04943219772883
 31
0.0
  0
LINE
  5
293
  8
BODY
 10
40.74816299265197
 20
108.04943219772883
 30
0.0
 11
40.91516366065464
 21
107.88243152972615
 31
0.0
  0
LINE
  5
294
  8
BODY
 10
40.91516366065464
 20
107.88243152972615
 30
0.0
 11
40.5811623246493
 21
107.38142952571815
 31
0.0
  0
LINE
  5
295
  8
BODY
 10
40.5811623246493
 20
107.38142952571815
 30
0.0
 11
40.08016032064128
 21
107.38142952571815
 31
0.0
  0
LINE
  5
296
  8
BODY
 10
40.08016032064128
 20
107.38142952571815
 30
0.0
 11
39.91315965263861
 21
107.54843019372083
 31
0.0
  0
LINE
  5
297
  8
BODY
 10
39.91315965263861
 20
107.54843019372083
 30
0.0
 11
30.728122912491653
 21
107.54843019372083
 31
0.0
  0
LINE
  5
298
  8
BODY
 10
30.728122912491653
 20
107.54843019372083
 30
0.0
 11
30.56112224448898
 21
107.71543086172346
 31
0.0
  0
LINE
  5
299
  8
BODY
 10
30.56112224448898
 20
107.71543086172346
 30
0.0
 11
29.89311957247829
 21
107.71543086172346
 31
0.0
  0
LINE
  5
29A
  8
BODY
 10
29.89311957247829
 20
107.71543086172346
 30
0.0
 11
29.72611890447562
 21
107.54843019372083
 31
0.0
  0
LINE
  5
29B
  8
BODY
 10
29.72611890447562
 20
107.54843019372083
 30
0.0
 11
28.724114896459586
 21
107.54843019372083
 31
0.0
  0
LINE
  5
29C
  8
BODY
 10
28.724114896459586
 20
107.54843019372083
 30
0.0
 11
28.557114228456914
 21
107.71543086172346
 31
0.0
  0
LINE
  5
29D
  8
BODY
 10
28.557114228456914
 20
107.71543086172346
 30
0.0
 11
17.034068136272545
 21
107.71543086172346
 31
0.0
  0
LINE
  5
29E
  8
BODY
 10
17.034068136272545
 20
107.71543086172346
 30
0.0
 11
16.867067468269873
 21
107.88243152972615
 31
0.0
  0
LINE
  5
29F
  8
BODY
 10
16.867067468269873
 20
107.88243152972615
 30
0.0
 11
15.197060788243153
 21
107.88243152972615
 31
0.0
  0
LINE
  5
2A0
  8
BODY
 10
15.197060788243153
 20
107.88243152972615
 30
0.0
 11
15.030060120240481
 21
108.04943219772883
 31
0.0
  0
LINE
  5
2A1
  8
BODY
 10
15.030060120240481
 20
108.04943219772883
 30
0.0
 11
15.030060120240481
 21
108.21643286573152
 31
0.0
  0
LINE
  5
2A2
  8
BODY
 10
292.75217100868406
 20
105.37742150968609
 30
0.0
 11
293.0861723446894
 21
105.87842351369409
 31
0.0
  0
LINE
  5
2A3
  8
BODY
 10
293.0861723446894
 20
105.87842351369409
 30
0.0
 11
293.0861723446894
 21
107.54843019372083
 31
0.0
  0
LINE
  5
2A4
  8
BODY
 10
293.0861723446894
 20
107.54843019372083
 30
0.0
 11
293.25317301269206
 21
107.71543086172346
 31
0.0
  0
LINE
  5
2A5
  8
BODY
 10
293.25317301269206
 20
107.71543086172346
 30
0.0
 11
293.58717434869743
 21
107.54843019372083
 31
0.0
  0
LINE
  5
2A6
  8
BODY
 10
293.58717434869743
 20
107.54843019372083
 30
0.0
 11
293.58717434869743
 21
108.8844355377422
 31
0.0
  0
LINE
  5
2A7
  8
BODY
 10
293.58717434869743
 20
108.8844355377422
 30
0.0
 11
293.25317301269206
 21
109.21843687374752
 31
0.0
  0
LINE
  5
2A8
  8
BODY
 10
293.25317301269206
 20
109.21843687374752
 30
0.0
 11
293.25317301269206
 21
110.72144288577158
 31
0.0
  0
LINE
  5
2A9
  8
BODY
 10
293.25317301269206
 20
110.72144288577158
 30
0.0
 11
293.42017368069475
 21
110.88844355377427
 31
0.0
  0
LINE
  5
2AA
  8
BODY
 10
293.42017368069475
 20
110.88844355377427
 30
0.0
 11
294.7561790247161
 21
110.88844355377427
 31
0.0
  0
LINE
  5
2AB
  8
BODY
 10
294.7561790247161
 20
110.88844355377427
 30
0.0
 11
294.9231796927188
 21
110.72144288577158
 31
0.0
  0
LINE
  5
2AC
  8
BODY
 10
294.9231796927188
 20
110.72144288577158
 30
0.0
 11
295.2571810287241
 21
110.88844355377427
 31
0.0
  0
LINE
  5
2AD
  8
BODY
 10
295.2571810287241
 20
110.88844355377427
 30
0.0
 11
297.09418837675355
 21
110.88844355377427
 31
0.0
  0
LINE
  5
2AE
  8
BODY
 10
297.09418837675355
 20
110.88844355377427
 30
0.0
 11
297.2611890447562
 21
110.72144288577158
 31
0.0
  0
LINE
  5
2AF
  8
BODY
 10
297.2611890447562
 20
110.72144288577158
 30
0.0
 11
297.42818971275886
 21
110.88844355377427
 31
0.0
  0
LINE
  5
2B0
  8
BODY
 10
297.42818971275886
 20
110.88844355377427
 30
0.0
 11
298.26319305277224
 21
110.88844355377427
 31
0.0
  0
LINE
  5
2B1
  8
BODY
 10
298.26319305277224
 20
110.88844355377427
 30
0.0
 11
298.4301937207749
 21
110.72144288577158
 31
0.0
  0
LINE
  5
2B2
  8
BODY
 10
298.4301937207749
 20
110.72144288577158
 30
0.0
 11
301.436205744823
 21
110.72144288577158
 31
0.0
  0
LINE
  5
2B3
  8
BODY
 10
301.436205744823
 20
110.72144288577158
 30
0.0
 11
301.60320641282567
 21
110.5544422177689
 31
0.0
  0
LINE
  5
2B4
  8
BODY
 10
301.60320641282567
 20
110.5544422177689
 30
0.0
 11
314.2952571810287
 21
110.5544422177689
 31
0.0
  0
LINE
  5
2B5
  8
BODY
 10
314.2952571810287
 20
110.5544422177689
 30
0.0
 11
314.4622578490314
 21
110.38744154976621
 31
0.0
  0
LINE
  5
2B6
  8
BODY
 10
314.4622578490314
 20
110.38744154976621
 30
0.0
 11
322.812291249165
 21
110.38744154976621
 31
0.0
  0
LINE
  5
2B7
  8
BODY
 10
322.812291249165
 20
110.38744154976621
 30
0.0
 11
322.9792919171677
 21
110.22044088176358
 31
0.0
  0
LINE
  5
2B8
  8
BODY
 10
322.9792919171677
 20
110.22044088176358
 30
0.0
 11
325.3173012692051
 21
110.22044088176358
 31
0.0
  0
LINE
  5
2B9
  8
BODY
 10
325.3173012692051
 20
110.22044088176358
 30
0.0
 11
325.48430193720776
 21
110.0534402137609
 31
0.0
  0
LINE
  5
2BA
  8
BODY
 10
325.48430193720776
 20
110.0534402137609
 30
0.0
 11
325.48430193720776
 21
109.88643954575821
 31
0.0
  0
LINE
  5
2BB
  8
BODY
 10
325.48430193720776
 20
109.88643954575821
 30
0.0
 11
325.15030060120245
 21
109.71943887775552
 31
0.0
  0
LINE
  5
2BC
  8
BODY
 10
325.15030060120245
 20
109.71943887775552
 30
0.0
 11
323.9812959251837
 21
108.55043420173683
 31
0.0
  0
LINE
  5
2BD
  8
BODY
 10
323.9812959251837
 20
108.55043420173683
 30
0.0
 11
323.9812959251837
 21
108.38343353373415
 31
0.0
  0
LINE
  5
2BE
  8
BODY
 10
323.9812959251837
 20
108.38343353373415
 30
0.0
 11
323.4802939211757
 21
107.88243152972615
 31
0.0
  0
LINE
  5
2BF
  8
BODY
 10
323.4802939211757
 20
107.88243152972615
 30
0.0
 11
323.313293253173
 21
107.38142952571815
 31
0.0
  0
LINE
  5
2C0
  8
BODY
 10
323.313293253173
 20
107.38142952571815
 30
0.0
 11
321.97728790915164
 21
106.04542418169677
 31
0.0
  0
LINE
  5
2C1
  8
BODY
 10
321.97728790915164
 20
106.04542418169677
 30
0.0
 11
321.47628590514364
 21
105.04342017368072
 31
0.0
  0
LINE
  5
2C2
  8
BODY
 10
321.47628590514364
 20
105.04342017368072
 30
0.0
 11
320.97528390113564
 21
104.54241816967271
 31
0.0
  0
LINE
  5
2C3
  8
BODY
 10
320.97528390113564
 20
104.54241816967271
 30
0.0
 11
320.4742818971276
 21
104.54241816967271
 31
0.0
  0
LINE
  5
2C4
  8
BODY
 10
320.4742818971276
 20
104.54241816967271
 30
0.0
 11
320.30728122912495
 21
104.7094188376754
 31
0.0
  0
LINE
  5
2C5
  8
BODY
 10
320.30728122912495
 20
104.7094188376754
 30
0.0
 11
308.11623246492985
 21
104.7094188376754
 31
0.0
  0
LINE
  5
2C6
  8
BODY
 10
308.11623246492985
 20
104.7094188376754
 30
0.0
 11
307.9492317969272
 21
104.87641950567803
 31
0.0
  0
LINE
  5
2C7
  8
BODY
 10
307.9492317969272
 20
104.87641950567803
 30
0.0
 11
306.94722778891116
 21
104.87641950567803
 31
0.0
  0
LINE
  5
2C8
  8
BODY
 10
306.94722778891116
 20
104.87641950567803
 30
0.0
 11
306.61322645290585
 21
104.7094188376754
 31
0.0
  0
LINE
  5
2C9
  8
BODY
 10
306.61322645290585
 20
104.7094188376754
 30
0.0
 11
306.44622578490316
 21
104.87641950567803
 31
0.0
  0
LINE
  5
2CA
  8
BODY
 10
306.44622578490316
 20
104.87641950567803
 30
0.0
 11
304.4422177688711
 21
104.87641950567803
 31
0.0
  0
LINE
  5
2CB
  8
BODY
 10
304.4422177688711
 20
104.87641950567803
 30
0.0
 11
304.2752171008684
 21
105.04342017368072
 31
0.0
  0
LINE
  5
2CC
  8
BODY
 10
304.2752171008684
 20
105.04342017368072
 30
0.0
 11
303.2732130928524
 21
105.04342017368072
 31
0.0
  0
LINE
  5
2CD
  8
BODY
 10
303.2732130928524
 20
105.04342017368072
 30
0.0
 11
303.10621242484973
 21
104.87641950567803
 31
0.0
  0
LINE
  5
2CE
  8
BODY
 10
303.10621242484973
 20
104.87641950567803
 30
0.0
 11
302.60521042084173
 21
104.87641950567803
 31
0.0
  0
LINE
  5
2CF
  8
BODY
 10
302.60521042084173
 20
104.87641950567803
 30
0.0
 11
302.43820975283904
 21
105.04342017368072
 31
0.0
  0
LINE
  5
2D0
  8
BODY
 10
302.43820975283904
 20
105.04342017368072
 30
0.0
 11
294.58917835671343
 21
105.04342017368072
 31
0.0
  0
LINE
  5
2D1
  8
BODY
 10
294.58917835671343
 20
105.04342017368072
 30
0.0
 11
294.42217768871075
 21
105.2104208416834
 31
0.0
  0
LINE
  5
2D2
  8
BODY
 10
294.42217768871075
 20
105.2104208416834
 30
0.0
 11
293.75417501670006
 21
105.2104208416834
 31
0.0
  0
LINE
  5
2D3
  8
BODY
 10
293.75417501670006
 20
105.2104208416834
 30
0.0
 11
293.58717434869743
 21
105.04342017368072
 31
0.0
  0
LINE
  5
2D4
  8
BODY
 10
293.58717434869743
 20
105.04342017368072
 30
0.0
 11
293.25317301269206
 21
105.04342017368072
 31
0.0
  0
LINE
  5
2D5
  8
BODY
 10
293.25317301269206
 20
105.04342017368072
 30
0.0
 11
292.75217100868406
 21
105.37742150968609
 31
0.0
  0
LINE
  5
2D6
  8
BODY
 10
124.41549766199066
 20
111.89044756179027
 30
0.0
 11
124.58249832999333
 21
113.39345357381433
 31
0.0
  0
LINE
  5
2D7
  8
BODY
 10
124.58249832999333
 20
113.39345357381433
 30
0.0
 11
292.4181696726787
 21
111.0554442217769
 31
0.0
  0
LINE
  5
2D8
  8
BODY
 10
292.4181696726787
 20
111.0554442217769
 30
0.0
 11
292.75217100868406
 21
110.5544422177689
 31
0.0
  0
LINE
  5
2D9
  8
BODY
 10
292.75217100868406
 20
110.5544422177689
 30
0.0
 11
291.9171676686707
 21
107.54843019372083
 31
0.0
  0
LINE
  5
2DA
  8
BODY
 10
291.9171676686707
 20
107.54843019372083
 30
0.0
 11
292.75217100868406
 21
108.8844355377422
 31
0.0
  0
LINE
  5
2DB
  8
BODY
 10
292.75217100868406
 20
108.8844355377422
 30
0.0
 11
292.4181696726787
 21
105.04342017368072
 31
0.0
  0
LINE
  5
2DC
  8
BODY
 10
292.4181696726787
 20
105.04342017368072
 30
0.0
 11
245.49098196392788
 21
106.04542418169677
 31
0.0
  0
LINE
  5
2DD
  8
BODY
 10
245.49098196392788
 20
106.04542418169677
 30
0.0
 11
245.3239812959252
 21
107.54843019372083
 31
0.0
  0
LINE
  5
2DE
  8
BODY
 10
245.3239812959252
 20
107.54843019372083
 30
0.0
 11
244.8229792919172
 21
107.38142952571815
 31
0.0
  0
LINE
  5
2DF
  8
BODY
 10
244.8229792919172
 20
107.38142952571815
 30
0.0
 11
244.8229792919172
 21
106.04542418169677
 31
0.0
  0
LINE
  5
2E0
  8
BODY
 10
244.8229792919172
 20
106.04542418169677
 30
0.0
 11
131.09552438209752
 21
107.71543086172346
 31
0.0
  0
LINE
  5
2E1
  8
BODY
 10
131.09552438209752
 20
107.71543086172346
 30
0.0
 11
124.58249832999333
 21
107.88243152972615
 31
0.0
  0
LINE
  5
2E2
  8
BODY
 10
124.58249832999333
 20
107.88243152972615
 30
0.0
 11
124.41549766199066
 21
111.89044756179027
 31
0.0
  0
LINE
  5
2E3
  8
BODY
 10
326.82030728122913
 20
110.5544422177689
 30
0.0
 11
293.0861723446894
 21
111.55644622578495
 31
0.0
  0
LINE
  5
2E4
  8
BODY
 10
293.0861723446894
 20
111.55644622578495
 30
0.0
 11
293.0861723446894
 21
114.06145624582501
 31
0.0
  0
LINE
  5
2E5
  8
BODY
 10
293.0861723446894
 20
114.06145624582501
 30
0.0
 11
292.75217100868406
 21
111.22244488977958
 31
0.0
  0
LINE
  5
2E6
  8
BODY
 10
292.75217100868406
 20
111.22244488977958
 30
0.0
 11
124.08149632598531
 21
113.7274549098197
 31
0.0
  0
LINE
  5
2E7
  8
BODY
 10
124.08149632598531
 20
113.7274549098197
 30
0.0
 11
123.91449565798264
 21
107.88243152972615
 31
0.0
  0
LINE
  5
2E8
  8
BODY
 10
123.91449565798264
 20
107.88243152972615
 30
0.0
 11
47.26118904475618
 21
109.21843687374752
 31
0.0
  0
LINE
  5
2E9
  8
BODY
 10
47.26118904475618
 20
109.21843687374752
 30
0.0
 11
46.927187708750836
 21
110.5544422177689
 31
0.0
  0
LINE
  5
2EA
  8
BODY
 10
46.927187708750836
 20
110.5544422177689
 30
0.0
 11
46.59318637274549
 21
109.21843687374752
 31
0.0
  0
LINE
  5
2EB
  8
BODY
 10
46.59318637274549
 20
109.21843687374752
 30
0.0
 11
16.53306613226453
 21
109.71943887775552
 31
0.0
  0
LINE
  5
2EC
  8
BODY
 10
16.53306613226453
 20
109.71943887775552
 30
0.0
 11
16.199064796259186
 21
110.88844355377427
 31
0.0
  0
LINE
  5
2ED
  8
BODY
 10
16.199064796259186
 20
110.88844355377427
 30
0.0
 11
12.024048096192386
 21
99.36539746158991
 31
0.0
  0
LINE
  5
2EE
  8
BODY
 10
12.024048096192386
 20
99.36539746158991
 30
0.0
 11
12.35804943219773
 21
92.18436873747498
 31
0.0
  0
LINE
  5
2EF
  8
BODY
 10
12.35804943219773
 20
92.18436873747498
 30
0.0
 11
17.702070808283235
 21
74.31529726118907
 31
0.0
  0
LINE
  5
2F0
  8
BODY
 10
17.702070808283235
 20
74.31529726118907
 30
0.0
 11
13.694054776219106
 21
51.10220440881767
 31
0.0
  0
LINE
  5
2F1
  8
BODY
 10
13.694054776219106
 20
51.10220440881767
 30
0.0
 11
14.362057448229793
 21
44.58917835671343
 31
0.0
  0
LINE
  5
2F2
  8
BODY
 10
14.362057448229793
 20
44.58917835671343
 30
0.0
 11
18.537074148296593
 21
32.39812959251839
 31
0.0
  0
LINE
  5
2F3
  8
BODY
 10
18.537074148296593
 20
32.39812959251839
 30
0.0
 11
15.865063460253841
 21
17.034068136272595
 31
0.0
  0
LINE
  5
2F4
  8
BODY
 10
15.865063460253841
 20
17.034068136272595
 30
0.0
 11
44.923179692718776
 21
17.70207080828328
 31
0.0
  0
LINE
  5
2F5
  8
BODY
 10
44.923179692718776
 20
17.70207080828328
 30
0.0
 11
45.25718102872412
 21
12.692050768203103
 31
0.0
  0
LINE
  5
2F6
  8
BODY
 10
45.25718102872412
 20
12.692050768203103
 30
0.0
 11
45.59118236472946
 21
17.70207080828328
 31
0.0
  0
LINE
  5
2F7
  8
BODY
 10
45.59118236472946
 20
17.70207080828328
 30
0.0
 11
156.47962591850367
 21
17.86907147628591
 31
0.0
  0
LINE
  5
2F8
  8
BODY
 10
156.47962591850367
 20
17.86907147628591
 30
0.0
 11
156.81362725450902
 21
11.85704742818973
 31
0.0
  0
LINE
  5
2F9
  8
BODY
 10
156.81362725450902
 20
11.85704742818973
 30
0.0
 11
157.31462925851704
 21
17.86907147628591
 31
0.0
  0
LINE
  5
2FA
  8
BODY
 10
157.31462925851704
 20
17.86907147628591
 30
0.0
 11
243.15297261189045
 21
17.86907147628591
 31
0.0
  0
LINE
  5
2FB
  8
BODY
 10
243.15297261189045
 20
17.86907147628591
 30
0.0
 11
243.31997327989313
 21
15.86506346025385
 31
0.0
  0
LINE
  5
2FC
  8
BODY
 10
243.31997327989313
 20
15.86506346025385
 30
0.0
 11
243.98797595190382
 21
18.036072144288596
 31
0.0
  0
LINE
  5
2FD
  8
BODY
 10
243.98797595190382
 20
18.036072144288596
 30
0.0
 11
263.1930527722111
 21
17.70207080828328
 31
0.0
  0
LINE
  5
2FE
  8
BODY
 10
263.1930527722111
 20
17.70207080828328
 30
0.0
 11
257.51503006012024
 21
34.40213760855045
 31
0.0
  0
LINE
  5
2FF
  8
BODY
 10
257.51503006012024
 20
34.40213760855045
 30
0.0
 11
254.67601870407483
 21
48.931195724782924
 31
0.0
  0
LINE
  5
300
  8
BODY
 10
254.67601870407483
 20
48.931195724782924
 30
0.0
 11
256.0120240480962
 21
61.62324649298603
 31
0.0
  0
LINE
  5
301
  8
BODY
 10
256.0120240480962
 20
61.62324649298603
 30
0.0
 11
261.02204408817636
 21
72.14428857715433
 31
0.0
  0
LINE
  5
302
  8
BODY
 10
261.02204408817636
 20
72.14428857715433
 30
0.0
 11
269.0380761523046
 21
79.99331997327994
 31
0.0
  0
LINE
  5
303
  8
BODY
 10
269.0380761523046
 20
79.99331997327994
 30
0.0
 11
282.3981295925184
 21
85.00334001336006
 31
0.0
  0
LINE
  5
304
  8
BODY
 10
282.3981295925184
 20
85.00334001336006
 30
0.0
 11
292.0841683366734
 21
86.00534402137612
 31
0.0
  0
LINE
  5
305
  8
BODY
 10
292.0841683366734
 20
86.00534402137612
 30
0.0
 11
292.25116900467606
 21
83.50033400133606
 31
0.0
  0
LINE
  5
306
  8
BODY
 10
292.25116900467606
 20
83.50033400133606
 30
0.0
 11
292.75217100868406
 21
86.1723446893788
 31
0.0
  0
LINE
  5
307
  8
BODY
 10
292.75217100868406
 20
86.1723446893788
 30
0.0
 11
320.30728122912495
 21
85.50434201736812
 31
0.0
  0
LINE
  5
308
  8
BODY
 10
320.30728122912495
 20
85.50434201736812
 30
0.0
 11
320.80828323313295
 21
91.5163660654643
 31
0.0
  0
LINE
  5
309
  8
BODY
 10
320.80828323313295
 20
91.5163660654643
 30
0.0
 11
323.1462925851704
 21
96.35938543754179
 31
0.0
  0
LINE
  5
30A
  8
BODY
 10
323.1462925851704
 20
96.35938543754179
 30
0.0
 11
321.14228456913827
 21
103.37341349365403
 31
0.0
  0
LINE
  5
30B
  8
BODY
 10
321.14228456913827
 20
103.37341349365403
 30
0.0
 11
326.82030728122913
 21
110.5544422177689
 31
0.0
  0
ENDSEC
  0
EOF
