  0
SECTION
  2
HEADER
  9
$ACADVER
  1
AC1009
  9
$DWGCODEPAGE
  3
ANSI_1252
  9
$INSBASE
 10
0.0
 20
0.0
 30
0.0
  9
$EXTMIN
 10
1e+20
 20
1e+20
 30
1e+20
  9
$EXTMAX
 10
-1e+20
 20
-1e+20
 30
-1e+20
  9
$LIMMIN
 10
0.0
 20
0.0
  9
$LIMMAX
 10
420.0
 20
297.0
  9
$ORTHOMODE
 70
0
  9
$REGENMODE
 70
1
  9
$FILLMODE
 70
1
  9
$DRAGMODE
 70
2
  9
$QTEXTMODE
 70
0
  9
$MIRRTEXT
 70
1
  9
$OSMODE
 70
20583
  9
$LTSCALE
 40
1.0
  9
$ATTMODE
 70
1
  9
$TEXTSIZE
 40
2.5
  9
$TRACEWID
 40
1.0
  9
$TEXTSTYLE
  7
Standard
  9
$CLAYER
  8
0
  9
$CELTYPE
  6
ByLayer
  9
$CECOLOR
 62
256
  9
$DIMSCALE
 40
1.0
  9
$DIMASZ
 40
2.5
  9
$DIMEXO
 40
0.625
  9
$DIMDLI
 40
3.75
  9
$DIMRND
 40
0.0
  9
$DIMDLE
 40
0.0
  9
$DIMEXE
 40
1.25
  9
$DIMTP
 40
0.0
  9
$DIMTM
 40
0.0
  9
$DIMTXT
 40
2.5
  9
$DIMCEN
 40
2.5
  9
$DIMTSZ
 40
0.0
  9
$DIMTOL
 70
0
  9
$DIMLIM
 70
0
  9
$DIMTIH
 70
0
  9
$DIMTOH
 70
0
  9
$DIMSE1
 70
0
  9
$DIMSE2
 70
0
  9
$DIMTAD
 70
1
  9
$DIMZIN
 70
8
  9
$DIMBLK
  1

  9
$DIMASO
 70
1
  9
$DIMSHO
 70
1
  9
$DIMPOST
  1

  9
$DIMAPOST
  1

  9
$DIMALT
 70
0
  9
$DIMALTD
 70
3
  9
$DIMALTF
 40
0.03937007874
  9
$DIMLFAC
 40
1.0
  9
$DIMTOFL
 70
1
  9
$DIMTVP
 40
0.0
  9
$DIMTIX
 70
0
  9
$DIMSOXD
 70
0
  9
$DIMSAH
 70
0
  9
$DIMBLK1
  1

  9
$DIMBLK2
  1

  9
$DIMSTYLE
  2
ISO-25
  9
$DIMCLRD
 70
0
  9
$DIMCLRE
 70
0
  9
$DIMCLRT
 70
0
  9
$DIMTFAC
 40
1.0
  9
$DIMGAP
 40
0.625
  9
$COORDS
 70
1
  9
$ATTDIA
 70
0
  9
$ATTREQ
 70
1
  9
$HANDLING
 70
1
  9
$LUNITS
 70
2
  9
$LUPREC
 70
4
  9
$SKETCHINC
 40
1.0
  9
$FILLETRAD
 40
10.0
  9
$AUNITS
 70
0
  9
$AUPREC
 70
2
  9
$MENU
  1
.
  9
$ELEVATION
 40
0.0
  9
$PELEVATION
 40
0.0
  9
$THICKNESS
 40
0.0
  9
$LIMCHECK
 70
0
  9
$CHAMFERA
 40
0.0
  9
$CHAMFERB
 40
0.0
  9
$SKPOLY
 70
0
  9
$TDCREATE
 40
2461104.900717593
  9
$TDUPDATE
 40
2461104.900729167
  9
$TDINDWG
 40
0.0
  9
$TDUSRTIMER
 40
0.0
  9
$USRTIMER
 70
1
  9
$ANGBASE
 50
0.0
  9
$ANGDIR
 70
0
  9
$PDMODE
 70
0
  9
$PDSIZE
 40
0.0
  9
$PLINEWID
 40
0.0
  9
$SPLFRAME
 70
0
  9
$SPLINETYPE
 70
6
  9
$SPLINESEGS
 70
8
  9
$HANDSEED
  5
352
  9
$SURFTAB1
 70
6
  9
$SURFTAB2
 70
6
  9
$SURFTYPE
 70
6
  9
$SURFU
 70
6
  9
$SURFV
 70
6
  9
$UCSNAME
  2

  9
$UCSORG
 10
0.0
 20
0.0
 30
0.0
  9
$UCSXDIR
 10
1.0
 20
0.0
 30
0.0
  9
$UCSYDIR
 10
0.0
 20
1.0
 30
0.0
  9
$PUCSNAME
  2

  9
$PUCSORG
 10
0.0
 20
0.0
 30
0.0
  9
$PUCSXDIR
 10
1.0
 20
0.0
 30
0.0
  9
$PUCSYDIR
 10
0.0
 20
1.0
 30
0.0
  9
$USERI1
 70
0
  9
$USERI2
 70
0
  9
$USERI3
 70
0
  9
$USERI4
 70
0
  9
$USERI5
 70
0
  9
$USERR1
 40
0.0
  9
$USERR2
 40
0.0
  9
$USERR3
 40
0.0
  9
$USERR4
 40
0.0
  9
$USERR5
 40
0.0
  9
$WORLDVIEW
 70
1
  9
$SHADEDGE
 70
3
  9
$SHADEDIF
 70
70
  9
$TILEMODE
 70
1
  9
$MAXACTVP
 70
64
  9
$PLIMCHECK
 70
0
  9
$PEXTMIN
 10
1e+20
 20
1e+20
 30
1e+20
  9
$PEXTMAX
 10
-1e+20
 20
-1e+20
 30
-1e+20
  9
$PLIMMIN
 10
0.0
 20
0.0
  9
$PLIMMAX
 10
420.0
 20
297.0
  9
$UNITMODE
 70
0
  9
$VISRETAIN
 70
1
  9
$PLINEGEN
 70
0
  9
$PSLTSCALE
 70
1
  0
ENDSEC
  0
SECTION
  2
TABLES
  0
TABLE
  2
VPORT
 70
1
  0
VPORT
  5
23
  2
*Active
 70
0
 10
0.0
 20
0.0
 11
1.0
 21
1.0
 12
0.0
 22
0.0
 13
0.0
 23
0.0
 14
0.5
 24
0.5
 15
0.5
 25
0.5
 16
0.0
 26
0.0
 36
1.0
 17
0.0
 27
0.0
 37
0.0
 40
1000.0
 41
1.34
 42
50.0
 43
0.0
 44
0.0
 50
0.0
 51
0.0
 71
0
 72
1000
 73
1
 74
3
 75
0
 76
0
 77
0
 78
0
  0
ENDTAB
  0
TABLE
  2
LTYPE
 70
3
  0
LTYPE
  5
24
  2
ByBlock
 70
0
  3

 72
65
 73
0
 40
0.0
  0
LTYPE
  5
25
  2
ByLayer
 70
0
  3

 72
65
 73
0
 40
0.0
  0
LTYPE
  5
26
  2
Continuous
 70
0
  3

 72
65
 73
0
 40
0.0
  0
ENDTAB
  0
TABLE
  2
LAYER
 70
2
  0
LAYER
  5
27
  2
0
 70
0
 62
7
  6
Continuous
  0
LAYER
  5
28
  2
Defpoints
 70
0
 62
7
  6
Continuous
  0
ENDTAB
  0
TABLE
  2
STYLE
 70
1
  0
STYLE
  5
29
  2
Standard
 70
0
 40
0.0
 41
1.0
 50
0.0
 71
0
 42
2.5
  3
txt
  4

  0
ENDTAB
  0
TABLE
  2
VIEW
 70
0
  0
ENDTAB
  0
TABLE
  2
UCS
 70
0
  0
ENDTAB
  0
TABLE
  2
APPID
 70
3
  0
APPID
  5
2A
  2
ACAD
 70
0
  0
APPID
  5
350
  2
HATCHBACKGROUNDCOLOR
 70
0
  0
APPID
  5
351
  2
EZDXF
 70
0
  0
ENDTAB
  0
TABLE
  2
DIMSTYLE
 70
1
  0
DIMSTYLE
105
2B
  2
Standard
 70
0
  3

  4

  5

  6

  7

 40
1.0
 41
2.5
 42
0.625
 43
3.75
 44
1.25
 45
0.0
 46
0.0
 47
0.0
 48
0.0
140
2.5
141
2.5
142
0.0
143
0.03937007874
144
1.0
145
0.0
146
1.0
147
0.625
 71
0
 72
0
 73
0
 74
0
 75
0
 76
0
 77
1
 78
8
170
0
171
3
172
1
173
0
174
0
175
0
176
0
177
0
178
0
  0
ENDTAB
  0
ENDSEC
  0
SECTION
  2
BLOCKS
  0
BLOCK
  5
18
  8
0
  2
$Model_Space
 70
0
 10
0.0
 20
0.0
 30
0.0
  3
$Model_Space
  1

1001
EZDXF
1000
CREATED_BY_EZDXF
1000
1.4.3 @ 2026-03-05T03:37:02.931565+00:00
1000
WRITTEN_BY_EZDXF
1000
1.4.3 @ 2026-03-05T03:37:03.465492+00:00
  0
ENDBLK
  5
19
  8
0
  0
BLOCK
  5
1C
  8
0
  2
$Paper_Space
 70
0
 10
0.0
 20
0.0
 30
0.0
  3
$Paper_Space
  1

  0
ENDBLK
  5
1D
  8
0
  0
ENDSEC
  0
SECTION
  2
ENTITIES
  0
LINE
  5
2D
  8
PICKGUARD
 10
13.779500007629395
 20
273.36749267578125
 30
0.0
 11
13.715999603271484
 21
6.2230000495910645
 31
0.0
  0
LINE
  5
2E
  8
PICKGUARD
 10
13.715999603271484
 20
6.2230000495910645
 30
0.0
 11
202.0570068359375
 21
6.1595001220703125
 31
0.0
  0
LINE
  5
2F
  8
PICKGUARD
 10
202.0570068359375
 20
6.1595001220703125
 30
0.0
 11
202.0570068359375
 21
273.3039855957031
 31
0.0
  0
LINE
  5
30
  8
PICKGUARD
 10
202.0570068359375
 20
273.3039855957031
 30
0.0
 11
13.779500007629395
 21
273.36749267578125
 31
0.0
  0
LINE
  5
31
  8
PICKGUARD
 10
13.970000267028809
 20
273.177001953125
 30
0.0
 11
201.8665008544922
 21
273.1134948730469
 31
0.0
  0
LINE
  5
32
  8
PICKGUARD
 10
201.8665008544922
 20
273.1134948730469
 30
0.0
 11
201.80299377441406
 21
6.349999904632568
 31
0.0
  0
LINE
  5
33
  8
PICKGUARD
 10
201.80299377441406
 20
6.349999904632568
 30
0.0
 11
13.906499862670898
 21
6.41349983215332
 31
0.0
  0
LINE
  5
34
  8
PICKGUARD
 10
13.906499862670898
 20
6.41349983215332
 30
0.0
 11
13.970000267028809
 21
273.177001953125
 31
0.0
  0
LINE
  5
35
  8
SMALL_FEATURE
 10
181.54649353027344
 20
39.43349838256836
 30
0.0
 11
188.34100341796875
 21
39.49700164794922
 31
0.0
  0
LINE
  5
36
  8
SMALL_FEATURE
 10
188.34100341796875
 20
39.49700164794922
 30
0.0
 11
188.531494140625
 21
38.98899841308594
 31
0.0
  0
LINE
  5
37
  8
SMALL_FEATURE
 10
188.531494140625
 20
38.98899841308594
 30
0.0
 11
188.59500122070312
 21
39.49700164794922
 31
0.0
  0
LINE
  5
38
  8
SMALL_FEATURE
 10
188.59500122070312
 20
39.49700164794922
 30
0.0
 11
198.7550048828125
 21
39.49700164794922
 31
0.0
  0
LINE
  5
39
  8
SMALL_FEATURE
 10
198.7550048828125
 20
39.49700164794922
 30
0.0
 11
198.81849670410156
 21
32.3849983215332
 31
0.0
  0
LINE
  5
3A
  8
SMALL_FEATURE
 10
198.81849670410156
 20
32.3849983215332
 30
0.0
 11
198.05650329589844
 21
32.32149887084961
 31
0.0
  0
LINE
  5
3B
  8
SMALL_FEATURE
 10
198.05650329589844
 20
32.32149887084961
 30
0.0
 11
197.35800170898438
 21
31.62299919128418
 31
0.0
  0
LINE
  5
3C
  8
SMALL_FEATURE
 10
197.35800170898438
 20
31.62299919128418
 30
0.0
 11
196.3419952392578
 21
29.273500442504883
 31
0.0
  0
LINE
  5
3D
  8
SMALL_FEATURE
 10
196.3419952392578
 20
29.273500442504883
 30
0.0
 11
195.83399963378906
 21
26.60650062561035
 31
0.0
  0
LINE
  5
3E
  8
SMALL_FEATURE
 10
195.83399963378906
 20
26.60650062561035
 30
0.0
 11
196.15150451660156
 21
26.60650062561035
 31
0.0
  0
LINE
  5
3F
  8
SMALL_FEATURE
 10
196.15150451660156
 20
26.60650062561035
 30
0.0
 11
196.27850341796875
 21
28.575000762939453
 31
0.0
  0
LINE
  5
40
  8
SMALL_FEATURE
 10
196.27850341796875
 20
28.575000762939453
 30
0.0
 11
197.29449462890625
 21
31.114999771118164
 31
0.0
  0
LINE
  5
41
  8
SMALL_FEATURE
 10
197.29449462890625
 20
31.114999771118164
 30
0.0
 11
197.86599731445312
 21
32.00400161743164
 31
0.0
  0
LINE
  5
42
  8
SMALL_FEATURE
 10
197.86599731445312
 20
32.00400161743164
 30
0.0
 11
198.7550048828125
 21
32.00400161743164
 31
0.0
  0
LINE
  5
43
  8
SMALL_FEATURE
 10
198.7550048828125
 20
32.00400161743164
 30
0.0
 11
198.81849670410156
 21
24.574499130249023
 31
0.0
  0
LINE
  5
44
  8
SMALL_FEATURE
 10
198.81849670410156
 20
24.574499130249023
 30
0.0
 11
194.50050354003906
 21
24.51099967956543
 31
0.0
  0
LINE
  5
45
  8
SMALL_FEATURE
 10
194.50050354003906
 20
24.51099967956543
 30
0.0
 11
194.43699645996094
 21
24.828500747680664
 31
0.0
  0
LINE
  5
46
  8
SMALL_FEATURE
 10
194.43699645996094
 20
24.828500747680664
 30
0.0
 11
194.2465057373047
 21
24.574499130249023
 31
0.0
  0
LINE
  5
47
  8
SMALL_FEATURE
 10
194.2465057373047
 20
24.574499130249023
 30
0.0
 11
193.29400634765625
 21
24.828500747680664
 31
0.0
  0
LINE
  5
48
  8
SMALL_FEATURE
 10
193.29400634765625
 20
24.828500747680664
 30
0.0
 11
193.10350036621094
 21
24.51099967956543
 31
0.0
  0
LINE
  5
49
  8
SMALL_FEATURE
 10
193.10350036621094
 20
24.51099967956543
 30
0.0
 11
190.3094940185547
 21
24.51099967956543
 31
0.0
  0
LINE
  5
4A
  8
SMALL_FEATURE
 10
190.3094940185547
 20
24.51099967956543
 30
0.0
 11
190.24600219726562
 21
24.828500747680664
 31
0.0
  0
LINE
  5
4B
  8
SMALL_FEATURE
 10
190.24600219726562
 20
24.828500747680664
 30
0.0
 11
189.61099243164062
 21
25.018999099731445
 31
0.0
  0
LINE
  5
4C
  8
SMALL_FEATURE
 10
189.61099243164062
 20
25.018999099731445
 30
0.0
 11
189.54750061035156
 21
24.574499130249023
 31
0.0
  0
LINE
  5
4D
  8
SMALL_FEATURE
 10
189.54750061035156
 20
24.574499130249023
 30
0.0
 11
181.67349243164062
 21
24.51099967956543
 31
0.0
  0
LINE
  5
4E
  8
SMALL_FEATURE
 10
181.67349243164062
 20
24.51099967956543
 30
0.0
 11
181.54649353027344
 21
25.844499588012695
 31
0.0
  0
LINE
  5
4F
  8
SMALL_FEATURE
 10
181.54649353027344
 20
25.844499588012695
 30
0.0
 11
182.1179962158203
 21
25.908000946044922
 31
0.0
  0
LINE
  5
50
  8
SMALL_FEATURE
 10
182.1179962158203
 20
25.908000946044922
 30
0.0
 11
182.6894989013672
 21
26.60650062561035
 31
0.0
  0
LINE
  5
51
  8
SMALL_FEATURE
 10
182.6894989013672
 20
26.60650062561035
 30
0.0
 11
183.51499938964844
 21
26.542999267578125
 31
0.0
  0
LINE
  5
52
  8
SMALL_FEATURE
 10
183.51499938964844
 20
26.542999267578125
 30
0.0
 11
183.51499938964844
 21
25.717500686645508
 31
0.0
  0
LINE
  5
53
  8
SMALL_FEATURE
 10
183.51499938964844
 20
25.717500686645508
 30
0.0
 11
183.70550537109375
 21
26.225500106811523
 31
0.0
  0
LINE
  5
54
  8
SMALL_FEATURE
 10
183.70550537109375
 20
26.225500106811523
 30
0.0
 11
184.46749877929688
 21
26.225500106811523
 31
0.0
  0
LINE
  5
55
  8
SMALL_FEATURE
 10
184.46749877929688
 20
26.225500106811523
 30
0.0
 11
186.1820068359375
 21
29.972000122070312
 31
0.0
  0
LINE
  5
56
  8
SMALL_FEATURE
 10
186.1820068359375
 20
29.972000122070312
 30
0.0
 11
186.7534942626953
 21
31.686500549316406
 31
0.0
  0
LINE
  5
57
  8
SMALL_FEATURE
 10
186.7534942626953
 20
31.686500549316406
 30
0.0
 11
187.3249969482422
 21
31.686500549316406
 31
0.0
  0
LINE
  5
58
  8
SMALL_FEATURE
 10
187.3249969482422
 20
31.686500549316406
 30
0.0
 11
187.5155029296875
 21
32.638999938964844
 31
0.0
  0
LINE
  5
59
  8
SMALL_FEATURE
 10
187.5155029296875
 20
32.638999938964844
 30
0.0
 11
189.86500549316406
 21
32.57550048828125
 31
0.0
  0
LINE
  5
5A
  8
SMALL_FEATURE
 10
189.86500549316406
 20
32.57550048828125
 30
0.0
 11
189.86500549316406
 21
32.829498291015625
 31
0.0
  0
LINE
  5
5B
  8
SMALL_FEATURE
 10
189.86500549316406
 20
32.829498291015625
 30
0.0
 11
188.59500122070312
 21
32.829498291015625
 31
0.0
  0
LINE
  5
5C
  8
SMALL_FEATURE
 10
188.59500122070312
 20
32.829498291015625
 30
0.0
 11
188.02349853515625
 21
33.21049880981445
 31
0.0
  0
LINE
  5
5D
  8
SMALL_FEATURE
 10
188.02349853515625
 20
33.21049880981445
 30
0.0
 11
188.02349853515625
 21
33.654998779296875
 31
0.0
  0
LINE
  5
5E
  8
SMALL_FEATURE
 10
188.02349853515625
 20
33.654998779296875
 30
0.0
 11
187.3885040283203
 21
33.654998779296875
 31
0.0
  0
LINE
  5
5F
  8
SMALL_FEATURE
 10
187.3885040283203
 20
33.654998779296875
 30
0.0
 11
187.3885040283203
 21
34.67100143432617
 31
0.0
  0
LINE
  5
60
  8
SMALL_FEATURE
 10
187.3885040283203
 20
34.67100143432617
 30
0.0
 11
186.3090057373047
 21
33.337501525878906
 31
0.0
  0
LINE
  5
61
  8
SMALL_FEATURE
 10
186.3090057373047
 20
33.337501525878906
 30
0.0
 11
183.83250427246094
 21
31.813499450683594
 31
0.0
  0
LINE
  5
62
  8
SMALL_FEATURE
 10
183.83250427246094
 20
31.813499450683594
 30
0.0
 11
183.0070037841797
 21
30.60700035095215
 31
0.0
  0
LINE
  5
63
  8
SMALL_FEATURE
 10
183.0070037841797
 20
30.60700035095215
 30
0.0
 11
183.13400268554688
 21
29.844999313354492
 31
0.0
  0
LINE
  5
64
  8
SMALL_FEATURE
 10
183.13400268554688
 20
29.844999313354492
 30
0.0
 11
183.26100158691406
 21
30.797500610351562
 31
0.0
  0
LINE
  5
65
  8
SMALL_FEATURE
 10
183.26100158691406
 20
30.797500610351562
 30
0.0
 11
183.83250427246094
 21
31.496000289916992
 31
0.0
  0
LINE
  5
66
  8
SMALL_FEATURE
 10
183.83250427246094
 20
31.496000289916992
 30
0.0
 11
185.03900146484375
 21
32.19449996948242
 31
0.0
  0
LINE
  5
67
  8
SMALL_FEATURE
 10
185.03900146484375
 20
32.19449996948242
 30
0.0
 11
185.9915008544922
 21
32.19449996948242
 31
0.0
  0
LINE
  5
68
  8
SMALL_FEATURE
 10
185.9915008544922
 20
32.19449996948242
 30
0.0
 11
186.05499267578125
 21
31.178499221801758
 31
0.0
  0
LINE
  5
69
  8
SMALL_FEATURE
 10
186.05499267578125
 20
31.178499221801758
 30
0.0
 11
185.22950744628906
 21
28.95599937438965
 31
0.0
  0
LINE
  5
6A
  8
SMALL_FEATURE
 10
185.22950744628906
 20
28.95599937438965
 30
0.0
 11
183.32449340820312
 21
28.38450050354004
 31
0.0
  0
LINE
  5
6B
  8
SMALL_FEATURE
 10
183.32449340820312
 20
28.38450050354004
 30
0.0
 11
183.32449340820312
 21
27.622499465942383
 31
0.0
  0
LINE
  5
6C
  8
SMALL_FEATURE
 10
183.32449340820312
 20
27.622499465942383
 30
0.0
 11
182.6894989013672
 21
26.73349952697754
 31
0.0
  0
LINE
  5
6D
  8
SMALL_FEATURE
 10
182.6894989013672
 20
26.73349952697754
 30
0.0
 11
181.61000061035156
 21
26.542999267578125
 31
0.0
  0
LINE
  5
6E
  8
SMALL_FEATURE
 10
181.61000061035156
 20
26.542999267578125
 30
0.0
 11
181.54649353027344
 21
39.43349838256836
 31
0.0
  0
LINE
  5
6F
  8
SMALL_FEATURE
 10
62.03950119018555
 20
94.48799896240234
 30
0.0
 11
77.08899688720703
 21
94.55149841308594
 31
0.0
  0
LINE
  5
70
  8
SMALL_FEATURE
 10
77.08899688720703
 20
94.55149841308594
 30
0.0
 11
76.89849853515625
 21
92.83699798583984
 31
0.0
  0
LINE
  5
71
  8
SMALL_FEATURE
 10
76.89849853515625
 20
92.83699798583984
 30
0.0
 11
77.34300231933594
 21
93.5989990234375
 31
0.0
  0
LINE
  5
72
  8
SMALL_FEATURE
 10
77.34300231933594
 20
93.5989990234375
 30
0.0
 11
77.27950286865234
 21
94.55149841308594
 31
0.0
  0
LINE
  5
73
  8
SMALL_FEATURE
 10
77.27950286865234
 20
94.55149841308594
 30
0.0
 11
82.2959976196289
 21
94.55149841308594
 31
0.0
  0
LINE
  5
74
  8
SMALL_FEATURE
 10
82.2959976196289
 20
94.55149841308594
 30
0.0
 11
82.4229965209961
 21
94.17050170898438
 31
0.0
  0
LINE
  5
75
  8
SMALL_FEATURE
 10
82.4229965209961
 20
94.17050170898438
 30
0.0
 11
82.6135025024414
 21
94.55149841308594
 31
0.0
  0
LINE
  5
76
  8
SMALL_FEATURE
 10
82.6135025024414
 20
94.55149841308594
 30
0.0
 11
83.88349914550781
 21
94.55149841308594
 31
0.0
  0
LINE
  5
77
  8
SMALL_FEATURE
 10
83.88349914550781
 20
94.55149841308594
 30
0.0
 11
83.9469985961914
 21
93.72599792480469
 31
0.0
  0
LINE
  5
78
  8
SMALL_FEATURE
 10
83.9469985961914
 20
93.72599792480469
 30
0.0
 11
80.70850372314453
 21
91.18599700927734
 31
0.0
  0
LINE
  5
79
  8
SMALL_FEATURE
 10
80.70850372314453
 20
91.18599700927734
 30
0.0
 11
78.99400329589844
 21
87.94750213623047
 31
0.0
  0
LINE
  5
7A
  8
SMALL_FEATURE
 10
78.99400329589844
 20
87.94750213623047
 30
0.0
 11
78.1050033569336
 21
87.82050323486328
 31
0.0
  0
LINE
  5
7B
  8
SMALL_FEATURE
 10
78.1050033569336
 20
87.82050323486328
 30
0.0
 11
78.67649841308594
 21
87.62999725341797
 31
0.0
  0
LINE
  5
7C
  8
SMALL_FEATURE
 10
78.67649841308594
 20
87.62999725341797
 30
0.0
 11
78.54949951171875
 21
85.15350341796875
 31
0.0
  0
LINE
  5
7D
  8
SMALL_FEATURE
 10
78.54949951171875
 20
85.15350341796875
 30
0.0
 11
70.10399627685547
 21
85.15350341796875
 31
0.0
  0
LINE
  5
7E
  8
SMALL_FEATURE
 10
70.10399627685547
 20
85.15350341796875
 30
0.0
 11
69.34200286865234
 21
85.47100067138672
 31
0.0
  0
LINE
  5
7F
  8
SMALL_FEATURE
 10
69.34200286865234
 20
85.47100067138672
 30
0.0
 11
69.27850341796875
 21
86.10600280761719
 31
0.0
  0
LINE
  5
80
  8
SMALL_FEATURE
 10
69.27850341796875
 20
86.10600280761719
 30
0.0
 11
69.08799743652344
 21
85.15350341796875
 31
0.0
  0
LINE
  5
81
  8
SMALL_FEATURE
 10
69.08799743652344
 20
85.15350341796875
 30
0.0
 11
64.13500213623047
 21
85.15350341796875
 31
0.0
  0
LINE
  5
82
  8
SMALL_FEATURE
 10
64.13500213623047
 20
85.15350341796875
 30
0.0
 11
63.75400161743164
 21
88.01100158691406
 31
0.0
  0
LINE
  5
83
  8
SMALL_FEATURE
 10
63.75400161743164
 20
88.01100158691406
 30
0.0
 11
64.26200103759766
 21
88.26499938964844
 31
0.0
  0
LINE
  5
84
  8
SMALL_FEATURE
 10
64.26200103759766
 20
88.26499938964844
 30
0.0
 11
63.436500549316406
 21
88.32849884033203
 31
0.0
  0
LINE
  5
85
  8
SMALL_FEATURE
 10
63.436500549316406
 20
88.32849884033203
 30
0.0
 11
62.03950119018555
 21
94.48799896240234
 31
0.0
  0
LINE
  5
86
  8
SMALL_FEATURE
 10
95.88500213623047
 20
90.42400360107422
 30
0.0
 11
95.82150268554688
 21
89.53500366210938
 31
0.0
  0
LINE
  5
87
  8
SMALL_FEATURE
 10
95.82150268554688
 20
89.53500366210938
 30
0.0
 11
93.5354995727539
 21
88.77300262451172
 31
0.0
  0
LINE
  5
88
  8
SMALL_FEATURE
 10
93.5354995727539
 20
88.77300262451172
 30
0.0
 11
93.47200012207031
 21
88.20149993896484
 31
0.0
  0
LINE
  5
89
  8
SMALL_FEATURE
 10
93.47200012207031
 20
88.20149993896484
 30
0.0
 11
80.89900207519531
 21
80.9625015258789
 31
0.0
  0
LINE
  5
8A
  8
SMALL_FEATURE
 10
80.89900207519531
 20
80.9625015258789
 30
0.0
 11
79.75599670410156
 21
80.89900207519531
 31
0.0
  0
LINE
  5
8B
  8
SMALL_FEATURE
 10
79.75599670410156
 20
80.89900207519531
 30
0.0
 11
78.80349731445312
 21
84.0739974975586
 31
0.0
  0
LINE
  5
8C
  8
SMALL_FEATURE
 10
78.80349731445312
 20
84.0739974975586
 30
0.0
 11
78.86699676513672
 21
86.80449676513672
 31
0.0
  0
LINE
  5
8D
  8
SMALL_FEATURE
 10
78.86699676513672
 20
86.80449676513672
 30
0.0
 11
79.24800109863281
 21
88.26499938964844
 31
0.0
  0
LINE
  5
8E
  8
SMALL_FEATURE
 10
79.24800109863281
 20
88.26499938964844
 30
0.0
 11
80.9625015258789
 21
91.18599700927734
 31
0.0
  0
LINE
  5
8F
  8
SMALL_FEATURE
 10
80.9625015258789
 20
91.18599700927734
 30
0.0
 11
83.37550354003906
 21
93.21800231933594
 31
0.0
  0
LINE
  5
90
  8
SMALL_FEATURE
 10
83.37550354003906
 20
93.21800231933594
 30
0.0
 11
86.42350006103516
 21
94.36100006103516
 31
0.0
  0
LINE
  5
91
  8
SMALL_FEATURE
 10
86.42350006103516
 20
94.36100006103516
 30
0.0
 11
89.85250091552734
 21
94.36100006103516
 31
0.0
  0
LINE
  5
92
  8
SMALL_FEATURE
 10
89.85250091552734
 20
94.36100006103516
 30
0.0
 11
92.96399688720703
 21
93.21800231933594
 31
0.0
  0
LINE
  5
93
  8
SMALL_FEATURE
 10
92.96399688720703
 20
93.21800231933594
 30
0.0
 11
95.1865005493164
 21
91.37650299072266
 31
0.0
  0
LINE
  5
94
  8
SMALL_FEATURE
 10
95.1865005493164
 20
91.37650299072266
 30
0.0
 11
95.88500213623047
 21
90.42400360107422
 31
0.0
  0
LINE
  5
95
  8
SMALL_FEATURE
 10
96.58350372314453
 20
89.15399932861328
 30
0.0
 11
97.47250366210938
 21
86.16950225830078
 31
0.0
  0
LINE
  5
96
  8
SMALL_FEATURE
 10
97.47250366210938
 20
86.16950225830078
 30
0.0
 11
97.47250366210938
 21
84.010498046875
 31
0.0
  0
LINE
  5
97
  8
SMALL_FEATURE
 10
97.47250366210938
 20
84.010498046875
 30
0.0
 11
97.02799987792969
 21
81.97850036621094
 31
0.0
  0
LINE
  5
98
  8
SMALL_FEATURE
 10
97.02799987792969
 20
81.97850036621094
 30
0.0
 11
95.50399780273438
 21
79.18450164794922
 31
0.0
  0
LINE
  5
99
  8
SMALL_FEATURE
 10
95.50399780273438
 20
79.18450164794922
 30
0.0
 11
92.83699798583984
 21
76.89849853515625
 31
0.0
  0
LINE
  5
9A
  8
SMALL_FEATURE
 10
92.83699798583984
 20
76.89849853515625
 30
0.0
 11
89.78900146484375
 21
75.81900024414062
 31
0.0
  0
LINE
  5
9B
  8
SMALL_FEATURE
 10
89.78900146484375
 20
75.81900024414062
 30
0.0
 11
86.48699951171875
 21
75.81900024414062
 31
0.0
  0
LINE
  5
9C
  8
SMALL_FEATURE
 10
86.48699951171875
 20
75.81900024414062
 30
0.0
 11
83.50250244140625
 21
76.89849853515625
 31
0.0
  0
LINE
  5
9D
  8
SMALL_FEATURE
 10
83.50250244140625
 20
76.89849853515625
 30
0.0
 11
82.2959976196289
 21
77.7239990234375
 31
0.0
  0
LINE
  5
9E
  8
SMALL_FEATURE
 10
82.2959976196289
 20
77.7239990234375
 30
0.0
 11
80.51799774169922
 21
79.62899780273438
 31
0.0
  0
LINE
  5
9F
  8
SMALL_FEATURE
 10
80.51799774169922
 20
79.62899780273438
 30
0.0
 11
80.51799774169922
 21
80.58149719238281
 31
0.0
  0
LINE
  5
A0
  8
SMALL_FEATURE
 10
80.51799774169922
 20
80.58149719238281
 30
0.0
 11
93.21800231933594
 21
87.88400268554688
 31
0.0
  0
LINE
  5
A1
  8
SMALL_FEATURE
 10
93.21800231933594
 20
87.88400268554688
 30
0.0
 11
94.04350280761719
 21
87.88400268554688
 31
0.0
  0
LINE
  5
A2
  8
SMALL_FEATURE
 10
94.04350280761719
 20
87.88400268554688
 30
0.0
 11
95.69450378417969
 21
89.28099822998047
 31
0.0
  0
LINE
  5
A3
  8
SMALL_FEATURE
 10
95.69450378417969
 20
89.28099822998047
 30
0.0
 11
96.58350372314453
 21
89.15399932861328
 31
0.0
  0
LINE
  5
A4
  8
SMALL_FEATURE
 10
154.114501953125
 20
246.2530059814453
 30
0.0
 11
156.9084930419922
 21
246.57049560546875
 31
0.0
  0
LINE
  5
A5
  8
SMALL_FEATURE
 10
156.9084930419922
 20
246.57049560546875
 30
0.0
 11
158.49600219726562
 21
247.2689971923828
 31
0.0
  0
LINE
  5
A6
  8
SMALL_FEATURE
 10
158.49600219726562
 20
247.2689971923828
 30
0.0
 11
160.78199768066406
 21
249.0469970703125
 31
0.0
  0
LINE
  5
A7
  8
SMALL_FEATURE
 10
160.78199768066406
 20
249.0469970703125
 30
0.0
 11
162.24249267578125
 21
251.58700561523438
 31
0.0
  0
LINE
  5
A8
  8
SMALL_FEATURE
 10
162.24249267578125
 20
251.58700561523438
 30
0.0
 11
164.52850341796875
 21
251.58700561523438
 31
0.0
  0
LINE
  5
A9
  8
SMALL_FEATURE
 10
164.52850341796875
 20
251.58700561523438
 30
0.0
 11
166.05250549316406
 21
248.98350524902344
 31
0.0
  0
LINE
  5
AA
  8
SMALL_FEATURE
 10
166.05250549316406
 20
248.98350524902344
 30
0.0
 11
167.44949340820312
 21
247.77699279785156
 31
0.0
  0
LINE
  5
AB
  8
SMALL_FEATURE
 10
167.44949340820312
 20
247.77699279785156
 30
0.0
 11
169.92599487304688
 21
246.57049560546875
 31
0.0
  0
LINE
  5
AC
  8
SMALL_FEATURE
 10
169.92599487304688
 20
246.57049560546875
 30
0.0
 11
172.7834930419922
 21
246.2530059814453
 31
0.0
  0
LINE
  5
AD
  8
SMALL_FEATURE
 10
172.7834930419922
 20
246.2530059814453
 30
0.0
 11
172.59300231933594
 21
240.34750366210938
 31
0.0
  0
LINE
  5
AE
  8
SMALL_FEATURE
 10
172.59300231933594
 20
240.34750366210938
 30
0.0
 11
169.989501953125
 21
240.28399658203125
 31
0.0
  0
LINE
  5
AF
  8
SMALL_FEATURE
 10
169.989501953125
 20
240.28399658203125
 30
0.0
 11
169.29100036621094
 21
241.7445068359375
 31
0.0
  0
LINE
  5
B0
  8
SMALL_FEATURE
 10
169.29100036621094
 20
241.7445068359375
 30
0.0
 11
167.76699829101562
 21
242.3159942626953
 31
0.0
  0
LINE
  5
B1
  8
SMALL_FEATURE
 10
167.76699829101562
 20
242.3159942626953
 30
0.0
 11
166.3699951171875
 21
241.7445068359375
 31
0.0
  0
LINE
  5
B2
  8
SMALL_FEATURE
 10
166.3699951171875
 20
241.7445068359375
 30
0.0
 11
165.60800170898438
 21
240.28399658203125
 31
0.0
  0
LINE
  5
B3
  8
SMALL_FEATURE
 10
165.60800170898438
 20
240.28399658203125
 30
0.0
 11
161.16299438476562
 21
240.28399658203125
 31
0.0
  0
LINE
  5
B4
  8
SMALL_FEATURE
 10
161.16299438476562
 20
240.28399658203125
 30
0.0
 11
160.4010009765625
 21
241.80799865722656
 31
0.0
  0
LINE
  5
B5
  8
SMALL_FEATURE
 10
160.4010009765625
 20
241.80799865722656
 30
0.0
 11
158.81350708007812
 21
242.37950134277344
 31
0.0
  0
LINE
  5
B6
  8
SMALL_FEATURE
 10
158.81350708007812
 20
242.37950134277344
 30
0.0
 11
157.41650390625
 21
241.68099975585938
 31
0.0
  0
LINE
  5
B7
  8
SMALL_FEATURE
 10
157.41650390625
 20
241.68099975585938
 30
0.0
 11
156.781494140625
 21
240.28399658203125
 31
0.0
  0
LINE
  5
B8
  8
SMALL_FEATURE
 10
156.781494140625
 20
240.28399658203125
 30
0.0
 11
154.36849975585938
 21
240.28399658203125
 31
0.0
  0
LINE
  5
B9
  8
SMALL_FEATURE
 10
154.36849975585938
 20
240.28399658203125
 30
0.0
 11
154.114501953125
 21
246.2530059814453
 31
0.0
  0
LINE
  5
BA
  8
SMALL_FEATURE
 10
155.19400024414062
 20
219.58299255371094
 30
0.0
 11
157.67050170898438
 21
219.58299255371094
 31
0.0
  0
LINE
  5
BB
  8
SMALL_FEATURE
 10
157.67050170898438
 20
219.58299255371094
 30
0.0
 11
157.92449951171875
 21
216.02699279785156
 31
0.0
  0
LINE
  5
BC
  8
SMALL_FEATURE
 10
157.92449951171875
 20
216.02699279785156
 30
0.0
 11
158.05149841308594
 21
217.86849975585938
 31
0.0
  0
LINE
  5
BD
  8
SMALL_FEATURE
 10
158.05149841308594
 20
217.86849975585938
 30
0.0
 11
159.89300537109375
 21
217.614501953125
 31
0.0
  0
LINE
  5
BE
  8
SMALL_FEATURE
 10
159.89300537109375
 20
217.614501953125
 30
0.0
 11
161.03599548339844
 21
218.0590057373047
 31
0.0
  0
LINE
  5
BF
  8
SMALL_FEATURE
 10
161.03599548339844
 20
218.0590057373047
 30
0.0
 11
161.8614959716797
 21
217.99549865722656
 31
0.0
  0
LINE
  5
C0
  8
SMALL_FEATURE
 10
161.8614959716797
 20
217.99549865722656
 30
0.0
 11
162.30599975585938
 21
210.5659942626953
 31
0.0
  0
LINE
  5
C1
  8
SMALL_FEATURE
 10
162.30599975585938
 20
210.5659942626953
 30
0.0
 11
161.98849487304688
 21
219.58299255371094
 31
0.0
  0
LINE
  5
C2
  8
SMALL_FEATURE
 10
161.98849487304688
 20
219.58299255371094
 30
0.0
 11
164.718994140625
 21
219.64649963378906
 31
0.0
  0
LINE
  5
C3
  8
SMALL_FEATURE
 10
164.718994140625
 20
219.64649963378906
 30
0.0
 11
164.5919952392578
 21
210.43899536132812
 31
0.0
  0
LINE
  5
C4
  8
SMALL_FEATURE
 10
164.5919952392578
 20
210.43899536132812
 30
0.0
 11
164.9095001220703
 21
217.9320068359375
 31
0.0
  0
LINE
  5
C5
  8
SMALL_FEATURE
 10
164.9095001220703
 20
217.9320068359375
 30
0.0
 11
165.73500061035156
 21
217.99549865722656
 31
0.0
  0
LINE
  5
C6
  8
SMALL_FEATURE
 10
165.73500061035156
 20
217.99549865722656
 30
0.0
 11
166.8144989013672
 21
217.55099487304688
 31
0.0
  0
LINE
  5
C7
  8
SMALL_FEATURE
 10
166.8144989013672
 20
217.55099487304688
 30
0.0
 11
168.71949768066406
 21
217.86849975585938
 31
0.0
  0
LINE
  5
C8
  8
SMALL_FEATURE
 10
168.71949768066406
 20
217.86849975585938
 30
0.0
 11
168.91000366210938
 21
216.02699279785156
 31
0.0
  0
LINE
  5
C9
  8
SMALL_FEATURE
 10
168.91000366210938
 20
216.02699279785156
 30
0.0
 11
169.10049438476562
 21
219.58299255371094
 31
0.0
  0
LINE
  5
CA
  8
SMALL_FEATURE
 10
169.10049438476562
 20
219.58299255371094
 30
0.0
 11
171.57699584960938
 21
219.64649963378906
 31
0.0
  0
LINE
  5
CB
  8
SMALL_FEATURE
 10
171.57699584960938
 20
219.64649963378906
 30
0.0
 11
171.5135040283203
 21
215.64599609375
 31
0.0
  0
LINE
  5
CC
  8
SMALL_FEATURE
 10
171.5135040283203
 20
215.64599609375
 30
0.0
 11
169.6719970703125
 21
212.59800720214844
 31
0.0
  0
LINE
  5
CD
  8
SMALL_FEATURE
 10
169.6719970703125
 20
212.59800720214844
 30
0.0
 11
169.35450744628906
 21
209.5500030517578
 31
0.0
  0
LINE
  5
CE
  8
SMALL_FEATURE
 10
169.35450744628906
 20
209.5500030517578
 30
0.0
 11
157.47999572753906
 21
209.4864959716797
 31
0.0
  0
LINE
  5
CF
  8
SMALL_FEATURE
 10
157.47999572753906
 20
209.4864959716797
 30
0.0
 11
157.0989990234375
 21
212.59800720214844
 31
0.0
  0
LINE
  5
D0
  8
SMALL_FEATURE
 10
157.0989990234375
 20
212.59800720214844
 30
0.0
 11
155.3209991455078
 21
215.39199829101562
 31
0.0
  0
LINE
  5
D1
  8
SMALL_FEATURE
 10
155.3209991455078
 20
215.39199829101562
 30
0.0
 11
155.19400024414062
 21
219.58299255371094
 31
0.0
  0
LINE
  5
D2
  8
SMALL_FEATURE
 10
81.15299987792969
 20
129.22250366210938
 30
0.0
 11
84.010498046875
 21
128.968505859375
 31
0.0
  0
LINE
  5
D3
  8
SMALL_FEATURE
 10
84.010498046875
 20
128.968505859375
 30
0.0
 11
84.0739974975586
 21
129.34950256347656
 31
0.0
  0
LINE
  5
D4
  8
SMALL_FEATURE
 10
84.0739974975586
 20
129.34950256347656
 30
0.0
 11
92.2020034790039
 21
129.34950256347656
 31
0.0
  0
LINE
  5
D5
  8
SMALL_FEATURE
 10
92.2020034790039
 20
129.34950256347656
 30
0.0
 11
92.51950073242188
 21
128.968505859375
 31
0.0
  0
LINE
  5
D6
  8
SMALL_FEATURE
 10
92.51950073242188
 20
128.968505859375
 30
0.0
 11
95.05950164794922
 21
129.28599548339844
 31
0.0
  0
LINE
  5
D7
  8
SMALL_FEATURE
 10
95.05950164794922
 20
129.28599548339844
 30
0.0
 11
95.1865005493164
 21
121.47550201416016
 31
0.0
  0
LINE
  5
D8
  8
SMALL_FEATURE
 10
95.1865005493164
 20
121.47550201416016
 30
0.0
 11
81.15299987792969
 21
121.41200256347656
 31
0.0
  0
LINE
  5
D9
  8
SMALL_FEATURE
 10
81.15299987792969
 20
121.41200256347656
 30
0.0
 11
81.15299987792969
 21
129.22250366210938
 31
0.0
  0
LINE
  5
DA
  8
SMALL_FEATURE
 10
58.03900146484375
 20
94.55149841308594
 30
0.0
 11
61.72200012207031
 21
94.36100006103516
 31
0.0
  0
LINE
  5
DB
  8
SMALL_FEATURE
 10
61.72200012207031
 20
94.36100006103516
 30
0.0
 11
63.563499450683594
 21
87.2490005493164
 31
0.0
  0
LINE
  5
DC
  8
SMALL_FEATURE
 10
63.563499450683594
 20
87.2490005493164
 30
0.0
 11
64.19850158691406
 21
82.86750030517578
 31
0.0
  0
LINE
  5
DD
  8
SMALL_FEATURE
 10
64.19850158691406
 20
82.86750030517578
 30
0.0
 11
64.13500213623047
 21
80.20050048828125
 31
0.0
  0
LINE
  5
DE
  8
SMALL_FEATURE
 10
64.13500213623047
 20
80.20050048828125
 30
0.0
 11
63.24599838256836
 21
75.69200134277344
 31
0.0
  0
LINE
  5
DF
  8
SMALL_FEATURE
 10
63.24599838256836
 20
75.69200134277344
 30
0.0
 11
57.97549819946289
 21
75.75550079345703
 31
0.0
  0
LINE
  5
E0
  8
SMALL_FEATURE
 10
57.97549819946289
 20
75.75550079345703
 30
0.0
 11
58.292999267578125
 21
78.61299896240234
 31
0.0
  0
LINE
  5
E1
  8
SMALL_FEATURE
 10
58.292999267578125
 20
78.61299896240234
 30
0.0
 11
57.97549819946289
 21
78.67649841308594
 31
0.0
  0
LINE
  5
E2
  8
SMALL_FEATURE
 10
57.97549819946289
 20
78.67649841308594
 30
0.0
 11
57.97549819946289
 21
91.56700134277344
 31
0.0
  0
LINE
  5
E3
  8
SMALL_FEATURE
 10
57.97549819946289
 20
91.56700134277344
 30
0.0
 11
58.292999267578125
 21
91.63050079345703
 31
0.0
  0
LINE
  5
E4
  8
SMALL_FEATURE
 10
58.292999267578125
 20
91.63050079345703
 30
0.0
 11
58.03900146484375
 21
94.55149841308594
 31
0.0
  0
LINE
  5
E5
  8
SMALL_FEATURE
 10
83.05799865722656
 20
252.98399353027344
 30
0.0
 11
84.51850128173828
 21
252.92050170898438
 31
0.0
  0
LINE
  5
E6
  8
SMALL_FEATURE
 10
84.51850128173828
 20
252.92050170898438
 30
0.0
 11
85.53450012207031
 21
251.84100341796875
 31
0.0
  0
LINE
  5
E7
  8
SMALL_FEATURE
 10
85.53450012207031
 20
251.84100341796875
 30
0.0
 11
85.7249984741211
 21
251.07899475097656
 31
0.0
  0
LINE
  5
E8
  8
SMALL_FEATURE
 10
85.7249984741211
 20
251.07899475097656
 30
0.0
 11
86.48699951171875
 21
230.6320037841797
 31
0.0
  0
LINE
  5
E9
  8
SMALL_FEATURE
 10
86.48699951171875
 20
230.6320037841797
 30
0.0
 11
86.10600280761719
 21
229.48899841308594
 31
0.0
  0
LINE
  5
EA
  8
SMALL_FEATURE
 10
86.10600280761719
 20
229.48899841308594
 30
0.0
 11
85.02649688720703
 21
228.79049682617188
 31
0.0
  0
LINE
  5
EB
  8
SMALL_FEATURE
 10
85.02649688720703
 20
228.79049682617188
 30
0.0
 11
83.31199645996094
 21
229.10800170898438
 31
0.0
  0
LINE
  5
EC
  8
SMALL_FEATURE
 10
83.31199645996094
 20
229.10800170898438
 30
0.0
 11
82.7405014038086
 21
229.80650329589844
 31
0.0
  0
LINE
  5
ED
  8
SMALL_FEATURE
 10
82.7405014038086
 20
229.80650329589844
 30
0.0
 11
82.48650360107422
 21
231.13999938964844
 31
0.0
  0
LINE
  5
EE
  8
SMALL_FEATURE
 10
82.48650360107422
 20
231.13999938964844
 30
0.0
 11
81.78800201416016
 21
251.39649963378906
 31
0.0
  0
LINE
  5
EF
  8
SMALL_FEATURE
 10
81.78800201416016
 20
251.39649963378906
 30
0.0
 11
82.23249816894531
 21
252.3489990234375
 31
0.0
  0
LINE
  5
F0
  8
SMALL_FEATURE
 10
82.23249816894531
 20
252.3489990234375
 30
0.0
 11
83.05799865722656
 21
252.98399353027344
 31
0.0
  0
LINE
  5
F1
  8
SMALL_FEATURE
 10
93.15450286865234
 20
252.92050170898438
 30
0.0
 11
93.9800033569336
 21
252.41250610351562
 31
0.0
  0
LINE
  5
F2
  8
SMALL_FEATURE
 10
93.9800033569336
 20
252.41250610351562
 30
0.0
 11
94.48799896240234
 21
251.26950073242188
 31
0.0
  0
LINE
  5
F3
  8
SMALL_FEATURE
 10
94.48799896240234
 20
251.26950073242188
 30
0.0
 11
93.6624984741211
 21
230.5050048828125
 31
0.0
  0
LINE
  5
F4
  8
SMALL_FEATURE
 10
93.6624984741211
 20
230.5050048828125
 30
0.0
 11
92.96399688720703
 21
229.10800170898438
 31
0.0
  0
LINE
  5
F5
  8
SMALL_FEATURE
 10
92.96399688720703
 20
229.10800170898438
 30
0.0
 11
92.3290023803711
 21
228.7270050048828
 31
0.0
  0
LINE
  5
F6
  8
SMALL_FEATURE
 10
92.3290023803711
 20
228.7270050048828
 30
0.0
 11
91.24949645996094
 21
228.7270050048828
 31
0.0
  0
LINE
  5
F7
  8
SMALL_FEATURE
 10
91.24949645996094
 20
228.7270050048828
 30
0.0
 11
90.16999816894531
 21
229.42550659179688
 31
0.0
  0
LINE
  5
F8
  8
SMALL_FEATURE
 10
90.16999816894531
 20
229.42550659179688
 30
0.0
 11
89.72550201416016
 21
230.44149780273438
 31
0.0
  0
LINE
  5
F9
  8
SMALL_FEATURE
 10
89.72550201416016
 20
230.44149780273438
 30
0.0
 11
90.5510025024414
 21
251.20599365234375
 31
0.0
  0
LINE
  5
FA
  8
SMALL_FEATURE
 10
90.5510025024414
 20
251.20599365234375
 30
0.0
 11
91.31300354003906
 21
252.60299682617188
 31
0.0
  0
LINE
  5
FB
  8
SMALL_FEATURE
 10
91.31300354003906
 20
252.60299682617188
 30
0.0
 11
91.947998046875
 21
252.92050170898438
 31
0.0
  0
LINE
  5
FC
  8
SMALL_FEATURE
 10
91.947998046875
 20
252.92050170898438
 30
0.0
 11
93.15450286865234
 21
252.92050170898438
 31
0.0
  0
LINE
  5
FD
  8
SMALL_FEATURE
 10
185.29299926757812
 20
24.256999969482422
 30
0.0
 11
198.7550048828125
 21
24.320499420166016
 31
0.0
  0
LINE
  5
FE
  8
SMALL_FEATURE
 10
198.7550048828125
 20
24.320499420166016
 30
0.0
 11
198.81849670410156
 21
17.8435001373291
 31
0.0
  0
LINE
  5
FF
  8
SMALL_FEATURE
 10
198.81849670410156
 20
17.8435001373291
 30
0.0
 11
185.35650634765625
 21
17.780000686645508
 31
0.0
  0
LINE
  5
100
  8
SMALL_FEATURE
 10
185.35650634765625
 20
17.780000686645508
 30
0.0
 11
185.29299926757812
 21
24.256999969482422
 31
0.0
  0
LINE
  5
101
  8
SMALL_FEATURE
 10
82.16899871826172
 20
219.01150512695312
 30
0.0
 11
94.04350280761719
 21
219.0749969482422
 31
0.0
  0
LINE
  5
102
  8
SMALL_FEATURE
 10
94.04350280761719
 20
219.0749969482422
 30
0.0
 11
94.10700225830078
 21
212.343994140625
 31
0.0
  0
LINE
  5
103
  8
SMALL_FEATURE
 10
94.10700225830078
 20
212.343994140625
 30
0.0
 11
91.18599700927734
 21
212.59800720214844
 31
0.0
  0
LINE
  5
104
  8
SMALL_FEATURE
 10
91.18599700927734
 20
212.59800720214844
 30
0.0
 11
91.12249755859375
 21
212.2169952392578
 31
0.0
  0
LINE
  5
105
  8
SMALL_FEATURE
 10
91.12249755859375
 20
212.2169952392578
 30
0.0
 11
85.08999633789062
 21
212.2169952392578
 31
0.0
  0
LINE
  5
106
  8
SMALL_FEATURE
 10
85.08999633789062
 20
212.2169952392578
 30
0.0
 11
84.83599853515625
 21
212.59800720214844
 31
0.0
  0
LINE
  5
107
  8
SMALL_FEATURE
 10
84.83599853515625
 20
212.59800720214844
 30
0.0
 11
82.23249816894531
 21
212.28050231933594
 31
0.0
  0
LINE
  5
108
  8
SMALL_FEATURE
 10
82.23249816894531
 20
212.28050231933594
 30
0.0
 11
82.16899871826172
 21
219.01150512695312
 31
0.0
  0
LINE
  5
109
  8
SMALL_FEATURE
 10
157.0989990234375
 20
240.093505859375
 30
0.0
 11
157.98800659179688
 21
240.093505859375
 31
0.0
  0
LINE
  5
10A
  8
SMALL_FEATURE
 10
157.98800659179688
 20
240.093505859375
 30
0.0
 11
158.05149841308594
 21
239.71249389648438
 31
0.0
  0
LINE
  5
10B
  8
SMALL_FEATURE
 10
158.05149841308594
 20
239.71249389648438
 30
0.0
 11
160.97250366210938
 21
239.9665069580078
 31
0.0
  0
LINE
  5
10C
  8
SMALL_FEATURE
 10
160.97250366210938
 20
239.9665069580078
 30
0.0
 11
161.67100524902344
 21
219.90049743652344
 31
0.0
  0
LINE
  5
10D
  8
SMALL_FEATURE
 10
161.67100524902344
 20
219.90049743652344
 30
0.0
 11
159.13099670410156
 21
220.21800231933594
 31
0.0
  0
LINE
  5
10E
  8
SMALL_FEATURE
 10
159.13099670410156
 20
220.21800231933594
 30
0.0
 11
158.81350708007812
 21
219.83700561523438
 31
0.0
  0
LINE
  5
10F
  8
SMALL_FEATURE
 10
158.81350708007812
 20
219.83700561523438
 30
0.0
 11
157.86099243164062
 21
219.90049743652344
 31
0.0
  0
LINE
  5
110
  8
SMALL_FEATURE
 10
157.86099243164062
 20
219.90049743652344
 30
0.0
 11
157.0989990234375
 21
240.093505859375
 31
0.0
  0
LINE
  5
111
  8
SMALL_FEATURE
 10
161.2899932861328
 20
240.093505859375
 30
0.0
 11
165.60800170898438
 21
240.02999877929688
 31
0.0
  0
LINE
  5
112
  8
SMALL_FEATURE
 10
165.60800170898438
 20
240.02999877929688
 30
0.0
 11
165.29049682617188
 21
231.45750427246094
 31
0.0
  0
LINE
  5
113
  8
SMALL_FEATURE
 10
165.29049682617188
 20
231.45750427246094
 30
0.0
 11
163.44900512695312
 21
231.33050537109375
 31
0.0
  0
LINE
  5
114
  8
SMALL_FEATURE
 10
163.44900512695312
 20
231.33050537109375
 30
0.0
 11
165.2270050048828
 21
231.13999938964844
 31
0.0
  0
LINE
  5
115
  8
SMALL_FEATURE
 10
165.2270050048828
 20
231.13999938964844
 30
0.0
 11
164.718994140625
 21
219.83700561523438
 31
0.0
  0
LINE
  5
116
  8
SMALL_FEATURE
 10
164.718994140625
 20
219.83700561523438
 30
0.0
 11
161.98849487304688
 21
219.90049743652344
 31
0.0
  0
LINE
  5
117
  8
SMALL_FEATURE
 10
161.98849487304688
 20
219.90049743652344
 30
0.0
 11
161.2899932861328
 21
240.093505859375
 31
0.0
  0
LINE
  5
118
  8
SMALL_FEATURE
 10
96.8375015258789
 20
51.05400085449219
 30
0.0
 11
107.63249969482422
 21
51.11750030517578
 31
0.0
  0
LINE
  5
119
  8
SMALL_FEATURE
 10
107.63249969482422
 20
51.11750030517578
 30
0.0
 11
107.69599914550781
 21
45.78350067138672
 31
0.0
  0
LINE
  5
11A
  8
SMALL_FEATURE
 10
107.69599914550781
 20
45.78350067138672
 30
0.0
 11
96.9010009765625
 21
45.720001220703125
 31
0.0
  0
LINE
  5
11B
  8
SMALL_FEATURE
 10
96.9010009765625
 20
45.720001220703125
 30
0.0
 11
96.8375015258789
 21
51.05400085449219
 31
0.0
  0
LINE
  5
11C
  8
SMALL_FEATURE
 10
185.29299926757812
 20
17.525999069213867
 30
0.0
 11
198.7550048828125
 21
17.589500427246094
 31
0.0
  0
LINE
  5
11D
  8
SMALL_FEATURE
 10
198.7550048828125
 20
17.589500427246094
 30
0.0
 11
198.81849670410156
 21
13.58899974822998
 31
0.0
  0
LINE
  5
11E
  8
SMALL_FEATURE
 10
198.81849670410156
 20
13.58899974822998
 30
0.0
 11
185.35650634765625
 21
13.525500297546387
 31
0.0
  0
LINE
  5
11F
  8
SMALL_FEATURE
 10
185.35650634765625
 20
13.525500297546387
 30
0.0
 11
185.29299926757812
 21
17.525999069213867
 31
0.0
  0
LINE
  5
120
  8
SMALL_FEATURE
 10
185.29299926757812
 20
13.271499633789062
 30
0.0
 11
198.7550048828125
 21
13.335000038146973
 31
0.0
  0
LINE
  5
121
  8
SMALL_FEATURE
 10
198.7550048828125
 20
13.335000038146973
 30
0.0
 11
198.81849670410156
 21
9.46150016784668
 31
0.0
  0
LINE
  5
122
  8
SMALL_FEATURE
 10
198.81849670410156
 20
9.46150016784668
 30
0.0
 11
185.35650634765625
 21
9.39799976348877
 31
0.0
  0
LINE
  5
123
  8
SMALL_FEATURE
 10
185.35650634765625
 20
9.39799976348877
 30
0.0
 11
185.29299926757812
 21
13.271499633789062
 31
0.0
  0
LINE
  5
124
  8
SMALL_FEATURE
 10
79.375
 20
51.05400085449219
 30
0.0
 11
79.3115005493164
 21
45.720001220703125
 31
0.0
  0
LINE
  5
125
  8
SMALL_FEATURE
 10
79.3115005493164
 20
45.720001220703125
 30
0.0
 11
68.4530029296875
 21
45.78350067138672
 31
0.0
  0
LINE
  5
126
  8
SMALL_FEATURE
 10
68.4530029296875
 20
45.78350067138672
 30
0.0
 11
68.5165023803711
 21
50.22850036621094
 31
0.0
  0
LINE
  5
127
  8
SMALL_FEATURE
 10
68.5165023803711
 20
50.22850036621094
 30
0.0
 11
74.93000030517578
 21
50.22850036621094
 31
0.0
  0
LINE
  5
128
  8
SMALL_FEATURE
 10
74.93000030517578
 20
50.22850036621094
 30
0.0
 11
75.12049865722656
 21
51.11750030517578
 31
0.0
  0
LINE
  5
129
  8
SMALL_FEATURE
 10
75.12049865722656
 20
51.11750030517578
 30
0.0
 11
79.375
 21
51.05400085449219
 31
0.0
  0
LINE
  5
12A
  8
SMALL_FEATURE
 10
154.4320068359375
 20
240.093505859375
 30
0.0
 11
156.84500122070312
 21
240.02999877929688
 31
0.0
  0
LINE
  5
12B
  8
SMALL_FEATURE
 10
156.84500122070312
 20
240.02999877929688
 30
0.0
 11
157.60699462890625
 21
219.83700561523438
 31
0.0
  0
LINE
  5
12C
  8
SMALL_FEATURE
 10
157.60699462890625
 20
219.83700561523438
 30
0.0
 11
155.1304931640625
 21
219.90049743652344
 31
0.0
  0
LINE
  5
12D
  8
SMALL_FEATURE
 10
155.1304931640625
 20
219.90049743652344
 30
0.0
 11
154.4320068359375
 21
240.093505859375
 31
0.0
  0
LINE
  5
12E
  8
SMALL_FEATURE
 10
165.54449462890625
 20
231.20350646972656
 30
0.0
 11
166.5605010986328
 21
231.20350646972656
 31
0.0
  0
LINE
  5
12F
  8
SMALL_FEATURE
 10
166.5605010986328
 20
231.20350646972656
 30
0.0
 11
166.62399291992188
 21
230.82249450683594
 31
0.0
  0
LINE
  5
130
  8
SMALL_FEATURE
 10
166.62399291992188
 20
230.82249450683594
 30
0.0
 11
169.35450744628906
 21
231.07650756835938
 31
0.0
  0
LINE
  5
131
  8
SMALL_FEATURE
 10
169.35450744628906
 20
231.07650756835938
 30
0.0
 11
168.84649658203125
 21
219.83700561523438
 31
0.0
  0
LINE
  5
132
  8
SMALL_FEATURE
 10
168.84649658203125
 20
219.83700561523438
 30
0.0
 11
167.95750427246094
 21
219.83700561523438
 31
0.0
  0
LINE
  5
133
  8
SMALL_FEATURE
 10
167.95750427246094
 20
219.83700561523438
 30
0.0
 11
167.8939971923828
 21
220.21800231933594
 31
0.0
  0
LINE
  5
134
  8
SMALL_FEATURE
 10
167.8939971923828
 20
220.21800231933594
 30
0.0
 11
165.0364990234375
 21
219.96400451660156
 31
0.0
  0
LINE
  5
135
  8
SMALL_FEATURE
 10
165.0364990234375
 20
219.96400451660156
 30
0.0
 11
165.54449462890625
 21
231.20350646972656
 31
0.0
  0
LINE
  5
136
  8
SMALL_FEATURE
 10
57.721500396728516
 20
61.65850067138672
 30
0.0
 11
57.78499984741211
 21
54.29249954223633
 31
0.0
  0
LINE
  5
137
  8
SMALL_FEATURE
 10
57.78499984741211
 20
54.29249954223633
 30
0.0
 11
57.40399932861328
 21
54.229000091552734
 31
0.0
  0
LINE
  5
138
  8
SMALL_FEATURE
 10
57.40399932861328
 20
54.229000091552734
 30
0.0
 11
57.721500396728516
 21
51.371498107910156
 31
0.0
  0
LINE
  5
139
  8
SMALL_FEATURE
 10
57.721500396728516
 20
51.371498107910156
 30
0.0
 11
54.10200119018555
 21
51.30799865722656
 31
0.0
  0
LINE
  5
13A
  8
SMALL_FEATURE
 10
54.10200119018555
 20
51.30799865722656
 30
0.0
 11
53.9114990234375
 21
50.41899871826172
 31
0.0
  0
LINE
  5
13B
  8
SMALL_FEATURE
 10
53.9114990234375
 20
50.41899871826172
 30
0.0
 11
51.87950134277344
 21
50.41899871826172
 31
0.0
  0
LINE
  5
13C
  8
SMALL_FEATURE
 10
51.87950134277344
 20
50.41899871826172
 30
0.0
 11
51.94300079345703
 21
51.68899917602539
 31
0.0
  0
LINE
  5
13D
  8
SMALL_FEATURE
 10
51.94300079345703
 20
51.68899917602539
 30
0.0
 11
54.10200119018555
 21
56.451499938964844
 31
0.0
  0
LINE
  5
13E
  8
SMALL_FEATURE
 10
54.10200119018555
 20
56.451499938964844
 30
0.0
 11
56.895999908447266
 21
61.595001220703125
 31
0.0
  0
LINE
  5
13F
  8
SMALL_FEATURE
 10
56.895999908447266
 20
61.595001220703125
 30
0.0
 11
57.721500396728516
 21
61.65850067138672
 31
0.0
  0
LINE
  5
140
  8
SMALL_FEATURE
 10
169.6719970703125
 20
240.093505859375
 30
0.0
 11
169.41799926757812
 21
231.45750427246094
 31
0.0
  0
LINE
  5
141
  8
SMALL_FEATURE
 10
169.41799926757812
 20
231.45750427246094
 30
0.0
 11
166.62399291992188
 21
231.7115020751953
 31
0.0
  0
LINE
  5
142
  8
SMALL_FEATURE
 10
166.62399291992188
 20
231.7115020751953
 30
0.0
 11
166.5605010986328
 21
231.3939971923828
 31
0.0
  0
LINE
  5
143
  8
SMALL_FEATURE
 10
166.5605010986328
 20
231.3939971923828
 30
0.0
 11
165.54449462890625
 21
231.3939971923828
 31
0.0
  0
LINE
  5
144
  8
SMALL_FEATURE
 10
165.54449462890625
 20
231.3939971923828
 30
0.0
 11
165.79849243164062
 21
239.9665069580078
 31
0.0
  0
LINE
  5
145
  8
SMALL_FEATURE
 10
165.79849243164062
 20
239.9665069580078
 30
0.0
 11
168.71949768066406
 21
239.71249389648438
 31
0.0
  0
LINE
  5
146
  8
SMALL_FEATURE
 10
168.71949768066406
 20
239.71249389648438
 30
0.0
 11
168.7830047607422
 21
240.093505859375
 31
0.0
  0
LINE
  5
147
  8
SMALL_FEATURE
 10
168.7830047607422
 20
240.093505859375
 30
0.0
 11
169.6719970703125
 21
240.093505859375
 31
0.0
  0
LINE
  5
148
  8
SMALL_FEATURE
 10
62.92850112915039
 20
75.50150299072266
 30
0.0
 11
62.992000579833984
 21
74.6760025024414
 31
0.0
  0
LINE
  5
149
  8
SMALL_FEATURE
 10
62.992000579833984
 20
74.6760025024414
 30
0.0
 11
60.57899856567383
 21
68.89749908447266
 31
0.0
  0
LINE
  5
14A
  8
SMALL_FEATURE
 10
60.57899856567383
 20
68.89749908447266
 30
0.0
 11
58.928001403808594
 21
65.72250366210938
 31
0.0
  0
LINE
  5
14B
  8
SMALL_FEATURE
 10
58.928001403808594
 20
65.72250366210938
 30
0.0
 11
58.03900146484375
 21
65.59549713134766
 31
0.0
  0
LINE
  5
14C
  8
SMALL_FEATURE
 10
58.03900146484375
 20
65.59549713134766
 30
0.0
 11
57.97549819946289
 21
72.51699829101562
 31
0.0
  0
LINE
  5
14D
  8
SMALL_FEATURE
 10
57.97549819946289
 20
72.51699829101562
 30
0.0
 11
58.292999267578125
 21
72.58049774169922
 31
0.0
  0
LINE
  5
14E
  8
SMALL_FEATURE
 10
58.292999267578125
 20
72.58049774169922
 30
0.0
 11
57.97549819946289
 21
75.43800354003906
 31
0.0
  0
LINE
  5
14F
  8
SMALL_FEATURE
 10
57.97549819946289
 20
75.43800354003906
 30
0.0
 11
62.92850112915039
 21
75.50150299072266
 31
0.0
  0
LINE
  5
150
  8
SMALL_FEATURE
 10
126.74600219726562
 20
176.0854949951172
 30
0.0
 11
126.68250274658203
 21
167.70350646972656
 31
0.0
  0
LINE
  5
151
  8
SMALL_FEATURE
 10
126.68250274658203
 20
167.70350646972656
 30
0.0
 11
126.87300109863281
 21
172.02149963378906
 31
0.0
  0
LINE
  5
152
  8
SMALL_FEATURE
 10
126.87300109863281
 20
172.02149963378906
 30
0.0
 11
128.4604949951172
 21
171.95799255371094
 31
0.0
  0
LINE
  5
153
  8
SMALL_FEATURE
 10
128.4604949951172
 20
171.95799255371094
 30
0.0
 11
128.6510009765625
 21
163.32200622558594
 31
0.0
  0
LINE
  5
154
  8
SMALL_FEATURE
 10
128.6510009765625
 20
163.32200622558594
 30
0.0
 11
126.68250274658203
 21
163.19500732421875
 31
0.0
  0
LINE
  5
155
  8
SMALL_FEATURE
 10
126.68250274658203
 20
163.19500732421875
 30
0.0
 11
126.68250274658203
 21
161.98849487304688
 31
0.0
  0
LINE
  5
156
  8
SMALL_FEATURE
 10
126.68250274658203
 20
161.98849487304688
 30
0.0
 11
138.93800354003906
 21
161.9250030517578
 31
0.0
  0
LINE
  5
157
  8
SMALL_FEATURE
 10
138.93800354003906
 20
161.9250030517578
 30
0.0
 11
138.93800354003906
 21
163.19500732421875
 31
0.0
  0
LINE
  5
158
  8
SMALL_FEATURE
 10
138.93800354003906
 20
163.19500732421875
 30
0.0
 11
137.0330047607422
 21
163.32200622558594
 31
0.0
  0
LINE
  5
159
  8
SMALL_FEATURE
 10
137.0330047607422
 20
163.32200622558594
 30
0.0
 11
136.96949768066406
 21
170.49749755859375
 31
0.0
  0
LINE
  5
15A
  8
SMALL_FEATURE
 10
136.96949768066406
 20
170.49749755859375
 30
0.0
 11
136.7790069580078
 21
163.2584991455078
 31
0.0
  0
LINE
  5
15B
  8
SMALL_FEATURE
 10
136.7790069580078
 20
163.2584991455078
 30
0.0
 11
134.23899841308594
 21
163.32200622558594
 31
0.0
  0
LINE
  5
15C
  8
SMALL_FEATURE
 10
134.23899841308594
 20
163.32200622558594
 30
0.0
 11
134.17550659179688
 21
170.49749755859375
 31
0.0
  0
LINE
  5
15D
  8
SMALL_FEATURE
 10
134.17550659179688
 20
170.49749755859375
 30
0.0
 11
134.04849243164062
 21
163.32200622558594
 31
0.0
  0
LINE
  5
15E
  8
SMALL_FEATURE
 10
134.04849243164062
 20
163.32200622558594
 30
0.0
 11
131.5084991455078
 21
163.32200622558594
 31
0.0
  0
LINE
  5
15F
  8
SMALL_FEATURE
 10
131.5084991455078
 20
163.32200622558594
 30
0.0
 11
131.44500732421875
 21
170.49749755859375
 31
0.0
  0
LINE
  5
160
  8
SMALL_FEATURE
 10
131.44500732421875
 20
170.49749755859375
 30
0.0
 11
131.3179931640625
 21
163.32200622558594
 31
0.0
  0
LINE
  5
161
  8
SMALL_FEATURE
 10
131.3179931640625
 20
163.32200622558594
 30
0.0
 11
128.8415069580078
 21
163.32200622558594
 31
0.0
  0
LINE
  5
162
  8
SMALL_FEATURE
 10
128.8415069580078
 20
163.32200622558594
 30
0.0
 11
128.90499877929688
 21
171.70399475097656
 31
0.0
  0
LINE
  5
163
  8
SMALL_FEATURE
 10
128.90499877929688
 20
171.70399475097656
 30
0.0
 11
129.79400634765625
 21
171.70399475097656
 31
0.0
  0
LINE
  5
164
  8
SMALL_FEATURE
 10
129.79400634765625
 20
171.70399475097656
 30
0.0
 11
129.8574981689453
 21
172.0850067138672
 31
0.0
  0
LINE
  5
165
  8
SMALL_FEATURE
 10
129.8574981689453
 20
172.0850067138672
 30
0.0
 11
135.82650756835938
 21
172.0850067138672
 31
0.0
  0
LINE
  5
166
  8
SMALL_FEATURE
 10
135.82650756835938
 20
172.0850067138672
 30
0.0
 11
135.88999938964844
 21
171.70399475097656
 31
0.0
  0
LINE
  5
167
  8
SMALL_FEATURE
 10
135.88999938964844
 20
171.70399475097656
 30
0.0
 11
138.74749755859375
 21
172.0850067138672
 31
0.0
  0
LINE
  5
168
  8
SMALL_FEATURE
 10
138.74749755859375
 20
172.0850067138672
 30
0.0
 11
138.81100463867188
 21
167.63999938964844
 31
0.0
  0
LINE
  5
169
  8
SMALL_FEATURE
 10
138.81100463867188
 20
167.63999938964844
 30
0.0
 11
139.00149536132812
 21
167.70350646972656
 31
0.0
  0
LINE
  5
16A
  8
SMALL_FEATURE
 10
139.00149536132812
 20
167.70350646972656
 30
0.0
 11
138.93800354003906
 21
176.0854949951172
 31
0.0
  0
LINE
  5
16B
  8
SMALL_FEATURE
 10
138.93800354003906
 20
176.0854949951172
 30
0.0
 11
138.74749755859375
 21
172.27549743652344
 31
0.0
  0
LINE
  5
16C
  8
SMALL_FEATURE
 10
138.74749755859375
 20
172.27549743652344
 30
0.0
 11
135.95350646972656
 21
172.656494140625
 31
0.0
  0
LINE
  5
16D
  8
SMALL_FEATURE
 10
135.95350646972656
 20
172.656494140625
 30
0.0
 11
135.82650756835938
 21
172.27549743652344
 31
0.0
  0
LINE
  5
16E
  8
SMALL_FEATURE
 10
135.82650756835938
 20
172.27549743652344
 30
0.0
 11
129.8574981689453
 21
172.27549743652344
 31
0.0
  0
LINE
  5
16F
  8
SMALL_FEATURE
 10
129.8574981689453
 20
172.27549743652344
 30
0.0
 11
129.79400634765625
 21
172.656494140625
 31
0.0
  0
LINE
  5
170
  8
SMALL_FEATURE
 10
129.79400634765625
 20
172.656494140625
 30
0.0
 11
126.9365005493164
 21
172.27549743652344
 31
0.0
  0
LINE
  5
171
  8
SMALL_FEATURE
 10
126.9365005493164
 20
172.27549743652344
 30
0.0
 11
126.74600219726562
 21
176.0854949951172
 31
0.0
  0
LINE
  5
172
  8
SMALL_FEATURE
 10
169.6719970703125
 20
231.20350646972656
 30
0.0
 11
172.14849853515625
 21
231.13999938964844
 31
0.0
  0
LINE
  5
173
  8
SMALL_FEATURE
 10
172.14849853515625
 20
231.13999938964844
 30
0.0
 11
171.57699584960938
 21
219.83700561523438
 31
0.0
  0
LINE
  5
174
  8
SMALL_FEATURE
 10
171.57699584960938
 20
219.83700561523438
 30
0.0
 11
169.16400146484375
 21
219.90049743652344
 31
0.0
  0
LINE
  5
175
  8
SMALL_FEATURE
 10
169.16400146484375
 20
219.90049743652344
 30
0.0
 11
169.41799926757812
 21
227.3300018310547
 31
0.0
  0
LINE
  5
176
  8
SMALL_FEATURE
 10
169.41799926757812
 20
227.3300018310547
 30
0.0
 11
169.73550415039062
 21
227.52049255371094
 31
0.0
  0
LINE
  5
177
  8
SMALL_FEATURE
 10
169.73550415039062
 20
227.52049255371094
 30
0.0
 11
169.6719970703125
 21
231.20350646972656
 31
0.0
  0
LINE
  5
178
  8
SMALL_FEATURE
 10
171.38650512695312
 20
94.36100006103516
 30
0.0
 11
174.37100219726562
 21
94.29750061035156
 31
0.0
  0
LINE
  5
179
  8
SMALL_FEATURE
 10
174.37100219726562
 20
94.29750061035156
 30
0.0
 11
174.1804962158203
 21
86.16950225830078
 31
0.0
  0
LINE
  5
17A
  8
SMALL_FEATURE
 10
174.1804962158203
 20
86.16950225830078
 30
0.0
 11
171.322998046875
 21
86.61399841308594
 31
0.0
  0
LINE
  5
17B
  8
SMALL_FEATURE
 10
171.322998046875
 20
86.61399841308594
 30
0.0
 11
171.38650512695312
 21
94.36100006103516
 31
0.0
  0
LINE
  5
17C
  8
SMALL_FEATURE
 10
117.72899627685547
 20
57.34049987792969
 30
0.0
 11
117.72899627685547
 21
54.29249954223633
 31
0.0
  0
LINE
  5
17D
  8
SMALL_FEATURE
 10
117.72899627685547
 20
54.29249954223633
 30
0.0
 11
117.3479995727539
 21
54.229000091552734
 31
0.0
  0
LINE
  5
17E
  8
SMALL_FEATURE
 10
117.3479995727539
 20
54.229000091552734
 30
0.0
 11
117.66549682617188
 21
51.371498107910156
 31
0.0
  0
LINE
  5
17F
  8
SMALL_FEATURE
 10
117.66549682617188
 20
51.371498107910156
 30
0.0
 11
112.33149719238281
 21
51.24449920654297
 31
0.0
  0
LINE
  5
180
  8
SMALL_FEATURE
 10
112.33149719238281
 20
51.24449920654297
 30
0.0
 11
115.25250244140625
 21
51.05400085449219
 31
0.0
  0
LINE
  5
181
  8
SMALL_FEATURE
 10
115.25250244140625
 20
51.05400085449219
 30
0.0
 11
115.25250244140625
 21
50.29199981689453
 31
0.0
  0
LINE
  5
182
  8
SMALL_FEATURE
 10
115.25250244140625
 20
50.29199981689453
 30
0.0
 11
114.427001953125
 21
50.165000915527344
 31
0.0
  0
LINE
  5
183
  8
SMALL_FEATURE
 10
114.427001953125
 20
50.165000915527344
 30
0.0
 11
114.427001953125
 21
48.513999938964844
 31
0.0
  0
LINE
  5
184
  8
SMALL_FEATURE
 10
114.427001953125
 20
48.513999938964844
 30
0.0
 11
115.760498046875
 21
48.132999420166016
 31
0.0
  0
LINE
  5
185
  8
SMALL_FEATURE
 10
115.760498046875
 20
48.132999420166016
 30
0.0
 11
115.760498046875
 21
47.05350112915039
 31
0.0
  0
LINE
  5
186
  8
SMALL_FEATURE
 10
115.760498046875
 20
47.05350112915039
 30
0.0
 11
114.427001953125
 21
46.9900016784668
 31
0.0
  0
LINE
  5
187
  8
SMALL_FEATURE
 10
114.427001953125
 20
46.9900016784668
 30
0.0
 11
114.74449920654297
 21
46.60900115966797
 31
0.0
  0
LINE
  5
188
  8
SMALL_FEATURE
 10
114.74449920654297
 20
46.60900115966797
 30
0.0
 11
114.68099975585938
 21
45.720001220703125
 31
0.0
  0
LINE
  5
189
  8
SMALL_FEATURE
 10
114.68099975585938
 20
45.720001220703125
 30
0.0
 11
112.33149719238281
 21
45.52949905395508
 31
0.0
  0
LINE
  5
18A
  8
SMALL_FEATURE
 10
112.33149719238281
 20
45.52949905395508
 30
0.0
 11
117.66549682617188
 21
45.465999603271484
 31
0.0
  0
LINE
  5
18B
  8
SMALL_FEATURE
 10
117.66549682617188
 20
45.465999603271484
 30
0.0
 11
117.3479995727539
 21
42.60850143432617
 31
0.0
  0
LINE
  5
18C
  8
SMALL_FEATURE
 10
117.3479995727539
 20
42.60850143432617
 30
0.0
 11
117.72899627685547
 21
42.54499816894531
 31
0.0
  0
LINE
  5
18D
  8
SMALL_FEATURE
 10
117.72899627685547
 20
42.54499816894531
 30
0.0
 11
117.85600280761719
 21
39.43349838256836
 31
0.0
  0
LINE
  5
18E
  8
SMALL_FEATURE
 10
117.85600280761719
 20
39.43349838256836
 30
0.0
 11
117.91950225830078
 21
42.54499816894531
 31
0.0
  0
LINE
  5
18F
  8
SMALL_FEATURE
 10
117.91950225830078
 20
42.54499816894531
 30
0.0
 11
118.23699951171875
 21
42.60850143432617
 31
0.0
  0
LINE
  5
190
  8
SMALL_FEATURE
 10
118.23699951171875
 20
42.60850143432617
 30
0.0
 11
117.91950225830078
 21
45.465999603271484
 31
0.0
  0
LINE
  5
191
  8
SMALL_FEATURE
 10
117.91950225830078
 20
45.465999603271484
 30
0.0
 11
121.66600036621094
 21
45.52949905395508
 31
0.0
  0
LINE
  5
192
  8
SMALL_FEATURE
 10
121.66600036621094
 20
45.52949905395508
 30
0.0
 11
117.91950225830078
 21
45.78350067138672
 31
0.0
  0
LINE
  5
193
  8
SMALL_FEATURE
 10
117.91950225830078
 20
45.78350067138672
 30
0.0
 11
117.91950225830078
 21
51.05400085449219
 31
0.0
  0
LINE
  5
194
  8
SMALL_FEATURE
 10
117.91950225830078
 20
51.05400085449219
 30
0.0
 11
121.66600036621094
 21
51.24449920654297
 31
0.0
  0
LINE
  5
195
  8
SMALL_FEATURE
 10
121.66600036621094
 20
51.24449920654297
 30
0.0
 11
117.91950225830078
 21
51.371498107910156
 31
0.0
  0
LINE
  5
196
  8
SMALL_FEATURE
 10
117.91950225830078
 20
51.371498107910156
 30
0.0
 11
118.23699951171875
 21
54.229000091552734
 31
0.0
  0
LINE
  5
197
  8
SMALL_FEATURE
 10
118.23699951171875
 20
54.229000091552734
 30
0.0
 11
117.91950225830078
 21
54.29249954223633
 31
0.0
  0
LINE
  5
198
  8
SMALL_FEATURE
 10
117.91950225830078
 20
54.29249954223633
 30
0.0
 11
117.72899627685547
 21
57.34049987792969
 31
0.0
  0
LINE
  5
199
  8
SMALL_FEATURE
 10
50.29199981689453
 20
36.06800079345703
 30
0.0
 11
51.11750030517578
 21
36.00450134277344
 31
0.0
  0
LINE
  5
19A
  8
SMALL_FEATURE
 10
51.11750030517578
 20
36.00450134277344
 30
0.0
 11
52.06999969482422
 21
33.14699935913086
 31
0.0
  0
LINE
  5
19B
  8
SMALL_FEATURE
 10
52.06999969482422
 20
33.14699935913086
 30
0.0
 11
54.99100112915039
 21
28.13050079345703
 31
0.0
  0
LINE
  5
19C
  8
SMALL_FEATURE
 10
54.99100112915039
 20
28.13050079345703
 30
0.0
 11
54.9275016784668
 21
27.30500030517578
 31
0.0
  0
LINE
  5
19D
  8
SMALL_FEATURE
 10
54.9275016784668
 20
27.30500030517578
 30
0.0
 11
53.2130012512207
 21
27.30500030517578
 31
0.0
  0
LINE
  5
19E
  8
SMALL_FEATURE
 10
53.2130012512207
 20
27.30500030517578
 30
0.0
 11
53.14950180053711
 21
27.68600082397461
 31
0.0
  0
LINE
  5
19F
  8
SMALL_FEATURE
 10
53.14950180053711
 20
27.68600082397461
 30
0.0
 11
50.22850036621094
 21
27.43199920654297
 31
0.0
  0
LINE
  5
1A0
  8
SMALL_FEATURE
 10
50.22850036621094
 20
27.43199920654297
 30
0.0
 11
50.29199981689453
 21
36.06800079345703
 31
0.0
  0
LINE
  5
1A1
  8
SMALL_FEATURE
 10
170.05299377441406
 20
240.093505859375
 30
0.0
 11
172.5294952392578
 21
240.02999877929688
 31
0.0
  0
LINE
  5
1A2
  8
SMALL_FEATURE
 10
172.5294952392578
 20
240.02999877929688
 30
0.0
 11
172.0850067138672
 21
231.3939971923828
 31
0.0
  0
LINE
  5
1A3
  8
SMALL_FEATURE
 10
172.0850067138672
 20
231.3939971923828
 30
0.0
 11
169.60850524902344
 21
231.45750427246094
 31
0.0
  0
LINE
  5
1A4
  8
SMALL_FEATURE
 10
169.60850524902344
 20
231.45750427246094
 30
0.0
 11
170.05299377441406
 21
240.093505859375
 31
0.0
  0
LINE
  5
1A5
  8
SMALL_FEATURE
 10
125.85700225830078
 20
35.6870002746582
 30
0.0
 11
125.92050170898438
 21
27.43199920654297
 31
0.0
  0
LINE
  5
1A6
  8
SMALL_FEATURE
 10
125.92050170898438
 20
27.43199920654297
 30
0.0
 11
122.99949645996094
 21
27.68600082397461
 31
0.0
  0
LINE
  5
1A7
  8
SMALL_FEATURE
 10
122.99949645996094
 20
27.68600082397461
 30
0.0
 11
122.93599700927734
 21
27.30500030517578
 31
0.0
  0
LINE
  5
1A8
  8
SMALL_FEATURE
 10
122.93599700927734
 20
27.30500030517578
 30
0.0
 11
121.28500366210938
 21
27.30500030517578
 31
0.0
  0
LINE
  5
1A9
  8
SMALL_FEATURE
 10
121.28500366210938
 20
27.30500030517578
 30
0.0
 11
121.22149658203125
 21
28.13050079345703
 31
0.0
  0
LINE
  5
1AA
  8
SMALL_FEATURE
 10
121.22149658203125
 20
28.13050079345703
 30
0.0
 11
123.44400024414062
 21
31.686500549316406
 31
0.0
  0
LINE
  5
1AB
  8
SMALL_FEATURE
 10
123.44400024414062
 20
31.686500549316406
 30
0.0
 11
125.03150177001953
 21
35.62350082397461
 31
0.0
  0
LINE
  5
1AC
  8
SMALL_FEATURE
 10
125.03150177001953
 20
35.62350082397461
 30
0.0
 11
125.85700225830078
 21
35.6870002746582
 31
0.0
  0
LINE
  5
1AD
  8
SMALL_FEATURE
 10
171.4499969482422
 20
102.93350219726562
 30
0.0
 11
173.22799682617188
 21
102.87000274658203
 31
0.0
  0
LINE
  5
1AE
  8
SMALL_FEATURE
 10
173.22799682617188
 20
102.87000274658203
 30
0.0
 11
174.1804962158203
 21
97.66300201416016
 31
0.0
  0
LINE
  5
1AF
  8
SMALL_FEATURE
 10
174.1804962158203
 20
97.66300201416016
 30
0.0
 11
174.11700439453125
 21
96.64700317382812
 31
0.0
  0
LINE
  5
1B0
  8
SMALL_FEATURE
 10
174.11700439453125
 20
96.64700317382812
 30
0.0
 11
171.25950622558594
 21
96.77400207519531
 31
0.0
  0
LINE
  5
1B1
  8
SMALL_FEATURE
 10
171.25950622558594
 20
96.77400207519531
 30
0.0
 11
171.0054931640625
 21
99.05999755859375
 31
0.0
  0
LINE
  5
1B2
  8
SMALL_FEATURE
 10
171.0054931640625
 20
99.05999755859375
 30
0.0
 11
171.38650512695312
 21
99.12349700927734
 31
0.0
  0
LINE
  5
1B3
  8
SMALL_FEATURE
 10
171.38650512695312
 20
99.12349700927734
 30
0.0
 11
171.4499969482422
 21
102.93350219726562
 31
0.0
  0
LINE
  5
1B4
  8
SMALL_FEATURE
 10
153.41600036621094
 20
15.621000289916992
 30
0.0
 11
153.47950744628906
 21
15.049500465393066
 31
0.0
  0
LINE
  5
1B5
  8
SMALL_FEATURE
 10
153.47950744628906
 20
15.049500465393066
 30
0.0
 11
153.9875030517578
 21
14.668499946594238
 31
0.0
  0
LINE
  5
1B6
  8
SMALL_FEATURE
 10
153.9875030517578
 20
14.668499946594238
 30
0.0
 11
155.19400024414062
 21
14.922499656677246
 31
0.0
  0
LINE
  5
1B7
  8
SMALL_FEATURE
 10
155.19400024414062
 20
14.922499656677246
 30
0.0
 11
161.67100524902344
 21
14.859000205993652
 31
0.0
  0
LINE
  5
1B8
  8
SMALL_FEATURE
 10
161.67100524902344
 20
14.859000205993652
 30
0.0
 11
162.3695068359375
 21
14.541500091552734
 31
0.0
  0
LINE
  5
1B9
  8
SMALL_FEATURE
 10
162.3695068359375
 20
14.541500091552734
 30
0.0
 11
162.3695068359375
 21
14.859000205993652
 31
0.0
  0
LINE
  5
1BA
  8
SMALL_FEATURE
 10
162.3695068359375
 20
14.859000205993652
 30
0.0
 11
161.79800415039062
 21
14.986000061035156
 31
0.0
  0
LINE
  5
1BB
  8
SMALL_FEATURE
 10
161.79800415039062
 20
14.986000061035156
 30
0.0
 11
161.35350036621094
 21
16.1924991607666
 31
0.0
  0
LINE
  5
1BC
  8
SMALL_FEATURE
 10
161.35350036621094
 20
16.1924991607666
 30
0.0
 11
154.62249755859375
 21
16.00200080871582
 31
0.0
  0
LINE
  5
1BD
  8
SMALL_FEATURE
 10
154.62249755859375
 20
16.00200080871582
 30
0.0
 11
153.9875030517578
 21
16.256000518798828
 31
0.0
  0
LINE
  5
1BE
  8
SMALL_FEATURE
 10
153.9875030517578
 20
16.256000518798828
 30
0.0
 11
153.41600036621094
 21
15.621000289916992
 31
0.0
  0
LINE
  5
1BF
  8
SMALL_FEATURE
 10
115.63349914550781
 20
51.11750030517578
 30
0.0
 11
117.72899627685547
 21
51.05400085449219
 31
0.0
  0
LINE
  5
1C0
  8
SMALL_FEATURE
 10
117.72899627685547
 20
51.05400085449219
 30
0.0
 11
117.66549682617188
 21
45.720001220703125
 31
0.0
  0
LINE
  5
1C1
  8
SMALL_FEATURE
 10
117.66549682617188
 20
45.720001220703125
 30
0.0
 11
114.80799865722656
 21
45.78350067138672
 31
0.0
  0
LINE
  5
1C2
  8
SMALL_FEATURE
 10
114.80799865722656
 20
45.78350067138672
 30
0.0
 11
114.80799865722656
 21
46.79949951171875
 31
0.0
  0
LINE
  5
1C3
  8
SMALL_FEATURE
 10
114.80799865722656
 20
46.79949951171875
 30
0.0
 11
115.88749694824219
 21
46.862998962402344
 31
0.0
  0
LINE
  5
1C4
  8
SMALL_FEATURE
 10
115.88749694824219
 20
46.862998962402344
 30
0.0
 11
115.88749694824219
 21
47.625
 31
0.0
  0
LINE
  5
1C5
  8
SMALL_FEATURE
 10
115.88749694824219
 20
47.625
 30
0.0
 11
116.20500183105469
 21
47.688499450683594
 31
0.0
  0
LINE
  5
1C6
  8
SMALL_FEATURE
 10
116.20500183105469
 20
47.688499450683594
 30
0.0
 11
115.95099639892578
 21
47.87900161743164
 31
0.0
  0
LINE
  5
1C7
  8
SMALL_FEATURE
 10
115.95099639892578
 20
47.87900161743164
 30
0.0
 11
115.63349914550781
 21
51.11750030517578
 31
0.0
  0
LINE
  5
1C8
  8
SMALL_FEATURE
 10
166.3699951171875
 20
27.30500030517578
 30
0.0
 11
166.11599731445312
 21
28.765499114990234
 31
0.0
  0
LINE
  5
1C9
  8
SMALL_FEATURE
 10
166.11599731445312
 20
28.765499114990234
 30
0.0
 11
161.16299438476562
 21
28.765499114990234
 31
0.0
  0
LINE
  5
1CA
  8
SMALL_FEATURE
 10
161.16299438476562
 20
28.765499114990234
 30
0.0
 11
161.09950256347656
 21
27.622499465942383
 31
0.0
  0
LINE
  5
1CB
  8
SMALL_FEATURE
 10
161.09950256347656
 20
27.622499465942383
 30
0.0
 11
160.2740020751953
 21
27.68600082397461
 31
0.0
  0
LINE
  5
1CC
  8
SMALL_FEATURE
 10
160.2740020751953
 20
27.68600082397461
 30
0.0
 11
160.2740020751953
 21
28.765499114990234
 31
0.0
  0
LINE
  5
1CD
  8
SMALL_FEATURE
 10
160.2740020751953
 20
28.765499114990234
 30
0.0
 11
158.9405059814453
 21
28.765499114990234
 31
0.0
  0
LINE
  5
1CE
  8
SMALL_FEATURE
 10
158.9405059814453
 20
28.765499114990234
 30
0.0
 11
158.49600219726562
 21
28.25749969482422
 31
0.0
  0
LINE
  5
1CF
  8
SMALL_FEATURE
 10
158.49600219726562
 20
28.25749969482422
 30
0.0
 11
158.5594940185547
 21
27.55900001525879
 31
0.0
  0
LINE
  5
1D0
  8
SMALL_FEATURE
 10
158.5594940185547
 20
27.55900001525879
 30
0.0
 11
158.9405059814453
 21
27.241500854492188
 31
0.0
  0
LINE
  5
1D1
  8
SMALL_FEATURE
 10
158.9405059814453
 20
27.241500854492188
 30
0.0
 11
166.3699951171875
 21
27.30500030517578
 31
0.0
  0
LINE
  5
1D2
  8
SMALL_FEATURE
 10
122.55500030517578
 20
180.84800720214844
 30
0.0
 11
125.66649627685547
 21
180.7209930419922
 31
0.0
  0
LINE
  5
1D3
  8
SMALL_FEATURE
 10
125.66649627685547
 20
180.7209930419922
 30
0.0
 11
125.7300033569336
 21
180.33999633789062
 31
0.0
  0
LINE
  5
1D4
  8
SMALL_FEATURE
 10
125.7300033569336
 20
180.33999633789062
 30
0.0
 11
128.58749389648438
 21
180.7209930419922
 31
0.0
  0
LINE
  5
1D5
  8
SMALL_FEATURE
 10
128.58749389648438
 20
180.7209930419922
 30
0.0
 11
128.6510009765625
 21
175.57749938964844
 31
0.0
  0
LINE
  5
1D6
  8
SMALL_FEATURE
 10
128.6510009765625
 20
175.57749938964844
 30
0.0
 11
128.90499877929688
 21
180.7209930419922
 31
0.0
  0
LINE
  5
1D7
  8
SMALL_FEATURE
 10
128.90499877929688
 20
180.7209930419922
 30
0.0
 11
136.7790069580078
 21
180.7209930419922
 31
0.0
  0
LINE
  5
1D8
  8
SMALL_FEATURE
 10
136.7790069580078
 20
180.7209930419922
 30
0.0
 11
136.906005859375
 21
174.8155059814453
 31
0.0
  0
LINE
  5
1D9
  8
SMALL_FEATURE
 10
136.906005859375
 20
174.8155059814453
 30
0.0
 11
137.09649658203125
 21
180.7209930419922
 31
0.0
  0
LINE
  5
1DA
  8
SMALL_FEATURE
 10
137.09649658203125
 20
180.7209930419922
 30
0.0
 11
139.95399475097656
 21
180.33999633789062
 31
0.0
  0
LINE
  5
1DB
  8
SMALL_FEATURE
 10
139.95399475097656
 20
180.33999633789062
 30
0.0
 11
140.0175018310547
 21
180.7209930419922
 31
0.0
  0
LINE
  5
1DC
  8
SMALL_FEATURE
 10
140.0175018310547
 20
180.7209930419922
 30
0.0
 11
143.0019989013672
 21
180.7845001220703
 31
0.0
  0
LINE
  5
1DD
  8
SMALL_FEATURE
 10
143.0019989013672
 20
180.7845001220703
 30
0.0
 11
140.0175018310547
 21
180.9114990234375
 31
0.0
  0
LINE
  5
1DE
  8
SMALL_FEATURE
 10
140.0175018310547
 20
180.9114990234375
 30
0.0
 11
139.95399475097656
 21
181.29249572753906
 31
0.0
  0
LINE
  5
1DF
  8
SMALL_FEATURE
 10
139.95399475097656
 20
181.29249572753906
 30
0.0
 11
137.09649658203125
 21
180.9114990234375
 31
0.0
  0
LINE
  5
1E0
  8
SMALL_FEATURE
 10
137.09649658203125
 20
180.9114990234375
 30
0.0
 11
136.96949768066406
 21
184.72149658203125
 31
0.0
  0
LINE
  5
1E1
  8
SMALL_FEATURE
 10
136.96949768066406
 20
184.72149658203125
 30
0.0
 11
136.7790069580078
 21
180.9114990234375
 31
0.0
  0
LINE
  5
1E2
  8
SMALL_FEATURE
 10
136.7790069580078
 20
180.9114990234375
 30
0.0
 11
128.90499877929688
 21
180.9114990234375
 31
0.0
  0
LINE
  5
1E3
  8
SMALL_FEATURE
 10
128.90499877929688
 20
180.9114990234375
 30
0.0
 11
128.71449279785156
 21
184.72149658203125
 31
0.0
  0
LINE
  5
1E4
  8
SMALL_FEATURE
 10
128.71449279785156
 20
184.72149658203125
 30
0.0
 11
128.58749389648438
 21
180.9114990234375
 31
0.0
  0
LINE
  5
1E5
  8
SMALL_FEATURE
 10
128.58749389648438
 20
180.9114990234375
 30
0.0
 11
125.7300033569336
 21
181.29249572753906
 31
0.0
  0
LINE
  5
1E6
  8
SMALL_FEATURE
 10
125.7300033569336
 20
181.29249572753906
 30
0.0
 11
125.66649627685547
 21
180.9114990234375
 31
0.0
  0
LINE
  5
1E7
  8
SMALL_FEATURE
 10
125.66649627685547
 20
180.9114990234375
 30
0.0
 11
122.55500030517578
 21
180.84800720214844
 31
0.0
  0
LINE
  5
1E8
  8
SMALL_FEATURE
 10
153.7969970703125
 20
259.5880126953125
 30
0.0
 11
153.7969970703125
 21
250.95199584960938
 31
0.0
  0
LINE
  5
1E9
  8
SMALL_FEATURE
 10
153.7969970703125
 20
250.95199584960938
 30
0.0
 11
154.05099487304688
 21
255.6510009765625
 31
0.0
  0
LINE
  5
1EA
  8
SMALL_FEATURE
 10
154.05099487304688
 20
255.6510009765625
 30
0.0
 11
156.781494140625
 21
255.27000427246094
 31
0.0
  0
LINE
  5
1EB
  8
SMALL_FEATURE
 10
156.781494140625
 20
255.27000427246094
 30
0.0
 11
156.9720001220703
 21
255.6510009765625
 31
0.0
  0
LINE
  5
1EC
  8
SMALL_FEATURE
 10
156.9720001220703
 20
255.6510009765625
 30
0.0
 11
169.8625030517578
 21
255.6510009765625
 31
0.0
  0
LINE
  5
1ED
  8
SMALL_FEATURE
 10
169.8625030517578
 20
255.6510009765625
 30
0.0
 11
169.92599487304688
 21
255.27000427246094
 31
0.0
  0
LINE
  5
1EE
  8
SMALL_FEATURE
 10
169.92599487304688
 20
255.27000427246094
 30
0.0
 11
172.7834930419922
 21
255.6510009765625
 31
0.0
  0
LINE
  5
1EF
  8
SMALL_FEATURE
 10
172.7834930419922
 20
255.6510009765625
 30
0.0
 11
172.8470001220703
 21
250.95199584960938
 31
0.0
  0
LINE
  5
1F0
  8
SMALL_FEATURE
 10
172.8470001220703
 20
250.95199584960938
 30
0.0
 11
173.03750610351562
 21
251.0155029296875
 31
0.0
  0
LINE
  5
1F1
  8
SMALL_FEATURE
 10
173.03750610351562
 20
251.0155029296875
 30
0.0
 11
172.9739990234375
 21
259.6514892578125
 31
0.0
  0
LINE
  5
1F2
  8
SMALL_FEATURE
 10
172.9739990234375
 20
259.6514892578125
 30
0.0
 11
172.7834930419922
 21
255.8415069580078
 31
0.0
  0
LINE
  5
1F3
  8
SMALL_FEATURE
 10
172.7834930419922
 20
255.8415069580078
 30
0.0
 11
169.989501953125
 21
256.2225036621094
 31
0.0
  0
LINE
  5
1F4
  8
SMALL_FEATURE
 10
169.989501953125
 20
256.2225036621094
 30
0.0
 11
169.8625030517578
 21
255.8415069580078
 31
0.0
  0
LINE
  5
1F5
  8
SMALL_FEATURE
 10
169.8625030517578
 20
255.8415069580078
 30
0.0
 11
156.9720001220703
 21
255.8415069580078
 31
0.0
  0
LINE
  5
1F6
  8
SMALL_FEATURE
 10
156.9720001220703
 20
255.8415069580078
 30
0.0
 11
156.84500122070312
 21
256.2225036621094
 31
0.0
  0
LINE
  5
1F7
  8
SMALL_FEATURE
 10
156.84500122070312
 20
256.2225036621094
 30
0.0
 11
154.05099487304688
 21
255.8415069580078
 31
0.0
  0
LINE
  5
1F8
  8
SMALL_FEATURE
 10
154.05099487304688
 20
255.8415069580078
 30
0.0
 11
153.7969970703125
 21
259.5880126953125
 31
0.0
  0
LINE
  5
1F9
  8
SMALL_FEATURE
 10
184.531005859375
 20
92.07499694824219
 30
0.0
 11
184.46749877929688
 21
90.3604965209961
 31
0.0
  0
LINE
  5
1FA
  8
SMALL_FEATURE
 10
184.46749877929688
 20
90.3604965209961
 30
0.0
 11
185.03900146484375
 21
89.59850311279297
 31
0.0
  0
LINE
  5
1FB
  8
SMALL_FEATURE
 10
185.03900146484375
 20
89.59850311279297
 30
0.0
 11
186.8804931640625
 21
90.04299926757812
 31
0.0
  0
LINE
  5
1FC
  8
SMALL_FEATURE
 10
186.8804931640625
 20
90.04299926757812
 30
0.0
 11
187.00750732421875
 21
89.0270004272461
 31
0.0
  0
LINE
  5
1FD
  8
SMALL_FEATURE
 10
187.00750732421875
 20
89.0270004272461
 30
0.0
 11
187.3885040283203
 21
89.85250091552734
 31
0.0
  0
LINE
  5
1FE
  8
SMALL_FEATURE
 10
187.3885040283203
 20
89.85250091552734
 30
0.0
 11
189.22999572753906
 21
89.59850311279297
 31
0.0
  0
LINE
  5
1FF
  8
SMALL_FEATURE
 10
189.22999572753906
 20
89.59850311279297
 30
0.0
 11
189.80149841308594
 21
90.10649871826172
 31
0.0
  0
LINE
  5
200
  8
SMALL_FEATURE
 10
189.80149841308594
 20
90.10649871826172
 30
0.0
 11
189.73800659179688
 21
92.13849639892578
 31
0.0
  0
LINE
  5
201
  8
SMALL_FEATURE
 10
189.73800659179688
 20
92.13849639892578
 30
0.0
 11
189.35699462890625
 21
92.58300018310547
 31
0.0
  0
LINE
  5
202
  8
SMALL_FEATURE
 10
189.35699462890625
 20
92.58300018310547
 30
0.0
 11
188.4044952392578
 21
92.58300018310547
 31
0.0
  0
LINE
  5
203
  8
SMALL_FEATURE
 10
188.4044952392578
 20
92.58300018310547
 30
0.0
 11
187.9600067138672
 21
91.8844985961914
 31
0.0
  0
LINE
  5
204
  8
SMALL_FEATURE
 10
187.9600067138672
 20
91.8844985961914
 30
0.0
 11
188.6584930419922
 21
91.75749969482422
 31
0.0
  0
LINE
  5
205
  8
SMALL_FEATURE
 10
188.6584930419922
 20
91.75749969482422
 30
0.0
 11
188.7220001220703
 21
91.05899810791016
 31
0.0
  0
LINE
  5
206
  8
SMALL_FEATURE
 10
188.7220001220703
 20
91.05899810791016
 30
0.0
 11
189.42050170898438
 21
90.86849975585938
 31
0.0
  0
LINE
  5
207
  8
SMALL_FEATURE
 10
189.42050170898438
 20
90.86849975585938
 30
0.0
 11
189.22999572753906
 21
89.91600036621094
 31
0.0
  0
LINE
  5
208
  8
SMALL_FEATURE
 10
189.22999572753906
 20
89.91600036621094
 30
0.0
 11
188.46800231933594
 21
89.91600036621094
 31
0.0
  0
LINE
  5
209
  8
SMALL_FEATURE
 10
188.46800231933594
 20
89.91600036621094
 30
0.0
 11
188.27749633789062
 21
90.48750305175781
 31
0.0
  0
LINE
  5
20A
  8
SMALL_FEATURE
 10
188.27749633789062
 20
90.48750305175781
 30
0.0
 11
187.89649963378906
 21
90.48750305175781
 31
0.0
  0
LINE
  5
20B
  8
SMALL_FEATURE
 10
187.89649963378906
 20
90.48750305175781
 30
0.0
 11
187.83299255371094
 21
90.04299926757812
 31
0.0
  0
LINE
  5
20C
  8
SMALL_FEATURE
 10
187.83299255371094
 20
90.04299926757812
 30
0.0
 11
186.37249755859375
 21
90.04299926757812
 31
0.0
  0
LINE
  5
20D
  8
SMALL_FEATURE
 10
186.37249755859375
 20
90.04299926757812
 30
0.0
 11
185.9915008544922
 21
92.39250183105469
 31
0.0
  0
LINE
  5
20E
  8
SMALL_FEATURE
 10
185.9915008544922
 20
92.39250183105469
 30
0.0
 11
185.1024932861328
 21
92.64649963378906
 31
0.0
  0
LINE
  5
20F
  8
SMALL_FEATURE
 10
185.1024932861328
 20
92.64649963378906
 30
0.0
 11
184.531005859375
 21
92.07499694824219
 31
0.0
  0
LINE
  5
210
  8
SMALL_FEATURE
 10
186.56300354003906
 20
115.760498046875
 30
0.0
 11
185.9915008544922
 21
115.25250244140625
 31
0.0
  0
LINE
  5
211
  8
SMALL_FEATURE
 10
185.9915008544922
 20
115.25250244140625
 30
0.0
 11
186.43600463867188
 21
113.41100311279297
 31
0.0
  0
LINE
  5
212
  8
SMALL_FEATURE
 10
186.43600463867188
 20
113.41100311279297
 30
0.0
 11
185.4199981689453
 21
113.34750366210938
 31
0.0
  0
LINE
  5
213
  8
SMALL_FEATURE
 10
185.4199981689453
 20
113.34750366210938
 30
0.0
 11
186.24549865722656
 21
112.90299987792969
 31
0.0
  0
LINE
  5
214
  8
SMALL_FEATURE
 10
186.24549865722656
 20
112.90299987792969
 30
0.0
 11
185.9915008544922
 21
111.0615005493164
 31
0.0
  0
LINE
  5
215
  8
SMALL_FEATURE
 10
185.9915008544922
 20
111.0615005493164
 30
0.0
 11
186.49949645996094
 21
110.48999786376953
 31
0.0
  0
LINE
  5
216
  8
SMALL_FEATURE
 10
186.49949645996094
 20
110.48999786376953
 30
0.0
 11
188.531494140625
 21
110.55349731445312
 31
0.0
  0
LINE
  5
217
  8
SMALL_FEATURE
 10
188.531494140625
 20
110.55349731445312
 30
0.0
 11
189.0395050048828
 21
111.125
 31
0.0
  0
LINE
  5
218
  8
SMALL_FEATURE
 10
189.0395050048828
 20
111.125
 30
0.0
 11
189.0395050048828
 21
111.69650268554688
 31
0.0
  0
LINE
  5
219
  8
SMALL_FEATURE
 10
189.0395050048828
 20
111.69650268554688
 30
0.0
 11
188.27749633789062
 21
112.33149719238281
 31
0.0
  0
LINE
  5
21A
  8
SMALL_FEATURE
 10
188.27749633789062
 20
112.33149719238281
 30
0.0
 11
188.15049743652344
 21
111.63300323486328
 31
0.0
  0
LINE
  5
21B
  8
SMALL_FEATURE
 10
188.15049743652344
 20
111.63300323486328
 30
0.0
 11
187.45199584960938
 21
111.56950378417969
 31
0.0
  0
LINE
  5
21C
  8
SMALL_FEATURE
 10
187.45199584960938
 20
111.56950378417969
 30
0.0
 11
187.26150512695312
 21
110.87100219726562
 31
0.0
  0
LINE
  5
21D
  8
SMALL_FEATURE
 10
187.26150512695312
 20
110.87100219726562
 30
0.0
 11
186.3090057373047
 21
111.0615005493164
 31
0.0
  0
LINE
  5
21E
  8
SMALL_FEATURE
 10
186.3090057373047
 20
111.0615005493164
 30
0.0
 11
186.3090057373047
 21
111.82350158691406
 31
0.0
  0
LINE
  5
21F
  8
SMALL_FEATURE
 10
186.3090057373047
 20
111.82350158691406
 30
0.0
 11
186.8804931640625
 21
112.01399993896484
 31
0.0
  0
LINE
  5
220
  8
SMALL_FEATURE
 10
186.8804931640625
 20
112.01399993896484
 30
0.0
 11
186.8804931640625
 21
112.3949966430664
 31
0.0
  0
LINE
  5
221
  8
SMALL_FEATURE
 10
186.8804931640625
 20
112.3949966430664
 30
0.0
 11
186.43600463867188
 21
112.45850372314453
 31
0.0
  0
LINE
  5
222
  8
SMALL_FEATURE
 10
186.43600463867188
 20
112.45850372314453
 30
0.0
 11
186.43600463867188
 21
113.91899871826172
 31
0.0
  0
LINE
  5
223
  8
SMALL_FEATURE
 10
186.43600463867188
 20
113.91899871826172
 30
0.0
 11
188.4044952392578
 21
114.1094970703125
 31
0.0
  0
LINE
  5
224
  8
SMALL_FEATURE
 10
188.4044952392578
 20
114.1094970703125
 30
0.0
 11
188.9759979248047
 21
114.55400085449219
 31
0.0
  0
LINE
  5
225
  8
SMALL_FEATURE
 10
188.9759979248047
 20
114.55400085449219
 30
0.0
 11
189.0395050048828
 21
115.18900299072266
 31
0.0
  0
LINE
  5
226
  8
SMALL_FEATURE
 10
189.0395050048828
 20
115.18900299072266
 30
0.0
 11
188.27749633789062
 21
115.8239974975586
 31
0.0
  0
LINE
  5
227
  8
SMALL_FEATURE
 10
188.27749633789062
 20
115.8239974975586
 30
0.0
 11
186.56300354003906
 21
115.760498046875
 31
0.0
  0
LINE
  5
228
  8
SMALL_FEATURE
 10
145.79600524902344
 20
240.60150146484375
 30
0.0
 11
149.54249572753906
 21
240.34750366210938
 31
0.0
  0
LINE
  5
229
  8
SMALL_FEATURE
 10
149.54249572753906
 20
240.34750366210938
 30
0.0
 11
149.1614990234375
 21
237.55349731445312
 31
0.0
  0
LINE
  5
22A
  8
SMALL_FEATURE
 10
149.1614990234375
 20
237.55349731445312
 30
0.0
 11
149.54249572753906
 21
237.42649841308594
 31
0.0
  0
LINE
  5
22B
  8
SMALL_FEATURE
 10
149.54249572753906
 20
237.42649841308594
 30
0.0
 11
149.54249572753906
 21
222.6945037841797
 31
0.0
  0
LINE
  5
22C
  8
SMALL_FEATURE
 10
149.54249572753906
 20
222.6945037841797
 30
0.0
 11
149.1614990234375
 21
222.63099670410156
 31
0.0
  0
LINE
  5
22D
  8
SMALL_FEATURE
 10
149.1614990234375
 20
222.63099670410156
 30
0.0
 11
149.54249572753906
 21
219.77349853515625
 31
0.0
  0
LINE
  5
22E
  8
SMALL_FEATURE
 10
149.54249572753906
 20
219.77349853515625
 30
0.0
 11
145.7324981689453
 21
219.58299255371094
 31
0.0
  0
LINE
  5
22F
  8
SMALL_FEATURE
 10
145.7324981689453
 20
219.58299255371094
 30
0.0
 11
153.22549438476562
 21
219.51950073242188
 31
0.0
  0
LINE
  5
230
  8
SMALL_FEATURE
 10
153.22549438476562
 20
219.51950073242188
 30
0.0
 11
149.73300170898438
 21
219.77349853515625
 31
0.0
  0
LINE
  5
231
  8
SMALL_FEATURE
 10
149.73300170898438
 20
219.77349853515625
 30
0.0
 11
150.11399841308594
 21
222.50399780273438
 31
0.0
  0
LINE
  5
232
  8
SMALL_FEATURE
 10
150.11399841308594
 20
222.50399780273438
 30
0.0
 11
149.73300170898438
 21
222.6945037841797
 31
0.0
  0
LINE
  5
233
  8
SMALL_FEATURE
 10
149.73300170898438
 20
222.6945037841797
 30
0.0
 11
149.73300170898438
 21
237.42649841308594
 31
0.0
  0
LINE
  5
234
  8
SMALL_FEATURE
 10
149.73300170898438
 20
237.42649841308594
 30
0.0
 11
150.11399841308594
 21
237.49000549316406
 31
0.0
  0
LINE
  5
235
  8
SMALL_FEATURE
 10
150.11399841308594
 20
237.49000549316406
 30
0.0
 11
149.73300170898438
 21
240.34750366210938
 31
0.0
  0
LINE
  5
236
  8
SMALL_FEATURE
 10
149.73300170898438
 20
240.34750366210938
 30
0.0
 11
152.52699279785156
 21
240.53799438476562
 31
0.0
  0
LINE
  5
237
  8
SMALL_FEATURE
 10
152.52699279785156
 20
240.53799438476562
 30
0.0
 11
145.79600524902344
 21
240.60150146484375
 31
0.0
  0
LINE
  5
238
  8
SMALL_FEATURE
 10
171.95799255371094
 20
141.0970001220703
 30
0.0
 11
172.46600341796875
 21
139.63650512695312
 31
0.0
  0
LINE
  5
239
  8
SMALL_FEATURE
 10
172.46600341796875
 20
139.63650512695312
 30
0.0
 11
177.99049377441406
 21
139.63650512695312
 31
0.0
  0
LINE
  5
23A
  8
SMALL_FEATURE
 10
177.99049377441406
 20
139.63650512695312
 30
0.0
 11
177.4824981689453
 21
141.0970001220703
 31
0.0
  0
LINE
  5
23B
  8
SMALL_FEATURE
 10
177.4824981689453
 20
141.0970001220703
 30
0.0
 11
171.95799255371094
 21
141.0970001220703
 31
0.0
  0
LINE
  5
23C
  8
SMALL_FEATURE
 10
157.2895050048828
 20
203.77149963378906
 30
0.0
 11
157.2895050048828
 21
193.9290008544922
 31
0.0
  0
LINE
  5
23D
  8
SMALL_FEATURE
 10
157.2895050048828
 20
193.9290008544922
 30
0.0
 11
157.47999572753906
 21
197.73899841308594
 31
0.0
  0
LINE
  5
23E
  8
SMALL_FEATURE
 10
157.47999572753906
 20
197.73899841308594
 30
0.0
 11
160.2740020751953
 21
197.35800170898438
 31
0.0
  0
LINE
  5
23F
  8
SMALL_FEATURE
 10
160.2740020751953
 20
197.35800170898438
 30
0.0
 11
160.4010009765625
 21
197.73899841308594
 31
0.0
  0
LINE
  5
240
  8
SMALL_FEATURE
 10
160.4010009765625
 20
197.73899841308594
 30
0.0
 11
166.3699951171875
 21
197.73899841308594
 31
0.0
  0
LINE
  5
241
  8
SMALL_FEATURE
 10
166.3699951171875
 20
197.73899841308594
 30
0.0
 11
166.43350219726562
 21
197.35800170898438
 31
0.0
  0
LINE
  5
242
  8
SMALL_FEATURE
 10
166.43350219726562
 20
197.35800170898438
 30
0.0
 11
169.29100036621094
 21
197.73899841308594
 31
0.0
  0
LINE
  5
243
  8
SMALL_FEATURE
 10
169.29100036621094
 20
197.73899841308594
 30
0.0
 11
169.5449981689453
 21
193.99249267578125
 31
0.0
  0
LINE
  5
244
  8
SMALL_FEATURE
 10
169.5449981689453
 20
193.99249267578125
 30
0.0
 11
169.48150634765625
 21
203.77149963378906
 31
0.0
  0
LINE
  5
245
  8
SMALL_FEATURE
 10
169.48150634765625
 20
203.77149963378906
 30
0.0
 11
169.29100036621094
 21
197.92950439453125
 31
0.0
  0
LINE
  5
246
  8
SMALL_FEATURE
 10
169.29100036621094
 20
197.92950439453125
 30
0.0
 11
166.4969940185547
 21
198.3105010986328
 31
0.0
  0
LINE
  5
247
  8
SMALL_FEATURE
 10
166.4969940185547
 20
198.3105010986328
 30
0.0
 11
166.3699951171875
 21
197.92950439453125
 31
0.0
  0
LINE
  5
248
  8
SMALL_FEATURE
 10
166.3699951171875
 20
197.92950439453125
 30
0.0
 11
160.4010009765625
 21
197.92950439453125
 31
0.0
  0
LINE
  5
249
  8
SMALL_FEATURE
 10
160.4010009765625
 20
197.92950439453125
 30
0.0
 11
160.33749389648438
 21
198.3105010986328
 31
0.0
  0
LINE
  5
24A
  8
SMALL_FEATURE
 10
160.33749389648438
 20
198.3105010986328
 30
0.0
 11
157.47999572753906
 21
197.92950439453125
 31
0.0
  0
LINE
  5
24B
  8
SMALL_FEATURE
 10
157.47999572753906
 20
197.92950439453125
 30
0.0
 11
157.2895050048828
 21
203.77149963378906
 31
0.0
  0
LINE
  5
24C
  8
SMALL_FEATURE
 10
131.1909942626953
 20
15.049500465393066
 30
0.0
 11
132.46099853515625
 21
14.986000061035156
 31
0.0
  0
LINE
  5
24D
  8
SMALL_FEATURE
 10
132.46099853515625
 20
14.986000061035156
 30
0.0
 11
132.3975067138672
 21
9.39799976348877
 31
0.0
  0
LINE
  5
24E
  8
SMALL_FEATURE
 10
132.3975067138672
 20
9.39799976348877
 30
0.0
 11
131.12750244140625
 21
9.46150016784668
 31
0.0
  0
LINE
  5
24F
  8
SMALL_FEATURE
 10
131.12750244140625
 20
9.46150016784668
 30
0.0
 11
131.1909942626953
 21
15.049500465393066
 31
0.0
  0
LINE
  5
250
  8
SMALL_FEATURE
 10
149.98699951171875
 20
146.11349487304688
 30
0.0
 11
154.49549865722656
 21
139.6999969482422
 31
0.0
  0
LINE
  5
251
  8
SMALL_FEATURE
 10
154.49549865722656
 20
139.6999969482422
 30
0.0
 11
154.5590057373047
 21
138.81100463867188
 31
0.0
  0
LINE
  5
252
  8
SMALL_FEATURE
 10
154.5590057373047
 20
138.81100463867188
 30
0.0
 11
153.6699981689453
 21
138.74749755859375
 31
0.0
  0
LINE
  5
253
  8
SMALL_FEATURE
 10
153.6699981689453
 20
138.74749755859375
 30
0.0
 11
150.05050659179688
 21
140.20799255371094
 31
0.0
  0
LINE
  5
254
  8
SMALL_FEATURE
 10
150.05050659179688
 20
140.20799255371094
 30
0.0
 11
156.2100067138672
 21
137.4774932861328
 31
0.0
  0
LINE
  5
255
  8
SMALL_FEATURE
 10
156.2100067138672
 20
137.4774932861328
 30
0.0
 11
155.38450622558594
 21
144.20849609375
 31
0.0
  0
LINE
  5
256
  8
SMALL_FEATURE
 10
155.38450622558594
 20
144.20849609375
 30
0.0
 11
155.70199584960938
 21
139.572998046875
 31
0.0
  0
LINE
  5
257
  8
SMALL_FEATURE
 10
155.70199584960938
 20
139.572998046875
 30
0.0
 11
154.87649536132812
 21
139.50950622558594
 31
0.0
  0
LINE
  5
258
  8
SMALL_FEATURE
 10
154.87649536132812
 20
139.50950622558594
 30
0.0
 11
149.98699951171875
 21
146.11349487304688
 31
0.0
  0
LINE
  5
259
  8
SMALL_FEATURE
 10
33.02000045776367
 20
137.16000366210938
 30
0.0
 11
33.083499908447266
 21
135.3820037841797
 31
0.0
  0
LINE
  5
25A
  8
SMALL_FEATURE
 10
33.083499908447266
 20
135.3820037841797
 30
0.0
 11
34.35350036621094
 21
135.0644989013672
 31
0.0
  0
LINE
  5
25B
  8
SMALL_FEATURE
 10
34.35350036621094
 20
135.0644989013672
 30
0.0
 11
34.290000915527344
 21
134.23899841308594
 31
0.0
  0
LINE
  5
25C
  8
SMALL_FEATURE
 10
34.290000915527344
 20
134.23899841308594
 30
0.0
 11
33.02000045776367
 21
134.17550659179688
 31
0.0
  0
LINE
  5
25D
  8
SMALL_FEATURE
 10
33.02000045776367
 20
134.17550659179688
 30
0.0
 11
33.02000045776367
 21
132.33399963378906
 31
0.0
  0
LINE
  5
25E
  8
SMALL_FEATURE
 10
33.02000045776367
 20
132.33399963378906
 30
0.0
 11
34.35350036621094
 21
132.20700073242188
 31
0.0
  0
LINE
  5
25F
  8
SMALL_FEATURE
 10
34.35350036621094
 20
132.20700073242188
 30
0.0
 11
34.54399871826172
 21
134.6199951171875
 31
0.0
  0
LINE
  5
260
  8
SMALL_FEATURE
 10
34.54399871826172
 20
134.6199951171875
 30
0.0
 11
34.79800033569336
 21
134.68350219726562
 31
0.0
  0
LINE
  5
261
  8
SMALL_FEATURE
 10
34.79800033569336
 20
134.68350219726562
 30
0.0
 11
34.54399871826172
 21
134.87399291992188
 31
0.0
  0
LINE
  5
262
  8
SMALL_FEATURE
 10
34.54399871826172
 20
134.87399291992188
 30
0.0
 11
34.54399871826172
 21
136.84249877929688
 31
0.0
  0
LINE
  5
263
  8
SMALL_FEATURE
 10
34.54399871826172
 20
136.84249877929688
 30
0.0
 11
34.290000915527344
 21
137.22349548339844
 31
0.0
  0
LINE
  5
264
  8
SMALL_FEATURE
 10
34.290000915527344
 20
137.22349548339844
 30
0.0
 11
33.02000045776367
 21
137.16000366210938
 31
0.0
  0
LINE
  5
265
  8
SMALL_FEATURE
 10
67.05599975585938
 20
172.7834930419922
 30
0.0
 11
66.802001953125
 21
172.5294952392578
 31
0.0
  0
LINE
  5
266
  8
SMALL_FEATURE
 10
66.802001953125
 20
172.5294952392578
 30
0.0
 11
66.802001953125
 21
171.0054931640625
 31
0.0
  0
LINE
  5
267
  8
SMALL_FEATURE
 10
66.802001953125
 20
171.0054931640625
 30
0.0
 11
67.18299865722656
 21
170.68800354003906
 31
0.0
  0
LINE
  5
268
  8
SMALL_FEATURE
 10
67.18299865722656
 20
170.68800354003906
 30
0.0
 11
68.0719985961914
 21
170.68800354003906
 31
0.0
  0
LINE
  5
269
  8
SMALL_FEATURE
 10
68.0719985961914
 20
170.68800354003906
 30
0.0
 11
68.135498046875
 21
169.8625030517578
 31
0.0
  0
LINE
  5
26A
  8
SMALL_FEATURE
 10
68.135498046875
 20
169.8625030517578
 30
0.0
 11
66.8655014038086
 21
169.6719970703125
 31
0.0
  0
LINE
  5
26B
  8
SMALL_FEATURE
 10
66.8655014038086
 20
169.6719970703125
 30
0.0
 11
66.802001953125
 21
168.02099609375
 31
0.0
  0
LINE
  5
26C
  8
SMALL_FEATURE
 10
66.802001953125
 20
168.02099609375
 30
0.0
 11
67.94499969482422
 21
167.70350646972656
 31
0.0
  0
LINE
  5
26D
  8
SMALL_FEATURE
 10
67.94499969482422
 20
167.70350646972656
 30
0.0
 11
68.32599639892578
 21
168.08450317382812
 31
0.0
  0
LINE
  5
26E
  8
SMALL_FEATURE
 10
68.32599639892578
 20
168.08450317382812
 30
0.0
 11
68.26249694824219
 21
170.17999267578125
 31
0.0
  0
LINE
  5
26F
  8
SMALL_FEATURE
 10
68.26249694824219
 20
170.17999267578125
 30
0.0
 11
68.58000183105469
 21
170.24349975585938
 31
0.0
  0
LINE
  5
270
  8
SMALL_FEATURE
 10
68.58000183105469
 20
170.24349975585938
 30
0.0
 11
68.26249694824219
 21
170.4340057373047
 31
0.0
  0
LINE
  5
271
  8
SMALL_FEATURE
 10
68.26249694824219
 20
170.4340057373047
 30
0.0
 11
68.32599639892578
 21
172.40249633789062
 31
0.0
  0
LINE
  5
272
  8
SMALL_FEATURE
 10
68.32599639892578
 20
172.40249633789062
 30
0.0
 11
68.0719985961914
 21
172.7834930419922
 31
0.0
  0
LINE
  5
273
  8
SMALL_FEATURE
 10
68.0719985961914
 20
172.7834930419922
 30
0.0
 11
67.05599975585938
 21
172.7834930419922
 31
0.0
  0
LINE
  5
274
  8
SMALL_FEATURE
 10
182.5625
 20
137.09649658203125
 30
0.0
 11
182.18150329589844
 21
137.4774932861328
 31
0.0
  0
LINE
  5
275
  8
SMALL_FEATURE
 10
182.18150329589844
 20
137.4774932861328
 30
0.0
 11
177.22850036621094
 21
137.41400146484375
 31
0.0
  0
LINE
  5
276
  8
SMALL_FEATURE
 10
177.22850036621094
 20
137.41400146484375
 30
0.0
 11
177.22850036621094
 21
136.3979949951172
 31
0.0
  0
LINE
  5
277
  8
SMALL_FEATURE
 10
177.22850036621094
 20
136.3979949951172
 30
0.0
 11
182.30850219726562
 21
136.3979949951172
 31
0.0
  0
LINE
  5
278
  8
SMALL_FEATURE
 10
182.30850219726562
 20
136.3979949951172
 30
0.0
 11
182.5625
 21
137.09649658203125
 31
0.0
  0
LINE
  5
279
  8
SMALL_FEATURE
 10
187.13450622558594
 20
137.4774932861328
 30
0.0
 11
187.13450622558594
 21
136.3979949951172
 31
0.0
  0
LINE
  5
27A
  8
SMALL_FEATURE
 10
187.13450622558594
 20
136.3979949951172
 30
0.0
 11
192.84950256347656
 21
136.4615020751953
 31
0.0
  0
LINE
  5
27B
  8
SMALL_FEATURE
 10
192.84950256347656
 20
136.4615020751953
 30
0.0
 11
192.468505859375
 21
137.4774932861328
 31
0.0
  0
LINE
  5
27C
  8
SMALL_FEATURE
 10
192.468505859375
 20
137.4774932861328
 30
0.0
 11
192.08749389648438
 21
136.84249877929688
 31
0.0
  0
LINE
  5
27D
  8
SMALL_FEATURE
 10
192.08749389648438
 20
136.84249877929688
 30
0.0
 11
191.32550048828125
 21
136.84249877929688
 31
0.0
  0
LINE
  5
27E
  8
SMALL_FEATURE
 10
191.32550048828125
 20
136.84249877929688
 30
0.0
 11
191.26199340820312
 21
137.4774932861328
 31
0.0
  0
LINE
  5
27F
  8
SMALL_FEATURE
 10
191.26199340820312
 20
137.4774932861328
 30
0.0
 11
187.13450622558594
 21
137.4774932861328
 31
0.0
  0
LINE
  5
280
  8
SMALL_FEATURE
 10
190.88099670410156
 20
32.32149887084961
 30
0.0
 11
190.43649291992188
 21
32.13100051879883
 31
0.0
  0
LINE
  5
281
  8
SMALL_FEATURE
 10
190.43649291992188
 20
32.13100051879883
 30
0.0
 11
189.2935028076172
 21
28.95599937438965
 31
0.0
  0
LINE
  5
282
  8
SMALL_FEATURE
 10
189.2935028076172
 20
28.95599937438965
 30
0.0
 11
188.4044952392578
 21
28.892499923706055
 31
0.0
  0
LINE
  5
283
  8
SMALL_FEATURE
 10
188.4044952392578
 20
28.892499923706055
 30
0.0
 11
188.08700561523438
 21
29.273500442504883
 31
0.0
  0
LINE
  5
284
  8
SMALL_FEATURE
 10
188.08700561523438
 20
29.273500442504883
 30
0.0
 11
186.8804931640625
 21
27.749500274658203
 31
0.0
  0
LINE
  5
285
  8
SMALL_FEATURE
 10
186.8804931640625
 20
27.749500274658203
 30
0.0
 11
186.7534942626953
 21
26.60650062561035
 31
0.0
  0
LINE
  5
286
  8
SMALL_FEATURE
 10
186.7534942626953
 20
26.60650062561035
 30
0.0
 11
187.00750732421875
 21
26.60650062561035
 31
0.0
  0
LINE
  5
287
  8
SMALL_FEATURE
 10
187.00750732421875
 20
26.60650062561035
 30
0.0
 11
187.00750732421875
 21
27.749500274658203
 31
0.0
  0
LINE
  5
288
  8
SMALL_FEATURE
 10
187.00750732421875
 20
27.749500274658203
 30
0.0
 11
187.89649963378906
 21
28.82900047302246
 31
0.0
  0
LINE
  5
289
  8
SMALL_FEATURE
 10
187.89649963378906
 20
28.82900047302246
 30
0.0
 11
188.78550720214844
 21
28.765499114990234
 31
0.0
  0
LINE
  5
28A
  8
SMALL_FEATURE
 10
188.78550720214844
 20
28.765499114990234
 30
0.0
 11
188.78550720214844
 21
26.60650062561035
 31
0.0
  0
LINE
  5
28B
  8
SMALL_FEATURE
 10
188.78550720214844
 20
26.60650062561035
 30
0.0
 11
189.0395050048828
 21
26.60650062561035
 31
0.0
  0
LINE
  5
28C
  8
SMALL_FEATURE
 10
189.0395050048828
 20
26.60650062561035
 30
0.0
 11
189.0395050048828
 21
28.38450050354004
 31
0.0
  0
LINE
  5
28D
  8
SMALL_FEATURE
 10
189.0395050048828
 20
28.38450050354004
 30
0.0
 11
190.88099670410156
 21
32.32149887084961
 31
0.0
  0
LINE
  5
28E
  8
JACK_ROUTE
 10
64.19850158691406
 20
84.89949798583984
 30
0.0
 11
78.54949951171875
 21
84.96299743652344
 31
0.0
  0
LINE
  5
28F
  8
JACK_ROUTE
 10
78.54949951171875
 20
84.96299743652344
 30
0.0
 11
79.12100219726562
 21
81.72450256347656
 31
0.0
  0
LINE
  5
290
  8
JACK_ROUTE
 10
79.12100219726562
 20
81.72450256347656
 30
0.0
 11
80.77200317382812
 21
78.93049621582031
 31
0.0
  0
LINE
  5
291
  8
JACK_ROUTE
 10
80.77200317382812
 20
78.93049621582031
 30
0.0
 11
82.04199981689453
 21
77.6604995727539
 31
0.0
  0
LINE
  5
292
  8
JACK_ROUTE
 10
82.04199981689453
 20
77.6604995727539
 30
0.0
 11
83.81999969482422
 21
76.58100128173828
 31
0.0
  0
LINE
  5
293
  8
JACK_ROUTE
 10
83.81999969482422
 20
76.58100128173828
 30
0.0
 11
83.88349914550781
 21
76.19999694824219
 31
0.0
  0
LINE
  5
294
  8
JACK_ROUTE
 10
83.88349914550781
 20
76.19999694824219
 30
0.0
 11
88.64600372314453
 21
75.50150299072266
 31
0.0
  0
LINE
  5
295
  8
JACK_ROUTE
 10
88.64600372314453
 20
75.50150299072266
 30
0.0
 11
91.24949645996094
 21
76.0094985961914
 31
0.0
  0
LINE
  5
296
  8
JACK_ROUTE
 10
91.24949645996094
 20
76.0094985961914
 30
0.0
 11
92.90049743652344
 21
76.70800018310547
 31
0.0
  0
LINE
  5
297
  8
JACK_ROUTE
 10
92.90049743652344
 20
76.70800018310547
 30
0.0
 11
95.56749725341797
 21
78.93049621582031
 31
0.0
  0
LINE
  5
298
  8
JACK_ROUTE
 10
95.56749725341797
 20
78.93049621582031
 30
0.0
 11
97.15499877929688
 21
81.78800201416016
 31
0.0
  0
LINE
  5
299
  8
JACK_ROUTE
 10
97.15499877929688
 20
81.78800201416016
 30
0.0
 11
97.79000091552734
 21
84.96299743652344
 31
0.0
  0
LINE
  5
29A
  8
JACK_ROUTE
 10
97.79000091552734
 20
84.96299743652344
 30
0.0
 11
111.88700103759766
 21
84.96299743652344
 31
0.0
  0
LINE
  5
29B
  8
JACK_ROUTE
 10
111.88700103759766
 20
84.96299743652344
 30
0.0
 11
111.76000213623047
 21
82.3594970703125
 31
0.0
  0
LINE
  5
29C
  8
JACK_ROUTE
 10
111.76000213623047
 20
82.3594970703125
 30
0.0
 11
112.14099884033203
 21
77.59700012207031
 31
0.0
  0
LINE
  5
29D
  8
JACK_ROUTE
 10
112.14099884033203
 20
77.59700012207031
 30
0.0
 11
111.76000213623047
 21
77.40650177001953
 31
0.0
  0
LINE
  5
29E
  8
JACK_ROUTE
 10
111.76000213623047
 20
77.40650177001953
 30
0.0
 11
111.76000213623047
 21
66.61150360107422
 31
0.0
  0
LINE
  5
29F
  8
JACK_ROUTE
 10
111.76000213623047
 20
66.61150360107422
 30
0.0
 11
108.96600341796875
 21
66.8655014038086
 31
0.0
  0
LINE
  5
2A0
  8
JACK_ROUTE
 10
108.96600341796875
 20
66.8655014038086
 30
0.0
 11
108.90249633789062
 21
66.5479965209961
 31
0.0
  0
LINE
  5
2A1
  8
JACK_ROUTE
 10
108.90249633789062
 20
66.5479965209961
 30
0.0
 11
67.37349700927734
 21
66.5479965209961
 31
0.0
  0
LINE
  5
2A2
  8
JACK_ROUTE
 10
67.37349700927734
 20
66.5479965209961
 30
0.0
 11
67.30999755859375
 21
66.8655014038086
 31
0.0
  0
LINE
  5
2A3
  8
JACK_ROUTE
 10
67.30999755859375
 20
66.8655014038086
 30
0.0
 11
64.45249938964844
 21
66.5479965209961
 31
0.0
  0
LINE
  5
2A4
  8
JACK_ROUTE
 10
64.45249938964844
 20
66.5479965209961
 30
0.0
 11
64.45249938964844
 21
75.50150299072266
 31
0.0
  0
LINE
  5
2A5
  8
JACK_ROUTE
 10
64.45249938964844
 20
75.50150299072266
 30
0.0
 11
83.69300079345703
 21
75.69200134277344
 31
0.0
  0
LINE
  5
2A6
  8
JACK_ROUTE
 10
83.69300079345703
 20
75.69200134277344
 30
0.0
 11
64.45249938964844
 21
75.69200134277344
 31
0.0
  0
LINE
  5
2A7
  8
JACK_ROUTE
 10
64.45249938964844
 20
75.69200134277344
 30
0.0
 11
64.38899993896484
 21
77.47000122070312
 31
0.0
  0
LINE
  5
2A8
  8
JACK_ROUTE
 10
64.38899993896484
 20
77.47000122070312
 30
0.0
 11
64.00800323486328
 21
77.59700012207031
 31
0.0
  0
LINE
  5
2A9
  8
JACK_ROUTE
 10
64.00800323486328
 20
77.59700012207031
 30
0.0
 11
64.38899993896484
 21
81.78800201416016
 31
0.0
  0
LINE
  5
2AA
  8
JACK_ROUTE
 10
64.38899993896484
 20
81.78800201416016
 30
0.0
 11
64.19850158691406
 21
84.89949798583984
 31
0.0
  0
LINE
  5
2AB
  8
JACK_ROUTE
 10
162.11549377441406
 20
251.77749633789062
 30
0.0
 11
161.09950256347656
 21
249.8090057373047
 31
0.0
  0
LINE
  5
2AC
  8
JACK_ROUTE
 10
161.09950256347656
 20
249.8090057373047
 30
0.0
 11
159.38499450683594
 21
248.031005859375
 31
0.0
  0
LINE
  5
2AD
  8
JACK_ROUTE
 10
159.38499450683594
 20
248.031005859375
 30
0.0
 11
156.9084930419922
 21
246.76100158691406
 31
0.0
  0
LINE
  5
2AE
  8
JACK_ROUTE
 10
156.9084930419922
 20
246.76100158691406
 30
0.0
 11
153.7969970703125
 21
246.5070037841797
 31
0.0
  0
LINE
  5
2AF
  8
JACK_ROUTE
 10
153.7969970703125
 20
246.5070037841797
 30
0.0
 11
155.1304931640625
 21
215.32850646972656
 31
0.0
  0
LINE
  5
2B0
  8
JACK_ROUTE
 10
155.1304931640625
 20
215.32850646972656
 30
0.0
 11
156.9084930419922
 21
212.59800720214844
 31
0.0
  0
LINE
  5
2B1
  8
JACK_ROUTE
 10
156.9084930419922
 20
212.59800720214844
 30
0.0
 11
157.2895050048828
 21
208.1529998779297
 31
0.0
  0
LINE
  5
2B2
  8
JACK_ROUTE
 10
157.2895050048828
 20
208.1529998779297
 30
0.0
 11
169.48150634765625
 21
208.1529998779297
 31
0.0
  0
LINE
  5
2B3
  8
JACK_ROUTE
 10
169.48150634765625
 20
208.1529998779297
 30
0.0
 11
169.8625030517578
 21
212.5345001220703
 31
0.0
  0
LINE
  5
2B4
  8
JACK_ROUTE
 10
169.8625030517578
 20
212.5345001220703
 30
0.0
 11
171.6405029296875
 21
215.26499938964844
 31
0.0
  0
LINE
  5
2B5
  8
JACK_ROUTE
 10
171.6405029296875
 20
215.26499938964844
 30
0.0
 11
171.83099365234375
 21
219.58299255371094
 31
0.0
  0
LINE
  5
2B6
  8
JACK_ROUTE
 10
171.83099365234375
 20
219.58299255371094
 30
0.0
 11
174.68850708007812
 21
219.7100067138672
 31
0.0
  0
LINE
  5
2B7
  8
JACK_ROUTE
 10
174.68850708007812
 20
219.7100067138672
 30
0.0
 11
171.89450073242188
 21
219.90049743652344
 31
0.0
  0
LINE
  5
2B8
  8
JACK_ROUTE
 10
171.89450073242188
 20
219.90049743652344
 30
0.0
 11
172.02149963378906
 21
222.3769989013672
 31
0.0
  0
LINE
  5
2B9
  8
JACK_ROUTE
 10
172.02149963378906
 20
222.3769989013672
 30
0.0
 11
172.8470001220703
 21
222.31350708007812
 31
0.0
  0
LINE
  5
2BA
  8
JACK_ROUTE
 10
172.8470001220703
 20
222.31350708007812
 30
0.0
 11
172.91050720214844
 21
221.29750061035156
 31
0.0
  0
LINE
  5
2BB
  8
JACK_ROUTE
 10
172.91050720214844
 20
221.29750061035156
 30
0.0
 11
172.91050720214844
 21
222.75799560546875
 31
0.0
  0
LINE
  5
2BC
  8
JACK_ROUTE
 10
172.91050720214844
 20
222.75799560546875
 30
0.0
 11
172.02149963378906
 21
222.75799560546875
 31
0.0
  0
LINE
  5
2BD
  8
JACK_ROUTE
 10
172.02149963378906
 20
222.75799560546875
 30
0.0
 11
172.14849853515625
 21
227.26649475097656
 31
0.0
  0
LINE
  5
2BE
  8
JACK_ROUTE
 10
172.14849853515625
 20
227.26649475097656
 30
0.0
 11
172.40249633789062
 21
227.39349365234375
 31
0.0
  0
LINE
  5
2BF
  8
JACK_ROUTE
 10
172.40249633789062
 20
227.39349365234375
 30
0.0
 11
172.33900451660156
 21
231.13999938964844
 31
0.0
  0
LINE
  5
2C0
  8
JACK_ROUTE
 10
172.33900451660156
 20
231.13999938964844
 30
0.0
 11
175.32350158691406
 21
230.82249450683594
 31
0.0
  0
LINE
  5
2C1
  8
JACK_ROUTE
 10
175.32350158691406
 20
230.82249450683594
 30
0.0
 11
175.38699340820312
 21
231.20350646972656
 31
0.0
  0
LINE
  5
2C2
  8
JACK_ROUTE
 10
175.38699340820312
 20
231.20350646972656
 30
0.0
 11
184.27699279785156
 21
231.33050537109375
 31
0.0
  0
LINE
  5
2C3
  8
JACK_ROUTE
 10
184.27699279785156
 20
231.33050537109375
 30
0.0
 11
175.38699340820312
 21
231.3939971923828
 31
0.0
  0
LINE
  5
2C4
  8
JACK_ROUTE
 10
175.38699340820312
 20
231.3939971923828
 30
0.0
 11
175.32350158691406
 21
231.7115020751953
 31
0.0
  0
LINE
  5
2C5
  8
JACK_ROUTE
 10
175.32350158691406
 20
231.7115020751953
 30
0.0
 11
172.46600341796875
 21
231.3939971923828
 31
0.0
  0
LINE
  5
2C6
  8
JACK_ROUTE
 10
172.46600341796875
 20
231.3939971923828
 30
0.0
 11
172.72000122070312
 21
240.02999877929688
 31
0.0
  0
LINE
  5
2C7
  8
JACK_ROUTE
 10
172.72000122070312
 20
240.02999877929688
 30
0.0
 11
178.75250244140625
 21
240.2205047607422
 31
0.0
  0
LINE
  5
2C8
  8
JACK_ROUTE
 10
178.75250244140625
 20
240.2205047607422
 30
0.0
 11
172.8470001220703
 21
240.28399658203125
 31
0.0
  0
LINE
  5
2C9
  8
JACK_ROUTE
 10
172.8470001220703
 20
240.28399658203125
 30
0.0
 11
172.91050720214844
 21
241.99850463867188
 31
0.0
  0
LINE
  5
2CA
  8
JACK_ROUTE
 10
172.91050720214844
 20
241.99850463867188
 30
0.0
 11
174.4344940185547
 21
241.99850463867188
 31
0.0
  0
LINE
  5
2CB
  8
JACK_ROUTE
 10
174.4344940185547
 20
241.99850463867188
 30
0.0
 11
174.4980010986328
 21
241.68099975585938
 31
0.0
  0
LINE
  5
2CC
  8
JACK_ROUTE
 10
174.4980010986328
 20
241.68099975585938
 30
0.0
 11
174.68850708007812
 21
241.93499755859375
 31
0.0
  0
LINE
  5
2CD
  8
JACK_ROUTE
 10
174.68850708007812
 20
241.93499755859375
 30
0.0
 11
176.7205047607422
 21
241.93499755859375
 31
0.0
  0
LINE
  5
2CE
  8
JACK_ROUTE
 10
176.7205047607422
 20
241.93499755859375
 30
0.0
 11
177.10150146484375
 21
242.3159942626953
 31
0.0
  0
LINE
  5
2CF
  8
JACK_ROUTE
 10
177.10150146484375
 20
242.3159942626953
 30
0.0
 11
177.03799438476562
 21
243.39549255371094
 31
0.0
  0
LINE
  5
2D0
  8
JACK_ROUTE
 10
177.03799438476562
 20
243.39549255371094
 30
0.0
 11
175.19650268554688
 21
243.45899963378906
 31
0.0
  0
LINE
  5
2D1
  8
JACK_ROUTE
 10
175.19650268554688
 20
243.45899963378906
 30
0.0
 11
175.00599670410156
 21
242.18899536132812
 31
0.0
  0
LINE
  5
2D2
  8
JACK_ROUTE
 10
175.00599670410156
 20
242.18899536132812
 30
0.0
 11
173.86300659179688
 21
242.12550354003906
 31
0.0
  0
LINE
  5
2D3
  8
JACK_ROUTE
 10
173.86300659179688
 20
242.12550354003906
 30
0.0
 11
173.79949951171875
 21
243.45899963378906
 31
0.0
  0
LINE
  5
2D4
  8
JACK_ROUTE
 10
173.79949951171875
 20
243.45899963378906
 30
0.0
 11
172.91050720214844
 21
243.5225067138672
 31
0.0
  0
LINE
  5
2D5
  8
JACK_ROUTE
 10
172.91050720214844
 20
243.5225067138672
 30
0.0
 11
172.9739990234375
 21
246.5070037841797
 31
0.0
  0
LINE
  5
2D6
  8
JACK_ROUTE
 10
172.9739990234375
 20
246.5070037841797
 30
0.0
 11
170.62449645996094
 21
246.63400268554688
 31
0.0
  0
LINE
  5
2D7
  8
JACK_ROUTE
 10
170.62449645996094
 20
246.63400268554688
 30
0.0
 11
168.71949768066406
 21
247.2689971923828
 31
0.0
  0
LINE
  5
2D8
  8
JACK_ROUTE
 10
168.71949768066406
 20
247.2689971923828
 30
0.0
 11
166.11599731445312
 21
249.2375030517578
 31
0.0
  0
LINE
  5
2D9
  8
JACK_ROUTE
 10
166.11599731445312
 20
249.2375030517578
 30
0.0
 11
164.65550231933594
 21
251.77749633789062
 31
0.0
  0
LINE
  5
2DA
  8
JACK_ROUTE
 10
164.65550231933594
 20
251.77749633789062
 30
0.0
 11
162.11549377441406
 21
251.77749633789062
 31
0.0
  0
LINE
  5
2DB
  8
PICKUP_ROUTE
 10
112.8395004272461
 20
75.43800354003906
 30
0.0
 11
115.37950134277344
 21
68.89749908447266
 31
0.0
  0
LINE
  5
2DC
  8
PICKUP_ROUTE
 10
115.37950134277344
 20
68.89749908447266
 30
0.0
 11
122.80899810791016
 21
55.054500579833984
 31
0.0
  0
LINE
  5
2DD
  8
PICKUP_ROUTE
 10
122.80899810791016
 20
55.054500579833984
 30
0.0
 11
124.26950073242188
 21
51.816001892089844
 31
0.0
  0
LINE
  5
2DE
  8
PICKUP_ROUTE
 10
124.26950073242188
 20
51.816001892089844
 30
0.0
 11
125.60299682617188
 21
47.307498931884766
 31
0.0
  0
LINE
  5
2DF
  8
PICKUP_ROUTE
 10
125.60299682617188
 20
47.307498931884766
 30
0.0
 11
125.92050170898438
 21
42.0369987487793
 31
0.0
  0
LINE
  5
2E0
  8
PICKUP_ROUTE
 10
125.92050170898438
 20
42.0369987487793
 30
0.0
 11
125.15850067138672
 21
36.63949966430664
 31
0.0
  0
LINE
  5
2E1
  8
PICKUP_ROUTE
 10
125.15850067138672
 20
36.63949966430664
 30
0.0
 11
123.9520034790039
 21
33.083499908447266
 31
0.0
  0
LINE
  5
2E2
  8
PICKUP_ROUTE
 10
123.9520034790039
 20
33.083499908447266
 30
0.0
 11
121.66600036621094
 21
29.019500732421875
 31
0.0
  0
LINE
  5
2E3
  8
PICKUP_ROUTE
 10
121.66600036621094
 20
29.019500732421875
 30
0.0
 11
120.3324966430664
 21
27.30500030517578
 31
0.0
  0
LINE
  5
2E4
  8
PICKUP_ROUTE
 10
120.3324966430664
 20
27.30500030517578
 30
0.0
 11
55.75299835205078
 21
27.368499755859375
 31
0.0
  0
LINE
  5
2E5
  8
PICKUP_ROUTE
 10
55.75299835205078
 20
27.368499755859375
 30
0.0
 11
53.403499603271484
 21
30.988000869750977
 31
0.0
  0
LINE
  5
2E6
  8
PICKUP_ROUTE
 10
53.403499603271484
 20
30.988000869750977
 30
0.0
 11
51.371498107910156
 21
35.62350082397461
 31
0.0
  0
LINE
  5
2E7
  8
PICKUP_ROUTE
 10
51.371498107910156
 20
35.62350082397461
 30
0.0
 11
50.355499267578125
 21
40.51300048828125
 31
0.0
  0
LINE
  5
2E8
  8
PICKUP_ROUTE
 10
50.355499267578125
 20
40.51300048828125
 30
0.0
 11
50.41899871826172
 21
45.465999603271484
 31
0.0
  0
LINE
  5
2E9
  8
PICKUP_ROUTE
 10
50.41899871826172
 20
45.465999603271484
 30
0.0
 11
63.94449996948242
 21
45.65650177001953
 31
0.0
  0
LINE
  5
2EA
  8
PICKUP_ROUTE
 10
63.94449996948242
 20
45.65650177001953
 30
0.0
 11
50.609500885009766
 21
45.720001220703125
 31
0.0
  0
LINE
  5
2EB
  8
PICKUP_ROUTE
 10
50.609500885009766
 20
45.720001220703125
 30
0.0
 11
50.609500885009766
 21
46.9900016784668
 31
0.0
  0
LINE
  5
2EC
  8
PICKUP_ROUTE
 10
50.609500885009766
 20
46.9900016784668
 30
0.0
 11
51.49850082397461
 21
50.22850036621094
 31
0.0
  0
LINE
  5
2ED
  8
PICKUP_ROUTE
 10
51.49850082397461
 20
50.22850036621094
 30
0.0
 11
68.1989974975586
 21
50.22850036621094
 31
0.0
  0
LINE
  5
2EE
  8
PICKUP_ROUTE
 10
68.1989974975586
 20
50.22850036621094
 30
0.0
 11
68.26249694824219
 21
45.52949905395508
 31
0.0
  0
LINE
  5
2EF
  8
PICKUP_ROUTE
 10
68.26249694824219
 20
45.52949905395508
 30
0.0
 11
107.8864974975586
 21
45.52949905395508
 31
0.0
  0
LINE
  5
2F0
  8
PICKUP_ROUTE
 10
107.8864974975586
 20
45.52949905395508
 30
0.0
 11
107.822998046875
 21
51.30799865722656
 31
0.0
  0
LINE
  5
2F1
  8
PICKUP_ROUTE
 10
107.822998046875
 20
51.30799865722656
 30
0.0
 11
68.32599639892578
 21
51.30799865722656
 31
0.0
  0
LINE
  5
2F2
  8
PICKUP_ROUTE
 10
68.32599639892578
 20
51.30799865722656
 30
0.0
 11
68.1989974975586
 21
50.41899871826172
 31
0.0
  0
LINE
  5
2F3
  8
PICKUP_ROUTE
 10
68.1989974975586
 20
50.41899871826172
 30
0.0
 11
64.00800323486328
 21
50.41899871826172
 31
0.0
  0
LINE
  5
2F4
  8
PICKUP_ROUTE
 10
64.00800323486328
 20
50.41899871826172
 30
0.0
 11
63.817501068115234
 21
51.30799865722656
 31
0.0
  0
LINE
  5
2F5
  8
PICKUP_ROUTE
 10
63.817501068115234
 20
51.30799865722656
 30
0.0
 11
58.03900146484375
 21
51.30799865722656
 31
0.0
  0
LINE
  5
2F6
  8
PICKUP_ROUTE
 10
58.03900146484375
 20
51.30799865722656
 30
0.0
 11
58.292999267578125
 21
54.229000091552734
 31
0.0
  0
LINE
  5
2F7
  8
PICKUP_ROUTE
 10
58.292999267578125
 20
54.229000091552734
 30
0.0
 11
57.97549819946289
 21
54.29249954223633
 31
0.0
  0
LINE
  5
2F8
  8
PICKUP_ROUTE
 10
57.97549819946289
 20
54.29249954223633
 30
0.0
 11
57.97549819946289
 21
63.563499450683594
 31
0.0
  0
LINE
  5
2F9
  8
PICKUP_ROUTE
 10
57.97549819946289
 20
63.563499450683594
 30
0.0
 11
60.959999084472656
 21
69.27850341796875
 31
0.0
  0
LINE
  5
2FA
  8
PICKUP_ROUTE
 10
60.959999084472656
 20
69.27850341796875
 30
0.0
 11
63.37300109863281
 21
75.18399810791016
 31
0.0
  0
LINE
  5
2FB
  8
PICKUP_ROUTE
 10
63.37300109863281
 20
75.18399810791016
 30
0.0
 11
64.19850158691406
 21
75.12049865722656
 31
0.0
  0
LINE
  5
2FC
  8
PICKUP_ROUTE
 10
64.19850158691406
 20
75.12049865722656
 30
0.0
 11
64.26200103759766
 21
62.611000061035156
 31
0.0
  0
LINE
  5
2FD
  8
PICKUP_ROUTE
 10
64.26200103759766
 20
62.611000061035156
 30
0.0
 11
64.38899993896484
 21
66.23049926757812
 31
0.0
  0
LINE
  5
2FE
  8
PICKUP_ROUTE
 10
64.38899993896484
 20
66.23049926757812
 30
0.0
 11
67.30999755859375
 21
65.97650146484375
 31
0.0
  0
LINE
  5
2FF
  8
PICKUP_ROUTE
 10
67.30999755859375
 20
65.97650146484375
 30
0.0
 11
67.37349700927734
 21
66.35749816894531
 31
0.0
  0
LINE
  5
300
  8
PICKUP_ROUTE
 10
67.37349700927734
 20
66.35749816894531
 30
0.0
 11
108.90249633789062
 21
66.35749816894531
 31
0.0
  0
LINE
  5
301
  8
PICKUP_ROUTE
 10
108.90249633789062
 20
66.35749816894531
 30
0.0
 11
108.96600341796875
 21
65.97650146484375
 31
0.0
  0
LINE
  5
302
  8
PICKUP_ROUTE
 10
108.96600341796875
 20
65.97650146484375
 30
0.0
 11
111.69650268554688
 21
66.29399871826172
 31
0.0
  0
LINE
  5
303
  8
PICKUP_ROUTE
 10
111.69650268554688
 20
66.29399871826172
 30
0.0
 11
111.88700103759766
 21
62.611000061035156
 31
0.0
  0
LINE
  5
304
  8
PICKUP_ROUTE
 10
111.88700103759766
 20
62.611000061035156
 30
0.0
 11
111.95050048828125
 21
75.43800354003906
 31
0.0
  0
LINE
  5
305
  8
PICKUP_ROUTE
 10
111.95050048828125
 20
75.43800354003906
 30
0.0
 11
112.8395004272461
 21
75.43800354003906
 31
0.0
  0
LINE
  5
306
  8
PICKUP_ROUTE
 10
167.19549560546875
 20
136.33450317382812
 30
0.0
 11
161.03599548339844
 21
129.47650146484375
 31
0.0
  0
LINE
  5
307
  8
PICKUP_ROUTE
 10
161.03599548339844
 20
129.47650146484375
 30
0.0
 11
160.2740020751953
 21
129.47650146484375
 31
0.0
  0
LINE
  5
308
  8
PICKUP_ROUTE
 10
160.2740020751953
 20
129.47650146484375
 30
0.0
 11
159.13099670410156
 21
130.80999755859375
 31
0.0
  0
LINE
  5
309
  8
PICKUP_ROUTE
 10
159.13099670410156
 20
130.80999755859375
 30
0.0
 11
155.1304931640625
 21
127.38099670410156
 31
0.0
  0
LINE
  5
30A
  8
PICKUP_ROUTE
 10
155.1304931640625
 20
127.38099670410156
 30
0.0
 11
154.81300354003906
 21
126.80950164794922
 31
0.0
  0
LINE
  5
30B
  8
PICKUP_ROUTE
 10
154.81300354003906
 20
126.80950164794922
 30
0.0
 11
157.0989990234375
 21
113.91899871826172
 31
0.0
  0
LINE
  5
30C
  8
PICKUP_ROUTE
 10
157.0989990234375
 20
113.91899871826172
 30
0.0
 11
160.33749389648438
 21
108.77549743652344
 31
0.0
  0
LINE
  5
30D
  8
PICKUP_ROUTE
 10
160.33749389648438
 20
108.77549743652344
 30
0.0
 11
161.41700744628906
 21
104.64800262451172
 31
0.0
  0
LINE
  5
30E
  8
PICKUP_ROUTE
 10
161.41700744628906
 20
104.64800262451172
 30
0.0
 11
161.67100524902344
 21
63.69049835205078
 31
0.0
  0
LINE
  5
30F
  8
PICKUP_ROUTE
 10
161.67100524902344
 20
63.69049835205078
 30
0.0
 11
165.0364990234375
 21
60.70600128173828
 31
0.0
  0
LINE
  5
310
  8
PICKUP_ROUTE
 10
165.0364990234375
 20
60.70600128173828
 30
0.0
 11
166.3699951171875
 21
61.97600173950195
 31
0.0
  0
LINE
  5
311
  8
PICKUP_ROUTE
 10
166.3699951171875
 20
61.97600173950195
 30
0.0
 11
167.1320037841797
 21
61.97600173950195
 31
0.0
  0
LINE
  5
312
  8
PICKUP_ROUTE
 10
167.1320037841797
 20
61.97600173950195
 30
0.0
 11
174.37100219726562
 21
53.9114990234375
 31
0.0
  0
LINE
  5
313
  8
PICKUP_ROUTE
 10
174.37100219726562
 20
53.9114990234375
 30
0.0
 11
174.4344940185547
 21
85.91549682617188
 31
0.0
  0
LINE
  5
314
  8
PICKUP_ROUTE
 10
174.4344940185547
 20
85.91549682617188
 30
0.0
 11
176.1490020751953
 21
85.91549682617188
 31
0.0
  0
LINE
  5
315
  8
PICKUP_ROUTE
 10
176.1490020751953
 20
85.91549682617188
 30
0.0
 11
176.2760009765625
 21
82.16899871826172
 31
0.0
  0
LINE
  5
316
  8
PICKUP_ROUTE
 10
176.2760009765625
 20
82.16899871826172
 30
0.0
 11
176.4029998779297
 21
85.97899627685547
 31
0.0
  0
LINE
  5
317
  8
PICKUP_ROUTE
 10
176.4029998779297
 20
85.97899627685547
 30
0.0
 11
179.1334991455078
 21
85.5979995727539
 31
0.0
  0
LINE
  5
318
  8
PICKUP_ROUTE
 10
179.1334991455078
 20
85.5979995727539
 30
0.0
 11
179.19700622558594
 21
85.97899627685547
 31
0.0
  0
LINE
  5
319
  8
PICKUP_ROUTE
 10
179.19700622558594
 20
85.97899627685547
 30
0.0
 11
192.97650146484375
 21
86.10600280761719
 31
0.0
  0
LINE
  5
31A
  8
PICKUP_ROUTE
 10
192.97650146484375
 20
86.10600280761719
 30
0.0
 11
179.19700622558594
 21
86.16950225830078
 31
0.0
  0
LINE
  5
31B
  8
PICKUP_ROUTE
 10
179.19700622558594
 20
86.16950225830078
 30
0.0
 11
179.1334991455078
 21
86.55049896240234
 31
0.0
  0
LINE
  5
31C
  8
PICKUP_ROUTE
 10
179.1334991455078
 20
86.55049896240234
 30
0.0
 11
176.4029998779297
 21
86.16950225830078
 31
0.0
  0
LINE
  5
31D
  8
PICKUP_ROUTE
 10
176.4029998779297
 20
86.16950225830078
 30
0.0
 11
176.2760009765625
 21
89.97949981689453
 31
0.0
  0
LINE
  5
31E
  8
PICKUP_ROUTE
 10
176.2760009765625
 20
89.97949981689453
 30
0.0
 11
176.1490020751953
 21
86.23300170898438
 31
0.0
  0
LINE
  5
31F
  8
PICKUP_ROUTE
 10
176.1490020751953
 20
86.23300170898438
 30
0.0
 11
174.4344940185547
 21
86.23300170898438
 31
0.0
  0
LINE
  5
320
  8
PICKUP_ROUTE
 10
174.4344940185547
 20
86.23300170898438
 30
0.0
 11
174.37100219726562
 21
94.29750061035156
 31
0.0
  0
LINE
  5
321
  8
PICKUP_ROUTE
 10
174.37100219726562
 20
94.29750061035156
 30
0.0
 11
176.33949279785156
 21
94.48799896240234
 31
0.0
  0
LINE
  5
322
  8
PICKUP_ROUTE
 10
176.33949279785156
 20
94.48799896240234
 30
0.0
 11
175.70449829101562
 21
96.64700317382812
 31
0.0
  0
LINE
  5
323
  8
PICKUP_ROUTE
 10
175.70449829101562
 20
96.64700317382812
 30
0.0
 11
174.3074951171875
 21
96.77400207519531
 31
0.0
  0
LINE
  5
324
  8
PICKUP_ROUTE
 10
174.3074951171875
 20
96.77400207519531
 30
0.0
 11
173.4185028076172
 21
102.93350219726562
 31
0.0
  0
LINE
  5
325
  8
PICKUP_ROUTE
 10
173.4185028076172
 20
102.93350219726562
 30
0.0
 11
176.2760009765625
 21
102.87000274658203
 31
0.0
  0
LINE
  5
326
  8
PICKUP_ROUTE
 10
176.2760009765625
 20
102.87000274658203
 30
0.0
 11
176.33949279785156
 21
99.12349700927734
 31
0.0
  0
LINE
  5
327
  8
PICKUP_ROUTE
 10
176.33949279785156
 20
99.12349700927734
 30
0.0
 11
176.52999877929688
 21
102.87000274658203
 31
0.0
  0
LINE
  5
328
  8
PICKUP_ROUTE
 10
176.52999877929688
 20
102.87000274658203
 30
0.0
 11
179.07000732421875
 21
102.55249786376953
 31
0.0
  0
LINE
  5
329
  8
PICKUP_ROUTE
 10
179.07000732421875
 20
102.55249786376953
 30
0.0
 11
179.3874969482422
 21
102.93350219726562
 31
0.0
  0
LINE
  5
32A
  8
PICKUP_ROUTE
 10
179.3874969482422
 20
102.93350219726562
 30
0.0
 11
182.30850219726562
 21
102.87000274658203
 31
0.0
  0
LINE
  5
32B
  8
PICKUP_ROUTE
 10
182.30850219726562
 20
102.87000274658203
 30
0.0
 11
182.30850219726562
 21
99.63150024414062
 31
0.0
  0
LINE
  5
32C
  8
PICKUP_ROUTE
 10
182.30850219726562
 20
99.63150024414062
 30
0.0
 11
181.92750549316406
 21
99.56800079345703
 31
0.0
  0
LINE
  5
32D
  8
PICKUP_ROUTE
 10
181.92750549316406
 20
99.56800079345703
 30
0.0
 11
182.30850219726562
 21
96.71050262451172
 31
0.0
  0
LINE
  5
32E
  8
PICKUP_ROUTE
 10
182.30850219726562
 20
96.71050262451172
 30
0.0
 11
178.49850463867188
 21
96.58350372314453
 31
0.0
  0
LINE
  5
32F
  8
PICKUP_ROUTE
 10
178.49850463867188
 20
96.58350372314453
 30
0.0
 11
182.2449951171875
 21
96.45649719238281
 31
0.0
  0
LINE
  5
330
  8
PICKUP_ROUTE
 10
182.2449951171875
 20
96.45649719238281
 30
0.0
 11
182.30850219726562
 21
94.86900329589844
 31
0.0
  0
LINE
  5
331
  8
PICKUP_ROUTE
 10
182.30850219726562
 20
94.86900329589844
 30
0.0
 11
178.49850463867188
 21
94.67849731445312
 31
0.0
  0
LINE
  5
332
  8
PICKUP_ROUTE
 10
178.49850463867188
 20
94.67849731445312
 30
0.0
 11
182.30850219726562
 21
94.55149841308594
 31
0.0
  0
LINE
  5
333
  8
PICKUP_ROUTE
 10
182.30850219726562
 20
94.55149841308594
 30
0.0
 11
181.92750549316406
 21
91.75749969482422
 31
0.0
  0
LINE
  5
334
  8
PICKUP_ROUTE
 10
181.92750549316406
 20
91.75749969482422
 30
0.0
 11
182.30850219726562
 21
91.69400024414062
 31
0.0
  0
LINE
  5
335
  8
PICKUP_ROUTE
 10
182.30850219726562
 20
91.69400024414062
 30
0.0
 11
182.3719940185547
 21
89.66200256347656
 31
0.0
  0
LINE
  5
336
  8
PICKUP_ROUTE
 10
182.3719940185547
 20
89.66200256347656
 30
0.0
 11
182.49899291992188
 21
91.69400024414062
 31
0.0
  0
LINE
  5
337
  8
PICKUP_ROUTE
 10
182.49899291992188
 20
91.69400024414062
 30
0.0
 11
182.8800048828125
 21
91.75749969482422
 31
0.0
  0
LINE
  5
338
  8
PICKUP_ROUTE
 10
182.8800048828125
 20
91.75749969482422
 30
0.0
 11
182.49899291992188
 21
94.55149841308594
 31
0.0
  0
LINE
  5
339
  8
PICKUP_ROUTE
 10
182.49899291992188
 20
94.55149841308594
 30
0.0
 11
186.37249755859375
 21
94.67849731445312
 31
0.0
  0
LINE
  5
33A
  8
PICKUP_ROUTE
 10
186.37249755859375
 20
94.67849731445312
 30
0.0
 11
182.5625
 21
94.80549621582031
 31
0.0
  0
LINE
  5
33B
  8
PICKUP_ROUTE
 10
182.5625
 20
94.80549621582031
 30
0.0
 11
182.49899291992188
 21
96.39299774169922
 31
0.0
  0
LINE
  5
33C
  8
PICKUP_ROUTE
 10
182.49899291992188
 20
96.39299774169922
 30
0.0
 11
186.3090057373047
 21
96.58350372314453
 31
0.0
  0
LINE
  5
33D
  8
PICKUP_ROUTE
 10
186.3090057373047
 20
96.58350372314453
 30
0.0
 11
182.49899291992188
 21
96.71050262451172
 31
0.0
  0
LINE
  5
33E
  8
PICKUP_ROUTE
 10
182.49899291992188
 20
96.71050262451172
 30
0.0
 11
182.8800048828125
 21
99.56800079345703
 31
0.0
  0
LINE
  5
33F
  8
PICKUP_ROUTE
 10
182.8800048828125
 20
99.56800079345703
 30
0.0
 11
182.49899291992188
 21
99.63150024414062
 31
0.0
  0
LINE
  5
340
  8
PICKUP_ROUTE
 10
182.49899291992188
 20
99.63150024414062
 30
0.0
 11
182.4355010986328
 21
112.45850372314453
 31
0.0
  0
LINE
  5
341
  8
PICKUP_ROUTE
 10
182.4355010986328
 20
112.45850372314453
 30
0.0
 11
182.2449951171875
 21
103.1240005493164
 31
0.0
  0
LINE
  5
342
  8
PICKUP_ROUTE
 10
182.2449951171875
 20
103.1240005493164
 30
0.0
 11
179.3874969482422
 21
103.1240005493164
 31
0.0
  0
LINE
  5
343
  8
PICKUP_ROUTE
 10
179.3874969482422
 20
103.1240005493164
 30
0.0
 11
179.32400512695312
 21
103.44149780273438
 31
0.0
  0
LINE
  5
344
  8
PICKUP_ROUTE
 10
179.32400512695312
 20
103.44149780273438
 30
0.0
 11
176.52999877929688
 21
103.1240005493164
 31
0.0
  0
LINE
  5
345
  8
PICKUP_ROUTE
 10
176.52999877929688
 20
103.1240005493164
 30
0.0
 11
176.4665069580078
 21
106.74349975585938
 31
0.0
  0
LINE
  5
346
  8
PICKUP_ROUTE
 10
176.4665069580078
 20
106.74349975585938
 30
0.0
 11
176.84750366210938
 21
107.25150299072266
 31
0.0
  0
LINE
  5
347
  8
PICKUP_ROUTE
 10
176.84750366210938
 20
107.25150299072266
 30
0.0
 11
176.52999877929688
 21
109.4739990234375
 31
0.0
  0
LINE
  5
348
  8
PICKUP_ROUTE
 10
176.52999877929688
 20
109.4739990234375
 30
0.0
 11
175.64100646972656
 21
109.66449737548828
 31
0.0
  0
LINE
  5
349
  8
PICKUP_ROUTE
 10
175.64100646972656
 20
109.66449737548828
 30
0.0
 11
175.13299560546875
 21
109.34700012207031
 31
0.0
  0
LINE
  5
34A
  8
PICKUP_ROUTE
 10
175.13299560546875
 20
109.34700012207031
 30
0.0
 11
174.87899780273438
 21
107.06099700927734
 31
0.0
  0
LINE
  5
34B
  8
PICKUP_ROUTE
 10
174.87899780273438
 20
107.06099700927734
 30
0.0
 11
173.35499572753906
 21
107.06099700927734
 31
0.0
  0
LINE
  5
34C
  8
PICKUP_ROUTE
 10
173.35499572753906
 20
107.06099700927734
 30
0.0
 11
173.1645050048828
 21
109.02950286865234
 31
0.0
  0
LINE
  5
34D
  8
PICKUP_ROUTE
 10
173.1645050048828
 20
109.02950286865234
 30
0.0
 11
172.72000122070312
 21
109.60099792480469
 31
0.0
  0
LINE
  5
34E
  8
PICKUP_ROUTE
 10
172.72000122070312
 20
109.60099792480469
 30
0.0
 11
172.02149963378906
 21
109.72799682617188
 31
0.0
  0
LINE
  5
34F
  8
PICKUP_ROUTE
 10
172.02149963378906
 20
109.72799682617188
 30
0.0
 11
167.19549560546875
 21
136.33450317382812
 31
0.0
  0
ENDSEC
  0
EOF
