  0
SECTION
  2
HEADER
  9
$ACADVER
  1
AC1009
  9
$DWGCODEPAGE
  3
ANSI_1252
  9
$INSBASE
 10
0.0
 20
0.0
 30
0.0
  9
$EXTMIN
 10
1e+20
 20
1e+20
 30
1e+20
  9
$EXTMAX
 10
-1e+20
 20
-1e+20
 30
-1e+20
  9
$LIMMIN
 10
0.0
 20
0.0
  9
$LIMMAX
 10
420.0
 20
297.0
  9
$ORTHOMODE
 70
0
  9
$REGENMODE
 70
1
  9
$FILLMODE
 70
1
  9
$DRAGMODE
 70
2
  9
$QTEXTMODE
 70
0
  9
$MIRRTEXT
 70
1
  9
$OSMODE
 70
20583
  9
$LTSCALE
 40
1.0
  9
$ATTMODE
 70
1
  9
$TEXTSIZE
 40
2.5
  9
$TRACEWID
 40
1.0
  9
$TEXTSTYLE
  7
Standard
  9
$CLAYER
  8
0
  9
$CELTYPE
  6
ByLayer
  9
$CECOLOR
 62
256
  9
$DIMSCALE
 40
1.0
  9
$DIMASZ
 40
2.5
  9
$DIMEXO
 40
0.625
  9
$DIMDLI
 40
3.75
  9
$DIMRND
 40
0.0
  9
$DIMDLE
 40
0.0
  9
$DIMEXE
 40
1.25
  9
$DIMTP
 40
0.0
  9
$DIMTM
 40
0.0
  9
$DIMTXT
 40
2.5
  9
$DIMCEN
 40
2.5
  9
$DIMTSZ
 40
0.0
  9
$DIMTOL
 70
0
  9
$DIMLIM
 70
0
  9
$DIMTIH
 70
0
  9
$DIMTOH
 70
0
  9
$DIMSE1
 70
0
  9
$DIMSE2
 70
0
  9
$DIMTAD
 70
1
  9
$DIMZIN
 70
8
  9
$DIMBLK
  1

  9
$DIMASO
 70
1
  9
$DIMSHO
 70
1
  9
$DIMPOST
  1

  9
$DIMAPOST
  1

  9
$DIMALT
 70
0
  9
$DIMALTD
 70
3
  9
$DIMALTF
 40
0.03937007874
  9
$DIMLFAC
 40
1.0
  9
$DIMTOFL
 70
1
  9
$DIMTVP
 40
0.0
  9
$DIMTIX
 70
0
  9
$DIMSOXD
 70
0
  9
$DIMSAH
 70
0
  9
$DIMBLK1
  1

  9
$DIMBLK2
  1

  9
$DIMSTYLE
  2
ISO-25
  9
$DIMCLRD
 70
0
  9
$DIMCLRE
 70
0
  9
$DIMCLRT
 70
0
  9
$DIMTFAC
 40
1.0
  9
$DIMGAP
 40
0.625
  9
$COORDS
 70
1
  9
$ATTDIA
 70
0
  9
$ATTREQ
 70
1
  9
$HANDLING
 70
1
  9
$LUNITS
 70
2
  9
$LUPREC
 70
4
  9
$SKETCHINC
 40
1.0
  9
$FILLETRAD
 40
10.0
  9
$AUNITS
 70
0
  9
$AUPREC
 70
2
  9
$MENU
  1
.
  9
$ELEVATION
 40
0.0
  9
$PELEVATION
 40
0.0
  9
$THICKNESS
 40
0.0
  9
$LIMCHECK
 70
0
  9
$CHAMFERA
 40
0.0
  9
$CHAMFERB
 40
0.0
  9
$SKPOLY
 70
0
  9
$TDCREATE
 40
2461104.900740741
  9
$TDUPDATE
 40
2461104.900740741
  9
$TDINDWG
 40
0.0
  9
$TDUSRTIMER
 40
0.0
  9
$USRTIMER
 70
1
  9
$ANGBASE
 50
0.0
  9
$ANGDIR
 70
0
  9
$PDMODE
 70
0
  9
$PDSIZE
 40
0.0
  9
$PLINEWID
 40
0.0
  9
$SPLFRAME
 70
0
  9
$SPLINETYPE
 70
6
  9
$SPLINESEGS
 70
8
  9
$HANDSEED
  5
1E0
  9
$SURFTAB1
 70
6
  9
$SURFTAB2
 70
6
  9
$SURFTYPE
 70
6
  9
$SURFU
 70
6
  9
$SURFV
 70
6
  9
$UCSNAME
  2

  9
$UCSORG
 10
0.0
 20
0.0
 30
0.0
  9
$UCSXDIR
 10
1.0
 20
0.0
 30
0.0
  9
$UCSYDIR
 10
0.0
 20
1.0
 30
0.0
  9
$PUCSNAME
  2

  9
$PUCSORG
 10
0.0
 20
0.0
 30
0.0
  9
$PUCSXDIR
 10
1.0
 20
0.0
 30
0.0
  9
$PUCSYDIR
 10
0.0
 20
1.0
 30
0.0
  9
$USERI1
 70
0
  9
$USERI2
 70
0
  9
$USERI3
 70
0
  9
$USERI4
 70
0
  9
$USERI5
 70
0
  9
$USERR1
 40
0.0
  9
$USERR2
 40
0.0
  9
$USERR3
 40
0.0
  9
$USERR4
 40
0.0
  9
$USERR5
 40
0.0
  9
$WORLDVIEW
 70
1
  9
$SHADEDGE
 70
3
  9
$SHADEDIF
 70
70
  9
$TILEMODE
 70
1
  9
$MAXACTVP
 70
64
  9
$PLIMCHECK
 70
0
  9
$PEXTMIN
 10
1e+20
 20
1e+20
 30
1e+20
  9
$PEXTMAX
 10
-1e+20
 20
-1e+20
 30
-1e+20
  9
$PLIMMIN
 10
0.0
 20
0.0
  9
$PLIMMAX
 10
420.0
 20
297.0
  9
$UNITMODE
 70
0
  9
$VISRETAIN
 70
1
  9
$PLINEGEN
 70
0
  9
$PSLTSCALE
 70
1
  0
ENDSEC
  0
SECTION
  2
TABLES
  0
TABLE
  2
VPORT
 70
1
  0
VPORT
  5
23
  2
*Active
 70
0
 10
0.0
 20
0.0
 11
1.0
 21
1.0
 12
0.0
 22
0.0
 13
0.0
 23
0.0
 14
0.5
 24
0.5
 15
0.5
 25
0.5
 16
0.0
 26
0.0
 36
1.0
 17
0.0
 27
0.0
 37
0.0
 40
1000.0
 41
1.34
 42
50.0
 43
0.0
 44
0.0
 50
0.0
 51
0.0
 71
0
 72
1000
 73
1
 74
3
 75
0
 76
0
 77
0
 78
0
  0
ENDTAB
  0
TABLE
  2
LTYPE
 70
3
  0
LTYPE
  5
24
  2
ByBlock
 70
0
  3

 72
65
 73
0
 40
0.0
  0
LTYPE
  5
25
  2
ByLayer
 70
0
  3

 72
65
 73
0
 40
0.0
  0
LTYPE
  5
26
  2
Continuous
 70
0
  3

 72
65
 73
0
 40
0.0
  0
ENDTAB
  0
TABLE
  2
LAYER
 70
2
  0
LAYER
  5
27
  2
0
 70
0
 62
7
  6
Continuous
  0
LAYER
  5
28
  2
Defpoints
 70
0
 62
7
  6
Continuous
  0
ENDTAB
  0
TABLE
  2
STYLE
 70
1
  0
STYLE
  5
29
  2
Standard
 70
0
 40
0.0
 41
1.0
 50
0.0
 71
0
 42
2.5
  3
txt
  4

  0
ENDTAB
  0
TABLE
  2
VIEW
 70
0
  0
ENDTAB
  0
TABLE
  2
UCS
 70
0
  0
ENDTAB
  0
TABLE
  2
APPID
 70
3
  0
APPID
  5
2A
  2
ACAD
 70
0
  0
APPID
  5
1DE
  2
HATCHBACKGROUNDCOLOR
 70
0
  0
APPID
  5
1DF
  2
EZDXF
 70
0
  0
ENDTAB
  0
TABLE
  2
DIMSTYLE
 70
1
  0
DIMSTYLE
105
2B
  2
Standard
 70
0
  3

  4

  5

  6

  7

 40
1.0
 41
2.5
 42
0.625
 43
3.75
 44
1.25
 45
0.0
 46
0.0
 47
0.0
 48
0.0
140
2.5
141
2.5
142
0.0
143
0.03937007874
144
1.0
145
0.0
146
1.0
147
0.625
 71
0
 72
0
 73
0
 74
0
 75
0
 76
0
 77
1
 78
8
170
0
171
3
172
1
173
0
174
0
175
0
176
0
177
0
178
0
  0
ENDTAB
  0
ENDSEC
  0
SECTION
  2
BLOCKS
  0
BLOCK
  5
18
  8
0
  2
$Model_Space
 70
0
 10
0.0
 20
0.0
 30
0.0
  3
$Model_Space
  1

1001
EZDXF
1000
CREATED_BY_EZDXF
1000
1.4.3 @ 2026-03-05T03:37:04.319582+00:00
1000
WRITTEN_BY_EZDXF
1000
1.4.3 @ 2026-03-05T03:37:04.870125+00:00
  0
ENDBLK
  5
19
  8
0
  0
BLOCK
  5
1C
  8
0
  2
$Paper_Space
 70
0
 10
0.0
 20
0.0
 30
0.0
  3
$Paper_Space
  1

  0
ENDBLK
  5
1D
  8
0
  0
ENDSEC
  0
SECTION
  2
ENTITIES
  0
LINE
  5
2D
  8
PICKGUARD
 10
13.779500007629395
 20
273.36749267578125
 30
0.0
 11
13.715999603271484
 21
6.2230000495910645
 31
0.0
  0
LINE
  5
2E
  8
PICKGUARD
 10
13.715999603271484
 20
6.2230000495910645
 30
0.0
 11
202.0570068359375
 21
6.1595001220703125
 31
0.0
  0
LINE
  5
2F
  8
PICKGUARD
 10
202.0570068359375
 20
6.1595001220703125
 30
0.0
 11
202.0570068359375
 21
273.3039855957031
 31
0.0
  0
LINE
  5
30
  8
PICKGUARD
 10
202.0570068359375
 20
273.3039855957031
 30
0.0
 11
13.779500007629395
 21
273.36749267578125
 31
0.0
  0
LINE
  5
31
  8
PICKGUARD
 10
13.970000267028809
 20
273.177001953125
 30
0.0
 11
201.8665008544922
 21
273.1134948730469
 31
0.0
  0
LINE
  5
32
  8
PICKGUARD
 10
201.8665008544922
 20
273.1134948730469
 30
0.0
 11
201.80299377441406
 21
6.349999904632568
 31
0.0
  0
LINE
  5
33
  8
PICKGUARD
 10
201.80299377441406
 20
6.349999904632568
 30
0.0
 11
13.906499862670898
 21
6.41349983215332
 31
0.0
  0
LINE
  5
34
  8
PICKGUARD
 10
13.906499862670898
 20
6.41349983215332
 30
0.0
 11
13.970000267028809
 21
273.177001953125
 31
0.0
  0
LINE
  5
35
  8
SMALL_FEATURE
 10
181.54649353027344
 20
39.43349838256836
 30
0.0
 11
188.34100341796875
 21
39.49700164794922
 31
0.0
  0
LINE
  5
36
  8
SMALL_FEATURE
 10
188.34100341796875
 20
39.49700164794922
 30
0.0
 11
188.531494140625
 21
38.98899841308594
 31
0.0
  0
LINE
  5
37
  8
SMALL_FEATURE
 10
188.531494140625
 20
38.98899841308594
 30
0.0
 11
188.59500122070312
 21
39.49700164794922
 31
0.0
  0
LINE
  5
38
  8
SMALL_FEATURE
 10
188.59500122070312
 20
39.49700164794922
 30
0.0
 11
198.7550048828125
 21
39.49700164794922
 31
0.0
  0
LINE
  5
39
  8
SMALL_FEATURE
 10
198.7550048828125
 20
39.49700164794922
 30
0.0
 11
198.81849670410156
 21
32.3849983215332
 31
0.0
  0
LINE
  5
3A
  8
SMALL_FEATURE
 10
198.81849670410156
 20
32.3849983215332
 30
0.0
 11
198.05650329589844
 21
32.32149887084961
 31
0.0
  0
LINE
  5
3B
  8
SMALL_FEATURE
 10
198.05650329589844
 20
32.32149887084961
 30
0.0
 11
197.35800170898438
 21
31.62299919128418
 31
0.0
  0
LINE
  5
3C
  8
SMALL_FEATURE
 10
197.35800170898438
 20
31.62299919128418
 30
0.0
 11
196.3419952392578
 21
29.273500442504883
 31
0.0
  0
LINE
  5
3D
  8
SMALL_FEATURE
 10
196.3419952392578
 20
29.273500442504883
 30
0.0
 11
195.83399963378906
 21
26.60650062561035
 31
0.0
  0
LINE
  5
3E
  8
SMALL_FEATURE
 10
195.83399963378906
 20
26.60650062561035
 30
0.0
 11
196.15150451660156
 21
26.60650062561035
 31
0.0
  0
LINE
  5
3F
  8
SMALL_FEATURE
 10
196.15150451660156
 20
26.60650062561035
 30
0.0
 11
196.27850341796875
 21
28.575000762939453
 31
0.0
  0
LINE
  5
40
  8
SMALL_FEATURE
 10
196.27850341796875
 20
28.575000762939453
 30
0.0
 11
197.29449462890625
 21
31.114999771118164
 31
0.0
  0
LINE
  5
41
  8
SMALL_FEATURE
 10
197.29449462890625
 20
31.114999771118164
 30
0.0
 11
197.86599731445312
 21
32.00400161743164
 31
0.0
  0
LINE
  5
42
  8
SMALL_FEATURE
 10
197.86599731445312
 20
32.00400161743164
 30
0.0
 11
198.7550048828125
 21
32.00400161743164
 31
0.0
  0
LINE
  5
43
  8
SMALL_FEATURE
 10
198.7550048828125
 20
32.00400161743164
 30
0.0
 11
198.81849670410156
 21
24.574499130249023
 31
0.0
  0
LINE
  5
44
  8
SMALL_FEATURE
 10
198.81849670410156
 20
24.574499130249023
 30
0.0
 11
194.50050354003906
 21
24.51099967956543
 31
0.0
  0
LINE
  5
45
  8
SMALL_FEATURE
 10
194.50050354003906
 20
24.51099967956543
 30
0.0
 11
194.43699645996094
 21
24.828500747680664
 31
0.0
  0
LINE
  5
46
  8
SMALL_FEATURE
 10
194.43699645996094
 20
24.828500747680664
 30
0.0
 11
194.2465057373047
 21
24.574499130249023
 31
0.0
  0
LINE
  5
47
  8
SMALL_FEATURE
 10
194.2465057373047
 20
24.574499130249023
 30
0.0
 11
193.29400634765625
 21
24.828500747680664
 31
0.0
  0
LINE
  5
48
  8
SMALL_FEATURE
 10
193.29400634765625
 20
24.828500747680664
 30
0.0
 11
193.10350036621094
 21
24.51099967956543
 31
0.0
  0
LINE
  5
49
  8
SMALL_FEATURE
 10
193.10350036621094
 20
24.51099967956543
 30
0.0
 11
190.3094940185547
 21
24.51099967956543
 31
0.0
  0
LINE
  5
4A
  8
SMALL_FEATURE
 10
190.3094940185547
 20
24.51099967956543
 30
0.0
 11
190.24600219726562
 21
24.828500747680664
 31
0.0
  0
LINE
  5
4B
  8
SMALL_FEATURE
 10
190.24600219726562
 20
24.828500747680664
 30
0.0
 11
189.61099243164062
 21
25.018999099731445
 31
0.0
  0
LINE
  5
4C
  8
SMALL_FEATURE
 10
189.61099243164062
 20
25.018999099731445
 30
0.0
 11
189.54750061035156
 21
24.574499130249023
 31
0.0
  0
LINE
  5
4D
  8
SMALL_FEATURE
 10
189.54750061035156
 20
24.574499130249023
 30
0.0
 11
181.67349243164062
 21
24.51099967956543
 31
0.0
  0
LINE
  5
4E
  8
SMALL_FEATURE
 10
181.67349243164062
 20
24.51099967956543
 30
0.0
 11
181.54649353027344
 21
25.844499588012695
 31
0.0
  0
LINE
  5
4F
  8
SMALL_FEATURE
 10
181.54649353027344
 20
25.844499588012695
 30
0.0
 11
182.1179962158203
 21
25.908000946044922
 31
0.0
  0
LINE
  5
50
  8
SMALL_FEATURE
 10
182.1179962158203
 20
25.908000946044922
 30
0.0
 11
182.6894989013672
 21
26.60650062561035
 31
0.0
  0
LINE
  5
51
  8
SMALL_FEATURE
 10
182.6894989013672
 20
26.60650062561035
 30
0.0
 11
183.51499938964844
 21
26.542999267578125
 31
0.0
  0
LINE
  5
52
  8
SMALL_FEATURE
 10
183.51499938964844
 20
26.542999267578125
 30
0.0
 11
183.51499938964844
 21
25.717500686645508
 31
0.0
  0
LINE
  5
53
  8
SMALL_FEATURE
 10
183.51499938964844
 20
25.717500686645508
 30
0.0
 11
183.70550537109375
 21
26.225500106811523
 31
0.0
  0
LINE
  5
54
  8
SMALL_FEATURE
 10
183.70550537109375
 20
26.225500106811523
 30
0.0
 11
184.46749877929688
 21
26.225500106811523
 31
0.0
  0
LINE
  5
55
  8
SMALL_FEATURE
 10
184.46749877929688
 20
26.225500106811523
 30
0.0
 11
186.1820068359375
 21
29.972000122070312
 31
0.0
  0
LINE
  5
56
  8
SMALL_FEATURE
 10
186.1820068359375
 20
29.972000122070312
 30
0.0
 11
186.7534942626953
 21
31.686500549316406
 31
0.0
  0
LINE
  5
57
  8
SMALL_FEATURE
 10
186.7534942626953
 20
31.686500549316406
 30
0.0
 11
187.3249969482422
 21
31.686500549316406
 31
0.0
  0
LINE
  5
58
  8
SMALL_FEATURE
 10
187.3249969482422
 20
31.686500549316406
 30
0.0
 11
187.5155029296875
 21
32.638999938964844
 31
0.0
  0
LINE
  5
59
  8
SMALL_FEATURE
 10
187.5155029296875
 20
32.638999938964844
 30
0.0
 11
189.86500549316406
 21
32.57550048828125
 31
0.0
  0
LINE
  5
5A
  8
SMALL_FEATURE
 10
189.86500549316406
 20
32.57550048828125
 30
0.0
 11
189.86500549316406
 21
32.829498291015625
 31
0.0
  0
LINE
  5
5B
  8
SMALL_FEATURE
 10
189.86500549316406
 20
32.829498291015625
 30
0.0
 11
188.59500122070312
 21
32.829498291015625
 31
0.0
  0
LINE
  5
5C
  8
SMALL_FEATURE
 10
188.59500122070312
 20
32.829498291015625
 30
0.0
 11
188.02349853515625
 21
33.21049880981445
 31
0.0
  0
LINE
  5
5D
  8
SMALL_FEATURE
 10
188.02349853515625
 20
33.21049880981445
 30
0.0
 11
188.02349853515625
 21
33.654998779296875
 31
0.0
  0
LINE
  5
5E
  8
SMALL_FEATURE
 10
188.02349853515625
 20
33.654998779296875
 30
0.0
 11
187.3885040283203
 21
33.654998779296875
 31
0.0
  0
LINE
  5
5F
  8
SMALL_FEATURE
 10
187.3885040283203
 20
33.654998779296875
 30
0.0
 11
187.3885040283203
 21
34.67100143432617
 31
0.0
  0
LINE
  5
60
  8
SMALL_FEATURE
 10
187.3885040283203
 20
34.67100143432617
 30
0.0
 11
186.3090057373047
 21
33.337501525878906
 31
0.0
  0
LINE
  5
61
  8
SMALL_FEATURE
 10
186.3090057373047
 20
33.337501525878906
 30
0.0
 11
183.83250427246094
 21
31.813499450683594
 31
0.0
  0
LINE
  5
62
  8
SMALL_FEATURE
 10
183.83250427246094
 20
31.813499450683594
 30
0.0
 11
183.0070037841797
 21
30.60700035095215
 31
0.0
  0
LINE
  5
63
  8
SMALL_FEATURE
 10
183.0070037841797
 20
30.60700035095215
 30
0.0
 11
183.13400268554688
 21
29.844999313354492
 31
0.0
  0
LINE
  5
64
  8
SMALL_FEATURE
 10
183.13400268554688
 20
29.844999313354492
 30
0.0
 11
183.26100158691406
 21
30.797500610351562
 31
0.0
  0
LINE
  5
65
  8
SMALL_FEATURE
 10
183.26100158691406
 20
30.797500610351562
 30
0.0
 11
183.83250427246094
 21
31.496000289916992
 31
0.0
  0
LINE
  5
66
  8
SMALL_FEATURE
 10
183.83250427246094
 20
31.496000289916992
 30
0.0
 11
185.03900146484375
 21
32.19449996948242
 31
0.0
  0
LINE
  5
67
  8
SMALL_FEATURE
 10
185.03900146484375
 20
32.19449996948242
 30
0.0
 11
185.9915008544922
 21
32.19449996948242
 31
0.0
  0
LINE
  5
68
  8
SMALL_FEATURE
 10
185.9915008544922
 20
32.19449996948242
 30
0.0
 11
186.05499267578125
 21
31.178499221801758
 31
0.0
  0
LINE
  5
69
  8
SMALL_FEATURE
 10
186.05499267578125
 20
31.178499221801758
 30
0.0
 11
185.22950744628906
 21
28.95599937438965
 31
0.0
  0
LINE
  5
6A
  8
SMALL_FEATURE
 10
185.22950744628906
 20
28.95599937438965
 30
0.0
 11
183.32449340820312
 21
28.38450050354004
 31
0.0
  0
LINE
  5
6B
  8
SMALL_FEATURE
 10
183.32449340820312
 20
28.38450050354004
 30
0.0
 11
183.32449340820312
 21
27.622499465942383
 31
0.0
  0
LINE
  5
6C
  8
SMALL_FEATURE
 10
183.32449340820312
 20
27.622499465942383
 30
0.0
 11
182.6894989013672
 21
26.73349952697754
 31
0.0
  0
LINE
  5
6D
  8
SMALL_FEATURE
 10
182.6894989013672
 20
26.73349952697754
 30
0.0
 11
181.61000061035156
 21
26.542999267578125
 31
0.0
  0
LINE
  5
6E
  8
SMALL_FEATURE
 10
181.61000061035156
 20
26.542999267578125
 30
0.0
 11
181.54649353027344
 21
39.43349838256836
 31
0.0
  0
LINE
  5
6F
  8
SMALL_FEATURE
 10
68.5165023803711
 20
226.63150024414062
 30
0.0
 11
70.04049682617188
 21
226.63150024414062
 31
0.0
  0
LINE
  5
70
  8
SMALL_FEATURE
 10
70.04049682617188
 20
226.63150024414062
 30
0.0
 11
71.69149780273438
 21
226.18699645996094
 31
0.0
  0
LINE
  5
71
  8
SMALL_FEATURE
 10
71.69149780273438
 20
226.18699645996094
 30
0.0
 11
74.29499816894531
 21
224.59950256347656
 31
0.0
  0
LINE
  5
72
  8
SMALL_FEATURE
 10
74.29499816894531
 20
224.59950256347656
 30
0.0
 11
76.58100128173828
 21
221.99600219726562
 31
0.0
  0
LINE
  5
73
  8
SMALL_FEATURE
 10
76.58100128173828
 20
221.99600219726562
 30
0.0
 11
77.34300231933594
 21
220.21800231933594
 31
0.0
  0
LINE
  5
74
  8
SMALL_FEATURE
 10
77.34300231933594
 20
220.21800231933594
 30
0.0
 11
77.7874984741211
 21
218.0590057373047
 31
0.0
  0
LINE
  5
75
  8
SMALL_FEATURE
 10
77.7874984741211
 20
218.0590057373047
 30
0.0
 11
77.7239990234375
 21
216.02699279785156
 31
0.0
  0
LINE
  5
76
  8
SMALL_FEATURE
 10
77.7239990234375
 20
216.02699279785156
 30
0.0
 11
77.27950286865234
 21
214.1855010986328
 31
0.0
  0
LINE
  5
77
  8
SMALL_FEATURE
 10
77.27950286865234
 20
214.1855010986328
 30
0.0
 11
75.62850189208984
 21
211.3280029296875
 31
0.0
  0
LINE
  5
78
  8
SMALL_FEATURE
 10
75.62850189208984
 20
211.3280029296875
 30
0.0
 11
72.96150207519531
 21
209.10549926757812
 31
0.0
  0
LINE
  5
79
  8
SMALL_FEATURE
 10
72.96150207519531
 20
209.10549926757812
 30
0.0
 11
69.8499984741211
 21
207.96249389648438
 31
0.0
  0
LINE
  5
7A
  8
SMALL_FEATURE
 10
69.8499984741211
 20
207.96249389648438
 30
0.0
 11
68.4530029296875
 21
208.0260009765625
 31
0.0
  0
LINE
  5
7B
  8
SMALL_FEATURE
 10
68.4530029296875
 20
208.0260009765625
 30
0.0
 11
68.5165023803711
 21
226.63150024414062
 31
0.0
  0
LINE
  5
7C
  8
SMALL_FEATURE
 10
66.7385025024414
 20
226.63150024414062
 30
0.0
 11
68.26249694824219
 21
226.5679931640625
 31
0.0
  0
LINE
  5
7D
  8
SMALL_FEATURE
 10
68.26249694824219
 20
226.5679931640625
 30
0.0
 11
68.1989974975586
 21
207.96249389648438
 31
0.0
  0
LINE
  5
7E
  8
SMALL_FEATURE
 10
68.1989974975586
 20
207.96249389648438
 30
0.0
 11
65.1510009765625
 21
208.40699768066406
 31
0.0
  0
LINE
  5
7F
  8
SMALL_FEATURE
 10
65.1510009765625
 20
208.40699768066406
 30
0.0
 11
62.356998443603516
 21
210.05799865722656
 31
0.0
  0
LINE
  5
80
  8
SMALL_FEATURE
 10
62.356998443603516
 20
210.05799865722656
 30
0.0
 11
60.07099914550781
 21
212.91549682617188
 31
0.0
  0
LINE
  5
81
  8
SMALL_FEATURE
 10
60.07099914550781
 20
212.91549682617188
 30
0.0
 11
58.99150085449219
 21
216.8524932861328
 31
0.0
  0
LINE
  5
82
  8
SMALL_FEATURE
 10
58.99150085449219
 20
216.8524932861328
 30
0.0
 11
59.43600082397461
 21
220.1544952392578
 31
0.0
  0
LINE
  5
83
  8
SMALL_FEATURE
 10
59.43600082397461
 20
220.1544952392578
 30
0.0
 11
61.08700180053711
 21
223.26600646972656
 31
0.0
  0
LINE
  5
84
  8
SMALL_FEATURE
 10
61.08700180053711
 20
223.26600646972656
 30
0.0
 11
63.62699890136719
 21
225.4250030517578
 31
0.0
  0
LINE
  5
85
  8
SMALL_FEATURE
 10
63.62699890136719
 20
225.4250030517578
 30
0.0
 11
66.7385025024414
 21
226.63150024414062
 31
0.0
  0
LINE
  5
86
  8
SMALL_FEATURE
 10
185.29299926757812
 20
24.256999969482422
 30
0.0
 11
198.7550048828125
 21
24.320499420166016
 31
0.0
  0
LINE
  5
87
  8
SMALL_FEATURE
 10
198.7550048828125
 20
24.320499420166016
 30
0.0
 11
198.81849670410156
 21
17.8435001373291
 31
0.0
  0
LINE
  5
88
  8
SMALL_FEATURE
 10
198.81849670410156
 20
17.8435001373291
 30
0.0
 11
185.35650634765625
 21
17.780000686645508
 31
0.0
  0
LINE
  5
89
  8
SMALL_FEATURE
 10
185.35650634765625
 20
17.780000686645508
 30
0.0
 11
185.29299926757812
 21
24.256999969482422
 31
0.0
  0
LINE
  5
8A
  8
SMALL_FEATURE
 10
77.08899688720703
 20
183.26100158691406
 30
0.0
 11
87.94750213623047
 21
183.32449340820312
 31
0.0
  0
LINE
  5
8B
  8
SMALL_FEATURE
 10
87.94750213623047
 20
183.32449340820312
 30
0.0
 11
88.01100158691406
 21
178.0540008544922
 31
0.0
  0
LINE
  5
8C
  8
SMALL_FEATURE
 10
88.01100158691406
 20
178.0540008544922
 30
0.0
 11
77.15249633789062
 21
177.927001953125
 31
0.0
  0
LINE
  5
8D
  8
SMALL_FEATURE
 10
77.15249633789062
 20
177.927001953125
 30
0.0
 11
77.08899688720703
 21
183.26100158691406
 31
0.0
  0
LINE
  5
8E
  8
SMALL_FEATURE
 10
48.704498291015625
 20
183.26100158691406
 30
0.0
 11
59.5629997253418
 21
183.32449340820312
 31
0.0
  0
LINE
  5
8F
  8
SMALL_FEATURE
 10
59.5629997253418
 20
183.32449340820312
 30
0.0
 11
59.62649917602539
 21
177.99049377441406
 31
0.0
  0
LINE
  5
90
  8
SMALL_FEATURE
 10
59.62649917602539
 20
177.99049377441406
 30
0.0
 11
48.83150100708008
 21
177.927001953125
 31
0.0
  0
LINE
  5
91
  8
SMALL_FEATURE
 10
48.83150100708008
 20
177.927001953125
 30
0.0
 11
48.704498291015625
 21
183.26100158691406
 31
0.0
  0
LINE
  5
92
  8
SMALL_FEATURE
 10
185.29299926757812
 20
17.525999069213867
 30
0.0
 11
198.7550048828125
 21
17.589500427246094
 31
0.0
  0
LINE
  5
93
  8
SMALL_FEATURE
 10
198.7550048828125
 20
17.589500427246094
 30
0.0
 11
198.81849670410156
 21
13.58899974822998
 31
0.0
  0
LINE
  5
94
  8
SMALL_FEATURE
 10
198.81849670410156
 20
13.58899974822998
 30
0.0
 11
185.35650634765625
 21
13.525500297546387
 31
0.0
  0
LINE
  5
95
  8
SMALL_FEATURE
 10
185.35650634765625
 20
13.525500297546387
 30
0.0
 11
185.29299926757812
 21
17.525999069213867
 31
0.0
  0
LINE
  5
96
  8
SMALL_FEATURE
 10
185.29299926757812
 20
13.271499633789062
 30
0.0
 11
198.7550048828125
 21
13.335000038146973
 31
0.0
  0
LINE
  5
97
  8
SMALL_FEATURE
 10
198.7550048828125
 20
13.335000038146973
 30
0.0
 11
198.81849670410156
 21
9.46150016784668
 31
0.0
  0
LINE
  5
98
  8
SMALL_FEATURE
 10
198.81849670410156
 20
9.46150016784668
 30
0.0
 11
185.35650634765625
 21
9.39799976348877
 31
0.0
  0
LINE
  5
99
  8
SMALL_FEATURE
 10
185.35650634765625
 20
9.39799976348877
 30
0.0
 11
185.29299926757812
 21
13.271499633789062
 31
0.0
  0
LINE
  5
9A
  8
SMALL_FEATURE
 10
68.4530029296875
 20
181.73699951171875
 30
0.0
 11
76.83499908447266
 21
181.80050659179688
 31
0.0
  0
LINE
  5
9B
  8
SMALL_FEATURE
 10
76.83499908447266
 20
181.80050659179688
 30
0.0
 11
76.89849853515625
 21
180.14950561523438
 31
0.0
  0
LINE
  5
9C
  8
SMALL_FEATURE
 10
76.89849853515625
 20
180.14950561523438
 30
0.0
 11
68.5165023803711
 21
180.08599853515625
 31
0.0
  0
LINE
  5
9D
  8
SMALL_FEATURE
 10
68.5165023803711
 20
180.08599853515625
 30
0.0
 11
68.4530029296875
 21
181.73699951171875
 31
0.0
  0
LINE
  5
9E
  8
SMALL_FEATURE
 10
59.81700134277344
 20
181.73699951171875
 30
0.0
 11
68.1989974975586
 21
181.80050659179688
 31
0.0
  0
LINE
  5
9F
  8
SMALL_FEATURE
 10
68.1989974975586
 20
181.80050659179688
 30
0.0
 11
68.26249694824219
 21
180.14950561523438
 31
0.0
  0
LINE
  5
A0
  8
SMALL_FEATURE
 10
68.26249694824219
 20
180.14950561523438
 30
0.0
 11
59.88050079345703
 21
180.08599853515625
 31
0.0
  0
LINE
  5
A1
  8
SMALL_FEATURE
 10
59.88050079345703
 20
180.08599853515625
 30
0.0
 11
59.81700134277344
 21
181.73699951171875
 31
0.0
  0
LINE
  5
A2
  8
SMALL_FEATURE
 10
166.3699951171875
 20
27.30500030517578
 30
0.0
 11
166.11599731445312
 21
28.765499114990234
 31
0.0
  0
LINE
  5
A3
  8
SMALL_FEATURE
 10
166.11599731445312
 20
28.765499114990234
 30
0.0
 11
161.16299438476562
 21
28.765499114990234
 31
0.0
  0
LINE
  5
A4
  8
SMALL_FEATURE
 10
161.16299438476562
 20
28.765499114990234
 30
0.0
 11
161.09950256347656
 21
27.622499465942383
 31
0.0
  0
LINE
  5
A5
  8
SMALL_FEATURE
 10
161.09950256347656
 20
27.622499465942383
 30
0.0
 11
160.2740020751953
 21
27.68600082397461
 31
0.0
  0
LINE
  5
A6
  8
SMALL_FEATURE
 10
160.2740020751953
 20
27.68600082397461
 30
0.0
 11
160.2740020751953
 21
28.765499114990234
 31
0.0
  0
LINE
  5
A7
  8
SMALL_FEATURE
 10
160.2740020751953
 20
28.765499114990234
 30
0.0
 11
158.9405059814453
 21
28.765499114990234
 31
0.0
  0
LINE
  5
A8
  8
SMALL_FEATURE
 10
158.9405059814453
 20
28.765499114990234
 30
0.0
 11
158.49600219726562
 21
28.25749969482422
 31
0.0
  0
LINE
  5
A9
  8
SMALL_FEATURE
 10
158.49600219726562
 20
28.25749969482422
 30
0.0
 11
158.5594940185547
 21
27.55900001525879
 31
0.0
  0
LINE
  5
AA
  8
SMALL_FEATURE
 10
158.5594940185547
 20
27.55900001525879
 30
0.0
 11
158.9405059814453
 21
27.241500854492188
 31
0.0
  0
LINE
  5
AB
  8
SMALL_FEATURE
 10
158.9405059814453
 20
27.241500854492188
 30
0.0
 11
166.3699951171875
 21
27.30500030517578
 31
0.0
  0
LINE
  5
AC
  8
SMALL_FEATURE
 10
22.161500930786133
 20
264.3504943847656
 30
0.0
 11
22.542499542236328
 21
264.3504943847656
 31
0.0
  0
LINE
  5
AD
  8
SMALL_FEATURE
 10
22.542499542236328
 20
264.3504943847656
 30
0.0
 11
22.923500061035156
 21
265.3030090332031
 31
0.0
  0
LINE
  5
AE
  8
SMALL_FEATURE
 10
22.923500061035156
 20
265.3030090332031
 30
0.0
 11
24.003000259399414
 21
265.3030090332031
 31
0.0
  0
LINE
  5
AF
  8
SMALL_FEATURE
 10
24.003000259399414
 20
265.3030090332031
 30
0.0
 11
24.384000778198242
 21
264.3504943847656
 31
0.0
  0
LINE
  5
B0
  8
SMALL_FEATURE
 10
24.384000778198242
 20
264.3504943847656
 30
0.0
 11
25.590499877929688
 21
264.3504943847656
 31
0.0
  0
LINE
  5
B1
  8
SMALL_FEATURE
 10
25.590499877929688
 20
264.3504943847656
 30
0.0
 11
25.590499877929688
 21
265.5570068359375
 31
0.0
  0
LINE
  5
B2
  8
SMALL_FEATURE
 10
25.590499877929688
 20
265.5570068359375
 30
0.0
 11
27.43199920654297
 21
265.93798828125
 31
0.0
  0
LINE
  5
B3
  8
SMALL_FEATURE
 10
27.43199920654297
 20
265.93798828125
 30
0.0
 11
27.368499755859375
 21
266.9540100097656
 31
0.0
  0
LINE
  5
B4
  8
SMALL_FEATURE
 10
27.368499755859375
 20
266.9540100097656
 30
0.0
 11
26.923999786376953
 21
267.3349914550781
 31
0.0
  0
LINE
  5
B5
  8
SMALL_FEATURE
 10
26.923999786376953
 20
267.3349914550781
 30
0.0
 11
25.273000717163086
 21
267.39849853515625
 31
0.0
  0
LINE
  5
B6
  8
SMALL_FEATURE
 10
25.273000717163086
 20
267.39849853515625
 30
0.0
 11
25.273000717163086
 21
265.42999267578125
 31
0.0
  0
LINE
  5
B7
  8
SMALL_FEATURE
 10
25.273000717163086
 20
265.42999267578125
 30
0.0
 11
24.447500228881836
 21
265.3664855957031
 31
0.0
  0
LINE
  5
B8
  8
SMALL_FEATURE
 10
24.447500228881836
 20
265.3664855957031
 30
0.0
 11
23.749000549316406
 21
267.3349914550781
 31
0.0
  0
LINE
  5
B9
  8
SMALL_FEATURE
 10
23.749000549316406
 20
267.3349914550781
 30
0.0
 11
23.304500579833984
 21
267.39849853515625
 31
0.0
  0
LINE
  5
BA
  8
SMALL_FEATURE
 10
23.304500579833984
 20
267.39849853515625
 30
0.0
 11
22.161500930786133
 21
264.3504943847656
 31
0.0
  0
LINE
  5
BB
  8
SMALL_FEATURE
 10
114.1729965209961
 20
263.2074890136719
 30
0.0
 11
114.68099975585938
 21
263.0169982910156
 31
0.0
  0
LINE
  5
BC
  8
SMALL_FEATURE
 10
114.68099975585938
 20
263.0169982910156
 30
0.0
 11
114.68099975585938
 21
261.74700927734375
 31
0.0
  0
LINE
  5
BD
  8
SMALL_FEATURE
 10
114.68099975585938
 20
261.74700927734375
 30
0.0
 11
117.22100067138672
 21
261.74700927734375
 31
0.0
  0
LINE
  5
BE
  8
SMALL_FEATURE
 10
117.22100067138672
 20
261.74700927734375
 30
0.0
 11
117.28450012207031
 21
262.3819885253906
 31
0.0
  0
LINE
  5
BF
  8
SMALL_FEATURE
 10
117.28450012207031
 20
262.3819885253906
 30
0.0
 11
118.23699951171875
 21
262.3819885253906
 31
0.0
  0
LINE
  5
C0
  8
SMALL_FEATURE
 10
118.23699951171875
 20
262.3819885253906
 30
0.0
 11
118.30049896240234
 21
261.74700927734375
 31
0.0
  0
LINE
  5
C1
  8
SMALL_FEATURE
 10
118.30049896240234
 20
261.74700927734375
 30
0.0
 11
119.57050323486328
 21
261.74700927734375
 31
0.0
  0
LINE
  5
C2
  8
SMALL_FEATURE
 10
119.57050323486328
 20
261.74700927734375
 30
0.0
 11
119.0625
 21
263.2074890136719
 31
0.0
  0
LINE
  5
C3
  8
SMALL_FEATURE
 10
119.0625
 20
263.2074890136719
 30
0.0
 11
114.1729965209961
 21
263.2074890136719
 31
0.0
  0
LINE
  5
C4
  8
SMALL_FEATURE
 10
190.88099670410156
 20
32.32149887084961
 30
0.0
 11
190.43649291992188
 21
32.13100051879883
 31
0.0
  0
LINE
  5
C5
  8
SMALL_FEATURE
 10
190.43649291992188
 20
32.13100051879883
 30
0.0
 11
189.2935028076172
 21
28.95599937438965
 31
0.0
  0
LINE
  5
C6
  8
SMALL_FEATURE
 10
189.2935028076172
 20
28.95599937438965
 30
0.0
 11
188.4044952392578
 21
28.892499923706055
 31
0.0
  0
LINE
  5
C7
  8
SMALL_FEATURE
 10
188.4044952392578
 20
28.892499923706055
 30
0.0
 11
188.08700561523438
 21
29.273500442504883
 31
0.0
  0
LINE
  5
C8
  8
SMALL_FEATURE
 10
188.08700561523438
 20
29.273500442504883
 30
0.0
 11
186.8804931640625
 21
27.749500274658203
 31
0.0
  0
LINE
  5
C9
  8
SMALL_FEATURE
 10
186.8804931640625
 20
27.749500274658203
 30
0.0
 11
186.7534942626953
 21
26.60650062561035
 31
0.0
  0
LINE
  5
CA
  8
SMALL_FEATURE
 10
186.7534942626953
 20
26.60650062561035
 30
0.0
 11
187.00750732421875
 21
26.60650062561035
 31
0.0
  0
LINE
  5
CB
  8
SMALL_FEATURE
 10
187.00750732421875
 20
26.60650062561035
 30
0.0
 11
187.00750732421875
 21
27.749500274658203
 31
0.0
  0
LINE
  5
CC
  8
SMALL_FEATURE
 10
187.00750732421875
 20
27.749500274658203
 30
0.0
 11
187.89649963378906
 21
28.82900047302246
 31
0.0
  0
LINE
  5
CD
  8
SMALL_FEATURE
 10
187.89649963378906
 20
28.82900047302246
 30
0.0
 11
188.78550720214844
 21
28.765499114990234
 31
0.0
  0
LINE
  5
CE
  8
SMALL_FEATURE
 10
188.78550720214844
 20
28.765499114990234
 30
0.0
 11
188.78550720214844
 21
26.60650062561035
 31
0.0
  0
LINE
  5
CF
  8
SMALL_FEATURE
 10
188.78550720214844
 20
26.60650062561035
 30
0.0
 11
189.0395050048828
 21
26.60650062561035
 31
0.0
  0
LINE
  5
D0
  8
SMALL_FEATURE
 10
189.0395050048828
 20
26.60650062561035
 30
0.0
 11
189.0395050048828
 21
28.38450050354004
 31
0.0
  0
LINE
  5
D1
  8
SMALL_FEATURE
 10
189.0395050048828
 20
28.38450050354004
 30
0.0
 11
190.88099670410156
 21
32.32149887084961
 31
0.0
  0
LINE
  5
D2
  8
BRIDGE_ROUTE
 10
110.80750274658203
 20
248.9199981689453
 30
0.0
 11
114.55400085449219
 21
248.72950744628906
 31
0.0
  0
LINE
  5
D3
  8
BRIDGE_ROUTE
 10
114.55400085449219
 20
248.72950744628906
 30
0.0
 11
114.23650360107422
 21
245.9355010986328
 31
0.0
  0
LINE
  5
D4
  8
BRIDGE_ROUTE
 10
114.23650360107422
 20
245.9355010986328
 30
0.0
 11
114.55400085449219
 21
245.8719940185547
 31
0.0
  0
LINE
  5
D5
  8
BRIDGE_ROUTE
 10
114.55400085449219
 20
245.8719940185547
 30
0.0
 11
114.55400085449219
 21
215.8365020751953
 31
0.0
  0
LINE
  5
D6
  8
BRIDGE_ROUTE
 10
114.55400085449219
 20
215.8365020751953
 30
0.0
 11
114.23650360107422
 21
215.7729949951172
 31
0.0
  0
LINE
  5
D7
  8
BRIDGE_ROUTE
 10
114.23650360107422
 20
215.7729949951172
 30
0.0
 11
114.55400085449219
 21
212.91549682617188
 31
0.0
  0
LINE
  5
D8
  8
BRIDGE_ROUTE
 10
114.55400085449219
 20
212.91549682617188
 30
0.0
 11
110.80750274658203
 21
212.6614990234375
 31
0.0
  0
LINE
  5
D9
  8
BRIDGE_ROUTE
 10
110.80750274658203
 20
212.6614990234375
 30
0.0
 11
123.697998046875
 21
212.6614990234375
 31
0.0
  0
LINE
  5
DA
  8
BRIDGE_ROUTE
 10
123.697998046875
 20
212.6614990234375
 30
0.0
 11
114.80799865722656
 21
212.91549682617188
 31
0.0
  0
LINE
  5
DB
  8
BRIDGE_ROUTE
 10
114.80799865722656
 20
212.91549682617188
 30
0.0
 11
115.12550354003906
 21
215.5189971923828
 31
0.0
  0
LINE
  5
DC
  8
BRIDGE_ROUTE
 10
115.12550354003906
 20
215.5189971923828
 30
0.0
 11
114.74449920654297
 21
215.8365020751953
 31
0.0
  0
LINE
  5
DD
  8
BRIDGE_ROUTE
 10
114.74449920654297
 20
215.8365020751953
 30
0.0
 11
114.74449920654297
 21
245.8719940185547
 31
0.0
  0
LINE
  5
DE
  8
BRIDGE_ROUTE
 10
114.74449920654297
 20
245.8719940185547
 30
0.0
 11
115.12550354003906
 21
245.9355010986328
 31
0.0
  0
LINE
  5
DF
  8
BRIDGE_ROUTE
 10
115.12550354003906
 20
245.9355010986328
 30
0.0
 11
114.87149810791016
 21
248.79299926757812
 31
0.0
  0
LINE
  5
E0
  8
BRIDGE_ROUTE
 10
114.87149810791016
 20
248.79299926757812
 30
0.0
 11
138.30299377441406
 21
248.72950744628906
 31
0.0
  0
LINE
  5
E1
  8
BRIDGE_ROUTE
 10
138.30299377441406
 20
248.72950744628906
 30
0.0
 11
138.239501953125
 21
247.9040069580078
 31
0.0
  0
LINE
  5
E2
  8
BRIDGE_ROUTE
 10
138.239501953125
 20
247.9040069580078
 30
0.0
 11
133.79449462890625
 21
245.68150329589844
 31
0.0
  0
LINE
  5
E3
  8
BRIDGE_ROUTE
 10
133.79449462890625
 20
245.68150329589844
 30
0.0
 11
130.1750030517578
 21
242.12550354003906
 31
0.0
  0
LINE
  5
E4
  8
BRIDGE_ROUTE
 10
130.1750030517578
 20
242.12550354003906
 30
0.0
 11
128.27000427246094
 21
239.39500427246094
 31
0.0
  0
LINE
  5
E5
  8
BRIDGE_ROUTE
 10
128.27000427246094
 20
239.39500427246094
 30
0.0
 11
126.61900329589844
 21
236.09300231933594
 31
0.0
  0
LINE
  5
E6
  8
BRIDGE_ROUTE
 10
126.61900329589844
 20
236.09300231933594
 30
0.0
 11
125.60299682617188
 21
232.91799926757812
 31
0.0
  0
LINE
  5
E7
  8
BRIDGE_ROUTE
 10
125.60299682617188
 20
232.91799926757812
 30
0.0
 11
124.96800231933594
 21
229.55250549316406
 31
0.0
  0
LINE
  5
E8
  8
BRIDGE_ROUTE
 10
124.96800231933594
 20
229.55250549316406
 30
0.0
 11
125.03150177001953
 21
226.25050354003906
 31
0.0
  0
LINE
  5
E9
  8
BRIDGE_ROUTE
 10
125.03150177001953
 20
226.25050354003906
 30
0.0
 11
128.14300537109375
 21
212.6614990234375
 31
0.0
  0
LINE
  5
EA
  8
BRIDGE_ROUTE
 10
128.14300537109375
 20
212.6614990234375
 30
0.0
 11
142.875
 21
212.6614990234375
 31
0.0
  0
LINE
  5
EB
  8
BRIDGE_ROUTE
 10
142.875
 20
212.6614990234375
 30
0.0
 11
143.50999450683594
 21
216.0904998779297
 31
0.0
  0
LINE
  5
EC
  8
BRIDGE_ROUTE
 10
143.50999450683594
 20
216.0904998779297
 30
0.0
 11
144.9705047607422
 21
218.56700134277344
 31
0.0
  0
LINE
  5
ED
  8
BRIDGE_ROUTE
 10
144.9705047607422
 20
218.56700134277344
 30
0.0
 11
147.510498046875
 21
220.7895050048828
 31
0.0
  0
LINE
  5
EE
  8
BRIDGE_ROUTE
 10
147.510498046875
 20
220.7895050048828
 30
0.0
 11
149.2884979248047
 21
221.61500549316406
 31
0.0
  0
LINE
  5
EF
  8
BRIDGE_ROUTE
 10
149.2884979248047
 20
221.61500549316406
 30
0.0
 11
151.38400268554688
 21
222.0594940185547
 31
0.0
  0
LINE
  5
F0
  8
BRIDGE_ROUTE
 10
151.38400268554688
 20
222.0594940185547
 30
0.0
 11
153.86050415039062
 21
221.99600219726562
 31
0.0
  0
LINE
  5
F1
  8
BRIDGE_ROUTE
 10
153.86050415039062
 20
221.99600219726562
 30
0.0
 11
155.3209991455078
 21
221.61500549316406
 31
0.0
  0
LINE
  5
F2
  8
BRIDGE_ROUTE
 10
155.3209991455078
 20
221.61500549316406
 30
0.0
 11
158.36900329589844
 21
219.96400451660156
 31
0.0
  0
LINE
  5
F3
  8
BRIDGE_ROUTE
 10
158.36900329589844
 20
219.96400451660156
 30
0.0
 11
160.5915069580078
 21
217.23350524902344
 31
0.0
  0
LINE
  5
F4
  8
BRIDGE_ROUTE
 10
160.5915069580078
 20
217.23350524902344
 30
0.0
 11
161.54400634765625
 21
214.5030059814453
 31
0.0
  0
LINE
  5
F5
  8
BRIDGE_ROUTE
 10
161.54400634765625
 20
214.5030059814453
 30
0.0
 11
161.7344970703125
 21
212.6614990234375
 31
0.0
  0
LINE
  5
F6
  8
BRIDGE_ROUTE
 10
161.7344970703125
 20
212.6614990234375
 30
0.0
 11
176.4029998779297
 21
212.6614990234375
 31
0.0
  0
LINE
  5
F7
  8
BRIDGE_ROUTE
 10
176.4029998779297
 20
212.6614990234375
 30
0.0
 11
179.32400512695312
 21
224.3455047607422
 31
0.0
  0
LINE
  5
F8
  8
BRIDGE_ROUTE
 10
179.32400512695312
 20
224.3455047607422
 30
0.0
 11
179.5780029296875
 21
228.60000610351562
 31
0.0
  0
LINE
  5
F9
  8
BRIDGE_ROUTE
 10
179.5780029296875
 20
228.60000610351562
 30
0.0
 11
179.3874969482422
 21
231.33050537109375
 31
0.0
  0
LINE
  5
FA
  8
BRIDGE_ROUTE
 10
179.3874969482422
 20
231.33050537109375
 30
0.0
 11
177.86349487304688
 21
236.22000122070312
 31
0.0
  0
LINE
  5
FB
  8
BRIDGE_ROUTE
 10
177.86349487304688
 20
236.22000122070312
 30
0.0
 11
176.33949279785156
 21
239.26800537109375
 31
0.0
  0
LINE
  5
FC
  8
BRIDGE_ROUTE
 10
176.33949279785156
 20
239.26800537109375
 30
0.0
 11
173.60899353027344
 21
243.0780029296875
 31
0.0
  0
LINE
  5
FD
  8
BRIDGE_ROUTE
 10
173.60899353027344
 20
243.0780029296875
 30
0.0
 11
171.70399475097656
 21
244.91949462890625
 31
0.0
  0
LINE
  5
FE
  8
BRIDGE_ROUTE
 10
171.70399475097656
 20
244.91949462890625
 30
0.0
 11
169.29100036621094
 21
246.63400268554688
 31
0.0
  0
LINE
  5
FF
  8
BRIDGE_ROUTE
 10
169.29100036621094
 20
246.63400268554688
 30
0.0
 11
166.05250549316406
 21
248.031005859375
 31
0.0
  0
LINE
  5
100
  8
BRIDGE_ROUTE
 10
166.05250549316406
 20
248.031005859375
 30
0.0
 11
162.81399536132812
 21
248.79299926757812
 31
0.0
  0
LINE
  5
101
  8
BRIDGE_ROUTE
 10
162.81399536132812
 20
248.79299926757812
 30
0.0
 11
160.2104949951172
 21
248.98350524902344
 31
0.0
  0
LINE
  5
102
  8
BRIDGE_ROUTE
 10
160.2104949951172
 20
248.98350524902344
 30
0.0
 11
145.03399658203125
 21
248.98350524902344
 31
0.0
  0
LINE
  5
103
  8
BRIDGE_ROUTE
 10
145.03399658203125
 20
248.98350524902344
 30
0.0
 11
140.71600341796875
 21
248.66600036621094
 31
0.0
  0
LINE
  5
104
  8
BRIDGE_ROUTE
 10
140.71600341796875
 20
248.66600036621094
 30
0.0
 11
140.58900451660156
 21
248.98350524902344
 31
0.0
  0
LINE
  5
105
  8
BRIDGE_ROUTE
 10
140.58900451660156
 20
248.98350524902344
 30
0.0
 11
110.80750274658203
 21
248.9199981689453
 31
0.0
  0
LINE
  5
106
  8
BRIDGE_ROUTE
 10
131.12750244140625
 20
9.46150016784668
 30
0.0
 11
131.1909942626953
 21
41.020999908447266
 31
0.0
  0
LINE
  5
107
  8
BRIDGE_ROUTE
 10
131.1909942626953
 20
41.020999908447266
 30
0.0
 11
198.81849670410156
 21
40.95750045776367
 31
0.0
  0
LINE
  5
108
  8
BRIDGE_ROUTE
 10
198.81849670410156
 20
40.95750045776367
 30
0.0
 11
198.7550048828125
 21
39.6875
 31
0.0
  0
LINE
  5
109
  8
BRIDGE_ROUTE
 10
198.7550048828125
 20
39.6875
 30
0.0
 11
132.52450561523438
 21
39.6875
 31
0.0
  0
LINE
  5
10A
  8
BRIDGE_ROUTE
 10
132.52450561523438
 20
39.6875
 30
0.0
 11
132.46099853515625
 21
9.46150016784668
 31
0.0
  0
LINE
  5
10B
  8
BRIDGE_ROUTE
 10
132.46099853515625
 20
9.46150016784668
 30
0.0
 11
131.12750244140625
 21
9.46150016784668
 31
0.0
  0
LINE
  5
10C
  8
PICKUP_ROUTE
 10
66.67500305175781
 20
121.22149658203125
 30
0.0
 11
62.10300064086914
 21
120.20549774169922
 31
0.0
  0
LINE
  5
10D
  8
PICKUP_ROUTE
 10
62.10300064086914
 20
120.20549774169922
 30
0.0
 11
59.753501892089844
 21
119.18949890136719
 31
0.0
  0
LINE
  5
10E
  8
PICKUP_ROUTE
 10
59.753501892089844
 20
119.18949890136719
 30
0.0
 11
57.2135009765625
 21
117.4749984741211
 31
0.0
  0
LINE
  5
10F
  8
PICKUP_ROUTE
 10
57.2135009765625
 20
117.4749984741211
 30
0.0
 11
54.29249954223633
 21
114.55400085449219
 31
0.0
  0
LINE
  5
110
  8
PICKUP_ROUTE
 10
54.29249954223633
 20
114.55400085449219
 30
0.0
 11
51.752498626708984
 21
110.61699676513672
 31
0.0
  0
LINE
  5
111
  8
PICKUP_ROUTE
 10
51.752498626708984
 20
110.61699676513672
 30
0.0
 11
50.67300033569336
 21
108.33100128173828
 31
0.0
  0
LINE
  5
112
  8
PICKUP_ROUTE
 10
50.67300033569336
 20
108.33100128173828
 30
0.0
 11
49.339500427246094
 21
103.69550323486328
 31
0.0
  0
LINE
  5
113
  8
PICKUP_ROUTE
 10
49.339500427246094
 20
103.69550323486328
 30
0.0
 11
49.08549880981445
 21
99.37750244140625
 31
0.0
  0
LINE
  5
114
  8
PICKUP_ROUTE
 10
49.08549880981445
 20
99.37750244140625
 30
0.0
 11
49.46649932861328
 21
96.5199966430664
 31
0.0
  0
LINE
  5
115
  8
PICKUP_ROUTE
 10
49.46649932861328
 20
96.5199966430664
 30
0.0
 11
52.260501861572266
 21
85.15350341796875
 31
0.0
  0
LINE
  5
116
  8
PICKUP_ROUTE
 10
52.260501861572266
 20
85.15350341796875
 30
0.0
 11
52.45100021362305
 21
80.20050048828125
 31
0.0
  0
LINE
  5
117
  8
PICKUP_ROUTE
 10
52.45100021362305
 20
80.20050048828125
 30
0.0
 11
52.13349914550781
 21
77.97799682617188
 31
0.0
  0
LINE
  5
118
  8
PICKUP_ROUTE
 10
52.13349914550781
 20
77.97799682617188
 30
0.0
 11
50.79999923706055
 21
73.40599822998047
 31
0.0
  0
LINE
  5
119
  8
PICKUP_ROUTE
 10
50.79999923706055
 20
73.40599822998047
 30
0.0
 11
48.89500045776367
 21
69.08799743652344
 31
0.0
  0
LINE
  5
11A
  8
PICKUP_ROUTE
 10
48.89500045776367
 20
69.08799743652344
 30
0.0
 11
42.35449981689453
 21
56.895999908447266
 31
0.0
  0
LINE
  5
11B
  8
PICKUP_ROUTE
 10
42.35449981689453
 20
56.895999908447266
 30
0.0
 11
40.06850051879883
 21
51.94300079345703
 31
0.0
  0
LINE
  5
11C
  8
PICKUP_ROUTE
 10
40.06850051879883
 20
51.94300079345703
 30
0.0
 11
38.67150115966797
 21
47.05350112915039
 31
0.0
  0
LINE
  5
11D
  8
PICKUP_ROUTE
 10
38.67150115966797
 20
47.05350112915039
 30
0.0
 11
38.48099899291992
 21
40.576499938964844
 31
0.0
  0
LINE
  5
11E
  8
PICKUP_ROUTE
 10
38.48099899291992
 20
40.576499938964844
 30
0.0
 11
39.624000549316406
 21
35.115501403808594
 31
0.0
  0
LINE
  5
11F
  8
PICKUP_ROUTE
 10
39.624000549316406
 20
35.115501403808594
 30
0.0
 11
40.830501556396484
 21
32.19449996948242
 31
0.0
  0
LINE
  5
120
  8
PICKUP_ROUTE
 10
40.830501556396484
 20
32.19449996948242
 30
0.0
 11
42.672000885009766
 21
28.892499923706055
 31
0.0
  0
LINE
  5
121
  8
PICKUP_ROUTE
 10
42.672000885009766
 20
28.892499923706055
 30
0.0
 11
47.05350112915039
 21
23.304500579833984
 31
0.0
  0
LINE
  5
122
  8
PICKUP_ROUTE
 10
47.05350112915039
 20
23.304500579833984
 30
0.0
 11
50.67300033569336
 21
20.31999969482422
 31
0.0
  0
LINE
  5
123
  8
PICKUP_ROUTE
 10
50.67300033569336
 20
20.31999969482422
 30
0.0
 11
55.054500579833984
 21
18.034000396728516
 31
0.0
  0
LINE
  5
124
  8
PICKUP_ROUTE
 10
55.054500579833984
 20
18.034000396728516
 30
0.0
 11
62.03950119018555
 21
16.128999710083008
 31
0.0
  0
LINE
  5
125
  8
PICKUP_ROUTE
 10
62.03950119018555
 20
16.128999710083008
 30
0.0
 11
66.8655014038086
 21
15.17650032043457
 31
0.0
  0
LINE
  5
126
  8
PICKUP_ROUTE
 10
66.8655014038086
 20
15.17650032043457
 30
0.0
 11
76.4540023803711
 21
15.049500465393066
 31
0.0
  0
LINE
  5
127
  8
PICKUP_ROUTE
 10
76.4540023803711
 20
15.049500465393066
 30
0.0
 11
76.51750183105469
 21
121.28500366210938
 31
0.0
  0
LINE
  5
128
  8
PICKUP_ROUTE
 10
76.51750183105469
 20
121.28500366210938
 30
0.0
 11
66.67500305175781
 21
121.22149658203125
 31
0.0
  0
LINE
  5
129
  8
PICKUP_ROUTE
 10
88.01100158691406
 20
121.41200256347656
 30
0.0
 11
87.88400268554688
 21
15.11299991607666
 31
0.0
  0
LINE
  5
12A
  8
PICKUP_ROUTE
 10
87.88400268554688
 20
15.11299991607666
 30
0.0
 11
95.63099670410156
 21
15.049500465393066
 31
0.0
  0
LINE
  5
12B
  8
PICKUP_ROUTE
 10
95.63099670410156
 20
15.049500465393066
 30
0.0
 11
102.36199951171875
 21
16.1924991607666
 31
0.0
  0
LINE
  5
12C
  8
PICKUP_ROUTE
 10
102.36199951171875
 20
16.1924991607666
 30
0.0
 11
109.28350067138672
 21
17.970500946044922
 31
0.0
  0
LINE
  5
12D
  8
PICKUP_ROUTE
 10
109.28350067138672
 20
17.970500946044922
 30
0.0
 11
113.34750366210938
 21
20.06599998474121
 31
0.0
  0
LINE
  5
12E
  8
PICKUP_ROUTE
 10
113.34750366210938
 20
20.06599998474121
 30
0.0
 11
117.22100067138672
 21
23.177499771118164
 31
0.0
  0
LINE
  5
12F
  8
PICKUP_ROUTE
 10
117.22100067138672
 20
23.177499771118164
 30
0.0
 11
121.53900146484375
 21
28.70199966430664
 31
0.0
  0
LINE
  5
130
  8
PICKUP_ROUTE
 10
121.53900146484375
 20
28.70199966430664
 30
0.0
 11
124.0155029296875
 21
33.14699935913086
 31
0.0
  0
LINE
  5
131
  8
PICKUP_ROUTE
 10
124.0155029296875
 20
33.14699935913086
 30
0.0
 11
124.96800231933594
 21
35.81399917602539
 31
0.0
  0
LINE
  5
132
  8
PICKUP_ROUTE
 10
124.96800231933594
 20
35.81399917602539
 30
0.0
 11
125.85700225830078
 21
39.94150161743164
 31
0.0
  0
LINE
  5
133
  8
PICKUP_ROUTE
 10
125.85700225830078
 20
39.94150161743164
 30
0.0
 11
125.98400115966797
 21
44.57699966430664
 31
0.0
  0
LINE
  5
134
  8
PICKUP_ROUTE
 10
125.98400115966797
 20
44.57699966430664
 30
0.0
 11
125.60299682617188
 21
47.37099838256836
 31
0.0
  0
LINE
  5
135
  8
PICKUP_ROUTE
 10
125.60299682617188
 20
47.37099838256836
 30
0.0
 11
124.14250183105469
 21
52.196998596191406
 31
0.0
  0
LINE
  5
136
  8
PICKUP_ROUTE
 10
124.14250183105469
 20
52.196998596191406
 30
0.0
 11
122.23750305175781
 21
56.38800048828125
 31
0.0
  0
LINE
  5
137
  8
PICKUP_ROUTE
 10
122.23750305175781
 20
56.38800048828125
 30
0.0
 11
115.50650024414062
 21
68.89749908447266
 31
0.0
  0
LINE
  5
138
  8
PICKUP_ROUTE
 10
115.50650024414062
 20
68.89749908447266
 30
0.0
 11
113.53800201416016
 21
73.27899932861328
 31
0.0
  0
LINE
  5
139
  8
PICKUP_ROUTE
 10
113.53800201416016
 20
73.27899932861328
 30
0.0
 11
112.20449829101562
 21
77.85099792480469
 31
0.0
  0
LINE
  5
13A
  8
PICKUP_ROUTE
 10
112.20449829101562
 20
77.85099792480469
 30
0.0
 11
111.88700103759766
 21
80.01000213623047
 31
0.0
  0
LINE
  5
13B
  8
PICKUP_ROUTE
 10
111.88700103759766
 20
80.01000213623047
 30
0.0
 11
112.07749938964844
 21
84.64550018310547
 31
0.0
  0
LINE
  5
13C
  8
PICKUP_ROUTE
 10
112.07749938964844
 20
84.64550018310547
 30
0.0
 11
114.93499755859375
 21
96.45649719238281
 31
0.0
  0
LINE
  5
13D
  8
PICKUP_ROUTE
 10
114.93499755859375
 20
96.45649719238281
 30
0.0
 11
115.25250244140625
 21
99.9489974975586
 31
0.0
  0
LINE
  5
13E
  8
PICKUP_ROUTE
 10
115.25250244140625
 20
99.9489974975586
 30
0.0
 11
115.06199645996094
 21
103.63200378417969
 31
0.0
  0
LINE
  5
13F
  8
PICKUP_ROUTE
 10
115.06199645996094
 20
103.63200378417969
 30
0.0
 11
113.66500091552734
 21
108.39450073242188
 31
0.0
  0
LINE
  5
140
  8
PICKUP_ROUTE
 10
113.66500091552734
 20
108.39450073242188
 30
0.0
 11
110.04550170898438
 21
114.55400085449219
 31
0.0
  0
LINE
  5
141
  8
PICKUP_ROUTE
 10
110.04550170898438
 20
114.55400085449219
 30
0.0
 11
108.39450073242188
 21
116.39550018310547
 31
0.0
  0
LINE
  5
142
  8
PICKUP_ROUTE
 10
108.39450073242188
 20
116.39550018310547
 30
0.0
 11
104.71150207519531
 21
119.0625
 31
0.0
  0
LINE
  5
143
  8
PICKUP_ROUTE
 10
104.71150207519531
 20
119.0625
 30
0.0
 11
102.10800170898438
 21
120.26899719238281
 31
0.0
  0
LINE
  5
144
  8
PICKUP_ROUTE
 10
102.10800170898438
 20
120.26899719238281
 30
0.0
 11
97.72650146484375
 21
121.22149658203125
 31
0.0
  0
LINE
  5
145
  8
PICKUP_ROUTE
 10
97.72650146484375
 20
121.22149658203125
 30
0.0
 11
88.01100158691406
 21
121.41200256347656
 31
0.0
  0
LINE
  5
146
  8
PICKUP_ROUTE
 10
66.61150360107422
 20
121.03099822998047
 30
0.0
 11
76.3270034790039
 21
121.15799713134766
 31
0.0
  0
LINE
  5
147
  8
PICKUP_ROUTE
 10
76.3270034790039
 20
121.15799713134766
 30
0.0
 11
76.26349639892578
 21
15.239999771118164
 31
0.0
  0
LINE
  5
148
  8
PICKUP_ROUTE
 10
76.26349639892578
 20
15.239999771118164
 30
0.0
 11
67.62750244140625
 21
15.303500175476074
 31
0.0
  0
LINE
  5
149
  8
PICKUP_ROUTE
 10
67.62750244140625
 20
15.303500175476074
 30
0.0
 11
62.356998443603516
 21
16.256000518798828
 31
0.0
  0
LINE
  5
14A
  8
PICKUP_ROUTE
 10
62.356998443603516
 20
16.256000518798828
 30
0.0
 11
55.244998931884766
 21
18.160999298095703
 31
0.0
  0
LINE
  5
14B
  8
PICKUP_ROUTE
 10
55.244998931884766
 20
18.160999298095703
 30
0.0
 11
50.926998138427734
 21
20.383499145507812
 31
0.0
  0
LINE
  5
14C
  8
PICKUP_ROUTE
 10
50.926998138427734
 20
20.383499145507812
 30
0.0
 11
46.92649841308594
 21
23.749000549316406
 31
0.0
  0
LINE
  5
14D
  8
PICKUP_ROUTE
 10
46.92649841308594
 20
23.749000549316406
 30
0.0
 11
42.86249923706055
 21
28.95599937438965
 31
0.0
  0
LINE
  5
14E
  8
PICKUP_ROUTE
 10
42.86249923706055
 20
28.95599937438965
 30
0.0
 11
41.52899932861328
 21
31.178499221801758
 31
0.0
  0
LINE
  5
14F
  8
PICKUP_ROUTE
 10
41.52899932861328
 20
31.178499221801758
 30
0.0
 11
39.750999450683594
 21
35.305999755859375
 31
0.0
  0
LINE
  5
150
  8
PICKUP_ROUTE
 10
39.750999450683594
 20
35.305999755859375
 30
0.0
 11
38.67150115966797
 21
40.51300048828125
 31
0.0
  0
LINE
  5
151
  8
PICKUP_ROUTE
 10
38.67150115966797
 20
40.51300048828125
 30
0.0
 11
38.86199951171875
 21
47.05350112915039
 31
0.0
  0
LINE
  5
152
  8
PICKUP_ROUTE
 10
38.86199951171875
 20
47.05350112915039
 30
0.0
 11
40.195499420166016
 21
51.752498626708984
 31
0.0
  0
LINE
  5
153
  8
PICKUP_ROUTE
 10
40.195499420166016
 20
51.752498626708984
 30
0.0
 11
42.16400146484375
 21
56.13399887084961
 31
0.0
  0
LINE
  5
154
  8
PICKUP_ROUTE
 10
42.16400146484375
 20
56.13399887084961
 30
0.0
 11
49.02199935913086
 21
68.89749908447266
 31
0.0
  0
LINE
  5
155
  8
PICKUP_ROUTE
 10
49.02199935913086
 20
68.89749908447266
 30
0.0
 11
50.926998138427734
 21
73.21549987792969
 31
0.0
  0
LINE
  5
156
  8
PICKUP_ROUTE
 10
50.926998138427734
 20
73.21549987792969
 30
0.0
 11
52.32400131225586
 21
77.97799682617188
 31
0.0
  0
LINE
  5
157
  8
PICKUP_ROUTE
 10
52.32400131225586
 20
77.97799682617188
 30
0.0
 11
52.64149856567383
 21
80.20050048828125
 31
0.0
  0
LINE
  5
158
  8
PICKUP_ROUTE
 10
52.64149856567383
 20
80.20050048828125
 30
0.0
 11
52.45100021362305
 21
85.15350341796875
 31
0.0
  0
LINE
  5
159
  8
PICKUP_ROUTE
 10
52.45100021362305
 20
85.15350341796875
 30
0.0
 11
49.784000396728516
 21
96.01200103759766
 31
0.0
  0
LINE
  5
15A
  8
PICKUP_ROUTE
 10
49.784000396728516
 20
96.01200103759766
 30
0.0
 11
49.2760009765625
 21
99.37750244140625
 31
0.0
  0
LINE
  5
15B
  8
PICKUP_ROUTE
 10
49.2760009765625
 20
99.37750244140625
 30
0.0
 11
49.529998779296875
 21
103.69550323486328
 31
0.0
  0
LINE
  5
15C
  8
PICKUP_ROUTE
 10
49.529998779296875
 20
103.69550323486328
 30
0.0
 11
50.926998138427734
 21
108.45800018310547
 31
0.0
  0
LINE
  5
15D
  8
PICKUP_ROUTE
 10
50.926998138427734
 20
108.45800018310547
 30
0.0
 11
54.483001708984375
 21
114.4905014038086
 31
0.0
  0
LINE
  5
15E
  8
PICKUP_ROUTE
 10
54.483001708984375
 20
114.4905014038086
 30
0.0
 11
57.8484992980957
 21
117.72899627685547
 31
0.0
  0
LINE
  5
15F
  8
PICKUP_ROUTE
 10
57.8484992980957
 20
117.72899627685547
 30
0.0
 11
62.29349899291992
 21
120.07849884033203
 31
0.0
  0
LINE
  5
160
  8
PICKUP_ROUTE
 10
62.29349899291992
 20
120.07849884033203
 30
0.0
 11
66.61150360107422
 21
121.03099822998047
 31
0.0
  0
LINE
  5
161
  8
PICKUP_ROUTE
 10
88.13800048828125
 20
121.22149658203125
 30
0.0
 11
97.79000091552734
 21
121.03099822998047
 31
0.0
  0
LINE
  5
162
  8
PICKUP_ROUTE
 10
97.79000091552734
 20
121.03099822998047
 30
0.0
 11
102.10800170898438
 21
120.07849884033203
 31
0.0
  0
LINE
  5
163
  8
PICKUP_ROUTE
 10
102.10800170898438
 20
120.07849884033203
 30
0.0
 11
104.52100372314453
 21
118.93550109863281
 31
0.0
  0
LINE
  5
164
  8
PICKUP_ROUTE
 10
104.52100372314453
 20
118.93550109863281
 30
0.0
 11
108.0770034790039
 21
116.39550018310547
 31
0.0
  0
LINE
  5
165
  8
PICKUP_ROUTE
 10
108.0770034790039
 20
116.39550018310547
 30
0.0
 11
109.79149627685547
 21
114.55400085449219
 31
0.0
  0
LINE
  5
166
  8
PICKUP_ROUTE
 10
109.79149627685547
 20
114.55400085449219
 30
0.0
 11
111.37899780273438
 21
112.26799774169922
 31
0.0
  0
LINE
  5
167
  8
PICKUP_ROUTE
 10
111.37899780273438
 20
112.26799774169922
 30
0.0
 11
113.53800201416016
 21
108.2040023803711
 31
0.0
  0
LINE
  5
168
  8
PICKUP_ROUTE
 10
113.53800201416016
 20
108.2040023803711
 30
0.0
 11
114.87149810791016
 21
103.63200378417969
 31
0.0
  0
LINE
  5
169
  8
PICKUP_ROUTE
 10
114.87149810791016
 20
103.63200378417969
 30
0.0
 11
115.06199645996094
 21
99.8219985961914
 31
0.0
  0
LINE
  5
16A
  8
PICKUP_ROUTE
 10
115.06199645996094
 20
99.8219985961914
 30
0.0
 11
114.74449920654297
 21
96.45649719238281
 31
0.0
  0
LINE
  5
16B
  8
PICKUP_ROUTE
 10
114.74449920654297
 20
96.45649719238281
 30
0.0
 11
111.95050048828125
 21
85.15350341796875
 31
0.0
  0
LINE
  5
16C
  8
PICKUP_ROUTE
 10
111.95050048828125
 20
85.15350341796875
 30
0.0
 11
111.69650268554688
 21
80.07350158691406
 31
0.0
  0
LINE
  5
16D
  8
PICKUP_ROUTE
 10
111.69650268554688
 20
80.07350158691406
 30
0.0
 11
112.01399993896484
 21
77.85099792480469
 31
0.0
  0
LINE
  5
16E
  8
PICKUP_ROUTE
 10
112.01399993896484
 20
77.85099792480469
 30
0.0
 11
113.41100311279297
 21
73.0885009765625
 31
0.0
  0
LINE
  5
16F
  8
PICKUP_ROUTE
 10
113.41100311279297
 20
73.0885009765625
 30
0.0
 11
115.06199645996094
 21
69.40550231933594
 31
0.0
  0
LINE
  5
170
  8
PICKUP_ROUTE
 10
115.06199645996094
 20
69.40550231933594
 30
0.0
 11
121.9834976196289
 21
56.451499938964844
 31
0.0
  0
LINE
  5
171
  8
PICKUP_ROUTE
 10
121.9834976196289
 20
56.451499938964844
 30
0.0
 11
124.0155029296875
 21
52.006500244140625
 31
0.0
  0
LINE
  5
172
  8
PICKUP_ROUTE
 10
124.0155029296875
 20
52.006500244140625
 30
0.0
 11
125.4124984741211
 21
47.37099838256836
 31
0.0
  0
LINE
  5
173
  8
PICKUP_ROUTE
 10
125.4124984741211
 20
47.37099838256836
 30
0.0
 11
125.79350280761719
 21
44.57699966430664
 31
0.0
  0
LINE
  5
174
  8
PICKUP_ROUTE
 10
125.79350280761719
 20
44.57699966430664
 30
0.0
 11
125.66649627685547
 21
39.94150161743164
 31
0.0
  0
LINE
  5
175
  8
PICKUP_ROUTE
 10
125.66649627685547
 20
39.94150161743164
 30
0.0
 11
124.84100341796875
 21
36.06800079345703
 31
0.0
  0
LINE
  5
176
  8
PICKUP_ROUTE
 10
124.84100341796875
 20
36.06800079345703
 30
0.0
 11
123.88849639892578
 21
33.337501525878906
 31
0.0
  0
LINE
  5
177
  8
PICKUP_ROUTE
 10
123.88849639892578
 20
33.337501525878906
 30
0.0
 11
121.47550201416016
 21
28.95599937438965
 31
0.0
  0
LINE
  5
178
  8
PICKUP_ROUTE
 10
121.47550201416016
 20
28.95599937438965
 30
0.0
 11
118.68150329589844
 21
25.082500457763672
 31
0.0
  0
LINE
  5
179
  8
PICKUP_ROUTE
 10
118.68150329589844
 20
25.082500457763672
 30
0.0
 11
116.83999633789062
 21
23.11400032043457
 31
0.0
  0
LINE
  5
17A
  8
PICKUP_ROUTE
 10
116.83999633789062
 20
23.11400032043457
 30
0.0
 11
113.28399658203125
 21
20.256500244140625
 31
0.0
  0
LINE
  5
17B
  8
PICKUP_ROUTE
 10
113.28399658203125
 20
20.256500244140625
 30
0.0
 11
109.22000122070312
 21
18.160999298095703
 31
0.0
  0
LINE
  5
17C
  8
PICKUP_ROUTE
 10
109.22000122070312
 20
18.160999298095703
 30
0.0
 11
103.50499725341797
 21
16.636999130249023
 31
0.0
  0
LINE
  5
17D
  8
PICKUP_ROUTE
 10
103.50499725341797
 20
16.636999130249023
 30
0.0
 11
95.69450378417969
 21
15.239999771118164
 31
0.0
  0
LINE
  5
17E
  8
PICKUP_ROUTE
 10
95.69450378417969
 20
15.239999771118164
 30
0.0
 11
88.07450103759766
 21
15.303500175476074
 31
0.0
  0
LINE
  5
17F
  8
PICKUP_ROUTE
 10
88.07450103759766
 20
15.303500175476074
 30
0.0
 11
88.13800048828125
 21
121.22149658203125
 31
0.0
  0
LINE
  5
180
  8
JACK_ROUTE
 10
176.4029998779297
 20
208.2165069580078
 30
0.0
 11
176.21249389648438
 21
202.69200134277344
 31
0.0
  0
LINE
  5
181
  8
JACK_ROUTE
 10
176.21249389648438
 20
202.69200134277344
 30
0.0
 11
173.35499572753906
 21
202.9459991455078
 31
0.0
  0
LINE
  5
182
  8
JACK_ROUTE
 10
173.35499572753906
 20
202.9459991455078
 30
0.0
 11
173.29150390625
 21
202.56500244140625
 31
0.0
  0
LINE
  5
183
  8
JACK_ROUTE
 10
173.29150390625
 20
202.56500244140625
 30
0.0
 11
164.9095001220703
 21
202.56500244140625
 31
0.0
  0
LINE
  5
184
  8
JACK_ROUTE
 10
164.9095001220703
 20
202.56500244140625
 30
0.0
 11
164.8459930419922
 21
202.9459991455078
 31
0.0
  0
LINE
  5
185
  8
JACK_ROUTE
 10
164.8459930419922
 20
202.9459991455078
 30
0.0
 11
161.98849487304688
 21
202.6284942626953
 31
0.0
  0
LINE
  5
186
  8
JACK_ROUTE
 10
161.98849487304688
 20
202.6284942626953
 30
0.0
 11
161.8614959716797
 21
208.27999877929688
 31
0.0
  0
LINE
  5
187
  8
JACK_ROUTE
 10
161.8614959716797
 20
208.27999877929688
 30
0.0
 11
161.67100524902344
 21
202.69200134277344
 31
0.0
  0
LINE
  5
188
  8
JACK_ROUTE
 10
161.67100524902344
 20
202.69200134277344
 30
0.0
 11
159.0675048828125
 21
202.9459991455078
 31
0.0
  0
LINE
  5
189
  8
JACK_ROUTE
 10
159.0675048828125
 20
202.9459991455078
 30
0.0
 11
158.75
 21
202.69200134277344
 31
0.0
  0
LINE
  5
18A
  8
JACK_ROUTE
 10
158.75
 20
202.69200134277344
 30
0.0
 11
145.8594970703125
 21
202.69200134277344
 31
0.0
  0
LINE
  5
18B
  8
JACK_ROUTE
 10
145.8594970703125
 20
202.69200134277344
 30
0.0
 11
145.79600524902344
 21
202.9459991455078
 31
0.0
  0
LINE
  5
18C
  8
JACK_ROUTE
 10
145.79600524902344
 20
202.9459991455078
 30
0.0
 11
142.93850708007812
 21
202.69200134277344
 31
0.0
  0
LINE
  5
18D
  8
JACK_ROUTE
 10
142.93850708007812
 20
202.69200134277344
 30
0.0
 11
142.6844940185547
 21
208.1529998779297
 31
0.0
  0
LINE
  5
18E
  8
JACK_ROUTE
 10
142.6844940185547
 20
208.1529998779297
 30
0.0
 11
142.7480010986328
 21
198.69149780273438
 31
0.0
  0
LINE
  5
18F
  8
JACK_ROUTE
 10
142.7480010986328
 20
198.69149780273438
 30
0.0
 11
142.93850708007812
 21
202.43800354003906
 31
0.0
  0
LINE
  5
190
  8
JACK_ROUTE
 10
142.93850708007812
 20
202.43800354003906
 30
0.0
 11
145.54200744628906
 21
202.12049865722656
 31
0.0
  0
LINE
  5
191
  8
JACK_ROUTE
 10
145.54200744628906
 20
202.12049865722656
 30
0.0
 11
145.8594970703125
 21
202.50149536132812
 31
0.0
  0
LINE
  5
192
  8
JACK_ROUTE
 10
145.8594970703125
 20
202.50149536132812
 30
0.0
 11
158.75
 21
202.50149536132812
 31
0.0
  0
LINE
  5
193
  8
JACK_ROUTE
 10
158.75
 20
202.50149536132812
 30
0.0
 11
158.81350708007812
 21
202.12049865722656
 31
0.0
  0
LINE
  5
194
  8
JACK_ROUTE
 10
158.81350708007812
 20
202.12049865722656
 30
0.0
 11
161.67100524902344
 21
202.43800354003906
 31
0.0
  0
LINE
  5
195
  8
JACK_ROUTE
 10
161.67100524902344
 20
202.43800354003906
 30
0.0
 11
161.79800415039062
 21
198.6280059814453
 31
0.0
  0
LINE
  5
196
  8
JACK_ROUTE
 10
161.79800415039062
 20
198.6280059814453
 30
0.0
 11
161.98849487304688
 21
202.37449645996094
 31
0.0
  0
LINE
  5
197
  8
JACK_ROUTE
 10
161.98849487304688
 20
202.37449645996094
 30
0.0
 11
164.8459930419922
 21
201.99349975585938
 31
0.0
  0
LINE
  5
198
  8
JACK_ROUTE
 10
164.8459930419922
 20
201.99349975585938
 30
0.0
 11
164.9095001220703
 21
202.37449645996094
 31
0.0
  0
LINE
  5
199
  8
JACK_ROUTE
 10
164.9095001220703
 20
202.37449645996094
 30
0.0
 11
173.29150390625
 21
202.37449645996094
 31
0.0
  0
LINE
  5
19A
  8
JACK_ROUTE
 10
173.29150390625
 20
202.37449645996094
 30
0.0
 11
173.35499572753906
 21
202.0570068359375
 31
0.0
  0
LINE
  5
19B
  8
JACK_ROUTE
 10
173.35499572753906
 20
202.0570068359375
 30
0.0
 11
176.1490020751953
 21
202.37449645996094
 31
0.0
  0
LINE
  5
19C
  8
JACK_ROUTE
 10
176.1490020751953
 20
202.37449645996094
 30
0.0
 11
176.1490020751953
 21
185.9915008544922
 31
0.0
  0
LINE
  5
19D
  8
JACK_ROUTE
 10
176.1490020751953
 20
185.9915008544922
 30
0.0
 11
173.48199462890625
 21
186.37249755859375
 31
0.0
  0
LINE
  5
19E
  8
JACK_ROUTE
 10
173.48199462890625
 20
186.37249755859375
 30
0.0
 11
173.29150390625
 21
185.9915008544922
 31
0.0
  0
LINE
  5
19F
  8
JACK_ROUTE
 10
173.29150390625
 20
185.9915008544922
 30
0.0
 11
131.3179931640625
 21
185.9915008544922
 31
0.0
  0
LINE
  5
1A0
  8
JACK_ROUTE
 10
131.3179931640625
 20
185.9915008544922
 30
0.0
 11
131.1909942626953
 21
186.37249755859375
 31
0.0
  0
LINE
  5
1A1
  8
JACK_ROUTE
 10
131.1909942626953
 20
186.37249755859375
 30
0.0
 11
128.39700317382812
 21
185.9915008544922
 31
0.0
  0
LINE
  5
1A2
  8
JACK_ROUTE
 10
128.39700317382812
 20
185.9915008544922
 30
0.0
 11
128.14300537109375
 21
208.2165069580078
 31
0.0
  0
LINE
  5
1A3
  8
JACK_ROUTE
 10
128.14300537109375
 20
208.2165069580078
 30
0.0
 11
128.14300537109375
 21
182.05450439453125
 31
0.0
  0
LINE
  5
1A4
  8
JACK_ROUTE
 10
128.14300537109375
 20
182.05450439453125
 30
0.0
 11
128.39700317382812
 21
185.80099487304688
 31
0.0
  0
LINE
  5
1A5
  8
JACK_ROUTE
 10
128.39700317382812
 20
185.80099487304688
 30
0.0
 11
131.12750244140625
 21
185.4199981689453
 31
0.0
  0
LINE
  5
1A6
  8
JACK_ROUTE
 10
131.12750244140625
 20
185.4199981689453
 30
0.0
 11
131.3179931640625
 21
185.80099487304688
 31
0.0
  0
LINE
  5
1A7
  8
JACK_ROUTE
 10
131.3179931640625
 20
185.80099487304688
 30
0.0
 11
173.29150390625
 21
185.80099487304688
 31
0.0
  0
LINE
  5
1A8
  8
JACK_ROUTE
 10
173.29150390625
 20
185.80099487304688
 30
0.0
 11
173.35499572753906
 21
185.4199981689453
 31
0.0
  0
LINE
  5
1A9
  8
JACK_ROUTE
 10
173.35499572753906
 20
185.4199981689453
 30
0.0
 11
176.1490020751953
 21
185.80099487304688
 31
0.0
  0
LINE
  5
1AA
  8
JACK_ROUTE
 10
176.1490020751953
 20
185.80099487304688
 30
0.0
 11
176.33949279785156
 21
181.99099731445312
 31
0.0
  0
LINE
  5
1AB
  8
JACK_ROUTE
 10
176.33949279785156
 20
181.99099731445312
 30
0.0
 11
176.4029998779297
 21
208.2165069580078
 31
0.0
  0
LINE
  5
1AC
  8
CONTROL_CAVITY
 10
54.03850173950195
 20
252.4759979248047
 30
0.0
 11
49.784000396728516
 21
250.19000244140625
 31
0.0
  0
LINE
  5
1AD
  8
CONTROL_CAVITY
 10
49.784000396728516
 20
250.19000244140625
 30
0.0
 11
46.481998443603516
 21
247.01499938964844
 31
0.0
  0
LINE
  5
1AE
  8
CONTROL_CAVITY
 10
46.481998443603516
 20
247.01499938964844
 30
0.0
 11
43.75149917602539
 21
242.9510040283203
 31
0.0
  0
LINE
  5
1AF
  8
CONTROL_CAVITY
 10
43.75149917602539
 20
242.9510040283203
 30
0.0
 11
41.71950149536133
 21
237.61700439453125
 31
0.0
  0
LINE
  5
1B0
  8
CONTROL_CAVITY
 10
41.71950149536133
 20
237.61700439453125
 30
0.0
 11
41.020999908447266
 21
233.99749755859375
 31
0.0
  0
LINE
  5
1B1
  8
CONTROL_CAVITY
 10
41.020999908447266
 20
233.99749755859375
 30
0.0
 11
41.08449935913086
 21
231.07650756835938
 31
0.0
  0
LINE
  5
1B2
  8
CONTROL_CAVITY
 10
41.08449935913086
 20
231.07650756835938
 30
0.0
 11
44.13249969482422
 21
217.36050415039062
 31
0.0
  0
LINE
  5
1B3
  8
CONTROL_CAVITY
 10
44.13249969482422
 20
217.36050415039062
 30
0.0
 11
44.38650131225586
 21
215.13800048828125
 31
0.0
  0
LINE
  5
1B4
  8
CONTROL_CAVITY
 10
44.38650131225586
 20
215.13800048828125
 30
0.0
 11
44.13249969482422
 21
210.50250244140625
 31
0.0
  0
LINE
  5
1B5
  8
CONTROL_CAVITY
 10
44.13249969482422
 20
210.50250244140625
 30
0.0
 11
43.497501373291016
 21
207.8354949951172
 31
0.0
  0
LINE
  5
1B6
  8
CONTROL_CAVITY
 10
43.497501373291016
 20
207.8354949951172
 30
0.0
 11
41.78300094604492
 21
203.3905029296875
 31
0.0
  0
LINE
  5
1B7
  8
CONTROL_CAVITY
 10
41.78300094604492
 20
203.3905029296875
 30
0.0
 11
33.71849822998047
 21
187.9600067138672
 31
0.0
  0
LINE
  5
1B8
  8
CONTROL_CAVITY
 10
33.71849822998047
 20
187.9600067138672
 30
0.0
 11
31.242000579833984
 21
181.86399841308594
 31
0.0
  0
LINE
  5
1B9
  8
CONTROL_CAVITY
 10
31.242000579833984
 20
181.86399841308594
 30
0.0
 11
30.35300064086914
 21
177.41900634765625
 31
0.0
  0
LINE
  5
1BA
  8
CONTROL_CAVITY
 10
30.35300064086914
 20
177.41900634765625
 30
0.0
 11
30.35300064086914
 21
174.05349731445312
 31
0.0
  0
LINE
  5
1BB
  8
CONTROL_CAVITY
 10
30.35300064086914
 20
174.05349731445312
 30
0.0
 11
30.797500610351562
 21
170.05299377441406
 31
0.0
  0
LINE
  5
1BC
  8
CONTROL_CAVITY
 10
30.797500610351562
 20
170.05299377441406
 30
0.0
 11
31.4325008392334
 21
167.51300048828125
 31
0.0
  0
LINE
  5
1BD
  8
CONTROL_CAVITY
 10
31.4325008392334
 20
167.51300048828125
 30
0.0
 11
34.60749816894531
 21
161.16299438476562
 31
0.0
  0
LINE
  5
1BE
  8
CONTROL_CAVITY
 10
34.60749816894531
 20
161.16299438476562
 30
0.0
 11
38.98899841308594
 21
155.5749969482422
 31
0.0
  0
LINE
  5
1BF
  8
CONTROL_CAVITY
 10
38.98899841308594
 20
155.5749969482422
 30
0.0
 11
40.95750045776367
 21
153.7969970703125
 31
0.0
  0
LINE
  5
1C0
  8
CONTROL_CAVITY
 10
40.95750045776367
 20
153.7969970703125
 30
0.0
 11
44.70399856567383
 21
151.2570037841797
 31
0.0
  0
LINE
  5
1C1
  8
CONTROL_CAVITY
 10
44.70399856567383
 20
151.2570037841797
 30
0.0
 11
49.529998779296875
 21
149.41549682617188
 31
0.0
  0
LINE
  5
1C2
  8
CONTROL_CAVITY
 10
49.529998779296875
 20
149.41549682617188
 30
0.0
 11
59.308998107910156
 21
147.3834991455078
 31
0.0
  0
LINE
  5
1C3
  8
CONTROL_CAVITY
 10
59.308998107910156
 20
147.3834991455078
 30
0.0
 11
75.62850189208984
 21
147.25650024414062
 31
0.0
  0
LINE
  5
1C4
  8
CONTROL_CAVITY
 10
75.62850189208984
 20
147.25650024414062
 30
0.0
 11
82.80400085449219
 21
148.39950561523438
 31
0.0
  0
LINE
  5
1C5
  8
CONTROL_CAVITY
 10
82.80400085449219
 20
148.39950561523438
 30
0.0
 11
89.59850311279297
 21
150.24099731445312
 31
0.0
  0
LINE
  5
1C6
  8
CONTROL_CAVITY
 10
89.59850311279297
 20
150.24099731445312
 30
0.0
 11
91.947998046875
 21
151.2570037841797
 31
0.0
  0
LINE
  5
1C7
  8
CONTROL_CAVITY
 10
91.947998046875
 20
151.2570037841797
 30
0.0
 11
95.69450378417969
 21
153.73350524902344
 31
0.0
  0
LINE
  5
1C8
  8
CONTROL_CAVITY
 10
95.69450378417969
 20
153.73350524902344
 30
0.0
 11
99.18699645996094
 21
157.2895050048828
 31
0.0
  0
LINE
  5
1C9
  8
CONTROL_CAVITY
 10
99.18699645996094
 20
157.2895050048828
 30
0.0
 11
102.10800170898438
 21
161.16299438476562
 31
0.0
  0
LINE
  5
1CA
  8
CONTROL_CAVITY
 10
102.10800170898438
 20
161.16299438476562
 30
0.0
 11
105.21949768066406
 21
167.57650756835938
 31
0.0
  0
LINE
  5
1CB
  8
CONTROL_CAVITY
 10
105.21949768066406
 20
167.57650756835938
 30
0.0
 11
106.36250305175781
 21
174.05349731445312
 31
0.0
  0
LINE
  5
1CC
  8
CONTROL_CAVITY
 10
106.36250305175781
 20
174.05349731445312
 30
0.0
 11
105.98149871826172
 21
179.51449584960938
 31
0.0
  0
LINE
  5
1CD
  8
CONTROL_CAVITY
 10
105.98149871826172
 20
179.51449584960938
 30
0.0
 11
104.58450317382812
 21
184.14999389648438
 31
0.0
  0
LINE
  5
1CE
  8
CONTROL_CAVITY
 10
104.58450317382812
 20
184.14999389648438
 30
0.0
 11
102.61599731445312
 21
188.59500122070312
 31
0.0
  0
LINE
  5
1CF
  8
CONTROL_CAVITY
 10
102.61599731445312
 20
188.59500122070312
 30
0.0
 11
95.75800323486328
 21
201.2949981689453
 31
0.0
  0
LINE
  5
1D0
  8
CONTROL_CAVITY
 10
95.75800323486328
 20
201.2949981689453
 30
0.0
 11
93.91649627685547
 21
205.48599243164062
 31
0.0
  0
LINE
  5
1D1
  8
CONTROL_CAVITY
 10
93.91649627685547
 20
205.48599243164062
 30
0.0
 11
92.58300018310547
 21
209.9945068359375
 31
0.0
  0
LINE
  5
1D2
  8
CONTROL_CAVITY
 10
92.58300018310547
 20
209.9945068359375
 30
0.0
 11
92.2655029296875
 21
212.15350341796875
 31
0.0
  0
LINE
  5
1D3
  8
CONTROL_CAVITY
 10
92.2655029296875
 20
212.15350341796875
 30
0.0
 11
92.45600128173828
 21
217.10650634765625
 31
0.0
  0
LINE
  5
1D4
  8
CONTROL_CAVITY
 10
92.45600128173828
 20
217.10650634765625
 30
0.0
 11
95.63099670410156
 21
231.01300048828125
 31
0.0
  0
LINE
  5
1D5
  8
CONTROL_CAVITY
 10
95.63099670410156
 20
231.01300048828125
 30
0.0
 11
95.44049835205078
 21
235.64849853515625
 31
0.0
  0
LINE
  5
1D6
  8
CONTROL_CAVITY
 10
95.44049835205078
 20
235.64849853515625
 30
0.0
 11
94.67849731445312
 21
238.69650268554688
 31
0.0
  0
LINE
  5
1D7
  8
CONTROL_CAVITY
 10
94.67849731445312
 20
238.69650268554688
 30
0.0
 11
92.83699798583984
 21
243.01449584960938
 31
0.0
  0
LINE
  5
1D8
  8
CONTROL_CAVITY
 10
92.83699798583984
 20
243.01449584960938
 30
0.0
 11
90.2334976196289
 21
247.01499938964844
 31
0.0
  0
LINE
  5
1D9
  8
CONTROL_CAVITY
 10
90.2334976196289
 20
247.01499938964844
 30
0.0
 11
86.93150329589844
 21
250.12649536132812
 31
0.0
  0
LINE
  5
1DA
  8
CONTROL_CAVITY
 10
86.93150329589844
 20
250.12649536132812
 30
0.0
 11
82.6135025024414
 21
252.4759979248047
 31
0.0
  0
LINE
  5
1DB
  8
CONTROL_CAVITY
 10
82.6135025024414
 20
252.4759979248047
 30
0.0
 11
77.97799682617188
 21
253.49200439453125
 31
0.0
  0
LINE
  5
1DC
  8
CONTROL_CAVITY
 10
77.97799682617188
 20
253.49200439453125
 30
0.0
 11
60.515499114990234
 21
253.61900329589844
 31
0.0
  0
LINE
  5
1DD
  8
CONTROL_CAVITY
 10
60.515499114990234
 20
253.61900329589844
 30
0.0
 11
54.03850173950195
 21
252.4759979248047
 31
0.0
  0
ENDSEC
  0
EOF
