  0
SECTION
  2
HEADER
  9
$ACADVER
  1
AC1009
  9
$DWGCODEPAGE
  3
ANSI_1252
  9
$INSBASE
 10
0.0
 20
0.0
 30
0.0
  9
$EXTMIN
 10
1e+20
 20
1e+20
 30
1e+20
  9
$EXTMAX
 10
-1e+20
 20
-1e+20
 30
-1e+20
  9
$LIMMIN
 10
0.0
 20
0.0
  9
$LIMMAX
 10
420.0
 20
297.0
  9
$ORTHOMODE
 70
0
  9
$REGENMODE
 70
1
  9
$FILLMODE
 70
1
  9
$DRAGMODE
 70
2
  9
$QTEXTMODE
 70
0
  9
$MIRRTEXT
 70
1
  9
$OSMODE
 70
20583
  9
$LTSCALE
 40
1.0
  9
$ATTMODE
 70
1
  9
$TEXTSIZE
 40
2.5
  9
$TRACEWID
 40
1.0
  9
$TEXTSTYLE
  7
Standard
  9
$CLAYER
  8
0
  9
$CELTYPE
  6
ByLayer
  9
$CECOLOR
 62
256
  9
$DIMSCALE
 40
1.0
  9
$DIMASZ
 40
2.5
  9
$DIMEXO
 40
0.625
  9
$DIMDLI
 40
3.75
  9
$DIMRND
 40
0.0
  9
$DIMDLE
 40
0.0
  9
$DIMEXE
 40
1.25
  9
$DIMTP
 40
0.0
  9
$DIMTM
 40
0.0
  9
$DIMTXT
 40
2.5
  9
$DIMCEN
 40
2.5
  9
$DIMTSZ
 40
0.0
  9
$DIMTOL
 70
0
  9
$DIMLIM
 70
0
  9
$DIMTIH
 70
0
  9
$DIMTOH
 70
0
  9
$DIMSE1
 70
0
  9
$DIMSE2
 70
0
  9
$DIMTAD
 70
1
  9
$DIMZIN
 70
8
  9
$DIMBLK
  1

  9
$DIMASO
 70
1
  9
$DIMSHO
 70
1
  9
$DIMPOST
  1

  9
$DIMAPOST
  1

  9
$DIMALT
 70
0
  9
$DIMALTD
 70
3
  9
$DIMALTF
 40
0.03937007874
  9
$DIMLFAC
 40
1.0
  9
$DIMTOFL
 70
1
  9
$DIMTVP
 40
0.0
  9
$DIMTIX
 70
0
  9
$DIMSOXD
 70
0
  9
$DIMSAH
 70
0
  9
$DIMBLK1
  1

  9
$DIMBLK2
  1

  9
$DIMSTYLE
  2
ISO-25
  9
$DIMCLRD
 70
0
  9
$DIMCLRE
 70
0
  9
$DIMCLRT
 70
0
  9
$DIMTFAC
 40
1.0
  9
$DIMGAP
 40
0.625
  9
$COORDS
 70
1
  9
$ATTDIA
 70
0
  9
$ATTREQ
 70
1
  9
$HANDLING
 70
1
  9
$LUNITS
 70
2
  9
$LUPREC
 70
4
  9
$SKETCHINC
 40
1.0
  9
$FILLETRAD
 40
10.0
  9
$AUNITS
 70
0
  9
$AUPREC
 70
2
  9
$MENU
  1
.
  9
$ELEVATION
 40
0.0
  9
$PELEVATION
 40
0.0
  9
$THICKNESS
 40
0.0
  9
$LIMCHECK
 70
0
  9
$CHAMFERA
 40
0.0
  9
$CHAMFERB
 40
0.0
  9
$SKPOLY
 70
0
  9
$TDCREATE
 40
2461104.9006828703
  9
$TDUPDATE
 40
2461104.9006944443
  9
$TDINDWG
 40
0.0
  9
$TDUSRTIMER
 40
0.0
  9
$USRTIMER
 70
1
  9
$ANGBASE
 50
0.0
  9
$ANGDIR
 70
0
  9
$PDMODE
 70
0
  9
$PDSIZE
 40
0.0
  9
$PLINEWID
 40
0.0
  9
$SPLFRAME
 70
0
  9
$SPLINETYPE
 70
6
  9
$SPLINESEGS
 70
8
  9
$HANDSEED
  5
214
  9
$SURFTAB1
 70
6
  9
$SURFTAB2
 70
6
  9
$SURFTYPE
 70
6
  9
$SURFU
 70
6
  9
$SURFV
 70
6
  9
$UCSNAME
  2

  9
$UCSORG
 10
0.0
 20
0.0
 30
0.0
  9
$UCSXDIR
 10
1.0
 20
0.0
 30
0.0
  9
$UCSYDIR
 10
0.0
 20
1.0
 30
0.0
  9
$PUCSNAME
  2

  9
$PUCSORG
 10
0.0
 20
0.0
 30
0.0
  9
$PUCSXDIR
 10
1.0
 20
0.0
 30
0.0
  9
$PUCSYDIR
 10
0.0
 20
1.0
 30
0.0
  9
$USERI1
 70
0
  9
$USERI2
 70
0
  9
$USERI3
 70
0
  9
$USERI4
 70
0
  9
$USERI5
 70
0
  9
$USERR1
 40
0.0
  9
$USERR2
 40
0.0
  9
$USERR3
 40
0.0
  9
$USERR4
 40
0.0
  9
$USERR5
 40
0.0
  9
$WORLDVIEW
 70
1
  9
$SHADEDGE
 70
3
  9
$SHADEDIF
 70
70
  9
$TILEMODE
 70
1
  9
$MAXACTVP
 70
64
  9
$PLIMCHECK
 70
0
  9
$PEXTMIN
 10
1e+20
 20
1e+20
 30
1e+20
  9
$PEXTMAX
 10
-1e+20
 20
-1e+20
 30
-1e+20
  9
$PLIMMIN
 10
0.0
 20
0.0
  9
$PLIMMAX
 10
420.0
 20
297.0
  9
$UNITMODE
 70
0
  9
$VISRETAIN
 70
1
  9
$PLINEGEN
 70
0
  9
$PSLTSCALE
 70
1
  0
ENDSEC
  0
SECTION
  2
TABLES
  0
TABLE
  2
VPORT
 70
1
  0
VPORT
  5
23
  2
*Active
 70
0
 10
0.0
 20
0.0
 11
1.0
 21
1.0
 12
0.0
 22
0.0
 13
0.0
 23
0.0
 14
0.5
 24
0.5
 15
0.5
 25
0.5
 16
0.0
 26
0.0
 36
1.0
 17
0.0
 27
0.0
 37
0.0
 40
1000.0
 41
1.34
 42
50.0
 43
0.0
 44
0.0
 50
0.0
 51
0.0
 71
0
 72
1000
 73
1
 74
3
 75
0
 76
0
 77
0
 78
0
  0
ENDTAB
  0
TABLE
  2
LTYPE
 70
3
  0
LTYPE
  5
24
  2
ByBlock
 70
0
  3

 72
65
 73
0
 40
0.0
  0
LTYPE
  5
25
  2
ByLayer
 70
0
  3

 72
65
 73
0
 40
0.0
  0
LTYPE
  5
26
  2
Continuous
 70
0
  3

 72
65
 73
0
 40
0.0
  0
ENDTAB
  0
TABLE
  2
LAYER
 70
2
  0
LAYER
  5
27
  2
0
 70
0
 62
7
  6
Continuous
  0
LAYER
  5
28
  2
Defpoints
 70
0
 62
7
  6
Continuous
  0
ENDTAB
  0
TABLE
  2
STYLE
 70
1
  0
STYLE
  5
29
  2
Standard
 70
0
 40
0.0
 41
1.0
 50
0.0
 71
0
 42
2.5
  3
txt
  4

  0
ENDTAB
  0
TABLE
  2
VIEW
 70
0
  0
ENDTAB
  0
TABLE
  2
UCS
 70
0
  0
ENDTAB
  0
TABLE
  2
APPID
 70
3
  0
APPID
  5
2A
  2
ACAD
 70
0
  0
APPID
  5
212
  2
HATCHBACKGROUNDCOLOR
 70
0
  0
APPID
  5
213
  2
EZDXF
 70
0
  0
ENDTAB
  0
TABLE
  2
DIMSTYLE
 70
1
  0
DIMSTYLE
105
2B
  2
Standard
 70
0
  3

  4

  5

  6

  7

 40
1.0
 41
2.5
 42
0.625
 43
3.75
 44
1.25
 45
0.0
 46
0.0
 47
0.0
 48
0.0
140
2.5
141
2.5
142
0.0
143
0.03937007874
144
1.0
145
0.0
146
1.0
147
0.625
 71
0
 72
0
 73
0
 74
0
 75
0
 76
0
 77
1
 78
8
170
0
171
3
172
1
173
0
174
0
175
0
176
0
177
0
178
0
  0
ENDTAB
  0
ENDSEC
  0
SECTION
  2
BLOCKS
  0
BLOCK
  5
18
  8
0
  2
$Model_Space
 70
0
 10
0.0
 20
0.0
 30
0.0
  3
$Model_Space
  1

1001
EZDXF
1000
CREATED_BY_EZDXF
1000
1.4.3 @ 2026-03-05T03:36:59.653749+00:00
1000
WRITTEN_BY_EZDXF
1000
1.4.3 @ 2026-03-05T03:37:00.186458+00:00
  0
ENDBLK
  5
19
  8
0
  0
BLOCK
  5
1C
  8
0
  2
$Paper_Space
 70
0
 10
0.0
 20
0.0
 30
0.0
  3
$Paper_Space
  1

  0
ENDBLK
  5
1D
  8
0
  0
ENDSEC
  0
SECTION
  2
ENTITIES
  0
LINE
  5
2D
  8
PICKGUARD
 10
13.779500007629395
 20
273.36749267578125
 30
0.0
 11
13.715999603271484
 21
6.2230000495910645
 31
0.0
  0
LINE
  5
2E
  8
PICKGUARD
 10
13.715999603271484
 20
6.2230000495910645
 30
0.0
 11
202.0570068359375
 21
6.1595001220703125
 31
0.0
  0
LINE
  5
2F
  8
PICKGUARD
 10
202.0570068359375
 20
6.1595001220703125
 30
0.0
 11
202.0570068359375
 21
273.3039855957031
 31
0.0
  0
LINE
  5
30
  8
PICKGUARD
 10
202.0570068359375
 20
273.3039855957031
 30
0.0
 11
13.779500007629395
 21
273.36749267578125
 31
0.0
  0
LINE
  5
31
  8
PICKGUARD
 10
13.970000267028809
 20
273.177001953125
 30
0.0
 11
201.8665008544922
 21
273.1134948730469
 31
0.0
  0
LINE
  5
32
  8
PICKGUARD
 10
201.8665008544922
 20
273.1134948730469
 30
0.0
 11
201.80299377441406
 21
6.349999904632568
 31
0.0
  0
LINE
  5
33
  8
PICKGUARD
 10
201.80299377441406
 20
6.349999904632568
 30
0.0
 11
13.906499862670898
 21
6.41349983215332
 31
0.0
  0
LINE
  5
34
  8
PICKGUARD
 10
13.906499862670898
 20
6.41349983215332
 30
0.0
 11
13.970000267028809
 21
273.177001953125
 31
0.0
  0
LINE
  5
35
  8
SMALL_FEATURE
 10
181.54649353027344
 20
39.43349838256836
 30
0.0
 11
188.34100341796875
 21
39.49700164794922
 31
0.0
  0
LINE
  5
36
  8
SMALL_FEATURE
 10
188.34100341796875
 20
39.49700164794922
 30
0.0
 11
188.531494140625
 21
38.98899841308594
 31
0.0
  0
LINE
  5
37
  8
SMALL_FEATURE
 10
188.531494140625
 20
38.98899841308594
 30
0.0
 11
188.59500122070312
 21
39.49700164794922
 31
0.0
  0
LINE
  5
38
  8
SMALL_FEATURE
 10
188.59500122070312
 20
39.49700164794922
 30
0.0
 11
198.7550048828125
 21
39.49700164794922
 31
0.0
  0
LINE
  5
39
  8
SMALL_FEATURE
 10
198.7550048828125
 20
39.49700164794922
 30
0.0
 11
198.81849670410156
 21
32.3849983215332
 31
0.0
  0
LINE
  5
3A
  8
SMALL_FEATURE
 10
198.81849670410156
 20
32.3849983215332
 30
0.0
 11
198.05650329589844
 21
32.32149887084961
 31
0.0
  0
LINE
  5
3B
  8
SMALL_FEATURE
 10
198.05650329589844
 20
32.32149887084961
 30
0.0
 11
197.35800170898438
 21
31.62299919128418
 31
0.0
  0
LINE
  5
3C
  8
SMALL_FEATURE
 10
197.35800170898438
 20
31.62299919128418
 30
0.0
 11
196.3419952392578
 21
29.273500442504883
 31
0.0
  0
LINE
  5
3D
  8
SMALL_FEATURE
 10
196.3419952392578
 20
29.273500442504883
 30
0.0
 11
195.83399963378906
 21
26.60650062561035
 31
0.0
  0
LINE
  5
3E
  8
SMALL_FEATURE
 10
195.83399963378906
 20
26.60650062561035
 30
0.0
 11
196.15150451660156
 21
26.60650062561035
 31
0.0
  0
LINE
  5
3F
  8
SMALL_FEATURE
 10
196.15150451660156
 20
26.60650062561035
 30
0.0
 11
196.27850341796875
 21
28.575000762939453
 31
0.0
  0
LINE
  5
40
  8
SMALL_FEATURE
 10
196.27850341796875
 20
28.575000762939453
 30
0.0
 11
197.29449462890625
 21
31.114999771118164
 31
0.0
  0
LINE
  5
41
  8
SMALL_FEATURE
 10
197.29449462890625
 20
31.114999771118164
 30
0.0
 11
197.86599731445312
 21
32.00400161743164
 31
0.0
  0
LINE
  5
42
  8
SMALL_FEATURE
 10
197.86599731445312
 20
32.00400161743164
 30
0.0
 11
198.7550048828125
 21
32.00400161743164
 31
0.0
  0
LINE
  5
43
  8
SMALL_FEATURE
 10
198.7550048828125
 20
32.00400161743164
 30
0.0
 11
198.81849670410156
 21
24.574499130249023
 31
0.0
  0
LINE
  5
44
  8
SMALL_FEATURE
 10
198.81849670410156
 20
24.574499130249023
 30
0.0
 11
194.50050354003906
 21
24.51099967956543
 31
0.0
  0
LINE
  5
45
  8
SMALL_FEATURE
 10
194.50050354003906
 20
24.51099967956543
 30
0.0
 11
194.43699645996094
 21
24.828500747680664
 31
0.0
  0
LINE
  5
46
  8
SMALL_FEATURE
 10
194.43699645996094
 20
24.828500747680664
 30
0.0
 11
194.2465057373047
 21
24.574499130249023
 31
0.0
  0
LINE
  5
47
  8
SMALL_FEATURE
 10
194.2465057373047
 20
24.574499130249023
 30
0.0
 11
193.29400634765625
 21
24.828500747680664
 31
0.0
  0
LINE
  5
48
  8
SMALL_FEATURE
 10
193.29400634765625
 20
24.828500747680664
 30
0.0
 11
193.10350036621094
 21
24.51099967956543
 31
0.0
  0
LINE
  5
49
  8
SMALL_FEATURE
 10
193.10350036621094
 20
24.51099967956543
 30
0.0
 11
190.3094940185547
 21
24.51099967956543
 31
0.0
  0
LINE
  5
4A
  8
SMALL_FEATURE
 10
190.3094940185547
 20
24.51099967956543
 30
0.0
 11
190.24600219726562
 21
24.828500747680664
 31
0.0
  0
LINE
  5
4B
  8
SMALL_FEATURE
 10
190.24600219726562
 20
24.828500747680664
 30
0.0
 11
189.61099243164062
 21
25.018999099731445
 31
0.0
  0
LINE
  5
4C
  8
SMALL_FEATURE
 10
189.61099243164062
 20
25.018999099731445
 30
0.0
 11
189.54750061035156
 21
24.574499130249023
 31
0.0
  0
LINE
  5
4D
  8
SMALL_FEATURE
 10
189.54750061035156
 20
24.574499130249023
 30
0.0
 11
181.67349243164062
 21
24.51099967956543
 31
0.0
  0
LINE
  5
4E
  8
SMALL_FEATURE
 10
181.67349243164062
 20
24.51099967956543
 30
0.0
 11
181.54649353027344
 21
25.844499588012695
 31
0.0
  0
LINE
  5
4F
  8
SMALL_FEATURE
 10
181.54649353027344
 20
25.844499588012695
 30
0.0
 11
182.1179962158203
 21
25.908000946044922
 31
0.0
  0
LINE
  5
50
  8
SMALL_FEATURE
 10
182.1179962158203
 20
25.908000946044922
 30
0.0
 11
182.6894989013672
 21
26.60650062561035
 31
0.0
  0
LINE
  5
51
  8
SMALL_FEATURE
 10
182.6894989013672
 20
26.60650062561035
 30
0.0
 11
183.51499938964844
 21
26.542999267578125
 31
0.0
  0
LINE
  5
52
  8
SMALL_FEATURE
 10
183.51499938964844
 20
26.542999267578125
 30
0.0
 11
183.51499938964844
 21
25.717500686645508
 31
0.0
  0
LINE
  5
53
  8
SMALL_FEATURE
 10
183.51499938964844
 20
25.717500686645508
 30
0.0
 11
183.70550537109375
 21
26.225500106811523
 31
0.0
  0
LINE
  5
54
  8
SMALL_FEATURE
 10
183.70550537109375
 20
26.225500106811523
 30
0.0
 11
184.46749877929688
 21
26.225500106811523
 31
0.0
  0
LINE
  5
55
  8
SMALL_FEATURE
 10
184.46749877929688
 20
26.225500106811523
 30
0.0
 11
186.1820068359375
 21
29.972000122070312
 31
0.0
  0
LINE
  5
56
  8
SMALL_FEATURE
 10
186.1820068359375
 20
29.972000122070312
 30
0.0
 11
186.7534942626953
 21
31.686500549316406
 31
0.0
  0
LINE
  5
57
  8
SMALL_FEATURE
 10
186.7534942626953
 20
31.686500549316406
 30
0.0
 11
187.3249969482422
 21
31.686500549316406
 31
0.0
  0
LINE
  5
58
  8
SMALL_FEATURE
 10
187.3249969482422
 20
31.686500549316406
 30
0.0
 11
187.5155029296875
 21
32.638999938964844
 31
0.0
  0
LINE
  5
59
  8
SMALL_FEATURE
 10
187.5155029296875
 20
32.638999938964844
 30
0.0
 11
189.86500549316406
 21
32.57550048828125
 31
0.0
  0
LINE
  5
5A
  8
SMALL_FEATURE
 10
189.86500549316406
 20
32.57550048828125
 30
0.0
 11
189.86500549316406
 21
32.829498291015625
 31
0.0
  0
LINE
  5
5B
  8
SMALL_FEATURE
 10
189.86500549316406
 20
32.829498291015625
 30
0.0
 11
188.59500122070312
 21
32.829498291015625
 31
0.0
  0
LINE
  5
5C
  8
SMALL_FEATURE
 10
188.59500122070312
 20
32.829498291015625
 30
0.0
 11
188.02349853515625
 21
33.21049880981445
 31
0.0
  0
LINE
  5
5D
  8
SMALL_FEATURE
 10
188.02349853515625
 20
33.21049880981445
 30
0.0
 11
188.02349853515625
 21
33.654998779296875
 31
0.0
  0
LINE
  5
5E
  8
SMALL_FEATURE
 10
188.02349853515625
 20
33.654998779296875
 30
0.0
 11
187.3885040283203
 21
33.654998779296875
 31
0.0
  0
LINE
  5
5F
  8
SMALL_FEATURE
 10
187.3885040283203
 20
33.654998779296875
 30
0.0
 11
187.3885040283203
 21
34.67100143432617
 31
0.0
  0
LINE
  5
60
  8
SMALL_FEATURE
 10
187.3885040283203
 20
34.67100143432617
 30
0.0
 11
186.3090057373047
 21
33.337501525878906
 31
0.0
  0
LINE
  5
61
  8
SMALL_FEATURE
 10
186.3090057373047
 20
33.337501525878906
 30
0.0
 11
183.83250427246094
 21
31.813499450683594
 31
0.0
  0
LINE
  5
62
  8
SMALL_FEATURE
 10
183.83250427246094
 20
31.813499450683594
 30
0.0
 11
183.0070037841797
 21
30.60700035095215
 31
0.0
  0
LINE
  5
63
  8
SMALL_FEATURE
 10
183.0070037841797
 20
30.60700035095215
 30
0.0
 11
183.13400268554688
 21
29.844999313354492
 31
0.0
  0
LINE
  5
64
  8
SMALL_FEATURE
 10
183.13400268554688
 20
29.844999313354492
 30
0.0
 11
183.26100158691406
 21
30.797500610351562
 31
0.0
  0
LINE
  5
65
  8
SMALL_FEATURE
 10
183.26100158691406
 20
30.797500610351562
 30
0.0
 11
183.83250427246094
 21
31.496000289916992
 31
0.0
  0
LINE
  5
66
  8
SMALL_FEATURE
 10
183.83250427246094
 20
31.496000289916992
 30
0.0
 11
185.03900146484375
 21
32.19449996948242
 31
0.0
  0
LINE
  5
67
  8
SMALL_FEATURE
 10
185.03900146484375
 20
32.19449996948242
 30
0.0
 11
185.9915008544922
 21
32.19449996948242
 31
0.0
  0
LINE
  5
68
  8
SMALL_FEATURE
 10
185.9915008544922
 20
32.19449996948242
 30
0.0
 11
186.05499267578125
 21
31.178499221801758
 31
0.0
  0
LINE
  5
69
  8
SMALL_FEATURE
 10
186.05499267578125
 20
31.178499221801758
 30
0.0
 11
185.22950744628906
 21
28.95599937438965
 31
0.0
  0
LINE
  5
6A
  8
SMALL_FEATURE
 10
185.22950744628906
 20
28.95599937438965
 30
0.0
 11
183.32449340820312
 21
28.38450050354004
 31
0.0
  0
LINE
  5
6B
  8
SMALL_FEATURE
 10
183.32449340820312
 20
28.38450050354004
 30
0.0
 11
183.32449340820312
 21
27.622499465942383
 31
0.0
  0
LINE
  5
6C
  8
SMALL_FEATURE
 10
183.32449340820312
 20
27.622499465942383
 30
0.0
 11
182.6894989013672
 21
26.73349952697754
 31
0.0
  0
LINE
  5
6D
  8
SMALL_FEATURE
 10
182.6894989013672
 20
26.73349952697754
 30
0.0
 11
181.61000061035156
 21
26.542999267578125
 31
0.0
  0
LINE
  5
6E
  8
SMALL_FEATURE
 10
181.61000061035156
 20
26.542999267578125
 30
0.0
 11
181.54649353027344
 21
39.43349838256836
 31
0.0
  0
LINE
  5
6F
  8
SMALL_FEATURE
 10
78.99400329589844
 20
252.92050170898438
 30
0.0
 11
79.88300323486328
 21
252.3489990234375
 31
0.0
  0
LINE
  5
70
  8
SMALL_FEATURE
 10
79.88300323486328
 20
252.3489990234375
 30
0.0
 11
80.32749938964844
 21
251.39649963378906
 31
0.0
  0
LINE
  5
71
  8
SMALL_FEATURE
 10
80.32749938964844
 20
251.39649963378906
 30
0.0
 11
79.50199890136719
 21
230.44149780273438
 31
0.0
  0
LINE
  5
72
  8
SMALL_FEATURE
 10
79.50199890136719
 20
230.44149780273438
 30
0.0
 11
78.73999786376953
 21
229.10800170898438
 31
0.0
  0
LINE
  5
73
  8
SMALL_FEATURE
 10
78.73999786376953
 20
229.10800170898438
 30
0.0
 11
78.1050033569336
 21
228.7270050048828
 31
0.0
  0
LINE
  5
74
  8
SMALL_FEATURE
 10
78.1050033569336
 20
228.7270050048828
 30
0.0
 11
77.02549743652344
 21
228.7270050048828
 31
0.0
  0
LINE
  5
75
  8
SMALL_FEATURE
 10
77.02549743652344
 20
228.7270050048828
 30
0.0
 11
76.072998046875
 21
229.36199951171875
 31
0.0
  0
LINE
  5
76
  8
SMALL_FEATURE
 10
76.072998046875
 20
229.36199951171875
 30
0.0
 11
75.56500244140625
 21
230.56849670410156
 31
0.0
  0
LINE
  5
77
  8
SMALL_FEATURE
 10
75.56500244140625
 20
230.56849670410156
 30
0.0
 11
76.3905029296875
 21
251.07899475097656
 31
0.0
  0
LINE
  5
78
  8
SMALL_FEATURE
 10
76.3905029296875
 20
251.07899475097656
 30
0.0
 11
77.08899688720703
 21
252.5395050048828
 31
0.0
  0
LINE
  5
79
  8
SMALL_FEATURE
 10
77.08899688720703
 20
252.5395050048828
 30
0.0
 11
77.7874984741211
 21
252.92050170898438
 31
0.0
  0
LINE
  5
7A
  8
SMALL_FEATURE
 10
77.7874984741211
 20
252.92050170898438
 30
0.0
 11
78.99400329589844
 21
252.92050170898438
 31
0.0
  0
LINE
  5
7B
  8
SMALL_FEATURE
 10
68.83399963378906
 20
252.98399353027344
 30
0.0
 11
70.42150115966797
 21
252.85699462890625
 31
0.0
  0
LINE
  5
7C
  8
SMALL_FEATURE
 10
70.42150115966797
 20
252.85699462890625
 30
0.0
 11
71.24700164794922
 21
251.96800231933594
 31
0.0
  0
LINE
  5
7D
  8
SMALL_FEATURE
 10
71.24700164794922
 20
251.96800231933594
 30
0.0
 11
71.5009994506836
 21
251.07899475097656
 31
0.0
  0
LINE
  5
7E
  8
SMALL_FEATURE
 10
71.5009994506836
 20
251.07899475097656
 30
0.0
 11
72.26300048828125
 21
230.3144989013672
 31
0.0
  0
LINE
  5
7F
  8
SMALL_FEATURE
 10
72.26300048828125
 20
230.3144989013672
 30
0.0
 11
71.88200378417969
 21
229.48899841308594
 31
0.0
  0
LINE
  5
80
  8
SMALL_FEATURE
 10
71.88200378417969
 20
229.48899841308594
 30
0.0
 11
70.92949676513672
 21
228.79049682617188
 31
0.0
  0
LINE
  5
81
  8
SMALL_FEATURE
 10
70.92949676513672
 20
228.79049682617188
 30
0.0
 11
69.7864990234375
 21
228.79049682617188
 31
0.0
  0
LINE
  5
82
  8
SMALL_FEATURE
 10
69.7864990234375
 20
228.79049682617188
 30
0.0
 11
69.15149688720703
 21
229.10800170898438
 31
0.0
  0
LINE
  5
83
  8
SMALL_FEATURE
 10
69.15149688720703
 20
229.10800170898438
 30
0.0
 11
68.3895034790039
 21
230.44149780273438
 31
0.0
  0
LINE
  5
84
  8
SMALL_FEATURE
 10
68.3895034790039
 20
230.44149780273438
 30
0.0
 11
67.56400299072266
 21
251.39649963378906
 31
0.0
  0
LINE
  5
85
  8
SMALL_FEATURE
 10
67.56400299072266
 20
251.39649963378906
 30
0.0
 11
68.83399963378906
 21
252.98399353027344
 31
0.0
  0
LINE
  5
86
  8
SMALL_FEATURE
 10
185.29299926757812
 20
24.256999969482422
 30
0.0
 11
198.7550048828125
 21
24.320499420166016
 31
0.0
  0
LINE
  5
87
  8
SMALL_FEATURE
 10
198.7550048828125
 20
24.320499420166016
 30
0.0
 11
198.81849670410156
 21
17.8435001373291
 31
0.0
  0
LINE
  5
88
  8
SMALL_FEATURE
 10
198.81849670410156
 20
17.8435001373291
 30
0.0
 11
185.35650634765625
 21
17.780000686645508
 31
0.0
  0
LINE
  5
89
  8
SMALL_FEATURE
 10
185.35650634765625
 20
17.780000686645508
 30
0.0
 11
185.29299926757812
 21
24.256999969482422
 31
0.0
  0
LINE
  5
8A
  8
SMALL_FEATURE
 10
79.4384994506836
 20
74.54900360107422
 30
0.0
 11
79.75599670410156
 21
51.371498107910156
 31
0.0
  0
LINE
  5
8B
  8
SMALL_FEATURE
 10
79.75599670410156
 20
51.371498107910156
 30
0.0
 11
75.94599914550781
 21
51.30799865722656
 31
0.0
  0
LINE
  5
8C
  8
SMALL_FEATURE
 10
75.94599914550781
 20
51.30799865722656
 30
0.0
 11
75.81900024414062
 21
73.53299713134766
 31
0.0
  0
LINE
  5
8D
  8
SMALL_FEATURE
 10
75.81900024414062
 20
73.53299713134766
 30
0.0
 11
78.61299896240234
 21
74.54900360107422
 31
0.0
  0
LINE
  5
8E
  8
SMALL_FEATURE
 10
78.61299896240234
 20
74.54900360107422
 30
0.0
 11
79.4384994506836
 21
74.54900360107422
 31
0.0
  0
LINE
  5
8F
  8
SMALL_FEATURE
 10
68.5165023803711
 20
74.54900360107422
 30
0.0
 11
69.34200286865234
 21
74.54900360107422
 31
0.0
  0
LINE
  5
90
  8
SMALL_FEATURE
 10
69.34200286865234
 20
74.54900360107422
 30
0.0
 11
72.00900268554688
 21
73.59649658203125
 31
0.0
  0
LINE
  5
91
  8
SMALL_FEATURE
 10
72.00900268554688
 20
73.59649658203125
 30
0.0
 11
71.88200378417969
 21
51.30799865722656
 31
0.0
  0
LINE
  5
92
  8
SMALL_FEATURE
 10
71.88200378417969
 20
51.30799865722656
 30
0.0
 11
68.1989974975586
 21
51.371498107910156
 31
0.0
  0
LINE
  5
93
  8
SMALL_FEATURE
 10
68.1989974975586
 20
51.371498107910156
 30
0.0
 11
68.5165023803711
 21
74.54900360107422
 31
0.0
  0
LINE
  5
94
  8
SMALL_FEATURE
 10
72.19950103759766
 20
73.53299713134766
 30
0.0
 11
75.81900024414062
 21
73.46949768066406
 31
0.0
  0
LINE
  5
95
  8
SMALL_FEATURE
 10
75.81900024414062
 20
73.46949768066406
 30
0.0
 11
75.81900024414062
 21
51.30799865722656
 31
0.0
  0
LINE
  5
96
  8
SMALL_FEATURE
 10
75.81900024414062
 20
51.30799865722656
 30
0.0
 11
72.07250213623047
 21
51.371498107910156
 31
0.0
  0
LINE
  5
97
  8
SMALL_FEATURE
 10
72.07250213623047
 20
51.371498107910156
 30
0.0
 11
72.19950103759766
 21
73.53299713134766
 31
0.0
  0
LINE
  5
98
  8
SMALL_FEATURE
 10
73.27899932861328
 20
94.48799896240234
 30
0.0
 11
75.31099700927734
 21
94.42449951171875
 31
0.0
  0
LINE
  5
99
  8
SMALL_FEATURE
 10
75.31099700927734
 20
94.42449951171875
 30
0.0
 11
75.75550079345703
 21
94.10700225830078
 31
0.0
  0
LINE
  5
9A
  8
SMALL_FEATURE
 10
75.75550079345703
 20
94.10700225830078
 30
0.0
 11
75.75550079345703
 21
75.94599914550781
 31
0.0
  0
LINE
  5
9B
  8
SMALL_FEATURE
 10
75.75550079345703
 20
75.94599914550781
 30
0.0
 11
74.54900360107422
 21
75.69200134277344
 31
0.0
  0
LINE
  5
9C
  8
SMALL_FEATURE
 10
74.54900360107422
 20
75.69200134277344
 30
0.0
 11
72.13600158691406
 21
75.94599914550781
 31
0.0
  0
LINE
  5
9D
  8
SMALL_FEATURE
 10
72.13600158691406
 20
75.94599914550781
 30
0.0
 11
72.19950103759766
 21
94.29750061035156
 31
0.0
  0
LINE
  5
9E
  8
SMALL_FEATURE
 10
72.19950103759766
 20
94.29750061035156
 30
0.0
 11
73.27899932861328
 21
94.48799896240234
 31
0.0
  0
LINE
  5
9F
  8
SMALL_FEATURE
 10
75.81900024414062
 20
94.10700225830078
 30
0.0
 11
77.34300231933594
 21
93.91649627685547
 31
0.0
  0
LINE
  5
A0
  8
SMALL_FEATURE
 10
77.34300231933594
 20
93.91649627685547
 30
0.0
 11
79.3115005493164
 21
92.77349853515625
 31
0.0
  0
LINE
  5
A1
  8
SMALL_FEATURE
 10
79.3115005493164
 20
92.77349853515625
 30
0.0
 11
79.4384994506836
 21
77.47000122070312
 31
0.0
  0
LINE
  5
A2
  8
SMALL_FEATURE
 10
79.4384994506836
 20
77.47000122070312
 30
0.0
 11
76.83499908447266
 21
76.1364974975586
 31
0.0
  0
LINE
  5
A3
  8
SMALL_FEATURE
 10
76.83499908447266
 20
76.1364974975586
 30
0.0
 11
75.81900024414062
 21
76.19999694824219
 31
0.0
  0
LINE
  5
A4
  8
SMALL_FEATURE
 10
75.81900024414062
 20
76.19999694824219
 30
0.0
 11
75.81900024414062
 21
94.10700225830078
 31
0.0
  0
LINE
  5
A5
  8
SMALL_FEATURE
 10
71.31050109863281
 20
94.10700225830078
 30
0.0
 11
72.13600158691406
 21
94.04350280761719
 31
0.0
  0
LINE
  5
A6
  8
SMALL_FEATURE
 10
72.13600158691406
 20
94.04350280761719
 30
0.0
 11
72.00900268554688
 21
76.1364974975586
 31
0.0
  0
LINE
  5
A7
  8
SMALL_FEATURE
 10
72.00900268554688
 20
76.1364974975586
 30
0.0
 11
70.54850006103516
 21
76.3270034790039
 31
0.0
  0
LINE
  5
A8
  8
SMALL_FEATURE
 10
70.54850006103516
 20
76.3270034790039
 30
0.0
 11
68.5165023803711
 21
77.47000122070312
 31
0.0
  0
LINE
  5
A9
  8
SMALL_FEATURE
 10
68.5165023803711
 20
77.47000122070312
 30
0.0
 11
68.64350128173828
 21
92.77349853515625
 31
0.0
  0
LINE
  5
AA
  8
SMALL_FEATURE
 10
68.64350128173828
 20
92.77349853515625
 30
0.0
 11
71.31050109863281
 21
94.10700225830078
 31
0.0
  0
LINE
  5
AB
  8
SMALL_FEATURE
 10
82.677001953125
 20
51.05400085449219
 30
0.0
 11
93.5354995727539
 21
51.11750030517578
 31
0.0
  0
LINE
  5
AC
  8
SMALL_FEATURE
 10
93.5354995727539
 20
51.11750030517578
 30
0.0
 11
93.5989990234375
 21
45.78350067138672
 31
0.0
  0
LINE
  5
AD
  8
SMALL_FEATURE
 10
93.5989990234375
 20
45.78350067138672
 30
0.0
 11
82.7405014038086
 21
45.720001220703125
 31
0.0
  0
LINE
  5
AE
  8
SMALL_FEATURE
 10
82.7405014038086
 20
45.720001220703125
 30
0.0
 11
82.677001953125
 21
51.05400085449219
 31
0.0
  0
LINE
  5
AF
  8
SMALL_FEATURE
 10
185.29299926757812
 20
17.525999069213867
 30
0.0
 11
198.7550048828125
 21
17.589500427246094
 31
0.0
  0
LINE
  5
B0
  8
SMALL_FEATURE
 10
198.7550048828125
 20
17.589500427246094
 30
0.0
 11
198.81849670410156
 21
13.58899974822998
 31
0.0
  0
LINE
  5
B1
  8
SMALL_FEATURE
 10
198.81849670410156
 20
13.58899974822998
 30
0.0
 11
185.35650634765625
 21
13.525500297546387
 31
0.0
  0
LINE
  5
B2
  8
SMALL_FEATURE
 10
185.35650634765625
 20
13.525500297546387
 30
0.0
 11
185.29299926757812
 21
17.525999069213867
 31
0.0
  0
LINE
  5
B3
  8
SMALL_FEATURE
 10
185.29299926757812
 20
13.271499633789062
 30
0.0
 11
198.7550048828125
 21
13.335000038146973
 31
0.0
  0
LINE
  5
B4
  8
SMALL_FEATURE
 10
198.7550048828125
 20
13.335000038146973
 30
0.0
 11
198.81849670410156
 21
9.46150016784668
 31
0.0
  0
LINE
  5
B5
  8
SMALL_FEATURE
 10
198.81849670410156
 20
9.46150016784668
 30
0.0
 11
185.35650634765625
 21
9.39799976348877
 31
0.0
  0
LINE
  5
B6
  8
SMALL_FEATURE
 10
185.35650634765625
 20
9.39799976348877
 30
0.0
 11
185.29299926757812
 21
13.271499633789062
 31
0.0
  0
LINE
  5
B7
  8
SMALL_FEATURE
 10
65.2145004272461
 20
51.05400085449219
 30
0.0
 11
65.1510009765625
 21
45.720001220703125
 31
0.0
  0
LINE
  5
B8
  8
SMALL_FEATURE
 10
65.1510009765625
 20
45.720001220703125
 30
0.0
 11
54.29249954223633
 21
45.78350067138672
 31
0.0
  0
LINE
  5
B9
  8
SMALL_FEATURE
 10
54.29249954223633
 20
45.78350067138672
 30
0.0
 11
54.35599899291992
 21
50.22850036621094
 31
0.0
  0
LINE
  5
BA
  8
SMALL_FEATURE
 10
54.35599899291992
 20
50.22850036621094
 30
0.0
 11
60.70600128173828
 21
50.22850036621094
 31
0.0
  0
LINE
  5
BB
  8
SMALL_FEATURE
 10
60.70600128173828
 20
50.22850036621094
 30
0.0
 11
60.89649963378906
 21
51.11750030517578
 31
0.0
  0
LINE
  5
BC
  8
SMALL_FEATURE
 10
60.89649963378906
 20
51.11750030517578
 30
0.0
 11
65.2145004272461
 21
51.05400085449219
 31
0.0
  0
LINE
  5
BD
  8
SMALL_FEATURE
 10
79.56549835205078
 20
92.0114974975586
 30
0.0
 11
80.32749938964844
 21
92.0114974975586
 31
0.0
  0
LINE
  5
BE
  8
SMALL_FEATURE
 10
80.32749938964844
 20
92.0114974975586
 30
0.0
 11
82.23249816894531
 21
89.66200256347656
 31
0.0
  0
LINE
  5
BF
  8
SMALL_FEATURE
 10
82.23249816894531
 20
89.66200256347656
 30
0.0
 11
82.86750030517578
 21
88.26499938964844
 31
0.0
  0
LINE
  5
C0
  8
SMALL_FEATURE
 10
82.86750030517578
 20
88.26499938964844
 30
0.0
 11
83.37550354003906
 21
85.78849792480469
 31
0.0
  0
LINE
  5
C1
  8
SMALL_FEATURE
 10
83.37550354003906
 20
85.78849792480469
 30
0.0
 11
83.31199645996094
 21
83.75650024414062
 31
0.0
  0
LINE
  5
C2
  8
SMALL_FEATURE
 10
83.31199645996094
 20
83.75650024414062
 30
0.0
 11
82.86750030517578
 21
81.91500091552734
 31
0.0
  0
LINE
  5
C3
  8
SMALL_FEATURE
 10
82.86750030517578
 20
81.91500091552734
 30
0.0
 11
82.10549926757812
 21
80.26399993896484
 31
0.0
  0
LINE
  5
C4
  8
SMALL_FEATURE
 10
82.10549926757812
 20
80.26399993896484
 30
0.0
 11
80.45449829101562
 21
78.23200225830078
 31
0.0
  0
LINE
  5
C5
  8
SMALL_FEATURE
 10
80.45449829101562
 20
78.23200225830078
 30
0.0
 11
79.62899780273438
 21
78.29550170898438
 31
0.0
  0
LINE
  5
C6
  8
SMALL_FEATURE
 10
79.62899780273438
 20
78.29550170898438
 30
0.0
 11
79.56549835205078
 21
92.0114974975586
 31
0.0
  0
LINE
  5
C7
  8
SMALL_FEATURE
 10
67.50050354003906
 20
91.8844985961914
 30
0.0
 11
68.32599639892578
 21
91.82099914550781
 31
0.0
  0
LINE
  5
C8
  8
SMALL_FEATURE
 10
68.32599639892578
 20
91.82099914550781
 30
0.0
 11
68.135498046875
 21
78.42250061035156
 31
0.0
  0
LINE
  5
C9
  8
SMALL_FEATURE
 10
68.135498046875
 20
78.42250061035156
 30
0.0
 11
67.37349700927734
 21
78.42250061035156
 31
0.0
  0
LINE
  5
CA
  8
SMALL_FEATURE
 10
67.37349700927734
 20
78.42250061035156
 30
0.0
 11
65.78600311279297
 21
80.39099884033203
 31
0.0
  0
LINE
  5
CB
  8
SMALL_FEATURE
 10
65.78600311279297
 20
80.39099884033203
 30
0.0
 11
65.0875015258789
 21
81.97850036621094
 31
0.0
  0
LINE
  5
CC
  8
SMALL_FEATURE
 10
65.0875015258789
 20
81.97850036621094
 30
0.0
 11
64.57949829101562
 21
84.58200073242188
 31
0.0
  0
LINE
  5
CD
  8
SMALL_FEATURE
 10
64.57949829101562
 20
84.58200073242188
 30
0.0
 11
65.1510009765625
 21
88.39199829101562
 31
0.0
  0
LINE
  5
CE
  8
SMALL_FEATURE
 10
65.1510009765625
 20
88.39199829101562
 30
0.0
 11
66.7385025024414
 21
91.18599700927734
 31
0.0
  0
LINE
  5
CF
  8
SMALL_FEATURE
 10
66.7385025024414
 20
91.18599700927734
 30
0.0
 11
67.50050354003906
 21
91.8844985961914
 31
0.0
  0
LINE
  5
D0
  8
SMALL_FEATURE
 10
72.7074966430664
 20
219.0749969482422
 30
0.0
 11
75.31099700927734
 21
219.01150512695312
 31
0.0
  0
LINE
  5
D1
  8
SMALL_FEATURE
 10
75.31099700927734
 20
219.01150512695312
 30
0.0
 11
75.24749755859375
 21
209.8040008544922
 31
0.0
  0
LINE
  5
D2
  8
SMALL_FEATURE
 10
75.24749755859375
 20
209.8040008544922
 30
0.0
 11
72.64399719238281
 21
209.86749267578125
 31
0.0
  0
LINE
  5
D3
  8
SMALL_FEATURE
 10
72.64399719238281
 20
209.86749267578125
 30
0.0
 11
72.7074966430664
 21
219.0749969482422
 31
0.0
  0
LINE
  5
D4
  8
SMALL_FEATURE
 10
75.37449645996094
 20
219.0749969482422
 30
0.0
 11
77.91449737548828
 21
219.01150512695312
 31
0.0
  0
LINE
  5
D5
  8
SMALL_FEATURE
 10
77.91449737548828
 20
219.01150512695312
 30
0.0
 11
77.91449737548828
 21
209.8040008544922
 31
0.0
  0
LINE
  5
D6
  8
SMALL_FEATURE
 10
77.91449737548828
 20
209.8040008544922
 30
0.0
 11
75.31099700927734
 21
209.86749267578125
 31
0.0
  0
LINE
  5
D7
  8
SMALL_FEATURE
 10
75.31099700927734
 20
209.86749267578125
 30
0.0
 11
75.37449645996094
 21
219.0749969482422
 31
0.0
  0
LINE
  5
D8
  8
SMALL_FEATURE
 10
72.7074966430664
 20
209.61349487304688
 30
0.0
 11
75.31099700927734
 21
209.5500030517578
 31
0.0
  0
LINE
  5
D9
  8
SMALL_FEATURE
 10
75.31099700927734
 20
209.5500030517578
 30
0.0
 11
75.24749755859375
 21
200.78700256347656
 31
0.0
  0
LINE
  5
DA
  8
SMALL_FEATURE
 10
75.24749755859375
 20
200.78700256347656
 30
0.0
 11
72.58049774169922
 21
200.85049438476562
 31
0.0
  0
LINE
  5
DB
  8
SMALL_FEATURE
 10
72.58049774169922
 20
200.85049438476562
 30
0.0
 11
72.7074966430664
 21
209.61349487304688
 31
0.0
  0
LINE
  5
DC
  8
SMALL_FEATURE
 10
75.43800354003906
 20
209.61349487304688
 30
0.0
 11
78.04149627685547
 21
209.5500030517578
 31
0.0
  0
LINE
  5
DD
  8
SMALL_FEATURE
 10
78.04149627685547
 20
209.5500030517578
 30
0.0
 11
78.04149627685547
 21
200.78700256347656
 31
0.0
  0
LINE
  5
DE
  8
SMALL_FEATURE
 10
78.04149627685547
 20
200.78700256347656
 30
0.0
 11
75.37449645996094
 21
200.85049438476562
 31
0.0
  0
LINE
  5
DF
  8
SMALL_FEATURE
 10
75.37449645996094
 20
200.85049438476562
 30
0.0
 11
75.43800354003906
 21
209.61349487304688
 31
0.0
  0
LINE
  5
E0
  8
SMALL_FEATURE
 10
70.10399627685547
 20
219.0749969482422
 30
0.0
 11
72.51699829101562
 21
219.01150512695312
 31
0.0
  0
LINE
  5
E1
  8
SMALL_FEATURE
 10
72.51699829101562
 20
219.01150512695312
 30
0.0
 11
72.45349884033203
 21
209.8040008544922
 31
0.0
  0
LINE
  5
E2
  8
SMALL_FEATURE
 10
72.45349884033203
 20
209.8040008544922
 30
0.0
 11
69.91349792480469
 21
209.86749267578125
 31
0.0
  0
LINE
  5
E3
  8
SMALL_FEATURE
 10
69.91349792480469
 20
209.86749267578125
 30
0.0
 11
70.10399627685547
 21
219.0749969482422
 31
0.0
  0
LINE
  5
E4
  8
SMALL_FEATURE
 10
69.97699737548828
 20
209.61349487304688
 30
0.0
 11
72.51699829101562
 21
209.5500030517578
 31
0.0
  0
LINE
  5
E5
  8
SMALL_FEATURE
 10
72.51699829101562
 20
209.5500030517578
 30
0.0
 11
72.38999938964844
 21
200.78700256347656
 31
0.0
  0
LINE
  5
E6
  8
SMALL_FEATURE
 10
72.38999938964844
 20
200.78700256347656
 30
0.0
 11
69.8499984741211
 21
200.85049438476562
 31
0.0
  0
LINE
  5
E7
  8
SMALL_FEATURE
 10
69.8499984741211
 20
200.85049438476562
 30
0.0
 11
69.97699737548828
 21
209.61349487304688
 31
0.0
  0
LINE
  5
E8
  8
SMALL_FEATURE
 10
72.64399719238281
 20
200.59649658203125
 30
0.0
 11
75.37449645996094
 21
200.5330047607422
 31
0.0
  0
LINE
  5
E9
  8
SMALL_FEATURE
 10
75.37449645996094
 20
200.5330047607422
 30
0.0
 11
75.31099700927734
 21
192.40499877929688
 31
0.0
  0
LINE
  5
EA
  8
SMALL_FEATURE
 10
75.31099700927734
 20
192.40499877929688
 30
0.0
 11
72.58049774169922
 21
192.468505859375
 31
0.0
  0
LINE
  5
EB
  8
SMALL_FEATURE
 10
72.58049774169922
 20
192.468505859375
 30
0.0
 11
72.64399719238281
 21
200.59649658203125
 31
0.0
  0
LINE
  5
EC
  8
SMALL_FEATURE
 10
75.43800354003906
 20
200.59649658203125
 30
0.0
 11
78.1050033569336
 21
200.5330047607422
 31
0.0
  0
LINE
  5
ED
  8
SMALL_FEATURE
 10
78.1050033569336
 20
200.5330047607422
 30
0.0
 11
78.1050033569336
 21
192.40499877929688
 31
0.0
  0
LINE
  5
EE
  8
SMALL_FEATURE
 10
78.1050033569336
 20
192.40499877929688
 30
0.0
 11
75.37449645996094
 21
192.53199768066406
 31
0.0
  0
LINE
  5
EF
  8
SMALL_FEATURE
 10
75.37449645996094
 20
192.53199768066406
 30
0.0
 11
75.43800354003906
 21
200.59649658203125
 31
0.0
  0
LINE
  5
F0
  8
SMALL_FEATURE
 10
72.64399719238281
 20
192.21449279785156
 30
0.0
 11
75.37449645996094
 21
192.1510009765625
 31
0.0
  0
LINE
  5
F1
  8
SMALL_FEATURE
 10
75.37449645996094
 20
192.1510009765625
 30
0.0
 11
75.37449645996094
 21
184.4040069580078
 31
0.0
  0
LINE
  5
F2
  8
SMALL_FEATURE
 10
75.37449645996094
 20
184.4040069580078
 30
0.0
 11
72.51699829101562
 21
184.46749877929688
 31
0.0
  0
LINE
  5
F3
  8
SMALL_FEATURE
 10
72.51699829101562
 20
184.46749877929688
 30
0.0
 11
72.64399719238281
 21
192.21449279785156
 31
0.0
  0
LINE
  5
F4
  8
SMALL_FEATURE
 10
75.43800354003906
 20
192.21449279785156
 30
0.0
 11
78.23200225830078
 21
192.1510009765625
 31
0.0
  0
LINE
  5
F5
  8
SMALL_FEATURE
 10
78.23200225830078
 20
192.1510009765625
 30
0.0
 11
78.23200225830078
 21
184.4040069580078
 31
0.0
  0
LINE
  5
F6
  8
SMALL_FEATURE
 10
78.23200225830078
 20
184.4040069580078
 30
0.0
 11
75.43800354003906
 21
184.46749877929688
 31
0.0
  0
LINE
  5
F7
  8
SMALL_FEATURE
 10
75.43800354003906
 20
184.46749877929688
 30
0.0
 11
75.43800354003906
 21
192.21449279785156
 31
0.0
  0
LINE
  5
F8
  8
SMALL_FEATURE
 10
69.8499984741211
 20
200.59649658203125
 30
0.0
 11
72.45349884033203
 21
200.5330047607422
 31
0.0
  0
LINE
  5
F9
  8
SMALL_FEATURE
 10
72.45349884033203
 20
200.5330047607422
 30
0.0
 11
72.38999938964844
 21
192.40499877929688
 31
0.0
  0
LINE
  5
FA
  8
SMALL_FEATURE
 10
72.38999938964844
 20
192.40499877929688
 30
0.0
 11
69.7229995727539
 21
192.468505859375
 31
0.0
  0
LINE
  5
FB
  8
SMALL_FEATURE
 10
69.7229995727539
 20
192.468505859375
 30
0.0
 11
69.8499984741211
 21
200.59649658203125
 31
0.0
  0
LINE
  5
FC
  8
SMALL_FEATURE
 10
69.7864990234375
 20
192.21449279785156
 30
0.0
 11
72.45349884033203
 21
192.1510009765625
 31
0.0
  0
LINE
  5
FD
  8
SMALL_FEATURE
 10
72.45349884033203
 20
192.1510009765625
 30
0.0
 11
72.32649993896484
 21
184.4040069580078
 31
0.0
  0
LINE
  5
FE
  8
SMALL_FEATURE
 10
72.32649993896484
 20
184.4040069580078
 30
0.0
 11
69.65950012207031
 21
184.46749877929688
 31
0.0
  0
LINE
  5
FF
  8
SMALL_FEATURE
 10
69.65950012207031
 20
184.46749877929688
 30
0.0
 11
69.7864990234375
 21
192.21449279785156
 31
0.0
  0
LINE
  5
100
  8
SMALL_FEATURE
 10
72.58049774169922
 20
184.2135009765625
 30
0.0
 11
75.43800354003906
 21
184.0865020751953
 31
0.0
  0
LINE
  5
101
  8
SMALL_FEATURE
 10
75.43800354003906
 20
184.0865020751953
 30
0.0
 11
75.37449645996094
 21
176.91099548339844
 31
0.0
  0
LINE
  5
102
  8
SMALL_FEATURE
 10
75.37449645996094
 20
176.91099548339844
 30
0.0
 11
72.51699829101562
 21
176.97450256347656
 31
0.0
  0
LINE
  5
103
  8
SMALL_FEATURE
 10
72.51699829101562
 20
176.97450256347656
 30
0.0
 11
72.58049774169922
 21
184.2135009765625
 31
0.0
  0
LINE
  5
104
  8
SMALL_FEATURE
 10
75.50150299072266
 20
184.2135009765625
 30
0.0
 11
78.29550170898438
 21
184.14999389648438
 31
0.0
  0
LINE
  5
105
  8
SMALL_FEATURE
 10
78.29550170898438
 20
184.14999389648438
 30
0.0
 11
78.29550170898438
 21
176.91099548339844
 31
0.0
  0
LINE
  5
106
  8
SMALL_FEATURE
 10
78.29550170898438
 20
176.91099548339844
 30
0.0
 11
75.43800354003906
 21
177.03799438476562
 31
0.0
  0
LINE
  5
107
  8
SMALL_FEATURE
 10
75.43800354003906
 20
177.03799438476562
 30
0.0
 11
75.50150299072266
 21
184.2135009765625
 31
0.0
  0
LINE
  5
108
  8
SMALL_FEATURE
 10
72.58049774169922
 20
176.7205047607422
 30
0.0
 11
75.43800354003906
 21
176.65699768066406
 31
0.0
  0
LINE
  5
109
  8
SMALL_FEATURE
 10
75.43800354003906
 20
176.65699768066406
 30
0.0
 11
75.37449645996094
 21
169.7989959716797
 31
0.0
  0
LINE
  5
10A
  8
SMALL_FEATURE
 10
75.37449645996094
 20
169.7989959716797
 30
0.0
 11
72.45349884033203
 21
169.92599487304688
 31
0.0
  0
LINE
  5
10B
  8
SMALL_FEATURE
 10
72.45349884033203
 20
169.92599487304688
 30
0.0
 11
72.58049774169922
 21
176.7205047607422
 31
0.0
  0
LINE
  5
10C
  8
SMALL_FEATURE
 10
75.50150299072266
 20
176.7205047607422
 30
0.0
 11
78.35900115966797
 21
176.65699768066406
 31
0.0
  0
LINE
  5
10D
  8
SMALL_FEATURE
 10
78.35900115966797
 20
176.65699768066406
 30
0.0
 11
78.35900115966797
 21
169.7989959716797
 31
0.0
  0
LINE
  5
10E
  8
SMALL_FEATURE
 10
78.35900115966797
 20
169.7989959716797
 30
0.0
 11
75.50150299072266
 21
169.8625030517578
 31
0.0
  0
LINE
  5
10F
  8
SMALL_FEATURE
 10
75.50150299072266
 20
169.8625030517578
 30
0.0
 11
75.50150299072266
 21
176.7205047607422
 31
0.0
  0
LINE
  5
110
  8
SMALL_FEATURE
 10
69.7229995727539
 20
184.2135009765625
 30
0.0
 11
72.38999938964844
 21
184.14999389648438
 31
0.0
  0
LINE
  5
111
  8
SMALL_FEATURE
 10
72.38999938964844
 20
184.14999389648438
 30
0.0
 11
72.32649993896484
 21
176.91099548339844
 31
0.0
  0
LINE
  5
112
  8
SMALL_FEATURE
 10
72.32649993896484
 20
176.91099548339844
 30
0.0
 11
69.59600067138672
 21
176.97450256347656
 31
0.0
  0
LINE
  5
113
  8
SMALL_FEATURE
 10
69.59600067138672
 20
176.97450256347656
 30
0.0
 11
69.7229995727539
 21
184.2135009765625
 31
0.0
  0
LINE
  5
114
  8
SMALL_FEATURE
 10
69.59600067138672
 20
176.7205047607422
 30
0.0
 11
72.38999938964844
 21
176.65699768066406
 31
0.0
  0
LINE
  5
115
  8
SMALL_FEATURE
 10
72.38999938964844
 20
176.65699768066406
 30
0.0
 11
72.26300048828125
 21
169.7989959716797
 31
0.0
  0
LINE
  5
116
  8
SMALL_FEATURE
 10
72.26300048828125
 20
169.7989959716797
 30
0.0
 11
69.46900177001953
 21
169.8625030517578
 31
0.0
  0
LINE
  5
117
  8
SMALL_FEATURE
 10
69.46900177001953
 20
169.8625030517578
 30
0.0
 11
69.59600067138672
 21
176.7205047607422
 31
0.0
  0
LINE
  5
118
  8
SMALL_FEATURE
 10
72.51699829101562
 20
169.60850524902344
 30
0.0
 11
75.43800354003906
 21
169.5449981689453
 31
0.0
  0
LINE
  5
119
  8
SMALL_FEATURE
 10
75.43800354003906
 20
169.5449981689453
 30
0.0
 11
75.43800354003906
 21
163.13150024414062
 31
0.0
  0
LINE
  5
11A
  8
SMALL_FEATURE
 10
75.43800354003906
 20
163.13150024414062
 30
0.0
 11
72.45349884033203
 21
163.19500732421875
 31
0.0
  0
LINE
  5
11B
  8
SMALL_FEATURE
 10
72.45349884033203
 20
163.19500732421875
 30
0.0
 11
72.51699829101562
 21
169.60850524902344
 31
0.0
  0
LINE
  5
11C
  8
SMALL_FEATURE
 10
75.56500244140625
 20
169.60850524902344
 30
0.0
 11
78.48600006103516
 21
169.5449981689453
 31
0.0
  0
LINE
  5
11D
  8
SMALL_FEATURE
 10
78.48600006103516
 20
169.5449981689453
 30
0.0
 11
78.42250061035156
 21
163.13150024414062
 31
0.0
  0
LINE
  5
11E
  8
SMALL_FEATURE
 10
78.42250061035156
 20
163.13150024414062
 30
0.0
 11
75.50150299072266
 21
163.19500732421875
 31
0.0
  0
LINE
  5
11F
  8
SMALL_FEATURE
 10
75.50150299072266
 20
163.19500732421875
 30
0.0
 11
75.56500244140625
 21
169.60850524902344
 31
0.0
  0
LINE
  5
120
  8
SMALL_FEATURE
 10
75.56500244140625
 20
162.9409942626953
 30
0.0
 11
78.54949951171875
 21
162.87750244140625
 31
0.0
  0
LINE
  5
121
  8
SMALL_FEATURE
 10
78.54949951171875
 20
162.87750244140625
 30
0.0
 11
78.54949951171875
 21
156.781494140625
 31
0.0
  0
LINE
  5
122
  8
SMALL_FEATURE
 10
78.54949951171875
 20
156.781494140625
 30
0.0
 11
75.50150299072266
 21
156.84500122070312
 31
0.0
  0
LINE
  5
123
  8
SMALL_FEATURE
 10
75.50150299072266
 20
156.84500122070312
 30
0.0
 11
75.56500244140625
 21
162.9409942626953
 31
0.0
  0
LINE
  5
124
  8
SMALL_FEATURE
 10
69.53250122070312
 20
169.60850524902344
 30
0.0
 11
72.38999938964844
 21
169.5449981689453
 31
0.0
  0
LINE
  5
125
  8
SMALL_FEATURE
 10
72.38999938964844
 20
169.5449981689453
 30
0.0
 11
72.26300048828125
 21
163.13150024414062
 31
0.0
  0
LINE
  5
126
  8
SMALL_FEATURE
 10
72.26300048828125
 20
163.13150024414062
 30
0.0
 11
69.40550231933594
 21
163.19500732421875
 31
0.0
  0
LINE
  5
127
  8
SMALL_FEATURE
 10
69.40550231933594
 20
163.19500732421875
 30
0.0
 11
69.53250122070312
 21
169.60850524902344
 31
0.0
  0
LINE
  5
128
  8
SMALL_FEATURE
 10
72.51699829101562
 20
162.9409942626953
 30
0.0
 11
75.50150299072266
 21
162.87750244140625
 31
0.0
  0
LINE
  5
129
  8
SMALL_FEATURE
 10
75.50150299072266
 20
162.87750244140625
 30
0.0
 11
75.43800354003906
 21
156.781494140625
 31
0.0
  0
LINE
  5
12A
  8
SMALL_FEATURE
 10
75.43800354003906
 20
156.781494140625
 30
0.0
 11
72.45349884033203
 21
156.84500122070312
 31
0.0
  0
LINE
  5
12B
  8
SMALL_FEATURE
 10
72.45349884033203
 20
156.84500122070312
 30
0.0
 11
72.51699829101562
 21
162.9409942626953
 31
0.0
  0
LINE
  5
12C
  8
SMALL_FEATURE
 10
69.46900177001953
 20
162.9409942626953
 30
0.0
 11
72.32649993896484
 21
162.87750244140625
 31
0.0
  0
LINE
  5
12D
  8
SMALL_FEATURE
 10
72.32649993896484
 20
162.87750244140625
 30
0.0
 11
72.26300048828125
 21
156.781494140625
 31
0.0
  0
LINE
  5
12E
  8
SMALL_FEATURE
 10
72.26300048828125
 20
156.781494140625
 30
0.0
 11
69.34200286865234
 21
156.84500122070312
 31
0.0
  0
LINE
  5
12F
  8
SMALL_FEATURE
 10
69.34200286865234
 20
156.84500122070312
 30
0.0
 11
69.46900177001953
 21
162.9409942626953
 31
0.0
  0
LINE
  5
130
  8
SMALL_FEATURE
 10
72.51699829101562
 20
156.59100341796875
 30
0.0
 11
75.50150299072266
 21
156.52749633789062
 31
0.0
  0
LINE
  5
131
  8
SMALL_FEATURE
 10
75.50150299072266
 20
156.52749633789062
 30
0.0
 11
75.43800354003906
 21
150.74899291992188
 31
0.0
  0
LINE
  5
132
  8
SMALL_FEATURE
 10
75.43800354003906
 20
150.74899291992188
 30
0.0
 11
72.38999938964844
 21
150.8125
 31
0.0
  0
LINE
  5
133
  8
SMALL_FEATURE
 10
72.38999938964844
 20
150.8125
 30
0.0
 11
72.51699829101562
 21
156.59100341796875
 31
0.0
  0
LINE
  5
134
  8
SMALL_FEATURE
 10
75.56500244140625
 20
156.59100341796875
 30
0.0
 11
78.61299896240234
 21
156.52749633789062
 31
0.0
  0
LINE
  5
135
  8
SMALL_FEATURE
 10
78.61299896240234
 20
156.52749633789062
 30
0.0
 11
78.54949951171875
 21
150.74899291992188
 31
0.0
  0
LINE
  5
136
  8
SMALL_FEATURE
 10
78.54949951171875
 20
150.74899291992188
 30
0.0
 11
75.56500244140625
 21
150.8125
 31
0.0
  0
LINE
  5
137
  8
SMALL_FEATURE
 10
75.56500244140625
 20
150.8125
 30
0.0
 11
75.56500244140625
 21
156.59100341796875
 31
0.0
  0
LINE
  5
138
  8
SMALL_FEATURE
 10
69.40550231933594
 20
156.59100341796875
 30
0.0
 11
72.32649993896484
 21
156.52749633789062
 31
0.0
  0
LINE
  5
139
  8
SMALL_FEATURE
 10
72.32649993896484
 20
156.52749633789062
 30
0.0
 11
72.19950103759766
 21
150.74899291992188
 31
0.0
  0
LINE
  5
13A
  8
SMALL_FEATURE
 10
72.19950103759766
 20
150.74899291992188
 30
0.0
 11
69.27850341796875
 21
150.8125
 31
0.0
  0
LINE
  5
13B
  8
SMALL_FEATURE
 10
69.27850341796875
 20
150.8125
 30
0.0
 11
69.40550231933594
 21
156.59100341796875
 31
0.0
  0
LINE
  5
13C
  8
SMALL_FEATURE
 10
78.16850280761719
 20
219.0749969482422
 30
0.0
 11
80.01000213623047
 21
219.01150512695312
 31
0.0
  0
LINE
  5
13D
  8
SMALL_FEATURE
 10
80.01000213623047
 20
219.01150512695312
 30
0.0
 11
80.01000213623047
 21
209.8040008544922
 31
0.0
  0
LINE
  5
13E
  8
SMALL_FEATURE
 10
80.01000213623047
 20
209.8040008544922
 30
0.0
 11
78.23200225830078
 21
209.86749267578125
 31
0.0
  0
LINE
  5
13F
  8
SMALL_FEATURE
 10
78.23200225830078
 20
209.86749267578125
 30
0.0
 11
78.16850280761719
 21
219.0749969482422
 31
0.0
  0
LINE
  5
140
  8
SMALL_FEATURE
 10
67.94499969482422
 20
219.0749969482422
 30
0.0
 11
69.7229995727539
 21
219.01150512695312
 31
0.0
  0
LINE
  5
141
  8
SMALL_FEATURE
 10
69.7229995727539
 20
219.01150512695312
 30
0.0
 11
69.59600067138672
 21
209.8040008544922
 31
0.0
  0
LINE
  5
142
  8
SMALL_FEATURE
 10
69.59600067138672
 20
209.8040008544922
 30
0.0
 11
67.81800079345703
 21
209.86749267578125
 31
0.0
  0
LINE
  5
143
  8
SMALL_FEATURE
 10
67.81800079345703
 20
209.86749267578125
 30
0.0
 11
67.94499969482422
 21
219.0749969482422
 31
0.0
  0
LINE
  5
144
  8
SMALL_FEATURE
 10
72.45349884033203
 20
150.55850219726562
 30
0.0
 11
75.50150299072266
 21
150.4949951171875
 31
0.0
  0
LINE
  5
145
  8
SMALL_FEATURE
 10
75.50150299072266
 20
150.4949951171875
 30
0.0
 11
75.43800354003906
 21
145.16099548339844
 31
0.0
  0
LINE
  5
146
  8
SMALL_FEATURE
 10
75.43800354003906
 20
145.16099548339844
 30
0.0
 11
72.38999938964844
 21
145.22450256347656
 31
0.0
  0
LINE
  5
147
  8
SMALL_FEATURE
 10
72.38999938964844
 20
145.22450256347656
 30
0.0
 11
72.45349884033203
 21
150.55850219726562
 31
0.0
  0
LINE
  5
148
  8
SMALL_FEATURE
 10
75.62850189208984
 20
150.55850219726562
 30
0.0
 11
78.67649841308594
 21
150.4949951171875
 31
0.0
  0
LINE
  5
149
  8
SMALL_FEATURE
 10
78.67649841308594
 20
150.4949951171875
 30
0.0
 11
78.61299896240234
 21
145.16099548339844
 31
0.0
  0
LINE
  5
14A
  8
SMALL_FEATURE
 10
78.61299896240234
 20
145.16099548339844
 30
0.0
 11
75.56500244140625
 21
145.22450256347656
 31
0.0
  0
LINE
  5
14B
  8
SMALL_FEATURE
 10
75.56500244140625
 20
145.22450256347656
 30
0.0
 11
75.62850189208984
 21
150.55850219726562
 31
0.0
  0
LINE
  5
14C
  8
SMALL_FEATURE
 10
78.29550170898438
 20
209.61349487304688
 30
0.0
 11
80.07350158691406
 21
209.5500030517578
 31
0.0
  0
LINE
  5
14D
  8
SMALL_FEATURE
 10
80.07350158691406
 20
209.5500030517578
 30
0.0
 11
80.07350158691406
 21
200.78700256347656
 31
0.0
  0
LINE
  5
14E
  8
SMALL_FEATURE
 10
80.07350158691406
 20
200.78700256347656
 30
0.0
 11
78.29550170898438
 21
200.85049438476562
 31
0.0
  0
LINE
  5
14F
  8
SMALL_FEATURE
 10
78.29550170898438
 20
200.85049438476562
 30
0.0
 11
78.29550170898438
 21
209.61349487304688
 31
0.0
  0
LINE
  5
150
  8
SMALL_FEATURE
 10
69.34200286865234
 20
150.55850219726562
 30
0.0
 11
72.32649993896484
 21
150.4949951171875
 31
0.0
  0
LINE
  5
151
  8
SMALL_FEATURE
 10
72.32649993896484
 20
150.4949951171875
 30
0.0
 11
72.19950103759766
 21
145.16099548339844
 31
0.0
  0
LINE
  5
152
  8
SMALL_FEATURE
 10
72.19950103759766
 20
145.16099548339844
 30
0.0
 11
69.21499633789062
 21
145.22450256347656
 31
0.0
  0
LINE
  5
153
  8
SMALL_FEATURE
 10
69.21499633789062
 20
145.22450256347656
 30
0.0
 11
69.34200286865234
 21
150.55850219726562
 31
0.0
  0
LINE
  5
154
  8
SMALL_FEATURE
 10
72.45349884033203
 20
144.9705047607422
 30
0.0
 11
75.56500244140625
 21
144.90699768066406
 31
0.0
  0
LINE
  5
155
  8
SMALL_FEATURE
 10
75.56500244140625
 20
144.90699768066406
 30
0.0
 11
75.50150299072266
 21
139.82699584960938
 31
0.0
  0
LINE
  5
156
  8
SMALL_FEATURE
 10
75.50150299072266
 20
139.82699584960938
 30
0.0
 11
72.38999938964844
 21
139.8905029296875
 31
0.0
  0
LINE
  5
157
  8
SMALL_FEATURE
 10
72.38999938964844
 20
139.8905029296875
 30
0.0
 11
72.45349884033203
 21
144.9705047607422
 31
0.0
  0
LINE
  5
158
  8
BRIDGE_ROUTE
 10
131.12750244140625
 20
9.46150016784668
 30
0.0
 11
131.1909942626953
 21
41.020999908447266
 31
0.0
  0
LINE
  5
159
  8
BRIDGE_ROUTE
 10
131.1909942626953
 20
41.020999908447266
 30
0.0
 11
198.81849670410156
 21
40.95750045776367
 31
0.0
  0
LINE
  5
15A
  8
BRIDGE_ROUTE
 10
198.81849670410156
 20
40.95750045776367
 30
0.0
 11
198.7550048828125
 21
39.6875
 31
0.0
  0
LINE
  5
15B
  8
BRIDGE_ROUTE
 10
198.7550048828125
 20
39.6875
 30
0.0
 11
132.52450561523438
 21
39.6875
 31
0.0
  0
LINE
  5
15C
  8
BRIDGE_ROUTE
 10
132.52450561523438
 20
39.6875
 30
0.0
 11
132.46099853515625
 21
9.46150016784668
 31
0.0
  0
LINE
  5
15D
  8
BRIDGE_ROUTE
 10
132.46099853515625
 20
9.46150016784668
 30
0.0
 11
131.12750244140625
 21
9.46150016784668
 31
0.0
  0
LINE
  5
15E
  8
RHYTHM_CIRCUIT
 10
72.7074966430664
 20
262.6994934082031
 30
0.0
 11
71.31050109863281
 21
260.2229919433594
 31
0.0
  0
LINE
  5
15F
  8
RHYTHM_CIRCUIT
 10
71.31050109863281
 20
260.2229919433594
 30
0.0
 11
68.83399963378906
 21
258.1910095214844
 31
0.0
  0
LINE
  5
160
  8
RHYTHM_CIRCUIT
 10
68.83399963378906
 20
258.1910095214844
 30
0.0
 11
67.43699645996094
 21
257.6830139160156
 31
0.0
  0
LINE
  5
161
  8
RHYTHM_CIRCUIT
 10
67.43699645996094
 20
257.6830139160156
 30
0.0
 11
64.38899993896484
 21
257.4289855957031
 31
0.0
  0
LINE
  5
162
  8
RHYTHM_CIRCUIT
 10
64.38899993896484
 20
257.4289855957031
 30
0.0
 11
65.59549713134766
 21
226.63150024414062
 31
0.0
  0
LINE
  5
163
  8
RHYTHM_CIRCUIT
 10
65.59549713134766
 20
226.63150024414062
 30
0.0
 11
67.18299865722656
 21
224.28199768066406
 31
0.0
  0
LINE
  5
164
  8
RHYTHM_CIRCUIT
 10
67.18299865722656
 20
224.28199768066406
 30
0.0
 11
67.88150024414062
 21
222.1230010986328
 31
0.0
  0
LINE
  5
165
  8
RHYTHM_CIRCUIT
 10
67.88150024414062
 20
222.1230010986328
 30
0.0
 11
66.802001953125
 21
121.41200256347656
 31
0.0
  0
LINE
  5
166
  8
RHYTHM_CIRCUIT
 10
66.802001953125
 20
121.41200256347656
 30
0.0
 11
60.26150131225586
 21
120.3324966430664
 31
0.0
  0
LINE
  5
167
  8
RHYTHM_CIRCUIT
 10
60.26150131225586
 20
120.3324966430664
 30
0.0
 11
55.94350051879883
 21
118.30049896240234
 31
0.0
  0
LINE
  5
168
  8
RHYTHM_CIRCUIT
 10
55.94350051879883
 20
118.30049896240234
 30
0.0
 11
52.38750076293945
 21
115.12550354003906
 31
0.0
  0
LINE
  5
169
  8
RHYTHM_CIRCUIT
 10
52.38750076293945
 20
115.12550354003906
 30
0.0
 11
49.9109992980957
 21
111.63300323486328
 31
0.0
  0
LINE
  5
16A
  8
RHYTHM_CIRCUIT
 10
49.9109992980957
 20
111.63300323486328
 30
0.0
 11
48.768001556396484
 21
109.34700012207031
 31
0.0
  0
LINE
  5
16B
  8
RHYTHM_CIRCUIT
 10
48.768001556396484
 20
109.34700012207031
 30
0.0
 11
47.18050003051758
 21
104.71150207519531
 31
0.0
  0
LINE
  5
16C
  8
RHYTHM_CIRCUIT
 10
47.18050003051758
 20
104.71150207519531
 30
0.0
 11
46.60900115966797
 21
100.52050018310547
 31
0.0
  0
LINE
  5
16D
  8
RHYTHM_CIRCUIT
 10
46.60900115966797
 20
100.52050018310547
 30
0.0
 11
47.117000579833984
 21
96.07550048828125
 31
0.0
  0
LINE
  5
16E
  8
RHYTHM_CIRCUIT
 10
47.117000579833984
 20
96.07550048828125
 30
0.0
 11
49.84749984741211
 21
85.02649688720703
 31
0.0
  0
LINE
  5
16F
  8
RHYTHM_CIRCUIT
 10
49.84749984741211
 20
85.02649688720703
 30
0.0
 11
50.03799819946289
 21
80.39099884033203
 31
0.0
  0
LINE
  5
170
  8
RHYTHM_CIRCUIT
 10
50.03799819946289
 20
80.39099884033203
 30
0.0
 11
49.784000396728516
 21
78.16850280761719
 31
0.0
  0
LINE
  5
171
  8
RHYTHM_CIRCUIT
 10
49.784000396728516
 20
78.16850280761719
 30
0.0
 11
49.08549880981445
 21
75.37449645996094
 31
0.0
  0
LINE
  5
172
  8
RHYTHM_CIRCUIT
 10
49.08549880981445
 20
75.37449645996094
 30
0.0
 11
46.862998962402344
 21
69.65950012207031
 31
0.0
  0
LINE
  5
173
  8
RHYTHM_CIRCUIT
 10
46.862998962402344
 20
69.65950012207031
 30
0.0
 11
40.38600158691406
 21
57.721500396728516
 31
0.0
  0
LINE
  5
174
  8
RHYTHM_CIRCUIT
 10
40.38600158691406
 20
57.721500396728516
 30
0.0
 11
37.21099853515625
 21
50.41899871826172
 31
0.0
  0
LINE
  5
175
  8
RHYTHM_CIRCUIT
 10
37.21099853515625
 20
50.41899871826172
 30
0.0
 11
33.59149932861328
 21
50.41899871826172
 31
0.0
  0
LINE
  5
176
  8
RHYTHM_CIRCUIT
 10
33.59149932861328
 20
50.41899871826172
 30
0.0
 11
33.84550094604492
 21
53.2765007019043
 31
0.0
  0
LINE
  5
177
  8
RHYTHM_CIRCUIT
 10
33.84550094604492
 20
53.2765007019043
 30
0.0
 11
33.464500427246094
 21
53.34000015258789
 31
0.0
  0
LINE
  5
178
  8
RHYTHM_CIRCUIT
 10
33.464500427246094
 20
53.34000015258789
 30
0.0
 11
33.464500427246094
 21
216.0904998779297
 31
0.0
  0
LINE
  5
179
  8
RHYTHM_CIRCUIT
 10
33.464500427246094
 20
216.0904998779297
 30
0.0
 11
33.84550094604492
 21
216.1540069580078
 31
0.0
  0
LINE
  5
17A
  8
RHYTHM_CIRCUIT
 10
33.84550094604492
 20
216.1540069580078
 30
0.0
 11
33.52799987792969
 21
219.01150512695312
 31
0.0
  0
LINE
  5
17B
  8
RHYTHM_CIRCUIT
 10
33.52799987792969
 20
219.01150512695312
 30
0.0
 11
50.355499267578125
 21
219.01150512695312
 31
0.0
  0
LINE
  5
17C
  8
RHYTHM_CIRCUIT
 10
50.355499267578125
 20
219.01150512695312
 30
0.0
 11
50.03799819946289
 21
216.34449768066406
 31
0.0
  0
LINE
  5
17D
  8
RHYTHM_CIRCUIT
 10
50.03799819946289
 20
216.34449768066406
 30
0.0
 11
50.41899871826172
 21
216.0904998779297
 31
0.0
  0
LINE
  5
17E
  8
RHYTHM_CIRCUIT
 10
50.41899871826172
 20
216.0904998779297
 30
0.0
 11
50.41899871826172
 21
137.85850524902344
 31
0.0
  0
LINE
  5
17F
  8
RHYTHM_CIRCUIT
 10
50.41899871826172
 20
137.85850524902344
 30
0.0
 11
50.03799819946289
 21
137.7949981689453
 31
0.0
  0
LINE
  5
180
  8
RHYTHM_CIRCUIT
 10
50.03799819946289
 20
137.7949981689453
 30
0.0
 11
50.355499267578125
 21
134.9375
 31
0.0
  0
LINE
  5
181
  8
RHYTHM_CIRCUIT
 10
50.355499267578125
 20
134.9375
 30
0.0
 11
46.60900115966797
 21
134.68350219726562
 31
0.0
  0
LINE
  5
182
  8
RHYTHM_CIRCUIT
 10
46.60900115966797
 20
134.68350219726562
 30
0.0
 11
62.48400115966797
 21
134.68350219726562
 31
0.0
  0
LINE
  5
183
  8
RHYTHM_CIRCUIT
 10
62.48400115966797
 20
134.68350219726562
 30
0.0
 11
50.609500885009766
 21
134.9375
 31
0.0
  0
LINE
  5
184
  8
RHYTHM_CIRCUIT
 10
50.609500885009766
 20
134.9375
 30
0.0
 11
50.926998138427734
 21
137.7949981689453
 31
0.0
  0
LINE
  5
185
  8
RHYTHM_CIRCUIT
 10
50.926998138427734
 20
137.7949981689453
 30
0.0
 11
50.609500885009766
 21
137.85850524902344
 31
0.0
  0
LINE
  5
186
  8
RHYTHM_CIRCUIT
 10
50.609500885009766
 20
137.85850524902344
 30
0.0
 11
50.609500885009766
 21
216.0904998779297
 31
0.0
  0
LINE
  5
187
  8
RHYTHM_CIRCUIT
 10
50.609500885009766
 20
216.0904998779297
 30
0.0
 11
50.926998138427734
 21
216.1540069580078
 31
0.0
  0
LINE
  5
188
  8
RHYTHM_CIRCUIT
 10
50.926998138427734
 20
216.1540069580078
 30
0.0
 11
50.609500885009766
 21
219.01150512695312
 31
0.0
  0
LINE
  5
189
  8
RHYTHM_CIRCUIT
 10
50.609500885009766
 20
219.01150512695312
 30
0.0
 11
63.436500549316406
 21
219.20199584960938
 31
0.0
  0
LINE
  5
18A
  8
RHYTHM_CIRCUIT
 10
63.436500549316406
 20
219.20199584960938
 30
0.0
 11
29.590999603271484
 21
219.20199584960938
 31
0.0
  0
LINE
  5
18B
  8
RHYTHM_CIRCUIT
 10
29.590999603271484
 20
219.20199584960938
 30
0.0
 11
33.27399826049805
 21
219.01150512695312
 31
0.0
  0
LINE
  5
18C
  8
RHYTHM_CIRCUIT
 10
33.27399826049805
 20
219.01150512695312
 30
0.0
 11
32.95650100708008
 21
216.1540069580078
 31
0.0
  0
LINE
  5
18D
  8
RHYTHM_CIRCUIT
 10
32.95650100708008
 20
216.1540069580078
 30
0.0
 11
33.27399826049805
 21
216.0904998779297
 31
0.0
  0
LINE
  5
18E
  8
RHYTHM_CIRCUIT
 10
33.27399826049805
 20
216.0904998779297
 30
0.0
 11
33.27399826049805
 21
53.34000015258789
 31
0.0
  0
LINE
  5
18F
  8
RHYTHM_CIRCUIT
 10
33.27399826049805
 20
53.34000015258789
 30
0.0
 11
32.893001556396484
 21
53.2765007019043
 31
0.0
  0
LINE
  5
190
  8
RHYTHM_CIRCUIT
 10
32.893001556396484
 20
53.2765007019043
 30
0.0
 11
33.27399826049805
 21
50.48249816894531
 31
0.0
  0
LINE
  5
191
  8
RHYTHM_CIRCUIT
 10
33.27399826049805
 20
50.48249816894531
 30
0.0
 11
29.590999603271484
 21
50.29199981689453
 31
0.0
  0
LINE
  5
192
  8
RHYTHM_CIRCUIT
 10
29.590999603271484
 20
50.29199981689453
 30
0.0
 11
36.89350128173828
 21
50.165000915527344
 31
0.0
  0
LINE
  5
193
  8
RHYTHM_CIRCUIT
 10
36.89350128173828
 20
50.165000915527344
 30
0.0
 11
36.131500244140625
 21
46.35499954223633
 31
0.0
  0
LINE
  5
194
  8
RHYTHM_CIRCUIT
 10
36.131500244140625
 20
46.35499954223633
 30
0.0
 11
35.941001892089844
 21
42.227500915527344
 31
0.0
  0
LINE
  5
195
  8
RHYTHM_CIRCUIT
 10
35.941001892089844
 20
42.227500915527344
 30
0.0
 11
36.44900131225586
 21
37.782501220703125
 31
0.0
  0
LINE
  5
196
  8
RHYTHM_CIRCUIT
 10
36.44900131225586
 20
37.782501220703125
 30
0.0
 11
37.59199905395508
 21
33.97249984741211
 31
0.0
  0
LINE
  5
197
  8
RHYTHM_CIRCUIT
 10
37.59199905395508
 20
33.97249984741211
 30
0.0
 11
38.925498962402344
 21
31.178499221801758
 31
0.0
  0
LINE
  5
198
  8
RHYTHM_CIRCUIT
 10
38.925498962402344
 20
31.178499221801758
 30
0.0
 11
42.73550033569336
 21
25.463499069213867
 31
0.0
  0
LINE
  5
199
  8
RHYTHM_CIRCUIT
 10
42.73550033569336
 20
25.463499069213867
 30
0.0
 11
45.14849853515625
 21
22.860000610351562
 31
0.0
  0
LINE
  5
19A
  8
RHYTHM_CIRCUIT
 10
45.14849853515625
 20
22.860000610351562
 30
0.0
 11
47.561500549316406
 21
20.827999114990234
 31
0.0
  0
LINE
  5
19B
  8
RHYTHM_CIRCUIT
 10
47.561500549316406
 20
20.827999114990234
 30
0.0
 11
51.68899917602539
 21
18.478500366210938
 31
0.0
  0
LINE
  5
19C
  8
RHYTHM_CIRCUIT
 10
51.68899917602539
 20
18.478500366210938
 30
0.0
 11
55.81650161743164
 21
17.081499099731445
 31
0.0
  0
LINE
  5
19D
  8
RHYTHM_CIRCUIT
 10
55.81650161743164
 20
17.081499099731445
 30
0.0
 11
60.515499114990234
 21
15.93850040435791
 31
0.0
  0
LINE
  5
19E
  8
RHYTHM_CIRCUIT
 10
60.515499114990234
 20
15.93850040435791
 30
0.0
 11
66.802001953125
 21
15.049500465393066
 31
0.0
  0
LINE
  5
19F
  8
RHYTHM_CIRCUIT
 10
66.802001953125
 20
15.049500465393066
 30
0.0
 11
81.0895004272461
 21
15.049500465393066
 31
0.0
  0
LINE
  5
1A0
  8
RHYTHM_CIRCUIT
 10
81.0895004272461
 20
15.049500465393066
 30
0.0
 11
89.15399932861328
 21
16.382999420166016
 31
0.0
  0
LINE
  5
1A1
  8
RHYTHM_CIRCUIT
 10
89.15399932861328
 20
16.382999420166016
 30
0.0
 11
94.48799896240234
 21
17.780000686645508
 31
0.0
  0
LINE
  5
1A2
  8
RHYTHM_CIRCUIT
 10
94.48799896240234
 20
17.780000686645508
 30
0.0
 11
98.36150360107422
 21
19.49449920654297
 31
0.0
  0
LINE
  5
1A3
  8
RHYTHM_CIRCUIT
 10
98.36150360107422
 20
19.49449920654297
 30
0.0
 11
101.98100280761719
 21
22.161500930786133
 31
0.0
  0
LINE
  5
1A4
  8
RHYTHM_CIRCUIT
 10
101.98100280761719
 20
22.161500930786133
 30
0.0
 11
104.07649993896484
 21
24.193500518798828
 31
0.0
  0
LINE
  5
1A5
  8
RHYTHM_CIRCUIT
 10
104.07649993896484
 20
24.193500518798828
 30
0.0
 11
106.2354965209961
 21
26.923999786376953
 31
0.0
  0
LINE
  5
1A6
  8
RHYTHM_CIRCUIT
 10
106.2354965209961
 20
26.923999786376953
 30
0.0
 11
110.10900115966797
 21
33.464500427246094
 31
0.0
  0
LINE
  5
1A7
  8
RHYTHM_CIRCUIT
 10
110.10900115966797
 20
33.464500427246094
 30
0.0
 11
111.44249725341797
 21
37.782501220703125
 31
0.0
  0
LINE
  5
1A8
  8
RHYTHM_CIRCUIT
 10
111.44249725341797
 20
37.782501220703125
 30
0.0
 11
111.95050048828125
 21
42.54499816894531
 31
0.0
  0
LINE
  5
1A9
  8
RHYTHM_CIRCUIT
 10
111.95050048828125
 20
42.54499816894531
 30
0.0
 11
111.63300323486328
 21
46.736000061035156
 31
0.0
  0
LINE
  5
1AA
  8
RHYTHM_CIRCUIT
 10
111.63300323486328
 20
46.736000061035156
 30
0.0
 11
110.42649841308594
 21
51.30799865722656
 31
0.0
  0
LINE
  5
1AB
  8
RHYTHM_CIRCUIT
 10
110.42649841308594
 20
51.30799865722656
 30
0.0
 11
107.44200134277344
 21
57.9119987487793
 31
0.0
  0
LINE
  5
1AC
  8
RHYTHM_CIRCUIT
 10
107.44200134277344
 20
57.9119987487793
 30
0.0
 11
101.02850341796875
 21
69.65950012207031
 31
0.0
  0
LINE
  5
1AD
  8
RHYTHM_CIRCUIT
 10
101.02850341796875
 20
69.65950012207031
 30
0.0
 11
99.25050354003906
 21
73.91400146484375
 31
0.0
  0
LINE
  5
1AE
  8
RHYTHM_CIRCUIT
 10
99.25050354003906
 20
73.91400146484375
 30
0.0
 11
98.10749816894531
 21
78.16850280761719
 31
0.0
  0
LINE
  5
1AF
  8
RHYTHM_CIRCUIT
 10
98.10749816894531
 20
78.16850280761719
 30
0.0
 11
97.79000091552734
 21
81.78800201416016
 31
0.0
  0
LINE
  5
1B0
  8
RHYTHM_CIRCUIT
 10
97.79000091552734
 20
81.78800201416016
 30
0.0
 11
97.98049926757812
 21
84.64550018310547
 31
0.0
  0
LINE
  5
1B1
  8
RHYTHM_CIRCUIT
 10
97.98049926757812
 20
84.64550018310547
 30
0.0
 11
100.77449798583984
 21
96.07550048828125
 31
0.0
  0
LINE
  5
1B2
  8
RHYTHM_CIRCUIT
 10
100.77449798583984
 20
96.07550048828125
 30
0.0
 11
101.28250122070312
 21
100.52050018310547
 31
0.0
  0
LINE
  5
1B3
  8
RHYTHM_CIRCUIT
 10
101.28250122070312
 20
100.52050018310547
 30
0.0
 11
100.90149688720703
 21
104.07649993896484
 31
0.0
  0
LINE
  5
1B4
  8
RHYTHM_CIRCUIT
 10
100.90149688720703
 20
104.07649993896484
 30
0.0
 11
99.9489974975586
 21
107.50550079345703
 31
0.0
  0
LINE
  5
1B5
  8
RHYTHM_CIRCUIT
 10
99.9489974975586
 20
107.50550079345703
 30
0.0
 11
97.98049926757812
 21
111.63300323486328
 31
0.0
  0
LINE
  5
1B6
  8
RHYTHM_CIRCUIT
 10
97.98049926757812
 20
111.63300323486328
 30
0.0
 11
96.77400207519531
 21
113.47450256347656
 31
0.0
  0
LINE
  5
1B7
  8
RHYTHM_CIRCUIT
 10
96.77400207519531
 20
113.47450256347656
 30
0.0
 11
93.5989990234375
 21
117.03050231933594
 31
0.0
  0
LINE
  5
1B8
  8
RHYTHM_CIRCUIT
 10
93.5989990234375
 20
117.03050231933594
 30
0.0
 11
91.947998046875
 21
118.30049896240234
 31
0.0
  0
LINE
  5
1B9
  8
RHYTHM_CIRCUIT
 10
91.947998046875
 20
118.30049896240234
 30
0.0
 11
87.62999725341797
 21
120.3324966430664
 31
0.0
  0
LINE
  5
1BA
  8
RHYTHM_CIRCUIT
 10
87.62999725341797
 20
120.3324966430664
 30
0.0
 11
81.0895004272461
 21
121.41200256347656
 31
0.0
  0
LINE
  5
1BB
  8
RHYTHM_CIRCUIT
 10
81.0895004272461
 20
121.41200256347656
 30
0.0
 11
80.01000213623047
 21
222.1230010986328
 31
0.0
  0
LINE
  5
1BC
  8
RHYTHM_CIRCUIT
 10
80.01000213623047
 20
222.1230010986328
 30
0.0
 11
80.70850372314453
 21
224.28199768066406
 31
0.0
  0
LINE
  5
1BD
  8
RHYTHM_CIRCUIT
 10
80.70850372314453
 20
224.28199768066406
 30
0.0
 11
82.2959976196289
 21
226.63150024414062
 31
0.0
  0
LINE
  5
1BE
  8
RHYTHM_CIRCUIT
 10
82.2959976196289
 20
226.63150024414062
 30
0.0
 11
83.50250244140625
 21
257.4289855957031
 31
0.0
  0
LINE
  5
1BF
  8
RHYTHM_CIRCUIT
 10
83.50250244140625
 20
257.4289855957031
 30
0.0
 11
81.85150146484375
 21
257.4289855957031
 31
0.0
  0
LINE
  5
1C0
  8
RHYTHM_CIRCUIT
 10
81.85150146484375
 20
257.4289855957031
 30
0.0
 11
79.05750274658203
 21
258.1910095214844
 31
0.0
  0
LINE
  5
1C1
  8
RHYTHM_CIRCUIT
 10
79.05750274658203
 20
258.1910095214844
 30
0.0
 11
76.58100128173828
 21
260.2229919433594
 31
0.0
  0
LINE
  5
1C2
  8
RHYTHM_CIRCUIT
 10
76.58100128173828
 20
260.2229919433594
 30
0.0
 11
75.18399810791016
 21
262.6994934082031
 31
0.0
  0
LINE
  5
1C3
  8
RHYTHM_CIRCUIT
 10
75.18399810791016
 20
262.6994934082031
 30
0.0
 11
72.7074966430664
 21
262.6994934082031
 31
0.0
  0
LINE
  5
1C4
  8
NECK_POCKET
 10
97.79000091552734
 20
84.96299743652344
 30
0.0
 11
97.91699981689453
 21
78.86699676513672
 31
0.0
  0
LINE
  5
1C5
  8
NECK_POCKET
 10
97.91699981689453
 20
78.86699676513672
 30
0.0
 11
99.18699645996094
 21
73.78700256347656
 31
0.0
  0
LINE
  5
1C6
  8
NECK_POCKET
 10
99.18699645996094
 20
73.78700256347656
 30
0.0
 11
100.96499633789062
 21
69.53250122070312
 31
0.0
  0
LINE
  5
1C7
  8
NECK_POCKET
 10
100.96499633789062
 20
69.53250122070312
 30
0.0
 11
109.4104995727539
 21
53.53049850463867
 31
0.0
  0
LINE
  5
1C8
  8
NECK_POCKET
 10
109.4104995727539
 20
53.53049850463867
 30
0.0
 11
110.80750274658203
 21
49.72050094604492
 31
0.0
  0
LINE
  5
1C9
  8
NECK_POCKET
 10
110.80750274658203
 20
49.72050094604492
 30
0.0
 11
111.56950378417969
 21
46.35499954223633
 31
0.0
  0
LINE
  5
1CA
  8
NECK_POCKET
 10
111.56950378417969
 20
46.35499954223633
 30
0.0
 11
111.82350158691406
 21
41.846500396728516
 31
0.0
  0
LINE
  5
1CB
  8
NECK_POCKET
 10
111.82350158691406
 20
41.846500396728516
 30
0.0
 11
110.80750274658203
 21
35.7504997253418
 31
0.0
  0
LINE
  5
1CC
  8
NECK_POCKET
 10
110.80750274658203
 20
35.7504997253418
 30
0.0
 11
108.90249633789062
 21
31.305500030517578
 31
0.0
  0
LINE
  5
1CD
  8
NECK_POCKET
 10
108.90249633789062
 20
31.305500030517578
 30
0.0
 11
105.15599822998047
 21
25.65399932861328
 31
0.0
  0
LINE
  5
1CE
  8
NECK_POCKET
 10
105.15599822998047
 20
25.65399932861328
 30
0.0
 11
103.50499725341797
 21
23.749000549316406
 31
0.0
  0
LINE
  5
1CF
  8
NECK_POCKET
 10
103.50499725341797
 20
23.749000549316406
 30
0.0
 11
100.39350128173828
 21
21.01849937438965
 31
0.0
  0
LINE
  5
1D0
  8
NECK_POCKET
 10
100.39350128173828
 20
21.01849937438965
 30
0.0
 11
96.32949829101562
 21
18.605499267578125
 31
0.0
  0
LINE
  5
1D1
  8
NECK_POCKET
 10
96.32949829101562
 20
18.605499267578125
 30
0.0
 11
92.0114974975586
 21
17.081499099731445
 31
0.0
  0
LINE
  5
1D2
  8
NECK_POCKET
 10
92.0114974975586
 20
17.081499099731445
 30
0.0
 11
82.93099975585938
 21
15.303500175476074
 31
0.0
  0
LINE
  5
1D3
  8
NECK_POCKET
 10
82.93099975585938
 20
15.303500175476074
 30
0.0
 11
64.51599884033203
 21
15.366999626159668
 31
0.0
  0
LINE
  5
1D4
  8
NECK_POCKET
 10
64.51599884033203
 20
15.366999626159668
 30
0.0
 11
60.38850021362305
 21
16.065500259399414
 31
0.0
  0
LINE
  5
1D5
  8
NECK_POCKET
 10
60.38850021362305
 20
16.065500259399414
 30
0.0
 11
54.35599899291992
 21
17.652999877929688
 31
0.0
  0
LINE
  5
1D6
  8
NECK_POCKET
 10
54.35599899291992
 20
17.652999877929688
 30
0.0
 11
51.816001892089844
 21
18.54199981689453
 31
0.0
  0
LINE
  5
1D7
  8
NECK_POCKET
 10
51.816001892089844
 20
18.54199981689453
 30
0.0
 11
47.49800109863281
 21
21.01849937438965
 31
0.0
  0
LINE
  5
1D8
  8
NECK_POCKET
 10
47.49800109863281
 20
21.01849937438965
 30
0.0
 11
44.259498596191406
 21
23.875999450683594
 31
0.0
  0
LINE
  5
1D9
  8
NECK_POCKET
 10
44.259498596191406
 20
23.875999450683594
 30
0.0
 11
42.35449981689453
 21
26.16200065612793
 31
0.0
  0
LINE
  5
1DA
  8
NECK_POCKET
 10
42.35449981689453
 20
26.16200065612793
 30
0.0
 11
38.98899841308594
 21
31.305500030517578
 31
0.0
  0
LINE
  5
1DB
  8
NECK_POCKET
 10
38.98899841308594
 20
31.305500030517578
 30
0.0
 11
37.3380012512207
 21
34.98849868774414
 31
0.0
  0
LINE
  5
1DC
  8
NECK_POCKET
 10
37.3380012512207
 20
34.98849868774414
 30
0.0
 11
36.51250076293945
 21
38.0364990234375
 31
0.0
  0
LINE
  5
1DD
  8
NECK_POCKET
 10
36.51250076293945
 20
38.0364990234375
 30
0.0
 11
36.06800079345703
 21
41.846500396728516
 31
0.0
  0
LINE
  5
1DE
  8
NECK_POCKET
 10
36.06800079345703
 20
41.846500396728516
 30
0.0
 11
36.25849914550781
 21
46.545501708984375
 31
0.0
  0
LINE
  5
1DF
  8
NECK_POCKET
 10
36.25849914550781
 20
46.545501708984375
 30
0.0
 11
37.27450180053711
 21
50.165000915527344
 31
0.0
  0
LINE
  5
1E0
  8
NECK_POCKET
 10
37.27450180053711
 20
50.165000915527344
 30
0.0
 11
54.03850173950195
 21
50.22850036621094
 31
0.0
  0
LINE
  5
1E1
  8
NECK_POCKET
 10
54.03850173950195
 20
50.22850036621094
 30
0.0
 11
54.16550064086914
 21
45.52949905395508
 31
0.0
  0
LINE
  5
1E2
  8
NECK_POCKET
 10
54.16550064086914
 20
45.52949905395508
 30
0.0
 11
93.72599792480469
 21
45.52949905395508
 31
0.0
  0
LINE
  5
1E3
  8
NECK_POCKET
 10
93.72599792480469
 20
45.52949905395508
 30
0.0
 11
93.6624984741211
 21
51.30799865722656
 31
0.0
  0
LINE
  5
1E4
  8
NECK_POCKET
 10
93.6624984741211
 20
51.30799865722656
 30
0.0
 11
79.94650268554688
 21
51.371498107910156
 31
0.0
  0
LINE
  5
1E5
  8
NECK_POCKET
 10
79.94650268554688
 20
51.371498107910156
 30
0.0
 11
79.69249725341797
 21
74.99349975585938
 31
0.0
  0
LINE
  5
1E6
  8
NECK_POCKET
 10
79.69249725341797
 20
74.99349975585938
 30
0.0
 11
81.34349822998047
 21
76.072998046875
 31
0.0
  0
LINE
  5
1E7
  8
NECK_POCKET
 10
81.34349822998047
 20
76.072998046875
 30
0.0
 11
84.0739974975586
 21
79.3115005493164
 31
0.0
  0
LINE
  5
1E8
  8
NECK_POCKET
 10
84.0739974975586
 20
79.3115005493164
 30
0.0
 11
85.02649688720703
 21
81.59750366210938
 31
0.0
  0
LINE
  5
1E9
  8
NECK_POCKET
 10
85.02649688720703
 20
81.59750366210938
 30
0.0
 11
85.5979995727539
 21
84.96299743652344
 31
0.0
  0
LINE
  5
1EA
  8
NECK_POCKET
 10
85.5979995727539
 20
84.96299743652344
 30
0.0
 11
97.79000091552734
 21
84.96299743652344
 31
0.0
  0
LINE
  5
1EB
  8
JACK_ROUTE
 10
50.10150146484375
 20
84.96299743652344
 30
0.0
 11
62.356998443603516
 21
84.96299743652344
 31
0.0
  0
LINE
  5
1EC
  8
JACK_ROUTE
 10
62.356998443603516
 20
84.96299743652344
 30
0.0
 11
63.05550003051758
 21
81.21649932861328
 31
0.0
  0
LINE
  5
1ED
  8
JACK_ROUTE
 10
63.05550003051758
 20
81.21649932861328
 30
0.0
 11
63.94449996948242
 21
79.24800109863281
 31
0.0
  0
LINE
  5
1EE
  8
JACK_ROUTE
 10
63.94449996948242
 20
79.24800109863281
 30
0.0
 11
66.5479965209961
 21
76.1364974975586
 31
0.0
  0
LINE
  5
1EF
  8
JACK_ROUTE
 10
66.5479965209961
 20
76.1364974975586
 30
0.0
 11
68.1989974975586
 21
75.05699920654297
 31
0.0
  0
LINE
  5
1F0
  8
JACK_ROUTE
 10
68.1989974975586
 20
75.05699920654297
 30
0.0
 11
67.88150024414062
 21
51.30799865722656
 31
0.0
  0
LINE
  5
1F1
  8
JACK_ROUTE
 10
67.88150024414062
 20
51.30799865722656
 30
0.0
 11
54.229000091552734
 21
51.30799865722656
 31
0.0
  0
LINE
  5
1F2
  8
JACK_ROUTE
 10
54.229000091552734
 20
51.30799865722656
 30
0.0
 11
54.03850173950195
 21
50.41899871826172
 31
0.0
  0
LINE
  5
1F3
  8
JACK_ROUTE
 10
54.03850173950195
 20
50.41899871826172
 30
0.0
 11
37.65549850463867
 21
50.48249816894531
 31
0.0
  0
LINE
  5
1F4
  8
JACK_ROUTE
 10
37.65549850463867
 20
50.48249816894531
 30
0.0
 11
38.48099899291992
 21
53.53049850463867
 31
0.0
  0
LINE
  5
1F5
  8
JACK_ROUTE
 10
38.48099899291992
 20
53.53049850463867
 30
0.0
 11
46.92649841308594
 21
69.53250122070312
 31
0.0
  0
LINE
  5
1F6
  8
JACK_ROUTE
 10
46.92649841308594
 20
69.53250122070312
 30
0.0
 11
49.08549880981445
 21
75.05699920654297
 31
0.0
  0
LINE
  5
1F7
  8
JACK_ROUTE
 10
49.08549880981445
 20
75.05699920654297
 30
0.0
 11
50.10150146484375
 21
80.07350158691406
 31
0.0
  0
LINE
  5
1F8
  8
JACK_ROUTE
 10
50.10150146484375
 20
80.07350158691406
 30
0.0
 11
50.10150146484375
 21
84.96299743652344
 31
0.0
  0
LINE
  5
1F9
  8
JACK_ROUTE
 10
79.24800109863281
 20
121.22149658203125
 30
0.0
 11
85.53450012207031
 21
120.7770004272461
 31
0.0
  0
LINE
  5
1FA
  8
JACK_ROUTE
 10
85.53450012207031
 20
120.7770004272461
 30
0.0
 11
90.16999816894531
 21
119.18949890136719
 31
0.0
  0
LINE
  5
1FB
  8
JACK_ROUTE
 10
90.16999816894531
 20
119.18949890136719
 30
0.0
 11
93.6624984741211
 21
116.83999633789062
 31
0.0
  0
LINE
  5
1FC
  8
JACK_ROUTE
 10
93.6624984741211
 20
116.83999633789062
 30
0.0
 11
95.37699890136719
 21
115.12550354003906
 31
0.0
  0
LINE
  5
1FD
  8
JACK_ROUTE
 10
95.37699890136719
 20
115.12550354003906
 30
0.0
 11
97.91699981689453
 21
111.50599670410156
 31
0.0
  0
LINE
  5
1FE
  8
JACK_ROUTE
 10
97.91699981689453
 20
111.50599670410156
 30
0.0
 11
100.07599639892578
 21
106.80699920654297
 31
0.0
  0
LINE
  5
1FF
  8
JACK_ROUTE
 10
100.07599639892578
 20
106.80699920654297
 30
0.0
 11
100.96499633789062
 21
103.1875
 31
0.0
  0
LINE
  5
200
  8
JACK_ROUTE
 10
100.96499633789062
 20
103.1875
 30
0.0
 11
101.15550231933594
 21
101.09200286865234
 31
0.0
  0
LINE
  5
201
  8
JACK_ROUTE
 10
101.15550231933594
 20
101.09200286865234
 30
0.0
 11
100.64749908447266
 21
96.01200103759766
 31
0.0
  0
LINE
  5
202
  8
JACK_ROUTE
 10
100.64749908447266
 20
96.01200103759766
 30
0.0
 11
97.91699981689453
 21
85.15350341796875
 31
0.0
  0
LINE
  5
203
  8
JACK_ROUTE
 10
97.91699981689453
 20
85.15350341796875
 30
0.0
 11
94.42449951171875
 21
85.15350341796875
 31
0.0
  0
LINE
  5
204
  8
JACK_ROUTE
 10
94.42449951171875
 20
85.15350341796875
 30
0.0
 11
94.23400115966797
 21
86.10600280761719
 31
0.0
  0
LINE
  5
205
  8
JACK_ROUTE
 10
94.23400115966797
 20
86.10600280761719
 30
0.0
 11
94.04350280761719
 21
85.15350341796875
 31
0.0
  0
LINE
  5
206
  8
JACK_ROUTE
 10
94.04350280761719
 20
85.15350341796875
 30
0.0
 11
91.18599700927734
 21
85.15350341796875
 31
0.0
  0
LINE
  5
207
  8
JACK_ROUTE
 10
91.18599700927734
 20
85.15350341796875
 30
0.0
 11
91.05899810791016
 21
85.6614990234375
 31
0.0
  0
LINE
  5
208
  8
JACK_ROUTE
 10
91.05899810791016
 20
85.6614990234375
 30
0.0
 11
90.80500030517578
 21
85.15350341796875
 31
0.0
  0
LINE
  5
209
  8
JACK_ROUTE
 10
90.80500030517578
 20
85.15350341796875
 30
0.0
 11
83.62950134277344
 21
85.15350341796875
 31
0.0
  0
LINE
  5
20A
  8
JACK_ROUTE
 10
83.62950134277344
 20
85.15350341796875
 30
0.0
 11
83.05799865722656
 21
88.32849884033203
 31
0.0
  0
LINE
  5
20B
  8
JACK_ROUTE
 10
83.05799865722656
 20
88.32849884033203
 30
0.0
 11
81.40699768066406
 21
91.31300354003906
 31
0.0
  0
LINE
  5
20C
  8
JACK_ROUTE
 10
81.40699768066406
 20
91.31300354003906
 30
0.0
 11
79.50199890136719
 21
92.96399688720703
 31
0.0
  0
LINE
  5
20D
  8
JACK_ROUTE
 10
79.50199890136719
 20
92.96399688720703
 30
0.0
 11
79.24800109863281
 21
115.8239974975586
 31
0.0
  0
LINE
  5
20E
  8
JACK_ROUTE
 10
79.24800109863281
 20
115.8239974975586
 30
0.0
 11
79.75599670410156
 21
116.0145034790039
 31
0.0
  0
LINE
  5
20F
  8
JACK_ROUTE
 10
79.75599670410156
 20
116.0145034790039
 30
0.0
 11
79.24800109863281
 21
116.1415023803711
 31
0.0
  0
LINE
  5
210
  8
JACK_ROUTE
 10
79.24800109863281
 20
116.1415023803711
 30
0.0
 11
79.18450164794922
 21
116.77649688720703
 31
0.0
  0
LINE
  5
211
  8
JACK_ROUTE
 10
79.18450164794922
 20
116.77649688720703
 30
0.0
 11
79.24800109863281
 21
121.22149658203125
 31
0.0
  0
ENDSEC
  0
EOF
