  0
SECTION
  2
HEADER
  9
$ACADVER
  1
AC1009
  9
$DWGCODEPAGE
  3
ANSI_1252
  9
$INSBASE
 10
0.0
 20
0.0
 30
0.0
  9
$EXTMIN
 10
1e+20
 20
1e+20
 30
1e+20
  9
$EXTMAX
 10
-1e+20
 20
-1e+20
 30
-1e+20
  9
$LIMMIN
 10
0.0
 20
0.0
  9
$LIMMAX
 10
420.0
 20
297.0
  9
$ORTHOMODE
 70
0
  9
$REGENMODE
 70
1
  9
$FILLMODE
 70
1
  9
$DRAGMODE
 70
2
  9
$QTEXTMODE
 70
0
  9
$MIRRTEXT
 70
1
  9
$OSMODE
 70
20583
  9
$LTSCALE
 40
1.0
  9
$ATTMODE
 70
1
  9
$TEXTSIZE
 40
2.5
  9
$TRACEWID
 40
1.0
  9
$TEXTSTYLE
  7
Standard
  9
$CLAYER
  8
0
  9
$CELTYPE
  6
ByLayer
  9
$CECOLOR
 62
256
  9
$DIMSCALE
 40
1.0
  9
$DIMASZ
 40
2.5
  9
$DIMEXO
 40
0.625
  9
$DIMDLI
 40
3.75
  9
$DIMRND
 40
0.0
  9
$DIMDLE
 40
0.0
  9
$DIMEXE
 40
1.25
  9
$DIMTP
 40
0.0
  9
$DIMTM
 40
0.0
  9
$DIMTXT
 40
2.5
  9
$DIMCEN
 40
2.5
  9
$DIMTSZ
 40
0.0
  9
$DIMTOL
 70
0
  9
$DIMLIM
 70
0
  9
$DIMTIH
 70
0
  9
$DIMTOH
 70
0
  9
$DIMSE1
 70
0
  9
$DIMSE2
 70
0
  9
$DIMTAD
 70
1
  9
$DIMZIN
 70
8
  9
$DIMBLK
  1

  9
$DIMASO
 70
1
  9
$DIMSHO
 70
1
  9
$DIMPOST
  1

  9
$DIMAPOST
  1

  9
$DIMALT
 70
0
  9
$DIMALTD
 70
3
  9
$DIMALTF
 40
0.03937007874
  9
$DIMLFAC
 40
1.0
  9
$DIMTOFL
 70
1
  9
$DIMTVP
 40
0.0
  9
$DIMTIX
 70
0
  9
$DIMSOXD
 70
0
  9
$DIMSAH
 70
0
  9
$DIMBLK1
  1

  9
$DIMBLK2
  1

  9
$DIMSTYLE
  2
ISO-25
  9
$DIMCLRD
 70
0
  9
$DIMCLRE
 70
0
  9
$DIMCLRT
 70
0
  9
$DIMTFAC
 40
1.0
  9
$DIMGAP
 40
0.625
  9
$COORDS
 70
1
  9
$ATTDIA
 70
0
  9
$ATTREQ
 70
1
  9
$HANDLING
 70
1
  9
$LUNITS
 70
2
  9
$LUPREC
 70
4
  9
$SKETCHINC
 40
1.0
  9
$FILLETRAD
 40
10.0
  9
$AUNITS
 70
0
  9
$AUPREC
 70
2
  9
$MENU
  1
.
  9
$ELEVATION
 40
0.0
  9
$PELEVATION
 40
0.0
  9
$THICKNESS
 40
0.0
  9
$LIMCHECK
 70
0
  9
$CHAMFERA
 40
0.0
  9
$CHAMFERB
 40
0.0
  9
$SKPOLY
 70
0
  9
$TDCREATE
 40
2461104.9008333334
  9
$TDUPDATE
 40
2461104.9008333334
  9
$TDINDWG
 40
0.0
  9
$TDUSRTIMER
 40
0.0
  9
$USRTIMER
 70
1
  9
$ANGBASE
 50
0.0
  9
$ANGDIR
 70
0
  9
$PDMODE
 70
0
  9
$PDSIZE
 40
0.0
  9
$PLINEWID
 40
0.0
  9
$SPLFRAME
 70
0
  9
$SPLINETYPE
 70
6
  9
$SPLINESEGS
 70
8
  9
$HANDSEED
  5
297
  9
$SURFTAB1
 70
6
  9
$SURFTAB2
 70
6
  9
$SURFTYPE
 70
6
  9
$SURFU
 70
6
  9
$SURFV
 70
6
  9
$UCSNAME
  2

  9
$UCSORG
 10
0.0
 20
0.0
 30
0.0
  9
$UCSXDIR
 10
1.0
 20
0.0
 30
0.0
  9
$UCSYDIR
 10
0.0
 20
1.0
 30
0.0
  9
$PUCSNAME
  2

  9
$PUCSORG
 10
0.0
 20
0.0
 30
0.0
  9
$PUCSXDIR
 10
1.0
 20
0.0
 30
0.0
  9
$PUCSYDIR
 10
0.0
 20
1.0
 30
0.0
  9
$USERI1
 70
0
  9
$USERI2
 70
0
  9
$USERI3
 70
0
  9
$USERI4
 70
0
  9
$USERI5
 70
0
  9
$USERR1
 40
0.0
  9
$USERR2
 40
0.0
  9
$USERR3
 40
0.0
  9
$USERR4
 40
0.0
  9
$USERR5
 40
0.0
  9
$WORLDVIEW
 70
1
  9
$SHADEDGE
 70
3
  9
$SHADEDIF
 70
70
  9
$TILEMODE
 70
1
  9
$MAXACTVP
 70
64
  9
$PLIMCHECK
 70
0
  9
$PEXTMIN
 10
1e+20
 20
1e+20
 30
1e+20
  9
$PEXTMAX
 10
-1e+20
 20
-1e+20
 30
-1e+20
  9
$PLIMMIN
 10
0.0
 20
0.0
  9
$PLIMMAX
 10
420.0
 20
297.0
  9
$UNITMODE
 70
0
  9
$VISRETAIN
 70
1
  9
$PLINEGEN
 70
0
  9
$PSLTSCALE
 70
1
  0
ENDSEC
  0
SECTION
  2
TABLES
  0
TABLE
  2
VPORT
 70
1
  0
VPORT
  5
23
  2
*Active
 70
0
 10
0.0
 20
0.0
 11
1.0
 21
1.0
 12
0.0
 22
0.0
 13
0.0
 23
0.0
 14
0.5
 24
0.5
 15
0.5
 25
0.5
 16
0.0
 26
0.0
 36
1.0
 17
0.0
 27
0.0
 37
0.0
 40
1000.0
 41
1.34
 42
50.0
 43
0.0
 44
0.0
 50
0.0
 51
0.0
 71
0
 72
1000
 73
1
 74
3
 75
0
 76
0
 77
0
 78
0
  0
ENDTAB
  0
TABLE
  2
LTYPE
 70
3
  0
LTYPE
  5
24
  2
ByBlock
 70
0
  3

 72
65
 73
0
 40
0.0
  0
LTYPE
  5
25
  2
ByLayer
 70
0
  3

 72
65
 73
0
 40
0.0
  0
LTYPE
  5
26
  2
Continuous
 70
0
  3

 72
65
 73
0
 40
0.0
  0
ENDTAB
  0
TABLE
  2
LAYER
 70
2
  0
LAYER
  5
27
  2
0
 70
0
 62
7
  6
Continuous
  0
LAYER
  5
28
  2
Defpoints
 70
0
 62
7
  6
Continuous
  0
ENDTAB
  0
TABLE
  2
STYLE
 70
1
  0
STYLE
  5
29
  2
Standard
 70
0
 40
0.0
 41
1.0
 50
0.0
 71
0
 42
2.5
  3
txt
  4

  0
ENDTAB
  0
TABLE
  2
VIEW
 70
0
  0
ENDTAB
  0
TABLE
  2
UCS
 70
0
  0
ENDTAB
  0
TABLE
  2
APPID
 70
3
  0
APPID
  5
2A
  2
ACAD
 70
0
  0
APPID
  5
295
  2
HATCHBACKGROUNDCOLOR
 70
0
  0
APPID
  5
296
  2
EZDXF
 70
0
  0
ENDTAB
  0
TABLE
  2
DIMSTYLE
 70
1
  0
DIMSTYLE
105
2B
  2
Standard
 70
0
  3

  4

  5

  6

  7

 40
1.0
 41
2.5
 42
0.625
 43
3.75
 44
1.25
 45
0.0
 46
0.0
 47
0.0
 48
0.0
140
2.5
141
2.5
142
0.0
143
0.03937007874
144
1.0
145
0.0
146
1.0
147
0.625
 71
0
 72
0
 73
0
 74
0
 75
0
 76
0
 77
1
 78
8
170
0
171
3
172
1
173
0
174
0
175
0
176
0
177
0
178
0
  0
ENDTAB
  0
ENDSEC
  0
SECTION
  2
BLOCKS
  0
BLOCK
  5
18
  8
0
  2
$Model_Space
 70
0
 10
0.0
 20
0.0
 30
0.0
  3
$Model_Space
  1

1001
EZDXF
1000
CREATED_BY_EZDXF
1000
1.4.3 @ 2026-03-05T03:37:12.329089+00:00
1000
WRITTEN_BY_EZDXF
1000
1.4.3 @ 2026-03-05T03:37:12.795079+00:00
  0
ENDBLK
  5
19
  8
0
  0
BLOCK
  5
1C
  8
0
  2
$Paper_Space
 70
0
 10
0.0
 20
0.0
 30
0.0
  3
$Paper_Space
  1

  0
ENDBLK
  5
1D
  8
0
  0
ENDSEC
  0
SECTION
  2
ENTITIES
  0
LINE
  5
2D
  8
PICKGUARD
 10
11.239500045776367
 20
276.35198974609375
 30
0.0
 11
11.175999641418457
 21
6.286499977111816
 31
0.0
  0
LINE
  5
2E
  8
PICKGUARD
 10
11.175999641418457
 20
6.286499977111816
 30
0.0
 11
201.4219970703125
 21
6.2230000495910645
 31
0.0
  0
LINE
  5
2F
  8
PICKGUARD
 10
201.4219970703125
 20
6.2230000495910645
 30
0.0
 11
201.48550415039062
 21
276.2250061035156
 31
0.0
  0
LINE
  5
30
  8
PICKGUARD
 10
201.48550415039062
 20
276.2250061035156
 30
0.0
 11
11.239500045776367
 21
276.35198974609375
 31
0.0
  0
LINE
  5
31
  8
PICKGUARD
 10
11.493499755859375
 20
276.1614990234375
 30
0.0
 11
201.2949981689453
 21
276.03448486328125
 31
0.0
  0
LINE
  5
32
  8
PICKGUARD
 10
201.2949981689453
 20
276.03448486328125
 30
0.0
 11
201.23150634765625
 21
6.41349983215332
 31
0.0
  0
LINE
  5
33
  8
PICKGUARD
 10
201.23150634765625
 20
6.41349983215332
 30
0.0
 11
11.366499900817871
 21
6.4770002365112305
 31
0.0
  0
LINE
  5
34
  8
PICKGUARD
 10
11.366499900817871
 20
6.4770002365112305
 30
0.0
 11
11.493499755859375
 21
276.1614990234375
 31
0.0
  0
LINE
  5
35
  8
SMALL_FEATURE
 10
161.79800415039062
 20
236.156494140625
 30
0.0
 11
158.17849731445312
 21
234.88650512695312
 31
0.0
  0
LINE
  5
36
  8
SMALL_FEATURE
 10
158.17849731445312
 20
234.88650512695312
 30
0.0
 11
155.51150512695312
 21
232.66400146484375
 31
0.0
  0
LINE
  5
37
  8
SMALL_FEATURE
 10
155.51150512695312
 20
232.66400146484375
 30
0.0
 11
154.17799377441406
 21
230.3144989013672
 31
0.0
  0
LINE
  5
38
  8
SMALL_FEATURE
 10
154.17799377441406
 20
230.3144989013672
 30
0.0
 11
153.60650634765625
 21
228.28250122070312
 31
0.0
  0
LINE
  5
39
  8
SMALL_FEATURE
 10
153.60650634765625
 20
228.28250122070312
 30
0.0
 11
153.60650634765625
 21
224.85350036621094
 31
0.0
  0
LINE
  5
3A
  8
SMALL_FEATURE
 10
153.60650634765625
 20
224.85350036621094
 30
0.0
 11
154.30499267578125
 21
222.63099670410156
 31
0.0
  0
LINE
  5
3B
  8
SMALL_FEATURE
 10
154.30499267578125
 20
222.63099670410156
 30
0.0
 11
155.3209991455078
 21
220.85299682617188
 31
0.0
  0
LINE
  5
3C
  8
SMALL_FEATURE
 10
155.3209991455078
 20
220.85299682617188
 30
0.0
 11
157.92449951171875
 21
218.44000244140625
 31
0.0
  0
LINE
  5
3D
  8
SMALL_FEATURE
 10
157.92449951171875
 20
218.44000244140625
 30
0.0
 11
161.41700744628906
 21
217.10650634765625
 31
0.0
  0
LINE
  5
3E
  8
SMALL_FEATURE
 10
161.41700744628906
 20
217.10650634765625
 30
0.0
 11
164.718994140625
 21
217.10650634765625
 31
0.0
  0
LINE
  5
3F
  8
SMALL_FEATURE
 10
164.718994140625
 20
217.10650634765625
 30
0.0
 11
168.08450317382812
 21
218.37649536132812
 31
0.0
  0
LINE
  5
40
  8
SMALL_FEATURE
 10
168.08450317382812
 20
218.37649536132812
 30
0.0
 11
171.25950622558594
 21
221.55149841308594
 31
0.0
  0
LINE
  5
41
  8
SMALL_FEATURE
 10
171.25950622558594
 20
221.55149841308594
 30
0.0
 11
172.5294952392578
 21
224.91700744628906
 31
0.0
  0
LINE
  5
42
  8
SMALL_FEATURE
 10
172.5294952392578
 20
224.91700744628906
 30
0.0
 11
172.5294952392578
 21
228.218994140625
 31
0.0
  0
LINE
  5
43
  8
SMALL_FEATURE
 10
172.5294952392578
 20
228.218994140625
 30
0.0
 11
171.38650512695312
 21
231.52099609375
 31
0.0
  0
LINE
  5
44
  8
SMALL_FEATURE
 10
171.38650512695312
 20
231.52099609375
 30
0.0
 11
169.2274932861328
 21
233.99749755859375
 31
0.0
  0
LINE
  5
45
  8
SMALL_FEATURE
 10
169.2274932861328
 20
233.99749755859375
 30
0.0
 11
167.57650756835938
 21
235.07699584960938
 31
0.0
  0
LINE
  5
46
  8
SMALL_FEATURE
 10
167.57650756835938
 20
235.07699584960938
 30
0.0
 11
164.8459930419922
 21
236.09300231933594
 31
0.0
  0
LINE
  5
47
  8
SMALL_FEATURE
 10
164.8459930419922
 20
236.09300231933594
 30
0.0
 11
161.79800415039062
 21
236.156494140625
 31
0.0
  0
LINE
  5
48
  8
SMALL_FEATURE
 10
161.35350036621094
 20
236.09300231933594
 30
0.0
 11
164.78250122070312
 21
236.09300231933594
 31
0.0
  0
LINE
  5
49
  8
SMALL_FEATURE
 10
164.78250122070312
 20
236.09300231933594
 30
0.0
 11
167.38600158691406
 21
235.1405029296875
 31
0.0
  0
LINE
  5
4A
  8
SMALL_FEATURE
 10
167.38600158691406
 20
235.1405029296875
 30
0.0
 11
169.10049438476562
 21
234.06100463867188
 31
0.0
  0
LINE
  5
4B
  8
SMALL_FEATURE
 10
169.10049438476562
 20
234.06100463867188
 30
0.0
 11
171.38650512695312
 21
231.45750427246094
 31
0.0
  0
LINE
  5
4C
  8
SMALL_FEATURE
 10
171.38650512695312
 20
231.45750427246094
 30
0.0
 11
172.5294952392578
 21
228.15550231933594
 31
0.0
  0
LINE
  5
4D
  8
SMALL_FEATURE
 10
172.5294952392578
 20
228.15550231933594
 30
0.0
 11
172.5294952392578
 21
225.04400634765625
 31
0.0
  0
LINE
  5
4E
  8
SMALL_FEATURE
 10
172.5294952392578
 20
225.04400634765625
 30
0.0
 11
171.322998046875
 21
221.67849731445312
 31
0.0
  0
LINE
  5
4F
  8
SMALL_FEATURE
 10
171.322998046875
 20
221.67849731445312
 30
0.0
 11
167.95750427246094
 21
218.31300354003906
 31
0.0
  0
LINE
  5
50
  8
SMALL_FEATURE
 10
167.95750427246094
 20
218.31300354003906
 30
0.0
 11
164.65550231933594
 21
217.10650634765625
 31
0.0
  0
LINE
  5
51
  8
SMALL_FEATURE
 10
164.65550231933594
 20
217.10650634765625
 30
0.0
 11
161.48049926757812
 21
217.10650634765625
 31
0.0
  0
LINE
  5
52
  8
SMALL_FEATURE
 10
161.48049926757812
 20
217.10650634765625
 30
0.0
 11
159.63900756835938
 21
217.614501953125
 31
0.0
  0
LINE
  5
53
  8
SMALL_FEATURE
 10
159.63900756835938
 20
217.614501953125
 30
0.0
 11
157.60699462890625
 21
218.69400024414062
 31
0.0
  0
LINE
  5
54
  8
SMALL_FEATURE
 10
157.60699462890625
 20
218.69400024414062
 30
0.0
 11
155.5749969482422
 21
220.53550720214844
 31
0.0
  0
LINE
  5
55
  8
SMALL_FEATURE
 10
155.5749969482422
 20
220.53550720214844
 30
0.0
 11
154.74949645996094
 21
221.74200439453125
 31
0.0
  0
LINE
  5
56
  8
SMALL_FEATURE
 10
154.74949645996094
 20
221.74200439453125
 30
0.0
 11
153.60650634765625
 21
224.91700744628906
 31
0.0
  0
LINE
  5
57
  8
SMALL_FEATURE
 10
153.60650634765625
 20
224.91700744628906
 30
0.0
 11
153.60650634765625
 21
228.28250122070312
 31
0.0
  0
LINE
  5
58
  8
SMALL_FEATURE
 10
153.60650634765625
 20
228.28250122070312
 30
0.0
 11
154.114501953125
 21
230.12399291992188
 31
0.0
  0
LINE
  5
59
  8
SMALL_FEATURE
 10
154.114501953125
 20
230.12399291992188
 30
0.0
 11
155.3209991455078
 21
232.34649658203125
 31
0.0
  0
LINE
  5
5A
  8
SMALL_FEATURE
 10
155.3209991455078
 20
232.34649658203125
 30
0.0
 11
156.84500122070312
 21
233.99749755859375
 31
0.0
  0
LINE
  5
5B
  8
SMALL_FEATURE
 10
156.84500122070312
 20
233.99749755859375
 30
0.0
 11
158.3054962158203
 21
234.9499969482422
 31
0.0
  0
LINE
  5
5C
  8
SMALL_FEATURE
 10
158.3054962158203
 20
234.9499969482422
 30
0.0
 11
161.35350036621094
 21
236.09300231933594
 31
0.0
  0
LINE
  5
5D
  8
SMALL_FEATURE
 10
188.02349853515625
 20
39.94150161743164
 30
0.0
 11
198.2469940185547
 21
39.81449890136719
 31
0.0
  0
LINE
  5
5E
  8
SMALL_FEATURE
 10
198.2469940185547
 20
39.81449890136719
 30
0.0
 11
198.2469940185547
 21
32.829498291015625
 31
0.0
  0
LINE
  5
5F
  8
SMALL_FEATURE
 10
198.2469940185547
 20
32.829498291015625
 30
0.0
 11
197.42149353027344
 21
32.76599884033203
 31
0.0
  0
LINE
  5
60
  8
SMALL_FEATURE
 10
197.42149353027344
 20
32.76599884033203
 30
0.0
 11
196.7864990234375
 21
31.940500259399414
 31
0.0
  0
LINE
  5
61
  8
SMALL_FEATURE
 10
196.7864990234375
 20
31.940500259399414
 30
0.0
 11
195.19900512695312
 21
27.241500854492188
 31
0.0
  0
LINE
  5
62
  8
SMALL_FEATURE
 10
195.19900512695312
 20
27.241500854492188
 30
0.0
 11
195.5800018310547
 21
26.86050033569336
 31
0.0
  0
LINE
  5
63
  8
SMALL_FEATURE
 10
195.5800018310547
 20
26.86050033569336
 30
0.0
 11
195.83399963378906
 21
29.273500442504883
 31
0.0
  0
LINE
  5
64
  8
SMALL_FEATURE
 10
195.83399963378906
 20
29.273500442504883
 30
0.0
 11
196.85000610351562
 21
31.75
 31
0.0
  0
LINE
  5
65
  8
SMALL_FEATURE
 10
196.85000610351562
 20
31.75
 30
0.0
 11
197.35800170898438
 21
32.44850158691406
 31
0.0
  0
LINE
  5
66
  8
SMALL_FEATURE
 10
197.35800170898438
 20
32.44850158691406
 30
0.0
 11
198.1199951171875
 21
32.44850158691406
 31
0.0
  0
LINE
  5
67
  8
SMALL_FEATURE
 10
198.1199951171875
 20
32.44850158691406
 30
0.0
 11
198.1199951171875
 21
24.764999389648438
 31
0.0
  0
LINE
  5
68
  8
SMALL_FEATURE
 10
198.1199951171875
 20
24.764999389648438
 30
0.0
 11
195.96099853515625
 21
24.764999389648438
 31
0.0
  0
LINE
  5
69
  8
SMALL_FEATURE
 10
195.96099853515625
 20
24.764999389648438
 30
0.0
 11
195.8975067138672
 21
25.527000427246094
 31
0.0
  0
LINE
  5
6A
  8
SMALL_FEATURE
 10
195.8975067138672
 20
25.527000427246094
 30
0.0
 11
195.2624969482422
 21
25.590499877929688
 31
0.0
  0
LINE
  5
6B
  8
SMALL_FEATURE
 10
195.2624969482422
 20
25.590499877929688
 30
0.0
 11
195.19900512695312
 21
25.908000946044922
 31
0.0
  0
LINE
  5
6C
  8
SMALL_FEATURE
 10
195.19900512695312
 20
25.908000946044922
 30
0.0
 11
195.0084991455078
 21
25.33650016784668
 31
0.0
  0
LINE
  5
6D
  8
SMALL_FEATURE
 10
195.0084991455078
 20
25.33650016784668
 30
0.0
 11
193.16700744628906
 21
25.527000427246094
 31
0.0
  0
LINE
  5
6E
  8
SMALL_FEATURE
 10
193.16700744628906
 20
25.527000427246094
 30
0.0
 11
193.10350036621094
 21
26.352500915527344
 31
0.0
  0
LINE
  5
6F
  8
SMALL_FEATURE
 10
193.10350036621094
 20
26.352500915527344
 30
0.0
 11
192.78599548339844
 21
25.33650016784668
 31
0.0
  0
LINE
  5
70
  8
SMALL_FEATURE
 10
192.78599548339844
 20
25.33650016784668
 30
0.0
 11
191.9604949951172
 21
25.399999618530273
 31
0.0
  0
LINE
  5
71
  8
SMALL_FEATURE
 10
191.9604949951172
 20
25.399999618530273
 30
0.0
 11
191.89700317382812
 21
26.73349952697754
 31
0.0
  0
LINE
  5
72
  8
SMALL_FEATURE
 10
191.89700317382812
 20
26.73349952697754
 30
0.0
 11
192.21449279785156
 21
27.241500854492188
 31
0.0
  0
LINE
  5
73
  8
SMALL_FEATURE
 10
192.21449279785156
 20
27.241500854492188
 30
0.0
 11
193.54800415039062
 21
27.495500564575195
 31
0.0
  0
LINE
  5
74
  8
SMALL_FEATURE
 10
193.54800415039062
 20
27.495500564575195
 30
0.0
 11
193.6114959716797
 21
26.86050033569336
 31
0.0
  0
LINE
  5
75
  8
SMALL_FEATURE
 10
193.6114959716797
 20
26.86050033569336
 30
0.0
 11
193.99249267578125
 21
26.86050033569336
 31
0.0
  0
LINE
  5
76
  8
SMALL_FEATURE
 10
193.99249267578125
 20
26.86050033569336
 30
0.0
 11
194.37350463867188
 21
29.40049934387207
 31
0.0
  0
LINE
  5
77
  8
SMALL_FEATURE
 10
194.37350463867188
 20
29.40049934387207
 30
0.0
 11
193.3574981689453
 21
29.718000411987305
 31
0.0
  0
LINE
  5
78
  8
SMALL_FEATURE
 10
193.3574981689453
 20
29.718000411987305
 30
0.0
 11
192.08749389648438
 21
28.38450050354004
 31
0.0
  0
LINE
  5
79
  8
SMALL_FEATURE
 10
192.08749389648438
 20
28.38450050354004
 30
0.0
 11
191.77000427246094
 21
28.38450050354004
 31
0.0
  0
LINE
  5
7A
  8
SMALL_FEATURE
 10
191.77000427246094
 20
28.38450050354004
 30
0.0
 11
191.64300537109375
 21
27.368499755859375
 31
0.0
  0
LINE
  5
7B
  8
SMALL_FEATURE
 10
191.64300537109375
 20
27.368499755859375
 30
0.0
 11
190.8175048828125
 21
27.43199920654297
 31
0.0
  0
LINE
  5
7C
  8
SMALL_FEATURE
 10
190.8175048828125
 20
27.43199920654297
 30
0.0
 11
191.64300537109375
 21
27.30500030517578
 31
0.0
  0
LINE
  5
7D
  8
SMALL_FEATURE
 10
191.64300537109375
 20
27.30500030517578
 30
0.0
 11
191.77000427246094
 21
24.95549964904785
 31
0.0
  0
LINE
  5
7E
  8
SMALL_FEATURE
 10
191.77000427246094
 20
24.95549964904785
 30
0.0
 11
189.61099243164062
 21
24.764999389648438
 31
0.0
  0
LINE
  5
7F
  8
SMALL_FEATURE
 10
189.61099243164062
 20
24.764999389648438
 30
0.0
 11
189.61099243164062
 21
25.7810001373291
 31
0.0
  0
LINE
  5
80
  8
SMALL_FEATURE
 10
189.61099243164062
 20
25.7810001373291
 30
0.0
 11
187.76950073242188
 21
25.590499877929688
 31
0.0
  0
LINE
  5
81
  8
SMALL_FEATURE
 10
187.76950073242188
 20
25.590499877929688
 30
0.0
 11
187.70599365234375
 21
26.352500915527344
 31
0.0
  0
LINE
  5
82
  8
SMALL_FEATURE
 10
187.70599365234375
 20
26.352500915527344
 30
0.0
 11
187.3249969482422
 21
25.7810001373291
 31
0.0
  0
LINE
  5
83
  8
SMALL_FEATURE
 10
187.3249969482422
 20
25.7810001373291
 30
0.0
 11
186.49949645996094
 21
25.844499588012695
 31
0.0
  0
LINE
  5
84
  8
SMALL_FEATURE
 10
186.49949645996094
 20
25.844499588012695
 30
0.0
 11
186.49949645996094
 21
27.051000595092773
 31
0.0
  0
LINE
  5
85
  8
SMALL_FEATURE
 10
186.49949645996094
 20
27.051000595092773
 30
0.0
 11
187.13450622558594
 21
27.495500564575195
 31
0.0
  0
LINE
  5
86
  8
SMALL_FEATURE
 10
187.13450622558594
 20
27.495500564575195
 30
0.0
 11
187.89649963378906
 21
27.495500564575195
 31
0.0
  0
LINE
  5
87
  8
SMALL_FEATURE
 10
187.89649963378906
 20
27.495500564575195
 30
0.0
 11
187.9600067138672
 21
26.86050033569336
 31
0.0
  0
LINE
  5
88
  8
SMALL_FEATURE
 10
187.9600067138672
 20
26.86050033569336
 30
0.0
 11
188.27749633789062
 21
26.86050033569336
 31
0.0
  0
LINE
  5
89
  8
SMALL_FEATURE
 10
188.27749633789062
 20
26.86050033569336
 30
0.0
 11
188.4044952392578
 21
28.892499923706055
 31
0.0
  0
LINE
  5
8A
  8
SMALL_FEATURE
 10
188.4044952392578
 20
28.892499923706055
 30
0.0
 11
190.11900329589844
 21
32.44850158691406
 31
0.0
  0
LINE
  5
8B
  8
SMALL_FEATURE
 10
190.11900329589844
 20
32.44850158691406
 30
0.0
 11
190.6269989013672
 21
32.512001037597656
 31
0.0
  0
LINE
  5
8C
  8
SMALL_FEATURE
 10
190.6269989013672
 20
32.512001037597656
 30
0.0
 11
190.24600219726562
 21
32.76599884033203
 31
0.0
  0
LINE
  5
8D
  8
SMALL_FEATURE
 10
190.24600219726562
 20
32.76599884033203
 30
0.0
 11
189.67449951171875
 21
32.76599884033203
 31
0.0
  0
LINE
  5
8E
  8
SMALL_FEATURE
 10
189.67449951171875
 20
32.76599884033203
 30
0.0
 11
189.67449951171875
 21
32.13100051879883
 31
0.0
  0
LINE
  5
8F
  8
SMALL_FEATURE
 10
189.67449951171875
 20
32.13100051879883
 30
0.0
 11
188.59500122070312
 21
29.654499053955078
 31
0.0
  0
LINE
  5
90
  8
SMALL_FEATURE
 10
188.59500122070312
 20
29.654499053955078
 30
0.0
 11
187.5155029296875
 21
29.718000411987305
 31
0.0
  0
LINE
  5
91
  8
SMALL_FEATURE
 10
187.5155029296875
 20
29.718000411987305
 30
0.0
 11
186.3090057373047
 21
28.320999145507812
 31
0.0
  0
LINE
  5
92
  8
SMALL_FEATURE
 10
186.3090057373047
 20
28.320999145507812
 30
0.0
 11
185.864501953125
 21
27.241500854492188
 31
0.0
  0
LINE
  5
93
  8
SMALL_FEATURE
 10
185.864501953125
 20
27.241500854492188
 30
0.0
 11
186.3090057373047
 21
26.73349952697754
 31
0.0
  0
LINE
  5
94
  8
SMALL_FEATURE
 10
186.3090057373047
 20
26.73349952697754
 30
0.0
 11
185.864501953125
 21
24.764999389648438
 31
0.0
  0
LINE
  5
95
  8
SMALL_FEATURE
 10
185.864501953125
 20
24.764999389648438
 30
0.0
 11
180.7845001220703
 21
24.892000198364258
 31
0.0
  0
LINE
  5
96
  8
SMALL_FEATURE
 10
180.7845001220703
 20
24.892000198364258
 30
0.0
 11
180.7845001220703
 21
25.844499588012695
 31
0.0
  0
LINE
  5
97
  8
SMALL_FEATURE
 10
180.7845001220703
 20
25.844499588012695
 30
0.0
 11
181.86399841308594
 21
26.923999786376953
 31
0.0
  0
LINE
  5
98
  8
SMALL_FEATURE
 10
181.86399841308594
 20
26.923999786376953
 30
0.0
 11
182.6894989013672
 21
26.86050033569336
 31
0.0
  0
LINE
  5
99
  8
SMALL_FEATURE
 10
182.6894989013672
 20
26.86050033569336
 30
0.0
 11
182.62600708007812
 21
25.65399932861328
 31
0.0
  0
LINE
  5
9A
  8
SMALL_FEATURE
 10
182.62600708007812
 20
25.65399932861328
 30
0.0
 11
182.94349670410156
 21
26.47949981689453
 31
0.0
  0
LINE
  5
9B
  8
SMALL_FEATURE
 10
182.94349670410156
 20
26.47949981689453
 30
0.0
 11
183.64199829101562
 21
26.542999267578125
 31
0.0
  0
LINE
  5
9C
  8
SMALL_FEATURE
 10
183.64199829101562
 20
26.542999267578125
 30
0.0
 11
185.61050415039062
 21
31.05150032043457
 31
0.0
  0
LINE
  5
9D
  8
SMALL_FEATURE
 10
185.61050415039062
 20
31.05150032043457
 30
0.0
 11
186.3090057373047
 21
31.114999771118164
 31
0.0
  0
LINE
  5
9E
  8
SMALL_FEATURE
 10
186.3090057373047
 20
31.114999771118164
 30
0.0
 11
186.94400024414062
 21
33.14699935913086
 31
0.0
  0
LINE
  5
9F
  8
SMALL_FEATURE
 10
186.94400024414062
 20
33.14699935913086
 30
0.0
 11
189.42050170898438
 21
32.95650100708008
 31
0.0
  0
LINE
  5
A0
  8
SMALL_FEATURE
 10
189.42050170898438
 20
32.95650100708008
 30
0.0
 11
189.67449951171875
 21
34.734500885009766
 31
0.0
  0
LINE
  5
A1
  8
SMALL_FEATURE
 10
189.67449951171875
 20
34.734500885009766
 30
0.0
 11
189.10299682617188
 21
37.21099853515625
 31
0.0
  0
LINE
  5
A2
  8
SMALL_FEATURE
 10
189.10299682617188
 20
37.21099853515625
 30
0.0
 11
189.48399353027344
 21
35.051998138427734
 31
0.0
  0
LINE
  5
A3
  8
SMALL_FEATURE
 10
189.48399353027344
 20
35.051998138427734
 30
0.0
 11
189.35699462890625
 21
33.21049880981445
 31
0.0
  0
LINE
  5
A4
  8
SMALL_FEATURE
 10
189.35699462890625
 20
33.21049880981445
 30
0.0
 11
187.3249969482422
 21
33.464500427246094
 31
0.0
  0
LINE
  5
A5
  8
SMALL_FEATURE
 10
187.3249969482422
 20
33.464500427246094
 30
0.0
 11
187.26150512695312
 21
34.22650146484375
 31
0.0
  0
LINE
  5
A6
  8
SMALL_FEATURE
 10
187.26150512695312
 20
34.22650146484375
 30
0.0
 11
186.7534942626953
 21
34.290000915527344
 31
0.0
  0
LINE
  5
A7
  8
SMALL_FEATURE
 10
186.7534942626953
 20
34.290000915527344
 30
0.0
 11
186.7534942626953
 21
35.81399917602539
 31
0.0
  0
LINE
  5
A8
  8
SMALL_FEATURE
 10
186.7534942626953
 20
35.81399917602539
 30
0.0
 11
187.3885040283203
 21
36.25849914550781
 31
0.0
  0
LINE
  5
A9
  8
SMALL_FEATURE
 10
187.3885040283203
 20
36.25849914550781
 30
0.0
 11
187.89649963378906
 21
37.71900177001953
 31
0.0
  0
LINE
  5
AA
  8
SMALL_FEATURE
 10
187.89649963378906
 20
37.71900177001953
 30
0.0
 11
187.5155029296875
 21
36.89350128173828
 31
0.0
  0
LINE
  5
AB
  8
SMALL_FEATURE
 10
187.5155029296875
 20
36.89350128173828
 30
0.0
 11
186.7534942626953
 21
36.89350128173828
 31
0.0
  0
LINE
  5
AC
  8
SMALL_FEATURE
 10
186.7534942626953
 20
36.89350128173828
 30
0.0
 11
186.69000244140625
 21
37.71900177001953
 31
0.0
  0
LINE
  5
AD
  8
SMALL_FEATURE
 10
186.69000244140625
 20
37.71900177001953
 30
0.0
 11
187.13450622558594
 21
38.608001708984375
 31
0.0
  0
LINE
  5
AE
  8
SMALL_FEATURE
 10
187.13450622558594
 20
38.608001708984375
 30
0.0
 11
187.9600067138672
 21
38.608001708984375
 31
0.0
  0
LINE
  5
AF
  8
SMALL_FEATURE
 10
187.9600067138672
 20
38.608001708984375
 30
0.0
 11
188.02349853515625
 21
39.94150161743164
 31
0.0
  0
LINE
  5
B0
  8
SMALL_FEATURE
 10
184.59449768066406
 20
24.51099967956543
 30
0.0
 11
198.18350219726562
 21
24.574499130249023
 31
0.0
  0
LINE
  5
B1
  8
SMALL_FEATURE
 10
198.18350219726562
 20
24.574499130249023
 30
0.0
 11
198.2469940185547
 21
17.906999588012695
 31
0.0
  0
LINE
  5
B2
  8
SMALL_FEATURE
 10
198.2469940185547
 20
17.906999588012695
 30
0.0
 11
184.6580047607422
 21
17.8435001373291
 31
0.0
  0
LINE
  5
B3
  8
SMALL_FEATURE
 10
184.6580047607422
 20
17.8435001373291
 30
0.0
 11
184.59449768066406
 21
24.51099967956543
 31
0.0
  0
LINE
  5
B4
  8
SMALL_FEATURE
 10
54.03850173950195
 20
217.23350524902344
 30
0.0
 11
73.0250015258789
 21
217.2969970703125
 31
0.0
  0
LINE
  5
B5
  8
SMALL_FEATURE
 10
73.0250015258789
 20
217.2969970703125
 30
0.0
 11
73.0885009765625
 21
213.9949951171875
 31
0.0
  0
LINE
  5
B6
  8
SMALL_FEATURE
 10
73.0885009765625
 20
213.9949951171875
 30
0.0
 11
54.10200119018555
 21
213.93150329589844
 31
0.0
  0
LINE
  5
B7
  8
SMALL_FEATURE
 10
54.10200119018555
 20
213.93150329589844
 30
0.0
 11
54.03850173950195
 21
217.23350524902344
 31
0.0
  0
LINE
  5
B8
  8
SMALL_FEATURE
 10
143.0655059814453
 20
192.2779998779297
 30
0.0
 11
154.2415008544922
 21
192.3415069580078
 31
0.0
  0
LINE
  5
B9
  8
SMALL_FEATURE
 10
154.2415008544922
 20
192.3415069580078
 30
0.0
 11
154.30499267578125
 21
186.7534942626953
 31
0.0
  0
LINE
  5
BA
  8
SMALL_FEATURE
 10
154.30499267578125
 20
186.7534942626953
 30
0.0
 11
143.12899780273438
 21
186.69000244140625
 31
0.0
  0
LINE
  5
BB
  8
SMALL_FEATURE
 10
143.12899780273438
 20
186.69000244140625
 30
0.0
 11
143.0655059814453
 21
192.2779998779297
 31
0.0
  0
LINE
  5
BC
  8
SMALL_FEATURE
 10
171.7675018310547
 20
192.2779998779297
 30
0.0
 11
182.81649780273438
 21
192.3415069580078
 31
0.0
  0
LINE
  5
BD
  8
SMALL_FEATURE
 10
182.81649780273438
 20
192.3415069580078
 30
0.0
 11
182.8800048828125
 21
186.7534942626953
 31
0.0
  0
LINE
  5
BE
  8
SMALL_FEATURE
 10
182.8800048828125
 20
186.7534942626953
 30
0.0
 11
171.83099365234375
 21
186.69000244140625
 31
0.0
  0
LINE
  5
BF
  8
SMALL_FEATURE
 10
171.83099365234375
 20
186.69000244140625
 30
0.0
 11
171.7675018310547
 21
192.2779998779297
 31
0.0
  0
LINE
  5
C0
  8
SMALL_FEATURE
 10
184.59449768066406
 20
13.461999893188477
 30
0.0
 11
198.18350219726562
 21
13.525500297546387
 31
0.0
  0
LINE
  5
C1
  8
SMALL_FEATURE
 10
198.18350219726562
 20
13.525500297546387
 30
0.0
 11
198.2469940185547
 21
9.524999618530273
 31
0.0
  0
LINE
  5
C2
  8
SMALL_FEATURE
 10
198.2469940185547
 20
9.524999618530273
 30
0.0
 11
184.6580047607422
 21
9.46150016784668
 31
0.0
  0
LINE
  5
C3
  8
SMALL_FEATURE
 10
184.6580047607422
 20
9.46150016784668
 30
0.0
 11
184.59449768066406
 21
13.461999893188477
 31
0.0
  0
LINE
  5
C4
  8
SMALL_FEATURE
 10
184.59449768066406
 20
17.589500427246094
 30
0.0
 11
198.18350219726562
 21
17.652999877929688
 31
0.0
  0
LINE
  5
C5
  8
SMALL_FEATURE
 10
198.18350219726562
 20
17.652999877929688
 30
0.0
 11
198.2469940185547
 21
13.779500007629395
 31
0.0
  0
LINE
  5
C6
  8
SMALL_FEATURE
 10
198.2469940185547
 20
13.779500007629395
 30
0.0
 11
184.6580047607422
 21
13.715999603271484
 31
0.0
  0
LINE
  5
C7
  8
SMALL_FEATURE
 10
184.6580047607422
 20
13.715999603271484
 30
0.0
 11
184.59449768066406
 21
17.589500427246094
 31
0.0
  0
LINE
  5
C8
  8
SMALL_FEATURE
 10
45.84700012207031
 20
219.32899475097656
 30
0.0
 11
53.78450012207031
 21
219.3925018310547
 31
0.0
  0
LINE
  5
C9
  8
SMALL_FEATURE
 10
53.78450012207031
 20
219.3925018310547
 30
0.0
 11
53.847999572753906
 21
212.4709930419922
 31
0.0
  0
LINE
  5
CA
  8
SMALL_FEATURE
 10
53.847999572753906
 20
212.4709930419922
 30
0.0
 11
45.910499572753906
 21
212.40750122070312
 31
0.0
  0
LINE
  5
CB
  8
SMALL_FEATURE
 10
45.910499572753906
 20
212.40750122070312
 30
0.0
 11
45.84700012207031
 21
213.23300170898438
 31
0.0
  0
LINE
  5
CC
  8
SMALL_FEATURE
 10
45.84700012207031
 20
213.23300170898438
 30
0.0
 11
46.92649841308594
 21
215.13800048828125
 31
0.0
  0
LINE
  5
CD
  8
SMALL_FEATURE
 10
46.92649841308594
 20
215.13800048828125
 30
0.0
 11
46.92649841308594
 21
216.59849548339844
 31
0.0
  0
LINE
  5
CE
  8
SMALL_FEATURE
 10
46.92649841308594
 20
216.59849548339844
 30
0.0
 11
45.84700012207031
 21
218.5034942626953
 31
0.0
  0
LINE
  5
CF
  8
SMALL_FEATURE
 10
45.84700012207031
 20
218.5034942626953
 30
0.0
 11
45.84700012207031
 21
219.32899475097656
 31
0.0
  0
LINE
  5
D0
  8
SMALL_FEATURE
 10
73.27899932861328
 20
219.32899475097656
 30
0.0
 11
81.15299987792969
 21
219.3925018310547
 31
0.0
  0
LINE
  5
D1
  8
SMALL_FEATURE
 10
81.15299987792969
 20
219.3925018310547
 30
0.0
 11
81.21649932861328
 21
218.5034942626953
 31
0.0
  0
LINE
  5
D2
  8
SMALL_FEATURE
 10
81.21649932861328
 20
218.5034942626953
 30
0.0
 11
80.20050048828125
 21
216.53500366210938
 31
0.0
  0
LINE
  5
D3
  8
SMALL_FEATURE
 10
80.20050048828125
 20
216.53500366210938
 30
0.0
 11
80.20050048828125
 21
215.20150756835938
 31
0.0
  0
LINE
  5
D4
  8
SMALL_FEATURE
 10
80.20050048828125
 20
215.20150756835938
 30
0.0
 11
81.27999877929688
 21
213.23300170898438
 31
0.0
  0
LINE
  5
D5
  8
SMALL_FEATURE
 10
81.27999877929688
 20
213.23300170898438
 30
0.0
 11
81.27999877929688
 21
212.4709930419922
 31
0.0
  0
LINE
  5
D6
  8
SMALL_FEATURE
 10
81.27999877929688
 20
212.4709930419922
 30
0.0
 11
73.34249877929688
 21
212.40750122070312
 31
0.0
  0
LINE
  5
D7
  8
SMALL_FEATURE
 10
73.34249877929688
 20
212.40750122070312
 30
0.0
 11
73.27899932861328
 21
219.32899475097656
 31
0.0
  0
LINE
  5
D8
  8
SMALL_FEATURE
 10
87.3759994506836
 20
41.21149826049805
 30
0.0
 11
87.3125
 21
38.608001708984375
 31
0.0
  0
LINE
  5
D9
  8
SMALL_FEATURE
 10
87.3125
 20
38.608001708984375
 30
0.0
 11
68.26249694824219
 21
38.67150115966797
 31
0.0
  0
LINE
  5
DA
  8
SMALL_FEATURE
 10
68.26249694824219
 20
38.67150115966797
 30
0.0
 11
68.3895034790039
 21
41.275001525878906
 31
0.0
  0
LINE
  5
DB
  8
SMALL_FEATURE
 10
68.3895034790039
 20
41.275001525878906
 30
0.0
 11
87.3759994506836
 21
41.21149826049805
 31
0.0
  0
LINE
  5
DC
  8
SMALL_FEATURE
 10
187.13450622558594
 20
39.94150161743164
 30
0.0
 11
187.197998046875
 21
39.11600112915039
 31
0.0
  0
LINE
  5
DD
  8
SMALL_FEATURE
 10
187.197998046875
 20
39.11600112915039
 30
0.0
 11
186.56300354003906
 21
37.27450180053711
 31
0.0
  0
LINE
  5
DE
  8
SMALL_FEATURE
 10
186.56300354003906
 20
37.27450180053711
 30
0.0
 11
186.69000244140625
 21
35.17900085449219
 31
0.0
  0
LINE
  5
DF
  8
SMALL_FEATURE
 10
186.69000244140625
 20
35.17900085449219
 30
0.0
 11
186.11849975585938
 21
34.290000915527344
 31
0.0
  0
LINE
  5
E0
  8
SMALL_FEATURE
 10
186.11849975585938
 20
34.290000915527344
 30
0.0
 11
182.49899291992188
 21
31.559499740600586
 31
0.0
  0
LINE
  5
E1
  8
SMALL_FEATURE
 10
182.49899291992188
 20
31.559499740600586
 30
0.0
 11
182.1179962158203
 21
30.162500381469727
 31
0.0
  0
LINE
  5
E2
  8
SMALL_FEATURE
 10
182.1179962158203
 20
30.162500381469727
 30
0.0
 11
182.4355010986328
 21
27.87649917602539
 31
0.0
  0
LINE
  5
E3
  8
SMALL_FEATURE
 10
182.4355010986328
 20
27.87649917602539
 30
0.0
 11
181.61000061035156
 21
26.86050033569336
 31
0.0
  0
LINE
  5
E4
  8
SMALL_FEATURE
 10
181.61000061035156
 20
26.86050033569336
 30
0.0
 11
180.84800720214844
 21
26.86050033569336
 31
0.0
  0
LINE
  5
E5
  8
SMALL_FEATURE
 10
180.84800720214844
 20
26.86050033569336
 30
0.0
 11
180.7845001220703
 21
39.87799835205078
 31
0.0
  0
LINE
  5
E6
  8
SMALL_FEATURE
 10
180.7845001220703
 20
39.87799835205078
 30
0.0
 11
187.13450622558594
 21
39.94150161743164
 31
0.0
  0
LINE
  5
E7
  8
SMALL_FEATURE
 10
65.97650146484375
 20
247.33250427246094
 30
0.0
 11
70.35800170898438
 21
247.2689971923828
 31
0.0
  0
LINE
  5
E8
  8
SMALL_FEATURE
 10
70.35800170898438
 20
247.2689971923828
 30
0.0
 11
70.29450225830078
 21
240.47450256347656
 31
0.0
  0
LINE
  5
E9
  8
SMALL_FEATURE
 10
70.29450225830078
 20
240.47450256347656
 30
0.0
 11
67.56400299072266
 21
240.79200744628906
 31
0.0
  0
LINE
  5
EA
  8
SMALL_FEATURE
 10
67.56400299072266
 20
240.79200744628906
 30
0.0
 11
67.30999755859375
 21
240.41099548339844
 31
0.0
  0
LINE
  5
EB
  8
SMALL_FEATURE
 10
67.30999755859375
 20
240.41099548339844
 30
0.0
 11
65.91300201416016
 21
240.47450256347656
 31
0.0
  0
LINE
  5
EC
  8
SMALL_FEATURE
 10
65.91300201416016
 20
240.47450256347656
 30
0.0
 11
65.97650146484375
 21
247.33250427246094
 31
0.0
  0
LINE
  5
ED
  8
SMALL_FEATURE
 10
54.10200119018555
 20
240.2205047607422
 30
0.0
 11
56.57849884033203
 21
240.15699768066406
 31
0.0
  0
LINE
  5
EE
  8
SMALL_FEATURE
 10
56.57849884033203
 20
240.15699768066406
 30
0.0
 11
56.57849884033203
 21
232.53700256347656
 31
0.0
  0
LINE
  5
EF
  8
SMALL_FEATURE
 10
56.57849884033203
 20
232.53700256347656
 30
0.0
 11
56.26100158691406
 21
232.41000366210938
 31
0.0
  0
LINE
  5
F0
  8
SMALL_FEATURE
 10
56.26100158691406
 20
232.41000366210938
 30
0.0
 11
56.1974983215332
 21
228.6634979248047
 31
0.0
  0
LINE
  5
F1
  8
SMALL_FEATURE
 10
56.1974983215332
 20
228.6634979248047
 30
0.0
 11
54.03850173950195
 21
228.9810028076172
 31
0.0
  0
LINE
  5
F2
  8
SMALL_FEATURE
 10
54.03850173950195
 20
228.9810028076172
 30
0.0
 11
54.10200119018555
 21
240.2205047607422
 31
0.0
  0
LINE
  5
F3
  8
SMALL_FEATURE
 10
24.764999389648438
 20
270.38299560546875
 30
0.0
 11
24.764999389648438
 21
267.3349914550781
 31
0.0
  0
LINE
  5
F4
  8
SMALL_FEATURE
 10
24.764999389648438
 20
267.3349914550781
 30
0.0
 11
25.082500457763672
 21
267.3349914550781
 31
0.0
  0
LINE
  5
F5
  8
SMALL_FEATURE
 10
25.082500457763672
 20
267.3349914550781
 30
0.0
 11
25.20949935913086
 21
268.6684875488281
 31
0.0
  0
LINE
  5
F6
  8
SMALL_FEATURE
 10
25.20949935913086
 20
268.6684875488281
 30
0.0
 11
26.352500915527344
 21
268.6684875488281
 31
0.0
  0
LINE
  5
F7
  8
SMALL_FEATURE
 10
26.352500915527344
 20
268.6684875488281
 30
0.0
 11
26.797000885009766
 21
268.9859924316406
 31
0.0
  0
LINE
  5
F8
  8
SMALL_FEATURE
 10
26.797000885009766
 20
268.9859924316406
 30
0.0
 11
27.622499465942383
 21
268.9224853515625
 31
0.0
  0
LINE
  5
F9
  8
SMALL_FEATURE
 10
27.622499465942383
 20
268.9224853515625
 30
0.0
 11
27.622499465942383
 21
267.906494140625
 31
0.0
  0
LINE
  5
FA
  8
SMALL_FEATURE
 10
27.622499465942383
 20
267.906494140625
 30
0.0
 11
28.320999145507812
 21
267.2715148925781
 31
0.0
  0
LINE
  5
FB
  8
SMALL_FEATURE
 10
28.320999145507812
 20
267.2715148925781
 30
0.0
 11
29.336999893188477
 21
267.3349914550781
 31
0.0
  0
LINE
  5
FC
  8
SMALL_FEATURE
 10
29.336999893188477
 20
267.3349914550781
 30
0.0
 11
29.844999313354492
 21
267.8429870605469
 31
0.0
  0
LINE
  5
FD
  8
SMALL_FEATURE
 10
29.844999313354492
 20
267.8429870605469
 30
0.0
 11
30.60700035095215
 21
267.8429870605469
 31
0.0
  0
LINE
  5
FE
  8
SMALL_FEATURE
 10
30.60700035095215
 20
267.8429870605469
 30
0.0
 11
30.670499801635742
 21
267.3349914550781
 31
0.0
  0
LINE
  5
FF
  8
SMALL_FEATURE
 10
30.670499801635742
 20
267.3349914550781
 30
0.0
 11
33.78200149536133
 21
267.3349914550781
 31
0.0
  0
LINE
  5
100
  8
SMALL_FEATURE
 10
33.78200149536133
 20
267.3349914550781
 30
0.0
 11
33.84550094604492
 21
268.6050109863281
 31
0.0
  0
LINE
  5
101
  8
SMALL_FEATURE
 10
33.84550094604492
 20
268.6050109863281
 30
0.0
 11
34.60749816894531
 21
268.6050109863281
 31
0.0
  0
LINE
  5
102
  8
SMALL_FEATURE
 10
34.60749816894531
 20
268.6050109863281
 30
0.0
 11
35.36949920654297
 21
267.39849853515625
 31
0.0
  0
LINE
  5
103
  8
SMALL_FEATURE
 10
35.36949920654297
 20
267.39849853515625
 30
0.0
 11
35.81399917602539
 21
267.3349914550781
 31
0.0
  0
LINE
  5
104
  8
SMALL_FEATURE
 10
35.81399917602539
 20
267.3349914550781
 30
0.0
 11
35.877498626708984
 21
270.06549072265625
 31
0.0
  0
LINE
  5
105
  8
SMALL_FEATURE
 10
35.877498626708984
 20
270.06549072265625
 30
0.0
 11
37.3380012512207
 21
270.00201416015625
 31
0.0
  0
LINE
  5
106
  8
SMALL_FEATURE
 10
37.3380012512207
 20
270.00201416015625
 30
0.0
 11
37.3380012512207
 21
267.3349914550781
 31
0.0
  0
LINE
  5
107
  8
SMALL_FEATURE
 10
37.3380012512207
 20
267.3349914550781
 30
0.0
 11
37.71900177001953
 21
267.3349914550781
 31
0.0
  0
LINE
  5
108
  8
SMALL_FEATURE
 10
37.71900177001953
 20
267.3349914550781
 30
0.0
 11
37.782501220703125
 21
270.06549072265625
 31
0.0
  0
LINE
  5
109
  8
SMALL_FEATURE
 10
37.782501220703125
 20
270.06549072265625
 30
0.0
 11
39.179500579833984
 21
270.00201416015625
 31
0.0
  0
LINE
  5
10A
  8
SMALL_FEATURE
 10
39.179500579833984
 20
270.00201416015625
 30
0.0
 11
39.179500579833984
 21
267.3349914550781
 31
0.0
  0
LINE
  5
10B
  8
SMALL_FEATURE
 10
39.179500579833984
 20
267.3349914550781
 30
0.0
 11
41.3385009765625
 21
267.3349914550781
 31
0.0
  0
LINE
  5
10C
  8
SMALL_FEATURE
 10
41.3385009765625
 20
267.3349914550781
 30
0.0
 11
41.275001525878906
 21
267.6524963378906
 31
0.0
  0
LINE
  5
10D
  8
SMALL_FEATURE
 10
41.275001525878906
 20
267.6524963378906
 30
0.0
 11
39.49700164794922
 21
267.71600341796875
 31
0.0
  0
LINE
  5
10E
  8
SMALL_FEATURE
 10
39.49700164794922
 20
267.71600341796875
 30
0.0
 11
39.56050109863281
 21
268.73199462890625
 31
0.0
  0
LINE
  5
10F
  8
SMALL_FEATURE
 10
39.56050109863281
 20
268.73199462890625
 30
0.0
 11
41.21149826049805
 21
268.7955017089844
 31
0.0
  0
LINE
  5
110
  8
SMALL_FEATURE
 10
41.21149826049805
 20
268.7955017089844
 30
0.0
 11
41.14799880981445
 21
269.04949951171875
 31
0.0
  0
LINE
  5
111
  8
SMALL_FEATURE
 10
41.14799880981445
 20
269.04949951171875
 30
0.0
 11
39.56050109863281
 21
269.04949951171875
 31
0.0
  0
LINE
  5
112
  8
SMALL_FEATURE
 10
39.56050109863281
 20
269.04949951171875
 30
0.0
 11
39.49700164794922
 21
270.00201416015625
 31
0.0
  0
LINE
  5
113
  8
SMALL_FEATURE
 10
39.49700164794922
 20
270.00201416015625
 30
0.0
 11
41.21149826049805
 21
270.06549072265625
 31
0.0
  0
LINE
  5
114
  8
SMALL_FEATURE
 10
41.21149826049805
 20
270.06549072265625
 30
0.0
 11
41.21149826049805
 21
270.38299560546875
 31
0.0
  0
LINE
  5
115
  8
SMALL_FEATURE
 10
41.21149826049805
 20
270.38299560546875
 30
0.0
 11
35.496498107910156
 21
270.38299560546875
 31
0.0
  0
LINE
  5
116
  8
SMALL_FEATURE
 10
35.496498107910156
 20
270.38299560546875
 30
0.0
 11
35.43299865722656
 21
269.1130065917969
 31
0.0
  0
LINE
  5
117
  8
SMALL_FEATURE
 10
35.43299865722656
 20
269.1130065917969
 30
0.0
 11
34.67100143432617
 21
269.1130065917969
 31
0.0
  0
LINE
  5
118
  8
SMALL_FEATURE
 10
34.67100143432617
 20
269.1130065917969
 30
0.0
 11
33.84550094604492
 21
270.38299560546875
 31
0.0
  0
LINE
  5
119
  8
SMALL_FEATURE
 10
33.84550094604492
 20
270.38299560546875
 30
0.0
 11
29.590999603271484
 21
270.38299560546875
 31
0.0
  0
LINE
  5
11A
  8
SMALL_FEATURE
 10
29.590999603271484
 20
270.38299560546875
 30
0.0
 11
29.590999603271484
 21
268.09698486328125
 31
0.0
  0
LINE
  5
11B
  8
SMALL_FEATURE
 10
29.590999603271484
 20
268.09698486328125
 30
0.0
 11
29.146499633789062
 21
267.5889892578125
 31
0.0
  0
LINE
  5
11C
  8
SMALL_FEATURE
 10
29.146499633789062
 20
267.5889892578125
 30
0.0
 11
28.320999145507812
 21
267.5889892578125
 31
0.0
  0
LINE
  5
11D
  8
SMALL_FEATURE
 10
28.320999145507812
 20
267.5889892578125
 30
0.0
 11
27.940000534057617
 21
267.9700012207031
 31
0.0
  0
LINE
  5
11E
  8
SMALL_FEATURE
 10
27.940000534057617
 20
267.9700012207031
 30
0.0
 11
27.87649917602539
 21
270.38299560546875
 31
0.0
  0
LINE
  5
11F
  8
SMALL_FEATURE
 10
27.87649917602539
 20
270.38299560546875
 30
0.0
 11
27.55900001525879
 21
270.00201416015625
 31
0.0
  0
LINE
  5
120
  8
SMALL_FEATURE
 10
27.55900001525879
 20
270.00201416015625
 30
0.0
 11
24.764999389648438
 21
270.38299560546875
 31
0.0
  0
LINE
  5
121
  8
SMALL_FEATURE
 10
70.80249786376953
 20
57.467498779296875
 30
0.0
 11
70.86599731445312
 21
46.35499954223633
 31
0.0
  0
LINE
  5
122
  8
SMALL_FEATURE
 10
70.86599731445312
 20
46.35499954223633
 30
0.0
 11
71.05650329589844
 21
53.53049850463867
 31
0.0
  0
LINE
  5
123
  8
SMALL_FEATURE
 10
71.05650329589844
 20
53.53049850463867
 30
0.0
 11
73.91400146484375
 21
53.14950180053711
 31
0.0
  0
LINE
  5
124
  8
SMALL_FEATURE
 10
73.91400146484375
 20
53.14950180053711
 30
0.0
 11
73.97750091552734
 21
53.53049850463867
 31
0.0
  0
LINE
  5
125
  8
SMALL_FEATURE
 10
73.97750091552734
 20
53.53049850463867
 30
0.0
 11
81.59750366210938
 21
53.53049850463867
 31
0.0
  0
LINE
  5
126
  8
SMALL_FEATURE
 10
81.59750366210938
 20
53.53049850463867
 30
0.0
 11
81.66100311279297
 21
53.2130012512207
 31
0.0
  0
LINE
  5
127
  8
SMALL_FEATURE
 10
81.66100311279297
 20
53.2130012512207
 30
0.0
 11
84.51850128173828
 21
53.53049850463867
 31
0.0
  0
LINE
  5
128
  8
SMALL_FEATURE
 10
84.51850128173828
 20
53.53049850463867
 30
0.0
 11
84.51850128173828
 21
48.83150100708008
 31
0.0
  0
LINE
  5
129
  8
SMALL_FEATURE
 10
84.51850128173828
 20
48.83150100708008
 30
0.0
 11
81.66100311279297
 21
49.212501525878906
 31
0.0
  0
LINE
  5
12A
  8
SMALL_FEATURE
 10
81.66100311279297
 20
49.212501525878906
 30
0.0
 11
81.59750366210938
 21
48.83150100708008
 31
0.0
  0
LINE
  5
12B
  8
SMALL_FEATURE
 10
81.59750366210938
 20
48.83150100708008
 30
0.0
 11
78.42250061035156
 21
48.704498291015625
 31
0.0
  0
LINE
  5
12C
  8
SMALL_FEATURE
 10
78.42250061035156
 20
48.704498291015625
 30
0.0
 11
81.59750366210938
 21
48.64099884033203
 31
0.0
  0
LINE
  5
12D
  8
SMALL_FEATURE
 10
81.59750366210938
 20
48.64099884033203
 30
0.0
 11
81.66100311279297
 21
48.2599983215332
 31
0.0
  0
LINE
  5
12E
  8
SMALL_FEATURE
 10
81.66100311279297
 20
48.2599983215332
 30
0.0
 11
84.51850128173828
 21
48.64099884033203
 31
0.0
  0
LINE
  5
12F
  8
SMALL_FEATURE
 10
84.51850128173828
 20
48.64099884033203
 30
0.0
 11
84.64550018310547
 21
46.291500091552734
 31
0.0
  0
LINE
  5
130
  8
SMALL_FEATURE
 10
84.64550018310547
 20
46.291500091552734
 30
0.0
 11
84.83599853515625
 21
48.64099884033203
 31
0.0
  0
LINE
  5
131
  8
SMALL_FEATURE
 10
84.83599853515625
 20
48.64099884033203
 30
0.0
 11
87.3125
 21
48.64099884033203
 31
0.0
  0
LINE
  5
132
  8
SMALL_FEATURE
 10
87.3125
 20
48.64099884033203
 30
0.0
 11
87.50299835205078
 21
46.35499954223633
 31
0.0
  0
LINE
  5
133
  8
SMALL_FEATURE
 10
87.50299835205078
 20
46.35499954223633
 30
0.0
 11
87.62999725341797
 21
48.64099884033203
 31
0.0
  0
LINE
  5
134
  8
SMALL_FEATURE
 10
87.62999725341797
 20
48.64099884033203
 30
0.0
 11
90.48750305175781
 21
48.2599983215332
 31
0.0
  0
LINE
  5
135
  8
SMALL_FEATURE
 10
90.48750305175781
 20
48.2599983215332
 30
0.0
 11
90.5510025024414
 21
48.64099884033203
 31
0.0
  0
LINE
  5
136
  8
SMALL_FEATURE
 10
90.5510025024414
 20
48.64099884033203
 30
0.0
 11
93.6624984741211
 21
48.704498291015625
 31
0.0
  0
LINE
  5
137
  8
SMALL_FEATURE
 10
93.6624984741211
 20
48.704498291015625
 30
0.0
 11
90.5510025024414
 21
48.83150100708008
 31
0.0
  0
LINE
  5
138
  8
SMALL_FEATURE
 10
90.5510025024414
 20
48.83150100708008
 30
0.0
 11
90.48750305175781
 21
49.212501525878906
 31
0.0
  0
LINE
  5
139
  8
SMALL_FEATURE
 10
90.48750305175781
 20
49.212501525878906
 30
0.0
 11
87.62999725341797
 21
48.83150100708008
 31
0.0
  0
LINE
  5
13A
  8
SMALL_FEATURE
 10
87.62999725341797
 20
48.83150100708008
 30
0.0
 11
87.56649780273438
 21
52.577999114990234
 31
0.0
  0
LINE
  5
13B
  8
SMALL_FEATURE
 10
87.56649780273438
 20
52.577999114990234
 30
0.0
 11
87.3125
 21
52.06999969482422
 31
0.0
  0
LINE
  5
13C
  8
SMALL_FEATURE
 10
87.3125
 20
52.06999969482422
 30
0.0
 11
86.67749786376953
 21
52.006500244140625
 31
0.0
  0
LINE
  5
13D
  8
SMALL_FEATURE
 10
86.67749786376953
 20
52.006500244140625
 30
0.0
 11
86.42350006103516
 21
51.5620002746582
 31
0.0
  0
LINE
  5
13E
  8
SMALL_FEATURE
 10
86.42350006103516
 20
51.5620002746582
 30
0.0
 11
85.6614990234375
 21
51.5620002746582
 31
0.0
  0
LINE
  5
13F
  8
SMALL_FEATURE
 10
85.6614990234375
 20
51.5620002746582
 30
0.0
 11
85.34400177001953
 21
52.06999969482422
 31
0.0
  0
LINE
  5
140
  8
SMALL_FEATURE
 10
85.34400177001953
 20
52.06999969482422
 30
0.0
 11
84.77249908447266
 21
52.13349914550781
 31
0.0
  0
LINE
  5
141
  8
SMALL_FEATURE
 10
84.77249908447266
 20
52.13349914550781
 30
0.0
 11
84.77249908447266
 21
57.53099822998047
 31
0.0
  0
LINE
  5
142
  8
SMALL_FEATURE
 10
84.77249908447266
 20
57.53099822998047
 30
0.0
 11
84.58200073242188
 21
53.847999572753906
 31
0.0
  0
LINE
  5
143
  8
SMALL_FEATURE
 10
84.58200073242188
 20
53.847999572753906
 30
0.0
 11
81.66100311279297
 21
54.10200119018555
 31
0.0
  0
LINE
  5
144
  8
SMALL_FEATURE
 10
81.66100311279297
 20
54.10200119018555
 30
0.0
 11
81.59750366210938
 21
53.72100067138672
 31
0.0
  0
LINE
  5
145
  8
SMALL_FEATURE
 10
81.59750366210938
 20
53.72100067138672
 30
0.0
 11
73.97750091552734
 21
53.72100067138672
 31
0.0
  0
LINE
  5
146
  8
SMALL_FEATURE
 10
73.97750091552734
 20
53.72100067138672
 30
0.0
 11
73.91400146484375
 21
54.10200119018555
 31
0.0
  0
LINE
  5
147
  8
SMALL_FEATURE
 10
73.91400146484375
 20
54.10200119018555
 30
0.0
 11
71.05650329589844
 21
53.78450012207031
 31
0.0
  0
LINE
  5
148
  8
SMALL_FEATURE
 10
71.05650329589844
 20
53.78450012207031
 30
0.0
 11
70.80249786376953
 21
57.467498779296875
 31
0.0
  0
LINE
  5
149
  8
SMALL_FEATURE
 10
42.29100036621094
 20
119.69750213623047
 30
0.0
 11
45.59299850463867
 21
119.76100158691406
 31
0.0
  0
LINE
  5
14A
  8
SMALL_FEATURE
 10
45.59299850463867
 20
119.76100158691406
 30
0.0
 11
45.720001220703125
 21
118.9990005493164
 31
0.0
  0
LINE
  5
14B
  8
SMALL_FEATURE
 10
45.720001220703125
 20
118.9990005493164
 30
0.0
 11
49.40299987792969
 21
118.9990005493164
 31
0.0
  0
LINE
  5
14C
  8
SMALL_FEATURE
 10
49.40299987792969
 20
118.9990005493164
 30
0.0
 11
49.46649932861328
 21
116.52249908447266
 31
0.0
  0
LINE
  5
14D
  8
SMALL_FEATURE
 10
49.46649932861328
 20
116.52249908447266
 30
0.0
 11
42.35449981689453
 21
116.45899963378906
 31
0.0
  0
LINE
  5
14E
  8
SMALL_FEATURE
 10
42.35449981689453
 20
116.45899963378906
 30
0.0
 11
42.29100036621094
 21
119.69750213623047
 31
0.0
  0
LINE
  5
14F
  8
SMALL_FEATURE
 10
46.10100173950195
 20
41.78300094604492
 30
0.0
 11
49.2760009765625
 21
41.846500396728516
 31
0.0
  0
LINE
  5
150
  8
SMALL_FEATURE
 10
49.2760009765625
 20
41.846500396728516
 30
0.0
 11
49.46649932861328
 21
41.08449935913086
 31
0.0
  0
LINE
  5
151
  8
SMALL_FEATURE
 10
49.46649932861328
 20
41.08449935913086
 30
0.0
 11
53.14950180053711
 21
41.08449935913086
 31
0.0
  0
LINE
  5
152
  8
SMALL_FEATURE
 10
53.14950180053711
 20
41.08449935913086
 30
0.0
 11
53.2130012512207
 21
38.67150115966797
 31
0.0
  0
LINE
  5
153
  8
SMALL_FEATURE
 10
53.2130012512207
 20
38.67150115966797
 30
0.0
 11
46.16450119018555
 21
38.608001708984375
 31
0.0
  0
LINE
  5
154
  8
SMALL_FEATURE
 10
46.16450119018555
 20
38.608001708984375
 30
0.0
 11
46.10100173950195
 21
41.78300094604492
 31
0.0
  0
LINE
  5
155
  8
SMALL_FEATURE
 10
61.46799850463867
 20
141.73199462890625
 30
0.0
 11
63.88100051879883
 21
141.4145050048828
 31
0.0
  0
LINE
  5
156
  8
SMALL_FEATURE
 10
63.88100051879883
 20
141.4145050048828
 30
0.0
 11
63.817501068115234
 21
134.17550659179688
 31
0.0
  0
LINE
  5
157
  8
SMALL_FEATURE
 10
63.817501068115234
 20
134.17550659179688
 30
0.0
 11
61.40449905395508
 21
133.98500061035156
 31
0.0
  0
LINE
  5
158
  8
SMALL_FEATURE
 10
61.40449905395508
 20
133.98500061035156
 30
0.0
 11
61.46799850463867
 21
141.73199462890625
 31
0.0
  0
LINE
  5
159
  8
SMALL_FEATURE
 10
61.46799850463867
 20
148.9709930419922
 30
0.0
 11
63.88100051879883
 21
148.90750122070312
 31
0.0
  0
LINE
  5
15A
  8
SMALL_FEATURE
 10
63.88100051879883
 20
148.90750122070312
 30
0.0
 11
63.88100051879883
 21
142.30349731445312
 31
0.0
  0
LINE
  5
15B
  8
SMALL_FEATURE
 10
63.88100051879883
 20
142.30349731445312
 30
0.0
 11
61.40449905395508
 21
142.04949951171875
 31
0.0
  0
LINE
  5
15C
  8
SMALL_FEATURE
 10
61.40449905395508
 20
142.04949951171875
 30
0.0
 11
61.46799850463867
 21
148.9709930419922
 31
0.0
  0
LINE
  5
15D
  8
SMALL_FEATURE
 10
82.48650360107422
 20
219.1385040283203
 30
0.0
 11
83.43900299072266
 21
219.0749969482422
 31
0.0
  0
LINE
  5
15E
  8
SMALL_FEATURE
 10
83.43900299072266
 20
219.0749969482422
 30
0.0
 11
83.37550354003906
 21
212.59800720214844
 31
0.0
  0
LINE
  5
15F
  8
SMALL_FEATURE
 10
83.37550354003906
 20
212.59800720214844
 30
0.0
 11
82.4229965209961
 21
212.6614990234375
 31
0.0
  0
LINE
  5
160
  8
SMALL_FEATURE
 10
82.4229965209961
 20
212.6614990234375
 30
0.0
 11
81.47049713134766
 21
213.29649353027344
 31
0.0
  0
LINE
  5
161
  8
SMALL_FEATURE
 10
81.47049713134766
 20
213.29649353027344
 30
0.0
 11
80.39099884033203
 21
215.26499938964844
 31
0.0
  0
LINE
  5
162
  8
SMALL_FEATURE
 10
80.39099884033203
 20
215.26499938964844
 30
0.0
 11
80.39099884033203
 21
216.53500366210938
 31
0.0
  0
LINE
  5
163
  8
SMALL_FEATURE
 10
80.39099884033203
 20
216.53500366210938
 30
0.0
 11
80.77200317382812
 21
217.614501953125
 31
0.0
  0
LINE
  5
164
  8
SMALL_FEATURE
 10
80.77200317382812
 20
217.614501953125
 30
0.0
 11
81.47049713134766
 21
218.5034942626953
 31
0.0
  0
LINE
  5
165
  8
SMALL_FEATURE
 10
81.47049713134766
 20
218.5034942626953
 30
0.0
 11
82.48650360107422
 21
219.1385040283203
 31
0.0
  0
LINE
  5
166
  8
SMALL_FEATURE
 10
43.814998626708984
 20
219.1385040283203
 30
0.0
 11
44.57699966430664
 21
219.1385040283203
 31
0.0
  0
LINE
  5
167
  8
SMALL_FEATURE
 10
44.57699966430664
 20
219.1385040283203
 30
0.0
 11
45.59299850463867
 21
218.5034942626953
 31
0.0
  0
LINE
  5
168
  8
SMALL_FEATURE
 10
45.59299850463867
 20
218.5034942626953
 30
0.0
 11
46.736000061035156
 21
216.53500366210938
 31
0.0
  0
LINE
  5
169
  8
SMALL_FEATURE
 10
46.736000061035156
 20
216.53500366210938
 30
0.0
 11
46.736000061035156
 21
215.20150756835938
 31
0.0
  0
LINE
  5
16A
  8
SMALL_FEATURE
 10
46.736000061035156
 20
215.20150756835938
 30
0.0
 11
46.291500091552734
 21
214.1219940185547
 31
0.0
  0
LINE
  5
16B
  8
SMALL_FEATURE
 10
46.291500091552734
 20
214.1219940185547
 30
0.0
 11
45.59299850463867
 21
213.23300170898438
 31
0.0
  0
LINE
  5
16C
  8
SMALL_FEATURE
 10
45.59299850463867
 20
213.23300170898438
 30
0.0
 11
44.57699966430664
 21
212.59800720214844
 31
0.0
  0
LINE
  5
16D
  8
SMALL_FEATURE
 10
44.57699966430664
 20
212.59800720214844
 30
0.0
 11
43.75149917602539
 21
212.6614990234375
 31
0.0
  0
LINE
  5
16E
  8
SMALL_FEATURE
 10
43.75149917602539
 20
212.6614990234375
 30
0.0
 11
43.814998626708984
 21
219.1385040283203
 31
0.0
  0
LINE
  5
16F
  8
SMALL_FEATURE
 10
64.51599884033203
 20
141.79550170898438
 30
0.0
 11
65.91300201416016
 21
141.73199462890625
 31
0.0
  0
LINE
  5
170
  8
SMALL_FEATURE
 10
65.91300201416016
 20
141.73199462890625
 30
0.0
 11
65.84950256347656
 21
133.85800170898438
 31
0.0
  0
LINE
  5
171
  8
SMALL_FEATURE
 10
65.84950256347656
 20
133.85800170898438
 30
0.0
 11
64.07150268554688
 21
133.92149353027344
 31
0.0
  0
LINE
  5
172
  8
SMALL_FEATURE
 10
64.07150268554688
 20
133.92149353027344
 30
0.0
 11
64.07150268554688
 21
141.3509979248047
 31
0.0
  0
LINE
  5
173
  8
SMALL_FEATURE
 10
64.07150268554688
 20
141.3509979248047
 30
0.0
 11
64.45249938964844
 21
141.4145050048828
 31
0.0
  0
LINE
  5
174
  8
SMALL_FEATURE
 10
64.45249938964844
 20
141.4145050048828
 30
0.0
 11
64.51599884033203
 21
141.79550170898438
 31
0.0
  0
LINE
  5
175
  8
SMALL_FEATURE
 10
64.13500213623047
 20
148.9709930419922
 30
0.0
 11
65.91300201416016
 21
148.7169952392578
 31
0.0
  0
LINE
  5
176
  8
SMALL_FEATURE
 10
65.91300201416016
 20
148.7169952392578
 30
0.0
 11
65.84950256347656
 21
141.98599243164062
 31
0.0
  0
LINE
  5
177
  8
SMALL_FEATURE
 10
65.84950256347656
 20
141.98599243164062
 30
0.0
 11
64.51599884033203
 21
141.98599243164062
 31
0.0
  0
LINE
  5
178
  8
SMALL_FEATURE
 10
64.51599884033203
 20
141.98599243164062
 30
0.0
 11
64.07150268554688
 21
142.36700439453125
 31
0.0
  0
LINE
  5
179
  8
SMALL_FEATURE
 10
64.07150268554688
 20
142.36700439453125
 30
0.0
 11
64.13500213623047
 21
148.9709930419922
 31
0.0
  0
LINE
  5
17A
  8
SMALL_FEATURE
 10
64.13500213623047
 20
156.01950073242188
 30
0.0
 11
65.91300201416016
 21
155.95599365234375
 31
0.0
  0
LINE
  5
17B
  8
SMALL_FEATURE
 10
65.91300201416016
 20
155.95599365234375
 30
0.0
 11
65.91300201416016
 21
149.41549682617188
 31
0.0
  0
LINE
  5
17C
  8
SMALL_FEATURE
 10
65.91300201416016
 20
149.41549682617188
 30
0.0
 11
64.07150268554688
 21
149.22500610351562
 31
0.0
  0
LINE
  5
17D
  8
SMALL_FEATURE
 10
64.07150268554688
 20
149.22500610351562
 30
0.0
 11
64.13500213623047
 21
156.01950073242188
 31
0.0
  0
LINE
  5
17E
  8
SMALL_FEATURE
 10
165.2270050048828
 20
27.55900001525879
 30
0.0
 11
164.9095001220703
 21
29.019500732421875
 31
0.0
  0
LINE
  5
17F
  8
SMALL_FEATURE
 10
164.9095001220703
 20
29.019500732421875
 30
0.0
 11
157.73399353027344
 21
29.019500732421875
 31
0.0
  0
LINE
  5
180
  8
SMALL_FEATURE
 10
157.73399353027344
 20
29.019500732421875
 30
0.0
 11
157.2895050048828
 21
28.511499404907227
 31
0.0
  0
LINE
  5
181
  8
SMALL_FEATURE
 10
157.2895050048828
 20
28.511499404907227
 30
0.0
 11
157.35299682617188
 21
27.812999725341797
 31
0.0
  0
LINE
  5
182
  8
SMALL_FEATURE
 10
157.35299682617188
 20
27.812999725341797
 30
0.0
 11
157.73399353027344
 21
27.495500564575195
 31
0.0
  0
LINE
  5
183
  8
SMALL_FEATURE
 10
157.73399353027344
 20
27.495500564575195
 30
0.0
 11
165.2270050048828
 21
27.55900001525879
 31
0.0
  0
LINE
  5
184
  8
SMALL_FEATURE
 10
160.2740020751953
 20
16.00200080871582
 30
0.0
 11
160.2740020751953
 21
16.319499969482422
 31
0.0
  0
LINE
  5
185
  8
SMALL_FEATURE
 10
160.2740020751953
 20
16.319499969482422
 30
0.0
 11
159.70249938964844
 21
16.382999420166016
 31
0.0
  0
LINE
  5
186
  8
SMALL_FEATURE
 10
159.70249938964844
 20
16.382999420166016
 30
0.0
 11
159.63900756835938
 21
17.462499618530273
 31
0.0
  0
LINE
  5
187
  8
SMALL_FEATURE
 10
159.63900756835938
 20
17.462499618530273
 30
0.0
 11
159.25799560546875
 21
17.71649932861328
 31
0.0
  0
LINE
  5
188
  8
SMALL_FEATURE
 10
159.25799560546875
 20
17.71649932861328
 30
0.0
 11
152.2729949951172
 21
17.652999877929688
 31
0.0
  0
LINE
  5
189
  8
SMALL_FEATURE
 10
152.2729949951172
 20
17.652999877929688
 30
0.0
 11
152.781005859375
 21
16.1924991607666
 31
0.0
  0
LINE
  5
18A
  8
SMALL_FEATURE
 10
152.781005859375
 20
16.1924991607666
 30
0.0
 11
158.11500549316406
 21
16.319499969482422
 31
0.0
  0
LINE
  5
18B
  8
SMALL_FEATURE
 10
158.11500549316406
 20
16.319499969482422
 30
0.0
 11
160.2740020751953
 21
16.00200080871582
 31
0.0
  0
LINE
  5
18C
  8
SMALL_FEATURE
 10
93.28150177001953
 20
225.6790008544922
 30
0.0
 11
93.21800231933594
 21
222.5675048828125
 31
0.0
  0
LINE
  5
18D
  8
SMALL_FEATURE
 10
93.21800231933594
 20
222.5675048828125
 30
0.0
 11
92.90049743652344
 21
222.50399780273438
 31
0.0
  0
LINE
  5
18E
  8
SMALL_FEATURE
 10
92.90049743652344
 20
222.50399780273438
 30
0.0
 11
93.21800231933594
 21
219.64649963378906
 31
0.0
  0
LINE
  5
18F
  8
SMALL_FEATURE
 10
93.21800231933594
 20
219.64649963378906
 30
0.0
 11
88.01100158691406
 21
219.58299255371094
 31
0.0
  0
LINE
  5
190
  8
SMALL_FEATURE
 10
88.01100158691406
 20
219.58299255371094
 30
0.0
 11
93.21800231933594
 21
219.32899475097656
 31
0.0
  0
LINE
  5
191
  8
SMALL_FEATURE
 10
93.21800231933594
 20
219.32899475097656
 30
0.0
 11
93.21800231933594
 21
212.4709930419922
 31
0.0
  0
LINE
  5
192
  8
SMALL_FEATURE
 10
93.21800231933594
 20
212.4709930419922
 30
0.0
 11
88.01100158691406
 21
212.28050231933594
 31
0.0
  0
LINE
  5
193
  8
SMALL_FEATURE
 10
88.01100158691406
 20
212.28050231933594
 30
0.0
 11
93.21800231933594
 21
212.15350341796875
 31
0.0
  0
LINE
  5
194
  8
SMALL_FEATURE
 10
93.21800231933594
 20
212.15350341796875
 30
0.0
 11
92.90049743652344
 21
209.29600524902344
 31
0.0
  0
LINE
  5
195
  8
SMALL_FEATURE
 10
92.90049743652344
 20
209.29600524902344
 30
0.0
 11
93.21800231933594
 21
209.2324981689453
 31
0.0
  0
LINE
  5
196
  8
SMALL_FEATURE
 10
93.21800231933594
 20
209.2324981689453
 30
0.0
 11
93.40850067138672
 21
206.0574951171875
 31
0.0
  0
LINE
  5
197
  8
SMALL_FEATURE
 10
93.40850067138672
 20
206.0574951171875
 30
0.0
 11
93.40850067138672
 21
209.2324981689453
 31
0.0
  0
LINE
  5
198
  8
SMALL_FEATURE
 10
93.40850067138672
 20
209.2324981689453
 30
0.0
 11
93.78949737548828
 21
209.29600524902344
 31
0.0
  0
LINE
  5
199
  8
SMALL_FEATURE
 10
93.78949737548828
 20
209.29600524902344
 30
0.0
 11
93.47200012207031
 21
212.15350341796875
 31
0.0
  0
LINE
  5
19A
  8
SMALL_FEATURE
 10
93.47200012207031
 20
212.15350341796875
 30
0.0
 11
97.28199768066406
 21
212.28050231933594
 31
0.0
  0
LINE
  5
19B
  8
SMALL_FEATURE
 10
97.28199768066406
 20
212.28050231933594
 30
0.0
 11
93.40850067138672
 21
212.4709930419922
 31
0.0
  0
LINE
  5
19C
  8
SMALL_FEATURE
 10
93.40850067138672
 20
212.4709930419922
 30
0.0
 11
93.40850067138672
 21
219.32899475097656
 31
0.0
  0
LINE
  5
19D
  8
SMALL_FEATURE
 10
93.40850067138672
 20
219.32899475097656
 30
0.0
 11
97.28199768066406
 21
219.58299255371094
 31
0.0
  0
LINE
  5
19E
  8
SMALL_FEATURE
 10
97.28199768066406
 20
219.58299255371094
 30
0.0
 11
93.47200012207031
 21
219.64649963378906
 31
0.0
  0
LINE
  5
19F
  8
SMALL_FEATURE
 10
93.47200012207031
 20
219.64649963378906
 30
0.0
 11
93.78949737548828
 21
222.50399780273438
 31
0.0
  0
LINE
  5
1A0
  8
SMALL_FEATURE
 10
93.78949737548828
 20
222.50399780273438
 30
0.0
 11
93.40850067138672
 21
222.5675048828125
 31
0.0
  0
LINE
  5
1A1
  8
SMALL_FEATURE
 10
93.40850067138672
 20
222.5675048828125
 30
0.0
 11
93.28150177001953
 21
225.6790008544922
 31
0.0
  0
LINE
  5
1A2
  8
SMALL_FEATURE
 10
68.0719985961914
 20
37.21099853515625
 30
0.0
 11
68.135498046875
 21
28.447999954223633
 31
0.0
  0
LINE
  5
1A3
  8
SMALL_FEATURE
 10
68.135498046875
 20
28.447999954223633
 30
0.0
 11
68.26249694824219
 21
32.19449996948242
 31
0.0
  0
LINE
  5
1A4
  8
SMALL_FEATURE
 10
68.26249694824219
 20
32.19449996948242
 30
0.0
 11
71.18350219726562
 21
31.940500259399414
 31
0.0
  0
LINE
  5
1A5
  8
SMALL_FEATURE
 10
71.18350219726562
 20
31.940500259399414
 30
0.0
 11
71.24700164794922
 21
32.32149887084961
 31
0.0
  0
LINE
  5
1A6
  8
SMALL_FEATURE
 10
71.24700164794922
 20
32.32149887084961
 30
0.0
 11
84.3280029296875
 21
32.32149887084961
 31
0.0
  0
LINE
  5
1A7
  8
SMALL_FEATURE
 10
84.3280029296875
 20
32.32149887084961
 30
0.0
 11
84.3915023803711
 21
31.940500259399414
 31
0.0
  0
LINE
  5
1A8
  8
SMALL_FEATURE
 10
84.3915023803711
 20
31.940500259399414
 30
0.0
 11
87.3125
 21
32.257999420166016
 31
0.0
  0
LINE
  5
1A9
  8
SMALL_FEATURE
 10
87.3125
 20
32.257999420166016
 30
0.0
 11
87.56649780273438
 21
28.447999954223633
 31
0.0
  0
LINE
  5
1AA
  8
SMALL_FEATURE
 10
87.56649780273438
 20
28.447999954223633
 30
0.0
 11
87.56649780273438
 21
37.27450180053711
 31
0.0
  0
LINE
  5
1AB
  8
SMALL_FEATURE
 10
87.56649780273438
 20
37.27450180053711
 30
0.0
 11
87.3125
 21
32.512001037597656
 31
0.0
  0
LINE
  5
1AC
  8
SMALL_FEATURE
 10
87.3125
 20
32.512001037597656
 30
0.0
 11
84.3915023803711
 21
32.829498291015625
 31
0.0
  0
LINE
  5
1AD
  8
SMALL_FEATURE
 10
84.3915023803711
 20
32.829498291015625
 30
0.0
 11
84.3280029296875
 21
32.512001037597656
 31
0.0
  0
LINE
  5
1AE
  8
SMALL_FEATURE
 10
84.3280029296875
 20
32.512001037597656
 30
0.0
 11
71.24700164794922
 21
32.512001037597656
 31
0.0
  0
LINE
  5
1AF
  8
SMALL_FEATURE
 10
71.24700164794922
 20
32.512001037597656
 30
0.0
 11
71.18350219726562
 21
32.829498291015625
 31
0.0
  0
LINE
  5
1B0
  8
SMALL_FEATURE
 10
71.18350219726562
 20
32.829498291015625
 30
0.0
 11
68.32599639892578
 21
32.512001037597656
 31
0.0
  0
LINE
  5
1B1
  8
SMALL_FEATURE
 10
68.32599639892578
 20
32.512001037597656
 30
0.0
 11
68.26249694824219
 21
37.27450180053711
 31
0.0
  0
LINE
  5
1B2
  8
SMALL_FEATURE
 10
68.26249694824219
 20
37.27450180053711
 30
0.0
 11
68.0719985961914
 21
37.21099853515625
 31
0.0
  0
LINE
  5
1B3
  8
SMALL_FEATURE
 10
53.657501220703125
 20
109.4104995727539
 30
0.0
 11
56.705501556396484
 21
109.28350067138672
 31
0.0
  0
LINE
  5
1B4
  8
SMALL_FEATURE
 10
56.705501556396484
 20
109.28350067138672
 30
0.0
 11
56.76900100708008
 21
108.90249633789062
 31
0.0
  0
LINE
  5
1B5
  8
SMALL_FEATURE
 10
56.76900100708008
 20
108.90249633789062
 30
0.0
 11
59.62649917602539
 21
109.22000122070312
 31
0.0
  0
LINE
  5
1B6
  8
SMALL_FEATURE
 10
59.62649917602539
 20
109.22000122070312
 30
0.0
 11
59.753501892089844
 21
105.47350311279297
 31
0.0
  0
LINE
  5
1B7
  8
SMALL_FEATURE
 10
59.753501892089844
 20
105.47350311279297
 30
0.0
 11
59.944000244140625
 21
109.28350067138672
 31
0.0
  0
LINE
  5
1B8
  8
SMALL_FEATURE
 10
59.944000244140625
 20
109.28350067138672
 30
0.0
 11
65.84950256347656
 21
109.28350067138672
 31
0.0
  0
LINE
  5
1B9
  8
SMALL_FEATURE
 10
65.84950256347656
 20
109.28350067138672
 30
0.0
 11
65.91300201416016
 21
105.47350311279297
 31
0.0
  0
LINE
  5
1BA
  8
SMALL_FEATURE
 10
65.91300201416016
 20
105.47350311279297
 30
0.0
 11
66.16699981689453
 21
109.22000122070312
 31
0.0
  0
LINE
  5
1BB
  8
SMALL_FEATURE
 10
66.16699981689453
 20
109.22000122070312
 30
0.0
 11
69.02449798583984
 21
108.90249633789062
 31
0.0
  0
LINE
  5
1BC
  8
SMALL_FEATURE
 10
69.02449798583984
 20
108.90249633789062
 30
0.0
 11
69.08799743652344
 21
109.28350067138672
 31
0.0
  0
LINE
  5
1BD
  8
SMALL_FEATURE
 10
69.08799743652344
 20
109.28350067138672
 30
0.0
 11
72.13600158691406
 21
109.28350067138672
 31
0.0
  0
LINE
  5
1BE
  8
SMALL_FEATURE
 10
72.13600158691406
 20
109.28350067138672
 30
0.0
 11
69.08799743652344
 21
109.4739990234375
 31
0.0
  0
LINE
  5
1BF
  8
SMALL_FEATURE
 10
69.08799743652344
 20
109.4739990234375
 30
0.0
 11
69.02449798583984
 21
109.79149627685547
 31
0.0
  0
LINE
  5
1C0
  8
SMALL_FEATURE
 10
69.02449798583984
 20
109.79149627685547
 30
0.0
 11
66.16699981689453
 21
109.4739990234375
 31
0.0
  0
LINE
  5
1C1
  8
SMALL_FEATURE
 10
66.16699981689453
 20
109.4739990234375
 30
0.0
 11
66.04000091552734
 21
114.3635025024414
 31
0.0
  0
LINE
  5
1C2
  8
SMALL_FEATURE
 10
66.04000091552734
 20
114.3635025024414
 30
0.0
 11
65.84950256347656
 21
109.4739990234375
 31
0.0
  0
LINE
  5
1C3
  8
SMALL_FEATURE
 10
65.84950256347656
 20
109.4739990234375
 30
0.0
 11
59.944000244140625
 21
109.4739990234375
 31
0.0
  0
LINE
  5
1C4
  8
SMALL_FEATURE
 10
59.944000244140625
 20
109.4739990234375
 30
0.0
 11
59.753501892089844
 21
114.3635025024414
 31
0.0
  0
LINE
  5
1C5
  8
SMALL_FEATURE
 10
59.753501892089844
 20
114.3635025024414
 30
0.0
 11
59.62649917602539
 21
109.4739990234375
 31
0.0
  0
LINE
  5
1C6
  8
SMALL_FEATURE
 10
59.62649917602539
 20
109.4739990234375
 30
0.0
 11
56.76900100708008
 21
109.79149627685547
 31
0.0
  0
LINE
  5
1C7
  8
SMALL_FEATURE
 10
56.76900100708008
 20
109.79149627685547
 30
0.0
 11
56.705501556396484
 21
109.4739990234375
 31
0.0
  0
LINE
  5
1C8
  8
SMALL_FEATURE
 10
56.705501556396484
 20
109.4739990234375
 30
0.0
 11
53.657501220703125
 21
109.4104995727539
 31
0.0
  0
LINE
  5
1C9
  8
SMALL_FEATURE
 10
57.78499984741211
 20
57.53099822998047
 30
0.0
 11
57.78499984741211
 21
43.497501373291016
 31
0.0
  0
LINE
  5
1CA
  8
SMALL_FEATURE
 10
57.78499984741211
 20
43.497501373291016
 30
0.0
 11
58.03900146484375
 21
53.53049850463867
 31
0.0
  0
LINE
  5
1CB
  8
SMALL_FEATURE
 10
58.03900146484375
 20
53.53049850463867
 30
0.0
 11
60.89649963378906
 21
53.2130012512207
 31
0.0
  0
LINE
  5
1CC
  8
SMALL_FEATURE
 10
60.89649963378906
 20
53.2130012512207
 30
0.0
 11
60.959999084472656
 21
53.53049850463867
 31
0.0
  0
LINE
  5
1CD
  8
SMALL_FEATURE
 10
60.959999084472656
 20
53.53049850463867
 30
0.0
 11
65.0875015258789
 21
53.53049850463867
 31
0.0
  0
LINE
  5
1CE
  8
SMALL_FEATURE
 10
65.0875015258789
 20
53.53049850463867
 30
0.0
 11
65.1510009765625
 21
53.2130012512207
 31
0.0
  0
LINE
  5
1CF
  8
SMALL_FEATURE
 10
65.1510009765625
 20
53.2130012512207
 30
0.0
 11
68.00849914550781
 21
53.53049850463867
 31
0.0
  0
LINE
  5
1D0
  8
SMALL_FEATURE
 10
68.00849914550781
 20
53.53049850463867
 30
0.0
 11
68.1989974975586
 21
46.35499954223633
 31
0.0
  0
LINE
  5
1D1
  8
SMALL_FEATURE
 10
68.1989974975586
 20
46.35499954223633
 30
0.0
 11
68.26249694824219
 21
57.53099822998047
 31
0.0
  0
LINE
  5
1D2
  8
SMALL_FEATURE
 10
68.26249694824219
 20
57.53099822998047
 30
0.0
 11
68.0719985961914
 21
53.847999572753906
 31
0.0
  0
LINE
  5
1D3
  8
SMALL_FEATURE
 10
68.0719985961914
 20
53.847999572753906
 30
0.0
 11
65.1510009765625
 21
54.10200119018555
 31
0.0
  0
LINE
  5
1D4
  8
SMALL_FEATURE
 10
65.1510009765625
 20
54.10200119018555
 30
0.0
 11
65.0875015258789
 21
53.72100067138672
 31
0.0
  0
LINE
  5
1D5
  8
SMALL_FEATURE
 10
65.0875015258789
 20
53.72100067138672
 30
0.0
 11
60.959999084472656
 21
53.72100067138672
 31
0.0
  0
LINE
  5
1D6
  8
SMALL_FEATURE
 10
60.959999084472656
 20
53.72100067138672
 30
0.0
 11
60.89649963378906
 21
54.10200119018555
 31
0.0
  0
LINE
  5
1D7
  8
SMALL_FEATURE
 10
60.89649963378906
 20
54.10200119018555
 30
0.0
 11
58.03900146484375
 21
53.78450012207031
 31
0.0
  0
LINE
  5
1D8
  8
SMALL_FEATURE
 10
58.03900146484375
 20
53.78450012207031
 30
0.0
 11
57.78499984741211
 21
57.53099822998047
 31
0.0
  0
LINE
  5
1D9
  8
SMALL_FEATURE
 10
76.70800018310547
 20
118.93550109863281
 30
0.0
 11
82.23249816894531
 21
118.9990005493164
 31
0.0
  0
LINE
  5
1DA
  8
SMALL_FEATURE
 10
82.23249816894531
 20
118.9990005493164
 30
0.0
 11
82.23249816894531
 21
117.66549682617188
 31
0.0
  0
LINE
  5
1DB
  8
SMALL_FEATURE
 10
82.23249816894531
 20
117.66549682617188
 30
0.0
 11
76.70800018310547
 21
117.60199737548828
 31
0.0
  0
LINE
  5
1DC
  8
SMALL_FEATURE
 10
76.70800018310547
 20
117.60199737548828
 30
0.0
 11
76.70800018310547
 21
118.93550109863281
 31
0.0
  0
LINE
  5
1DD
  8
SMALL_FEATURE
 10
17.39900016784668
 20
57.02299880981445
 30
0.0
 11
17.906999588012695
 21
55.5625
 31
0.0
  0
LINE
  5
1DE
  8
SMALL_FEATURE
 10
17.906999588012695
 20
55.5625
 30
0.0
 11
23.4950008392334
 21
55.5625
 31
0.0
  0
LINE
  5
1DF
  8
SMALL_FEATURE
 10
23.4950008392334
 20
55.5625
 30
0.0
 11
22.923500061035156
 21
57.02299880981445
 31
0.0
  0
LINE
  5
1E0
  8
SMALL_FEATURE
 10
22.923500061035156
 20
57.02299880981445
 30
0.0
 11
17.39900016784668
 21
57.02299880981445
 31
0.0
  0
LINE
  5
1E1
  8
SMALL_FEATURE
 10
37.972999572753906
 20
261.42950439453125
 30
0.0
 11
38.48099899291992
 21
259.968994140625
 31
0.0
  0
LINE
  5
1E2
  8
SMALL_FEATURE
 10
38.48099899291992
 20
259.968994140625
 30
0.0
 11
44.00550079345703
 21
259.968994140625
 31
0.0
  0
LINE
  5
1E3
  8
SMALL_FEATURE
 10
44.00550079345703
 20
259.968994140625
 30
0.0
 11
43.497501373291016
 21
261.42950439453125
 31
0.0
  0
LINE
  5
1E4
  8
SMALL_FEATURE
 10
43.497501373291016
 20
261.42950439453125
 30
0.0
 11
37.972999572753906
 21
261.42950439453125
 31
0.0
  0
LINE
  5
1E5
  8
SMALL_FEATURE
 10
110.23600006103516
 20
191.19850158691406
 30
0.0
 11
110.74400329589844
 21
189.73800659179688
 31
0.0
  0
LINE
  5
1E6
  8
SMALL_FEATURE
 10
110.74400329589844
 20
189.73800659179688
 30
0.0
 11
116.26850128173828
 21
189.73800659179688
 31
0.0
  0
LINE
  5
1E7
  8
SMALL_FEATURE
 10
116.26850128173828
 20
189.73800659179688
 30
0.0
 11
115.760498046875
 21
191.19850158691406
 31
0.0
  0
LINE
  5
1E8
  8
SMALL_FEATURE
 10
115.760498046875
 20
191.19850158691406
 30
0.0
 11
110.23600006103516
 21
191.19850158691406
 31
0.0
  0
LINE
  5
1E9
  8
SMALL_FEATURE
 10
155.7655029296875
 20
159.13099670410156
 30
0.0
 11
156.27349853515625
 21
157.67050170898438
 31
0.0
  0
LINE
  5
1EA
  8
SMALL_FEATURE
 10
156.27349853515625
 20
157.67050170898438
 30
0.0
 11
160.65499877929688
 21
157.67050170898438
 31
0.0
  0
LINE
  5
1EB
  8
SMALL_FEATURE
 10
160.65499877929688
 20
157.67050170898438
 30
0.0
 11
160.78199768066406
 21
157.92449951171875
 31
0.0
  0
LINE
  5
1EC
  8
SMALL_FEATURE
 10
160.78199768066406
 20
157.92449951171875
 30
0.0
 11
161.79800415039062
 21
157.67050170898438
 31
0.0
  0
LINE
  5
1ED
  8
SMALL_FEATURE
 10
161.79800415039062
 20
157.67050170898438
 30
0.0
 11
161.2899932861328
 21
159.13099670410156
 31
0.0
  0
LINE
  5
1EE
  8
SMALL_FEATURE
 10
161.2899932861328
 20
159.13099670410156
 30
0.0
 11
155.7655029296875
 21
159.13099670410156
 31
0.0
  0
LINE
  5
1EF
  8
SMALL_FEATURE
 10
27.749500274658203
 20
157.16250610351562
 30
0.0
 11
28.25749969482422
 21
155.70199584960938
 31
0.0
  0
LINE
  5
1F0
  8
SMALL_FEATURE
 10
28.25749969482422
 20
155.70199584960938
 30
0.0
 11
33.78200149536133
 21
155.70199584960938
 31
0.0
  0
LINE
  5
1F1
  8
SMALL_FEATURE
 10
33.78200149536133
 20
155.70199584960938
 30
0.0
 11
33.27399826049805
 21
157.16250610351562
 31
0.0
  0
LINE
  5
1F2
  8
SMALL_FEATURE
 10
33.27399826049805
 20
157.16250610351562
 30
0.0
 11
27.749500274658203
 21
157.16250610351562
 31
0.0
  0
LINE
  5
1F3
  8
SMALL_FEATURE
 10
162.30599975585938
 20
181.3560028076172
 30
0.0
 11
160.2104949951172
 21
174.24400329589844
 31
0.0
  0
LINE
  5
1F4
  8
SMALL_FEATURE
 10
160.2104949951172
 20
174.24400329589844
 30
0.0
 11
161.41700744628906
 21
178.30799865722656
 31
0.0
  0
LINE
  5
1F5
  8
SMALL_FEATURE
 10
161.41700744628906
 20
178.30799865722656
 30
0.0
 11
162.24249267578125
 21
178.3715057373047
 31
0.0
  0
LINE
  5
1F6
  8
SMALL_FEATURE
 10
162.24249267578125
 20
178.3715057373047
 30
0.0
 11
162.3695068359375
 21
162.43299865722656
 31
0.0
  0
LINE
  5
1F7
  8
SMALL_FEATURE
 10
162.3695068359375
 20
162.43299865722656
 30
0.0
 11
162.43299865722656
 21
178.49850463867188
 31
0.0
  0
LINE
  5
1F8
  8
SMALL_FEATURE
 10
162.43299865722656
 20
178.49850463867188
 30
0.0
 11
163.2584991455078
 21
178.43499755859375
 31
0.0
  0
LINE
  5
1F9
  8
SMALL_FEATURE
 10
163.2584991455078
 20
178.43499755859375
 30
0.0
 11
164.52850341796875
 21
174.37100219726562
 31
0.0
  0
LINE
  5
1FA
  8
SMALL_FEATURE
 10
164.52850341796875
 20
174.37100219726562
 30
0.0
 11
162.30599975585938
 21
181.3560028076172
 31
0.0
  0
LINE
  5
1FB
  8
JACK_ROUTE
 10
131.25450134277344
 20
39.87799835205078
 30
0.0
 11
180.53050231933594
 21
39.94150161743164
 31
0.0
  0
LINE
  5
1FC
  8
JACK_ROUTE
 10
180.53050231933594
 20
39.94150161743164
 30
0.0
 11
180.593994140625
 21
24.892000198364258
 31
0.0
  0
LINE
  5
1FD
  8
JACK_ROUTE
 10
180.593994140625
 20
24.892000198364258
 30
0.0
 11
179.51449584960938
 21
24.892000198364258
 31
0.0
  0
LINE
  5
1FE
  8
JACK_ROUTE
 10
179.51449584960938
 20
24.892000198364258
 30
0.0
 11
179.51449584960938
 21
26.416000366210938
 31
0.0
  0
LINE
  5
1FF
  8
JACK_ROUTE
 10
179.51449584960938
 20
26.416000366210938
 30
0.0
 11
179.19700622558594
 21
26.797000885009766
 31
0.0
  0
LINE
  5
200
  8
JACK_ROUTE
 10
179.19700622558594
 20
26.797000885009766
 30
0.0
 11
176.7205047607422
 21
26.797000885009766
 31
0.0
  0
LINE
  5
201
  8
JACK_ROUTE
 10
176.7205047607422
 20
26.797000885009766
 30
0.0
 11
176.33949279785156
 21
25.527000427246094
 31
0.0
  0
LINE
  5
202
  8
JACK_ROUTE
 10
176.33949279785156
 20
25.527000427246094
 30
0.0
 11
175.57749938964844
 21
25.527000427246094
 31
0.0
  0
LINE
  5
203
  8
JACK_ROUTE
 10
175.57749938964844
 20
25.527000427246094
 30
0.0
 11
175.0695037841797
 21
26.797000885009766
 31
0.0
  0
LINE
  5
204
  8
JACK_ROUTE
 10
175.0695037841797
 20
26.797000885009766
 30
0.0
 11
173.86300659179688
 21
26.797000885009766
 31
0.0
  0
LINE
  5
205
  8
JACK_ROUTE
 10
173.86300659179688
 20
26.797000885009766
 30
0.0
 11
173.79949951171875
 21
25.717500686645508
 31
0.0
  0
LINE
  5
206
  8
JACK_ROUTE
 10
173.79949951171875
 20
25.717500686645508
 30
0.0
 11
172.9739990234375
 21
25.7810001373291
 31
0.0
  0
LINE
  5
207
  8
JACK_ROUTE
 10
172.9739990234375
 20
25.7810001373291
 30
0.0
 11
172.9739990234375
 21
26.797000885009766
 31
0.0
  0
LINE
  5
208
  8
JACK_ROUTE
 10
172.9739990234375
 20
26.797000885009766
 30
0.0
 11
168.91000366210938
 21
26.797000885009766
 31
0.0
  0
LINE
  5
209
  8
JACK_ROUTE
 10
168.91000366210938
 20
26.797000885009766
 30
0.0
 11
168.84649658203125
 21
24.828500747680664
 31
0.0
  0
LINE
  5
20A
  8
JACK_ROUTE
 10
168.84649658203125
 20
24.828500747680664
 30
0.0
 11
131.3179931640625
 21
24.828500747680664
 31
0.0
  0
LINE
  5
20B
  8
JACK_ROUTE
 10
131.3179931640625
 20
24.828500747680664
 30
0.0
 11
131.25450134277344
 21
39.87799835205078
 31
0.0
  0
LINE
  5
20C
  8
JACK_ROUTE
 10
79.18450164794922
 20
156.2100067138672
 30
0.0
 11
69.08799743652344
 21
156.2100067138672
 31
0.0
  0
LINE
  5
20D
  8
JACK_ROUTE
 10
69.08799743652344
 20
156.2100067138672
 30
0.0
 11
69.02449798583984
 21
156.52749633789062
 31
0.0
  0
LINE
  5
20E
  8
JACK_ROUTE
 10
69.02449798583984
 20
156.52749633789062
 30
0.0
 11
66.16699981689453
 21
156.2100067138672
 31
0.0
  0
LINE
  5
20F
  8
JACK_ROUTE
 10
66.16699981689453
 20
156.2100067138672
 30
0.0
 11
66.04000091552734
 21
159.9564971923828
 31
0.0
  0
LINE
  5
210
  8
JACK_ROUTE
 10
66.04000091552734
 20
159.9564971923828
 30
0.0
 11
65.91300201416016
 21
156.27349853515625
 31
0.0
  0
LINE
  5
211
  8
JACK_ROUTE
 10
65.91300201416016
 20
156.27349853515625
 30
0.0
 11
64.13500213623047
 21
156.2100067138672
 31
0.0
  0
LINE
  5
212
  8
JACK_ROUTE
 10
64.13500213623047
 20
156.2100067138672
 30
0.0
 11
63.88100051879883
 21
159.9564971923828
 31
0.0
  0
LINE
  5
213
  8
JACK_ROUTE
 10
63.88100051879883
 20
159.9564971923828
 30
0.0
 11
63.817501068115234
 21
156.2100067138672
 31
0.0
  0
LINE
  5
214
  8
JACK_ROUTE
 10
63.817501068115234
 20
156.2100067138672
 30
0.0
 11
60.959999084472656
 21
156.52749633789062
 31
0.0
  0
LINE
  5
215
  8
JACK_ROUTE
 10
60.959999084472656
 20
156.52749633789062
 30
0.0
 11
60.89649963378906
 21
156.2100067138672
 31
0.0
  0
LINE
  5
216
  8
JACK_ROUTE
 10
60.89649963378906
 20
156.2100067138672
 30
0.0
 11
57.78499984741211
 21
156.14649963378906
 31
0.0
  0
LINE
  5
217
  8
JACK_ROUTE
 10
57.78499984741211
 20
156.14649963378906
 30
0.0
 11
60.89649963378906
 21
156.01950073242188
 31
0.0
  0
LINE
  5
218
  8
JACK_ROUTE
 10
60.89649963378906
 20
156.01950073242188
 30
0.0
 11
60.959999084472656
 21
155.6385040283203
 31
0.0
  0
LINE
  5
219
  8
JACK_ROUTE
 10
60.959999084472656
 20
155.6385040283203
 30
0.0
 11
63.88100051879883
 21
155.8925018310547
 31
0.0
  0
LINE
  5
21A
  8
JACK_ROUTE
 10
63.88100051879883
 20
155.8925018310547
 30
0.0
 11
63.817501068115234
 21
149.1614990234375
 31
0.0
  0
LINE
  5
21B
  8
JACK_ROUTE
 10
63.817501068115234
 20
149.1614990234375
 30
0.0
 11
61.40449905395508
 21
149.22500610351562
 31
0.0
  0
LINE
  5
21C
  8
JACK_ROUTE
 10
61.40449905395508
 20
149.22500610351562
 30
0.0
 11
61.40449905395508
 21
153.03500366210938
 31
0.0
  0
LINE
  5
21D
  8
JACK_ROUTE
 10
61.40449905395508
 20
153.03500366210938
 30
0.0
 11
61.1505012512207
 21
149.1614990234375
 31
0.0
  0
LINE
  5
21E
  8
JACK_ROUTE
 10
61.1505012512207
 20
149.1614990234375
 30
0.0
 11
58.41999816894531
 21
149.54249572753906
 31
0.0
  0
LINE
  5
21F
  8
JACK_ROUTE
 10
58.41999816894531
 20
149.54249572753906
 30
0.0
 11
58.22949981689453
 21
149.1614990234375
 31
0.0
  0
LINE
  5
220
  8
JACK_ROUTE
 10
58.22949981689453
 20
149.1614990234375
 30
0.0
 11
44.640499114990234
 21
149.1614990234375
 31
0.0
  0
LINE
  5
221
  8
JACK_ROUTE
 10
44.640499114990234
 20
149.1614990234375
 30
0.0
 11
58.22949981689453
 21
148.9709930419922
 31
0.0
  0
LINE
  5
222
  8
JACK_ROUTE
 10
58.22949981689453
 20
148.9709930419922
 30
0.0
 11
58.292999267578125
 21
148.58999633789062
 31
0.0
  0
LINE
  5
223
  8
JACK_ROUTE
 10
58.292999267578125
 20
148.58999633789062
 30
0.0
 11
61.2140007019043
 21
148.90750122070312
 31
0.0
  0
LINE
  5
224
  8
JACK_ROUTE
 10
61.2140007019043
 20
148.90750122070312
 30
0.0
 11
61.2140007019043
 21
145.79600524902344
 31
0.0
  0
LINE
  5
225
  8
JACK_ROUTE
 10
61.2140007019043
 20
145.79600524902344
 30
0.0
 11
60.64250183105469
 21
145.66900634765625
 31
0.0
  0
LINE
  5
226
  8
JACK_ROUTE
 10
60.64250183105469
 20
145.66900634765625
 30
0.0
 11
60.57899856567383
 21
141.98599243164062
 31
0.0
  0
LINE
  5
227
  8
JACK_ROUTE
 10
60.57899856567383
 20
141.98599243164062
 30
0.0
 11
57.721500396728516
 21
142.30349731445312
 31
0.0
  0
LINE
  5
228
  8
JACK_ROUTE
 10
57.721500396728516
 20
142.30349731445312
 30
0.0
 11
57.65800094604492
 21
141.98599243164062
 31
0.0
  0
LINE
  5
229
  8
JACK_ROUTE
 10
57.65800094604492
 20
141.98599243164062
 30
0.0
 11
45.78350067138672
 21
141.92250061035156
 31
0.0
  0
LINE
  5
22A
  8
JACK_ROUTE
 10
45.78350067138672
 20
141.92250061035156
 30
0.0
 11
57.65800094604492
 21
141.79550170898438
 31
0.0
  0
LINE
  5
22B
  8
JACK_ROUTE
 10
57.65800094604492
 20
141.79550170898438
 30
0.0
 11
57.721500396728516
 21
141.4145050048828
 31
0.0
  0
LINE
  5
22C
  8
JACK_ROUTE
 10
57.721500396728516
 20
141.4145050048828
 30
0.0
 11
60.57899856567383
 21
141.73199462890625
 31
0.0
  0
LINE
  5
22D
  8
JACK_ROUTE
 10
60.57899856567383
 20
141.73199462890625
 30
0.0
 11
60.64250183105469
 21
137.66799926757812
 31
0.0
  0
LINE
  5
22E
  8
JACK_ROUTE
 10
60.64250183105469
 20
137.66799926757812
 30
0.0
 11
59.689998626708984
 21
137.54100036621094
 31
0.0
  0
LINE
  5
22F
  8
JACK_ROUTE
 10
59.689998626708984
 20
137.54100036621094
 30
0.0
 11
59.62649917602539
 21
133.85800170898438
 31
0.0
  0
LINE
  5
230
  8
JACK_ROUTE
 10
59.62649917602539
 20
133.85800170898438
 30
0.0
 11
56.76900100708008
 21
134.17550659179688
 31
0.0
  0
LINE
  5
231
  8
JACK_ROUTE
 10
56.76900100708008
 20
134.17550659179688
 30
0.0
 11
56.705501556396484
 21
133.85800170898438
 31
0.0
  0
LINE
  5
232
  8
JACK_ROUTE
 10
56.705501556396484
 20
133.85800170898438
 30
0.0
 11
44.83100128173828
 21
133.66749572753906
 31
0.0
  0
LINE
  5
233
  8
JACK_ROUTE
 10
44.83100128173828
 20
133.66749572753906
 30
0.0
 11
56.705501556396484
 21
133.66749572753906
 31
0.0
  0
LINE
  5
234
  8
JACK_ROUTE
 10
56.705501556396484
 20
133.66749572753906
 30
0.0
 11
56.76900100708008
 21
133.2864990234375
 31
0.0
  0
LINE
  5
235
  8
JACK_ROUTE
 10
56.76900100708008
 20
133.2864990234375
 30
0.0
 11
59.62649917602539
 21
133.60400390625
 31
0.0
  0
LINE
  5
236
  8
JACK_ROUTE
 10
59.62649917602539
 20
133.60400390625
 30
0.0
 11
59.753501892089844
 21
123.44400024414062
 31
0.0
  0
LINE
  5
237
  8
JACK_ROUTE
 10
59.753501892089844
 20
123.44400024414062
 30
0.0
 11
60.769500732421875
 21
123.44400024414062
 31
0.0
  0
LINE
  5
238
  8
JACK_ROUTE
 10
60.769500732421875
 20
123.44400024414062
 30
0.0
 11
60.89649963378906
 21
123.82499694824219
 31
0.0
  0
LINE
  5
239
  8
JACK_ROUTE
 10
60.89649963378906
 20
123.82499694824219
 30
0.0
 11
61.40449905395508
 21
123.82499694824219
 31
0.0
  0
LINE
  5
23A
  8
JACK_ROUTE
 10
61.40449905395508
 20
123.82499694824219
 30
0.0
 11
61.40449905395508
 21
133.4770050048828
 31
0.0
  0
LINE
  5
23B
  8
JACK_ROUTE
 10
61.40449905395508
 20
133.4770050048828
 30
0.0
 11
63.88100051879883
 21
133.22300720214844
 31
0.0
  0
LINE
  5
23C
  8
JACK_ROUTE
 10
63.88100051879883
 20
133.22300720214844
 30
0.0
 11
64.00800323486328
 21
123.44400024414062
 31
0.0
  0
LINE
  5
23D
  8
JACK_ROUTE
 10
64.00800323486328
 20
123.44400024414062
 30
0.0
 11
64.07150268554688
 21
133.60400390625
 31
0.0
  0
LINE
  5
23E
  8
JACK_ROUTE
 10
64.07150268554688
 20
133.60400390625
 30
0.0
 11
65.84950256347656
 21
133.66749572753906
 31
0.0
  0
LINE
  5
23F
  8
JACK_ROUTE
 10
65.84950256347656
 20
133.66749572753906
 30
0.0
 11
66.04000091552734
 21
123.44400024414062
 31
0.0
  0
LINE
  5
240
  8
JACK_ROUTE
 10
66.04000091552734
 20
123.44400024414062
 30
0.0
 11
66.10350036621094
 21
133.60400390625
 31
0.0
  0
LINE
  5
241
  8
JACK_ROUTE
 10
66.10350036621094
 20
133.60400390625
 30
0.0
 11
66.99250030517578
 21
133.66749572753906
 31
0.0
  0
LINE
  5
242
  8
JACK_ROUTE
 10
66.99250030517578
 20
133.66749572753906
 30
0.0
 11
66.10350036621094
 21
133.92149353027344
 31
0.0
  0
LINE
  5
243
  8
JACK_ROUTE
 10
66.10350036621094
 20
133.92149353027344
 30
0.0
 11
66.10350036621094
 21
141.73199462890625
 31
0.0
  0
LINE
  5
244
  8
JACK_ROUTE
 10
66.10350036621094
 20
141.73199462890625
 30
0.0
 11
67.56400299072266
 21
141.79550170898438
 31
0.0
  0
LINE
  5
245
  8
JACK_ROUTE
 10
67.56400299072266
 20
141.79550170898438
 30
0.0
 11
66.10350036621094
 21
142.04949951171875
 31
0.0
  0
LINE
  5
246
  8
JACK_ROUTE
 10
66.10350036621094
 20
142.04949951171875
 30
0.0
 11
66.10350036621094
 21
148.52650451660156
 31
0.0
  0
LINE
  5
247
  8
JACK_ROUTE
 10
66.10350036621094
 20
148.52650451660156
 30
0.0
 11
66.99250030517578
 21
148.58999633789062
 31
0.0
  0
LINE
  5
248
  8
JACK_ROUTE
 10
66.99250030517578
 20
148.58999633789062
 30
0.0
 11
67.05599975585938
 21
148.9709930419922
 31
0.0
  0
LINE
  5
249
  8
JACK_ROUTE
 10
67.05599975585938
 20
148.9709930419922
 30
0.0
 11
70.23100280761719
 21
149.0345001220703
 31
0.0
  0
LINE
  5
24A
  8
JACK_ROUTE
 10
70.23100280761719
 20
149.0345001220703
 30
0.0
 11
67.05599975585938
 21
149.1614990234375
 31
0.0
  0
LINE
  5
24B
  8
JACK_ROUTE
 10
67.05599975585938
 20
149.1614990234375
 30
0.0
 11
66.92900085449219
 21
149.54249572753906
 31
0.0
  0
LINE
  5
24C
  8
JACK_ROUTE
 10
66.92900085449219
 20
149.54249572753906
 30
0.0
 11
66.10350036621094
 21
149.6060028076172
 31
0.0
  0
LINE
  5
24D
  8
JACK_ROUTE
 10
66.10350036621094
 20
149.6060028076172
 30
0.0
 11
66.10350036621094
 21
155.8925018310547
 31
0.0
  0
LINE
  5
24E
  8
JACK_ROUTE
 10
66.10350036621094
 20
155.8925018310547
 30
0.0
 11
69.02449798583984
 21
155.6385040283203
 31
0.0
  0
LINE
  5
24F
  8
JACK_ROUTE
 10
69.02449798583984
 20
155.6385040283203
 30
0.0
 11
69.08799743652344
 21
156.01950073242188
 31
0.0
  0
LINE
  5
250
  8
JACK_ROUTE
 10
69.08799743652344
 20
156.01950073242188
 30
0.0
 11
79.24800109863281
 21
156.01950073242188
 31
0.0
  0
LINE
  5
251
  8
JACK_ROUTE
 10
79.24800109863281
 20
156.01950073242188
 30
0.0
 11
79.18450164794922
 21
156.2100067138672
 31
0.0
  0
LINE
  5
252
  8
BRIDGE_ROUTE
 10
129.73049926757812
 20
9.524999618530273
 30
0.0
 11
129.79400634765625
 21
41.46549987792969
 31
0.0
  0
LINE
  5
253
  8
BRIDGE_ROUTE
 10
129.79400634765625
 20
41.46549987792969
 30
0.0
 11
198.2469940185547
 21
41.402000427246094
 31
0.0
  0
LINE
  5
254
  8
BRIDGE_ROUTE
 10
198.2469940185547
 20
41.402000427246094
 30
0.0
 11
198.18350219726562
 21
40.13199996948242
 31
0.0
  0
LINE
  5
255
  8
BRIDGE_ROUTE
 10
198.18350219726562
 20
40.13199996948242
 30
0.0
 11
131.1909942626953
 21
40.13199996948242
 31
0.0
  0
LINE
  5
256
  8
BRIDGE_ROUTE
 10
131.1909942626953
 20
40.13199996948242
 30
0.0
 11
131.06399536132812
 21
9.524999618530273
 31
0.0
  0
LINE
  5
257
  8
BRIDGE_ROUTE
 10
131.06399536132812
 20
9.524999618530273
 30
0.0
 11
129.73049926757812
 21
9.524999618530273
 31
0.0
  0
LINE
  5
258
  8
CONTROL_CAVITY
 10
149.1614990234375
 20
262.1914978027344
 30
0.0
 11
153.9239959716797
 21
263.1440124511719
 31
0.0
  0
LINE
  5
259
  8
CONTROL_CAVITY
 10
153.9239959716797
 20
263.1440124511719
 30
0.0
 11
169.73550415039062
 21
263.2074890136719
 31
0.0
  0
LINE
  5
25A
  8
CONTROL_CAVITY
 10
169.73550415039062
 20
263.2074890136719
 30
0.0
 11
173.86300659179688
 21
262.9534912109375
 31
0.0
  0
LINE
  5
25B
  8
CONTROL_CAVITY
 10
173.86300659179688
 20
262.9534912109375
 30
0.0
 11
178.0540008544922
 21
261.81048583984375
 31
0.0
  0
LINE
  5
25C
  8
CONTROL_CAVITY
 10
178.0540008544922
 20
261.81048583984375
 30
0.0
 11
181.92750549316406
 21
259.5880126953125
 31
0.0
  0
LINE
  5
25D
  8
CONTROL_CAVITY
 10
181.92750549316406
 20
259.5880126953125
 30
0.0
 11
185.1024932861328
 21
256.5400085449219
 31
0.0
  0
LINE
  5
25E
  8
CONTROL_CAVITY
 10
185.1024932861328
 20
256.5400085449219
 30
0.0
 11
187.6425018310547
 21
252.72999572753906
 31
0.0
  0
LINE
  5
25F
  8
CONTROL_CAVITY
 10
187.6425018310547
 20
252.72999572753906
 30
0.0
 11
189.48399353027344
 21
248.53900146484375
 31
0.0
  0
LINE
  5
260
  8
CONTROL_CAVITY
 10
189.48399353027344
 20
248.53900146484375
 30
0.0
 11
190.43649291992188
 21
244.47500610351562
 31
0.0
  0
LINE
  5
261
  8
CONTROL_CAVITY
 10
190.43649291992188
 20
244.47500610351562
 30
0.0
 11
190.43649291992188
 21
240.47450256347656
 31
0.0
  0
LINE
  5
262
  8
CONTROL_CAVITY
 10
190.43649291992188
 20
240.47450256347656
 30
0.0
 11
190.0554962158203
 21
237.6804962158203
 31
0.0
  0
LINE
  5
263
  8
CONTROL_CAVITY
 10
190.0554962158203
 20
237.6804962158203
 30
0.0
 11
187.26150512695312
 21
226.12350463867188
 31
0.0
  0
LINE
  5
264
  8
CONTROL_CAVITY
 10
187.26150512695312
 20
226.12350463867188
 30
0.0
 11
187.26150512695312
 21
220.281494140625
 31
0.0
  0
LINE
  5
265
  8
CONTROL_CAVITY
 10
187.26150512695312
 20
220.281494140625
 30
0.0
 11
188.4044952392578
 21
215.70950317382812
 31
0.0
  0
LINE
  5
266
  8
CONTROL_CAVITY
 10
188.4044952392578
 20
215.70950317382812
 30
0.0
 11
189.99200439453125
 21
211.70899963378906
 31
0.0
  0
LINE
  5
267
  8
CONTROL_CAVITY
 10
189.99200439453125
 20
211.70899963378906
 30
0.0
 11
198.2469940185547
 21
196.08799743652344
 31
0.0
  0
LINE
  5
268
  8
CONTROL_CAVITY
 10
198.2469940185547
 20
196.08799743652344
 30
0.0
 11
198.2469940185547
 21
171.95799255371094
 31
0.0
  0
LINE
  5
269
  8
CONTROL_CAVITY
 10
198.2469940185547
 20
171.95799255371094
 30
0.0
 11
194.6909942626953
 21
166.62399291992188
 31
0.0
  0
LINE
  5
26A
  8
CONTROL_CAVITY
 10
194.6909942626953
 20
166.62399291992188
 30
0.0
 11
191.38900756835938
 21
163.0679931640625
 31
0.0
  0
LINE
  5
26B
  8
CONTROL_CAVITY
 10
191.38900756835938
 20
163.0679931640625
 30
0.0
 11
188.02349853515625
 21
160.5915069580078
 31
0.0
  0
LINE
  5
26C
  8
CONTROL_CAVITY
 10
188.02349853515625
 20
160.5915069580078
 30
0.0
 11
184.0229949951172
 21
158.6230010986328
 31
0.0
  0
LINE
  5
26D
  8
CONTROL_CAVITY
 10
184.0229949951172
 20
158.6230010986328
 30
0.0
 11
179.64149475097656
 21
157.41650390625
 31
0.0
  0
LINE
  5
26E
  8
CONTROL_CAVITY
 10
179.64149475097656
 20
157.41650390625
 30
0.0
 11
170.94200134277344
 21
155.82899475097656
 31
0.0
  0
LINE
  5
26F
  8
CONTROL_CAVITY
 10
170.94200134277344
 20
155.82899475097656
 30
0.0
 11
155.19400024414062
 21
155.82899475097656
 31
0.0
  0
LINE
  5
270
  8
CONTROL_CAVITY
 10
155.19400024414062
 20
155.82899475097656
 30
0.0
 11
150.9394989013672
 21
156.40049743652344
 31
0.0
  0
LINE
  5
271
  8
CONTROL_CAVITY
 10
150.9394989013672
 20
156.40049743652344
 30
0.0
 11
144.01800537109375
 21
158.05149841308594
 31
0.0
  0
LINE
  5
272
  8
CONTROL_CAVITY
 10
144.01800537109375
 20
158.05149841308594
 30
0.0
 11
138.5570068359375
 21
160.2740020751953
 31
0.0
  0
LINE
  5
273
  8
CONTROL_CAVITY
 10
138.5570068359375
 20
160.2740020751953
 30
0.0
 11
136.27099609375
 21
161.7344970703125
 31
0.0
  0
LINE
  5
274
  8
CONTROL_CAVITY
 10
136.27099609375
 20
161.7344970703125
 30
0.0
 11
133.1595001220703
 21
164.52850341796875
 31
0.0
  0
LINE
  5
275
  8
CONTROL_CAVITY
 10
133.1595001220703
 20
164.52850341796875
 30
0.0
 11
130.04800415039062
 21
168.27499389648438
 31
0.0
  0
LINE
  5
276
  8
CONTROL_CAVITY
 10
130.04800415039062
 20
168.27499389648438
 30
0.0
 11
127.82550048828125
 21
171.7675018310547
 31
0.0
  0
LINE
  5
277
  8
CONTROL_CAVITY
 10
127.82550048828125
 20
171.7675018310547
 30
0.0
 11
125.92050170898438
 21
175.89500427246094
 31
0.0
  0
LINE
  5
278
  8
CONTROL_CAVITY
 10
125.92050170898438
 20
175.89500427246094
 30
0.0
 11
124.90450286865234
 21
180.14950561523438
 31
0.0
  0
LINE
  5
279
  8
CONTROL_CAVITY
 10
124.90450286865234
 20
180.14950561523438
 30
0.0
 11
124.71399688720703
 21
185.7375030517578
 31
0.0
  0
LINE
  5
27A
  8
CONTROL_CAVITY
 10
124.71399688720703
 20
185.7375030517578
 30
0.0
 11
125.09500122070312
 21
188.46800231933594
 31
0.0
  0
LINE
  5
27B
  8
CONTROL_CAVITY
 10
125.09500122070312
 20
188.46800231933594
 30
0.0
 11
134.36599731445312
 21
188.46800231933594
 31
0.0
  0
LINE
  5
27C
  8
CONTROL_CAVITY
 10
134.36599731445312
 20
188.46800231933594
 30
0.0
 11
134.30250549316406
 21
187.6425018310547
 31
0.0
  0
LINE
  5
27D
  8
CONTROL_CAVITY
 10
134.30250549316406
 20
187.6425018310547
 30
0.0
 11
130.23849487304688
 21
186.43600463867188
 31
0.0
  0
LINE
  5
27E
  8
CONTROL_CAVITY
 10
130.23849487304688
 20
186.43600463867188
 30
0.0
 11
137.16000366210938
 21
188.46800231933594
 31
0.0
  0
LINE
  5
27F
  8
CONTROL_CAVITY
 10
137.16000366210938
 20
188.46800231933594
 30
0.0
 11
130.302001953125
 21
190.6905059814453
 31
0.0
  0
LINE
  5
280
  8
CONTROL_CAVITY
 10
130.302001953125
 20
190.6905059814453
 30
0.0
 11
134.36599731445312
 21
189.42050170898438
 31
0.0
  0
LINE
  5
281
  8
CONTROL_CAVITY
 10
134.36599731445312
 20
189.42050170898438
 30
0.0
 11
134.42950439453125
 21
188.59500122070312
 31
0.0
  0
LINE
  5
282
  8
CONTROL_CAVITY
 10
134.42950439453125
 20
188.59500122070312
 30
0.0
 11
125.22200012207031
 21
188.59500122070312
 31
0.0
  0
LINE
  5
283
  8
CONTROL_CAVITY
 10
125.22200012207031
 20
188.59500122070312
 30
0.0
 11
125.2854995727539
 21
189.61099243164062
 31
0.0
  0
LINE
  5
284
  8
CONTROL_CAVITY
 10
125.2854995727539
 20
189.61099243164062
 30
0.0
 11
126.17449951171875
 21
189.80149841308594
 31
0.0
  0
LINE
  5
285
  8
CONTROL_CAVITY
 10
126.17449951171875
 20
189.80149841308594
 30
0.0
 11
125.60299682617188
 21
189.92849731445312
 31
0.0
  0
LINE
  5
286
  8
CONTROL_CAVITY
 10
125.60299682617188
 20
189.92849731445312
 30
0.0
 11
125.60299682617188
 21
190.75399780273438
 31
0.0
  0
LINE
  5
287
  8
CONTROL_CAVITY
 10
125.60299682617188
 20
190.75399780273438
 30
0.0
 11
126.68250274658203
 21
193.73849487304688
 31
0.0
  0
LINE
  5
288
  8
CONTROL_CAVITY
 10
126.68250274658203
 20
193.73849487304688
 30
0.0
 11
135.76300048828125
 21
211.3280029296875
 31
0.0
  0
LINE
  5
289
  8
CONTROL_CAVITY
 10
135.76300048828125
 20
211.3280029296875
 30
0.0
 11
137.4774932861328
 21
215.26499938964844
 31
0.0
  0
LINE
  5
28A
  8
CONTROL_CAVITY
 10
137.4774932861328
 20
215.26499938964844
 30
0.0
 11
138.49349975585938
 21
219.1385040283203
 31
0.0
  0
LINE
  5
28B
  8
CONTROL_CAVITY
 10
138.49349975585938
 20
219.1385040283203
 30
0.0
 11
139.00149536132812
 21
222.88499450683594
 31
0.0
  0
LINE
  5
28C
  8
CONTROL_CAVITY
 10
139.00149536132812
 20
222.88499450683594
 30
0.0
 11
138.74749755859375
 21
226.18699645996094
 31
0.0
  0
LINE
  5
28D
  8
CONTROL_CAVITY
 10
138.74749755859375
 20
226.18699645996094
 30
0.0
 11
135.63600158691406
 21
239.3314971923828
 31
0.0
  0
LINE
  5
28E
  8
CONTROL_CAVITY
 10
135.63600158691406
 20
239.3314971923828
 30
0.0
 11
135.44549560546875
 21
243.33200073242188
 31
0.0
  0
LINE
  5
28F
  8
CONTROL_CAVITY
 10
135.44549560546875
 20
243.33200073242188
 30
0.0
 11
135.88999938964844
 21
246.1894989013672
 31
0.0
  0
LINE
  5
290
  8
CONTROL_CAVITY
 10
135.88999938964844
 20
246.1894989013672
 30
0.0
 11
137.85850524902344
 21
251.65049743652344
 31
0.0
  0
LINE
  5
291
  8
CONTROL_CAVITY
 10
137.85850524902344
 20
251.65049743652344
 30
0.0
 11
140.52549743652344
 21
255.968505859375
 31
0.0
  0
LINE
  5
292
  8
CONTROL_CAVITY
 10
140.52549743652344
 20
255.968505859375
 30
0.0
 11
142.7480010986328
 21
258.5085144042969
 31
0.0
  0
LINE
  5
293
  8
CONTROL_CAVITY
 10
142.7480010986328
 20
258.5085144042969
 30
0.0
 11
145.28799438476562
 21
260.41351318359375
 31
0.0
  0
LINE
  5
294
  8
CONTROL_CAVITY
 10
145.28799438476562
 20
260.41351318359375
 30
0.0
 11
149.1614990234375
 21
262.1914978027344
 31
0.0
  0
ENDSEC
  0
EOF
