  0
SECTION
  2
HEADER
  9
$ACADVER
  1
AC1009
  9
$DWGCODEPAGE
  3
ANSI_1252
  9
$INSBASE
 10
0.0
 20
0.0
 30
0.0
  9
$EXTMIN
 10
1e+20
 20
1e+20
 30
1e+20
  9
$EXTMAX
 10
-1e+20
 20
-1e+20
 30
-1e+20
  9
$LIMMIN
 10
0.0
 20
0.0
  9
$LIMMAX
 10
420.0
 20
297.0
  9
$ORTHOMODE
 70
0
  9
$REGENMODE
 70
1
  9
$FILLMODE
 70
1
  9
$DRAGMODE
 70
2
  9
$QTEXTMODE
 70
0
  9
$MIRRTEXT
 70
1
  9
$OSMODE
 70
20583
  9
$LTSCALE
 40
1.0
  9
$ATTMODE
 70
1
  9
$TEXTSIZE
 40
2.5
  9
$TRACEWID
 40
1.0
  9
$TEXTSTYLE
  7
Standard
  9
$CLAYER
  8
0
  9
$CELTYPE
  6
ByLayer
  9
$CECOLOR
 62
256
  9
$DIMSCALE
 40
1.0
  9
$DIMASZ
 40
2.5
  9
$DIMEXO
 40
0.625
  9
$DIMDLI
 40
3.75
  9
$DIMRND
 40
0.0
  9
$DIMDLE
 40
0.0
  9
$DIMEXE
 40
1.25
  9
$DIMTP
 40
0.0
  9
$DIMTM
 40
0.0
  9
$DIMTXT
 40
2.5
  9
$DIMCEN
 40
2.5
  9
$DIMTSZ
 40
0.0
  9
$DIMTOL
 70
0
  9
$DIMLIM
 70
0
  9
$DIMTIH
 70
0
  9
$DIMTOH
 70
0
  9
$DIMSE1
 70
0
  9
$DIMSE2
 70
0
  9
$DIMTAD
 70
1
  9
$DIMZIN
 70
8
  9
$DIMBLK
  1

  9
$DIMASO
 70
1
  9
$DIMSHO
 70
1
  9
$DIMPOST
  1

  9
$DIMAPOST
  1

  9
$DIMALT
 70
0
  9
$DIMALTD
 70
3
  9
$DIMALTF
 40
0.03937007874
  9
$DIMLFAC
 40
1.0
  9
$DIMTOFL
 70
1
  9
$DIMTVP
 40
0.0
  9
$DIMTIX
 70
0
  9
$DIMSOXD
 70
0
  9
$DIMSAH
 70
0
  9
$DIMBLK1
  1

  9
$DIMBLK2
  1

  9
$DIMSTYLE
  2
ISO-25
  9
$DIMCLRD
 70
0
  9
$DIMCLRE
 70
0
  9
$DIMCLRT
 70
0
  9
$DIMTFAC
 40
1.0
  9
$DIMGAP
 40
0.625
  9
$COORDS
 70
1
  9
$ATTDIA
 70
0
  9
$ATTREQ
 70
1
  9
$HANDLING
 70
1
  9
$LUNITS
 70
2
  9
$LUPREC
 70
4
  9
$SKETCHINC
 40
1.0
  9
$FILLETRAD
 40
10.0
  9
$AUNITS
 70
0
  9
$AUPREC
 70
2
  9
$MENU
  1
.
  9
$ELEVATION
 40
0.0
  9
$PELEVATION
 40
0.0
  9
$THICKNESS
 40
0.0
  9
$LIMCHECK
 70
0
  9
$CHAMFERA
 40
0.0
  9
$CHAMFERB
 40
0.0
  9
$SKPOLY
 70
0
  9
$TDCREATE
 40
2461104.900787037
  9
$TDUPDATE
 40
2461104.900787037
  9
$TDINDWG
 40
0.0
  9
$TDUSRTIMER
 40
0.0
  9
$USRTIMER
 70
1
  9
$ANGBASE
 50
0.0
  9
$ANGDIR
 70
0
  9
$PDMODE
 70
0
  9
$PDSIZE
 40
0.0
  9
$PLINEWID
 40
0.0
  9
$SPLFRAME
 70
0
  9
$SPLINETYPE
 70
6
  9
$SPLINESEGS
 70
8
  9
$HANDSEED
  5
1E7
  9
$SURFTAB1
 70
6
  9
$SURFTAB2
 70
6
  9
$SURFTYPE
 70
6
  9
$SURFU
 70
6
  9
$SURFV
 70
6
  9
$UCSNAME
  2

  9
$UCSORG
 10
0.0
 20
0.0
 30
0.0
  9
$UCSXDIR
 10
1.0
 20
0.0
 30
0.0
  9
$UCSYDIR
 10
0.0
 20
1.0
 30
0.0
  9
$PUCSNAME
  2

  9
$PUCSORG
 10
0.0
 20
0.0
 30
0.0
  9
$PUCSXDIR
 10
1.0
 20
0.0
 30
0.0
  9
$PUCSYDIR
 10
0.0
 20
1.0
 30
0.0
  9
$USERI1
 70
0
  9
$USERI2
 70
0
  9
$USERI3
 70
0
  9
$USERI4
 70
0
  9
$USERI5
 70
0
  9
$USERR1
 40
0.0
  9
$USERR2
 40
0.0
  9
$USERR3
 40
0.0
  9
$USERR4
 40
0.0
  9
$USERR5
 40
0.0
  9
$WORLDVIEW
 70
1
  9
$SHADEDGE
 70
3
  9
$SHADEDIF
 70
70
  9
$TILEMODE
 70
1
  9
$MAXACTVP
 70
64
  9
$PLIMCHECK
 70
0
  9
$PEXTMIN
 10
1e+20
 20
1e+20
 30
1e+20
  9
$PEXTMAX
 10
-1e+20
 20
-1e+20
 30
-1e+20
  9
$PLIMMIN
 10
0.0
 20
0.0
  9
$PLIMMAX
 10
420.0
 20
297.0
  9
$UNITMODE
 70
0
  9
$VISRETAIN
 70
1
  9
$PLINEGEN
 70
0
  9
$PSLTSCALE
 70
1
  0
ENDSEC
  0
SECTION
  2
TABLES
  0
TABLE
  2
VPORT
 70
1
  0
VPORT
  5
23
  2
*Active
 70
0
 10
0.0
 20
0.0
 11
1.0
 21
1.0
 12
0.0
 22
0.0
 13
0.0
 23
0.0
 14
0.5
 24
0.5
 15
0.5
 25
0.5
 16
0.0
 26
0.0
 36
1.0
 17
0.0
 27
0.0
 37
0.0
 40
1000.0
 41
1.34
 42
50.0
 43
0.0
 44
0.0
 50
0.0
 51
0.0
 71
0
 72
1000
 73
1
 74
3
 75
0
 76
0
 77
0
 78
0
  0
ENDTAB
  0
TABLE
  2
LTYPE
 70
3
  0
LTYPE
  5
24
  2
ByBlock
 70
0
  3

 72
65
 73
0
 40
0.0
  0
LTYPE
  5
25
  2
ByLayer
 70
0
  3

 72
65
 73
0
 40
0.0
  0
LTYPE
  5
26
  2
Continuous
 70
0
  3

 72
65
 73
0
 40
0.0
  0
ENDTAB
  0
TABLE
  2
LAYER
 70
2
  0
LAYER
  5
27
  2
0
 70
0
 62
7
  6
Continuous
  0
LAYER
  5
28
  2
Defpoints
 70
0
 62
7
  6
Continuous
  0
ENDTAB
  0
TABLE
  2
STYLE
 70
1
  0
STYLE
  5
29
  2
Standard
 70
0
 40
0.0
 41
1.0
 50
0.0
 71
0
 42
2.5
  3
txt
  4

  0
ENDTAB
  0
TABLE
  2
VIEW
 70
0
  0
ENDTAB
  0
TABLE
  2
UCS
 70
0
  0
ENDTAB
  0
TABLE
  2
APPID
 70
3
  0
APPID
  5
2A
  2
ACAD
 70
0
  0
APPID
  5
1E5
  2
HATCHBACKGROUNDCOLOR
 70
0
  0
APPID
  5
1E6
  2
EZDXF
 70
0
  0
ENDTAB
  0
TABLE
  2
DIMSTYLE
 70
1
  0
DIMSTYLE
105
2B
  2
Standard
 70
0
  3

  4

  5

  6

  7

 40
1.0
 41
2.5
 42
0.625
 43
3.75
 44
1.25
 45
0.0
 46
0.0
 47
0.0
 48
0.0
140
2.5
141
2.5
142
0.0
143
0.03937007874
144
1.0
145
0.0
146
1.0
147
0.625
 71
0
 72
0
 73
0
 74
0
 75
0
 76
0
 77
1
 78
8
170
0
171
3
172
1
173
0
174
0
175
0
176
0
177
0
178
0
  0
ENDTAB
  0
ENDSEC
  0
SECTION
  2
BLOCKS
  0
BLOCK
  5
18
  8
0
  2
$Model_Space
 70
0
 10
0.0
 20
0.0
 30
0.0
  3
$Model_Space
  1

1001
EZDXF
1000
CREATED_BY_EZDXF
1000
1.4.3 @ 2026-03-05T03:37:08.502542+00:00
1000
WRITTEN_BY_EZDXF
1000
1.4.3 @ 2026-03-05T03:37:08.930336+00:00
  0
ENDBLK
  5
19
  8
0
  0
BLOCK
  5
1C
  8
0
  2
$Paper_Space
 70
0
 10
0.0
 20
0.0
 30
0.0
  3
$Paper_Space
  1

  0
ENDBLK
  5
1D
  8
0
  0
ENDSEC
  0
SECTION
  2
ENTITIES
  0
LINE
  5
2D
  8
PICKGUARD
 10
13.779500007629395
 20
273.36749267578125
 30
0.0
 11
13.715999603271484
 21
6.2230000495910645
 31
0.0
  0
LINE
  5
2E
  8
PICKGUARD
 10
13.715999603271484
 20
6.2230000495910645
 30
0.0
 11
202.0570068359375
 21
6.1595001220703125
 31
0.0
  0
LINE
  5
2F
  8
PICKGUARD
 10
202.0570068359375
 20
6.1595001220703125
 30
0.0
 11
202.0570068359375
 21
273.3039855957031
 31
0.0
  0
LINE
  5
30
  8
PICKGUARD
 10
202.0570068359375
 20
273.3039855957031
 30
0.0
 11
13.779500007629395
 21
273.36749267578125
 31
0.0
  0
LINE
  5
31
  8
PICKGUARD
 10
13.970000267028809
 20
273.177001953125
 30
0.0
 11
201.8665008544922
 21
273.1134948730469
 31
0.0
  0
LINE
  5
32
  8
PICKGUARD
 10
201.8665008544922
 20
273.1134948730469
 30
0.0
 11
201.80299377441406
 21
6.349999904632568
 31
0.0
  0
LINE
  5
33
  8
PICKGUARD
 10
201.80299377441406
 20
6.349999904632568
 30
0.0
 11
13.906499862670898
 21
6.41349983215332
 31
0.0
  0
LINE
  5
34
  8
PICKGUARD
 10
13.906499862670898
 20
6.41349983215332
 30
0.0
 11
13.970000267028809
 21
273.177001953125
 31
0.0
  0
LINE
  5
35
  8
SMALL_FEATURE
 10
181.54649353027344
 20
39.43349838256836
 30
0.0
 11
188.34100341796875
 21
39.49700164794922
 31
0.0
  0
LINE
  5
36
  8
SMALL_FEATURE
 10
188.34100341796875
 20
39.49700164794922
 30
0.0
 11
188.531494140625
 21
38.98899841308594
 31
0.0
  0
LINE
  5
37
  8
SMALL_FEATURE
 10
188.531494140625
 20
38.98899841308594
 30
0.0
 11
188.59500122070312
 21
39.49700164794922
 31
0.0
  0
LINE
  5
38
  8
SMALL_FEATURE
 10
188.59500122070312
 20
39.49700164794922
 30
0.0
 11
198.7550048828125
 21
39.49700164794922
 31
0.0
  0
LINE
  5
39
  8
SMALL_FEATURE
 10
198.7550048828125
 20
39.49700164794922
 30
0.0
 11
198.81849670410156
 21
32.3849983215332
 31
0.0
  0
LINE
  5
3A
  8
SMALL_FEATURE
 10
198.81849670410156
 20
32.3849983215332
 30
0.0
 11
198.05650329589844
 21
32.32149887084961
 31
0.0
  0
LINE
  5
3B
  8
SMALL_FEATURE
 10
198.05650329589844
 20
32.32149887084961
 30
0.0
 11
197.35800170898438
 21
31.62299919128418
 31
0.0
  0
LINE
  5
3C
  8
SMALL_FEATURE
 10
197.35800170898438
 20
31.62299919128418
 30
0.0
 11
196.3419952392578
 21
29.273500442504883
 31
0.0
  0
LINE
  5
3D
  8
SMALL_FEATURE
 10
196.3419952392578
 20
29.273500442504883
 30
0.0
 11
195.83399963378906
 21
26.60650062561035
 31
0.0
  0
LINE
  5
3E
  8
SMALL_FEATURE
 10
195.83399963378906
 20
26.60650062561035
 30
0.0
 11
196.15150451660156
 21
26.60650062561035
 31
0.0
  0
LINE
  5
3F
  8
SMALL_FEATURE
 10
196.15150451660156
 20
26.60650062561035
 30
0.0
 11
196.27850341796875
 21
28.575000762939453
 31
0.0
  0
LINE
  5
40
  8
SMALL_FEATURE
 10
196.27850341796875
 20
28.575000762939453
 30
0.0
 11
197.29449462890625
 21
31.114999771118164
 31
0.0
  0
LINE
  5
41
  8
SMALL_FEATURE
 10
197.29449462890625
 20
31.114999771118164
 30
0.0
 11
197.86599731445312
 21
32.00400161743164
 31
0.0
  0
LINE
  5
42
  8
SMALL_FEATURE
 10
197.86599731445312
 20
32.00400161743164
 30
0.0
 11
198.7550048828125
 21
32.00400161743164
 31
0.0
  0
LINE
  5
43
  8
SMALL_FEATURE
 10
198.7550048828125
 20
32.00400161743164
 30
0.0
 11
198.81849670410156
 21
24.574499130249023
 31
0.0
  0
LINE
  5
44
  8
SMALL_FEATURE
 10
198.81849670410156
 20
24.574499130249023
 30
0.0
 11
194.50050354003906
 21
24.51099967956543
 31
0.0
  0
LINE
  5
45
  8
SMALL_FEATURE
 10
194.50050354003906
 20
24.51099967956543
 30
0.0
 11
194.43699645996094
 21
24.828500747680664
 31
0.0
  0
LINE
  5
46
  8
SMALL_FEATURE
 10
194.43699645996094
 20
24.828500747680664
 30
0.0
 11
194.2465057373047
 21
24.574499130249023
 31
0.0
  0
LINE
  5
47
  8
SMALL_FEATURE
 10
194.2465057373047
 20
24.574499130249023
 30
0.0
 11
193.29400634765625
 21
24.828500747680664
 31
0.0
  0
LINE
  5
48
  8
SMALL_FEATURE
 10
193.29400634765625
 20
24.828500747680664
 30
0.0
 11
193.10350036621094
 21
24.51099967956543
 31
0.0
  0
LINE
  5
49
  8
SMALL_FEATURE
 10
193.10350036621094
 20
24.51099967956543
 30
0.0
 11
190.3094940185547
 21
24.51099967956543
 31
0.0
  0
LINE
  5
4A
  8
SMALL_FEATURE
 10
190.3094940185547
 20
24.51099967956543
 30
0.0
 11
190.24600219726562
 21
24.828500747680664
 31
0.0
  0
LINE
  5
4B
  8
SMALL_FEATURE
 10
190.24600219726562
 20
24.828500747680664
 30
0.0
 11
189.61099243164062
 21
25.018999099731445
 31
0.0
  0
LINE
  5
4C
  8
SMALL_FEATURE
 10
189.61099243164062
 20
25.018999099731445
 30
0.0
 11
189.54750061035156
 21
24.574499130249023
 31
0.0
  0
LINE
  5
4D
  8
SMALL_FEATURE
 10
189.54750061035156
 20
24.574499130249023
 30
0.0
 11
181.67349243164062
 21
24.51099967956543
 31
0.0
  0
LINE
  5
4E
  8
SMALL_FEATURE
 10
181.67349243164062
 20
24.51099967956543
 30
0.0
 11
181.54649353027344
 21
25.844499588012695
 31
0.0
  0
LINE
  5
4F
  8
SMALL_FEATURE
 10
181.54649353027344
 20
25.844499588012695
 30
0.0
 11
182.1179962158203
 21
25.908000946044922
 31
0.0
  0
LINE
  5
50
  8
SMALL_FEATURE
 10
182.1179962158203
 20
25.908000946044922
 30
0.0
 11
182.6894989013672
 21
26.60650062561035
 31
0.0
  0
LINE
  5
51
  8
SMALL_FEATURE
 10
182.6894989013672
 20
26.60650062561035
 30
0.0
 11
183.51499938964844
 21
26.542999267578125
 31
0.0
  0
LINE
  5
52
  8
SMALL_FEATURE
 10
183.51499938964844
 20
26.542999267578125
 30
0.0
 11
183.51499938964844
 21
25.717500686645508
 31
0.0
  0
LINE
  5
53
  8
SMALL_FEATURE
 10
183.51499938964844
 20
25.717500686645508
 30
0.0
 11
183.70550537109375
 21
26.225500106811523
 31
0.0
  0
LINE
  5
54
  8
SMALL_FEATURE
 10
183.70550537109375
 20
26.225500106811523
 30
0.0
 11
184.46749877929688
 21
26.225500106811523
 31
0.0
  0
LINE
  5
55
  8
SMALL_FEATURE
 10
184.46749877929688
 20
26.225500106811523
 30
0.0
 11
186.1820068359375
 21
29.972000122070312
 31
0.0
  0
LINE
  5
56
  8
SMALL_FEATURE
 10
186.1820068359375
 20
29.972000122070312
 30
0.0
 11
186.7534942626953
 21
31.686500549316406
 31
0.0
  0
LINE
  5
57
  8
SMALL_FEATURE
 10
186.7534942626953
 20
31.686500549316406
 30
0.0
 11
187.3249969482422
 21
31.686500549316406
 31
0.0
  0
LINE
  5
58
  8
SMALL_FEATURE
 10
187.3249969482422
 20
31.686500549316406
 30
0.0
 11
187.5155029296875
 21
32.638999938964844
 31
0.0
  0
LINE
  5
59
  8
SMALL_FEATURE
 10
187.5155029296875
 20
32.638999938964844
 30
0.0
 11
189.86500549316406
 21
32.57550048828125
 31
0.0
  0
LINE
  5
5A
  8
SMALL_FEATURE
 10
189.86500549316406
 20
32.57550048828125
 30
0.0
 11
189.86500549316406
 21
32.829498291015625
 31
0.0
  0
LINE
  5
5B
  8
SMALL_FEATURE
 10
189.86500549316406
 20
32.829498291015625
 30
0.0
 11
188.59500122070312
 21
32.829498291015625
 31
0.0
  0
LINE
  5
5C
  8
SMALL_FEATURE
 10
188.59500122070312
 20
32.829498291015625
 30
0.0
 11
188.02349853515625
 21
33.21049880981445
 31
0.0
  0
LINE
  5
5D
  8
SMALL_FEATURE
 10
188.02349853515625
 20
33.21049880981445
 30
0.0
 11
188.02349853515625
 21
33.654998779296875
 31
0.0
  0
LINE
  5
5E
  8
SMALL_FEATURE
 10
188.02349853515625
 20
33.654998779296875
 30
0.0
 11
187.3885040283203
 21
33.654998779296875
 31
0.0
  0
LINE
  5
5F
  8
SMALL_FEATURE
 10
187.3885040283203
 20
33.654998779296875
 30
0.0
 11
187.3885040283203
 21
34.67100143432617
 31
0.0
  0
LINE
  5
60
  8
SMALL_FEATURE
 10
187.3885040283203
 20
34.67100143432617
 30
0.0
 11
186.3090057373047
 21
33.337501525878906
 31
0.0
  0
LINE
  5
61
  8
SMALL_FEATURE
 10
186.3090057373047
 20
33.337501525878906
 30
0.0
 11
183.83250427246094
 21
31.813499450683594
 31
0.0
  0
LINE
  5
62
  8
SMALL_FEATURE
 10
183.83250427246094
 20
31.813499450683594
 30
0.0
 11
183.0070037841797
 21
30.60700035095215
 31
0.0
  0
LINE
  5
63
  8
SMALL_FEATURE
 10
183.0070037841797
 20
30.60700035095215
 30
0.0
 11
183.13400268554688
 21
29.844999313354492
 31
0.0
  0
LINE
  5
64
  8
SMALL_FEATURE
 10
183.13400268554688
 20
29.844999313354492
 30
0.0
 11
183.26100158691406
 21
30.797500610351562
 31
0.0
  0
LINE
  5
65
  8
SMALL_FEATURE
 10
183.26100158691406
 20
30.797500610351562
 30
0.0
 11
183.83250427246094
 21
31.496000289916992
 31
0.0
  0
LINE
  5
66
  8
SMALL_FEATURE
 10
183.83250427246094
 20
31.496000289916992
 30
0.0
 11
185.03900146484375
 21
32.19449996948242
 31
0.0
  0
LINE
  5
67
  8
SMALL_FEATURE
 10
185.03900146484375
 20
32.19449996948242
 30
0.0
 11
185.9915008544922
 21
32.19449996948242
 31
0.0
  0
LINE
  5
68
  8
SMALL_FEATURE
 10
185.9915008544922
 20
32.19449996948242
 30
0.0
 11
186.05499267578125
 21
31.178499221801758
 31
0.0
  0
LINE
  5
69
  8
SMALL_FEATURE
 10
186.05499267578125
 20
31.178499221801758
 30
0.0
 11
185.22950744628906
 21
28.95599937438965
 31
0.0
  0
LINE
  5
6A
  8
SMALL_FEATURE
 10
185.22950744628906
 20
28.95599937438965
 30
0.0
 11
183.32449340820312
 21
28.38450050354004
 31
0.0
  0
LINE
  5
6B
  8
SMALL_FEATURE
 10
183.32449340820312
 20
28.38450050354004
 30
0.0
 11
183.32449340820312
 21
27.622499465942383
 31
0.0
  0
LINE
  5
6C
  8
SMALL_FEATURE
 10
183.32449340820312
 20
27.622499465942383
 30
0.0
 11
182.6894989013672
 21
26.73349952697754
 31
0.0
  0
LINE
  5
6D
  8
SMALL_FEATURE
 10
182.6894989013672
 20
26.73349952697754
 30
0.0
 11
181.61000061035156
 21
26.542999267578125
 31
0.0
  0
LINE
  5
6E
  8
SMALL_FEATURE
 10
181.61000061035156
 20
26.542999267578125
 30
0.0
 11
181.54649353027344
 21
39.43349838256836
 31
0.0
  0
LINE
  5
6F
  8
SMALL_FEATURE
 10
185.29299926757812
 20
24.256999969482422
 30
0.0
 11
198.7550048828125
 21
24.320499420166016
 31
0.0
  0
LINE
  5
70
  8
SMALL_FEATURE
 10
198.7550048828125
 20
24.320499420166016
 30
0.0
 11
198.81849670410156
 21
17.8435001373291
 31
0.0
  0
LINE
  5
71
  8
SMALL_FEATURE
 10
198.81849670410156
 20
17.8435001373291
 30
0.0
 11
185.35650634765625
 21
17.780000686645508
 31
0.0
  0
LINE
  5
72
  8
SMALL_FEATURE
 10
185.35650634765625
 20
17.780000686645508
 30
0.0
 11
185.29299926757812
 21
24.256999969482422
 31
0.0
  0
LINE
  5
73
  8
SMALL_FEATURE
 10
185.29299926757812
 20
17.525999069213867
 30
0.0
 11
198.7550048828125
 21
17.589500427246094
 31
0.0
  0
LINE
  5
74
  8
SMALL_FEATURE
 10
198.7550048828125
 20
17.589500427246094
 30
0.0
 11
198.81849670410156
 21
13.58899974822998
 31
0.0
  0
LINE
  5
75
  8
SMALL_FEATURE
 10
198.81849670410156
 20
13.58899974822998
 30
0.0
 11
185.35650634765625
 21
13.525500297546387
 31
0.0
  0
LINE
  5
76
  8
SMALL_FEATURE
 10
185.35650634765625
 20
13.525500297546387
 30
0.0
 11
185.29299926757812
 21
17.525999069213867
 31
0.0
  0
LINE
  5
77
  8
SMALL_FEATURE
 10
185.29299926757812
 20
13.271499633789062
 30
0.0
 11
198.7550048828125
 21
13.335000038146973
 31
0.0
  0
LINE
  5
78
  8
SMALL_FEATURE
 10
198.7550048828125
 20
13.335000038146973
 30
0.0
 11
198.81849670410156
 21
9.46150016784668
 31
0.0
  0
LINE
  5
79
  8
SMALL_FEATURE
 10
198.81849670410156
 20
9.46150016784668
 30
0.0
 11
185.35650634765625
 21
9.39799976348877
 31
0.0
  0
LINE
  5
7A
  8
SMALL_FEATURE
 10
185.35650634765625
 20
9.39799976348877
 30
0.0
 11
185.29299926757812
 21
13.271499633789062
 31
0.0
  0
LINE
  5
7B
  8
SMALL_FEATURE
 10
59.5629997253418
 20
256.3494873046875
 30
0.0
 11
65.40499877929688
 21
256.4129943847656
 31
0.0
  0
LINE
  5
7C
  8
SMALL_FEATURE
 10
65.40499877929688
 20
256.4129943847656
 30
0.0
 11
65.46849822998047
 21
252.85699462890625
 31
0.0
  0
LINE
  5
7D
  8
SMALL_FEATURE
 10
65.46849822998047
 20
252.85699462890625
 30
0.0
 11
59.62649917602539
 21
252.98399353027344
 31
0.0
  0
LINE
  5
7E
  8
SMALL_FEATURE
 10
59.62649917602539
 20
252.98399353027344
 30
0.0
 11
59.5629997253418
 21
256.3494873046875
 31
0.0
  0
LINE
  5
7F
  8
SMALL_FEATURE
 10
175.8314971923828
 20
142.62100219726562
 30
0.0
 11
175.19650268554688
 21
141.92250061035156
 31
0.0
  0
LINE
  5
80
  8
SMALL_FEATURE
 10
175.19650268554688
 20
141.92250061035156
 30
0.0
 11
174.4980010986328
 21
139.6999969482422
 31
0.0
  0
LINE
  5
81
  8
SMALL_FEATURE
 10
174.4980010986328
 20
139.6999969482422
 30
0.0
 11
174.4980010986328
 21
135.44549560546875
 31
0.0
  0
LINE
  5
82
  8
SMALL_FEATURE
 10
174.4980010986328
 20
135.44549560546875
 30
0.0
 11
177.6094970703125
 21
135.31849670410156
 31
0.0
  0
LINE
  5
83
  8
SMALL_FEATURE
 10
177.6094970703125
 20
135.31849670410156
 30
0.0
 11
177.67300415039062
 21
139.7635040283203
 31
0.0
  0
LINE
  5
84
  8
SMALL_FEATURE
 10
177.67300415039062
 20
139.7635040283203
 30
0.0
 11
176.84750366210938
 21
142.24000549316406
 31
0.0
  0
LINE
  5
85
  8
SMALL_FEATURE
 10
176.84750366210938
 20
142.24000549316406
 30
0.0
 11
175.8314971923828
 21
142.62100219726562
 31
0.0
  0
LINE
  5
86
  8
SMALL_FEATURE
 10
77.59700012207031
 20
203.77149963378906
 30
0.0
 11
78.23200225830078
 21
204.15249633789062
 31
0.0
  0
LINE
  5
87
  8
SMALL_FEATURE
 10
78.23200225830078
 20
204.15249633789062
 30
0.0
 11
89.85250091552734
 21
204.15249633789062
 31
0.0
  0
LINE
  5
88
  8
SMALL_FEATURE
 10
89.85250091552734
 20
204.15249633789062
 30
0.0
 11
90.2334976196289
 21
203.45399475097656
 31
0.0
  0
LINE
  5
89
  8
SMALL_FEATURE
 10
90.2334976196289
 20
203.45399475097656
 30
0.0
 11
90.2334976196289
 21
202.6284942626953
 31
0.0
  0
LINE
  5
8A
  8
SMALL_FEATURE
 10
90.2334976196289
 20
202.6284942626953
 30
0.0
 11
78.35900115966797
 21
202.56500244140625
 31
0.0
  0
LINE
  5
8B
  8
SMALL_FEATURE
 10
78.35900115966797
 20
202.56500244140625
 30
0.0
 11
77.59700012207031
 21
203.00950622558594
 31
0.0
  0
LINE
  5
8C
  8
SMALL_FEATURE
 10
77.59700012207031
 20
203.00950622558594
 30
0.0
 11
77.59700012207031
 21
203.77149963378906
 31
0.0
  0
LINE
  5
8D
  8
SMALL_FEATURE
 10
34.86149978637695
 20
203.3905029296875
 30
0.0
 11
35.305999755859375
 21
204.15249633789062
 31
0.0
  0
LINE
  5
8E
  8
SMALL_FEATURE
 10
35.305999755859375
 20
204.15249633789062
 30
0.0
 11
46.862998962402344
 21
204.15249633789062
 31
0.0
  0
LINE
  5
8F
  8
SMALL_FEATURE
 10
46.862998962402344
 20
204.15249633789062
 30
0.0
 11
47.49800109863281
 21
203.77149963378906
 31
0.0
  0
LINE
  5
90
  8
SMALL_FEATURE
 10
47.49800109863281
 20
203.77149963378906
 30
0.0
 11
47.49800109863281
 21
202.9459991455078
 31
0.0
  0
LINE
  5
91
  8
SMALL_FEATURE
 10
47.49800109863281
 20
202.9459991455078
 30
0.0
 11
46.79949951171875
 21
202.56500244140625
 31
0.0
  0
LINE
  5
92
  8
SMALL_FEATURE
 10
46.79949951171875
 20
202.56500244140625
 30
0.0
 11
34.92499923706055
 21
202.56500244140625
 31
0.0
  0
LINE
  5
93
  8
SMALL_FEATURE
 10
34.92499923706055
 20
202.56500244140625
 30
0.0
 11
34.86149978637695
 21
203.3905029296875
 31
0.0
  0
LINE
  5
94
  8
SMALL_FEATURE
 10
28.82900047302246
 20
267.39849853515625
 30
0.0
 11
28.82900047302246
 21
264.3504943847656
 31
0.0
  0
LINE
  5
95
  8
SMALL_FEATURE
 10
28.82900047302246
 20
264.3504943847656
 30
0.0
 11
30.22599983215332
 21
264.3504943847656
 31
0.0
  0
LINE
  5
96
  8
SMALL_FEATURE
 10
30.22599983215332
 20
264.3504943847656
 30
0.0
 11
31.05150032043457
 21
264.9855041503906
 31
0.0
  0
LINE
  5
97
  8
SMALL_FEATURE
 10
31.05150032043457
 20
264.9855041503906
 30
0.0
 11
31.813499450683594
 21
264.9855041503906
 31
0.0
  0
LINE
  5
98
  8
SMALL_FEATURE
 10
31.813499450683594
 20
264.9855041503906
 30
0.0
 11
32.512001037597656
 21
264.3504943847656
 31
0.0
  0
LINE
  5
99
  8
SMALL_FEATURE
 10
32.512001037597656
 20
264.3504943847656
 30
0.0
 11
33.52799987792969
 21
264.2869873046875
 31
0.0
  0
LINE
  5
9A
  8
SMALL_FEATURE
 10
33.52799987792969
 20
264.2869873046875
 30
0.0
 11
34.480499267578125
 21
265.1759948730469
 31
0.0
  0
LINE
  5
9B
  8
SMALL_FEATURE
 10
34.480499267578125
 20
265.1759948730469
 30
0.0
 11
34.480499267578125
 21
266.5094909667969
 31
0.0
  0
LINE
  5
9C
  8
SMALL_FEATURE
 10
34.480499267578125
 20
266.5094909667969
 30
0.0
 11
33.71849822998047
 21
267.3349914550781
 31
0.0
  0
LINE
  5
9D
  8
SMALL_FEATURE
 10
33.71849822998047
 20
267.3349914550781
 30
0.0
 11
32.70249938964844
 21
267.39849853515625
 31
0.0
  0
LINE
  5
9E
  8
SMALL_FEATURE
 10
32.70249938964844
 20
267.39849853515625
 30
0.0
 11
31.813499450683594
 21
266.70001220703125
 31
0.0
  0
LINE
  5
9F
  8
SMALL_FEATURE
 10
31.813499450683594
 20
266.70001220703125
 30
0.0
 11
31.05150032043457
 21
266.70001220703125
 31
0.0
  0
LINE
  5
A0
  8
SMALL_FEATURE
 10
31.05150032043457
 20
266.70001220703125
 30
0.0
 11
30.35300064086914
 21
267.3349914550781
 31
0.0
  0
LINE
  5
A1
  8
SMALL_FEATURE
 10
30.35300064086914
 20
267.3349914550781
 30
0.0
 11
28.82900047302246
 21
267.39849853515625
 31
0.0
  0
LINE
  5
A2
  8
SMALL_FEATURE
 10
128.90499877929688
 20
249.30099487304688
 30
0.0
 11
128.90499877929688
 21
237.49000549316406
 31
0.0
  0
LINE
  5
A3
  8
SMALL_FEATURE
 10
128.90499877929688
 20
237.49000549316406
 30
0.0
 11
128.5240020751953
 21
237.42649841308594
 31
0.0
  0
LINE
  5
A4
  8
SMALL_FEATURE
 10
128.5240020751953
 20
237.42649841308594
 30
0.0
 11
128.8415069580078
 21
234.56900024414062
 31
0.0
  0
LINE
  5
A5
  8
SMALL_FEATURE
 10
128.8415069580078
 20
234.56900024414062
 30
0.0
 11
125.15850067138672
 21
234.5054931640625
 31
0.0
  0
LINE
  5
A6
  8
SMALL_FEATURE
 10
125.15850067138672
 20
234.5054931640625
 30
0.0
 11
125.09500122070312
 21
233.74349975585938
 31
0.0
  0
LINE
  5
A7
  8
SMALL_FEATURE
 10
125.09500122070312
 20
233.74349975585938
 30
0.0
 11
128.8415069580078
 21
233.67999267578125
 31
0.0
  0
LINE
  5
A8
  8
SMALL_FEATURE
 10
128.8415069580078
 20
233.67999267578125
 30
0.0
 11
128.5240020751953
 21
230.82249450683594
 31
0.0
  0
LINE
  5
A9
  8
SMALL_FEATURE
 10
128.5240020751953
 20
230.82249450683594
 30
0.0
 11
128.90499877929688
 21
230.75900268554688
 31
0.0
  0
LINE
  5
AA
  8
SMALL_FEATURE
 10
128.90499877929688
 20
230.75900268554688
 30
0.0
 11
129.03199768066406
 21
227.71099853515625
 31
0.0
  0
LINE
  5
AB
  8
SMALL_FEATURE
 10
129.03199768066406
 20
227.71099853515625
 30
0.0
 11
129.0955047607422
 21
230.75900268554688
 31
0.0
  0
LINE
  5
AC
  8
SMALL_FEATURE
 10
129.0955047607422
 20
230.75900268554688
 30
0.0
 11
129.41299438476562
 21
230.82249450683594
 31
0.0
  0
LINE
  5
AD
  8
SMALL_FEATURE
 10
129.41299438476562
 20
230.82249450683594
 30
0.0
 11
129.15899658203125
 21
233.74349975585938
 31
0.0
  0
LINE
  5
AE
  8
SMALL_FEATURE
 10
129.15899658203125
 20
233.74349975585938
 30
0.0
 11
136.08050537109375
 21
233.74349975585938
 31
0.0
  0
LINE
  5
AF
  8
SMALL_FEATURE
 10
136.08050537109375
 20
233.74349975585938
 30
0.0
 11
136.08050537109375
 21
234.44200134277344
 31
0.0
  0
LINE
  5
B0
  8
SMALL_FEATURE
 10
136.08050537109375
 20
234.44200134277344
 30
0.0
 11
129.0955047607422
 21
234.56900024414062
 31
0.0
  0
LINE
  5
B1
  8
SMALL_FEATURE
 10
129.0955047607422
 20
234.56900024414062
 30
0.0
 11
129.47650146484375
 21
237.42649841308594
 31
0.0
  0
LINE
  5
B2
  8
SMALL_FEATURE
 10
129.47650146484375
 20
237.42649841308594
 30
0.0
 11
129.0955047607422
 21
237.49000549316406
 31
0.0
  0
LINE
  5
B3
  8
SMALL_FEATURE
 10
129.0955047607422
 20
237.49000549316406
 30
0.0
 11
128.90499877929688
 21
249.30099487304688
 31
0.0
  0
LINE
  5
B4
  8
SMALL_FEATURE
 10
166.3699951171875
 20
27.30500030517578
 30
0.0
 11
166.11599731445312
 21
28.765499114990234
 31
0.0
  0
LINE
  5
B5
  8
SMALL_FEATURE
 10
166.11599731445312
 20
28.765499114990234
 30
0.0
 11
161.16299438476562
 21
28.765499114990234
 31
0.0
  0
LINE
  5
B6
  8
SMALL_FEATURE
 10
161.16299438476562
 20
28.765499114990234
 30
0.0
 11
161.09950256347656
 21
27.622499465942383
 31
0.0
  0
LINE
  5
B7
  8
SMALL_FEATURE
 10
161.09950256347656
 20
27.622499465942383
 30
0.0
 11
160.2740020751953
 21
27.68600082397461
 31
0.0
  0
LINE
  5
B8
  8
SMALL_FEATURE
 10
160.2740020751953
 20
27.68600082397461
 30
0.0
 11
160.2740020751953
 21
28.765499114990234
 31
0.0
  0
LINE
  5
B9
  8
SMALL_FEATURE
 10
160.2740020751953
 20
28.765499114990234
 30
0.0
 11
158.9405059814453
 21
28.765499114990234
 31
0.0
  0
LINE
  5
BA
  8
SMALL_FEATURE
 10
158.9405059814453
 20
28.765499114990234
 30
0.0
 11
158.49600219726562
 21
28.25749969482422
 31
0.0
  0
LINE
  5
BB
  8
SMALL_FEATURE
 10
158.49600219726562
 20
28.25749969482422
 30
0.0
 11
158.5594940185547
 21
27.55900001525879
 31
0.0
  0
LINE
  5
BC
  8
SMALL_FEATURE
 10
158.5594940185547
 20
27.55900001525879
 30
0.0
 11
158.9405059814453
 21
27.241500854492188
 31
0.0
  0
LINE
  5
BD
  8
SMALL_FEATURE
 10
158.9405059814453
 20
27.241500854492188
 30
0.0
 11
166.3699951171875
 21
27.30500030517578
 31
0.0
  0
LINE
  5
BE
  8
SMALL_FEATURE
 10
155.70199584960938
 20
245.42750549316406
 30
0.0
 11
149.2884979248047
 21
245.42750549316406
 31
0.0
  0
LINE
  5
BF
  8
SMALL_FEATURE
 10
149.2884979248047
 20
245.42750549316406
 30
0.0
 11
149.2884979248047
 21
244.15750122070312
 31
0.0
  0
LINE
  5
C0
  8
SMALL_FEATURE
 10
149.2884979248047
 20
244.15750122070312
 30
0.0
 11
149.6060028076172
 21
243.90350341796875
 31
0.0
  0
LINE
  5
C1
  8
SMALL_FEATURE
 10
149.6060028076172
 20
243.90350341796875
 30
0.0
 11
155.70199584960938
 21
243.9669952392578
 31
0.0
  0
LINE
  5
C2
  8
SMALL_FEATURE
 10
155.70199584960938
 20
243.9669952392578
 30
0.0
 11
155.70199584960938
 21
245.42750549316406
 31
0.0
  0
LINE
  5
C3
  8
SMALL_FEATURE
 10
118.87200164794922
 20
220.97999572753906
 30
0.0
 11
118.23699951171875
 21
220.34500122070312
 31
0.0
  0
LINE
  5
C4
  8
SMALL_FEATURE
 10
118.23699951171875
 20
220.34500122070312
 30
0.0
 11
118.30049896240234
 21
219.58299255371094
 31
0.0
  0
LINE
  5
C5
  8
SMALL_FEATURE
 10
118.30049896240234
 20
219.58299255371094
 30
0.0
 11
119.18949890136719
 21
219.0749969482422
 31
0.0
  0
LINE
  5
C6
  8
SMALL_FEATURE
 10
119.18949890136719
 20
219.0749969482422
 30
0.0
 11
119.18949890136719
 21
219.45599365234375
 31
0.0
  0
LINE
  5
C7
  8
SMALL_FEATURE
 10
119.18949890136719
 20
219.45599365234375
 30
0.0
 11
118.61799621582031
 21
219.64649963378906
 31
0.0
  0
LINE
  5
C8
  8
SMALL_FEATURE
 10
118.61799621582031
 20
219.64649963378906
 30
0.0
 11
118.61799621582031
 21
220.4084930419922
 31
0.0
  0
LINE
  5
C9
  8
SMALL_FEATURE
 10
118.61799621582031
 20
220.4084930419922
 30
0.0
 11
119.50700378417969
 21
220.53550720214844
 31
0.0
  0
LINE
  5
CA
  8
SMALL_FEATURE
 10
119.50700378417969
 20
220.53550720214844
 30
0.0
 11
119.69750213623047
 21
219.77349853515625
 31
0.0
  0
LINE
  5
CB
  8
SMALL_FEATURE
 10
119.69750213623047
 20
219.77349853515625
 30
0.0
 11
120.84049987792969
 21
219.01150512695312
 31
0.0
  0
LINE
  5
CC
  8
SMALL_FEATURE
 10
120.84049987792969
 20
219.01150512695312
 30
0.0
 11
120.84049987792969
 21
217.4875030517578
 31
0.0
  0
LINE
  5
CD
  8
SMALL_FEATURE
 10
120.84049987792969
 20
217.4875030517578
 30
0.0
 11
118.87200164794922
 21
217.2969970703125
 31
0.0
  0
LINE
  5
CE
  8
SMALL_FEATURE
 10
118.87200164794922
 20
217.2969970703125
 30
0.0
 11
118.30049896240234
 21
216.8524932861328
 31
0.0
  0
LINE
  5
CF
  8
SMALL_FEATURE
 10
118.30049896240234
 20
216.8524932861328
 30
0.0
 11
118.23699951171875
 21
216.21749877929688
 31
0.0
  0
LINE
  5
D0
  8
SMALL_FEATURE
 10
118.23699951171875
 20
216.21749877929688
 30
0.0
 11
118.9990005493164
 21
215.58250427246094
 31
0.0
  0
LINE
  5
D1
  8
SMALL_FEATURE
 10
118.9990005493164
 20
215.58250427246094
 30
0.0
 11
120.52300262451172
 21
215.58250427246094
 31
0.0
  0
LINE
  5
D2
  8
SMALL_FEATURE
 10
120.52300262451172
 20
215.58250427246094
 30
0.0
 11
121.28500366210938
 21
216.1540069580078
 31
0.0
  0
LINE
  5
D3
  8
SMALL_FEATURE
 10
121.28500366210938
 20
216.1540069580078
 30
0.0
 11
120.84049987792969
 21
217.99549865722656
 31
0.0
  0
LINE
  5
D4
  8
SMALL_FEATURE
 10
120.84049987792969
 20
217.99549865722656
 30
0.0
 11
121.85649871826172
 21
218.0590057373047
 31
0.0
  0
LINE
  5
D5
  8
SMALL_FEATURE
 10
121.85649871826172
 20
218.0590057373047
 30
0.0
 11
121.22149658203125
 21
218.5034942626953
 31
0.0
  0
LINE
  5
D6
  8
SMALL_FEATURE
 10
121.22149658203125
 20
218.5034942626953
 30
0.0
 11
121.22149658203125
 21
220.97999572753906
 31
0.0
  0
LINE
  5
D7
  8
SMALL_FEATURE
 10
121.22149658203125
 20
220.97999572753906
 30
0.0
 11
120.90399932861328
 21
220.91650390625
 31
0.0
  0
LINE
  5
D8
  8
SMALL_FEATURE
 10
120.90399932861328
 20
220.91650390625
 30
0.0
 11
120.84049987792969
 21
220.21800231933594
 31
0.0
  0
LINE
  5
D9
  8
SMALL_FEATURE
 10
120.84049987792969
 20
220.21800231933594
 30
0.0
 11
120.07849884033203
 21
220.21800231933594
 31
0.0
  0
LINE
  5
DA
  8
SMALL_FEATURE
 10
120.07849884033203
 20
220.21800231933594
 30
0.0
 11
119.57050323486328
 21
220.85299682617188
 31
0.0
  0
LINE
  5
DB
  8
SMALL_FEATURE
 10
119.57050323486328
 20
220.85299682617188
 30
0.0
 11
118.87200164794922
 21
220.97999572753906
 31
0.0
  0
LINE
  5
DC
  8
SMALL_FEATURE
 10
132.52450561523438
 20
227.6475067138672
 30
0.0
 11
135.63600158691406
 21
227.52049255371094
 31
0.0
  0
LINE
  5
DD
  8
SMALL_FEATURE
 10
135.63600158691406
 20
227.52049255371094
 30
0.0
 11
135.69949340820312
 21
227.13949584960938
 31
0.0
  0
LINE
  5
DE
  8
SMALL_FEATURE
 10
135.69949340820312
 20
227.13949584960938
 30
0.0
 11
138.5570068359375
 21
227.52049255371094
 31
0.0
  0
LINE
  5
DF
  8
SMALL_FEATURE
 10
138.5570068359375
 20
227.52049255371094
 30
0.0
 11
138.6840057373047
 21
223.7740020751953
 31
0.0
  0
LINE
  5
E0
  8
SMALL_FEATURE
 10
138.6840057373047
 20
223.7740020751953
 30
0.0
 11
138.87449645996094
 21
227.52049255371094
 31
0.0
  0
LINE
  5
E1
  8
SMALL_FEATURE
 10
138.87449645996094
 20
227.52049255371094
 30
0.0
 11
142.24000549316406
 21
227.45700073242188
 31
0.0
  0
LINE
  5
E2
  8
SMALL_FEATURE
 10
142.24000549316406
 20
227.45700073242188
 30
0.0
 11
142.4304962158203
 21
223.7740020751953
 31
0.0
  0
LINE
  5
E3
  8
SMALL_FEATURE
 10
142.4304962158203
 20
223.7740020751953
 30
0.0
 11
142.49400329589844
 21
227.52049255371094
 31
0.0
  0
LINE
  5
E4
  8
SMALL_FEATURE
 10
142.49400329589844
 20
227.52049255371094
 30
0.0
 11
145.35150146484375
 21
227.2030029296875
 31
0.0
  0
LINE
  5
E5
  8
SMALL_FEATURE
 10
145.35150146484375
 20
227.2030029296875
 30
0.0
 11
145.4149932861328
 21
227.52049255371094
 31
0.0
  0
LINE
  5
E6
  8
SMALL_FEATURE
 10
145.4149932861328
 20
227.52049255371094
 30
0.0
 11
154.114501953125
 21
227.58399963378906
 31
0.0
  0
LINE
  5
E7
  8
SMALL_FEATURE
 10
154.114501953125
 20
227.58399963378906
 30
0.0
 11
145.4149932861328
 21
227.71099853515625
 31
0.0
  0
LINE
  5
E8
  8
SMALL_FEATURE
 10
145.4149932861328
 20
227.71099853515625
 30
0.0
 11
145.35150146484375
 21
228.0919952392578
 31
0.0
  0
LINE
  5
E9
  8
SMALL_FEATURE
 10
145.35150146484375
 20
228.0919952392578
 30
0.0
 11
142.49400329589844
 21
227.77450561523438
 31
0.0
  0
LINE
  5
EA
  8
SMALL_FEATURE
 10
142.49400329589844
 20
227.77450561523438
 30
0.0
 11
142.36700439453125
 21
229.42550659179688
 31
0.0
  0
LINE
  5
EB
  8
SMALL_FEATURE
 10
142.36700439453125
 20
229.42550659179688
 30
0.0
 11
142.17649841308594
 21
227.71099853515625
 31
0.0
  0
LINE
  5
EC
  8
SMALL_FEATURE
 10
142.17649841308594
 20
227.71099853515625
 30
0.0
 11
138.87449645996094
 21
227.71099853515625
 31
0.0
  0
LINE
  5
ED
  8
SMALL_FEATURE
 10
138.87449645996094
 20
227.71099853515625
 30
0.0
 11
138.6840057373047
 21
229.42550659179688
 31
0.0
  0
LINE
  5
EE
  8
SMALL_FEATURE
 10
138.6840057373047
 20
229.42550659179688
 30
0.0
 11
138.5570068359375
 21
227.77450561523438
 31
0.0
  0
LINE
  5
EF
  8
SMALL_FEATURE
 10
138.5570068359375
 20
227.77450561523438
 30
0.0
 11
135.69949340820312
 21
228.0919952392578
 31
0.0
  0
LINE
  5
F0
  8
SMALL_FEATURE
 10
135.69949340820312
 20
228.0919952392578
 30
0.0
 11
135.63600158691406
 21
227.71099853515625
 31
0.0
  0
LINE
  5
F1
  8
SMALL_FEATURE
 10
135.63600158691406
 20
227.71099853515625
 30
0.0
 11
132.52450561523438
 21
227.6475067138672
 31
0.0
  0
LINE
  5
F2
  8
SMALL_FEATURE
 10
154.81300354003906
 20
134.9375
 30
0.0
 11
155.3209991455078
 21
133.4770050048828
 31
0.0
  0
LINE
  5
F3
  8
SMALL_FEATURE
 10
155.3209991455078
 20
133.4770050048828
 30
0.0
 11
160.78199768066406
 21
133.4770050048828
 31
0.0
  0
LINE
  5
F4
  8
SMALL_FEATURE
 10
160.78199768066406
 20
133.4770050048828
 30
0.0
 11
160.2740020751953
 21
134.9375
 31
0.0
  0
LINE
  5
F5
  8
SMALL_FEATURE
 10
160.2740020751953
 20
134.9375
 30
0.0
 11
154.81300354003906
 21
134.9375
 31
0.0
  0
LINE
  5
F6
  8
SMALL_FEATURE
 10
190.88099670410156
 20
32.32149887084961
 30
0.0
 11
190.43649291992188
 21
32.13100051879883
 31
0.0
  0
LINE
  5
F7
  8
SMALL_FEATURE
 10
190.43649291992188
 20
32.13100051879883
 30
0.0
 11
189.2935028076172
 21
28.95599937438965
 31
0.0
  0
LINE
  5
F8
  8
SMALL_FEATURE
 10
189.2935028076172
 20
28.95599937438965
 30
0.0
 11
188.4044952392578
 21
28.892499923706055
 31
0.0
  0
LINE
  5
F9
  8
SMALL_FEATURE
 10
188.4044952392578
 20
28.892499923706055
 30
0.0
 11
188.08700561523438
 21
29.273500442504883
 31
0.0
  0
LINE
  5
FA
  8
SMALL_FEATURE
 10
188.08700561523438
 20
29.273500442504883
 30
0.0
 11
186.8804931640625
 21
27.749500274658203
 31
0.0
  0
LINE
  5
FB
  8
SMALL_FEATURE
 10
186.8804931640625
 20
27.749500274658203
 30
0.0
 11
186.7534942626953
 21
26.60650062561035
 31
0.0
  0
LINE
  5
FC
  8
SMALL_FEATURE
 10
186.7534942626953
 20
26.60650062561035
 30
0.0
 11
187.00750732421875
 21
26.60650062561035
 31
0.0
  0
LINE
  5
FD
  8
SMALL_FEATURE
 10
187.00750732421875
 20
26.60650062561035
 30
0.0
 11
187.00750732421875
 21
27.749500274658203
 31
0.0
  0
LINE
  5
FE
  8
SMALL_FEATURE
 10
187.00750732421875
 20
27.749500274658203
 30
0.0
 11
187.89649963378906
 21
28.82900047302246
 31
0.0
  0
LINE
  5
FF
  8
SMALL_FEATURE
 10
187.89649963378906
 20
28.82900047302246
 30
0.0
 11
188.78550720214844
 21
28.765499114990234
 31
0.0
  0
LINE
  5
100
  8
SMALL_FEATURE
 10
188.78550720214844
 20
28.765499114990234
 30
0.0
 11
188.78550720214844
 21
26.60650062561035
 31
0.0
  0
LINE
  5
101
  8
SMALL_FEATURE
 10
188.78550720214844
 20
26.60650062561035
 30
0.0
 11
189.0395050048828
 21
26.60650062561035
 31
0.0
  0
LINE
  5
102
  8
SMALL_FEATURE
 10
189.0395050048828
 20
26.60650062561035
 30
0.0
 11
189.0395050048828
 21
28.38450050354004
 31
0.0
  0
LINE
  5
103
  8
SMALL_FEATURE
 10
189.0395050048828
 20
28.38450050354004
 30
0.0
 11
190.88099670410156
 21
32.32149887084961
 31
0.0
  0
LINE
  5
104
  8
BRIDGE_ROUTE
 10
131.12750244140625
 20
9.46150016784668
 30
0.0
 11
131.1909942626953
 21
41.020999908447266
 31
0.0
  0
LINE
  5
105
  8
BRIDGE_ROUTE
 10
131.1909942626953
 20
41.020999908447266
 30
0.0
 11
198.81849670410156
 21
40.95750045776367
 31
0.0
  0
LINE
  5
106
  8
BRIDGE_ROUTE
 10
198.81849670410156
 20
40.95750045776367
 30
0.0
 11
198.7550048828125
 21
39.6875
 31
0.0
  0
LINE
  5
107
  8
BRIDGE_ROUTE
 10
198.7550048828125
 20
39.6875
 30
0.0
 11
132.52450561523438
 21
39.6875
 31
0.0
  0
LINE
  5
108
  8
BRIDGE_ROUTE
 10
132.52450561523438
 20
39.6875
 30
0.0
 11
132.46099853515625
 21
9.46150016784668
 31
0.0
  0
LINE
  5
109
  8
BRIDGE_ROUTE
 10
132.46099853515625
 20
9.46150016784668
 30
0.0
 11
131.12750244140625
 21
9.46150016784668
 31
0.0
  0
LINE
  5
10A
  8
PICKUP_ROUTE
 10
62.48400115966797
 20
121.22149658203125
 30
0.0
 11
57.78499984741211
 21
120.14199829101562
 31
0.0
  0
LINE
  5
10B
  8
PICKUP_ROUTE
 10
57.78499984741211
 20
120.14199829101562
 30
0.0
 11
53.53049850463867
 21
117.85600280761719
 31
0.0
  0
LINE
  5
10C
  8
PICKUP_ROUTE
 10
53.53049850463867
 20
117.85600280761719
 30
0.0
 11
50.22850036621094
 21
114.68099975585938
 31
0.0
  0
LINE
  5
10D
  8
PICKUP_ROUTE
 10
50.22850036621094
 20
114.68099975585938
 30
0.0
 11
47.75199890136719
 21
110.87100219726562
 31
0.0
  0
LINE
  5
10E
  8
PICKUP_ROUTE
 10
47.75199890136719
 20
110.87100219726562
 30
0.0
 11
46.545501708984375
 21
108.39450073242188
 31
0.0
  0
LINE
  5
10F
  8
PICKUP_ROUTE
 10
46.545501708984375
 20
108.39450073242188
 30
0.0
 11
45.21200180053711
 21
103.82250213623047
 31
0.0
  0
LINE
  5
110
  8
PICKUP_ROUTE
 10
45.21200180053711
 20
103.82250213623047
 30
0.0
 11
44.894500732421875
 21
101.5999984741211
 31
0.0
  0
LINE
  5
111
  8
PICKUP_ROUTE
 10
44.894500732421875
 20
101.5999984741211
 30
0.0
 11
44.95800018310547
 21
98.99649810791016
 31
0.0
  0
LINE
  5
112
  8
PICKUP_ROUTE
 10
44.95800018310547
 20
98.99649810791016
 30
0.0
 11
48.132999420166016
 21
85.08999633789062
 31
0.0
  0
LINE
  5
113
  8
PICKUP_ROUTE
 10
48.132999420166016
 20
85.08999633789062
 30
0.0
 11
48.2599983215332
 21
79.88300323486328
 31
0.0
  0
LINE
  5
114
  8
PICKUP_ROUTE
 10
48.2599983215332
 20
79.88300323486328
 30
0.0
 11
48.00600051879883
 21
78.1050033569336
 31
0.0
  0
LINE
  5
115
  8
PICKUP_ROUTE
 10
48.00600051879883
 20
78.1050033569336
 30
0.0
 11
46.67250061035156
 21
73.46949768066406
 31
0.0
  0
LINE
  5
116
  8
PICKUP_ROUTE
 10
46.67250061035156
 20
73.46949768066406
 30
0.0
 11
44.83100128173828
 21
69.27850341796875
 31
0.0
  0
LINE
  5
117
  8
PICKUP_ROUTE
 10
44.83100128173828
 20
69.27850341796875
 30
0.0
 11
38.099998474121094
 21
56.705501556396484
 31
0.0
  0
LINE
  5
118
  8
PICKUP_ROUTE
 10
38.099998474121094
 20
56.705501556396484
 30
0.0
 11
35.941001892089844
 21
52.006500244140625
 31
0.0
  0
LINE
  5
119
  8
PICKUP_ROUTE
 10
35.941001892089844
 20
52.006500244140625
 30
0.0
 11
34.54399871826172
 21
47.24399948120117
 31
0.0
  0
LINE
  5
11A
  8
PICKUP_ROUTE
 10
34.54399871826172
 20
47.24399948120117
 30
0.0
 11
34.22650146484375
 21
43.30699920654297
 31
0.0
  0
LINE
  5
11B
  8
PICKUP_ROUTE
 10
34.22650146484375
 20
43.30699920654297
 30
0.0
 11
34.35350036621094
 21
40.3224983215332
 31
0.0
  0
LINE
  5
11C
  8
PICKUP_ROUTE
 10
34.35350036621094
 20
40.3224983215332
 30
0.0
 11
35.496498107910156
 21
35.051998138427734
 31
0.0
  0
LINE
  5
11D
  8
PICKUP_ROUTE
 10
35.496498107910156
 20
35.051998138427734
 30
0.0
 11
38.48099899291992
 21
28.95599937438965
 31
0.0
  0
LINE
  5
11E
  8
PICKUP_ROUTE
 10
38.48099899291992
 20
28.95599937438965
 30
0.0
 11
42.672000885009766
 21
23.558500289916992
 31
0.0
  0
LINE
  5
11F
  8
PICKUP_ROUTE
 10
42.672000885009766
 20
23.558500289916992
 30
0.0
 11
46.79949951171875
 21
20.129499435424805
 31
0.0
  0
LINE
  5
120
  8
PICKUP_ROUTE
 10
46.79949951171875
 20
20.129499435424805
 30
0.0
 11
51.05400085449219
 21
17.970500946044922
 31
0.0
  0
LINE
  5
121
  8
PICKUP_ROUTE
 10
51.05400085449219
 20
17.970500946044922
 30
0.0
 11
60.45199966430664
 21
15.621000289916992
 31
0.0
  0
LINE
  5
122
  8
PICKUP_ROUTE
 10
60.45199966430664
 20
15.621000289916992
 30
0.0
 11
64.45249938964844
 21
15.049500465393066
 31
0.0
  0
LINE
  5
123
  8
PICKUP_ROUTE
 10
64.45249938964844
 20
15.049500465393066
 30
0.0
 11
72.32649993896484
 21
15.049500465393066
 31
0.0
  0
LINE
  5
124
  8
PICKUP_ROUTE
 10
72.32649993896484
 20
15.049500465393066
 30
0.0
 11
72.32649993896484
 21
121.34850311279297
 31
0.0
  0
LINE
  5
125
  8
PICKUP_ROUTE
 10
72.32649993896484
 20
121.34850311279297
 30
0.0
 11
62.48400115966797
 21
121.22149658203125
 31
0.0
  0
LINE
  5
126
  8
PICKUP_ROUTE
 10
81.97850036621094
 20
121.41200256347656
 30
0.0
 11
81.91500091552734
 21
15.049500465393066
 31
0.0
  0
LINE
  5
127
  8
PICKUP_ROUTE
 10
81.91500091552734
 20
15.049500465393066
 30
0.0
 11
89.53500366210938
 21
15.049500465393066
 31
0.0
  0
LINE
  5
128
  8
PICKUP_ROUTE
 10
89.53500366210938
 20
15.049500465393066
 30
0.0
 11
96.26599884033203
 21
16.1924991607666
 31
0.0
  0
LINE
  5
129
  8
PICKUP_ROUTE
 10
96.26599884033203
 20
16.1924991607666
 30
0.0
 11
103.1875
 21
17.970500946044922
 31
0.0
  0
LINE
  5
12A
  8
PICKUP_ROUTE
 10
103.1875
 20
17.970500946044922
 30
0.0
 11
107.25150299072266
 21
20.06599998474121
 31
0.0
  0
LINE
  5
12B
  8
PICKUP_ROUTE
 10
107.25150299072266
 20
20.06599998474121
 30
0.0
 11
111.125
 21
23.177499771118164
 31
0.0
  0
LINE
  5
12C
  8
PICKUP_ROUTE
 10
111.125
 20
23.177499771118164
 30
0.0
 11
115.44300079345703
 21
28.70199966430664
 31
0.0
  0
LINE
  5
12D
  8
PICKUP_ROUTE
 10
115.44300079345703
 20
28.70199966430664
 30
0.0
 11
117.98300170898438
 21
33.083499908447266
 31
0.0
  0
LINE
  5
12E
  8
PICKUP_ROUTE
 10
117.98300170898438
 20
33.083499908447266
 30
0.0
 11
119.76100158691406
 21
39.94150161743164
 31
0.0
  0
LINE
  5
12F
  8
PICKUP_ROUTE
 10
119.76100158691406
 20
39.94150161743164
 30
0.0
 11
119.88800048828125
 21
44.57699966430664
 31
0.0
  0
LINE
  5
130
  8
PICKUP_ROUTE
 10
119.88800048828125
 20
44.57699966430664
 30
0.0
 11
119.1259994506836
 21
49.14899826049805
 31
0.0
  0
LINE
  5
131
  8
PICKUP_ROUTE
 10
119.1259994506836
 20
49.14899826049805
 30
0.0
 11
118.04650115966797
 21
52.196998596191406
 31
0.0
  0
LINE
  5
132
  8
PICKUP_ROUTE
 10
118.04650115966797
 20
52.196998596191406
 30
0.0
 11
116.1415023803711
 21
56.38800048828125
 31
0.0
  0
LINE
  5
133
  8
PICKUP_ROUTE
 10
116.1415023803711
 20
56.38800048828125
 30
0.0
 11
109.4104995727539
 21
68.89749908447266
 31
0.0
  0
LINE
  5
134
  8
PICKUP_ROUTE
 10
109.4104995727539
 20
68.89749908447266
 30
0.0
 11
107.50550079345703
 21
73.34249877929688
 31
0.0
  0
LINE
  5
135
  8
PICKUP_ROUTE
 10
107.50550079345703
 20
73.34249877929688
 30
0.0
 11
106.1719970703125
 21
77.97799682617188
 31
0.0
  0
LINE
  5
136
  8
PICKUP_ROUTE
 10
106.1719970703125
 20
77.97799682617188
 30
0.0
 11
105.79100036621094
 21
81.66100311279297
 31
0.0
  0
LINE
  5
137
  8
PICKUP_ROUTE
 10
105.79100036621094
 20
81.66100311279297
 30
0.0
 11
105.98149871826172
 21
84.64550018310547
 31
0.0
  0
LINE
  5
138
  8
PICKUP_ROUTE
 10
105.98149871826172
 20
84.64550018310547
 30
0.0
 11
108.83899688720703
 21
96.45649719238281
 31
0.0
  0
LINE
  5
139
  8
PICKUP_ROUTE
 10
108.83899688720703
 20
96.45649719238281
 30
0.0
 11
109.28350067138672
 21
101.15550231933594
 31
0.0
  0
LINE
  5
13A
  8
PICKUP_ROUTE
 10
109.28350067138672
 20
101.15550231933594
 30
0.0
 11
108.45800018310547
 21
105.98149871826172
 31
0.0
  0
LINE
  5
13B
  8
PICKUP_ROUTE
 10
108.45800018310547
 20
105.98149871826172
 30
0.0
 11
106.61650085449219
 21
110.48999786376953
 31
0.0
  0
LINE
  5
13C
  8
PICKUP_ROUTE
 10
106.61650085449219
 20
110.48999786376953
 30
0.0
 11
105.09249877929688
 21
113.02999877929688
 31
0.0
  0
LINE
  5
13D
  8
PICKUP_ROUTE
 10
105.09249877929688
 20
113.02999877929688
 30
0.0
 11
102.29850006103516
 21
116.39550018310547
 31
0.0
  0
LINE
  5
13E
  8
PICKUP_ROUTE
 10
102.29850006103516
 20
116.39550018310547
 30
0.0
 11
100.52050018310547
 21
117.91950225830078
 31
0.0
  0
LINE
  5
13F
  8
PICKUP_ROUTE
 10
100.52050018310547
 20
117.91950225830078
 30
0.0
 11
96.71050262451172
 21
120.01499938964844
 31
0.0
  0
LINE
  5
140
  8
PICKUP_ROUTE
 10
96.71050262451172
 20
120.01499938964844
 30
0.0
 11
93.85299682617188
 21
120.90399932861328
 31
0.0
  0
LINE
  5
141
  8
PICKUP_ROUTE
 10
93.85299682617188
 20
120.90399932861328
 30
0.0
 11
91.63050079345703
 21
121.22149658203125
 31
0.0
  0
LINE
  5
142
  8
PICKUP_ROUTE
 10
91.63050079345703
 20
121.22149658203125
 30
0.0
 11
81.97850036621094
 21
121.41200256347656
 31
0.0
  0
LINE
  5
143
  8
PICKUP_ROUTE
 10
62.48400115966797
 20
121.03099822998047
 30
0.0
 11
72.13600158691406
 21
121.15799713134766
 31
0.0
  0
LINE
  5
144
  8
PICKUP_ROUTE
 10
72.13600158691406
 20
121.15799713134766
 30
0.0
 11
72.07250213623047
 21
15.239999771118164
 31
0.0
  0
LINE
  5
145
  8
PICKUP_ROUTE
 10
72.07250213623047
 20
15.239999771118164
 30
0.0
 11
63.5
 21
15.303500175476074
 31
0.0
  0
LINE
  5
146
  8
PICKUP_ROUTE
 10
63.5
 20
15.303500175476074
 30
0.0
 11
58.22949981689453
 21
16.256000518798828
 31
0.0
  0
LINE
  5
147
  8
PICKUP_ROUTE
 10
58.22949981689453
 20
16.256000518798828
 30
0.0
 11
51.11750030517578
 21
18.160999298095703
 31
0.0
  0
LINE
  5
148
  8
PICKUP_ROUTE
 10
51.11750030517578
 20
18.160999298095703
 30
0.0
 11
46.862998962402344
 21
20.31999969482422
 31
0.0
  0
LINE
  5
149
  8
PICKUP_ROUTE
 10
46.862998962402344
 20
20.31999969482422
 30
0.0
 11
42.60850143432617
 21
23.93950080871582
 31
0.0
  0
LINE
  5
14A
  8
PICKUP_ROUTE
 10
42.60850143432617
 20
23.93950080871582
 30
0.0
 11
38.67150115966797
 21
29.019500732421875
 31
0.0
  0
LINE
  5
14B
  8
PICKUP_ROUTE
 10
38.67150115966797
 20
29.019500732421875
 30
0.0
 11
36.83000183105469
 21
32.32149887084961
 31
0.0
  0
LINE
  5
14C
  8
PICKUP_ROUTE
 10
36.83000183105469
 20
32.32149887084961
 30
0.0
 11
35.560001373291016
 21
35.43299865722656
 31
0.0
  0
LINE
  5
14D
  8
PICKUP_ROUTE
 10
35.560001373291016
 20
35.43299865722656
 30
0.0
 11
34.54399871826172
 21
40.25899887084961
 31
0.0
  0
LINE
  5
14E
  8
PICKUP_ROUTE
 10
34.54399871826172
 20
40.25899887084961
 30
0.0
 11
34.41699981689453
 21
43.37049865722656
 31
0.0
  0
LINE
  5
14F
  8
PICKUP_ROUTE
 10
34.41699981689453
 20
43.37049865722656
 30
0.0
 11
34.734500885009766
 21
47.24399948120117
 31
0.0
  0
LINE
  5
150
  8
PICKUP_ROUTE
 10
34.734500885009766
 20
47.24399948120117
 30
0.0
 11
36.06800079345703
 21
51.816001892089844
 31
0.0
  0
LINE
  5
151
  8
PICKUP_ROUTE
 10
36.06800079345703
 20
51.816001892089844
 30
0.0
 11
38.29050064086914
 21
56.641998291015625
 31
0.0
  0
LINE
  5
152
  8
PICKUP_ROUTE
 10
38.29050064086914
 20
56.641998291015625
 30
0.0
 11
44.95800018310547
 21
69.08799743652344
 31
0.0
  0
LINE
  5
153
  8
PICKUP_ROUTE
 10
44.95800018310547
 20
69.08799743652344
 30
0.0
 11
46.79949951171875
 21
73.27899932861328
 31
0.0
  0
LINE
  5
154
  8
PICKUP_ROUTE
 10
46.79949951171875
 20
73.27899932861328
 30
0.0
 11
48.19649887084961
 21
78.1050033569336
 31
0.0
  0
LINE
  5
155
  8
PICKUP_ROUTE
 10
48.19649887084961
 20
78.1050033569336
 30
0.0
 11
48.45050048828125
 21
79.88300323486328
 31
0.0
  0
LINE
  5
156
  8
PICKUP_ROUTE
 10
48.45050048828125
 20
79.88300323486328
 30
0.0
 11
48.32350158691406
 21
85.08999633789062
 31
0.0
  0
LINE
  5
157
  8
PICKUP_ROUTE
 10
48.32350158691406
 20
85.08999633789062
 30
0.0
 11
45.14849853515625
 21
98.99649810791016
 31
0.0
  0
LINE
  5
158
  8
PICKUP_ROUTE
 10
45.14849853515625
 20
98.99649810791016
 30
0.0
 11
45.084999084472656
 21
101.5999984741211
 31
0.0
  0
LINE
  5
159
  8
PICKUP_ROUTE
 10
45.084999084472656
 20
101.5999984741211
 30
0.0
 11
45.40250015258789
 21
103.75900268554688
 31
0.0
  0
LINE
  5
15A
  8
PICKUP_ROUTE
 10
45.40250015258789
 20
103.75900268554688
 30
0.0
 11
46.736000061035156
 21
108.33100128173828
 31
0.0
  0
LINE
  5
15B
  8
PICKUP_ROUTE
 10
46.736000061035156
 20
108.33100128173828
 30
0.0
 11
47.75199890136719
 21
110.48999786376953
 31
0.0
  0
LINE
  5
15C
  8
PICKUP_ROUTE
 10
47.75199890136719
 20
110.48999786376953
 30
0.0
 11
50.29199981689453
 21
114.427001953125
 31
0.0
  0
LINE
  5
15D
  8
PICKUP_ROUTE
 10
50.29199981689453
 20
114.427001953125
 30
0.0
 11
53.46699905395508
 21
117.53849792480469
 31
0.0
  0
LINE
  5
15E
  8
PICKUP_ROUTE
 10
53.46699905395508
 20
117.53849792480469
 30
0.0
 11
55.68949890136719
 21
118.9990005493164
 31
0.0
  0
LINE
  5
15F
  8
PICKUP_ROUTE
 10
55.68949890136719
 20
118.9990005493164
 30
0.0
 11
57.97549819946289
 21
120.01499938964844
 31
0.0
  0
LINE
  5
160
  8
PICKUP_ROUTE
 10
57.97549819946289
 20
120.01499938964844
 30
0.0
 11
62.48400115966797
 21
121.03099822998047
 31
0.0
  0
LINE
  5
161
  8
PICKUP_ROUTE
 10
82.16899871826172
 20
121.22149658203125
 30
0.0
 11
91.69400024414062
 21
121.03099822998047
 31
0.0
  0
LINE
  5
162
  8
PICKUP_ROUTE
 10
91.69400024414062
 20
121.03099822998047
 30
0.0
 11
96.39299774169922
 21
119.95149993896484
 31
0.0
  0
LINE
  5
163
  8
PICKUP_ROUTE
 10
96.39299774169922
 20
119.95149993896484
 30
0.0
 11
99.9489974975586
 21
118.04650115966797
 31
0.0
  0
LINE
  5
164
  8
PICKUP_ROUTE
 10
99.9489974975586
 20
118.04650115966797
 30
0.0
 11
101.9175033569336
 21
116.45899963378906
 31
0.0
  0
LINE
  5
165
  8
PICKUP_ROUTE
 10
101.9175033569336
 20
116.45899963378906
 30
0.0
 11
105.02899932861328
 21
112.7760009765625
 31
0.0
  0
LINE
  5
166
  8
PICKUP_ROUTE
 10
105.02899932861328
 20
112.7760009765625
 30
0.0
 11
106.5530014038086
 21
110.17250061035156
 31
0.0
  0
LINE
  5
167
  8
PICKUP_ROUTE
 10
106.5530014038086
 20
110.17250061035156
 30
0.0
 11
108.2040023803711
 21
106.1719970703125
 31
0.0
  0
LINE
  5
168
  8
PICKUP_ROUTE
 10
108.2040023803711
 20
106.1719970703125
 30
0.0
 11
108.83899688720703
 21
103.75900268554688
 31
0.0
  0
LINE
  5
169
  8
PICKUP_ROUTE
 10
108.83899688720703
 20
103.75900268554688
 30
0.0
 11
109.02950286865234
 21
99.25050354003906
 31
0.0
  0
LINE
  5
16A
  8
PICKUP_ROUTE
 10
109.02950286865234
 20
99.25050354003906
 30
0.0
 11
108.64849853515625
 21
96.45649719238281
 31
0.0
  0
LINE
  5
16B
  8
PICKUP_ROUTE
 10
108.64849853515625
 20
96.45649719238281
 30
0.0
 11
105.85449981689453
 21
85.15350341796875
 31
0.0
  0
LINE
  5
16C
  8
PICKUP_ROUTE
 10
105.85449981689453
 20
85.15350341796875
 30
0.0
 11
105.60050201416016
 21
81.78800201416016
 31
0.0
  0
LINE
  5
16D
  8
PICKUP_ROUTE
 10
105.60050201416016
 20
81.78800201416016
 30
0.0
 11
106.04499816894531
 21
77.6604995727539
 31
0.0
  0
LINE
  5
16E
  8
PICKUP_ROUTE
 10
106.04499816894531
 20
77.6604995727539
 30
0.0
 11
107.44200134277344
 21
72.96150207519531
 31
0.0
  0
LINE
  5
16F
  8
PICKUP_ROUTE
 10
107.44200134277344
 20
72.96150207519531
 30
0.0
 11
109.09300231933594
 21
69.15149688720703
 31
0.0
  0
LINE
  5
170
  8
PICKUP_ROUTE
 10
109.09300231933594
 20
69.15149688720703
 30
0.0
 11
115.88749694824219
 21
56.451499938964844
 31
0.0
  0
LINE
  5
171
  8
PICKUP_ROUTE
 10
115.88749694824219
 20
56.451499938964844
 30
0.0
 11
118.87200164794922
 21
49.40299987792969
 31
0.0
  0
LINE
  5
172
  8
PICKUP_ROUTE
 10
118.87200164794922
 20
49.40299987792969
 30
0.0
 11
119.69750213623047
 21
44.57699966430664
 31
0.0
  0
LINE
  5
173
  8
PICKUP_ROUTE
 10
119.69750213623047
 20
44.57699966430664
 30
0.0
 11
119.57050323486328
 21
39.94150161743164
 31
0.0
  0
LINE
  5
174
  8
PICKUP_ROUTE
 10
119.57050323486328
 20
39.94150161743164
 30
0.0
 11
117.85600280761719
 21
33.27399826049805
 31
0.0
  0
LINE
  5
175
  8
PICKUP_ROUTE
 10
117.85600280761719
 20
33.27399826049805
 30
0.0
 11
115.37950134277344
 21
28.95599937438965
 31
0.0
  0
LINE
  5
176
  8
PICKUP_ROUTE
 10
115.37950134277344
 20
28.95599937438965
 30
0.0
 11
112.58550262451172
 21
25.082500457763672
 31
0.0
  0
LINE
  5
177
  8
PICKUP_ROUTE
 10
112.58550262451172
 20
25.082500457763672
 30
0.0
 11
110.74400329589844
 21
23.11400032043457
 31
0.0
  0
LINE
  5
178
  8
PICKUP_ROUTE
 10
110.74400329589844
 20
23.11400032043457
 30
0.0
 11
107.18800354003906
 21
20.256500244140625
 31
0.0
  0
LINE
  5
179
  8
PICKUP_ROUTE
 10
107.18800354003906
 20
20.256500244140625
 30
0.0
 11
103.1240005493164
 21
18.160999298095703
 31
0.0
  0
LINE
  5
17A
  8
PICKUP_ROUTE
 10
103.1240005493164
 20
18.160999298095703
 30
0.0
 11
97.40899658203125
 21
16.636999130249023
 31
0.0
  0
LINE
  5
17B
  8
PICKUP_ROUTE
 10
97.40899658203125
 20
16.636999130249023
 30
0.0
 11
89.59850311279297
 21
15.239999771118164
 31
0.0
  0
LINE
  5
17C
  8
PICKUP_ROUTE
 10
89.59850311279297
 20
15.239999771118164
 30
0.0
 11
82.10549926757812
 21
15.303500175476074
 31
0.0
  0
LINE
  5
17D
  8
PICKUP_ROUTE
 10
82.10549926757812
 20
15.303500175476074
 30
0.0
 11
82.16899871826172
 21
121.22149658203125
 31
0.0
  0
LINE
  5
17E
  8
JACK_ROUTE
 10
169.2274932861328
 20
156.40049743652344
 30
0.0
 11
169.16400146484375
 21
145.60549926757812
 31
0.0
  0
LINE
  5
17F
  8
JACK_ROUTE
 10
169.16400146484375
 20
145.60549926757812
 30
0.0
 11
168.84649658203125
 21
145.54200744628906
 31
0.0
  0
LINE
  5
180
  8
JACK_ROUTE
 10
168.84649658203125
 20
145.54200744628906
 30
0.0
 11
169.16400146484375
 21
142.6844940185547
 31
0.0
  0
LINE
  5
181
  8
JACK_ROUTE
 10
169.16400146484375
 20
142.6844940185547
 30
0.0
 11
165.41749572753906
 21
142.62100219726562
 31
0.0
  0
LINE
  5
182
  8
JACK_ROUTE
 10
165.41749572753906
 20
142.62100219726562
 30
0.0
 11
169.16400146484375
 21
142.36700439453125
 31
0.0
  0
LINE
  5
183
  8
JACK_ROUTE
 10
169.16400146484375
 20
142.36700439453125
 30
0.0
 11
169.16400146484375
 21
135.57249450683594
 31
0.0
  0
LINE
  5
184
  8
JACK_ROUTE
 10
169.16400146484375
 20
135.57249450683594
 30
0.0
 11
165.41749572753906
 21
135.50900268554688
 31
0.0
  0
LINE
  5
185
  8
JACK_ROUTE
 10
165.41749572753906
 20
135.50900268554688
 30
0.0
 11
169.16400146484375
 21
135.2550048828125
 31
0.0
  0
LINE
  5
186
  8
JACK_ROUTE
 10
169.16400146484375
 20
135.2550048828125
 30
0.0
 11
168.84649658203125
 21
132.3975067138672
 31
0.0
  0
LINE
  5
187
  8
JACK_ROUTE
 10
168.84649658203125
 20
132.3975067138672
 30
0.0
 11
169.16400146484375
 21
132.33399963378906
 31
0.0
  0
LINE
  5
188
  8
JACK_ROUTE
 10
169.16400146484375
 20
132.33399963378906
 30
0.0
 11
169.16400146484375
 21
130.87350463867188
 31
0.0
  0
LINE
  5
189
  8
JACK_ROUTE
 10
169.16400146484375
 20
130.87350463867188
 30
0.0
 11
168.4654998779297
 21
130.7465057373047
 31
0.0
  0
LINE
  5
18A
  8
JACK_ROUTE
 10
168.4654998779297
 20
130.7465057373047
 30
0.0
 11
169.16400146484375
 21
130.55599975585938
 31
0.0
  0
LINE
  5
18B
  8
JACK_ROUTE
 10
169.16400146484375
 20
130.55599975585938
 30
0.0
 11
169.16400146484375
 21
129.34950256347656
 31
0.0
  0
LINE
  5
18C
  8
JACK_ROUTE
 10
169.16400146484375
 20
129.34950256347656
 30
0.0
 11
169.35450744628906
 21
129.28599548339844
 31
0.0
  0
LINE
  5
18D
  8
JACK_ROUTE
 10
169.35450744628906
 20
129.28599548339844
 30
0.0
 11
169.41799926757812
 21
130.6195068359375
 31
0.0
  0
LINE
  5
18E
  8
JACK_ROUTE
 10
169.41799926757812
 20
130.6195068359375
 30
0.0
 11
171.5135040283203
 21
130.6195068359375
 31
0.0
  0
LINE
  5
18F
  8
JACK_ROUTE
 10
171.5135040283203
 20
130.6195068359375
 30
0.0
 11
171.57699584960938
 21
130.23849487304688
 31
0.0
  0
LINE
  5
190
  8
JACK_ROUTE
 10
171.57699584960938
 20
130.23849487304688
 30
0.0
 11
174.4344940185547
 21
130.55599975585938
 31
0.0
  0
LINE
  5
191
  8
JACK_ROUTE
 10
174.4344940185547
 20
130.55599975585938
 30
0.0
 11
174.68850708007812
 21
126.80950164794922
 31
0.0
  0
LINE
  5
192
  8
JACK_ROUTE
 10
174.68850708007812
 20
126.80950164794922
 30
0.0
 11
174.68850708007812
 21
130.55599975585938
 31
0.0
  0
LINE
  5
193
  8
JACK_ROUTE
 10
174.68850708007812
 20
130.55599975585938
 30
0.0
 11
177.41900634765625
 21
130.6195068359375
 31
0.0
  0
LINE
  5
194
  8
JACK_ROUTE
 10
177.41900634765625
 20
130.6195068359375
 30
0.0
 11
177.6094970703125
 21
126.80950164794922
 31
0.0
  0
LINE
  5
195
  8
JACK_ROUTE
 10
177.6094970703125
 20
126.80950164794922
 30
0.0
 11
177.7364959716797
 21
130.55599975585938
 31
0.0
  0
LINE
  5
196
  8
JACK_ROUTE
 10
177.7364959716797
 20
130.55599975585938
 30
0.0
 11
180.53050231933594
 21
130.23849487304688
 31
0.0
  0
LINE
  5
197
  8
JACK_ROUTE
 10
180.53050231933594
 20
130.23849487304688
 30
0.0
 11
180.593994140625
 21
130.6195068359375
 31
0.0
  0
LINE
  5
198
  8
JACK_ROUTE
 10
180.593994140625
 20
130.6195068359375
 30
0.0
 11
193.802001953125
 21
130.6195068359375
 31
0.0
  0
LINE
  5
199
  8
JACK_ROUTE
 10
193.802001953125
 20
130.6195068359375
 30
0.0
 11
180.593994140625
 21
130.80999755859375
 31
0.0
  0
LINE
  5
19A
  8
JACK_ROUTE
 10
180.593994140625
 20
130.80999755859375
 30
0.0
 11
180.53050231933594
 21
131.12750244140625
 31
0.0
  0
LINE
  5
19B
  8
JACK_ROUTE
 10
180.53050231933594
 20
131.12750244140625
 30
0.0
 11
177.7364959716797
 21
130.80999755859375
 31
0.0
  0
LINE
  5
19C
  8
JACK_ROUTE
 10
177.7364959716797
 20
130.80999755859375
 30
0.0
 11
177.6094970703125
 21
131.38150024414062
 31
0.0
  0
LINE
  5
19D
  8
JACK_ROUTE
 10
177.6094970703125
 20
131.38150024414062
 30
0.0
 11
177.41900634765625
 21
130.80999755859375
 31
0.0
  0
LINE
  5
19E
  8
JACK_ROUTE
 10
177.41900634765625
 20
130.80999755859375
 30
0.0
 11
173.54550170898438
 21
130.80999755859375
 31
0.0
  0
LINE
  5
19F
  8
JACK_ROUTE
 10
173.54550170898438
 20
130.80999755859375
 30
0.0
 11
171.57699584960938
 21
131.12750244140625
 31
0.0
  0
LINE
  5
1A0
  8
JACK_ROUTE
 10
171.57699584960938
 20
131.12750244140625
 30
0.0
 11
171.5135040283203
 21
130.80999755859375
 31
0.0
  0
LINE
  5
1A1
  8
JACK_ROUTE
 10
171.5135040283203
 20
130.80999755859375
 30
0.0
 11
169.35450744628906
 21
130.87350463867188
 31
0.0
  0
LINE
  5
1A2
  8
JACK_ROUTE
 10
169.35450744628906
 20
130.87350463867188
 30
0.0
 11
169.35450744628906
 21
132.33399963378906
 31
0.0
  0
LINE
  5
1A3
  8
JACK_ROUTE
 10
169.35450744628906
 20
132.33399963378906
 30
0.0
 11
169.73550415039062
 21
132.3975067138672
 31
0.0
  0
LINE
  5
1A4
  8
JACK_ROUTE
 10
169.73550415039062
 20
132.3975067138672
 30
0.0
 11
169.41799926757812
 21
135.2550048828125
 31
0.0
  0
LINE
  5
1A5
  8
JACK_ROUTE
 10
169.41799926757812
 20
135.2550048828125
 30
0.0
 11
170.81500244140625
 21
135.44549560546875
 31
0.0
  0
LINE
  5
1A6
  8
JACK_ROUTE
 10
170.81500244140625
 20
135.44549560546875
 30
0.0
 11
169.35450744628906
 21
135.57249450683594
 31
0.0
  0
LINE
  5
1A7
  8
JACK_ROUTE
 10
169.35450744628906
 20
135.57249450683594
 30
0.0
 11
169.35450744628906
 21
142.36700439453125
 31
0.0
  0
LINE
  5
1A8
  8
JACK_ROUTE
 10
169.35450744628906
 20
142.36700439453125
 30
0.0
 11
170.81500244140625
 21
142.5574951171875
 31
0.0
  0
LINE
  5
1A9
  8
JACK_ROUTE
 10
170.81500244140625
 20
142.5574951171875
 30
0.0
 11
169.41799926757812
 21
142.6844940185547
 31
0.0
  0
LINE
  5
1AA
  8
JACK_ROUTE
 10
169.41799926757812
 20
142.6844940185547
 30
0.0
 11
169.73550415039062
 21
145.54200744628906
 31
0.0
  0
LINE
  5
1AB
  8
JACK_ROUTE
 10
169.73550415039062
 20
145.54200744628906
 30
0.0
 11
169.35450744628906
 21
145.60549926757812
 31
0.0
  0
LINE
  5
1AC
  8
JACK_ROUTE
 10
169.35450744628906
 20
145.60549926757812
 30
0.0
 11
169.2274932861328
 21
156.40049743652344
 31
0.0
  0
LINE
  5
1AD
  8
CONTROL_CAVITY
 10
50.41899871826172
 20
255.968505859375
 30
0.0
 11
45.9739990234375
 21
254.38099670410156
 31
0.0
  0
LINE
  5
1AE
  8
CONTROL_CAVITY
 10
45.9739990234375
 20
254.38099670410156
 30
0.0
 11
43.878501892089844
 21
253.04750061035156
 31
0.0
  0
LINE
  5
1AF
  8
CONTROL_CAVITY
 10
43.878501892089844
 20
253.04750061035156
 30
0.0
 11
41.71950149536133
 21
251.07899475097656
 31
0.0
  0
LINE
  5
1B0
  8
CONTROL_CAVITY
 10
41.71950149536133
 20
251.07899475097656
 30
0.0
 11
39.0525016784668
 21
247.7135009765625
 31
0.0
  0
LINE
  5
1B1
  8
CONTROL_CAVITY
 10
39.0525016784668
 20
247.7135009765625
 30
0.0
 11
36.89350128173828
 21
243.5225067138672
 31
0.0
  0
LINE
  5
1B2
  8
CONTROL_CAVITY
 10
36.89350128173828
 20
243.5225067138672
 30
0.0
 11
36.131500244140625
 21
241.2364959716797
 31
0.0
  0
LINE
  5
1B3
  8
CONTROL_CAVITY
 10
36.131500244140625
 20
241.2364959716797
 30
0.0
 11
35.24250030517578
 21
236.79150390625
 31
0.0
  0
LINE
  5
1B4
  8
CONTROL_CAVITY
 10
35.24250030517578
 20
236.79150390625
 30
0.0
 11
35.560001373291016
 21
231.77499389648438
 31
0.0
  0
LINE
  5
1B5
  8
CONTROL_CAVITY
 10
35.560001373291016
 20
231.77499389648438
 30
0.0
 11
38.354000091552734
 21
220.4720001220703
 31
0.0
  0
LINE
  5
1B6
  8
CONTROL_CAVITY
 10
38.354000091552734
 20
220.4720001220703
 30
0.0
 11
38.608001708984375
 21
218.24949645996094
 31
0.0
  0
LINE
  5
1B7
  8
CONTROL_CAVITY
 10
38.608001708984375
 20
218.24949645996094
 30
0.0
 11
38.354000091552734
 21
213.29649353027344
 31
0.0
  0
LINE
  5
1B8
  8
CONTROL_CAVITY
 10
38.354000091552734
 20
213.29649353027344
 30
0.0
 11
37.02050018310547
 21
208.59750366210938
 31
0.0
  0
LINE
  5
1B9
  8
CONTROL_CAVITY
 10
37.02050018310547
 20
208.59750366210938
 30
0.0
 11
35.17900085449219
 21
204.406494140625
 31
0.0
  0
LINE
  5
1BA
  8
CONTROL_CAVITY
 10
35.17900085449219
 20
204.406494140625
 30
0.0
 11
28.00349998474121
 21
191.00799560546875
 31
0.0
  0
LINE
  5
1BB
  8
CONTROL_CAVITY
 10
28.00349998474121
 20
191.00799560546875
 30
0.0
 11
25.463499069213867
 21
184.6580047607422
 31
0.0
  0
LINE
  5
1BC
  8
CONTROL_CAVITY
 10
25.463499069213867
 20
184.6580047607422
 30
0.0
 11
24.574499130249023
 21
180.21299743652344
 31
0.0
  0
LINE
  5
1BD
  8
CONTROL_CAVITY
 10
24.574499130249023
 20
180.21299743652344
 30
0.0
 11
24.574499130249023
 21
177.29200744628906
 31
0.0
  0
LINE
  5
1BE
  8
CONTROL_CAVITY
 10
24.574499130249023
 20
177.29200744628906
 30
0.0
 11
25.018999099731445
 21
173.22799682617188
 31
0.0
  0
LINE
  5
1BF
  8
CONTROL_CAVITY
 10
25.018999099731445
 20
173.22799682617188
 30
0.0
 11
25.65399932861328
 21
170.56100463867188
 31
0.0
  0
LINE
  5
1C0
  8
CONTROL_CAVITY
 10
25.65399932861328
 20
170.56100463867188
 30
0.0
 11
28.638500213623047
 21
164.33799743652344
 31
0.0
  0
LINE
  5
1C1
  8
CONTROL_CAVITY
 10
28.638500213623047
 20
164.33799743652344
 30
0.0
 11
33.21049880981445
 21
158.5594940185547
 31
0.0
  0
LINE
  5
1C2
  8
CONTROL_CAVITY
 10
33.21049880981445
 20
158.5594940185547
 30
0.0
 11
35.24250030517578
 21
156.6544952392578
 31
0.0
  0
LINE
  5
1C3
  8
CONTROL_CAVITY
 10
35.24250030517578
 20
156.6544952392578
 30
0.0
 11
39.11600112915039
 21
154.114501953125
 31
0.0
  0
LINE
  5
1C4
  8
CONTROL_CAVITY
 10
39.11600112915039
 20
154.114501953125
 30
0.0
 11
43.6879997253418
 21
152.39999389648438
 31
0.0
  0
LINE
  5
1C5
  8
CONTROL_CAVITY
 10
43.6879997253418
 20
152.39999389648438
 30
0.0
 11
52.76850128173828
 21
150.43150329589844
 31
0.0
  0
LINE
  5
1C6
  8
CONTROL_CAVITY
 10
52.76850128173828
 20
150.43150329589844
 30
0.0
 11
60.83300018310547
 21
150.11399841308594
 31
0.0
  0
LINE
  5
1C7
  8
CONTROL_CAVITY
 10
60.83300018310547
 20
150.11399841308594
 30
0.0
 11
70.29450225830078
 21
150.17750549316406
 31
0.0
  0
LINE
  5
1C8
  8
CONTROL_CAVITY
 10
70.29450225830078
 20
150.17750549316406
 30
0.0
 11
81.40699768066406
 21
152.39999389648438
 31
0.0
  0
LINE
  5
1C9
  8
CONTROL_CAVITY
 10
81.40699768066406
 20
152.39999389648438
 30
0.0
 11
85.85199737548828
 21
154.05099487304688
 31
0.0
  0
LINE
  5
1CA
  8
CONTROL_CAVITY
 10
85.85199737548828
 20
154.05099487304688
 30
0.0
 11
88.13800048828125
 21
155.3209991455078
 31
0.0
  0
LINE
  5
1CB
  8
CONTROL_CAVITY
 10
88.13800048828125
 20
155.3209991455078
 30
0.0
 11
90.04299926757812
 21
156.781494140625
 31
0.0
  0
LINE
  5
1CC
  8
CONTROL_CAVITY
 10
90.04299926757812
 20
156.781494140625
 30
0.0
 11
93.40850067138672
 21
160.14700317382812
 31
0.0
  0
LINE
  5
1CD
  8
CONTROL_CAVITY
 10
93.40850067138672
 20
160.14700317382812
 30
0.0
 11
96.39299774169922
 21
164.21099853515625
 31
0.0
  0
LINE
  5
1CE
  8
CONTROL_CAVITY
 10
96.39299774169922
 20
164.21099853515625
 30
0.0
 11
98.6155014038086
 21
168.3385009765625
 31
0.0
  0
LINE
  5
1CF
  8
CONTROL_CAVITY
 10
98.6155014038086
 20
168.3385009765625
 30
0.0
 11
99.44100189208984
 21
170.49749755859375
 31
0.0
  0
LINE
  5
1D0
  8
CONTROL_CAVITY
 10
99.44100189208984
 20
170.49749755859375
 30
0.0
 11
100.45700073242188
 21
175.0695037841797
 31
0.0
  0
LINE
  5
1D1
  8
CONTROL_CAVITY
 10
100.45700073242188
 20
175.0695037841797
 30
0.0
 11
100.52050018310547
 21
180.40350341796875
 31
0.0
  0
LINE
  5
1D2
  8
CONTROL_CAVITY
 10
100.52050018310547
 20
180.40350341796875
 30
0.0
 11
99.12349700927734
 21
186.3090057373047
 31
0.0
  0
LINE
  5
1D3
  8
CONTROL_CAVITY
 10
99.12349700927734
 20
186.3090057373047
 30
0.0
 11
96.71050262451172
 21
191.83349609375
 31
0.0
  0
LINE
  5
1D4
  8
CONTROL_CAVITY
 10
96.71050262451172
 20
191.83349609375
 30
0.0
 11
90.10649871826172
 21
204.02549743652344
 31
0.0
  0
LINE
  5
1D5
  8
CONTROL_CAVITY
 10
90.10649871826172
 20
204.02549743652344
 30
0.0
 11
88.13800048828125
 21
208.4705047607422
 31
0.0
  0
LINE
  5
1D6
  8
CONTROL_CAVITY
 10
88.13800048828125
 20
208.4705047607422
 30
0.0
 11
86.80449676513672
 21
212.97900390625
 31
0.0
  0
LINE
  5
1D7
  8
CONTROL_CAVITY
 10
86.80449676513672
 20
212.97900390625
 30
0.0
 11
86.48699951171875
 21
215.13800048828125
 31
0.0
  0
LINE
  5
1D8
  8
CONTROL_CAVITY
 10
86.48699951171875
 20
215.13800048828125
 30
0.0
 11
86.67749786376953
 21
219.90049743652344
 31
0.0
  0
LINE
  5
1D9
  8
CONTROL_CAVITY
 10
86.67749786376953
 20
219.90049743652344
 30
0.0
 11
89.53500366210938
 21
231.7115020751953
 31
0.0
  0
LINE
  5
1DA
  8
CONTROL_CAVITY
 10
89.53500366210938
 20
231.7115020751953
 30
0.0
 11
89.78900146484375
 21
233.9340057373047
 31
0.0
  0
LINE
  5
1DB
  8
CONTROL_CAVITY
 10
89.78900146484375
 20
233.9340057373047
 30
0.0
 11
89.78900146484375
 21
237.6804962158203
 31
0.0
  0
LINE
  5
1DC
  8
CONTROL_CAVITY
 10
89.78900146484375
 20
237.6804962158203
 30
0.0
 11
89.0270004272461
 21
241.36349487304688
 31
0.0
  0
LINE
  5
1DD
  8
CONTROL_CAVITY
 10
89.0270004272461
 20
241.36349487304688
 30
0.0
 11
86.99500274658203
 21
246.12600708007812
 31
0.0
  0
LINE
  5
1DE
  8
CONTROL_CAVITY
 10
86.99500274658203
 20
246.12600708007812
 30
0.0
 11
84.51850128173828
 21
249.93600463867188
 31
0.0
  0
LINE
  5
1DF
  8
CONTROL_CAVITY
 10
84.51850128173828
 20
249.93600463867188
 30
0.0
 11
81.15299987792969
 21
253.11099243164062
 31
0.0
  0
LINE
  5
1E0
  8
CONTROL_CAVITY
 10
81.15299987792969
 20
253.11099243164062
 30
0.0
 11
76.89849853515625
 21
255.33349609375
 31
0.0
  0
LINE
  5
1E1
  8
CONTROL_CAVITY
 10
76.89849853515625
 20
255.33349609375
 30
0.0
 11
72.45349884033203
 21
256.4129943847656
 31
0.0
  0
LINE
  5
1E2
  8
CONTROL_CAVITY
 10
72.45349884033203
 20
256.4129943847656
 30
0.0
 11
68.135498046875
 21
256.6034851074219
 31
0.0
  0
LINE
  5
1E3
  8
CONTROL_CAVITY
 10
68.135498046875
 20
256.6034851074219
 30
0.0
 11
55.054500579833984
 21
256.6034851074219
 31
0.0
  0
LINE
  5
1E4
  8
CONTROL_CAVITY
 10
55.054500579833984
 20
256.6034851074219
 30
0.0
 11
50.41899871826172
 21
255.968505859375
 31
0.0
  0
ENDSEC
  0
EOF
