<svg xmlns="http://www.w3.org/2000/svg" width="900" height="900" viewBox="0 0 900 900">
<!-- 
  ROSETTE CONSTRUCTION NOTES:
  - All 12 tile pieces are geometrically identical (rotational symmetry)
  - Tile skew angle compensates for arc curvature of main channel
  - Wide end (1.50") seats at outer boundary r=3.00"
  - Narrow end (0.625") seats at inner boundary r=2.10"
  - 0.75" offsets define the parallelogram skew for tangential alignment
  - Physical tile thickness: approximately 0.080" (2mm)
  - Material options: herringbone purfling strip, abalone shell, MOP, figured maple
  - Extension tabs register tile position during glue-up
  - Channel routed to depth = tile thickness + 0.005" clearance
-->
<desc>Luthier rosette layout with five concentric zones, 12 equal radial divisions, tile detail, engineering dimensions, and title block.</desc>

<defs>
  <pattern id="hatchBlue" patternUnits="userSpaceOnUse" width="12" height="12" patternTransform="rotate(45)">
    <line x1="0" y1="0" x2="0" y2="12" stroke="#1a1a2e" stroke-width="1" opacity="0.20"/>
  </pattern>
  <pattern id="hatchLight" patternUnits="userSpaceOnUse" width="12" height="12" patternTransform="rotate(45)">
    <line x1="0" y1="0" x2="0" y2="12" stroke="#1a1a2e" stroke-width="1" opacity="0.12"/>
  </pattern>
  <marker id="arrow" markerWidth="8" markerHeight="8" refX="4" refY="4" orient="auto" markerUnits="userSpaceOnUse">
    <path d="M0,0 L8,4 L0,8 Z" fill="#333"/>
  </marker>
  <marker id="arrowStart" markerWidth="8" markerHeight="8" refX="4" refY="4" orient="auto-start-reverse" markerUnits="userSpaceOnUse">
    <path d="M0,0 L8,4 L0,8 Z" fill="#333"/>
  </marker>
  <style>
    text { font-family: monospace; fill: #1a1a2e; }
    .dim { stroke:#333; stroke-width:0.7; fill:none; marker-start:url(#arrowStart); marker-end:url(#arrow); }
    .ext { stroke:#333; stroke-width:0.7; fill:none; }
    .guide { stroke:#1a1a2e; stroke-width:0.8; fill:none; }
    .thin { stroke:#1a1a2e; stroke-width:0.6; fill:none; }
    .label { font-size:9px; }
    .small { font-size:8px; }
    .tiny { font-size:7px; }
  </style>
</defs>

<rect x="0" y="0" width="900" height="900" fill="#f5f0e8"/>
<g id="ring-background">
<circle cx="450" cy="450" r="150" fill="#2a1f0e" stroke="none"/>
<path d="M 450.000,260.000 A 190.000,190.000 0 1 1 450.000,640.000 A 190.000,190.000 0 1 1 450.000,260.000 M 450.000,300.000 A 150.000,150.000 0 1 0 450.000,600.000 A 150.000,150.000 0 1 0 450.000,300.000 Z" fill="#d4b483" stroke="none"/>
<path d="M 450.000,240.000 A 210.000,210.000 0 1 1 450.000,660.000 A 210.000,210.000 0 1 1 450.000,240.000 M 450.000,260.000 A 190.000,190.000 0 1 0 450.000,640.000 A 190.000,190.000 0 1 0 450.000,260.000 Z" fill="#c8c8c8" stroke="none"/>
<path d="M 450.000,130.000 A 320.000,320.000 0 1 1 450.000,770.000 A 320.000,320.000 0 1 1 450.000,130.000 M 450.000,150.000 A 300.000,300.000 0 1 0 450.000,750.000 A 300.000,300.000 0 1 0 450.000,150.000 Z" fill="#c8c8c8" stroke="none"/>
<path d="M 450.000,100.000 A 350.000,350.000 0 1 1 450.000,800.000 A 350.000,350.000 0 1 1 450.000,100.000 M 450.000,130.000 A 320.000,320.000 0 1 0 450.000,770.000 A 320.000,320.000 0 1 0 450.000,130.000 Z" fill="#d4b483" stroke="none"/>
</g>
<g id="ring-cells">
<path d="M 450.000,150.000 A 300.000,300.000 0 0 1 600.000,190.192 L 555.000,268.135 A 210.000,210.000 0 0 0 450.000,240.000 Z" fill="#4a90d9" stroke="#1a1a2e" stroke-width="0.8"/>
<path d="M 450.000,150.000 A 300.000,300.000 0 0 1 600.000,190.192 L 555.000,268.135 A 210.000,210.000 0 0 0 450.000,240.000 Z" fill="url(#hatchBlue)" stroke="none"/>
<path d="M 600.000,190.192 A 300.000,300.000 0 0 1 709.808,300.000 L 631.865,345.000 A 210.000,210.000 0 0 0 555.000,268.135 Z" fill="#b0c8e8" stroke="#1a1a2e" stroke-width="0.8"/>
<path d="M 600.000,190.192 A 300.000,300.000 0 0 1 709.808,300.000 L 631.865,345.000 A 210.000,210.000 0 0 0 555.000,268.135 Z" fill="url(#hatchLight)" stroke="none"/>
<path d="M 709.808,300.000 A 300.000,300.000 0 0 1 750.000,450.000 L 660.000,450.000 A 210.000,210.000 0 0 0 631.865,345.000 Z" fill="#4a90d9" stroke="#1a1a2e" stroke-width="0.8"/>
<path d="M 709.808,300.000 A 300.000,300.000 0 0 1 750.000,450.000 L 660.000,450.000 A 210.000,210.000 0 0 0 631.865,345.000 Z" fill="url(#hatchBlue)" stroke="none"/>
<path d="M 750.000,450.000 A 300.000,300.000 0 0 1 709.808,600.000 L 631.865,555.000 A 210.000,210.000 0 0 0 660.000,450.000 Z" fill="#b0c8e8" stroke="#1a1a2e" stroke-width="0.8"/>
<path d="M 750.000,450.000 A 300.000,300.000 0 0 1 709.808,600.000 L 631.865,555.000 A 210.000,210.000 0 0 0 660.000,450.000 Z" fill="url(#hatchLight)" stroke="none"/>
<path d="M 709.808,600.000 A 300.000,300.000 0 0 1 600.000,709.808 L 555.000,631.865 A 210.000,210.000 0 0 0 631.865,555.000 Z" fill="#4a90d9" stroke="#1a1a2e" stroke-width="0.8"/>
<path d="M 709.808,600.000 A 300.000,300.000 0 0 1 600.000,709.808 L 555.000,631.865 A 210.000,210.000 0 0 0 631.865,555.000 Z" fill="url(#hatchBlue)" stroke="none"/>
<path d="M 600.000,709.808 A 300.000,300.000 0 0 1 450.000,750.000 L 450.000,660.000 A 210.000,210.000 0 0 0 555.000,631.865 Z" fill="#b0c8e8" stroke="#1a1a2e" stroke-width="0.8"/>
<path d="M 600.000,709.808 A 300.000,300.000 0 0 1 450.000,750.000 L 450.000,660.000 A 210.000,210.000 0 0 0 555.000,631.865 Z" fill="url(#hatchLight)" stroke="none"/>
<path d="M 450.000,750.000 A 300.000,300.000 0 0 1 300.000,709.808 L 345.000,631.865 A 210.000,210.000 0 0 0 450.000,660.000 Z" fill="#4a90d9" stroke="#1a1a2e" stroke-width="0.8"/>
<path d="M 450.000,750.000 A 300.000,300.000 0 0 1 300.000,709.808 L 345.000,631.865 A 210.000,210.000 0 0 0 450.000,660.000 Z" fill="url(#hatchBlue)" stroke="none"/>
<path d="M 300.000,709.808 A 300.000,300.000 0 0 1 190.192,600.000 L 268.135,555.000 A 210.000,210.000 0 0 0 345.000,631.865 Z" fill="#b0c8e8" stroke="#1a1a2e" stroke-width="0.8"/>
<path d="M 300.000,709.808 A 300.000,300.000 0 0 1 190.192,600.000 L 268.135,555.000 A 210.000,210.000 0 0 0 345.000,631.865 Z" fill="url(#hatchLight)" stroke="none"/>
<path d="M 190.192,600.000 A 300.000,300.000 0 0 1 150.000,450.000 L 240.000,450.000 A 210.000,210.000 0 0 0 268.135,555.000 Z" fill="#4a90d9" stroke="#1a1a2e" stroke-width="0.8"/>
<path d="M 190.192,600.000 A 300.000,300.000 0 0 1 150.000,450.000 L 240.000,450.000 A 210.000,210.000 0 0 0 268.135,555.000 Z" fill="url(#hatchBlue)" stroke="none"/>
<path d="M 150.000,450.000 A 300.000,300.000 0 0 1 190.192,300.000 L 268.135,345.000 A 210.000,210.000 0 0 0 240.000,450.000 Z" fill="#b0c8e8" stroke="#1a1a2e" stroke-width="0.8"/>
<path d="M 150.000,450.000 A 300.000,300.000 0 0 1 190.192,300.000 L 268.135,345.000 A 210.000,210.000 0 0 0 240.000,450.000 Z" fill="url(#hatchLight)" stroke="none"/>
<path d="M 190.192,300.000 A 300.000,300.000 0 0 1 300.000,190.192 L 345.000,268.135 A 210.000,210.000 0 0 0 268.135,345.000 Z" fill="#4a90d9" stroke="#1a1a2e" stroke-width="0.8"/>
<path d="M 190.192,300.000 A 300.000,300.000 0 0 1 300.000,190.192 L 345.000,268.135 A 210.000,210.000 0 0 0 268.135,345.000 Z" fill="url(#hatchBlue)" stroke="none"/>
<path d="M 300.000,190.192 A 300.000,300.000 0 0 1 450.000,150.000 L 450.000,240.000 A 210.000,210.000 0 0 0 345.000,268.135 Z" fill="#b0c8e8" stroke="#1a1a2e" stroke-width="0.8"/>
<path d="M 300.000,190.192 A 300.000,300.000 0 0 1 450.000,150.000 L 450.000,240.000 A 210.000,210.000 0 0 0 345.000,268.135 Z" fill="url(#hatchLight)" stroke="none"/>
</g>
<g id="ring-extensions">
<path d="M 502.094,154.558 L 552.606,168.092 L 571.908,162.802 L 520.185,145.997 Z" fill="#4a90d9" stroke="#1a1a2e" stroke-width="0.8"/>
<path d="M 502.094,154.558 L 552.606,168.092 L 571.908,162.802 L 520.185,145.997 Z" fill="url(#hatchBlue)" stroke="none"/>
<path d="M 486.466,243.190 L 521.824,252.665 L 508.474,258.739 L 474.374,251.491 Z" fill="#4a90d9" stroke="#1a1a2e" stroke-width="0.8"/>
<path d="M 486.466,243.190 L 521.824,252.665 L 508.474,258.739 L 474.374,251.491 Z" fill="url(#hatchBlue)" stroke="none"/>
<path d="M 642.836,220.187 L 679.813,257.164 L 699.174,262.234 L 662.783,221.818 Z" fill="#b0c8e8" stroke="#1a1a2e" stroke-width="0.8"/>
<path d="M 642.836,220.187 L 679.813,257.164 L 699.174,262.234 L 662.783,221.818 Z" fill="url(#hatchLight)" stroke="none"/>
<path d="M 584.985,289.131 L 610.869,315.015 L 596.271,313.600 L 570.363,290.273 Z" fill="#b0c8e8" stroke="#1a1a2e" stroke-width="0.8"/>
<path d="M 584.985,289.131 L 610.869,315.015 L 596.271,313.600 L 570.363,290.273 Z" fill="url(#hatchLight)" stroke="none"/>
<path d="M 731.908,347.394 L 745.442,397.906 L 759.674,411.977 L 748.367,358.780 Z" fill="#4a90d9" stroke="#1a1a2e" stroke-width="0.8"/>
<path d="M 731.908,347.394 L 745.442,397.906 L 759.674,411.977 L 748.367,358.780 Z" fill="url(#hatchBlue)" stroke="none"/>
<path d="M 647.335,378.176 L 656.810,413.534 L 644.874,405.010 L 634.101,371.854 Z" fill="#4a90d9" stroke="#1a1a2e" stroke-width="0.8"/>
<path d="M 647.335,378.176 L 656.810,413.534 L 644.874,405.010 L 634.101,371.854 Z" fill="url(#hatchBlue)" stroke="none"/>
<path d="M 745.442,502.094 L 731.908,552.606 L 737.198,571.908 L 754.003,520.185 Z" fill="#b0c8e8" stroke="#1a1a2e" stroke-width="0.8"/>
<path d="M 745.442,502.094 L 731.908,552.606 L 737.198,571.908 L 754.003,520.185 Z" fill="url(#hatchLight)" stroke="none"/>
<path d="M 656.810,486.466 L 647.335,521.824 L 641.261,508.474 L 648.509,474.374 Z" fill="#b0c8e8" stroke="#1a1a2e" stroke-width="0.8"/>
<path d="M 656.810,486.466 L 647.335,521.824 L 641.261,508.474 L 648.509,474.374 Z" fill="url(#hatchLight)" stroke="none"/>
<path d="M 679.813,642.836 L 642.836,679.813 L 637.766,699.174 L 678.182,662.783 Z" fill="#4a90d9" stroke="#1a1a2e" stroke-width="0.8"/>
<path d="M 679.813,642.836 L 642.836,679.813 L 637.766,699.174 L 678.182,662.783 Z" fill="url(#hatchBlue)" stroke="none"/>
<path d="M 610.869,584.985 L 584.985,610.869 L 586.400,596.271 L 609.727,570.363 Z" fill="#4a90d9" stroke="#1a1a2e" stroke-width="0.8"/>
<path d="M 610.869,584.985 L 584.985,610.869 L 586.400,596.271 L 609.727,570.363 Z" fill="url(#hatchBlue)" stroke="none"/>
<path d="M 552.606,731.908 L 502.094,745.442 L 488.023,759.674 L 541.220,748.367 Z" fill="#b0c8e8" stroke="#1a1a2e" stroke-width="0.8"/>
<path d="M 552.606,731.908 L 502.094,745.442 L 488.023,759.674 L 541.220,748.367 Z" fill="url(#hatchLight)" stroke="none"/>
<path d="M 521.824,647.335 L 486.466,656.810 L 494.990,644.874 L 528.146,634.101 Z" fill="#b0c8e8" stroke="#1a1a2e" stroke-width="0.8"/>
<path d="M 521.824,647.335 L 486.466,656.810 L 494.990,644.874 L 528.146,634.101 Z" fill="url(#hatchLight)" stroke="none"/>
<path d="M 397.906,745.442 L 347.394,731.908 L 328.092,737.198 L 379.815,754.003 Z" fill="#4a90d9" stroke="#1a1a2e" stroke-width="0.8"/>
<path d="M 397.906,745.442 L 347.394,731.908 L 328.092,737.198 L 379.815,754.003 Z" fill="url(#hatchBlue)" stroke="none"/>
<path d="M 413.534,656.810 L 378.176,647.335 L 391.526,641.261 L 425.626,648.509 Z" fill="#4a90d9" stroke="#1a1a2e" stroke-width="0.8"/>
<path d="M 413.534,656.810 L 378.176,647.335 L 391.526,641.261 L 425.626,648.509 Z" fill="url(#hatchBlue)" stroke="none"/>
<path d="M 257.164,679.813 L 220.187,642.836 L 200.826,637.766 L 237.217,678.182 Z" fill="#b0c8e8" stroke="#1a1a2e" stroke-width="0.8"/>
<path d="M 257.164,679.813 L 220.187,642.836 L 200.826,637.766 L 237.217,678.182 Z" fill="url(#hatchLight)" stroke="none"/>
<path d="M 315.015,610.869 L 289.131,584.985 L 303.729,586.400 L 329.637,609.727 Z" fill="#b0c8e8" stroke="#1a1a2e" stroke-width="0.8"/>
<path d="M 315.015,610.869 L 289.131,584.985 L 303.729,586.400 L 329.637,609.727 Z" fill="url(#hatchLight)" stroke="none"/>
<path d="M 168.092,552.606 L 154.558,502.094 L 140.326,488.023 L 151.633,541.220 Z" fill="#4a90d9" stroke="#1a1a2e" stroke-width="0.8"/>
<path d="M 168.092,552.606 L 154.558,502.094 L 140.326,488.023 L 151.633,541.220 Z" fill="url(#hatchBlue)" stroke="none"/>
<path d="M 252.665,521.824 L 243.190,486.466 L 255.126,494.990 L 265.899,528.146 Z" fill="#4a90d9" stroke="#1a1a2e" stroke-width="0.8"/>
<path d="M 252.665,521.824 L 243.190,486.466 L 255.126,494.990 L 265.899,528.146 Z" fill="url(#hatchBlue)" stroke="none"/>
<path d="M 154.558,397.906 L 168.092,347.394 L 162.802,328.092 L 145.997,379.815 Z" fill="#b0c8e8" stroke="#1a1a2e" stroke-width="0.8"/>
<path d="M 154.558,397.906 L 168.092,347.394 L 162.802,328.092 L 145.997,379.815 Z" fill="url(#hatchLight)" stroke="none"/>
<path d="M 243.190,413.534 L 252.665,378.176 L 258.739,391.526 L 251.491,425.626 Z" fill="#b0c8e8" stroke="#1a1a2e" stroke-width="0.8"/>
<path d="M 243.190,413.534 L 252.665,378.176 L 258.739,391.526 L 251.491,425.626 Z" fill="url(#hatchLight)" stroke="none"/>
<path d="M 220.187,257.164 L 257.164,220.187 L 262.234,200.826 L 221.818,237.217 Z" fill="#4a90d9" stroke="#1a1a2e" stroke-width="0.8"/>
<path d="M 220.187,257.164 L 257.164,220.187 L 262.234,200.826 L 221.818,237.217 Z" fill="url(#hatchBlue)" stroke="none"/>
<path d="M 289.131,315.015 L 315.015,289.131 L 313.600,303.729 L 290.273,329.637 Z" fill="#4a90d9" stroke="#1a1a2e" stroke-width="0.8"/>
<path d="M 289.131,315.015 L 315.015,289.131 L 313.600,303.729 L 290.273,329.637 Z" fill="url(#hatchBlue)" stroke="none"/>
<path d="M 347.394,168.092 L 397.906,154.558 L 411.977,140.326 L 358.780,151.633 Z" fill="#b0c8e8" stroke="#1a1a2e" stroke-width="0.8"/>
<path d="M 347.394,168.092 L 397.906,154.558 L 411.977,140.326 L 358.780,151.633 Z" fill="url(#hatchLight)" stroke="none"/>
<path d="M 378.176,252.665 L 413.534,243.190 L 405.010,255.126 L 371.854,265.899 Z" fill="#b0c8e8" stroke="#1a1a2e" stroke-width="0.8"/>
<path d="M 378.176,252.665 L 413.534,243.190 L 405.010,255.126 L 371.854,265.899 Z" fill="url(#hatchLight)" stroke="none"/>
</g>
<g id="ring-guides">
<circle cx="450" cy="450" r="150" class="guide"/>
<circle cx="450" cy="450" r="190" class="guide"/>
<circle cx="450" cy="450" r="200" class="guide"/>
<circle cx="450" cy="450" r="210" class="guide"/>
<circle cx="450" cy="450" r="300" class="guide"/>
<circle cx="450" cy="450" r="312" class="guide"/>
<circle cx="450" cy="450" r="320" class="guide"/>
<circle cx="450" cy="450" r="350" class="guide"/>
<line x1="450.000" y1="300.000" x2="450.000" y2="100.000" stroke="#1a1a2e" stroke-width="0.6"/>
<line x1="525.000" y1="320.096" x2="625.000" y2="146.891" stroke="#1a1a2e" stroke-width="0.6"/>
<line x1="579.904" y1="375.000" x2="753.109" y2="275.000" stroke="#1a1a2e" stroke-width="0.6"/>
<line x1="600.000" y1="450.000" x2="800.000" y2="450.000" stroke="#1a1a2e" stroke-width="0.6"/>
<line x1="579.904" y1="525.000" x2="753.109" y2="625.000" stroke="#1a1a2e" stroke-width="0.6"/>
<line x1="525.000" y1="579.904" x2="625.000" y2="753.109" stroke="#1a1a2e" stroke-width="0.6"/>
<line x1="450.000" y1="600.000" x2="450.000" y2="800.000" stroke="#1a1a2e" stroke-width="0.6"/>
<line x1="375.000" y1="579.904" x2="275.000" y2="753.109" stroke="#1a1a2e" stroke-width="0.6"/>
<line x1="320.096" y1="525.000" x2="146.891" y2="625.000" stroke="#1a1a2e" stroke-width="0.6"/>
<line x1="300.000" y1="450.000" x2="100.000" y2="450.000" stroke="#1a1a2e" stroke-width="0.6"/>
<line x1="320.096" y1="375.000" x2="146.891" y2="275.000" stroke="#1a1a2e" stroke-width="0.6"/>
<line x1="375.000" y1="320.096" x2="275.000" y2="146.891" stroke="#1a1a2e" stroke-width="0.6"/>
<line x1="435" y1="450" x2="465" y2="450" stroke="#1a1a2e" stroke-width="0.8" stroke-dasharray="2,2"/>
<line x1="450" y1="435" x2="450" y2="465" stroke="#1a1a2e" stroke-width="0.8" stroke-dasharray="2,2"/>
<circle cx="450" cy="450" r="4" fill="none" stroke="#1a1a2e" stroke-width="0.8"/>
<line x1="100" y1="450" x2="800" y2="450" stroke="#1a1a2e" stroke-width="0.8" stroke-dasharray="8,4,2,4"/>
<circle cx="80" cy="450" r="8" fill="#1a1a2e"/>
<text x="80" y="453" fill="white" font-size="8" text-anchor="middle">A</text>
<circle cx="820" cy="450" r="8" fill="#1a1a2e"/>
<text x="820" y="453" fill="white" font-size="8" text-anchor="middle">A</text>
</g>
<g id="ring-dimensions">
<line x1="100" y1="100" x2="100" y2="75" class="ext"/>
<line x1="800" y1="100" x2="800" y2="75" class="ext"/>
<line x1="100" y1="80" x2="800" y2="80" class="dim"/>
<text x="450" y="74" class="label" text-anchor="middle">Ø 7.00&quot;</text>
<line x1="150" y1="150" x2="150" y2="125" class="ext"/>
<line x1="750" y1="150" x2="750" y2="125" class="ext"/>
<line x1="150" y1="130" x2="750" y2="130" class="dim"/>
<text x="450" y="124" class="label" text-anchor="middle">Ø 6.00&quot;</text>
<line x1="300" y1="460" x2="300" y2="490" class="ext"/>
<line x1="600" y1="460" x2="600" y2="490" class="ext"/>
<line x1="300" y1="485" x2="600" y2="485" class="dim"/>
<text x="450" y="479" class="label" text-anchor="middle">Ø 3.00&quot;</text>
<path d="M 450.000,70.000 A 380,380 0 0 1 640.000,120.910" class="dim"/>
<line x1="553.528" y1="63.630" x2="593.528" y2="48.630" class="ext"/>
<text x="597.528" y="45.630" class="small">30.0°</text>
<text x="450" y="828" class="label" text-anchor="middle">12 EQUAL DIVISIONS × 30°</text>
<polyline points="450.000,115.000 575.000,115.000 764.000,244.000" class="ext"/>
<text x="770" y="250" class="small">Zone 5 Outer Binding 0.30&quot;</text>
<polyline points="545.795,155.172 622.898,155.172 764.000,266.000" class="ext"/>
<text x="770" y="272" class="small">Zone 4 Outer Purfling 0.20&quot;</text>
<polyline points="599.885,243.701 649.943,243.701 764.000,288.000" class="ext"/>
<text x="770" y="294" class="small">Zone 3 Main Channel 0.90&quot;</text>
<polyline points="611.803,332.443 655.902,332.443 764.000,310.000" class="ext"/>
<text x="770" y="316" class="small">Zone 2 Inner Purfling 0.20&quot;</text>
<polyline points="611.680,397.467 655.840,397.467 764.000,332.000" class="ext"/>
<text x="770" y="338" class="small">Zone 1 Binding 0.40&quot;</text>
<polyline points="365.000,302.776 150,232 140,232" class="ext"/>
<text x="140" y="230" class="small">Soundhole Binding</text>
<polyline points="276.795,350.000 115,177 105,177" class="ext"/>
<text x="105" y="175" class="small">Inner Purfling Channel</text>
<polyline points="210.378,537.215 155,122 145,122" class="ext"/>
<text x="145" y="120" class="small">Main Rosette Channel</text>
<polyline points="250.736,687.474 200,84 190,84" class="ext"/>
<text x="190" y="82" class="small">Outer Purfling Channel</text>
<polyline points="363.296,773.585 265,62 255,62" class="ext"/>
<text x="255" y="60" class="small">Outer Binding</text>
</g>
<g id="detail-view">
<path d="M 660.000,115.000 L 810.000,115.000 L 747.500,315.000 L 685.000,315.000 Z" fill="#4a90d9" stroke="#1a1a2e" stroke-width="1.2"/>
<path d="M 660.000,115.000 L 810.000,115.000 L 747.500,315.000 L 685.000,315.000 Z" fill="url(#hatchBlue)" stroke="none"/>
<polygon points="630,145 770,85 835,285 695,345" fill="#9ec0e6" opacity="0.15" stroke="#6a8bad" stroke-width="0.8"/>
<line x1="660" y1="115" x2="660" y2="93" class="ext"/>
<line x1="810" y1="115" x2="810" y2="93" class="ext"/>
<line x1="660" y1="97" x2="810" y2="97" class="dim"/>
<text x="735.0" y="91" class="label" text-anchor="middle">1.50&quot;</text>
<line x1="642" y1="115" x2="618" y2="115" class="ext"/>
<line x1="667" y1="315" x2="643" y2="315" class="ext"/>
<line x1="624" y1="115" x2="649" y2="315" class="dim"/>
<text x="608" y="215.0" class="label" transform="rotate(-90 608 215.0)" text-anchor="middle">2.000&quot;</text>
<line x1="685" y1="315" x2="685" y2="333" class="ext"/>
<line x1="716.25" y1="315" x2="716.25" y2="333" class="ext"/>
<line x1="747.5" y1="315" x2="747.5" y2="333" class="ext"/>
<line x1="685" y1="339" x2="716.25" y2="339" class="dim"/>
<text x="700.625" y="351" class="small" text-anchor="middle">0.75&quot;</text>
<line x1="716.25" y1="339" x2="747.5" y2="339" class="dim"/>
<text x="731.875" y="351" class="small" text-anchor="middle">0.75&quot;</text>
<line x1="826" y1="115" x2="850" y2="115" class="ext"/>
<line x1="763.5" y1="315" x2="787.5" y2="315" class="ext"/>
<line x1="844" y1="115" x2="781.5" y2="315" class="dim"/>
<text x="860" y="215.0" class="small" transform="rotate(-90 860 215.0)" text-anchor="middle">0.625&quot;</text>
<path d="M 678,115 A 18,18 0 0 1 665,132" class="ext"/>
<text x="655" y="107" class="small">7.1°</text>
<text x="630" y="72" class="label">DETAIL — TILE PIECE</text>
<polygon points="660,325 723,380 723,388 660,333" fill="#2a5a90" stroke="#1a1a2e" stroke-width="0.8"/>
<polygon points="723,380 798,360 798,368 723,388" fill="#3a70b0" stroke="#1a1a2e" stroke-width="0.8"/>
<polygon points="660,325 735,305 798,360 723,380" fill="#4a90d9" stroke="#1a1a2e" stroke-width="0.8"/>
<text x="725" y="403" class="tiny" text-anchor="middle">ISO VIEW</text>
</g>
<g id="title-block">
<rect x="620" y="760" width="240" height="96" fill="white" fill-opacity="0.85" stroke="#1a1a2e" stroke-width="1"/>
<line x1="620" y1="782" x2="860" y2="782" stroke="#1a1a2e" stroke-width="0.8"/>
<line x1="620" y1="800" x2="860" y2="800" stroke="#1a1a2e" stroke-width="0.8"/>
<line x1="620" y1="818" x2="860" y2="818" stroke="#1a1a2e" stroke-width="0.8"/>
<line x1="620" y1="836" x2="860" y2="836" stroke="#1a1a2e" stroke-width="0.8"/>
<text x="628" y="775" class="small">LUTHIER'S ROSETTE LAYOUT</text>
<text x="628" y="793" class="small">Scale: 1:1  |  Units: Inches</text>
<text x="628" y="811" class="small">Segments: 12  |  Angle: 30° ea.</text>
<text x="628" y="829" class="small">Main Channel OD: Ø6.00"</text>
<text x="628" y="847" class="small">Drawing: ROSETTE-001</text>
</g>
</svg>