<svg xmlns="http://www.w3.org/2000/svg" width="300" height="1000" viewBox="0 0 300 1000" shape-rendering="geometricPrecision">
<rect width="100%" height="100%" fill="white"/>
<g fill="black" stroke="none">
<polygon points="217.5,111.0 217.5,189.0 150.0,228.0 82.5,189.0 82.5,111.0 150.0,72.0"/>
<polygon points="191.6,126.0 191.6,174.0 150.0,198.0 108.4,174.0 108.4,126.0 150.0,102.0" fill="white"/>
<polygon points="150.0,150.0 170.8,138.0 170.8,162.0"/>
<polygon points="150.0,150.0 129.2,162.0 129.2,138.0"/>
<polygon points="217.5,311.0 217.5,389.0 150.0,428.0 82.5,389.0 82.5,311.0 150.0,272.0"/>
<polygon points="191.6,326.0 191.6,374.0 150.0,398.0 108.4,374.0 108.4,326.0 150.0,302.0" fill="white"/>
<polygon points="150.0,350.0 170.8,338.0 170.8,362.0"/>
<polygon points="150.0,350.0 129.2,362.0 129.2,338.0"/>
<polygon points="217.5,511.0 217.5,589.0 150.0,628.0 82.5,589.0 82.5,511.0 150.0,472.0"/>
<polygon points="191.6,526.0 191.6,574.0 150.0,598.0 108.4,574.0 108.4,526.0 150.0,502.0" fill="white"/>
<polygon points="150.0,550.0 170.8,538.0 170.8,562.0"/>
<polygon points="150.0,550.0 129.2,562.0 129.2,538.0"/>
<polygon points="217.5,711.0 217.5,789.0 150.0,828.0 82.5,789.0 82.5,711.0 150.0,672.0"/>
<polygon points="191.6,726.0 191.6,774.0 150.0,798.0 108.4,774.0 108.4,726.0 150.0,702.0" fill="white"/>
<polygon points="150.0,750.0 170.8,738.0 170.8,762.0"/>
<polygon points="150.0,750.0 129.2,762.0 129.2,738.0"/>
<polygon points="217.5,881.0 217.5,959.0 150.0,998.0 82.5,959.0 82.5,881.0 150.0,842.0"/>
<polygon points="191.6,896.0 191.6,944.0 150.0,968.0 108.4,944.0 108.4,896.0 150.0,872.0" fill="white"/>
<polygon points="150.0,920.0 170.8,908.0 170.8,932.0"/>
<polygon points="150.0,920.0 129.2,932.0 129.2,908.0"/>
<polygon points="105,218.6 195,218.6 225,250.6 195,282.6 105,282.6 75,250.6"/>
<polygon points="125,232.6 175,232.6 192,250.6 175,268.6 125,268.6 108,250.6" fill="white"/>
<polygon points="105,418.6 195,418.6 225,450.6 195,482.6 105,482.6 75,450.6"/>
<polygon points="125,432.6 175,432.6 192,450.6 175,468.6 125,468.6 108,450.6" fill="white"/>
<polygon points="105,618.6 195,618.6 225,650.6 195,682.6 105,682.6 75,650.6"/>
<polygon points="125,632.6 175,632.6 192,650.6 175,668.6 125,668.6 108,650.6" fill="white"/>
<polygon points="105,818.6 195,818.6 225,850.6 195,882.6 105,882.6 75,850.6"/>
<polygon points="125,832.6 175,832.6 192,850.6 175,868.6 125,868.6 108,850.6" fill="white"/>
</g>
</svg>