<svg xmlns="http://www.w3.org/2000/svg" width="1200" height="220" viewBox="0 0 1200 220" shape-rendering="geometricPrecision">
<rect width="100%" height="100%" fill="white"/>
<g fill="black" stroke="none">
<rect x="20" y="20" width="1160" height="180" rx="8"/>
<rect x="40" y="40" width="1120" height="140" fill="white"/>
<polygon points="90.0,40.0 160.0,110.0 90.0,180.0 20.0,110.0"/>
<polygon points="250.0,40.0 320.0,110.0 250.0,180.0 180.0,110.0"/>
<polygon points="410.0,40.0 480.0,110.0 410.0,180.0 340.0,110.0"/>
<polygon points="570.0,40.0 640.0,110.0 570.0,180.0 500.0,110.0"/>
<polygon points="730.0,40.0 800.0,110.0 730.0,180.0 660.0,110.0"/>
<polygon points="890.0,40.0 960.0,110.0 890.0,180.0 820.0,110.0"/>
<polygon points="1050.0,40.0 1120.0,110.0 1050.0,180.0 980.0,110.0"/>
</g>
</svg>