<svg xmlns="http://www.w3.org/2000/svg" width="1200" height="260" viewBox="0 0 1200 260" shape-rendering="geometricPrecision">
<rect width="100%" height="100%" fill="white"/>
<g fill="black" stroke="none">
<rect x="20" y="20" width="1160" height="220" rx="10"/>
<rect x="55" y="55" width="1090" height="150" fill="white"/>
<path d="M 55 205 C 97 205, 97 55, 140 55 C 183 55, 183 205, 225 205 L 225 240 L 55 240 Z"/>
<path d="M 55 55 C 97 55, 97 205, 140 205 C 183 205, 183 55, 225 55 L 225 20 L 55 20 Z"/>
<path d="M 225 205 C 267 205, 267 55, 310 55 C 353 55, 353 205, 395 205 L 395 240 L 225 240 Z"/>
<path d="M 225 55 C 267 55, 267 205, 310 205 C 353 205, 353 55, 395 55 L 395 20 L 225 20 Z"/>
<path d="M 395 205 C 437 205, 437 55, 480 55 C 523 55, 523 205, 565 205 L 565 240 L 395 240 Z"/>
<path d="M 395 55 C 437 55, 437 205, 480 205 C 523 205, 523 55, 565 55 L 565 20 L 395 20 Z"/>
<path d="M 565 205 C 607 205, 607 55, 650 55 C 693 55, 693 205, 735 205 L 735 240 L 565 240 Z"/>
<path d="M 565 55 C 607 55, 607 205, 650 205 C 693 205, 693 55, 735 55 L 735 20 L 565 20 Z"/>
<path d="M 735 205 C 777 205, 777 55, 820 55 C 863 55, 863 205, 905 205 L 905 240 L 735 240 Z"/>
<path d="M 735 55 C 777 55, 777 205, 820 205 C 863 205, 863 55, 905 55 L 905 20 L 735 20 Z"/>
<path d="M 905 205 C 947 205, 947 55, 990 55 C 1033 55, 1033 205, 1075 205 L 1075 240 L 905 240 Z"/>
<path d="M 905 55 C 947 55, 947 205, 990 205 C 1033 205, 1033 55, 1075 55 L 1075 20 L 905 20 Z"/>
<path d="M 1075 205 C 1117 205, 1117 55, 1160 55 C 1203 55, 1203 205, 1245 205 L 1245 240 L 1075 240 Z"/>
<path d="M 1075 55 C 1117 55, 1117 205, 1160 205 C 1203 205, 1203 55, 1245 55 L 1245 20 L 1075 20 Z"/>
</g>
</svg>