<svg xmlns="http://www.w3.org/2000/svg" width="800" height="1000" viewBox="0 0 800 1000" shape-rendering="geometricPrecision">
<rect width="100%" height="100%" fill="white"/>
<g fill="black" stroke="none">
<polygon points="400.0,75.0 725.0,500.0 400.0,925.0 75.0,500.0"/>
<polygon points="400.0,140.0 660.0,500.0 400.0,860.0 140.0,500.0" fill="white"/>
<polygon points="400.0,205.0 595.0,500.0 400.0,795.0 205.0,500.0"/>
<polygon points="400.0,270.0 530.0,500.0 400.0,730.0 270.0,500.0" fill="white"/>
<polygon points="400.0,435.0 465.0,500.0 400.0,565.0 335.0,500.0"/>
<polygon points="400.0,145.0 560.0,500.0 400.0,500.0 240.0,500.0"/>
<polygon points="400.0,185.0 524.8,500.0 400.0,500.0 275.2,500.0"/>
<polygon points="400.0,225.0 489.6,500.0 400.0,500.0 310.4,500.0"/>
<polygon points="655.0,500.0 400.0,340.0 400.0,500.0 400.0,660.0"/>
<polygon points="615.0,500.0 400.0,375.2 400.0,500.0 400.0,624.8"/>
<polygon points="575.0,500.0 400.0,410.4 400.0,500.0 400.0,589.6"/>
<polygon points="400.0,855.0 560.0,500.0 400.0,500.0 240.0,500.0"/>
<polygon points="400.0,815.0 524.8,500.0 400.0,500.0 275.2,500.0"/>
<polygon points="400.0,775.0 489.6,500.0 400.0,500.0 310.4,500.0"/>
<polygon points="145.0,500.0 400.0,340.0 400.0,500.0 400.0,660.0"/>
<polygon points="185.0,500.0 400.0,375.2 400.0,500.0 400.0,624.8"/>
<polygon points="225.0,500.0 400.0,410.4 400.0,500.0 400.0,589.6"/>
</g>
</svg>