<svg xmlns="http://www.w3.org/2000/svg" width="450" height="1000" viewBox="0 0 450 1000" shape-rendering="geometricPrecision">
<rect width="100%" height="100%" fill="white"/>
<g fill="black" stroke="none">
<rect x="15" y="15" width="420" height="970" rx="12"/>
<rect x="40" y="40" width="370" height="920" fill="white"/>
<polygon points="75.0,140.0 225.0,45.0 375.0,140.0 225.0,235.0"/>
<polygon points="115.0,140.0 225.0,85.0 335.0,140.0 225.0,195.0" fill="white"/>
<polygon points="115.0,300.0 225.0,205.0 335.0,300.0 225.0,395.0"/>
<polygon points="155.0,300.0 225.0,245.0 295.0,300.0 225.0,355.0" fill="white"/>
<polygon points="75.0,460.0 225.0,365.0 375.0,460.0 225.0,555.0"/>
<polygon points="115.0,460.0 225.0,405.0 335.0,460.0 225.0,515.0" fill="white"/>
<polygon points="115.0,620.0 225.0,525.0 335.0,620.0 225.0,715.0"/>
<polygon points="155.0,620.0 225.0,565.0 295.0,620.0 225.0,675.0" fill="white"/>
<polygon points="75.0,780.0 225.0,685.0 375.0,780.0 225.0,875.0"/>
<polygon points="115.0,780.0 225.0,725.0 335.0,780.0 225.0,835.0" fill="white"/>
<polygon points="55,120 145,75 145,125 55,170"/>
<polygon points="395,120 305,75 305,125 395,170"/>
<polygon points="55,240 145,195 145,245 55,290"/>
<polygon points="395,240 305,195 305,245 395,290"/>
<polygon points="55,360 145,315 145,365 55,410"/>
<polygon points="395,360 305,315 305,365 395,410"/>
<polygon points="55,480 145,435 145,485 55,530"/>
<polygon points="395,480 305,435 305,485 395,530"/>
<polygon points="55,600 145,555 145,605 55,650"/>
<polygon points="395,600 305,555 305,605 395,650"/>
<polygon points="55,720 145,675 145,725 55,770"/>
<polygon points="395,720 305,675 305,725 395,770"/>
<polygon points="55,840 145,795 145,845 55,890"/>
<polygon points="395,840 305,795 305,845 395,890"/>
</g>
</svg>