<svg xmlns="http://www.w3.org/2000/svg" width="1300" height="420" viewBox="0 0 1300 420" shape-rendering="geometricPrecision">
<rect width="100%" height="100%" fill="white"/>
<g fill="black" stroke="none">
<rect x="25" y="25" width="1250" height="370" rx="6"/>
<rect x="45" y="45" width="1210" height="330" fill="white"/>
<polygon points="230.0,105.0 335.0,210.0 230.0,315.0 125.0,210.0"/>
<polygon points="230.0,134.4 305.6,210.0 230.0,285.6 154.4,210.0" fill="white"/>
<polygon points="230.0,165.9 274.1,210.0 230.0,254.1 185.9,210.0"/>
<polygon points="230.0,191.1 248.9,210.0 230.0,228.9 211.1,210.0" fill="white"/>
<polygon points="470.0,95.0 585.0,210.0 470.0,325.0 355.0,210.0"/>
<polygon points="470.0,127.2 552.8,210.0 470.0,292.8 387.2,210.0" fill="white"/>
<polygon points="470.0,161.7 518.3,210.0 470.0,258.3 421.7,210.0"/>
<polygon points="470.0,189.3 490.7,210.0 470.0,230.7 449.3,210.0" fill="white"/>
<polygon points="710.0,95.0 825.0,210.0 710.0,325.0 595.0,210.0"/>
<polygon points="710.0,127.2 792.8,210.0 710.0,292.8 627.2,210.0" fill="white"/>
<polygon points="710.0,161.7 758.3,210.0 710.0,258.3 661.7,210.0"/>
<polygon points="710.0,189.3 730.7,210.0 710.0,230.7 689.3,210.0" fill="white"/>
<polygon points="950.0,105.0 1055.0,210.0 950.0,315.0 845.0,210.0"/>
<polygon points="950.0,134.4 1025.6,210.0 950.0,285.6 874.4,210.0" fill="white"/>
<polygon points="950.0,165.9 994.1,210.0 950.0,254.1 905.9,210.0"/>
<polygon points="950.0,191.1 968.9,210.0 950.0,228.9 931.1,210.0" fill="white"/>
<polygon points="110.0,47.0 128.0,65.0 110.0,83.0 92.0,65.0"/>
<polygon points="110.0,337.0 128.0,355.0 110.0,373.0 92.0,355.0"/>
<polygon points="350.0,47.0 368.0,65.0 350.0,83.0 332.0,65.0"/>
<polygon points="350.0,337.0 368.0,355.0 350.0,373.0 332.0,355.0"/>
<polygon points="590.0,47.0 608.0,65.0 590.0,83.0 572.0,65.0"/>
<polygon points="590.0,337.0 608.0,355.0 590.0,373.0 572.0,355.0"/>
<polygon points="830.0,47.0 848.0,65.0 830.0,83.0 812.0,65.0"/>
<polygon points="830.0,337.0 848.0,355.0 830.0,373.0 812.0,355.0"/>
<polygon points="1070.0,47.0 1088.0,65.0 1070.0,83.0 1052.0,65.0"/>
<polygon points="1070.0,337.0 1088.0,355.0 1070.0,373.0 1052.0,355.0"/>
</g>
</svg>